<?xml version="1.0" encoding="utf-8"?>
<!-- Generator: Adobe Illustrator 21.0.2, SVG Export Plug-In . SVG Version: 6.00 Build 0)  -->
<svg version="1.1" id="Layer_1" xmlns="http://www.w3.org/2000/svg" xmlns:xlink="http://www.w3.org/1999/xlink" x="0px" y="0px"
	 viewBox="0 0 30 17.625" style="enable-background:new 0 0 30 17.625;" xml:space="preserve">
<style type="text/css">
	.st0{fill:#FFFFFF;}
</style>
<g id="_x36_NFmS9.tif">
	<g>
		<path class="st0" d="M13.72,16.745c-0.459-0.185-0.908-0.385-1.208-0.805c-0.08-0.112-0.15-0.231-0.237-0.365
			c0.581-0.253,0.849-0.665,0.784-1.298c0.411-0.032,0.841-0.085,1.065-0.482c0.138-0.244,0.184-0.539,0.289-0.864
			c-0.004,0,0.088-0.002,0.178-0.014c0.442-0.059,0.788-0.27,0.936-0.702c0.15-0.435,0.062-0.838-0.28-1.166
			c-0.527-0.506-1.055-1.012-1.585-1.515c-0.88-0.836-1.768-1.665-2.64-2.51c-0.145-0.14-0.278-0.333-0.325-0.524
			c-0.081-0.329,0.072-0.607,0.367-0.772c0.308-0.171,0.621-0.137,0.884,0.101c0.411,0.372,0.808,0.758,1.21,1.14
			c0.676,0.641,1.35,1.284,2.028,1.922c0.137,0.129,0.278,0.256,0.433,0.362c0.588,0.401,1.086,0.306,1.475-0.289
			c0.219-0.335,0.411-0.687,0.623-1.026c0.319-0.511,0.834-0.655,1.299-0.372c0.458,0.278,0.567,0.81,0.259,1.327
			c-0.481,0.809-0.966,1.617-1.461,2.418c-0.105,0.17-0.117,0.302-0.022,0.479c0.167,0.31,0.313,0.632,0.454,0.956
			c0.466,1.067,0.073,2.209-0.969,2.729c-0.892,0.445-1.805,0.848-2.709,1.27C14.286,16.745,14.003,16.745,13.72,16.745z"/>
		<path class="st0" d="M14.071,13.159c-0.066,0.349-0.211,0.581-0.496,0.703c-0.308,0.132-0.601,0.082-0.85-0.15
			c-0.457-0.426-0.91-0.856-1.365-1.285c-0.257-0.243-0.517-0.483-0.77-0.73c-0.356-0.348-0.384-0.813-0.075-1.128
			c0.308-0.315,0.745-0.316,1.103,0.017c0.717,0.666,1.433,1.333,2.131,2.018C13.895,12.749,13.965,12.972,14.071,13.159z"/>
		<path class="st0" d="M15.279,11.731c0,0.415-0.136,0.649-0.416,0.784c-0.276,0.133-0.569,0.128-0.794-0.08
			c-0.779-0.717-1.551-1.443-2.305-2.186C11.49,9.981,11.52,9.525,11.77,9.252c0.262-0.287,0.724-0.352,1.02-0.083
			c0.783,0.713,1.547,1.447,2.304,2.187C15.208,11.468,15.245,11.66,15.279,11.731z"/>
		<path class="st0" d="M12.826,14.581c-0.154,0.197-0.278,0.441-0.476,0.586c-0.242,0.178-0.559,0.162-0.788-0.045
			c-0.688-0.624-1.367-1.259-2.024-1.915c-0.277-0.277-0.228-0.713,0.041-0.991c0.263-0.271,0.706-0.33,0.991-0.073
			c0.681,0.614,1.345,1.247,2,1.89C12.684,14.145,12.717,14.339,12.826,14.581z"/>
		<path class="st0" d="M18.239,5.791c-0.011,0.025-0.018,0.097-0.058,0.128c-0.343,0.262-0.683,0.53-1.047,0.761
			c-0.071,0.045-0.295-0.03-0.347-0.114c-0.053-0.083-0.026-0.302,0.048-0.365c0.302-0.257,0.627-0.491,0.961-0.705
			C17.995,5.369,18.244,5.533,18.239,5.791z"/>
		<path class="st0" d="M15.532,5.536c-0.056,0.053-0.158,0.226-0.266,0.23c-0.111,0.004-0.302-0.141-0.328-0.25
			c-0.081-0.351-0.125-0.715-0.13-1.075c-0.002-0.117,0.162-0.237,0.249-0.355c0.118,0.101,0.311,0.184,0.339,0.306
			C15.475,4.73,15.484,5.085,15.532,5.536z"/>
		<path class="st0" d="M14.214,6.172c-0.108-0.088-0.211-0.146-0.278-0.232c-0.202-0.258-0.388-0.527-0.582-0.791
			c-0.119-0.161-0.151-0.331,0.019-0.465c0.187-0.147,0.349-0.067,0.477,0.108c0.199,0.274,0.411,0.541,0.591,0.827
			c0.057,0.092,0.062,0.247,0.029,0.355C14.446,6.051,14.319,6.096,14.214,6.172z"/>
		<path class="st0" d="M17.05,4.674c-0.205,0.439-0.381,0.846-0.592,1.234c-0.037,0.067-0.26,0.108-0.334,0.061
			c-0.09-0.057-0.183-0.244-0.152-0.333c0.13-0.374,0.29-0.74,0.475-1.09c0.046-0.086,0.237-0.149,0.347-0.132
			C16.887,4.429,16.959,4.575,17.05,4.674z"/>
	</g>
</g>
</svg>
