<?xml version="1.0" encoding="utf-8"?>
<!-- Generator: Adobe Illustrator 21.0.2, SVG Export Plug-In . SVG Version: 6.00 Build 0)  -->
<svg version="1.1" id="Layer_1" xmlns="http://www.w3.org/2000/svg" xmlns:xlink="http://www.w3.org/1999/xlink" x="0px" y="0px"
	 viewBox="0 0 200 200" style="enable-background:new 0 0 200 200;" xml:space="preserve">
<style type="text/css">
	.st0{fill:#323E48;}
</style>
<g>
	<path class="st0" d="M146.771,116.224c0,25.091,0,50.182,0,75.272c-0.582,1.041-1.467,1.344-2.646,1.343
		c-29.418-0.025-58.835-0.025-88.253,0c-1.179,0.001-2.068-0.292-2.644-1.343c0-25.091,0-50.182,0-75.272
		c0.673-1.378,1.911-1.341,3.19-1.34c29.237,0.012,58.473,0.014,87.71-0.009C145.306,114.874,146.195,115.175,146.771,116.224z
		 M142.886,188.889c0-0.422,0-0.782,0-1.141c0-17.351,0.001-34.702-0.002-52.053c0-1.474,0.159-1.336-1.304-1.336
		c-27.823-0.002-55.645-0.002-83.468,0.001c-0.319,0-0.637,0.033-0.954,0.051c0,18.224,0,36.326,0,54.479
		C85.718,188.889,114.229,188.889,142.886,188.889z M142.841,118.837c-28.615,0-57.129,0-85.659,0c0,3.901,0,7.745,0,11.582
		c28.586,0,57.1,0,85.659,0C142.841,126.542,142.841,122.719,142.841,118.837z"/>
	<path class="st0" d="M79.896,165.516c13.358,0,26.614,0,40.033,0c-0.647-0.87-1.223-1.638-1.792-2.411
		c-0.84-1.14-0.776-2.257,0.166-2.99c0.96-0.747,2.096-0.495,2.974,0.676c1.333,1.778,2.662,3.559,3.981,5.347
		c0.737,0.999,0.734,1.737-0.009,2.745c-1.336,1.813-2.681,3.62-4.033,5.421c-0.797,1.061-1.918,1.291-2.857,0.612
		c-0.979-0.708-1.082-1.834-0.26-2.965c0.571-0.786,1.157-1.562,1.81-2.443c-13.342,0-26.574,0-39.97,0
		c0.666,0.774,1.255,1.451,1.836,2.135c0.905,1.067,0.906,2.213,0.009,2.983c-0.881,0.757-2.06,0.587-2.963-0.44
		c-1.507-1.715-3.012-3.433-4.51-5.156c-0.92-1.057-0.936-1.958-0.053-3.005c1.511-1.792,3.028-3.579,4.551-5.361
		c0.914-1.07,2.043-1.254,2.947-0.502c0.917,0.762,0.939,1.904,0.047,2.984c-0.582,0.704-1.177,1.397-1.764,2.097
		C80.001,165.287,79.983,165.347,79.896,165.516z"/>
	<path class="st0" d="M64.921,167.379c0-1.826-0.005-3.652,0.002-5.477c0.005-1.308,0.783-2.187,1.924-2.195
		c1.154-0.008,1.948,0.845,1.952,2.159c0.011,3.743,0.011,7.486,0.001,11.229c-0.004,1.36-0.736,2.172-1.915,2.18
		c-1.205,0.008-1.955-0.836-1.961-2.235C64.915,171.152,64.921,169.266,64.921,167.379z"/>
	<path class="st0" d="M131.194,167.499c0-1.856-0.008-3.713,0.003-5.569c0.008-1.392,0.784-2.25,1.975-2.221
		c1.139,0.028,1.901,0.901,1.904,2.219c0.007,3.712,0.007,7.425,0,11.137c-0.002,1.34-0.742,2.185-1.901,2.208
		c-1.224,0.025-1.969-0.793-1.978-2.206C131.185,171.211,131.194,169.355,131.194,167.499z"/>
	<path class="st0" d="M70.761,126.582c-1.027,0.002-1.924-0.877-1.954-1.914c-0.03-1.051,0.906-2.006,1.962-2.001
		c1.032,0.005,1.93,0.886,1.952,1.916C72.744,125.651,71.834,126.58,70.761,126.582z"/>
	<path class="st0" d="M62.978,122.667c1.028,0.001,1.921,0.883,1.943,1.918c0.023,1.071-0.884,2-1.953,2
		c-1.038,0-1.914-0.872-1.928-1.917C61.025,123.569,61.9,122.666,62.978,122.667z"/>
	<path class="st0" d="M80.488,124.607c0.009,1.097-0.879,1.994-1.957,1.976c-1.044-0.017-1.902-0.886-1.915-1.939
		c-0.013-1.087,0.89-1.992,1.968-1.973C79.634,122.69,80.479,123.548,80.488,124.607z"/>
</g>
<g>
	<path class="st0" d="M20.442,103.98h-2.653v2.313h3.05v0.405H17.31v-5.671h3.51v0.405h-3.031v2.143h2.653V103.98z"/>
	<path class="st0" d="M22.665,104.194l1.137-1.71h0.553l-1.43,2.068l1.492,2.146h-0.549l-1.2-1.784l-1.2,1.784h-0.549l1.488-2.146
		l-1.429-2.068h0.549L22.665,104.194z"/>
	<path class="st0" d="M28.209,104.635c0,0.657-0.146,1.178-0.437,1.564c-0.291,0.386-0.68,0.579-1.168,0.579
		c-0.577,0-1.018-0.203-1.324-0.608v2.15h-0.463v-5.835h0.432l0.023,0.596c0.304-0.449,0.744-0.674,1.32-0.674
		c0.504,0,0.899,0.191,1.186,0.573c0.287,0.381,0.431,0.911,0.431,1.589V104.635z M27.742,104.553c0-0.537-0.111-0.962-0.332-1.273
		s-0.528-0.468-0.923-0.468c-0.286,0-0.531,0.069-0.736,0.207s-0.362,0.338-0.471,0.6v2.021c0.111,0.242,0.271,0.426,0.479,0.553
		s0.453,0.191,0.736,0.191c0.392,0,0.698-0.157,0.917-0.469C27.632,105.602,27.742,105.147,27.742,104.553z"/>
	<path class="st0" d="M31.503,106.699c-0.047-0.132-0.077-0.329-0.089-0.588c-0.164,0.213-0.372,0.377-0.625,0.493
		c-0.253,0.115-0.521,0.173-0.804,0.173c-0.405,0-0.733-0.113-0.983-0.339c-0.251-0.226-0.376-0.512-0.376-0.857
		c0-0.41,0.17-0.735,0.512-0.974c0.341-0.239,0.817-0.358,1.428-0.358h0.845v-0.479c0-0.301-0.093-0.538-0.279-0.711
		s-0.456-0.259-0.812-0.259c-0.325,0-0.593,0.083-0.806,0.249c-0.213,0.167-0.32,0.366-0.32,0.6l-0.467-0.004
		c0-0.335,0.156-0.625,0.467-0.871c0.312-0.246,0.695-0.368,1.149-0.368c0.47,0,0.841,0.118,1.112,0.353
		c0.271,0.235,0.411,0.563,0.419,0.983v1.995c0,0.408,0.043,0.712,0.128,0.915v0.047H31.503z M30.039,106.364
		c0.312,0,0.59-0.075,0.835-0.226c0.245-0.15,0.424-0.352,0.536-0.604v-0.927h-0.834c-0.465,0.005-0.828,0.09-1.09,0.255
		c-0.262,0.165-0.394,0.391-0.394,0.68c0,0.236,0.088,0.432,0.263,0.588S29.758,106.364,30.039,106.364z"/>
	<path class="st0" d="M33.161,102.484l0.016,0.721c0.158-0.26,0.355-0.458,0.592-0.594c0.236-0.137,0.498-0.205,0.783-0.205
		c0.452,0,0.788,0.127,1.009,0.382c0.221,0.254,0.333,0.636,0.335,1.145v2.766h-0.463v-2.77c-0.003-0.376-0.083-0.657-0.24-0.841
		s-0.408-0.277-0.753-0.277c-0.289,0-0.543,0.09-0.766,0.271s-0.386,0.424-0.493,0.73v2.886h-0.464v-4.215H33.161z"/>
	<path class="st0" d="M36.514,104.553c0-0.654,0.146-1.175,0.438-1.564c0.292-0.388,0.689-0.582,1.19-0.582
		c0.569,0,1.002,0.225,1.301,0.674v-2.364h0.463v5.983H39.47l-0.019-0.561c-0.299,0.426-0.738,0.639-1.317,0.639
		c-0.485,0-0.877-0.196-1.174-0.586s-0.446-0.918-0.446-1.583V104.553z M36.985,104.635c0,0.538,0.107,0.961,0.323,1.272
		c0.215,0.31,0.52,0.465,0.912,0.465c0.574,0,0.981-0.253,1.223-0.76v-1.979c-0.242-0.548-0.647-0.822-1.215-0.822
		c-0.392,0-0.697,0.154-0.916,0.462S36.985,104.035,36.985,104.635z"/>
	<path class="st0" d="M43.611,106.029l1.231-3.545h0.502l-1.8,4.932l-0.093,0.218c-0.231,0.511-0.588,0.767-1.071,0.767
		c-0.112,0-0.231-0.018-0.358-0.055l-0.004-0.385l0.242,0.023c0.229,0,0.413-0.057,0.555-0.169c0.142-0.113,0.262-0.307,0.36-0.583
		l0.207-0.569l-1.589-4.18h0.51L43.611,106.029z"/>
	<path class="st0" d="M45.351,104.53c0-0.405,0.079-0.77,0.236-1.095c0.157-0.325,0.379-0.577,0.666-0.758
		c0.287-0.18,0.612-0.271,0.976-0.271c0.561,0,1.015,0.197,1.363,0.59c0.348,0.394,0.522,0.915,0.522,1.564v0.098
		c0,0.408-0.079,0.774-0.235,1.1c-0.157,0.326-0.379,0.577-0.665,0.754s-0.611,0.265-0.978,0.265c-0.558,0-1.012-0.197-1.361-0.59
		s-0.524-0.915-0.524-1.564V104.53z M45.818,104.658c0,0.504,0.131,0.917,0.392,1.241s0.603,0.485,1.026,0.485
		c0.421,0,0.762-0.162,1.022-0.485c0.261-0.323,0.392-0.75,0.392-1.28v-0.089c0-0.322-0.06-0.617-0.179-0.884
		c-0.12-0.268-0.287-0.475-0.502-0.622c-0.216-0.146-0.462-0.22-0.74-0.22c-0.416,0-0.754,0.163-1.017,0.489
		c-0.262,0.326-0.394,0.752-0.394,1.279V104.658z"/>
	<path class="st0" d="M52.388,106.166c-0.281,0.408-0.729,0.612-1.344,0.612c-0.45,0-0.791-0.131-1.024-0.392
		c-0.234-0.261-0.354-0.647-0.358-1.159v-2.743h0.463v2.684c0,0.802,0.325,1.204,0.974,1.204c0.675,0,1.103-0.279,1.282-0.837v-3.05
		h0.467v4.215h-0.452L52.388,106.166z"/>
	<path class="st0" d="M55.608,102.882c-0.099-0.018-0.204-0.027-0.315-0.027c-0.291,0-0.537,0.082-0.738,0.244
		s-0.345,0.398-0.43,0.707v2.894H53.66v-4.215h0.456l0.008,0.67c0.247-0.499,0.643-0.748,1.188-0.748
		c0.13,0,0.232,0.017,0.308,0.051L55.608,102.882z"/>
	<path class="st0" d="M60.879,104.635c0,0.657-0.146,1.178-0.437,1.564c-0.291,0.386-0.682,0.579-1.172,0.579
		c-0.587,0-1.031-0.218-1.332-0.655l-0.02,0.577h-0.436v-5.983h0.463v2.38c0.296-0.459,0.735-0.689,1.316-0.689
		c0.499,0,0.893,0.19,1.182,0.571c0.29,0.38,0.435,0.909,0.435,1.587V104.635z M60.412,104.553c0-0.556-0.108-0.985-0.324-1.287
		c-0.215-0.303-0.519-0.454-0.911-0.454c-0.299,0-0.552,0.074-0.76,0.22c-0.208,0.147-0.365,0.362-0.471,0.645v1.901
		c0.233,0.53,0.646,0.795,1.239,0.795c0.384,0,0.685-0.152,0.901-0.456C60.303,105.612,60.412,105.158,60.412,104.553z"/>
	<path class="st0" d="M63.456,102.882c-0.099-0.018-0.204-0.027-0.315-0.027c-0.291,0-0.537,0.082-0.738,0.244
		s-0.345,0.398-0.43,0.707v2.894h-0.464v-4.215h0.456l0.008,0.67c0.247-0.499,0.643-0.748,1.188-0.748
		c0.13,0,0.232,0.017,0.308,0.051L63.456,102.882z"/>
	<path class="st0" d="M63.458,104.53c0-0.405,0.079-0.77,0.236-1.095c0.157-0.325,0.379-0.577,0.666-0.758
		c0.287-0.18,0.612-0.271,0.976-0.271c0.561,0,1.015,0.197,1.363,0.59c0.348,0.394,0.522,0.915,0.522,1.564v0.098
		c0,0.408-0.079,0.774-0.235,1.1c-0.157,0.326-0.379,0.577-0.665,0.754s-0.611,0.265-0.978,0.265c-0.558,0-1.012-0.197-1.361-0.59
		s-0.524-0.915-0.524-1.564V104.53z M63.926,104.658c0,0.504,0.131,0.917,0.392,1.241s0.603,0.485,1.026,0.485
		c0.421,0,0.762-0.162,1.022-0.485c0.261-0.323,0.392-0.75,0.392-1.28v-0.089c0-0.322-0.06-0.617-0.179-0.884
		c-0.12-0.268-0.287-0.475-0.502-0.622c-0.216-0.146-0.462-0.22-0.74-0.22c-0.416,0-0.754,0.163-1.017,0.489
		c-0.262,0.326-0.394,0.752-0.394,1.279V104.658z"/>
	<path class="st0" d="M68.793,105.729l0.07,0.362l0.094-0.382l1.013-3.226h0.397l1.001,3.198l0.109,0.444l0.09-0.409l0.865-3.233
		h0.483l-1.227,4.215H71.29l-1.083-3.342l-0.05-0.229l-0.051,0.233l-1.063,3.338h-0.397l-1.223-4.215h0.479L68.793,105.729z"/>
	<path class="st0" d="M75.924,105.628c0-0.231-0.093-0.417-0.279-0.557c-0.186-0.14-0.465-0.25-0.839-0.329
		c-0.374-0.079-0.664-0.17-0.871-0.272c-0.206-0.103-0.359-0.228-0.459-0.376s-0.15-0.327-0.15-0.538
		c0-0.333,0.139-0.607,0.417-0.824c0.278-0.217,0.633-0.325,1.067-0.325c0.47,0,0.847,0.116,1.132,0.349
		c0.284,0.232,0.426,0.536,0.426,0.91H75.9c0-0.247-0.103-0.452-0.31-0.616s-0.467-0.245-0.781-0.245
		c-0.306,0-0.552,0.068-0.738,0.204c-0.186,0.137-0.279,0.314-0.279,0.532c0,0.21,0.077,0.374,0.232,0.489
		c0.154,0.116,0.436,0.222,0.845,0.318c0.409,0.096,0.715,0.198,0.919,0.308c0.204,0.109,0.355,0.24,0.454,0.394
		c0.099,0.153,0.148,0.339,0.148,0.557c0,0.356-0.144,0.64-0.43,0.853c-0.287,0.213-0.662,0.32-1.124,0.32
		c-0.491,0-0.889-0.119-1.194-0.356c-0.305-0.238-0.458-0.539-0.458-0.902h0.467c0.018,0.272,0.133,0.485,0.345,0.637
		c0.211,0.152,0.491,0.228,0.839,0.228c0.325,0,0.587-0.071,0.787-0.214C75.824,106.027,75.924,105.846,75.924,105.628z"/>
	<path class="st0" d="M78.672,106.777c-0.358,0-0.682-0.088-0.972-0.265s-0.515-0.422-0.676-0.738
		c-0.161-0.315-0.242-0.669-0.242-1.062v-0.167c0-0.405,0.079-0.77,0.236-1.094c0.157-0.325,0.375-0.58,0.656-0.766
		c0.28-0.186,0.584-0.278,0.912-0.278c0.511,0,0.917,0.175,1.217,0.524c0.3,0.349,0.45,0.826,0.45,1.432v0.261h-3.007v0.089
		c0,0.478,0.137,0.876,0.411,1.194c0.274,0.318,0.619,0.477,1.034,0.477c0.249,0,0.469-0.045,0.66-0.136s0.364-0.236,0.52-0.437
		l0.292,0.222C79.821,106.529,79.324,106.777,78.672,106.777z M78.587,102.804c-0.351,0-0.646,0.128-0.886,0.385
		c-0.24,0.257-0.386,0.603-0.438,1.036h2.528v-0.05c-0.013-0.405-0.129-0.735-0.347-0.99
		C79.226,102.931,78.94,102.804,78.587,102.804z"/>
	<path class="st0" d="M82.71,102.882c-0.099-0.018-0.204-0.027-0.315-0.027c-0.291,0-0.537,0.082-0.738,0.244
		s-0.345,0.398-0.43,0.707v2.894h-0.464v-4.215h0.456l0.008,0.67c0.247-0.499,0.643-0.748,1.188-0.748
		c0.13,0,0.232,0.017,0.308,0.051L82.71,102.882z"/>
	<path class="st0" d="M85.598,105.729l0.07,0.362l0.094-0.382l1.013-3.226h0.397l1.001,3.198l0.109,0.444l0.09-0.409l0.865-3.233
		h0.483l-1.227,4.215h-0.397l-1.083-3.342l-0.05-0.229l-0.051,0.233l-1.063,3.338H85.45l-1.223-4.215h0.479L85.598,105.729z"/>
	<path class="st0" d="M90.177,101.267c0-0.087,0.028-0.162,0.085-0.222c0.057-0.061,0.135-0.091,0.234-0.091s0.177,0.03,0.235,0.091
		c0.059,0.061,0.088,0.135,0.088,0.222c0,0.088-0.029,0.162-0.088,0.221c-0.058,0.06-0.137,0.089-0.235,0.089
		s-0.177-0.03-0.234-0.089C90.205,101.429,90.177,101.355,90.177,101.267z M90.726,106.699h-0.467v-4.215h0.467V106.699z"/>
	<path class="st0" d="M92.037,102.484l0.016,0.721c0.158-0.26,0.355-0.458,0.592-0.594c0.236-0.137,0.498-0.205,0.783-0.205
		c0.452,0,0.788,0.127,1.009,0.382c0.221,0.254,0.333,0.636,0.335,1.145v2.766h-0.463v-2.77c-0.003-0.376-0.083-0.657-0.24-0.841
		s-0.408-0.277-0.753-0.277c-0.289,0-0.543,0.09-0.766,0.271s-0.386,0.424-0.493,0.73v2.886h-0.464v-4.215H92.037z"/>
	<path class="st0" d="M95.39,104.553c0-0.654,0.146-1.175,0.438-1.564c0.292-0.388,0.689-0.582,1.19-0.582
		c0.569,0,1.002,0.225,1.301,0.674v-2.364h0.463v5.983h-0.437l-0.019-0.561c-0.299,0.426-0.738,0.639-1.317,0.639
		c-0.485,0-0.877-0.196-1.174-0.586s-0.446-0.918-0.446-1.583V104.553z M95.861,104.635c0,0.538,0.107,0.961,0.323,1.272
		c0.215,0.31,0.52,0.465,0.912,0.465c0.574,0,0.981-0.253,1.223-0.76v-1.979c-0.242-0.548-0.647-0.822-1.215-0.822
		c-0.392,0-0.697,0.154-0.916,0.462S95.861,104.035,95.861,104.635z"/>
	<path class="st0" d="M99.353,104.53c0-0.405,0.079-0.77,0.236-1.095c0.157-0.325,0.379-0.577,0.666-0.758
		c0.287-0.18,0.612-0.271,0.976-0.271c0.561,0,1.016,0.197,1.363,0.59c0.348,0.394,0.521,0.915,0.521,1.564v0.098
		c0,0.408-0.078,0.774-0.234,1.1c-0.158,0.326-0.379,0.577-0.664,0.754c-0.287,0.177-0.613,0.265-0.979,0.265
		c-0.558,0-1.012-0.197-1.361-0.59s-0.524-0.915-0.524-1.564V104.53z M99.82,104.658c0,0.504,0.131,0.917,0.392,1.241
		s0.603,0.485,1.026,0.485c0.42,0,0.762-0.162,1.023-0.485c0.26-0.323,0.391-0.75,0.391-1.28v-0.089c0-0.322-0.061-0.617-0.18-0.884
		c-0.119-0.268-0.287-0.475-0.502-0.622c-0.215-0.146-0.463-0.22-0.74-0.22c-0.416,0-0.754,0.163-1.017,0.489
		c-0.262,0.326-0.394,0.752-0.394,1.279V104.658z"/>
	<path class="st0" d="M104.688,105.729l0.07,0.362l0.094-0.382l1.013-3.226h0.397l1.001,3.198l0.109,0.444l0.089-0.409l0.865-3.233
		h0.482l-1.227,4.215h-0.397l-1.083-3.342l-0.051-0.229l-0.05,0.233l-1.063,3.338h-0.397l-1.224-4.215h0.479L104.688,105.729z"/>
	<path class="st0" d="M111.56,101.406v1.079h0.873v0.382h-0.873v2.812c0,0.234,0.042,0.408,0.127,0.523
		c0.084,0.114,0.225,0.171,0.423,0.171c0.077,0,0.203-0.013,0.377-0.039l0.02,0.378c-0.122,0.044-0.288,0.066-0.498,0.066
		c-0.319,0-0.552-0.093-0.697-0.279s-0.219-0.459-0.219-0.82v-2.812h-0.774v-0.382h0.774v-1.079H111.56z"/>
	<path class="st0" d="M112.665,104.53c0-0.405,0.078-0.77,0.235-1.095s0.38-0.577,0.666-0.758c0.287-0.18,0.612-0.271,0.977-0.271
		c0.561,0,1.015,0.197,1.363,0.59c0.348,0.394,0.521,0.915,0.521,1.564v0.098c0,0.408-0.078,0.774-0.235,1.1
		c-0.157,0.326-0.379,0.577-0.664,0.754c-0.286,0.177-0.612,0.265-0.978,0.265c-0.559,0-1.013-0.197-1.362-0.59
		c-0.349-0.394-0.523-0.915-0.523-1.564V104.53z M113.133,104.658c0,0.504,0.13,0.917,0.392,1.241
		c0.261,0.323,0.603,0.485,1.026,0.485c0.42,0,0.761-0.162,1.022-0.485c0.261-0.323,0.391-0.75,0.391-1.28v-0.089
		c0-0.322-0.06-0.617-0.179-0.884c-0.119-0.268-0.287-0.475-0.503-0.622c-0.215-0.146-0.462-0.22-0.739-0.22
		c-0.416,0-0.755,0.163-1.018,0.489c-0.262,0.326-0.393,0.752-0.393,1.279V104.658z"/>
	<path class="st0" d="M119.844,106.057l1.282-3.572h0.479l-1.573,4.215h-0.378l-1.581-4.215h0.479L119.844,106.057z"/>
	<path class="st0" d="M121.942,101.267c0-0.087,0.029-0.162,0.086-0.222c0.058-0.061,0.135-0.091,0.233-0.091
		s0.178,0.03,0.236,0.091c0.059,0.061,0.087,0.135,0.087,0.222c0,0.088-0.028,0.162-0.087,0.221
		c-0.059,0.06-0.138,0.089-0.236,0.089s-0.176-0.03-0.233-0.089C121.972,101.429,121.942,101.355,121.942,101.267z M122.492,106.699
		h-0.468v-4.215h0.468V106.699z"/>
	<path class="st0" d="M124.991,106.777c-0.358,0-0.683-0.088-0.973-0.265c-0.289-0.177-0.515-0.422-0.676-0.738
		c-0.161-0.315-0.241-0.669-0.241-1.062v-0.167c0-0.405,0.078-0.77,0.235-1.094s0.376-0.58,0.656-0.766
		c0.281-0.186,0.585-0.278,0.912-0.278c0.512,0,0.917,0.175,1.217,0.524s0.45,0.826,0.45,1.432v0.261h-3.007v0.089
		c0,0.478,0.137,0.876,0.41,1.194c0.274,0.318,0.619,0.477,1.034,0.477c0.25,0,0.47-0.045,0.661-0.136
		c0.19-0.091,0.363-0.236,0.52-0.437l0.292,0.222C126.14,106.529,125.643,106.777,124.991,106.777z M124.905,102.804
		c-0.351,0-0.646,0.128-0.887,0.385c-0.24,0.257-0.386,0.603-0.438,1.036h2.527v-0.05c-0.013-0.405-0.128-0.735-0.347-0.99
		C125.544,102.931,125.258,102.804,124.905,102.804z"/>
	<path class="st0" d="M128.09,105.729l0.07,0.362l0.094-0.382l1.013-3.226h0.397l1.001,3.198l0.109,0.444l0.089-0.409l0.865-3.233
		h0.482l-1.227,4.215h-0.397l-1.083-3.342l-0.051-0.229l-0.05,0.233l-1.063,3.338h-0.397l-1.224-4.215h0.479L128.09,105.729z"/>
	<path class="st0" d="M134.962,101.406v1.079h0.873v0.382h-0.873v2.812c0,0.234,0.042,0.408,0.127,0.523
		c0.084,0.114,0.225,0.171,0.423,0.171c0.077,0,0.203-0.013,0.377-0.039l0.02,0.378c-0.122,0.044-0.288,0.066-0.498,0.066
		c-0.319,0-0.552-0.093-0.697-0.279s-0.219-0.459-0.219-0.82v-2.812h-0.774v-0.382h0.774v-1.079H134.962z"/>
	<path class="st0" d="M136.865,103.197c0.153-0.252,0.35-0.446,0.588-0.584c0.239-0.138,0.5-0.207,0.783-0.207
		c0.452,0,0.788,0.127,1.009,0.382c0.221,0.254,0.332,0.636,0.335,1.145v2.766h-0.464v-2.77c-0.002-0.376-0.082-0.657-0.239-0.841
		s-0.408-0.277-0.754-0.277c-0.288,0-0.543,0.09-0.766,0.271c-0.222,0.181-0.386,0.424-0.492,0.73v2.886h-0.464v-5.983h0.464
		V103.197z"/>
	<path class="st0" d="M142.014,106.777c-0.358,0-0.683-0.088-0.973-0.265c-0.289-0.177-0.515-0.422-0.676-0.738
		c-0.161-0.315-0.241-0.669-0.241-1.062v-0.167c0-0.405,0.078-0.77,0.235-1.094s0.376-0.58,0.656-0.766
		c0.281-0.186,0.585-0.278,0.912-0.278c0.512,0,0.917,0.175,1.217,0.524s0.45,0.826,0.45,1.432v0.261h-3.007v0.089
		c0,0.478,0.137,0.876,0.41,1.194c0.274,0.318,0.619,0.477,1.034,0.477c0.25,0,0.47-0.045,0.661-0.136
		c0.19-0.091,0.363-0.236,0.52-0.437l0.292,0.222C143.162,106.529,142.665,106.777,142.014,106.777z M141.928,102.804
		c-0.351,0-0.646,0.128-0.887,0.385c-0.24,0.257-0.386,0.603-0.438,1.036h2.527v-0.05c-0.013-0.405-0.128-0.735-0.347-0.99
		C142.566,102.931,142.28,102.804,141.928,102.804z"/>
	<path class="st0" d="M147.202,106.384c0.324,0,0.597-0.092,0.815-0.275c0.22-0.183,0.339-0.42,0.356-0.71h0.448
		c-0.013,0.257-0.094,0.491-0.241,0.703c-0.148,0.212-0.345,0.377-0.591,0.497c-0.245,0.119-0.508,0.179-0.788,0.179
		c-0.554,0-0.991-0.192-1.314-0.577c-0.324-0.384-0.485-0.901-0.485-1.55v-0.14c0-0.416,0.072-0.783,0.218-1.103
		s0.354-0.566,0.626-0.74c0.271-0.174,0.588-0.261,0.952-0.261c0.462,0,0.843,0.138,1.143,0.413
		c0.301,0.275,0.461,0.638,0.481,1.087h-0.448c-0.021-0.33-0.14-0.596-0.356-0.798s-0.49-0.304-0.819-0.304
		c-0.421,0-0.747,0.152-0.979,0.456s-0.349,0.729-0.349,1.278v0.136c0,0.538,0.116,0.957,0.349,1.258
		C146.451,106.233,146.778,106.384,147.202,106.384z"/>
	<path class="st0" d="M149.877,106.699h-0.468v-5.983h0.468V106.699z"/>
	<path class="st0" d="M153.404,106.699c-0.047-0.132-0.077-0.329-0.09-0.588c-0.164,0.213-0.372,0.377-0.625,0.493
		c-0.254,0.115-0.521,0.173-0.805,0.173c-0.405,0-0.733-0.113-0.983-0.339c-0.251-0.226-0.376-0.512-0.376-0.857
		c0-0.41,0.171-0.735,0.512-0.974c0.342-0.239,0.817-0.358,1.428-0.358h0.846v-0.479c0-0.301-0.093-0.538-0.278-0.711
		c-0.187-0.173-0.457-0.259-0.812-0.259c-0.324,0-0.594,0.083-0.807,0.249c-0.213,0.167-0.319,0.366-0.319,0.6l-0.467-0.004
		c0-0.335,0.155-0.625,0.467-0.871c0.312-0.246,0.695-0.368,1.149-0.368c0.47,0,0.841,0.118,1.112,0.353s0.41,0.563,0.418,0.983
		v1.995c0,0.408,0.043,0.712,0.129,0.915v0.047H153.404z M151.939,106.364c0.312,0,0.59-0.075,0.835-0.226
		c0.246-0.15,0.424-0.352,0.536-0.604v-0.927h-0.834c-0.465,0.005-0.828,0.09-1.091,0.255c-0.262,0.165-0.393,0.391-0.393,0.68
		c0,0.236,0.087,0.432,0.263,0.588C151.431,106.286,151.659,106.364,151.939,106.364z"/>
	<path class="st0" d="M157.142,105.628c0-0.231-0.093-0.417-0.278-0.557c-0.186-0.14-0.466-0.25-0.84-0.329
		c-0.374-0.079-0.664-0.17-0.87-0.272c-0.207-0.103-0.36-0.228-0.46-0.376s-0.15-0.327-0.15-0.538c0-0.333,0.14-0.607,0.417-0.824
		c0.278-0.217,0.634-0.325,1.067-0.325c0.47,0,0.848,0.116,1.132,0.349s0.427,0.536,0.427,0.91h-0.468
		c0-0.247-0.104-0.452-0.31-0.616c-0.207-0.164-0.467-0.245-0.781-0.245c-0.307,0-0.553,0.068-0.738,0.204
		c-0.186,0.137-0.278,0.314-0.278,0.532c0,0.21,0.077,0.374,0.231,0.489c0.155,0.116,0.437,0.222,0.846,0.318
		c0.409,0.096,0.716,0.198,0.919,0.308c0.204,0.109,0.355,0.24,0.454,0.394c0.099,0.153,0.148,0.339,0.148,0.557
		c0,0.356-0.144,0.64-0.431,0.853c-0.287,0.213-0.662,0.32-1.124,0.32c-0.49,0-0.889-0.119-1.193-0.356
		c-0.306-0.238-0.458-0.539-0.458-0.902h0.468c0.018,0.272,0.133,0.485,0.345,0.637c0.211,0.152,0.491,0.228,0.839,0.228
		c0.324,0,0.587-0.071,0.787-0.214C157.042,106.027,157.142,105.846,157.142,105.628z"/>
	<path class="st0" d="M160.782,105.628c0-0.231-0.093-0.417-0.278-0.557c-0.186-0.14-0.466-0.25-0.84-0.329
		c-0.374-0.079-0.664-0.17-0.87-0.272c-0.207-0.103-0.36-0.228-0.46-0.376s-0.15-0.327-0.15-0.538c0-0.333,0.14-0.607,0.417-0.824
		c0.278-0.217,0.634-0.325,1.067-0.325c0.47,0,0.848,0.116,1.132,0.349s0.427,0.536,0.427,0.91h-0.468
		c0-0.247-0.104-0.452-0.31-0.616c-0.207-0.164-0.467-0.245-0.781-0.245c-0.307,0-0.553,0.068-0.738,0.204
		c-0.186,0.137-0.278,0.314-0.278,0.532c0,0.21,0.077,0.374,0.231,0.489c0.155,0.116,0.437,0.222,0.846,0.318
		c0.409,0.096,0.716,0.198,0.919,0.308c0.204,0.109,0.355,0.24,0.454,0.394c0.099,0.153,0.148,0.339,0.148,0.557
		c0,0.356-0.144,0.64-0.431,0.853c-0.287,0.213-0.662,0.32-1.124,0.32c-0.49,0-0.889-0.119-1.193-0.356
		c-0.306-0.238-0.458-0.539-0.458-0.902h0.468c0.018,0.272,0.133,0.485,0.345,0.637c0.211,0.152,0.491,0.228,0.839,0.228
		c0.324,0,0.587-0.071,0.787-0.214C160.683,106.027,160.782,105.846,160.782,105.628z"/>
	<path class="st0" d="M163.847,102.882c-0.099-0.018-0.204-0.027-0.315-0.027c-0.291,0-0.537,0.082-0.738,0.244
		s-0.345,0.398-0.431,0.707v2.894h-0.464v-4.215h0.456l0.008,0.67c0.246-0.499,0.643-0.748,1.188-0.748
		c0.13,0,0.232,0.017,0.309,0.051L163.847,102.882z"/>
	<path class="st0" d="M163.849,104.53c0-0.405,0.078-0.77,0.235-1.095s0.38-0.577,0.666-0.758c0.287-0.18,0.612-0.271,0.977-0.271
		c0.561,0,1.015,0.197,1.363,0.59c0.348,0.394,0.521,0.915,0.521,1.564v0.098c0,0.408-0.078,0.774-0.235,1.1
		c-0.157,0.326-0.379,0.577-0.664,0.754c-0.286,0.177-0.612,0.265-0.978,0.265c-0.559,0-1.013-0.197-1.362-0.59
		c-0.349-0.394-0.523-0.915-0.523-1.564V104.53z M164.316,104.658c0,0.504,0.13,0.917,0.392,1.241
		c0.261,0.323,0.603,0.485,1.026,0.485c0.42,0,0.761-0.162,1.022-0.485c0.261-0.323,0.391-0.75,0.391-1.28v-0.089
		c0-0.322-0.06-0.617-0.179-0.884c-0.119-0.268-0.287-0.475-0.503-0.622c-0.215-0.146-0.462-0.22-0.739-0.22
		c-0.416,0-0.755,0.163-1.018,0.489c-0.262,0.326-0.393,0.752-0.393,1.279V104.658z"/>
	<path class="st0" d="M167.918,104.53c0-0.405,0.078-0.77,0.235-1.095s0.38-0.577,0.666-0.758c0.287-0.18,0.612-0.271,0.977-0.271
		c0.561,0,1.015,0.197,1.363,0.59c0.348,0.394,0.521,0.915,0.521,1.564v0.098c0,0.408-0.078,0.774-0.235,1.1
		c-0.157,0.326-0.379,0.577-0.664,0.754c-0.286,0.177-0.612,0.265-0.978,0.265c-0.559,0-1.013-0.197-1.362-0.59
		c-0.349-0.394-0.523-0.915-0.523-1.564V104.53z M168.386,104.658c0,0.504,0.13,0.917,0.392,1.241
		c0.261,0.323,0.603,0.485,1.026,0.485c0.42,0,0.761-0.162,1.022-0.485c0.261-0.323,0.391-0.75,0.391-1.28v-0.089
		c0-0.322-0.06-0.617-0.179-0.884c-0.119-0.268-0.287-0.475-0.503-0.622c-0.215-0.146-0.462-0.22-0.739-0.22
		c-0.416,0-0.755,0.163-1.018,0.489c-0.262,0.326-0.393,0.752-0.393,1.279V104.658z"/>
	<path class="st0" d="M172.668,102.484l0.016,0.686c0.156-0.254,0.351-0.445,0.584-0.572c0.234-0.127,0.493-0.191,0.779-0.191
		c0.665,0,1.087,0.272,1.266,0.818c0.151-0.262,0.353-0.464,0.604-0.605s0.529-0.212,0.833-0.212c0.904,0,1.365,0.493,1.383,1.48
		v2.812h-0.467v-2.777c-0.003-0.376-0.084-0.656-0.244-0.837c-0.159-0.182-0.42-0.273-0.78-0.273
		c-0.336,0.005-0.618,0.114-0.85,0.326c-0.231,0.211-0.359,0.469-0.386,0.773v2.789h-0.468v-2.812
		c-0.002-0.361-0.087-0.63-0.255-0.808c-0.167-0.178-0.425-0.267-0.773-0.267c-0.293,0-0.545,0.084-0.755,0.251
		c-0.211,0.167-0.366,0.416-0.468,0.746v2.89h-0.468v-4.215H172.668z"/>
</g>
<g>
	<path class="st0" d="M21.534,88.208c0,0.98-0.173,1.84-0.52,2.578c-0.347,0.739-0.842,1.309-1.487,1.71
		c-0.646,0.401-1.385,0.602-2.219,0.602c-0.825,0-1.562-0.198-2.209-0.595c-0.647-0.397-1.149-0.963-1.504-1.7
		s-0.536-1.583-0.541-2.541V87.77c0-0.98,0.177-1.843,0.53-2.588c0.353-0.746,0.853-1.318,1.498-1.717s1.382-0.598,2.212-0.598
		c0.83,0,1.567,0.199,2.212,0.598c0.645,0.399,1.144,0.971,1.498,1.717c0.353,0.745,0.53,1.606,0.53,2.582V88.208z M19.455,87.756
		c0-1.044-0.187-1.837-0.561-2.38c-0.374-0.542-0.907-0.814-1.6-0.814c-0.688,0-1.22,0.268-1.593,0.804
		c-0.374,0.536-0.563,1.321-0.568,2.356v0.485c0,1.017,0.187,1.806,0.561,2.366c0.374,0.561,0.912,0.841,1.614,0.841
		c0.688,0,1.217-0.27,1.586-0.811c0.37-0.54,0.556-1.328,0.561-2.363V87.756z"/>
	<path class="st0" d="M21.887,89.192c0-0.734,0.142-1.388,0.424-1.963c0.283-0.574,0.689-1.019,1.221-1.333
		c0.531-0.314,1.147-0.472,1.85-0.472c0.999,0,1.813,0.306,2.445,0.917s0.984,1.44,1.057,2.489l0.014,0.506
		c0,1.135-0.317,2.046-0.951,2.732c-0.634,0.687-1.484,1.029-2.551,1.029s-1.918-0.342-2.554-1.026
		c-0.636-0.684-0.954-1.614-0.954-2.79V89.192z M23.863,89.333c0,0.703,0.132,1.241,0.396,1.613
		c0.265,0.372,0.643,0.558,1.135,0.558c0.479,0,0.853-0.184,1.122-0.551c0.269-0.368,0.403-0.956,0.403-1.764
		c0-0.689-0.134-1.224-0.403-1.603c-0.269-0.379-0.647-0.568-1.135-0.568c-0.483,0-0.857,0.188-1.122,0.565
		C23.996,87.959,23.863,88.543,23.863,89.333z"/>
	<path class="st0" d="M36.074,89.329c0,1.14-0.259,2.053-0.776,2.739c-0.517,0.687-1.216,1.029-2.096,1.029
		c-0.748,0-1.352-0.26-1.812-0.78v3.488h-1.976V85.561h1.833l0.068,0.725c0.479-0.575,1.104-0.862,1.874-0.862
		c0.912,0,1.621,0.337,2.126,1.012c0.506,0.675,0.759,1.604,0.759,2.79V89.329z M34.098,89.178c0-0.69-0.122-1.223-0.366-1.598
		c-0.244-0.375-0.598-0.562-1.063-0.562c-0.62,0-1.046,0.238-1.279,0.713v3.039c0.242,0.489,0.672,0.734,1.292,0.734
		C33.626,91.504,34.098,90.729,34.098,89.178z"/>
	<path class="st0" d="M40.605,90.916c0-0.241-0.12-0.432-0.359-0.571c-0.24-0.139-0.624-0.263-1.152-0.373
		c-1.76-0.37-2.64-1.117-2.64-2.243c0-0.657,0.272-1.205,0.817-1.645c0.545-0.44,1.257-0.66,2.137-0.66
		c0.939,0,1.69,0.221,2.253,0.663c0.563,0.442,0.844,1.017,0.844,1.724H40.53c0-0.283-0.091-0.517-0.273-0.701
		c-0.183-0.185-0.468-0.277-0.855-0.277c-0.333,0-0.59,0.075-0.773,0.226c-0.182,0.15-0.273,0.342-0.273,0.575
		c0,0.219,0.104,0.396,0.311,0.53c0.208,0.135,0.558,0.251,1.05,0.349c0.493,0.098,0.907,0.209,1.245,0.332
		c1.044,0.383,1.566,1.046,1.566,1.99c0,0.675-0.29,1.221-0.868,1.638c-0.579,0.417-1.327,0.625-2.243,0.625
		c-0.62,0-1.17-0.11-1.651-0.332c-0.481-0.221-0.858-0.524-1.132-0.91c-0.274-0.385-0.411-0.801-0.411-1.248h1.874
		c0.018,0.351,0.148,0.62,0.39,0.807s0.565,0.28,0.971,0.28c0.378,0,0.665-0.072,0.858-0.215
		C40.508,91.336,40.605,91.148,40.605,90.916z"/>
	<path class="st0" d="M43.612,95.457l-1.033-0.54l0.246-0.445c0.306-0.556,0.463-1.11,0.472-1.662v-1.532h1.668l-0.007,1.368
		c-0.004,0.506-0.132,1.017-0.383,1.532C44.325,94.693,44.004,95.119,43.612,95.457z"/>
	<path class="st0" d="M50.972,83.742v1.819h1.265v1.45h-1.265v3.693c0,0.273,0.052,0.47,0.157,0.588
		c0.104,0.119,0.305,0.178,0.602,0.178c0.219,0,0.413-0.016,0.582-0.048v1.498c-0.388,0.119-0.787,0.178-1.197,0.178
		c-1.386,0-2.093-0.7-2.12-2.1v-3.987h-1.081v-1.45h1.081v-1.819H50.972z"/>
	<path class="st0" d="M54.566,86.368c0.524-0.629,1.183-0.944,1.977-0.944c1.604,0,2.418,0.932,2.441,2.797v4.739h-1.977v-4.695
		c0-0.425-0.091-0.739-0.273-0.942c-0.183-0.204-0.485-0.305-0.91-0.305c-0.579,0-0.999,0.224-1.258,0.672v5.271H52.59V82.456h1.976
		V86.368z"/>
	<path class="st0" d="M63.18,93.097c-1.085,0-1.968-0.333-2.65-0.999c-0.682-0.666-1.022-1.552-1.022-2.66v-0.191
		c0-0.743,0.144-1.408,0.431-1.994c0.287-0.585,0.694-1.037,1.221-1.354c0.526-0.317,1.127-0.475,1.802-0.475
		c1.012,0,1.809,0.319,2.39,0.958c0.582,0.638,0.872,1.543,0.872,2.715v0.807h-4.712c0.064,0.483,0.256,0.871,0.578,1.162
		c0.321,0.292,0.728,0.438,1.22,0.438c0.762,0,1.356-0.276,1.785-0.828l0.971,1.087c-0.296,0.419-0.698,0.747-1.204,0.981
		C64.356,92.98,63.795,93.097,63.18,93.097z M62.954,87.018c-0.392,0-0.71,0.133-0.954,0.398c-0.244,0.266-0.4,0.646-0.468,1.14
		h2.749v-0.158c-0.009-0.44-0.127-0.78-0.355-1.02C63.697,87.138,63.374,87.018,62.954,87.018z"/>
	<path class="st0" d="M75.867,90.273l0.971-4.712h1.908l-1.887,7.399h-1.655l-1.402-4.657L72.4,92.96h-1.648l-1.888-7.399h1.908
		l0.964,4.705l1.354-4.705h1.429L75.867,90.273z"/>
	<path class="st0" d="M79.01,83.646c0-0.296,0.099-0.54,0.297-0.731s0.468-0.287,0.811-0.287c0.337,0,0.606,0.096,0.807,0.287
		s0.301,0.436,0.301,0.731c0,0.301-0.101,0.547-0.304,0.739c-0.203,0.191-0.471,0.287-0.803,0.287c-0.333,0-0.601-0.096-0.804-0.287
		C79.111,84.193,79.01,83.947,79.01,83.646z M81.109,92.96h-1.983v-7.399h1.983V92.96z"/>
	<path class="st0" d="M83.856,85.561l0.062,0.855c0.529-0.661,1.238-0.992,2.127-0.992c0.784,0,1.368,0.23,1.75,0.69
		c0.383,0.461,0.579,1.149,0.588,2.065v4.78h-1.977v-4.743c0-0.42-0.091-0.726-0.273-0.915c-0.183-0.19-0.485-0.285-0.91-0.285
		c-0.556,0-0.973,0.238-1.251,0.713v5.23h-1.976v-7.399H83.856z"/>
	<path class="st0" d="M88.873,89.206c0-1.153,0.259-2.072,0.776-2.756c0.518-0.684,1.225-1.026,2.124-1.026
		c0.72,0,1.315,0.269,1.785,0.807v-3.775h1.983V92.96h-1.785l-0.096-0.787c-0.492,0.616-1.126,0.923-1.901,0.923
		c-0.871,0-1.57-0.343-2.096-1.029C89.136,91.382,88.873,90.428,88.873,89.206z M90.849,89.347c0,0.696,0.121,1.229,0.362,1.601
		s0.593,0.557,1.053,0.557c0.611,0,1.042-0.259,1.292-0.776v-2.934c-0.246-0.518-0.672-0.776-1.279-0.776
		C91.326,87.018,90.849,87.794,90.849,89.347z"/>
	<path class="st0" d="M96.064,89.192c0-0.734,0.142-1.388,0.424-1.963c0.283-0.574,0.689-1.019,1.221-1.333
		c0.531-0.314,1.147-0.472,1.85-0.472c0.999,0,1.813,0.306,2.445,0.917c0.631,0.611,0.982,1.44,1.057,2.489l0.014,0.506
		c0,1.135-0.316,2.046-0.951,2.732c-0.634,0.687-1.484,1.029-2.551,1.029s-1.918-0.342-2.554-1.026
		c-0.636-0.684-0.954-1.614-0.954-2.79V89.192z M98.041,89.333c0,0.703,0.132,1.241,0.396,1.613
		c0.265,0.372,0.643,0.558,1.135,0.558c0.479,0,0.853-0.184,1.122-0.551c0.269-0.368,0.404-0.956,0.404-1.764
		c0-0.689-0.135-1.224-0.404-1.603c-0.269-0.379-0.647-0.568-1.135-0.568c-0.483,0-0.857,0.188-1.122,0.565
		C98.173,87.959,98.041,88.543,98.041,89.333z"/>
	<path class="st0" d="M110.026,90.273l0.971-4.712h1.908l-1.888,7.399h-1.654l-1.402-4.657l-1.401,4.657h-1.648l-1.888-7.399h1.908
		l0.964,4.705l1.354-4.705h1.429L110.026,90.273z"/>
	<path class="st0" d="M115.956,83.646c0-0.296,0.1-0.54,0.298-0.731s0.469-0.287,0.811-0.287c0.337,0,0.606,0.096,0.807,0.287
		s0.301,0.436,0.301,0.731c0,0.301-0.102,0.547-0.304,0.739c-0.203,0.191-0.472,0.287-0.804,0.287c-0.333,0-0.601-0.096-0.804-0.287
		S115.956,83.947,115.956,83.646z M118.056,92.96h-1.983v-7.399h1.983V92.96z"/>
	<path class="st0" d="M122.991,90.916c0-0.241-0.12-0.432-0.359-0.571s-0.623-0.263-1.152-0.373c-1.76-0.37-2.64-1.117-2.64-2.243
		c0-0.657,0.272-1.205,0.817-1.645c0.545-0.44,1.257-0.66,2.137-0.66c0.939,0,1.69,0.221,2.254,0.663
		c0.562,0.442,0.845,1.017,0.845,1.724h-1.977c0-0.283-0.092-0.517-0.273-0.701c-0.183-0.185-0.468-0.277-0.855-0.277
		c-0.332,0-0.59,0.075-0.772,0.226s-0.273,0.342-0.273,0.575c0,0.219,0.104,0.396,0.312,0.53c0.207,0.135,0.557,0.251,1.05,0.349
		c0.492,0.098,0.907,0.209,1.244,0.332c1.044,0.383,1.566,1.046,1.566,1.99c0,0.675-0.29,1.221-0.869,1.638
		c-0.579,0.417-1.326,0.625-2.243,0.625c-0.619,0-1.17-0.11-1.651-0.332c-0.48-0.221-0.858-0.524-1.132-0.91s-0.41-0.801-0.41-1.248
		h1.874c0.019,0.351,0.148,0.62,0.39,0.807s0.565,0.28,0.971,0.28c0.379,0,0.665-0.072,0.858-0.215
		C122.895,91.336,122.991,91.148,122.991,90.916z"/>
	<path class="st0" d="M130.638,83.742v1.819h1.266v1.45h-1.266v3.693c0,0.273,0.053,0.47,0.157,0.588
		c0.105,0.119,0.306,0.178,0.603,0.178c0.219,0,0.412-0.016,0.581-0.048v1.498c-0.388,0.119-0.787,0.178-1.197,0.178
		c-1.386,0-2.093-0.7-2.12-2.1v-3.987h-1.08v-1.45h1.08v-1.819H130.638z"/>
	<path class="st0" d="M131.79,89.192c0-0.734,0.142-1.388,0.424-1.963c0.283-0.574,0.689-1.019,1.221-1.333
		c0.531-0.314,1.148-0.472,1.851-0.472c0.998,0,1.812,0.306,2.444,0.917s0.983,1.44,1.057,2.489l0.014,0.506
		c0,1.135-0.316,2.046-0.95,2.732c-0.634,0.687-1.484,1.029-2.551,1.029c-1.067,0-1.919-0.342-2.555-1.026
		c-0.636-0.684-0.954-1.614-0.954-2.79V89.192z M133.767,89.333c0,0.703,0.132,1.241,0.396,1.613s0.643,0.558,1.136,0.558
		c0.479,0,0.853-0.184,1.121-0.551c0.269-0.368,0.403-0.956,0.403-1.764c0-0.689-0.135-1.224-0.403-1.603
		c-0.269-0.379-0.647-0.568-1.135-0.568c-0.483,0-0.857,0.188-1.122,0.565C133.898,87.959,133.767,88.543,133.767,89.333z"/>
	<path class="st0" d="M139.01,89.192c0-0.734,0.142-1.388,0.424-1.963c0.283-0.574,0.689-1.019,1.221-1.333
		c0.531-0.314,1.148-0.472,1.851-0.472c0.998,0,1.812,0.306,2.444,0.917s0.983,1.44,1.057,2.489l0.014,0.506
		c0,1.135-0.316,2.046-0.95,2.732c-0.634,0.687-1.484,1.029-2.551,1.029c-1.067,0-1.919-0.342-2.555-1.026
		c-0.636-0.684-0.954-1.614-0.954-2.79V89.192z M140.986,89.333c0,0.703,0.132,1.241,0.396,1.613s0.643,0.558,1.136,0.558
		c0.479,0,0.853-0.184,1.121-0.551c0.269-0.368,0.403-0.956,0.403-1.764c0-0.689-0.135-1.224-0.403-1.603
		c-0.269-0.379-0.647-0.568-1.135-0.568c-0.483,0-0.857,0.188-1.122,0.565C141.118,87.959,140.986,88.543,140.986,89.333z"/>
	<path class="st0" d="M153.331,90.916c0-0.241-0.12-0.432-0.359-0.571s-0.623-0.263-1.152-0.373c-1.76-0.37-2.64-1.117-2.64-2.243
		c0-0.657,0.272-1.205,0.817-1.645c0.545-0.44,1.257-0.66,2.137-0.66c0.939,0,1.69,0.221,2.254,0.663
		c0.562,0.442,0.845,1.017,0.845,1.724h-1.977c0-0.283-0.092-0.517-0.273-0.701c-0.183-0.185-0.468-0.277-0.855-0.277
		c-0.332,0-0.59,0.075-0.772,0.226s-0.273,0.342-0.273,0.575c0,0.219,0.104,0.396,0.312,0.53c0.207,0.135,0.557,0.251,1.05,0.349
		c0.492,0.098,0.907,0.209,1.244,0.332c1.044,0.383,1.566,1.046,1.566,1.99c0,0.675-0.29,1.221-0.869,1.638
		c-0.579,0.417-1.326,0.625-2.243,0.625c-0.619,0-1.17-0.11-1.651-0.332c-0.48-0.221-0.858-0.524-1.132-0.91s-0.41-0.801-0.41-1.248
		h1.874c0.019,0.351,0.148,0.62,0.39,0.807s0.565,0.28,0.971,0.28c0.379,0,0.665-0.072,0.858-0.215
		C153.234,91.336,153.331,91.148,153.331,90.916z"/>
	<path class="st0" d="M157.678,85.561l0.062,0.828c0.524-0.643,1.233-0.964,2.127-0.964c0.953,0,1.607,0.376,1.963,1.128
		c0.52-0.752,1.261-1.128,2.223-1.128c0.802,0,1.399,0.233,1.791,0.701c0.393,0.468,0.589,1.171,0.589,2.11v4.726h-1.983v-4.729
		c0-0.42-0.082-0.728-0.246-0.922s-0.454-0.292-0.869-0.292c-0.593,0-1.003,0.284-1.23,0.85l0.007,5.093h-1.977v-4.723
		c0-0.43-0.084-0.74-0.253-0.932s-0.456-0.288-0.861-0.288c-0.562,0-0.967,0.233-1.218,0.699v5.244h-1.977v-7.399H157.678z"/>
	<path class="st0" d="M171.537,92.96c-0.091-0.178-0.157-0.399-0.198-0.664c-0.479,0.534-1.101,0.8-1.867,0.8
		c-0.725,0-1.325-0.209-1.802-0.629s-0.715-0.948-0.715-1.587c0-0.784,0.291-1.386,0.872-1.805s1.421-0.631,2.521-0.636h0.909
		v-0.424c0-0.342-0.088-0.616-0.264-0.821c-0.175-0.205-0.452-0.308-0.831-0.308c-0.332,0-0.594,0.08-0.782,0.239
		c-0.189,0.16-0.284,0.378-0.284,0.657h-1.977c0-0.429,0.133-0.825,0.396-1.19c0.265-0.365,0.639-0.651,1.122-0.858
		s1.025-0.311,1.628-0.311c0.911,0,1.635,0.229,2.171,0.687c0.535,0.458,0.804,1.103,0.804,1.932v3.208
		c0.004,0.702,0.103,1.233,0.294,1.593v0.116H171.537z M169.902,91.586c0.292,0,0.562-0.065,0.808-0.195s0.428-0.305,0.547-0.523
		v-1.272h-0.738c-0.989,0-1.517,0.342-1.58,1.026l-0.007,0.116c0,0.246,0.087,0.449,0.26,0.609S169.602,91.586,169.902,91.586z"/>
	<path class="st0" d="M176.144,92.96h-1.983V82.456h1.983V92.96z"/>
	<path class="st0" d="M179.156,92.96h-1.983V82.456h1.983V92.96z"/>
	<path class="st0" d="M181.274,90.984c0.333,0,0.601,0.098,0.804,0.294c0.202,0.196,0.304,0.447,0.304,0.752
		c0,0.301-0.102,0.55-0.304,0.746c-0.203,0.196-0.471,0.294-0.804,0.294c-0.328,0-0.594-0.098-0.797-0.294s-0.305-0.445-0.305-0.746
		s0.102-0.55,0.305-0.749C180.681,91.083,180.946,90.984,181.274,90.984z M182.095,89.904h-1.642l-0.232-6.9h2.106L182.095,89.904z"
		/>
</g>
</svg>
