<?xml version="1.0" encoding="utf-8"?>
<!-- Generator: Adobe Illustrator 21.0.2, SVG Export Plug-In . SVG Version: 6.00 Build 0)  -->
<svg version="1.1" id="Layer_1" xmlns="http://www.w3.org/2000/svg" xmlns:xlink="http://www.w3.org/1999/xlink" x="0px" y="0px"
	 viewBox="0 0 20 20" style="enable-background:new 0 0 20 20;" xml:space="preserve">
<style type="text/css">
	.st0{fill:#FFFFFF;}
	.st1{fill:#4FC5DD;}
</style>
<g>
	<path class="st0" d="M10.04,19.792c-5.378,0-9.753-4.376-9.753-9.753c0-5.378,4.375-9.753,9.753-9.753
		c5.376,0,9.753,4.375,9.753,9.753C19.793,15.415,15.418,19.792,10.04,19.792z M10.04,2.06c-4.399,0-7.979,3.58-7.979,7.979
		s3.58,7.979,7.979,7.979s7.979-3.58,7.979-7.979S14.441,2.06,10.04,2.06z"/>
	<circle class="st1" cx="10.04" cy="10.039" r="8.866"/>
</g>
<polygon class="st0" points="15.86,8.372 11.707,8.372 8.373,8.372 4.222,8.372 4.222,11.706 8.373,11.706 11.707,11.706 
	15.86,11.706 "/>
</svg>
