<?xml version="1.0" encoding="utf-8"?>
<!-- Generator: Adobe Illustrator 22.0.1, SVG Export Plug-In . SVG Version: 6.00 Build 0)  -->
<svg version="1.1" id="Layer_1" xmlns="http://www.w3.org/2000/svg" xmlns:xlink="http://www.w3.org/1999/xlink" x="0px" y="0px"
	 viewBox="0 0 500 250" style="enable-background:new 0 0 500 250;" xml:space="preserve">
<style type="text/css">
	.st0{opacity:0.1;}
	.st1{fill:#C3C3C3;}
	.st2{display:none;}
	.st3{display:inline;fill:url(#SVGID_1_);stroke:#C3C3C3;stroke-miterlimit:10;}
	.st4{display:inline;}
	.st5{fill:url(#SVGID_2_);stroke:#C3C3C3;stroke-miterlimit:10;}
	.st6{opacity:0.66;fill:#C3C3C3;enable-background:new    ;}
	.st7{fill:url(#SVGID_3_);}
	.st8{fill:url(#SVGID_4_);}
	.st9{fill:url(#SVGID_5_);}
	.st10{fill:url(#SVGID_6_);}
	.st11{fill:url(#SVGID_7_);}
	.st12{fill:url(#SVGID_8_);}
	.st13{fill:url(#SVGID_9_);}
	.st14{fill:url(#SVGID_10_);}
	.st15{fill:url(#SVGID_11_);stroke:#C3C3C3;stroke-miterlimit:10;}
	.st16{fill:url(#SVGID_12_);}
	.st17{fill:url(#SVGID_13_);}
	.st18{fill:url(#SVGID_14_);}
	.st19{fill:url(#SVGID_15_);}
</style>
<path class="st0" d="M269.1,31.4C269.1,31.4,269.1,31.4,269.1,31.4c0-0.1,0-0.1-0.1-0.2c0-0.1-0.1-0.2-0.1-0.2
	c-1-2.3-2.1-4.5-3.3-6.7c-0.1-0.1-0.1-0.3-0.2-0.4c-0.6-1.1-1.2-2.1-1.8-3.2c-0.1-0.2-0.2-0.3-0.3-0.5c-0.6-1.1-1.3-2.2-2-3.2
	c0-0.1-0.1-0.2-0.2-0.2c-0.7-1.1-1.4-2.1-2.1-3.2c-0.1-0.1-0.1-0.2-0.2-0.3c-0.7-1-1.5-2.1-2.3-3.1c-0.1-0.2-0.3-0.3-0.4-0.5
	c-0.8-1-1.6-2-2.4-3c-0.1-0.2-0.3-0.3-0.4-0.5c-0.9-1-1.8-2.1-2.7-3.1c0,0,0,0,0,0c0,0,0,0,0,0c0,0,0,0,0,0l0,0c0,0,0,0,0,0
	c0,0,0,0,0,0c0,0,0,0,0,0c0.1,0.1,0.1,0.3,0.2,0.4c0.8,2.1,3.7,11.8-1.2,24.8c-0.9,0-1.8-0.1-2.7-0.1c-43,0-77.9,34.9-77.9,77.9
	c0,35.9,24.2,66,57.2,75.1c-0.4,1.4-0.8,2.8-1.3,4.2c-0.1,0.2-0.1,0.4-0.2,0.6c-0.5,1.7-1.1,3.4-1.7,5.1c-0.2,0.5-0.3,1-0.5,1.5
	c-0.4,1.3-0.9,2.5-1.3,3.8c-0.2,0.6-0.4,1.2-0.6,1.8c-0.5,1.3-0.9,2.6-1.4,3.9c-0.2,0.5-0.4,1.1-0.6,1.6c-0.7,1.8-1.4,3.7-2.1,5.6
	l0,0c0,0,0,0,0,0c0,0,0,0,0,0c0,0,0.8-0.9,2.1-2.5c0,0,0,0,0,0c0.2-0.3,0.5-0.5,0.7-0.8c0,0,0,0,0,0c0.3-0.3,0.5-0.6,0.8-1
	c0,0,0,0,0,0c0.9-1,1.8-2.3,2.9-3.6c0,0,0-0.1,0.1-0.1c0.4-0.4,0.7-0.9,1.1-1.4c0,0,0.1-0.1,0.1-0.1c0.4-0.5,0.8-1,1.2-1.5
	c0,0,0,0,0,0c0.8-1.1,1.7-2.2,2.6-3.4c0,0,0,0,0,0c0.4-0.6,0.9-1.2,1.4-1.8c0,0,0.1-0.1,0.1-0.1c0.5-0.6,0.9-1.3,1.4-1.9
	c0,0,0.1-0.1,0.1-0.1c1.5-2,3-4.2,4.6-6.4c0,0,0-0.1,0.1-0.1c0.2-0.3,0.4-0.6,0.6-0.8c3.4,0.5,7,0.7,10.5,0.7
	c43,0,77.9-34.9,77.9-77.9C324.9,70.7,301.4,40.9,269.1,31.4z"/>
<path class="st1" d="M-719.3,380.9c-1.8,2.9-3.2,6.2-4.3,9.8C-722.2,387.4-720.8,384.1-719.3,380.9z"/>
<g class="st2">
	
		<linearGradient id="SVGID_1_" gradientUnits="userSpaceOnUse" x1="250" y1="358.426" x2="250" y2="86.426" gradientTransform="matrix(1 0 0 1 0 -97)">
		<stop  offset="0" style="stop-color:#C3C3C3"/>
		<stop  offset="0.6017" style="stop-color:#DEDEDE"/>
		<stop  offset="1" style="stop-color:#F2F2F2"/>
	</linearGradient>
	<circle class="st3" cx="250" cy="125.4" r="136"/>
</g>
<g class="st2">
	<g class="st4">
		
			<linearGradient id="SVGID_2_" gradientUnits="userSpaceOnUse" x1="250" y1="359.7" x2="250" y2="87.7" gradientTransform="matrix(1 0 0 1 0 -97)">
			<stop  offset="0" style="stop-color:#C3C3C3"/>
			<stop  offset="0.6017" style="stop-color:#DEDEDE"/>
			<stop  offset="1" style="stop-color:#F2F2F2"/>
		</linearGradient>
		<circle class="st5" cx="250" cy="126.7" r="136"/>
	</g>
	<g class="st4">
		<path class="st6" d="M235.9,60c-9.8,10.8-22.7,22.2-38.6,34.4c0,0,65.5,67.3,0,211.1C197.3,305.5,269.5,215.9,235.9,60z"/>
		<g>
			<g>
				
					<linearGradient id="SVGID_3_" gradientUnits="userSpaceOnUse" x1="197.7644" y1="224.1634" x2="277.3907" y2="224.1634" gradientTransform="matrix(0.9999 1.030000e-02 -1.030000e-02 0.9999 3.6882 -101.0323)">
					<stop  offset="0" style="stop-color:#10677E"/>
					<stop  offset="1" style="stop-color:#4BA7B5"/>
				</linearGradient>
				<path class="st7" d="M199.7,68.6c0,0,68.4,54.7-2.4,236.8c0,0,135.8-168.8,57.9-360.1C275.6-16.2,260.2,20.3,199.7,68.6z"/>
			</g>
			<g>
				
					<linearGradient id="SVGID_4_" gradientUnits="userSpaceOnUse" x1="199.1278" y1="222.1461" x2="278.7499" y2="222.9637" gradientTransform="matrix(1 0 0 1 0 -97)">
					<stop  offset="0" style="stop-color:#4BA7B5"/>
					<stop  offset="0.1796" style="stop-color:#66B4C0"/>
					<stop  offset="0.5664" style="stop-color:#ABD6DD"/>
					<stop  offset="0.9982" style="stop-color:#FFFFFF"/>
				</linearGradient>
				<path class="st8" d="M264.7-24.9c11.6,38.7,15.9,79.1,12.6,120.2c-2.8,35.7-11.3,72.1-25.2,108.1c-18.6,48.2-42,82.9-51.3,95.8
					c19.4-51.7,38.4-122.8,25.3-180.8c-7.2-32-21.1-46.5-24.8-49.9C245.5,33.1,265.6,3.8,264.7-24.9 M255.2-54.6
					c2.7,6.6,5.1,13.2,7.3,19.7C261.2-41.5,258.7-48,255.2-54.6L255.2-54.6z M262.5-34.9c6.5,31.6-12.7,63.5-62.8,103.5
					c0,0,68.4,54.7-2.4,236.8C197.3,305.5,323.9,148.1,262.5-34.9L262.5-34.9z"/>
			</g>
		</g>
		<g>
			
				<linearGradient id="SVGID_5_" gradientUnits="userSpaceOnUse" x1="197.312" y1="222.465" x2="302.6901" y2="222.465" gradientTransform="matrix(1 0 0 1 0 -97)">
				<stop  offset="0" style="stop-color:#4BA7B5"/>
				<stop  offset="0.4567" style="stop-color:#328C9E"/>
				<stop  offset="1" style="stop-color:#10677E"/>
			</linearGradient>
			<path class="st9" d="M214.9,39.3c0,0,64.2,100.8-17.6,266.2c0,0,191.3-213.4,58.4-360C255.7-54.5,275.4-8.9,214.9,39.3z"/>
			
				<linearGradient id="SVGID_6_" gradientUnits="userSpaceOnUse" x1="292.5467" y1="360.5907" x2="169.3379" y2="80.4238" gradientTransform="matrix(1 0 0 1 0 -97)">
				<stop  offset="0" style="stop-color:#4BA7B5"/>
				<stop  offset="0.1796" style="stop-color:#66B4C0"/>
				<stop  offset="0.5664" style="stop-color:#ABD6DD"/>
				<stop  offset="0.9982" style="stop-color:#FFFFFF"/>
			</linearGradient>
			<path class="st10" d="M258-50.4c28.2,32.5,42.8,70.8,43.7,114c0.7,35.8-8.1,75-26.2,116.5c-24.9,57.3-60.9,103.3-73.9,119
				c39.2-82.4,41.4-147.9,36.2-188.8c-5.2-41.2-18.9-66.2-21.6-70.7c17.3-13.9,38.4-36.3,42.8-65.1C260.6-36.8,259.3-45.5,258-50.4
				 M255.7-54.5c0,0,19.8,45.6-40.7,93.8c0,0,64.2,100.8-17.6,266.2C197.3,305.5,388.7,92.1,255.7-54.5L255.7-54.5z"/>
		</g>
	</g>
</g>
<g class="st2">
	<g class="st4">
		<path class="st6" d="M196.9,305.3c0,0,73.1-88.8,41-245.1c-10,10.7-22.9,22-38.9,34C199,94.3,263.8,162.2,196.9,305.3z"/>
	</g>
	<g class="st4">
		<g>
			
				<linearGradient id="SVGID_7_" gradientUnits="userSpaceOnUse" x1="-733.2465" y1="782.4946" x2="-427.1768" y2="782.4946" gradientTransform="matrix(-0.3996 -0.9167 0.9167 -0.3996 -722.3713 -93.8162)">
				<stop  offset="0" style="stop-color:#64B946"/>
				<stop  offset="1" style="stop-color:#A7DE8A"/>
			</linearGradient>
			<path class="st11" d="M200.4,68.5c0,0,68.1,55-3.5,236.8c0,0,136.6-168.2,59.5-359.8C276.7-16,261.1,20.5,200.4,68.5z"/>
			
				<linearGradient id="SVGID_8_" gradientUnits="userSpaceOnUse" x1="-733.2173" y1="-229.4895" x2="-427.1453" y2="-229.4895" gradientTransform="matrix(-0.3996 -0.9167 -0.9167 0.3996 -215.4203 -314.7705)">
				<stop  offset="0" style="stop-color:#A7DE8A"/>
				<stop  offset="1" style="stop-color:#FFFFFF"/>
			</linearGradient>
			<path class="st12" d="M200.4,299.2c41.5-108.6,33-171.3,18.3-205C212,78.8,204.5,71,201.9,68.6c44.4-35.4,64.6-64.6,63.9-93.2
				c11.5,38.7,15.5,79.1,12,120.3c-3,35.7-11.7,72-25.7,108C233.4,251.7,209.8,286.3,200.4,299.2 M196.9,305.3
				c0,0,127.3-156.8,66.7-340.1c6.3,31.6-13,63.5-63.3,103.3c0,0,9.3,7.5,17.4,26.1C231.7,126.4,242.1,190.6,196.9,305.3
				L196.9,305.3z M263.7-34.7c-0.9-4.7-2.4-9.4-4.5-14.1c-0.8-1.9-1.7-3.8-2.7-5.7C259.1-47.9,261.5-41.3,263.7-34.7L263.7-34.7z"/>
		</g>
	</g>
	<g class="st4">
		<g>
			
				<linearGradient id="SVGID_9_" gradientUnits="userSpaceOnUse" x1="-733.2438" y1="787.2408" x2="-427.1741" y2="787.2408" gradientTransform="matrix(-0.3996 -0.9167 0.9167 -0.3996 -722.3713 -93.8162)">
				<stop  offset="0" style="stop-color:#A7DE8A"/>
				<stop  offset="1" style="stop-color:#64B946"/>
			</linearGradient>
			<path class="st13" d="M215.4,39.2c0,0,63.9,101-18.5,266.1c0,0,192-212.8,59.5-359.8C256.4-54.5,276.1-8.8,215.4,39.2z"/>
			
				<linearGradient id="SVGID_10_" gradientUnits="userSpaceOnUse" x1="-733.2173" y1="-234.2344" x2="-427.1453" y2="-234.2344" gradientTransform="matrix(-0.3996 -0.9167 -0.9167 0.3996 -215.4203 -314.7705)">
				<stop  offset="0" style="stop-color:#A7DE8A"/>
				<stop  offset="1" style="stop-color:#FFFFFF"/>
			</linearGradient>
			<path class="st14" d="M201.2,298.9c61.1-127.3,35.4-215.4,21.3-247.7c-2.7-6.3-4.9-10.2-5.9-11.8c17.3-13.8,38.5-36.2,43-64.9
				c1.7-11.2,0.4-19.9-0.9-24.9c12.1,14.1,21.8,29.4,28.8,45.5c13.9,32,17.8,68.1,11.6,107.4c-5,31.5-16.5,65.1-34.2,99.9
				C241.2,249,212.5,285.3,201.2,298.9 M196.9,305.3c0,0,153-169.6,91.6-310.6c-7.4-16.9-17.9-33.5-32.1-49.2c0,0,19.6,45.7-41,93.7
				c0,0,2.7,4.2,6.2,12.4C235.4,83.3,262.4,174,196.9,305.3L196.9,305.3z"/>
		</g>
	</g>
</g>
<g>
	<g>
		
			<linearGradient id="SVGID_11_" gradientUnits="userSpaceOnUse" x1="250" y1="279.086" x2="250" y2="123.226" gradientTransform="matrix(1 0 0 1 0 -97)">
			<stop  offset="0" style="stop-color:#C3C3C3"/>
			<stop  offset="0.6017" style="stop-color:#DEDEDE"/>
			<stop  offset="1" style="stop-color:#F2F2F2"/>
		</linearGradient>
		<circle class="st15" cx="250" cy="104.2" r="77.9"/>
	</g>
	<g>
		<path class="st6" d="M242.5,66.3c-5.7,6.2-13,12.7-22.2,19.6c0,0,37.4,38.7-0.5,120.9C219.8,206.9,261.4,155.7,242.5,66.3z"/>
		<g>
			<g>
				
					<linearGradient id="SVGID_12_" gradientUnits="userSpaceOnUse" x1="1424.8481" y1="537.8163" x2="1544.0029" y2="421.1041" gradientTransform="matrix(0.9999 1.510000e-02 -1.510000e-02 0.9999 -1240.1147 -398.0671)">
					<stop  offset="0" style="stop-color:#6B69BE"/>
					<stop  offset="1" style="stop-color:#9C98DD"/>
				</linearGradient>
				<path class="st16" d="M221.9,71.2c0,0,39,31.5-2,135.7c0,0,78.3-96.3,34.2-206.2C265.6,22.7,256.6,43.6,221.9,71.2z"/>
			</g>
			<g>
				
					<linearGradient id="SVGID_13_" gradientUnits="userSpaceOnUse" x1="-448.9075" y1="963.2068" x2="-596.9845" y2="818.1648" gradientTransform="matrix(-0.7249 0.6888 0.6888 0.7249 -749.0336 -181.4533)">
					<stop  offset="0" style="stop-color:#FFFFFF"/>
					<stop  offset="1" style="stop-color:#9C98DD"/>
				</linearGradient>
				<path class="st17" d="M221.8,203.3c11.3-29.5,22.4-70.2,15-103.5c-4.1-18.3-11.9-26.7-14.1-28.6c5.1-4.1,9.7-8,13.6-11.8
					c15.9-15.1,23.3-28.5,23-41.7c6.6,22.2,8.9,45.4,6.9,68.9c-1.7,20.5-6.7,41.3-14.7,61.9C240.7,176.1,227.2,196,221.8,203.3
					 M219.8,206.9c0,0,73-89.8,38.3-194.9c3,14.8-3.9,29.7-22.1,47c-4.1,3.9-8.8,8-14.1,12.2C221.9,71.2,260.9,102.7,219.8,206.9
					L219.8,206.9z M258.1,12c-0.8-3.8-2.1-7.5-4.1-11.3C255.5,4.5,256.9,8.2,258.1,12L258.1,12z"/>
			</g>
		</g>
		<g>
			
				<linearGradient id="SVGID_14_" gradientUnits="userSpaceOnUse" x1="-462.0538" y1="-415.601" x2="-593.2798" y2="-259.5795" gradientTransform="matrix(-0.7244 0.6899 -0.6903 -0.728 -367.3844 221.0183)">
				<stop  offset="0" style="stop-color:#9C98DD"/>
				<stop  offset="0.5794" style="stop-color:#817ECC"/>
				<stop  offset="1" style="stop-color:#6B69BE"/>
			</linearGradient>
			<path class="st18" d="M229.8,53.9c0,0,36.9,58-10,153c0,0,109.6-122.4,33.3-206.8C253.2,0,264.5,26.2,229.8,53.9z"/>
			
				<linearGradient id="SVGID_15_" gradientUnits="userSpaceOnUse" x1="-434.9056" y1="885.4078" x2="-601.5442" y2="885.4078" gradientTransform="matrix(-0.7249 0.6888 0.6888 0.7249 -749.0336 -181.4533)">
				<stop  offset="0" style="stop-color:#9C98DD"/>
				<stop  offset="0.1951" style="stop-color:#B6B3E6"/>
				<stop  offset="0.6122" style="stop-color:#F8F7FD"/>
				<stop  offset="0.6558" style="stop-color:#FFFFFF"/>
			</linearGradient>
			<path class="st19" d="M222.3,203.1c22.4-47.3,23.7-85,20.7-108.5c-1.7-13.7-5.1-24.1-7.6-30.5c-2.2-5.6-4.1-9.1-4.8-10.2
				c2.1-1.7,4.1-3.5,6-5.2c7.7-7.3,17.2-19.2,18.7-34.1c0.5-5.5-0.2-9.8-0.8-12.3c16.2,18.7,24.6,40.8,25.1,65.6
				c0.4,20.6-4.6,43.1-15,66.9C250.3,167.7,229.7,194.1,222.3,203.1 M219.8,206.9c0,0,109.6-122.4,33.3-206.8c0,0,9.9,22.8-17,48.4
				c-1.9,1.8-4,3.7-6.4,5.5C229.8,53.9,266.7,111.9,219.8,206.9L219.8,206.9z"/>
		</g>
	</g>
</g>
</svg>
