<?xml version="1.0" encoding="utf-8"?>
<!-- Generator: Adobe Illustrator 21.0.2, SVG Export Plug-In . SVG Version: 6.00 Build 0)  -->
<svg version="1.1" id="Layer_1" xmlns="http://www.w3.org/2000/svg" xmlns:xlink="http://www.w3.org/1999/xlink" x="0px" y="0px"
	 viewBox="0 0 350 130" style="enable-background:new 0 0 350 130;" xml:space="preserve">
<style type="text/css">
	.st0{fill:#3C4852;}
</style>
<g>
	<path class="st0" d="M54.527,62.191c-2.64-1.1-3.3-1.98-4.62-4.51c-1.65-3.3-1.76-7.04-1.76-10.67c0-4.29-0.22-10.23,1.98-13.97
		c-0.88-0.55-1.98-0.88-3.08-0.88c-4.18,0-8.36,2.97-11.22,5.72c-10.78,10.45-17.49,25.96-17.49,41.031
		c0,5.609,0.77,18.699,8.69,18.699c5.5,0,17.05-9.02,17.05-14.85c0-2.09-1.21-3.96-2.09-5.72l0.22-0.33c0.44,0,0.88,0.109,1.32,0.22
		c4.18,1.32,8.69,4.95,8.69,9.68s-3.85,9.24-7.15,12.211c-4.29,3.85-9.9,6.38-15.73,6.38c-12.76,0-20.35-11-22.33-22.551
		c-0.44-2.75-0.66-5.609-0.66-8.359c0-17.161,9.02-36.521,23.76-45.761c2.64-1.65,5.72-3.08,8.91-3.08c5.28,0,10.01,1.32,14.19,4.62
		c1.54,1.21,3.3,2.53,4.4,4.07c0.44,0.66,1.21,1.98,1.21,2.75c0,0.22,0,0.33-0.11,0.55c-1.76,5.28-2.53,10.67-2.53,16.28
		c0,2.09,0.33,4.07,0.33,6.16c0,1.1-0.22,2.09-0.88,2.97C55.297,62.521,54.967,62.412,54.527,62.191z M14.046,52.731
		c-0.33,0.55-0.44,1.1-0.55,1.65C14.046,53.941,14.046,53.392,14.046,52.731z M20.756,40.852c-2.86,3.41-5.17,7.26-6.6,11.55
		c0.99-0.99,6.27-10.23,6.82-11.66L20.756,40.852z M15.477,57.572l0.22-0.33c-0.11-0.11-0.11-0.11-0.22-0.11
		c-0.11,0.11-0.11,0.33-0.11,0.44C15.367,57.572,15.477,57.572,15.477,57.572z M15.807,55.921l0.33,0.11l0.33-1.1L15.807,55.921z
		 M17.017,62.961c3.08-8.91,5.83-13.86,11.11-21.56c0.22-0.33,0.33-0.77,0.44-1.1c-6.71,6.82-10.56,15.291-12.32,24.64
		C16.577,64.282,16.796,63.622,17.017,62.961z M22.296,44.042c-1.21,0.55-4.73,7.15-5.17,8.58c-0.11,0.44,0,0.77-0.11,1.21
		L22.296,44.042z M19.437,51.961c-0.11,0-0.11,0.11-0.22,0.22C19.327,52.071,19.327,51.961,19.437,51.961z M21.526,55.372v0.11
		l0.11-0.11H21.526z M21.966,54.822c0-0.11,0-0.11-0.11-0.11h-0.11c0,0.11,0,0.11,0.11,0.11H21.966z M22.077,54.162l0.11,0.11v-0.11
		H22.077z M43.967,88.922v0.22c0.22-0.55,1.1-0.77,1.1-1.979C44.626,87.712,44.296,88.372,43.967,88.922z M45.177,86.611v0.221
		c0.11-0.11,0.11-0.11,0.11-0.221H45.177z M45.836,93.542c1.76-0.11,3.19-4.181,3.3-5.61l-2.97,5.39L45.836,93.542z M46.827,88.812
		c-0.66,0.11-0.77,0.66-0.88,1.21L46.827,88.812z M46.827,88.262c0,0.11,0,0.33,0.11,0.44c0-0.11,0-0.33,0.11-0.44H46.827z"/>
	<path class="st0" d="M61.678,90.417c-1.062,1.416-2.212,2.832-3.804,3.716l-3.097-1.061l0.177-0.265
		c1.504-1.504,2.654-3.097,3.804-4.867c4.424-7.078,7.343-14.597,8.847-22.826c-3.362-2.3-8.051-4.866-8.051-9.555
		c0-2.389,2.123-5.308,4.689-5.308c0.796,0,1.504,0.177,2.212,0.531c2.92,1.239,4.689,3.981,5.043,7.078
		c0.177,1.946,0.442,3.893,0.531,5.839c3.008,1.769,6.282,3.539,8.847,5.928C82.292,70.952,83,72.457,83,74.402
		c0,2.655-1.681,7.079-2.566,9.733c-1.593,4.689-4.424,12.032-4.424,16.898c0,1.151,0.177,2.39,0.619,3.45l2.477,0.62l-0.088,0.708
		l0.088,0.088l0.442-0.53h0.708c0.177,0.353,0.265,0.708,0.265,1.061c0,1.681-2.654,2.212-3.981,2.212
		c-5.751,0-8.051-6.193-8.051-11.059c0-5.928,3.716-15.571,5.839-21.234c0.531-1.326,1.504-4.158,1.504-5.485
		c0-2.124-2.477-3.008-4.07-3.716C70.702,75.82,66.721,83.428,61.678,90.417z M61.236,53.701l0.177,0.177
		c0.088-0.354,0.177-0.708,0.354-0.973L61.236,53.701z M61.766,88.205l-0.088,0.088h0.088V88.205z M62.386,83.605
		c0.442-0.265,0.619-0.885,0.708-1.416L62.386,83.605z M64.067,53.789c-0.265,0.265-0.531,0.619-0.531,1.062
		c0,0.177,0,0.265,0.088,0.442C63.801,54.851,63.89,54.321,64.067,53.789z M67.694,60.424c0-1.681-0.442-5.485-1.416-6.724
		c-0.885,0.796-1.416,1.858-1.416,3.008c0,1.858,1.15,3.981,2.743,4.866C67.606,61.221,67.694,60.778,67.694,60.424z M69.729,70.245
		c-1.327,4.336-2.831,8.494-4.689,12.652c1.858-2.035,4.601-10.263,4.955-13.094C69.817,69.892,69.817,70.069,69.729,70.245z
		 M65.571,76.704c0.442-0.885,0.796-1.681,0.973-2.566l-0.177,0.088L65.571,76.704z M66.809,72.812
		c-0.265,0.353-0.354,0.796-0.265,1.15L66.809,72.812z M66.986,72.369c0.088-0.088,0.088-0.178,0.088-0.265L66.986,72.369z
		 M67.163,71.661c0,0.088,0,0.265-0.088,0.353c0.088-0.088,0.177-0.265,0.177-0.353H67.163z M67.429,70.6l0.265-0.354h-0.088
		L67.429,70.6z M67.871,69.537l-0.088-0.177v0.265L67.871,69.537z M70.172,68.83h-0.088v0.354h0.088V68.83z M70.348,67.857H70.26
		v0.265h0.088V67.857z M75.48,78.561l-4.247,12.918l-0.973,3.539c0.796-1.593,1.327-3.45,1.858-5.22
		c1.504-4.689,3.185-9.29,4.512-14.067C76.011,76.439,75.745,77.678,75.48,78.561z M72.295,96.699c0-0.177-0.088-0.265-0.088-0.442
		c-0.088,0.177-0.088,0.265-0.088,0.442H72.295z M77.957,77.235l-4.335,12.74c-0.619,1.946-0.885,4.071-1.327,6.016l0.177-0.178
		c0.796-2.654,1.416-5.397,2.3-8.051c1.15-3.539,2.831-7.078,3.45-10.794L77.957,77.235z M74.33,96.522
		c0.885-4.424,2.477-8.76,3.981-13.094c0.885-2.654,2.035-5.397,2.3-8.228h-0.177c-2.123,5.928-4.07,12.032-5.928,18.049
		c-0.531,1.769-0.885,3.538-0.885,5.397c0,0.531,0,1.062,0.088,1.592C73.976,98.999,74.064,97.76,74.33,96.522z M74.153,92.363
		v-0.088l-0.088,0.088H74.153z M75.037,89.178l0.088-0.088h-0.088V89.178z M75.215,88.471l0.088,0.088v-0.088H75.215z
		 M75.303,96.965h-0.088c0,0.088,0,0.088,0.088,0.177V96.965z M75.391,87.94l0.088,0.088V87.94H75.391z M75.48,96.079h-0.088v0.178
		h0.088V96.079z M76.011,94.134h0.088v-0.265h-0.088V94.134z M76.276,93.072h-0.088v0.265h0.088V93.072z M76.63,84.401l-0.088,0.088
		h0.088V84.401z M76.63,91.922c-0.088,0-0.088,0.088-0.088,0.178h0.088V91.922z M76.718,75.2v0.354
		c0.088-0.088,0.088-0.265,0.088-0.354H76.718z M76.808,91.302L76.72,91.39h0.088V91.302z M76.895,90.683l0.177,0.088
		c0-0.088,0-0.177-0.088-0.265L76.895,90.683z M77.249,89.886h-0.088v0.265h0.088V89.886z M77.78,88.205h-0.088
		c0,0.088,0,0.088,0.088,0.088V88.205z M77.957,80.596l-0.088,0.088h0.088V80.596z M77.957,87.674c-0.088,0-0.088,0-0.088,0.088
		L77.957,87.674z M78.399,76.527h-0.177v0.265L78.399,76.527z M78.311,86.613l0.088-0.088h-0.088V86.613z M78.488,86.082
		c0.088,0,0.088-0.088,0.088-0.177h-0.088V86.082z M78.666,85.462h0.088v-0.177h-0.088V85.462z M79.726,82.632h-0.088v0.177h0.088
		V82.632z M79.815,82.19h0.088v-0.088h-0.088V82.19z M79.992,81.482l0.088,0.088v-0.088H79.992z M81.231,78.031v-0.088l-0.088,0.088
		H81.231z"/>
	<path class="st0" d="M90.715,87.492c-0.44,0.88-0.33,2.75-0.33,3.63c0,1.1,0.33,5.279,1.87,5.279c2.31,0,4.07-1.54,4.84-3.52
		l0.11-0.11v0.33c0,0.99-0.88,1.76-1.21,2.641c1.21-0.551,1.43-1.65,2.09-2.641c0.11,0.22,0.22,0.44,0.22,0.55
		c0,0.771-0.66,1.21-0.77,1.87l0.77,0.11l-0.11,0.33l0.22,0.11v-0.11h0.33l-0.11-0.22h0.11l0.11-0.44h0.11l0.22-0.44v0.44
		c0.33-0.33,0.44-0.66,0.44-1.1l0.44-0.551c-0.22,3.19-3.19,5.28-6.27,5.28c-6.71,0-10.67-4.62-10.67-11.11
		c0-5.279,2.2-10.56,5.28-14.85c2.42-3.41,5.83-5.28,10.01-5.28c0.99,0,1.98,0.221,2.97,0.44l-2.2-4.07l0.88-0.22
		c4.4,1.43,7.37,5.06,7.37,9.899C107.435,81.771,97.975,87.492,90.715,87.492z M87.195,78.912c-0.11,0-0.11,0-0.11,0.109h0.11
		V78.912z M87.745,77.262l-0.33,0.55l0.22,0.11L87.745,77.262z M87.855,77.042l-0.11,0.109h0.11V77.042z M89.615,74.071l0.33-0.109
		C89.835,73.962,89.725,73.962,89.615,74.071l-0.55,0.88l-0.22,0.33v0.11c-0.22,0.33-0.55,0.66-0.77,1.1
		c0.55-0.22,0.66-0.659,0.77-1.1l0.22-0.44l0.44-0.329C89.505,74.401,89.615,74.292,89.615,74.071z M89.285,82.321
		c-0.11,0.11-0.11,0.33-0.11,0.551h0.11V82.321z M93.355,74.731c-1.54,1.54-3.63,4.62-3.63,6.931
		C90.495,79.241,92.365,77.151,93.355,74.731z M89.725,77.592v0.11c0-0.11,0-0.11,0-0.221V77.592z M90.165,76.602
		c0.11-0.11,0.11-0.22,0.11-0.439C90.165,76.382,90.165,76.491,90.165,76.602z M90.605,75.941h0.11c0.11-0.109,0.22-0.33,0.22-0.439
		C90.825,75.611,90.715,75.941,90.605,75.941z M91.815,83.092c3.96-0.44,9.79-6.93,9.79-10.891v-0.439
		C96.655,72.861,92.695,78.252,91.815,83.092z M93.465,74.622l0.44-0.221v-0.109l-0.11,0.109
		C93.575,74.401,93.575,74.512,93.465,74.622z M100.945,77.812c-0.11,0.11-0.11,0.33-0.11,0.44l-0.33,0.22l0.33-0.11v-0.109
		L100.945,77.812z M101.715,76.602l-0.22,0.44v0.109C101.605,76.932,101.715,76.821,101.715,76.602z M102.045,75.941
		c0.11,0,0.22-0.109,0.22-0.22h-0.22V75.941z M102.485,80.342c0.11-0.11,0.22-0.11,0.22-0.22L102.485,80.342z M102.705,77.812h0.11
		l0.11-0.33L102.705,77.812z M103.145,80.012c-0.11,0-0.22,0-0.33,0.11C102.925,80.122,103.035,80.122,103.145,80.012z
		 M103.145,79.901c1.1-1.1,1.76-2.529,2.2-3.96C104.905,76.712,103.145,79.241,103.145,79.901z"/>
	<path class="st0" d="M137.795,86.502c-2.42,5.72-7.81,15.51-12.65,19.36c-2.42-0.881-4.18-1.101-4.18-4.181
		c0-5.939,1.32-11.77,2.53-17.6l-3.74,3.85c-2.31,2.42-5.5,7.04-9.35,7.04c-2.75,0-6.82-2.53-6.82-5.61c0-6.489,6.93-18.26,12.21-22
		c2.2-1.54,4.95-3.08,7.7-3.08s5.06,1.54,7.04,3.41c0.22,0.221,0.44,0.55,0.44,0.88c0,0.221-0.11,0.44-0.22,0.66l-3.19-0.88
		c-7.92,2.75-11.88,11.66-15.07,18.811l0.22,0.22l1.76-1.32l10.56-9.46c1.98-1.76,2.31-4.07,4.84-5.06l0.11,1.1l-0.33,0.11
		c-0.22,0.439,0,0.33-0.44,0.77l0.33-0.109l0.11-0.551l0.33-0.22c0.11-0.22,0.33-0.44,0.66-0.44c0.22,0,0.44,0.221,0.55,0.33
		l-0.11,0.771l0.44-0.22v-0.11l0.55,0.22c-0.88,2.75-1.87,5.391-2.86,8.03l-0.11,0.11c0.11,0,0.11,0,0.11-0.11
		c0.11-0.11,0.33-0.22,0.33-0.44c1.1-2.42,1.98-4.949,3.19-7.26c0.55,0.11,0.99,0.44,0.99,0.99c0,0.77-0.33,1.54-0.55,2.2
		c-1.43,3.96-6.27,17.6-6.27,21.12c1.43-0.88,2.53-2.42,3.63-3.63h0.22c-1.43,2.09-3.41,3.85-4.4,6.159h-0.11v0.11
		c0.11,0,0.11,0,0.11-0.11c1.98-1.979,3.74-4.399,5.5-6.6c0.44-0.55,0.88-1.43,1.43-1.979l0.55-0.551
		c-2.31,3.96-5.94,7.591-7.92,11.66l3.52-4.069l-0.99,1.869l0.77-0.55l0.11,0.44c0.11-0.55,0.66-1.21,0.99-1.76h0.11v-0.11
		l-0.11,0.11h-0.22c0.33-0.881,0.44-1.431,1.21-1.98v0.44l0.22-0.44l0.33-0.22l0.22-0.44c0.22-0.88,1.1-1.54,1.43-2.42
		c0.22-0.55,0.66-1.1,0.99-1.65h-0.11l0.22-0.439h-0.11l0.66-1.21l0.11,0.439c0.11-0.55,0.44-0.989,0.66-1.43h-0.11l0.33-0.22
		c0.22-0.33,0.33-0.66,0.44-0.99v0.11C136.915,87.712,137.355,87.162,137.795,86.502z M107.215,82.981c0,0.11-0.11,0.221-0.11,0.33
		h0.11V82.981z M107.875,81.662c1.43-2.421,2.75-5.061,4.29-7.37c0.33-0.44,1.32-1.65,1.32-2.2l-0.22,0.439
		c-1.54,1.54-4.95,7.48-5.72,9.57c-0.11,0.11-0.22,0.33-0.22,0.55l0.22-0.55C107.655,81.992,107.875,81.882,107.875,81.662z
		 M108.975,83.861l0.33-0.77c-0.22,0.11-0.22,0.55-0.44,0.77H108.975z M109.195,89.031c-0.11,0.11-0.11,0.33-0.11,0.44h0.11V89.031z
		 M118.325,72.312c-2.86,1.76-7.04,9.57-8.14,12.76c-0.44,1.21-0.66,2.53-0.99,3.74c0.22-0.22,0.33-0.439,0.44-0.77
		C111.725,82.542,114.585,76.821,118.325,72.312z M109.635,82.102c1.1-2.09,2.42-3.96,3.63-5.939v-0.221
		C111.835,77.922,110.625,79.792,109.635,82.102z M113.815,71.762l0.33-0.22h-0.11L113.815,71.762z M114.365,74.401h0.22v-0.109
		C114.475,74.401,114.475,74.401,114.365,74.401z M114.915,73.632h0.11v-0.11C114.915,73.521,114.915,73.521,114.915,73.632z
		 M125.915,93.212h0.11v-0.22h-0.11V93.212z M126.355,103.552c-0.11,0-0.22,0.11-0.22,0.22L126.355,103.552z M126.355,91.012
		l0.11,0.22v-0.33L126.355,91.012z M127.235,102.452l-0.77,0.989C126.795,103.111,127.235,103.002,127.235,102.452z M126.905,89.142
		h0.11v-0.55C126.905,88.812,126.905,88.922,126.905,89.142z M127.015,88.151l0.22-0.439h-0.11L127.015,88.151z M127.235,87.602
		c0.55-0.66,0.66-1.43,0.77-2.2C127.675,86.172,127.455,86.832,127.235,87.602z M127.455,102.782c-0.11,0-0.11,0.109-0.22,0.109
		C127.345,102.892,127.455,102.892,127.455,102.782z M127.895,102.012c0-0.22,0.11-0.439,0.11-0.66l-0.66,0.99L127.895,102.012z
		 M127.895,75.832l0.88-1.65C128.445,74.512,128.005,75.281,127.895,75.832z M128.115,101.792l-0.11,0.109
		C128.115,101.901,128.115,101.901,128.115,101.792z M128.225,84.521c-0.11,0.11-0.11,0.221-0.11,0.33L128.225,84.521z
		 M128.555,101.682c-0.11,0-0.11,0.11-0.22,0.11h0.22V101.682z M128.555,83.422c-0.11,0.109-0.11,0.33-0.11,0.55l0.11-0.22V83.422z
		 M129.325,100.691h-0.11l-0.33,0.221h0.11L129.325,100.691z M129.655,75.611c0,0,0.11,0.221,0.11,0.33l0.44-0.88
		C129.875,75.172,129.655,75.281,129.655,75.611z M130.205,74.951c0.11-0.22,0.11-0.329,0.11-0.55
		C130.205,74.622,130.205,74.731,130.205,74.951z M131.305,97.392c-0.11,0.11-0.11,0.33-0.11,0.44
		C131.305,97.722,131.305,97.502,131.305,97.392z"/>
	<path class="st0" d="M171.345,50.421c-2.53,3.08-12.32,3.96-16.28,4.62c-3.96,12.871-6.27,26.18-8.47,39.491
		c-1.1,7.04-1.98,14.3-1.98,21.449c0,2.86,0.44,5.83,1.1,8.58c0.11,0.33,0.11,0.551,0.11,0.881c0,0.989-1.43,1.319-2.2,1.319
		c-0.33,0-0.44-0.33-0.55-0.55l-0.66,0.99c-1.32-0.66-2.75-0.99-4.07-1.65c-4.07-2.09-4.07-9.57-4.07-13.42
		c0-11.55,1.54-23.32,3.3-34.76c0.44-2.641,0.66-5.391,1.21-8.03c0.55-3.08,1.32-6.16,1.76-9.24c0.11-0.77,0.44-1.43,0.44-2.2
		c0-0.55-0.99-0.55-1.32-0.55c-1.1,0-2.31,0.11-3.41,0.11l0.11-0.11c-1.1-0.33-2.53-1.43-3.3-2.42l0.11-0.66l-0.99-0.55
		c0.22-1.1,0.44-1.43,1.54-1.76c2.42-0.66,4.95-0.88,7.37-1.43c2.42-3.19,4.62-6.49,6.16-10.23c1.21-2.86,2.97-5.61,4.51-8.25
		c0.44-0.77,0.88-1.43,1.87-1.43l1.32,0.66l-0.77,1.76c0.66-0.66,1.1-1.32,1.65-1.98l0.44,0.66l0.88-0.11l-0.55,1.54l0.88-0.77
		l1.21,0.44v1.1l0.88-0.22c0.66,0.55,1.76,1.1,1.76,2.09c0,0.44-3.96,11.77-3.96,11.77c0.77-0.11,1.65,0,2.42-0.22
		c1.87-0.44,3.74-0.44,5.72-0.44c2.31,0,2.86,0.44,4.29,2.31C169.805,50.091,170.685,50.312,171.345,50.421z M137.354,100.691h-0.11
		v1.431h0.11V100.691z M137.794,96.072h-0.11v1.319h0.11V96.072z M139.334,85.182l-0.33-0.11l-1.1,9.131h0.22
		C138.455,91.231,138.895,88.151,139.334,85.182z M144.615,56.802c-1.54,2.42-5.17,23.32-5.17,26.84v0.55
		C140.984,75.062,142.305,65.822,144.615,56.802z M139.665,105.312v-1.1h-0.11v1.1H139.665z M139.665,102.562h0.11v-0.22h-0.11
		V102.562z M140.104,98.162h-0.11l-0.11,2.09h0.11L140.104,98.162z M140.435,95.521h-0.11c0,0.551-0.11,0.99-0.11,1.54h0.22V95.521z
		 M140.655,93.651v0.551c0.99-6.381,1.87-12.761,3.08-19.03c1.21-6.38,2.64-12.65,3.96-19.03
		C145.715,58.671,140.655,89.142,140.655,93.651z M151.215,55.702l-0.99,0.11c-2.75,9.02-4.4,18.48-5.94,27.72
		c-1.43,9.461-2.97,19.141-2.97,28.711c0,1.649,0,3.41,0.22,5.06C142.415,96.512,145.935,75.832,151.215,55.702z M142.965,49.981
		v0.22l0.44-0.66C143.185,49.542,142.965,49.762,142.965,49.981z M143.625,106.191h-0.11v0.33h0.11V106.191z M143.955,103.222v-0.55
		c-0.11,0.11-0.11,0.33-0.11,0.55H143.955z M144.395,99.592v-0.33h-0.11v0.33H144.395z M144.725,96.622h-0.11v0.439h0.11V96.622z
		 M145.055,94.312h-0.11v0.44L145.055,94.312z M145.385,92.662c-0.11-0.11-0.11-0.33-0.11-0.44h-0.11c0,0.11,0,0.33,0.11,0.44
		H145.385z M145.604,90.021h-0.11v0.771h0.11V90.021z M145.935,88.151h-0.11v0.44h0.11V88.151z M146.044,68.682v0.33h0.11v-0.33
		H146.044z M146.265,86.832v-0.88h-0.11v0.88H146.265z M146.375,67.252c0,0.22,0,0.33-0.11,0.55h0.11l0.11-0.55H146.375z
		 M146.595,84.962v-0.66h-0.22v0.66H146.595z M146.595,66.372h0.11v-0.221L146.595,66.372z M146.925,83.202
		c0-0.221,0-0.33-0.11-0.551h-0.11v0.551H146.925z M146.925,64.722v0.33h0.11v-0.33H146.925z M147.145,81.332v-0.44h-0.11v0.44
		H147.145z M147.475,80.012v-0.771h-0.11l-0.11,0.771H147.475z M147.584,62.302l-0.22,0.33h0.22V62.302z M147.475,47.782l0.11-0.11
		C147.475,47.671,147.475,47.671,147.475,47.782z M147.805,78.361c0-0.22,0-0.439-0.11-0.659h-0.11v0.659H147.805z M147.695,61.312
		l0.11,0.11l0.22-0.44L147.695,61.312z M148.024,76.052h-0.11v0.88h0.11V76.052z M148.354,75.392v-0.77h-0.11l-0.11,0.659
		C148.245,75.392,148.245,75.392,148.354,75.392z M148.245,59.662l0.22-0.55l-0.22-0.11V59.662z M148.575,73.191h-0.11v0.771h0.11
		V73.191z M148.575,58.012v0.22c0.11-0.11,0.11-0.11,0.11-0.22H148.575z M148.905,72.422v-0.66h-0.11v0.66H148.905z M149.235,70.441
		l-0.22,0.55l0.22,0.11V70.441z M149.675,69.122c-0.22,0-0.44,0.22-0.44,0.439s0.11,0.33,0.11,0.55L149.675,69.122z M149.564,68.462
		c0,0.22,0.11,0.33,0.11,0.55l0.33-1.1C149.785,68.021,149.564,68.132,149.564,68.462z M149.895,48.881
		c0.88-0.88,0.99-2.09,1.21-3.19C150.225,46.571,150.115,47.782,149.895,48.881z M150.005,67.802c0-0.33,0.11-0.66,0.11-0.99h-0.22
		C149.895,67.142,149.895,67.472,150.005,67.802z M150.334,66.151v-0.55c-0.11,0.22-0.22,0.33-0.22,0.55H150.334z M150.445,64.941
		c-0.11,0.11-0.11,0.22-0.11,0.33l0.11-0.11V64.941z M150.665,64.171l0.11-0.33C150.665,63.952,150.665,64.062,150.665,64.171z
		 M150.995,62.852l-0.11,0.11c0,0.33-0.11,0.55-0.11,0.88l0.22-0.88V62.852z M151.544,61.092c-0.55,0.44-0.55,1.1-0.55,1.76
		C151.215,62.302,151.435,61.642,151.544,61.092z M151.215,45.472c-0.11,0.11-0.11,0.11-0.11,0.22
		C151.104,45.582,151.215,45.582,151.215,45.472z M152.095,59.111c-0.33,0.33-0.55,0.77-0.55,1.21c0,0.22,0,0.44,0.11,0.66
		C151.765,60.322,151.875,59.771,152.095,59.111z M151.544,61.092h0.11v-0.11L151.544,61.092z M151.765,37.551
		c0.11-0.11,0.11-0.11,0.11-0.22C151.875,37.441,151.765,37.441,151.765,37.551z M152.095,36.562l-0.22,0.55
		C151.985,37.001,152.095,36.781,152.095,36.562z M152.314,36.122l-0.22,0.44C152.205,36.452,152.314,36.231,152.314,36.122z
		 M152.095,58.671l0.33-0.77v-0.44C152.205,57.901,152.205,58.231,152.095,58.671z M152.975,55.921v-0.44l-0.44,1.21
		C152.865,56.582,152.975,56.251,152.975,55.921z M156.935,38.872c-0.33,0.55-0.77,0.99-1.1,1.43c-0.55,0.99-3.08,7.26-3.08,8.14
		h0.22c0.55,0,0.77-0.44,0.88-0.88C154.955,44.702,155.834,41.841,156.935,38.872z M153.415,34.582c-0.11,0.11-0.22,0.33-0.22,0.44
		C153.305,34.912,153.415,34.691,153.415,34.582z M153.305,39.861l0.33-0.22h-0.33V39.861z M153.965,33.372
		c-0.22,0.44-0.44,0.77-0.55,1.21l0.55-0.99V33.372z"/>
	<path class="st0" d="M158.474,87.492c-0.44,0.88-0.33,2.75-0.33,3.63c0,1.1,0.33,5.279,1.87,5.279c2.31,0,4.07-1.54,4.84-3.52
		l0.11-0.11v0.33c0,0.99-0.88,1.76-1.21,2.641c1.21-0.551,1.43-1.65,2.09-2.641c0.11,0.22,0.22,0.44,0.22,0.55
		c0,0.771-0.66,1.21-0.77,1.87l0.77,0.11l-0.11,0.33l0.22,0.11v-0.11h0.33l-0.11-0.22h0.11l0.11-0.44h0.11l0.22-0.44v0.44
		c0.33-0.33,0.44-0.66,0.44-1.1l0.44-0.551c-0.22,3.19-3.19,5.28-6.27,5.28c-6.71,0-10.67-4.62-10.67-11.11
		c0-5.279,2.2-10.56,5.28-14.85c2.42-3.41,5.83-5.28,10.01-5.28c0.99,0,1.98,0.221,2.97,0.44l-2.2-4.07l0.88-0.22
		c4.4,1.43,7.37,5.06,7.37,9.899C175.194,81.771,165.734,87.492,158.474,87.492z M154.954,78.912c-0.11,0-0.11,0-0.11,0.109h0.11
		V78.912z M155.504,77.262l-0.33,0.55l0.22,0.11L155.504,77.262z M155.614,77.042l-0.11,0.109h0.11V77.042z M157.374,74.071
		l0.33-0.109C157.594,73.962,157.484,73.962,157.374,74.071l-0.55,0.88l-0.22,0.33v0.11c-0.22,0.33-0.55,0.66-0.77,1.1
		c0.55-0.22,0.66-0.659,0.77-1.1l0.22-0.44l0.44-0.329C157.264,74.401,157.374,74.292,157.374,74.071z M157.044,82.321
		c-0.11,0.11-0.11,0.33-0.11,0.551h0.11V82.321z M161.114,74.731c-1.54,1.54-3.63,4.62-3.63,6.931
		C158.254,79.241,160.124,77.151,161.114,74.731z M157.484,77.592v0.11c0-0.11,0-0.11,0-0.221V77.592z M157.924,76.602
		c0.11-0.11,0.11-0.22,0.11-0.439C157.924,76.382,157.924,76.491,157.924,76.602z M158.364,75.941h0.11
		c0.11-0.109,0.22-0.33,0.22-0.439C158.584,75.611,158.474,75.941,158.364,75.941z M159.574,83.092c3.96-0.44,9.79-6.93,9.79-10.891
		v-0.439C164.414,72.861,160.454,78.252,159.574,83.092z M161.224,74.622l0.44-0.221v-0.109l-0.11,0.109
		C161.334,74.401,161.334,74.512,161.224,74.622z M168.704,77.812c-0.11,0.11-0.11,0.33-0.11,0.44l-0.33,0.22l0.33-0.11v-0.109
		L168.704,77.812z M169.474,76.602l-0.22,0.44v0.109C169.364,76.932,169.474,76.821,169.474,76.602z M169.804,75.941
		c0.11,0,0.22-0.109,0.22-0.22h-0.22V75.941z M170.244,80.342c0.11-0.11,0.22-0.11,0.22-0.22L170.244,80.342z M170.464,77.812h0.11
		l0.11-0.33L170.464,77.812z M170.904,80.012c-0.11,0-0.22,0-0.33,0.11C170.684,80.122,170.794,80.122,170.904,80.012z
		 M170.904,79.901c1.1-1.1,1.76-2.529,2.2-3.96C172.664,76.712,170.904,79.241,170.904,79.901z"/>
</g>
<circle class="st0" cx="182.5" cy="97.833" r="2.667"/>
</svg>
