<?xml version="1.0" encoding="utf-8"?>
<!-- Generator: Adobe Illustrator 21.0.2, SVG Export Plug-In . SVG Version: 6.00 Build 0)  -->
<svg version="1.1" id="Layer_1" xmlns="http://www.w3.org/2000/svg" xmlns:xlink="http://www.w3.org/1999/xlink" x="0px" y="0px"
	 viewBox="0 0 100 20" style="enable-background:new 0 0 100 20;" xml:space="preserve">
<style type="text/css">
	.st0{fill:#98A4AE;}
</style>
<g>
	<path class="st0" d="M21.052,12.162c-0.033,0.459-0.203,0.82-0.508,1.084s-0.708,0.396-1.208,0.396
		c-0.547,0-0.977-0.184-1.291-0.553c-0.313-0.367-0.47-0.873-0.47-1.516v-0.261c0-0.41,0.072-0.771,0.217-1.084
		s0.351-0.552,0.62-0.72c0.269-0.166,0.581-0.25,0.936-0.25c0.492,0,0.889,0.132,1.189,0.396s0.475,0.634,0.521,1.11h-0.879
		c-0.021-0.275-0.098-0.475-0.23-0.6c-0.132-0.123-0.333-0.186-0.602-0.186c-0.293,0-0.512,0.105-0.658,0.314
		c-0.146,0.211-0.22,0.536-0.224,0.978v0.322c0,0.461,0.07,0.798,0.209,1.011s0.36,0.319,0.661,0.319
		c0.271,0,0.474-0.062,0.608-0.187c0.134-0.123,0.21-0.315,0.23-0.575H21.052z"/>
	<path class="st0" d="M23.322,13.261c-0.209,0.254-0.498,0.381-0.867,0.381c-0.34,0-0.599-0.098-0.778-0.293
		s-0.27-0.481-0.274-0.858v-2.077h0.847v2.05c0,0.331,0.15,0.496,0.451,0.496c0.287,0,0.484-0.1,0.592-0.299v-2.247h0.85v3.17
		h-0.797L23.322,13.261z"/>
	<path class="st0" d="M26.412,11.207c-0.115-0.016-0.217-0.023-0.305-0.023c-0.32,0-0.53,0.108-0.63,0.325v2.074h-0.847v-3.17h0.8
		l0.023,0.378c0.17-0.291,0.405-0.437,0.706-0.437c0.094,0,0.182,0.013,0.264,0.038L26.412,11.207z"/>
	<path class="st0" d="M28.45,11.207c-0.115-0.016-0.217-0.023-0.305-0.023c-0.32,0-0.53,0.108-0.63,0.325v2.074h-0.847v-3.17h0.8
		l0.023,0.378c0.17-0.291,0.405-0.437,0.706-0.437c0.094,0,0.182,0.013,0.264,0.038L28.45,11.207z"/>
	<path class="st0" d="M28.702,9.593c0-0.127,0.042-0.231,0.127-0.313s0.201-0.123,0.347-0.123c0.145,0,0.26,0.041,0.346,0.123
		s0.129,0.187,0.129,0.313c0,0.129-0.043,0.234-0.13,0.316s-0.202,0.123-0.344,0.123s-0.257-0.041-0.344-0.123
		S28.702,9.722,28.702,9.593z M29.601,13.583h-0.85v-3.17h0.85V13.583z"/>
	<path class="st0" d="M31.467,12.959c0.156,0,0.283-0.043,0.381-0.129s0.148-0.2,0.152-0.343h0.794
		c-0.002,0.215-0.061,0.412-0.176,0.59c-0.115,0.18-0.273,0.318-0.473,0.416c-0.201,0.099-0.422,0.148-0.664,0.148
		c-0.453,0-0.811-0.144-1.072-0.432s-0.393-0.687-0.393-1.194V11.96c0-0.488,0.13-0.878,0.39-1.169s0.616-0.437,1.069-0.437
		c0.396,0,0.715,0.113,0.953,0.338c0.24,0.227,0.361,0.526,0.365,0.901H32c-0.004-0.165-0.055-0.299-0.152-0.402
		c-0.098-0.103-0.227-0.154-0.387-0.154c-0.197,0-0.346,0.072-0.447,0.216s-0.151,0.377-0.151,0.699v0.089
		c0,0.326,0.05,0.561,0.149,0.704C31.112,12.888,31.264,12.959,31.467,12.959z"/>
	<path class="st0" d="M35.025,13.261c-0.209,0.254-0.498,0.381-0.867,0.381c-0.34,0-0.599-0.098-0.778-0.293
		c-0.178-0.195-0.27-0.481-0.273-0.858v-2.077h0.847v2.05c0,0.331,0.15,0.496,0.451,0.496c0.287,0,0.484-0.1,0.592-0.299v-2.247
		h0.85v3.17h-0.797L35.025,13.261z"/>
	<path class="st0" d="M37.229,13.583h-0.85v-4.5h0.85V13.583z"/>
	<path class="st0" d="M39.674,13.261c-0.209,0.254-0.498,0.381-0.867,0.381c-0.34,0-0.599-0.098-0.778-0.293
		c-0.178-0.195-0.27-0.481-0.273-0.858v-2.077h0.847v2.05c0,0.331,0.15,0.496,0.451,0.496c0.287,0,0.484-0.1,0.592-0.299v-2.247
		h0.85v3.17h-0.797L39.674,13.261z"/>
	<path class="st0" d="M41.777,10.413l0.026,0.354c0.225-0.275,0.528-0.413,0.911-0.413c0.408,0,0.688,0.161,0.841,0.483
		c0.223-0.322,0.54-0.483,0.952-0.483c0.344,0,0.6,0.101,0.768,0.301s0.252,0.501,0.252,0.903v2.024h-0.85v-2.026
		c0-0.18-0.035-0.312-0.105-0.395s-0.194-0.125-0.372-0.125c-0.254,0-0.43,0.121-0.527,0.364l0.003,2.182h-0.847V11.56
		c0-0.184-0.036-0.317-0.108-0.399s-0.195-0.123-0.369-0.123c-0.24,0-0.414,0.1-0.521,0.3v2.246h-0.847v-3.17H41.777z"/>
	<path class="st0" d="M47.427,13.583V9.317h1.312c0.375,0,0.711,0.085,1.006,0.254c0.297,0.169,0.527,0.409,0.693,0.721
		s0.249,0.665,0.249,1.062v0.196c0,0.396-0.082,0.749-0.245,1.058s-0.393,0.548-0.689,0.718s-0.632,0.256-1.005,0.258H47.427z
		 M48.306,10.029v2.848h0.425c0.344,0,0.606-0.112,0.788-0.337s0.274-0.546,0.278-0.964v-0.226c0-0.434-0.09-0.762-0.27-0.986
		c-0.18-0.223-0.442-0.335-0.788-0.335H48.306z"/>
	<path class="st0" d="M51.115,9.593c0-0.127,0.042-0.231,0.128-0.313c0.084-0.082,0.2-0.123,0.347-0.123
		c0.145,0,0.26,0.041,0.346,0.123s0.129,0.187,0.129,0.313c0,0.129-0.044,0.234-0.13,0.316c-0.088,0.082-0.202,0.123-0.345,0.123
		s-0.258-0.041-0.345-0.123S51.115,9.722,51.115,9.593z M52.015,13.583h-0.85v-3.17h0.85V13.583z"/>
	<path class="st0" d="M54.343,11.207c-0.115-0.016-0.217-0.023-0.305-0.023c-0.32,0-0.53,0.108-0.63,0.325v2.074h-0.847v-3.17h0.8
		l0.023,0.378c0.17-0.291,0.405-0.437,0.706-0.437c0.094,0,0.182,0.013,0.264,0.038L54.343,11.207z"/>
	<path class="st0" d="M56.004,13.642c-0.465,0-0.844-0.143-1.136-0.428s-0.438-0.665-0.438-1.14v-0.082
		c0-0.318,0.062-0.603,0.185-0.854c0.123-0.25,0.298-0.443,0.522-0.58c0.227-0.135,0.483-0.203,0.772-0.203
		c0.434,0,0.774,0.137,1.024,0.41c0.248,0.273,0.373,0.661,0.373,1.163v0.346h-2.019c0.027,0.207,0.11,0.373,0.247,0.498
		c0.139,0.125,0.312,0.188,0.523,0.188c0.326,0,0.581-0.118,0.765-0.354l0.416,0.466c-0.127,0.18-0.299,0.32-0.516,0.421
		C56.508,13.591,56.268,13.642,56.004,13.642z M55.907,11.037c-0.168,0-0.305,0.057-0.408,0.171
		c-0.105,0.113-0.172,0.276-0.201,0.488h1.178v-0.067c-0.004-0.188-0.055-0.334-0.152-0.438
		C56.226,11.089,56.087,11.037,55.907,11.037z"/>
	<path class="st0" d="M58.956,12.959c0.156,0,0.283-0.043,0.381-0.129s0.148-0.2,0.152-0.343h0.794
		c-0.002,0.215-0.061,0.412-0.176,0.59c-0.115,0.18-0.273,0.318-0.473,0.416c-0.201,0.099-0.422,0.148-0.664,0.148
		c-0.453,0-0.811-0.144-1.072-0.432s-0.393-0.687-0.393-1.194V11.96c0-0.488,0.13-0.878,0.39-1.169s0.616-0.437,1.069-0.437
		c0.396,0,0.714,0.113,0.953,0.338c0.239,0.227,0.361,0.526,0.365,0.901h-0.794c-0.004-0.165-0.055-0.299-0.152-0.402
		c-0.098-0.103-0.227-0.154-0.387-0.154c-0.197,0-0.347,0.072-0.446,0.216c-0.102,0.144-0.151,0.377-0.151,0.699v0.089
		c0,0.326,0.05,0.561,0.149,0.704C58.602,12.888,58.753,12.959,58.956,12.959z"/>
	<path class="st0" d="M61.63,9.634v0.779h0.542v0.621H61.63v1.582c0,0.117,0.022,0.201,0.067,0.252s0.131,0.076,0.258,0.076
		c0.094,0,0.177-0.007,0.249-0.021v0.642c-0.166,0.051-0.337,0.076-0.513,0.076c-0.594,0-0.896-0.3-0.908-0.899v-1.708H60.32v-0.621
		h0.463V9.634H61.63z"/>
	<path class="st0" d="M62.274,11.969c0-0.314,0.061-0.595,0.182-0.841s0.295-0.437,0.523-0.571c0.227-0.135,0.491-0.202,0.792-0.202
		c0.428,0,0.776,0.131,1.048,0.393c0.27,0.262,0.421,0.617,0.452,1.066l0.006,0.217c0,0.486-0.136,0.877-0.407,1.17
		c-0.271,0.295-0.636,0.441-1.093,0.441s-0.821-0.146-1.095-0.439c-0.271-0.293-0.408-0.691-0.408-1.195V11.969z M63.121,12.029
		c0,0.301,0.057,0.531,0.17,0.69s0.275,0.239,0.486,0.239c0.205,0,0.365-0.079,0.48-0.236s0.173-0.409,0.173-0.756
		c0-0.295-0.058-0.523-0.173-0.687c-0.115-0.162-0.277-0.243-0.486-0.243c-0.207,0-0.367,0.081-0.48,0.242
		S63.121,11.69,63.121,12.029z"/>
	<path class="st0" d="M67.43,11.207c-0.115-0.016-0.217-0.023-0.305-0.023c-0.32,0-0.53,0.108-0.63,0.325v2.074h-0.847v-3.17h0.8
		l0.023,0.378c0.17-0.291,0.405-0.437,0.706-0.437c0.094,0,0.182,0.013,0.264,0.038L67.43,11.207z"/>
	<path class="st0" d="M69.404,12.707c0-0.104-0.052-0.185-0.153-0.245c-0.104-0.059-0.268-0.112-0.494-0.159
		c-0.754-0.158-1.131-0.479-1.131-0.961c0-0.281,0.116-0.516,0.35-0.704s0.539-0.283,0.916-0.283c0.402,0,0.724,0.095,0.965,0.284
		s0.362,0.436,0.362,0.738h-0.847c0-0.121-0.039-0.222-0.117-0.3c-0.078-0.08-0.2-0.119-0.366-0.119
		c-0.143,0-0.253,0.032-0.331,0.097s-0.117,0.146-0.117,0.246c0,0.094,0.044,0.17,0.133,0.228s0.239,0.107,0.45,0.148
		c0.211,0.043,0.389,0.09,0.533,0.143c0.447,0.164,0.671,0.448,0.671,0.853c0,0.289-0.124,0.522-0.372,0.702
		c-0.248,0.178-0.568,0.268-0.961,0.268c-0.266,0-0.502-0.048-0.708-0.143c-0.206-0.094-0.367-0.224-0.484-0.389
		s-0.176-0.344-0.176-0.535h0.803c0.008,0.15,0.063,0.266,0.167,0.346s0.242,0.12,0.416,0.12c0.162,0,0.284-0.03,0.368-0.093
		C69.362,12.888,69.404,12.807,69.404,12.707z"/>
</g>
<g>
	<g>
		<path class="st0" d="M15.864,13.573c-0.953,0.415-1.928,0.804-2.887,1.223c-0.052-0.157-0.099-0.317-0.162-0.468
			c-0.029-0.07-0.123-0.06-0.138,0.001c-0.002,0.002-0.005,0.003-0.007,0.005c-0.015,0.015-0.029,0.032-0.044,0.048
			c0.051-0.057,0.006-0.172-0.081-0.14c-0.11,0.04-0.221,0.081-0.331,0.121c-0.077,0.028-0.16,0.056-0.22,0.112
			c-0.082,0.035-0.063,0.168,0.04,0.181c0.025,0.004,0.05,0.004,0.075,0.007c-0.001,0.011,0,0.023,0,0.033
			c-0.01,0.013-0.02,0.027-0.026,0.044c-0.007,0.019,0.006,0.045,0.025,0.053c-0.001,0.126,0.003,0.255,0.02,0.389
			c-0.292,0.136-0.583,0.276-0.868,0.423c-0.01-0.017-0.023-0.032-0.044-0.055c-0.079-0.086-0.116-0.201-0.141-0.312
			c-0.051-0.234,0.055-0.427,0.167-0.62c0.005-0.008,0.004-0.016,0.004-0.024c0.025-0.009,0.05-0.02,0.075-0.03
			c0.02,0.04,0.074,0.063,0.108,0.02c0.025-0.03,0.048-0.061,0.072-0.092c0.622-0.246,1.23-0.538,1.84-0.808
			c-0.003,0.007-0.007,0.014-0.01,0.021c-0.023,0.059,0.063,0.104,0.104,0.06c0.054-0.058,0.102-0.122,0.148-0.188
			c0.019-0.008,0.038-0.017,0.057-0.025c0.017,0.03,0.067,0.043,0.095,0.015c0.03-0.029,0.056-0.062,0.083-0.094
			c0.084-0.037,0.167-0.074,0.251-0.11c0.013,0.001,0.026-0.001,0.035-0.009c0.004-0.004,0.008-0.008,0.013-0.012
			c0.064-0.028,0.128-0.056,0.192-0.084c0.014,0.008,0.03,0.01,0.044-0.001c0.013-0.01,0.022-0.022,0.032-0.033
			c0.487-0.214,0.974-0.429,1.461-0.643c0.099,0.03,0.14-0.129,0.04-0.165c-0.964-0.351-1.915-0.738-2.848-1.166
			c-0.925-0.424-1.799-0.945-2.711-1.391c-0.011-0.021-0.032-0.037-0.064-0.04c-0.394-0.035-0.825,0.108-1.138,0.348
			c0.003-0.655-0.003-1.311-0.043-1.962c-0.004-0.061-0.091-0.061-0.095,0c0,0.008-0.001,0.015-0.001,0.023
			C8.601,8.115,8.122,8.191,7.724,8.191c-0.203,0-0.406,0.001-0.61,0.001C7.116,8.19,7.117,8.188,7.118,8.187
			c0.039-0.051-0.041-0.102-0.084-0.065c-0.026,0.023-0.052,0.047-0.078,0.07c-0.216,0-0.432,0.001-0.649,0.001L4.891,8.195
			C4.498,8.195,4.044,8.136,3.659,8.231C3.582,8.212,3.502,8.226,3.423,8.207C3.31,8.18,3.215,8.09,3.171,7.985
			C3.094,7.8,3.206,7.668,3.321,7.548C3.4,7.551,3.478,7.552,3.557,7.554c0.811,0.124,1.714,0.022,2.516,0.023
			c0.88,0.002,1.871,0.131,2.743-0.034C8.841,7.54,8.865,7.539,8.89,7.536c0.011-0.001,0.018-0.008,0.026-0.013
			C8.929,7.52,8.942,7.518,8.955,7.515c0.104-0.024,0.104-0.185,0-0.209C8.05,7.098,7,7.241,6.073,7.243
			C5.151,7.245,4.096,7.109,3.2,7.339C3.192,7.34,3.186,7.344,3.18,7.347c-0.197,0.006-0.416,0.181-0.483,0.38
			C2.665,7.738,2.64,7.765,2.64,7.808c0,0.056-0.001,0.111-0.001,0.167C2.633,7.985,2.627,7.996,2.621,8.006
			C2.567,8.102,2.494,8.2,2.491,8.313C2.49,8.344,2.527,8.366,2.553,8.349c0.033-0.022,0.059-0.051,0.083-0.082
			C2.636,8.355,2.635,8.443,2.635,8.531c-0.01,0.011-0.021,0.021-0.03,0.031c-0.01,0.011-0.018,0.027-0.02,0.043
			C2.571,8.611,2.56,8.62,2.56,8.638V8.64C2.544,8.643,2.53,8.653,2.53,8.675c0,0.127,0,0.253-0.001,0.38
			C2.528,9.058,2.526,9.062,2.525,9.066c-0.002,0.01,0,0.021,0.003,0.031c0,0.061-0.001,0.123-0.002,0.184
			C2.524,9.285,2.521,9.288,2.52,9.293C2.512,9.31,2.515,9.331,2.526,9.347c-0.009,0.774-0.023,1.552,0.021,2.322
			c-0.006,0.227-0.013,0.455-0.018,0.683c-0.012,0.021-0.01,0.041-0.001,0.057c-0.005,0.24-0.007,0.479-0.003,0.718
			c-0.016,0.021-0.033,0.041-0.048,0.062c-0.032,0.044,0.008,0.082,0.051,0.084c0.006,0.238,0.019,0.475,0.043,0.711
			C2.571,14,2.581,14.008,2.592,14.013c0.002,0.376,0.008,0.752,0.023,1.126c0,0.007,0.002,0.013,0.004,0.019
			c-0.004,0.091,0.042,0.19,0.102,0.265c-0.01,0.014-0.021,0.027-0.03,0.041c-0.031,0.047,0.033,0.116,0.08,0.08
			c0.014-0.011,0.028-0.023,0.042-0.035c0.035,0.024,0.073,0.044,0.114,0.058c-0.002,0.004-0.005,0.008-0.007,0.012
			c-0.019,0.037,0.021,0.084,0.059,0.059c0.022-0.014,0.041-0.032,0.062-0.049c0.015,0.001,0.03,0.003,0.044,0.003
			c0.009,0.009,0.023,0.014,0.037,0.004c0.004-0.003,0.007-0.006,0.011-0.009c0.033-0.005,0.064-0.014,0.094-0.028
			c0.601,0.045,1.204,0.052,1.808,0.051c-0.005,0.028,0.033,0.049,0.057,0.029c0.011-0.009,0.022-0.02,0.033-0.029
			c0.12,0,0.239-0.001,0.359-0.001c-0.006,0.009-0.014,0.018-0.02,0.027c-0.035,0.05,0.039,0.099,0.081,0.062
			c0.032-0.029,0.062-0.06,0.093-0.089c0.091,0,0.182-0.001,0.274-0.001c-0.058,0.075-0.113,0.153-0.16,0.235
			c-0.015,0.026,0.017,0.064,0.044,0.044c0.117-0.083,0.228-0.178,0.335-0.28h0.004c-0.022,0.03-0.045,0.059-0.066,0.09
			c-0.035,0.051,0.038,0.096,0.08,0.062c0.059-0.049,0.118-0.099,0.175-0.152l0.167,0c-0.012,0.023-0.026,0.045-0.038,0.068
			c-0.016,0.032,0.021,0.057,0.047,0.036c0.041-0.033,0.081-0.069,0.121-0.105l0.069,0c-0.009,0.013-0.018,0.025-0.027,0.038
			c-0.037,0.055,0.043,0.109,0.088,0.068c0.037-0.033,0.07-0.071,0.106-0.106l0.821-0.001c0.044,0,0.089,0.001,0.133,0.002
			c-0.01,0.031,0.032,0.059,0.057,0.041c0.017-0.012,0.032-0.027,0.048-0.04c0.114,0.002,0.228,0.004,0.343,0.005
			c0.005,0.032,0.046,0.058,0.075,0.037c0.015-0.011,0.027-0.024,0.041-0.036c0.205,0,0.409-0.005,0.608-0.03
			c0.001,0.008,0.002,0.016,0.003,0.025c0.008,0.062,0.088,0.062,0.096,0c0.002-0.013,0.003-0.026,0.004-0.039
			c0.012-0.002,0.025-0.003,0.038-0.005c0.063-0.011,0.063-0.116,0-0.127c-0.008-0.001-0.015-0.002-0.023-0.003
			c0.022-0.233,0.028-0.468,0.028-0.704c0.007,0.007,0.016,0.014,0.027,0.018c0.078,0.03,0.152,0.063,0.228,0.094
			c0.014,0.009,0.03,0.017,0.044,0.026c-0.004,0.031-0.005,0.062-0.001,0.092c0.005,0.036,0.047,0.064,0.077,0.032
			c0.016-0.017,0.027-0.036,0.039-0.056c0.028,0.016,0.056,0.03,0.085,0.045c-0.001,0.008-0.003,0.015-0.003,0.023
			c0,0.031,0.033,0.047,0.059,0.034c0.008-0.004,0.014-0.01,0.022-0.015c0.148,0.079,0.299,0.154,0.445,0.231
			c0.007,0.045,0.06,0.072,0.099,0.052c0.118,0.064,0.237,0.129,0.356,0.192c-0.002,0.024-0.006,0.048-0.006,0.072
			c0,0.054,0.073,0.073,0.101,0.027c0.008-0.013,0.013-0.028,0.02-0.041c0.128,0.064,0.259,0.123,0.395,0.168
			c0.01,0.003,0.019,0.002,0.027-0.003c0.009,0.005,0.017,0.01,0.026,0.015c0.033,0.02,0.063,0.013,0.083-0.006
			c0.002-0.001,0.003-0.001,0.005-0.002c0.008,0.001,0.017,0.001,0.027-0.002c0.293-0.105,0.585-0.218,0.875-0.334
			c0.096,0.491,0.317,0.981,0.676,1.284c0,0.025,0.006,0.048,0.022,0.069c0.011,0.014,0.027,0.024,0.045,0.018
			c0.01-0.003,0.017-0.01,0.025-0.016c0.061,0.043,0.125,0.082,0.193,0.114c0.021,0.01,0.047,0.003,0.063-0.012
			c0.02,0.004,0.043-0.004,0.052-0.022c0.062-0.126,0.012-0.274-0.005-0.409c-0.007-0.061-0.018-0.121-0.027-0.181
			c0.01-0.021,0.019-0.041,0.03-0.062c0.021-0.043-0.014-0.079-0.05-0.077c-0.001-0.003-0.001-0.006-0.001-0.009
			c0.259-0.027,0.547-0.041,0.78-0.136c0.031-0.013,0.048-0.056,0.036-0.085c0.003-0.025-0.009-0.051-0.039-0.061
			c-0.144-0.046-0.281-0.062-0.417-0.136c-0.184-0.1-0.303-0.287-0.398-0.465c-0.033-0.061-0.061-0.125-0.087-0.189
			c0.971-0.42,1.932-0.874,2.896-1.293C16.058,13.681,15.968,13.528,15.864,13.573z M8.947,9.671
			C8.942,9.678,8.938,9.686,8.933,9.694C8.927,9.558,8.919,9.423,8.907,9.29c0.015-0.025,0.029-0.05,0.044-0.075
			C8.949,9.367,8.948,9.519,8.947,9.671z M8.947,10.613c-0.01,0.01-0.021,0.02-0.031,0.031c0.019-0.228,0.025-0.459,0.023-0.689
			C8.941,9.95,8.943,9.946,8.945,9.942C8.945,10.165,8.945,10.389,8.947,10.613z M8.892,10.862c0.019-0.019,0.038-0.038,0.056-0.057
			c0,0.064,0.001,0.129,0.001,0.194c-0.014-0.024-0.042-0.039-0.069-0.033C8.885,10.931,8.888,10.896,8.892,10.862z M8.393,8.386
			C8.341,8.434,8.291,8.485,8.241,8.535c-0.29,0.267-0.561,0.557-0.837,0.84C7.35,9.431,7.294,9.486,7.237,9.542
			C7.259,9.516,7.28,9.489,7.302,9.463C7.6,9.106,7.912,8.753,8.193,8.381C8.26,8.383,8.327,8.385,8.393,8.386z M7.724,8.363
			c0.044,0,0.089,0.002,0.135,0.003c-0.069,0.066-0.14,0.131-0.209,0.197C7.624,8.532,7.578,8.517,7.541,8.554
			C7.077,9.027,6.583,9.492,6.13,9.982c-0.075,0.069-0.149,0.138-0.225,0.206c0.227-0.244,0.452-0.491,0.673-0.74
			c0.358-0.354,0.724-0.706,1.054-1.085L7.724,8.363z M8.449,8.98c-0.07,0.094-0.142,0.186-0.211,0.28
			c-0.253,0.285-0.505,0.571-0.756,0.858c-0.364,0.415-0.782,0.82-1.083,1.283c-0.032,0.05,0.037,0.096,0.078,0.06
			c0.211-0.185,0.403-0.398,0.588-0.618c-0.02,0.034-0.038,0.068-0.056,0.102c-0.072,0.083-0.146,0.166-0.218,0.25
			c-0.226,0.261-0.456,0.521-0.685,0.782c-0.013,0-0.027,0.005-0.039,0.018c-0.154,0.17-0.307,0.34-0.461,0.51
			c0.184-0.251,0.368-0.501,0.552-0.752c0.049-0.057,0.099-0.114,0.148-0.171c0.013-0.015,0.015-0.031,0.011-0.046
			c0.015-0.02,0.03-0.041,0.045-0.061c0.042-0.057-0.052-0.109-0.094-0.055c-0.088,0.116-0.177,0.232-0.266,0.348
			c-0.359,0.399-0.718,0.798-1.074,1.199c-0.035,0.039-0.071,0.079-0.107,0.118c0.382-0.445,0.762-0.892,1.148-1.331
			C6.7,10.92,7.45,10.097,8.176,9.255C8.231,9.204,8.284,9.15,8.34,9.099C8.359,9.081,8.364,9.06,8.36,9.04
			c0.058-0.068,0.115-0.136,0.173-0.203C8.504,8.884,8.477,8.932,8.449,8.98z M8.658,8.953C8.659,8.952,8.66,8.95,8.662,8.949
			c0.006-0.007,0.01-0.015,0.011-0.023c0.018-0.032,0.035-0.065,0.053-0.097C8.73,8.823,8.734,8.817,8.738,8.81
			C8.74,8.863,8.743,8.915,8.745,8.967C8.641,9.085,8.537,9.203,8.433,9.321C8.512,9.203,8.587,9.08,8.658,8.953z M7.593,10.867
			c-0.101,0.114-0.202,0.227-0.303,0.341c-0.214,0.223-0.432,0.449-0.615,0.693c-0.037,0.041-0.073,0.082-0.11,0.124
			c-0.308,0.349-0.624,0.696-0.936,1.045c-0.301,0.295-0.602,0.59-0.899,0.888c-0.225,0.226-0.475,0.449-0.712,0.682
			c0.304-0.346,0.612-0.689,0.918-1.033c0.039-0.044,0-0.103-0.044-0.105c0.01-0.012,0.02-0.024,0.03-0.035
			c0.008-0.01,0.017-0.019,0.025-0.029c0.01,0.003,0.021,0.003,0.029-0.005C5.649,12.757,6.251,12,6.873,11.277
			c0.007-0.009,0.015-0.017,0.022-0.026c0.012,0.008,0.029,0.009,0.043,0.002c-0.38,0.407-0.773,0.816-1.083,1.271
			c-0.036,0.053,0.041,0.103,0.084,0.065c0.522-0.453,0.958-1.03,1.415-1.547c0.145-0.164,0.289-0.328,0.433-0.493
			c-0.072,0.088-0.139,0.179-0.195,0.276C7.585,10.84,7.587,10.855,7.593,10.867z M5.244,12.1c-0.366,0.422-0.738,0.845-1.08,1.285
			c-0.004-0.016-0.016-0.03-0.031-0.037c0.286-0.38,0.577-0.757,0.89-1.119c0.113-0.131,0.231-0.257,0.347-0.385
			c-0.049,0.057-0.097,0.115-0.143,0.174C5.205,12.045,5.218,12.087,5.244,12.1z M5.77,11.715c0.053-0.064,0.105-0.128,0.158-0.192
			c0.218-0.215,0.429-0.439,0.641-0.656c-0.23,0.266-0.461,0.532-0.692,0.796c-0.225,0.256-0.453,0.511-0.682,0.766
			C5.386,12.188,5.576,11.948,5.77,11.715z M5.781,10.826c-0.023,0.037,0,0.07,0.033,0.079c-0.186,0.215-0.366,0.435-0.515,0.67
			c-0.172,0.187-0.342,0.376-0.508,0.57c-0.234,0.274-0.474,0.557-0.706,0.85c-0.002,0.002-0.005,0.003-0.007,0.005
			c-0.237,0.26-0.474,0.52-0.713,0.778c-0.063,0.068-0.133,0.137-0.203,0.208c0.181-0.259,0.362-0.519,0.563-0.765
			c0.394-0.481,0.828-0.93,1.285-1.352c0.057-0.052-0.027-0.134-0.084-0.084c-0.096,0.086-0.191,0.174-0.284,0.263
			c0.221-0.242,0.443-0.484,0.665-0.725c0.144-0.14,0.288-0.28,0.433-0.419c0.043-0.041-0.022-0.106-0.065-0.065
			c-0.081,0.076-0.162,0.152-0.244,0.227c-0.008-0.003-0.017-0.004-0.025-0.003c0.167-0.191,0.333-0.382,0.5-0.573
			c0.019-0.022,0.014-0.047,0-0.065c0.129-0.127,0.257-0.254,0.386-0.376c0.281-0.266,0.561-0.535,0.84-0.803
			C7.043,9.347,6.954,9.445,6.867,9.545C6.506,9.958,6.073,10.361,5.781,10.826z M3.886,13.901
			c-0.176,0.203-0.352,0.407-0.523,0.614c-0.017,0.017-0.033,0.033-0.05,0.05c-0.094,0.095-0.199,0.19-0.297,0.291
			c0.001-0.06,0.001-0.121-0.001-0.182c0.042-0.044,0.084-0.09,0.124-0.136c0.028,0.026,0.079,0.031,0.11-0.009
			c0.16-0.21,0.318-0.422,0.475-0.633c0.094-0.102,0.188-0.204,0.283-0.306c-0.054,0.073-0.108,0.146-0.161,0.22
			C3.819,13.849,3.849,13.89,3.886,13.901z M3.625,14.491c-0.01,0.001-0.021,0.005-0.03,0.014c-0.151,0.156-0.305,0.309-0.457,0.463
			c-0.046,0.047-0.094,0.094-0.142,0.142c0.001-0.007,0.002-0.015,0.003-0.022C3,15.087,3.002,15.085,3.004,15.083
			c0.009-0.001,0.019-0.004,0.028-0.014c0.249-0.254,0.491-0.515,0.731-0.779c-0.043,0.055-0.088,0.108-0.129,0.164
			C3.624,14.467,3.622,14.48,3.625,14.491z M3.592,12.882c-0.113,0.134-0.222,0.272-0.32,0.414
			c-0.008,0.011-0.009,0.022-0.007,0.031c-0.095,0.111-0.186,0.225-0.268,0.343c-0.033,0.047,0.036,0.089,0.075,0.057
			c0.082-0.068,0.161-0.14,0.238-0.215c-0.116,0.145-0.227,0.296-0.334,0.448c-0.006-0.146-0.014-0.292-0.021-0.438
			c0-0.013,0-0.026-0.001-0.039c0.086-0.092,0.173-0.183,0.256-0.279c0.169-0.153,0.329-0.319,0.484-0.489
			c-0.035,0.041-0.069,0.082-0.102,0.124C3.582,12.852,3.584,12.87,3.592,12.882z M3,14.387c0.167-0.156,0.311-0.355,0.454-0.518
			l0.007-0.008c-0.072,0.114-0.14,0.23-0.205,0.347c-0.082,0.082-0.168,0.166-0.252,0.251C3.004,14.435,3.002,14.411,3,14.387z
			 M3.529,11.376c0.038-0.049,0.076-0.097,0.115-0.144c0.016-0.019,0.016-0.04,0.01-0.059c0.111-0.182,0.219-0.364,0.331-0.536
			c0.029-0.044,0-0.084-0.038-0.097c0.132-0.1,0.262-0.203,0.389-0.312c-0.076,0.081-0.148,0.163-0.215,0.25
			c-0.021,0.026,0.006,0.073,0.039,0.051c0.095-0.063,0.186-0.133,0.276-0.206c-0.261,0.268-0.517,0.541-0.733,0.838
			c-0.023,0.031,0.002,0.06,0.032,0.066c-0.118,0.127-0.231,0.257-0.331,0.394c-0.026,0.035,0.025,0.084,0.059,0.059
			c0.006-0.004,0.011-0.009,0.017-0.013c-0.163,0.198-0.326,0.397-0.489,0.595c0.001-0.047,0.002-0.094,0.003-0.14
			C3.191,11.895,3.364,11.639,3.529,11.376z M3.015,11.126c0.001-0.032,0.002-0.064,0.003-0.096
			c0.092-0.123,0.173-0.258,0.259-0.382c0.001-0.001,0.002-0.003,0.003-0.004c0.018-0.016,0.036-0.033,0.054-0.049
			c-0.004,0.022,0.01,0.044,0.029,0.053c-0.042,0.06-0.085,0.12-0.127,0.18C3.167,10.925,3.089,11.024,3.015,11.126z M3.254,12.123
			c0.002,0.001,0.005,0.001,0.007,0.002c-0.004,0.004-0.008,0.008-0.011,0.012c-0.046,0.044,0.029,0.117,0.069,0.069
			c0.228-0.267,0.47-0.526,0.716-0.78c0.206-0.192,0.412-0.385,0.614-0.581c0.244-0.236,0.501-0.468,0.749-0.709
			c-0.193,0.213-0.384,0.426-0.576,0.629c-0.381,0.387-0.764,0.772-1.144,1.16c-0.224,0.228-0.467,0.452-0.698,0.686
			c0.003-0.06,0.005-0.12,0.007-0.18C3.076,12.329,3.164,12.226,3.254,12.123z M3.846,12.547c0.168-0.189,0.333-0.381,0.5-0.565
			c0.212-0.233,0.423-0.468,0.633-0.703C5.091,11.19,5.2,11.096,5.307,11c-0.272,0.297-0.544,0.593-0.813,0.892
			c-0.084,0.093-0.171,0.186-0.258,0.279C4.103,12.293,3.971,12.417,3.846,12.547z M5.951,9.48c0.162-0.143,0.326-0.284,0.491-0.424
			C6.381,9.124,6.321,9.193,6.259,9.26C6.255,9.265,6.253,9.271,6.25,9.276c-0.113,0.1-0.224,0.203-0.333,0.311
			c0.014-0.017,0.029-0.033,0.043-0.05C5.976,9.519,5.967,9.492,5.951,9.48z M7.222,8.363l0.194,0
			C7.051,8.736,6.675,9.106,6.302,9.48c0.246-0.254,0.505-0.518,0.678-0.807C7.078,8.578,7.176,8.476,7.222,8.363z M6.977,8.362
			l0.07,0C7.009,8.396,6.975,8.436,6.941,8.476C6.883,8.519,6.826,8.563,6.769,8.608C6.84,8.527,6.91,8.445,6.977,8.362z
			 M5.988,8.361l0.32,0l0.461,0.001C6.689,8.438,6.61,8.517,6.532,8.596c-0.018-0.02-0.048-0.028-0.073-0.004
			C6.159,8.884,5.858,9.176,5.558,9.469c0.189-0.213,0.379-0.446,0.526-0.694c0.077-0.074,0.154-0.147,0.231-0.221
			c0.027-0.026,0.02-0.059-0.001-0.079C6.318,8.47,6.323,8.465,6.327,8.46c0.028-0.035-0.016-0.082-0.05-0.05
			c-0.01,0.01-0.02,0.02-0.03,0.03C6.239,8.428,6.221,8.423,6.211,8.434C6.137,8.513,6.067,8.596,6,8.681
			c-0.014,0.014-0.028,0.03-0.042,0.044C5.734,8.928,5.511,9.131,5.29,9.336c0.251-0.247,0.5-0.495,0.75-0.731
			c0.06-0.056-0.03-0.146-0.09-0.09C5.844,8.613,5.739,8.71,5.633,8.807C5.75,8.685,5.867,8.564,5.984,8.442
			C6.009,8.415,6.005,8.384,5.988,8.361z M5.355,8.36c0.177,0,0.353,0,0.53,0.001C5.816,8.43,5.748,8.499,5.68,8.568
			C5.66,8.562,5.639,8.564,5.62,8.583c-0.01,0.01-0.02,0.02-0.03,0.03C5.578,8.614,5.567,8.618,5.556,8.627
			C5.3,8.847,5.034,9.063,4.768,9.282c0.039-0.044,0.078-0.088,0.117-0.131C4.928,9.106,4.968,9.059,5.01,9.013
			C5.142,8.9,5.274,8.786,5.402,8.667c0.022-0.003,0.04-0.022,0.047-0.045c0.03-0.028,0.061-0.056,0.09-0.085
			C5.596,8.48,5.518,8.372,5.451,8.423C5.422,8.445,5.395,8.469,5.367,8.491c-0.001,0-0.002-0.001-0.003-0.001
			C5.303,8.489,5.279,8.498,5.25,8.523C5.248,8.52,5.244,8.518,5.242,8.516c0.034-0.024,0.068-0.047,0.102-0.071
			C5.377,8.421,5.374,8.383,5.355,8.36z M4.771,8.586C4.846,8.522,4.923,8.46,4.996,8.394c0.011-0.01,0.015-0.022,0.016-0.034
			c0.083,0,0.166,0,0.249,0c-0.163,0.079-0.332,0.173-0.5,0.276C4.772,8.62,4.774,8.602,4.771,8.586z M4.431,8.373
			c0.058-0.002,0.116-0.004,0.173-0.006c-0.04,0.032-0.078,0.067-0.117,0.101c0.004-0.041-0.029-0.079-0.069-0.083
			C4.422,8.38,4.426,8.377,4.431,8.373z M4.687,8.902c-0.103,0.11-0.203,0.224-0.302,0.337C4.293,9.328,4.2,9.417,4.109,9.508
			C3.998,9.622,3.882,9.737,3.767,9.855C3.742,9.82,3.68,9.808,3.647,9.855c-0.151,0.211-0.302,0.421-0.452,0.633
			c-0.054,0.076-0.112,0.152-0.168,0.23c0.001-0.053,0.003-0.105,0.004-0.158c0.156-0.206,0.302-0.423,0.447-0.637
			c0.27-0.219,0.512-0.474,0.78-0.697C4.396,9.111,4.541,9.005,4.687,8.902z M3.046,10.012c0.002-0.078,0.004-0.156,0.006-0.234
			c0.003-0.002,0.006-0.004,0.009-0.006c0.02,0.024,0.051,0.035,0.084,0.01C3.176,9.759,3.206,9.734,3.236,9.71
			C3.234,9.725,3.238,9.74,3.245,9.753C3.243,9.756,3.24,9.758,3.238,9.762C3.22,9.8,3.202,9.837,3.184,9.875
			C3.136,9.92,3.091,9.966,3.046,10.012z M3.854,8.357C3.875,8.36,3.897,8.363,3.918,8.365C3.803,8.456,3.688,8.55,3.573,8.643
			C3.669,8.549,3.763,8.454,3.854,8.357z M3.03,8.253c0.017-0.035,0.035-0.069,0.052-0.104c0.077,0.104,0.204,0.199,0.332,0.234
			L3.296,8.496C3.298,8.45,3.254,8.41,3.207,8.414C3.213,8.407,3.22,8.4,3.227,8.393C3.29,8.326,3.191,8.227,3.125,8.292
			C3.117,8.3,3.108,8.308,3.1,8.317c-0.003,0-0.005,0-0.008,0.001C3.069,8.323,3.046,8.329,3.024,8.335
			C3.026,8.308,3.028,8.281,3.03,8.253z M2.944,9.366c0.204-0.117,0.38-0.304,0.557-0.453C3.71,8.737,3.914,8.556,4.119,8.375
			c0.028,0.001,0.055,0.001,0.083,0.001c-0.014,0.013-0.027,0.027-0.04,0.04c-0.157,0.132-0.315,0.264-0.469,0.4
			C3.479,9.003,3.239,9.184,3.044,9.394C3.015,9.372,2.96,9.385,2.958,9.433C2.957,9.46,2.956,9.487,2.955,9.514
			c0,0.002,0,0.004,0,0.007C2.946,9.728,2.939,9.936,2.93,10.143c-0.01,0.012-0.022,0.024-0.032,0.036
			C2.915,9.908,2.931,9.637,2.944,9.366z M2.859,10.968c0-0.007,0-0.015,0-0.022c0.003-0.059,0.006-0.119,0.008-0.178
			c0.014-0.017,0.027-0.035,0.041-0.052C2.905,10.778,2.903,10.84,2.9,10.902C2.886,10.924,2.872,10.946,2.859,10.968z M2.889,11.18
			c-0.002,0.049-0.004,0.098-0.006,0.147c-0.022,0.038-0.045,0.076-0.064,0.115c0.009-0.073,0.016-0.146,0.022-0.22
			c0.003-0.002,0.004-0.005,0.006-0.008c0.006-0.001,0.011-0.002,0.016-0.006C2.873,11.199,2.88,11.189,2.889,11.18z M2.815,8.148
			c0.023-0.051,0.043-0.104,0.063-0.156C2.873,8.02,2.869,8.048,2.864,8.076C2.852,8.159,2.831,8.251,2.824,8.34
			C2.82,8.344,2.816,8.347,2.813,8.351C2.814,8.283,2.814,8.215,2.815,8.148z M2.803,9.384c0.008,0.008,0.018,0.014,0.03,0.018
			C2.821,9.543,2.81,9.684,2.799,9.825C2.8,9.678,2.802,9.531,2.803,9.384z M2.78,11.872c0.012-0.002,0.025-0.008,0.036-0.019
			c0.014-0.015,0.026-0.031,0.04-0.046c-0.005,0.01-0.01,0.02-0.014,0.03c-0.009,0.023,0,0.041,0.016,0.051
			c-0.001,0.012-0.001,0.024-0.002,0.036c-0.026,0.03-0.051,0.06-0.076,0.09C2.78,11.967,2.78,11.919,2.78,11.872z M2.778,12.294
			c0.021-0.022,0.042-0.045,0.062-0.068c-0.004,0.076-0.007,0.152-0.009,0.228c-0.018,0.022-0.036,0.044-0.055,0.066
			C2.776,12.445,2.777,12.369,2.778,12.294z M2.775,12.653c0.012,0,0.024-0.004,0.034-0.016c0.005-0.007,0.011-0.013,0.017-0.019
			c-0.001,0.053-0.001,0.106-0.001,0.158c-0.017,0.018-0.034,0.035-0.05,0.053C2.774,12.77,2.775,12.711,2.775,12.653z
			 M2.773,13.088c0.018-0.016,0.035-0.034,0.053-0.051c0.002,0.122,0.005,0.244,0.007,0.366c-0.015,0.019-0.03,0.038-0.046,0.057
			c-0.005-0.103-0.01-0.206-0.016-0.309C2.772,13.13,2.773,13.109,2.773,13.088z M2.833,13.614
			c-0.003,0.115-0.009,0.232-0.012,0.349c-0.008-0.104-0.016-0.21-0.023-0.312C2.81,13.639,2.821,13.626,2.833,13.614z
			 M2.764,15.086c0.014,0.015,0.043,0.014,0.047-0.01c0.015-0.077,0.024-0.156,0.03-0.236c0.007-0.006,0.013-0.012,0.019-0.018
			c0.005,0.063,0.012,0.126,0.021,0.187c-0.036,0.046-0.07,0.094-0.098,0.143C2.778,15.131,2.772,15.108,2.764,15.086z M2.83,15.285
			c-0.012-0.024-0.021-0.05-0.029-0.076c0.012,0.008,0.027,0.011,0.041,0.002c0.025-0.016,0.049-0.034,0.073-0.052
			c0.004,0.008,0.01,0.014,0.018,0.018C2.898,15.212,2.863,15.248,2.83,15.285z M2.95,13.053c0.017,0.007,0.038,0.006,0.053-0.008
			c0.643-0.549,1.181-1.274,1.747-1.902c0.034-0.038,0.011-0.087-0.024-0.102c0.109-0.115,0.218-0.23,0.328-0.344
			c-0.078,0.089-0.155,0.178-0.234,0.266c-0.033,0.036-0.01,0.083,0.024,0.098c-0.043,0.052-0.086,0.103-0.128,0.156
			c-0.039,0.049,0.015,0.111,0.065,0.08c-0.033,0.04-0.066,0.079-0.097,0.119c-0.058,0.063-0.116,0.126-0.175,0.188
			c-0.002-0.048-0.06-0.088-0.099-0.043c-0.484,0.568-1.001,1.121-1.468,1.708c-0.002-0.035-0.003-0.07-0.005-0.105
			C2.941,13.127,2.946,13.09,2.95,13.053z M3.016,15.432c-0.026-0.008-0.05-0.019-0.075-0.033c0.264-0.247,0.489-0.56,0.724-0.823
			c0.013-0.014,0.015-0.03,0.011-0.044c0.014,0.001,0.028-0.002,0.04-0.013c0.451-0.428,0.845-0.929,1.253-1.399
			c-0.147,0.192-0.3,0.383-0.451,0.577c-0.327,0.344-0.666,0.692-0.924,1.079c-0.01,0.015-0.009,0.029-0.004,0.041
			c-0.079,0.082-0.157,0.164-0.234,0.248C3.248,15.183,3.117,15.301,3.016,15.432z M3.32,15.437c0.041-0.038,0.081-0.077,0.12-0.117
			c-0.003,0.028,0.029,0.056,0.056,0.038c0.201-0.138,0.386-0.307,0.564-0.486c-0.128,0.156-0.252,0.313-0.363,0.478
			c-0.018,0.026-0.004,0.052,0.018,0.064C3.583,15.419,3.452,15.429,3.32,15.437z M3.769,15.411
			c0.001-0.001,0.003-0.001,0.004-0.003c0.442-0.407,0.822-0.903,1.205-1.378c0.345-0.373,0.677-0.759,1.008-1.146
			c0.047-0.048,0.095-0.096,0.141-0.145c0.012-0.012,0.016-0.026,0.016-0.039c0.152-0.177,0.303-0.354,0.455-0.53
			c0.01-0.001,0.02-0.005,0.029-0.012c0.397-0.313,0.72-0.753,1.057-1.129c0.336-0.374,0.672-0.748,1.003-1.126
			c-0.002,0.03-0.005,0.061-0.008,0.091C8.677,9.998,8.672,10,8.668,10.005c-0.311,0.328-0.689,0.652-0.928,1.038
			c-0.014,0.022,0,0.048,0.02,0.058c-0.054,0.058-0.107,0.116-0.161,0.174c-0.351,0.379-0.732,0.746-1.041,1.16
			c-0.007,0.009-0.01,0.018-0.011,0.027c-0.099,0.11-0.198,0.22-0.297,0.331c-0.343,0.384-0.7,0.763-1.048,1.149
			c-0.009,0.003-0.018,0.007-0.026,0.016c-0.213,0.233-0.428,0.465-0.638,0.7c-0.188,0.21-0.401,0.415-0.547,0.657
			c-0.02,0.033,0.022,0.081,0.056,0.056c0.167-0.129,0.321-0.281,0.469-0.443c0.003,0.023,0.023,0.042,0.046,0.04
			c-0.119,0.138-0.23,0.28-0.325,0.428C4.081,15.399,3.925,15.404,3.769,15.411z M8.634,11.613
			c-0.031,0.051-0.062,0.103-0.093,0.154c-0.025,0.024-0.049,0.048-0.074,0.072c-0.016-0.003-0.032,0-0.047,0.016
			c-0.077,0.084-0.154,0.167-0.231,0.251c0.045-0.068,0.089-0.136,0.133-0.2c0.12-0.173,0.241-0.345,0.361-0.517
			c-0.005,0.061-0.008,0.121-0.012,0.182c-0.004,0.007-0.007,0.015-0.011,0.022C8.651,11.596,8.641,11.602,8.634,11.613z
			 M8.648,12.392c-0.012,0.07-0.025,0.14-0.037,0.21c-0.002,0.014-0.005,0.027-0.008,0.041c-0.371,0.415-0.748,0.824-1.124,1.234
			c0.048-0.077,0.095-0.156,0.14-0.236c0.078-0.095,0.156-0.189,0.234-0.281c0.162-0.19,0.332-0.378,0.493-0.572
			c0.02,0.014,0.05,0.014,0.069-0.012c0.068-0.092,0.126-0.199,0.18-0.309C8.612,12.441,8.63,12.416,8.648,12.392z M8.532,11.317
			c-0.008,0.002-0.016,0.007-0.023,0.014c-0.098,0.106-0.198,0.21-0.297,0.315c-0.096,0.093-0.196,0.188-0.28,0.291
			c0.13-0.165,0.261-0.33,0.391-0.496c0.131-0.132,0.261-0.266,0.391-0.399c-0.003,0.03-0.005,0.061-0.008,0.092
			C8.649,11.195,8.591,11.256,8.532,11.317z M6.532,13.181c-0.327,0.367-0.666,0.73-0.995,1.1c-0.176,0.16-0.353,0.32-0.529,0.48
			c-0.018,0.016-0.036,0.032-0.054,0.048c0.136-0.168,0.268-0.338,0.399-0.498c0.023-0.028,0.018-0.062,0.001-0.085
			c0.453-0.459,0.888-0.939,1.333-1.399c0.582-0.601,1.165-1.2,1.748-1.799c-0.008,0.031-0.015,0.062-0.022,0.093l-0.001,0.002
			c-0.019-0.01-0.042-0.009-0.061,0.012c-0.121,0.138-0.243,0.274-0.364,0.412c-0.14,0.132-0.274,0.27-0.375,0.424
			C7.251,12.375,6.891,12.777,6.532,13.181z M6.884,12.977c-0.067,0.089-0.129,0.181-0.184,0.275
			c-0.023,0.024-0.045,0.048-0.068,0.072c-0.168,0.181-0.341,0.36-0.514,0.539c0.169-0.198,0.337-0.395,0.507-0.589
			C6.711,13.175,6.797,13.076,6.884,12.977z M8.399,10.72c-0.15,0.16-0.301,0.319-0.449,0.48c-0.282,0.308-0.604,0.605-0.835,0.954
			c-0.014,0.02-0.01,0.039,0.002,0.053c-0.173,0.177-0.346,0.355-0.519,0.532c-0.339,0.347-0.691,0.688-1.036,1.036
			c0.259-0.301,0.515-0.603,0.775-0.897c0.105-0.119,0.209-0.238,0.314-0.357c0.004-0.002,0.008-0.004,0.012-0.007
			c0.382-0.337,0.712-0.745,1.056-1.121c0.245-0.268,0.49-0.535,0.733-0.805C8.432,10.632,8.414,10.676,8.399,10.72z M4.733,15.39
			c-0.083,0-0.166,0.002-0.248,0.003c0.156-0.093,0.291-0.229,0.422-0.361c-0.059,0.075-0.117,0.151-0.174,0.227
			c-0.028,0.038,0.031,0.079,0.063,0.049c0.006-0.005,0.011-0.011,0.016-0.016C4.785,15.324,4.759,15.357,4.733,15.39z
			 M4.892,15.389c0.617-0.576,1.169-1.242,1.742-1.859c0.419-0.451,0.834-0.905,1.25-1.359c0.001-0.001,0.003,0,0.004-0.001
			c0.081-0.051,0.152-0.118,0.221-0.19C8.003,12.119,7.9,12.262,7.844,12.42c-0.003,0.009-0.002,0.017,0.001,0.024
			c-0.101,0.098-0.202,0.195-0.302,0.294c-0.335,0.329-0.708,0.645-0.991,1.021c-0.026,0.035,0.022,0.083,0.058,0.063
			c-0.473,0.512-0.997,1.013-1.419,1.57C5.091,15.39,4.992,15.389,4.892,15.389z M5.37,15.391c0.498-0.473,0.938-1.03,1.395-1.533
			c0.405-0.446,0.808-0.894,1.212-1.342c0.096-0.095,0.191-0.191,0.287-0.287c-0.1,0.168-0.2,0.335-0.299,0.504
			c-0.146,0.155-0.295,0.307-0.44,0.464c-0.318,0.342-0.675,0.674-0.939,1.061c-0.011,0.016-0.006,0.03,0.003,0.041
			c-0.329,0.353-0.649,0.712-0.94,1.094C5.556,15.392,5.463,15.392,5.37,15.391z M6.399,15.062c-0.1,0.111-0.205,0.22-0.307,0.332
			c-0.076,0-0.153-0.001-0.229-0.001c0.583-0.579,1.098-1.23,1.626-1.865c-0.013,0.022-0.025,0.044-0.037,0.065
			c-0.19,0.216-0.378,0.435-0.531,0.674c-0.029,0.046,0.034,0.089,0.072,0.055c0.066-0.058,0.128-0.121,0.19-0.185
			c-0.005,0.013-0.011,0.026-0.016,0.039c-0.005,0.013,0,0.024,0.006,0.033c-0.001,0.001-0.002,0.002-0.003,0.004
			C6.912,14.496,6.655,14.778,6.399,15.062z M6.619,15.395c-0.025,0-0.05,0-0.075,0c0.138-0.14,0.272-0.288,0.403-0.437
			C6.829,15.1,6.718,15.245,6.619,15.395z M7.181,14.428c0.458-0.509,0.913-1.021,1.375-1.527c-0.005,0.031-0.009,0.063-0.011,0.094
			c-0.385,0.407-0.771,0.814-1.152,1.225c-0.109,0.117-0.221,0.233-0.335,0.35C7.099,14.522,7.14,14.474,7.181,14.428z
			 M7.566,15.396l-0.095,0c0.456-0.455,0.842-1.013,1.24-1.528c0,0.062-0.001,0.124-0.001,0.186
			C8.323,14.483,7.874,14.906,7.566,15.396z M7.871,15.396c-0.016,0-0.033,0.001-0.049,0.001c-0.045,0-0.091,0-0.136,0
			c0.379-0.328,0.7-0.748,1.024-1.136l0,0.013c0,0.082-0.002,0.164-0.004,0.246c-0.018-0.007-0.038-0.004-0.056,0.016
			c-0.151,0.18-0.304,0.36-0.453,0.542c0,0,0,0.001-0.001,0.001C8.084,15.178,7.967,15.281,7.871,15.396z M8.305,15.39
			c-0.06,0.001-0.12,0.002-0.179,0.003c0.058-0.073,0.113-0.148,0.169-0.217c0.003-0.004,0.006-0.008,0.009-0.012
			c0.007-0.007,0.014-0.014,0.021-0.021c0.125-0.117,0.25-0.234,0.375-0.352c0,0.021-0.001,0.042-0.001,0.063
			c-0.001,0.001-0.003,0.002-0.004,0.003c-0.074,0.101-0.148,0.202-0.223,0.303C8.421,15.233,8.351,15.308,8.305,15.39z
			 M8.685,15.396c-0.04-0.001-0.081-0.003-0.122-0.004c0.005-0.007,0.01-0.014,0.016-0.021l0.125-0.162
			c0.002,0.041,0.006,0.082,0.009,0.123C8.704,15.354,8.693,15.374,8.685,15.396z M8.713,13.635
			c-0.475,0.572-1.025,1.133-1.412,1.761c-0.079,0-0.158,0-0.237,0c0.249-0.274,0.479-0.572,0.717-0.849
			c0.312-0.364,0.622-0.731,0.937-1.093C8.716,13.514,8.713,13.575,8.713,13.635z M8.722,13.234
			c-0.344,0.406-0.698,0.805-1.047,1.208c-0.192,0.222-0.398,0.44-0.593,0.666c0.214-0.267,0.413-0.552,0.615-0.803
			c0.287-0.356,0.572-0.712,0.857-1.069c0.009,0.024,0.046,0.026,0.058,0.004c0.028-0.05,0.049-0.103,0.065-0.158
			c0.016-0.02,0.033-0.041,0.049-0.061C8.724,13.091,8.724,13.163,8.722,13.234z M8.734,10.823c-0.046,0.045-0.091,0.09-0.137,0.135
			c0.021-0.052,0.04-0.104,0.059-0.157c0.029-0.03,0.058-0.059,0.087-0.089C8.74,10.749,8.737,10.786,8.734,10.823z M8.653,9.35
			C8.645,9.362,8.636,9.374,8.628,9.385c-0.413,0.457-0.826,0.914-1.237,1.372c0.1-0.139,0.195-0.284,0.287-0.426
			c0.358-0.423,0.715-0.846,1.071-1.27c0.002,0.042,0.003,0.083,0.005,0.125L8.653,9.35z M7.848,9.397
			c-0.286,0.287-0.58,0.567-0.871,0.849c0.03-0.037,0.062-0.073,0.092-0.11c0.46-0.404,0.894-0.915,1.258-1.397
			c0.016-0.021,0.014-0.043,0.004-0.06c0.094-0.094,0.188-0.189,0.269-0.293c0.001-0.001,0.001-0.002,0.001-0.002
			c0.06-0.003,0.119-0.007,0.176-0.015C8.463,8.705,8.154,9.05,7.848,9.397z M8.849,11.174c0.031-0.033,0.062-0.067,0.093-0.1
			c0.004-0.004,0.006-0.009,0.008-0.014c0.001,0.164,0.001,0.328,0.002,0.492c-0.008-0.038-0.052-0.045-0.079-0.027
			c-0.008-0.005-0.018-0.008-0.028-0.008c0.017-0.036,0.033-0.072,0.05-0.108c0.026-0.055-0.025-0.104-0.07-0.1
			C8.834,11.264,8.842,11.219,8.849,11.174z M8.934,13.51c0-0.028-0.001-0.057-0.001-0.085c0-0.035-0.001-0.07-0.002-0.105
			c0.008-0.08,0.015-0.161,0.02-0.242l-0.002,0.681c0,0.079-0.001,0.158-0.003,0.238c-0.004-0.14-0.008-0.279-0.011-0.418
			C8.948,13.554,8.946,13.53,8.934,13.51z M8.844,15.405c0.002-0.02,0.003-0.039,0.005-0.059c0.001-0.003,0.002-0.006,0.003-0.008
			c0.034,0.015,0.081-0.002,0.085-0.053c0.005-0.057,0.008-0.114,0.011-0.171c0.004,0.101,0.008,0.201,0.018,0.301
			C8.925,15.41,8.885,15.407,8.844,15.405z M8.954,9.099C8.941,9.092,8.926,9.09,8.912,9.094C8.911,9.093,8.91,9.093,8.909,9.092
			C8.923,8.93,8.937,8.767,8.952,8.605c0.003-0.032-0.014-0.052-0.036-0.061c0.002-0.003,0.004-0.006,0.006-0.008
			c0.015-0.023,0.007-0.047-0.01-0.064c0.023-0.047,0.047-0.093,0.07-0.138C8.967,8.588,8.959,8.843,8.954,9.099z M10.977,12.361
			c-0.005-0.009-0.011-0.017-0.019-0.024c0.059-0.121,0.113-0.245,0.171-0.365c0.135-0.281,0.27-0.563,0.399-0.847
			c0.016-0.011,0.033-0.023,0.049-0.034c-0.172,0.342-0.328,0.693-0.488,1.04C11.052,12.207,11.015,12.284,10.977,12.361z
			 M11.382,12.464c0.073-0.145,0.145-0.289,0.218-0.434c0.008,0.007,0.018,0.01,0.029,0.011c-0.106,0.209-0.213,0.418-0.318,0.628
			c-0.074,0.148-0.158,0.297-0.238,0.449c0.003-0.01,0.007-0.02,0.01-0.03C11.185,12.879,11.28,12.666,11.382,12.464z
			 M11.453,12.752c0.05-0.1,0.099-0.201,0.149-0.302c0.013,0,0.026-0.005,0.038-0.016c0.013-0.012,0.024-0.024,0.036-0.036
			c-0.015,0.031-0.03,0.061-0.044,0.092c-0.083,0.125-0.158,0.254-0.203,0.39c-0.001,0.002,0,0.003-0.001,0.005
			c-0.124,0.233-0.248,0.469-0.362,0.707c-0.041,0.069-0.082,0.139-0.119,0.209c-0.005-0.009-0.012-0.016-0.02-0.022
			C11.141,13.467,11.286,13.089,11.453,12.752z M11.39,13.378c0.112-0.198,0.222-0.397,0.333-0.596
			c-0.006,0.013-0.013,0.025-0.018,0.038c-0.011,0.026,0.012,0.051,0.037,0.056c-0.159,0.267-0.297,0.546-0.441,0.821
			c-0.07,0.134-0.147,0.269-0.217,0.406c0.006-0.03-0.004-0.054-0.023-0.069C11.181,13.825,11.287,13.603,11.39,13.378z
			 M11.859,12.909c0.001-0.002,0.001-0.005,0.002-0.007c0.065-0.086,0.123-0.18,0.178-0.278c0.029-0.034,0.057-0.068,0.084-0.103
			c-0.009,0.017-0.019,0.033-0.028,0.05c-0.109,0.197-0.241,0.393-0.333,0.602c-0.03,0.046-0.06,0.092-0.091,0.139
			C11.738,13.178,11.801,13.045,11.859,12.909z M11.82,14.179c-0.041,0.019-0.083,0.038-0.125,0.058
			c0.086-0.116,0.167-0.236,0.249-0.355c-0.048,0.077-0.093,0.155-0.131,0.235C11.802,14.14,11.807,14.163,11.82,14.179z
			 M12.211,14.002c-0.076,0.034-0.153,0.067-0.229,0.102c0.227-0.24,0.405-0.54,0.595-0.806l0.391-0.544
			c0.008,0.006,0.017,0.01,0.027,0.011c-0.074,0.112-0.148,0.223-0.221,0.336C12.587,13.387,12.341,13.68,12.211,14.002z
			 M12.825,13.327c0.005-0.007,0.009-0.015,0.014-0.022c0.11-0.17,0.218-0.341,0.327-0.512c0.043-0.043,0.073-0.099,0.1-0.156
			c0.042-0.066,0.085-0.133,0.127-0.199c-0.009,0.025-0.017,0.05-0.024,0.075l-0.402,0.608
			C12.922,13.189,12.874,13.258,12.825,13.327z M13.718,13.047c-0.084,0.133-0.176,0.265-0.258,0.402
			c-0.013,0.006-0.027,0.012-0.04,0.018c-0.018,0.008-0.036,0.016-0.054,0.024c0.125-0.119,0.205-0.285,0.296-0.431
			c0.095-0.152,0.189-0.306,0.282-0.459c0.019-0.016,0.035-0.035,0.05-0.055c0.003,0.013,0.009,0.025,0.017,0.035L13.718,13.047z
			 M14.302,12.751c-0.075,0.136-0.177,0.275-0.234,0.425c-0.018,0.008-0.036,0.016-0.055,0.025c0.055-0.088,0.109-0.177,0.165-0.262
			c0.044-0.067,0.087-0.134,0.131-0.201C14.307,12.741,14.305,12.746,14.302,12.751z M15.466,12.438
			c0.043,0.017,0.085,0.034,0.128,0.05c-0.07,0.032-0.141,0.063-0.211,0.095C15.412,12.535,15.439,12.487,15.466,12.438z
			 M15.139,12.31c0.009,0.003,0.017,0.007,0.026,0.01c-0.029,0.072-0.059,0.144-0.088,0.216c-0.027,0.065-0.069,0.139-0.055,0.21
			c-0.039,0.018-0.079,0.035-0.118,0.053c0.011-0.023,0.023-0.046,0.035-0.069c0.065-0.123,0.129-0.246,0.194-0.369
			C15.142,12.343,15.142,12.326,15.139,12.31z M14.763,12.212c0.009-0.016,0.009-0.032,0.006-0.046
			c0.082,0.033,0.166,0.064,0.248,0.097c-0.006,0.006-0.013,0.012-0.017,0.021c-0.015,0.027-0.029,0.055-0.044,0.082
			c-0.014-0.043-0.077-0.061-0.121-0.034c-0.015-0.045-0.074-0.073-0.113-0.045C14.736,12.262,14.75,12.237,14.763,12.212z
			 M14.378,12.038c0.005-0.01,0.007-0.021,0.007-0.031c0.059,0.025,0.118,0.051,0.177,0.075c-0.155,0.228-0.31,0.456-0.463,0.685
			c-0.03,0.045-0.062,0.091-0.094,0.136c0.105-0.165,0.209-0.33,0.314-0.495c0.034-0.054-0.003-0.104-0.05-0.118
			C14.307,12.204,14.341,12.117,14.378,12.038z M13.819,11.768c0.141,0.061,0.284,0.12,0.426,0.18
			c-0.002,0.003-0.005,0.005-0.006,0.009c-0.008,0.016-0.015,0.032-0.023,0.049c-0.028-0.012-0.062-0.009-0.083,0.025
			c-0.034,0.057-0.069,0.115-0.103,0.172c-0.02,0.003-0.039,0.015-0.053,0.037c-0.001,0.002-0.003,0.004-0.004,0.006
			c0.027-0.085,0.053-0.17,0.081-0.255c0.025-0.077-0.057-0.12-0.116-0.097c-0.024-0.059-0.111-0.088-0.144-0.016
			c-0.019,0.041-0.038,0.082-0.056,0.122C13.764,11.923,13.792,11.846,13.819,11.768z M13.683,12.707
			c-0.039,0.062-0.077,0.123-0.116,0.185c-0.116,0.184-0.29,0.386-0.325,0.603c-0.003,0.016,0.004,0.032,0.015,0.044
			c-0.087,0.038-0.173,0.077-0.26,0.115c0.122-0.148,0.219-0.322,0.325-0.477l0.357-0.524
			C13.679,12.671,13.681,12.689,13.683,12.707z M12.791,11.66c0.067-0.086,0.135-0.171,0.202-0.256
			c0.001-0.002,0.002-0.004,0.003-0.006c0.22,0.103,0.442,0.202,0.665,0.3c-0.046,0.129-0.092,0.257-0.138,0.386
			c-0.014-0.037-0.054-0.063-0.092-0.058c0.027-0.056,0.055-0.112,0.082-0.168c0.045-0.092-0.093-0.174-0.138-0.081
			c-0.08,0.163-0.16,0.325-0.24,0.488c-0.205,0.28-0.411,0.559-0.616,0.839c-0.133,0.181-0.283,0.362-0.42,0.55
			c0.171-0.258,0.336-0.52,0.502-0.781c0.036-0.042,0.07-0.087,0.102-0.133c0.109-0.119,0.181-0.279,0.26-0.418
			c0.138-0.215,0.3-0.434,0.387-0.673c0.019-0.053-0.055-0.092-0.092-0.054c-0.01,0.011-0.02,0.022-0.03,0.033
			c-0.027-0.003-0.055,0.007-0.073,0.038c-0.062,0.108-0.125,0.215-0.187,0.323c-0.015-0.032-0.059-0.051-0.094-0.032
			c0.069-0.107,0.138-0.213,0.206-0.316c0.053-0.08-0.071-0.147-0.126-0.073c-0.068,0.091-0.14,0.184-0.212,0.277
			C12.76,11.784,12.777,11.722,12.791,11.66z M10.618,10.23c0.006-0.013,0.008-0.026,0.007-0.039
			c0.671,0.407,1.394,0.748,2.102,1.08c-0.039,0.122-0.072,0.244-0.108,0.365c-0.09,0.108-0.179,0.216-0.269,0.325
			c0.074-0.178,0.147-0.355,0.223-0.519c0.013-0.028,0.007-0.054-0.007-0.074c-0.003-0.026-0.021-0.047-0.046-0.057
			c0.006-0.01,0.012-0.02,0.018-0.03c0.047-0.081-0.076-0.153-0.126-0.073l-0.001,0.001c-0.017,0.003-0.033,0.012-0.046,0.028
			c-0.016,0.021-0.033,0.042-0.049,0.062l0.027-0.062c0.039-0.087-0.089-0.164-0.13-0.076c-0.067,0.146-0.135,0.291-0.202,0.437
			c0.002-0.023-0.007-0.043-0.021-0.058c0.06-0.123,0.121-0.247,0.181-0.37c0.04-0.083-0.057-0.155-0.118-0.117
			c-0.034-0.015-0.074-0.009-0.095,0.035c-0.016,0.035-0.033,0.07-0.049,0.105c-0.029-0.011-0.061-0.006-0.081,0.03
			c-0.166,0.311-0.325,0.625-0.484,0.939c0.005-0.01,0.009-0.021,0.014-0.032c0.169-0.378,0.335-0.757,0.497-1.138
			c0.035-0.081-0.082-0.153-0.121-0.071c-0.008,0.016-0.015,0.033-0.022,0.049c-0.009-0.005-0.019-0.007-0.028-0.008
			c-0.004-0.054-0.054-0.102-0.108-0.072c0.004-0.011,0.008-0.021,0.012-0.032c0.022-0.059-0.06-0.1-0.1-0.065
			c-0.011-0.039-0.056-0.065-0.092-0.05c-0.015-0.043-0.073-0.068-0.109-0.033c-0.035-0.03-0.09-0.034-0.115,0.019
			c-0.101,0.212-0.202,0.423-0.303,0.635c0.005-0.025-0.003-0.047-0.017-0.065c0.079-0.14,0.157-0.279,0.236-0.419
			c0.051-0.09-0.072-0.171-0.135-0.107c0-0.031-0.02-0.058-0.044-0.072c0,0,0,0,0-0.001c0.02-0.037,0.008-0.07-0.015-0.093
			c0.019-0.035,0.037-0.071,0.056-0.106c0.035-0.063-0.06-0.119-0.097-0.056c-0.001,0.002-0.003,0.005-0.004,0.007
			c-0.019-0.014-0.044-0.021-0.067-0.016c-0.01-0.07-0.113-0.112-0.155-0.034c-0.07,0.129-0.14,0.257-0.211,0.386
			c-0.007,0.013-0.015,0.027-0.023,0.041c0.033-0.089,0.067-0.177,0.097-0.267c0.006-0.019,0-0.035-0.01-0.047
			C10.528,10.422,10.573,10.326,10.618,10.23z M10.651,11.888c-0.001,0.006-0.003,0.013-0.004,0.019l-0.36,0.826L10.651,11.888z
			 M10.05,12.887c-0.102,0.234-0.216,0.471-0.322,0.711c0.108-0.263,0.207-0.531,0.314-0.786c0.141-0.336,0.282-0.672,0.421-1.008
			c0.015-0.017,0.028-0.036,0.041-0.054c0.011,0.005,0.024,0.007,0.037,0.003L10.05,12.887z M10.327,10.029
			c0.002-0.009,0.002-0.016,0.001-0.024c0.032,0.02,0.064,0.041,0.096,0.061c-0.023,0.045-0.046,0.089-0.069,0.134
			c0.006-0.032-0.025-0.051-0.054-0.049C10.31,10.108,10.318,10.066,10.327,10.029z M10.296,11.583
			c-0.001,0.006-0.003,0.012-0.003,0.018c-0.004,0.041,0.045,0.051,0.072,0.032c-0.125,0.292-0.249,0.584-0.373,0.876
			c-0.106,0.251-0.224,0.504-0.339,0.76c-0.018-0.013-0.04-0.02-0.062-0.017c0.066-0.173,0.124-0.351,0.185-0.526
			c0.077-0.171,0.15-0.345,0.227-0.511C10.1,12.005,10.198,11.794,10.296,11.583z M9.81,10.848c0.009-0.004,0.018-0.008,0.024-0.018
			c0.124-0.188,0.207-0.41,0.292-0.624c-0.004,0.037-0.003,0.072,0.008,0.104c0.005,0.013,0.014,0.021,0.024,0.027
			c-0.055,0.096-0.111,0.191-0.165,0.288c-0.06,0.107-0.137,0.218-0.167,0.338c-0.067,0.134-0.132,0.269-0.191,0.405
			c-0.027,0.047-0.054,0.095-0.08,0.142c0.086-0.211,0.165-0.424,0.25-0.623C9.812,10.874,9.813,10.861,9.81,10.848z M9.621,10.119
			c0.022-0.008,0.043-0.016,0.065-0.024c-0.075,0.127-0.15,0.254-0.224,0.381C9.517,10.356,9.569,10.234,9.621,10.119z
			 M9.124,10.291c0.027,0.025,0.065,0.037,0.101,0.015c0.069-0.041,0.136-0.076,0.203-0.107c-0.115,0.197-0.235,0.402-0.308,0.611
			C9.122,10.637,9.123,10.464,9.124,10.291z M9.12,11.022c0.006-0.002,0.011-0.003,0.016-0.008c0.026-0.029,0.05-0.06,0.073-0.091
			c-0.024,0.055-0.044,0.11-0.055,0.167c-0.007,0.034,0.032,0.059,0.058,0.034c0.019-0.018,0.034-0.039,0.051-0.058
			c-0.053,0.109-0.103,0.218-0.147,0.326C9.118,11.269,9.119,11.146,9.12,11.022z M9.116,11.608c0.012-0.003,0.023-0.009,0.031-0.02
			c0.034-0.045,0.066-0.094,0.098-0.142c-0.047,0.102-0.09,0.204-0.13,0.306C9.116,11.704,9.116,11.656,9.116,11.608z M9.528,14.534
			c-0.002,0.008-0.003,0.016-0.002,0.023c-0.017,0.043-0.035,0.088-0.051,0.134c-0.073-0.034-0.147-0.065-0.222-0.092
			c-0.03-0.01-0.052,0-0.065,0.018c-0.025-0.005-0.044,0.002-0.057,0.015c-0.001-0.146-0.003-0.292-0.006-0.438
			c0.014,0.014,0.035,0.019,0.053,0.002c0.078-0.078,0.145-0.17,0.205-0.267c-0.047,0.131-0.091,0.263-0.125,0.396
			c-0.007,0.028,0.007,0.05,0.028,0.061c-0.014,0.036-0.024,0.073-0.026,0.112c-0.001,0.033,0.036,0.051,0.063,0.036
			c0.055-0.03,0.095-0.078,0.13-0.13c0.019,0.024,0.061,0.03,0.082-0.003c0.028-0.046,0.055-0.093,0.081-0.14
			C9.583,14.351,9.553,14.442,9.528,14.534z M10.434,15.105c-0.02-0.01-0.039-0.022-0.059-0.032
			c0.056-0.125,0.108-0.253,0.159-0.382C10.495,14.829,10.461,14.967,10.434,15.105z M10.646,15.22
			c-0.019-0.011-0.037-0.022-0.056-0.032c0.095-0.249,0.163-0.514,0.228-0.778c-0.203-0.128-0.415-0.242-0.631-0.348
			c-0.069,0.207-0.13,0.415-0.175,0.624c-0.014,0.066,0.079,0.112,0.112,0.047c0.045-0.087,0.087-0.175,0.128-0.265
			c-0.022,0.089-0.04,0.179-0.051,0.27c-0.005,0.043,0.051,0.057,0.078,0.032c-0.023,0.074-0.045,0.148-0.066,0.223
			c-0.118-0.056-0.238-0.106-0.358-0.153c0.057-0.087,0.109-0.177,0.164-0.266c0.025-0.041,0.007-0.079-0.023-0.1
			c0.064-0.137,0.12-0.278,0.175-0.42c-0.052-0.025-0.104-0.05-0.156-0.075c-0.079,0.207-0.151,0.415-0.202,0.626
			c-0.001,0.003,0,0.007,0,0.01c-0.027,0.044-0.053,0.088-0.08,0.131c-0.008,0.012-0.015,0.025-0.023,0.038
			c-0.028-0.01-0.057-0.022-0.085-0.032c0.014-0.049,0.027-0.098,0.041-0.144c0.018-0.059,0.036-0.117,0.054-0.176
			c0.085-0.154,0.159-0.318,0.23-0.483c-0.207-0.098-0.416-0.195-0.621-0.296c-0.086,0.15-0.164,0.305-0.205,0.465
			c0-0.023,0-0.046-0.001-0.069c0.08-0.12,0.123-0.271,0.163-0.416c-0.036-0.018-0.072-0.036-0.108-0.054
			c-0.023-0.012-0.033-0.03-0.035-0.049c-0.008,0.023-0.016,0.046-0.024,0.07c-0.001-0.246-0.001-0.493-0.002-0.739
			c0.013-0.002,0.026-0.008,0.035-0.021c0.022-0.033,0.04-0.069,0.061-0.104c0.012,0.024,0.047,0.031,0.066,0.003
			c0.195-0.292,0.325-0.644,0.453-0.985c0.011,0.003,0.023,0.003,0.033-0.008c0.022-0.023,0.041-0.048,0.061-0.073
			c-0.249,0.546-0.551,1.115-0.701,1.697c-0.008,0.03,0.016,0.049,0.04,0.05c0,0.01,0.002,0.019,0.008,0.026
			c-0.003,0.009-0.006,0.018-0.009,0.026c0.02-0.023,0.053-0.036,0.088-0.018c0.025,0.013,0.051,0.025,0.076,0.038
			c0.002-0.008,0.005-0.017,0.007-0.025c0.007-0.021,0.004-0.039-0.004-0.055c0.013-0.025,0.026-0.05,0.039-0.075
			c0.006,0.007,0.014,0.013,0.023,0.016c-0.012,0.052-0.022,0.104-0.03,0.157c0.213,0.107,0.429,0.207,0.645,0.309
			c0.088-0.215,0.172-0.431,0.262-0.638c0.084-0.194,0.169-0.388,0.253-0.582c-0.006,0.025-0.012,0.049-0.017,0.074
			c-0.003,0.016,0.002,0.028,0.01,0.038c-0.072,0.186-0.143,0.371-0.215,0.557c-0.074,0.192-0.155,0.385-0.233,0.58
			c0.052,0.025,0.104,0.049,0.155,0.074c0.059-0.161,0.117-0.322,0.178-0.48c0.095-0.247,0.188-0.495,0.281-0.742
			c0.007,0.005,0.016,0.008,0.024,0.009c-0.157,0.401-0.33,0.808-0.473,1.218c0.321,0.157,0.635,0.328,0.922,0.542
			c0.132-0.18,0.256-0.368,0.374-0.561c0.018-0.025,0.035-0.049,0.053-0.074c-0.126,0.188-0.242,0.381-0.319,0.585
			c-0.004,0.012-0.003,0.022,0.001,0.031c-0.026,0.014-0.053,0.027-0.08,0.04c0.006,0.004,0.012,0.008,0.017,0.012
			c0.073,0.056,0.001,0.182-0.073,0.125c-0.094-0.072-0.192-0.138-0.291-0.201c-0.025,0.09-0.05,0.179-0.075,0.269
			C10.715,14.864,10.647,15.04,10.646,15.22z M10.813,15.318c0.024-0.086,0.044-0.175,0.067-0.259
			c0.027-0.096,0.053-0.192,0.08-0.288c0.012-0.024,0.023-0.049,0.035-0.072c0.019-0.037,0.038-0.074,0.057-0.111
			c0.001,0.017,0.009,0.034,0.022,0.044c-0.123,0.136-0.168,0.334-0.169,0.515c-0.001,0.069,0.012,0.161,0.039,0.251
			C10.902,15.371,10.857,15.345,10.813,15.318z M12.76,14.68c0.018,0.062,0.037,0.125,0.059,0.187
			c-0.018,0.008-0.035,0.016-0.053,0.024c0.018-0.052-0.042-0.105-0.091-0.09c0.026-0.037,0.055-0.073,0.08-0.111
			C12.758,14.686,12.758,14.683,12.76,14.68z M12.589,14.406c0.012-0.004,0.021-0.01,0.029-0.017
			c-0.004,0.004-0.007,0.008-0.011,0.012c-0.099,0.049-0.197,0.1-0.293,0.155c-0.002-0.018-0.009-0.034-0.021-0.047
			C12.392,14.474,12.491,14.44,12.589,14.406z M12.308,14.982c0.058-0.062,0.108-0.137,0.159-0.199
			c0.053-0.066,0.108-0.132,0.16-0.199c0.029-0.028,0.057-0.056,0.083-0.087c0.011,0.042,0.023,0.085,0.035,0.127
			c-0.02-0.018-0.052-0.023-0.074,0c-0.1,0.106-0.195,0.215-0.287,0.329c-0.022,0.027-0.048,0.056-0.073,0.085
			C12.31,15.019,12.309,15.001,12.308,14.982z M12.369,15.434c0.037-0.044,0.069-0.095,0.103-0.14
			c0.011-0.014,0.021-0.028,0.031-0.042c0.023-0.01,0.046-0.019,0.069-0.029c-0.03,0.053-0.059,0.107-0.088,0.159
			c-0.027,0.048-0.059,0.098-0.088,0.149C12.387,15.499,12.377,15.467,12.369,15.434z M12.611,15.514
			c-0.042,0.091-0.105,0.188-0.118,0.289c-0.01-0.025-0.021-0.049-0.03-0.074c0.066-0.078,0.107-0.18,0.156-0.268
			c0.058-0.108,0.123-0.215,0.172-0.328c0.002-0.001,0.004-0.002,0.006-0.002C12.729,15.255,12.67,15.385,12.611,15.514z
			 M13.015,16.573c0.001-0.002,0.001-0.004,0.002-0.007c0.011-0.036,0.02-0.073,0.03-0.109c0.008,0,0.016-0.002,0.025-0.006l0,0
			c0.001,0.011,0.002,0.022,0.003,0.033c0.007,0.063,0.007,0.125,0.016,0.184C13.065,16.636,13.04,16.605,13.015,16.573z
			 M13.097,15.679c0.052-0.055,0.02-0.144,0.004-0.213c0.015,0.023,0.027,0.048,0.043,0.07c0.083,0.118,0.212,0.24,0.358,0.319
			c-0.134,0.018-0.268,0.041-0.395,0.059c-0.013-0.001-0.027,0.002-0.039,0.008c-0.09,0.024-0.1,0.155-0.025,0.178
			c0.001,0.021,0.003,0.042,0.004,0.063c-0.026-0.001-0.053,0.012-0.064,0.044c-0.026,0.076-0.052,0.153-0.077,0.23
			c-0.012-0.015-0.024-0.03-0.036-0.046c0.03-0.045,0.043-0.103,0.059-0.157c0.034-0.115,0.071-0.231,0.091-0.349
			c0.007-0.042-0.015-0.07-0.043-0.081c0.017-0.043,0.033-0.086,0.044-0.131c0.001-0.004,0-0.007,0.001-0.011
			c0.007,0.008,0.013,0.018,0.023,0.023C13.061,15.695,13.083,15.693,13.097,15.679z M13.068,15.412
			c-0.039-0.019-0.1,0.002-0.094,0.054c0.005,0.04,0.005,0.093,0.017,0.139c-0.026-0.014-0.063-0.01-0.085,0.02
			c-0.005,0.007-0.009,0.014-0.013,0.021c0.024-0.054,0.048-0.108,0.069-0.164c0.027-0.071-0.081-0.11-0.119-0.05
			c-0.045,0.072-0.086,0.146-0.125,0.222c0.008-0.021,0.017-0.042,0.026-0.062c0.063-0.144,0.129-0.287,0.182-0.434
			c0.002-0.005,0.002-0.01,0.002-0.014C12.97,15.236,13.017,15.325,13.068,15.412z"/>
	</g>
</g>
</svg>
