<?xml version="1.0" encoding="utf-8"?>
<!-- Generator: Adobe Illustrator 21.1.0, SVG Export Plug-In . SVG Version: 6.00 Build 0)  -->
<svg version="1.1" id="Layer_1" xmlns="http://www.w3.org/2000/svg" xmlns:xlink="http://www.w3.org/1999/xlink" x="0px" y="0px"
	 viewBox="0 0 350 130" style="enable-background:new 0 0 350 130;" xml:space="preserve">
<style type="text/css">
	.st0{fill:#FFFFFF;}
</style>
<g>
	<circle class="st0" cx="238.7" cy="100.9" r="2.3"/>
	<path class="st0" d="M68.8,61.5c0-6.6-2.8-13.2-6.2-18.7C57,33.6,45.5,26.7,34.6,26.7c-7.4,0-16.1,1.8-21.7,6.9
		c-2.7,2.4-5.2,5.8-6.3,9.3c-0.3,1-0.5,1.9-0.5,2.9c0,4.4,3,9,7.2,10.4c0.2,0.1,0.3,0.1,0.5,0.1c0.2,0,0.4-0.2,0.5-0.4
		c-1.5-2.1-3.4-3.4-3.4-6.3c0-7.8,8.7-14.3,15.8-15.8c3.1-0.7,6.4-1.2,9.6-1.2c1.6,0,3.3,0.3,4.8,0.5c6.5,0.9,14.1,5,17.6,10.7
		c2.6,4.2,3.6,8.9,3.6,13.7c0,3-0.6,6-1.5,8.8c-3.4,10.7-10.9,18.9-21.1,23.7c-3.1,1.5-6.8,2.5-10.3,2.5c-1.8,0-6.9-0.6-7.7-2.5
		c-0.2-0.5-0.3-1.3-0.3-1.8c0-1.7,0.3-3.7,1.4-5.1c2.3,3.3,2.6,4.1,6.6,5.2c0.1,0,0.3,0.1,0.3,0.1c0.4,0,0.9-0.4,0.9-0.8
		c0-0.7-1.5-2.2-1.8-2.9c-0.9-1.5-1-3.7-1-5.3v-1.3c0.1-0.1,0.3-0.3,0.5-0.3c3.1-2.1,10.3-3.6,14-3.6c1.5,0,2.8,0.1,4,1.1
		c1,0.9,2.5,2.7,4,2.5c0.2-0.4,0.4-0.8,0.4-1.2c0-0.9-2.2-3.8-2.9-4.5c-3.1-3.7-6.7-4.1-11.2-4.1c-2.1,0-4.3,0.4-6.4,0.8
		c1.4-5.3,3.4-10.3,3.4-15.9c0-4.4-2.6-11.4-6.5-13.8c-0.6-0.4-0.9-0.4-1.5-0.4c-0.3,0-0.7,0.4-0.7,0.7c0,2.3,2.6,3,2.6,6.5
		c0,2.4-1.6,7.4-2.5,10c-1.5,4.4-4.5,10.9-4.5,15.6v1.1c0,1-5.8,4.8-5.8,10.7c0,2.7,1.2,5.2,2.6,7.5c2.1,3.4,4.9,5.9,8.7,7.3
		c2.5,0.9,5.2,1.6,7.9,1.6c1.8,0,3.7-0.2,5.4-0.5c7.5-1.3,17.5-8.4,22.1-14.6c1.5-2.1,3.3-4.5,4.3-7.1
		C67.8,71.5,68.8,68.2,68.8,61.5z M11.1,37.7L11.1,37.7l0.2-0.1C11.2,37.6,11.2,37.7,11.1,37.7z M12.1,36.2c0.7-1.2,2.8-2.7,4.1-3.3
		L12,36.5C12.1,36.4,12,36.3,12.1,36.2z M16.3,34.8c-0.9,0.9-1.8,1.6-2.8,2.4c-0.1,0.2-0.3,0.2-0.5,0.3h-0.1
		C13.5,36.9,15.7,34.8,16.3,34.8z M16.9,36.3c-1.6,1.3-3.3,2.9-4.6,4.5L12,41c1.9-3.7,3.9-4.3,7-6.3C18.7,35.3,17.4,36,16.9,36.3z
		 M19.2,77.2L19.2,77.2l1.2-1.5c0.1,0,0.1,0,0.2,0.1L19.2,77.2z M20.6,78.6L20.6,78.6l0.1-0.5l0.3,0.1L20.6,78.6L20.6,78.6z
		 M20.8,81.7L20.8,81.7C20.8,81.6,20.8,81.6,20.8,81.7L20.8,81.7z M20.9,81.4c0.1-0.4,0.3-0.7,0.5-1.1h0.1
		C21.5,80.7,21.3,81.2,20.9,81.4z M56.4,82.6L56.4,82.6L56.4,83C56.4,82.9,56.4,82.7,56.4,82.6z M50.6,85.4c1.3-1.1,2.5-2.1,3.7-3.4
		c-2,3.1-5.3,5.5-8.5,7.4C47.2,87.8,49,86.7,50.6,85.4z M55.8,83.5c-2,2.7-3.9,4.3-6.6,6.2H49C51,87.9,53.6,84.7,55.8,83.5z
		 M48.5,89.9c0,0.1-0.1,0.3-0.3,0.3L48,90.1L48.5,89.9z M45.8,94.2c-0.1,0-0.2,0-0.3-0.1c0.2,0,0.4,0,0.6-0.1L45.8,94.2z M54.1,90.2
		c-0.4,0.4-0.7,0.7-1.2,0.9C53.4,90.7,53.7,90.5,54.1,90.2L54.1,90.2z M55,89.5l-0.4,0.2l0.5-0.5h0.1L55,89.5z M55.3,89.2l2.4-2.3
		C57.3,87.6,56.1,88.9,55.3,89.2z M47.1,93.4c0.1-0.2,0.2-0.4,0.4-0.5c3.6-2.5,7.2-5.2,10.1-8.6c0.5-0.6,2-2.7,2.7-2.9
		C57.2,86.6,52.5,90.8,47.1,93.4z"/>
	<path class="st0" d="M76.3,69.6c0.7-0.1,1.2,0.5,1.8,0.5c0.3,0,0.6-0.1,0.9-0.3c0-1.3-0.4-2.6-0.4-3.9c0-2.3,1.1-4.4,1.1-6.7
		c0-0.7-0.4-1.3-1-1.6l-0.5,0.1v-1l-1.2-0.2l0.2-0.7l-1-0.5c-0.2,0.2-0.4,0.4-0.7,0.5v-0.7l-0.5-0.1l-0.3-0.4c-1.8,0-2.9,5-2.9,6.5
		C71.9,63.9,74,68.3,76.3,69.6z"/>
	<path class="st0" d="M131.4,88.9l-0.8,0.8l0.3-0.9l-1.7-1.4c-0.5,0.2-1,0.4-1.4,0.7c-2.6,1.7-4.8,3.2-8.1,3.5
		c-0.1-0.4-0.2-0.7-0.2-1.1c0-7,1.4-15.4,7.4-19.8c0.7-0.5,1.4-0.6,2.1-0.6h0.7c-0.6,1.4-1,2.7-1,4.2c0,3.1,1.9,5.4,5,5.8
		c-0.2-1-0.7-1.8-0.7-2.8c0-1.6,0.8-3.1,0.8-4.7c0-0.7-0.2-1.3-0.5-1.8c-1.6-3.2-5-6.2-8.8-6.2c-5,0-8.9,6.2-10.9,12.1
		c-0.3,0.6-0.8,1.4-1.3,2.4c-0.9,1.7-2.1,3.5-3.4,5.4c-0.1-1.9-0.8-3.7-1.9-5.7c-1.2-1.9-3-3.7-5.4-5.5c-0.1-0.1-0.5-0.4-1-0.7
		c-0.6-0.4-0.9-0.6-1-0.7c-0.7-0.5-1.1-0.9-1.3-1.3c-0.1-0.4-0.1-0.7,0.2-1c0.3-0.2,0.7-0.4,1.3-0.4c0.6,0,1.2,0.1,2,0.3
		c0.3,0.1,0.7,0.3,1.2,0.5c0.4,0.2,0.8,0.5,1.2,0.9c0.3,0.3,0.6,0.7,0.7,1.1c0.1,0.4,0.1,0.9-0.1,1.4c0.3-0.2,0.5-0.6,0.5-1
		c0.1-0.4-0.1-0.8-0.3-1.1c0.6,0.6,0.8,1.2,0.6,1.7c-0.2,0.5-0.8,0.8-1.7,0.8c1,0.4,2,0.6,3,0.5c0.9-0.1,1.8-0.3,2.5-0.7
		c0.7-0.4,1.3-0.9,1.7-1.6c0.4-0.7,0.7-1.4,0.8-2.2c0.1,0.6,0.1,1.3,0,1.9c0.5-1.6,0.7-3,0.4-4.1c-0.3-1.1-0.8-2-1.6-2.7
		c-0.8-0.7-1.8-1.2-3.1-1.6c-1.2-0.3-2.6-0.6-4.1-0.7c-3-0.2-5.6,0-7.7,0.6c-2.1,0.6-3.6,1.5-4.6,2.7c-0.9,1.1-1.2,2.5-0.9,4
		c0.3,1.5,1.5,3.1,3.4,4.7c0.2,0.1,0.5,0.3,0.9,0.7c0.4,0.3,0.7,0.5,0.9,0.7c2,1.3,3.5,2.8,4.4,4.4c0.9,1.6,1.5,3.2,1.6,4.7
		c0.1,1.8-0.1,3.3-0.6,4.4c-0.5,1.1-1.2,2-2.1,2.6c-0.9,0.6-1.9,1-3,1c-1.1,0.1-2.1,0-3.1-0.4c-1-0.3-1.9-0.9-2.6-1.7
		c-0.8-0.8-1.3-1.7-1.6-2.7c-0.3-1.1-0.3-2.2,0-3.2c0.3-1,0.7-2,1.2-2.9c0.5-0.9,1.1-1.7,1.9-2.4c0.7-0.7,1.4-1.3,2-1.7
		c-0.3,0.1-0.6,0.1-0.8,0.2c-0.3,0.1-0.5,0.2-0.8,0.4c0.3-0.4,0.6-0.7,1-1c0.4-0.3,0.8-0.4,1.2-0.6c-0.2-0.2-0.5-0.3-0.9-0.3
		c-0.3,0-0.6,0.1-0.8,0.2c0.2-0.2,0.6-0.4,1-0.5c0.4-0.1,0.8,0,1,0.2c-0.2-0.5-0.7-1.1-1.4-1.9c-0.7-0.8-1.2-1.3-1.6-1.5
		c-0.3-0.2-0.7-0.2-1.1-0.2c-0.5,0-0.9,0.2-1.4,0.7c-0.3,0.3-0.6,0.6-0.9,0.9c0.1-0.2,0.3-0.5,0.3-0.7l-0.2-0.1
		c-0.1,0.4-0.2,0.7-0.4,1.1c-1.4,1.5-2.5,3.2-3.2,4.9c-0.1,0.2-0.2,0.5-0.2,0.7c-0.5,0.7-1,1.4-1.6,2c1.3-2.8,3.2-5.2,4.7-7.8
		l-0.7,0.8l0.5-0.9c-1.1,1-1.6,2.4-2.5,3.5c-1.5,2-3.3,4-4.7,6.1c-2.4,3.6-4.7,7.4-7.4,10.7c0-0.1-0.1-0.3-0.1-0.3
		c0-0.1,0.1-0.1,0.1-0.2l2.1-7.2c1.1-3.5,2.3-6.8,2.3-10.4c0-4.6-3.5-6.9-7.7-7.4c-0.3,0.1-0.9,0.3-0.9,0.7c0,0.5,0.3,1,0.3,1.5V72
		c-0.3,4-1.3,7.8-2.3,11.7c-1.4,4.9-2.6,10.4-2.6,15.7c0,2.9,2,4.4,4.8,4.4c0.8,0,1.4-0.1,1.9-0.7c2.2-2.4,5.3-6.7,7.3-9.5
		c1.5-2.2,2.9-4.6,4.4-7c0.4-0.6,0.8-1.3,1.2-2c0,0.5-0.1,1.1,0,1.6c0.1,2.1,0.7,4,1.7,5.7c1,1.7,2.5,3,4.4,3.9c2,0.9,4,1.3,6.1,1.4
		c2.1,0,4-0.3,5.5-0.9c1.6-0.5,3.3-1.6,4.9-3.2c1.7-1.6,3.2-3.4,4.6-5.3c0.6-0.9,1.2-1.7,1.7-2.6c0.6,5.1,4.3,10.1,9.8,10.1
		c2.6,0,7.9-2.6,9.4-4.8c0.3-0.4,0.4-0.9,0.7-1.3C131.9,89.3,131.6,89.2,131.4,88.9z M130.6,71.2v0.2h-0.1
		C130.5,71.3,130.5,71.3,130.6,71.2z M103.7,67.6c0.5,0.1,1,0.2,1.5,0.3c0.5,0.1,0.9,0.3,1.3,0.6c0.3,0.2,0.6,0.5,0.6,0.8
		c-0.1-0.2-0.5-0.5-1.1-0.9c-0.6-0.4-1.8-0.7-3.5-0.9C102.8,67.5,103.2,67.5,103.7,67.6z M106.5,69.8c-0.4-0.5-1-0.9-1.7-1.2
		c-0.8-0.3-1.4-0.5-1.9-0.7c1.1,0.1,2,0.4,2.7,0.7C106.3,69.1,106.6,69.5,106.5,69.8z M104.6,69.5c1.5,0.9,2.1,1.9,2,3
		c-0.2-0.9-0.6-1.7-1.3-2.2c-0.7-0.6-1.4-1-2.2-1.3c-0.8-0.3-1.6-0.5-2.4-0.6c-0.8-0.1-1.3-0.2-1.6-0.2
		C101.3,68.2,103.1,68.6,104.6,69.5z M73.4,81.9h0.2c-0.1,0.2-0.1,0.5-0.2,0.6V81.9z M68.6,99.8h-0.2c0.5-3.5,1.7-6.9,2.7-10.3
		c0.7-2.2,1-4.5,2.1-6.6C71.7,88.6,70.1,94.2,68.6,99.8z M75.8,93.8c0.2-0.4,0.4-0.9,0.9-1L75.8,93.8z M77,92.3v-0.2
		c0-0.6,0.4-0.8,0.9-0.9L77,92.3z M81,87.1l-0.4,0.3c0.4-0.6,0.9-1.2,1.2-1.8C81.6,86.2,81.3,86.6,81,87.1z M73.1,96
		c-0.2,0.3-0.7,0.6-1,0.9c0.9-1.7,2.2-3.2,3.3-4.8c1.6-2.7,3.5-5.3,5.1-8c1.1-1.8,2.7-3.5,4.3-5.1C80.8,84.6,77,90.3,73.1,96z
		 M83.8,82.6c-0.2,0.4-0.4,0.9-0.6,1.3c0.1,0.1,0.2,0.1,0.3,0.1l-0.3,0.3v-0.4l-0.5,0.2L83.8,82.6C83.8,82.6,83.8,82.6,83.8,82.6z
		 M102.4,79.9c0.3,0.4,0.5,1,0.7,1.6c0.2,0.6,0.4,1.2,0.5,1.9c0.1,0.7,0.1,1.3,0.1,1.9c0-0.5-0.1-1-0.2-1.7
		c-0.1-0.6-0.3-1.3-0.5-1.9c-0.2-0.6-0.4-1.2-0.7-1.7c-0.3-0.5-0.6-0.9-0.9-1.1C101.8,79.2,102.1,79.5,102.4,79.9z M102.1,83.2
		c-0.5-1.6-1.1-2.9-1.8-4c-0.8-1.1-1.5-1.9-2.3-2.5c-0.8-0.6-1.2-0.9-1.3-1c0.5,0.2,1.2,0.6,2,1.4c0.8,0.8,1.6,1.7,2.3,2.9
		c0.7,1.2,1.2,2.5,1.5,3.9c0.3,1.5,0.2,3-0.3,4.6C102.6,86.5,102.5,84.7,102.1,83.2z M104.3,88.3c-0.1,0.9-0.3,1.7-0.6,2.5
		c-0.3,0.8-0.8,1.3-1.4,1.5c0.5-0.3,0.9-0.9,1.2-1.5c0.3-0.7,0.5-1.4,0.6-2.2c0.1-0.8,0.2-1.6,0.1-2.3c0-0.8-0.1-1.4-0.1-2
		c0.1,0.3,0.1,0.8,0.2,1.6C104.4,86.6,104.4,87.4,104.3,88.3z M122.1,69.6c-0.5,0.6-1.1,1.1-1.6,1.6
		C120.5,70.7,121.6,69.6,122.1,69.6z M118.4,71c0.4-0.6,1.8-2.8,2.5-2.8C120.4,68.9,119.1,70.6,118.4,71z M123.7,70.1l0.9-0.3h0.1
		c-1.8,1.6-2.9,3.4-4.3,5.4c-0.4,0.6-0.7,0.8-0.9,1.5h-0.1C120,75,122,70.8,123.7,70.1z"/>
	<path class="st0" d="M131,88.6c0,0.1-0.1,0.1-0.1,0.2h0.1V88.6z"/>
	<path class="st0" d="M154.3,61.1c-4.3,0-7.9,5.6-10.3,8.6l-1.7-0.8c-4.6,0-8.7,10.7-8.7,14.7v1.2c0,6,4.4,11,10.5,11
		c0.7,0,1.4-0.1,2-0.2c2.3-0.4,3.9-1.6,5.5-3.2c5.5-5.1,11.7-14.2,11.7-22.1C163.4,66.2,158.5,61.1,154.3,61.1z M153.1,66.2
		L153.1,66.2L153.1,66.2c-2.1,2.3-3.9,4.8-5.8,7.4c0.5-2.5,3.6-5.8,5.6-7.3C153,66.3,153,66.2,153.1,66.2z M147.9,69.8
		c0-0.4,1.3-1.6,1.6-2C149,68.5,148.3,69,147.9,69.8z M150.8,64.3h0.2c-0.9,0.8-4.1,4-4.4,4.7l-0.3,0.2
		C147.6,67.4,149,65.7,150.8,64.3z M142.9,72.4l-0.1,0.2c-0.1,0.7-2,3.7-2.5,4.4C140.9,75.3,141.7,73.7,142.9,72.4z M141.6,71.9
		c-0.1,0.5-0.5,1.1-0.9,1.4L141.6,71.9z M140.6,71.2l-1.5,1.7C139.4,72.2,139.8,71.6,140.6,71.2z M139.7,78.5v-0.2h0.2
		C139.8,78.4,139.8,78.5,139.7,78.5z M140.6,91.3c-0.4-1.4-0.5-2.7-0.5-4.1c0-3.9,1.4-7.5,2.8-11.1c1.5,1.8,2.7,4,5.4,4
		c0.4,0,0.8-0.3,1-0.6c-0.8-0.6-1.4-1.4-1.4-2.3c0-3.1,6.7-11.1,9.9-11.1c0.2,0.4,0.3,0.9,0.3,1.3c0,0.7-0.2,1.3-0.3,1.9
		C156.3,77.8,149.4,88.9,140.6,91.3z M152,84.9c0-0.4,1.6-2.3,2.1-3C153.6,83.1,152.9,84.1,152,84.9z M152.5,86.6
		C152.4,86.6,152.4,86.6,152.5,86.6L152.5,86.6z M153.5,85.4l2.2-3c0-0.1,0-0.2,0.1-0.3l-0.1,0.3C155.1,83.5,154.3,84.4,153.5,85.4
		L153.5,85.4L153.5,85.4z M157.3,84.5L157.3,84.5L157.3,84.5L157.3,84.5z M151.8,89.7c0.1-0.4,0.4-0.7,0.6-1
		c2.4-3.1,4.7-6.2,6.6-9.7C159.1,82.1,153.8,87.5,151.8,89.7z"/>
	<path class="st0" d="M188,45.6l-0.9-0.8l-0.2,0.1c0,2.5,0.1,5,0.1,7.5c0,11.9-7.9,25.4-15.6,34.1c-0.2-0.5-0.2-0.9-0.2-1.4
		c0-4.1,0.5-8.2,0.5-12.3c0-1.9,0-4.9-0.9-6.7c-0.8-1.5-3.3-3.5-4.9-3.5c-0.3,0-0.6,0.1-0.9,0.3c0.5,1.5,0.7,3,0.7,4.6
		c0,6.6-1.1,13.2-1.1,19.7c0,1.5,0.1,2.6,1,3.9c1.4,1.9,4,3.6,6.4,3.6c1.8,0,3.4-0.4,4.7-1.7c7.6-7.7,16.8-25.1,16.8-36.1
		C193.6,53.7,192.2,46.4,188,45.6z M185.4,67.6L185.4,67.6L185.4,67.6L185.4,67.6L185.4,67.6z M185.8,71.6c-0.9,1.9-1.8,3.9-2.8,5.8
		c-0.3,0.7-0.8,1.2-1.2,1.7c-0.4,0.6-0.4,1.4-1.2,1.5C182.8,77.8,184.1,74.6,185.8,71.6z M185.3,68.2L185.3,68.2L185.3,68.2
		L185.3,68.2z M184.8,69.1c-1.6,4.4-3.9,8.9-7,12.6C179.8,79.2,183.4,72.2,184.8,69.1z M177.1,89.4l-0.3,0.2L177.1,89.4L177.1,89.4z
		 M183.9,81.5L183.9,81.5L183.9,81.5L183.9,81.5z M185.5,79L185.5,79C185.4,78.9,185.4,78.9,185.5,79L185.5,79z M185.7,78.6
		L185.7,78.6L185.7,78.6L185.7,78.6z M186.9,76.3C186.9,76.3,186.9,76.3,186.9,76.3L186.9,76.3L186.9,76.3z M189.3,68.3
		c-2.8,7.5-6.9,14.3-11.8,20.7c0.7-1.9,2.2-3.6,3.3-5.2c3.8-5.8,6.8-12,9.2-18.5C189.9,66.6,189.8,67,189.3,68.3z M190.2,64.3h0.2
		l-0.3,0.5C190.2,64.6,190.2,64.5,190.2,64.3z"/>
	<path class="st0" d="M231,72.2c0-2.1-0.8-3.8-2.3-5.2c-2.8-2.6-6.4-4.5-9.7-6.5c-0.1-2.1-0.4-4.3-0.6-6.4c-0.4-3.4-2.3-6.4-5.5-7.7
		c-0.8-0.4-1.5-0.6-2.4-0.6c-2.8,0-5.1,3.2-5.1,5.8c0,5.1,5.1,7.9,8.8,10.4c-1.6,9-4.8,17.2-9.7,25c-0.6,0.9-1.2,1.8-1.9,2.7
		c0-0.1,0-0.2,0-0.3c0-0.1-0.1-0.3-0.2-0.5c-0.6,0.9-0.8,1.8-1.8,2.3c0.3-0.8,1.1-1.5,1.1-2.3v-0.3l-0.1,0.1
		c-0.7,1.7-2.2,3.1-4.3,3.1c-1.4,0-1.6-3.7-1.6-4.6c0-0.8-0.1-2.4,0.3-3.2c6.4,0,14.7-5,14.7-12.1c0-4.3-2.6-7.4-6.5-8.7l-0.8,0.2
		l1.9,3.6c-0.9-0.2-1.7-0.4-2.6-0.4c-3.7,0-6.7,1.6-8.8,4.6c-2.7,3.8-4.6,8.4-4.6,13.1c0,5.7,3.5,9.8,9.4,9.8c1.1,0,2.2-0.3,3.1-0.9
		l1.7,0.6c1.7-1,3-2.5,4.2-4.1c5.5-7.6,9.9-16,11-25.4c1.7,0.8,4.4,1.7,4.4,4.1c0,1.5-1.1,4.5-1.6,6c-2.3,6.2-6.4,16.7-6.4,23.2
		c0,5.3,2.5,12.1,8.8,12.1c1.5,0,4.4-0.6,4.4-2.4c0-0.4-0.1-0.8-0.3-1.2h-0.8l-0.5,0.6l-0.1-0.1l0.1-0.8l-2.7-0.7
		c-0.5-1.2-0.7-2.5-0.7-3.8c0-5.3,3.1-13.3,4.8-18.5C229.1,80,231,75.1,231,72.2z M229,76.1L229,76.1L229,76.1L229,76.1z
		 M207.4,49.8l-0.2-0.2l0.6-0.9C207.6,49,207.5,49.4,207.4,49.8z M209.8,51.3c-0.1-0.2-0.1-0.3-0.1-0.5c0-0.5,0.3-0.9,0.6-1.2
		C210.1,50.3,210,50.9,209.8,51.3z M204.8,75.9L204.8,75.9l-0.3,0.2L204.8,75.9c0-0.1,0-0.3,0.1-0.4L204.8,75.9z M208.8,73.9
		c-0.4,1.3-1,2.5-1.9,3.5C206.9,76.8,208.4,74.6,208.8,73.9z M206.6,77.5c0.1-0.1,0.2-0.1,0.3-0.1C206.8,77.5,206.7,77.5,206.6,77.5
		z M206.7,75.2l-0.1,0.3h-0.1L206.7,75.2z M206.5,77.5c0,0.1-0.1,0.1-0.2,0.2L206.5,77.5z M205.9,73.7h0.2c0,0.1-0.1,0.2-0.2,0.2
		V73.7z M205.4,74.9L205.4,74.9l0.2-0.5C205.6,74.6,205.5,74.7,205.4,74.9z M205.5,70.2v0.4c0,3.5-5.1,9.2-8.6,9.6
		C197.7,75.9,201.2,71.2,205.5,70.2z M198.7,72.5L198.7,72.5L198.7,72.5l-0.3,0.2C198.5,72.6,198.5,72.5,198.7,72.5z M196.1,73.5
		c0,0.1-0.1,0.3-0.2,0.4h-0.1C195.9,73.9,196,73.6,196.1,73.5z M195.6,74.1c0,0.2,0,0.3-0.1,0.4C195.5,74.4,195.5,74.3,195.6,74.1z
		 M192.8,76.6L192.8,76.6C192.8,76.5,192.8,76.5,192.8,76.6L192.8,76.6z M193.2,75.6l-0.2-0.1l0.3-0.5L193.2,75.6z M193.4,74.9
		L193.4,74.9L193.4,74.9L193.4,74.9z M194.7,80L194.7,80c-0.1-0.2-0.1-0.4,0-0.5V80z M194.9,72.7l-0.4,0.3l-0.2,0.4
		c-0.1,0.4-0.2,0.8-0.7,1c0.2-0.4,0.5-0.7,0.7-1v-0.1l0.2-0.3l0.5-0.8c0.1-0.1,0.2-0.1,0.3-0.1l-0.3,0.1
		C195,72.4,194.9,72.5,194.9,72.7z M198.3,72.8c-0.9,2.1-2.5,4-3.2,6.1C195.1,76.9,196.9,74.2,198.3,72.8z M214.3,66.7l0.1,0.2
		l-0.1,0.1V66.7z M211.1,52.9c0-1.3,0.6-2.4,1.5-3.3c1.1,1.4,1.5,5.5,1.5,7.4c0,0.4-0.1,0.9-0.1,1.3
		C212.4,57.2,211.1,54.9,211.1,52.9z M214.1,67.7L214.1,67.7l-0.2,0.4L214.1,67.7z M213.6,69.2L213.6,69.2c0.1,0.1,0,0.3-0.1,0.4
		C213.6,69.5,213.6,69.3,213.6,69.2z M213.5,69.7c0,0.1,0,0.2-0.1,0.3L213.5,69.7z M213.3,70.5l-0.3,1.3
		C212.9,71.4,213,70.9,213.3,70.5z M212.8,72l0.2-0.1c-0.2,1-0.6,1.8-1.1,2.8L212.8,72z M207.7,87.4L207.7,87.4L207.7,87.4
		L207.7,87.4z M208.4,82.3l0.8-1.5C209.1,81.3,208.9,82,208.4,82.3z M211.3,81.5c2-4.5,3.7-9.1,5.1-13.8c0.1-0.2,0.1-0.4,0.3-0.5
		C216.4,70.3,213.4,79.3,211.3,81.5z M216.9,66.5L216.9,66.5l-0.1-0.4h0.1V66.5z M217.1,65.4L217.1,65.4l-0.1-0.3h0.1V65.4z
		 M225.7,74.6h0.2l-0.2,0.3V74.6z M224.1,73.1L224.1,73.1c0.1,0.1,0.1,0.3,0,0.4V73.1z M217,94.8l1.1-3.9l4.6-14.1
		c0.3-1,0.6-2.3,1.3-3.1c-1.5,5.2-3.3,10.3-4.9,15.4C218.5,91,217.9,93,217,94.8z M219.1,96.6c0-0.2,0-0.3,0.1-0.5
		c0,0.2,0.1,0.3,0.1,0.5H219.1z M219.3,95.8c0.5-2.1,0.8-4.4,1.5-6.6l4.7-13.9l0.3-0.3c-0.7,4.1-2.5,7.9-3.8,11.8
		c-1,2.9-1.6,5.9-2.5,8.8L219.3,95.8z M225.4,79L225.4,79L225.4,79L225.4,79z M224,83.2L224,83.2L224,83.2L224,83.2z M222.7,87
		L222.7,87L222.7,87L222.7,87z M222.5,87.6L222.5,87.6L222.5,87.6L222.5,87.6z M222.4,88.3L222.4,88.3L222.4,88.3L222.4,88.3z
		 M221.3,91.8L221.3,91.8L221.3,91.8L221.3,91.8z M222.5,97.1c-0.1-0.1-0.1-0.1-0.1-0.2h0.1V97.1z M222.7,96.1L222.7,96.1l-0.1-0.2
		h0.1V96.1z M221.5,96.4c-0.3,1.4-0.4,2.7-0.7,4.1c-0.1-0.6-0.1-1.2-0.1-1.7c0-2,0.4-4,1-5.9c2-6.6,4.2-13.3,6.5-19.7h0.2
		c-0.3,3.1-1.5,6.1-2.5,9C224.2,86.8,222.4,91.6,221.5,96.4z M223.4,93.8L223.4,93.8l-0.1-0.3h0.1V93.8z M223.6,92.9L223.6,92.9
		l-0.1-0.3h0.1V92.9z M224,91.6L224,91.6c-0.1-0.1-0.1-0.2,0-0.2V91.6z M224.2,90.8L224.2,90.8L224.2,90.8L224.2,90.8z M224.3,90
		l0.1-0.2c0.1,0.1,0.1,0.2,0.1,0.3L224.3,90z M224.7,89.4L224.7,89.4l-0.1-0.3h0.1V89.4z M225.3,87.4
		C225.2,87.4,225.2,87.4,225.3,87.4L225.3,87.4L225.3,87.4z M225.4,86.8C225.4,86.7,225.4,86.7,225.4,86.8L225.4,86.8z M225.8,85.6
		L225.8,85.6L225.8,85.6L225.8,85.6z M226,85v-0.2h0.1C226.1,84.9,226.1,85,226,85z M226.3,84.3L226.3,84.3l-0.1-0.2h0.1V84.3z
		 M227.4,81.4L227.4,81.4l-0.1-0.2h0.1V81.4z M227.6,80.7L227.6,80.7L227.6,80.7L227.6,80.7L227.6,80.7z M227.8,80.1L227.8,80.1
		L227.8,80.1L227.8,80.1z"/>
	<path class="st0" d="M94.1,78.1c0.1,0,0.2,0,0.2-0.1c0-0.1-0.1-0.2-0.2-0.2c-0.1,0-0.2,0-0.2,0.1C93.9,78,93.9,78.1,94.1,78.1z"/>
	<path class="st0" d="M94.1,77.5c0.1-0.1,0.1-0.1,0-0.1c-0.1,0-0.1,0-0.2,0c-0.1,0.1-0.1,0.1,0,0.1C93.9,77.6,94,77.6,94.1,77.5z"/>
	<path class="st0" d="M95.2,77.5c-0.1-0.3-0.2-0.4-0.5-0.3c-0.3,0.1-0.5,0.2-0.7,0.4c0.1,0.1,0.3,0.2,0.7,0.3
		C95.1,77.9,95.2,77.8,95.2,77.5z"/>
</g>
</svg>
