<?xml version="1.0" encoding="utf-8"?>
<!-- Generator: Adobe Illustrator 21.0.2, SVG Export Plug-In . SVG Version: 6.00 Build 0)  -->
<svg version="1.1" id="Layer_1" xmlns="http://www.w3.org/2000/svg" xmlns:xlink="http://www.w3.org/1999/xlink" x="0px" y="0px"
	 viewBox="0 0 350 130" style="enable-background:new 0 0 350 130;" xml:space="preserve">
<style type="text/css">
	.st0{fill:#3C4852;}
</style>
<g>
	<path class="st0" d="M42.757,66.922l0.66,0.109l-0.55,0.66c-1.32,1.32-4.29,1.76-6.05,1.98c-4.84,0.55-9.79,1.21-14.63,1.649
		c-1.1,4.511-2.2,9.021-2.97,13.53c-1.1,6.71-2.97,13.641-2.97,20.46c0,1.431,0,2.971,0.66,4.29c9.79,0,15.18-3.3,23.541-7.59
		c1.98-0.99,3.96-2.2,6.27-2.53l1.87,0.88l0.44,0.881h1.1l-0.88,1.76l1.65-1.21v1.21l0.88-1.21l0.22,0.22
		c-0.99,4.95-5.39,8.141-9.68,10.23c-1.87,0.88-3.85,1.979-5.83,2.75c-3.63,1.319-8.25,2.09-12.1,2.09c-6.49,0-11.88-0.33-16.39-5.5
		c-0.88-0.99-1.76-2.2-2.42-3.3c-0.77-1.431-0.66-5.94-0.66-7.7c0-1.54,0.11-3.08,0.33-4.62c2.2-15.07,6.16-29.92,11.11-44.331
		c1.32-3.96,2.97-7.7,4.73-11.44c0.77-1.65,1.76-3.19,2.42-4.73c0.55-1.21,0.55-2.53,0.55-3.85c1.1-0.33,2.09-0.55,3.08-1.21
		c0.44-0.33,0.77-0.55,1.32-0.66l0.77,0.99l5.61-0.22c4.29-0.11,8.58-0.66,12.87-0.66c2.53,0,7.04,0,9.13,1.54l-0.55,0.55l0.77,0.77
		l-0.55,1.1l0.88,0.22v0.22l-4.73,0.66h4.62l-0.22,0.33l0.55,0.22l-0.11,0.33c-1.21,0.88-2.53,1.1-3.96,1.1
		c-7.15,0.11-14.3,0.55-21.45,1.21c-2.64,8.25-5.61,16.39-7.81,24.75c3.96-0.33,7.81-0.99,11.77-0.99c2.09,0,4.18,0.22,6.27,0.66
		v0.33l-0.99,0.55l1.43,0.88l-0.99,0.66l0.55,0.22l-0.11,0.44l0.66-0.11l0.11,0.33l-7.04,1.54c2.31,0,4.62-0.439,6.93-0.989
		L42.757,66.922z M15.366,86.941v0.221c0-0.11,0-0.11,0.11-0.221H15.366z M15.807,83.861h0.11c0-0.109,0-0.33-0.11-0.439V83.861z
		 M16.026,82.651v0.11c0.11-0.11,0.11-0.22,0.11-0.33L16.026,82.651z M16.577,80.342l-0.11-0.11v0.55h0.11V80.342z M16.906,78.582
		h0.11v-0.221h-0.11V78.582z M17.236,77.481h-0.11v0.221L17.236,77.481z M17.347,76.712l0.11-0.11h-0.11V76.712z M18.117,73.412
		l-0.11,0.109c0,0.11,0,0.11,0.11,0.22V73.412z M18.227,72.752h0.11v-0.11L18.227,72.752z M22.957,69.122
		c2.42-0.44,4.73-0.771,7.15-1.101l-0.11-0.22c-2.42,0.22-4.84,0.439-7.15,0.99L22.957,69.122z M24.716,64.832v0.11h0.33v-0.11
		H24.716z M26.807,64.722v-0.22h-0.55l0.11,0.22H26.807z M28.787,64.282h-0.11v0.11h0.11V64.282z M30.876,67.691v0.221h1.54
		l-0.11-0.221H30.876z M45.066,35.021h-1.87c-3.41,0-6.93,0.44-10.34,0.66v0.22L45.066,35.021z M33.296,67.582v0.109h1.54v-0.109
		H33.296z M39.677,31.832c-0.11,0-0.11,0.11-0.22,0.11h0.22V31.832z M40.667,67.802v0.11c0.11,0,0.11,0,0.11-0.11H40.667z
		 M46.057,34.801v0.11h0.55v-0.11H46.057z M47.597,34.801h-0.11c0,0.11,0,0.11,0.11,0.11V34.801z M50.237,34.912v-0.11h-1.54v0.11
		H50.237z M51.557,34.912v-0.11h-0.33v0.11H51.557z"/>
	<path class="st0" d="M47.925,96.401c0-5.939,3.85-19.029,5.61-25.08c0.88-2.75,1.87-6.05,1.87-9.02c0-0.55-0.22-1.1-0.33-1.65
		c0.22-0.55,0.66-0.55,1.1-0.55c0.22,0,1.32,0.55,1.54,0.66c2.64,1.32,4.51,4.18,4.51,7.26c0,6.38-4.29,19.91-6.49,26.29l0.22,0.11
		c6.16-8.47,11.99-17.05,18.81-24.971c2.64-3.079,5.28-6.16,8.03-9.129c0.88-0.88,1.65-1.76,2.86-2.09
		c2.09,0.33,6.16,2.53,6.16,5.06c0,1.43-1.76,5.94-2.31,7.48c-2.97,7.7-10.89,30.03-10.89,37.4c0,1.1,0.33,2.09,1.32,2.64
		c0,0.66-0.44,1.101-1.1,1.101c-6.27,0-7.48-5.28-7.48-10.45c0-6.93,3.41-16.391,5.5-23.101c0.99-3.3,2.42-6.38,3.63-9.569
		c-0.33,0.22-0.66,0.33-0.99,0.659c-4.84,4.95-8.91,11.001-12.54,16.83c-2.31,3.74-7.92,13.2-10.78,15.73
		c-0.66,0.55-0.99,0.66-1.76,0.66C51.225,102.672,47.925,99.702,47.925,96.401z M58.045,97.172c-0.11,0.11-0.22,0.22-0.22,0.439
		L58.045,97.172z M59.805,90.901c0.66-0.77,1.1-1.54,1.65-2.31C60.795,89.252,60.245,90.132,59.805,90.901z M61.015,93.212
		c0.11-0.33,0.33-0.55,0.44-0.771c-0.33,0.33-0.77,0.88-0.88,1.32L61.015,93.212z M61.125,91.782c0.11,0,0.11,0,0.11-0.11
		L61.125,91.782z M62.445,87.271c0.22-0.66,0.66-0.88,1.1-1.43c0.88-0.99,1.43-2.2,2.2-3.3c4.95-7.37,11.33-13.641,16.94-20.57
		l0.33-0.44l-0.22-0.22c-5.61,5.94-11,12.101-15.73,18.811c-1.76,2.529-3.74,4.949-5.06,7.699L62.445,87.271z M62.225,90.352v-0.109
		l-0.11,0.109H62.225z M64.315,88.151c-0.77,0.88-1.43,1.761-1.87,2.75C63.105,90.021,63.765,89.142,64.315,88.151z M64.095,86.941
		h-0.33c0,0.11-0.11,0.33-0.22,0.44h0.55l0.11-0.33L64.095,86.941z M64.315,88.042c0.55-0.66,1.1-1.431,1.43-2.311
		C65.305,86.502,64.645,87.162,64.315,88.042z M64.535,85.952v0.329c0,0.11,0,0.221,0.11,0.33c0.11-0.109,0.11-0.33,0.11-0.439h0.44
		c-0.11-0.11-0.33-0.11-0.44-0.11L64.535,85.952z M64.535,88.812v0.22l0.11-0.109L64.535,88.812z M64.975,85.292v0.22
		c0,0,0.22,0.55,0.22,0.66v-0.66c0.11,0,0.22,0,0.33-0.11c-0.11,0-0.33-0.109-0.33-0.109L64.975,85.292L64.975,85.292z
		 M65.525,84.521v0.33c0,0.11,0,0.33,0.11,0.44c0-0.33,0.11-0.55,0.44-0.55c-0.11-0.11-0.22-0.11-0.33-0.11L65.525,84.521z
		 M65.965,83.861v0.221c0.11,0.22,0.11,0.439,0.11,0.66c0.11-0.221,0.11-0.44,0.11-0.66l0.22-0.11c-0.11,0-0.33-0.11-0.33-0.11
		L65.965,83.861L65.965,83.861z M66.515,84.852l0.11-0.439l-0.33,0.659L66.515,84.852z M71.685,77.922l0.44-0.66h0.22l0.55-0.55
		c0.11-0.33,1.1-1.65,1.43-1.87c0.22-0.66,2.86-3.851,3.52-4.18l-0.22-0.11v-0.44c-1.21,1.32-2.2,2.75-3.63,3.74
		c0.55-1.32,5.94-7.15,7.15-8.69c-5.5,5.5-10.34,11.55-14.74,17.93v0.33l0.11,0.439c0.99-1.54,1.76-2.529,2.97-3.96
		c-0.11,0.44-0.22,0.771-0.44,1.101l0.77-0.44h0.22c0.44-0.55,0.88-1.1,1.1-1.76l0.33-0.22c0.11-0.221,0.22-0.44,0.44-0.551
		L71.685,77.922z M67.395,83.422c0.22-0.22,0.44-0.33,0.66-0.44v-0.109c0.11-0.11,0.22-0.551,0.22-0.771L67.395,83.422z
		 M68.165,82.981v0.221c0.11-0.11,0.11-0.221,0.11-0.33L68.165,82.981z M76.965,101.021h0.11v-0.33h-0.11V101.021z M77.075,99.922
		l0.33,0.11c0.22-0.99,0.33-1.87,0.44-2.86L77.075,99.922z M89.395,63.401c-4.62,9.24-9.02,23.431-11.55,33.551
		c0.22-0.221,0.33-0.44,0.44-0.66c1.87-4.95,2.97-10.23,4.73-15.181c2.09-5.939,4.62-11.66,6.71-17.6L89.395,63.401z M80.045,68.132
		c0.22-0.55,0.88-0.771,0.88-1.431l1.21-1.649l-4.29,4.729c0.33-0.22,0.55-0.439,0.99-0.439
		C79.275,68.901,79.495,68.462,80.045,68.132z M80.595,74.401l0.11-0.109h-0.11V74.401z M81.365,72.312c0,0.11-0.11,0.11-0.11,0.22
		h0.11V72.312z M81.805,70.882l-0.33,0.77l0.33,0.11V70.882z M82.135,70.662c0.99-2.2,2.2-4.4,3.3-6.601v-0.55
		c-1.43,2.31-2.53,4.84-3.63,7.37L82.135,70.662z M85.105,69.122c0.55-1.21,1.21-2.421,1.65-3.63
		C85.985,66.592,85.545,67.802,85.105,69.122z M87.525,63.731l-0.11-0.11v0.44L87.525,63.731z"/>
	<path class="st0" d="M91.595,93.981c-1.32,1.761-2.75,3.521-4.73,4.62l-3.85-1.319l0.22-0.33c1.87-1.87,3.3-3.851,4.73-6.051
		c5.5-8.8,9.13-18.149,11-28.38c-4.18-2.86-10.01-6.05-10.01-11.88c0-2.97,2.64-6.6,5.83-6.6c0.99,0,1.87,0.22,2.75,0.66
		c3.63,1.54,5.83,4.95,6.27,8.8c0.22,2.42,0.55,4.84,0.66,7.26c3.74,2.2,7.81,4.4,11,7.37c1.76,1.649,2.64,3.52,2.64,5.939
		c0,3.301-2.09,8.801-3.19,12.101c-1.98,5.83-5.5,14.96-5.5,21.01c0,1.431,0.22,2.971,0.77,4.29l3.08,0.771l-0.11,0.88l0.11,0.109
		l0.55-0.659h0.88c0.22,0.439,0.33,0.88,0.33,1.319c0,2.09-3.3,2.75-4.95,2.75c-7.15,0-10.01-7.7-10.01-13.75
		c0-7.37,4.62-19.36,7.26-26.4c0.66-1.649,1.87-5.17,1.87-6.819c0-2.641-3.08-3.74-5.06-4.62
		C102.814,75.832,97.865,85.292,91.595,93.981z M91.044,48.332l0.22,0.22c0.11-0.44,0.22-0.88,0.44-1.21L91.044,48.332z
		 M91.705,91.231l-0.11,0.11h0.11V91.231z M92.475,85.512c0.55-0.33,0.77-1.1,0.88-1.76L92.475,85.512z M94.564,48.441
		c-0.33,0.33-0.66,0.77-0.66,1.32c0,0.22,0,0.33,0.11,0.55C94.234,49.762,94.345,49.102,94.564,48.441z M99.075,56.691
		c0-2.09-0.55-6.82-1.76-8.36c-1.1,0.99-1.76,2.31-1.76,3.74c0,2.31,1.43,4.95,3.41,6.05C98.964,57.682,99.075,57.131,99.075,56.691
		z M101.604,68.901c-1.65,5.391-3.52,10.561-5.83,15.73c2.31-2.53,5.72-12.76,6.16-16.28
		C101.714,68.462,101.714,68.682,101.604,68.901z M96.435,76.932c0.55-1.1,0.99-2.09,1.21-3.19l-0.22,0.11L96.435,76.932z
		 M97.975,72.092c-0.33,0.439-0.44,0.99-0.33,1.43L97.975,72.092z M98.194,71.542c0.11-0.11,0.11-0.221,0.11-0.33L98.194,71.542z
		 M98.415,70.662c0,0.109,0,0.329-0.11,0.439c0.11-0.11,0.22-0.33,0.22-0.439H98.415z M98.745,69.342l0.33-0.44h-0.11L98.745,69.342
		z M99.294,68.021l-0.11-0.22v0.33L99.294,68.021z M102.155,67.142h-0.11v0.44h0.11V67.142z M102.375,65.932h-0.11v0.33h0.11V65.932
		z M108.754,79.241l-5.28,16.061l-1.21,4.4c0.99-1.98,1.65-4.29,2.31-6.49c1.87-5.83,3.96-11.55,5.61-17.49
		C109.415,76.602,109.084,78.142,108.754,79.241z M104.794,101.792c0-0.22-0.11-0.33-0.11-0.55c-0.11,0.22-0.11,0.33-0.11,0.55
		H104.794z M111.834,77.592l-5.39,15.84c-0.77,2.42-1.1,5.061-1.65,7.48l0.22-0.221c0.99-3.3,1.76-6.71,2.86-10.01
		c1.43-4.4,3.52-8.8,4.29-13.42L111.834,77.592z M107.325,101.572c1.1-5.5,3.08-10.891,4.95-16.28c1.1-3.3,2.53-6.71,2.86-10.23
		h-0.22c-2.64,7.37-5.06,14.96-7.37,22.44c-0.66,2.2-1.1,4.399-1.1,6.71c0,0.66,0,1.32,0.11,1.979
		C106.885,104.651,106.995,103.111,107.325,101.572z M107.104,96.401v-0.109l-0.11,0.109H107.104z M108.205,92.441l0.11-0.109h-0.11
		V92.441z M108.425,91.562l0.11,0.11v-0.11H108.425z M108.535,102.122h-0.11c0,0.109,0,0.109,0.11,0.22V102.122z M108.645,90.901
		l0.11,0.11v-0.11H108.645z M108.754,101.021h-0.11v0.221h0.11V101.021z M109.415,98.602h0.11v-0.33h-0.11V98.602z M109.745,97.282
		h-0.11v0.329h0.11V97.282z M110.185,86.502l-0.11,0.109h0.11V86.502z M110.185,95.852c-0.11,0-0.11,0.11-0.11,0.221h0.11V95.852z
		 M110.294,75.062v0.44c0.11-0.11,0.11-0.33,0.11-0.44H110.294z M110.405,95.082l-0.11,0.109h0.11V95.082z M110.515,94.312
		l0.22,0.11c0-0.11,0-0.22-0.11-0.33L110.515,94.312z M110.955,93.321h-0.11v0.33h0.11V93.321z M111.615,91.231h-0.11
		c0,0.11,0,0.11,0.11,0.11V91.231z M111.834,81.771l-0.11,0.11h0.11V81.771z M111.834,90.571c-0.11,0-0.11,0-0.11,0.11
		L111.834,90.571z M112.385,76.712h-0.22v0.33L112.385,76.712z M112.274,89.252l0.11-0.11h-0.11V89.252z M112.495,88.592
		c0.11,0,0.11-0.11,0.11-0.22h-0.11V88.592z M112.715,87.821h0.11v-0.22h-0.11V87.821z M114.035,84.302h-0.11v0.22h0.11V84.302z
		 M114.145,83.752h0.11v-0.11h-0.11V83.752z M114.365,82.872l0.11,0.109v-0.109H114.365z M115.905,78.582v-0.11l-0.11,0.11H115.905z
		"/>
	<path class="st0" d="M143.843,76.821l0.88-0.88l-0.11,0.66l0.33-0.66h-0.22l0.22-0.33v0.33l0.22-0.439h0.11l0.44-0.771l0.22,0.11
		c-1.98,5.06-5.39,9.79-8.25,14.41c-1.65,2.64-3.19,5.39-4.95,7.92c-2.2,3.189-5.72,8.03-8.25,10.78c-0.66,0.66-1.32,0.77-2.2,0.77
		c-3.19,0-5.5-1.76-5.5-5.06c0-5.94,1.43-12.21,2.97-17.82c1.21-4.4,2.31-8.8,2.64-13.311v-0.439c0-0.55-0.33-1.101-0.33-1.65
		c0-0.439,0.66-0.66,0.99-0.77c4.84,0.66,8.8,3.189,8.8,8.47c0,4.18-1.43,7.92-2.64,11.88l-2.42,8.141c0,0.109-0.11,0.109-0.11,0.22
		c0,0,0.11,0.22,0.11,0.33c3.08-3.851,5.72-8.141,8.47-12.21c1.65-2.42,3.63-4.62,5.39-6.931c0.99-1.21,1.65-2.859,2.86-3.96
		l-0.55,0.99l0.77-0.88c-1.76,2.97-3.96,5.72-5.39,8.91c0.77-0.88,1.54-1.76,2.09-2.75c1.1-1.87,1.87-4.18,3.52-5.72L143.843,76.821
		z M122.283,104.102c1.65-6.38,3.52-12.76,5.28-19.14c-1.32,2.31-1.65,4.95-2.42,7.479c-1.1,3.851-2.53,7.7-3.08,11.66
		L122.283,104.102L122.283,104.102z M129.653,53.282l0.55,0.11v0.77c0.33-0.11,0.55-0.33,0.77-0.55l1.1,0.55l-0.22,0.77l1.32,0.22
		v1.1l0.55-0.11c0.66,0.44,1.1,1.1,1.1,1.87c0,2.64-1.21,4.95-1.21,7.59c0,1.43,0.44,2.97,0.44,4.4c-0.33,0.22-0.66,0.33-0.99,0.33
		c-0.77,0-1.32-0.66-2.09-0.551c-2.64-1.54-4.95-6.49-4.95-9.57c0-1.65,1.21-7.37,3.3-7.37L129.653,53.282z M127.343,99.812
		c4.4-6.49,8.8-12.979,13.31-19.47c-1.76,1.87-3.63,3.74-4.84,5.83c-1.87,3.08-3.96,6.05-5.83,9.13c-1.21,1.87-2.75,3.521-3.74,5.5
		C126.573,100.472,127.123,100.142,127.343,99.812z M127.673,83.752v0.66c0.11-0.11,0.11-0.44,0.22-0.66H127.673z M131.413,96.182
		c-0.55,0.11-0.77,0.66-0.99,1.101L131.413,96.182z M132.733,94.312c-0.55,0.11-0.99,0.33-0.99,0.99v0.22L132.733,94.312z
		 M136.363,89.691c0.33-0.55,0.66-1.1,0.88-1.76c-0.33,0.771-0.88,1.43-1.32,2.09L136.363,89.691z M138.783,86.502l0.33-0.33
		c-0.11,0-0.22,0-0.33-0.11c0.33-0.55,0.55-1.1,0.77-1.649l-1.32,1.869l0.55-0.22V86.502z M140.873,82.651l0.33-0.55v-0.439
		c-0.44,0.55-0.77,1.1-0.99,1.649l0.44-0.22L140.873,82.651c0.11,0.11,0.11,0.33,0.11,0.44c0.11-0.11,0.11-0.33,0.11-0.44H140.873z
		 M140.983,83.092h-0.22c-0.11,0.11-0.11,0.22-0.11,0.33L140.983,83.092z M141.203,82.212v0.22c0.11-0.11,0.11-0.11,0.11-0.22
		H141.203z M142.083,80.781c0-0.439,0.22-0.77,0.22-1.21l-0.99,1.87l0.44-0.22v0.33l0.22-0.33h-0.22L142.083,80.781z
		 M142.083,80.781v0.33l0.22-0.33c0-0.109,0-0.329,0.11-0.439h-0.11c0,0.11-0.11,0.33,0,0.439H142.083z M143.953,77.151l-0.11,0.44
		l-0.44,0.11c0.22-0.221,0.44-0.551,0.44-0.881L143.953,77.151z M144.173,77.481l-0.22,0.11l-0.11,0.33L144.173,77.481z
		 M144.503,74.622l0.22,0.109c-0.11,0.55-0.44,0.99-0.77,1.431C144.173,75.611,144.393,75.172,144.503,74.622z M144.943,75.611
		v-0.22h0.11v0.11L144.943,75.611z M145.163,75.062v0.33h-0.11L145.163,75.062z M145.163,75.502v-0.11h0.11L145.163,75.502z"/>
	<path class="st0" d="M155.062,93.872l0.88-0.88c0.22,0.329,0.55,0.439,0.88,0.55c-0.33,0.439-0.44,0.99-0.77,1.43
		c-1.65,2.53-7.7,5.5-10.67,5.5c-6.82,0-11.22-6.71-11.22-12.979c0-7.04,5.61-22.221,13.97-22.221c4.29,0,8.14,3.41,10.01,7.04
		c0.33,0.66,0.55,1.32,0.55,2.09c0,1.87-0.88,3.521-0.88,5.391c0,1.1,0.55,2.09,0.77,3.189c-3.52-0.439-5.72-3.08-5.72-6.6
		c0-1.65,0.44-3.19,1.1-4.73h-0.77c-0.88,0-1.65,0.11-2.42,0.66c-6.82,5.061-8.36,14.63-8.36,22.55c0,0.44,0.11,0.771,0.22,1.211
		c3.74-0.33,6.27-1.98,9.24-3.961c0.44-0.329,0.99-0.55,1.54-0.77l1.98,1.54L155.062,93.872z M143.952,69.451
		c-0.77,0-2.42,2.53-2.86,3.19C141.972,72.201,143.402,70.332,143.952,69.451z M148.132,71.321l-0.99,0.33
		c-1.87,0.771-4.18,5.61-4.84,7.48h0.11c0.22-0.771,0.55-0.99,0.99-1.65c1.54-2.31,2.75-4.29,4.84-6.16H148.132z M145.382,71.102
		c-0.66,0-1.87,1.21-1.87,1.87C144.172,72.312,144.832,71.762,145.382,71.102z M154.952,72.861c-0.11,0.11-0.11,0.11-0.11,0.221
		h0.11V72.861z M155.502,92.882h-0.11c0-0.11,0.11-0.11,0.11-0.22V92.882z"/>
	<path class="st0" d="M190.041,79.901c-1.649,9.021-4.069,18.261-4.069,27.5c0,1.431,0.109,2.86,0.55,4.29
		c0,0.11,0.109,0.221,0.109,0.33c0,0.221-0.109,0.44-0.109,0.66c-0.44,0.11-0.88,0.11-1.32,0.11c-3.08,0-6.16-2.53-6.49-5.61
		c-0.109-1.319-0.109-2.75-0.109-4.07c0-2.529,0-5.06,0.33-7.59c1.21-9.899,2.31-18.81,5.17-28.38l-0.221-0.22l-3.409,2.859
		c-1.98,1.761-4.29,5.061-5.61,7.37c-4.07,6.931-7.04,14.301-8.58,22.221c-0.11,0.66-0.22,1.21-0.44,1.87
		c-7.59-0.771-8.25-5.721-8.25-12.211c0-11.55,2.64-22.989,5.17-34.209c0.99-4.51,1.98-9.13,3.41-13.53
		c1.32-4.18,3.08-8.36,4.73-12.43c0.44-0.99,0.77-2.2,1.54-3.08c0.66,0.44,0.99,0.66,1.76,0.66c0.99,0,2.53,1.32,3.3,1.98
		c0.771,0.66,0.88,0.99,0.99,1.98v0.88c0,4.18-2.86,12.43-4.07,16.83c-1.54,5.94-3.08,11.77-4.51,17.71
		c-0.55,2.31-2.42,8.69-2.42,10.669c0,0.11,0.11,0.33,0.11,0.44c4.29-6.6,7.48-10.12,14.081-14.52c0.88-0.55,1.54-0.88,2.529-0.88
		c2.091,0,4.181,1.32,5.721,2.53s2.09,2.2,2.09,4.18C192.021,72.092,190.701,76.162,190.041,79.901z M162.761,65.052h-0.11v0.22
		h0.11V65.052z M163.091,63.512l-0.33,0.55l0.22,0.11C162.981,63.952,163.091,63.731,163.091,63.512z M163.201,62.852h-0.11v0.55
		C163.201,63.182,163.201,63.072,163.201,62.852z M163.311,61.862h0.22c-0.11-0.11-0.11-0.33-0.11-0.55
		C163.311,61.532,163.311,61.642,163.311,61.862z M163.531,85.842c0-0.22-0.11-0.33-0.11-0.55c-0.11,0.22-0.11,0.33-0.11,0.55
		H163.531z M163.751,82.872c-0.11,0.439-0.22,0.88-0.22,1.319h0.22V82.872z M163.751,82.762c1.1-3.41,1.76-9.021,2.53-12.76
		c2.42-11.44,5.72-22.771,8.69-34.101l-0.22,0.11c-1.54,4.95-3.19,9.79-4.51,14.74c-1.54,5.83-2.86,11.66-4.07,17.49
		C165.181,73.082,164.191,77.922,163.751,82.762z M164.081,58.671h0.11v-0.44C164.081,58.342,164.081,58.562,164.081,58.671z
		 M164.191,58.122c0.11-0.11,0.22-0.33,0.22-0.44l-0.22-0.11V58.122z M164.521,56.582l0.22,0.11c0-0.55,0.11-1.21,0.11-1.76
		l0.22-0.11c0.44-1.54,0.77-2.97,1.1-4.51c-0.66,1.43-0.99,3.08-1.32,4.62L164.521,56.582z M164.961,64.062v0.44h0.11v-0.44H164.961
		z M165.731,60.981c0,0.22-0.11,0.44-0.11,0.66l-0.22,0.77h0.22l0.33-1.32L165.731,60.981z M172.881,76.821
		c-2.53,2.53-6.38,12.21-7.15,15.841c-0.11,0.33,0,0.77-0.11,1.1c0.33-0.33,0.44-0.66,0.55-0.99c1.21-3.52,2.31-7.04,3.96-10.45
		l2.75-5.279L172.881,76.821L172.881,76.821z M165.951,60.102c0,0.11,0,0.11,0.11,0.22v-0.22H165.951z M165.951,87.821h0.11v-0.109
		L165.951,87.821z M166.171,59.222l0.22,0.11c-0.11-0.22-0.11-0.44-0.11-0.66C166.171,58.892,166.171,59.001,166.171,59.222z
		 M166.501,82.321h0.22l0.99-2.09L166.501,82.321z M167.051,55.812c0.55-0.66,2.42-8.8,2.64-10.23l0.22-0.66l0.11-0.44
		c-0.11,0.11-0.11,0.33-0.11,0.44c-0.11,0.22-0.22,0.44-0.22,0.66C168.701,48.992,167.711,52.401,167.051,55.812z M168.481,88.481
		l-0.11-0.109v0.109H168.481z M168.481,41.292c0.11,0,0.11,0,0.22-0.11v-0.11L168.481,41.292z M169.031,39.642h0.11v-0.11
		L169.031,39.642z M169.361,85.842h-0.11l0.11,0.11V85.842z M170.131,78.912c0-0.11,0-0.11,0.11-0.221h-0.11V78.912z
		 M170.241,43.821l0.11-0.33h-0.11V43.821z M170.351,57.901l-0.11,0.11h0.11V57.901z M170.461,42.832h0.11v-0.22h-0.11V42.832z
		 M170.681,41.841h0.11v-0.11L170.681,41.841z M171.561,53.392h-0.11v0.22C171.451,53.501,171.451,53.501,171.561,53.392z
		 M172.771,49.102h-0.11v0.11L172.771,49.102z M173.211,47.341h-0.11v0.11L173.211,47.341z M173.431,75.941
		c-0.11,0.221-0.33,0.44-0.33,0.66C173.211,76.382,173.431,76.162,173.431,75.941z M173.431,46.571c-0.11,0-0.11,0-0.11,0.11h0.11
		V46.571z M174.971,35.792c0.33-0.66,0.66-1.32,0.66-2.09l-0.22-0.11C175.191,34.361,175.081,35.021,174.971,35.792z
		 M175.741,32.821h0.11c0-0.11,0-0.33-0.11-0.44l0.33-0.44l-0.11-0.11c0,0.22-0.11,0.33-0.22,0.55V32.821z M184.871,93.981h-0.109
		v0.44l0.109-0.11V93.981z M185.312,90.682h-0.11c0,0.11,0.11,0.11,0.11,0.22V90.682z M185.861,87.162l-0.22,0.77h0.22V87.162z
		 M189.271,70.662c-1.43,4.949-2.311,9.899-3.19,14.96c0.771-1.761,0.99-4.07,1.431-5.83
		C188.171,76.712,188.831,73.741,189.271,70.662z M189.491,69.781h-0.22v0.551L189.491,69.781z"/>
</g>
<circle class="st0" cx="200.833" cy="99.333" r="2.667"/>
</svg>
