<?xml version="1.0" encoding="utf-8"?>
<!-- Generator: Adobe Illustrator 22.1.0, SVG Export Plug-In . SVG Version: 6.00 Build 0)  -->
<svg version="1.1" id="Layer_1" xmlns="http://www.w3.org/2000/svg" xmlns:xlink="http://www.w3.org/1999/xlink" x="0px" y="0px"
	 viewBox="0 0 375 130" style="enable-background:new 0 0 375 130;" xml:space="preserve">
<style type="text/css">
	.st0{fill:#FFFFFF;}
</style>
<path class="st0" d="M253.745,87.549c-1.43,0-2.589,1.158-2.589,2.588s1.158,2.588,2.589,2.588c1.429,0,2.589-1.158,2.589-2.588
	S255.174,87.549,253.745,87.549z"/>
<path class="st0" d="M238.723,51.564c-10.221,0-18.206,12.776-18.206,22.145c0,5.217,4.471,9.689,9.688,9.689
	c4.898,0,7.666-4.791,11.073-7.559c-0.213,3.195-0.853,8.624-2.556,11.286c-0.32-0.959-1.277-1.597-2.236-1.81l-0.426-0.852
	c-4.046,2.023-7.24,4.684-10.328,7.878c-6.069,6.175-16.504,22.039-16.504,30.769c0,3.939,4.684,6.495,8.199,6.495
	c4.578,0,9.264-3.62,12.244-6.708c7.666-7.985,11.818-17.887,15.012-28.321c2.449-7.985,3.194-16.504,3.194-24.913
	c0-1.065-0.532-2.023-1.49-2.556l-4.152-2.449c-1.81,1.491-2.981,4.152-4.259,6.069c-1.916,3.087-4.366,5.642-7.452,7.559
	c-0.745,0.425-1.384,0.852-2.236,0.852h-0.532c0-0.319-0.106-0.532-0.106-0.852c0.001-8.518,7.24-21.294,16.717-21.294
	c1.49,0,4.471,2.13,5.749,2.981c0.106-0.426,0.32-0.852,0.32-1.277c0-0.319-0.213-0.638-0.426-0.958
	C247.453,54.013,243.194,51.564,238.723,51.564z M237.019,78.394c-0.106,0.106-0.319,0.106-0.426,0.106v-0.106H237.019v-0.213
	c0-0.745,0.745-1.171,1.278-1.597L237.019,78.394z M239.788,75.945h-0.106l0.32-0.213L239.788,75.945z M239.468,75.199
	c0.319-0.532,0.745-1.065,1.171-1.491C240.426,74.241,240,74.88,239.468,75.199z M241.171,72.005l0.106-0.106h0.106
	C241.278,72.005,241.278,72.005,241.171,72.005z M239.574,92.127h0.106l-0.106,0.106V92.127z M227.65,97.346
	c0,0.106,0,0.106-0.106,0.106L227.65,97.346z M224.137,96.493c0,0.106,0,0.106-0.106,0.106L224.137,96.493z M212.638,115.871
	c0.32-1.065,3.727-8.199,4.259-8.624l-3.62,7.24C213.276,115.019,212.958,115.444,212.638,115.871z M216.576,111.825l-0.212,0.213
	C216.365,111.931,216.471,111.825,216.576,111.825z M214.129,122.258h-0.213l0.213-0.532V122.258z M216.258,115.444
	c1.916-3.939,4.259-7.771,6.387-11.605l0.64-0.532c-0.533,1.171-1.172,2.236-1.81,3.3c-1.809,3.088-3.62,6.175-5.003,9.476
	c-0.745,1.81-1.065,3.834-2.343,5.43C214.874,119.49,215.3,117.361,216.258,115.444z M216.897,123.855l-0.745,0.319h-0.32
	c0.106-9.049,15.545-29.492,22.891-34.602C234.996,101.284,228.075,117.68,216.897,123.855z M238.829,94.789l-0.106,0.106v-0.106
	H238.829z M238.298,96.387l-0.213,0.638C238.084,96.812,238.191,96.599,238.298,96.387z M235.209,103.52
	c-0.106,0.106-0.106,0.319-0.106,0.426l-0.319,0.426C234.889,104.052,234.996,103.732,235.209,103.52z M230.738,112.037
	c1.277-2.556,2.662-5.11,4.046-7.559C233.718,106.927,232.442,109.907,230.738,112.037z M232.866,112.569
	c-0.106,0.106-0.319,0.213-0.426,0.213L232.866,112.569z M231.27,114.487v0.212h-0.106
	C231.164,114.593,231.164,114.487,231.27,114.487z M239.041,106.714h-0.106l0.106-0.106V106.714z M243.301,90.85l0.213,0.106
	c-0.106,0.106-0.106,0.426-0.213,0.532V90.85z M243.301,91.595v0.532h-0.319L243.301,91.595z M242.662,92.98h0.32
	c-0.106,0.532-0.32,0.959-0.533,1.384L242.662,92.98z M242.342,94.684c-0.64,1.809-0.959,3.62-1.597,5.43
	c-2.13,6.28-5.643,13.414-10.008,18.419c0.745-1.704,1.916-3.301,2.874-4.898c3.407-5.749,6.175-11.818,8.305-18.1
	C242.023,95.216,242.13,94.896,242.342,94.684z M241.598,67.427l0.212,0.106c-0.106,0.426-1.065,1.491-1.49,2.13L241.598,67.427z
	 M240.107,73.39h0.106L240,73.603C240,73.496,240.107,73.496,240.107,73.39z M239.788,70.514c-1.065,1.491-2.235,2.875-3.3,4.259
	L239.788,70.514z M230.099,57.526h0.106l-0.319,0.319L230.099,57.526z M230.099,60.294l-0.106,0.213v-0.32L230.099,60.294z
	 M225.414,62.956c0.638-1.171,1.597-2.343,2.449-3.3C227.543,60.294,225.947,62.636,225.414,62.956z M226.798,70.303l-0.212-0.106
	l0.319-0.319C226.798,69.982,226.798,70.195,226.798,70.303z M228.821,65.83c-0.532,1.065-0.958,2.023-1.703,3.087
	c0.745-3.407,2.875-6.601,5.537-8.837c0.212-0.213,0.426-0.319,0.745-0.319C231.695,61.466,229.993,63.594,228.821,65.83z"/>
<path class="st0" d="M57.802,60.092c-0.487-1.583-5.114-3.409-6.697-3.409c-4.017,0-7.913,1.096-11.931,1.096
	c-0.853,0-1.705,0-2.557-0.122c-1.217-0.122-2.313-0.609-3.531-0.609c-0.609,0-1.339,0.122-1.339,0.853
	c0,0.244,0.122,0.609,0.244,0.853c3.044,4.992,10.105,5.235,15.341,5.114c0,0.122-0.122,0.609-0.122,0.73l-5.966,14.855
	c-0.609,1.583-7.792,5.602-9.497,6.575c-3.166,1.826-6.697,3.044-10.471,3.044c-7.304,0-9.862-8.036-9.862-14.124
	c0-5.358,1.583-10.958,3.653-15.828c5.966-13.88,18.263-26.055,34.213-26.055c1.461,0,3.044,0.122,4.505,0.487v0.365
	c0,2.678-1.095,5.357-1.095,8.036c0,4.505,1.461,8.644,6.087,10.227c0.365-0.609,0.487-1.217,0.487-1.826
	c0-1.34-0.244-2.557-0.244-3.896c0-2.435,0.487-6.94,1.339-9.131l1.096-0.366c0.122-0.244,0.244-0.486,0.244-0.73
	c0-0.365-0.122-0.609-0.365-0.973c-4.627-7.428-10.837-10.471-19.48-10.471c-20.942,0-36.283,20.576-39.814,39.448
	c-0.366,2.07-0.731,4.262-0.731,6.453c0,4.383,0.366,9.01,3.043,12.541c5.114,6.817,12.785,11.445,21.429,11.445
	c3.652,0,7.184-0.974,10.714-1.949c-1.584,6.697-4.019,12.906-4.019,19.847c0,3.896,1.583,8.279,5.722,9.496
	c0.853,0.243,1.827,0.243,2.679,0.365c0.122-5.478,0.244-10.47,2.07-15.706l4.383-12.785c1.097-3.288,2.556-6.453,4.018-9.619
	l5.966-13.515c0.73-1.583,2.922-6.087,2.922-7.67C60.237,61.675,58.655,60.944,57.802,60.092z M19.207,48.769h-0.122l0.122-0.122
	V48.769z M24.321,42.56v-0.122h0.122L24.321,42.56z M25.294,41.342c0.122,0,0.122,0,0.122,0.122L25.294,41.342z M22.494,37.811
	l0.122,0.122h-0.122l-0.244,0.122L22.494,37.811z M21.155,35.741c-3.288,3.531-6.818,7.184-9.375,11.323
	c-0.486,0.853-1.948,3.653-2.556,4.14C11.536,46.821,16.772,37.933,21.155,35.741z M12.876,50.473
	c-0.488,0.853-1.097,1.583-1.461,2.436l-0.243-0.122c2.069-3.532,6.453-11.445,9.862-13.393
	C18.111,43.047,15.311,46.455,12.876,50.473z M18.72,44.264l-0.122-0.122C18.72,44.142,18.72,44.142,18.72,44.264z M9.954,63.622
	c0,0.609-0.122,1.34-0.73,1.584c0.853-1.705,1.096-3.653,1.583-5.479c1.949-7.549,9.983-18.994,17.046-22.525
	c-9.741,9.01-12.906,13.88-17.776,26.176L9.954,63.622z M51.959,67.154h0.122l-0.244,0.487
	C51.837,67.519,51.837,67.276,51.959,67.154z M47.82,69.71l0.243,0.243l-0.609,0.73L47.82,69.71z M46.968,72.146
	c-0.122,1.339-0.609,2.556-1.461,3.652L46.968,72.146z M42.949,88.948l0.365,0.122c-0.242,0.244-0.365,0.488-0.486,0.731
	C42.827,89.556,42.949,89.192,42.949,88.948z M41.975,91.748c-0.243,0.731-0.243,1.461-0.365,2.07l-0.365-0.122L41.975,91.748z
	 M39.54,92.114l-0.365,0.609l-0.122-0.122L39.54,92.114z M39.906,98.688l-0.244,0.244L39.54,98.81L39.906,98.688z M39.175,100.515
	v0.366l-0.122-0.366H39.175z M37.958,96.497h-0.122c0-0.122,0-0.122,0.122-0.122V96.497z M38.079,96.009v-0.244l0.365,0.244H38.079z
	 M45.871,93.453v-0.122l0.122,0.122H45.871z M46.115,92.844v-0.122c0.122,0,0.122,0,0.122,0.122H46.115z M46.601,91.626v-0.244
	c0.122,0.122,0.122,0.122,0.122,0.244H46.601z M46.968,90.896h-0.122c0-0.122,0-0.122,0.122-0.122V90.896z M46.601,87.853
	c-2.921,7.548-5.844,15.219-7.548,23.255l-0.245,0.366c0-4.992,5.236-20.576,7.671-25.203l1.583-2.557h0.122
	C47.82,85.174,47.088,86.514,46.601,87.853z M47.454,77.746l1.826-4.139C48.915,75.067,48.55,76.529,47.454,77.746z M51.229,80.546
	h-0.122l0.122-0.366V80.546z M52.081,78.234v-0.122l0.122,0.122H52.081z M52.325,77.746v-0.122h0.122L52.325,77.746z M53.42,75.92
	l-0.122,0.122v-0.366h0.122V75.92z M55.246,71.172V71.05h0.122L55.246,71.172z M50.011,79.451l-0.609-0.487l6.94-15.341h0.609
	L50.011,79.451z"/>
<path class="st0" d="M108.948,64.825c0.778-0.111,1.335,0.556,2.113,0.556c0.333,0,0.668-0.111,1.001-0.333
	c0-1.446-0.445-3.003-0.445-4.449c0-2.669,1.224-5.005,1.224-7.674c0-0.778-0.445-1.445-1.112-1.89l-0.556,0.111v-1.112
	l-1.335-0.223l0.222-0.778l-1.112-0.556c-0.222,0.223-0.444,0.445-0.778,0.556v-0.778l-0.557-0.111l-0.333-0.445
	c-2.113,0-3.337,5.784-3.337,7.453C103.943,58.263,106.279,63.268,108.948,64.825z"/>
<path class="st0" d="M150.41,105.09c-2.003-4.338-2.003-16.239-2.003-21.245c0-3.003,0.111-6.117,0.111-9.12
	c0-0.778,0.111-1.445,0.667-2.002l4.784-5.228c5.116-5.673,11.901-17.241,11.901-25.026c0-4.003-2.892-8.898-7.341-8.898
	c-1.78,0-3.67,1.223-5.005,2.335c-9.12,7.674-11.234,21.578-13.014,32.701c-3.114-1.668-6.117-3.448-9.787-3.448
	c-4.094,0-7.248,2.494-9.401,5.873c-1.033,1.097-1.672,2.578-2.586,3.693c-1.78,2.336-3.782,4.561-5.451,7.007
	c-2.781,4.116-5.451,8.454-8.564,12.346c0-0.111-0.111-0.333-0.111-0.333c0-0.111,0.111-0.111,0.111-0.223l2.447-8.231
	c1.223-4.004,2.67-7.787,2.67-12.013c0-5.339-4.004-7.897-8.898-8.564c-0.333,0.111-1.001,0.333-1.001,0.778
	c0,0.556,0.334,1.112,0.334,1.668v0.445c-0.334,4.561-1.446,9.01-2.67,13.458c-0.617,2.247-1.212,4.6-1.71,6.994
	c-1.988,2.548-6.528,8.11-8.511,8.11c-0.667,0-0.667-0.667-0.667-1.112c0-0.111,0.333-1.112,0.333-1.224
	c1.891-7.006,3.226-14.348,5.673-21.244c0.667-1.78,2.113-4.449,2.113-6.229c0,0-0.111-0.223-0.111-0.333l-0.333,0.445
	c-0.223,0-0.445-0.111-0.556-0.334h-0.223l-0.778,0.778l0.333-1.223c-1-0.223-2.113-1.112-3.002-1.112
	c-0.668,0-2.003,0.89-2.447,1.445c-3.003,3.67-3.894,8.676-6.674,12.346c-4.003,5.339-7.897,10.678-12.791,15.349
	c0.668-5.673,1.558-11.457,3.337-16.907c0.556-1.557,3.559-9.787,3.559-10.566c0-0.223-0.111-0.556-0.223-0.778l-0.89-0.445
	l-1.001,0.445c0,0.444,0.111,0.89-0.111,1.335c-2.67,6.34-5.006,12.457-6.34,19.242c0,0.223-0.111,0.333-0.222,0.445
	c0.556-6.34,3.67-15.461,6.673-21.022l0.333-1.224c-0.333,0.111-1.112,0-1.335,0.445v-1.001c-0.89-0.111-2.002-0.667-2.225-0.667
	c-0.444,0-0.778,0.333-1.112,0.667c-5.338,5.562-8.787,20.688-8.787,28.03c0,2.892,0.223,5.451,2.781,7.229
	c1.445,1.001,3.114,1.558,4.894,1.558c1.335,0,2.225-0.333,3.114-1.224c3.226-3.003,5.895-6.673,8.454-10.344
	c0,2.335-0.223,4.783-0.223,7.119c0,3.893,2.336,6.34,6.229,6.34c4.094,0,7.333-4.313,9.727-8.131
	c-0.177,1.617-0.284,3.229-0.284,4.817c0,3.336,2.336,5.117,5.561,5.117c0.891,0,1.558-0.111,2.225-0.778
	c2.559-2.781,6.118-7.674,8.342-10.9c1.78-2.558,3.336-5.338,5.005-8.009c0.735-1.188,1.506-2.382,2.28-3.589
	c-0.052,0.58-0.082,1.149-0.082,1.698c0,6.34,2.225,13.792,9.788,13.792c6.34,0,9.454-6.896,12.568-11.567h0.222
	c0.778,5.895,1.78,16.907,5.451,21.578c1.335,1.668,3.226,2.558,5.339,2.558c0.667,0,2.892-0.111,2.892-1.223
	c0,0-0.111-0.223-0.111-0.333C152.523,107.203,151.077,106.535,150.41,105.09z M151.523,69.497v-0.223h0.111
	C151.523,69.386,151.523,69.386,151.523,69.497z M153.302,65.604c-0.111,0.444-1.557,1.891-2.002,2.335l1.445-2.225
	C152.968,65.714,153.08,65.714,153.302,65.604v-0.556l0.333-0.223l0.334,0.111c-0.111,0-0.111,0.111-0.223,0.111
	C153.525,65.159,153.414,65.381,153.302,65.604z M153.858,65.827l0.89-1.112c0,0.222-0.111,0.333,0,0.556L153.858,65.827z
	 M154.748,65.604v-0.333h0.111L154.748,65.604z M164.87,43.024c0.223,0.334,0.556,0.778,0.556,1.224c0,1.223-1.112,5.672-1.89,6.451
	l-0.334,1.112l-0.333,0.445c0,0.667-0.89,1.558-0.89,2.225l-0.556,0.668l-0.223,0.444c-0.223,0.556-0.556,1.001-0.556,1.558
	l-0.111-0.556l-0.778,1.223h0.223l-0.223,0.445l-0.223,0.556c-0.223,0.223-0.333,0.445-0.445,0.667l-0.222,0.445
	c-0.334,0.333-0.445,0.778-0.778,1.001l-0.111,0.444l-0.111-0.444c-1.224,0.778-1.558,2.447-2.67,3.225
	c1.558-2.447,3.671-4.893,4.671-7.563c-1.445,1.78-2.781,3.559-3.893,5.561l-0.333,0.223v0.666v0.001
	c-0.556,0-1.112,0.891-1.335,1.335v-0.556c0.333-0.333,0.444-0.667,0.667-1l0.223,0.111c0.111,0,0.333,0,0.445,0.111
	c-0.111-0.111-0.223-0.556-0.223-0.667v-0.223l0.333-0.223c0-0.333,1.112-1.668,1.335-2.225l0.556-0.667
	c1.224-1.558,3.226-5.673,4.116-7.564c1.224-2.67,1.891-5.561,2.781-8.342L164.87,43.024z M163.757,43.247v0.333
	c0,0.122-0.011,0.252-0.019,0.38l-0.203-0.713C163.535,43.247,163.757,43.247,163.757,43.247z M163.735,44.028
	c-0.458,6.216-10.089,19.463-14.215,24.023v-0.445c4.338-4.561,7.787-9.788,10.567-15.349c1.223-2.336,2.447-4.783,3.003-7.341
	C163.2,44.476,163.096,44.039,163.735,44.028z M151.633,40.244c0.556-1.001,1.335-1.891,2.113-2.67l0.667-0.778h0.223l-0.89,0.778
	C153.191,38.464,152.412,39.465,151.633,40.244L151.3,40.8C151.3,40.578,151.523,40.356,151.633,40.244z M151.633,47.029v-0.333
	c0.89-2.336,3.781-8.342,6.117-9.232c-2.558,2.67-4.003,5.673-5.672,8.787C151.967,46.473,151.745,46.695,151.633,47.029
	c-0.223,0.556-0.111,1.112-0.778,1.445C151.077,47.918,151.3,47.474,151.633,47.029z M149.855,51.811v0.223
	c-0.111,0-0.111,0-0.111-0.111L149.855,51.811z M158.196,39.243c1.001-1.334,2.002-2.335,3.67-2.558
	c1.224,1.445,1.224,3.226,1.224,5.005c0,6.229-6.452,15.684-10.232,20.578c-0.445,0.556-2.892,4.116-3.448,4.116
	C151.077,57.039,152.412,47.029,158.196,39.243z M148.742,44.805v0.223h-0.111C148.63,44.915,148.742,44.915,148.742,44.805z
	 M93.165,68.473h0.111l-0.111,0.111V68.473z M73.7,67.248l0.111,0.111H73.7V67.248z M72.588,70.141v0.111h-0.111L72.588,70.141z
	 M70.92,66.582h0.111c-0.111,0.223-0.334,0.445-0.556,0.667C70.475,66.915,70.475,66.582,70.92,66.582z M68.251,72.366H68.14
	c0-0.111,0-0.223,0.111-0.333V72.366z M68.807,66.471c0.111-0.223,0-0.668,0.333-0.668l0.223,0.111
	C69.14,66.025,69.029,66.248,68.807,66.471l-2.225,4.337C67.027,69.251,67.806,67.693,68.807,66.471z M65.136,75.146h-0.111v-0.111
	h0.111V75.146z M66.137,87.826c0.111-0.334,0.111-0.778,0.111-1.113c0.111,0.445,0.111,0.778,0.111,1.224L66.137,87.826z
	 M76.37,86.825l-0.111-0.111h0.111V86.825z M92.609,67.693c-0.444,1.223-0.333,0.89-1.334,1.558L92.609,67.693z M91.164,69.585
	v0.223h-0.111C91.052,69.696,91.164,69.696,91.164,69.585z M85.936,79.261c0.111,0,0.111,0,0.223,0.111l-0.223,0.333V79.261z
	 M85.49,80.93h0.111l-0.111,0.334V80.93z M84.267,85.267h0.111v0.223h-0.111V85.267z M80.375,80.93
	c0.223-0.667,0.444-1.445,1.335-1.557L80.375,80.93z M82.377,84.823L82.266,84.6c0.111-0.111,0.111-0.111,0.222-0.111L82.377,84.823
	z M84.156,95.166c0.444-4.449,3.893-19.799,6.34-22.912v-0.223h0.111c-0.111,0.111-0.111,0.111-0.111,0.223
	c-1.335,5.451-3.003,10.789-4.561,16.239C85.269,90.718,84.823,92.943,84.156,95.166z M95.225,91.719h-0.057l0.069-0.069
	C95.234,91.673,95.23,91.696,95.225,91.719z M105.611,78.952h0.223c-0.111,0.222-0.111,0.556-0.223,0.667V78.952z M100.162,99.529
	h-0.223c0.556-4.004,2.003-7.897,3.114-11.79c0.778-2.559,1.112-5.228,2.447-7.564C103.72,86.626,101.83,93.077,100.162,99.529z
	 M108.392,92.632c0.223-0.444,0.445-1,1.001-1.112L108.392,92.632z M109.727,90.852v-0.223c0-0.667,0.445-0.89,1.001-1.001
	L109.727,90.852z M114.398,84.957l-0.444,0.334c0.444-0.668,1-1.335,1.335-2.113C115.066,83.845,114.732,84.401,114.398,84.957z
	 M105.278,95.19c-0.223,0.333-0.778,0.667-1.112,1c1.001-2.002,2.558-3.67,3.781-5.561c1.891-3.114,4.003-6.117,5.895-9.232
	c1.224-2.113,3.114-4.003,4.894-5.895C114.175,82.065,109.727,88.628,105.278,95.19z M117.179,81.397l-0.333,0.334v-0.445
	l-0.556,0.223l1.335-1.891c-0.223,0.556-0.445,1.112-0.778,1.668C116.957,81.397,117.068,81.397,117.179,81.397z M118.379,78.463
	l-0.087,0.044c0.036-0.09,0.093-0.18,0.135-0.27C118.41,78.312,118.394,78.388,118.379,78.463z M118.927,76.314
	c-0.134,0.254-0.271,0.504-0.414,0.746c-0.556,1-1.335,1.891-2.113,2.781c0.89-1.986,2.075-3.803,3.27-5.607
	C119.39,74.918,119.141,75.613,118.927,76.314z M119.933,82.288c0-2.113,0.223-4.116,1.112-6.118
	C120.601,78.172,120.268,80.175,119.933,82.288z M126.941,73.056v0.223c-0.111-0.111-0.111-0.111-0.111-0.223H126.941z
	 M122.047,82.288c0-0.334-0.111-0.556-0.111-0.891c0-1.334,0.444-2.558,0.89-3.781l0.223-0.111L122.047,82.288z M123.049,77.394
	c0-0.111-0.111-0.333-0.111-0.333c0-0.223,0.223-0.334,0.334-0.334C123.271,76.949,123.159,77.171,123.049,77.394z M123.604,83.623
	c0-3.781,1.112-6.674,2.781-10.01l0.556-0.223c-2.447,4.227-2.558,8.898-3.003,13.57C123.716,85.847,123.604,84.736,123.604,83.623z
	 M125.829,80.063h-0.111v-0.223h0.111V80.063z M140.178,76.726L140.178,76.726c-0.001,1.112-8.454,13.014-9.788,14.682
	c-0.668,0.778-1.335,1.335-2.113,2.002c-1.558-1.668-1.78-6.117-1.78-8.342c0-5.784,2.003-12.346,6.562-16.128
	c0.445-0.333,0.668-0.445,1.224-0.445c2.447,0,3.893,2.67,5.672,4.004h0.223V76.726z M146.517,69.72h-0.111v-0.668h0.111V69.72z
	 M146.629,67.272v-0.111h0.111L146.629,67.272z M146.962,66.049h-0.111l0.111-0.111V66.049z"/>
<path class="st0" d="M170.408,66.537c0.724-0.096,1.242,0.484,1.966,0.484c0.311,0,0.621-0.096,0.931-0.29
	c0-1.257-0.415-2.61-0.415-3.868c0-2.32,1.139-4.35,1.139-6.671c0-0.676-0.415-1.257-1.035-1.643l-0.518,0.096v-0.967l-1.241-0.193
	l0.207-0.677l-1.035-0.484c-0.207,0.193-0.414,0.387-0.724,0.484v-0.677l-0.518-0.096l-0.311-0.387
	c-1.965,0-3.104,5.028-3.104,6.479C165.752,60.832,167.925,65.183,170.408,66.537z"/>
<path class="st0" d="M205.279,100.28c0-6.479,7.451-26.106,10.245-32.874c0.518-1.353,2.173-5.317,2.173-6.574
	c0-2.224-3.829-4.158-5.795-4.448c-1.138,0.29-1.862,1.064-2.69,1.837c-2.587,2.61-5.071,5.318-7.554,8.025
	c-6.415,6.962-11.901,14.503-17.695,21.948l-0.207-0.097c2.069-5.608,6.106-17.501,6.106-23.108c0-2.707-1.759-5.221-4.243-6.381
	c-0.207-0.097-1.242-0.581-1.449-0.581c-0.414,0-0.827,0-1.035,0.484c0.104,0.484,0.311,0.967,0.311,1.45
	c0,2.61-0.931,5.511-1.759,7.928c-0.577,1.855-1.395,4.469-2.214,7.301c-1.645,2.013-3.489,3.933-5.029,6.042
	c-2.587,3.577-5.071,7.348-7.968,10.732c0-0.097-0.103-0.29-0.103-0.29c0-0.097,0.103-0.097,0.103-0.193l2.277-7.155
	c1.138-3.481,2.484-6.768,2.484-10.443c0-4.641-3.726-6.865-8.279-7.445c-0.311,0.096-0.931,0.29-0.931,0.676
	c0,0.484,0.311,0.967,0.311,1.45v0.387c-0.311,3.965-1.346,7.832-2.484,11.699c-1.449,4.931-2.794,10.443-2.794,15.663
	c0,2.901,2.172,4.448,5.174,4.448c0.828,0,1.449-0.097,2.069-0.677c2.381-2.417,5.692-6.671,7.761-9.476
	c1.656-2.224,3.104-4.641,4.656-6.962c0.277-0.418,0.562-0.838,0.848-1.258c-0.683,2.941-1.16,5.655-1.16,7.543
	c0,2.901,3.104,5.511,6.106,5.511c0.724,0,1.035-0.096,1.656-0.58c2.691-2.224,7.968-10.539,10.141-13.826
	c3.415-5.125,7.244-10.443,11.797-14.793c0.311-0.29,0.621-0.387,0.931-0.581c-1.138,2.804-2.484,5.511-3.414,8.412
	c-1.966,5.897-5.174,14.212-5.174,20.304c0,4.545,1.138,9.185,7.036,9.185c0.621,0,1.035-0.387,1.035-0.968
	C205.59,102.116,205.279,101.247,205.279,100.28z M167.304,78.816h0.207c-0.103,0.192-0.103,0.484-0.207,0.58V78.816z
	 M162.233,96.704h-0.207c0.518-3.481,1.863-6.865,2.897-10.249c0.724-2.225,1.035-4.545,2.277-6.575
	C165.544,85.488,163.786,91.095,162.233,96.704z M169.89,90.709c0.207-0.387,0.415-0.87,0.931-0.967L169.89,90.709z M171.132,89.162
	v-0.193c0-0.58,0.415-0.773,0.931-0.87L171.132,89.162z M175.479,84.037l-0.414,0.29c0.414-0.581,0.931-1.16,1.242-1.837
	C176.1,83.07,175.789,83.554,175.479,84.037z M178.095,80.234c-0.102,0.204-0.208,0.409-0.339,0.613
	c0.055,0.051,0.11,0.073,0.165,0.085c-0.016,0.064-0.031,0.127-0.047,0.192l-0.117,0.11v-0.387l-0.518,0.193l0.985-1.304
	C178.18,79.902,178.136,80.069,178.095,80.234z M178.659,78.093c-0.406,0.514-0.859,1.007-1.317,1.497
	c0.495-1.032,1.088-2.01,1.723-2.966C178.927,77.111,178.792,77.601,178.659,78.093z M179.153,76.31
	c-4.116,5.541-8.139,11.082-12.159,16.623c-0.207,0.29-0.724,0.58-1.035,0.87c0.931-1.74,2.38-3.19,3.519-4.834
	c1.759-2.707,3.725-5.318,5.484-8.025c1.068-1.723,2.681-3.276,4.243-4.818C179.187,76.186,179.171,76.248,179.153,76.31z
	 M213.558,61.123l0.103,0.097l-0.103,0.29V61.123z M212.937,62.766c-0.414,1.064-1.035,2.128-1.552,3.19
	C211.799,64.797,212.213,63.733,212.937,62.766z M211.695,61.509c-1.035,1.933-2.173,3.868-3.105,5.801l-0.311,0.193v0.773
	l-0.311-0.096l0.311-0.677c1.035-2.224,2.069-4.448,3.415-6.478L211.695,61.509L211.695,61.509z M185.723,90.999
	c0-0.193,0.103-0.29,0.207-0.387L185.723,90.999z M188.722,87.131l-0.414,0.484c0.103-0.387,0.518-0.87,0.827-1.16
	C189.034,86.648,188.826,86.841,188.722,87.131z M188.826,85.874l0.103-0.096C188.93,85.874,188.93,85.874,188.826,85.874z
	 M187.585,85.101c0.415-0.677,0.931-1.45,1.552-2.03C188.619,83.747,188.206,84.424,187.585,85.101z M194.414,75.625
	c4.449-5.898,9.52-11.312,14.797-16.533l0.207,0.192l-0.311,0.387c-5.277,6.091-11.279,11.603-15.935,18.081
	c-0.724,0.967-1.242,2.03-2.069,2.901c-0.415,0.484-0.828,0.677-1.035,1.257l-0.415,0.484
	C190.896,79.976,192.759,77.849,194.414,75.625z M192.448,80.363V80.17h0.207c0,0,0.207,0.097,0.31,0.097
	c-0.103,0.096-0.207,0.096-0.31,0.096v0.58h-0.415c0,0.097,0,0.29-0.103,0.387c-0.104-0.096-0.104-0.193-0.104-0.29v-0.29
	l0.207,0.096c0.104,0,0.311,0,0.415,0.096C192.656,80.847,192.448,80.363,192.448,80.363z M191.724,81.716l-0.103,0.29h-0.518
	c0.103-0.097,0.207-0.29,0.207-0.387h0.311L191.724,81.716z M189.861,84.617h-0.104l0.104-0.097V84.617z M190.068,85.101
	c0.414-0.87,1.035-1.644,1.759-2.417C191.31,83.554,190.689,84.328,190.068,85.101z M192.034,83.457v-0.193l0.104,0.097
	L192.034,83.457z M191.828,82.587c0.311-0.773,0.931-1.353,1.345-2.03C192.863,81.33,192.345,82.007,191.828,82.587z
	 M193.483,79.686c-0.311,0-0.415,0.193-0.415,0.484c-0.103-0.096-0.103-0.29-0.103-0.387v-0.29l0.207,0.097
	C193.276,79.59,193.38,79.59,193.483,79.686c0-0.193,0-0.387-0.103-0.58v-0.193h0.103c0,0,0.207,0.096,0.311,0.096l-0.207,0.097
	C193.586,79.3,193.586,79.493,193.483,79.686z M193.897,79.783l-0.207,0.192l0.31-0.58L193.897,79.783z M195.449,78.333V78.14
	l0.103-0.097C195.552,78.139,195.552,78.236,195.449,78.333z M195.346,78.042v0.097c-0.207,0.096-0.414,0.192-0.621,0.387
	l0.827-1.16C195.552,77.559,195.449,77.946,195.346,78.042z M201.244,70.984c-0.311,0.192-1.242,1.353-1.346,1.644l-0.518,0.484
	h-0.207l-0.414,0.58l0.207,0.096c-0.207,0.097-0.311,0.29-0.415,0.484l-0.311,0.193c-0.207,0.581-0.621,1.064-1.035,1.548H197
	l-0.724,0.387c0.207-0.29,0.311-0.58,0.415-0.967c-1.139,1.257-1.863,2.128-2.794,3.481l-0.104-0.387v-0.29
	c4.139-5.608,8.692-10.926,13.867-15.76c-1.139,1.354-6.21,6.478-6.726,7.638c1.346-0.87,2.277-2.128,3.415-3.288v0.387l0.207,0.096
	C203.934,67.6,201.45,70.404,201.244,70.984z M206.625,65.086c-0.518,0.29-0.724,0.677-1.139,1.063
	c-0.414,0-0.621,0.193-0.931,0.387l4.036-4.158l-1.138,1.451C207.453,64.409,206.832,64.603,206.625,65.086z M207.867,68.761v0.193
	h-0.104C207.763,68.858,207.867,68.858,207.867,68.761z M207.246,70.501l-0.103,0.096v-0.096H207.246z M203.831,93.996h-0.104v-0.29
	h0.104V93.996z M204.142,93.126l-0.311-0.097l0.724-2.417C204.452,91.482,204.349,92.255,204.142,93.126z M204.555,90.418
	c2.381-8.895,6.519-21.368,10.866-29.49l0.311,0.097c-1.965,5.221-4.346,10.249-6.312,15.47c-1.656,4.351-2.691,8.992-4.45,13.343
	C204.866,90.032,204.762,90.225,204.555,90.418z"/>
</svg>
