<?xml version="1.0" encoding="utf-8"?>
<!-- Generator: Adobe Illustrator 22.1.0, SVG Export Plug-In . SVG Version: 6.00 Build 0)  -->
<svg version="1.1" id="Layer_1" xmlns="http://www.w3.org/2000/svg" xmlns:xlink="http://www.w3.org/1999/xlink" x="0px" y="0px"
	 viewBox="0 0 10 10" style="enable-background:new 0 0 10 10;" xml:space="preserve">
<style type="text/css">
	.st0{fill:#3D4953;}
</style>
<g>
	<path class="st0" d="M2.527,9.546c-0.804-0.73-1.461-1.661-1.972-2.794c-0.037-0.11-0.019-0.255,0.055-0.438
		c0.11-0.146,0.182-0.237,0.219-0.274c0.219-0.11,0.383-0.055,0.493,0.164C1.541,6.68,1.814,7.173,2.143,7.684
		c0.255,0.402,0.456,0.657,0.603,0.767C2.965,8.67,3.147,8.779,3.293,8.779c0.182,0,0.329-0.128,0.438-0.383
		c0.365-0.73,0.73-1.497,1.096-2.301C5.375,4.927,5.923,3.777,6.47,2.645c0.548-1.059,1.041-1.771,1.479-2.136
		c0.255-0.182,0.511-0.31,0.767-0.383c0.219,0,0.255,0.128,0.11,0.383C8.241,1.202,7.584,2.261,6.854,3.685
		c-0.986,2.081-1.79,3.834-2.41,5.258C4.151,9.565,3.804,9.875,3.403,9.875C3.074,9.875,2.782,9.765,2.527,9.546z"/>
</g>
</svg>
