<?xml version="1.0" encoding="utf-8"?>
<!-- Generator: Adobe Illustrator 21.1.0, SVG Export Plug-In . SVG Version: 6.00 Build 0)  -->
<svg version="1.1" id="Layer_1" xmlns="http://www.w3.org/2000/svg" xmlns:xlink="http://www.w3.org/1999/xlink" x="0px" y="0px"
	 viewBox="0 0 100 20" style="enable-background:new 0 0 100 20;" xml:space="preserve">
<style type="text/css">
	.st0{fill:#98A4AE;}
	.st1{font-family:'Roboto-Bold';}
	.st2{font-size:6px;}
</style>
<text transform="matrix(1 0 0 1 17.3225 13.5828)" class="st0 st1 st2">Instructional Support</text>
<g>
	<g>
		<path class="st0" d="M15.831,15.114c0-0.148,0-0.295-0.007-0.443c-0.004-0.089-0.134-0.089-0.138,0
			c-0.006,0.129-0.006,0.258-0.007,0.388c0,0.052-0.004,0.106-0.003,0.159c-0.441-0.055-0.903-0.024-1.345-0.025
			c-0.522-0.001-1.044-0.003-1.567-0.003c-1.092,0-2.184,0-3.275,0c-1.092,0-2.184,0-3.275,0c-0.522,0-1.044,0-1.567,0
			c-0.495,0-1.106-0.098-1.579,0.061c-0.007,0.002-0.011,0.007-0.016,0.012c0.025-0.188,0.015-0.392-0.016-0.576
			c0.004,0.015,0.013,0.029,0.031,0.032c0.236,0.049,0.482,0.032,0.722,0.033c0.242,0.001,0.483,0.005,0.723-0.023
			c0.173,0.001,0.347,0,0.52,0.001c-0.004,0.007-0.009,0.014-0.014,0.02c-0.026,0.041,0.035,0.089,0.067,0.052
			c0.02-0.023,0.04-0.048,0.061-0.072c1.544,0.003,3.088,0.001,4.632,0.001c0.948,0,1.897,0,2.845,0c0.991,0,1.999,0.05,2.987-0.021
			c0.068-0.005,0.094-0.064,0.081-0.112c0.05,0.002,0.1-0.05,0.066-0.103c-0.259-0.402-0.605-0.759-0.909-1.126
			c-0.228-0.275-0.444-0.646-0.802-0.759c-0.02-0.006-0.036-0.004-0.051,0.003c0.083-0.848,0.022-1.726,0.021-2.576
			c-0.001-0.922,0.083-1.892-0.033-2.807c-0.007-0.053-0.061-0.065-0.09-0.036c-1.404-0.108-2.828-0.05-4.237-0.049
			c-1.421,0.001-2.853-0.05-4.273,0.016c-0.03,0.001-0.049,0.018-0.059,0.038C5.3,7.169,5.241,7.179,5.24,7.229
			C5.214,8.085,5.217,8.941,5.214,9.797l-0.004,1.284c-0.001,0.25-0.02,0.511-0.011,0.767c-0.009,0.006-0.017,0.015-0.019,0.026
			c-0.047,0.275,0.035,0.598,0.073,0.878c-0.789,0.531-1.514,1.19-2.256,1.782c-0.02,0.016-0.028,0.034-0.03,0.053
			c-0.011,0.004-0.02,0.012-0.023,0.025c-0.051,0.246-0.066,0.547-0.004,0.791c0.005,0.02,0.021,0.029,0.039,0.031
			c-0.064,0.007-0.062,0.105,0.005,0.107c0.086,0.002,0.168,0.01,0.25-0.017c0.036-0.012,0.036-0.062,0-0.074
			c-0.079-0.026-0.158-0.02-0.24-0.017c0.015-0.003,0.029-0.012,0.034-0.03c0.007-0.027,0.01-0.057,0.015-0.085
			c0.005,0.009,0.013,0.017,0.025,0.021C3.502,15.485,4.051,15.4,4.505,15.4c0.522,0,1.044,0,1.567,0c1.092,0,2.184,0,3.275,0
			c1.092,0,2.184,0,3.275,0c0.522,0,1.044-0.001,1.567-0.003c0.497-0.001,1.018,0.038,1.512-0.029
			c0.005,0.015,0.009,0.03,0.017,0.044c0.016,0.029,0.06,0.029,0.076,0C15.846,15.32,15.832,15.219,15.831,15.114z M5.328,14.514
			c0.153-0.184,0.304-0.372,0.45-0.565c0.579,0.002,1.159-0.001,1.738-0.003c-0.109,0.185-0.219,0.371-0.303,0.568
			C6.585,14.514,5.957,14.514,5.328,14.514z M7.623,13.763c-0.568-0.002-1.136-0.004-1.704-0.003
			c0.092-0.125,0.184-0.25,0.272-0.377c0.549,0.006,1.099,0,1.649-0.008C7.766,13.504,7.695,13.635,7.623,13.763z M8.009,13.373
			c0.414-0.006,0.828-0.011,1.24-0.014c-0.046,0.105-0.091,0.209-0.137,0.314c-0.014,0.031-0.028,0.063-0.042,0.094
			c-0.428-0.001-0.856-0.002-1.285-0.004C7.86,13.634,7.935,13.504,8.009,13.373z M7.352,14.514c0.123-0.18,0.225-0.377,0.33-0.568
			c0.436-0.002,0.871-0.003,1.307-0.004c-0.087,0.187-0.173,0.376-0.227,0.572C8.292,14.514,7.822,14.514,7.352,14.514z
			 M10.81,14.514c-0.296,0-0.592,0-0.888,0c-0.344,0-0.689,0-1.033,0c0.104-0.18,0.186-0.377,0.265-0.572
			c0.161,0,0.321-0.001,0.482-0.001c0.423,0,0.845,0,1.268,0C10.862,14.13,10.822,14.322,10.81,14.514z M9.634,13.769
			c-0.137,0-0.273-0.001-0.41-0.001c0.003-0.008,0.006-0.016,0.01-0.024c0.056-0.129,0.112-0.257,0.167-0.386
			c0.094,0,0.188-0.002,0.281-0.002c0.444,0,0.888,0,1.332,0c-0.022,0.119-0.044,0.238-0.066,0.357
			c-0.003,0.018-0.007,0.037-0.011,0.055L9.634,13.769z M13.453,12.873c0.051,0.103,0.104,0.205,0.157,0.307
			c-0.327-0.002-0.655,0.007-0.981,0.013c-0.023-0.09-0.047-0.179-0.067-0.269c-0.015-0.065-0.125-0.052-0.117,0.016
			c0.009,0.084,0.021,0.17,0.033,0.256c-0.128,0.002-0.257,0.004-0.384,0.004c-0.301,0-0.601,0-0.902,0
			c0.022-0.133,0.041-0.266,0.054-0.4c0.183,0,0.365,0,0.548,0c0.549,0,1.118,0.033,1.673,0.009
			C13.45,12.823,13.44,12.846,13.453,12.873z M13.844,13.644c0.017,0.036,0.032,0.073,0.048,0.11
			c-0.369,0.001-0.739,0.009-1.106,0.013c-0.038-0.134-0.076-0.268-0.112-0.402c0.344,0.007,0.691,0.015,1.036,0.01
			C13.754,13.464,13.8,13.553,13.844,13.644z M12.095,13.356c0.136,0,0.273,0.002,0.41,0.005c0.023,0.135,0.052,0.271,0.085,0.407
			c-0.037,0-0.075,0.001-0.112,0.001c-0.463,0-0.925,0-1.388,0c0.001-0.005,0.002-0.01,0.003-0.015
			c0.024-0.132,0.05-0.264,0.073-0.397C11.476,13.356,11.785,13.356,12.095,13.356z M11.044,13.2c-0.454,0-0.908,0-1.362,0
			c-0.071,0-0.143-0.001-0.215-0.001c0.053-0.127,0.103-0.255,0.149-0.385c0.002-0.005,0.002-0.009,0.002-0.013
			c0.013,0,0.027,0,0.04,0c0.493,0,0.986,0,1.479,0C11.101,12.932,11.071,13.066,11.044,13.2z M12.766,14.513
			c-0.607,0-1.214,0-1.82,0c0.054-0.185,0.084-0.381,0.115-0.573c0.425,0,0.85,0,1.274,0c0.1,0,0.201,0.001,0.301,0.002
			c0.057,0.198,0.126,0.391,0.212,0.571C12.821,14.513,12.794,14.513,12.766,14.513z M12.834,13.945
			c0.38,0.005,0.761,0.013,1.142,0.012c0.073,0.185,0.146,0.37,0.241,0.542c-0.412,0.002-0.825,0.011-1.236,0.014
			C12.936,14.323,12.887,14.133,12.834,13.945z M15.605,14.534c-0.427-0.031-0.857-0.038-1.288-0.036
			c-0.031-0.177-0.089-0.361-0.162-0.545c0.307-0.004,0.613-0.013,0.917-0.039C15.241,14.129,15.414,14.344,15.605,14.534z
			 M13.931,12.774c0.023-0.003,0.038-0.013,0.049-0.026c0.007,0.006,0.015,0.011,0.025,0.014c0.344,0.114,0.595,0.573,0.814,0.838
			c0.05,0.061,0.1,0.124,0.15,0.187c-0.298-0.022-0.598-0.029-0.899-0.03c-0.06-0.131-0.126-0.26-0.195-0.386
			c0.212-0.006,0.423-0.017,0.632-0.04c0.067-0.007,0.067-0.096,0-0.104c-0.244-0.027-0.491-0.04-0.74-0.045
			c-0.076-0.127-0.152-0.249-0.227-0.36c-0.004-0.007-0.01-0.012-0.015-0.016C13.662,12.799,13.797,12.789,13.931,12.774z
			 M5.924,7.83c1.238,0.053,2.488,0.012,3.727,0.013c1.223,0.001,2.458,0.046,3.677-0.039c-0.09,0.69-0.025,1.418-0.025,2.112
			c-0.001,0.723-0.059,1.471,0.019,2.192c-0.592-0.058-1.213-0.016-1.807-0.016c-0.621,0-1.242,0-1.864,0
			c-1.229,0-2.491-0.073-3.712,0.044c-0.013-0.094-0.026-0.188-0.039-0.281c-0.005-0.033-0.008-0.066-0.012-0.098
			c0.008-0.043,0.016-0.085,0.021-0.129c0.006,0.002,0.012,0.004,0.018,0.006c0.019,0.007,0.032-0.022,0.014-0.031
			c-0.009-0.005-0.019-0.01-0.028-0.015c0.021-0.238-0.002-0.485-0.003-0.719L5.906,9.837C5.904,9.163,5.905,8.489,5.885,7.815
			C5.894,7.823,5.907,7.83,5.924,7.83z M5.329,12.871c0.047,0.01,0.098-0.014,0.091-0.074l-0.001-0.01
			c0.008-0.008,0.016-0.015,0.024-0.023c0.004-0.004,0.007-0.009,0.01-0.014c1.336,0.133,2.713,0.057,4.059,0.051
			c-0.068,0.13-0.131,0.263-0.191,0.396c-0.402-0.002-0.805-0.007-1.209-0.013c0.044-0.083,0.085-0.168,0.123-0.253
			c0.027-0.061-0.05-0.107-0.089-0.052c-0.069,0.098-0.132,0.2-0.194,0.304c-0.54-0.007-1.08-0.014-1.62-0.01
			c0.055-0.082,0.112-0.163,0.165-0.245c0.03-0.047-0.041-0.103-0.078-0.06c-0.086,0.1-0.17,0.203-0.254,0.306
			c-0.406,0.005-0.811,0.016-1.214,0.037C5.079,13.1,5.207,12.987,5.329,12.871z M4.818,13.325c0.01,0.009,0.022,0.015,0.039,0.016
			c0.379,0.022,0.759,0.033,1.14,0.039c-0.099,0.125-0.197,0.251-0.293,0.38c-0.481,0.002-0.963,0.006-1.444,0.015
			C4.449,13.627,4.636,13.478,4.818,13.325z M4.066,13.927c0.007,0.002,0.014,0.005,0.023,0.005c0.493,0.01,0.986,0.015,1.479,0.017
			c-0.135,0.187-0.266,0.375-0.392,0.566c-0.362,0.001-0.725,0-1.087,0.002c-0.054,0-0.086,0.033-0.097,0.073
			c-0.028,0-0.056,0-0.084,0c-0.234,0-0.477-0.014-0.711,0.015C3.481,14.377,3.774,14.153,4.066,13.927z"/>
		<path class="st0" d="M7.795,8.199C7.557,8.143,7.312,8.638,7.19,8.794C6.918,9.142,6.602,9.502,6.408,9.899
			c-0.02,0.04,0.03,0.083,0.064,0.049C6.703,9.717,6.883,9.43,7.081,9.171C7.2,9.014,7.32,8.859,7.441,8.703
			c0.048-0.061,0.317-0.314,0.291-0.411c0.013,0.046,0.09,0.052,0.099,0c0.001-0.008,0.003-0.015,0.004-0.023
			C7.84,8.239,7.827,8.207,7.795,8.199z"/>
		<path class="st0" d="M8.841,8.402C7.998,9.034,7.22,9.842,6.72,10.777c-0.018,0.034,0.028,0.059,0.051,0.03
			c0.645-0.854,1.313-1.631,2.144-2.31C8.966,8.453,8.896,8.362,8.841,8.402z"/>
		<path class="st0" d="M11.639,8.179c-0.8,0.462-1.533,1.093-2.25,1.673c-0.786,0.636-1.58,1.297-2.266,2.042
			c-0.037,0.04,0.018,0.093,0.059,0.059c0.75-0.622,1.46-1.29,2.213-1.909c0.75-0.617,1.569-1.156,2.307-1.784
			C11.746,8.221,11.688,8.151,11.639,8.179z"/>
		<path class="st0" d="M12.41,9.095c-0.455,0.306-0.883,0.646-1.294,1.009c-0.428,0.378-0.905,0.79-1.214,1.275
			c-0.028,0.044,0.032,0.082,0.068,0.052c0.412-0.346,0.76-0.774,1.157-1.14c0.425-0.391,0.88-0.749,1.342-1.095
			C12.529,9.152,12.475,9.051,12.41,9.095z"/>
		<path class="st0" d="M12.458,10.032c-0.432,0.351-0.923,0.77-1.203,1.259c-0.027,0.048,0.034,0.091,0.073,0.057
			c0.215-0.19,0.394-0.422,0.594-0.628c0.201-0.207,0.412-0.404,0.627-0.596C12.612,10.066,12.521,9.981,12.458,10.032z"/>
	</g>
</g>
</svg>
