<?xml version="1.0" encoding="utf-8"?>
<!-- Generator: Adobe Illustrator 21.1.0, SVG Export Plug-In . SVG Version: 6.00 Build 0)  -->
<svg version="1.1" id="Layer_1" xmlns="http://www.w3.org/2000/svg" xmlns:xlink="http://www.w3.org/1999/xlink" x="0px" y="0px"
	 viewBox="0 0 100 20" style="enable-background:new 0 0 100 20;" xml:space="preserve">
<style type="text/css">
	.st0{fill:#98A4AE;}
</style>
<g>
	<path class="st0" d="M18.418,8.5h-0.732V4.945h0.732V8.5z"/>
	<path class="st0" d="M21.577,5.539h-1.089V8.5h-0.732V5.539h-1.074V4.945h2.896L21.577,5.539L21.577,5.539z"/>
	<path class="st0" d="M22.843,8.5V4.945h1.094c0.312,0,0.592,0.07,0.839,0.211c0.246,0.141,0.439,0.341,0.577,0.601
		s0.208,0.555,0.208,0.886v0.163c0,0.33-0.068,0.624-0.204,0.882c-0.136,0.257-0.328,0.456-0.575,0.598S24.255,8.498,23.944,8.5
		H22.843z M23.576,5.539v2.373h0.354c0.287,0,0.505-0.094,0.657-0.281s0.229-0.455,0.232-0.803V6.639
		c0-0.361-0.075-0.635-0.225-0.821s-0.369-0.279-0.657-0.279H23.576z"/>
	<path class="st0" d="M25.917,5.174c0-0.105,0.036-0.192,0.106-0.261c0.071-0.068,0.167-0.104,0.29-0.104
		c0.121,0,0.216,0.035,0.288,0.104s0.107,0.155,0.107,0.261c0,0.107-0.036,0.195-0.109,0.264c-0.072,0.068-0.168,0.103-0.287,0.103
		s-0.214-0.034-0.287-0.103C25.953,5.37,25.917,5.282,25.917,5.174z M26.666,8.5h-0.708V5.858h0.708V8.5z"/>
	<path class="st0" d="M28.606,6.519C28.51,6.506,28.426,6.5,28.353,6.5c-0.267,0-0.442,0.091-0.525,0.271V8.5h-0.706V5.858h0.667
		l0.02,0.315c0.142-0.243,0.338-0.364,0.588-0.364c0.078,0,0.151,0.011,0.22,0.032L28.606,6.519z"/>
	<path class="st0" d="M29.99,8.548c-0.387,0-0.703-0.119-0.946-0.356c-0.244-0.237-0.365-0.554-0.365-0.95V7.173
		c0-0.265,0.051-0.502,0.154-0.711s0.248-0.37,0.436-0.483c0.188-0.113,0.402-0.17,0.643-0.17c0.361,0,0.646,0.114,0.853,0.342
		c0.208,0.228,0.312,0.551,0.312,0.97v0.287h-1.682c0.023,0.173,0.091,0.312,0.207,0.416c0.114,0.104,0.26,0.156,0.436,0.156
		c0.272,0,0.484-0.099,0.637-0.296l0.347,0.388c-0.106,0.15-0.249,0.267-0.43,0.351S30.21,8.548,29.99,8.548z M29.91,6.378
		c-0.14,0-0.253,0.047-0.341,0.142c-0.087,0.095-0.143,0.23-0.167,0.407h0.981V6.871c-0.003-0.156-0.045-0.278-0.127-0.364
		S30.06,6.378,29.91,6.378z"/>
	<path class="st0" d="M32.45,7.98c0.131,0,0.236-0.036,0.318-0.107c0.081-0.072,0.123-0.167,0.127-0.286h0.661
		c-0.002,0.179-0.051,0.343-0.146,0.492c-0.096,0.148-0.228,0.265-0.395,0.347s-0.351,0.123-0.553,0.123
		c-0.378,0-0.675-0.12-0.894-0.36s-0.327-0.571-0.327-0.995V7.147c0-0.407,0.108-0.731,0.325-0.974
		c0.216-0.243,0.514-0.364,0.891-0.364c0.33,0,0.596,0.094,0.795,0.282c0.199,0.188,0.301,0.438,0.304,0.75h-0.661
		c-0.004-0.137-0.046-0.249-0.127-0.335c-0.082-0.086-0.189-0.128-0.322-0.128c-0.165,0-0.289,0.06-0.373,0.18
		c-0.083,0.119-0.125,0.313-0.125,0.583v0.073c0,0.272,0.042,0.468,0.125,0.587S32.281,7.98,32.45,7.98z"/>
	<path class="st0" d="M34.679,5.208v0.649h0.452v0.518h-0.452v1.318c0,0.098,0.02,0.168,0.057,0.21s0.109,0.063,0.215,0.063
		c0.078,0,0.147-0.006,0.207-0.017v0.534c-0.138,0.042-0.28,0.063-0.427,0.063c-0.495,0-0.747-0.25-0.757-0.75V6.375h-0.386V5.858
		h0.386v-0.65H34.679z"/>
	<path class="st0" d="M35.216,7.154c0-0.262,0.051-0.495,0.151-0.7s0.246-0.364,0.436-0.476c0.189-0.113,0.41-0.169,0.66-0.169
		c0.357,0,0.647,0.109,0.873,0.327s0.352,0.515,0.377,0.889l0.006,0.181c0,0.405-0.113,0.73-0.34,0.976
		c-0.227,0.246-0.529,0.367-0.91,0.367s-0.686-0.122-0.912-0.366c-0.228-0.244-0.341-0.576-0.341-0.996
		C35.216,7.187,35.216,7.154,35.216,7.154z M35.922,7.205c0,0.251,0.047,0.442,0.141,0.575c0.095,0.133,0.23,0.2,0.406,0.2
		c0.17,0,0.304-0.066,0.4-0.197s0.144-0.341,0.144-0.63c0-0.246-0.048-0.437-0.144-0.572c-0.097-0.135-0.231-0.202-0.406-0.202
		c-0.172,0-0.306,0.066-0.4,0.201C35.969,6.714,35.922,6.922,35.922,7.205z"/>
	<path class="st0" d="M39.513,6.519c-0.097-0.013-0.182-0.02-0.254-0.02c-0.268,0-0.442,0.091-0.525,0.271V8.5h-0.705V5.858h0.666
		l0.02,0.315c0.142-0.243,0.338-0.364,0.588-0.364c0.078,0,0.152,0.011,0.221,0.032L39.513,6.519z"/>
	<path class="st0" d="M41.068,8.804h-0.524l1.309-3.859h0.524L41.068,8.804z"/>
</g>
<g>
	<path class="st0" d="M20.53,13.666h-0.732l-1.426-2.339v2.339H17.64v-3.555h0.732l1.428,2.344v-2.344h0.73
		C20.53,10.111,20.53,13.666,20.53,13.666z"/>
	<path class="st0" d="M22.214,13.715c-0.387,0-0.703-0.119-0.946-0.356c-0.244-0.237-0.365-0.554-0.365-0.95V12.34
		c0-0.265,0.051-0.502,0.154-0.711s0.248-0.37,0.436-0.483c0.188-0.113,0.402-0.17,0.643-0.17c0.361,0,0.646,0.114,0.853,0.342
		c0.208,0.228,0.312,0.551,0.312,0.97v0.287h-1.682c0.023,0.173,0.091,0.312,0.207,0.416c0.114,0.104,0.26,0.156,0.436,0.156
		c0.272,0,0.484-0.099,0.637-0.296l0.347,0.388c-0.106,0.15-0.249,0.267-0.43,0.351S22.434,13.715,22.214,13.715z M22.134,11.545
		c-0.14,0-0.253,0.047-0.341,0.142c-0.087,0.095-0.143,0.23-0.167,0.407h0.981v-0.057c-0.003-0.156-0.045-0.278-0.127-0.364
		S22.284,11.545,22.134,11.545z"/>
	<path class="st0" d="M24.421,10.375v0.649h0.452v0.518h-0.452v1.318c0,0.098,0.019,0.168,0.056,0.21s0.109,0.063,0.215,0.063
		c0.078,0,0.147-0.006,0.208-0.017v0.534c-0.138,0.042-0.281,0.063-0.427,0.063c-0.495,0-0.747-0.25-0.757-0.75V11.54H23.33v-0.518
		h0.386v-0.649h0.705V10.375z"/>
	<path class="st0" d="M27.438,12.707l0.347-1.683h0.681l-0.674,2.642h-0.591l-0.5-1.662l-0.5,1.662h-0.588l-0.674-2.642h0.681
		l0.344,1.68l0.483-1.68h0.51L27.438,12.707z"/>
	<path class="st0" d="M28.58,12.32c0-0.262,0.05-0.495,0.151-0.7s0.246-0.364,0.436-0.476c0.19-0.113,0.41-0.169,0.661-0.169
		c0.356,0,0.647,0.109,0.873,0.327c0.226,0.218,0.352,0.515,0.377,0.889l0.005,0.181c0,0.405-0.113,0.73-0.339,0.976
		s-0.53,0.367-0.911,0.367s-0.685-0.122-0.912-0.366c-0.228-0.244-0.341-0.576-0.341-0.996C28.58,12.353,28.58,12.32,28.58,12.32z
		 M29.286,12.371c0,0.251,0.047,0.442,0.142,0.575s0.229,0.2,0.405,0.2c0.171,0,0.304-0.066,0.4-0.197s0.144-0.341,0.144-0.63
		c0-0.246-0.048-0.437-0.144-0.572c-0.096-0.135-0.231-0.202-0.405-0.202c-0.172,0-0.306,0.066-0.4,0.201
		S29.286,12.089,29.286,12.371z"/>
	<path class="st0" d="M32.877,11.686c-0.097-0.013-0.182-0.02-0.254-0.02c-0.268,0-0.442,0.091-0.525,0.271v1.729h-0.706v-2.642
		h0.667l0.02,0.315c0.142-0.243,0.338-0.364,0.588-0.364c0.078,0,0.152,0.011,0.221,0.032L32.877,11.686z"/>
	<path class="st0" d="M34.05,12.606l-0.254,0.254v0.806h-0.705v-3.75h0.705v2.078l0.137-0.176l0.676-0.794h0.848l-0.955,1.101
		l1.038,1.541h-0.811L34.05,12.606z"/>
	<path class="st0" d="M38.81,12.934h-1.284l-0.244,0.732h-0.778l1.322-3.555h0.68l1.33,3.555h-0.779L38.81,12.934z M37.724,12.34
		h0.889l-0.447-1.33L37.724,12.34z"/>
	<path class="st0" d="M39.887,12.326c0-0.412,0.093-0.74,0.277-0.984s0.438-0.366,0.758-0.366c0.257,0,0.47,0.096,0.638,0.288V9.916
		h0.707v3.75H41.63l-0.034-0.281c-0.176,0.221-0.402,0.33-0.679,0.33c-0.311,0-0.561-0.122-0.748-0.367
		C39.98,13.103,39.887,12.762,39.887,12.326z M40.593,12.376c0,0.248,0.043,0.438,0.129,0.571s0.212,0.199,0.376,0.199
		c0.218,0,0.372-0.093,0.462-0.277v-1.048c-0.088-0.185-0.24-0.276-0.457-0.276C40.763,11.545,40.593,11.821,40.593,12.376z"/>
	<path class="st0" d="M43.35,11.024l0.022,0.296c0.187-0.23,0.439-0.345,0.759-0.345c0.34,0,0.573,0.134,0.7,0.403
		c0.186-0.27,0.45-0.403,0.794-0.403c0.286,0,0.5,0.083,0.64,0.25s0.21,0.418,0.21,0.753v1.688h-0.708v-1.688
		c0-0.15-0.029-0.26-0.088-0.329s-0.162-0.104-0.311-0.104c-0.211,0-0.357,0.101-0.439,0.303l0.003,1.818h-0.706V11.98
		c0-0.154-0.029-0.265-0.09-0.333s-0.163-0.103-0.308-0.103c-0.2,0-0.345,0.083-0.435,0.249v1.872h-0.705v-2.642h0.662V11.024z"/>
	<path class="st0" d="M46.887,10.341c0-0.105,0.036-0.192,0.106-0.261c0.071-0.068,0.167-0.104,0.29-0.104
		c0.12,0,0.216,0.035,0.287,0.104c0.072,0.068,0.107,0.155,0.107,0.261c0,0.107-0.036,0.195-0.108,0.264s-0.168,0.103-0.286,0.103
		c-0.119,0-0.215-0.034-0.287-0.103S46.887,10.448,46.887,10.341z M47.637,13.666h-0.708v-2.642h0.708V13.666z"/>
	<path class="st0" d="M48.741,11.024l0.022,0.306c0.188-0.236,0.442-0.354,0.759-0.354c0.28,0,0.488,0.082,0.625,0.247
		c0.137,0.164,0.207,0.41,0.211,0.736v1.707h-0.706v-1.693c0-0.15-0.032-0.259-0.098-0.327c-0.065-0.067-0.173-0.101-0.325-0.101
		c-0.198,0-0.347,0.084-0.446,0.254v1.867h-0.706v-2.642C48.077,11.024,48.741,11.024,48.741,11.024z"/>
	<path class="st0" d="M50.763,10.341c0-0.105,0.036-0.192,0.106-0.261c0.071-0.068,0.167-0.104,0.29-0.104
		c0.12,0,0.216,0.035,0.287,0.104c0.072,0.068,0.107,0.155,0.107,0.261c0,0.107-0.036,0.195-0.108,0.264s-0.168,0.103-0.286,0.103
		c-0.119,0-0.215-0.034-0.287-0.103S50.763,10.448,50.763,10.341z M51.513,13.666h-0.708v-2.642h0.708V13.666z"/>
	<path class="st0" d="M53.399,12.936c0-0.086-0.042-0.153-0.128-0.203c-0.085-0.05-0.223-0.094-0.411-0.133
		c-0.628-0.133-0.942-0.399-0.942-0.801c0-0.234,0.098-0.431,0.292-0.588s0.448-0.235,0.763-0.235c0.335,0,0.604,0.079,0.805,0.237
		c0.201,0.157,0.302,0.362,0.302,0.615h-0.706c0-0.102-0.032-0.185-0.098-0.251c-0.065-0.065-0.167-0.099-0.306-0.099
		c-0.118,0-0.21,0.027-0.275,0.08c-0.065,0.055-0.098,0.123-0.098,0.205c0,0.078,0.037,0.142,0.111,0.189s0.199,0.09,0.375,0.125
		s0.323,0.074,0.443,0.118c0.373,0.137,0.56,0.374,0.56,0.71c0,0.241-0.104,0.437-0.31,0.585c-0.207,0.149-0.475,0.224-0.801,0.224
		c-0.222,0-0.418-0.039-0.59-0.118s-0.307-0.188-0.404-0.325s-0.146-0.286-0.146-0.445h0.669c0.007,0.125,0.053,0.222,0.14,0.288
		c0.086,0.066,0.201,0.101,0.346,0.101c0.136,0,0.237-0.026,0.307-0.077C53.365,13.086,53.399,13.02,53.399,12.936z"/>
	<path class="st0" d="M55.259,10.375v0.649h0.452v0.518h-0.452v1.318c0,0.098,0.02,0.168,0.057,0.21s0.109,0.063,0.215,0.063
		c0.078,0,0.147-0.006,0.207-0.017v0.534c-0.138,0.042-0.28,0.063-0.427,0.063c-0.495,0-0.747-0.25-0.757-0.75V11.54h-0.386v-0.518
		h0.386v-0.649h0.705V10.375z"/>
	<path class="st0" d="M57.464,11.686c-0.097-0.013-0.182-0.02-0.254-0.02c-0.268,0-0.442,0.091-0.525,0.271v1.729H55.98v-2.642
		h0.666l0.02,0.315c0.142-0.243,0.338-0.364,0.588-0.364c0.078,0,0.152,0.011,0.221,0.032L57.464,11.686z"/>
	<path class="st0" d="M59.135,13.666c-0.032-0.063-0.056-0.143-0.071-0.236c-0.17,0.189-0.393,0.285-0.666,0.285
		c-0.259,0-0.474-0.075-0.644-0.225s-0.255-0.339-0.255-0.566c0-0.28,0.104-0.495,0.312-0.645c0.207-0.149,0.507-0.226,0.899-0.227
		h0.324V11.9c0-0.121-0.031-0.219-0.094-0.293c-0.062-0.072-0.161-0.109-0.297-0.109c-0.118,0-0.212,0.028-0.279,0.086
		c-0.067,0.057-0.102,0.135-0.102,0.234h-0.705c0-0.153,0.047-0.295,0.142-0.426c0.095-0.13,0.228-0.231,0.4-0.306
		s0.366-0.111,0.581-0.111c0.325,0,0.584,0.082,0.775,0.245c0.191,0.164,0.287,0.394,0.287,0.689v1.146
		c0.001,0.251,0.036,0.44,0.104,0.569v0.041L59.135,13.666L59.135,13.666z M58.552,13.176c0.104,0,0.199-0.023,0.287-0.07
		c0.088-0.046,0.153-0.108,0.195-0.187v-0.454H58.77c-0.353,0-0.541,0.122-0.563,0.366l-0.003,0.042c0,0.088,0.031,0.16,0.094,0.217
		C58.359,13.146,58.444,13.176,58.552,13.176z"/>
	<path class="st0" d="M61.005,10.375v0.649h0.452v0.518h-0.452v1.318c0,0.098,0.02,0.168,0.057,0.21s0.109,0.063,0.215,0.063
		c0.078,0,0.147-0.006,0.207-0.017v0.534c-0.138,0.042-0.28,0.063-0.427,0.063c-0.495,0-0.747-0.25-0.757-0.75V11.54h-0.386v-0.518
		H60.3v-0.649h0.705V10.375z"/>
	<path class="st0" d="M61.541,12.32c0-0.262,0.051-0.495,0.151-0.7s0.246-0.364,0.436-0.476c0.189-0.113,0.41-0.169,0.66-0.169
		c0.357,0,0.647,0.109,0.873,0.327s0.352,0.515,0.377,0.889l0.006,0.181c0,0.405-0.113,0.73-0.34,0.976s-0.529,0.367-0.91,0.367
		s-0.686-0.122-0.912-0.366c-0.228-0.244-0.341-0.576-0.341-0.996V12.32z M62.247,12.371c0,0.251,0.047,0.442,0.141,0.575
		c0.095,0.133,0.23,0.2,0.406,0.2c0.17,0,0.304-0.066,0.4-0.197s0.144-0.341,0.144-0.63c0-0.246-0.048-0.437-0.144-0.572
		c-0.097-0.135-0.231-0.202-0.406-0.202c-0.172,0-0.306,0.066-0.4,0.201C62.294,11.881,62.247,12.089,62.247,12.371z"/>
	<path class="st0" d="M65.839,11.686c-0.097-0.013-0.182-0.02-0.254-0.02c-0.268,0-0.442,0.091-0.525,0.271v1.729h-0.705v-2.642
		h0.666l0.02,0.315c0.142-0.243,0.338-0.364,0.588-0.364c0.078,0,0.152,0.011,0.221,0.032L65.839,11.686z"/>
</g>
</svg>
