<?xml version="1.0" encoding="utf-8"?>
<!-- Generator: Adobe Illustrator 21.0.2, SVG Export Plug-In . SVG Version: 6.00 Build 0)  -->
<svg version="1.1" id="Layer_1" xmlns="http://www.w3.org/2000/svg" xmlns:xlink="http://www.w3.org/1999/xlink" x="0px" y="0px"
	 viewBox="0 0 50 3.688" style="enable-background:new 0 0 50 3.688;" xml:space="preserve">
<style type="text/css">
	.st0{fill:#ECEEEE;}
</style>
<g>
	<g>
		<path class="st0" d="M19.778,3.318c-0.552,0-0.866-0.286-0.866-0.777V0.305h0.32v2.229c0,0.313,0.204,0.491,0.545,0.491h0.995
			v0.279L19.778,3.318L19.778,3.318z"/>
		<path class="st0" d="M22.416,2.35H21.83c-0.313,0-0.464,0.129-0.464,0.368s0.15,0.354,0.477,0.354
			c0.177,0,0.334-0.014,0.464-0.136c0.075-0.068,0.102-0.184,0.102-0.361L22.416,2.35L22.416,2.35z M22.416,3.318V3.121
			c-0.17,0.17-0.32,0.225-0.6,0.225c-0.286,0-0.457-0.055-0.586-0.191c-0.102-0.102-0.157-0.259-0.157-0.423
			c0-0.361,0.252-0.6,0.716-0.6h0.627V1.935c0-0.307-0.15-0.457-0.532-0.457c-0.266,0-0.402,0.061-0.525,0.239l-0.205-0.191
			c0.184-0.245,0.395-0.313,0.729-0.313c0.559,0,0.832,0.239,0.832,0.695v1.411H22.416L22.416,3.318z"/>
	</g>
	<path class="st0" d="M26.791,1.239h0.307v2.079h-0.307V1.239z M26.778,0.305h0.341v0.341h-0.341
		C26.778,0.646,26.778,0.305,26.778,0.305z"/>
	<g>
		<path class="st0" d="M28.386,3.332c-0.347,0-0.627-0.082-0.852-0.3l0.204-0.204c0.163,0.17,0.388,0.239,0.648,0.239
			c0.341,0,0.552-0.123,0.552-0.368c0-0.184-0.102-0.286-0.347-0.307L28.25,2.364c-0.402-0.034-0.62-0.218-0.62-0.559
			c0-0.382,0.32-0.607,0.763-0.607c0.293,0,0.559,0.075,0.75,0.225l-0.198,0.197c-0.15-0.116-0.341-0.163-0.552-0.163
			c-0.307,0-0.464,0.129-0.464,0.341c0,0.177,0.102,0.286,0.361,0.307l0.334,0.027c0.361,0.034,0.613,0.17,0.613,0.559
			C29.231,3.107,28.891,3.332,28.386,3.332"/>
		<path class="st0" d="M30.506,3.332c-0.525,0-0.92-0.354-0.92-1.063s0.395-1.063,0.92-1.063c0.286,0,0.47,0.075,0.682,0.307
			L30.983,1.71c-0.157-0.17-0.279-0.232-0.477-0.232c-0.204,0-0.375,0.082-0.484,0.239c-0.095,0.136-0.136,0.293-0.136,0.559
			c0,0.259,0.041,0.423,0.136,0.559c0.109,0.157,0.279,0.239,0.484,0.239c0.198,0,0.32-0.061,0.477-0.239l0.204,0.198
			C30.976,3.257,30.792,3.332,30.506,3.332"/>
		<path class="st0" d="M25.36,3.332c0.504-0.021,0.886-0.368,0.886-1.063V0.305h-0.307v1.172c-0.17-0.218-0.361-0.266-0.586-0.266
			c-0.198,0-0.368,0.061-0.484,0.157c0.068,0.068,0.163,0.17,0.218,0.225c0.075-0.068,0.184-0.109,0.334-0.109
			c0.45,0,0.518,0.388,0.518,0.797l0,0c0,0.259-0.041,0.423-0.136,0.559c-0.102,0.143-0.252,0.225-0.429,0.239l0,0
			c-0.409-0.021-0.477-0.402-0.477-0.791l0,0l0,0l0,0l0,0l0,0c0-0.327-0.041-0.675-0.252-0.886c-0.109-0.123-0.3-0.191-0.511-0.191
			c-0.225,0-0.416,0.048-0.586,0.266V0.305H23.24v1.97c0,0.709,0.395,1.063,0.92,1.063c0.198,0,0.341-0.034,0.484-0.129
			c-0.041-0.041-0.157-0.163-0.198-0.211c-0.082,0.048-0.17,0.068-0.279,0.068c-0.204,0-0.375-0.082-0.484-0.239
			c-0.095-0.136-0.136-0.293-0.136-0.559c0-0.402,0.075-0.797,0.525-0.797c0.45,0.007,0.518,0.402,0.518,0.797l0,0l0,0l0,0l0,0l0,0
			c0,0.327,0.041,0.675,0.252,0.879C24.958,3.264,25.142,3.332,25.36,3.332L25.36,3.332z"/>
	</g>
</g>
</svg>
