<?xml version="1.0" encoding="utf-8"?>
<!-- Generator: Adobe Illustrator 21.1.0, SVG Export Plug-In . SVG Version: 6.00 Build 0)  -->
<svg version="1.1" id="Layer_1" xmlns="http://www.w3.org/2000/svg" xmlns:xlink="http://www.w3.org/1999/xlink" x="0px" y="0px"
	 viewBox="0 0 395 130" style="enable-background:new 0 0 395 130;" xml:space="preserve">
<style type="text/css">
	.st0{fill:#FFFFFF;}
	.st1{fill:#4FC5DD;}
	.st2{fill:#FFFFFF;stroke:#00B4E1;stroke-miterlimit:10;}
	.st3{fill:none;}
	.st4{opacity:0.15;clip-path:url(#SVGID_2_);}
	.st5{fill:none;stroke:#00B4E1;stroke-width:0.25;stroke-miterlimit:10;}
	.st6{fill:#00B4E1;}
	.st7{opacity:0.48;fill:#4FC5DD;enable-background:new    ;}
</style>
<g>
	<path class="st0" d="M73.867,91.4c-0.4,0.9-0.3,2.8-0.3,3.6c0,1.1,0.3,5.3,1.9,5.3c2.3,0,4.1-1.5,4.8-3.5l0.1-0.1V97
		c0,1-0.9,1.8-1.2,2.6c1.2-0.6,1.4-1.7,2.1-2.6c0.1,0.2,0.2,0.4,0.2,0.6c0,0.8-0.7,1.2-0.8,1.9l0.8,0.1l-0.1,0.3l0.2,0.1v-0.1h0.3
		l-0.1-0.2h0.1l0.1-0.4h0.1l0.2-0.4v0.4c0.3-0.3,0.4-0.7,0.4-1.1l0.4-0.6c-0.2,3.2-3.2,5.3-6.3,5.3c-6.7,0-10.7-4.6-10.7-11.1
		c0-5.3,2.2-10.6,5.3-14.8c2.4-3.4,5.8-5.3,10-5.3c1,0,2,0.2,3,0.4l-2.2-4.1l0.9-0.2c4.4,1.4,7.4,5.1,7.4,9.9
		C90.567,85.7,81.167,91.4,73.867,91.4z M70.367,82.8C70.267,82.8,70.267,82.8,70.367,82.8L70.367,82.8L70.367,82.8z M70.967,81.2
		l-0.3,0.6l0.2,0.1L70.967,81.2z M71.067,80.9L71.067,80.9L71.067,80.9L71.067,80.9z M72.767,78l0.3-0.1
		C72.967,77.9,72.867,77.9,72.767,78l-0.5,0.9l-0.2,0.3v0.1c-0.2,0.3-0.5,0.7-0.8,1.1c0.5-0.2,0.7-0.7,0.8-1.1l0.2-0.4l0.4-0.3
		C72.667,78.3,72.767,78.2,72.767,78z M72.467,86.2c-0.1,0.1-0.1,0.3-0.1,0.6h0.1V86.2z M76.567,78.6c-1.5,1.5-3.6,4.6-3.6,6.9
		C73.667,83.1,75.567,81.1,76.567,78.6z M72.867,81.5L72.867,81.5L72.867,81.5L72.867,81.5z M73.367,80.5c0.1-0.1,0.1-0.2,0.1-0.4
		C73.367,80.3,73.367,80.4,73.367,80.5z M73.767,79.8L73.767,79.8c0.2-0.1,0.3-0.3,0.3-0.4C73.967,79.5,73.867,79.8,73.767,79.8z
		 M74.967,87c4-0.4,9.8-6.9,9.8-10.9v-0.4C79.867,76.8,75.867,82.2,74.967,87z M76.667,78.5l0.4-0.2v-0.1l-0.1,0.1
		C76.767,78.3,76.767,78.4,76.667,78.5z M84.167,81.7c-0.1,0.1-0.1,0.3-0.1,0.4l-0.3,0.2l0.3-0.1v-0.1L84.167,81.7z M84.867,80.5
		l-0.2,0.4V81C84.767,80.8,84.867,80.7,84.867,80.5z M85.267,79.8c0.1,0,0.2-0.1,0.2-0.2h-0.2V79.8z M85.667,84.2
		c0.1-0.1,0.2-0.1,0.2-0.2L85.667,84.2z M85.867,81.7L85.867,81.7l0.2-0.3L85.867,81.7z M86.367,83.9c-0.1,0-0.2,0-0.3,0.1
		C86.067,84,86.167,84,86.367,83.9z M86.367,83.8c1.1-1.1,1.8-2.5,2.2-4C88.067,80.6,86.367,83.1,86.367,83.8z"/>
	<path class="st0" d="M120.967,90.4c-2.4,5.7-7.8,15.5-12.7,19.4c-2.4-0.9-4.2-1.1-4.2-4.2c0-5.9,1.3-11.8,2.5-17.6l-3.7,3.8
		c-2.3,2.4-5.5,7-9.3,7c-2.8,0-6.8-2.5-6.8-5.6c0-6.5,6.9-18.3,12.2-22c2.2-1.5,4.9-3.1,7.7-3.1s5.1,1.5,7,3.4
		c0.2,0.2,0.4,0.6,0.4,0.9c0,0.2-0.1,0.4-0.2,0.7l-3.2-0.9c-7.8,2.8-11.8,11.7-15,18.9l0.2,0.2l1.8-1.3l10.6-9.5
		c2-1.8,2.3-4.1,4.8-5.1l0.1,1.1l-0.3,0.2c-0.2,0.4,0,0.3-0.4,0.8l0.3-0.1l0.1-0.6l0.3-0.2c0.1-0.2,0.3-0.4,0.7-0.4
		c0.2,0,0.4,0.2,0.6,0.3l-0.1,0.8l0.4-0.2v-0.2l0.6,0.2c-0.9,2.8-1.9,5.4-2.9,8l-0.1,0.1c0.1,0,0.1,0,0.1-0.1
		c0.1-0.1,0.3-0.2,0.3-0.4c1.1-2.4,2-4.9,3.2-7.3c0.6,0.1,1,0.4,1,1c0,0.8-0.3,1.5-0.6,2.2c-1.4,4-6.3,17.6-6.3,21.1
		c1.4-0.9,2.5-2.4,3.6-3.6h0.2c-1.4,2.1-3.4,3.8-4.4,6.2h-0.1v0.1c0.1,0,0.1,0,0.1-0.1c2-2,3.7-4.4,5.5-6.6c0.4-0.6,0.9-1.4,1.4-2
		l0.6-0.6c-2.3,4-5.9,7.6-7.9,11.7l3.5-4.1l-1,1.9l0.8-0.6l0.1,0.4c0.1-0.6,0.7-1.2,1-1.8h0.1v-0.1l-0.1,0.1h-0.2
		c0.3-0.9,0.4-1.4,1.2-2v0.4l0.2-0.4l0.3-0.2l0.2-0.4c0.2-0.9,1.1-1.5,1.4-2.4c0.2-0.6,0.7-1.1,1-1.7h-0.1l0.2-0.4h-0.1l0.7-1.2
		l0.1,0.4c0.1-0.6,0.4-1,0.7-1.4h-0.1l0.3-0.2c0.2-0.3,0.3-0.7,0.4-1v0.1C120.067,91.6,120.567,91.1,120.967,90.4z M90.367,86.9
		c0,0.1-0.1,0.2-0.1,0.3h0.1V86.9z M91.067,85.6c1.4-2.4,2.8-5.1,4.3-7.4c0.3-0.4,1.3-1.7,1.3-2.2l-0.2,0.4
		c-1.5,1.5-4.9,7.5-5.7,9.6c-0.1,0.1-0.2,0.3-0.2,0.6l0.2-0.6C90.867,85.9,91.067,85.8,91.067,85.6z M92.167,87.8l0.3-0.8
		C92.267,87.1,92.267,87.6,92.167,87.8L92.167,87.8z M92.367,92.9c-0.1,0.1-0.1,0.3-0.1,0.4h0.1V92.9z M101.467,76.2
		c-2.9,1.8-7,9.6-8.1,12.8c-0.4,1.2-0.7,2.5-1,3.7c0.2-0.2,0.3-0.4,0.4-0.8C94.867,86.4,97.767,80.7,101.467,76.2z M92.767,86
		c1.1-2.1,2.4-4,3.6-5.9v-0.2C94.967,81.8,93.767,83.7,92.767,86z M96.967,75.7l0.3-0.2h-0.1L96.967,75.7z M97.567,78.3h0.2v-0.1
		C97.667,78.3,97.667,78.3,97.567,78.3z M98.067,77.5L98.067,77.5L98.067,77.5C98.067,77.4,98.067,77.4,98.067,77.5z M109.067,97.1
		L109.067,97.1l0.1-0.2h-0.1V97.1z M109.567,107.5c-0.1,0-0.2,0.1-0.2,0.2L109.567,107.5z M109.567,94.9l0.1,0.2v-0.3L109.567,94.9z
		 M110.367,106.4l-0.8,1C109.967,107,110.367,106.9,110.367,106.4z M110.067,93L110.067,93l0.1-0.6
		C110.067,92.7,110.067,92.8,110.067,93z M110.167,92.1l0.2-0.4h-0.1L110.167,92.1z M110.367,91.5c0.6-0.7,0.7-1.4,0.8-2.2
		C110.867,90.1,110.667,90.7,110.367,91.5z M110.667,106.7c-0.1,0-0.1,0.1-0.2,0.1C110.567,106.8,110.667,106.8,110.667,106.7z
		 M111.067,105.9c0-0.2,0.1-0.4,0.1-0.7l-0.7,1L111.067,105.9z M111.067,79.7l0.9-1.7C111.667,78.4,111.167,79.2,111.067,79.7z
		 M111.267,105.7L111.267,105.7C111.267,105.8,111.267,105.8,111.267,105.7z M111.367,88.4c-0.1,0.1-0.1,0.2-0.1,0.3L111.367,88.4z
		 M111.767,105.6c-0.1,0-0.1,0.1-0.2,0.1L111.767,105.6L111.767,105.6z M111.767,87.3c-0.1,0.1-0.1,0.3-0.1,0.6l0.1-0.2V87.3z
		 M112.467,104.6L112.467,104.6l-0.4,0.2h0.1L112.467,104.6z M112.867,79.5c0,0,0.1,0.2,0.1,0.3l0.4-0.9
		C113.067,79.1,112.867,79.2,112.867,79.5z M113.367,78.9c0.1-0.2,0.1-0.3,0.1-0.6C113.367,78.5,113.367,78.6,113.367,78.9z
		 M114.467,101.3c-0.1,0.1-0.1,0.3-0.1,0.4C114.467,101.6,114.467,101.4,114.467,101.3z"/>
	<path class="st0" d="M115.767,97.9c-1.3,1.8-2.8,3.5-4.7,4.6l-3.8-1.3l0.2-0.3c1.9-1.9,3.3-3.9,4.7-6.1c5.5-8.8,9.1-18.1,11-28.4
		c-4.2-2.9-10-6-10-11.9c0-3,2.6-6.6,5.8-6.6c1,0,1.9,0.2,2.8,0.7c3.6,1.5,5.8,5,6.3,8.8c0.2,2.4,0.6,4.8,0.7,7.3
		c3.7,2.2,7.8,4.4,11,7.4c1.8,1.6,2.6,3.5,2.6,5.9c0,3.3-2.1,8.8-3.2,12.1c-2,5.8-5.5,15-5.5,21c0,1.4,0.2,3,0.8,4.3l3.1,0.8
		l-0.1,0.9l0.1,0.1l0.6-0.7h0.9c0.2,0.4,0.3,0.9,0.3,1.3c0,2.1-3.3,2.8-4.9,2.8c-7.2,0-10-7.7-10-13.8c0-7.4,4.6-19.4,7.3-26.4
		c0.7-1.6,1.9-5.2,1.9-6.8c0-2.6-3.1-3.7-5.1-4.6C127.067,79.7,122.067,89.2,115.767,97.9z M115.267,52.2l0.2,0.2
		c0.1-0.4,0.2-0.9,0.4-1.2L115.267,52.2z M115.867,95.1L115.867,95.1L115.867,95.1L115.867,95.1z M116.667,89.4
		c0.6-0.3,0.8-1.1,0.9-1.8L116.667,89.4z M118.767,52.3c-0.3,0.3-0.7,0.8-0.7,1.3c0,0.2,0,0.3,0.1,0.5
		C118.467,53.7,118.567,53,118.767,52.3z M123.267,60.6c0-2.1-0.6-6.8-1.8-8.4c-1.1,1-1.8,2.3-1.8,3.7c0,2.3,1.4,5,3.4,6
		C123.167,61.6,123.267,61,123.267,60.6z M125.767,72.8c-1.7,5.4-3.5,10.6-5.8,15.7c2.3-2.5,5.7-12.8,6.2-16.3
		C125.967,72.4,125.967,72.6,125.767,72.8z M120.667,80.8c0.6-1.1,1-2.1,1.2-3.2l-0.2,0.1L120.667,80.8z M122.167,76
		c-0.3,0.4-0.4,1-0.3,1.4L122.167,76z M122.367,75.4c0.1-0.1,0.1-0.2,0.1-0.3L122.367,75.4z M122.667,74.6c0,0.1,0,0.3-0.1,0.4
		C122.667,74.9,122.767,74.7,122.667,74.6L122.667,74.6z M122.967,73.2l0.3-0.4h-0.1L122.967,73.2z M123.467,71.9l-0.1-0.2V72
		L123.467,71.9z M126.367,71L126.367,71l-0.1,0.4h0.1V71z M126.567,69.8L126.567,69.8l-0.1,0.3h0.1V69.8z M132.967,83.1l-5.3,16.1
		l-1.2,4.4c1-2,1.7-4.3,2.3-6.5c1.9-5.8,4-11.6,5.6-17.5C133.667,80.5,133.267,82,132.967,83.1z M128.967,105.7
		c0-0.2-0.1-0.3-0.1-0.6c-0.1,0.2-0.1,0.3-0.1,0.6H128.967z M136.067,81.5l-5.4,15.8c-0.8,2.4-1.1,5.1-1.7,7.5l0.2-0.2
		c1-3.3,1.8-6.7,2.9-10c1.4-4.4,3.5-8.8,4.3-13.4L136.067,81.5z M131.567,105.5c1.1-5.5,3.1-10.9,4.9-16.3c1.1-3.3,2.5-6.7,2.9-10.2
		h-0.2c-2.6,7.4-5.1,15-7.4,22.4c-0.7,2.2-1.1,4.4-1.1,6.7c0,0.7,0,1.3,0.1,2C131.067,108.6,131.167,107,131.567,105.5z
		 M131.267,100.3L131.267,100.3L131.267,100.3L131.267,100.3z M132.367,96.3L132.367,96.3L132.367,96.3L132.367,96.3z M132.667,95.5
		L132.667,95.5L132.667,95.5L132.667,95.5z M132.767,106L132.767,106c-0.1,0.1-0.1,0.1,0,0.2V106z M132.867,94.8L132.867,94.8
		L132.867,94.8L132.867,94.8z M132.967,104.9L132.967,104.9l-0.1,0.2h0.1V104.9z M133.667,102.5L133.667,102.5l0.1-0.3h-0.1V102.5z
		 M133.967,101.2L133.967,101.2l-0.1,0.3h0.1V101.2z M134.367,90.4L134.367,90.4L134.367,90.4L134.367,90.4z M134.367,99.8
		c-0.1,0-0.1,0.1-0.1,0.2h0.1V99.8z M134.467,79v0.4C134.567,79.3,134.567,79.1,134.467,79L134.467,79z M134.567,99L134.567,99
		L134.567,99L134.567,99z M134.767,98.2l0.2,0.1c0-0.1,0-0.2-0.1-0.3L134.767,98.2z M135.167,97.2L135.167,97.2l-0.1,0.3h0.1V97.2z
		 M135.867,95.1L135.867,95.1C135.767,95.2,135.767,95.2,135.867,95.1L135.867,95.1z M136.067,85.7L136.067,85.7L136.067,85.7
		L136.067,85.7z M136.067,94.5C135.967,94.5,135.967,94.5,136.067,94.5L136.067,94.5z M136.567,80.6h-0.2v0.3L136.567,80.6z
		 M136.467,93.2L136.467,93.2L136.467,93.2L136.467,93.2z M136.667,92.5c0.1,0,0.1-0.1,0.1-0.2h-0.1V92.5z M136.967,91.7
		L136.967,91.7l0.1-0.2h-0.1V91.7z M138.267,88.2L138.267,88.2l-0.1,0.2h0.1V88.2z M138.367,87.7L138.367,87.7L138.367,87.7
		L138.367,87.7L138.367,87.7z M138.567,86.8L138.567,86.8L138.567,86.8L138.567,86.8z M140.067,82.5L140.067,82.5L140.067,82.5
		L140.067,82.5z"/>
	<path class="st0" d="M141.567,100.3c0-5.9,3.8-19,5.6-25.1c0.9-2.8,1.9-6.1,1.9-9c0-0.5-0.2-1.1-0.3-1.7c0.2-0.5,0.7-0.5,1.1-0.5
		c0.2,0,1.3,0.5,1.5,0.7c2.6,1.3,4.5,4.2,4.5,7.3c0,6.4-4.3,19.9-6.5,26.3l0.2,0.1c6.2-8.5,12-17,18.8-25c2.6-3.1,5.3-6.2,8-9.1
		c0.9-0.9,1.6-1.8,2.9-2.1c2.1,0.3,6.2,2.5,6.2,5.1c0,1.4-1.8,5.9-2.3,7.5c-3,7.7-10.9,30-10.9,37.4c0,1.1,0.3,2.1,1.3,2.6
		c0,0.7-0.4,1.1-1.1,1.1c-6.3,0-7.5-5.3-7.5-10.4c0-6.9,3.4-16.4,5.5-23.1c1-3.3,2.4-6.4,3.6-9.6c-0.3,0.2-0.7,0.3-1,0.7
		c-4.8,4.9-8.9,11-12.5,16.8c-2.3,3.7-7.9,13.2-10.8,15.7c-0.7,0.6-1,0.7-1.8,0.7C144.867,106.6,141.567,103.6,141.567,100.3z
		 M151.667,101.1c-0.1,0.1-0.2,0.2-0.2,0.4L151.667,101.1z M153.467,94.8c0.7-0.8,1.1-1.5,1.6-2.3
		C154.367,93.2,153.867,94,153.467,94.8z M154.667,97.1c0.1-0.3,0.3-0.6,0.4-0.8c-0.3,0.3-0.8,0.9-0.9,1.3L154.667,97.1z
		 M154.767,95.7c0.1,0,0.1,0,0.1-0.1L154.767,95.7z M156.067,91.2c0.2-0.7,0.7-0.9,1.1-1.4c0.9-1,1.4-2.2,2.2-3.3
		c4.9-7.4,11.3-13.6,16.9-20.6l0.3-0.4l-0.2-0.2c-5.6,5.9-11,12.1-15.7,18.8c-1.8,2.5-3.7,4.9-5.1,7.7L156.067,91.2z M155.867,94.3
		L155.867,94.3h-0.1H155.867z M157.967,92.1c-0.8,0.9-1.4,1.8-1.9,2.8C156.767,93.9,157.367,93,157.967,92.1z M157.667,90.8h-0.3
		c0,0.1-0.1,0.3-0.2,0.4h0.6l0.1-0.3L157.667,90.8z M157.967,91.9c0.6-0.7,1.1-1.4,1.4-2.3C158.967,90.4,158.267,91.1,157.967,91.9z
		 M158.167,89.9v0.3c0,0.1,0,0.2,0.1,0.3c0.1-0.1,0.1-0.3,0.1-0.4h0.4c-0.1-0.1-0.3-0.1-0.4-0.1L158.167,89.9z M158.167,92.7v0.2
		l0.1-0.1L158.167,92.7z M158.567,89.2v0.2c0,0,0.2,0.6,0.2,0.7v-0.7c0.1,0,0.2,0,0.3-0.1c-0.1,0-0.3-0.1-0.3-0.1H158.567
		L158.567,89.2z M159.167,88.4v0.3c0,0.1,0,0.3,0.1,0.4c0-0.3,0.1-0.6,0.4-0.6c-0.1-0.1-0.2-0.1-0.3-0.1L159.167,88.4z
		 M159.567,87.8V88c0.1,0.2,0.1,0.4,0.1,0.7c0.1-0.2,0.1-0.4,0.1-0.7l0.2-0.1c-0.1,0-0.3-0.1-0.3-0.1H159.567L159.567,87.8z
		 M160.167,88.8l0.1-0.4l-0.3,0.7L160.167,88.8z M165.267,81.8l0.4-0.7h0.2l0.6-0.6c0.1-0.3,1.1-1.7,1.4-1.9
		c0.2-0.7,2.9-3.9,3.5-4.2l-0.2-0.1v-0.4c-1.2,1.3-2.2,2.8-3.6,3.7c0.6-1.3,5.9-7.2,7.1-8.7c-5.5,5.5-10.3,11.6-14.7,17.9v0.3
		l0.1,0.4c1-1.5,1.8-2.5,3-4c-0.1,0.4-0.2,0.8-0.4,1.1l0.8-0.4h0.2c0.4-0.6,0.9-1.1,1.1-1.8l0.3-0.2c0.1-0.2,0.2-0.4,0.4-0.6
		L165.267,81.8z M160.967,87.3c0.2-0.2,0.4-0.3,0.7-0.4v-0.1c0.1-0.1,0.2-0.6,0.2-0.8L160.967,87.3z M161.767,86.9v0.2
		c0.1-0.1,0.1-0.2,0.1-0.3L161.767,86.9z M170.567,104.9h0.1v-0.3h-0.1V104.9z M170.667,103.8l0.3,0.1c0.2-1,0.3-1.9,0.4-2.9
		L170.667,103.8z M182.967,67.3c-4.6,9.2-9,23.4-11.6,33.6c0.2-0.2,0.3-0.4,0.4-0.7c1.9-4.9,3-10.2,4.7-15.2
		c2.1-5.9,4.6-11.7,6.7-17.6L182.967,67.3z M173.667,72c0.2-0.6,0.9-0.8,0.9-1.4l1.2-1.6l-4.3,4.7c0.3-0.2,0.6-0.4,1-0.4
		C172.867,72.8,173.067,72.4,173.667,72z M174.167,78.3l0.1-0.1L174.167,78.3L174.167,78.3z M174.967,76.2c0,0.1-0.1,0.1-0.1,0.2
		h0.1V76.2z M175.467,74.8l-0.3,0.8l0.3,0.1V74.8z M175.767,74.6c1-2.2,2.2-4.4,3.3-6.6v-0.5c-1.4,2.3-2.5,4.8-3.6,7.4L175.767,74.6
		z M178.767,73c0.6-1.2,1.2-2.4,1.6-3.6C179.567,70.5,179.167,71.7,178.767,73z M181.167,67.6l-0.1-0.1v0.4L181.167,67.6z"/>
</g>
<g>
	<path class="st0" d="M217.8,73.5c0,0,0.8,0.8,2-0.1c0.5-0.3,1.3-0.6,1.7,0.2c0.4,0.7,0.5,1.5,2.4,1.2c0.6-0.1,1.2-0.3,1.6,0.7
		c0.3,1,0.6,1.5,1.8,1.6s1.4,0.1,1.6,1.1c0.2,0.9,0.1,1.8,1.5,2.1s1.2,0.8,1.2,1.4c-0.1,0.6-0.5,1.4,0.4,1.9
		c0.8,0.5,1.7,0.9,1.1,2.1c-0.3,0.6-0.5,1.5,0.2,2.2s1.2,1.1,0.3,2.2c-0.7,0.7-0.6,1.5-0.2,2.1s0.7,1.5-0.3,2.1s-0.8,1.4-0.7,1.9
		c0.2,0.6,0.7,1.6-0.6,2s-1.4,0.8-1.5,2s-0.1,1.4-1,1.4c-1,0.1-1.7,0.5-1.9,1.6s-0.2,1.3-1.2,1.2c-1-0.1-2-0.3-2.6,1.3
		c-0.2,0.6-1,0.8-1.7,0.5s-1.7-0.2-2.3,0.6c-0.6,0.8-1.1,0.8-1.9,0.3c-0.8-0.6-1.5-0.6-2.2,0s-1.5,0.6-2-0.1s-1-1.2-2.5-0.7
		c-0.6,0.3-1.4,0.1-1.6-0.6c-0.2-0.6-0.6-1.5-1.7-1.4c-1.2,0.1-1.7,0-1.9-0.9c-0.1-0.9-0.6-1.7-1.6-1.9c-1-0.1-1.5-0.3-1.4-1.3
		s-0.3-1.8-1.3-2.1s-1.1-0.8-0.8-1.6c0.3-0.8,0-1.9-0.7-2.4s-0.8-0.9-0.3-1.7c0.5-0.8,0.6-1.4-0.3-2.5c-0.9-1.2,0.1-1.5,0.3-1.7
		c0.3-0.3,1.1-1.1,0.6-2.3c-0.5-1.2-0.5-1.3,0.4-1.9s1-1.3,1-2.5c0-1.1,0.5-1.1,1-1.3c0.6-0.2,1.5-0.3,1.6-1.9
		c0.1-0.8,0.3-1.1,1.1-1.1c0.8-0.1,1.7-0.2,2-1.2c0.3-1.1,0.5-1.4,1.6-1.2s1.7,0.2,2.3-0.7c0.6-0.9,1.2-1,2-0.6
		c0.7,0.3,1.4,0.7,2.2-0.1C215.4,73.2,216.4,71.8,217.8,73.5z"/>
	<g>
		<polygon class="st1" points="221.7,78.6 220.1,76.4 214.9,83.6 212.5,81.6 210.7,83.5 215.3,86.7 		"/>
		<path class="st1" d="M208.7,95.4c0.8,0,1.4-0.2,1.8-0.6c0.4-0.5,0.6-1.1,0.6-1.9v-0.1h-1.4c0,0.5-0.1,0.8-0.2,1.1
			c-0.1,0.2-0.4,0.3-0.7,0.3s-0.6-0.1-0.8-0.4s-0.3-0.7-0.3-1.2v-2.3c0-0.5,0.1-0.9,0.3-1.2c0.2-0.3,0.5-0.4,0.8-0.4
			c0.4,0,0.7,0.1,0.8,0.3s0.2,0.6,0.2,1.1h1.4V90c0-0.8-0.2-1.5-0.6-1.9c-0.4-0.5-1-0.7-1.9-0.7c-0.8,0-1.4,0.2-1.9,0.7
			s-0.7,1.2-0.7,2v2.3c0,0.9,0.2,1.6,0.7,2.1C207.3,95.2,207.9,95.4,208.7,95.4z"/>
		<polygon class="st1" points="214.4,95.3 214.4,88.9 216.1,88.9 216.1,87.7 211.2,87.7 211.2,88.9 212.9,88.9 212.9,95.3 		"/>
		<polygon class="st1" points="216.6,87.7 216.6,95.3 220.9,95.3 220.9,94.1 218,94.1 218,87.7 		"/>
		<polygon class="st1" points="225.8,88.9 225.8,87.7 221.3,87.7 221.3,95.3 225.8,95.3 225.8,94.1 222.8,94.1 222.8,92 225.4,92 
			225.4,90.8 222.8,90.8 222.8,88.9 		"/>
		<path class="st1" d="M207.4,96l-1,3.6h0.7l0.2-0.8h0.9l0.2,0.8h0.7l-1-3.6H207.4z M207.4,98.2l0.3-1.2l0,0l0.3,1.2H207.4z"/>
		<path class="st1" d="M210.4,96h-1.2v3.6h0.7v-1.2h0.5c0.3,0,0.6-0.1,0.8-0.3s0.3-0.5,0.3-0.8s-0.1-0.6-0.3-0.8
			C211,96.1,210.7,96,210.4,96z M210.7,97.6c-0.1,0.1-0.2,0.2-0.3,0.2h-0.5v-1.2h0.5c0.2,0,0.3,0.1,0.3,0.2c0.1,0.1,0.1,0.2,0.1,0.4
			C210.8,97.3,210.7,97.4,210.7,97.6z"/>
		<path class="st1" d="M212.9,96h-1.2v3.6h0.7v-1.2h0.5c0.3,0,0.6-0.1,0.8-0.3s0.3-0.5,0.3-0.8s-0.1-0.6-0.3-0.8
			C213.5,96.1,213.2,96,212.9,96z M213.2,97.6c-0.1,0.1-0.2,0.2-0.3,0.2h-0.5v-1.2h0.5c0.2,0,0.3,0.1,0.3,0.2
			c0.1,0.1,0.1,0.2,0.1,0.4C213.3,97.3,213.3,97.4,213.2,97.6z"/>
		<path class="st1" d="M216.5,99v-0.3c0-0.2-0.1-0.4-0.1-0.6c-0.1-0.2-0.2-0.2-0.4-0.3c0.2-0.1,0.3-0.2,0.3-0.3
			c0.1-0.1,0.1-0.3,0.1-0.5c0-0.3-0.1-0.6-0.3-0.8c-0.2-0.2-0.5-0.3-0.8-0.3h-1.1v3.6h0.7V98h0.5c0.1,0,0.2,0.1,0.3,0.2
			s0.1,0.2,0.1,0.4v0.2c0,0.1,0,0.2,0,0.3s0.1,0.2,0.1,0.3h0.7v-0.1c-0.1-0.1-0.1-0.1-0.1-0.2C216.5,99.1,216.5,99,216.5,99z
			 M215.7,97.4c-0.1,0.1-0.2,0.1-0.3,0.1h-0.5v-1h0.5c0.1,0,0.2,0.1,0.3,0.2s0.1,0.2,0.1,0.4C215.8,97.2,215.7,97.4,215.7,97.4z"/>
		<path class="st1" d="M217.9,95.9c-0.4,0-0.7,0.1-0.9,0.3c-0.2,0.2-0.3,0.6-0.3,1v1.1c0,0.4,0.1,0.7,0.3,1c0.2,0.2,0.5,0.3,0.9,0.3
			s0.7-0.1,0.9-0.3c0.2-0.2,0.3-0.6,0.3-1v-1c0-0.4-0.1-0.7-0.3-1C218.5,96,218.3,95.9,217.9,95.9z M218.4,98.3
			c0,0.3-0.1,0.5-0.1,0.6c-0.1,0.1-0.2,0.2-0.4,0.2s-0.3-0.1-0.4-0.2c-0.1-0.1-0.1-0.3-0.1-0.6v-1c0-0.3,0.1-0.5,0.1-0.6
			c0.1-0.1,0.2-0.2,0.4-0.2s0.3,0.1,0.4,0.2c0.1,0.1,0.1,0.3,0.1,0.6V98.3z"/>
		<polygon class="st1" points="220.4,98.7 220.3,98.8 220.3,98.8 220.3,98.6 219.7,96 219,96 220,99.6 220.7,99.6 221.7,96 221,96 
					"/>
		<polygon class="st1" points="222.4,98 223.6,98 223.6,97.4 222.4,97.4 222.4,96.5 223.8,96.5 223.8,96 221.8,96 221.8,99.6 
			223.8,99.6 223.8,99 222.4,99 		"/>
		<path class="st1" d="M225.9,96.4c-0.2-0.3-0.5-0.4-0.9-0.4h-1.1v3.6h1.1c0.3,0,0.7-0.1,0.9-0.4s0.3-0.6,0.3-1.1v-0.6
			C226.2,97,226.1,96.6,225.9,96.4z M225.5,98.1c0,0.3-0.1,0.5-0.2,0.7c-0.1,0.2-0.2,0.2-0.5,0.2h-0.3v-2.5h0.3
			c0.2,0,0.3,0.1,0.5,0.3c0.1,0.2,0.2,0.4,0.2,0.7V98.1z"/>
	</g>
</g>
<circle class="st0" cx="182.333" cy="109.633" r="2.7"/>
<g>
	<path class="st2" d="M259.233,74c-9.1,3.2-13.9,13.3-10.6,22.4s13.3,13.9,22.4,10.6c9.1-3.2,13.9-13.3,10.6-22.4
		S268.433,70.7,259.233,74z M269.333,102.4c-6.5,2.3-13.8-1.1-16.1-7.6s1.1-13.8,7.6-16.1c6.5-2.3,13.8,1.1,16.1,7.6
		C279.333,92.9,275.933,100,269.333,102.4z"/>
	<path class="st3" d="M271.033,107.1c-9.2,3.3-19.3-1.6-22.5-10.8s1.6-19.3,10.8-22.5c9.2-3.2,19.3,1.6,22.5,10.8
		C285.033,93.7,280.233,103.9,271.033,107.1z M260.933,78.7c-6.5,2.3-9.9,9.5-7.6,15.9c2.3,6.5,9.5,9.9,15.9,7.6
		c6.5-2.3,9.9-9.5,7.6-15.9C274.633,79.8,267.433,76.4,260.933,78.7z"/>
	<g>
		<path class="st3" d="M259.233,74c-9.1,3.2-13.9,13.3-10.6,22.4s13.3,13.9,22.4,10.6c9.1-3.2,13.9-13.3,10.6-22.4
			S268.433,70.7,259.233,74z M269.333,102.4c-6.5,2.3-13.8-1.1-16.1-7.6s1.1-13.8,7.6-16.1c6.5-2.3,13.8,1.1,16.1,7.6
			C279.333,92.9,275.933,100,269.333,102.4z"/>
	</g>
	<g>
		<g>
			<g>
				<defs>
					<path id="SVGID_1_" d="M265.133,108c-7.4,0-14.1-4.7-16.5-11.7c-1.6-4.4-1.3-9.2,0.7-13.4c2-4.2,5.6-7.4,10-9
						c1.9-0.7,3.9-1,5.9-1c7.4,0,14.1,4.7,16.5,11.7c1.6,4.4,1.3,9.2-0.7,13.4c-2,4.2-5.6,7.4-10,9
						C269.133,107.7,267.133,108,265.133,108L265.133,108z M265.133,77.9c-1.5,0-2.9,0.3-4.2,0.7c-6.5,2.3-10,9.6-7.6,16.1
						c1.8,5,6.5,8.4,11.9,8.4c1.5,0,2.9-0.3,4.2-0.7c3.2-1.1,5.7-3.4,7.2-6.4s1.6-6.4,0.5-9.6
						C275.233,81.3,270.433,77.9,265.133,77.9z"/>
				</defs>
				<clipPath id="SVGID_2_">
					<use xlink:href="#SVGID_1_"  style="overflow:visible;"/>
				</clipPath>
				<g class="st4">
					<path d="M283.433,87.4l-34.5,12.3c-0.3,0.1-0.6-0.1-0.7-0.3l-1.4-3.9c-0.1-0.3,0.1-0.6,0.3-0.7l34.5-12.3
						c0.3-0.1,0.6,0.1,0.7,0.3l1.4,3.9C283.933,87,283.733,87.3,283.433,87.4z"/>
				</g>
			</g>
		</g>
	</g>
	<path class="st3" d="M265.133,108c-7.4,0-14-4.7-16.5-11.6c-1.6-4.4-1.3-9.1,0.7-13.3c2-4.2,5.5-7.4,9.9-8.9c1.9-0.7,3.8-1,5.8-1
		c7.4,0,14,4.7,16.5,11.6c1.6,4.4,1.3,9.1-0.7,13.3c-2,4.2-5.5,7.4-9.9,8.9C269.133,107.6,267.133,108,265.133,108L265.133,108z
		 M265.133,77.8c-1.5,0-2.9,0.3-4.3,0.7c-6.6,2.3-10.1,9.6-7.7,16.2c1.8,5,6.6,8.5,11.9,8.5c1.5,0,2.9-0.3,4.3-0.7
		c3.2-1.1,5.8-3.4,7.2-6.5c1.5-3.1,1.7-6.5,0.5-9.7C275.333,81.2,270.533,77.8,265.133,77.8z"/>
	
		<ellipse transform="matrix(0.9425 -0.3343 0.3343 0.9425 -15.0364 93.8424)" class="st5" cx="265.129" cy="90.608" rx="13.5" ry="13.5"/>
	<g>
		<path class="st6" d="M252.133,83.8l-0.4,0.9l0.5,0.4l-0.3,0.6l-2.1-2.2l0.2-0.5l3,0.3l-0.3,0.6L252.133,83.8z M251.333,84.4
			l0.3-0.6l-1.1-0.2L251.333,84.4z"/>
		<path class="st6" d="M253.133,81.5l0.8,0.6l-0.4,0.5l-2.2-1.8l0.7-0.9c0.2-0.2,0.3-0.3,0.5-0.4s0.3-0.1,0.5-0.1s0.3,0.1,0.5,0.2
			c0.2,0.2,0.3,0.4,0.3,0.6c0,0.3-0.1,0.5-0.3,0.8L253.133,81.5z M252.733,81.2l0.3-0.4c0.1-0.1,0.2-0.3,0.2-0.4s-0.1-0.2-0.2-0.3
			c-0.1-0.1-0.2-0.1-0.4-0.1s-0.2,0.1-0.3,0.2l-0.3,0.4L252.733,81.2z"/>
		<path class="st6" d="M255.433,79l0.6,0.8l-0.5,0.4l-1.8-2.2l0.9-0.7c0.2-0.2,0.4-0.2,0.5-0.3c0.2-0.1,0.4-0.1,0.5,0.1
			c0.2,0.1,0.3,0.2,0.4,0.3c0.2,0.2,0.2,0.5,0.2,0.7c-0.1,0.3-0.2,0.5-0.5,0.7L255.433,79z M255.233,78.6l0.4-0.3
			c0.1-0.1,0.2-0.2,0.2-0.3s0-0.2-0.1-0.3s-0.2-0.2-0.3-0.2s-0.2,0-0.4,0.1l-0.4,0.3L255.233,78.6z"/>
		<path class="st6" d="M258.833,76.9l-0.4,0.2l0.4,0.9l-0.5,0.3l-1.2-2.6l0.9-0.5c0.3-0.2,0.6-0.2,0.8-0.1c0.2,0.1,0.4,0.2,0.5,0.5
			c0.1,0.2,0.1,0.4,0.1,0.5c0,0.2-0.1,0.3-0.2,0.4l1,0.8l0,0l-0.6,0.3L258.833,76.9z M258.133,76.7l0.4-0.2c0.2-0.1,0.2-0.2,0.3-0.3
			s0.1-0.2,0-0.3s-0.2-0.2-0.3-0.3c-0.1-0.1-0.2,0-0.4,0.1l-0.4,0.2L258.133,76.7z"/>
		<path class="st6" d="M263.233,75.3c0.1,0.3,0.1,0.5,0,0.7s-0.2,0.4-0.3,0.6c-0.2,0.2-0.4,0.3-0.6,0.3s-0.5,0.1-0.7-0.1
			c-0.2-0.1-0.4-0.2-0.5-0.4c-0.2-0.2-0.3-0.4-0.3-0.7l-0.1-0.2c-0.1-0.3-0.1-0.5,0-0.8c0.1-0.2,0.2-0.4,0.3-0.6
			c0.2-0.2,0.4-0.3,0.6-0.3c0.2-0.1,0.5-0.1,0.7,0.1c0.2,0.1,0.4,0.2,0.5,0.4c0.2,0.2,0.3,0.4,0.3,0.7L263.233,75.3z M262.633,75.3
			c-0.1-0.3-0.2-0.5-0.3-0.6c-0.2-0.2-0.3-0.2-0.5-0.2c-0.2,0.1-0.3,0.2-0.4,0.3c-0.1,0.2-0.1,0.4,0,0.7l0.1,0.2
			c0.1,0.3,0.2,0.5,0.3,0.6c0.2,0.2,0.3,0.2,0.5,0.2c0.2-0.1,0.3-0.2,0.4-0.3c0.1-0.2,0.1-0.4,0-0.7L262.633,75.3z"/>
		<path class="st6" d="M265.633,75.8l0.7-2.1h0.7l-1.1,2.8h-0.6l-0.9-2.9h0.7L265.633,75.8z"/>
		<path class="st6" d="M269.733,76l-1.1-0.3l-0.2,0.7l1.3,0.3l-0.1,0.5l-1.9-0.5l0.7-2.8l1.8,0.5l-0.1,0.5l-1.3-0.3l-0.2,0.7
			l1.1,0.3V76z"/>
		<path class="st6" d="M270.533,77.6l1.3-2.5l0.8,0.4c0.2,0.1,0.4,0.3,0.5,0.5s0.2,0.4,0.2,0.6c0,0.3-0.1,0.5-0.2,0.7l-0.1,0.1
			c-0.1,0.3-0.3,0.4-0.5,0.6s-0.4,0.2-0.6,0.2s-0.5-0.1-0.7-0.2L270.533,77.6z M272.133,75.7l-0.8,1.7l0.3,0.1
			c0.2,0.1,0.4,0.1,0.6,0.1c0.2-0.1,0.3-0.3,0.5-0.5l0.1-0.2c0.2-0.3,0.2-0.5,0.2-0.7c-0.1-0.2-0.2-0.3-0.4-0.4L272.133,75.7z"/>
	</g>
	<g>
		<path class="st6" d="M256.533,104c-0.2,0.2-0.4,0.3-0.6,0.4c-0.3,0-0.5-0.1-0.7-0.3s-0.4-0.4-0.4-0.7c0-0.3,0.1-0.6,0.3-0.9
			l0.1-0.1c0.2-0.2,0.3-0.4,0.5-0.4c0.2-0.1,0.4-0.2,0.6-0.1c0.2,0,0.4,0.1,0.5,0.2c0.3,0.2,0.4,0.4,0.4,0.6c0.1,0.2,0,0.5-0.2,0.7
			l-0.4-0.3c0.1-0.2,0.1-0.3,0.1-0.4s-0.1-0.2-0.2-0.3c-0.2-0.1-0.3-0.1-0.4-0.1c-0.1,0-0.3,0.2-0.5,0.4l-0.1,0.2
			c-0.2,0.2-0.3,0.4-0.3,0.6s0.1,0.3,0.2,0.4c0.1,0.1,0.3,0.2,0.4,0.1c0.1,0,0.2-0.1,0.3-0.2L256.533,104z"/>
		<path class="st6" d="M258.033,104.8l-0.4,0.8l-0.5-0.2l1.1-2.3l0.9,0.4c0.2,0.1,0.3,0.2,0.4,0.3c0.1,0.1,0.2,0.3,0.2,0.4
			c0,0.2,0,0.3-0.1,0.5s-0.3,0.4-0.5,0.4c-0.2,0-0.5,0-0.7-0.1L258.033,104.8z M258.233,104.4l0.4,0.2c0.1,0.1,0.2,0.1,0.3,0.1
			c0.1-0.1,0.2-0.1,0.2-0.2c0.1-0.1,0.1-0.2,0.1-0.3c-0.1-0.1-0.1-0.2-0.2-0.3l-0.4-0.2L258.233,104.4z"/>
		<path class="st6" d="M261.933,105.9l-1-0.3l-0.2,0.7l1.1,0.3l-0.1,0.4l-1.6-0.4l0.6-2.4l1.6,0.4l-0.1,0.4l-1.1-0.3l-0.2,0.6l1,0.3
			V105.9z"/>
		<path class="st6" d="M265.433,106.5l0.1,0.9h-0.6l-0.1-2.5l1-0.1c0.2,0,0.4,0,0.5,0.1c0.2,0.1,0.3,0.2,0.4,0.3
			c0.1,0.1,0.1,0.3,0.2,0.4c0,0.3-0.1,0.5-0.2,0.6c-0.2,0.2-0.4,0.2-0.7,0.3L265.433,106.5z M265.333,106.1h0.5
			c0.2,0,0.3-0.1,0.3-0.1c0.1-0.1,0.1-0.2,0.1-0.3s-0.1-0.2-0.1-0.3c-0.1-0.1-0.2-0.1-0.3-0.1h-0.5V106.1z"/>
		<path class="st6" d="M268.833,106l-0.4,0.1l0.2,0.9l-0.5,0.1l-0.6-2.4l0.9-0.2c0.3-0.1,0.5-0.1,0.7,0.1c0.2,0.1,0.3,0.3,0.4,0.5
			s0.1,0.3,0,0.5c-0.1,0.1-0.2,0.3-0.3,0.4l0.8,0.9l0,0l-0.5,0.2L268.833,106z M268.333,105.7l0.4-0.1c0.1-0.1,0.2-0.1,0.3-0.2
			s0.1-0.2,0.1-0.3c-0.1-0.1-0.1-0.2-0.2-0.3c-0.1-0.1-0.2-0.1-0.3-0.1l-0.4,0.1L268.333,105.7z"/>
		<path class="st6" d="M272.733,104.2c0.1,0.2,0.2,0.4,0.2,0.6s-0.1,0.4-0.2,0.6s-0.3,0.3-0.5,0.4s-0.4,0.1-0.6,0.1
			s-0.4-0.1-0.5-0.2c-0.2-0.2-0.3-0.3-0.4-0.5l-0.1-0.1c-0.1-0.2-0.2-0.5-0.2-0.7s0.1-0.4,0.2-0.6s0.3-0.3,0.5-0.4s0.4-0.1,0.6-0.1
			s0.4,0.1,0.5,0.3c0.2,0.2,0.3,0.3,0.4,0.5L272.733,104.2z M272.133,104.4c-0.1-0.3-0.3-0.4-0.4-0.5c-0.2-0.1-0.3-0.1-0.5,0
			s-0.3,0.2-0.3,0.4c-0.1,0.2,0,0.4,0.1,0.6l0.1,0.1c0.1,0.2,0.3,0.4,0.4,0.5c0.2,0.1,0.3,0.1,0.5,0s0.3-0.2,0.3-0.4
			c0.1-0.2,0-0.4-0.1-0.6L272.133,104.4z"/>
		<path class="st6" d="M274.733,103.6l-0.7-1.9l0.5-0.4l0.8,2.5l-0.4,0.3l-2.2-1.5l0.5-0.4L274.733,103.6z"/>
		<path class="st6" d="M277.333,102.2l-0.4,0.4l-1.8-1.8l0.4-0.4L277.333,102.2z"/>
		<path class="st6" d="M278.233,101.1l-2-1.5l0.5-0.6c0.1-0.2,0.3-0.3,0.5-0.4s0.4-0.1,0.6-0.1c0.2,0.1,0.4,0.1,0.6,0.3l0.1,0.1
			c0.2,0.2,0.3,0.3,0.4,0.5s0.1,0.4,0.1,0.6s-0.1,0.4-0.2,0.6L278.233,101.1z M276.833,99.5l1.4,1l0.2-0.2c0.1-0.2,0.2-0.3,0.1-0.5
			s-0.2-0.3-0.4-0.5l-0.1-0.1c-0.2-0.2-0.4-0.2-0.6-0.2s-0.3,0.1-0.4,0.3L276.833,99.5z"/>
		<path class="st6" d="M279.633,96.5l-0.4,0.9l0.6,0.3l0.5-1l0.4,0.2l-0.7,1.5l-2.3-1l0.7-1.5l0.4,0.2l-0.5,1l0.5,0.3l0.4-0.9
			H279.633z"/>
		<path class="st6" d="M280.533,94.5l-0.1,0.4l0.9,0.2l-0.1,0.5l-2.4-0.6l0.2-0.9c0.1-0.3,0.2-0.5,0.4-0.6s0.4-0.2,0.6-0.1
			s0.3,0.1,0.4,0.2s0.2,0.2,0.2,0.4l1.1-0.3l0,0l-0.2,0.5L280.533,94.5z M280.033,94.8l0.1-0.4c0.1-0.1,0-0.2,0-0.3
			c-0.1-0.1-0.1-0.2-0.3-0.2c-0.1-0.1-0.2,0-0.3,0.1s-0.2,0.2-0.2,0.3l-0.1,0.4L280.033,94.8z"/>
	</g>
	<path class="st2" d="M283.333,86.8l-34.5,12.3c-0.3,0.1-0.6-0.1-0.7-0.3l-1.4-3.9c-0.1-0.3,0.1-0.6,0.3-0.7l34.5-12.3
		c0.3-0.1,0.6,0.1,0.7,0.3l1.4,3.9C283.633,86.4,283.533,86.7,283.333,86.8z"/>
	<g>
		<path class="st6" d="M259.633,91.2l-1,0.4l0.9,2.6l-0.8,0.3l-0.9-2.6l-0.9,0.3l-0.2-0.6l2.7-0.9L259.633,91.2z"/>
		<path class="st6" d="M262.833,91.6l-1.2,0.4l0.3,0.8l1.5-0.5l0.2,0.6l-2.2,0.8l-1.1-3.2l2.2-0.8l0.2,0.6l-1.5,0.5l0.3,0.7l1.2-0.4
			L262.833,91.6z"/>
		<path class="st6" d="M264.633,90l0.2-1.2l0.9-0.3l-0.3,1.9l1.5,1.3l-0.9,0.3l-0.9-0.9l-0.2,1.3l-0.9,0.3l0.4-1.9l-1.5-1.3l0.9-0.3
			L264.633,90z"/>
		<path class="st6" d="M269.233,90.2l-1,0.4l0.1,0.7l-0.8,0.3l0.1-3.6l0.7-0.3l2.3,2.8l-0.8,0.3L269.233,90.2z M268.133,89.8
			l0.7-0.3l-0.7-1V89.8z"/>
		<path class="st6" d="M272.333,88.8c-0.1-0.1-0.1-0.2-0.2-0.2c-0.1-0.1-0.3-0.1-0.5-0.1s-0.4,0-0.6,0c-0.5-0.1-0.8-0.3-0.9-0.6
			c-0.1-0.2-0.1-0.4,0-0.5s0.2-0.3,0.3-0.5c0.2-0.2,0.4-0.3,0.6-0.4s0.5-0.1,0.7-0.1s0.4,0.1,0.6,0.2s0.3,0.3,0.3,0.5l-0.8,0.3
			c-0.1-0.2-0.1-0.2-0.2-0.3c-0.1-0.1-0.2-0.1-0.4,0c-0.2,0.1-0.3,0.1-0.3,0.2s-0.1,0.2-0.1,0.3c0.1,0.1,0.1,0.2,0.2,0.2
			c0.1,0.1,0.3,0.1,0.5,0.1s0.5,0,0.6,0.1c0.4,0.1,0.7,0.3,0.8,0.6c0.1,0.3,0.1,0.5-0.1,0.8s-0.4,0.4-0.8,0.6
			c-0.3,0.1-0.5,0.1-0.8,0.1s-0.5-0.1-0.6-0.2c-0.2-0.1-0.3-0.3-0.4-0.5l0.8-0.3c0.1,0.2,0.2,0.3,0.3,0.3c0.1,0.1,0.3,0.1,0.5-0.1
			c0.1-0.1,0.2-0.1,0.3-0.2C272.333,89,272.333,88.9,272.333,88.8z"/>
	</g>
	<polygon class="st6" points="250.233,94 251.133,94.8 252.333,94.6 251.833,95.7 252.433,96.8 251.133,96.6 250.333,97.5 
		250.133,96.3 249.033,95.8 250.033,95.2 	"/>
	<polygon class="st6" points="278.833,83.8 279.733,84.7 280.933,84.4 280.433,85.5 281.033,86.6 279.733,86.5 278.933,87.4 
		278.733,86.2 277.633,85.6 278.733,85 	"/>
</g>
<path class="st7" d="M295,67.3c1.1,0.2,2.1,0.3,3.2,0.5c-0.3-1-0.5-1.9-0.8-2.8c0.1,0,0.2,0,0.3,0c7.9,0,15.8,0,23.6,0
	c4.2,0,8.3,0,12.5,0c4,0,8,0,11.9,0c0.8,0,1.7,0.3,2.5,0.5c2.2,0.5,4.3,1,6.5,1.5c0.3,0.1,0.5,0.2,0.4,0.5c0,1.1,0.9,1.5,1.5,2.1
	c0.1,0.1,0.2,0.1,0.3,0.1c1.7,0,3.4-0.1,5-0.1c0.2,0,0.4,0.1,0.6,0.2c0.7,0.4,1.3,0.9,1.9,1.3c0.2,0.1,0.3,0.3,0.2,0.5
	c-0.1,0.4-0.3,0.9-0.2,1.2c0.1,0.3,0.7,0.4,1,0.6c0.1,0.1,0.3,0.2,0.4,0.2c1,0.3,1.3,0.9,1.4,1.9c0,0.4,0.3,0.8,0.5,1.2
	c0,0.1,0.2,0.2,0.3,0.2c1.3,0,2.5-0.1,3.8-0.1c0.1,0,0.2,0,0.3-0.1c1.1-1.1,2.3-2.2,3.4-3.3c0.3-0.3,0.5-0.3,0.9-0.3
	c0.8,0,1.5,0,2.3,0c0.7,0,1.4,0,2.1,0c0.3,0,0.4-0.1,0.5-0.3c1.1-1.5,2.2-2.9,3.2-4.4c0.2-0.2,0.4-0.3,0.7-0.3
	c2.1,0.3,4.1,0.6,6.2,0.9c0.3,0,0.3,0.2,0.3,0.4c0.1,1.5,0.2,3.1,0.3,4.6c0,0.2,0.1,0.4,0.2,0.6c0.7,1.3,1.4,2.6,2.1,4
	c0.1,0.1,0.1,0.2,0.2,0.4c-2.3,0.8-4.7,1.7-7,2.5c0.7,1.4,1.5,2.8,2.2,4.2c-0.6,0.1-1.2,0.2-1.8,0.4c-1.8,0.3-3.6,0.7-5.3,1
	c-0.3,0.1-0.5,0.2-0.6,0.5c-1.1,2.2-2.2,4.4-3.3,6.6c-0.1,0.2-0.2,0.5-0.2,0.7c0,1.4-0.1,2.7-0.1,4.1c0,0.2-0.2,0.5-0.3,0.6
	c-1.2,0.9-2.5,1.7-3.7,2.6c-1,0.7-2.1,1.5-3.1,2.2c-0.1,0-0.1,0.1-0.2,0.1c-0.2,0.9-0.9,1.8-0.5,2.8c0.8,2.1,1.5,4.2,2.2,6.3
	c0.1,0.2,0.1,0.5,0.1,0.7c-0.3,1.8-0.7,3.6-1,5.3c0,0.1-0.2,0.3-0.3,0.3c-1.8,0.3-3.5,0.6-5.3,0.9c-0.1,0-0.4-0.1-0.4-0.2
	c-1.5-2.5-3-5.1-4.4-7.7c-0.1-0.2,0-0.6,0-0.9c0-0.2,0.1-0.3,0.1-0.6c-0.5,0.2-0.9,0.4-1.3,0.6c-0.3,0.1-0.4,0.1-0.6-0.1
	c-0.4-0.5-0.8-1-1.3-1.5c-0.1-0.1-0.1-0.2-0.2-0.3c0,0-0.1,0-0.1,0.1c0,1.1,0,2.3,0,3.5c-0.6-0.1-1.1-0.3-1.7-0.4
	c-2.4-0.6-4.8-1.2-7.1-1.8c-0.2,0-0.4,0-0.5,0.1c-1,0.5-1.9,1-2.9,1.4c-0.3,0.1-0.4,0.3-0.4,0.7c0.1,2.3,0.1,4.6,0.2,7
	c0,0.1,0,0.3,0,0.5c-1.1-0.5-2.1-0.9-3.1-1.3c-1.8-0.8-3.6-1.5-5.3-2.3c-0.2-0.1-0.5-0.3-0.6-0.6c-0.8-1.3-1.5-2.7-2.2-4
	c-0.1-0.2-0.2-0.3-0.3-0.5c-0.5,0.3-1,0.5-1.5,0.8c-0.2,0.1-0.4,0.1-0.6,0c-1.2-0.8-2.4-1.6-3.6-2.4c-0.2-0.1-0.3-0.3-0.4-0.5
	c-0.6-0.8-1.1-1.6-1.7-2.4c-0.1-0.2-0.3-0.3-0.6-0.3c-2,0.1-4,0.3-5.9,0.4c-0.2,0-0.5,0-0.7-0.1c-1.6-0.8-3.3-1.7-4.9-2.5
	c-0.2-0.1-0.5-0.1-0.8-0.1c-1.1,0.1-2.3,0.3-3.4,0.4c-0.1,0-0.3,0-0.4-0.1c-2.1-1.6-4.2-3.3-6.3-4.9c-0.6-0.4-0.8-1-1.1-1.6
	c-1.7-2.9-3.3-5.8-4.9-8.8c-0.3-0.5-0.3-1.2-0.4-1.8c-0.4-2.4-0.8-4.7-1.2-7.1c-0.1-0.3-0.1-0.7,0-1c0.3-2.1,0.7-4.3,1-6.4
	c0-0.2,0-0.4,0-0.6c-0.5-1.9-1-3.9-1.5-5.8C295.1,67.6,295.1,67.5,295,67.3z M355,107.2c1.5-0.2,3-0.4,4.5-0.5
	c0.1,0,0.2,0.1,0.3,0.2c0.3,0.3,0.6,0.7,0.9,1c0.2,0.3,0.5,0.4,0.8,0.2c0.3-0.2,0.6-0.3,1-0.4c0.2,0,0.4,0,0.5,0.1
	c0.5,0.4,0.9,0.8,1.3,1.3c0.4,0.4,1,0.7,1.1,1.2s-0.2,1.1-0.3,1.7c0,0.2,0,0.5,0.1,0.7c0.7,1.3,1.5,2.7,2.3,4
	c0.4,0.8,0.4,0.8,1.3,0.6c0.3,0,0.4-0.2,0.5-0.5c0.1-0.7,0.3-1.4,0.4-2.1c0-0.2,0-0.5-0.1-0.7c-0.8-2.2-1.5-4.4-2.3-6.7
	c-0.1-0.3-0.1-0.6,0-0.9c0.3-1.1,0.7-2.3,1-3.4c0.1-0.3,0.3-0.6,0.5-0.7c2.1-1.5,4.2-2.9,6.2-4.4c0.1-0.1,0.3-0.3,0.3-0.5
	c0-1,0.1-2,0.1-3.1c0-0.8,0-1.5,0-2.3c0.2,0,0.3-0.1,0.3,0c0.5,0.1,0.7-0.1,0.8-0.5c0.7-1.5,1.5-3,2.2-4.5c0.2-0.3,0.4-0.7,0.1-1
	c0.6-0.6,1.2-1.1,1.8-1.6c0.1-0.1,0.2-0.2,0.4-0.2c0.4-0.1,0.8-0.1,1.2-0.2c0.8-0.2,1.7-0.3,2.6-0.5c-0.3-0.6-0.6-1.2-0.9-1.8
	c-0.1-0.1-0.1-0.4,0-0.5c0.4-0.7,0.8-1.3,1.3-2c0.1-0.2,0.3-0.3,0.5-0.4c0.8-0.3,1.5-0.6,2.3-0.8c0.6-0.2,1.3-0.5,1.9-0.7
	c-0.2-0.4-0.4-0.8-0.6-1.1c-0.3-0.5-0.4-1.1-0.4-1.7c0-0.7-0.1-1.4-0.1-2.1c0-0.3-0.1-0.4-0.3-0.4c-0.6-0.1-1.1-0.2-1.7-0.2
	c-0.1,0-0.3,0.1-0.4,0.2c-1.1,1.4-2.1,2.8-3.1,4.2c-0.2,0.2-0.4,0.4-0.7,0.4c-1.4,0-2.7,0-4.1,0c-0.8,0-1.4,0.2-2,0.8
	c-0.7,0.7-1.4,1.4-1.4,2.5c0,0.3-0.2,0.4-0.4,0.4c-1,0-2,0.1-3.1,0.1c-0.3,0-0.4,0.1-0.4,0.4c0,0.2-2.8-2.5-3.3-2.7
	c0,0.1-1.5-1.8-1.8-2.7c-0.9-0.9-1.3-1.7-3.2-1.1c-0.4-0.3-0.8-0.5-1.1-0.7c-0.4-0.3-0.7-0.4-1.2-0.4c-1,0-2,0.1-2.9,0.1
	c-0.6,0-1.1,0-1.7,0c0.2-0.5,0.3-1,0.5-1.6c-1.3,0.5-2.5,1-3.7,1.5c-0.2,0.1-0.4,0.1-0.5,0.1c-0.4-0.1-0.7-0.3-1.1-0.5
	c1-0.7,2-1.4,3-2.1c-0.1,0-0.2-0.1-0.2-0.1c-2.2-0.5-4.4-1.1-6.6-1.6c-0.7-0.2-1.4-0.4-2.1-0.4c-4.7,0-9.5,0-14.2,0
	c-4.4,0-8.8,0-13.2,0c-5,0-10.1,0-15.1,0c-0.3,0-0.7,0-1.1,0c0.2,0.8,0.4,1.4,0.6,2.2c-1.3-0.2-2.5-0.4-3.8-0.6
	c0.4,0.9,0.8,1.7,1.1,2.6c0.2,0.5,0.5,1,0.4,1.6c-0.3,1.9-0.6,3.8-0.9,5.8c-0.1,0.6-0.2,1.1-0.1,1.7c0.4,2.4,0.8,4.8,1.2,7.3
	c0,0.2,0.1,0.5,0.2,0.7c1.6,2.9,3.2,5.8,4.8,8.6c0.1,0.1,0.2,0.3,0.3,0.4c1.6,1.3,3.2,2.5,4.8,3.8c0.2,0.1,0.4,0.2,0.6,0.2
	c1-0.1,2-0.3,3-0.4c0.3,0,0.6,0,0.8,0.1c1.6,0.8,3.2,1.6,4.8,2.4c0.3,0.1,0.7,0.2,1,0.2c2.2-0.1,4.5-0.3,6.7-0.4
	c0.3,0,0.4,0.1,0.6,0.3c0.3,0.5,0.7,1,1,1.5c0.9,1.1,1.5,2.4,2.8,3.2c0.6,0.3,1,0.4,1.6,0.1c0.7-0.4,1.5-0.7,2.2-1.1
	c1,1.8,1.9,3.5,2.8,5.2c0.5,1,1.1,1.8,2.2,2.1c0.6,0.1,1.1,0.4,1.7,0.7c0-0.2,0-0.4,0-0.5c0-1.3-0.1-2.7-0.1-4
	c0-0.2,0.1-0.4,0.3-0.5c2-1,3.9-2,5.9-2.9c0.2-0.1,0.4-0.1,0.6-0.1c1.3,0.3,2.6,0.6,4,1c0.6,0.2,1.3,0.3,1.9,0.5
	C355,108.8,355,108.1,355,107.2z"/>
<g>
	<path class="st0" d="M312.6,78.3c0-0.3-0.1-0.5-0.2-0.6c-0.1-0.2-0.4-0.3-0.7-0.5c-0.7-0.2-1.2-0.5-1.6-0.8s-0.6-0.8-0.6-1.4
		s0.2-1,0.6-1.4s0.9-0.5,1.6-0.5s1.2,0.2,1.6,0.6s0.6,0.9,0.6,1.5l0,0h-1.3c0-0.3-0.1-0.6-0.2-0.8s-0.4-0.3-0.7-0.3
		c-0.3,0-0.5,0.1-0.6,0.2c-0.1,0.2-0.2,0.4-0.2,0.6s0.1,0.4,0.2,0.6s0.5,0.3,0.9,0.5c0.7,0.2,1.1,0.5,1.5,0.8
		c0.3,0.3,0.5,0.8,0.5,1.4s-0.2,1.1-0.6,1.4s-0.9,0.5-1.6,0.5s-1.2-0.2-1.7-0.6s-0.7-0.9-0.7-1.6l0,0h1.3c0,0.4,0.1,0.7,0.3,0.9
		c0.2,0.2,0.4,0.3,0.8,0.3c0.3,0,0.5-0.1,0.6-0.2C312.6,78.8,312.6,78.6,312.6,78.3z"/>
	<path class="st0" d="M316.5,80.2c-0.6,0-1.2-0.2-1.5-0.6c-0.4-0.4-0.6-1-0.6-1.6v-0.7c0-0.7,0.2-1.3,0.5-1.7s0.8-0.7,1.5-0.7
		c0.6,0,1.1,0.2,1.4,0.6s0.5,0.9,0.5,1.6V78h-2.5l0,0c0,0.3,0.1,0.6,0.2,0.8c0.2,0.2,0.4,0.3,0.7,0.3c0.3,0,0.5,0,0.6-0.1
		c0.2-0.1,0.3-0.2,0.6-0.3l0.3,0.9c-0.2,0.2-0.4,0.3-0.7,0.4S316.8,80.2,316.5,80.2z M316.4,76c-0.2,0-0.4,0.1-0.5,0.3
		c-0.1,0.2-0.2,0.5-0.2,0.8h1.2v-0.2c0-0.3,0-0.5-0.1-0.7C316.7,76,316.6,76,316.4,76z"/>
	<path class="st0" d="M320.7,80.2c-0.6,0-1.2-0.2-1.5-0.6c-0.4-0.4-0.6-1-0.6-1.6v-0.7c0-0.7,0.2-1.3,0.5-1.7s0.8-0.7,1.5-0.7
		c0.6,0,1.1,0.2,1.4,0.6s0.5,0.9,0.5,1.6V78H320l0,0c0,0.3,0.1,0.6,0.2,0.8c0.2,0.2,0.4,0.3,0.7,0.3c0.3,0,0.5,0,0.6-0.1
		c0.2-0.1,0.3-0.2,0.6-0.3l0.3,0.9c-0.2,0.2-0.4,0.3-0.7,0.4S321,80.2,320.7,80.2z M320.5,76c-0.2,0-0.4,0.1-0.5,0.3
		c-0.1,0.2-0.2,0.5-0.2,0.8h1.2v-0.2c0-0.3,0-0.5-0.1-0.7C320.9,76,320.7,76,320.5,76z"/>
	<path class="st0" d="M324.6,77.2c0-0.7,0.2-1.2,0.5-1.7c0.4-0.4,0.9-0.7,1.5-0.7s1.2,0.2,1.5,0.7c0.4,0.4,0.5,1,0.5,1.7v0.6
		c0,0.7-0.2,1.3-0.5,1.7c-0.4,0.4-0.9,0.6-1.5,0.6c-0.7,0-1.2-0.2-1.5-0.6c-0.4-0.4-0.5-1-0.5-1.7V77.2z M325.9,77.9
		c0,0.4,0.1,0.7,0.2,0.9s0.3,0.3,0.6,0.3c0.3,0,0.5-0.1,0.6-0.3c0.1-0.2,0.2-0.5,0.2-0.9v-0.6c0-0.4-0.1-0.7-0.2-0.9
		s-0.3-0.3-0.6-0.3s-0.5,0.1-0.6,0.3c-0.1,0.2-0.2,0.5-0.2,0.9V77.9z"/>
	<path class="st0" d="M331.8,79.5c-0.1,0.2-0.3,0.4-0.5,0.5s-0.4,0.2-0.7,0.2c-0.5,0-0.8-0.2-1.1-0.5c-0.3-0.3-0.4-0.9-0.4-1.6V75
		h1.3v3.1c0,0.4,0,0.6,0.1,0.8c0.1,0.2,0.2,0.2,0.4,0.2c0.1,0,0.3,0,0.4-0.1s0.2-0.1,0.3-0.2V75h1.3v5.1h-1.2L331.8,79.5z"/>
	<path class="st0" d="M336,76.2h-0.5c-0.1,0-0.3,0-0.4,0.1s-0.2,0.2-0.2,0.3v3.5h-1.3V75h1.2l0.1,0.7l0,0c0.1-0.2,0.2-0.4,0.3-0.6
		c0.1-0.1,0.3-0.2,0.5-0.2c0.1,0,0.1,0,0.2,0s0.1,0,0.2,0L336,76.2z"/>
	<path class="st0" d="M340.2,79.1c0.2,0,0.3-0.1,0.4-0.2s0.1-0.3,0.1-0.6h1.2l0,0c0,0.5-0.2,1-0.5,1.3s-0.8,0.5-1.3,0.5
		c-0.7,0-1.2-0.2-1.5-0.6c-0.4-0.4-0.5-1-0.5-1.7v-0.7c0-0.7,0.2-1.2,0.5-1.7c0.4-0.4,0.9-0.7,1.5-0.7s1,0.2,1.3,0.5
		c0.3,0.4,0.5,0.8,0.5,1.4l0,0h-1.2c0-0.3,0-0.5-0.1-0.7s-0.2-0.3-0.4-0.3c-0.3,0-0.5,0.1-0.6,0.3c-0.1,0.2-0.2,0.5-0.2,0.9v0.7
		c0,0.4,0,0.7,0.2,0.9C339.8,79,340,79.1,340.2,79.1z"/>
	<path class="st0" d="M342.3,77.2c0-0.7,0.2-1.2,0.5-1.7c0.4-0.4,0.9-0.7,1.5-0.7s1.2,0.2,1.5,0.7c0.4,0.4,0.5,1,0.5,1.7v0.6
		c0,0.7-0.2,1.3-0.5,1.7c-0.4,0.4-0.9,0.6-1.5,0.6c-0.7,0-1.2-0.2-1.5-0.6c-0.4-0.4-0.5-1-0.5-1.7V77.2z M343.6,77.9
		c0,0.4,0.1,0.7,0.2,0.9s0.3,0.3,0.6,0.3c0.3,0,0.5-0.1,0.6-0.3c0.1-0.2,0.2-0.5,0.2-0.9v-0.6c0-0.4-0.1-0.7-0.2-0.9
		s-0.3-0.3-0.6-0.3s-0.5,0.1-0.6,0.3c-0.1,0.2-0.2,0.5-0.2,0.9V77.9z"/>
	<path class="st0" d="M348.1,75l0.1,0.7c0.1-0.2,0.3-0.4,0.5-0.6c0.2-0.1,0.4-0.2,0.7-0.2c0.3,0,0.5,0.1,0.7,0.2s0.3,0.3,0.4,0.6
		c0.1-0.3,0.3-0.5,0.5-0.6s0.4-0.2,0.7-0.2c0.4,0,0.8,0.2,1,0.5s0.4,0.9,0.4,1.6v3.1h-1.3V77c0-0.4,0-0.7-0.1-0.8s-0.2-0.2-0.4-0.2
		c-0.1,0-0.2,0-0.3,0.1c-0.1,0.1-0.2,0.2-0.2,0.3c0,0.1,0,0.1,0,0.2s0,0.1,0,0.2v3.3h-1.3V77c0-0.4,0-0.7-0.1-0.8
		c-0.1-0.2-0.2-0.2-0.4-0.2c-0.1,0-0.2,0-0.3,0.1c-0.1,0.1-0.2,0.1-0.2,0.3v3.8h-1.3V75H348.1z"/>
	<path class="st0" d="M357.7,77.9c0,0.7-0.1,1.2-0.4,1.6s-0.7,0.6-1.2,0.6c-0.2,0-0.4,0-0.6-0.1s-0.3-0.2-0.4-0.4V82h-1.3v-7h1.2
		v0.5c0.1-0.2,0.3-0.3,0.4-0.4c0.2-0.1,0.4-0.2,0.6-0.2c0.5,0,1,0.2,1.2,0.7c0.3,0.4,0.4,1,0.4,1.7v0.6H357.7z M356.4,77.3
		c0-0.4-0.1-0.7-0.2-1s-0.3-0.4-0.5-0.4c-0.1,0-0.3,0-0.4,0.1s-0.2,0.2-0.2,0.3v2.4c0.1,0.1,0.1,0.2,0.2,0.3
		c0.1,0.1,0.2,0.1,0.4,0.1c0.2,0,0.4-0.1,0.5-0.3c0.1-0.2,0.2-0.5,0.2-0.9V77.3z"/>
	<path class="st0" d="M359.6,80.1h-1.3v-7.4h1.3V80.1z"/>
	<path class="st0" d="M362.3,80.2c-0.6,0-1.2-0.2-1.5-0.6c-0.4-0.4-0.6-1-0.6-1.6v-0.7c0-0.7,0.2-1.3,0.5-1.7s0.8-0.7,1.5-0.7
		c0.6,0,1.1,0.2,1.4,0.6s0.5,0.9,0.5,1.6V78h-2.6l0,0c0,0.3,0.1,0.6,0.2,0.8c0.2,0.2,0.4,0.3,0.7,0.3c0.3,0,0.5,0,0.6-0.1
		c0.2-0.1,0.3-0.2,0.6-0.3l0.3,0.9c-0.2,0.2-0.4,0.3-0.7,0.4S362.6,80.2,362.3,80.2z M362.2,76c-0.2,0-0.4,0.1-0.5,0.3
		c-0.1,0.2-0.2,0.5-0.2,0.8h1.2v-0.2c0-0.3,0-0.5-0.1-0.7C362.5,76,362.4,76,362.2,76z"/>
	<path class="st0" d="M366.1,73.7V75h0.7v1h-0.7v2.6c0,0.2,0,0.4,0.1,0.4s0.1,0.1,0.2,0.1s0.2,0,0.2,0s0.1,0,0.2,0l0.1,1
		c-0.1,0-0.3,0.1-0.4,0.1s-0.3,0-0.4,0c-0.4,0-0.8-0.1-1-0.4s-0.3-0.7-0.3-1.3V76h-0.6v-1h0.6v-1.3H366.1z"/>
	<path class="st0" d="M369.3,80.2c-0.6,0-1.2-0.2-1.5-0.6c-0.4-0.4-0.6-1-0.6-1.6v-0.7c0-0.7,0.2-1.3,0.5-1.7s0.8-0.7,1.5-0.7
		c0.6,0,1.1,0.2,1.4,0.6s0.5,0.9,0.5,1.6V78h-2.6l0,0c0,0.3,0.1,0.6,0.2,0.8c0.2,0.2,0.4,0.3,0.7,0.3c0.3,0,0.5,0,0.6-0.1
		c0.2-0.1,0.3-0.2,0.6-0.3l0.3,0.9c-0.2,0.2-0.4,0.3-0.7,0.4S369.6,80.2,369.3,80.2z M369.2,76c-0.2,0-0.4,0.1-0.5,0.3
		c-0.1,0.2-0.2,0.5-0.2,0.8h1.2v-0.2c0-0.3,0-0.5-0.1-0.7C369.5,76,369.4,76,369.2,76z"/>
	<path class="st0" d="M303.6,90.1h-1.3v-7.4h1.3V90.1z"/>
	<path class="st0" d="M305.6,83.8h-1.3v-1h1.3V83.8z M305.6,90.1h-1.3V85h1.3V90.1z"/>
	<path class="st0" d="M308.6,88.8c0-0.1-0.1-0.3-0.2-0.4s-0.3-0.2-0.7-0.4c-0.5-0.2-0.9-0.4-1.2-0.7c-0.3-0.2-0.4-0.6-0.4-0.9
		c0-0.4,0.2-0.8,0.5-1.1c0.3-0.3,0.8-0.4,1.3-0.4c0.6,0,1,0.2,1.4,0.5c0.3,0.3,0.5,0.7,0.5,1.2l0,0h-1.3c0-0.2,0-0.4-0.1-0.5
		s-0.2-0.2-0.4-0.2c-0.1,0-0.3,0-0.4,0.1s-0.2,0.2-0.2,0.4c0,0.2,0.1,0.3,0.2,0.4s0.3,0.2,0.7,0.4c0.5,0.2,0.9,0.4,1.2,0.6
		c0.3,0.2,0.4,0.6,0.4,1s-0.2,0.8-0.5,1.1c-0.3,0.3-0.8,0.4-1.4,0.4s-1.1-0.2-1.4-0.5s-0.5-0.7-0.5-1.2l0,0h1.2
		c0,0.3,0.1,0.5,0.2,0.6s0.3,0.2,0.5,0.2s0.3,0,0.4-0.1C308.5,89,308.6,88.9,308.6,88.8z"/>
	<path class="st0" d="M311.9,83.7V85h0.7v1h-0.7v2.6c0,0.2,0,0.4,0.1,0.4s0.1,0.1,0.2,0.1s0.2,0,0.2,0s0.1,0,0.2,0l0.1,1
		c-0.1,0-0.3,0.1-0.4,0.1s-0.3,0-0.4,0c-0.4,0-0.8-0.1-1-0.4s-0.3-0.7-0.3-1.3V86H310v-1h0.6v-1.3H311.9z"/>
	<path class="st0" d="M314.8,87.2c0-0.7,0.2-1.2,0.5-1.7c0.4-0.4,0.9-0.7,1.5-0.7s1.2,0.2,1.5,0.7c0.4,0.4,0.5,1,0.5,1.7v0.6
		c0,0.7-0.2,1.3-0.5,1.7c-0.4,0.4-0.9,0.6-1.5,0.6c-0.7,0-1.2-0.2-1.5-0.6c-0.4-0.4-0.5-1-0.5-1.7V87.2z M316.2,87.9
		c0,0.4,0.1,0.7,0.2,0.9s0.3,0.3,0.6,0.3c0.3,0,0.5-0.1,0.6-0.3c0.1-0.2,0.2-0.5,0.2-0.9v-0.6c0-0.4-0.1-0.7-0.2-0.9
		s-0.3-0.3-0.6-0.3s-0.5,0.1-0.6,0.3c-0.1,0.2-0.2,0.5-0.2,0.9V87.9z"/>
	<path class="st0" d="M319.7,90.1V86h-0.6v-1h0.6v-0.6c0-0.6,0.1-1,0.4-1.3s0.7-0.5,1.2-0.5c0.1,0,0.2,0,0.3,0c0.1,0,0.2,0,0.4,0.1
		l-0.1,1c-0.1,0-0.1,0-0.2,0s-0.1,0-0.2,0c-0.2,0-0.3,0.1-0.4,0.2s-0.1,0.3-0.1,0.5V85h0.8v1H321v4.1H319.7z"/>
	<path class="st0" d="M327.3,88.3c0-0.3-0.1-0.5-0.2-0.6c-0.1-0.2-0.4-0.3-0.7-0.5c-0.7-0.2-1.2-0.5-1.6-0.8s-0.5-0.8-0.5-1.3
		c0-0.6,0.2-1,0.6-1.4s0.9-0.5,1.6-0.5s1.2,0.2,1.6,0.6s0.6,0.9,0.6,1.5l0,0h-1.3c0-0.3-0.1-0.6-0.2-0.8s-0.4-0.3-0.7-0.3
		c-0.3,0-0.5,0.1-0.6,0.2c-0.1,0.2-0.2,0.4-0.2,0.6s0.1,0.4,0.2,0.6s0.5,0.3,0.9,0.5c0.7,0.2,1.1,0.5,1.5,0.8
		c0.3,0.3,0.5,0.8,0.5,1.4s-0.2,1.1-0.6,1.4s-0.9,0.5-1.6,0.5s-1.2-0.2-1.7-0.6s-0.7-0.9-0.7-1.6l0,0h1.3c0,0.4,0.1,0.7,0.3,0.9
		c0.2,0.2,0.4,0.3,0.8,0.3c0.3,0,0.5-0.1,0.6-0.2C327.2,88.8,327.3,88.6,327.3,88.3z"/>
	<path class="st0" d="M330.7,83.7V85h0.7v1h-0.7v2.6c0,0.2,0,0.4,0.1,0.4s0.1,0.1,0.2,0.1s0.2,0,0.2,0s0.1,0,0.2,0l0.1,1
		c-0.1,0-0.3,0.1-0.4,0.1s-0.3,0-0.4,0c-0.4,0-0.8-0.1-1-0.4s-0.3-0.7-0.3-1.3V86h-0.6v-1h0.6v-1.3H330.7z"/>
	<path class="st0" d="M334.4,90.1c0-0.1-0.1-0.2-0.1-0.3c0-0.1-0.1-0.2-0.1-0.3c-0.1,0.2-0.3,0.4-0.5,0.5s-0.4,0.2-0.6,0.2
		c-0.4,0-0.8-0.1-1-0.4c-0.3-0.3-0.4-0.6-0.4-1.1s0.2-0.9,0.5-1.2c0.3-0.3,0.8-0.4,1.4-0.4h0.5v-0.4c0-0.2,0-0.4-0.1-0.6
		c-0.1-0.1-0.2-0.2-0.4-0.2c-0.2,0-0.3,0.1-0.3,0.2c-0.1,0.1-0.1,0.3-0.1,0.5h-1.3l0,0c0-0.4,0.1-0.8,0.5-1.1s0.8-0.5,1.4-0.5
		c0.5,0,1,0.2,1.3,0.5s0.5,0.8,0.5,1.3v2.1c0,0.3,0,0.5,0.1,0.7c0,0.2,0.1,0.4,0.2,0.6h-1.5V90.1z M333.5,89.2c0.1,0,0.3,0,0.4-0.1
		s0.2-0.2,0.3-0.3v-0.9h-0.5c-0.2,0-0.4,0.1-0.4,0.2s-0.1,0.3-0.1,0.5s0,0.3,0.1,0.4C333.3,89.1,333.4,89.2,333.5,89.2z"/>
	<path class="st0" d="M337.7,83.7V85h0.7v1h-0.7v2.6c0,0.2,0,0.4,0.1,0.4s0.1,0.1,0.2,0.1s0.2,0,0.2,0s0.1,0,0.2,0l0.1,1
		c-0.1,0-0.3,0.1-0.4,0.1s-0.3,0-0.4,0c-0.4,0-0.8-0.1-1-0.4s-0.3-0.7-0.3-1.3V86h-0.6v-1h0.6v-1.3H337.7z"/>
	<path class="st0" d="M341,90.2c-0.6,0-1.2-0.2-1.5-0.6c-0.4-0.4-0.6-1-0.6-1.6v-0.7c0-0.7,0.2-1.3,0.5-1.7s0.8-0.7,1.5-0.7
		c0.6,0,1.1,0.2,1.4,0.6s0.5,0.9,0.5,1.6V88h-2.5l0,0c0,0.3,0.1,0.6,0.2,0.8c0.2,0.2,0.4,0.3,0.7,0.3c0.3,0,0.5,0,0.6-0.1
		c0.2-0.1,0.3-0.2,0.6-0.3l0.3,0.9c-0.2,0.2-0.4,0.3-0.7,0.4S341.3,90.2,341,90.2z M340.8,86c-0.2,0-0.4,0.1-0.5,0.3
		c-0.1,0.2-0.2,0.5-0.2,0.8h1.2v-0.2c0-0.3,0-0.5-0.1-0.7C341.2,86,341,86,340.8,86z"/>
	<path class="st0" d="M348.2,88.6h-1.8l-0.4,1.5h-1.4l1.9-6.9h1.4l1.9,6.9h-1.4L348.2,88.6z M346.7,87.6h1.3l-0.6-2.4l0,0
		L346.7,87.6z"/>
	<path class="st0" d="M354.1,87.9c0,0.7-0.1,1.2-0.4,1.6s-0.7,0.6-1.2,0.6c-0.2,0-0.4,0-0.6-0.1s-0.3-0.2-0.4-0.4V92h-1.3v-7h1.2
		v0.5c0.1-0.2,0.3-0.3,0.4-0.4c0.2-0.1,0.4-0.2,0.6-0.2c0.5,0,1,0.2,1.2,0.7c0.3,0.4,0.4,1,0.4,1.7v0.6H354.1z M352.8,87.3
		c0-0.4-0.1-0.7-0.2-1s-0.3-0.4-0.5-0.4c-0.1,0-0.3,0-0.4,0.1s-0.2,0.2-0.2,0.3v2.4c0.1,0.1,0.1,0.2,0.2,0.3
		c0.1,0.1,0.2,0.1,0.4,0.1c0.2,0,0.4-0.1,0.5-0.3c0.1-0.2,0.2-0.5,0.2-0.9V87.3z"/>
	<path class="st0" d="M358.6,87.9c0,0.7-0.1,1.2-0.4,1.6s-0.7,0.6-1.2,0.6c-0.2,0-0.4,0-0.6-0.1s-0.3-0.2-0.4-0.4V92h-1.3v-7h1.2
		v0.5c0.1-0.2,0.3-0.3,0.4-0.4c0.2-0.1,0.4-0.2,0.6-0.2c0.5,0,1,0.2,1.2,0.7c0.3,0.4,0.4,1,0.4,1.7v0.6H358.6z M357.3,87.3
		c0-0.4-0.1-0.7-0.2-1s-0.3-0.3-0.6-0.3c-0.1,0-0.3,0-0.4,0.1s-0.2,0.2-0.2,0.3v2.4c0.1,0.1,0.1,0.2,0.2,0.3
		c0.1,0.1,0.2,0.1,0.4,0.1c0.2,0,0.4-0.1,0.5-0.3c0.1-0.2,0.2-0.5,0.2-0.9v-0.7H357.3z"/>
	<path class="st0" d="M361.5,86.2H361c-0.1,0-0.3,0-0.4,0.1s-0.2,0.2-0.2,0.3v3.5h-1.3V85h1.2l0.1,0.7l0,0c0.1-0.2,0.2-0.4,0.3-0.6
		c0.1-0.1,0.3-0.2,0.5-0.2c0.1,0,0.1,0,0.2,0s0.1,0,0.2,0L361.5,86.2z"/>
	<path class="st0" d="M361.6,87.2c0-0.7,0.2-1.2,0.5-1.7c0.4-0.4,0.9-0.7,1.5-0.7s1.2,0.2,1.5,0.7c0.4,0.4,0.5,1,0.5,1.7v0.6
		c0,0.7-0.2,1.3-0.5,1.7c-0.4,0.4-0.9,0.6-1.5,0.6c-0.7,0-1.2-0.2-1.5-0.6c-0.4-0.4-0.5-1-0.5-1.7V87.2z M363,87.9
		c0,0.4,0.1,0.7,0.2,0.9s0.3,0.3,0.6,0.3c0.3,0,0.5-0.1,0.6-0.3c0.1-0.2,0.2-0.5,0.2-0.9v-0.6c0-0.4-0.1-0.7-0.2-0.9
		s-0.3-0.3-0.6-0.3s-0.5,0.1-0.6,0.3c-0.1,0.2-0.2,0.5-0.2,0.9V87.9z"/>
	<path class="st0" d="M367.8,88.2l0.1,0.4l0,0l0.1-0.4l0.6-3.2h1.4l-1.4,5.1h-1.3l-1.4-5.1h1.4L367.8,88.2z"/>
	<path class="st0" d="M372.2,90.2c-0.6,0-1.2-0.2-1.5-0.6c-0.4-0.4-0.6-1-0.6-1.6v-0.7c0-0.7,0.2-1.3,0.5-1.7s0.8-0.7,1.5-0.7
		c0.6,0,1.1,0.2,1.4,0.6s0.5,0.9,0.5,1.6V88h-2.5l0,0c0,0.3,0.1,0.6,0.2,0.8c0.2,0.2,0.4,0.3,0.7,0.3c0.3,0,0.5,0,0.6-0.1
		c0.2-0.1,0.3-0.2,0.6-0.3l0.3,0.9c-0.2,0.2-0.4,0.3-0.7,0.4S372.5,90.2,372.2,90.2z M372,86c-0.2,0-0.4,0.1-0.5,0.3
		c-0.1,0.2-0.2,0.5-0.2,0.8h1.2v-0.2c0-0.3,0-0.5-0.1-0.7C372.4,86,372.2,86,372,86z"/>
	<path class="st0" d="M374.2,87.6c0-0.8,0.1-1.4,0.4-1.9s0.7-0.7,1.3-0.7c0.2,0,0.4,0,0.5,0.1c0.2,0.1,0.3,0.2,0.4,0.4v-2.7h1.3v7.4
		h-1.2l-0.1-0.6c-0.1,0.2-0.3,0.4-0.5,0.5s-0.4,0.2-0.6,0.2c-0.5,0-1-0.2-1.2-0.7S374.2,88.4,374.2,87.6L374.2,87.6z M375.5,87.7
		c0,0.5,0.1,0.8,0.2,1.1c0.1,0.3,0.3,0.4,0.5,0.4c0.1,0,0.3,0,0.4-0.1s0.2-0.2,0.3-0.3v-2.3c-0.1-0.1-0.2-0.3-0.3-0.3
		c-0.1-0.1-0.2-0.1-0.4-0.1c-0.2,0-0.4,0.1-0.5,0.4C375.6,86.7,375.5,87.1,375.5,87.7L375.5,87.7z"/>
	<path class="st0" d="M295.3,97.6v2.5H294v-6.9h2.4c0.7,0,1.2,0.2,1.6,0.6s0.6,0.9,0.6,1.6s-0.2,1.2-0.6,1.6s-0.9,0.6-1.6,0.6
		C296.4,97.6,295.3,97.6,295.3,97.6z M295.3,96.6h1c0.3,0,0.5-0.1,0.7-0.3c0.2-0.2,0.2-0.5,0.2-0.8s-0.1-0.6-0.2-0.8
		s-0.4-0.3-0.7-0.3h-1V96.6z"/>
	<path class="st0" d="M301.5,96.2H301c-0.1,0-0.3,0-0.4,0.1s-0.2,0.2-0.2,0.3v3.5h-1.3V95h1.2l0.1,0.7l0,0c0.1-0.2,0.2-0.4,0.3-0.6
		c0.1-0.1,0.3-0.2,0.5-0.2c0.1,0,0.1,0,0.2,0s0.1,0,0.2,0L301.5,96.2z"/>
	<path class="st0" d="M301.7,97.2c0-0.7,0.2-1.2,0.5-1.7c0.4-0.4,0.9-0.7,1.5-0.7s1.2,0.2,1.5,0.7c0.4,0.4,0.5,1,0.5,1.7v0.6
		c0,0.7-0.2,1.3-0.5,1.7c-0.4,0.4-0.9,0.6-1.5,0.6c-0.7,0-1.2-0.2-1.5-0.6c-0.4-0.4-0.5-1-0.5-1.7V97.2z M303,97.9
		c0,0.4,0.1,0.7,0.2,0.9s0.3,0.3,0.6,0.3c0.3,0,0.5-0.1,0.6-0.3c0.1-0.2,0.2-0.5,0.2-0.9v-0.6c0-0.4-0.1-0.7-0.2-0.9
		s-0.3-0.3-0.6-0.3s-0.5,0.1-0.6,0.3c-0.1,0.2-0.2,0.5-0.2,0.9V97.9z"/>
	<path class="st0" d="M306.6,100.1V96H306v-1h0.6v-0.6c0-0.6,0.1-1,0.4-1.3s0.7-0.5,1.2-0.5c0.1,0,0.2,0,0.3,0c0.1,0,0.2,0,0.4,0.1
		l-0.1,1c-0.1,0-0.1,0-0.2,0s-0.1,0-0.2,0c-0.2,0-0.3,0.1-0.4,0.2s-0.1,0.3-0.1,0.5V95h0.8v1h-0.8v4.1H306.6z"/>
	<path class="st0" d="M311,100.2c-0.6,0-1.2-0.2-1.5-0.6c-0.4-0.4-0.6-1-0.6-1.6v-0.7c0-0.7,0.2-1.3,0.5-1.7s0.8-0.7,1.5-0.7
		c0.6,0,1.1,0.2,1.4,0.6s0.5,0.9,0.5,1.6V98h-2.5l0,0c0,0.3,0.1,0.6,0.2,0.8c0.2,0.2,0.4,0.3,0.7,0.3c0.3,0,0.5,0,0.6-0.1
		c0.2-0.1,0.3-0.2,0.6-0.3l0.3,0.9c-0.2,0.2-0.4,0.3-0.7,0.4S311.3,100.2,311,100.2z M310.9,96c-0.2,0-0.4,0.1-0.5,0.3
		c-0.1,0.2-0.2,0.5-0.2,0.8h1.2v-0.2c0-0.3,0-0.5-0.1-0.7C311.2,96,311.1,96,310.9,96z"/>
	<path class="st0" d="M315.4,98.8c0-0.1-0.1-0.3-0.2-0.4s-0.3-0.2-0.7-0.4c-0.5-0.2-0.9-0.4-1.2-0.7c-0.3-0.2-0.4-0.6-0.4-0.9
		c0-0.4,0.2-0.8,0.5-1.1c0.3-0.3,0.8-0.4,1.3-0.4c0.6,0,1,0.2,1.4,0.5c0.3,0.3,0.5,0.7,0.5,1.2l0,0h-1.3c0-0.2,0-0.4-0.1-0.5
		s-0.2-0.2-0.4-0.2c-0.1,0-0.3,0-0.4,0.1s-0.2,0.2-0.2,0.4c0,0.2,0.1,0.3,0.2,0.4s0.3,0.2,0.7,0.4c0.5,0.2,0.9,0.4,1.2,0.6
		c0.3,0.2,0.4,0.6,0.4,1s-0.2,0.8-0.5,1.1c-0.3,0.3-0.8,0.4-1.4,0.4s-1.1-0.2-1.4-0.5s-0.5-0.7-0.5-1.2l0,0h1.2
		c0,0.3,0.1,0.5,0.2,0.6s0.3,0.2,0.5,0.2s0.3,0,0.4-0.1C315.4,99,315.4,98.9,315.4,98.8z"/>
	<path class="st0" d="M319.4,98.8c0-0.1-0.1-0.3-0.2-0.4s-0.3-0.2-0.7-0.4c-0.5-0.2-0.9-0.4-1.2-0.7c-0.3-0.2-0.4-0.6-0.4-0.9
		c0-0.4,0.2-0.8,0.5-1.1c0.3-0.3,0.8-0.4,1.3-0.4c0.6,0,1,0.2,1.4,0.5c0.3,0.3,0.5,0.7,0.5,1.2l0,0h-1.3c0-0.2,0-0.4-0.1-0.5
		s-0.2-0.2-0.4-0.2c-0.1,0-0.3,0-0.4,0.1s-0.2,0.2-0.2,0.4c0,0.2,0.1,0.3,0.2,0.4s0.3,0.2,0.7,0.4c0.5,0.2,0.9,0.4,1.2,0.6
		c0.3,0.2,0.4,0.6,0.4,1s-0.2,0.8-0.5,1.1c-0.3,0.3-0.8,0.4-1.4,0.4s-1.1-0.2-1.4-0.5s-0.5-0.7-0.5-1.2l0,0h1.2
		c0,0.3,0.1,0.5,0.2,0.6s0.3,0.2,0.5,0.2s0.3,0,0.4-0.1C319.3,99,319.4,98.9,319.4,98.8z"/>
	<path class="st0" d="M322.5,93.8h-1.3v-1h1.3V93.8z M322.5,100.1h-1.3V95h1.3V100.1z"/>
	<path class="st0" d="M323,97.2c0-0.7,0.2-1.2,0.5-1.7c0.4-0.4,0.9-0.7,1.5-0.7s1.2,0.2,1.5,0.7c0.4,0.4,0.5,1,0.5,1.7v0.6
		c0,0.7-0.2,1.3-0.5,1.7c-0.4,0.4-0.9,0.6-1.5,0.6c-0.7,0-1.2-0.2-1.5-0.6c-0.4-0.4-0.5-1-0.5-1.7V97.2z M324.4,97.9
		c0,0.4,0.1,0.7,0.2,0.9s0.3,0.3,0.6,0.3c0.3,0,0.5-0.1,0.6-0.3c0.1-0.2,0.2-0.5,0.2-0.9v-0.6c0-0.4-0.1-0.7-0.2-0.9
		s-0.3-0.3-0.6-0.3s-0.5,0.1-0.6,0.3c-0.1,0.2-0.2,0.5-0.2,0.9V97.9z"/>
	<path class="st0" d="M328.9,95l0.1,0.7c0.1-0.3,0.3-0.4,0.5-0.6c0.2-0.1,0.4-0.2,0.7-0.2c0.4,0,0.8,0.2,1,0.5s0.4,0.8,0.4,1.5v3.2
		h-1.3v-3.2c0-0.4,0-0.6-0.1-0.7s-0.3-0.2-0.5-0.2c-0.1,0-0.2,0-0.3,0.1c-0.1,0.1-0.2,0.1-0.3,0.3v3.8h-1.3V95H328.9z"/>
	<path class="st0" d="M334.6,100.1c0-0.1-0.1-0.2-0.1-0.3c0-0.1-0.1-0.2-0.1-0.3c-0.1,0.2-0.3,0.4-0.5,0.5s-0.4,0.2-0.6,0.2
		c-0.4,0-0.8-0.1-1-0.4c-0.3-0.3-0.4-0.6-0.4-1.1s0.2-0.9,0.5-1.2c0.3-0.3,0.8-0.4,1.4-0.4h0.5v-0.4c0-0.2,0-0.4-0.1-0.6
		c-0.1-0.1-0.2-0.2-0.4-0.2c-0.2,0-0.3,0.1-0.3,0.2c-0.1,0.1-0.1,0.3-0.1,0.5h-1.3l0,0c0-0.4,0.1-0.8,0.5-1.1s0.8-0.5,1.4-0.5
		c0.5,0,1,0.2,1.3,0.5s0.5,0.8,0.5,1.3v2.1c0,0.3,0,0.5,0.1,0.7c0,0.2,0.1,0.4,0.2,0.6h-1.5V100.1z M333.7,99.2c0.1,0,0.3,0,0.4-0.1
		s0.2-0.2,0.3-0.3v-0.9h-0.5c-0.2,0-0.4,0.1-0.4,0.2s-0.1,0.3-0.1,0.5s0,0.3,0.1,0.4C333.5,99.1,333.6,99.2,333.7,99.2z"/>
	<path class="st0" d="M337.7,100.1h-1.3v-7.4h1.3V100.1z"/>
	<path class="st0" d="M340.4,100.1v-6.9h2.1c0.7,0,1.3,0.3,1.7,0.8s0.7,1.2,0.7,2.1v1.2c0,0.8-0.2,1.5-0.7,2.1
		c-0.5,0.5-1,0.8-1.7,0.8h-2.1V100.1z M341.7,94.3V99h0.7c0.4,0,0.7-0.2,0.9-0.5c0.2-0.3,0.3-0.8,0.3-1.3V96c0-0.5-0.1-1-0.3-1.3
		c-0.2-0.3-0.5-0.5-0.9-0.5h-0.7V94.3z"/>
	<path class="st0" d="M347.5,100.2c-0.6,0-1.2-0.2-1.5-0.6c-0.4-0.4-0.6-1-0.6-1.6v-0.7c0-0.7,0.2-1.3,0.5-1.7s0.8-0.7,1.5-0.7
		c0.6,0,1.1,0.2,1.4,0.6s0.5,0.9,0.5,1.6V98h-2.5l0,0c0,0.3,0.1,0.6,0.2,0.8c0.2,0.2,0.4,0.3,0.7,0.3c0.3,0,0.5,0,0.6-0.1
		c0.2-0.1,0.3-0.2,0.6-0.3l0.3,0.9c-0.2,0.2-0.4,0.3-0.7,0.4S347.8,100.2,347.5,100.2z M347.3,96c-0.2,0-0.4,0.1-0.5,0.3
		c-0.1,0.2-0.2,0.5-0.2,0.8h1.2v-0.2c0-0.3,0-0.5-0.1-0.7C347.7,96,347.5,96,347.3,96z"/>
	<path class="st0" d="M351.2,98.2l0.1,0.4l0,0l0.1-0.4L352,95h1.4l-1.4,5.1h-1.3l-1.4-5.1h1.4L351.2,98.2z"/>
	<path class="st0" d="M355.6,100.2c-0.6,0-1.2-0.2-1.5-0.6c-0.4-0.4-0.6-1-0.6-1.6v-0.7c0-0.7,0.2-1.3,0.5-1.7s0.8-0.7,1.5-0.7
		c0.6,0,1.1,0.2,1.4,0.6s0.5,0.9,0.5,1.6V98h-2.5l0,0c0,0.3,0.1,0.6,0.2,0.8c0.2,0.2,0.4,0.3,0.7,0.3c0.3,0,0.5,0,0.6-0.1
		c0.2-0.1,0.3-0.2,0.6-0.3l0.3,0.9c-0.2,0.2-0.4,0.3-0.7,0.4S355.9,100.2,355.6,100.2z M355.4,96c-0.2,0-0.4,0.1-0.5,0.3
		c-0.1,0.2-0.2,0.5-0.2,0.8h1.2v-0.2c0-0.3,0-0.5-0.1-0.7C355.8,96,355.6,96,355.4,96z"/>
	<path class="st0" d="M359.2,100.1h-1.3v-7.4h1.3V100.1z"/>
	<path class="st0" d="M359.7,97.2c0-0.7,0.2-1.2,0.5-1.7c0.4-0.4,0.9-0.7,1.5-0.7s1.2,0.2,1.5,0.7c0.4,0.4,0.5,1,0.5,1.7v0.6
		c0,0.7-0.2,1.3-0.5,1.7c-0.4,0.4-0.9,0.6-1.5,0.6c-0.7,0-1.2-0.2-1.5-0.6c-0.4-0.4-0.5-1-0.5-1.7V97.2z M361,97.9
		c0,0.4,0.1,0.7,0.2,0.9s0.3,0.3,0.6,0.3c0.3,0,0.5-0.1,0.6-0.3c0.1-0.2,0.2-0.5,0.2-0.9v-0.6c0-0.4-0.1-0.7-0.2-0.9
		s-0.3-0.3-0.6-0.3s-0.5,0.1-0.6,0.3c-0.1,0.2-0.2,0.5-0.2,0.9V97.9z"/>
	<path class="st0" d="M368.3,97.9c0,0.7-0.1,1.2-0.4,1.6s-0.7,0.6-1.2,0.6c-0.2,0-0.4,0-0.6-0.1s-0.3-0.2-0.4-0.4v2.4h-1.3v-7h1.2
		v0.5c0.1-0.2,0.3-0.3,0.4-0.4c0.2-0.1,0.4-0.2,0.6-0.2c0.5,0,1,0.2,1.2,0.7c0.3,0.4,0.4,1,0.4,1.7v0.6H368.3z M367,97.3
		c0-0.4-0.1-0.7-0.2-1s-0.3-0.3-0.5-0.3c-0.1,0-0.3,0-0.4,0.1s-0.2,0.2-0.2,0.3v2.4c0.1,0.1,0.1,0.2,0.2,0.3
		c0.1,0.1,0.2,0.1,0.4,0.1c0.2,0,0.4-0.1,0.5-0.3c0.1-0.2,0.2-0.5,0.2-0.9V97.3z"/>
	<path class="st0" d="M370,95l0.1,0.7c0.1-0.2,0.3-0.4,0.5-0.6c0.2-0.1,0.4-0.2,0.7-0.2c0.3,0,0.5,0.1,0.7,0.2s0.3,0.3,0.4,0.6
		c0.1-0.3,0.3-0.5,0.5-0.6s0.4-0.2,0.7-0.2c0.4,0,0.8,0.2,1,0.5s0.4,0.9,0.4,1.6v3.1h-1.3V97c0-0.4,0-0.7-0.1-0.8s-0.2-0.2-0.4-0.2
		c-0.1,0-0.2,0-0.3,0.1c-0.1,0.1-0.2,0.2-0.2,0.3c0,0.1,0,0.1,0,0.2s0,0.1,0,0.2v3.3h-1.3V97c0-0.4,0-0.7-0.1-0.8
		c-0.1-0.2-0.2-0.2-0.4-0.2c-0.1,0-0.2,0-0.3,0.1c-0.1,0.1-0.2,0.1-0.2,0.3v3.8h-1.3V95H370z"/>
	<path class="st0" d="M377.6,100.2c-0.6,0-1.2-0.2-1.5-0.6c-0.4-0.4-0.6-1-0.6-1.6v-0.7c0-0.7,0.2-1.3,0.5-1.7s0.8-0.7,1.5-0.7
		c0.6,0,1.1,0.2,1.4,0.6s0.5,0.9,0.5,1.6V98h-2.5l0,0c0,0.3,0.1,0.6,0.2,0.8c0.2,0.2,0.4,0.3,0.7,0.3c0.3,0,0.5,0,0.6-0.1
		c0.2-0.1,0.3-0.2,0.6-0.3l0.3,0.9c-0.2,0.2-0.4,0.3-0.7,0.4S378,100.2,377.6,100.2z M377.5,96c-0.2,0-0.4,0.1-0.5,0.3
		c-0.1,0.2-0.2,0.5-0.2,0.8h1.2v-0.2c0-0.3,0-0.5-0.1-0.7C377.8,96,377.7,96,377.5,96z"/>
	<path class="st0" d="M381,95l0.1,0.7c0.1-0.3,0.3-0.4,0.5-0.6c0.2-0.1,0.4-0.2,0.7-0.2c0.4,0,0.8,0.2,1,0.5s0.4,0.8,0.4,1.5v3.2
		h-1.3v-3.2c0-0.4,0-0.6-0.1-0.7S382,96,381.8,96c-0.1,0-0.2,0-0.3,0.1c-0.1,0.1-0.2,0.1-0.3,0.3v3.8h-1.3V95H381z"/>
	<path class="st0" d="M385.9,93.7V95h0.7v1h-0.7v2.6c0,0.2,0,0.4,0.1,0.4s0.1,0.1,0.2,0.1s0.2,0,0.2,0s0.1,0,0.2,0l0.1,1
		c-0.1,0-0.3,0.1-0.4,0.1s-0.3,0-0.4,0c-0.4,0-0.8-0.1-1-0.4s-0.3-0.7-0.3-1.3V96H384v-1h0.6v-1.3H385.9z"/>
</g>
<g>
	<path class="st0" d="M49.7,102.957c2.957,1.608,6.048,3.12,9.269,4.533c3.22,1.413,6.57,2.364,10.048,2.853
		c3.479,0.487,7.125,0.325,10.94-0.489c3.814-0.814,7.829-2.69,12.047-5.629c-4.46,5.736-8.866,9.674-13.216,11.814
		c-4.353,2.14-8.628,3.191-12.827,3.155c-4.202-0.038-8.267-0.845-12.198-2.418c-3.933-1.576-7.713-3.25-11.342-5.024
		c-2.478,2.491-5.076,4.647-7.794,6.474c-2.719,1.825-5.582,3.117-8.587,3.878c-4.817,1.299-8.897,1.593-12.238,0.886
		c-3.342-0.708-5.951-1.95-7.829-3.725c-1.877-1.776-3.024-3.902-3.436-6.378c-0.413-2.476-0.067-4.921,1.034-7.331
		c1.103-2.409,2.987-4.566,5.656-6.467c2.668-1.901,6.122-3.181,10.363-3.843c4.249-0.579,8.172-0.47,11.769,0.33
		c3.596,0.8,7.029,1.946,10.3,3.435l0.213-0.269c-2.32-1.03-4.527-1.953-6.617-2.767c-2.093-0.813-3.964-1.326-5.618-1.541
		c1.266-0.31,3.047-0.071,5.339,0.718c2.292,0.791,4.682,1.732,7.174,2.825c1.996-3.818,3.968-8.183,5.918-13.097
		c1.948-4.912,3.839-9.982,5.67-15.206c1.831-5.225,3.523-10.412,5.078-15.564c1.554-5.15,2.917-9.853,4.088-14.105
		c1.17-4.25,2.104-7.923,2.801-11.02c0.695-3.094,1.103-5.179,1.222-6.252c0.216,0.463,0.356,1.139,0.421,2.027
		c0.062,0.89,0.089,1.803,0.077,2.741c-0.012,0.939-0.068,1.861-0.164,2.768c-0.098,0.909-0.234,1.658-0.408,2.248
		c0.628-2.274,1.084-4.465,1.367-6.575c0.281-2.111,0.42-3.532,0.416-4.265c0.492,0.025,1.247,0.385,2.265,1.078
		c1.018,0.696,2.027,1.656,3.027,2.883c0.999,1.228,1.8,2.682,2.405,4.361c0.604,1.682,0.737,3.518,0.402,5.513
		c-0.209,1.002-0.609,2.802-1.2,5.395c-0.593,2.596-1.426,5.727-2.502,9.397c-1.078,3.67-2.357,7.69-3.84,12.058
		c-1.485,4.371-3.178,8.847-5.084,13.427c-1.906,4.582-4.001,9.125-6.283,13.628c-2.282,4.505-4.748,8.664-7.396,12.476
		c0.609,0.337,1.173,0.617,1.687,0.841c0.516,0.226,0.992,0.475,1.432,0.749c1.639,0.785,3.608,1.593,5.906,2.423
		c2.296,0.83,4.584,1.58,6.862,2.25c2.277,0.668,4.412,1.151,6.402,1.449c1.989,0.295,3.497,0.302,4.523,0.019
		c-1.089,0.452-2.533,0.642-4.332,0.569c-1.802-0.075-3.789-0.35-5.962-0.828c-2.176-0.478-4.453-1.149-6.834-2.009
		c-2.383-0.861-4.659-1.856-6.826-2.988c-0.601-0.254-1.161-0.515-1.68-0.78c-0.52-0.264-1.086-0.564-1.694-0.901L49.7,102.957z
		 M25.292,98c-1.522-0.473-3.156-0.687-4.903-0.647c-1.747,0.042-3.444,0.324-5.094,0.842c-1.649,0.52-3.116,1.221-4.396,2.104
		c-1.282,0.883-2.223,1.891-2.823,3.019c0.354-0.449,1.058-1.041,2.113-1.776c1.054-0.734,2.339-1.414,3.854-2.041
		c1.515-0.624,3.23-1.112,5.144-1.458C21.101,97.697,23.135,97.683,25.292,98z M24.101,118.056c2.06-0.486,4.075-1.538,6.045-3.153
		c1.967-1.617,3.861-3.712,5.678-6.287c-3.262-1.408-6.538-2.43-9.829-3.063c-3.293-0.631-6.615-0.303-9.965,0.986
		c-2.498,0.946-4.216,2.266-5.156,3.965c-0.942,1.699-1.041,3.278-0.299,4.739c-0.165-0.713-0.181-1.365-0.046-1.949
		c0.134-0.587,0.268-1.009,0.402-1.27c-0.078,2.126,0.621,3.734,2.093,4.825c1.472,1.09,3.154,1.726,5.051,1.913
		C19.79,118.807,21.798,118.571,24.101,118.056z M14.258,101.86c0.464-0.216,1.542-0.566,3.238-1.052
		c1.694-0.483,3.614-0.607,5.76-0.37c-0.269-0.212-0.738-0.381-1.404-0.507c-0.668-0.123-1.426-0.178-2.279-0.16
		c-0.853,0.02-1.77,0.189-2.751,0.506C15.84,100.596,14.985,101.124,14.258,101.86z M21.936,103.77
		c-0.672-0.166-1.669-0.171-2.995-0.015c-1.326,0.156-2.273,0.594-2.84,1.311c0.623-0.236,1.446-0.515,2.468-0.839
		C19.588,103.904,20.712,103.751,21.936,103.77z M66.192,36.261c-0.261,1.252-0.71,3.159-1.345,5.718
		c-0.637,2.56-1.436,5.464-2.399,8.712c-0.964,3.25-2.044,6.716-3.24,10.4c-1.198,3.684-2.451,7.234-3.761,10.645
		c0.448-1.031,1.036-2.444,1.763-4.24c0.725-1.795,1.486-3.819,2.282-6.071c0.793-2.251,1.577-4.603,2.349-7.057
		c0.77-2.452,1.468-4.834,2.094-7.15c0.624-2.313,1.149-4.43,1.576-6.355C65.936,38.939,66.162,37.406,66.192,36.261z"/>
</g>
</svg>
