<?xml version="1.0" encoding="utf-8"?>
<!-- Generator: Adobe Illustrator 21.0.2, SVG Export Plug-In . SVG Version: 6.00 Build 0)  -->
<svg version="1.1" id="Layer_1" xmlns="http://www.w3.org/2000/svg" xmlns:xlink="http://www.w3.org/1999/xlink" x="0px" y="0px"
	 viewBox="0 0 50 10" style="enable-background:new 0 0 50 10;" xml:space="preserve">
<style type="text/css">
	.st0{fill:#ECEEEE;}
</style>
<g id="existing_customer_icon">
	<g>
		<path class="st0" d="M44.8,4.6c0.8,0,1.6-0.8,1.6-1.8c0-1.5-0.7-1.8-1.6-1.8s-1.6,0.5-1.6,1.8C43.2,3.8,43.9,4.6,44.8,4.6
			L44.8,4.6z"/>
		<path class="st0" d="M48.3,7.3l-0.8-1.8c0-0.1-0.1-0.1-0.1-0.2l-1.2-0.6c0,0,0,0-0.1,0C45.6,4.9,45.3,5,44.8,5
			c-0.5,0-0.8-0.1-1.2-0.4c0,0,0,0-0.1,0l-1.2,0.6c-0.1,0-0.1,0.1-0.1,0.2l-0.8,1.8c0,0.1,0,0.2,0,0.4c0.1,0.1,0.2,0.1,0.4,0.1h6.3
			c0.1,0,0.2-0.1,0.4-0.1C48.3,7.5,48.3,7.4,48.3,7.3L48.3,7.3z"/>
	</g>
</g>
</svg>
