<?xml version="1.0" encoding="utf-8"?>
<!-- Generator: Adobe Illustrator 21.0.2, SVG Export Plug-In . SVG Version: 6.00 Build 0)  -->
<svg version="1.1" id="Layer_1" xmlns="http://www.w3.org/2000/svg" xmlns:xlink="http://www.w3.org/1999/xlink" x="0px" y="0px"
	 viewBox="0 0 130 19" style="enable-background:new 0 0 130 19;" xml:space="preserve">
<style type="text/css">
	.st0{fill:#FFFFFF;}
</style>
<g>
	<path class="st0" d="M30.285,15.45c0-3.33,1.027-6.808,1.888-10.022l0.414-1.54c0.1-0.381,0.232-0.679,0.232-1.077l-0.182-0.182
		l-0.066,0.05l-0.017-0.116l-0.199-0.166l0.017-0.033c-0.149-0.017-0.282-0.116-0.431-0.116c-0.133,0-0.199,0.066-0.282,0.166
		c-0.149,0.182-0.248,0.398-0.381,0.58c-0.265,0.365-0.563,0.679-0.828,1.044c-0.762,1.011-1.474,2.054-2.203,3.098
		c-0.381,0.547-0.762,1.11-1.093,1.69c-0.116,0.199-0.398,0.779-0.513,0.895c0-0.232,0-0.447,0.033-0.679l0.365-3.131
		c0.083-0.646,0.182-1.292,0.315-1.922c0.033-0.182,0.166-0.696,0.166-0.845V2.927l-0.215-0.149
		c-0.199,0.365-0.282,0.779-0.414,1.16l-0.05-0.017l0.381-1.276l-0.116,0.099l-0.05-0.132L26.74,3.225h-0.017l0.282-0.663
		l-0.182-0.05l-0.116,0.099l0.017-0.116l-0.149-0.083c-0.215,0.166-0.431,0.315-0.629,0.497c-0.398,0.381-0.679,0.878-0.944,1.358
		c-1.16,2.071-2.087,4.241-2.949,6.46c0-0.249,0.05-0.513,0.083-0.762C22.4,8.112,23.03,6.34,23.692,4.6
		c0.149-0.381,1.077-2.302,1.077-2.468c0-0.099-0.066-0.199-0.133-0.265l0.017-0.066l-0.215-0.364h-0.083l-0.133-0.215
		c-0.431,0.199-0.845,0.447-1.276,0.663c-0.828,0.414-3.247,1.64-4.042,1.64c-0.133,0-0.215-0.083-0.298-0.083
		c-0.05,0-0.099,0.05-0.116,0.099c0.083,0.398,0.381,0.795,0.828,0.795c0.911,0,3.164-1.342,3.445-1.325
		c-0.282,0.679-0.613,1.342-0.878,2.038c-0.646,1.706-1.292,3.827-1.292,5.665c0,0.58,0.348,1.474,0.795,1.855
		c0.182,0.149,0.398,0.232,0.596,0.331l0.166-0.182l0.083,0.066c0.017-0.066,0.033-0.116,0.033-0.182
		c0.05-0.563,0.166-1.077,0.364-1.607c0.481-1.309,0.977-2.617,1.574-3.876c0.215-0.447,0.398-0.928,0.646-1.358
		c-0.166,0.48-0.447,0.911-0.629,1.375l-0.033,0.116c-0.099,0.298-0.249,0.547-0.365,0.828c-0.53,1.292-1.16,2.601-1.424,3.976
		c-0.033,0.182-0.083,0.364-0.083,0.546c0,0.05,0,0.116,0.017,0.166l0.182-0.017l0.033-0.149c0.116-0.629,0.265-1.226,0.464-1.822
		c0.679-1.971,1.524-3.893,2.501-5.732c-0.166,1.723-0.282,3.445-0.282,5.185c0,0.679-0.099,1.938,0.629,2.269
		c0.116,0.05,0.249,0.083,0.381,0.133l0.066-0.083c0.05,0.033,0.099,0.05,0.166,0.05c0.099,0,0.232-0.05,0.232-0.166
		c0-0.133-0.083-0.265-0.083-0.398c0-0.05,0.017-0.099,0.033-0.149c0.365-0.961,0.812-1.922,1.325-2.799
		c0.745-1.276,1.574-2.551,2.435-3.76L30.6,5.08c0,0.232-0.348,1.292-0.431,1.607c-0.381,1.425-0.828,2.849-1.044,4.323
		c-0.066,0.447-0.099,0.911-0.149,1.359c-0.05,0.513-0.116,1.027-0.116,1.54c0,0.944,0.149,2.534,0.464,3.412
		c0.166,0.447,0.53,0.729,1.011,0.729c0.099,0,0.199,0,0.298-0.017c-0.05-0.215-0.149-0.414-0.199-0.629
		C30.285,16.776,30.285,16.096,30.285,15.45z M32.521,2.712c0,0.017,0.017,0.05,0.017,0.05c0,0.066-0.05,0.116-0.083,0.166
		L32.521,2.712z M21.97,2.596V2.579l0.016,0.017H21.97z M22.649,2.761L22.185,2.96c0.166-0.083,0.315-0.182,0.497-0.232
		L22.649,2.761z M22.748,2.712c0.066-0.05,0.133-0.083,0.199-0.149c0,0.017,0,0.05,0.017,0.066
		C22.897,2.662,22.814,2.695,22.748,2.712z M22.069,11.557c-0.017-0.017-0.033-0.017-0.05-0.017
		c0.033-0.066,0.033-0.132,0.066-0.199C22.069,11.409,22.069,11.491,22.069,11.557z M22.119,12.286h-0.017
		c0-0.033,0.017-0.066,0.033-0.099C22.135,12.22,22.119,12.253,22.119,12.286z M22.235,12.237h-0.017l0.017-0.017V12.237z
		 M22.251,11.64v-0.066l0.017,0.017L22.251,11.64z M22.185,11.011l0.066-0.199l0.05-0.017
		C22.251,10.862,22.218,10.928,22.185,11.011z M22.367,10.514c0.017-0.083,0.017-0.182,0.099-0.232L22.367,10.514z M22.616,10.464
		v-0.017l0.016,0.017H22.616z M22.566,9.984v-0.05c0-0.05,0.033-0.099,0.083-0.116L22.566,9.984z M22.731,10.183l-0.016-0.017h0.016
		V10.183z M22.914,9.719l-0.017-0.017h0.017V9.719z M23.394,8.543V8.526l0.017,0.017H23.394z M24.14,6.34
		c0.017-0.083,0.017-0.182,0.116-0.215C24.222,6.19,24.173,6.257,24.14,6.34z M24.454,5.644c0.066-0.116,0.133-0.232,0.182-0.348
		C24.62,5.428,24.587,5.561,24.454,5.644z M22.483,12.286h-0.017l0.017-0.016V12.286z M22.616,11.657V11.64h0.016L22.616,11.657z
		 M25.63,4.319c0-0.017,0-0.05,0.017-0.066h0.017L25.63,4.319z M25.647,3.59V3.573l0.017,0.016L25.647,3.59L25.647,3.59z
		 M26.84,4.054h0.017c0,0.05-0.017,0.099-0.017,0.149l-0.033-0.017L26.84,4.054z M26.773,4.335h0.017v0.099h-0.017V4.335z
		 M26.177,10.762H26.16v-0.166h0.017V10.762z M26.177,10.431H26.16v-0.116h0.017V10.431z M26.177,10.199H26.16v-0.05h0.017V10.199z
		 M26.21,9.951h-0.017v-0.05h0.017V9.951z M26.194,9.768V9.255c0-0.497,0.083-1.16,0.133-1.656c0.066-0.729,0.132-1.458,0.248-2.187
		l0.05-0.066C26.475,6.82,26.326,8.294,26.194,9.768z M26.608,5.213c0-0.199,0.083-0.464,0.116-0.663l0.05,0.017l-0.149,0.762
		C26.624,5.279,26.608,5.246,26.608,5.213z M27.486,9.47l0.016-0.05h0.017L27.486,9.47z M29.556,6.19c-0.017,0-0.017,0-0.017-0.017
		h0.017V6.19z M30.12,11.988h-0.017v-0.066h0.017V11.988z M30.153,11.74h-0.016v-0.066h0.033
		C30.153,11.69,30.153,11.723,30.153,11.74z M31.113,7.532h0.017l-0.05,0.05L31.113,7.532z M30.964,8.029l0.017,0.016
		c0,0.017,0,0.017-0.017,0.033V8.029z M30.865,8.41v0.017h-0.017L30.865,8.41z M30.683,9.255l-0.066,0.182
		c-0.017,0-0.017,0-0.033-0.017L30.683,9.255z M30.567,9.62h0.016c-0.016,0.016-0.016,0.016-0.016,0.033V9.62z M30.517,9.851v0.083
		l-0.033-0.017L30.517,9.851z M30.451,10.034l0.016,0.017c0,0.016,0,0.033-0.016,0.05V10.034z M30.418,10.282
		c-0.017,0.083-0.033,0.149-0.033,0.232h-0.05L30.418,10.282z M30.236,11.143v0.133h-0.033L30.236,11.143v-0.066
		c0.017,0,0.017,0,0.033,0.017L30.236,11.143z M30.318,10.646h0.033c-0.017,0.083-0.033,0.166-0.033,0.249l-0.05-0.017
		L30.318,10.646z"/>
	<path class="st0" d="M33.582,8.692c0.116-0.017,0.199,0.083,0.315,0.083c0.05,0,0.099-0.017,0.149-0.05
		c0-0.215-0.066-0.447-0.066-0.663c0-0.398,0.182-0.745,0.182-1.143c0-0.116-0.066-0.215-0.166-0.282l-0.083,0.017V6.489
		l-0.199-0.033l0.033-0.116l-0.166-0.083c-0.033,0.033-0.066,0.066-0.116,0.083V6.224l-0.083-0.017l-0.05-0.066
		c-0.315,0-0.497,0.861-0.497,1.11C32.837,7.715,33.185,8.46,33.582,8.692z"/>
	<path class="st0" d="M35.999,10.965c0,0.017,0.011,0.031,0.033,0.041c0.022,0,0.033-0.008,0.033-0.025s-0.011-0.03-0.033-0.041
		C36.01,10.94,35.999,10.948,35.999,10.965z"/>
	<path class="st0" d="M36.032,10.865c-0.011-0.005-0.022-0.003-0.033,0.008c-0.011,0.011-0.011,0.019,0,0.025
		s0.022,0.003,0.033-0.008C36.043,10.879,36.043,10.871,36.032,10.865z"/>
	<path class="st0" d="M36.156,10.832c-0.05,0.017-0.091,0.041-0.124,0.075c0.022,0.022,0.066,0.039,0.132,0.049
		c0.066,0.011,0.094-0.011,0.083-0.066C36.236,10.835,36.206,10.816,36.156,10.832z"/>
	<path class="st0" d="M41.357,10.89c-0.011-0.055-0.041-0.075-0.091-0.058s-0.091,0.041-0.124,0.075
		c0.022,0.022,0.066,0.039,0.132,0.049C41.34,10.967,41.368,10.945,41.357,10.89z"/>
	<path class="st0" d="M41.142,10.865c-0.011-0.005-0.022-0.003-0.033,0.008c-0.011,0.011-0.011,0.019,0,0.025
		s0.022,0.003,0.033-0.008C41.153,10.879,41.153,10.871,41.142,10.865z"/>
	<path class="st0" d="M41.142,11.006c0.022,0,0.033-0.008,0.033-0.025s-0.011-0.03-0.033-0.041c-0.022,0-0.033,0.008-0.033,0.025
		S41.12,10.995,41.142,11.006z"/>
	<path class="st0" d="M46.532,8.658c0.116-0.017,0.199,0.083,0.315,0.083c0.05,0,0.099-0.017,0.149-0.05
		c0-0.215-0.066-0.447-0.066-0.663c0-0.398,0.182-0.745,0.182-1.143c0-0.116-0.066-0.215-0.166-0.282L46.863,6.62V6.455
		l-0.199-0.033l0.033-0.116l-0.166-0.083c-0.033,0.033-0.066,0.066-0.116,0.083V6.19l-0.083-0.017l-0.05-0.066
		c-0.315,0-0.497,0.861-0.497,1.11C45.787,7.681,46.134,8.427,46.532,8.658z"/>
	<path class="st0" d="M51.038,7.399c-0.729,0-1.359,0.961-1.756,1.474l-0.298-0.132c-0.605,0-1.152,1.065-1.379,1.873
		c-0.148,0.183-0.294,0.368-0.427,0.562c-0.414,0.613-0.812,1.259-1.276,1.839c0-0.017-0.017-0.05-0.017-0.05
		c0-0.017,0.017-0.017,0.017-0.033l0.364-1.226c0.182-0.596,0.398-1.16,0.398-1.789c0-0.795-0.596-1.176-1.325-1.276
		c-0.05,0.017-0.149,0.05-0.149,0.116c0,0.083,0.05,0.166,0.05,0.249v0.066c-0.036,0.491-0.134,0.974-0.253,1.454
		c-0.008,0.012-0.018,0.02-0.025,0.033c-0.055,0.088-0.171,0.292-0.347,0.612c-0.176,0.32-0.391,0.661-0.645,1.025
		c-0.022-0.353-0.143-0.711-0.364-1.075c-0.221-0.364-0.562-0.711-1.025-1.042c-0.022-0.022-0.088-0.069-0.198-0.14
		c-0.11-0.072-0.177-0.118-0.199-0.141c-0.132-0.088-0.212-0.171-0.24-0.248s-0.017-0.138,0.033-0.182
		c0.05-0.044,0.129-0.069,0.24-0.075c0.11-0.005,0.237,0.014,0.38,0.058c0.066,0.022,0.14,0.055,0.223,0.099
		s0.157,0.099,0.223,0.165s0.113,0.138,0.14,0.215c0.027,0.077,0.019,0.166-0.025,0.265c0.055-0.044,0.088-0.105,0.099-0.182
		c0.011-0.077-0.011-0.149-0.066-0.215c0.11,0.121,0.146,0.229,0.107,0.322c-0.039,0.094-0.146,0.146-0.322,0.157
		c0.198,0.077,0.386,0.107,0.562,0.091c0.176-0.016,0.333-0.063,0.471-0.14c0.138-0.077,0.248-0.179,0.331-0.306
		s0.135-0.267,0.157-0.422c0.022,0.121,0.022,0.243,0,0.364c0.099-0.309,0.124-0.568,0.074-0.777
		c-0.049-0.209-0.152-0.38-0.306-0.513s-0.35-0.232-0.587-0.298s-0.494-0.11-0.769-0.132C42.336,8,41.848,8.039,41.445,8.16
		c-0.402,0.121-0.692,0.289-0.868,0.504c-0.176,0.215-0.232,0.469-0.165,0.761c0.066,0.292,0.281,0.593,0.645,0.901
		c0.044,0.022,0.102,0.063,0.174,0.124c0.072,0.061,0.13,0.102,0.174,0.124c0.386,0.254,0.667,0.535,0.843,0.843
		c0.176,0.309,0.275,0.606,0.298,0.893c0.022,0.342-0.017,0.62-0.116,0.835s-0.234,0.38-0.405,0.496s-0.358,0.182-0.562,0.198
		c-0.204,0.017-0.4-0.008-0.587-0.074c-0.188-0.066-0.353-0.171-0.496-0.314c-0.143-0.143-0.243-0.314-0.298-0.513
		c-0.055-0.209-0.058-0.413-0.008-0.612c0.049-0.198,0.124-0.38,0.223-0.546c0.099-0.165,0.218-0.314,0.356-0.446
		s0.267-0.242,0.389-0.331c-0.055,0.011-0.107,0.022-0.157,0.033c-0.049,0.011-0.102,0.039-0.157,0.083
		c0.055-0.077,0.118-0.141,0.19-0.19c0.072-0.049,0.146-0.085,0.223-0.107c-0.044-0.044-0.099-0.063-0.165-0.058
		c-0.066,0.006-0.116,0.019-0.149,0.041c0.044-0.044,0.105-0.074,0.182-0.091c0.077-0.017,0.143-0.003,0.198,0.041
		c-0.044-0.088-0.132-0.207-0.264-0.356c-0.132-0.149-0.232-0.245-0.298-0.289c-0.055-0.033-0.127-0.047-0.215-0.041
		c-0.089,0.006-0.177,0.047-0.265,0.124c-0.375,0.353-0.648,0.739-0.818,1.157c-0.029,0.07-0.051,0.14-0.074,0.209
		c-0.125,0.204-0.26,0.414-0.414,0.634c-0.022-0.353-0.143-0.711-0.364-1.075c-0.221-0.364-0.562-0.711-1.025-1.042
		c-0.022-0.022-0.088-0.069-0.198-0.14c-0.11-0.072-0.177-0.118-0.199-0.141c-0.132-0.088-0.212-0.171-0.24-0.248
		s-0.017-0.138,0.033-0.182c0.05-0.044,0.129-0.069,0.24-0.075c0.11-0.005,0.237,0.014,0.38,0.058
		c0.066,0.022,0.14,0.055,0.223,0.099s0.157,0.099,0.223,0.165s0.113,0.138,0.14,0.215c0.027,0.077,0.019,0.166-0.025,0.265
		c0.055-0.044,0.088-0.105,0.099-0.182c0.011-0.077-0.011-0.149-0.066-0.215c0.11,0.121,0.146,0.229,0.107,0.322
		c-0.039,0.094-0.146,0.146-0.322,0.157c0.198,0.077,0.386,0.107,0.562,0.091c0.176-0.016,0.333-0.063,0.471-0.14
		c0.138-0.077,0.248-0.179,0.331-0.306s0.135-0.267,0.157-0.422c0.022,0.121,0.022,0.243,0,0.364
		c0.099-0.309,0.124-0.568,0.074-0.777c-0.049-0.209-0.152-0.38-0.306-0.513s-0.35-0.232-0.587-0.298s-0.494-0.11-0.769-0.132
		c-0.573-0.044-1.061-0.005-1.464,0.116c-0.402,0.121-0.692,0.289-0.868,0.504c-0.176,0.215-0.232,0.469-0.165,0.761
		c0.017,0.077,0.047,0.155,0.085,0.233c-0.133,0.158-0.225,0.354-0.35,0.506c-0.07,0.091-0.144,0.181-0.216,0.271
		c-0.103,0.115-0.196,0.233-0.279,0.355c-0.109,0.137-0.218,0.274-0.317,0.418c-0.414,0.613-0.812,1.259-1.276,1.839
		c0-0.017-0.017-0.05-0.017-0.05c0-0.017,0.017-0.017,0.017-0.033l0.364-1.226c0.182-0.596,0.398-1.16,0.398-1.789
		c0-0.795-0.596-1.176-1.325-1.276c-0.05,0.017-0.149,0.05-0.149,0.116c0,0.083,0.05,0.166,0.05,0.249v0.066
		c-0.05,0.679-0.215,1.342-0.398,2.005c-0.232,0.845-0.447,1.789-0.447,2.683c0,0.497,0.348,0.762,0.828,0.762
		c0.133,0,0.232-0.017,0.331-0.116c0.381-0.414,0.911-1.143,1.242-1.623c0.056-0.08,0.106-0.166,0.16-0.248c0,0.003,0,0.006,0,0.009
		c0.017,0.397,0.124,0.758,0.322,1.083s0.474,0.571,0.827,0.736c0.375,0.165,0.763,0.251,1.166,0.256
		c0.402,0.005,0.752-0.053,1.05-0.174c0.309-0.099,0.62-0.3,0.934-0.604c0.306-0.295,0.587-0.622,0.846-0.98
		c0.048,0.274,0.143,0.529,0.287,0.765c0.198,0.325,0.474,0.571,0.827,0.736c0.375,0.165,0.763,0.251,1.166,0.256
		c0.402,0.005,0.752-0.053,1.05-0.174c0.309-0.099,0.62-0.3,0.934-0.604c0.314-0.303,0.604-0.639,0.868-1.009
		c0.081-0.113,0.154-0.226,0.229-0.34c-0.07,0.412-0.118,0.828-0.118,1.234c0,0.497,0.348,0.762,0.828,0.762
		c0.133,0,0.232-0.017,0.331-0.116c0.381-0.414,0.911-1.143,1.242-1.623c0.253-0.364,0.477-0.758,0.713-1.139
		c0.087,0.942,0.809,1.703,1.788,1.703c0.116,0,0.232-0.017,0.348-0.033c0.398-0.066,0.662-0.282,0.944-0.546
		c0.944-0.878,2.004-2.435,2.004-3.777C52.595,8.277,51.75,7.399,51.038,7.399z M42.969,9.013c0.094,0.017,0.187,0.039,0.281,0.066
		c0.094,0.028,0.174,0.064,0.24,0.107c0.066,0.044,0.105,0.094,0.116,0.149c-0.022-0.044-0.094-0.102-0.215-0.174
		c-0.121-0.072-0.342-0.129-0.661-0.174C42.796,8.988,42.875,8.997,42.969,9.013z M43.507,9.435
		c-0.077-0.088-0.188-0.162-0.331-0.223c-0.143-0.06-0.264-0.102-0.364-0.124c0.209,0.022,0.383,0.069,0.521,0.141
		C43.471,9.3,43.529,9.369,43.507,9.435z M43.143,9.369c0.275,0.165,0.402,0.358,0.38,0.579c-0.033-0.176-0.113-0.317-0.24-0.422
		s-0.267-0.184-0.422-0.24c-0.154-0.055-0.303-0.094-0.447-0.116c-0.143-0.022-0.242-0.033-0.298-0.033
		C42.525,9.126,42.867,9.203,43.143,9.369z M37.86,9.013c0.094,0.017,0.187,0.039,0.281,0.066c0.094,0.028,0.174,0.064,0.24,0.107
		c0.066,0.044,0.105,0.094,0.116,0.149c-0.022-0.044-0.094-0.102-0.215-0.174c-0.121-0.072-0.342-0.129-0.661-0.174
		C37.686,8.988,37.766,8.997,37.86,9.013z M38.397,9.435c-0.077-0.088-0.188-0.162-0.331-0.223c-0.143-0.06-0.264-0.102-0.364-0.124
		c0.209,0.022,0.383,0.069,0.521,0.141C38.361,9.3,38.419,9.369,38.397,9.435z M38.033,9.369c0.275,0.165,0.402,0.358,0.38,0.579
		c-0.033-0.176-0.113-0.317-0.24-0.422s-0.267-0.184-0.422-0.24c-0.154-0.055-0.303-0.094-0.447-0.116
		c-0.143-0.022-0.242-0.033-0.298-0.033C37.416,9.126,37.758,9.203,38.033,9.369z M37.62,11.345
		c0.055,0.083,0.102,0.182,0.141,0.298s0.069,0.237,0.091,0.364s0.027,0.245,0.017,0.356c0-0.088-0.011-0.193-0.033-0.314
		c-0.022-0.121-0.052-0.24-0.091-0.356s-0.083-0.22-0.132-0.314c-0.05-0.094-0.107-0.162-0.174-0.207
		C37.504,11.204,37.565,11.262,37.62,11.345z M35.155,10.129c0.091-0.137,0.18-0.275,0.267-0.414
		c0.008,0.014,0.017,0.028,0.025,0.042c-0.086,0.104-0.16,0.219-0.223,0.34C35.201,10.106,35.178,10.116,35.155,10.129z
		 M35.53,9.889c0.002,0.003,0.005,0.005,0.006,0.008L35.52,9.918L35.53,9.889z M35.406,9.687c0.001,0.002,0.003,0.005,0.004,0.007
		l-0.022,0.025L35.406,9.687z M33.085,10.795h0.033c-0.017,0.033-0.017,0.083-0.033,0.1V10.795z M32.274,13.86H32.24
		c0.083-0.596,0.298-1.176,0.464-1.756c0.116-0.381,0.166-0.778,0.364-1.126C32.804,11.939,32.522,12.899,32.274,13.86z
		 M33.499,12.833c0.033-0.066,0.066-0.149,0.149-0.166L33.499,12.833z M33.698,12.568v-0.033c0-0.099,0.066-0.133,0.149-0.149
		L33.698,12.568z M33.036,13.214c-0.033,0.05-0.116,0.099-0.166,0.149c0.149-0.298,0.381-0.547,0.563-0.828
		c0.282-0.464,0.596-0.911,0.878-1.375c0.021-0.035,0.046-0.069,0.069-0.104c-0.053,0.097-0.101,0.196-0.142,0.297
		c-0.029,0.071-0.051,0.141-0.075,0.211C33.788,12.114,33.409,12.664,33.036,13.214z M37.322,13.147
		c-0.099,0.215-0.234,0.38-0.405,0.496s-0.358,0.182-0.562,0.198c-0.204,0.017-0.4-0.008-0.587-0.074
		c-0.188-0.066-0.353-0.171-0.496-0.314c-0.143-0.143-0.243-0.314-0.298-0.513c-0.055-0.209-0.058-0.413-0.008-0.612
		c0.049-0.198,0.124-0.38,0.223-0.546c0.099-0.165,0.218-0.314,0.356-0.446s0.267-0.242,0.389-0.331
		c-0.055,0.011-0.107,0.022-0.157,0.033c-0.049,0.011-0.102,0.039-0.157,0.083c0.055-0.077,0.118-0.141,0.19-0.19
		c0.072-0.049,0.146-0.085,0.223-0.107c-0.044-0.044-0.099-0.063-0.165-0.058c-0.066,0.006-0.116,0.019-0.149,0.041
		c0.044-0.044,0.105-0.074,0.182-0.091c0.077-0.017,0.143-0.003,0.198,0.041c-0.044-0.088-0.132-0.207-0.264-0.356
		c-0.132-0.149-0.232-0.245-0.298-0.289c-0.004-0.002-0.009-0.003-0.013-0.005c0.025-0.046,0.05-0.092,0.074-0.139
		c0.097,0.118,0.21,0.238,0.352,0.359c0.044,0.022,0.102,0.063,0.174,0.124c0.072,0.061,0.13,0.102,0.174,0.124
		c0.386,0.254,0.667,0.535,0.843,0.843c0.176,0.309,0.275,0.606,0.298,0.893C37.46,12.654,37.421,12.933,37.322,13.147z
		 M37.554,11.965c-0.088-0.298-0.204-0.551-0.347-0.761c-0.143-0.209-0.287-0.369-0.43-0.48c-0.143-0.11-0.226-0.171-0.248-0.182
		c0.099,0.033,0.226,0.121,0.38,0.264s0.298,0.325,0.43,0.546c0.132,0.221,0.229,0.469,0.289,0.744
		c0.061,0.276,0.041,0.568-0.058,0.876C37.647,12.599,37.642,12.263,37.554,11.965z M37.975,12.941
		c-0.017,0.165-0.052,0.322-0.107,0.471s-0.143,0.245-0.264,0.29c0.099-0.066,0.176-0.163,0.231-0.29
		c0.055-0.126,0.094-0.264,0.116-0.413c0.022-0.149,0.03-0.295,0.025-0.438c-0.006-0.143-0.014-0.27-0.025-0.38
		c0.011,0.055,0.022,0.155,0.033,0.298C37.995,12.621,37.992,12.775,37.975,12.941z M42.729,11.345
		c0.055,0.083,0.102,0.182,0.141,0.298s0.069,0.237,0.091,0.364s0.027,0.245,0.017,0.356c0-0.088-0.011-0.193-0.033-0.314
		c-0.022-0.121-0.052-0.24-0.091-0.356s-0.083-0.22-0.132-0.314c-0.05-0.094-0.107-0.162-0.174-0.207
		C42.614,11.204,42.674,11.262,42.729,11.345z M42.663,11.965c-0.088-0.298-0.204-0.551-0.347-0.761
		c-0.143-0.209-0.287-0.369-0.43-0.48c-0.143-0.11-0.226-0.171-0.248-0.182c0.099,0.033,0.226,0.121,0.38,0.264
		s0.298,0.325,0.43,0.546c0.132,0.221,0.229,0.469,0.289,0.744c0.061,0.276,0.041,0.568-0.058,0.876
		C42.757,12.599,42.751,12.263,42.663,11.965z M43.085,12.941c-0.017,0.165-0.052,0.322-0.107,0.471s-0.143,0.245-0.264,0.29
		c0.099-0.066,0.176-0.163,0.231-0.29c0.055-0.126,0.094-0.264,0.116-0.413c0.022-0.149,0.03-0.295,0.025-0.438
		c-0.006-0.143-0.014-0.27-0.025-0.38c0.011,0.055,0.022,0.155,0.033,0.298C43.104,12.621,43.101,12.775,43.085,12.941z
		 M50.789,8.294c0.017,0,0.017-0.017,0.033-0.017h0.016v0.017c-0.381,0.381-0.679,0.812-1.01,1.242
		C49.911,9.106,50.441,8.542,50.789,8.294z M49.928,8.89c0-0.066,0.215-0.282,0.282-0.348C50.127,8.658,50.011,8.758,49.928,8.89z
		 M50.425,7.946h0.033c-0.149,0.133-0.696,0.679-0.745,0.812l-0.05,0.033C49.878,8.476,50.127,8.195,50.425,7.946z M49.083,9.338
		l-0.017,0.033c-0.016,0.116-0.348,0.629-0.43,0.745C48.735,9.834,48.868,9.553,49.083,9.338z M48.769,9.412l-0.014-0.007
		l0.097-0.15C48.84,9.308,48.807,9.363,48.769,9.412z M48.721,9.457L48.708,9.48c-0.002,0.002-0.004,0.005-0.006,0.006L48.721,9.457
		z M48.685,9.122L48.42,9.42C48.487,9.304,48.553,9.188,48.685,9.122z M46.035,10.762h0.033c-0.017,0.033-0.017,0.083-0.033,0.1
		V10.762z M45.223,13.827H45.19c0.083-0.596,0.298-1.176,0.464-1.756c0.116-0.381,0.166-0.778,0.364-1.126
		C45.753,11.905,45.472,12.866,45.223,13.827z M45.819,13.33c0.149-0.298,0.381-0.547,0.563-0.828
		c0.282-0.464,0.596-0.911,0.878-1.375c0.089-0.154,0.202-0.299,0.325-0.441c-0.021,0.081-0.039,0.159-0.054,0.232
		c-0.519,0.754-1.035,1.509-1.547,2.263C45.952,13.23,45.869,13.28,45.819,13.33z M46.449,12.8c0.033-0.066,0.066-0.149,0.149-0.166
		L46.449,12.8z M46.648,12.535v-0.033c0-0.099,0.066-0.133,0.149-0.149L46.648,12.535z M47.344,11.657l-0.066,0.05
		c0.066-0.099,0.149-0.199,0.199-0.315C47.443,11.491,47.393,11.574,47.344,11.657z M48.536,10.381v-0.033h0.033
		C48.553,10.365,48.553,10.381,48.536,10.381z M48.685,12.568c-0.066-0.232-0.083-0.464-0.083-0.696c0-0.663,0.232-1.292,0.48-1.905
		c0.249,0.315,0.464,0.679,0.928,0.679c0.066,0,0.133-0.05,0.166-0.099c-0.133-0.1-0.232-0.232-0.232-0.398
		c0-0.53,1.143-1.905,1.69-1.905c0.033,0.066,0.05,0.149,0.05,0.215c0,0.116-0.033,0.215-0.05,0.331
		C51.369,10.265,50.193,12.154,48.685,12.568z M50.64,11.474c0-0.066,0.282-0.398,0.365-0.513
		C50.905,11.16,50.789,11.342,50.64,11.474z M50.889,11.557l0.381-0.513c-0.099,0.182-0.248,0.348-0.364,0.53h-0.017V11.557z
		 M51.551,11.408h-0.017l0.017-0.016V11.408z M50.607,12.303c0.016-0.066,0.066-0.116,0.099-0.166
		c0.414-0.53,0.812-1.06,1.126-1.657C51.849,10.994,50.938,11.922,50.607,12.303z"/>
	<path class="st0" d="M58.442,6.919c-0.182,0.05-0.298,0.182-0.431,0.315c-0.414,0.447-0.812,0.911-1.209,1.375
		c-1.027,1.193-1.905,2.485-2.833,3.76l-0.033-0.016c0.331-0.961,0.977-2.998,0.977-3.959c0-0.464-0.282-0.895-0.679-1.093
		c-0.033-0.017-0.199-0.099-0.232-0.099c-0.066,0-0.132,0-0.166,0.083c0.017,0.083,0.05,0.166,0.05,0.249
		c0,0.447-0.149,0.944-0.282,1.358c-0.265,0.911-0.845,2.882-0.845,3.777c0,0.497,0.497,0.944,0.977,0.944
		c0.116,0,0.166-0.017,0.265-0.099c0.431-0.381,1.276-1.806,1.623-2.369c0.547-0.878,1.16-1.789,1.888-2.534
		c0.05-0.05,0.099-0.066,0.149-0.099c-0.182,0.48-0.398,0.944-0.547,1.441c-0.315,1.011-0.828,2.435-0.828,3.479
		c0,0.779,0.182,1.574,1.126,1.574c0.099,0,0.166-0.066,0.166-0.166c-0.149-0.083-0.199-0.232-0.199-0.398
		c0-1.11,1.193-4.473,1.64-5.632c0.083-0.232,0.348-0.911,0.348-1.126C59.37,7.3,58.757,6.969,58.442,6.919z M58.708,7.731
		l0.017,0.017l-0.017,0.05V7.731z M58.608,8.012c-0.066,0.182-0.166,0.365-0.249,0.547C58.426,8.36,58.492,8.178,58.608,8.012z
		 M58.409,7.714v0.083c-0.166,0.331-0.348,0.663-0.497,0.994l-0.05,0.033v0.133l-0.05-0.017l0.05-0.116
		C58.028,8.443,58.194,8.062,58.409,7.714z M54.732,12.187l-0.066,0.083c0.017-0.066,0.083-0.149,0.133-0.199
		C54.782,12.104,54.748,12.137,54.732,12.187z M54.55,11.839c0.066-0.116,0.149-0.248,0.249-0.348
		C54.715,11.607,54.649,11.723,54.55,11.839z M55.643,10.216c0.712-1.011,1.524-1.938,2.369-2.833l0.033,0.033l-0.05,0.066
		C57.15,8.526,56.19,9.47,55.444,10.58c-0.116,0.166-0.199,0.348-0.331,0.497c-0.066,0.083-0.133,0.116-0.166,0.215l-0.066,0.083
		C55.08,10.961,55.378,10.596,55.643,10.216z M55.328,11.027v-0.033h0.033c0,0,0.033,0.017,0.05,0.017
		c-0.017,0.017-0.033,0.017-0.05,0.017v0.099h-0.066c0,0.017,0,0.05-0.017,0.066c-0.017-0.016-0.017-0.033-0.017-0.05v-0.05
		l0.033,0.017c0.017,0,0.05,0,0.066,0.017C55.361,11.11,55.328,11.027,55.328,11.027z M55.212,11.259l-0.017,0.05h-0.083
		c0.017-0.016,0.033-0.05,0.033-0.066h0.05L55.212,11.259z M54.914,11.756h-0.017l0.017-0.017V11.756z M54.947,11.839
		c0.066-0.149,0.166-0.282,0.282-0.414C55.146,11.574,55.047,11.706,54.947,11.839z M55.262,11.557v-0.033l0.017,0.017
		L55.262,11.557z M55.229,11.408c0.05-0.132,0.149-0.232,0.215-0.348C55.394,11.193,55.312,11.309,55.229,11.408z M55.494,10.911
		c-0.05,0-0.066,0.033-0.066,0.083c-0.017-0.017-0.017-0.05-0.017-0.066v-0.05l0.033,0.017
		C55.461,10.895,55.477,10.895,55.494,10.911c0-0.033,0-0.066-0.017-0.099v-0.033h0.017c0,0,0.033,0.017,0.05,0.017l-0.033,0.017
		C55.51,10.845,55.51,10.878,55.494,10.911z M55.56,10.928l-0.033,0.033l0.05-0.099L55.56,10.928z M55.809,10.679v-0.033
		l0.017-0.017C55.825,10.646,55.825,10.663,55.809,10.679z M55.792,10.63v0.017c-0.033,0.016-0.066,0.033-0.099,0.066l0.133-0.199
		C55.825,10.547,55.809,10.613,55.792,10.63z M56.736,9.42c-0.05,0.033-0.199,0.232-0.215,0.282l-0.083,0.083h-0.033l-0.066,0.099
		l0.033,0.017c-0.033,0.016-0.05,0.05-0.066,0.083l-0.05,0.033c-0.033,0.099-0.099,0.182-0.166,0.265h-0.033l-0.116,0.066
		c0.033-0.05,0.05-0.099,0.066-0.166c-0.182,0.215-0.298,0.365-0.447,0.596l-0.017-0.066v-0.05c0.663-0.961,1.392-1.872,2.22-2.7
		c-0.182,0.232-0.994,1.11-1.077,1.309c0.215-0.149,0.365-0.365,0.547-0.563v0.066l0.033,0.017
		C57.167,8.841,56.769,9.321,56.736,9.42z M57.598,8.41c-0.083,0.05-0.116,0.116-0.182,0.182c-0.066,0-0.099,0.033-0.149,0.066
		l0.646-0.712L57.73,8.195C57.73,8.294,57.631,8.327,57.598,8.41z M57.796,9.039v0.033H57.78C57.78,9.056,57.796,9.056,57.796,9.039
		z M57.697,9.338l-0.016,0.017V9.338H57.697z M57.15,13.363h-0.017v-0.05h0.017V13.363z M57.2,13.214l-0.05-0.016l0.116-0.414
		C57.25,12.932,57.233,13.065,57.2,13.214z M58.045,10.365c-0.265,0.745-0.431,1.541-0.712,2.286
		c-0.017,0.033-0.033,0.066-0.066,0.099c0.381-1.524,1.044-3.661,1.739-5.053l0.05,0.017C58.741,8.609,58.36,9.47,58.045,10.365z"/>
	<path class="st0" d="M68.05,6.339c0.133,0,0.265-0.083,0.365-0.166c0.613-0.447,1.093-1.309,1.093-2.071
		c0-0.331-0.116-0.629-0.315-0.878c-0.232-0.298-0.514-0.58-0.795-0.828c-0.431-0.398-1.077-0.629-1.673-0.629
		c-1.557,0-2.899,1.425-2.899,2.965c0,1.292,1.11,2.452,1.772,3.462c0.133,0.199,0.232,0.414,0.348,0.613
		c-0.099,0.05-0.182,0.133-0.265,0.215c-0.331,0.315-0.696,0.646-0.994,0.994c-1.044,1.176-1.905,2.783-2.385,4.257
		c-0.066,0.199-0.116,0.365-0.116,0.58c0,0.066,0,0.133,0.017,0.199c0.215,1.06,1.11,1.607,2.154,1.607
		c0.132,0,0.282-0.017,0.414-0.05c2.037-0.447,3.446-2.037,3.628-4.141c0.017-0.099,0.017-0.199,0.017-0.315
		c0-0.546-0.116-1.11-0.282-1.623c-0.199-0.596-0.414-0.928-0.712-1.458c-0.017-0.033-0.017-0.066-0.033-0.083
		c0.132-0.166,0.265-0.331,0.381-0.497c-0.083-0.05-0.646-0.249-0.712-0.249c-0.05,0-0.099,0.017-0.132,0.033
		c-0.629-0.812-1.673-1.988-1.673-3.131c0-1.209,0.977-2.22,2.153-2.435c0.05-0.016,0.116-0.016,0.166-0.016
		c0.53,0,0.762,0.546,0.762,0.994c0,0.745-0.315,1.507-0.861,2.021c-0.05,0.05-0.116,0.083-0.116,0.182c0,0.017,0,0.05,0.017,0.066
		l0.149,0.033l-0.017,0.116C67.703,6.157,67.852,6.339,68.05,6.339z M62.534,14.804c0-0.05-0.017-0.099-0.017-0.149
		c0-0.083,0.033-0.149,0.099-0.182L62.534,14.804z M62.617,14.423C62.6,14.39,62.6,14.357,62.6,14.324h0.033
		C62.617,14.357,62.617,14.39,62.617,14.423z M68.166,12.253h0.017v0.05h-0.017V12.253z M68.15,12.667v0.016
		c0,0.017,0,0.05-0.017,0.066c0-0.017,0-0.05-0.017-0.066L68.15,12.667z M67.918,11.64c0.033,0.182,0.066,0.381,0.066,0.58
		c0,0.414-0.1,0.828-0.249,1.209C67.819,12.833,67.868,12.237,67.918,11.64z M67.703,13.528v0.017h-0.017L67.703,13.528z
		 M67.57,12.154c0.017,0.099,0.033,0.199,0.033,0.298c0,0.116-0.017,0.232-0.083,0.331L67.57,12.154z M67.09,13.048
		c0.066-0.265,0.099-0.53,0.132-0.795c0.033,0.05,0.017,0.149,0.017,0.215C67.239,12.617,67.222,12.965,67.09,13.048
		c0.017,0.033,0.017,0.05,0.017,0.083H67.09V13.048z M62.75,13.959h-0.017v-0.033h0.017V13.959z M62.882,14.589v0.199
		c-0.017,0-0.05,0-0.066-0.017C62.832,14.705,62.849,14.655,62.882,14.589v-0.066h0.033L62.882,14.589z M62.932,14.357V14.34
		c0.017,0,0.017,0,0.017,0.017H62.932z M63.114,15.003c0-0.066-0.016-0.116-0.016-0.166c0-0.133,0.215-0.729,0.265-0.878
		l0.033-0.033C63.313,14.274,63.23,14.655,63.114,15.003z M63.478,13.694v-0.05c0.017,0,0.033,0.017,0.033,0.033
		C63.495,13.678,63.495,13.678,63.478,13.694z M66.477,9.834c0.199,0.712,0.414,1.391,0.414,2.137c0,1.044-0.447,2.601-1.425,3.131
		c-0.298,0.166-0.894,0.48-1.226,0.48c-0.149,0-0.298-0.033-0.447-0.083c-0.249-0.083-0.249-0.298-0.249-0.53
		c0-0.199,0.05-0.398,0.116-0.596c0.265-0.762,0.596-1.491,0.994-2.187c0.398-0.679,1.06-1.623,1.623-2.17L66.477,9.834z
		 M64.969,2.96h0.017c-0.017,0.017-0.033,0.017-0.05,0.017C64.953,2.977,64.953,2.977,64.969,2.96z M64.804,3.788h-0.016
		c0-0.017,0-0.017,0.016-0.017V3.788z M64.555,3.507l-0.05,0.017l0.331-0.481l0.05-0.033C64.771,3.126,64.671,3.357,64.555,3.507z
		 M65.102,3.241c-0.017,0.149-0.083,0.265-0.199,0.348C64.969,3.473,65.019,3.357,65.102,3.241z M65.417,3.855V3.838h0.017
		L65.417,3.855z M64.986,4.186c0.066-0.414,0.315-0.745,0.646-0.994C65.417,3.523,65.185,3.855,64.986,4.186z M68.928,4.948
		c-0.033,0.265-0.331,0.762-0.563,0.878l0.033-0.066C68.597,5.494,68.746,5.213,68.928,4.948z M68.332,5.478
		c0-0.05,0.033-0.066,0.083-0.083l-0.083,0.133V5.478z"/>
	<path class="st0" d="M72.01,6.439c0.596-0.099,2.071-0.232,2.451-0.696c-0.099-0.017-0.232-0.05-0.232-0.182
		c-0.215-0.282-0.298-0.348-0.646-0.348c-0.298,0-0.58,0-0.861,0.066c-0.116,0.033-0.248,0.017-0.364,0.033
		c0,0,0.596-1.706,0.596-1.772c0-0.149-0.166-0.232-0.265-0.315l-0.133,0.033V3.092l-0.182-0.066l-0.132,0.116l0.083-0.232
		l-0.132,0.016l-0.066-0.099c-0.083,0.099-0.149,0.199-0.249,0.298l0.116-0.265l-0.199-0.099c-0.149,0-0.215,0.099-0.282,0.215
		c-0.232,0.398-0.497,0.812-0.679,1.242c-0.232,0.563-0.563,1.06-0.927,1.541c-0.365,0.083-0.746,0.116-1.11,0.215
		c-0.166,0.05-0.199,0.099-0.232,0.265l0.149,0.083l-0.017,0.099c0.116,0.149,0.332,0.315,0.497,0.365l-0.017,0.017
		c0.166,0,0.348-0.017,0.514-0.017c0.049,0,0.199,0,0.199,0.083c0,0.116-0.05,0.215-0.066,0.331
		c-0.066,0.464-0.182,0.928-0.265,1.391c-0.083,0.398-0.116,0.812-0.182,1.209c-0.265,1.723-0.497,3.495-0.497,5.234
		c0,0.58,0,1.706,0.613,2.021c0.199,0.099,0.414,0.149,0.613,0.249l0.099-0.149c0.017,0.033,0.033,0.083,0.083,0.083
		c0.116,0,0.331-0.05,0.331-0.199c0-0.05,0-0.083-0.017-0.132c-0.099-0.414-0.166-0.861-0.166-1.292c0-1.077,0.133-2.17,0.298-3.23
		C71.066,10.381,71.414,8.377,72.01,6.439z M71.844,3.175v0.033l-0.083,0.149C71.778,3.291,71.811,3.241,71.844,3.175z
		 M71.745,4.119h0.05l-0.05,0.033V4.119z M72.126,4.219c0.05-0.066,0.116-0.133,0.166-0.215c-0.166,0.447-0.298,0.878-0.463,1.309
		c-0.017,0.066-0.05,0.133-0.133,0.133h-0.033C71.662,5.312,72.043,4.368,72.126,4.219z M71.695,6.505v0.066
		c0,0.05-0.017,0.099-0.066,0.116L71.695,6.505z M69.343,13.528h-0.017v-0.215h0.017V13.528z M70.751,10.679v-0.083h0.017
		c0.016,0.033,0.016,0.05,0.016,0.083H70.751z M70.817,10.398H70.8v-0.066h0.017V10.398z M70.867,10.199h-0.033l0.017-0.116h0.017
		L70.867,10.199L70.867,10.199z M70.884,9.95V9.851h0.017c0.017,0.033,0.017,0.066,0.017,0.099H70.884z M70.95,9.735h-0.017V9.602
		h0.017V9.735z M70.999,9.503c-0.016,0-0.016,0-0.033-0.016l0.017-0.1h0.016V9.503z M71.032,9.288h-0.017V9.172h0.017V9.288z
		 M71.082,9.056h-0.017V8.957h0.017V9.056z M71.132,8.857l-0.033-0.016l0.033-0.083V8.857z M71.149,8.708
		c0-0.033-0.017-0.05-0.017-0.083s0.033-0.066,0.066-0.066L71.149,8.708z M71.198,8.542c0-0.033-0.017-0.05-0.017-0.083
		c0-0.05,0.033-0.066,0.066-0.083L71.198,8.542z M71.248,8.36c-0.017-0.05-0.017-0.099-0.017-0.149h0.033
		C71.264,8.261,71.248,8.311,71.248,8.36z M71.298,8.112h-0.033c0-0.033,0.017-0.05,0.033-0.083V8.112z M71.314,7.963L71.297,7.98
		c0-0.017,0-0.033,0.017-0.05V7.963z M71.613,6.869l-0.05,0.116c0.017-0.066,0.017-0.116,0.05-0.182V6.869z M71.48,7.234
		c0-0.066,0.033-0.133,0.083-0.182c-0.033,0.099-0.05,0.182-0.066,0.282V7.35H71.48c-0.017,0.083-0.05,0.182-0.083,0.265v0.017
		l-0.033,0.133c0-0.05,0.017-0.083,0.017-0.133l0.017-0.017c0-0.099,0-0.199,0.083-0.265l0.017-0.017
		C71.48,7.3,71.48,7.267,71.48,7.234z M71.414,5.031c-0.033,0.166-0.05,0.348-0.183,0.48C71.264,5.345,71.281,5.163,71.414,5.031z
		 M71.032,6.886h0.017c0,0.017,0,0.017-0.017,0.033V6.886z M70.983,7.035l0.033,0.017l-0.033,0.083V7.035z M70.188,5.677
		c0-0.033,0.033-0.066,0.066-0.066L70.188,5.71V5.677z M69.409,12.816h-0.017v-0.199h0.017V12.816z M69.459,12.336h-0.033
		l0.166-1.375l0.05,0.016C69.575,11.425,69.508,11.889,69.459,12.336z M69.658,10.746c0-0.53,0.546-3.678,0.778-4.042
		c-0.348,1.358-0.546,2.75-0.778,4.125V10.746z M69.691,14.009h-0.017v-0.166h0.017V14.009z M69.708,13.595h-0.017v-0.033h0.017
		V13.595z M69.74,13.247h-0.017l0.017-0.315h0.017L69.74,13.247z M69.807,12.767h-0.033c0-0.083,0.017-0.149,0.017-0.232h0.017
		L69.807,12.767L69.807,12.767z M69.84,12.253c0-0.679,0.762-5.268,1.06-5.649c-0.199,0.961-0.414,1.905-0.596,2.866
		c-0.182,0.944-0.315,1.905-0.464,2.866V12.253z M70.95,7.333l-0.033,0.066L70.9,7.383L70.95,7.333z M70.884,7.532v0.05h-0.033
		L70.884,7.532z M70.801,7.896v0.05h-0.017v-0.05H70.801z M70.751,8.112v0.033h-0.017L70.751,8.112z M70.718,8.277L70.701,8.36
		h-0.017c0.017-0.033,0.017-0.05,0.017-0.083H70.718z M70.668,8.493v0.05h-0.017v-0.05H70.668z M70.287,14.191H70.27v-0.05h0.017
		V14.191z M70.337,13.694H70.32c0-0.033,0-0.066,0.017-0.083V13.694z M70.403,13.148h-0.017v-0.05h0.017V13.148z M69.972,15.815
		c-0.033-0.249-0.033-0.513-0.033-0.762c0-1.441,0.232-2.899,0.447-4.323c0.232-1.391,0.48-2.816,0.895-4.174l0.149-0.017
		C70.635,9.569,70.105,12.684,69.972,15.815z M70.453,12.767h-0.017V12.7h0.017V12.767z M70.486,12.419v-0.066h0.017L70.486,12.419z
		 M70.536,12.104c-0.017-0.017-0.017-0.05-0.017-0.066h0.017c0,0.017,0,0.05,0.017,0.066H70.536z M70.585,11.822h-0.016v-0.116
		h0.016V11.822z M70.635,11.491h-0.017v-0.066h0.017V11.491z M70.685,11.226h-0.017v-0.133h0.017V11.226z M70.701,10.845h0.033
		v0.099h-0.033V10.845z"/>
	<path class="st0" d="M76.797,11.458v-0.017c-0.017,0.05-0.033,0.099-0.066,0.149l-0.05,0.033h0.017
		c-0.033,0.066-0.083,0.133-0.1,0.215l-0.016-0.066l-0.1,0.182h0.017l-0.033,0.066h0.017c-0.05,0.083-0.116,0.166-0.149,0.248
		c-0.05,0.133-0.182,0.232-0.215,0.365l-0.033,0.066l-0.05,0.033l-0.033,0.066v-0.066c-0.116,0.083-0.132,0.166-0.182,0.298h0.033
		l0.017-0.017v0.017h-0.017c-0.05,0.083-0.132,0.182-0.149,0.265l-0.017-0.066l-0.116,0.083l0.149-0.282l-0.53,0.613
		c0.298-0.613,0.845-1.16,1.193-1.756l-0.083,0.083c-0.083,0.083-0.149,0.215-0.215,0.298c-0.265,0.331-0.53,0.696-0.828,0.994
		c0,0.017,0,0.017-0.017,0.017v-0.017h0.017c0.149-0.348,0.447-0.613,0.663-0.928h-0.033c-0.166,0.182-0.332,0.414-0.547,0.546
		c0-0.53,0.729-2.584,0.944-3.181c0.033-0.099,0.083-0.215,0.083-0.331c0-0.083-0.066-0.133-0.149-0.149
		c-0.182,0.348-0.315,0.729-0.48,1.093c0,0.033-0.033,0.05-0.05,0.066c0.149-0.398,0.298-0.795,0.431-1.209l-0.083-0.033v0.017
		l-0.066,0.033l0.017-0.116c-0.017-0.016-0.049-0.05-0.083-0.05c-0.05,0-0.083,0.033-0.1,0.066l-0.05,0.033l-0.016,0.083
		l-0.05,0.017c0.066-0.066,0.033-0.05,0.066-0.116l0.05-0.017L75.788,8.92c-0.381,0.149-0.431,0.497-0.729,0.762l-1.59,1.424
		l-0.265,0.199l-0.033-0.033c0.48-1.077,1.077-2.419,2.269-2.833l0.481,0.133c0.017-0.033,0.033-0.066,0.033-0.099
		c0-0.05-0.033-0.099-0.066-0.133c-0.298-0.282-0.646-0.513-1.06-0.513S74,8.059,73.668,8.291c-0.795,0.563-1.839,2.336-1.839,3.313
		c0,0.464,0.613,0.845,1.027,0.845c0.58,0,1.06-0.696,1.408-1.06l0.563-0.58c-0.182,0.878-0.381,1.756-0.381,2.65
		c0,0.464,0.265,0.497,0.629,0.629c0.729-0.58,1.54-2.054,1.905-2.915C76.913,11.276,76.847,11.359,76.797,11.458z M75.836,9.454
		L75.77,9.587c0-0.017-0.017-0.05-0.017-0.05C75.753,9.487,75.786,9.47,75.836,9.454z M75.588,10.762l-0.017,0.033
		c0-0.033,0-0.066,0.017-0.083V10.762z M75.621,9.321L75.489,9.57C75.505,9.487,75.571,9.371,75.621,9.321z M75.505,11.011
		c-0.017,0.116-0.033,0.232-0.116,0.331C75.422,11.226,75.455,11.127,75.505,11.011z M75.372,11.359h0.017l-0.033,0.066
		L75.372,11.359z M75.356,11.491v0.083h-0.017C75.339,11.541,75.339,11.524,75.356,11.491z M75.273,11.839v0.05l-0.017-0.033
		L75.273,11.839z M75.19,12.154h0.017v0.033H75.19V12.154z M73.55,9.222v0.017h-0.017C73.534,9.222,73.534,9.222,73.55,9.222z
		 M73.484,9.338v0.017h-0.033C73.467,9.354,73.467,9.354,73.484,9.338z M73.401,8.923h0.017l-0.05,0.033L73.401,8.923z
		 M72.374,10.696h-0.017c0-0.017,0.017-0.033,0.017-0.05V10.696z M72.424,10.514c0.116-0.315,0.629-1.209,0.861-1.441l0.033-0.066
		c0,0.083-0.149,0.265-0.199,0.331c-0.232,0.348-0.431,0.745-0.646,1.11C72.474,10.48,72.44,10.497,72.424,10.514z M73.285,9.586
		v0.033c-0.182,0.298-0.381,0.58-0.546,0.895C72.888,10.166,73.07,9.884,73.285,9.586z M72.623,10.779
		c0.033-0.033,0.033-0.099,0.066-0.116l-0.05,0.116H72.623z M72.672,11.623h-0.017c0-0.016,0-0.05,0.017-0.066V11.623z
		 M72.739,11.408c-0.017,0.05-0.033,0.083-0.066,0.116c0.05-0.182,0.083-0.381,0.149-0.563c0.166-0.481,0.795-1.657,1.226-1.922
		C73.484,9.718,73.053,10.58,72.739,11.408z M75.273,13.727l0.116-0.149C75.389,13.661,75.323,13.678,75.273,13.727z M75.406,13.562
		l0.1-0.149c0,0.033-0.017,0.066-0.017,0.099L75.406,13.562z M75.588,13.479h-0.033c0.017,0,0.017-0.017,0.033-0.017V13.479z
		 M75.654,13.346h-0.017l0.05-0.033h0.017L75.654,13.346z"/>
	<path class="st0" d="M79.995,6.439c0.596-0.099,2.071-0.232,2.451-0.696c-0.099-0.017-0.232-0.05-0.232-0.182
		c-0.215-0.282-0.298-0.348-0.646-0.348c-0.298,0-0.58,0-0.861,0.066c-0.116,0.033-0.248,0.017-0.364,0.033
		c0,0,0.596-1.706,0.596-1.772c0-0.149-0.166-0.232-0.265-0.315l-0.132,0.033V3.092L80.36,3.026l-0.132,0.116l0.083-0.232
		l-0.132,0.016l-0.066-0.099c-0.083,0.099-0.149,0.199-0.249,0.298L79.98,2.86l-0.199-0.099c-0.149,0-0.215,0.099-0.282,0.215
		c-0.232,0.398-0.497,0.812-0.679,1.242c-0.232,0.563-0.563,1.06-0.927,1.541c-0.365,0.083-0.746,0.116-1.11,0.215
		c-0.166,0.05-0.199,0.099-0.232,0.265L76.7,6.322l-0.017,0.099c0.116,0.149,0.332,0.315,0.497,0.365l-0.017,0.017
		c0.166,0,0.348-0.017,0.514-0.017c0.049,0,0.199,0,0.199,0.083c0,0.116-0.05,0.215-0.066,0.331
		c-0.066,0.464-0.182,0.928-0.265,1.391c-0.083,0.398-0.116,0.812-0.182,1.209c-0.265,1.723-0.497,3.495-0.497,5.234
		c0,0.58,0,1.706,0.613,2.021c0.199,0.099,0.414,0.149,0.613,0.249l0.099-0.149c0.017,0.033,0.033,0.083,0.083,0.083
		c0.116,0,0.331-0.05,0.331-0.199c0-0.05,0-0.083-0.017-0.132c-0.099-0.414-0.166-0.861-0.166-1.292c0-1.077,0.132-2.17,0.298-3.23
		C79.05,10.381,79.399,8.377,79.995,6.439z M79.829,3.175v0.033l-0.083,0.149C79.763,3.291,79.796,3.241,79.829,3.175z M79.73,4.119
		h0.05l-0.05,0.033V4.119z M80.111,4.219c0.05-0.066,0.116-0.133,0.166-0.215c-0.166,0.447-0.298,0.878-0.463,1.309
		c-0.017,0.066-0.05,0.133-0.133,0.133h-0.033C79.647,5.312,80.028,4.368,80.111,4.219z M79.68,6.505v0.066
		c0,0.05-0.017,0.099-0.066,0.116L79.68,6.505z M77.328,13.528h-0.017v-0.215h0.017V13.528z M78.736,10.679v-0.083h0.017
		c0.016,0.033,0.016,0.05,0.016,0.083H78.736z M78.802,10.398h-0.017v-0.066h0.017V10.398z M78.852,10.199h-0.033l0.017-0.116h0.017
		L78.852,10.199L78.852,10.199z M78.868,9.95V9.851h0.017c0.017,0.033,0.017,0.066,0.017,0.099H78.868z M78.935,9.735h-0.017V9.602
		h0.017V9.735z M78.984,9.503c-0.016,0-0.016,0-0.033-0.016l0.017-0.1h0.016V9.503z M79.017,9.288H79V9.172h0.017V9.288z
		 M79.067,9.056H79.05V8.957h0.017V9.056z M79.117,8.857l-0.033-0.016l0.033-0.083V8.857z M79.133,8.708
		c0-0.033-0.017-0.05-0.017-0.083s0.033-0.066,0.066-0.066L79.133,8.708z M79.183,8.542c0-0.033-0.017-0.05-0.017-0.083
		c0-0.05,0.033-0.066,0.066-0.083L79.183,8.542z M79.233,8.36c-0.017-0.05-0.017-0.099-0.017-0.149h0.033
		C79.249,8.261,79.233,8.311,79.233,8.36z M79.282,8.112h-0.033c0-0.033,0.017-0.05,0.033-0.083V8.112z M79.299,7.963L79.282,7.98
		c0-0.017,0-0.033,0.017-0.05V7.963z M79.597,6.869l-0.05,0.116c0.017-0.066,0.017-0.116,0.05-0.182V6.869z M79.464,7.234
		c0-0.066,0.033-0.133,0.083-0.182c-0.033,0.099-0.05,0.182-0.066,0.282V7.35h-0.017c-0.017,0.083-0.05,0.182-0.083,0.265v0.017
		l-0.033,0.133c0-0.05,0.017-0.083,0.017-0.133l0.017-0.017c0-0.099,0-0.199,0.083-0.265l0.017-0.017
		C79.464,7.3,79.464,7.267,79.464,7.234z M79.399,5.031c-0.033,0.166-0.05,0.348-0.183,0.48C79.249,5.345,79.266,5.163,79.399,5.031
		z M79.017,6.886h0.017c0,0.017,0,0.017-0.017,0.033V6.886z M78.968,7.035l0.033,0.017l-0.033,0.083V7.035z M78.172,5.677
		c0-0.033,0.033-0.066,0.066-0.066L78.172,5.71V5.677z M77.394,12.816h-0.017v-0.199h0.017V12.816z M77.444,12.336h-0.033
		l0.166-1.375l0.05,0.016C77.559,11.425,77.494,11.889,77.444,12.336z M77.642,10.746c0-0.53,0.546-3.678,0.778-4.042
		c-0.348,1.358-0.546,2.75-0.778,4.125V10.746z M77.676,14.009h-0.017v-0.166h0.017V14.009z M77.692,13.595h-0.017v-0.033h0.017
		V13.595z M77.725,13.247h-0.017l0.017-0.315h0.017L77.725,13.247z M77.791,12.767h-0.033c0-0.083,0.017-0.149,0.017-0.232h0.017
		L77.791,12.767L77.791,12.767z M77.825,12.253c0-0.679,0.762-5.268,1.06-5.649c-0.199,0.961-0.414,1.905-0.596,2.866
		c-0.182,0.944-0.315,1.905-0.464,2.866V12.253z M78.935,7.333l-0.033,0.066l-0.017-0.017L78.935,7.333z M78.868,7.532v0.05h-0.033
		L78.868,7.532z M78.785,7.896v0.05h-0.017v-0.05H78.785z M78.736,8.112v0.033h-0.017L78.736,8.112z M78.703,8.277L78.686,8.36
		h-0.017c0.017-0.033,0.017-0.05,0.017-0.083H78.703z M78.653,8.493v0.05h-0.017v-0.05H78.653z M78.272,14.191h-0.017v-0.05h0.017
		V14.191z M78.322,13.694h-0.017c0-0.033,0-0.066,0.017-0.083V13.694z M78.388,13.148h-0.017v-0.05h0.017V13.148z M77.957,15.815
		c-0.033-0.249-0.033-0.513-0.033-0.762c0-1.441,0.232-2.899,0.447-4.323c0.232-1.391,0.48-2.816,0.895-4.174l0.149-0.017
		C78.62,9.569,78.09,12.684,77.957,15.815z M78.437,12.767H78.42V12.7h0.017V12.767z M78.471,12.419v-0.066h0.017L78.471,12.419z
		 M78.52,12.104c-0.017-0.017-0.017-0.05-0.017-0.066h0.017c0,0.017,0,0.05,0.017,0.066H78.52z M78.57,11.822h-0.017v-0.116h0.017
		V11.822z M78.62,11.491h-0.017v-0.066h0.017V11.491z M78.669,11.226h-0.017v-0.133h0.017V11.226z M78.686,10.845h0.033v0.099
		h-0.033V10.845z"/>
	<path class="st0" d="M82.33,7.764l-0.132,0.033l0.331,0.613c-0.149-0.033-0.298-0.066-0.447-0.066
		c-0.629,0-1.143,0.282-1.507,0.795c-0.463,0.646-0.795,1.441-0.795,2.236c0,0.977,0.596,1.673,1.607,1.673
		c0.463,0,0.911-0.315,0.944-0.795l-0.066,0.083c0,0.066-0.016,0.116-0.066,0.166v-0.066l-0.033,0.066h-0.017l-0.017,0.066h-0.017
		l0.017,0.033h-0.05v0.017l-0.033-0.017l0.017-0.05l-0.116-0.017c0.017-0.099,0.116-0.166,0.116-0.282
		c0-0.016-0.017-0.05-0.033-0.083c-0.1,0.149-0.133,0.315-0.315,0.398c0.05-0.132,0.182-0.248,0.182-0.398v-0.05l-0.017,0.017
		c-0.116,0.298-0.381,0.53-0.729,0.53c-0.232,0-0.282-0.63-0.282-0.795c0-0.133-0.017-0.414,0.05-0.547
		c1.093,0,2.518-0.861,2.518-2.071C83.44,8.526,82.993,7.979,82.33,7.764z M81.386,9.354l0.016-0.017v0.017l-0.066,0.033
		C81.353,9.371,81.353,9.354,81.386,9.354z M80.955,9.52c0,0.017-0.017,0.05-0.033,0.066h-0.017
		C80.922,9.586,80.939,9.536,80.955,9.52z M80.392,10.05h-0.017c0-0.017,0-0.017,0.017-0.017V10.05z M80.458,9.884l-0.033-0.017
		l0.05-0.083L80.458,9.884z M80.491,9.768h-0.017l0.017-0.017V9.768z M80.707,10.63H80.69c0-0.033,0-0.066,0.017-0.083V10.63z
		 M80.74,9.387l-0.066,0.05l-0.033,0.066c-0.017,0.066-0.033,0.133-0.116,0.166c0.033-0.066,0.083-0.116,0.116-0.166V9.487
		l0.033-0.05l0.083-0.133C80.757,9.338,80.74,9.354,80.74,9.387z M80.773,10.447c0-0.348,0.315-0.812,0.547-1.044
		C81.171,9.768,80.889,10.083,80.773,10.447z M81.088,10.663c0.132-0.729,0.729-1.54,1.474-1.706v0.066
		C82.562,9.619,81.684,10.596,81.088,10.663z M82.446,9.95l-0.05,0.017l0.05-0.033V9.95z M82.545,9.768V9.752l0.033-0.066
		C82.579,9.718,82.562,9.735,82.545,9.768z M82.628,9.586V9.553h0.033C82.662,9.569,82.645,9.586,82.628,9.586z M82.761,9.818
		l-0.017,0.05h-0.017L82.761,9.818z M82.794,10.182c0-0.099,0.265-0.481,0.331-0.596C83.059,9.801,82.959,10.017,82.794,10.182z"/>
	<path class="st0" d="M92.303,11.723c0.215-0.696,1.341-3.512,1.341-3.926c0-0.116-0.017-0.166-0.083-0.248
		c-0.133-0.166-0.646-0.431-0.861-0.431c-0.116,0-0.215,0.033-0.298,0.099l-0.977,0.729c-0.812,0.613-1.507,1.358-2.22,2.071
		c-0.099,0.099-0.199,0.182-0.282,0.282l-0.016-0.066c0.166-0.414,0.348-1.226,0.48-1.69c0.05-0.182,0.1-0.381,0.1-0.58
		c0-0.133-0.017-0.298-0.1-0.398c-0.116-0.149-0.497-0.298-0.679-0.298c-0.215,0-0.381,0.1-0.53,0.232
		c-1.292,1.044-2.236,2.468-3.164,3.827l-0.017-0.066c0-0.017,0.464-1.905,0.464-2.352c0-0.679-0.199-1.027-0.762-1.408
		c-0.149-0.099-0.414-0.182-0.596-0.182c-0.099,0-0.398,0.066-0.398,0.199c0,0.083,0.149,0.149,0.215,0.199l-0.017,0.05
		c0.066,0.017,0.083,0.083,0.132,0.133c0.083,0.083,0.083,0.182,0.083,0.298c0,0.961-0.282,1.938-0.464,2.882
		c-0.066,0.348-0.149,0.696-0.149,1.06c0,0.48,0.464,0.795,0.911,0.795c0.182,0,0.298-0.083,0.414-0.215
		c0.944-1.126,1.607-2.468,2.534-3.595c0.182-0.215,0.431-0.398,0.596-0.629h0.017c-0.033,0.05-0.033,0.116-0.05,0.166
		c-0.05,0.182-0.149,0.365-0.215,0.547c-0.232,0.613-0.513,1.623-0.513,2.27c0,0.166,0.017,0.331,0.166,0.431l0.481,0.298
		c0.298-0.099,0.398,0.133,0.695-0.199c1.01-1.127,2.087-2.8,3.346-3.611c-0.215,0.48-0.447,0.944-0.613,1.441
		c-0.298,0.861-0.663,2.17-0.663,3.081c0,0.083,0,0.166,0.017,0.249c0.05,0.398,0.58,0.712,0.944,0.712c0.149,0,0.447,0,0.447-0.215
		c0-0.149-0.166-0.133-0.166-0.298c0-0.05,0-0.066,0.017-0.116C92.021,12.733,92.153,12.22,92.303,11.723z M84.351,12.071h-0.066
		c0.232-0.977,0.447-1.971,0.663-2.949l0.05,0.017C84.799,10.116,84.583,11.093,84.351,12.071z M87.647,10.663h-0.016l0.033-0.066
		h0.017L87.647,10.663z M87.714,10.414l-0.017-0.017h0.017V10.414z M87.78,10.149c-0.017,0-0.017,0-0.017-0.017
		c0-0.016,0-0.016,0.017-0.016V10.149z M87.813,10.017h-0.017l0.033-0.05L87.813,10.017z M88.907,9.487V9.47h0.016L88.907,9.487z
		 M88.791,8.211l-0.017,0.05l-0.017-0.05H88.791z M87.879,11.077h-0.017l0.017-0.017V11.077z M87.879,9.818
		c-0.017,0-0.017,0.017-0.033,0.017c0-0.017,0.016-0.017,0.033-0.033V9.818z M87.946,10.862h-0.017c0-0.033,0-0.05,0.017-0.083
		V10.862z M87.946,10.746l0.05-0.149l0.033,0.017L87.946,10.746z M88.029,10.464v-0.017h0.017L88.029,10.464z M88.078,10.365h-0.016
		v-0.05h0.016V10.365z M88.111,10.199h-0.017c0-0.017,0-0.033,0.017-0.05V10.199z M88.062,9.255
		c0.099-0.414,0.281-0.795,0.447-1.176c-0.049,0.381-0.265,0.778-0.398,1.126L88.062,9.255z M88.691,8.46
		c-0.1,0.282-0.149,0.58-0.315,0.845C88.443,9.039,88.559,8.691,88.691,8.46z M88.31,9.602c-0.017,0.033-0.049,0.066-0.083,0.099
		c0.017-0.05,0.049-0.083,0.066-0.116L88.31,9.602z M88.228,9.718v0.166h-0.033L88.228,9.718z M88.161,10.017v0.033
		c-0.017-0.017-0.017-0.017-0.017-0.033H88.161z M88.31,10.878c-0.033,0.083-0.066,0.166-0.116,0.232l-0.066-0.017l0.994-3.181
		l0.049,0.017c-0.049,0.149-0.066,0.315-0.116,0.481C88.824,9.238,88.559,10.05,88.31,10.878z M92.004,11.988
		c-0.017-0.017-0.017-0.033-0.017-0.05h0.017c0,0.017,0,0.033,0.017,0.05H92.004z M92.071,11.756l-0.017-0.017h0.017V11.756z
		 M92.203,11.276c0.017-0.017,0.017-0.033,0.017-0.05l0.017,0.017L92.203,11.276z M92.303,11.06c-0.017,0-0.017,0.017-0.033,0.017
		c0-0.017,0.017-0.017,0.033-0.033V11.06z M92.335,10.977h-0.017v-0.033h0.017V10.977z M92.369,10.878h-0.017
		c0-0.016,0-0.016,0.017-0.016V10.878z M92.567,10.249v-0.05l0.033,0.017L92.567,10.249z M92.667,10.033H92.65
		c0-0.016,0-0.033,0.017-0.05V10.033z M92.7,9.884c0-0.017,0-0.017,0.017-0.033l0.033,0.033H92.7z M92.849,9.536
		c0.017-0.017,0.017-0.033,0.017-0.05h0.017L92.849,9.536z M92.916,9.354h-0.017l0.017-0.017V9.354z M92.948,9.271l-0.016-0.017
		h0.016V9.271z M92.982,9.188h-0.017l0.017-0.016V9.188z M93.015,9.106h-0.017l0.017-0.017V9.106z M93.065,9.006h-0.017l0.017-0.017
		V9.006z M93.18,8.708c-0.017,0-0.017,0-0.017-0.017h0.017V8.708z M93.263,8.476V8.443h0.017C93.263,8.46,93.263,8.46,93.263,8.476z
		 M92.899,7.813l0.033,0.017c-0.149,0.447-0.381,0.861-0.547,1.309c-0.232,0.613-0.447,1.226-0.663,1.839
		c-0.066,0.182-0.116,0.431-0.215,0.596c0.1-0.249,0.149-0.547,0.215-0.795C91.988,9.752,92.501,8.791,92.899,7.813z M92.269,9.834
		c0,0.017,0,0.017-0.017,0.017V9.834H92.269z M92.236,9.917l-0.017,0.017V9.917H92.236z M92.071,10.381v0.017l-0.017-0.017H92.071z
		 M92.038,10.464v0.017l-0.017-0.017H92.038z M91.126,11.789h-0.017v-0.05h0.017V11.789z M91.193,11.408
		c0,0.066-0.017,0.149-0.017,0.215h-0.033L91.193,11.408l0.132-0.513C91.325,11.077,91.292,11.259,91.193,11.408z M92.452,8.029
		l0.033,0.017c-0.1,0.315-0.282,0.613-0.414,0.911c-0.199,0.43-0.348,0.894-0.514,1.342c-0.066,0.199-0.116,0.398-0.232,0.58
		C91.574,9.884,91.988,8.94,92.452,8.029z M91.358,12.203h-0.017l0.017-0.017V12.203z M91.358,12.154l0.017-0.066h0.033
		L91.358,12.154z M91.425,11.988l-0.017-0.017c0-0.017,0-0.017,0.017-0.033V11.988z M91.806,11.971
		c-0.1,0.381-0.166,0.779-0.298,1.143l-0.033-0.017c0.066-0.729,0.315-1.474,0.53-2.17c0.331-1.093,0.795-2.12,1.226-3.164h0.033
		c-0.017,0.083-0.017,0.166-0.05,0.248L92.551,9.75C92.269,10.48,92.004,11.226,91.806,11.971z"/>
	<path class="st0" d="M95.814,7.764l-0.132,0.033l0.331,0.613c-0.149-0.033-0.298-0.066-0.447-0.066
		c-0.629,0-1.143,0.282-1.507,0.795c-0.463,0.646-0.795,1.441-0.795,2.236c0,0.977,0.596,1.673,1.607,1.673
		c0.463,0,0.911-0.315,0.944-0.795l-0.066,0.083c0,0.066-0.016,0.116-0.066,0.166v-0.066l-0.033,0.066h-0.017l-0.017,0.066h-0.017
		l0.017,0.033h-0.05v0.017l-0.033-0.017l0.017-0.05l-0.116-0.017c0.017-0.099,0.116-0.166,0.116-0.282
		c0-0.016-0.017-0.05-0.033-0.083c-0.1,0.149-0.133,0.315-0.315,0.398c0.05-0.132,0.182-0.248,0.182-0.398v-0.05l-0.017,0.017
		c-0.116,0.298-0.381,0.53-0.729,0.53c-0.232,0-0.282-0.63-0.282-0.795c0-0.133-0.017-0.414,0.05-0.547
		c1.093,0,2.518-0.861,2.518-2.071C96.924,8.526,96.477,7.979,95.814,7.764z M94.87,9.354l0.017-0.017v0.017l-0.066,0.033
		C94.837,9.371,94.837,9.354,94.87,9.354z M94.44,9.52c0,0.017-0.017,0.05-0.033,0.066H94.39C94.406,9.586,94.423,9.536,94.44,9.52z
		 M93.876,10.05h-0.017c0-0.017,0-0.017,0.017-0.017V10.05z M93.943,9.884L93.91,9.867l0.05-0.083L93.943,9.884z M93.976,9.768
		h-0.017l0.017-0.017V9.768z M94.191,10.63h-0.017c0-0.033,0-0.066,0.017-0.083V10.63z M94.224,9.387l-0.066,0.05l-0.033,0.066
		c-0.017,0.066-0.033,0.133-0.116,0.166c0.033-0.066,0.083-0.116,0.116-0.166V9.487l0.033-0.05l0.083-0.133
		C94.241,9.338,94.224,9.354,94.224,9.387z M94.257,10.447c0-0.348,0.315-0.812,0.547-1.044
		C94.655,9.768,94.373,10.083,94.257,10.447z M94.572,10.663c0.132-0.729,0.729-1.54,1.474-1.706v0.066
		C96.046,9.619,95.168,10.596,94.572,10.663z M95.931,9.95l-0.05,0.017l0.05-0.033V9.95z M96.03,9.768V9.752l0.033-0.066
		C96.063,9.718,96.046,9.735,96.03,9.768z M96.113,9.586V9.553h0.033C96.146,9.569,96.129,9.586,96.113,9.586z M96.245,9.818
		l-0.017,0.05h-0.017L96.245,9.818z M96.278,10.182c0-0.099,0.265-0.481,0.331-0.596C96.543,9.801,96.444,10.017,96.278,10.182z"/>
	<path class="st0" d="M101.612,14.44c0-1.11,1.193-4.473,1.64-5.632c0.083-0.232,0.348-0.911,0.348-1.126
		c0-0.381-0.613-0.712-0.928-0.762c-0.182,0.05-0.298,0.182-0.431,0.315c-0.414,0.447-0.812,0.911-1.209,1.375
		c-1.027,1.193-1.905,2.485-2.833,3.76l-0.033-0.016c0.332-0.961,0.978-2.998,0.978-3.959c0-0.464-0.282-0.895-0.679-1.093
		c-0.033-0.017-0.199-0.099-0.232-0.099c-0.066,0-0.132,0-0.166,0.083c0.017,0.083,0.05,0.166,0.05,0.249
		c0,0.447-0.149,0.944-0.282,1.358c-0.265,0.911-0.845,2.882-0.845,3.777c0,0.497,0.497,0.944,0.977,0.944
		c0.116,0,0.166-0.017,0.265-0.099c0.431-0.381,1.276-1.806,1.623-2.369c0.547-0.878,1.16-1.789,1.889-2.534
		c0.049-0.05,0.099-0.066,0.149-0.099c-0.182,0.48-0.398,0.944-0.547,1.441c-0.315,1.011-0.828,2.435-0.828,3.479
		c0,0.779,0.182,1.574,1.127,1.574c0.1,0,0.166-0.066,0.166-0.166C101.662,14.754,101.612,14.605,101.612,14.44z M102.938,7.731
		l0.017,0.017l-0.017,0.05V7.731z M102.838,8.012c-0.066,0.182-0.166,0.365-0.248,0.547C102.656,8.36,102.722,8.178,102.838,8.012z
		 M102.639,7.714v0.083c-0.166,0.331-0.348,0.663-0.497,0.994l-0.05,0.033v0.133l-0.05-0.017l0.05-0.116
		C102.258,8.443,102.424,8.062,102.639,7.714z M98.962,12.187l-0.066,0.083c0.017-0.066,0.083-0.149,0.132-0.199
		C99.011,12.104,98.979,12.137,98.962,12.187z M98.78,11.839c0.066-0.116,0.149-0.248,0.248-0.348
		C98.945,11.607,98.879,11.723,98.78,11.839z M99.873,10.216c0.712-1.011,1.524-1.938,2.369-2.833l0.033,0.033l-0.05,0.066
		c-0.845,1.044-1.805,1.988-2.551,3.098c-0.116,0.166-0.199,0.348-0.331,0.497c-0.066,0.083-0.132,0.116-0.166,0.215l-0.066,0.083
		C99.31,10.961,99.608,10.596,99.873,10.216z M99.558,11.027v-0.033h0.033c0,0,0.033,0.017,0.05,0.017
		c-0.017,0.017-0.033,0.017-0.05,0.017v0.099h-0.066c0,0.017,0,0.05-0.017,0.066c-0.017-0.016-0.017-0.033-0.017-0.05v-0.05
		l0.033,0.017c0.017,0,0.05,0,0.066,0.017C99.592,11.11,99.558,11.027,99.558,11.027z M99.442,11.259l-0.016,0.05h-0.083
		c0.017-0.016,0.033-0.05,0.033-0.066h0.05L99.442,11.259z M99.144,11.756h-0.017l0.017-0.017V11.756z M99.177,11.839
		c0.066-0.149,0.166-0.282,0.281-0.414C99.376,11.574,99.277,11.706,99.177,11.839z M99.492,11.557v-0.033l0.017,0.017
		L99.492,11.557z M99.459,11.408c0.05-0.132,0.149-0.232,0.215-0.348C99.625,11.193,99.542,11.309,99.459,11.408z M99.724,10.911
		c-0.05,0-0.066,0.033-0.066,0.083c-0.016-0.017-0.016-0.05-0.016-0.066v-0.05l0.033,0.017
		C99.691,10.895,99.707,10.895,99.724,10.911c0-0.033,0-0.066-0.017-0.099v-0.033h0.017c0,0,0.033,0.017,0.05,0.017l-0.033,0.017
		C99.74,10.845,99.74,10.878,99.724,10.911z M99.79,10.928l-0.033,0.033l0.05-0.099L99.79,10.928z M100.039,10.679v-0.033
		l0.017-0.017C100.055,10.646,100.055,10.663,100.039,10.679z M100.022,10.63v0.017c-0.033,0.016-0.066,0.033-0.1,0.066l0.133-0.199
		C100.055,10.547,100.039,10.613,100.022,10.63z M100.966,9.42c-0.05,0.033-0.199,0.232-0.215,0.282l-0.083,0.083h-0.033
		l-0.066,0.099l0.033,0.017c-0.033,0.016-0.05,0.05-0.066,0.083l-0.049,0.033c-0.033,0.099-0.1,0.182-0.166,0.265h-0.033
		l-0.116,0.066c0.033-0.05,0.05-0.099,0.066-0.166c-0.182,0.215-0.298,0.365-0.447,0.596l-0.017-0.066v-0.05
		c0.663-0.961,1.391-1.872,2.219-2.7c-0.182,0.232-0.994,1.11-1.077,1.309c0.215-0.149,0.365-0.365,0.547-0.563v0.066l0.033,0.017
		C101.397,8.841,100.999,9.321,100.966,9.42z M101.828,8.41c-0.083,0.05-0.116,0.116-0.182,0.182c-0.066,0-0.099,0.033-0.149,0.066
		l0.646-0.712l-0.182,0.249C101.96,8.294,101.861,8.327,101.828,8.41z M102.026,9.039v0.033h-0.017
		C102.01,9.056,102.026,9.056,102.026,9.039z M101.927,9.338l-0.017,0.017V9.338H101.927z M101.38,13.363h-0.017v-0.05h0.017V13.363
		z M101.43,13.214l-0.05-0.016l0.116-0.414C101.48,12.932,101.463,13.065,101.43,13.214z M101.497,12.75
		c0.381-1.524,1.044-3.661,1.739-5.053l0.049,0.017c-0.315,0.895-0.695,1.756-1.01,2.65c-0.265,0.745-0.431,1.541-0.712,2.286
		C101.546,12.684,101.53,12.717,101.497,12.75z"/>
	<path class="st0" d="M108.553,5.561c-0.215-0.282-0.298-0.348-0.646-0.348c-0.298,0-0.58,0-0.861,0.066
		c-0.116,0.033-0.248,0.017-0.364,0.033c0,0,0.596-1.706,0.596-1.772c0-0.149-0.166-0.232-0.265-0.315l-0.133,0.033V3.092
		l-0.182-0.066l-0.132,0.116l0.083-0.232l-0.132,0.016l-0.066-0.099c-0.083,0.099-0.149,0.199-0.249,0.298l0.116-0.265l-0.199-0.099
		c-0.149,0-0.215,0.099-0.282,0.215c-0.232,0.398-0.497,0.812-0.679,1.242c-0.232,0.563-0.563,1.06-0.927,1.541
		c-0.365,0.083-0.746,0.116-1.11,0.215c-0.166,0.05-0.199,0.099-0.232,0.265l0.149,0.083l-0.017,0.099
		c0.116,0.149,0.332,0.315,0.497,0.365l-0.017,0.017c0.166,0,0.348-0.017,0.514-0.017c0.049,0,0.199,0,0.199,0.083
		c0,0.116-0.05,0.215-0.066,0.331c-0.066,0.464-0.182,0.928-0.265,1.391c-0.083,0.398-0.116,0.812-0.182,1.209
		c-0.265,1.723-0.497,3.495-0.497,5.234c0,0.58,0,1.706,0.613,2.021c0.199,0.099,0.414,0.149,0.613,0.249l0.099-0.149
		c0.017,0.033,0.033,0.083,0.083,0.083c0.116,0,0.331-0.05,0.331-0.199c0-0.05,0-0.083-0.017-0.132
		c-0.099-0.414-0.166-0.861-0.166-1.292c0-1.077,0.133-2.17,0.298-3.23c0.331-2.004,0.679-4.009,1.276-5.947
		c0.596-0.099,2.071-0.232,2.451-0.696C108.686,5.726,108.553,5.693,108.553,5.561z M103.667,13.528h-0.017v-0.215h0.017V13.528z
		 M105.738,5.031c-0.033,0.166-0.05,0.348-0.183,0.48C105.588,5.345,105.605,5.163,105.738,5.031z M105.356,6.886h0.017
		c0,0.017,0,0.017-0.017,0.033V6.886z M105.307,7.035l0.033,0.017l-0.033,0.083V7.035z M104.511,5.677
		c0-0.033,0.033-0.066,0.066-0.066l-0.066,0.099V5.677z M103.733,12.816h-0.017v-0.199h0.017V12.816z M103.783,12.336h-0.033
		l0.166-1.375l0.05,0.016C103.899,11.425,103.832,11.889,103.783,12.336z M103.982,10.746c0-0.53,0.546-3.678,0.778-4.042
		c-0.348,1.358-0.546,2.75-0.778,4.125V10.746z M104.015,14.009h-0.017v-0.166h0.017V14.009z M104.031,13.595h-0.017v-0.033h0.017
		V13.595z M104.064,13.247h-0.017l0.017-0.315h0.017L104.064,13.247z M104.131,12.767h-0.033c0-0.083,0.017-0.149,0.017-0.232h0.017
		L104.131,12.767L104.131,12.767z M104.164,12.253c0-0.679,0.762-5.268,1.06-5.649c-0.199,0.961-0.414,1.905-0.596,2.866
		c-0.182,0.944-0.315,1.905-0.464,2.866V12.253z M105.274,7.333l-0.033,0.066l-0.017-0.017L105.274,7.333z M105.207,7.532v0.05
		h-0.033L105.207,7.532z M105.124,7.896v0.05h-0.017v-0.05H105.124z M105.075,8.112v0.033h-0.017L105.075,8.112z M105.042,8.277
		l-0.017,0.083h-0.017c0.017-0.033,0.017-0.05,0.017-0.083H105.042z M104.992,8.493v0.05h-0.017v-0.05H104.992z M104.611,14.191
		h-0.017v-0.05h0.017V14.191z M104.661,13.694h-0.017c0-0.033,0-0.066,0.017-0.083V13.694z M104.727,13.148h-0.017v-0.05h0.017
		V13.148z M104.296,15.815c-0.033-0.249-0.033-0.513-0.033-0.762c0-1.441,0.232-2.899,0.447-4.323
		c0.232-1.391,0.48-2.816,0.895-4.174l0.149-0.017C104.959,9.569,104.429,12.684,104.296,15.815z M104.777,12.767h-0.017V12.7h0.017
		V12.767z M104.81,12.419v-0.066h0.017L104.81,12.419z M104.86,12.104c-0.017-0.017-0.017-0.05-0.017-0.066h0.017
		c0,0.017,0,0.05,0.017,0.066H104.86z M104.909,11.822h-0.016v-0.116h0.016V11.822z M104.959,11.491h-0.017v-0.066h0.017V11.491z
		 M105.009,11.226h-0.017v-0.133h0.017V11.226z M105.058,10.944h-0.033v-0.099h0.033V10.944z M105.075,10.679v-0.083h0.017
		c0.016,0.033,0.016,0.05,0.016,0.083H105.075z M105.141,10.398h-0.017v-0.066h0.017V10.398z M105.191,10.199h-0.033l0.017-0.116
		h0.017L105.191,10.199L105.191,10.199z M105.207,9.95V9.851h0.017c0.017,0.033,0.017,0.066,0.017,0.099H105.207z M105.274,9.735
		h-0.017V9.602h0.017V9.735z M105.323,9.503c-0.016,0-0.016,0-0.033-0.016l0.017-0.1h0.016V9.503z M105.356,9.288h-0.017V9.172
		h0.017V9.288z M105.406,9.056h-0.017V8.957h0.017V9.056z M105.456,8.857l-0.033-0.016l0.033-0.083V8.857z M105.472,8.708
		c0-0.033-0.017-0.05-0.017-0.083s0.033-0.066,0.066-0.066L105.472,8.708z M105.522,8.542c0-0.033-0.017-0.05-0.017-0.083
		c0-0.05,0.033-0.066,0.066-0.083L105.522,8.542z M105.572,8.36c-0.017-0.05-0.017-0.099-0.017-0.149h0.033
		C105.588,8.261,105.572,8.311,105.572,8.36z M105.621,8.112h-0.033c0-0.033,0.017-0.05,0.033-0.083V8.112z M105.638,7.963
		l-0.017,0.017c0-0.017,0-0.033,0.017-0.05V7.963z M105.82,7.333V7.35h-0.017c-0.017,0.083-0.05,0.182-0.083,0.265v0.017
		l-0.033,0.133c0-0.05,0.017-0.083,0.017-0.133l0.017-0.017c0-0.099,0-0.199,0.083-0.265L105.82,7.333
		c-0.017-0.033-0.017-0.066-0.017-0.099c0-0.066,0.033-0.133,0.083-0.182C105.853,7.151,105.837,7.234,105.82,7.333z M105.936,6.869
		l-0.05,0.116c0.017-0.066,0.017-0.116,0.05-0.182V6.869z M106.168,3.175v0.033l-0.083,0.149
		C106.102,3.291,106.135,3.241,106.168,3.175z M106.069,4.119h0.05l-0.05,0.033V4.119z M106.019,6.571
		c0,0.05-0.017,0.099-0.066,0.116l0.066-0.182V6.571z M106.152,5.312c-0.017,0.066-0.05,0.133-0.133,0.133h-0.033
		c0-0.133,0.381-1.077,0.464-1.226c0.05-0.066,0.116-0.133,0.166-0.215C106.45,4.451,106.317,4.882,106.152,5.312z"/>
</g>
</svg>
