<?xml version="1.0" encoding="utf-8"?>
<!-- Generator: Adobe Illustrator 22.0.1, SVG Export Plug-In . SVG Version: 6.00 Build 0)  -->
<svg version="1.1" id="Layer_1" xmlns="http://www.w3.org/2000/svg" xmlns:xlink="http://www.w3.org/1999/xlink" x="0px" y="0px"
	 viewBox="0 0 50 4.6" style="enable-background:new 0 0 50 4.6;" xml:space="preserve">
<style type="text/css">
	.st0{fill:#FFFFFF;}
</style>
<g>
	<rect x="6.623" y="0.885" class="st0" width="0.743" height="0.302"/>
	<path class="st0" d="M14.933,1.216c0.086,0,0.156-0.025,0.208-0.074c0.053-0.05,0.079-0.113,0.079-0.191
		c0-0.077-0.026-0.14-0.078-0.189c-0.052-0.05-0.122-0.075-0.209-0.075c-0.088,0-0.159,0.025-0.21,0.075
		c-0.051,0.049-0.077,0.113-0.077,0.189c0,0.078,0.026,0.142,0.079,0.191C14.777,1.191,14.847,1.216,14.933,1.216z"/>
	<path class="st0" d="M16.025,3.287V0.642h-0.514v2.645H15.19v-1.84h-0.514v1.84h-0.59c0.065-0.04,0.129-0.081,0.178-0.147
		c0.131-0.172,0.197-0.411,0.197-0.718V2.394c0-0.312-0.066-0.554-0.199-0.726s-0.316-0.258-0.55-0.258
		c-0.192,0-0.348,0.069-0.466,0.208V0.642h-0.512v2.645h-0.658c0.08-0.042,0.16-0.086,0.223-0.154
		c0.164-0.178,0.246-0.415,0.246-0.708l-0.003-0.131c-0.019-0.271-0.11-0.487-0.274-0.645s-0.375-0.237-0.633-0.237
		c-0.182,0-0.341,0.041-0.479,0.122c-0.138,0.082-0.243,0.197-0.316,0.346s-0.11,0.318-0.11,0.508V2.41
		c0,0.305,0.083,0.546,0.248,0.723c0.064,0.069,0.143,0.112,0.224,0.154h-0.695V0.784H9.809L9.15,2.654L8.487,0.784H7.793V1.65H6.93
		v0.302h0.863v0.628H7.086v0.302h0.707v0.406H7.277v0.302h0.746c0.045-0.163,0.152-0.297,0.301-0.372V2.658L8.271,1.442l0.662,1.832
		C9.039,3.352,9.114,3.459,9.15,3.588h7.286c0.034-0.122,0.101-0.225,0.197-0.302H16.025z M9.973,2.658v0.629H9.358l0.668-1.846
		L9.973,2.658z M11.929,2.843c-0.069,0.095-0.167,0.143-0.29,0.143c-0.128,0-0.226-0.049-0.294-0.145
		c-0.068-0.097-0.103-0.236-0.103-0.418c0-0.205,0.034-0.355,0.103-0.453c0.069-0.098,0.166-0.146,0.291-0.146
		c0.126,0,0.225,0.049,0.294,0.147c0.07,0.098,0.105,0.236,0.105,0.415C12.034,2.595,11.999,2.747,11.929,2.843z M13.203,3.287
		l0.014-0.127c0.044,0.056,0.1,0.091,0.155,0.127H13.203z M13.912,2.74c-0.052,0.164-0.161,0.246-0.326,0.246
		c-0.165,0-0.278-0.068-0.34-0.203V2.024c0.062-0.134,0.174-0.201,0.336-0.201c0.122,0,0.213,0.045,0.275,0.134
		c0.061,0.089,0.092,0.231,0.092,0.426C13.949,2.543,13.937,2.662,13.912,2.74z"/>
	<path class="st0" d="M17.145,1.411c-0.175,0-0.33,0.041-0.467,0.123c-0.136,0.082-0.242,0.199-0.316,0.351
		c-0.075,0.151-0.112,0.324-0.112,0.516v0.05c0,0.287,0.088,0.517,0.265,0.689c0.05,0.049,0.112,0.078,0.172,0.109
		c0.092-0.058,0.194-0.1,0.311-0.1c0.186,0,0.346,0.091,0.455,0.225V3.345c0.061-0.015,0.129-0.013,0.185-0.038
		c0.131-0.062,0.235-0.146,0.312-0.255l-0.251-0.281c-0.111,0.143-0.265,0.215-0.462,0.215c-0.127,0-0.233-0.038-0.316-0.113
		c-0.083-0.076-0.133-0.176-0.15-0.302h1.221V2.362c0-0.303-0.075-0.538-0.226-0.703C17.614,1.493,17.407,1.411,17.145,1.411z
		 M17.487,2.222h-0.712c0.018-0.128,0.058-0.227,0.122-0.295c0.063-0.069,0.146-0.104,0.247-0.104c0.108,0,0.192,0.031,0.251,0.094
		c0.059,0.062,0.09,0.15,0.092,0.264V2.222z"/>
	<path class="st0" d="M19.878,1.171c0.134,0,0.239,0.033,0.313,0.099c0.074,0.065,0.111,0.157,0.111,0.275h0.532
		c0-0.155-0.04-0.293-0.12-0.415c-0.08-0.122-0.192-0.216-0.336-0.283c-0.144-0.066-0.308-0.1-0.492-0.1
		c-0.183,0-0.348,0.031-0.495,0.092s-0.26,0.146-0.338,0.256s-0.118,0.233-0.118,0.373c0,0.268,0.146,0.481,0.439,0.639
		c0.107,0.058,0.253,0.117,0.438,0.176c0.185,0.06,0.312,0.117,0.383,0.17s0.106,0.131,0.106,0.231c0,0.093-0.036,0.164-0.106,0.216
		c-0.071,0.051-0.169,0.076-0.296,0.076c-0.34,0-0.51-0.143-0.51-0.427h-0.533c0,0.167,0.043,0.313,0.128,0.439
		c0.086,0.126,0.21,0.226,0.373,0.298c0.163,0.073,0.344,0.109,0.542,0.109c0.286,0,0.513-0.062,0.682-0.189
		s0.253-0.303,0.253-0.526c0-0.201-0.069-0.369-0.208-0.503c-0.138-0.135-0.358-0.248-0.661-0.338
		c-0.164-0.05-0.289-0.103-0.373-0.16s-0.126-0.127-0.126-0.211c0-0.089,0.036-0.162,0.108-0.217
		C19.647,1.199,19.748,1.171,19.878,1.171z"/>
	<polygon class="st0" points="20.907,1.214 21.687,1.214 21.687,3.363 22.218,3.363 22.218,1.214 23.008,1.214 23.008,0.784 
		20.907,0.784 	"/>
	<polygon class="st0" points="23.716,2.242 24.736,2.242 24.736,1.828 23.716,1.828 23.716,1.214 24.91,1.214 24.91,0.784 
		23.185,0.784 23.185,3.363 24.913,3.363 24.913,2.936 23.716,2.936 	"/>
	<polygon class="st0" points="26.455,2.654 25.792,0.784 25.098,0.784 25.098,3.363 25.629,3.363 25.629,2.658 25.576,1.442 
		26.271,3.363 26.636,3.363 27.332,1.441 27.279,2.658 27.279,3.363 27.812,3.363 27.812,0.784 27.113,0.784 	"/>
	<path class="st0" d="M29.84,1.171c0.135,0,0.239,0.033,0.313,0.099c0.074,0.065,0.111,0.157,0.111,0.275h0.531
		c0-0.155-0.04-0.293-0.119-0.415c-0.08-0.122-0.191-0.216-0.336-0.283c-0.144-0.066-0.308-0.1-0.492-0.1
		c-0.184,0-0.349,0.031-0.495,0.092c-0.147,0.062-0.26,0.146-0.339,0.256c-0.078,0.109-0.117,0.233-0.117,0.373
		c0,0.268,0.146,0.481,0.439,0.639c0.107,0.058,0.253,0.117,0.438,0.176c0.184,0.06,0.312,0.117,0.382,0.17
		c0.071,0.054,0.106,0.131,0.106,0.231c0,0.093-0.035,0.164-0.106,0.216c-0.07,0.051-0.169,0.076-0.295,0.076
		c-0.341,0-0.511-0.143-0.511-0.427h-0.533c0,0.167,0.043,0.313,0.129,0.439c0.085,0.126,0.21,0.226,0.373,0.298
		c0.162,0.073,0.343,0.109,0.542,0.109c0.285,0,0.513-0.062,0.682-0.189s0.253-0.303,0.253-0.526c0-0.201-0.068-0.369-0.207-0.503
		c-0.138-0.135-0.358-0.248-0.661-0.338c-0.164-0.05-0.288-0.103-0.372-0.16c-0.085-0.057-0.127-0.127-0.127-0.211
		c0-0.089,0.036-0.162,0.108-0.217C29.608,1.199,29.71,1.171,29.84,1.171z"/>
	<path class="st0" d="M32.453,1.648C32.29,1.49,32.078,1.411,31.82,1.411c-0.183,0-0.342,0.041-0.479,0.122
		c-0.138,0.082-0.243,0.197-0.316,0.346s-0.109,0.318-0.109,0.508V2.41c0,0.305,0.082,0.546,0.247,0.723
		c0.164,0.178,0.385,0.266,0.661,0.266s0.497-0.088,0.661-0.266s0.246-0.415,0.246-0.708l-0.004-0.131
		C32.708,2.021,32.617,1.806,32.453,1.648z M32.114,2.843c-0.07,0.095-0.167,0.143-0.291,0.143c-0.127,0-0.226-0.049-0.294-0.145
		c-0.068-0.097-0.103-0.236-0.103-0.418c0-0.205,0.034-0.355,0.103-0.453c0.068-0.098,0.165-0.146,0.291-0.146
		s0.224,0.049,0.294,0.147c0.069,0.098,0.104,0.236,0.104,0.415C32.219,2.595,32.184,2.747,32.114,2.843z"/>
	<rect x="32.946" y="0.642" class="st0" width="0.514" height="2.721"/>
	<path class="st0" d="M34.885,2.804c-0.065,0.121-0.185,0.182-0.358,0.182c-0.182,0-0.272-0.1-0.272-0.3V1.446h-0.512v1.256
		c0.002,0.228,0.058,0.401,0.165,0.519c0.108,0.118,0.265,0.177,0.471,0.177c0.223,0,0.397-0.076,0.524-0.23l0.014,0.195h0.482
		V1.446h-0.514V2.804z"/>
	<path class="st0" d="M36.312,2.931c-0.027-0.031-0.041-0.082-0.041-0.152V1.822h0.328V1.446h-0.328V0.975h-0.512v0.471h-0.28v0.375
		h0.28v1.033c0.007,0.361,0.189,0.543,0.549,0.543c0.106,0,0.21-0.015,0.31-0.046V2.964c-0.043,0.008-0.094,0.012-0.15,0.012
		C36.391,2.976,36.338,2.961,36.312,2.931z"/>
	<rect x="36.783" y="1.446" class="st0" width="0.514" height="1.917"/>
	<path class="st0" d="M37.04,0.686c-0.089,0-0.159,0.025-0.21,0.075c-0.052,0.049-0.077,0.113-0.077,0.189
		c0,0.078,0.026,0.142,0.078,0.191c0.053,0.049,0.122,0.074,0.209,0.074c0.086,0,0.155-0.025,0.208-0.074
		c0.053-0.05,0.078-0.113,0.078-0.191c0-0.077-0.025-0.14-0.077-0.189C37.196,0.711,37.127,0.686,37.04,0.686z"/>
	<path class="st0" d="M39.05,1.648c-0.163-0.158-0.375-0.237-0.633-0.237c-0.183,0-0.342,0.041-0.479,0.122
		c-0.138,0.082-0.243,0.197-0.316,0.346s-0.109,0.318-0.109,0.508V2.41c0,0.305,0.082,0.546,0.247,0.723
		c0.164,0.178,0.385,0.266,0.661,0.266s0.497-0.088,0.661-0.266s0.246-0.415,0.246-0.708l-0.004-0.131
		C39.305,2.021,39.214,1.806,39.05,1.648z M38.711,2.843c-0.07,0.095-0.167,0.143-0.291,0.143c-0.127,0-0.226-0.049-0.294-0.145
		c-0.068-0.097-0.103-0.236-0.103-0.418c0-0.205,0.034-0.355,0.103-0.453c0.068-0.098,0.165-0.146,0.291-0.146
		s0.224,0.049,0.294,0.147c0.069,0.098,0.104,0.236,0.104,0.415C38.815,2.595,38.78,2.747,38.711,2.843z"/>
	<path class="st0" d="M40.553,1.411c-0.23,0-0.414,0.085-0.551,0.257l-0.016-0.221h-0.482v1.917h0.513V2.008
		c0.071-0.124,0.18-0.185,0.324-0.185c0.109,0,0.188,0.025,0.235,0.074c0.047,0.049,0.07,0.128,0.07,0.237v1.229h0.513V2.124
		c-0.003-0.237-0.054-0.416-0.152-0.535C40.907,1.47,40.756,1.411,40.553,1.411z"/>
	<path class="st0" d="M42.551,2.296c-0.088-0.032-0.195-0.061-0.323-0.086c-0.127-0.025-0.218-0.056-0.271-0.09
		s-0.08-0.081-0.08-0.137c0-0.06,0.023-0.11,0.07-0.149s0.114-0.059,0.2-0.059c0.101,0,0.174,0.024,0.222,0.072
		c0.047,0.048,0.07,0.108,0.07,0.182h0.513c0-0.183-0.073-0.332-0.219-0.446c-0.146-0.115-0.341-0.172-0.584-0.172
		c-0.229,0-0.412,0.057-0.554,0.171c-0.142,0.114-0.212,0.256-0.212,0.426c0,0.292,0.229,0.485,0.684,0.581
		c0.138,0.028,0.237,0.061,0.299,0.096c0.062,0.036,0.093,0.085,0.093,0.148c0,0.061-0.024,0.108-0.075,0.146
		c-0.05,0.037-0.124,0.055-0.222,0.055c-0.105,0-0.189-0.023-0.252-0.072s-0.097-0.118-0.101-0.209h-0.485
		c0,0.115,0.035,0.224,0.105,0.323c0.071,0.101,0.169,0.179,0.294,0.235c0.124,0.058,0.267,0.086,0.428,0.086
		c0.237,0,0.431-0.054,0.581-0.162c0.149-0.107,0.225-0.249,0.225-0.424C42.956,2.567,42.821,2.395,42.551,2.296z"/>
	<path class="st0" d="M8.592,3.256c-0.273,0-0.494,0.221-0.494,0.494S8.32,4.244,8.592,4.244c0.273,0,0.494-0.221,0.494-0.494
		S8.865,3.256,8.592,3.256z M8.592,3.99c-0.132,0-0.24-0.108-0.24-0.24c0-0.132,0.108-0.24,0.24-0.24c0.132,0,0.24,0.108,0.24,0.24
		C8.832,3.882,8.725,3.99,8.592,3.99z"/>
	<path class="st0" d="M17.016,3.256c-0.273,0-0.494,0.221-0.494,0.494s0.221,0.494,0.494,0.494S17.51,4.023,17.51,3.75
		S17.289,3.256,17.016,3.256z M17.016,3.99c-0.132,0-0.24-0.108-0.24-0.24c0-0.132,0.108-0.24,0.24-0.24
		c0.132,0,0.24,0.108,0.24,0.24C17.256,3.882,17.148,3.99,17.016,3.99z"/>
</g>
</svg>
