<?xml version="1.0" encoding="utf-8"?>
<!-- Generator: Adobe Illustrator 24.1.2, SVG Export Plug-In . SVG Version: 6.00 Build 0)  -->
<svg version="1.1" id="Layer_1" xmlns="http://www.w3.org/2000/svg" xmlns:xlink="http://www.w3.org/1999/xlink" x="0px" y="0px"
	 viewBox="0 0 24 5.487" style="enable-background:new 0 0 24 5.487;" xml:space="preserve">
<path d="M14.806,4.347H11.58c-0.194,0-0.352-0.157-0.352-0.351s0.158-0.352,0.352-0.352h3.226c0.194,0,0.352,0.158,0.352,0.352
	S15.002,4.347,14.806,4.347z M15.364,2.949H11.58c-0.194,0-0.352-0.157-0.352-0.351c0-0.194,0.158-0.352,0.352-0.352h3.784
	c0.194,0,0.352,0.158,0.352,0.352C15.717,2.791,15.56,2.949,15.364,2.949z M14.237,1.55H11.58c-0.194,0-0.352-0.157-0.352-0.351
	s0.158-0.352,0.352-0.352h2.657c0.194,0,0.352,0.158,0.352,0.352C14.589,1.392,14.432,1.55,14.237,1.55z"/>
<path d="M10.682,4.347h-0.508c-0.026,0-0.047-0.157-0.047-0.351s0.021-0.352,0.047-0.352h0.508c0.026,0,0.047,0.158,0.047,0.352
	C10.73,4.19,10.709,4.347,10.682,4.347z M10.682,2.949h-0.508c-0.026,0-0.047-0.157-0.047-0.351c0-0.194,0.021-0.352,0.047-0.352
	h0.508c0.026,0,0.047,0.158,0.047,0.352C10.73,2.791,10.709,2.949,10.682,2.949z M10.682,1.55h-0.508
	c-0.026,0-0.047-0.157-0.047-0.351s0.021-0.352,0.047-0.352h0.508c0.026,0,0.047,0.158,0.047,0.352
	C10.73,1.392,10.709,1.55,10.682,1.55z"/>
<g>
	<path d="M17.117,1.728l0.687,1.641l0.688-1.641h0.209v1.86h-0.158v-0.81l0.014-0.83l-0.693,1.64h-0.122l-0.689-1.634l0.014,0.82
		v0.814H16.91v-1.86H17.117z"/>
	<path d="M20.199,2.696H19.33v0.759h0.999v0.133h-1.157v-1.86h1.152v0.133H19.33v0.702h0.869
		C20.199,2.564,20.199,2.696,20.199,2.696z"/>
	<path d="M22.045,3.588h-0.158l-1.068-1.591v1.591H20.66v-1.86h0.159l1.07,1.593V1.728h0.156V3.588z"/>
	<path d="M23.8,1.728v1.27c-0.001,0.125-0.029,0.234-0.083,0.327c-0.055,0.093-0.131,0.164-0.231,0.215
		c-0.099,0.049-0.213,0.075-0.343,0.075c-0.195,0-0.353-0.053-0.471-0.161c-0.116-0.107-0.178-0.255-0.184-0.443V1.728h0.156v1.258
		c0,0.157,0.045,0.279,0.134,0.365s0.21,0.13,0.364,0.13c0.154,0,0.274-0.044,0.364-0.13c0.089-0.086,0.133-0.208,0.133-0.363v-1.26
		H23.8z"/>
</g>
<g>
	<g>
		<g>
			<polygon points="1.024,4.455 1.091,0.588 0.353,0.668 0.262,0.189 2.63,0.296 2.532,0.52 1.729,0.557 1.321,4.523 			"/>
			<g>
				<path d="M4.472,4.002C4.341,4.09,4.089,4.165,3.839,4.201c-1.051,0.152-1.487-0.635-1.61-1.34
					C2.076,1.977,2.344,1.203,3.071,1.098C3.098,1.095,3.132,1.096,3.16,1.092c0.736-0.05,1.031,0.491,1.142,1.134
					c0.023,0.13,0.03,0.212,0.044,0.374L2.614,2.717C2.753,3.68,3.262,3.803,3.682,3.78c0.033-0.005,0.069-0.004,0.102-0.008
					C4.003,3.74,4.156,3.667,4.262,3.595L4.472,4.002z M3.798,2.248C3.701,1.685,3.436,1.362,3.084,1.413
					C2.683,1.47,2.587,1.954,2.633,2.384L3.798,2.248z"/>
				<path d="M6.334,5.487l0.199-1.544l-0.02-0.002C6.372,4.149,6.047,4.335,5.68,4.283C4.819,4.158,4.724,3.219,4.857,2.458
					c0.168-0.971,0.799-1.399,1.335-1.322c0.258,0.037,0.51,0.188,0.64,0.523l0.013,0.002l0.007-0.563l0.593,0.27L7.287,2.277
					L6.705,5.434L6.334,5.487z M6.706,2.421C6.764,1.967,6.57,1.564,6.21,1.513C5.769,1.449,5.479,1.877,5.378,2.458
					C5.29,2.965,5.332,3.769,5.928,3.856c0.231,0.033,0.626-0.125,0.691-0.693L6.706,2.421z"/>
			</g>
		</g>
	</g>
	<g>
		<path d="M8.279,0.794c0-0.043,0.011-0.084,0.031-0.121c0.02-0.037,0.048-0.067,0.083-0.088c0.036-0.021,0.074-0.032,0.115-0.032
			c0.042,0,0.081,0.011,0.117,0.032C8.66,0.606,8.689,0.636,8.709,0.673C8.729,0.709,8.74,0.751,8.74,0.794s-0.011,0.083-0.03,0.12
			C8.69,0.951,8.66,0.982,8.625,1.003C8.589,1.026,8.55,1.038,8.508,1.038c-0.042,0-0.082-0.012-0.118-0.033
			c-0.036-0.023-0.064-0.052-0.083-0.09C8.288,0.877,8.279,0.838,8.279,0.794z M8.306,0.794c0,0.039,0.01,0.075,0.027,0.108
			c0.018,0.033,0.043,0.059,0.074,0.078s0.065,0.029,0.101,0.029c0.036,0,0.07-0.01,0.101-0.029s0.056-0.045,0.074-0.078
			c0.018-0.033,0.026-0.07,0.026-0.108c0-0.038-0.008-0.074-0.026-0.106C8.666,0.655,8.642,0.63,8.61,0.611
			c-0.031-0.02-0.067-0.03-0.102-0.03c-0.036,0-0.07,0.008-0.101,0.029C8.375,0.629,8.351,0.655,8.333,0.688
			C8.316,0.72,8.306,0.756,8.306,0.794z M8.456,0.815v0.112H8.424V0.655h0.083c0.031,0,0.056,0.007,0.073,0.019
			c0.017,0.013,0.025,0.033,0.025,0.061c0,0.029-0.015,0.05-0.046,0.064c0.018,0.006,0.029,0.014,0.034,0.026
			c0.006,0.012,0.01,0.025,0.01,0.043c0,0.017,0.001,0.029,0.001,0.036s0.001,0.013,0.004,0.018v0.005H8.574
			C8.571,0.919,8.57,0.899,8.57,0.868c0-0.019-0.005-0.033-0.012-0.04C8.55,0.819,8.535,0.815,8.516,0.815
			C8.516,0.815,8.456,0.815,8.456,0.815z M8.456,0.786h0.058c0.018,0,0.032-0.005,0.043-0.013c0.011-0.01,0.017-0.021,0.017-0.036
			c0-0.019-0.005-0.031-0.014-0.039C8.55,0.69,8.534,0.686,8.511,0.685H8.456V0.786z"/>
	</g>
</g>
</svg>
