<?xml version="1.0" encoding="utf-8"?>
<!-- Generator: Adobe Illustrator 21.0.2, SVG Export Plug-In . SVG Version: 6.00 Build 0)  -->
<svg version="1.1" id="Layer_1" xmlns="http://www.w3.org/2000/svg" xmlns:xlink="http://www.w3.org/1999/xlink" x="0px" y="0px"
	 viewBox="0 0 100 20" style="enable-background:new 0 0 100 20;" xml:space="preserve">
<style type="text/css">
	.st0{fill:#98A4AE;}
	.st1{font-family:'Roboto-Bold';}
	.st2{font-size:6px;}
</style>
<text transform="matrix(1 0 0 1 17.3225 13.5828)" class="st0 st1 st2">Network Systems Admin</text>
<path class="st0" d="M14.86,9.216c-0.012-1.171-0.008-2.344-0.048-3.515c-0.004-0.102-0.094-0.142-0.17-0.125
	c-0.038-0.112-0.131-0.212-0.233-0.261c-0.141-0.067-0.289-0.085-0.423-0.027c-0.755-0.116-1.552-0.051-2.31-0.045
	c-0.866,0.007-1.753-0.024-2.619,0.057c-0.865-0.082-1.753-0.05-2.619-0.057C5.681,5.239,4.885,5.173,4.129,5.29
	c-0.133-0.058-0.282-0.04-0.423,0.027C3.604,5.365,3.512,5.464,3.474,5.577C3.398,5.559,3.307,5.6,3.304,5.702
	C3.293,6.009,3.286,6.316,3.28,6.623c-0.06,0.113-0.104,0.23-0.105,0.353c0,0.056,0.049,0.093,0.099,0.09
	C3.265,7.783,3.263,8.5,3.255,9.216c-0.012,1.152-0.137,2.372,0.009,3.515c0.003,0.023,0.015,0.043,0.03,0.06
	c0.046,0.161,0.143,0.308,0.269,0.412c-0.021,0.129-0.03,0.26-0.01,0.392c0.016,0.105,0.16,0.1,0.208,0.027
	C3.8,13.563,3.83,13.5,3.856,13.435c0.081,0.053,0.166,0.1,0.257,0.129c0.072,0.024,0.148-0.034,0.164-0.103
	c0.657,0.076,1.33,0.038,1.99,0.04c0.338,0.001,0.677,0.01,1.017,0.01c0.026,0.032,0.07,0.045,0.115,0.023
	c0.015-0.007,0.028-0.016,0.042-0.025c0.207-0.002,0.414-0.007,0.621-0.024c0.012,0.011,0.026,0.02,0.044,0.024
	c0.08,0.017,0.165,0.029,0.25,0.04c-0.018,0.156-0.024,0.312-0.031,0.469c-0.009,0.209-0.053,0.446-0.008,0.655
	c-0.125-0.001-0.25-0.001-0.375-0.002c-0.534-0.006-1.101-0.069-1.615,0.095c-0.075,0.024-0.079,0.117-0.019,0.155
	c-0.193,0.237-0.316,0.651-0.317,1.007c-0.093,0.102-0.178,0.21-0.237,0.327c-0.058,0.115,0.059,0.242,0.177,0.177
	c0.046-0.025,0.09-0.056,0.133-0.088c0.01,0.023,0.021,0.045,0.034,0.065c0.024,0.039,0.07,0.056,0.112,0.05
	c0.498,0.099,1.015,0.065,1.521,0.068c0.438,0.003,0.886,0.035,1.325,0.002c0.439,0.034,0.888,0.001,1.325-0.002
	c0.507-0.003,1.023,0.032,1.521-0.068c0.042,0.006,0.088-0.01,0.112-0.05c0.218-0.353,0.085-1.126-0.209-1.488
	c0.06-0.039,0.056-0.131-0.019-0.155c-0.515-0.164-1.081-0.101-1.615-0.095c-0.125,0.001-0.25,0.002-0.375,0.002
	c0.045-0.209,0.001-0.446-0.008-0.655c-0.007-0.157-0.013-0.314-0.031-0.469c0.085-0.011,0.171-0.023,0.25-0.04
	c0.018-0.004,0.032-0.013,0.044-0.024c0.005,0,0.009,0,0.014,0.001c0.027,0.068,0.102,0.102,0.174,0.065
	c0.028-0.014,0.052-0.033,0.075-0.053c0.509,0.023,1.022,0.003,1.531,0.002c0.478-0.001,0.963,0.018,1.444,0
	c0.024,0.055,0.088,0.079,0.147,0.051c0.035-0.017,0.066-0.039,0.096-0.063c0.101-0.007,0.203-0.015,0.303-0.027
	c0.016,0.069,0.091,0.127,0.164,0.103c0.143-0.047,0.275-0.133,0.392-0.226c0.02-0.016,0.046-0.041,0.071-0.07
	c0.17-0.102,0.299-0.281,0.356-0.477c0.015-0.017,0.027-0.037,0.03-0.06C14.998,11.588,14.872,10.368,14.86,9.216z M14.561,9.303
	c-0.049-0.01-0.103,0.007-0.137,0.063c-0.161,0.266-0.326,0.531-0.482,0.8c-0.036,0.061-0.074,0.123-0.112,0.184
	c0-0.056,0-0.112,0-0.168c0.165-0.108,0.241-0.298,0.338-0.466c0.13-0.226,0.26-0.452,0.391-0.677
	C14.559,9.126,14.56,9.215,14.561,9.303z M14.55,8.353c0.002,0.169,0.004,0.337,0.006,0.506c-0.057-0.063-0.169-0.08-0.223,0.016
	c-0.119,0.208-0.239,0.416-0.358,0.624c-0.044,0.077-0.097,0.156-0.145,0.236c0-0.139,0-0.278,0-0.418
	c0.014,0.005,0.03,0.006,0.046-0.001c0.179-0.074,0.256-0.25,0.352-0.41C14.338,8.724,14.445,8.539,14.55,8.353z M13.876,5.569
	c0.021-0.003,0.041-0.004,0.062-0.007c0.016,0.003,0.032,0.004,0.049,0c0.216-0.055,0.36,0.082,0.474,0.246
	c0.021,0.031,0.051,0.043,0.081,0.044c-0.009,0.758-0.003,1.516,0.006,2.274C14.489,8.083,14.4,8.08,14.348,8.159
	c-0.115,0.175-0.229,0.35-0.339,0.529c-0.055,0.088-0.127,0.183-0.179,0.284c0.001-0.135,0.005-0.274,0.009-0.414
	c0.074-0.1,0.136-0.211,0.202-0.317c0.153-0.248,0.305-0.495,0.45-0.747c0.083-0.143-0.128-0.262-0.219-0.128
	c-0.142,0.208-0.279,0.42-0.414,0.632c0.001-0.044,0.002-0.087,0.003-0.131c0.124-0.121,0.181-0.297,0.255-0.456
	c0.109-0.233,0.222-0.467,0.301-0.712c0.033-0.102-0.081-0.158-0.158-0.116c0.086-0.156,0.17-0.313,0.249-0.473
	c0.066-0.134-0.113-0.236-0.199-0.116c-0.166,0.232-0.323,0.471-0.471,0.715c-0.012,0.021-0.026,0.042-0.04,0.063
	c-0.006-0.034-0.013-0.068-0.019-0.103c0.205-0.202,0.337-0.509,0.474-0.746c0.076-0.133-0.115-0.237-0.201-0.117
	c-0.103,0.142-0.235,0.297-0.343,0.46c-0.082-0.013-0.166-0.022-0.249-0.032c0.017-0.024,0.034-0.049,0.052-0.072
	c0.123-0.168,0.249-0.336,0.35-0.518C13.878,5.618,13.88,5.593,13.876,5.569z M13.533,6.732C13.378,7.56,13.494,8.5,13.494,9.328
	c0,0.844,0,1.687-0.001,2.531c-0.018,0.05-0.032,0.1-0.046,0.15c-1.448,0.024-2.945-0.135-4.389,0.006
	c-1.459-0.143-2.973,0.022-4.435-0.007c0-0.894,0-1.787-0.001-2.681c0-0.907,0.144-1.952-0.089-2.834
	c0.067,0.009,0.134,0.014,0.201,0.021C4.715,6.559,4.7,6.604,4.696,6.652C4.69,6.716,4.761,6.758,4.817,6.744
	c0.114-0.029,0.211-0.108,0.297-0.203c0.017,0.001,0.033,0.002,0.05,0.003c0,0.001,0,0.003,0,0.004
	c0.005,0.047,0.034,0.079,0.082,0.082c0.078,0.005,0.15-0.029,0.218-0.08c0.124,0.001,0.249,0.002,0.373,0.001
	C5.828,6.566,5.817,6.579,5.808,6.594c-0.06,0.102,0.056,0.203,0.154,0.154C6.068,6.694,6.166,6.624,6.26,6.547
	c0.044-0.001,0.089-0.001,0.133-0.002c-0.004,0.018-0.01,0.036-0.011,0.055C6.378,6.646,6.424,6.689,6.468,6.687
	C6.579,6.68,6.68,6.621,6.773,6.544c0.144,0.001,0.29,0.005,0.437,0.01c0.024,0.041,0.068,0.066,0.123,0.045
	c0.025-0.01,0.048-0.025,0.072-0.037c0.551,0.023,1.118,0.049,1.653-0.024c0.376,0.052,0.769,0.054,1.16,0.043
	c0.036,0.018,0.077,0.014,0.119-0.004c0.352-0.012,0.702-0.032,1.037-0.033c0.034,0,0.068,0.001,0.102,0.001
	c0,0,0,0.001,0.001,0.001c0.064,0.064,0.143,0.047,0.22,0.001c0.436,0.005,0.876,0.017,1.312-0.003
	c0.032,0.046,0.096,0.071,0.147,0.035c0.02-0.014,0.038-0.032,0.056-0.048c0.124-0.009,0.248-0.02,0.371-0.036
	C13.582,6.5,13.581,6.506,13.58,6.512c-0.023,0.057-0.042,0.116-0.051,0.175C13.526,6.702,13.528,6.718,13.533,6.732z
	 M13.228,12.337c0.05,0,0.101-0.001,0.151,0c-0.055,0.117-0.11,0.234-0.166,0.351c-0.016,0.034-0.035,0.07-0.053,0.107
	c0.036-0.118,0.068-0.237,0.089-0.357C13.256,12.4,13.246,12.365,13.228,12.337z M9.185,14.609c0.1-0.076,0.146-0.183,0.205-0.293
	c0.047-0.087,0.089-0.176,0.13-0.266c0.002,0.058,0.004,0.116,0.005,0.175c0.004,0.157-0.002,0.306,0.035,0.452
	c-0.168,0.003-0.336,0.011-0.503,0.026c-0.127-0.011-0.254-0.017-0.381-0.022c0.057-0.081,0.108-0.168,0.163-0.246
	c0.187-0.269,0.403-0.549,0.534-0.851c0.001-0.002,0.001-0.005,0.002-0.007c0.048-0.002,0.095-0.002,0.143-0.006
	c-0.003,0.053-0.001,0.106-0.001,0.159c-0.051-0.023-0.115-0.016-0.154,0.051c-0.067,0.115-0.135,0.229-0.2,0.345
	c-0.065,0.117-0.147,0.247-0.154,0.382C9.006,14.59,9.114,14.663,9.185,14.609z M8.598,13.572c0.15,0.01,0.303,0.012,0.452,0.007
	c-0.134,0.168-0.247,0.355-0.367,0.532c-0.027,0.04-0.059,0.083-0.092,0.127c0-0.004,0-0.009,0-0.013
	C8.596,14.007,8.608,13.789,8.598,13.572z M8.871,12.747c-0.07,0.137-0.189,0.316-0.179,0.478c-0.041,0.002-0.082,0.003-0.123,0.006
	c0.049-0.096,0.086-0.202,0.128-0.294c0.076-0.17,0.147-0.34,0.215-0.514c0.012-0.031,0.009-0.058-0.004-0.081
	c0.05-0.004,0.101-0.007,0.151-0.012c0.01,0.001,0.02,0.001,0.03,0.002C9.01,12.467,8.942,12.608,8.871,12.747z M13.598,5.598
	c-0.102,0.117-0.198,0.239-0.29,0.363c-0.059,0.079-0.125,0.159-0.184,0.243c-0.102-0.007-0.205-0.008-0.307-0.012
	c0.017-0.017,0.033-0.033,0.049-0.05c0.11-0.114,0.216-0.235,0.308-0.364c0.044-0.062,0.026-0.121-0.016-0.161
	C13.305,5.615,13.452,5.609,13.598,5.598z M12.552,5.661c0.01-0.015,0.016-0.031,0.019-0.047c0.121,0.002,0.242,0.005,0.364,0.005
	c-0.176,0.154-0.373,0.351-0.488,0.565c-0.122,0-0.243,0.002-0.365,0.003C12.252,6.024,12.423,5.852,12.552,5.661z M11.965,5.683
	c0.025-0.022,0.035-0.049,0.036-0.077c0.061,0.001,0.121,0.001,0.181,0.003c-0.147,0.127-0.281,0.271-0.418,0.406
	c-0.038,0.037-0.116,0.103-0.186,0.179c-0.066,0.001-0.13,0.001-0.196,0.002C11.591,6.04,11.778,5.845,11.965,5.683z M10.726,5.725
	c0.039-0.039,0.041-0.085,0.023-0.122c0.307,0,0.612-0.003,0.915-0.003c-0.247,0.176-0.516,0.354-0.692,0.596
	c-0.059-0.001-0.118-0.002-0.177-0.004c0.095-0.094,0.187-0.191,0.273-0.293c0.09-0.107-0.03-0.301-0.16-0.207
	c-0.175,0.126-0.333,0.263-0.49,0.41c-0.023,0.022-0.055,0.048-0.088,0.076c-0.013,0-0.025-0.001-0.038-0.001
	C10.446,6.034,10.579,5.874,10.726,5.725z M10.035,5.646c0.012-0.015,0.019-0.032,0.023-0.049c0.155,0.003,0.309,0.006,0.464,0.006
	c-0.131,0.111-0.268,0.216-0.398,0.329c-0.082,0.071-0.174,0.15-0.255,0.236c-0.115-0.001-0.229,0-0.343,0.004
	c0.018-0.017,0.037-0.034,0.055-0.05C9.743,5.971,9.895,5.818,10.035,5.646z M9.346,5.585C9.35,5.579,9.35,5.573,9.353,5.567
	c0.121,0.008,0.242,0.015,0.363,0.02C9.608,5.67,9.503,5.756,9.401,5.85C9.284,5.96,9.151,6.073,9.054,6.206
	C8.994,6.199,8.932,6.193,8.871,6.188c0.014-0.016,0.027-0.032,0.041-0.048C9.066,5.964,9.22,5.783,9.346,5.585z M9.024,5.546
	c-0.118,0.118-0.23,0.243-0.336,0.371c-0.065,0.079-0.143,0.162-0.21,0.252c-0.051-0.001-0.102,0-0.153,0
	c0.146-0.146,0.29-0.297,0.404-0.471C8.758,5.654,8.744,5.603,8.711,5.57C8.816,5.564,8.92,5.556,9.024,5.546z M8.544,5.579
	c-0.157,0.11-0.297,0.242-0.431,0.378C8.043,6.028,7.968,6.1,7.9,6.176c-0.015,0-0.029,0.001-0.044,0.001
	c0.127-0.125,0.248-0.254,0.362-0.392c0.055-0.067,0.015-0.174-0.055-0.192C8.291,5.589,8.418,5.586,8.544,5.579z M7.576,5.706
	C7.601,5.671,7.601,5.634,7.589,5.6c0.177-0.001,0.353-0.001,0.53-0.005C8.107,5.597,8.096,5.602,8.084,5.61
	C7.918,5.728,7.765,5.853,7.612,5.987C7.54,6.051,7.456,6.118,7.381,6.192C7.296,6.194,7.211,6.196,7.128,6.197
	C7.286,6.041,7.444,5.886,7.576,5.706z M6.294,5.602c0.049-0.001,0.097-0.001,0.146-0.001c0.115,0,0.231,0,0.347,0.001
	C6.649,5.717,6.519,5.841,6.389,5.962C6.31,6.035,6.229,6.11,6.15,6.186C6.041,6.184,5.932,6.183,5.822,6.182
	C5.974,6.016,6.12,5.845,6.264,5.671C6.282,5.649,6.29,5.625,6.294,5.602z M5.836,5.611C5.873,5.61,5.911,5.609,5.949,5.608
	C5.822,5.724,5.697,5.841,5.576,5.963C5.663,5.846,5.748,5.728,5.836,5.611z M5.134,5.621c0.122,0,0.245-0.001,0.368-0.003
	C5.361,5.76,5.22,5.902,5.09,6.055C5.047,6.104,5,6.154,4.952,6.206C4.871,6.212,4.789,6.219,4.708,6.227
	C4.854,6.076,4.989,5.92,5.12,5.754C5.156,5.708,5.155,5.659,5.134,5.621z M3.655,5.808c0.084-0.121,0.184-0.226,0.317-0.252
	C3.832,5.749,3.7,5.949,3.576,6.153c-0.001-0.1,0-0.2-0.001-0.3C3.604,5.851,3.634,5.839,3.655,5.808z M3.656,12.774
	c-0.01,0.045-0.02,0.089-0.03,0.133c-0.073-0.087-0.118-0.192-0.131-0.31c0.012-0.094,0.021-0.189,0.029-0.283
	c-0.005,0.107,0.006,0.214,0.067,0.298c0.024,0.033,0.057,0.046,0.091,0.043C3.673,12.694,3.664,12.734,3.656,12.774z M3.553,9.872
	c0-0.082-0.001-0.164-0.001-0.245c0.02,0,0.039-0.004,0.056-0.021C3.637,9.577,3.66,9.544,3.682,9.511
	C3.638,9.63,3.593,9.75,3.553,9.872z M3.589,8.881C3.589,8.916,3.607,8.938,3.631,8.949c-0.024,0.06-0.05,0.121-0.075,0.184
	C3.558,8.979,3.56,8.824,3.562,8.669c0.002-0.002,0.004-0.003,0.006-0.005c0.052-0.059,0.101-0.123,0.148-0.19
	C3.651,8.604,3.592,8.737,3.589,8.881z M3.635,7.045C3.616,7.077,3.596,7.11,3.576,7.142c0.001-0.12,0.003-0.241,0.003-0.361
	c0.031-0.05,0.06-0.102,0.088-0.154c0.015,0.036,0.051,0.066,0.093,0.05c0.078-0.03,0.138-0.081,0.19-0.141
	C3.843,6.705,3.736,6.873,3.635,7.045z M3.82,9.218C3.837,9.171,3.853,9.125,3.869,9.08c0.083-0.224,0.165-0.448,0.248-0.672
	c0.014-0.039,0.01-0.073-0.006-0.099c0.05-0.103,0.1-0.205,0.149-0.308C4.264,8.156,4.27,8.31,4.275,8.463
	C4.199,8.436,4.102,8.459,4.071,8.558c-0.06,0.196-0.155,0.421-0.191,0.64C3.859,9.201,3.839,9.206,3.82,9.218z M4.162,7.652
	c0.034-0.079,0.066-0.158,0.096-0.235c-0.002,0.075-0.001,0.15-0.002,0.225C4.225,7.632,4.192,7.633,4.162,7.652z M4.285,12.167
	c-0.032,0.013-0.06,0.039-0.076,0.081c-0.064,0.178-0.123,0.356-0.179,0.536c-0.013,0.042-0.03,0.087-0.045,0.133
	c0.003-0.016,0.007-0.033,0.01-0.049c0.067-0.302,0.142-0.607,0.169-0.916c0.012-0.137-0.136-0.174-0.229-0.116
	c0.007-0.074,0.013-0.148,0.017-0.221c0.002-0.036-0.009-0.065-0.026-0.089c0.085-0.085,0.12-0.214,0.165-0.334
	c0.069-0.181,0.131-0.364,0.194-0.548L4.285,12.167z M4.286,9.639C4.26,9.65,4.236,9.669,4.22,9.702
	c-0.084,0.167-0.167,0.335-0.251,0.502c-0.016,0.031-0.032,0.061-0.048,0.09c0.024-0.09,0.048-0.181,0.071-0.272
	C4.016,9.93,3.95,9.872,3.879,9.866C3.914,9.753,3.947,9.64,3.981,9.528c0.014-0.004,0.028-0.011,0.04-0.025
	c0.134-0.153,0.205-0.366,0.264-0.576c0,0.028,0.002,0.056,0.002,0.084L4.286,9.639z M4.272,7.171
	c-0.031-0.025-0.075-0.036-0.116-0.03C4.209,7.04,4.261,6.939,4.308,6.836C4.291,6.946,4.28,7.058,4.272,7.171z M4.127,6.47
	c-0.032-0.028-0.08-0.039-0.118-0.013C4.054,6.391,4.094,6.32,4.136,6.252C4.269,6.04,4.384,5.818,4.499,5.596
	C4.642,5.607,4.786,5.615,4.93,5.618C4.769,5.75,4.614,5.883,4.469,6.033C4.348,6.158,4.168,6.294,4.127,6.47z M4.735,13.195
	c-0.137,0.007-0.275,0.016-0.411,0.031c0.014-0.012,0.025-0.028,0.037-0.043c0,0,0,0,0,0c0.02,0.013,0.053,0.013,0.073,0
	c0.025-0.017,0.043-0.039,0.056-0.063c0.017,0.005,0.036,0.007,0.055,0.003c0.1-0.019,0.174-0.104,0.238-0.186
	C4.756,13.022,4.733,13.109,4.735,13.195z M4.877,12.371c-0.097,0.101-0.201,0.189-0.29,0.3c0.044-0.111,0.087-0.223,0.131-0.334
	c0.079-0.001,0.158,0,0.237,0C4.927,12.337,4.899,12.347,4.877,12.371z M5.367,13.183c-0.12,0-0.241-0.001-0.361,0.002
	c0.033-0.062,0.058-0.131,0.088-0.201c0.083-0.198,0.148-0.406,0.209-0.611c0.004-0.012,0.003-0.024,0.003-0.036
	c0.135,0.002,0.271,0.005,0.406,0.008c-0.081,0.199-0.165,0.398-0.238,0.6C5.421,13.018,5.375,13.094,5.367,13.183z M6.17,12.84
	c-0.044,0.088-0.142,0.241-0.094,0.346c-0.133-0.001-0.266-0.002-0.4-0.003c0.035-0.04,0.068-0.083,0.099-0.127
	c0.103-0.14,0.204-0.282,0.306-0.423c0.079-0.11-0.024-0.209-0.131-0.207c0.006-0.017,0.013-0.035,0.019-0.052
	c0.003-0.008,0.002-0.014,0.003-0.021c0.151,0.004,0.303,0.009,0.455,0.013C6.34,12.523,6.251,12.68,6.17,12.84z M6.538,13.178
	c-0.001,0.002-0.002,0.005-0.003,0.007c-0.066,0.001-0.132,0.002-0.198,0.003c0.046-0.06,0.08-0.136,0.103-0.183
	c0.001,0.002,0.001,0.005,0.002,0.007c0.013,0.029,0.055,0.053,0.087,0.05c0.05-0.005,0.088-0.022,0.119-0.046
	C6.611,13.069,6.574,13.123,6.538,13.178z M7.285,12.84c-0.051,0.104-0.127,0.219-0.168,0.337c-0.078,0.001-0.156,0.002-0.235,0.003
	c0.108-0.161,0.212-0.324,0.315-0.489c0.093-0.148-0.132-0.272-0.23-0.135c-0.061,0.086-0.123,0.172-0.183,0.258
	c0.007-0.013,0.014-0.026,0.021-0.04c0.072-0.13,0.139-0.262,0.205-0.394c0.174,0.004,0.348,0.007,0.521,0.008
	C7.44,12.533,7.362,12.684,7.285,12.84z M8.263,13.224c-0.093-0.01-0.186-0.019-0.28-0.025c0.072-0.066,0.124-0.16,0.176-0.242
	c0.106-0.167,0.219-0.331,0.287-0.518c0.009-0.025,0.008-0.048,0.003-0.069c0.079-0.003,0.158-0.008,0.237-0.012
	c-0.091,0.167-0.178,0.336-0.261,0.507C8.369,12.981,8.294,13.098,8.263,13.224z M6.536,14.988c0.128,0.026,0.258,0.039,0.389,0.046
	c-0.189,0.175-0.38,0.345-0.563,0.528c-0.007,0.007-0.014,0.014-0.021,0.021C6.385,15.376,6.488,15.188,6.536,14.988z M6.315,16.238
	c0.003-0.042,0.003-0.084,0.003-0.126c0.075-0.08,0.147-0.161,0.218-0.237c0.226-0.242,0.433-0.496,0.651-0.744
	c0.025-0.029,0.034-0.06,0.033-0.089c0.07,0,0.14-0.001,0.21-0.003c-0.166,0.193-0.332,0.387-0.493,0.585
	c-0.146,0.18-0.328,0.368-0.416,0.587C6.451,16.218,6.383,16.227,6.315,16.238z M7.075,16.181c-0.055,0.001-0.11,0.002-0.166,0.004
	c0.12-0.132,0.223-0.286,0.326-0.419c0.188-0.242,0.369-0.486,0.549-0.734c0.054,0,0.107-0.001,0.161-0.001
	C7.634,15.39,7.289,15.765,7.075,16.181z M7.586,16.183c-0.053-0.001-0.106-0.001-0.159-0.002c0.34-0.336,0.617-0.767,0.9-1.138
	c0.004-0.005,0.004-0.01,0.007-0.015c0.068-0.001,0.135-0.001,0.203-0.003c-0.179,0.181-0.341,0.383-0.505,0.577
	C7.878,15.783,7.709,15.975,7.586,16.183z M7.981,16.186c-0.009,0-0.018,0-0.026,0c0.108-0.114,0.209-0.235,0.307-0.353
	c0.204-0.244,0.423-0.485,0.594-0.754c0.015-0.023,0.019-0.046,0.019-0.068c0.025-0.002,0.051-0.002,0.076-0.004
	c-0.112,0.148-0.224,0.296-0.331,0.448c-0.14,0.198-0.317,0.403-0.377,0.641c-0.008,0.031,0,0.061,0.017,0.086
	C8.168,16.183,8.075,16.185,7.981,16.186z M8.901,16.182c-0.154-0.006-0.309-0.005-0.465-0.003c0.168-0.129,0.287-0.318,0.408-0.49
	C9,15.468,9.149,15.245,9.295,15.018c0,0,0-0.001,0-0.001c0.083,0.004,0.165,0.007,0.247,0.009
	c-0.254,0.336-0.526,0.696-0.648,1.091C8.887,16.142,8.891,16.164,8.901,16.182z M11.44,15.009c0.047-0.006,0.094-0.012,0.14-0.021
	c0.016,0.069,0.04,0.136,0.066,0.203c-0.008,0.005-0.016,0.01-0.023,0.017c-0.076,0.08-0.136,0.187-0.19,0.284
	c-0.053,0.097-0.122,0.197-0.12,0.312c0.002,0.092,0.102,0.151,0.183,0.105c0.099-0.057,0.149-0.165,0.204-0.26
	c0.021-0.036,0.042-0.074,0.063-0.113c0.008,0.031,0.017,0.061,0.023,0.092c0.032,0.202,0,0.41,0.015,0.61
	c-0.35-0.058-0.71-0.061-1.069-0.058c0.101-0.135,0.188-0.282,0.276-0.423c0.148-0.237,0.306-0.472,0.426-0.725
	C11.437,15.025,11.438,15.017,11.44,15.009z M10.437,15.929c0.207-0.218,0.33-0.536,0.471-0.799
	c0.017-0.031,0.018-0.061,0.013-0.089c0.069,0,0.138-0.001,0.207-0.003c-0.114,0.155-0.217,0.318-0.322,0.48
	c-0.139,0.214-0.293,0.43-0.391,0.667c-0.094,0.001-0.187,0.002-0.28,0.001c-0.077,0-0.154-0.002-0.231-0.003
	c0.144-0.13,0.248-0.3,0.354-0.462c0.019-0.03,0.039-0.06,0.058-0.089c-0.026,0.063-0.049,0.126-0.065,0.19
	C10.226,15.925,10.358,16.012,10.437,15.929z M10.109,15.152c0.017-0.041,0.011-0.084-0.008-0.12c0.076,0,0.152,0,0.228,0.001
	c-0.076,0.117-0.148,0.237-0.22,0.356c-0.143,0.238-0.333,0.497-0.378,0.775c-0.001,0.005,0,0.01,0,0.015
	c-0.223-0.004-0.445-0.006-0.667,0.009c0.126-0.109,0.238-0.24,0.34-0.38c-0.01,0.026-0.021,0.052-0.03,0.078
	C9.335,16,9.489,16.08,9.568,16C9.794,15.774,9.983,15.444,10.109,15.152z M9.7,12.825c-0.053,0.127-0.125,0.264-0.162,0.404
	c-0.067-0.004-0.134-0.007-0.201-0.008c0.038-0.072,0.071-0.148,0.108-0.219c0.108-0.208,0.211-0.416,0.31-0.628
	c0.044,0.002,0.088,0.002,0.132,0.003C9.808,12.517,9.758,12.685,9.7,12.825z M10.316,12.862c-0.061,0.107-0.148,0.221-0.204,0.341
	c-0.062,0.005-0.125,0.006-0.187,0.012C9.951,13.144,9.973,13.071,10,13c0.07-0.186,0.181-0.409,0.195-0.616
	c0.145,0.002,0.291-0.001,0.437-0.002C10.53,12.544,10.412,12.695,10.316,12.862z M10.765,13.182c-0.078,0-0.156-0.001-0.235,0
	c0.013-0.026,0.027-0.052,0.041-0.076c0.121-0.215,0.21-0.445,0.329-0.659c0.013-0.023,0.016-0.045,0.016-0.066
	c0.063-0.001,0.126-0.003,0.189-0.004c-0.067,0.106-0.134,0.212-0.189,0.33C10.846,12.857,10.752,13.014,10.765,13.182z
	 M11.163,13.182c-0.042,0-0.084-0.001-0.126-0.001c0.073-0.088,0.122-0.201,0.174-0.302c0.085-0.167,0.138-0.339,0.204-0.509
	c0.085-0.002,0.169-0.005,0.254-0.007c-0.093,0.12-0.177,0.244-0.261,0.377C11.326,12.871,11.192,13.023,11.163,13.182z
	 M11.806,13.188c-0.089-0.001-0.179-0.001-0.269-0.002c0.043-0.07,0.081-0.146,0.119-0.21c0.122-0.204,0.23-0.403,0.321-0.621
	c0.054-0.001,0.107-0.002,0.161-0.004c-0.006,0.007-0.012,0.012-0.017,0.02c-0.12,0.216-0.271,0.469-0.325,0.711
	C11.787,13.123,11.793,13.158,11.806,13.188z M12.279,13.15c0.003,0.014,0.01,0.024,0.018,0.034
	c-0.064,0.001-0.127,0.001-0.19,0.002c0.063-0.101,0.101-0.221,0.146-0.33c0.05-0.123,0.098-0.245,0.138-0.372
	c0.018-0.057-0.001-0.105-0.036-0.139c0.09-0.002,0.181-0.003,0.271-0.005c-0.066,0.105-0.131,0.211-0.187,0.323
	C12.361,12.818,12.241,12.974,12.279,13.15z M12.775,12.895c-0.029,0.081-0.083,0.192-0.081,0.288c-0.072,0-0.143,0-0.215,0.001
	c0.114-0.083,0.16-0.241,0.222-0.366c0.078-0.156,0.139-0.318,0.201-0.481c0.033,0,0.066,0,0.1,0
	C12.909,12.514,12.842,12.707,12.775,12.895z M13.34,13.191c-0.105-0.005-0.21-0.006-0.315-0.007
	c0.013-0.029,0.024-0.058,0.032-0.081c0.015-0.043,0.03-0.087,0.045-0.131c-0.004,0.045,0.002,0.09,0.028,0.134
	c0.021,0.035,0.058,0.047,0.097,0.04c0.051-0.01,0.088-0.035,0.118-0.069c0.069-0.068,0.105-0.174,0.141-0.26
	c0.007-0.017,0.009-0.032,0.009-0.046c0.064-0.146,0.126-0.293,0.188-0.44c0.076-0.008,0.147-0.058,0.147-0.157
	c0-0.126,0-0.252,0-0.378c0.254-0.388,0.443-0.844,0.654-1.236c0.079-0.147-0.143-0.277-0.224-0.131
	c-0.131,0.238-0.286,0.483-0.431,0.734c0-0.084,0-0.168,0-0.252c0.144-0.181,0.25-0.4,0.366-0.596
	c0.126-0.212,0.246-0.426,0.367-0.641c0.001,0.428-0.009,0.862-0.012,1.297c-0.044-0.012-0.095-0.002-0.119,0.046
	c-0.12,0.237-0.236,0.476-0.346,0.717c-0.087,0.189-0.214,0.386-0.211,0.598c-0.088,0.135-0.174,0.272-0.258,0.41
	C13.532,12.88,13.412,13.031,13.34,13.191z M13.888,13.236c-0.048-0.006-0.096-0.012-0.145-0.017
	c0.041-0.072,0.079-0.146,0.119-0.213c0.162-0.272,0.322-0.543,0.464-0.826c0.042-0.083,0.007-0.157-0.051-0.192
	c0.02-0.051,0.039-0.102,0.059-0.151c0.076-0.181,0.147-0.363,0.217-0.546c0.002,0.28,0.008,0.56,0.027,0.837
	c-0.047-0.038-0.114-0.047-0.165,0.011c-0.131,0.149-0.215,0.333-0.303,0.51C14.017,12.838,13.914,13.027,13.888,13.236z
	 M14.412,12.985c-0.029-0.001-0.059,0.006-0.089,0.016c0.029-0.059,0.058-0.118,0.086-0.176c0.068-0.14,0.144-0.284,0.192-0.434
	c0.007,0.069,0.012,0.137,0.021,0.205C14.604,12.753,14.531,12.887,14.412,12.985z"/>
</svg>
