<?xml version="1.0" encoding="utf-8"?>
<!-- Generator: Adobe Illustrator 22.0.1, SVG Export Plug-In . SVG Version: 6.00 Build 0)  -->
<svg version="1.1" id="Layer_1" xmlns="http://www.w3.org/2000/svg" xmlns:xlink="http://www.w3.org/1999/xlink" x="0px" y="0px"
	 viewBox="0 0 200 24" style="enable-background:new 0 0 200 24;" xml:space="preserve">
<style type="text/css">
	.st0{fill:#636871;}
	.st1{opacity:0.46;}
	.st2{opacity:0.33;fill:#5C6A75;enable-background:new    ;}
	.st3{fill:url(#SVGID_1_);}
	.st4{fill:url(#SVGID_2_);}
	.st5{fill:url(#SVGID_3_);}
	.st6{opacity:0.44;fill:#FFFFFF;enable-background:new    ;}
	.st7{fill:#51C4DC;}
	.st8{fill:#2DA6D4;}
	.st9{opacity:0.33;fill:#FFFFFF;enable-background:new    ;}
	.st10{fill:#FFFFFF;}
</style>
<g>
	<g>
		<path class="st0" d="M44.363,7.611c0,0.349-0.062,0.655-0.185,0.918c-0.123,0.263-0.3,0.465-0.529,0.609
			c-0.23,0.142-0.493,0.214-0.79,0.214c-0.294,0-0.555-0.07-0.785-0.211C41.843,9,41.665,8.799,41.538,8.536
			c-0.127-0.262-0.191-0.564-0.192-0.904V7.455c0-0.348,0.063-0.655,0.189-0.921c0.126-0.265,0.303-0.469,0.533-0.611
			c0.23-0.142,0.493-0.213,0.788-0.213c0.295,0,0.558,0.071,0.788,0.213c0.23,0.142,0.407,0.346,0.533,0.611
			s0.188,0.571,0.188,0.919L44.363,7.611L44.363,7.611z M43.622,7.45c0-0.372-0.066-0.654-0.199-0.847
			c-0.133-0.193-0.323-0.289-0.57-0.289c-0.245,0-0.433,0.095-0.566,0.285c-0.133,0.191-0.2,0.47-0.201,0.839v0.173
			c0,0.361,0.066,0.643,0.199,0.842c0.133,0.199,0.325,0.3,0.574,0.3c0.245,0,0.433-0.096,0.564-0.288
			c0.131-0.192,0.198-0.473,0.199-0.841L43.622,7.45z"/>
		<path class="st0" d="M45.369,6.669l0.023,0.304c0.188-0.236,0.441-0.353,0.757-0.353c0.28,0,0.487,0.082,0.623,0.246
			c0.136,0.163,0.206,0.409,0.208,0.735v1.701h-0.702V7.614c0-0.149-0.032-0.258-0.097-0.326c-0.065-0.068-0.173-0.102-0.323-0.102
			c-0.198,0-0.347,0.084-0.445,0.253v1.861H44.71V6.669H45.369z"/>
		<path class="st0" d="M48.131,9.302h-0.706V5.564h0.706V9.302z"/>
		<path class="st0" d="M48.58,5.987c0-0.105,0.036-0.192,0.105-0.261c0.07-0.068,0.166-0.102,0.288-0.102
			c0.121,0,0.216,0.034,0.287,0.102c0.072,0.069,0.107,0.155,0.107,0.261c0,0.107-0.037,0.194-0.108,0.263
			c-0.071,0.069-0.166,0.102-0.284,0.102c-0.118,0-0.213-0.034-0.285-0.102C48.617,6.183,48.58,6.095,48.58,5.987z M49.329,9.302
			h-0.706V6.669h0.706V9.302z"/>
		<path class="st0" d="M50.43,6.669l0.023,0.304c0.188-0.236,0.441-0.353,0.757-0.353c0.278,0,0.487,0.082,0.623,0.246
			c0.136,0.163,0.206,0.409,0.208,0.735v1.701h-0.702V7.614c0-0.149-0.032-0.258-0.097-0.326c-0.065-0.068-0.173-0.102-0.323-0.102
			c-0.198,0-0.347,0.084-0.445,0.253v1.861h-0.705V6.669H50.43z"/>
		<path class="st0" d="M53.66,9.351c-0.386,0-0.7-0.118-0.943-0.355c-0.243-0.237-0.364-0.552-0.364-0.947V7.98
			c0-0.265,0.051-0.501,0.154-0.709c0.102-0.208,0.246-0.368,0.435-0.482c0.187-0.113,0.402-0.169,0.642-0.169
			c0.36,0,0.644,0.114,0.85,0.341c0.207,0.227,0.31,0.55,0.31,0.966v0.287h-1.677c0.023,0.172,0.091,0.309,0.206,0.413
			c0.114,0.104,0.259,0.156,0.435,0.156c0.271,0,0.482-0.097,0.635-0.295l0.346,0.387c-0.105,0.149-0.249,0.265-0.429,0.349
			C54.079,9.309,53.879,9.351,53.66,9.351z M53.579,7.187c-0.14,0-0.252,0.047-0.34,0.142c-0.086,0.095-0.142,0.23-0.167,0.406
			h0.978V7.678c-0.004-0.156-0.045-0.277-0.127-0.364C53.845,7.231,53.73,7.187,53.579,7.187z"/>
		<path class="st0" d="M56.91,8.054v1.248h-0.731V5.76h1.382c0.265,0,0.5,0.049,0.702,0.146c0.201,0.097,0.358,0.236,0.467,0.416
			c0.109,0.18,0.163,0.383,0.163,0.612c0,0.347-0.118,0.621-0.356,0.821c-0.238,0.2-0.566,0.3-0.987,0.3L56.91,8.054z M56.91,7.463
			h0.653c0.193,0,0.34-0.046,0.442-0.136c0.102-0.091,0.152-0.22,0.152-0.39c0-0.173-0.051-0.314-0.154-0.42
			C57.9,6.41,57.758,6.354,57.579,6.351H56.91V7.463z"/>
		<path class="st0" d="M60.703,7.328c-0.096-0.013-0.181-0.02-0.253-0.02c-0.266,0-0.441,0.09-0.523,0.27V9.3h-0.702v-2.63h0.664
			l0.02,0.314c0.141-0.242,0.336-0.362,0.586-0.362c0.078,0,0.152,0.011,0.219,0.032L60.703,7.328z"/>
		<path class="st0" d="M60.72,7.96c0-0.261,0.051-0.494,0.15-0.698c0.101-0.205,0.245-0.362,0.435-0.474
			c0.189-0.111,0.409-0.168,0.657-0.168c0.355,0,0.645,0.109,0.869,0.326c0.225,0.218,0.349,0.513,0.375,0.886l0.005,0.18
			c0,0.404-0.113,0.728-0.338,0.972c-0.225,0.244-0.528,0.366-0.907,0.366s-0.682-0.121-0.91-0.365
			c-0.226-0.244-0.34-0.574-0.34-0.993V7.96H60.72z M61.423,8.011c0,0.25,0.046,0.442,0.141,0.573
			c0.095,0.133,0.229,0.199,0.404,0.199c0.171,0,0.303-0.065,0.399-0.197s0.143-0.34,0.143-0.628c0-0.245-0.049-0.436-0.143-0.571
			c-0.095-0.135-0.23-0.203-0.404-0.203c-0.172,0-0.304,0.068-0.399,0.201C61.47,7.522,61.423,7.729,61.423,8.011z"/>
		<path class="st0" d="M63.714,9.302V7.185h-0.392V6.669h0.392V6.444c0-0.295,0.085-0.525,0.255-0.688
			c0.169-0.163,0.406-0.244,0.712-0.244c0.097,0,0.217,0.015,0.358,0.049l-0.007,0.54c-0.058-0.014-0.13-0.021-0.214-0.021
			c-0.265,0-0.397,0.126-0.397,0.375v0.213h0.523v0.515H64.42v2.118L63.714,9.302L63.714,9.302z"/>
		<path class="st0" d="M66.337,9.351c-0.386,0-0.7-0.118-0.943-0.355c-0.243-0.237-0.364-0.552-0.364-0.947V7.98
			c0-0.265,0.051-0.501,0.154-0.709c0.102-0.208,0.246-0.368,0.435-0.482c0.187-0.113,0.402-0.169,0.642-0.169
			c0.36,0,0.644,0.114,0.85,0.341c0.207,0.227,0.31,0.55,0.31,0.966v0.287h-1.677c0.023,0.172,0.091,0.309,0.206,0.413
			c0.114,0.104,0.259,0.156,0.435,0.156c0.271,0,0.482-0.097,0.635-0.295l0.346,0.387c-0.105,0.149-0.249,0.265-0.429,0.349
			C66.755,9.309,66.555,9.351,66.337,9.351z M66.257,7.187c-0.14,0-0.252,0.047-0.34,0.142c-0.086,0.095-0.142,0.23-0.167,0.406
			h0.978V7.678c-0.004-0.156-0.045-0.277-0.127-0.364C66.521,7.231,66.406,7.187,66.257,7.187z"/>
		<path class="st0" d="M69.121,8.575c0-0.086-0.043-0.154-0.128-0.204c-0.085-0.05-0.223-0.094-0.411-0.133
			c-0.627-0.13-0.939-0.397-0.939-0.798c0-0.235,0.097-0.429,0.29-0.585c0.194-0.156,0.448-0.235,0.76-0.235
			c0.334,0,0.602,0.079,0.802,0.237s0.301,0.361,0.301,0.614h-0.702c0-0.101-0.032-0.184-0.097-0.25
			c-0.066-0.069-0.167-0.101-0.304-0.101c-0.118,0-0.211,0.027-0.275,0.081c-0.064,0.053-0.097,0.122-0.097,0.205
			c0,0.078,0.037,0.14,0.111,0.188c0.075,0.049,0.199,0.089,0.373,0.124c0.175,0.034,0.322,0.075,0.443,0.118
			c0.372,0.136,0.557,0.372,0.557,0.708c0,0.24-0.103,0.435-0.309,0.583c-0.206,0.148-0.471,0.223-0.798,0.223
			c-0.22,0-0.417-0.039-0.587-0.118c-0.171-0.078-0.304-0.187-0.403-0.323c-0.097-0.137-0.146-0.285-0.146-0.444h0.667
			c0.006,0.126,0.053,0.22,0.139,0.287c0.085,0.066,0.201,0.099,0.346,0.099c0.135,0,0.237-0.025,0.306-0.077
			C69.085,8.724,69.121,8.657,69.121,8.575z"/>
		<path class="st0" d="M71.558,8.575c0-0.086-0.043-0.154-0.128-0.204c-0.085-0.05-0.223-0.094-0.411-0.133
			c-0.627-0.13-0.939-0.397-0.939-0.798c0-0.235,0.097-0.429,0.29-0.585c0.194-0.156,0.448-0.235,0.76-0.235
			c0.334,0,0.602,0.079,0.802,0.237c0.201,0.158,0.3,0.361,0.3,0.614H71.53c0-0.101-0.032-0.184-0.097-0.25
			c-0.065-0.069-0.166-0.101-0.304-0.101c-0.118,0-0.211,0.027-0.275,0.081c-0.065,0.053-0.097,0.122-0.097,0.205
			c0,0.078,0.037,0.14,0.111,0.188s0.199,0.089,0.373,0.124c0.175,0.034,0.322,0.075,0.443,0.118
			c0.371,0.136,0.558,0.372,0.558,0.708c0,0.24-0.103,0.435-0.309,0.583c-0.206,0.148-0.471,0.223-0.798,0.223
			c-0.22,0-0.417-0.039-0.587-0.118c-0.171-0.078-0.304-0.187-0.403-0.323c-0.098-0.137-0.147-0.285-0.147-0.444h0.667
			c0.006,0.126,0.053,0.22,0.139,0.287c0.085,0.066,0.201,0.099,0.346,0.099c0.135,0,0.237-0.025,0.306-0.077
			C71.524,8.724,71.558,8.657,71.558,8.575z"/>
		<path class="st0" d="M72.565,5.987c0-0.105,0.034-0.192,0.105-0.261c0.071-0.068,0.166-0.102,0.288-0.102
			c0.12,0,0.216,0.034,0.287,0.102c0.072,0.069,0.107,0.155,0.107,0.261c0,0.107-0.037,0.194-0.108,0.263
			c-0.072,0.069-0.168,0.102-0.285,0.102c-0.118,0-0.213-0.034-0.285-0.102C72.601,6.183,72.565,6.095,72.565,5.987z M73.312,9.302
			h-0.705V6.669h0.705V9.302z"/>
		<path class="st0" d="M73.657,7.96c0-0.261,0.051-0.494,0.15-0.698c0.099-0.205,0.245-0.362,0.435-0.474
			c0.189-0.111,0.409-0.168,0.657-0.168c0.355,0,0.645,0.109,0.869,0.326c0.225,0.218,0.349,0.513,0.377,0.886l0.005,0.18
			c0,0.404-0.113,0.728-0.338,0.972s-0.528,0.366-0.907,0.366c-0.38,0-0.682-0.121-0.908-0.365c-0.226-0.244-0.34-0.574-0.34-0.993
			C73.657,7.993,73.657,7.96,73.657,7.96z M74.36,8.011c0,0.25,0.047,0.442,0.142,0.573c0.094,0.133,0.229,0.199,0.404,0.199
			c0.171,0,0.302-0.065,0.399-0.197c0.095-0.13,0.143-0.34,0.143-0.628c0-0.245-0.049-0.436-0.143-0.571
			c-0.095-0.135-0.23-0.203-0.404-0.203c-0.172,0-0.304,0.068-0.399,0.201C74.408,7.522,74.36,7.729,74.36,8.011z"/>
		<path class="st0" d="M77.107,6.669l0.022,0.304c0.188-0.236,0.439-0.353,0.757-0.353c0.278,0,0.486,0.082,0.623,0.246
			c0.136,0.163,0.206,0.409,0.208,0.735v1.701h-0.704V7.614c0-0.149-0.032-0.258-0.097-0.326c-0.065-0.068-0.173-0.102-0.323-0.102
			c-0.198,0-0.346,0.084-0.445,0.253v1.861h-0.702V6.669H77.107z"/>
		<path class="st0" d="M80.652,9.302c-0.033-0.063-0.056-0.142-0.071-0.237C80.41,9.255,80.189,9.35,79.916,9.35
			c-0.258,0-0.471-0.075-0.642-0.224c-0.169-0.149-0.255-0.338-0.255-0.564c0-0.278,0.103-0.493,0.31-0.643
			c0.206-0.149,0.506-0.225,0.897-0.226h0.323v-0.15c0-0.122-0.032-0.219-0.094-0.293c-0.063-0.073-0.161-0.109-0.295-0.109
			c-0.118,0-0.211,0.028-0.278,0.085c-0.068,0.057-0.101,0.135-0.101,0.233h-0.704c0-0.152,0.047-0.293,0.142-0.423
			c0.094-0.13,0.227-0.232,0.399-0.306c0.173-0.075,0.366-0.111,0.58-0.111c0.323,0,0.582,0.082,0.772,0.244
			c0.191,0.163,0.285,0.392,0.285,0.688v1.141c0.001,0.25,0.037,0.439,0.104,0.567V9.3h-0.711C80.652,9.3,80.652,9.302,80.652,9.302
			z M80.07,8.812c0.103,0,0.199-0.023,0.287-0.07c0.088-0.046,0.152-0.109,0.194-0.186V8.104h-0.263
			c-0.352,0-0.54,0.121-0.561,0.366l-0.002,0.041c0,0.088,0.031,0.16,0.092,0.217C79.878,8.785,79.964,8.812,80.07,8.812z"/>
		<path class="st0" d="M82.415,9.302H81.71V5.564h0.705V9.302z"/>
		<path class="st0" d="M84.032,9.302V5.76h1.091c0.311,0,0.59,0.07,0.836,0.211c0.246,0.141,0.437,0.34,0.576,0.599
			c0.137,0.258,0.206,0.553,0.206,0.882v0.163c0,0.329-0.068,0.623-0.204,0.879c-0.135,0.256-0.326,0.456-0.573,0.597
			c-0.246,0.141-0.525,0.213-0.834,0.214h-1.098V9.302z M84.763,6.351v2.365h0.353c0.285,0,0.503-0.092,0.654-0.28
			c0.15-0.187,0.229-0.454,0.232-0.801V7.447c0-0.36-0.075-0.632-0.225-0.818c-0.149-0.185-0.367-0.278-0.654-0.278L84.763,6.351
			L84.763,6.351z"/>
		<path class="st0" d="M88.312,9.351c-0.386,0-0.7-0.118-0.943-0.355c-0.243-0.237-0.364-0.552-0.364-0.947V7.98
			c0-0.265,0.051-0.501,0.154-0.709c0.102-0.208,0.248-0.368,0.435-0.482c0.187-0.113,0.401-0.169,0.642-0.169
			c0.361,0,0.644,0.114,0.85,0.341c0.207,0.227,0.31,0.55,0.31,0.966v0.287H87.72c0.022,0.172,0.091,0.309,0.205,0.413
			c0.115,0.104,0.259,0.156,0.435,0.156c0.271,0,0.482-0.097,0.635-0.295l0.346,0.387c-0.105,0.149-0.249,0.265-0.428,0.349
			C88.73,9.309,88.531,9.351,88.312,9.351z M88.233,7.187c-0.14,0-0.253,0.047-0.34,0.142c-0.086,0.095-0.142,0.23-0.166,0.406
			h0.978V7.678c-0.004-0.156-0.046-0.277-0.127-0.364C88.497,7.231,88.381,7.187,88.233,7.187z"/>
		<path class="st0" d="M90.624,8.442l0.489-1.773h0.735L90.96,9.302h-0.672l-0.888-2.633h0.735L90.624,8.442z"/>
		<path class="st0" d="M93.212,9.351c-0.386,0-0.7-0.118-0.943-0.355c-0.243-0.237-0.364-0.552-0.364-0.947V7.98
			c0-0.265,0.051-0.501,0.154-0.709c0.102-0.208,0.248-0.368,0.435-0.482c0.187-0.113,0.401-0.169,0.642-0.169
			c0.361,0,0.644,0.114,0.85,0.341c0.207,0.227,0.31,0.55,0.31,0.966v0.287h-1.678c0.023,0.172,0.091,0.309,0.205,0.413
			c0.115,0.104,0.259,0.156,0.435,0.156c0.271,0,0.482-0.097,0.635-0.295l0.346,0.387c-0.105,0.149-0.249,0.265-0.428,0.349
			C93.63,9.309,93.431,9.351,93.212,9.351z M93.131,7.187c-0.14,0-0.253,0.047-0.34,0.142c-0.086,0.095-0.142,0.23-0.166,0.406
			h0.978V7.678c-0.004-0.156-0.046-0.277-0.127-0.364C93.397,7.231,93.281,7.187,93.131,7.187z"/>
		<path class="st0" d="M95.311,9.302h-0.705V5.564h0.705V9.302z"/>
		<path class="st0" d="M95.656,7.96c0-0.261,0.051-0.494,0.15-0.698c0.099-0.205,0.245-0.362,0.435-0.474
			c0.189-0.111,0.409-0.168,0.657-0.168c0.355,0,0.645,0.109,0.869,0.326c0.225,0.218,0.349,0.513,0.377,0.886l0.005,0.18
			c0,0.404-0.113,0.728-0.338,0.972c-0.225,0.244-0.528,0.366-0.907,0.366c-0.38,0-0.682-0.121-0.908-0.365
			c-0.226-0.244-0.34-0.574-0.34-0.993V7.96z M96.359,8.011c0,0.25,0.047,0.442,0.142,0.573c0.094,0.133,0.229,0.199,0.404,0.199
			c0.171,0,0.302-0.065,0.399-0.197c0.095-0.13,0.143-0.34,0.143-0.628c0-0.245-0.049-0.436-0.143-0.571
			c-0.095-0.135-0.23-0.203-0.404-0.203c-0.172,0-0.304,0.068-0.399,0.201C96.406,7.522,96.359,7.729,96.359,8.011z"/>
		<path class="st0" d="M100.83,8.01c0,0.406-0.092,0.731-0.277,0.975c-0.184,0.244-0.432,0.366-0.745,0.366
			c-0.266,0-0.481-0.092-0.645-0.277v1.241H98.46V6.669h0.653l0.025,0.258c0.171-0.205,0.392-0.307,0.667-0.307
			c0.323,0,0.576,0.121,0.757,0.36c0.18,0.24,0.27,0.571,0.27,0.993C100.83,7.973,100.83,8.01,100.83,8.01z M100.126,7.956
			c0-0.246-0.044-0.436-0.13-0.568c-0.088-0.133-0.213-0.2-0.379-0.2c-0.22,0-0.372,0.084-0.456,0.253v1.081
			c0.086,0.174,0.239,0.262,0.461,0.262C99.958,8.783,100.126,8.507,100.126,7.956z"/>
		<path class="st0" d="M101.8,6.669l0.021,0.295c0.187-0.229,0.439-0.343,0.757-0.343c0.339,0,0.572,0.134,0.698,0.402
			c0.185-0.268,0.449-0.402,0.791-0.402c0.285,0,0.497,0.084,0.637,0.25c0.14,0.166,0.208,0.416,0.208,0.751v1.682h-0.705V7.619
			c0-0.149-0.03-0.259-0.089-0.328c-0.059-0.069-0.161-0.103-0.309-0.103c-0.211,0-0.356,0.101-0.438,0.302l0.002,1.812h-0.704V7.62
			c0-0.153-0.03-0.263-0.09-0.332c-0.06-0.069-0.162-0.102-0.307-0.102c-0.199,0-0.343,0.083-0.433,0.249v1.865h-0.702V6.669H101.8z
			"/>
		<path class="st0" d="M106.541,9.351c-0.386,0-0.7-0.118-0.943-0.355c-0.243-0.237-0.364-0.552-0.364-0.947V7.98
			c0-0.265,0.051-0.501,0.154-0.709c0.102-0.208,0.248-0.368,0.435-0.482c0.187-0.113,0.401-0.169,0.642-0.169
			c0.361,0,0.644,0.114,0.85,0.341c0.207,0.227,0.31,0.55,0.31,0.966v0.287h-1.677c0.022,0.172,0.091,0.309,0.205,0.413
			c0.115,0.104,0.259,0.156,0.435,0.156c0.271,0,0.482-0.097,0.635-0.295l0.346,0.387c-0.105,0.149-0.249,0.265-0.428,0.349
			C106.959,9.309,106.76,9.351,106.541,9.351z M106.461,7.187c-0.14,0-0.253,0.047-0.34,0.142c-0.086,0.095-0.142,0.23-0.166,0.406
			h0.978V7.678c-0.004-0.156-0.046-0.277-0.127-0.364C106.725,7.231,106.611,7.187,106.461,7.187z"/>
		<path class="st0" d="M108.546,6.669l0.022,0.304c0.188-0.236,0.439-0.353,0.757-0.353c0.28,0,0.486,0.082,0.623,0.246
			c0.136,0.163,0.206,0.409,0.208,0.735v1.701h-0.704V7.614c0-0.149-0.032-0.258-0.097-0.326c-0.065-0.068-0.173-0.102-0.323-0.102
			c-0.198,0-0.346,0.084-0.445,0.253v1.861h-0.702V6.669H108.546z"/>
		<path class="st0" d="M111.407,6.021v0.647h0.451v0.515h-0.451v1.315c0,0.097,0.018,0.167,0.056,0.208
			c0.037,0.043,0.109,0.063,0.214,0.063c0.078,0,0.147-0.006,0.206-0.018v0.533c-0.137,0.043-0.278,0.063-0.425,0.063
			c-0.493,0-0.745-0.249-0.754-0.747V7.185h-0.385V6.669h0.385V6.021H111.407z"/>
	</g>
	<g>
		<path class="st0" d="M44.716,12.477h-1.501v4.065h-0.37v-4.065h-1.497v-0.311h3.367V12.477z"/>
		<path class="st0" d="M45.541,13.839c0.118-0.194,0.27-0.345,0.454-0.451c0.185-0.107,0.386-0.159,0.604-0.159
			c0.349,0,0.609,0.098,0.778,0.295c0.171,0.197,0.257,0.49,0.258,0.884v2.134h-0.358v-2.138c-0.002-0.29-0.064-0.507-0.185-0.65
			c-0.121-0.142-0.315-0.213-0.583-0.213c-0.223,0-0.419,0.07-0.591,0.208c-0.172,0.139-0.297,0.327-0.38,0.564v2.228h-0.358v-4.618
			h0.358v1.915h0.002V13.839z"/>
		<path class="st0" d="M49.669,16.603c-0.277,0-0.526-0.069-0.75-0.205c-0.224-0.136-0.397-0.326-0.521-0.57
			c-0.124-0.244-0.187-0.516-0.187-0.818v-0.13c0-0.313,0.06-0.595,0.182-0.844c0.121-0.251,0.29-0.448,0.507-0.591
			c0.217-0.143,0.451-0.216,0.704-0.216c0.394,0,0.708,0.135,0.939,0.404c0.231,0.27,0.347,0.638,0.347,1.105v0.201h-2.32v0.07
			c0,0.368,0.105,0.675,0.316,0.921c0.211,0.245,0.477,0.368,0.798,0.368c0.192,0,0.362-0.036,0.509-0.105s0.281-0.182,0.402-0.336
			l0.225,0.171C50.556,16.412,50.172,16.603,49.669,16.603z M49.602,13.536c-0.27,0-0.499,0.099-0.683,0.297
			c-0.185,0.198-0.297,0.464-0.338,0.799h1.951v-0.039c-0.011-0.313-0.099-0.567-0.268-0.764
			C50.096,13.635,49.875,13.536,49.602,13.536z"/>
		<path class="st0" d="M55.274,14.496h-2.042v2.048h-0.37v-4.377h2.712v0.313h-2.341v1.705h2.042L55.274,14.496L55.274,14.496z"/>
		<path class="st0" d="M58.114,16.131c-0.217,0.314-0.563,0.471-1.036,0.471c-0.347,0-0.61-0.101-0.79-0.302
			c-0.18-0.201-0.272-0.5-0.277-0.894V13.29h0.358v2.071c0,0.619,0.251,0.929,0.752,0.929c0.521,0,0.85-0.216,0.989-0.647v-2.352
			h0.361v3.252h-0.348L58.114,16.131z"/>
		<path class="st0" d="M61.198,15.716c0-0.178-0.072-0.322-0.216-0.43c-0.143-0.108-0.359-0.193-0.648-0.253
			c-0.288-0.06-0.512-0.13-0.672-0.211c-0.159-0.079-0.277-0.175-0.355-0.29c-0.077-0.114-0.116-0.252-0.116-0.415
			c0-0.257,0.107-0.469,0.322-0.636c0.214-0.167,0.488-0.251,0.823-0.251c0.364,0,0.654,0.09,0.873,0.269
			c0.22,0.18,0.329,0.413,0.329,0.702h-0.36c0-0.189-0.079-0.349-0.239-0.474c-0.159-0.127-0.36-0.189-0.603-0.189
			c-0.237,0-0.426,0.053-0.57,0.158c-0.143,0.105-0.216,0.243-0.216,0.411c0,0.162,0.06,0.288,0.179,0.378
			c0.118,0.09,0.338,0.171,0.653,0.244c0.315,0.075,0.552,0.154,0.709,0.238s0.275,0.185,0.349,0.303
			c0.077,0.118,0.114,0.262,0.114,0.43c0,0.275-0.111,0.494-0.333,0.657c-0.221,0.163-0.51,0.246-0.867,0.246
			c-0.379,0-0.686-0.092-0.921-0.276s-0.354-0.416-0.354-0.695h0.361c0.013,0.211,0.102,0.374,0.265,0.49
			c0.163,0.117,0.379,0.176,0.649,0.176c0.251,0,0.454-0.056,0.608-0.166C61.121,16.023,61.198,15.885,61.198,15.716z"/>
		<path class="st0" d="M62.193,12.351c0-0.068,0.023-0.126,0.066-0.172c0.044-0.046,0.104-0.07,0.18-0.07
			c0.077,0,0.137,0.024,0.182,0.07c0.045,0.046,0.068,0.104,0.068,0.172c0,0.068-0.023,0.124-0.068,0.171
			c-0.045,0.046-0.105,0.069-0.182,0.069c-0.077,0-0.136-0.023-0.18-0.069C62.216,12.475,62.193,12.418,62.193,12.351z
			 M62.617,16.542h-0.361V13.29h0.361V16.542z"/>
		<path class="st0" d="M63.241,14.869c0-0.313,0.06-0.595,0.182-0.844c0.121-0.251,0.293-0.447,0.514-0.585
			c0.221-0.14,0.473-0.208,0.753-0.208c0.432,0,0.783,0.152,1.052,0.456c0.269,0.303,0.403,0.706,0.403,1.207v0.075
			c0,0.314-0.06,0.598-0.182,0.849c-0.121,0.251-0.293,0.445-0.512,0.582c-0.22,0.136-0.471,0.205-0.754,0.205
			c-0.431,0-0.782-0.152-1.051-0.456c-0.27-0.303-0.404-0.706-0.404-1.207L63.241,14.869L63.241,14.869z M63.603,14.967
			c0,0.388,0.101,0.708,0.302,0.958c0.201,0.249,0.465,0.374,0.792,0.374c0.325,0,0.587-0.126,0.789-0.374
			c0.201-0.25,0.302-0.579,0.302-0.988v-0.07c0-0.249-0.046-0.476-0.139-0.682c-0.092-0.206-0.221-0.366-0.387-0.478
			c-0.166-0.114-0.356-0.171-0.571-0.171c-0.321,0-0.583,0.126-0.785,0.377c-0.203,0.252-0.303,0.58-0.303,0.988L63.603,14.967z"/>
		<path class="st0" d="M67.078,13.29l0.012,0.557c0.122-0.201,0.275-0.354,0.457-0.458c0.182-0.105,0.384-0.159,0.604-0.159
			c0.349,0,0.609,0.098,0.778,0.295c0.171,0.197,0.257,0.49,0.258,0.884v2.134h-0.358v-2.138c-0.002-0.29-0.064-0.507-0.185-0.65
			c-0.121-0.142-0.315-0.213-0.583-0.213c-0.223,0-0.419,0.07-0.591,0.208c-0.172,0.139-0.297,0.327-0.38,0.564v2.228h-0.358v-3.252
			C66.733,13.29,67.078,13.29,67.078,13.29z"/>
		<path class="st0" d="M71.107,14.869c0-0.313,0.06-0.595,0.182-0.844c0.121-0.251,0.293-0.447,0.514-0.585
			c0.221-0.14,0.473-0.208,0.753-0.208c0.432,0,0.783,0.152,1.053,0.456c0.268,0.303,0.403,0.706,0.403,1.207v0.075
			c0,0.314-0.06,0.598-0.181,0.849c-0.121,0.251-0.293,0.445-0.513,0.582c-0.22,0.136-0.471,0.205-0.754,0.205
			c-0.431,0-0.782-0.152-1.051-0.456c-0.27-0.303-0.404-0.706-0.404-1.207v-0.072H71.107z M71.468,14.967
			c0,0.388,0.101,0.708,0.302,0.958c0.201,0.249,0.465,0.374,0.792,0.374c0.325,0,0.587-0.126,0.79-0.374
			c0.201-0.25,0.302-0.579,0.302-0.988v-0.07c0-0.249-0.046-0.476-0.139-0.682c-0.092-0.206-0.22-0.366-0.387-0.478
			c-0.167-0.114-0.356-0.171-0.571-0.171c-0.321,0-0.583,0.126-0.785,0.377c-0.203,0.252-0.303,0.58-0.303,0.988v0.066
			L71.468,14.967z"/>
		<path class="st0" d="M74.859,16.542v-2.959h-0.538v-0.295h0.538v-0.394c0-0.333,0.084-0.587,0.253-0.766
			c0.169-0.179,0.405-0.268,0.708-0.268c0.136,0,0.264,0.018,0.381,0.051l-0.027,0.297c-0.099-0.024-0.208-0.037-0.328-0.037
			c-0.198,0-0.353,0.063-0.462,0.185c-0.109,0.123-0.166,0.298-0.166,0.526v0.404h0.776v0.295H75.22v2.959h-0.361V16.542z"/>
		<path class="st0" d="M80.762,12.477h-1.501v4.065h-0.37v-4.065h-1.498v-0.311h3.367L80.762,12.477L80.762,12.477z"/>
		<path class="st0" d="M82.194,16.603c-0.277,0-0.527-0.069-0.75-0.205c-0.224-0.136-0.398-0.326-0.521-0.57
			c-0.124-0.244-0.186-0.516-0.186-0.818v-0.13c0-0.313,0.06-0.595,0.182-0.844c0.122-0.25,0.29-0.448,0.507-0.591
			c0.217-0.143,0.451-0.216,0.704-0.216c0.394,0,0.708,0.135,0.939,0.404c0.231,0.27,0.347,0.638,0.347,1.105v0.201h-2.321v0.07
			c0,0.368,0.107,0.675,0.317,0.921c0.212,0.245,0.477,0.368,0.798,0.368c0.193,0,0.362-0.036,0.509-0.105
			c0.147-0.07,0.281-0.182,0.401-0.336l0.225,0.171C83.08,16.412,82.696,16.603,82.194,16.603z M82.127,13.536
			c-0.271,0-0.499,0.099-0.683,0.297c-0.185,0.198-0.298,0.464-0.338,0.799h1.951v-0.039c-0.011-0.313-0.099-0.567-0.268-0.764
			C82.621,13.633,82.399,13.536,82.127,13.536z"/>
		<path class="st0" d="M85.163,16.299c0.251,0,0.461-0.071,0.63-0.213c0.169-0.141,0.261-0.323,0.276-0.548h0.346
			c-0.009,0.198-0.072,0.379-0.186,0.542c-0.115,0.163-0.266,0.29-0.456,0.384c-0.19,0.092-0.392,0.139-0.609,0.139
			c-0.428,0-0.765-0.148-1.014-0.445c-0.25-0.296-0.374-0.695-0.374-1.197v-0.108c0-0.321,0.057-0.604,0.168-0.85
			c0.111-0.246,0.272-0.437,0.482-0.571c0.208-0.135,0.455-0.201,0.735-0.201c0.356,0,0.65,0.107,0.882,0.319
			c0.232,0.213,0.354,0.493,0.371,0.839h-0.346c-0.017-0.255-0.108-0.46-0.276-0.616c-0.167-0.156-0.378-0.235-0.632-0.235
			c-0.325,0-0.577,0.117-0.756,0.352c-0.18,0.235-0.27,0.564-0.27,0.987v0.105c0,0.415,0.09,0.738,0.27,0.971
			C84.583,16.183,84.836,16.299,85.163,16.299z"/>
		<path class="st0" d="M87.335,13.839c0.118-0.194,0.27-0.345,0.454-0.451c0.185-0.107,0.386-0.159,0.604-0.159
			c0.349,0,0.609,0.098,0.779,0.295c0.171,0.197,0.256,0.49,0.258,0.884v2.134h-0.359v-2.138c-0.001-0.29-0.064-0.507-0.185-0.65
			c-0.121-0.142-0.314-0.213-0.582-0.213c-0.223,0-0.42,0.07-0.591,0.208c-0.171,0.139-0.298,0.327-0.38,0.564v2.228h-0.358v-4.618
			h0.358L87.335,13.839L87.335,13.839z"/>
		<path class="st0" d="M90.545,13.29l0.012,0.557c0.123-0.201,0.275-0.354,0.457-0.458c0.182-0.105,0.385-0.159,0.604-0.159
			c0.349,0,0.609,0.098,0.779,0.295c0.171,0.197,0.256,0.49,0.258,0.884v2.134h-0.358v-2.138c-0.002-0.29-0.064-0.507-0.185-0.65
			c-0.121-0.142-0.314-0.213-0.582-0.213c-0.223,0-0.42,0.07-0.591,0.208c-0.171,0.139-0.298,0.327-0.38,0.564v2.228h-0.358v-3.252
			C90.202,13.29,90.545,13.29,90.545,13.29z"/>
		<path class="st0" d="M93.232,14.869c0-0.313,0.06-0.595,0.182-0.844c0.121-0.251,0.293-0.447,0.514-0.585
			c0.221-0.14,0.473-0.208,0.753-0.208c0.432,0,0.783,0.152,1.053,0.456c0.268,0.303,0.403,0.706,0.403,1.207v0.075
			c0,0.314-0.06,0.598-0.182,0.849c-0.121,0.251-0.293,0.445-0.513,0.582s-0.471,0.205-0.754,0.205
			c-0.431,0-0.782-0.152-1.051-0.456c-0.269-0.304-0.404-0.706-0.404-1.207L93.232,14.869L93.232,14.869z M93.593,14.967
			c0,0.388,0.101,0.708,0.302,0.958c0.201,0.249,0.465,0.374,0.792,0.374c0.325,0,0.587-0.126,0.79-0.374
			c0.201-0.25,0.302-0.579,0.302-0.988v-0.07c0-0.249-0.046-0.476-0.139-0.682c-0.092-0.206-0.22-0.366-0.387-0.478
			c-0.167-0.114-0.356-0.171-0.571-0.171c-0.321,0-0.583,0.126-0.785,0.377c-0.203,0.252-0.303,0.58-0.303,0.988L93.593,14.967
			L93.593,14.967z"/>
		<path class="st0" d="M97.129,16.542h-0.361v-4.618h0.361V16.542z"/>
		<path class="st0" d="M97.754,14.869c0-0.313,0.06-0.595,0.182-0.844c0.121-0.251,0.293-0.447,0.514-0.585
			c0.221-0.14,0.473-0.208,0.753-0.208c0.432,0,0.783,0.152,1.053,0.456c0.268,0.303,0.403,0.706,0.403,1.207v0.075
			c0,0.314-0.06,0.598-0.182,0.849c-0.121,0.251-0.293,0.445-0.513,0.582s-0.471,0.205-0.754,0.205
			c-0.431,0-0.782-0.152-1.051-0.456c-0.27-0.303-0.404-0.706-0.404-1.207L97.754,14.869L97.754,14.869z M98.114,14.967
			c0,0.388,0.101,0.708,0.302,0.958c0.201,0.249,0.465,0.374,0.792,0.374c0.325,0,0.587-0.126,0.79-0.374
			c0.201-0.25,0.302-0.579,0.302-0.988v-0.07c0-0.249-0.046-0.476-0.139-0.682c-0.092-0.206-0.22-0.366-0.387-0.478
			c-0.167-0.114-0.356-0.171-0.571-0.171c-0.321,0-0.583,0.126-0.785,0.377c-0.203,0.252-0.303,0.58-0.303,0.988L98.114,14.967
			L98.114,14.967z"/>
		<path class="st0" d="M101.101,14.886c0-0.509,0.113-0.912,0.338-1.21c0.225-0.297,0.532-0.447,0.919-0.447
			c0.443,0,0.779,0.176,1.01,0.529l0.018-0.469h0.338v3.186c0,0.419-0.117,0.751-0.352,0.995c-0.234,0.244-0.552,0.366-0.952,0.366
			c-0.227,0-0.443-0.051-0.649-0.152c-0.205-0.102-0.367-0.237-0.486-0.404l0.201-0.217c0.255,0.313,0.557,0.469,0.908,0.469
			c0.3,0,0.535-0.089,0.704-0.266c0.168-0.178,0.256-0.423,0.262-0.738v-0.407c-0.231,0.321-0.566,0.481-1.007,0.481
			c-0.377,0-0.68-0.15-0.908-0.451c-0.229-0.301-0.342-0.707-0.342-1.218L101.101,14.886L101.101,14.886z M101.466,14.949
			c0,0.416,0.084,0.743,0.25,0.982c0.166,0.239,0.4,0.359,0.704,0.359c0.443,0,0.756-0.199,0.94-0.596v-1.512
			c-0.084-0.208-0.206-0.368-0.364-0.476c-0.159-0.109-0.349-0.163-0.571-0.163c-0.302,0-0.538,0.118-0.707,0.356
			S101.466,14.487,101.466,14.949z"/>
		<path class="st0" d="M105.538,16.026l0.95-2.736h0.388l-1.389,3.807l-0.072,0.168c-0.178,0.396-0.454,0.592-0.827,0.592
			c-0.086,0-0.178-0.014-0.277-0.041l-0.002-0.297l0.186,0.018c0.176,0,0.319-0.044,0.428-0.13c0.109-0.088,0.201-0.237,0.28-0.45
			l0.159-0.439l-1.227-3.226h0.393L105.538,16.026z"/>
		<path class="st0" d="M110.675,16.542c-0.037-0.102-0.059-0.253-0.069-0.454c-0.127,0.163-0.287,0.29-0.482,0.38
			c-0.195,0.089-0.403,0.134-0.621,0.134c-0.313,0-0.566-0.088-0.759-0.262c-0.193-0.174-0.29-0.394-0.29-0.662
			c0-0.316,0.13-0.567,0.394-0.752c0.264-0.185,0.631-0.277,1.103-0.277h0.653v-0.37c0-0.232-0.072-0.416-0.216-0.55
			c-0.142-0.133-0.352-0.2-0.628-0.2c-0.251,0-0.458,0.065-0.623,0.193s-0.246,0.283-0.246,0.463l-0.361-0.004
			c0-0.258,0.12-0.482,0.361-0.672c0.24-0.189,0.537-0.283,0.887-0.283c0.362,0,0.649,0.091,0.857,0.272
			c0.208,0.182,0.316,0.435,0.323,0.759v1.538c0,0.314,0.033,0.551,0.099,0.707v0.037L110.675,16.542z M109.544,16.285
			c0.24,0,0.456-0.058,0.645-0.174c0.19-0.116,0.327-0.272,0.413-0.467v-0.715h-0.643c-0.359,0.004-0.64,0.07-0.841,0.197
			c-0.203,0.127-0.303,0.302-0.303,0.525c0,0.182,0.068,0.334,0.203,0.455C109.153,16.224,109.329,16.285,109.544,16.285z"/>
		<path class="st0" d="M112.108,13.29l0.012,0.557c0.123-0.201,0.275-0.354,0.457-0.458c0.182-0.105,0.385-0.159,0.604-0.159
			c0.349,0,0.609,0.098,0.779,0.295c0.171,0.197,0.256,0.49,0.258,0.884v2.134h-0.358v-2.138c-0.001-0.29-0.064-0.507-0.185-0.65
			c-0.121-0.142-0.314-0.213-0.582-0.213c-0.223,0-0.42,0.07-0.591,0.208c-0.171,0.139-0.298,0.327-0.38,0.564v2.228h-0.358v-3.252
			C111.766,13.29,112.108,13.29,112.108,13.29z"/>
		<path class="st0" d="M114.849,14.886c0-0.506,0.113-0.907,0.338-1.207c0.225-0.3,0.532-0.45,0.919-0.45
			c0.439,0,0.773,0.173,1.004,0.52v-1.825h0.358v4.618h-0.338l-0.014-0.432c-0.231,0.328-0.57,0.493-1.016,0.493
			c-0.375,0-0.677-0.15-0.907-0.452c-0.23-0.302-0.345-0.709-0.345-1.222L114.849,14.886L114.849,14.886z M115.214,14.949
			c0,0.416,0.084,0.743,0.25,0.982c0.166,0.239,0.4,0.359,0.704,0.359c0.443,0,0.757-0.195,0.943-0.586v-1.528
			c-0.186-0.423-0.499-0.635-0.938-0.635c-0.302,0-0.538,0.118-0.707,0.356C115.298,14.137,115.214,14.487,115.214,14.949z"/>
		<path class="st0" d="M120.061,16.23h2.161v0.313h-2.533v-4.376h0.373L120.061,16.23L120.061,16.23z"/>
		<path class="st0" d="M123.954,16.603c-0.276,0-0.527-0.069-0.75-0.205c-0.224-0.136-0.398-0.326-0.521-0.57
			c-0.124-0.244-0.186-0.516-0.186-0.818v-0.13c0-0.313,0.06-0.595,0.181-0.844c0.121-0.25,0.29-0.448,0.507-0.591
			c0.217-0.143,0.451-0.216,0.704-0.216c0.394,0,0.708,0.135,0.939,0.404c0.231,0.269,0.347,0.638,0.347,1.105v0.201h-2.321v0.07
			c0,0.368,0.107,0.675,0.317,0.921c0.212,0.245,0.477,0.368,0.798,0.368c0.193,0,0.362-0.036,0.509-0.105s0.281-0.182,0.401-0.336
			l0.225,0.171C124.84,16.412,124.457,16.603,123.954,16.603z M123.888,13.536c-0.271,0-0.499,0.099-0.683,0.297
			c-0.186,0.198-0.298,0.464-0.338,0.799h1.951v-0.039c-0.011-0.313-0.099-0.567-0.268-0.764
			C124.381,13.635,124.161,13.536,123.888,13.536z"/>
		<path class="st0" d="M127.774,16.542c-0.037-0.102-0.059-0.253-0.069-0.454c-0.127,0.163-0.287,0.29-0.482,0.38
			c-0.195,0.089-0.403,0.134-0.621,0.134c-0.313,0-0.566-0.088-0.759-0.262c-0.193-0.174-0.29-0.394-0.29-0.662
			c0-0.316,0.13-0.567,0.394-0.752c0.264-0.185,0.631-0.277,1.103-0.277h0.653v-0.37c0-0.232-0.072-0.416-0.216-0.55
			c-0.142-0.133-0.352-0.2-0.628-0.2c-0.251,0-0.458,0.065-0.623,0.193s-0.246,0.283-0.246,0.463l-0.361-0.004
			c0-0.258,0.12-0.482,0.361-0.672c0.24-0.189,0.537-0.283,0.887-0.283c0.362,0,0.649,0.091,0.857,0.272
			c0.208,0.182,0.316,0.435,0.323,0.759v1.538c0,0.314,0.033,0.551,0.099,0.707v0.037C128.159,16.542,127.774,16.542,127.774,16.542
			z M126.644,16.285c0.24,0,0.456-0.058,0.645-0.174c0.189-0.116,0.327-0.272,0.413-0.467v-0.715h-0.643
			c-0.359,0.004-0.64,0.07-0.841,0.197c-0.203,0.127-0.303,0.302-0.303,0.525c0,0.182,0.068,0.334,0.203,0.455
			C126.252,16.224,126.427,16.285,126.644,16.285z"/>
		<path class="st0" d="M130.368,13.597c-0.077-0.013-0.158-0.021-0.244-0.021c-0.225,0-0.416,0.063-0.57,0.188
			c-0.155,0.126-0.266,0.307-0.333,0.545v2.234h-0.358V13.29h0.352l0.006,0.516c0.189-0.385,0.496-0.577,0.917-0.577
			c0.099,0,0.18,0.013,0.238,0.039L130.368,13.597z"/>
		<path class="st0" d="M131.126,13.29l0.012,0.557c0.123-0.201,0.275-0.354,0.457-0.458c0.182-0.105,0.385-0.159,0.604-0.159
			c0.349,0,0.609,0.098,0.779,0.295c0.171,0.197,0.256,0.49,0.258,0.884v2.134h-0.358v-2.138c-0.001-0.29-0.064-0.507-0.185-0.65
			c-0.121-0.142-0.314-0.213-0.582-0.213c-0.223,0-0.42,0.07-0.591,0.208c-0.171,0.139-0.298,0.327-0.38,0.564v2.228h-0.358v-3.252
			C130.784,13.29,131.126,13.29,131.126,13.29z"/>
		<path class="st0" d="M133.99,12.351c0-0.068,0.022-0.126,0.066-0.172s0.104-0.07,0.18-0.07s0.137,0.024,0.182,0.07
			c0.045,0.046,0.068,0.104,0.068,0.172c0,0.068-0.023,0.124-0.068,0.171c-0.045,0.046-0.107,0.069-0.182,0.069
			c-0.077,0-0.136-0.023-0.18-0.069C134.011,12.475,133.99,12.418,133.99,12.351z M134.414,16.542h-0.361V13.29h0.361V16.542z"/>
		<path class="st0" d="M135.579,13.29l0.012,0.557c0.123-0.201,0.275-0.354,0.457-0.458c0.182-0.105,0.385-0.159,0.604-0.159
			c0.349,0,0.609,0.098,0.779,0.295c0.171,0.197,0.256,0.49,0.258,0.884v2.134h-0.358v-2.138c-0.002-0.29-0.064-0.507-0.185-0.65
			c-0.121-0.142-0.314-0.213-0.582-0.213c-0.223,0-0.42,0.07-0.591,0.208c-0.171,0.139-0.298,0.327-0.38,0.564v2.228h-0.358v-3.252
			C135.237,13.29,135.579,13.29,135.579,13.29z"/>
		<path class="st0" d="M138.321,14.886c0-0.509,0.113-0.912,0.338-1.21c0.225-0.297,0.532-0.447,0.919-0.447
			c0.443,0,0.779,0.176,1.01,0.529l0.018-0.469h0.338v3.186c0,0.419-0.117,0.751-0.352,0.995c-0.234,0.244-0.552,0.366-0.952,0.366
			c-0.227,0-0.443-0.051-0.649-0.152c-0.205-0.102-0.367-0.237-0.486-0.404l0.201-0.217c0.255,0.313,0.557,0.469,0.908,0.469
			c0.3,0,0.535-0.089,0.704-0.266c0.168-0.178,0.256-0.423,0.262-0.738v-0.407c-0.231,0.321-0.566,0.481-1.007,0.481
			c-0.377,0-0.68-0.15-0.908-0.451c-0.229-0.301-0.342-0.707-0.342-1.218L138.321,14.886L138.321,14.886z M138.684,14.949
			c0,0.416,0.084,0.743,0.25,0.982c0.166,0.239,0.4,0.359,0.704,0.359c0.443,0,0.756-0.199,0.94-0.596v-1.512
			c-0.084-0.208-0.206-0.368-0.364-0.476c-0.159-0.109-0.349-0.163-0.571-0.163c-0.302,0-0.538,0.118-0.707,0.356
			C138.769,14.137,138.684,14.487,138.684,14.949z"/>
	</g>
	<g>
		<path class="st0" d="M41.264,2.459H40.89v1.04h-0.154v-1.04h-0.373V2.333h0.901V2.459z"/>
		<path class="st0" d="M41.636,2.333l0.38,0.951l0.381-0.951h0.199v1.165h-0.154V3.045l0.014-0.49l-0.381,0.944h-0.118l-0.381-0.942
			l0.014,0.488v0.454h-0.154V2.333H41.636z"/>
	</g>
	<g>
		<g class="st1">
			<path class="st2" d="M36.496,3.148v4.245c-0.768-0.411-1.643-0.645-2.573-0.645c-3.034,0-5.493,2.481-5.493,5.543
				s2.459,5.543,5.493,5.543c0.931,0,1.806-0.234,2.573-0.645v0.645h2.92V3.148H36.496z M33.984,14.897
				c-1.387,0-2.512-1.135-2.512-2.537c0.001-1.401,1.126-2.537,2.512-2.537c1.387,0,2.512,1.135,2.512,2.537
				C36.496,13.761,35.372,14.897,33.984,14.897z"/>
			<path class="st2" d="M22.809,7.148c-0.931,0-1.806,0.234-2.573,0.645V7.148h-2.92v14.685h2.92v-4.245
				c0.768,0.411,1.643,0.645,2.573,0.645c3.034,0,5.493-2.481,5.493-5.543C28.303,9.63,25.844,7.148,22.809,7.148z M22.749,15.156
				c-1.387,0-2.512-1.135-2.512-2.535c0-1.399,1.126-2.535,2.512-2.535c1.387,0,2.512,1.135,2.512,2.535
				S24.136,15.156,22.749,15.156z"/>
			<path class="st2" d="M16.527,9.14c-0.002-0.006-0.006-0.013-0.008-0.019c-0.027-0.066-0.059-0.129-0.087-0.194
				c-0.065-0.146-0.132-0.289-0.205-0.432C16.186,8.417,16.144,8.339,16.1,8.26c-0.073-0.129-0.149-0.258-0.228-0.382
				c-0.044-0.068-0.085-0.136-0.129-0.204c-0.122-0.18-0.249-0.355-0.386-0.525c-0.036-0.046-0.076-0.088-0.114-0.132
				c-0.108-0.129-0.22-0.255-0.336-0.376c-0.058-0.06-0.115-0.118-0.174-0.175c-0.109-0.107-0.222-0.212-0.338-0.312
				c-0.058-0.049-0.113-0.1-0.171-0.148c-0.169-0.14-0.345-0.275-0.526-0.4c-0.032-0.022-0.067-0.041-0.099-0.063
				c-0.155-0.103-0.315-0.204-0.479-0.295c-0.065-0.036-0.132-0.072-0.198-0.107c-0.143-0.076-0.288-0.147-0.438-0.214
				c-0.065-0.029-0.127-0.06-0.193-0.086c-0.209-0.088-0.422-0.169-0.64-0.238c-0.019-0.006-0.038-0.009-0.056-0.015
				c-0.202-0.062-0.409-0.115-0.618-0.162c-0.069-0.015-0.14-0.028-0.209-0.041c-0.168-0.032-0.339-0.059-0.512-0.079
				c-0.071-0.008-0.14-0.018-0.212-0.025C9.808,4.257,9.569,4.242,9.327,4.242c-0.245,0-0.487,0.015-0.726,0.038
				c-0.075,0.007-0.148,0.019-0.22,0.027c-0.167,0.02-0.333,0.045-0.497,0.075C7.805,4.397,7.727,4.413,7.649,4.43
				C7.48,4.469,7.315,4.513,7.152,4.561C7.09,4.58,7.026,4.595,6.964,4.616c-0.22,0.071-0.437,0.151-0.647,0.24
				C6.276,4.874,6.236,4.895,6.196,4.913c-0.171,0.076-0.336,0.158-0.5,0.246C5.625,5.196,5.557,5.237,5.489,5.276
				C5.356,5.353,5.225,5.433,5.097,5.518C5.027,5.563,4.959,5.609,4.891,5.657c-0.135,0.096-0.266,0.197-0.394,0.3
				C4.447,5.998,4.394,6.035,4.345,6.078C4.177,6.22,4.014,6.371,3.859,6.527C3.804,6.581,3.754,6.639,3.701,6.695
				C3.598,6.805,3.497,6.918,3.4,7.032C3.34,7.105,3.282,7.178,3.224,7.253C3.139,7.361,3.058,7.474,2.979,7.587
				C2.925,7.664,2.871,7.74,2.819,7.82C2.732,7.954,2.651,8.094,2.572,8.234C2.528,8.31,2.485,8.385,2.443,8.463
				C2.352,8.639,2.266,8.821,2.187,9.006C2.149,9.093,2.116,9.184,2.082,9.273C2.051,9.356,2.015,9.436,1.986,9.519
				C1.988,9.52,1.989,9.521,1.992,9.523c-0.288,0.827-0.453,1.713-0.453,2.641c0,4.376,3.487,7.923,7.788,7.923
				s7.788-3.546,7.788-7.923C17.115,11.093,16.905,10.072,16.527,9.14C16.526,9.141,16.527,9.141,16.527,9.14z"/>
		</g>
		<g>
			
				<linearGradient id="SVGID_1_" gradientUnits="userSpaceOnUse" x1="9.2023" y1="615.7914" x2="9.2023" y2="631.6378" gradientTransform="matrix(1 0 0 1 0 -611.8)">
				<stop  offset="0" style="stop-color:#FFFFFF"/>
				<stop  offset="0.3126" style="stop-color:#E1E0DF"/>
				<stop  offset="0.7198" style="stop-color:#C7C7C7"/>
				<stop  offset="0.9324" style="stop-color:#AEAFB0"/>
			</linearGradient>
			<path class="st3" d="M7.507,7.638c0.569,0,6.218,3.264,6.218,4.297c0,1.032-5.496,4.297-6.218,4.297
				C6.786,16.233,6.939,7.638,7.507,7.638z M9.203,3.991c4.302,0,7.788,3.549,7.788,7.923c0,4.376-3.487,7.923-7.788,7.923
				s-7.789-3.549-7.789-7.924S4.901,3.991,9.203,3.991z"/>
			
				<linearGradient id="SVGID_2_" gradientUnits="userSpaceOnUse" x1="33.7985" y1="480.6972" x2="33.7985" y2="508.1868" gradientTransform="matrix(1 0 0 1 0 -477.8)">
				<stop  offset="0.097" style="stop-color:#E1E0DF"/>
				<stop  offset="0.3528" style="stop-color:#C7C7C7"/>
				<stop  offset="0.7418" style="stop-color:#AEAFB0"/>
			</linearGradient>
			<path class="st4" d="M33.859,9.573c1.387,0,2.512,1.135,2.512,2.537s-1.125,2.537-2.512,2.537c-1.387,0-2.512-1.135-2.512-2.537
				C31.348,10.709,32.472,9.573,33.859,9.573z M36.372,2.897v4.245c-0.768-0.411-1.643-0.645-2.573-0.645
				c-3.034,0-5.493,2.481-5.493,5.543s2.459,5.543,5.493,5.543c0.931,0,1.805-0.234,2.573-0.645v0.645h2.92V2.897H36.372z"/>
			
				<linearGradient id="SVGID_3_" gradientUnits="userSpaceOnUse" x1="22.6843" y1="484.6988" x2="22.6843" y2="508.9388" gradientTransform="matrix(1 0 0 1 0 -477.8)">
				<stop  offset="0" style="stop-color:#E1E0DF"/>
				<stop  offset="0.3528" style="stop-color:#C7C7C7"/>
				<stop  offset="0.7418" style="stop-color:#AEAFB0"/>
			</linearGradient>
			<path class="st5" d="M22.623,9.836c1.387,0,2.512,1.135,2.512,2.535s-1.125,2.535-2.512,2.535c-1.387,0-2.512-1.135-2.512-2.535
				S21.237,9.836,22.623,9.836z M22.684,6.899c-0.931,0-1.806,0.234-2.573,0.645V6.899h-2.92v14.686h2.92V17.34
				c0.768,0.411,1.643,0.645,2.573,0.645c3.034,0,5.493-2.481,5.493-5.543S25.719,6.899,22.684,6.899z"/>
			<path class="st6" d="M9.203,3.991c-3.39,0-6.271,2.204-7.342,5.278c1.345,0.972,3.144,1.661,5.176,1.927
				c0.051-1.877,0.22-3.559,0.471-3.559c0.421,0,3.62,1.787,5.258,3.133c1.434-0.424,2.681-1.073,3.636-1.88
				C15.234,6.015,12.451,3.991,9.203,3.991z"/>
			<path class="st7" d="M7.507,7.638c0.569,0,6.218,3.264,6.218,4.297c0,1.032-5.496,4.297-6.218,4.297
				C6.786,16.233,6.939,7.638,7.507,7.638z"/>
			<g>
				<path class="st8" d="M7.507,7.638c-0.072,0-0.138,0.139-0.195,0.382c0.723,0.106,6.182,3.276,6.182,4.292
					c0,0.039-0.011,0.081-0.025,0.127c0.164-0.198,0.258-0.371,0.258-0.504C13.726,10.902,8.076,7.638,7.507,7.638z"/>
			</g>
			<path class="st9" d="M7.037,11.197c0.6,0.079,1.219,0.12,1.853,0.12c1.381,0,2.692-0.195,3.876-0.545
				C11.128,9.425,7.929,7.64,7.507,7.64C7.257,7.638,7.087,9.321,7.037,11.197z"/>
		</g>
		<g>
			<path class="st10" d="M13.482,12.423c-0.004,0.005-0.008,0.009-0.012,0.014c0,0.001,0,0.002-0.001,0.003
				C13.474,12.434,13.477,12.428,13.482,12.423z"/>
			<path class="st10" d="M13.482,12.235c-1.102,1.347-5.448,3.88-6.091,3.88c-0.007,0-0.015-0.002-0.022-0.004
				c0.042,0.078,0.088,0.121,0.138,0.121c0.629,0,4.873-2.474,5.963-3.795c0.014-0.045,0.024-0.086,0.024-0.124
				C13.494,12.288,13.488,12.261,13.482,12.235z"/>
		</g>
	</g>
</g>
</svg>
