<?xml version="1.0" encoding="utf-8"?>
<!-- Generator: Adobe Illustrator 21.1.0, SVG Export Plug-In . SVG Version: 6.00 Build 0)  -->
<svg version="1.1" id="Layer_1" xmlns="http://www.w3.org/2000/svg" xmlns:xlink="http://www.w3.org/1999/xlink" x="0px" y="0px"
	 viewBox="0 0 113.25 7" style="enable-background:new 0 0 113.25 7;" xml:space="preserve">
<style type="text/css">
	.st0{fill:#3C4852;}
</style>
<g>
	<polygon class="st0" points="20.727,0.987 19.377,0.926 19.429,1.199 19.85,1.154 19.812,3.359 19.981,3.398 20.214,1.136 
		20.672,1.116 	"/>
	<path class="st0" d="M21.387,2.969c-0.019,0.003-0.039,0.001-0.059,0.005c-0.24,0.013-0.53-0.057-0.609-0.606l0.988-0.067
		c-0.008-0.093-0.012-0.139-0.025-0.213c-0.064-0.367-0.232-0.675-0.652-0.647c-0.015,0.003-0.036,0.001-0.051,0.004
		c-0.414,0.06-0.567,0.502-0.48,1.005c0.07,0.402,0.318,0.851,0.918,0.764c0.144-0.021,0.287-0.063,0.361-0.114l-0.119-0.232
		C21.598,2.91,21.51,2.951,21.387,2.969z M20.986,1.624c0.201-0.029,0.352,0.156,0.408,0.477l-0.665,0.078
		C20.703,1.933,20.758,1.657,20.986,1.624z"/>
	<path class="st0" d="M23.131,1.766l-0.007-0.001c-0.073-0.191-0.218-0.277-0.365-0.299c-0.306-0.044-0.665,0.201-0.762,0.754
		c-0.075,0.434-0.022,0.97,0.47,1.041c0.209,0.03,0.394-0.077,0.475-0.196l0.012,0.001l-0.113,0.88l0.211-0.03l0.332-1.8l0.09-0.518
		l-0.338-0.154L23.131,1.766z M23.052,2.199l-0.05,0.423c-0.036,0.324-0.262,0.414-0.394,0.395c-0.34-0.049-0.363-0.508-0.314-0.797
		c0.058-0.332,0.223-0.575,0.475-0.539C22.975,1.711,23.086,1.94,23.052,2.199z"/>
</g>
<g>
	<polygon class="st0" points="25.243,1.625 25.861,1.625 25.861,3.332 26.283,3.332 26.283,1.625 26.911,1.625 26.911,1.284 
		25.243,1.284 	"/>
	<path class="st0" d="M27.215,1.206c-0.07,0-0.126,0.02-0.167,0.059s-0.062,0.089-0.062,0.151c0,0.062,0.021,0.113,0.063,0.152
		c0.042,0.039,0.097,0.059,0.165,0.059c0.068,0,0.123-0.02,0.165-0.059c0.042-0.039,0.063-0.09,0.063-0.152
		c0-0.061-0.021-0.111-0.062-0.151C27.34,1.226,27.285,1.206,27.215,1.206z"/>
	<rect x="27.012" y="1.809" class="st0" width="0.408" height="1.522"/>
	<path class="st0" d="M28.357,1.782c-0.159,0-0.287,0.059-0.385,0.177L27.957,1.81h-0.377v2.107h0.406V3.199
		c0.095,0.107,0.219,0.16,0.373,0.16c0.181,0,0.325-0.07,0.432-0.211c0.107-0.141,0.16-0.329,0.16-0.563V2.564
		c0-0.244-0.052-0.436-0.156-0.574C28.69,1.851,28.544,1.782,28.357,1.782z M28.253,3.033c-0.128,0-0.216-0.05-0.266-0.151V2.256
		c0.048-0.097,0.136-0.147,0.263-0.147c0.096,0,0.169,0.038,0.219,0.116c0.05,0.077,0.075,0.187,0.075,0.329
		C28.544,2.873,28.447,3.033,28.253,3.033z"/>
	<path class="st0" d="M30.06,2.485c-0.069-0.026-0.155-0.048-0.256-0.068c-0.101-0.02-0.173-0.044-0.216-0.071
		c-0.042-0.027-0.064-0.064-0.064-0.109c0-0.048,0.019-0.087,0.056-0.118c0.038-0.031,0.091-0.046,0.159-0.046
		c0.08,0,0.138,0.019,0.175,0.057c0.038,0.038,0.056,0.086,0.056,0.144h0.406c0-0.146-0.058-0.263-0.174-0.354
		c-0.116-0.091-0.27-0.136-0.463-0.136c-0.181,0-0.328,0.046-0.44,0.136c-0.113,0.091-0.168,0.203-0.168,0.338
		c0,0.232,0.181,0.385,0.543,0.462c0.109,0.023,0.187,0.048,0.237,0.077c0.049,0.028,0.074,0.068,0.074,0.118
		c0,0.048-0.02,0.087-0.06,0.116c-0.04,0.029-0.099,0.044-0.177,0.044c-0.083,0-0.15-0.019-0.2-0.058
		c-0.05-0.038-0.076-0.094-0.08-0.166h-0.385c0,0.092,0.028,0.177,0.085,0.257c0.056,0.079,0.134,0.142,0.233,0.187
		c0.099,0.045,0.212,0.068,0.34,0.068c0.189,0,0.342-0.043,0.461-0.128c0.119-0.086,0.179-0.198,0.179-0.337
		C30.381,2.7,30.274,2.564,30.06,2.485z"/>
</g>
<rect x="24.418" y="0.117" class="st0" width="0.054" height="4.109"/>
<g>
	<path class="st0" d="M3.313,2.503c0,0.207-0.036,0.388-0.107,0.544S3.032,3.323,2.9,3.407C2.767,3.491,2.615,3.534,2.44,3.534
		c-0.262,0-0.474-0.093-0.635-0.281c-0.161-0.187-0.242-0.44-0.242-0.759V2.263c0-0.205,0.036-0.385,0.109-0.543
		C1.745,1.563,1.847,1.441,1.98,1.357S2.265,1.23,2.437,1.23s0.325,0.041,0.457,0.124C3.026,1.437,3.128,1.555,3.2,1.707
		S3.31,2.035,3.313,2.236V2.503z M3.123,2.259c0-0.27-0.061-0.482-0.183-0.635c-0.122-0.153-0.289-0.23-0.502-0.23
		c-0.208,0-0.375,0.077-0.498,0.23S1.754,1.993,1.754,2.269v0.234c0,0.266,0.062,0.477,0.185,0.632s0.291,0.234,0.502,0.234
		c0.214,0,0.382-0.077,0.502-0.23c0.12-0.154,0.179-0.367,0.179-0.641V2.259z"/>
	<path class="st0" d="M3.955,1.409v0.427H4.3v0.151H3.955v1.112c0,0.093,0.017,0.162,0.05,0.207C4.038,3.35,4.094,3.373,4.172,3.373
		c0.03,0,0.081-0.005,0.15-0.015l0.008,0.15C4.281,3.524,4.215,3.534,4.132,3.534c-0.126,0-0.218-0.037-0.276-0.11
		C3.798,3.35,3.77,3.242,3.77,3.099V1.987H3.464V1.836H3.77V1.409H3.955z"/>
	<path class="st0" d="M4.787,2.118c0.06-0.1,0.138-0.177,0.232-0.231c0.095-0.054,0.198-0.082,0.31-0.082
		c0.179,0,0.312,0.05,0.399,0.151C5.815,2.056,5.86,2.207,5.86,2.409v1.094H5.678V2.407C5.676,2.259,5.645,2.148,5.583,2.074
		C5.521,2.001,5.422,1.965,5.285,1.965c-0.114,0-0.215,0.036-0.302,0.107C4.894,2.144,4.829,2.24,4.788,2.361v1.142H4.604V1.136
		h0.183L4.787,2.118L4.787,2.118z"/>
	<path class="st0" d="M6.902,3.534c-0.142,0-0.27-0.035-0.385-0.105C6.403,3.36,6.314,3.262,6.25,3.137
		c-0.064-0.124-0.095-0.265-0.095-0.42V2.651c0-0.16,0.031-0.304,0.093-0.433s0.148-0.229,0.259-0.302
		c0.111-0.073,0.23-0.11,0.36-0.11c0.203,0,0.363,0.069,0.481,0.207S7.527,2.34,7.527,2.579v0.103H6.338v0.036
		c0,0.189,0.054,0.346,0.163,0.473C6.609,3.316,6.745,3.379,6.91,3.379c0.099,0,0.185-0.018,0.261-0.054
		c0.075-0.036,0.144-0.093,0.206-0.173L7.492,3.24C7.356,3.436,7.16,3.534,6.902,3.534z M6.868,1.962
		c-0.138,0-0.255,0.051-0.351,0.152c-0.095,0.102-0.152,0.238-0.173,0.41h1V2.504c-0.005-0.16-0.051-0.291-0.137-0.391
		C7.121,2.013,7.008,1.962,6.868,1.962z"/>
	<path class="st0" d="M8.578,1.993C8.539,1.985,8.497,1.982,8.452,1.982c-0.115,0-0.212,0.032-0.292,0.096
		C8.081,2.142,8.024,2.236,7.99,2.357v1.145H7.808V1.836h0.181l0.003,0.265c0.097-0.197,0.254-0.296,0.47-0.296
		c0.051,0,0.092,0.007,0.122,0.02L8.578,1.993z"/>
	<path class="st0" d="M9.662,2.118c0.06-0.1,0.138-0.177,0.233-0.231c0.095-0.054,0.198-0.082,0.31-0.082
		c0.179,0,0.312,0.05,0.399,0.151c0.087,0.101,0.132,0.252,0.132,0.453v1.094h-0.183V2.407c-0.001-0.149-0.032-0.26-0.095-0.333
		s-0.162-0.109-0.299-0.109c-0.114,0-0.215,0.036-0.302,0.107C9.77,2.144,9.705,2.24,9.663,2.361v1.142H9.48V1.136h0.183
		L9.662,2.118L9.662,2.118z"/>
	<path class="st0" d="M11.777,3.534c-0.142,0-0.27-0.035-0.385-0.105c-0.115-0.069-0.203-0.167-0.267-0.292
		c-0.064-0.124-0.095-0.265-0.095-0.42V2.651c0-0.16,0.031-0.304,0.093-0.433s0.148-0.229,0.259-0.302
		c0.111-0.073,0.231-0.11,0.361-0.11c0.203,0,0.363,0.069,0.481,0.207c0.118,0.138,0.178,0.327,0.178,0.566v0.103h-1.189v0.036
		c0,0.189,0.054,0.346,0.163,0.473c0.109,0.126,0.245,0.189,0.409,0.189c0.099,0,0.185-0.018,0.261-0.054
		c0.075-0.036,0.144-0.093,0.206-0.173l0.115,0.088C12.232,3.436,12.035,3.534,11.777,3.534z M11.743,1.962
		c-0.138,0-0.255,0.051-0.351,0.152c-0.095,0.102-0.153,0.238-0.173,0.41h1v-0.02c-0.005-0.16-0.051-0.291-0.137-0.391
		C11.996,2.013,11.883,1.962,11.743,1.962z"/>
	<path class="st0" d="M12.889,3.503h-0.185V1.136h0.185V3.503z"/>
	<path class="st0" d="M14.652,2.686c0,0.26-0.058,0.466-0.173,0.619c-0.115,0.153-0.269,0.229-0.462,0.229
		c-0.228,0-0.402-0.08-0.524-0.24v0.851H13.31V1.836h0.171l0.009,0.236c0.12-0.178,0.295-0.267,0.522-0.267
		c0.199,0,0.356,0.075,0.469,0.226c0.113,0.151,0.17,0.361,0.17,0.629L14.652,2.686L14.652,2.686z M14.467,2.654
		c0-0.212-0.044-0.381-0.131-0.504s-0.209-0.185-0.365-0.185c-0.113,0-0.21,0.027-0.291,0.082c-0.081,0.054-0.144,0.134-0.187,0.237
		v0.8c0.044,0.095,0.107,0.169,0.189,0.219c0.082,0.05,0.179,0.075,0.291,0.075c0.155,0,0.276-0.062,0.363-0.185
		C14.423,3.069,14.467,2.889,14.467,2.654z"/>
	<path class="st0" d="M15.114,3.503V1.987h-0.276V1.836h0.276V1.634c0-0.17,0.044-0.301,0.13-0.393
		c0.087-0.091,0.208-0.137,0.363-0.137c0.07,0,0.135,0.009,0.196,0.026l-0.014,0.152c-0.051-0.013-0.107-0.019-0.168-0.019
		c-0.102,0-0.181,0.032-0.237,0.095s-0.085,0.154-0.085,0.269v0.207h0.398v0.151h-0.398v1.518H15.114z"/>
	<path class="st0" d="M17.019,3.292c-0.111,0.162-0.288,0.242-0.532,0.242c-0.178,0-0.312-0.052-0.405-0.155
		c-0.093-0.103-0.14-0.256-0.142-0.458V1.836h0.183v1.062c0,0.318,0.128,0.476,0.385,0.476c0.267,0,0.436-0.111,0.507-0.332V1.836
		h0.185v1.667h-0.179L17.019,3.292z"/>
	<path class="st0" d="M17.808,3.503h-0.185V1.136h0.185V3.503z"/>
</g>
</svg>
