<?xml version="1.0" encoding="utf-8"?>
<!-- Generator: Adobe Illustrator 23.0.6, SVG Export Plug-In . SVG Version: 6.00 Build 0)  -->
<svg version="1.1" id="Layer_1" xmlns="http://www.w3.org/2000/svg" xmlns:xlink="http://www.w3.org/1999/xlink" x="0px" y="0px"
	 viewBox="0 0 50 50" style="enable-background:new 0 0 50 50;" xml:space="preserve">
<style type="text/css">
	.st0{opacity:0.4;}
	.st1{fill:#310940;}
	.st2{fill:#E2BEAE;}
	.st3{fill:#92ACB2;}
	.st4{fill:#8B3D6E;}
	.st5{fill:#FFF360;}
	.st6{fill:#EC509C;}
	.st7{fill:#FFFFFF;}
	.st8{fill:#A9E0F7;}
	.st9{fill:#301118;}
	.st10{fill:#D48BBC;}
	.st11{fill:#50B848;}
	.st12{fill:#CBAD95;}
	.st13{fill:#443E39;}
	.st14{fill:#E4A2AC;}
	.st15{fill:#E7BA2D;}
	.st16{opacity:0.25;}
	.st17{fill:#078366;}
</style>
<g>
	<g class="st0">
		<path class="st1" d="M40.657,36.354c0-0.749-8.626-1.356-19.265-1.356S2.127,35.605,2.127,36.354c0,0.446,3.06,0.841,7.784,1.09
			c-0.078,0.041-0.12,0.084-0.12,0.128c0,0.339,2.471,0.614,5.518,0.614c2.619,0,4.81-0.203,5.375-0.475
			c0.236,0.001,0.472,0.001,0.71,0.001c0.707,0,1.406-0.003,2.094-0.008c0.542,0.276,2.748,0.482,5.389,0.482
			c3.048,0,5.518-0.275,5.518-0.614c0-0.069-0.105-0.135-0.293-0.197C38.119,37.125,40.657,36.761,40.657,36.354z"/>
	</g>
	<g>
		<path class="st2" d="M36.83,11.583c0.325,0.141,0.623,0.382,0.977,0.395c0.039,0.001,0.077,0.001,0.113,0.001
			c0.868-0.022,0.821-0.709,1.289-1.249c0.156-0.18,0.363-0.311,0.578-0.416c1.55-0.75,4.054,0.094,3.905,2.066
			c-0.049,0.653-0.336,1.264-0.673,1.825c-0.891,1.484-2.391,2.101-3.496,3.364c-0.261,0.298-0.557,0.563-0.853,0.827
			c-0.311,0.275-0.498,0.524-0.723,0.873c-0.547,0.851-1.193,1.653-1.751,2.506c-0.515,0.785-1.009,1.583-1.484,2.393
			c-0.19,0.325-0.642,1.419-1.17,1.265c-0.592-0.172-0.37-1.891-0.618-2.344c-0.453-0.827-0.842-1.279-0.745-2.294
			c0.055-0.561,0.314-1.015,0.651-1.444c0.213-0.271,0.386-0.586,0.576-0.874c0.108-0.164,0.518-0.598,0.518-0.786
			c0.269-0.408,0.513-0.857,0.838-1.221c0.393-0.439,0.726-0.937,1.056-1.429c0.162-0.242,0.32-0.498,0.365-0.785
			c0.064-0.41-0.132-0.717-0.228-1.095C35.789,12.508,35.74,11.109,36.83,11.583z"/>
	</g>
	<g>
		<path d="M33.755,25.741c0.225-0.367,0.443-0.738,0.659-1.11c0.218-0.371,0.431-0.743,0.644-1.118
			c0.426-0.747,0.844-1.5,1.293-2.238c0.451-0.736,0.927-1.46,1.459-2.147c0.532-0.686,1.118-1.335,1.759-1.927
			c0.32-0.297,0.653-0.579,0.998-0.846c0.336-0.263,0.663-0.531,0.973-0.817c0.31-0.285,0.602-0.587,0.863-0.908
			c0.133-0.159,0.251-0.327,0.362-0.496c0.106-0.172,0.205-0.349,0.283-0.532c0.154-0.366,0.237-0.752,0.216-1.141
			c-0.018-0.389-0.13-0.776-0.283-1.158c-0.077-0.19-0.164-0.381-0.256-0.571c-0.093-0.189-0.189-0.385-0.285-0.572
			c-0.097-0.189-0.195-0.373-0.301-0.544c-0.106-0.17-0.221-0.327-0.349-0.434s-0.259-0.16-0.422-0.165
			c-0.162-0.005-0.349,0.035-0.535,0.094c-0.047,0.016-0.094,0.031-0.141,0.049l-0.07,0.027c-0.021,0.009-0.043,0.017-0.062,0.027
			c-0.081,0.037-0.157,0.081-0.226,0.133c-0.138,0.103-0.25,0.24-0.343,0.404c-0.185,0.33-0.298,0.739-0.405,1.147
			c-0.028,0.108-0.049,0.192-0.065,0.291c-0.015,0.097-0.027,0.197-0.035,0.3c-0.019,0.207-0.018,0.421-0.067,0.672
			c-0.027,0.123-0.068,0.271-0.185,0.41c-0.058,0.068-0.135,0.124-0.214,0.161c-0.079,0.036-0.158,0.055-0.23,0.064
			c-0.146,0.017-0.273,0.003-0.394-0.016c-0.061-0.01-0.119-0.022-0.176-0.036l-0.086-0.022c-0.036-0.01-0.071-0.022-0.103-0.035
			c-0.13-0.053-0.234-0.119-0.33-0.186c-0.097-0.068-0.186-0.138-0.271-0.207c-0.17-0.141-0.33-0.281-0.492-0.404
			c-0.158-0.122-0.329-0.232-0.467-0.263c-0.069-0.015-0.118-0.011-0.163,0.01c-0.046,0.021-0.099,0.068-0.147,0.134
			s-0.09,0.15-0.121,0.226c-0.029,0.079-0.045,0.16-0.049,0.242c-0.009,0.167,0.043,0.347,0.114,0.536
			c0.072,0.19,0.167,0.389,0.238,0.611c0.036,0.111,0.067,0.227,0.085,0.349c0.017,0.122,0.022,0.248,0.011,0.374
			c-0.026,0.252-0.117,0.492-0.242,0.693c-0.031,0.051-0.062,0.102-0.098,0.148c-0.035,0.048-0.069,0.095-0.1,0.136
			c-0.064,0.085-0.128,0.168-0.192,0.255c-0.507,0.688-1.009,1.39-1.509,2.089l-1.506,2.097c-0.252,0.349-0.506,0.696-0.766,1.041
			c-0.26,0.345-0.517,0.688-0.798,1.023l-0.16-0.132c0.262-0.333,0.508-0.687,0.755-1.038l0.734-1.06l1.454-2.132
			c0.486-0.711,0.964-1.424,1.465-2.13c0.062-0.088,0.128-0.176,0.192-0.264c0.034-0.045,0.062-0.086,0.089-0.125
			c0.03-0.039,0.053-0.081,0.078-0.122c0.099-0.165,0.157-0.341,0.175-0.517c0.013-0.177-0.02-0.359-0.085-0.544
			c-0.064-0.186-0.156-0.376-0.241-0.587c-0.082-0.21-0.163-0.449-0.156-0.716c0.003-0.132,0.028-0.264,0.071-0.389
			c0.048-0.123,0.101-0.234,0.178-0.343c0.077-0.107,0.18-0.219,0.33-0.29c0.073-0.035,0.156-0.057,0.237-0.064
			s0.159,0.001,0.23,0.016c0.143,0.031,0.26,0.088,0.367,0.148c0.106,0.061,0.202,0.128,0.293,0.196
			c0.181,0.136,0.346,0.28,0.509,0.41c0.161,0.129,0.328,0.255,0.473,0.312c0.018,0.007,0.034,0.012,0.049,0.016l0.071,0.017
			c0.048,0.011,0.094,0.019,0.141,0.027c0.092,0.014,0.18,0.018,0.249,0.009c0.034-0.005,0.061-0.013,0.079-0.022
			c0.018-0.009,0.03-0.019,0.041-0.033c0.023-0.027,0.051-0.091,0.065-0.177c0.031-0.172,0.035-0.391,0.052-0.611
			c0.009-0.112,0.019-0.226,0.037-0.341c0.016-0.114,0.046-0.239,0.072-0.34c0.054-0.212,0.111-0.425,0.18-0.638
			c0.07-0.214,0.152-0.43,0.27-0.642c0.118-0.211,0.278-0.417,0.485-0.574c0.103-0.078,0.213-0.143,0.327-0.196
			c0.028-0.014,0.057-0.026,0.085-0.037L40.5,8.647c0.053-0.022,0.109-0.039,0.163-0.06c0.22-0.073,0.461-0.134,0.729-0.124
			c0.133,0.005,0.273,0.03,0.404,0.083c0.132,0.052,0.251,0.127,0.351,0.212c0.202,0.172,0.339,0.371,0.461,0.564
			c0.12,0.195,0.223,0.391,0.322,0.585c0.099,0.196,0.194,0.386,0.289,0.584c0.094,0.197,0.187,0.398,0.271,0.606
			c0.168,0.414,0.296,0.867,0.312,1.34c0.021,0.473-0.088,0.948-0.273,1.37c-0.093,0.212-0.207,0.41-0.329,0.602
			c-0.127,0.187-0.259,0.371-0.403,0.541c-0.288,0.343-0.604,0.652-0.933,0.942c-0.329,0.29-0.674,0.56-1.022,0.819
			c-0.34,0.253-0.668,0.523-0.988,0.801c-1.282,1.116-2.337,2.472-3.281,3.901c-0.474,0.715-0.932,1.443-1.392,2.17
			c-0.23,0.363-0.461,0.727-0.696,1.087C34.243,25.033,34.001,25.389,33.755,25.741z"/>
	</g>
	<g>
		<path class="st2" d="M9.633,34.728c-0.169,0.268-0.311,0.553-0.477,0.82C9.03,35.75,9.01,35.966,8.802,36.114
			c-0.398,0.285-0.626,0.19-1.076,0.093c-0.427-0.093-0.845-0.217-1.257-0.361c-0.426-0.149-0.894-0.004-1.331,0.061
			c-0.408,0.06-0.8,0.288-1.199,0.394c-0.607,0.16-1.225,0.09-1.813-0.112c-0.388-0.133-1.537-1.099-0.738-1.472
			c0.36-0.168,0.761-0.306,1.132-0.455c0.338-0.135,0.693-0.306,1.031-0.472c0.321-0.158,0.678-0.218,0.951-0.461
			c0.264-0.234,0.558-0.378,0.868-0.556c0.408-0.234,0.801-0.491,1.181-0.767c0.202-0.146,0.424-0.265,0.619-0.419
			c0.157-0.122,0.253-0.278,0.384-0.43c0.377-0.437,0.773-0.868,1.145-1.3c0.403-0.469,0.666-1.196,0.891-1.765
			c0.271-0.685,0.549-1.391,0.642-2.125c0.077-0.611,0.085-1.247,0.29-1.834c0.154-0.438,0.786-0.882,1.264-0.774
			c0.387,0.087,0.748,0.434,1.149,0.558c0.988,0.305,1.357,1.108,1.466,2.069c0.123,1.086-0.434,1.887-0.924,2.808
			c-0.636,1.194-0.963,2.536-1.678,3.691c-0.282,0.456-0.636,0.875-1.068,1.197C10.295,34.002,9.932,34.255,9.633,34.728z"/>
	</g>
	<g>
		<path d="M10.359,22.665c0.065,0.423,0.111,0.851,0.123,1.281c0.011,0.43-0.002,0.861-0.043,1.291
			c-0.079,0.859-0.263,1.713-0.563,2.528c-0.149,0.408-0.324,0.807-0.523,1.194c-0.2,0.387-0.429,0.759-0.678,1.117
			c-0.499,0.715-1.08,1.373-1.733,1.953c-0.656,0.582-1.393,1.07-2.171,1.468c-0.777,0.4-1.605,0.694-2.403,0.981
			c-0.199,0.073-0.395,0.147-0.577,0.23c-0.09,0.042-0.177,0.086-0.252,0.134c-0.073,0.047-0.136,0.099-0.162,0.141
			c-0.028,0.042-0.028,0.057-0.023,0.105c0.01,0.048,0.039,0.119,0.087,0.19c0.046,0.073,0.11,0.146,0.17,0.214
			c0.064,0.065,0.13,0.128,0.202,0.182c0.144,0.108,0.306,0.189,0.484,0.242C2.475,35.968,2.666,35.993,2.862,36
			c0.393,0.014,0.805-0.046,1.218-0.119c0.415-0.073,0.835-0.164,1.269-0.232c0.109-0.017,0.218-0.032,0.328-0.045
			c0.056-0.006,0.105-0.015,0.182-0.017c0.07-0.002,0.133,0.001,0.195,0.007c0.244,0.026,0.459,0.078,0.671,0.132
			c0.422,0.11,0.828,0.236,1.225,0.309c0.196,0.036,0.396,0.057,0.547,0.034c0.076-0.011,0.126-0.036,0.147-0.057
			c0.012-0.012,0.02-0.021,0.03-0.044c0.022-0.052,0.045-0.103,0.069-0.154c0.189-0.405,0.413-0.788,0.678-1.15
			c0.265-0.359,0.571-0.697,0.95-0.972c0.189-0.136,0.4-0.253,0.628-0.335c0.231-0.079,0.479-0.121,0.732-0.103
			c0.13,0.009,0.259,0.039,0.377,0.082c0.118,0.042,0.226,0.098,0.311,0.136c0.039,0.019,0.079,0.03,0.068,0.027
			c-0.003,0.001-0.027,0.001-0.04,0.01c-0.016,0.01-0.019,0.013-0.017,0.013c0.006-0.005,0.024-0.039,0.038-0.076
			c0.015-0.037,0.029-0.083,0.043-0.128c0.026-0.091,0.048-0.197,0.066-0.29c0.008-0.038,0.009-0.071,0.009-0.087
			c-0.003-0.017,0.002-0.001,0.012,0.005c0.009,0.004-0.007-0.007-0.04-0.013c-0.033-0.007-0.078-0.01-0.129-0.013
			c-0.051-0.003-0.107-0.004-0.171-0.01c-0.064-0.007-0.137-0.014-0.228-0.055c-0.045-0.021-0.095-0.053-0.136-0.101
			c-0.041-0.047-0.069-0.105-0.082-0.156c-0.027-0.104-0.015-0.182-0.004-0.252c0.013-0.069,0.033-0.131,0.049-0.18l0.052-0.157
			c0.033-0.106,0.073-0.205,0.11-0.308c0.037-0.102,0.075-0.204,0.114-0.303c0.314-0.803,0.65-1.59,0.99-2.378
			c0.341-0.786,0.688-1.57,1.044-2.35c0.177-0.391,0.358-0.779,0.542-1.166c0.186-0.387,0.369-0.774,0.574-1.156l0.184,0.096
			c-0.371,0.763-0.7,1.557-1.04,2.34c-0.336,0.786-0.665,1.576-0.986,2.368s-0.637,1.588-0.929,2.387
			c-0.037,0.1-0.073,0.2-0.107,0.299c-0.034,0.1-0.072,0.2-0.101,0.298l-0.046,0.148c-0.017,0.053-0.027,0.093-0.033,0.13
			c-0.006,0.036-0.002,0.066,0,0.066c0.001,0.001-0.002-0.009-0.007-0.015c-0.006-0.007-0.01-0.009-0.007-0.009
			c0.007,0.003,0.042,0.01,0.084,0.012c0.043,0.002,0.094,0.002,0.15,0.002c0.057,0.001,0.119,0.002,0.192,0.013
			c0.071,0.012,0.162,0.031,0.255,0.103c0.045,0.036,0.085,0.085,0.111,0.135c0.026,0.051,0.039,0.101,0.048,0.146
			c0.013,0.091,0.007,0.165-0.003,0.233c-0.021,0.118-0.042,0.221-0.072,0.336c-0.015,0.057-0.031,0.114-0.056,0.177
			c-0.026,0.062-0.051,0.127-0.112,0.206c-0.034,0.039-0.074,0.082-0.14,0.114c-0.062,0.031-0.14,0.045-0.196,0.04
			c-0.119-0.009-0.179-0.042-0.238-0.064c-0.111-0.049-0.194-0.09-0.279-0.119c-0.084-0.029-0.165-0.046-0.249-0.051
			c-0.176-0.011-0.357,0.022-0.53,0.082c-0.172,0.065-0.341,0.159-0.497,0.275c-0.314,0.233-0.587,0.539-0.826,0.87
			c-0.239,0.331-0.449,0.691-0.618,1.062c-0.021,0.046-0.041,0.093-0.061,0.14c-0.03,0.076-0.084,0.158-0.149,0.22
			c-0.134,0.129-0.296,0.179-0.43,0.202c-0.273,0.041-0.505,0.007-0.729-0.03c-0.446-0.079-0.86-0.206-1.267-0.308
			c-0.202-0.049-0.405-0.099-0.587-0.117c-0.045-0.004-0.088-0.007-0.125-0.005c-0.029,0-0.086,0.008-0.136,0.014
			c-0.102,0.012-0.205,0.027-0.308,0.043c-0.412,0.064-0.829,0.154-1.258,0.229c-0.429,0.074-0.869,0.141-1.333,0.124
			c-0.231-0.009-0.468-0.039-0.701-0.107c-0.233-0.069-0.46-0.18-0.658-0.329c-0.1-0.074-0.189-0.159-0.274-0.248
			C1.179,35.81,1.14,35.764,1.1,35.717c-0.037-0.048-0.073-0.098-0.108-0.152c-0.069-0.108-0.134-0.233-0.163-0.395
			c-0.013-0.082-0.013-0.175,0.007-0.264c0.02-0.091,0.062-0.172,0.11-0.24c0.097-0.136,0.21-0.214,0.316-0.283
			c0.107-0.066,0.212-0.119,0.317-0.165c0.21-0.093,0.413-0.168,0.618-0.241c0.408-0.144,0.809-0.28,1.202-0.432
			c0.394-0.151,0.779-0.317,1.157-0.501c0.753-0.367,1.461-0.82,2.098-1.363c0.635-0.547,1.218-1.159,1.72-1.834
			s0.92-1.412,1.243-2.192c0.32-0.78,0.55-1.602,0.674-2.443C10.408,24.376,10.431,23.519,10.359,22.665z"/>
	</g>
	<g>
		<g>
			<path class="st3" d="M12.031,29.103c0.141,0.72,3.385,6.171,7.049,6.856c-0.217-0.593-0.263-0.849-0.263-0.849
				s2.744,1.565,8.841,0.169c-0.425-0.15-0.824-0.417-0.824-0.417s4.147-1.148,5.565-3.983c1.641-3.285-4.163-1.89-4.163-1.89
				L14.877,28.01L12.031,29.103z"/>
		</g>
		<g>
			<path d="M12.089,29.135c0.012,0,0.016-0.012,0.015-0.011l0.011,0.035c0.009,0.023,0.016,0.047,0.026,0.071
				c0.019,0.048,0.039,0.094,0.061,0.142c0.044,0.094,0.091,0.187,0.14,0.28c0.098,0.186,0.204,0.367,0.312,0.547
				c0.218,0.36,0.452,0.71,0.696,1.052c0.489,0.685,1.023,1.338,1.601,1.945c0.58,0.606,1.208,1.169,1.898,1.637
				c0.688,0.466,1.449,0.839,2.256,0.985l0,0l-0.159,0.187c-0.039-0.145-0.077-0.291-0.111-0.438
				c-0.017-0.073-0.033-0.147-0.047-0.221c-0.015-0.075-0.028-0.147-0.038-0.226v-0.001l-0.024-0.129l0.121,0.061
				c0.322,0.162,0.684,0.276,1.04,0.369c0.36,0.092,0.725,0.162,1.093,0.213c0.736,0.103,1.482,0.13,2.226,0.114
				c0.744-0.018,1.486-0.089,2.224-0.193c0.737-0.105,1.469-0.249,2.194-0.422l0,0l-0.016,0.284
				c-0.148-0.069-0.288-0.146-0.422-0.23c-0.134-0.085-0.263-0.173-0.388-0.271l0,0l-0.113-0.076l0.132-0.043
				c0.516-0.165,1.024-0.37,1.517-0.601c0.493-0.231,0.974-0.488,1.43-0.78c0.456-0.293,0.891-0.619,1.287-0.986
				c0.395-0.367,0.748-0.778,1.028-1.234c0.138-0.228,0.264-0.467,0.354-0.713c0.092-0.244,0.151-0.503,0.123-0.745
				c-0.014-0.12-0.052-0.234-0.113-0.334c-0.062-0.1-0.15-0.184-0.252-0.254c-0.204-0.14-0.459-0.217-0.717-0.265
				c-0.522-0.093-1.067-0.079-1.606-0.034c-0.538,0.049-1.08,0.134-1.606,0.253l-0.019,0.004l-0.018-0.001l-6.678-0.507
				l-6.676-0.527l0,0l0.028-0.004C13.965,28.431,13.031,28.783,12.089,29.135z M11.974,29.071c0.955-0.377,1.917-0.753,2.88-1.123
				l0.014-0.005l0.015,0.001l0,0l6.682,0.452l6.681,0.472l-0.036,0.003c0.544-0.123,1.087-0.21,1.64-0.262
				c0.552-0.048,1.112-0.065,1.673,0.033c0.278,0.053,0.561,0.133,0.813,0.303c0.124,0.085,0.239,0.194,0.322,0.326
				c0.084,0.133,0.133,0.286,0.151,0.437c0.034,0.306-0.038,0.596-0.137,0.863c-0.1,0.268-0.234,0.515-0.38,0.755
				c-0.297,0.477-0.668,0.902-1.078,1.279c-0.409,0.378-0.862,0.705-1.333,0.995c-0.472,0.289-0.964,0.545-1.469,0.765
				c-0.507,0.218-1.023,0.413-1.558,0.559l0.019-0.118l0,0c0.133,0.07,0.273,0.134,0.413,0.19c0.141,0.057,0.282,0.105,0.424,0.141
				l0.516,0.132l-0.533,0.151l0,0c-0.736,0.161-1.477,0.293-2.226,0.385c-0.748,0.092-1.5,0.149-2.254,0.154
				c-0.753,0.003-1.508-0.039-2.255-0.157c-0.373-0.058-0.742-0.136-1.107-0.237c-0.364-0.103-0.721-0.221-1.066-0.402l0.097-0.069
				l0,0c0.02,0.065,0.045,0.136,0.071,0.205s0.053,0.136,0.081,0.205c0.057,0.136,0.117,0.27,0.179,0.403l0.104,0.222l-0.263-0.035
				l0,0c-0.859-0.17-1.642-0.574-2.344-1.061c-0.702-0.492-1.332-1.074-1.909-1.697c-0.578-0.625-1.106-1.293-1.589-1.991
				c-0.241-0.349-0.471-0.706-0.686-1.073c-0.107-0.184-0.211-0.369-0.308-0.558c-0.048-0.094-0.095-0.19-0.138-0.289
				c-0.022-0.049-0.043-0.099-0.062-0.15c-0.01-0.026-0.019-0.052-0.028-0.078l-0.012-0.041
				C11.97,29.135,11.969,29.097,11.974,29.071z"/>
		</g>
	</g>
	<g>
		<path class="st4" d="M14.894,27.208c-1.093,1.808,0.869,5.309,3.132,6.145c-0.163-0.544,0.134-1.236,0.134-1.236
			s0.281,2.883,5.971,2.451c-0.348-0.221-0.66-0.824-0.51-0.775c2.22,0.724,4.682-0.704,4.427-0.873
			c-0.659-0.434,0.809-0.232,2.291-1.987c-1.955-0.775-1.475-3.773-1.475-3.773l-2.854-0.295l-8.724-0.051L14.894,27.208z"/>
	</g>
	<g>
		<g>
			<path class="st3" d="M12.07,28.711c-2.662-4.334-2.265-7.964-1.704-10.695c0,0,0.478,0.532,1.05,0.642
				c-0.32-0.988-0.641-2.137-0.106-3.536l0.709,0.596c0,0-0.169-3.488,4.489-5.622l-0.312,1.585c0,0,2.423-4.254,11.539-2.18
				c-0.958,0.587-1.373,1.434-1.373,1.434s4.894-1.554,8.026,5c-0.855-0.501-1.584-0.36-1.584-0.36s3.303,3.378,2.311,7.536
				l-0.61-0.675c0,0,0.603,3.912-1.549,6.903c0,0-2.082-2.061-5.27-2.038c-3.187,0.022-11.234-0.499-11.724-0.408
				C15.471,26.983,12.07,28.711,12.07,28.711z"/>
		</g>
		<g>
			<path d="M12.052,28.776c-0.142-0.2-0.291-0.437-0.397-0.63c-0.118-0.202-0.225-0.408-0.335-0.614
				c-0.212-0.415-0.405-0.84-0.579-1.274c-0.347-0.867-0.601-1.773-0.754-2.696c-0.152-0.924-0.2-1.865-0.153-2.801
				c0.045-0.936,0.184-1.865,0.363-2.779l0.063-0.321l0.23,0.241l0,0c0.055,0.07,0.124,0.148,0.194,0.216
				c0.07,0.07,0.145,0.135,0.223,0.197c0.156,0.121,0.329,0.221,0.519,0.278l-0.076,0.086l0,0c-0.202-0.569-0.382-1.159-0.432-1.776
				c-0.026-0.308-0.019-0.62,0.022-0.929s0.118-0.613,0.219-0.907l0.071-0.205l0.177,0.141l0,0l0.651,0.665l-0.11,0.055l0,0
				c-0.006-0.167,0.006-0.325,0.024-0.486c0.018-0.16,0.046-0.318,0.081-0.475c0.069-0.314,0.167-0.621,0.291-0.918
				c0.123-0.297,0.271-0.584,0.439-0.858c0.17-0.273,0.36-0.533,0.567-0.78c0.205-0.249,0.434-0.476,0.668-0.696
				c0.121-0.106,0.239-0.216,0.366-0.314l0.188-0.151l0.194-0.143c0.52-0.379,1.078-0.702,1.657-0.979l0.336-0.16l-0.067,0.373l0,0
				l-0.432,1.556l-0.122-0.046l0,0c0.142-0.232,0.312-0.428,0.494-0.618c0.182-0.188,0.381-0.36,0.587-0.521
				c0.415-0.318,0.867-0.588,1.342-0.806c0.475-0.219,0.969-0.392,1.474-0.526c0.505-0.131,1.019-0.222,1.538-0.288
				c1.036-0.118,2.083-0.122,3.12-0.036c1.038,0.086,2.066,0.252,3.082,0.471l0.414,0.089l-0.36,0.24h-0.001
				c-0.139,0.078-0.278,0.16-0.408,0.255c-0.132,0.093-0.256,0.197-0.375,0.306c-0.12,0.11-0.232,0.228-0.338,0.354
				c-0.105,0.124-0.205,0.259-0.287,0.394l-0.08-0.093h0.001c0.425-0.123,0.857-0.17,1.291-0.179
				c0.435-0.007,0.869,0.034,1.297,0.119c0.854,0.171,1.668,0.53,2.387,1.025c0.719,0.495,1.346,1.116,1.879,1.802
				c0.536,0.686,0.983,1.435,1.367,2.213l0.262,0.532l-0.535-0.281l0,0c-0.107-0.071-0.217-0.142-0.334-0.2
				c-0.115-0.061-0.238-0.108-0.362-0.15c-0.125-0.041-0.254-0.071-0.385-0.091c-0.13-0.02-0.267-0.029-0.393-0.02l0.035-0.112l0,0
				c0.478,0.502,0.886,1.057,1.249,1.643c0.36,0.587,0.666,1.21,0.897,1.864c0.231,0.653,0.385,1.336,0.439,2.032
				c0.056,0.695,0.005,1.401-0.148,2.086l0,0l-0.122,0.346l-0.186-0.267l-0.525-0.751l0,0l0.115-0.055
				c0.087,0.605,0.109,1.211,0.093,1.82c-0.019,0.607-0.079,1.214-0.195,1.813c-0.114,0.599-0.28,1.19-0.507,1.758
				c-0.224,0.571-0.519,1.115-0.868,1.623l0,0l-0.111,0.161l-0.146-0.14c-0.152-0.146-0.328-0.29-0.504-0.422
				c-0.177-0.134-0.361-0.26-0.55-0.379c-0.377-0.236-0.774-0.446-1.185-0.617c-0.41-0.175-0.836-0.311-1.269-0.412
				c-0.435-0.098-0.877-0.159-1.323-0.178c-0.111-0.004-0.222-0.005-0.335-0.007l-0.343-0.001l-0.684-0.011
				c-0.455-0.01-0.91-0.026-1.365-0.042c-0.909-0.033-1.817-0.076-2.725-0.119c-1.816-0.087-3.631-0.193-5.445-0.272
				c-0.226-0.009-0.453-0.017-0.679-0.023c-0.113-0.002-0.226-0.005-0.336-0.002c-0.057,0.002-0.103,0.001-0.15,0.015
				c-0.048,0.013-0.101,0.031-0.153,0.049c-0.418,0.159-0.831,0.354-1.242,0.544c-0.41,0.192-0.82,0.389-1.228,0.588l-0.613,0.301
				l-0.305,0.152l-0.152,0.076l-0.076,0.038l-0.038,0.019l-0.019,0.009l-0.007,0.003C12.092,28.775,12.069,28.778,12.052,28.776z
				 M12.088,28.646c-0.011-0.006-0.028-0.006-0.038-0.001l0.009-0.004l0.019-0.01l0.038-0.019l0.076-0.039l0.152-0.078l0.304-0.154
				l0.609-0.306c0.408-0.203,0.815-0.404,1.225-0.601c0.412-0.195,0.82-0.392,1.25-0.561c0.055-0.021,0.109-0.04,0.17-0.057
				c0.062-0.019,0.132-0.019,0.187-0.021c0.118-0.004,0.23-0.002,0.345-0.001c0.228,0.003,0.455,0.009,0.684,0.016
				c1.818,0.062,3.633,0.151,5.449,0.22c0.908,0.036,1.816,0.069,2.722,0.094c0.453,0.012,0.907,0.023,1.361,0.028l0.68,0.005
				l0.339-0.002c0.114,0.001,0.231,0.001,0.347,0.004c0.463,0.016,0.925,0.075,1.377,0.172c0.452,0.102,0.897,0.239,1.325,0.417
				c0.429,0.175,0.841,0.388,1.236,0.63c0.197,0.121,0.389,0.252,0.576,0.389c0.188,0.14,0.366,0.281,0.544,0.449l-0.256,0.022l0,0
				c0.346-0.476,0.645-0.99,0.877-1.535c0.236-0.544,0.413-1.114,0.542-1.696s0.206-1.176,0.242-1.773
				c0.032-0.596,0.028-1.2-0.04-1.79l-0.025-0.216l0.141,0.16l0,0l0.694,0.599l-0.309,0.079l0,0c0.162-0.645,0.23-1.315,0.195-1.982
				c-0.034-0.668-0.164-1.332-0.371-1.972c-0.207-0.641-0.489-1.259-0.827-1.846c-0.339-0.584-0.73-1.147-1.181-1.647l0,0
				l-0.095-0.082l0.13-0.03c0.147-0.034,0.287-0.044,0.432-0.045c0.144,0,0.289,0.011,0.432,0.035
				c0.142,0.026,0.286,0.056,0.424,0.104c0.14,0.044,0.274,0.103,0.408,0.165l0,0l-0.272,0.251
				c-0.355-0.767-0.774-1.506-1.276-2.184c-0.501-0.678-1.09-1.292-1.772-1.786c-0.68-0.493-1.456-0.86-2.278-1.046
				c-0.41-0.093-0.833-0.143-1.255-0.146c-0.421-0.002-0.85,0.036-1.251,0.142h-0.001l-0.149,0.057l0.069-0.151
				c0.073-0.16,0.159-0.306,0.254-0.45c0.095-0.142,0.199-0.28,0.312-0.41s0.233-0.255,0.363-0.371
				c0.128-0.119,0.267-0.224,0.41-0.326h0.001l0.055,0.329c-0.999-0.234-2.01-0.417-3.029-0.52
				c-1.019-0.105-2.048-0.117-3.066-0.021c-0.509,0.055-1.014,0.135-1.51,0.254C19.596,9.51,19.11,9.67,18.643,9.875
				c-0.468,0.204-0.912,0.459-1.323,0.761c-0.204,0.153-0.4,0.317-0.579,0.496c-0.178,0.178-0.352,0.373-0.483,0.58l0,0
				l-0.171,0.354l0.047-0.4l0.189-1.61l0,0l0.269,0.212c-0.57,0.25-1.119,0.544-1.632,0.893l-0.192,0.132l-0.186,0.14
				c-0.126,0.091-0.242,0.194-0.363,0.291c-0.232,0.205-0.46,0.416-0.665,0.649c-0.206,0.231-0.398,0.476-0.571,0.734
				c-0.171,0.259-0.322,0.53-0.451,0.813c-0.129,0.282-0.233,0.576-0.311,0.877c-0.076,0.299-0.13,0.613-0.132,0.916l0,0
				l0.021,0.144l-0.13-0.09l-0.767-0.527l0,0l0.248-0.064c-0.109,0.271-0.194,0.55-0.247,0.837c-0.053,0.287-0.074,0.58-0.065,0.874
				c0.017,0.589,0.163,1.173,0.335,1.749l0,0l0.042,0.101l-0.121-0.015c-0.22-0.027-0.429-0.106-0.622-0.21
				c-0.097-0.053-0.189-0.111-0.28-0.175c-0.091-0.065-0.175-0.128-0.262-0.211l0,0l0.293-0.079
				c-0.195,0.902-0.347,1.811-0.408,2.728c-0.064,0.916-0.033,1.838,0.099,2.747s0.365,1.804,0.692,2.666
				c0.163,0.431,0.346,0.854,0.549,1.269c0.105,0.205,0.206,0.412,0.32,0.614c0.055,0.101,0.113,0.206,0.162,0.292
				C11.995,28.456,12.041,28.549,12.088,28.646z"/>
		</g>
	</g>
	<g>
		
			<ellipse transform="matrix(0.0207 -0.9998 0.9998 0.0207 -0.1712 44.2583)" class="st5" cx="22.506" cy="22.217" rx="5.549" ry="2.859"/>
	</g>
	<g>
		<path class="st6" d="M18.885,16.006c-5.368-1.253-6.357,3.037-6.357,3.037s-0.84-0.707-0.761-2.864
			c0.587,1.578,1.092,1.746,1.452,1.846c0.14,0.038,0,0-0.057-0.132c-1-2.309,0.721-5.49,2.419-6.571
			c-0.501,1.679-0.27,2.688,0.178,3.87c0.089-0.352-0.271-5.52,10.105-5.305c0,0-1.36,1.372-1.444,2.557
			c1.729-0.972,5.807-0.349,8.754,2.322c0,0-1.424-0.398-1.915,0.336c2.458,1.505,3.716,4.458,3.369,6.515
			c-0.877-1.088-3.804-5.618-5.029-4.459c-1.71-1.932-5.513,0.17-6.965,2.786C22.633,19.944,19.964,16.258,18.885,16.006z"/>
	</g>
	<g>
		<g>
			<path class="st7" d="M20.909,21.537c0.081,2.819-0.28,5.212-2.535,5.522c-1.753,0.241-3.476-1.915-3.932-4.417
				c-0.509-2.794-0.686-5.208,2.493-6.04C20.115,15.77,20.801,17.776,20.909,21.537z"/>
		</g>
		<g>
			<path d="M21.014,21.534c0.021,0.594,0.024,1.189-0.014,1.786c-0.039,0.595-0.118,1.194-0.297,1.776
				c-0.091,0.29-0.207,0.576-0.367,0.841c-0.158,0.265-0.359,0.512-0.602,0.711c-0.243,0.201-0.527,0.35-0.825,0.447
				c-0.149,0.048-0.301,0.084-0.453,0.109c-0.154,0.026-0.317,0.036-0.476,0.028c-0.319-0.015-0.63-0.106-0.911-0.241
				c-0.283-0.134-0.539-0.313-0.769-0.516c-0.459-0.408-0.827-0.901-1.116-1.43c-0.29-0.529-0.509-1.092-0.662-1.671
				c-0.076-0.289-0.134-0.585-0.18-0.877c-0.048-0.293-0.093-0.586-0.13-0.881c-0.076-0.588-0.13-1.183-0.105-1.78
				c0.026-0.594,0.145-1.202,0.451-1.729c0.153-0.262,0.35-0.498,0.577-0.698c0.226-0.202,0.486-0.362,0.755-0.495
				c0.269-0.133,0.553-0.234,0.84-0.315c0.288-0.08,0.579-0.144,0.875-0.185c0.296-0.038,0.596-0.057,0.896-0.03
				c0.298,0.028,0.596,0.104,0.866,0.245c0.269,0.141,0.501,0.348,0.682,0.59s0.319,0.513,0.427,0.793
				c0.214,0.561,0.324,1.153,0.401,1.743C20.952,20.347,20.989,20.941,21.014,21.534z M20.802,21.539
				c-0.01-0.59-0.033-1.179-0.093-1.765c-0.062-0.584-0.154-1.168-0.35-1.719c-0.099-0.274-0.223-0.541-0.395-0.774
				c-0.17-0.234-0.387-0.434-0.641-0.571c-0.253-0.14-0.539-0.214-0.829-0.24c-0.29-0.027-0.585-0.009-0.874,0.037
				c-0.578,0.095-1.149,0.264-1.67,0.523c-0.26,0.131-0.504,0.291-0.723,0.481c-0.218,0.189-0.405,0.413-0.553,0.662
				c-0.298,0.498-0.427,1.084-0.457,1.667c-0.017,0.293-0.009,0.587,0.014,0.881c0.022,0.293,0.055,0.587,0.101,0.878
				c0.045,0.291,0.097,0.582,0.154,0.873c0.053,0.291,0.119,0.575,0.206,0.855c0.172,0.56,0.409,1.098,0.709,1.595
				c0.303,0.495,0.662,0.958,1.1,1.324c0.219,0.181,0.455,0.341,0.707,0.46s0.522,0.193,0.794,0.21
				c0.137,0.009,0.271,0.002,0.409-0.021c0.139-0.021,0.277-0.051,0.41-0.091c0.267-0.082,0.517-0.207,0.734-0.381
				c0.439-0.345,0.724-0.861,0.901-1.406c0.178-0.549,0.263-1.13,0.311-1.714C20.81,22.718,20.814,22.129,20.802,21.539z"/>
		</g>
	</g>
	<g>
		<path d="M21.732,21.411c0.142,2.835-0.312,4.98-2.571,5.257c-1.668,0.205-3.44-1.65-3.895-4.153
			c-0.509-2.794-0.686-5.208,2.493-6.04C20.938,15.643,21.526,17.313,21.732,21.411z"/>
		<path d="M18.902,26.74c-1.635,0-3.254-1.817-3.691-4.214c-0.517-2.841-0.684-5.262,2.534-6.104
			c1.247-0.326,2.107-0.273,2.708,0.167c0.945,0.692,1.211,2.357,1.336,4.82l0,0c0.081,1.617-0.043,2.763-0.389,3.611
			c-0.413,1.012-1.144,1.57-2.231,1.704C19.078,26.735,18.989,26.74,18.902,26.74z M19.143,16.323c-0.392,0-0.845,0.069-1.371,0.206
			c-3.124,0.818-2.959,3.191-2.453,5.976c0.45,2.469,2.169,4.31,3.833,4.107c1.913-0.234,2.691-1.838,2.522-5.199l0,0
			c-0.122-2.43-0.381-4.07-1.29-4.736C20.062,16.441,19.655,16.323,19.143,16.323z"/>
	</g>
	<g>
		<g>
			<path class="st7" d="M24.249,22.099c0.334,2.819,1.631,5.35,3.898,5.135c1.762-0.167,2.875-2.594,2.818-5.2
				c-0.059-2.717-0.523-5.227-3.811-5.309C23.866,16.644,23.737,17.785,24.249,22.099z"/>
		</g>
		<g>
			<path d="M24.345,22.088c0.076,0.587,0.194,1.169,0.363,1.733c0.17,0.563,0.391,1.114,0.69,1.615
				c0.297,0.5,0.677,0.955,1.153,1.263c0.475,0.31,1.048,0.441,1.608,0.376c0.274-0.03,0.538-0.123,0.777-0.267
				c0.239-0.143,0.451-0.333,0.64-0.546c0.374-0.431,0.642-0.958,0.836-1.506c0.194-0.55,0.313-1.128,0.373-1.712
				c0.031-0.292,0.047-0.586,0.048-0.879c-0.001-0.295-0.009-0.593-0.022-0.888c-0.03-0.592-0.09-1.181-0.226-1.752
				c-0.136-0.569-0.357-1.124-0.72-1.578c-0.18-0.226-0.396-0.425-0.638-0.585c-0.242-0.162-0.51-0.281-0.788-0.369
				c-0.279-0.089-0.57-0.142-0.862-0.172c-0.293-0.03-0.59-0.035-0.887-0.034c-0.296,0.003-0.593,0.018-0.884,0.061
				c-0.29,0.044-0.579,0.118-0.834,0.255c-0.255,0.136-0.467,0.344-0.601,0.6c-0.136,0.255-0.202,0.545-0.239,0.835
				c-0.07,0.585-0.034,1.182,0.014,1.773C24.196,20.905,24.27,21.497,24.345,22.088z M24.152,22.111
				c-0.064-0.594-0.124-1.189-0.164-1.787c-0.036-0.597-0.061-1.2,0.02-1.802c0.042-0.299,0.118-0.6,0.263-0.873
				c0.142-0.274,0.375-0.502,0.647-0.645c0.272-0.146,0.571-0.221,0.869-0.271c0.298-0.048,0.6-0.067,0.9-0.073
				c0.3-0.005,0.601-0.003,0.902,0.023c0.301,0.028,0.601,0.079,0.892,0.169c0.291,0.087,0.574,0.212,0.833,0.377
				c0.259,0.164,0.493,0.37,0.688,0.607c0.395,0.475,0.636,1.053,0.788,1.638c0.153,0.588,0.225,1.19,0.267,1.79
				c0.02,0.301,0.034,0.599,0.04,0.901c0.005,0.303-0.006,0.606-0.032,0.909c-0.056,0.604-0.175,1.205-0.372,1.782
				c-0.199,0.576-0.475,1.137-0.88,1.614c-0.203,0.237-0.441,0.451-0.716,0.612c-0.273,0.162-0.585,0.272-0.905,0.306
				c-0.314,0.033-0.634,0.017-0.942-0.058c-0.309-0.074-0.601-0.21-0.862-0.383c-0.524-0.351-0.918-0.848-1.219-1.376
				c-0.303-0.532-0.519-1.102-0.682-1.684C24.325,23.304,24.218,22.708,24.152,22.111z"/>
		</g>
	</g>
	<g>
		<g>
			<path d="M25.091,21.753c0.391,2.812,1.772,5.85,3.876,4.98c1.244-0.515,2.763-2.392,2.843-4.933
				c0.113-3.586-0.523-5.227-3.811-5.309C24.711,16.408,24.511,17.578,25.091,21.753z"/>
		</g>
		<g>
			<path d="M25.196,21.738c0.085,0.581,0.209,1.156,0.375,1.716c0.167,0.561,0.375,1.11,0.646,1.623
				c0.136,0.255,0.289,0.502,0.463,0.728c0.175,0.226,0.373,0.433,0.599,0.595c0.225,0.162,0.479,0.279,0.745,0.317
				c0.265,0.039,0.539-0.001,0.796-0.095c0.259-0.095,0.501-0.245,0.727-0.415c0.228-0.17,0.436-0.367,0.628-0.579
				c0.194-0.212,0.371-0.441,0.53-0.68c0.159-0.241,0.299-0.495,0.425-0.756c0.251-0.523,0.428-1.083,0.525-1.658
				c0.051-0.288,0.076-0.578,0.086-0.873c0.011-0.295,0.019-0.589,0.017-0.884c0-0.295-0.015-0.589-0.039-0.882
				c-0.027-0.293-0.064-0.585-0.13-0.87c-0.065-0.286-0.153-0.566-0.277-0.828c-0.125-0.262-0.287-0.506-0.489-0.711
				s-0.439-0.375-0.699-0.501c-0.26-0.127-0.538-0.216-0.821-0.282c-0.57-0.128-1.16-0.164-1.749-0.165
				c-0.294,0.001-0.588,0.014-0.879,0.057c-0.289,0.044-0.577,0.112-0.835,0.243c-0.259,0.129-0.48,0.326-0.625,0.573
				c-0.148,0.247-0.223,0.532-0.264,0.819c-0.041,0.288-0.048,0.582-0.042,0.875c0.007,0.294,0.028,0.587,0.057,0.88
				C25.024,20.57,25.108,21.154,25.196,21.738z M24.986,21.768c-0.073-0.587-0.142-1.177-0.185-1.77
				c-0.021-0.296-0.035-0.594-0.035-0.892c0.001-0.298,0.015-0.598,0.065-0.895c0.051-0.296,0.136-0.592,0.296-0.853
				c0.159-0.262,0.4-0.469,0.673-0.6c0.273-0.13,0.568-0.205,0.862-0.25c0.296-0.043,0.593-0.063,0.89-0.071
				c0.593-0.012,1.193,0.007,1.779,0.134c0.293,0.063,0.582,0.156,0.853,0.291c0.271,0.134,0.523,0.312,0.733,0.532
				s0.375,0.479,0.501,0.752c0.125,0.274,0.212,0.563,0.276,0.854c0.127,0.585,0.167,1.18,0.185,1.773
				c0.009,0.297,0.01,0.594,0.007,0.89c-0.004,0.297-0.018,0.597-0.056,0.895c-0.073,0.595-0.23,1.182-0.466,1.738
				c-0.235,0.557-0.558,1.076-0.956,1.539c-0.403,0.453-0.884,0.861-1.482,1.082c-0.297,0.107-0.629,0.15-0.948,0.097
				c-0.32-0.051-0.617-0.195-0.868-0.382c-0.251-0.189-0.463-0.417-0.646-0.66c-0.184-0.244-0.341-0.505-0.478-0.773
				c-0.276-0.537-0.481-1.102-0.643-1.678C25.182,22.945,25.065,22.359,24.986,21.768z"/>
		</g>
	</g>
	<g>
		<g>
			<path class="st8" d="M11.426,22.045c1.093-1.96,4.764-7.087,9.835-4.007c0.295-4.033-5.594-4.983-8.568-1.224
				c1.136,0.108,1.256,0.244,1.256,0.244S11.858,17.52,11.426,22.045z"/>
		</g>
		<g>
			<g>
				<path d="M11.445,21.984c-0.001-0.016-0.007-0.033-0.014-0.043c-0.007-0.01-0.013-0.014-0.012-0.019
					c-0.001-0.001,0.011-0.022,0.017-0.034l0.022-0.041l0.092-0.167c0.062-0.111,0.127-0.219,0.192-0.326
					c0.132-0.215,0.27-0.427,0.413-0.635c0.287-0.417,0.602-0.815,0.94-1.193c0.676-0.755,1.459-1.432,2.367-1.915
					c0.453-0.24,0.937-0.43,1.44-0.547c0.503-0.115,1.024-0.161,1.539-0.12c0.515,0.036,1.022,0.156,1.5,0.336
					c0.479,0.18,0.931,0.423,1.351,0.704l0,0l-0.097,0.051c0.013-0.469-0.045-0.94-0.218-1.366
					c-0.085-0.213-0.192-0.417-0.322-0.604c-0.13-0.187-0.285-0.357-0.455-0.509c-0.341-0.304-0.748-0.53-1.18-0.683
					c-0.434-0.151-0.891-0.236-1.354-0.254c-0.925-0.038-1.857,0.162-2.701,0.553c-0.846,0.389-1.605,0.971-2.224,1.685
					l-0.045-0.104c0.215,0.008,0.431,0.019,0.649,0.039c0.109,0.011,0.217,0.023,0.328,0.041c0.055,0.009,0.111,0.021,0.168,0.035
					c0.028,0.008,0.057,0.015,0.088,0.027c0.015,0.005,0.031,0.012,0.048,0.019c0.009,0.005,0.017,0.008,0.028,0.015
					c0.013,0.009,0.015,0.004,0.049,0.037l0.001,0.001l0.161,0.177L13.978,17.2c-0.038,0.009-0.097,0.03-0.146,0.051
					c-0.052,0.022-0.103,0.047-0.153,0.073c-0.101,0.055-0.197,0.119-0.289,0.189c-0.186,0.14-0.352,0.309-0.503,0.49
					c-0.301,0.365-0.539,0.786-0.725,1.231c-0.187,0.443-0.33,0.908-0.437,1.381c-0.054,0.236-0.099,0.475-0.138,0.715l-0.055,0.352
					c-0.007,0.049-0.019,0.093-0.036,0.141C11.48,21.869,11.46,21.925,11.445,21.984z M11.406,22.107
					c-0.002-0.063-0.009-0.129-0.013-0.202c-0.005-0.073-0.003-0.151,0.003-0.223l0.005-0.055l0.006-0.046l0.011-0.091l0.023-0.182
					c0.033-0.244,0.073-0.486,0.121-0.728c0.095-0.484,0.228-0.961,0.409-1.424c0.18-0.462,0.414-0.909,0.725-1.307
					c0.156-0.197,0.33-0.385,0.531-0.544c0.1-0.081,0.205-0.156,0.318-0.22c0.057-0.032,0.114-0.063,0.175-0.09
					c0.063-0.028,0.118-0.052,0.198-0.073l-0.077,0.233l0.001,0.001c0.024,0.023,0.014,0.012,0.016,0.014
					c-0.001-0.001-0.005-0.003-0.007-0.005c-0.007-0.004-0.015-0.009-0.026-0.014c-0.019-0.01-0.041-0.019-0.063-0.028
					c-0.046-0.017-0.094-0.034-0.143-0.048c-0.099-0.03-0.202-0.055-0.304-0.078c-0.206-0.046-0.417-0.082-0.628-0.117l-0.107-0.017
					l0.063-0.087c0.565-0.78,1.322-1.437,2.198-1.87c0.874-0.435,1.859-0.662,2.843-0.615c0.491,0.023,0.982,0.113,1.444,0.288
					c0.463,0.172,0.902,0.427,1.262,0.771c0.363,0.341,0.641,0.774,0.796,1.243c0.156,0.47,0.195,0.969,0.138,1.45l-0.012,0.1
					l-0.086-0.049l0,0c-0.874-0.477-1.825-0.813-2.803-0.862c-0.975-0.056-1.955,0.184-2.822,0.644
					c-0.435,0.226-0.848,0.501-1.234,0.809c-0.387,0.308-0.751,0.645-1.093,1.008c-0.342,0.361-0.657,0.747-0.959,1.144
					c-0.15,0.199-0.295,0.403-0.434,0.61c-0.07,0.103-0.138,0.207-0.205,0.313l-0.1,0.158l-0.055,0.087
					c-0.015,0.022-0.036,0.046-0.058,0.063C11.444,22.085,11.422,22.096,11.406,22.107z"/>
			</g>
		</g>
	</g>
	<g>
		<g>
			<path class="st8" d="M33.843,22.337c-1.011-2.004-4.466-7.278-9.661-4.411c-0.127-4.042,5.797-4.747,8.611-0.868
				c-1.14,0.061-1.265,0.192-1.265,0.192S33.599,17.799,33.843,22.337z"/>
		</g>
		<g>
			<g>
				<path d="M33.859,22.4c-0.015-0.011-0.036-0.023-0.058-0.041s-0.042-0.043-0.056-0.065l-0.051-0.09l-0.093-0.162
					c-0.063-0.108-0.127-0.215-0.192-0.322c-0.13-0.212-0.267-0.422-0.408-0.627c-0.286-0.409-0.584-0.808-0.911-1.183
					c-0.325-0.375-0.676-0.728-1.05-1.052c-0.373-0.325-0.774-0.615-1.199-0.86c-0.848-0.495-1.816-0.775-2.793-0.76
					c-0.979,0.009-1.944,0.305-2.837,0.745l0,0l-0.087,0.046l-0.007-0.101c-0.036-0.483,0.024-0.981,0.199-1.444
					s0.469-0.884,0.846-1.209c0.374-0.33,0.824-0.566,1.293-0.719c0.47-0.155,0.964-0.224,1.456-0.226
					c0.984-0.006,1.959,0.262,2.814,0.733c0.858,0.468,1.587,1.156,2.119,1.958l0.06,0.089l-0.108,0.013
					c-0.212,0.026-0.424,0.053-0.633,0.09c-0.104,0.019-0.207,0.039-0.307,0.065c-0.049,0.013-0.099,0.027-0.145,0.043
					c-0.022,0.009-0.045,0.016-0.064,0.026c-0.01,0.004-0.018,0.009-0.026,0.013c-0.002,0.002-0.007,0.004-0.007,0.005
					c0.002-0.002-0.009,0.01,0.016-0.013l0.001-0.001l-0.068-0.236c0.079,0.026,0.133,0.051,0.195,0.081
					c0.06,0.03,0.115,0.063,0.171,0.097c0.11,0.07,0.212,0.149,0.309,0.234c0.194,0.168,0.36,0.362,0.508,0.566
					c0.294,0.41,0.51,0.867,0.67,1.336c0.162,0.469,0.273,0.953,0.349,1.44c0.038,0.244,0.069,0.488,0.091,0.733l0.015,0.184
					l0.007,0.092l0.004,0.046l0.003,0.055c0.003,0.073,0.001,0.15-0.006,0.223C33.874,22.273,33.865,22.337,33.859,22.4z
					 M33.826,22.276c-0.013-0.06-0.03-0.115-0.046-0.164c-0.016-0.049-0.026-0.093-0.031-0.142l-0.038-0.354
					c-0.03-0.241-0.065-0.481-0.11-0.72c-0.087-0.477-0.21-0.947-0.379-1.397c-0.168-0.451-0.387-0.882-0.674-1.259
					c-0.144-0.187-0.303-0.363-0.483-0.511c-0.089-0.074-0.182-0.143-0.281-0.202c-0.049-0.028-0.099-0.057-0.149-0.08
					c-0.048-0.023-0.107-0.046-0.144-0.057l-0.235-0.065l0.168-0.17l0.001-0.001c0.036-0.031,0.036-0.027,0.051-0.036
					c0.011-0.006,0.019-0.009,0.028-0.013c0.017-0.007,0.034-0.013,0.049-0.017c0.031-0.01,0.061-0.016,0.089-0.022
					c0.057-0.012,0.113-0.021,0.169-0.028c0.111-0.015,0.22-0.022,0.329-0.028c0.218-0.012,0.434-0.014,0.65-0.013l-0.049,0.102
					c-0.588-0.739-1.322-1.351-2.152-1.776c-0.828-0.425-1.751-0.664-2.676-0.664c-0.462-0.001-0.923,0.065-1.363,0.198
					c-0.438,0.135-0.855,0.343-1.207,0.633c-0.176,0.145-0.336,0.309-0.475,0.49c-0.138,0.181-0.254,0.381-0.347,0.59
					c-0.189,0.421-0.268,0.888-0.274,1.357l-0.095-0.055l0,0c0.433-0.263,0.893-0.488,1.38-0.647
					c0.486-0.159,0.997-0.259,1.512-0.273c0.516-0.019,1.035,0.048,1.533,0.184c0.498,0.138,0.973,0.348,1.416,0.607
					c0.887,0.521,1.641,1.229,2.286,2.012c0.322,0.392,0.621,0.802,0.891,1.231c0.135,0.213,0.263,0.432,0.387,0.652
					c0.061,0.111,0.122,0.221,0.178,0.334l0.085,0.17l0.021,0.043c0.006,0.012,0.017,0.034,0.016,0.035
					c0.001,0.005-0.005,0.009-0.013,0.018C33.833,22.243,33.827,22.259,33.826,22.276z"/>
			</g>
		</g>
	</g>
	<g>
		
			<ellipse transform="matrix(0.0207 -0.9998 0.9998 0.0207 -0.307 38.6143)" class="st7" cx="19.558" cy="19.464" rx="1.393" ry="0.976"/>
		<path d="M19.541,20.939c-0.005,0-0.011,0-0.016,0c-0.581-0.012-1.04-0.682-1.023-1.491c0.016-0.811,0.501-1.46,1.084-1.448
			c0.581,0.012,1.04,0.682,1.023,1.491C20.592,20.294,20.114,20.939,19.541,20.939z M19.57,18.152c-0.491,0-0.899,0.578-0.914,1.298
			c-0.015,0.726,0.376,1.325,0.873,1.335c0.004,0,0.009,0,0.013,0c0.491,0,0.899-0.578,0.914-1.298
			c0.015-0.726-0.376-1.325-0.873-1.335C19.579,18.152,19.574,18.152,19.57,18.152z"/>
	</g>
	<g>
		
			<ellipse transform="matrix(0.0207 -0.9998 0.9998 0.0207 -3.8273 39.9157)" class="st7" cx="18.462" cy="21.911" rx="0.696" ry="0.488"/>
		<path d="M18.453,22.652c-0.003,0-0.005,0-0.008,0c-0.29-0.006-0.52-0.341-0.511-0.746c0.004-0.194,0.061-0.375,0.161-0.511
			c0.103-0.14,0.242-0.214,0.381-0.212c0.291,0.006,0.52,0.341,0.511,0.746C18.978,22.329,18.739,22.652,18.453,22.652z
			 M18.467,21.258c-0.115,0-0.226,0.064-0.311,0.181c-0.09,0.123-0.142,0.289-0.146,0.468c-0.007,0.363,0.188,0.662,0.437,0.668
			c0.002,0,0.005,0,0.007,0c0.245,0,0.45-0.289,0.458-0.649l0,0c0.007-0.363-0.188-0.662-0.437-0.668
			C18.472,21.258,18.47,21.258,18.467,21.258z"/>
	</g>
	<g>
		
			<ellipse transform="matrix(0.0207 -0.9998 0.9998 0.0207 9.0933 48.2117)" class="st7" cx="29.157" cy="19.464" rx="1.393" ry="0.976"/>
		<path d="M29.141,20.939c-0.005,0-0.011,0-0.016,0c-0.581-0.012-1.04-0.682-1.023-1.491c0.008-0.388,0.122-0.751,0.321-1.023
			c0.205-0.28,0.48-0.431,0.763-0.425c0.581,0.012,1.04,0.682,1.023,1.491l0,0C30.191,20.294,29.714,20.939,29.141,20.939z
			 M29.169,18.152c-0.23,0-0.451,0.128-0.622,0.362c-0.18,0.247-0.284,0.579-0.292,0.935c-0.015,0.726,0.376,1.325,0.873,1.335
			c0.004,0,0.009,0,0.013,0c0.491,0,0.899-0.578,0.914-1.298c0.015-0.726-0.376-1.325-0.873-1.335
			C29.178,18.152,29.174,18.152,29.169,18.152z"/>
	</g>
	<g>
		
			<ellipse transform="matrix(0.0207 -0.9998 0.9998 0.0207 5.5736 49.5105)" class="st7" cx="28.06" cy="21.91" rx="0.696" ry="0.488"/>
		<path d="M28.052,22.652c-0.003,0-0.005,0-0.008,0c-0.29-0.006-0.52-0.341-0.511-0.746c0.004-0.194,0.061-0.375,0.161-0.511
			c0.103-0.141,0.242-0.214,0.381-0.212c0.29,0.006,0.52,0.341,0.511,0.746c-0.004,0.194-0.061,0.375-0.161,0.511
			C28.325,22.576,28.193,22.652,28.052,22.652z M28.067,21.258c-0.115,0-0.226,0.064-0.311,0.181
			c-0.09,0.123-0.142,0.289-0.146,0.468c-0.007,0.363,0.188,0.662,0.437,0.668c0.118,0.001,0.23-0.062,0.318-0.18
			c0.09-0.123,0.142-0.289,0.146-0.468l0,0c0.007-0.363-0.188-0.662-0.437-0.668C28.071,21.258,28.069,21.258,28.067,21.258z"/>
	</g>
	<g>
		<path class="st9" d="M22.649,31.031c-0.177,0.005-0.354,0.015-0.527,0.021c-0.445,0.015-0.588,0.154-1.147,0.381
			c-0.273,0.111-0.569,0.228-0.713,0.486c-0.459-0.177-0.707-0.634-1.062-0.956c-0.545-0.493-0.55-1.099-0.673-1.394
			c-0.17-0.409,0.11-0.081,0.17-0.477c0.007-0.048,0.019-0.102,0.061-0.127c0.028-0.017,0.064-0.015,0.097-0.011
			c0.493,0.059,0.841,0.492,1.256,0.766c0.135,0.089,0.341-0.084,0.49-0.023c0.16,0.064,0.311-0.091,0.449-0.006
			c0.301,0.186,0.748,0.189,1.09,0.2c0.425,0.015,0.849,0.006,1.272-0.024c0.352-0.026,0.488,0.069,0.79-0.105l1.663-0.751
			c0.181-0.105,0.423-0.114,0.581,0.023c0.001,0.001,0.002,0.002,0.003,0.003c0.033,0.031,0.039,0.082,0.042,0.128
			c0.026,0.513-0.156,1.033-0.495,1.418c-0.219,0.249-0.366,0.526-0.513,0.819c-0.09,0.18-0.418,0.471-0.618,0.309
			c-0.355-0.288-0.766-0.46-1.211-0.587C23.329,31.031,22.988,31.022,22.649,31.031z"/>
	</g>
	<g>
		<path class="st10" d="M22.667,32.573c-0.338-0.016-0.674-0.059-1.004-0.129c-0.317-0.067-0.611-0.179-0.92-0.27
			c-0.197-0.058-0.646-0.145-0.339-0.409c0.232-0.199,0.513-0.341,0.796-0.452c0.296-0.117,0.561-0.133,0.865-0.201
			c0.4-0.089,0.727-0.124,1.13-0.056c0.384,0.065,0.707,0.206,1.076,0.331c0.215,0.073,0.446,0.151,0.579,0.348
			c0.102,0.151-1.107,0.766-1.219,0.793c-0.105,0.027-0.212,0.035-0.319,0.041C23.097,32.583,22.882,32.583,22.667,32.573z"/>
	</g>
	<g>
		<path d="M18.545,29.178c0.122,0.441,0.309,0.856,0.568,1.221c0.255,0.367,0.576,0.684,0.936,0.943
			c0.362,0.257,0.763,0.461,1.186,0.6c0.422,0.141,0.865,0.225,1.308,0.24c0.444,0.019,0.891-0.027,1.317-0.146
			c0.429-0.113,0.833-0.308,1.191-0.567c0.358-0.262,0.666-0.594,0.902-0.978c0.241-0.383,0.405-0.815,0.527-1.264l0.075,0.013
			c-0.047,0.469-0.172,0.937-0.386,1.37c-0.215,0.432-0.522,0.826-0.901,1.137c-0.376,0.316-0.824,0.542-1.291,0.691
			c-0.469,0.144-0.962,0.205-1.45,0.19c-0.976-0.034-1.947-0.36-2.721-0.964c-0.387-0.3-0.72-0.671-0.969-1.09
			c-0.248-0.419-0.413-0.886-0.477-1.361L18.545,29.178z"/>
	</g>
	<g>
		<path d="M20.253,31.917c0.264-0.343,0.641-0.599,1.046-0.766c0.103-0.038,0.206-0.076,0.311-0.11l0.319-0.081l0.325-0.048
			c0.11-0.007,0.219-0.016,0.328-0.021c0.438-0.007,0.878,0.055,1.292,0.198c0.412,0.141,0.805,0.361,1.106,0.671l-0.038,0.046
			c-0.355-0.226-0.741-0.381-1.138-0.481c-0.398-0.097-0.807-0.142-1.215-0.132c-0.102,0.008-0.204,0.011-0.305,0.016l-0.303,0.039
			l-0.3,0.057c-0.098,0.026-0.196,0.056-0.295,0.081c-0.389,0.123-0.76,0.307-1.094,0.566L20.253,31.917z"/>
	</g>
	<g>
		<g>
			<path class="st11" d="M28.435,24.846c-3.226,0.031-4.964,1.1-6.008,1.109c-1.044,0.01-2.803-1.023-6.028-0.992
				c-3.226,0.031-3.623,2.359-7.644,3.115c4.821,3.084,7.534-0.133,9.698,1.119c2.163,1.252,5.872,1.216,8.011-0.078
				s6.179,3.341,9.994-0.883C32.224,27.797,31.66,24.814,28.435,24.846z"/>
		</g>
		<g>
			<path d="M28.435,24.975c-0.852,0.019-1.701,0.12-2.529,0.308c-0.413,0.093-0.825,0.204-1.231,0.327
				c-0.408,0.125-0.811,0.262-1.23,0.387c-0.21,0.062-0.425,0.119-0.652,0.158c-0.114,0.019-0.232,0.033-0.355,0.036
				c-0.123,0.001-0.242-0.011-0.358-0.027c-0.456-0.073-0.867-0.205-1.28-0.321c-0.821-0.241-1.643-0.442-2.484-0.553
				c-0.419-0.057-0.842-0.093-1.265-0.111c-0.212-0.009-0.424-0.012-0.636-0.012l-0.313,0.009c-0.103,0.009-0.207,0.013-0.31,0.026
				c-0.411,0.046-0.817,0.132-1.203,0.282c-0.388,0.145-0.756,0.346-1.116,0.57c-0.36,0.224-0.715,0.467-1.082,0.699
				c-0.366,0.233-0.746,0.449-1.139,0.636c-0.788,0.375-1.632,0.622-2.485,0.759l0,0l0.026-0.128
				c0.517,0.311,1.056,0.584,1.616,0.799c0.56,0.214,1.141,0.365,1.732,0.435c0.59,0.076,1.188,0.07,1.78-0.001
				c0.593-0.069,1.178-0.201,1.772-0.333c0.593-0.127,1.208-0.27,1.862-0.212c0.325,0.03,0.652,0.122,0.944,0.28l0.2,0.107
				c0.063,0.036,0.13,0.065,0.196,0.098c0.065,0.033,0.133,0.061,0.2,0.09c0.067,0.03,0.135,0.057,0.204,0.083
				c0.547,0.212,1.126,0.354,1.713,0.435c0.587,0.084,1.183,0.107,1.776,0.085c0.594-0.023,1.185-0.102,1.761-0.238
				c0.574-0.141,1.137-0.333,1.649-0.613l0.196-0.111c0.074-0.043,0.153-0.079,0.232-0.11c0.16-0.062,0.327-0.099,0.493-0.117
				c0.333-0.035,0.656,0.002,0.964,0.065c0.617,0.128,1.191,0.341,1.765,0.532c0.574,0.194,1.145,0.376,1.73,0.491
				c0.584,0.117,1.179,0.159,1.765,0.089c0.585-0.07,1.156-0.263,1.669-0.563c0.515-0.298,0.976-0.688,1.391-1.124l0,0l0.045,0.117
				c-0.37-0.041-0.738-0.099-1.102-0.184c-0.362-0.088-0.719-0.202-1.065-0.341c-0.694-0.276-1.336-0.671-1.938-1.104
				c-0.603-0.43-1.182-0.893-1.829-1.222c-0.322-0.165-0.661-0.294-1.01-0.374C29.156,25,28.796,24.969,28.435,24.975z
				 M28.433,24.717c0.379,0.001,0.759,0.042,1.128,0.133c0.369,0.092,0.723,0.236,1.055,0.413c0.668,0.355,1.237,0.838,1.832,1.27
				c0.592,0.437,1.213,0.831,1.89,1.109c0.338,0.138,0.687,0.251,1.043,0.338c0.356,0.085,0.719,0.143,1.083,0.185l0.14,0.016
				l-0.094,0.101l0,0c-0.401,0.462-0.859,0.885-1.386,1.211c-0.525,0.329-1.122,0.554-1.74,0.649
				c-0.619,0.097-1.251,0.06-1.859-0.049c-0.61-0.107-1.201-0.283-1.781-0.467c-0.58-0.18-1.153-0.379-1.73-0.486
				c-0.287-0.052-0.575-0.081-0.847-0.048c-0.136,0.016-0.267,0.047-0.391,0.096c-0.062,0.024-0.121,0.053-0.178,0.087l-0.2,0.115
				c-0.55,0.308-1.143,0.524-1.747,0.672c-0.605,0.146-1.223,0.229-1.843,0.257s-1.242-0.002-1.857-0.092
				c-0.615-0.089-1.224-0.238-1.807-0.469c-0.073-0.028-0.146-0.058-0.217-0.091c-0.071-0.032-0.144-0.063-0.214-0.1
				c-0.07-0.036-0.142-0.069-0.21-0.109l-0.2-0.111c-0.241-0.134-0.509-0.213-0.788-0.242c-0.28-0.03-0.57-0.013-0.862,0.023
				c-0.293,0.036-0.587,0.092-0.884,0.15c-0.593,0.119-1.197,0.242-1.814,0.298c-0.615,0.058-1.241,0.053-1.854-0.043
				c-0.612-0.095-1.209-0.274-1.775-0.515c-0.568-0.239-1.102-0.542-1.609-0.884l-0.145-0.097l0.17-0.03l0,0
				c0.835-0.182,1.648-0.453,2.398-0.848c0.375-0.197,0.734-0.422,1.09-0.66c0.354-0.238,0.701-0.491,1.066-0.73
				c0.363-0.239,0.747-0.463,1.16-0.63c0.411-0.172,0.851-0.281,1.293-0.336c0.111-0.015,0.221-0.021,0.333-0.031l0.333-0.013
				c0.218-0.002,0.436-0.001,0.654,0.006c0.436,0.014,0.871,0.046,1.305,0.101c0.867,0.105,1.723,0.305,2.552,0.539
				c0.413,0.112,0.828,0.238,1.222,0.296c0.198,0.027,0.372,0.024,0.571-0.009c0.196-0.032,0.397-0.086,0.601-0.142
				c0.815-0.236,1.661-0.48,2.519-0.622C26.696,24.783,27.566,24.717,28.433,24.717z"/>
		</g>
	</g>
	<g class="st0">
		<path class="st1" d="M24.114,18.03c0.717-0.196,5.935-1.7,9.349,5.078c0.012-1.531-0.11-1.718-0.801-2.568
			c-0.692-0.85-1.483-2.161-2.929-2.775c-1.446-0.614-2.573-0.786-3.614-0.57C24.683,17.494,24.114,18.03,24.114,18.03z"/>
	</g>
	<g class="st0">
		<path class="st1" d="M21.261,18.038c-1.023-0.608-5.845-1.551-9.568,5.457c-0.041-1.394,0.016-2.049,0.581-2.77
			c0.564-0.72,1.637-2.105,3.321-3.018c1.106-0.601,1.887-0.795,3.153-0.59C20.016,17.321,21.261,18.038,21.261,18.038z"/>
	</g>
	<g class="st0">
		<path class="st1" d="M12.375,29.884c0.051,0.516,1.501,0.149,1.879,0.133c0.624-0.027,1.252-0.077,1.864-0.204
			c1.384-0.287,1.816-0.192,2.58,0.16c-0.172-0.404-0.001-0.883-0.001-0.883s-0.81-0.322-1.726-0.189
			c-0.917,0.133-1.862,0.612-2.837,0.553c-0.339-0.021-1.507-0.009-1.913-0.039C12.217,29.439,12.373,29.863,12.375,29.884z"/>
	</g>
	<g class="st0">
		<path class="st1" d="M26.412,29.814c0.841-0.228,1.249-0.513,1.886-0.154c1.221,0.688,3.785,1.205,4.099,1.218
			c0.314,0.014,0.267-0.734,0.267-0.734s-1.09-0.112-2.401-0.534s-2.578-0.823-3.057-0.721c-0.478,0.101-0.745,0.228-0.745,0.228
			S26.536,29.557,26.412,29.814z"/>
	</g>
	<g class="st0">
		<path class="st1" d="M20.932,31.957c0.273-0.298,3.029-0.373,3.6-0.049c0.373-0.124,0.373-0.124,0.373-0.124
			s-0.347-0.496-1.466-0.596c-1.118-0.099-2.049-0.061-3.036,0.578C20.585,31.933,20.932,31.957,20.932,31.957z"/>
	</g>
	<g>
		<g>
			<path class="st2" d="M20.525,34.814c0.784,1.007-2.775,3.476-4.406,2.801c-1.375-0.57-4.993-2.793-6.385-4.68
				c-1.714-2.321,5.28-8.889,6.512-6.031C17.8,30.513,18.633,32.384,20.525,34.814z"/>
		</g>
		<g>
			<path d="M20.728,34.655c0.081,0.101,0.138,0.229,0.16,0.359s0.011,0.255-0.015,0.366c-0.053,0.224-0.156,0.404-0.265,0.569
				c-0.225,0.325-0.495,0.588-0.782,0.828c-0.287,0.238-0.594,0.446-0.918,0.628c-0.323,0.182-0.662,0.339-1.022,0.456
				c-0.359,0.117-0.738,0.199-1.143,0.195c-0.202-0.003-0.41-0.028-0.617-0.097c-0.051-0.015-0.106-0.038-0.15-0.057l-0.128-0.056
				c-0.084-0.039-0.167-0.078-0.248-0.119c-0.651-0.322-1.264-0.69-1.865-1.076c-0.601-0.387-1.185-0.799-1.749-1.238
				c-0.564-0.439-1.112-0.903-1.619-1.416c-0.253-0.258-0.496-0.527-0.717-0.819l-0.082-0.11c-0.028-0.039-0.057-0.084-0.084-0.127
				c-0.052-0.089-0.094-0.182-0.127-0.278c-0.066-0.192-0.093-0.393-0.093-0.587c0.001-0.391,0.101-0.757,0.232-1.1
				c0.133-0.344,0.304-0.666,0.495-0.973c0.38-0.615,0.835-1.173,1.335-1.687c0.499-0.514,1.042-0.985,1.637-1.389
				c0.298-0.201,0.608-0.385,0.937-0.539c0.328-0.152,0.678-0.278,1.053-0.319c0.187-0.02,0.383-0.018,0.575,0.03
				c0.192,0.046,0.379,0.141,0.526,0.279c0.148,0.136,0.255,0.309,0.331,0.483l0.215,0.484c0.288,0.645,0.576,1.29,0.873,1.929
				c0.3,0.637,0.61,1.269,0.942,1.887c0.333,0.617,0.688,1.22,1.074,1.803C19.876,33.545,20.292,34.108,20.728,34.655z
				 M20.321,34.972c-0.431-0.568-0.842-1.153-1.221-1.758c-0.381-0.604-0.728-1.229-1.047-1.866
				c-0.319-0.636-0.614-1.283-0.897-1.932c-0.286-0.649-0.56-1.3-0.834-1.952l-0.205-0.489c-0.062-0.152-0.146-0.285-0.256-0.389
				c-0.22-0.213-0.55-0.279-0.877-0.244c-0.328,0.036-0.656,0.151-0.966,0.295c-0.311,0.146-0.61,0.323-0.896,0.521
				c-0.571,0.396-1.098,0.86-1.577,1.365c-0.476,0.509-0.909,1.06-1.261,1.654c-0.173,0.298-0.326,0.608-0.439,0.926
				c-0.114,0.319-0.19,0.649-0.182,0.969c0.004,0.159,0.03,0.313,0.084,0.453c0.027,0.07,0.06,0.137,0.099,0.2
				c0.02,0.031,0.039,0.061,0.064,0.092l0.079,0.1c0.213,0.265,0.452,0.515,0.702,0.753c0.503,0.476,1.05,0.911,1.615,1.321
				c0.566,0.409,1.15,0.795,1.746,1.16c0.298,0.182,0.6,0.359,0.905,0.527c0.304,0.169,0.611,0.333,0.921,0.479
				c0.078,0.037,0.155,0.071,0.232,0.106l0.115,0.049c0.038,0.015,0.064,0.026,0.098,0.035c0.13,0.04,0.276,0.057,0.427,0.057
				c0.303,0.001,0.625-0.069,0.937-0.167c0.626-0.202,1.236-0.523,1.77-0.925c0.264-0.202,0.515-0.428,0.699-0.679
				c0.091-0.125,0.167-0.258,0.198-0.377c0.016-0.061,0.021-0.114,0.015-0.159C20.363,35.05,20.349,35.012,20.321,34.972z"/>
		</g>
	</g>
	<g>
		<g>
			<path class="st2" d="M24.607,34.814c-0.784,1.007,2.775,3.476,4.406,2.801c1.375-0.57,4.993-2.793,6.385-4.68
				c1.714-2.321-5.28-8.889-6.512-6.031C27.332,30.513,26.498,32.384,24.607,34.814z"/>
		</g>
		<g>
			<path d="M24.81,34.972c-0.028,0.039-0.042,0.077-0.048,0.122c-0.006,0.045-0.002,0.099,0.015,0.159
				c0.031,0.12,0.107,0.253,0.198,0.377c0.185,0.252,0.435,0.478,0.699,0.679c0.534,0.402,1.144,0.723,1.77,0.925
				c0.313,0.098,0.633,0.167,0.937,0.167c0.151,0.001,0.297-0.016,0.427-0.057c0.035-0.01,0.061-0.021,0.098-0.035l0.115-0.049
				c0.078-0.035,0.154-0.069,0.232-0.106c0.31-0.146,0.617-0.311,0.921-0.479c0.305-0.169,0.607-0.345,0.904-0.527
				c0.595-0.366,1.18-0.75,1.746-1.16c0.565-0.41,1.112-0.844,1.615-1.321c0.251-0.238,0.489-0.488,0.702-0.753l0.079-0.1
				c0.024-0.031,0.045-0.061,0.064-0.092c0.039-0.063,0.072-0.13,0.099-0.2c0.053-0.141,0.079-0.295,0.084-0.453
				c0.009-0.318-0.067-0.649-0.179-0.968c-0.114-0.319-0.267-0.628-0.439-0.926c-0.352-0.594-0.785-1.145-1.261-1.654
				c-0.479-0.506-1.006-0.969-1.577-1.365c-0.286-0.197-0.584-0.375-0.896-0.521c-0.311-0.144-0.637-0.259-0.966-0.295
				c-0.327-0.036-0.656,0.03-0.877,0.244c-0.111,0.105-0.195,0.238-0.256,0.389l-0.205,0.489c-0.274,0.652-0.55,1.303-0.834,1.952
				s-0.578,1.296-0.897,1.932c-0.318,0.636-0.666,1.261-1.047,1.866C25.652,33.819,25.241,34.404,24.81,34.972z M24.403,34.655
				c0.437-0.547,0.852-1.11,1.239-1.692c0.387-0.582,0.742-1.185,1.074-1.803c0.333-0.617,0.643-1.25,0.942-1.887
				c0.297-0.64,0.586-1.284,0.873-1.929l0.215-0.484c0.076-0.172,0.182-0.346,0.331-0.483c0.147-0.138,0.334-0.232,0.526-0.279
				s0.388-0.049,0.575-0.03c0.375,0.042,0.725,0.167,1.053,0.319c0.328,0.154,0.64,0.339,0.937,0.539
				c0.594,0.403,1.138,0.875,1.637,1.389s0.955,1.072,1.335,1.687c0.19,0.307,0.361,0.629,0.495,0.973
				c0.131,0.343,0.23,0.71,0.232,1.1c0,0.194-0.027,0.395-0.093,0.587c-0.033,0.096-0.076,0.189-0.127,0.278
				c-0.026,0.044-0.055,0.088-0.084,0.127l-0.082,0.11c-0.22,0.293-0.464,0.562-0.717,0.819c-0.507,0.513-1.055,0.976-1.619,1.416
				c-0.565,0.439-1.148,0.851-1.749,1.238c-0.601,0.387-1.213,0.754-1.865,1.076c-0.081,0.04-0.165,0.079-0.248,0.119l-0.128,0.056
				c-0.044,0.018-0.1,0.042-0.15,0.057c-0.206,0.068-0.416,0.093-0.617,0.097c-0.404,0.003-0.784-0.079-1.143-0.195
				c-0.36-0.117-0.699-0.274-1.022-0.456c-0.323-0.182-0.63-0.389-0.918-0.628c-0.287-0.239-0.556-0.502-0.782-0.828
				c-0.11-0.164-0.212-0.345-0.265-0.569c-0.026-0.111-0.036-0.237-0.015-0.366C24.265,34.884,24.322,34.756,24.403,34.655z"/>
		</g>
	</g>
	<g class="st0">
		<path class="st1" d="M36.876,11.677c0.077,0.077,2.249,2.929,2.113,3.842c-0.192,1.288-3.611,5.359-3.611,5.359l-0.264,2.232
			l-0.581-0.618l0.019,1.979c0,0,1.959-3.419,2.305-3.9c0.346-0.481,4.591-4.629,4.591-4.629L36.876,11.677z"/>
	</g>
	<g class="st0">
		<path class="st1" d="M9.664,32.473c-0.507,0.761-1.015,2.739-1.582,2.87c-0.908,0.21-1.549-0.877-2.774-0.356
			c-1.224,0.521-3.11,0.988-3.459,0.963c0.524,0.24,0.891,0.244,1.028,0.27c0.138,0.026,2.125-0.374,3.16-0.452
			c0.534-0.04,2.638,0.561,2.638,0.561s0.385-0.827,0.662-1.162s1.202-1.367,1.202-1.367L9.664,32.473z"/>
	</g>
	<g class="st0">
		<path class="st1" d="M12.442,35.131c0.557,0.326,2.939,1.261,3.957,1.325c1.21,0.077,3.227-0.711,3.88-1.844
			c0,0,0.442,0.461,0.307,0.787c-0.134,0.326-0.826,1.307-1.48,1.633c-0.653,0.326-2.401,1.018-3.036,0.711
			C15.438,37.437,12.442,35.131,12.442,35.131z"/>
	</g>
	<g class="st0">
		<path class="st1" d="M32.785,35.055c-0.557,0.326-2.939,1.261-3.957,1.325c-1.21,0.077-3.227-0.711-3.88-1.844
			c0,0-0.442,0.461-0.307,0.787c0.134,0.326,0.826,1.307,1.48,1.633c0.653,0.326,2.401,1.018,3.036,0.711
			C29.789,37.359,32.785,35.055,32.785,35.055z"/>
	</g>
	<g>
		<g>
			<path class="st12" d="M33.178,8.308c0,0-0.097-2.628-0.16-3.888c-0.052-1.029-0.07-1.01,0.976-1.061
				c1.046-0.052,3.888-0.16,3.888-0.16l3.242,3.054l-4.634,5.07L33.178,8.308z"/>
		</g>
		<g>
			<path d="M33.136,8.327c-0.068-0.79-0.112-1.598-0.151-2.407c-0.022-0.404-0.034-0.81-0.051-1.215L32.908,4.1
				c-0.003-0.102-0.006-0.204,0.003-0.311c0.003-0.027,0.005-0.055,0.009-0.081l0.019-0.085c0.01-0.029,0.022-0.058,0.035-0.087
				c0.019-0.028,0.037-0.057,0.06-0.081c0.049-0.048,0.107-0.079,0.162-0.099c0.028-0.009,0.055-0.018,0.082-0.024l0.08-0.015
				c0.105-0.016,0.207-0.023,0.309-0.03c0.202-0.012,0.402-0.019,0.602-0.026l1.203-0.039c0.803-0.029,1.605-0.046,2.408-0.069l0,0
				l0.02-0.001l0.015,0.014l3.241,3.054l0.034,0.031l-0.031,0.032l-4.634,5.07l-0.031,0.035l-0.035-0.031L33.136,8.327z
				 M33.221,8.288l3.3,3l-0.066,0.003l4.635-5.07l0.002,0.065L37.85,3.232l0.034,0.013l0,0c-0.801,0.043-1.602,0.093-2.404,0.13
				l-1.202,0.06l-0.6,0.031c-0.099,0.007-0.197,0.015-0.29,0.03c-0.093,0.014-0.177,0.041-0.222,0.087
				c-0.045,0.043-0.064,0.129-0.069,0.222c-0.007,0.092-0.004,0.192-0.001,0.29l0.028,0.597c0.016,0.397,0.037,0.793,0.048,1.191
				C33.202,6.679,33.222,7.475,33.221,8.288z"/>
		</g>
	</g>
	<g>
		<g>
			<g>
				<path class="st13" d="M33.552,4.959c0.142-0.154-0.028-0.683,0.171-0.903c0.214-0.236,0.748-0.073,0.891-0.229
					c0.064-0.07,0.022-0.29-0.024-0.495c-0.229,0.01-0.434,0.019-0.594,0.027C32.95,3.411,32.968,3.391,33.02,4.42
					c0.009,0.173,0.018,0.373,0.028,0.588C33.257,5.023,33.485,5.03,33.552,4.959z"/>
			</g>
			<g>
				<path d="M33.517,4.927c0.045-0.055,0.049-0.16,0.052-0.255c0.001-0.097-0.002-0.198,0.005-0.301
					c0.009-0.101,0.021-0.211,0.085-0.308c0.065-0.097,0.176-0.149,0.278-0.17c0.103-0.022,0.205-0.027,0.304-0.031
					c0.099-0.005,0.2-0.007,0.281-0.033c0.019-0.008,0.038-0.016,0.049-0.028c0.009-0.006,0.011-0.009,0.015-0.015
					c0.003-0.006,0.006-0.015,0.009-0.023c0.009-0.038,0.007-0.086,0.003-0.133c-0.009-0.094-0.03-0.192-0.053-0.288V3.341
					l0.048,0.036c-0.252,0.019-0.504,0.036-0.757,0.052c-0.125,0.009-0.252,0.015-0.373,0.03c-0.12,0.015-0.244,0.038-0.311,0.105
					c-0.065,0.065-0.079,0.189-0.084,0.31c-0.005,0.122,0.003,0.248,0.006,0.374c0.01,0.252,0.015,0.506,0.02,0.758L33.05,4.961l0,0
					c0.086,0.006,0.171,0.011,0.255,0.009c0.042-0.001,0.084-0.003,0.122-0.01C33.465,4.955,33.503,4.942,33.517,4.927z
					 M33.587,4.99c-0.048,0.046-0.099,0.055-0.144,0.063c-0.046,0.007-0.091,0.01-0.136,0.011c-0.089,0.002-0.177-0.003-0.263-0.009
					l0,0l-0.039-0.001l-0.003-0.043c-0.02-0.252-0.036-0.504-0.053-0.757c-0.008-0.127-0.015-0.253-0.012-0.384
					c-0.001-0.032,0.002-0.065,0.005-0.099c0.002-0.033,0.007-0.067,0.015-0.102c0.011-0.069,0.045-0.143,0.099-0.201
					c0.03-0.027,0.061-0.053,0.094-0.066c0.033-0.019,0.067-0.028,0.101-0.038c0.067-0.019,0.132-0.028,0.197-0.036
					c0.13-0.015,0.255-0.021,0.383-0.026c0.253-0.01,0.506-0.015,0.759-0.019l0.039-0.001l0.007,0.037V3.32
					c0.022,0.097,0.044,0.196,0.055,0.299c0.005,0.052,0.007,0.105-0.005,0.164c-0.004,0.015-0.009,0.03-0.017,0.046
					c-0.009,0.016-0.022,0.031-0.035,0.04c-0.024,0.023-0.053,0.035-0.079,0.046c-0.109,0.035-0.21,0.034-0.309,0.039
					c-0.099,0.004-0.197,0.009-0.288,0.029c-0.092,0.019-0.172,0.062-0.22,0.13c-0.048,0.07-0.062,0.167-0.069,0.262
					c-0.007,0.096-0.003,0.195-0.005,0.296c-0.001,0.051-0.002,0.102-0.011,0.156C33.642,4.881,33.632,4.939,33.587,4.99z"/>
			</g>
		</g>
	</g>
	<g>
		<g>
			<path class="st14" d="M44.133,18.346l-2.37-2.182c-0.383-0.352-0.408-0.954-0.055-1.336l3.417-3.711
				c0.352-0.383,0.954-0.408,1.336-0.055l2.37,2.182c0.383,0.352,0.408,0.954,0.055,1.336l-3.417,3.711
				C45.117,18.673,44.515,18.697,44.133,18.346z"/>
		</g>
		<g>
			<path d="M44.081,18.403l-2.054-1.916l-0.256-0.24c-0.086-0.078-0.176-0.175-0.234-0.281c-0.123-0.216-0.16-0.477-0.105-0.719
				c0.027-0.12,0.078-0.236,0.147-0.338c0.071-0.105,0.156-0.185,0.234-0.271l0.477-0.516l1.907-2.062
				c0.32-0.344,0.63-0.688,0.959-1.031c0.18-0.165,0.423-0.257,0.666-0.256c0.244-0.001,0.486,0.092,0.666,0.258l2.068,1.9
				l0.259,0.237c0.087,0.078,0.176,0.17,0.236,0.276c0.126,0.212,0.164,0.471,0.115,0.715c-0.024,0.122-0.071,0.239-0.14,0.345
				c-0.016,0.027-0.034,0.053-0.055,0.076c-0.02,0.024-0.039,0.049-0.058,0.071l-0.115,0.132l-0.464,0.527
				c-0.312,0.349-0.626,0.696-0.944,1.04c-0.316,0.346-0.634,0.688-0.953,1.031l-0.478,0.514l-0.24,0.256l-0.12,0.128l-0.06,0.064
				l-0.069,0.066c-0.189,0.172-0.445,0.268-0.699,0.265C44.518,18.675,44.266,18.576,44.081,18.403z M44.186,18.288
				c0.16,0.144,0.373,0.225,0.587,0.222c0.214-0.001,0.426-0.084,0.581-0.229l0.057-0.057l0.059-0.065l0.118-0.13l0.236-0.26
				l0.473-0.519c0.314-0.346,0.632-0.691,0.95-1.035c0.317-0.345,0.637-0.686,0.958-1.026l0.487-0.506
				c0.081-0.086,0.168-0.167,0.228-0.252c0.063-0.089,0.11-0.189,0.136-0.296c0.055-0.213,0.022-0.449-0.086-0.643
				c-0.055-0.099-0.127-0.18-0.214-0.259l-0.259-0.238l-2.064-1.905c-0.165-0.152-0.388-0.239-0.613-0.238
				c-0.225-0.001-0.449,0.086-0.613,0.238c-0.317,0.335-0.633,0.687-0.95,1.03l-1.897,2.071l-0.473,0.518
				c-0.078,0.087-0.163,0.17-0.223,0.26c-0.062,0.091-0.105,0.195-0.129,0.303c-0.048,0.215-0.014,0.449,0.097,0.64
				c0.056,0.097,0.127,0.175,0.215,0.253l0.26,0.236L44.186,18.288z"/>
		</g>
	</g>
	<g>
		<path class="st15" d="M37.929,3.284c-0.535-0.493,0.935,2.209,0.588,2.587s-2.15-0.484-2.669,0.087
			c-0.484,0.533,0.438,2.282,0.092,2.657s-3.034-0.627-2.66-0.283c0.414,0.381,6.712,6.18,6.712,6.18l1.053-1.144l0.056-0.061
			l2.493-2.707l0.051-0.055l0.995-1.081C44.641,9.463,38.521,3.828,37.929,3.284z"/>
	</g>
	<g class="st16">
		<polygon class="st7" points="44.579,9.507 43.557,10.598 38.59,5.92 37.848,3.194 		"/>
	</g>
	<g>
		<rect x="41.025" y="4.771" transform="matrix(0.6774 -0.7356 0.7356 0.6774 7.177 32.8756)" width="0.094" height="6.968"/>
	</g>
	<g>
		<rect x="38.469" y="7.527" transform="matrix(0.6775 -0.7355 0.7355 0.6775 4.3187 31.8815)" width="0.094" height="6.977"/>
	</g>
	<g>
		<g>
			
				<rect x="40.346" y="11.5" transform="matrix(0.6774 -0.7356 0.7356 0.6774 4.3063 36.5423)" class="st17" width="6.941" height="3.722"/>
		</g>
		<g>
			<path d="M42.839,17.218l-2.8-2.503l-0.065-0.058l0.061-0.065l4.71-5.1l0.054-0.058l0.057,0.054l2.717,2.545l0.034,0.032
				l-0.031,0.034L42.839,17.218z M42.836,17.125l4.67-5.092l0.003,0.066l-2.76-2.497l0.111-0.005l-4.695,5.113l-0.005-0.124
				L42.836,17.125z"/>
		</g>
	</g>
	<g>
		<g>
			<g>
				<polygon class="st17" points="40.182,11.072 40.922,11.754 41.77,11.576 41.878,10.716 41.137,10.034 40.289,10.212 				"/>
			</g>
			<g>
				<path d="M40.219,11.058l0.73,0.666l-0.036-0.01l0.839-0.222l-0.068,0.073l0.153-0.854l0.013,0.035l-0.741-0.682l0.036,0.01
					L40.308,10.3l0.071-0.077L40.219,11.058z M40.144,11.085L40.2,10.2l0.004-0.067l0.066-0.01l0.859-0.129l0.022-0.003l0.014,0.013
					l0.741,0.682l0.015,0.013l-0.001,0.022l-0.062,0.866l-0.005,0.064l-0.063,0.01l-0.858,0.134l-0.022,0.003l-0.014-0.013
					L40.144,11.085z"/>
			</g>
		</g>
		<g>
			<g>
				<path class="st7" d="M40.432,10.791l0.43-0.467l0.124,0.114l0.081,0.472c0.026,0.122,0.061,0.203,0.105,0.243
					c0.036,0.033,0.069,0.052,0.099,0.056c0.03,0.005,0.056-0.005,0.078-0.029c0.022-0.023,0.027-0.055,0.016-0.091
					c-0.011-0.037-0.036-0.073-0.073-0.107l0.143-0.156c0.05,0.047,0.088,0.1,0.112,0.16c0.023,0.061,0.031,0.119,0.022,0.178
					c-0.01,0.059-0.035,0.111-0.076,0.156c-0.066,0.072-0.138,0.109-0.215,0.11c-0.077,0.001-0.154-0.034-0.232-0.105
					c-0.032-0.03-0.06-0.064-0.081-0.102c-0.022-0.038-0.039-0.084-0.055-0.135c-0.015-0.052-0.03-0.127-0.044-0.225l-0.044-0.2
					l-0.242,0.263L40.432,10.791z"/>
			</g>
		</g>
	</g>
	<g class="st16">
		
			<rect x="44.826" y="9.611" transform="matrix(0.6834 -0.7301 0.7301 0.6834 5.888 36.7425)" class="st7" width="0.956" height="3.945"/>
	</g>
	<g>
		
			<rect x="39.428" y="12.383" transform="matrix(0.6774 -0.7356 0.7356 0.6774 4.6152 35.6225)" class="st15" width="6.99" height="0.332"/>
		<path d="M40.685,15.262l-0.279-0.256l0.016-0.017l4.752-5.16l0.279,0.256l-0.016,0.017L40.685,15.262z M40.472,15.003l0.21,0.194
			l4.704-5.108l-0.21-0.194L40.472,15.003z"/>
	</g>
	<g>
		
			<rect x="41.212" y="14.026" transform="matrix(0.6774 -0.7356 0.7356 0.6774 3.9823 37.4649)" class="st15" width="6.99" height="0.332"/>
		<path d="M42.469,16.905l-0.279-0.256l0.016-0.017l4.752-5.16l0.279,0.256l-0.016,0.017L42.469,16.905z M42.256,16.646l0.21,0.194
			l4.704-5.108l-0.21-0.194L42.256,16.646z"/>
	</g>
	<g>
		<path d="M45.294,10.648c0.117,0.066,0.223,0.143,0.326,0.224c0.104,0.08,0.202,0.167,0.298,0.254
			c0.095,0.089,0.189,0.18,0.278,0.278c0.089,0.097,0.175,0.196,0.251,0.306c-0.115-0.067-0.222-0.144-0.326-0.225
			c-0.104-0.08-0.202-0.167-0.299-0.254c-0.095-0.089-0.189-0.18-0.278-0.277C45.455,10.858,45.369,10.758,45.294,10.648z"/>
	</g>
	<g>
		<path d="M41.216,15.076c0.117,0.066,0.223,0.143,0.326,0.224c0.104,0.08,0.202,0.167,0.298,0.254
			c0.095,0.089,0.189,0.18,0.278,0.278c0.089,0.097,0.175,0.196,0.251,0.306c-0.115-0.067-0.222-0.144-0.326-0.225
			c-0.104-0.08-0.202-0.167-0.299-0.254c-0.095-0.089-0.189-0.18-0.278-0.277C41.378,15.286,41.292,15.186,41.216,15.076z"/>
	</g>
	<g>
		<path d="M44.784,11.201c0.117,0.066,0.223,0.143,0.326,0.224c0.104,0.08,0.202,0.167,0.298,0.254
			c0.095,0.089,0.189,0.18,0.278,0.278c0.089,0.097,0.175,0.196,0.251,0.306c-0.115-0.067-0.222-0.144-0.326-0.225
			c-0.104-0.08-0.202-0.167-0.299-0.254c-0.095-0.089-0.189-0.18-0.278-0.277C44.945,11.412,44.86,11.312,44.784,11.201z"/>
	</g>
	<g>
		<path d="M44.274,11.754c0.117,0.066,0.223,0.143,0.326,0.224c0.104,0.08,0.202,0.167,0.298,0.254
			c0.095,0.089,0.189,0.18,0.278,0.278c0.089,0.097,0.175,0.196,0.251,0.306c-0.115-0.067-0.222-0.144-0.326-0.225
			c-0.104-0.08-0.202-0.167-0.299-0.254c-0.095-0.089-0.189-0.18-0.278-0.277C44.435,11.965,44.35,11.865,44.274,11.754z"/>
	</g>
	<g>
		<path d="M43.765,12.308c0.117,0.066,0.223,0.143,0.326,0.224c0.104,0.08,0.202,0.167,0.298,0.254
			c0.095,0.089,0.189,0.18,0.278,0.278c0.089,0.097,0.175,0.196,0.251,0.306c-0.115-0.067-0.222-0.144-0.326-0.225
			c-0.104-0.08-0.202-0.167-0.299-0.254c-0.095-0.089-0.189-0.18-0.278-0.277C43.925,12.519,43.841,12.419,43.765,12.308z"/>
	</g>
	<g>
		<path d="M43.255,12.861c0.117,0.066,0.223,0.143,0.326,0.224c0.104,0.08,0.202,0.167,0.298,0.254
			c0.095,0.089,0.189,0.18,0.278,0.278c0.089,0.097,0.175,0.196,0.251,0.306c-0.115-0.067-0.222-0.144-0.326-0.225
			c-0.104-0.08-0.202-0.167-0.299-0.254c-0.095-0.089-0.189-0.18-0.278-0.277C43.417,13.072,43.331,12.972,43.255,12.861z"/>
	</g>
	<g>
		<path d="M42.746,13.416c0.117,0.066,0.223,0.143,0.326,0.224c0.104,0.08,0.202,0.167,0.298,0.254
			c0.095,0.089,0.189,0.18,0.278,0.278c0.089,0.097,0.175,0.196,0.251,0.306c-0.115-0.067-0.222-0.144-0.326-0.225
			c-0.104-0.08-0.202-0.167-0.299-0.254c-0.095-0.089-0.189-0.18-0.278-0.277C42.907,13.626,42.821,13.526,42.746,13.416z"/>
	</g>
	<g>
		<path d="M42.236,13.968c0.117,0.066,0.223,0.143,0.326,0.224c0.104,0.08,0.202,0.167,0.298,0.254
			c0.095,0.089,0.189,0.18,0.278,0.278c0.089,0.097,0.175,0.196,0.251,0.306c-0.115-0.067-0.222-0.144-0.326-0.225
			c-0.104-0.08-0.202-0.167-0.299-0.254c-0.095-0.089-0.189-0.18-0.278-0.277C42.396,14.179,42.312,14.08,42.236,13.968z"/>
	</g>
	<g>
		<path d="M41.727,14.522c0.117,0.066,0.223,0.143,0.326,0.224c0.104,0.08,0.202,0.167,0.298,0.254
			c0.095,0.089,0.189,0.18,0.278,0.278c0.089,0.097,0.175,0.196,0.251,0.306c-0.115-0.067-0.222-0.144-0.326-0.225
			c-0.104-0.08-0.202-0.167-0.299-0.254c-0.095-0.089-0.189-0.18-0.278-0.277C41.887,14.733,41.802,14.633,41.727,14.522z"/>
	</g>
	<g>
		<path d="M42.839,17.218l-2.8-2.503l-0.065-0.058l0.061-0.065l4.71-5.1l0.054-0.058l0.057,0.054l2.717,2.545l0.033,0.031
			l-0.03,0.035c-0.381,0.439-0.769,0.876-1.161,1.31c-0.391,0.437-0.79,0.863-1.185,1.296c-0.397,0.429-0.797,0.852-1.195,1.275
			l-0.598,0.626L42.839,17.218z M42.836,17.125l0.581-0.662l0.578-0.65c0.385-0.429,0.769-0.857,1.157-1.279
			c0.388-0.419,0.774-0.843,1.166-1.258c0.392-0.417,0.786-0.832,1.19-1.244l0.003,0.066l-2.76-2.497l0.111-0.005l-4.696,5.113
			l-0.005-0.124L42.836,17.125z"/>
	</g>
	<g>
		<path d="M37.886,3.33c-0.018-0.016-0.037-0.031-0.052-0.039c-0.005-0.005-0.016-0.001,0.011-0.003
			c0.016-0.003,0.028-0.02,0.029-0.023c0.002-0.005,0.001-0.003,0.001-0.001c-0.001,0.028,0.015,0.085,0.028,0.132
			c0.03,0.098,0.07,0.196,0.11,0.293c0.079,0.196,0.172,0.387,0.256,0.582c0.086,0.195,0.171,0.391,0.251,0.592
			c0.079,0.202,0.15,0.405,0.192,0.634c0.009,0.057,0.016,0.118,0.016,0.182c-0.001,0.065-0.002,0.136-0.042,0.225
			c-0.048,0.101-0.132,0.15-0.202,0.179c-0.072,0.029-0.138,0.038-0.202,0.045c-0.125,0.011-0.238-0.001-0.348-0.015
			c-0.111-0.014-0.217-0.035-0.322-0.057c-0.21-0.045-0.415-0.093-0.62-0.133c-0.205-0.038-0.41-0.075-0.611-0.069
			c-0.198,0.003-0.401,0.056-0.5,0.201c-0.049,0.071-0.073,0.165-0.084,0.261c-0.009,0.097-0.003,0.199,0.008,0.3
			c0.055,0.408,0.194,0.807,0.297,1.226c0.026,0.106,0.046,0.213,0.061,0.327c0.013,0.114,0.022,0.232-0.012,0.373
			c-0.02,0.071-0.051,0.149-0.133,0.218c-0.081,0.061-0.154,0.074-0.219,0.086c-0.13,0.02-0.244,0.013-0.355,0.001
			c-0.223-0.022-0.433-0.076-0.642-0.127c-0.207-0.053-0.413-0.112-0.617-0.172c-0.205-0.058-0.409-0.115-0.613-0.162
			c-0.051-0.012-0.102-0.022-0.152-0.031c-0.048-0.009-0.106-0.016-0.133-0.013c-0.002,0-0.003,0.001,0.004-0.002
			c0.003-0.001,0.01-0.005,0.018-0.014c0.009-0.009,0.015-0.026,0.015-0.037c0-0.024-0.006-0.027-0.005-0.028
			c-0.001-0.001,0.001,0.002,0.004,0.005c0.009,0.01,0.035,0.032,0.053,0.049l0.118,0.108l0.936,0.862l1.873,1.724l1.881,1.715
			c0.63,0.568,1.258,1.139,1.891,1.704l0.001,0.001l-0.17,0.007l4.641-5.055l0.001-0.001l0.007,0.184
			c-0.547-0.529-1.102-1.049-1.652-1.573l-1.665-1.56c-0.553-0.522-1.116-1.034-1.673-1.55L37.886,3.33z M37.973,3.237l1.68,1.543
			c0.561,0.514,1.118,1.032,1.682,1.54l1.691,1.531c0.568,0.505,1.132,1.015,1.704,1.517l0.096,0.084l-0.089,0.1l-0.001,0.001
			l-4.656,5.042l-0.081,0.089l-0.089-0.082l-0.001-0.001c-0.615-0.585-1.236-1.164-1.854-1.745l-1.864-1.733l-1.872-1.725
			l-0.937-0.861l-0.118-0.108c-0.021-0.02-0.036-0.031-0.063-0.061c-0.007-0.007-0.013-0.015-0.021-0.027
			c-0.007-0.013-0.018-0.028-0.018-0.065c0.001-0.018,0.01-0.041,0.022-0.056c0.012-0.014,0.024-0.021,0.034-0.026
			c0.019-0.009,0.031-0.01,0.043-0.012c0.079-0.007,0.126,0.006,0.182,0.013c0.055,0.009,0.107,0.021,0.16,0.031l0.625,0.135
			c0.413,0.08,0.835,0.16,1.238,0.182c0.099,0.004,0.2,0.005,0.28-0.009c0.039-0.007,0.072-0.021,0.076-0.026
			c-0.001,0.001,0.005-0.006,0.01-0.014c0.006-0.009,0.011-0.022,0.015-0.038c0.019-0.065,0.016-0.163,0.009-0.259
			c-0.007-0.097-0.023-0.199-0.04-0.301c-0.065-0.41-0.172-0.829-0.199-1.268c-0.007-0.11-0.007-0.222,0.008-0.336
			c0.015-0.113,0.044-0.232,0.117-0.336c0.073-0.105,0.179-0.178,0.291-0.219c0.112-0.041,0.225-0.061,0.336-0.07
			c0.446-0.03,0.873,0.051,1.29,0.101c0.206,0.023,0.418,0.054,0.594,0.038c0.043-0.004,0.082-0.012,0.109-0.023
			s0.037-0.026,0.035-0.022c0.006-0.009,0.014-0.046,0.014-0.086c0.001-0.041-0.003-0.087-0.009-0.135
			c-0.026-0.192-0.081-0.394-0.136-0.594c-0.057-0.202-0.122-0.402-0.189-0.602c-0.069-0.201-0.134-0.403-0.205-0.604
			c-0.035-0.101-0.068-0.203-0.099-0.308c-0.014-0.056-0.031-0.102-0.03-0.179c0.001-0.011,0.003-0.023,0.009-0.039
			s0.028-0.044,0.057-0.051c0.028-0.007,0.045-0.001,0.057,0.003c0.013,0.004,0.021,0.009,0.03,0.014
			C37.93,3.197,37.951,3.217,37.973,3.237z"/>
	</g>
	<g class="st0">
		<path class="st1" d="M47.731,12.233l-0.189-0.17l-3.594,3.926c-2.351-2.175-5.49-5.011-7.972-7.348
			c-0.032-0.03-0.671,0.057-0.671,0.057l-1.277-0.29l-0.852-0.143l11.137,10.251l0.749,0.077l0.865-0.768
			c0,0-0.718-0.667-1.786-1.655L47.731,12.233z"/>
	</g>
	<g class="st16">
		<path class="st7" d="M34.296,3.903l-1.306-0.32c0,0-0.026-0.115,0.192-0.128c0.218-0.013,1.474,0.141,1.474,0.141L34.63,3.852
			L34.296,3.903z"/>
	</g>
	<g>
		<g>
			<path d="M33.517,4.927c0.045-0.055,0.049-0.16,0.052-0.255c0.001-0.097-0.002-0.198,0.005-0.301
				c0.009-0.101,0.021-0.211,0.085-0.308c0.065-0.097,0.176-0.149,0.278-0.17c0.103-0.022,0.205-0.027,0.304-0.031
				c0.099-0.005,0.2-0.007,0.281-0.033c0.019-0.008,0.038-0.016,0.049-0.028c0.009-0.006,0.011-0.009,0.015-0.015
				c0.003-0.006,0.006-0.015,0.009-0.023c0.009-0.038,0.007-0.086,0.003-0.133c-0.009-0.094-0.03-0.192-0.053-0.288V3.341
				l0.048,0.036c-0.252,0.019-0.504,0.036-0.757,0.052c-0.125,0.009-0.252,0.015-0.373,0.03c-0.12,0.015-0.244,0.038-0.311,0.105
				c-0.065,0.065-0.079,0.189-0.084,0.31c-0.005,0.122,0.003,0.248,0.006,0.374c0.01,0.252,0.015,0.506,0.02,0.758L33.05,4.961l0,0
				c0.086,0.006,0.171,0.011,0.255,0.009c0.042-0.001,0.084-0.003,0.122-0.01C33.465,4.955,33.503,4.942,33.517,4.927z M33.587,4.99
				c-0.048,0.046-0.099,0.055-0.144,0.063c-0.046,0.007-0.091,0.01-0.136,0.011c-0.089,0.002-0.177-0.003-0.263-0.009l0,0
				l-0.039-0.001l-0.003-0.043c-0.02-0.252-0.036-0.504-0.053-0.757c-0.008-0.127-0.015-0.253-0.012-0.384
				c-0.001-0.032,0.002-0.065,0.005-0.099c0.002-0.033,0.007-0.067,0.015-0.102c0.011-0.069,0.045-0.143,0.099-0.201
				c0.03-0.027,0.061-0.053,0.094-0.066c0.033-0.019,0.067-0.028,0.101-0.038c0.067-0.019,0.132-0.028,0.197-0.036
				c0.13-0.015,0.255-0.021,0.383-0.026c0.253-0.01,0.506-0.015,0.759-0.019l0.039-0.001l0.007,0.037V3.32
				c0.022,0.097,0.044,0.196,0.055,0.299c0.005,0.052,0.007,0.105-0.005,0.164c-0.004,0.015-0.009,0.03-0.017,0.046
				c-0.009,0.016-0.022,0.031-0.035,0.04c-0.024,0.023-0.053,0.035-0.079,0.046c-0.109,0.035-0.21,0.034-0.309,0.039
				c-0.099,0.004-0.197,0.009-0.288,0.029c-0.092,0.019-0.172,0.062-0.22,0.13c-0.048,0.07-0.062,0.167-0.069,0.262
				c-0.007,0.096-0.003,0.195-0.005,0.296c-0.001,0.051-0.002,0.102-0.011,0.156C33.642,4.881,33.632,4.939,33.587,4.99z"/>
		</g>
	</g>
	<g>
		<path class="st17" d="M39.004,9.195c0.023-0.013,0.061-0.001,0.091-0.002c0.022-0.001,0.043-0.003,0.065-0.004
			c-0.005-0.021-0.005-0.046-0.016-0.062c-0.024-0.033-0.053-0.063-0.084-0.09c-0.067-0.061-0.136-0.118-0.217-0.187
			c-0.005,0.036-0.014,0.055-0.007,0.063c0.034,0.044,0.005,0.07-0.026,0.091c-0.086,0.062-0.242,0.065-0.328-0.005
			c-0.063-0.052-0.063-0.11,0.001-0.162c0.048-0.038,0.1-0.073,0.153-0.103c0.132-0.075,0.267-0.122,0.424-0.079
			c0.17,0.046,0.24,0.214,0.124,0.373c0.042,0.019,0.081,0.053,0.112,0.046c0.076-0.014,0.148-0.046,0.22-0.071
			c0.038-0.013,0.032-0.037,0.007-0.055c-0.015-0.01-0.039-0.013-0.057-0.009c-0.061,0.013-0.085-0.015-0.089-0.071
			c-0.001-0.016-0.001-0.032-0.007-0.047c-0.076-0.222-0.386-0.411-0.622-0.386c-0.156,0.017-0.289,0.073-0.4,0.187
			c-0.093,0.097-0.123,0.28-0.049,0.388c0.081,0.118,0.201,0.189,0.333,0.226C38.755,9.271,38.883,9.262,39.004,9.195z"/>
		<path class="st17" d="M36.319,6.623c0.148-0.052,0.225-0.177,0.21-0.33c-0.004-0.039-0.017-0.087-0.043-0.112
			c-0.109-0.105-0.221-0.205-0.328-0.301c-0.114,0.03-0.215,0.081-0.276,0.17c-0.044,0.064-0.065,0.146-0.078,0.231
			c0.103-0.048,0.205-0.095,0.309-0.144c0.045-0.021,0.089-0.048,0.138-0.057c0.028-0.006,0.064,0.013,0.092,0.028
			c0.021,0.011,0.035,0.036,0.053,0.053c0.034,0.033,0.034,0.062,0.002,0.101C36.285,6.4,36.135,6.468,35.964,6.5
			c-0.052-0.01-0.108,0.002-0.16-0.007c0.002,0.039-0.001,0.078,0.003,0.119c0.001,0.012,0.005,0.024,0.007,0.036
			c0.051,0.036,0.125,0.063,0.185,0.057C36.106,6.693,36.214,6.659,36.319,6.623z"/>
		<path class="st17" d="M38.534,8.004c-0.107-0.145-0.251-0.223-0.434-0.22c-0.14,0.001-0.328,0.048-0.427,0.125
			c-0.167,0.13-0.207,0.336-0.064,0.493c0.229,0.251,0.699,0.181,0.883-0.007C38.604,8.282,38.627,8.132,38.534,8.004z M38.44,8.12
			c-0.074,0.113-0.187,0.172-0.309,0.215c-0.079,0.028-0.162,0.043-0.23,0.061c-0.056-0.011-0.097-0.015-0.136-0.028
			c-0.079-0.026-0.1-0.103-0.044-0.17c0.081-0.097,0.19-0.157,0.306-0.202c0.059-0.022,0.123-0.028,0.186-0.046
			c0.077-0.022,0.14,0.007,0.201,0.045C38.473,8.033,38.477,8.063,38.44,8.12z"/>
		<path class="st17" d="M37.876,7.69c0.062-0.031,0.084-0.16,0.034-0.206c-0.126-0.12-0.253-0.238-0.381-0.355
			c-0.022-0.02-0.048-0.033-0.073-0.049c-0.003,0.004-0.007,0.007-0.009,0.011c0.007,0.02,0.015,0.039,0.026,0.07
			c-0.057,0.026-0.11,0.049-0.163,0.073c-0.129,0.058-0.255,0.121-0.387,0.172c-0.068,0.027-0.14,0.082-0.223,0.015
			c0.075,0.121,0.182,0.204,0.274,0.3c0.007-0.002,0.015-0.005,0.023-0.007c-0.002-0.034-0.004-0.069-0.006-0.103
			c-0.004-0.007-0.008-0.014-0.012-0.021c0.092-0.036,0.184-0.071,0.277-0.106c0.052-0.019,0.065,0.006,0.05,0.051
			c-0.019,0.054-0.044,0.105-0.065,0.158c-0.039,0.096-0.079,0.192-0.119,0.289c0.089,0.034,0.167,0.066,0.247,0.091
			c0.026,0.008,0.059-0.006,0.089-0.009c-0.01-0.023-0.014-0.053-0.03-0.07c-0.039-0.041-0.039-0.082-0.016-0.132
			c0.021-0.043,0.034-0.089,0.052-0.134c0.01-0.024,0.022-0.047,0.033-0.07c0.049,0.019,0.089,0.034,0.13,0.051
			C37.713,7.746,37.796,7.729,37.876,7.69z M37.421,7.466c-0.041-0.022-0.028-0.056,0.006-0.073
			c0.055-0.028,0.111-0.051,0.168-0.073c0.08-0.031,0.117,0.03,0.153,0.08c0.014,0.019,0.027,0.064,0.019,0.071
			c-0.042,0.035-0.09,0.062-0.137,0.092C37.551,7.527,37.483,7.501,37.421,7.466z"/>
		<path class="st17" d="M36.792,7.233c-0.081-0.016-0.168,0.049-0.245-0.012c-0.069-0.053-0.136-0.107-0.214-0.167
			c0.033-0.031,0.055-0.059,0.081-0.076c0.048-0.03,0.103-0.049,0.15-0.081c0.048-0.033,0.087-0.023,0.122,0.012
			c0.033,0.033,0.062,0.071,0.096,0.112c-0.02,0.017-0.036,0.03-0.049,0.045c-0.01,0.012-0.015,0.028-0.022,0.043
			c0.016,0.006,0.036,0.021,0.047,0.016c0.083-0.039,0.163-0.083,0.245-0.124C37.001,6.992,37,6.984,36.998,6.975
			c-0.021-0.001-0.044-0.009-0.062-0.003c-0.068,0.022-0.172-0.036-0.186-0.107c-0.002-0.012,0.008-0.033,0.019-0.038
			c0.067-0.035,0.134-0.069,0.204-0.096c0.019-0.007,0.051,0.007,0.07,0.02c0.024,0.016,0.044,0.039,0.065,0.061
			c0.107,0.108,0.107,0.108,0.004,0.219c-0.005,0.005-0.007,0.011-0.017,0.028c0.023,0.011,0.053,0.037,0.065,0.03
			c0.079-0.04,0.155-0.088,0.241-0.139c-0.047-0.017-0.084-0.021-0.107-0.039c-0.109-0.094-0.214-0.192-0.32-0.29
			c-0.065-0.06-0.127-0.122-0.19-0.182c-0.007,0.002-0.015,0.005-0.022,0.007c0.039,0.069,0.009,0.101-0.049,0.128
			c-0.143,0.07-0.286,0.141-0.423,0.221c-0.079,0.046-0.144,0.056-0.217-0.005c-0.012-0.01-0.04-0.001-0.082-0.001
			c0.036,0.045,0.055,0.074,0.079,0.097c0.081,0.077,0.165,0.151,0.249,0.226c0.076,0.069,0.152,0.14,0.229,0.206
			c0.015,0.014,0.045,0.028,0.06,0.022c0.065-0.024,0.127-0.057,0.19-0.086C36.797,7.247,36.795,7.241,36.792,7.233z"/>
		<path class="st17" d="M39.772,9.207c-0.022,0.016-0.044,0.046-0.071,0.053c-0.093,0.022-0.187,0.038-0.281,0.055
			c-0.128,0.022-0.255,0.048-0.383,0.061C38.97,9.383,38.9,9.425,38.832,9.374c-0.011-0.009-0.03-0.007-0.045-0.011
			c0.003,0.016-0.001,0.039,0.009,0.049c0.074,0.074,0.151,0.146,0.229,0.217c0.013,0.011,0.036,0.01,0.055,0.015
			c-0.001-0.019-0.003-0.036-0.005-0.055c-0.002-0.028-0.016-0.076-0.005-0.084c0.041-0.024,0.097-0.058,0.134-0.047
			c0.061,0.019,0.114,0.068,0.167,0.108c0.057,0.044,0.061,0.069,0.007,0.114c-0.03,0.026-0.071,0.036-0.11,0.048
			c-0.021,0.007-0.044,0.003-0.076,0.005c0.007,0.022,0.007,0.032,0.013,0.038c0.081,0.081,0.162,0.162,0.246,0.239
			c0.014,0.013,0.045,0.006,0.068,0.009c-0.003-0.021,0.002-0.048-0.009-0.061c-0.048-0.053-0.026-0.095,0.015-0.136
			c0.076-0.076,0.156-0.146,0.23-0.225c0.081-0.086,0.156-0.177,0.228-0.259C39.925,9.302,39.846,9.254,39.772,9.207z M39.604,9.47
			c-0.036,0.034-0.078,0.064-0.119,0.091c-0.009,0.005-0.03-0.002-0.041-0.01c-0.021-0.014-0.04-0.031-0.056-0.051
			c-0.014-0.016-0.033-0.041-0.028-0.055c0.007-0.019,0.032-0.039,0.053-0.045c0.048-0.012,0.099-0.015,0.163-0.023
			c0.011,0.007,0.038,0.016,0.048,0.035C39.629,9.425,39.617,9.457,39.604,9.47z"/>
	</g>
</g>
</svg>
