<?xml version="1.0" encoding="utf-8"?>
<!-- Generator: Adobe Illustrator 22.1.0, SVG Export Plug-In . SVG Version: 6.00 Build 0)  -->
<svg version="1.1" id="Layer_1" xmlns="http://www.w3.org/2000/svg" xmlns:xlink="http://www.w3.org/1999/xlink" x="0px" y="0px"
	 viewBox="0 0 175 105" style="enable-background:new 0 0 175 105;" xml:space="preserve">
<style type="text/css">
	.st0{opacity:0.75;fill-rule:evenodd;clip-rule:evenodd;fill:#FFFFFF;enable-background:new    ;}
	.st1{opacity:0.75;enable-background:new    ;}
	.st2{fill:#7FA8E0;}
	.st3{fill:#7AA4DD;}
</style>
<path class="st0" d="M48.738,11.599C86.229-2.317,174.771,1.309,161.5,56.641c-13.271,55.332-51.193,35.454-75.461,27.98
	c-24.269-7.473-66.083-32.648-69.205-50C13.649,16.924,26.658,19.795,48.738,11.599z"/>
<g class="st1">
	<path class="st2" d="M79.044,29.725c0,0.609-0.108,1.143-0.323,1.601s-0.523,0.813-0.924,1.062
		c-0.401,0.249-0.86,0.374-1.378,0.374c-0.513,0-0.97-0.123-1.372-0.37c-0.402-0.246-0.714-0.598-0.934-1.056
		s-0.333-0.983-0.336-1.578v-0.306c0-0.609,0.11-1.145,0.329-1.608c0.219-0.463,0.53-0.818,0.93-1.066
		c0.401-0.248,0.859-0.372,1.374-0.372c0.515,0,0.973,0.124,1.374,0.372c0.401,0.248,0.711,0.603,0.93,1.066
		c0.219,0.463,0.329,0.997,0.329,1.603V29.725z M77.752,29.444c0-0.648-0.116-1.141-0.348-1.478
		c-0.232-0.337-0.564-0.505-0.994-0.505c-0.428,0-0.757,0.166-0.99,0.499c-0.232,0.333-0.35,0.82-0.353,1.463v0.302
		c0,0.631,0.116,1.121,0.348,1.47c0.232,0.348,0.566,0.522,1.002,0.522c0.428,0,0.756-0.168,0.985-0.503s0.345-0.825,0.348-1.468
		V29.444z"/>
	<path class="st2" d="M84.433,26.492v4.073c0,0.677-0.212,1.212-0.635,1.606c-0.423,0.394-1.002,0.59-1.735,0.59
		c-0.722,0-1.296-0.191-1.72-0.573c-0.425-0.382-0.641-0.908-0.65-1.576v-4.12h1.274v4.082c0,0.405,0.097,0.7,0.291,0.886
		s0.462,0.278,0.805,0.278c0.716,0,1.08-0.377,1.092-1.13v-4.116H84.433z"/>
	<path class="st2" d="M87.55,30.413h-1.015v2.264H85.26v-6.184h2.298c0.731,0,1.294,0.163,1.691,0.488s0.595,0.786,0.595,1.38
		c0,0.422-0.091,0.774-0.274,1.056c-0.183,0.282-0.459,0.506-0.83,0.673l1.338,2.527v0.059h-1.368L87.55,30.413z M86.535,29.381
		h1.028c0.32,0,0.568-0.081,0.743-0.244c0.176-0.163,0.263-0.387,0.263-0.673c0-0.292-0.083-0.521-0.248-0.688
		c-0.166-0.167-0.42-0.251-0.762-0.251h-1.024V29.381z"/>
	<path class="st2" d="M95.036,26.492h1.274v4.282c0,0.394-0.087,0.741-0.261,1.043s-0.42,0.534-0.737,0.699
		c-0.317,0.164-0.675,0.246-1.075,0.246c-0.654,0-1.164-0.166-1.529-0.499c-0.365-0.333-0.548-0.803-0.548-1.412h1.283
		c0,0.303,0.064,0.527,0.191,0.671s0.328,0.217,0.603,0.217c0.244,0,0.437-0.084,0.582-0.251c0.144-0.167,0.217-0.405,0.217-0.714
		V26.492z"/>
	<path class="st2" d="M102.265,29.725c0,0.609-0.108,1.143-0.323,1.601s-0.523,0.813-0.924,1.062
		c-0.401,0.249-0.86,0.374-1.378,0.374c-0.513,0-0.97-0.123-1.372-0.37c-0.402-0.246-0.714-0.598-0.934-1.056
		s-0.333-0.983-0.336-1.578v-0.306c0-0.609,0.11-1.145,0.329-1.608c0.219-0.463,0.53-0.818,0.93-1.066
		c0.401-0.248,0.859-0.372,1.374-0.372c0.515,0,0.973,0.124,1.374,0.372c0.401,0.248,0.711,0.603,0.93,1.066
		c0.219,0.463,0.329,0.997,0.329,1.603V29.725z M100.973,29.444c0-0.648-0.116-1.141-0.348-1.478
		c-0.232-0.337-0.564-0.505-0.994-0.505c-0.428,0-0.757,0.166-0.99,0.499c-0.232,0.333-0.35,0.82-0.353,1.463v0.302
		c0,0.631,0.116,1.121,0.348,1.47s0.566,0.522,1.002,0.522c0.428,0,0.756-0.168,0.985-0.503c0.229-0.336,0.345-0.825,0.348-1.468
		V29.444z"/>
	<path class="st2" d="M102.973,32.677v-6.184h2.166c0.75,0,1.32,0.144,1.708,0.431c0.388,0.287,0.582,0.709,0.582,1.264
		c0,0.303-0.078,0.57-0.234,0.801c-0.156,0.231-0.372,0.4-0.65,0.508c0.317,0.079,0.567,0.239,0.75,0.48
		c0.183,0.241,0.274,0.535,0.274,0.883c0,0.595-0.19,1.045-0.569,1.351c-0.379,0.306-0.92,0.462-1.623,0.467H102.973z
		 M104.248,29.083h0.943c0.643-0.011,0.964-0.268,0.964-0.769c0-0.28-0.081-0.482-0.244-0.605c-0.163-0.123-0.42-0.185-0.771-0.185
		h-0.892V29.083z M104.248,29.984v1.669h1.092c0.3,0,0.534-0.072,0.703-0.215c0.168-0.143,0.253-0.341,0.253-0.593
		c0-0.566-0.293-0.854-0.879-0.862H104.248z"/>
	<path class="st2" d="M108.286,28.595c0-0.195,0.066-0.354,0.198-0.476c0.132-0.122,0.297-0.183,0.495-0.183
		c0.201,0,0.367,0.061,0.499,0.183c0.132,0.122,0.198,0.28,0.198,0.476c0,0.193-0.065,0.349-0.195,0.469
		c-0.13,0.12-0.297,0.181-0.501,0.181c-0.201,0-0.367-0.06-0.497-0.181C108.351,28.944,108.286,28.787,108.286,28.595z
		 M108.286,32.073c0-0.195,0.066-0.354,0.198-0.476c0.132-0.122,0.297-0.183,0.495-0.183c0.201,0,0.367,0.061,0.499,0.183
		c0.132,0.122,0.198,0.28,0.198,0.476c0,0.193-0.065,0.349-0.195,0.469c-0.13,0.12-0.297,0.181-0.501,0.181
		c-0.201,0-0.367-0.06-0.497-0.181C108.351,32.422,108.286,32.266,108.286,32.073z"/>
	<path class="st2" d="M74.325,38.689h1.353v0.512h-1.99v-3.092h0.637V38.689z"/>
	<path class="st2" d="M75.89,36.308c0-0.092,0.031-0.168,0.092-0.227c0.062-0.059,0.145-0.089,0.252-0.089
		c0.105,0,0.188,0.03,0.251,0.089c0.062,0.059,0.093,0.135,0.093,0.227c0,0.093-0.032,0.17-0.095,0.229
		c-0.063,0.059-0.146,0.089-0.25,0.089c-0.103,0-0.187-0.03-0.25-0.089C75.921,36.478,75.89,36.402,75.89,36.308z M76.542,39.201
		h-0.616v-2.298h0.616V39.201z"/>
	<path class="st2" d="M78.183,38.566c0-0.075-0.037-0.134-0.111-0.177s-0.194-0.082-0.358-0.116c-0.547-0.115-0.82-0.347-0.82-0.697
		c0-0.204,0.085-0.374,0.254-0.511c0.169-0.137,0.39-0.205,0.664-0.205c0.292,0,0.525,0.069,0.7,0.206s0.262,0.316,0.262,0.535
		H78.16c0-0.088-0.028-0.16-0.085-0.218c-0.057-0.057-0.145-0.086-0.265-0.086c-0.103,0-0.183,0.023-0.24,0.07
		s-0.085,0.106-0.085,0.178c0,0.068,0.032,0.123,0.097,0.165s0.173,0.078,0.326,0.108c0.153,0.03,0.282,0.065,0.387,0.103
		c0.324,0.119,0.486,0.325,0.486,0.618c0,0.21-0.09,0.379-0.27,0.509c-0.18,0.13-0.412,0.194-0.697,0.194
		c-0.193,0-0.364-0.034-0.513-0.103c-0.149-0.069-0.267-0.163-0.351-0.282c-0.085-0.12-0.127-0.249-0.127-0.388h0.582
		c0.006,0.109,0.046,0.193,0.121,0.251c0.075,0.058,0.176,0.087,0.302,0.087c0.118,0,0.206-0.022,0.267-0.067
		C78.153,38.696,78.183,38.638,78.183,38.566z"/>
	<path class="st2" d="M79.801,36.338v0.565h0.393v0.45h-0.393V38.5c0,0.085,0.016,0.146,0.049,0.183
		c0.033,0.037,0.095,0.055,0.187,0.055c0.068,0,0.128-0.005,0.181-0.015v0.465c-0.12,0.037-0.244,0.055-0.372,0.055
		c-0.43,0-0.65-0.217-0.658-0.652v-1.238h-0.336v-0.45h0.336v-0.565H79.801z"/>
	<path class="st2" d="M81.484,39.243c-0.337,0-0.611-0.103-0.823-0.31s-0.318-0.482-0.318-0.826v-0.059
		c0-0.231,0.045-0.437,0.134-0.619c0.089-0.182,0.216-0.322,0.379-0.421c0.164-0.098,0.35-0.148,0.56-0.148
		c0.314,0,0.562,0.099,0.742,0.297c0.181,0.198,0.271,0.479,0.271,0.843v0.251h-1.463c0.02,0.15,0.08,0.27,0.179,0.361
		c0.1,0.091,0.226,0.136,0.379,0.136c0.236,0,0.421-0.086,0.554-0.257l0.302,0.338c-0.092,0.13-0.217,0.232-0.374,0.305
		C81.85,39.207,81.675,39.243,81.484,39.243z M81.414,37.355c-0.122,0-0.221,0.041-0.296,0.124c-0.076,0.082-0.124,0.2-0.145,0.354
		h0.854v-0.049c-0.003-0.136-0.04-0.242-0.11-0.317C81.645,37.392,81.544,37.355,81.414,37.355z"/>
	<path class="st2" d="M83.234,36.903l0.019,0.265c0.164-0.205,0.384-0.308,0.66-0.308c0.244,0,0.425,0.071,0.544,0.215
		c0.119,0.143,0.18,0.357,0.183,0.641v1.485h-0.614v-1.473c0-0.13-0.028-0.225-0.085-0.284c-0.057-0.059-0.151-0.088-0.282-0.088
		c-0.173,0-0.302,0.074-0.389,0.221v1.624h-0.614v-2.298H83.234z"/>
	<path class="st2" d="M87.224,37.882l-1.234-0.431v-0.59l1.85,0.775v0.499l-1.85,0.777v-0.593L87.224,37.882z"/>
	<path class="st2" d="M91.551,38.171c-0.024,0.333-0.147,0.595-0.369,0.786s-0.513,0.287-0.876,0.287
		c-0.396,0-0.708-0.133-0.936-0.4c-0.227-0.267-0.341-0.633-0.341-1.099v-0.189c0-0.297,0.052-0.559,0.157-0.786
		c0.105-0.227,0.254-0.4,0.449-0.521c0.194-0.121,0.421-0.182,0.679-0.182c0.357,0,0.644,0.096,0.862,0.287s0.344,0.459,0.378,0.805
		h-0.637c-0.016-0.2-0.072-0.344-0.167-0.434c-0.096-0.09-0.241-0.135-0.436-0.135c-0.212,0-0.372,0.076-0.477,0.228
		c-0.105,0.152-0.159,0.388-0.162,0.708v0.234c0,0.334,0.051,0.578,0.151,0.733c0.101,0.154,0.261,0.231,0.479,0.231
		c0.197,0,0.343-0.045,0.44-0.135s0.153-0.229,0.167-0.417H91.551z"/>
	<path class="st2" d="M93.111,37.478c-0.084-0.011-0.157-0.017-0.221-0.017c-0.232,0-0.384,0.079-0.457,0.236v1.504H91.82v-2.298
		h0.58l0.017,0.274c0.123-0.211,0.294-0.316,0.512-0.316c0.068,0,0.132,0.009,0.191,0.028L93.111,37.478z"/>
	<path class="st2" d="M94.315,39.243c-0.337,0-0.612-0.103-0.823-0.31s-0.317-0.482-0.317-0.826v-0.059
		c0-0.231,0.045-0.437,0.134-0.619c0.089-0.182,0.215-0.322,0.379-0.421c0.164-0.098,0.35-0.148,0.56-0.148
		c0.314,0,0.561,0.099,0.742,0.297c0.181,0.198,0.271,0.479,0.271,0.843v0.251h-1.463c0.02,0.15,0.079,0.27,0.179,0.361
		c0.1,0.091,0.227,0.136,0.379,0.136c0.236,0,0.421-0.086,0.554-0.257l0.302,0.338c-0.092,0.13-0.217,0.232-0.374,0.305
		C94.681,39.207,94.507,39.243,94.315,39.243z M94.245,37.355c-0.122,0-0.221,0.041-0.297,0.124c-0.076,0.082-0.124,0.2-0.145,0.354
		h0.854v-0.049c-0.003-0.136-0.04-0.242-0.11-0.317C94.476,37.392,94.376,37.355,94.245,37.355z"/>
	<path class="st2" d="M96.831,39.201c-0.028-0.055-0.049-0.124-0.062-0.206c-0.149,0.166-0.342,0.248-0.58,0.248
		c-0.225,0-0.411-0.065-0.559-0.195s-0.222-0.294-0.222-0.493c0-0.244,0.091-0.43,0.271-0.561c0.181-0.13,0.441-0.196,0.782-0.198
		h0.282v-0.132c0-0.106-0.027-0.191-0.081-0.255s-0.141-0.096-0.258-0.096c-0.103,0-0.184,0.025-0.243,0.074
		c-0.059,0.05-0.088,0.118-0.088,0.204h-0.614c0-0.133,0.041-0.256,0.123-0.37c0.082-0.113,0.198-0.202,0.348-0.267
		s0.319-0.097,0.505-0.097c0.283,0,0.508,0.071,0.675,0.213c0.166,0.142,0.249,0.342,0.249,0.6v0.996
		c0.001,0.218,0.032,0.383,0.091,0.495v0.036H96.831z M96.324,38.774c0.091,0,0.174-0.02,0.251-0.061
		c0.076-0.04,0.133-0.095,0.17-0.162v-0.395h-0.229c-0.307,0-0.471,0.106-0.491,0.319l-0.002,0.036c0,0.076,0.027,0.139,0.081,0.189
		C96.157,38.749,96.23,38.774,96.324,38.774z"/>
	<path class="st2" d="M98.458,36.338v0.565h0.393v0.45h-0.393V38.5c0,0.085,0.016,0.146,0.049,0.183
		c0.033,0.037,0.095,0.055,0.187,0.055c0.068,0,0.128-0.005,0.181-0.015v0.465c-0.12,0.037-0.244,0.055-0.372,0.055
		c-0.43,0-0.65-0.217-0.658-0.652v-1.238h-0.336v-0.45h0.336v-0.565H98.458z"/>
	<path class="st2" d="M100.142,39.243c-0.337,0-0.612-0.103-0.823-0.31s-0.317-0.482-0.317-0.826v-0.059
		c0-0.231,0.045-0.437,0.134-0.619c0.089-0.182,0.215-0.322,0.379-0.421c0.164-0.098,0.35-0.148,0.56-0.148
		c0.314,0,0.561,0.099,0.742,0.297c0.181,0.198,0.271,0.479,0.271,0.843v0.251h-1.463c0.02,0.15,0.079,0.27,0.179,0.361
		c0.1,0.091,0.227,0.136,0.379,0.136c0.236,0,0.421-0.086,0.554-0.257l0.302,0.338c-0.092,0.13-0.217,0.232-0.374,0.305
		C100.507,39.207,100.333,39.243,100.142,39.243z M100.072,37.355c-0.122,0-0.221,0.041-0.297,0.124
		c-0.076,0.082-0.124,0.2-0.145,0.354h0.854v-0.049c-0.003-0.136-0.04-0.242-0.11-0.317
		C100.302,37.392,100.202,37.355,100.072,37.355z"/>
	<path class="st3" d="M74.374,44.166l0.096,0.48l0.117-0.459l0.671-2.279h0.236l0.663,2.279l0.115,0.463l0.102-0.484l0.559-2.258
		h0.268L76.406,45h-0.251l-0.701-2.419l-0.079-0.306L75.3,42.581L74.582,45h-0.251l-0.79-3.092h0.268L74.374,44.166z"/>
	<path class="st3" d="M78.357,45.043c-0.195,0-0.372-0.048-0.53-0.144c-0.158-0.096-0.281-0.23-0.368-0.402
		c-0.088-0.172-0.132-0.365-0.132-0.579v-0.091c0-0.221,0.043-0.42,0.128-0.597c0.086-0.177,0.205-0.316,0.358-0.417
		c0.153-0.101,0.319-0.152,0.497-0.152c0.279,0,0.5,0.095,0.664,0.286c0.164,0.19,0.245,0.451,0.245,0.78v0.142h-1.64v0.049
		c0,0.261,0.075,0.477,0.224,0.651c0.149,0.173,0.337,0.26,0.564,0.26c0.136,0,0.256-0.025,0.36-0.074
		c0.104-0.05,0.199-0.129,0.284-0.238l0.159,0.121C78.984,44.907,78.713,45.043,78.357,45.043z M78.311,42.876
		c-0.191,0-0.352,0.07-0.483,0.21c-0.131,0.14-0.211,0.328-0.239,0.565h1.378v-0.028c-0.007-0.221-0.07-0.401-0.189-0.539
		C78.659,42.946,78.503,42.876,78.311,42.876z"/>
	<path class="st3" d="M80.839,45h-0.255v-3.262h0.255V45z"/>
	<path class="st3" d="M81.406,42.039c0-0.048,0.016-0.088,0.047-0.121c0.031-0.033,0.074-0.05,0.127-0.05s0.097,0.017,0.128,0.05
		c0.032,0.033,0.048,0.074,0.048,0.121c0,0.048-0.016,0.088-0.048,0.12c-0.032,0.032-0.075,0.048-0.128,0.048
		s-0.096-0.016-0.127-0.048C81.421,42.126,81.406,42.086,81.406,42.039z M81.705,45H81.45v-2.298h0.255V45z"/>
	<path class="st3" d="M83.663,44.416c0-0.126-0.051-0.227-0.152-0.304c-0.101-0.076-0.254-0.136-0.458-0.179
		c-0.204-0.043-0.362-0.093-0.475-0.149c-0.113-0.056-0.196-0.124-0.251-0.205c-0.055-0.081-0.082-0.178-0.082-0.293
		c0-0.181,0.076-0.331,0.227-0.449c0.151-0.118,0.345-0.177,0.582-0.177c0.256,0,0.462,0.063,0.617,0.19
		c0.155,0.127,0.233,0.292,0.233,0.496H83.65c0-0.135-0.056-0.246-0.169-0.336c-0.113-0.089-0.255-0.134-0.426-0.134
		c-0.167,0-0.301,0.037-0.402,0.111c-0.101,0.074-0.152,0.171-0.152,0.29c0,0.115,0.042,0.204,0.126,0.267
		c0.084,0.063,0.238,0.121,0.461,0.173c0.223,0.052,0.39,0.108,0.501,0.168c0.111,0.059,0.194,0.131,0.247,0.215
		c0.054,0.084,0.081,0.185,0.081,0.304c0,0.194-0.078,0.349-0.235,0.465c-0.156,0.116-0.361,0.174-0.613,0.174
		c-0.268,0-0.485-0.065-0.651-0.194c-0.166-0.13-0.25-0.293-0.25-0.492h0.255c0.01,0.149,0.073,0.264,0.188,0.347
		c0.115,0.083,0.268,0.124,0.458,0.124c0.177,0,0.32-0.039,0.429-0.117C83.608,44.633,83.663,44.535,83.663,44.416z"/>
	<path class="st3" d="M84.775,42.114v0.588h0.476v0.208h-0.476v1.533c0,0.127,0.023,0.223,0.069,0.285s0.123,0.093,0.23,0.093
		c0.042,0,0.111-0.007,0.206-0.021l0.011,0.206c-0.067,0.024-0.157,0.036-0.272,0.036c-0.174,0-0.301-0.051-0.38-0.152
		c-0.079-0.101-0.119-0.25-0.119-0.447V42.91h-0.423v-0.208h0.423v-0.588H84.775z"/>
	<path class="st3" d="M86.559,45.043c-0.195,0-0.372-0.048-0.53-0.144c-0.158-0.096-0.281-0.23-0.368-0.402
		c-0.088-0.172-0.132-0.365-0.132-0.579v-0.091c0-0.221,0.043-0.42,0.128-0.597c0.086-0.177,0.205-0.316,0.358-0.417
		c0.153-0.101,0.319-0.152,0.497-0.152c0.279,0,0.5,0.095,0.664,0.286c0.164,0.19,0.245,0.451,0.245,0.78v0.142h-1.64v0.049
		c0,0.261,0.075,0.477,0.224,0.651c0.149,0.173,0.337,0.26,0.564,0.26c0.136,0,0.256-0.025,0.36-0.074
		c0.104-0.05,0.199-0.129,0.284-0.238l0.159,0.121C87.186,44.907,86.914,45.043,86.559,45.043z M86.512,42.876
		c-0.191,0-0.352,0.07-0.483,0.21c-0.131,0.14-0.211,0.328-0.239,0.565h1.378v-0.028c-0.007-0.221-0.07-0.401-0.189-0.539
		C86.861,42.946,86.705,42.876,86.512,42.876z"/>
	<path class="st3" d="M88.049,42.702l0.008,0.393c0.086-0.142,0.194-0.25,0.323-0.324c0.129-0.074,0.271-0.111,0.427-0.111
		c0.246,0,0.43,0.069,0.55,0.208c0.12,0.139,0.181,0.347,0.183,0.624V45h-0.253v-1.51c-0.001-0.205-0.045-0.358-0.131-0.459
		c-0.086-0.101-0.223-0.151-0.411-0.151c-0.157,0-0.296,0.049-0.417,0.148c-0.121,0.098-0.211,0.231-0.269,0.398V45h-0.253v-2.298
		H88.049z"/>
	<path class="st3" d="M91.431,42.114v0.588h0.476v0.208h-0.476v1.533c0,0.127,0.023,0.223,0.069,0.285
		c0.046,0.062,0.122,0.093,0.23,0.093c0.042,0,0.111-0.007,0.206-0.021l0.011,0.206c-0.067,0.024-0.157,0.036-0.272,0.036
		c-0.174,0-0.301-0.051-0.38-0.152c-0.079-0.101-0.119-0.25-0.119-0.447V42.91h-0.423v-0.208h0.423v-0.588H91.431z"/>
	<path class="st3" d="M92.143,43.817c0-0.221,0.042-0.42,0.128-0.597c0.086-0.177,0.207-0.315,0.363-0.413
		c0.156-0.098,0.334-0.148,0.532-0.148c0.306,0,0.554,0.107,0.743,0.322c0.19,0.215,0.285,0.499,0.285,0.853v0.053
		c0,0.222-0.043,0.422-0.129,0.6s-0.206,0.315-0.362,0.411c-0.156,0.096-0.333,0.144-0.533,0.144c-0.304,0-0.552-0.107-0.743-0.322
		s-0.285-0.499-0.285-0.853V43.817z M92.398,43.887c0,0.275,0.071,0.5,0.213,0.676c0.142,0.176,0.329,0.264,0.56,0.264
		c0.229,0,0.415-0.088,0.557-0.264c0.142-0.176,0.214-0.409,0.214-0.698v-0.049c0-0.176-0.033-0.336-0.098-0.482
		s-0.156-0.259-0.274-0.339s-0.252-0.12-0.404-0.12c-0.227,0-0.411,0.089-0.554,0.267c-0.143,0.178-0.215,0.41-0.215,0.698V43.887z"
		/>
	<path class="st3" d="M96.287,44.635l0.671-1.933h0.274l-0.981,2.689L96.2,45.51c-0.126,0.279-0.321,0.418-0.584,0.418
		c-0.061,0-0.126-0.01-0.195-0.03l-0.002-0.21l0.132,0.013c0.125,0,0.226-0.031,0.303-0.092s0.142-0.167,0.196-0.318l0.113-0.31
		l-0.866-2.279h0.278L96.287,44.635z"/>
	<path class="st3" d="M97.345,43.817c0-0.221,0.042-0.42,0.128-0.597c0.086-0.177,0.207-0.315,0.363-0.413
		c0.156-0.098,0.334-0.148,0.532-0.148c0.306,0,0.554,0.107,0.743,0.322c0.19,0.215,0.285,0.499,0.285,0.853v0.053
		c0,0.222-0.043,0.422-0.129,0.6s-0.206,0.315-0.362,0.411c-0.156,0.096-0.333,0.144-0.533,0.144c-0.304,0-0.552-0.107-0.743-0.322
		s-0.285-0.499-0.285-0.853V43.817z M97.6,43.887c0,0.275,0.071,0.5,0.213,0.676c0.142,0.176,0.329,0.264,0.56,0.264
		c0.229,0,0.415-0.088,0.557-0.264c0.142-0.176,0.214-0.409,0.214-0.698v-0.049c0-0.176-0.033-0.336-0.098-0.482
		s-0.156-0.259-0.274-0.339s-0.252-0.12-0.404-0.12c-0.227,0-0.411,0.089-0.554,0.267c-0.143,0.178-0.215,0.41-0.215,0.698V43.887z"
		/>
	<path class="st3" d="M101.29,44.709c-0.153,0.222-0.397,0.333-0.733,0.333c-0.245,0-0.431-0.071-0.559-0.213
		c-0.127-0.142-0.193-0.353-0.195-0.632v-1.495h0.253v1.463c0,0.437,0.177,0.656,0.531,0.656c0.368,0,0.601-0.152,0.699-0.457
		v-1.663h0.255V45h-0.246L101.29,44.709z"/>
	<path class="st3" d="M103.154,42.919c-0.054-0.01-0.11-0.015-0.171-0.015c-0.159,0-0.293,0.044-0.404,0.133
		c-0.109,0.088-0.187,0.217-0.234,0.385V45h-0.253v-2.298h0.248l0.004,0.365c0.135-0.272,0.35-0.408,0.647-0.408
		c0.071,0,0.127,0.009,0.168,0.028L103.154,42.919z"/>
	<path class="st3" d="M104.638,42.702l0.008,0.393c0.086-0.142,0.194-0.25,0.323-0.324s0.271-0.111,0.427-0.111
		c0.246,0,0.43,0.069,0.55,0.208c0.12,0.139,0.181,0.347,0.183,0.624V45h-0.253v-1.51c-0.001-0.205-0.045-0.358-0.131-0.459
		c-0.086-0.101-0.222-0.151-0.411-0.151c-0.157,0-0.296,0.049-0.418,0.148c-0.12,0.098-0.21,0.231-0.268,0.398V45h-0.253v-2.298
		H104.638z"/>
	<path class="st3" d="M107.566,45.043c-0.195,0-0.372-0.048-0.53-0.144c-0.158-0.096-0.28-0.23-0.368-0.402
		c-0.088-0.172-0.132-0.365-0.132-0.579v-0.091c0-0.221,0.042-0.42,0.129-0.597c0.085-0.177,0.205-0.316,0.357-0.417
		c0.153-0.101,0.319-0.152,0.497-0.152c0.279,0,0.501,0.095,0.663,0.286c0.164,0.19,0.246,0.451,0.246,0.78v0.142h-1.64v0.049
		c0,0.261,0.074,0.477,0.224,0.651c0.149,0.173,0.337,0.26,0.564,0.26c0.136,0,0.256-0.025,0.36-0.074
		c0.105-0.05,0.199-0.129,0.284-0.238l0.159,0.121C108.193,44.907,107.922,45.043,107.566,45.043z M107.52,42.876
		c-0.191,0-0.353,0.07-0.484,0.21c-0.131,0.14-0.21,0.328-0.239,0.565h1.378v-0.028c-0.007-0.221-0.07-0.401-0.189-0.539
		C107.868,42.946,107.712,42.876,107.52,42.876z"/>
	<path class="st3" d="M109.704,45.043c-0.195,0-0.372-0.048-0.53-0.144c-0.158-0.096-0.28-0.23-0.368-0.402
		c-0.088-0.172-0.132-0.365-0.132-0.579v-0.091c0-0.221,0.042-0.42,0.129-0.597c0.085-0.177,0.205-0.316,0.357-0.417
		s0.319-0.152,0.497-0.152c0.279,0,0.501,0.095,0.663,0.286c0.164,0.19,0.246,0.451,0.246,0.78v0.142h-1.64v0.049
		c0,0.261,0.074,0.477,0.224,0.651c0.149,0.173,0.337,0.26,0.564,0.26c0.136,0,0.256-0.025,0.36-0.074
		c0.105-0.05,0.199-0.129,0.284-0.238l0.159,0.121C110.331,44.907,110.06,45.043,109.704,45.043z M109.658,42.876
		c-0.191,0-0.353,0.07-0.484,0.21c-0.131,0.14-0.21,0.328-0.239,0.565h1.378v-0.028c-0.007-0.221-0.07-0.401-0.189-0.539
		C110.006,42.946,109.85,42.876,109.658,42.876z"/>
	<path class="st3" d="M110.85,43.83c0-0.357,0.079-0.641,0.239-0.853c0.159-0.212,0.375-0.318,0.648-0.318
		c0.31,0,0.547,0.122,0.709,0.367v-1.289h0.253V45h-0.238l-0.011-0.306c-0.163,0.232-0.402,0.348-0.718,0.348
		c-0.265,0-0.479-0.107-0.64-0.32c-0.163-0.213-0.244-0.501-0.244-0.863V43.83z M111.107,43.875c0,0.293,0.059,0.524,0.176,0.693
		s0.283,0.254,0.497,0.254c0.313,0,0.535-0.138,0.667-0.414v-1.079c-0.132-0.299-0.353-0.448-0.663-0.448
		c-0.214,0-0.38,0.084-0.499,0.252C111.167,43.3,111.107,43.547,111.107,43.875z"/>
	<path class="st3" d="M114.637,44.416c0-0.126-0.051-0.227-0.151-0.304c-0.102-0.076-0.254-0.136-0.458-0.179
		c-0.204-0.043-0.362-0.093-0.475-0.149c-0.112-0.056-0.196-0.124-0.251-0.205c-0.055-0.081-0.081-0.178-0.081-0.293
		c0-0.181,0.076-0.331,0.227-0.449c0.151-0.118,0.345-0.177,0.582-0.177c0.256,0,0.462,0.063,0.617,0.19
		c0.154,0.127,0.232,0.292,0.232,0.496h-0.255c0-0.135-0.057-0.246-0.168-0.336c-0.113-0.089-0.255-0.134-0.426-0.134
		c-0.167,0-0.302,0.037-0.402,0.111c-0.102,0.074-0.152,0.171-0.152,0.29c0,0.115,0.042,0.204,0.127,0.267
		c0.084,0.063,0.238,0.121,0.46,0.173c0.224,0.052,0.39,0.108,0.501,0.168c0.111,0.059,0.194,0.131,0.248,0.215
		c0.054,0.084,0.081,0.185,0.081,0.304c0,0.194-0.079,0.349-0.235,0.465c-0.156,0.116-0.36,0.174-0.612,0.174
		c-0.268,0-0.485-0.065-0.651-0.194c-0.167-0.13-0.25-0.293-0.25-0.492h0.255c0.01,0.149,0.072,0.264,0.188,0.347
		c0.115,0.083,0.268,0.124,0.458,0.124c0.177,0,0.32-0.039,0.429-0.117C114.583,44.633,114.637,44.535,114.637,44.416z"/>
	<path class="st3" d="M115.301,45.578l-0.151-0.11c0.129-0.173,0.195-0.352,0.2-0.537v-0.329h0.248v0.265
		C115.598,45.161,115.499,45.398,115.301,45.578z"/>
	<path class="st3" d="M118.478,45c-0.025-0.072-0.042-0.179-0.049-0.321c-0.089,0.116-0.202,0.206-0.341,0.269
		c-0.137,0.063-0.284,0.095-0.438,0.095c-0.221,0-0.4-0.062-0.536-0.185c-0.137-0.123-0.205-0.279-0.205-0.467
		c0-0.224,0.093-0.401,0.279-0.531c0.186-0.13,0.446-0.195,0.779-0.195h0.461v-0.261c0-0.164-0.051-0.293-0.152-0.388
		c-0.101-0.094-0.248-0.141-0.442-0.141c-0.177,0-0.324,0.045-0.44,0.136c-0.116,0.091-0.174,0.2-0.174,0.327l-0.255-0.002
		c0-0.183,0.085-0.341,0.255-0.475s0.379-0.201,0.627-0.201c0.256,0,0.458,0.064,0.607,0.192c0.147,0.128,0.224,0.307,0.228,0.536
		v1.087c0,0.222,0.023,0.389,0.07,0.499V45H118.478z M117.679,44.818c0.17,0,0.322-0.041,0.455-0.123
		c0.135-0.082,0.231-0.192,0.292-0.329V43.86h-0.454c-0.253,0.003-0.452,0.049-0.595,0.139c-0.143,0.09-0.215,0.213-0.215,0.371
		c0,0.129,0.048,0.236,0.143,0.321C117.402,44.775,117.526,44.818,117.679,44.818z"/>
	<path class="st3" d="M119.49,42.702l0.008,0.393c0.086-0.142,0.194-0.25,0.323-0.324c0.129-0.074,0.271-0.111,0.427-0.111
		c0.246,0,0.43,0.069,0.55,0.208c0.12,0.139,0.181,0.347,0.183,0.624V45h-0.253v-1.51c-0.001-0.205-0.045-0.358-0.131-0.459
		c-0.086-0.101-0.222-0.151-0.411-0.151c-0.157,0-0.296,0.049-0.418,0.148c-0.12,0.098-0.21,0.231-0.268,0.398V45h-0.253v-2.298
		H119.49z"/>
	<path class="st3" d="M121.427,43.83c0-0.357,0.079-0.641,0.239-0.853c0.159-0.212,0.375-0.318,0.648-0.318
		c0.31,0,0.547,0.122,0.709,0.367v-1.289h0.253V45h-0.238l-0.011-0.306c-0.163,0.232-0.402,0.348-0.718,0.348
		c-0.265,0-0.479-0.107-0.64-0.32c-0.163-0.213-0.244-0.501-0.244-0.863V43.83z M121.684,43.875c0,0.293,0.059,0.524,0.176,0.693
		s0.283,0.254,0.497,0.254c0.313,0,0.535-0.138,0.667-0.414v-1.079c-0.132-0.299-0.353-0.448-0.663-0.448
		c-0.214,0-0.38,0.084-0.499,0.252C121.743,43.3,121.684,43.547,121.684,43.875z"/>
	<path class="st3" d="M125.181,42.114v0.588h0.476v0.208h-0.476v1.533c0,0.127,0.023,0.223,0.069,0.285
		c0.045,0.062,0.122,0.093,0.23,0.093c0.042,0,0.111-0.007,0.206-0.021l0.011,0.206c-0.067,0.024-0.157,0.036-0.272,0.036
		c-0.174,0-0.301-0.051-0.38-0.152s-0.119-0.25-0.119-0.447V42.91h-0.423v-0.208h0.423v-0.588H125.181z"/>
	<path class="st3" d="M126.327,43.091c0.084-0.137,0.19-0.244,0.321-0.319c0.13-0.075,0.273-0.113,0.427-0.113
		c0.246,0,0.43,0.069,0.55,0.208c0.12,0.139,0.181,0.347,0.183,0.624V45h-0.253v-1.51c-0.001-0.205-0.045-0.358-0.131-0.459
		c-0.086-0.101-0.222-0.151-0.411-0.151c-0.157,0-0.296,0.049-0.418,0.148c-0.12,0.098-0.21,0.231-0.268,0.398V45h-0.253v-3.262
		h0.253V43.091z"/>
	<path class="st3" d="M129.242,45.043c-0.195,0-0.372-0.048-0.53-0.144c-0.158-0.096-0.28-0.23-0.368-0.402
		c-0.088-0.172-0.132-0.365-0.132-0.579v-0.091c0-0.221,0.042-0.42,0.129-0.597c0.085-0.177,0.205-0.316,0.358-0.417
		c0.153-0.101,0.319-0.152,0.497-0.152c0.279,0,0.501,0.095,0.663,0.286c0.164,0.19,0.246,0.451,0.246,0.78v0.142h-1.64v0.049
		c0,0.261,0.074,0.477,0.224,0.651c0.149,0.173,0.337,0.26,0.564,0.26c0.136,0,0.256-0.025,0.36-0.074
		c0.105-0.05,0.199-0.129,0.284-0.238l0.159,0.121C129.869,44.907,129.598,45.043,129.242,45.043z M129.196,42.876
		c-0.191,0-0.353,0.07-0.484,0.21c-0.131,0.14-0.21,0.328-0.239,0.565h1.378v-0.028c-0.007-0.221-0.07-0.401-0.189-0.539
		C129.544,42.946,129.388,42.876,129.196,42.876z"/>
	<path class="st3" d="M130.733,42.702l0.008,0.393c0.086-0.142,0.194-0.25,0.323-0.324s0.271-0.111,0.427-0.111
		c0.246,0,0.43,0.069,0.55,0.208c0.12,0.139,0.181,0.347,0.183,0.624V45h-0.253v-1.51c-0.001-0.205-0.045-0.358-0.131-0.459
		c-0.086-0.101-0.222-0.151-0.411-0.151c-0.157,0-0.296,0.049-0.418,0.148c-0.12,0.098-0.21,0.231-0.268,0.398V45h-0.253v-2.298
		H130.733z"/>
	<path class="st3" d="M74.592,50.627c0.177,0,0.325-0.05,0.445-0.15c0.12-0.1,0.184-0.229,0.194-0.388h0.244
		c-0.007,0.14-0.051,0.268-0.132,0.383s-0.188,0.206-0.322,0.271c-0.134,0.065-0.277,0.098-0.43,0.098
		c-0.302,0-0.54-0.105-0.717-0.314c-0.176-0.21-0.264-0.491-0.264-0.845v-0.076c0-0.227,0.04-0.427,0.119-0.601
		s0.193-0.309,0.341-0.404c0.148-0.095,0.321-0.142,0.519-0.142c0.252,0,0.46,0.075,0.623,0.225c0.164,0.15,0.251,0.348,0.262,0.593
		h-0.244c-0.011-0.18-0.076-0.325-0.194-0.435c-0.118-0.11-0.267-0.166-0.447-0.166c-0.229,0-0.407,0.083-0.534,0.248
		c-0.127,0.166-0.19,0.398-0.19,0.697v0.074c0,0.293,0.063,0.522,0.19,0.686C74.183,50.545,74.362,50.627,74.592,50.627z"/>
	<path class="st3" d="M77.353,50.509c-0.153,0.222-0.397,0.333-0.733,0.333c-0.245,0-0.431-0.071-0.559-0.213
		c-0.127-0.142-0.193-0.353-0.195-0.632v-1.495h0.253v1.463c0,0.437,0.177,0.656,0.531,0.656c0.368,0,0.601-0.152,0.699-0.457
		v-1.663h0.255v2.298h-0.246L77.353,50.509z"/>
	<path class="st3" d="M79.532,50.215c0-0.126-0.051-0.227-0.152-0.304c-0.101-0.076-0.254-0.136-0.458-0.179
		c-0.204-0.043-0.362-0.093-0.475-0.149c-0.113-0.056-0.196-0.124-0.251-0.205c-0.055-0.081-0.082-0.178-0.082-0.293
		c0-0.181,0.076-0.331,0.227-0.449c0.151-0.118,0.345-0.177,0.582-0.177c0.256,0,0.462,0.063,0.617,0.19
		c0.155,0.127,0.233,0.292,0.233,0.496h-0.255c0-0.135-0.056-0.246-0.169-0.336c-0.113-0.089-0.255-0.134-0.426-0.134
		c-0.167,0-0.301,0.037-0.402,0.111s-0.152,0.171-0.152,0.29c0,0.115,0.042,0.204,0.126,0.267c0.084,0.063,0.238,0.121,0.461,0.173
		c0.223,0.052,0.39,0.108,0.501,0.168c0.111,0.059,0.194,0.131,0.247,0.215s0.081,0.185,0.081,0.304
		c0,0.194-0.078,0.349-0.235,0.465c-0.156,0.116-0.361,0.174-0.613,0.174c-0.268,0-0.485-0.065-0.651-0.194
		c-0.166-0.13-0.25-0.293-0.25-0.492h0.255c0.01,0.149,0.073,0.264,0.188,0.347c0.115,0.083,0.268,0.124,0.458,0.124
		c0.177,0,0.32-0.039,0.429-0.117C79.477,50.433,79.532,50.334,79.532,50.215z"/>
	<path class="st3" d="M80.644,47.913v0.588h0.476v0.208h-0.476v1.533c0,0.127,0.023,0.223,0.069,0.285s0.123,0.093,0.23,0.093
		c0.042,0,0.111-0.007,0.206-0.021l0.011,0.206c-0.067,0.024-0.157,0.036-0.272,0.036c-0.174,0-0.301-0.051-0.38-0.152
		c-0.079-0.101-0.119-0.25-0.119-0.447V48.71h-0.423v-0.208h0.423v-0.588H80.644z"/>
	<path class="st3" d="M81.355,49.617c0-0.221,0.043-0.42,0.128-0.597c0.086-0.177,0.207-0.315,0.363-0.413
		c0.156-0.098,0.334-0.148,0.532-0.148c0.306,0,0.554,0.107,0.743,0.322c0.19,0.215,0.285,0.499,0.285,0.853v0.053
		c0,0.222-0.043,0.422-0.128,0.6c-0.086,0.178-0.206,0.315-0.362,0.411c-0.156,0.096-0.333,0.144-0.533,0.144
		c-0.304,0-0.552-0.107-0.742-0.322s-0.286-0.499-0.286-0.853V49.617z M81.61,49.687c0,0.275,0.071,0.5,0.213,0.676
		c0.142,0.176,0.329,0.264,0.56,0.264c0.229,0,0.415-0.088,0.557-0.264c0.142-0.176,0.213-0.409,0.213-0.698v-0.049
		c0-0.176-0.033-0.336-0.098-0.482c-0.065-0.146-0.156-0.259-0.274-0.339c-0.118-0.08-0.252-0.12-0.404-0.12
		c-0.227,0-0.411,0.089-0.554,0.267c-0.143,0.178-0.215,0.41-0.215,0.698V49.687z"/>
	<path class="st3" d="M84.054,48.502l0.008,0.374c0.085-0.139,0.191-0.243,0.319-0.312c0.127-0.069,0.269-0.104,0.425-0.104
		c0.362,0,0.593,0.149,0.69,0.446c0.082-0.143,0.192-0.253,0.329-0.33s0.289-0.116,0.454-0.116c0.493,0,0.744,0.269,0.754,0.807
		v1.533h-0.255v-1.514c-0.001-0.205-0.046-0.358-0.133-0.457s-0.229-0.149-0.426-0.149c-0.183,0.003-0.337,0.062-0.463,0.177
		c-0.126,0.115-0.196,0.256-0.21,0.422v1.521h-0.255v-1.533c-0.001-0.197-0.048-0.344-0.139-0.441s-0.232-0.145-0.422-0.145
		c-0.16,0-0.297,0.046-0.412,0.137c-0.115,0.091-0.2,0.227-0.255,0.407v1.576h-0.255v-2.298H84.054z"/>
	<path class="st3" d="M88.358,49.542h-1.017v-0.215h1.017V49.542z"/>
	<path class="st3" d="M89.554,50.627c0.177,0,0.325-0.05,0.445-0.15c0.12-0.1,0.184-0.229,0.194-0.388h0.244
		c-0.007,0.14-0.051,0.268-0.132,0.383c-0.081,0.115-0.188,0.206-0.321,0.271c-0.134,0.065-0.277,0.098-0.43,0.098
		c-0.302,0-0.541-0.105-0.717-0.314s-0.264-0.491-0.264-0.845v-0.076c0-0.227,0.04-0.427,0.119-0.601
		c0.079-0.174,0.193-0.309,0.341-0.404c0.148-0.095,0.321-0.142,0.519-0.142c0.252,0,0.46,0.075,0.623,0.225
		c0.164,0.15,0.251,0.348,0.262,0.593h-0.244c-0.011-0.18-0.076-0.325-0.194-0.435c-0.118-0.11-0.267-0.166-0.447-0.166
		c-0.229,0-0.407,0.083-0.534,0.248s-0.19,0.398-0.19,0.697v0.074c0,0.293,0.063,0.522,0.19,0.686S89.323,50.627,89.554,50.627z"/>
	<path class="st3" d="M91.897,48.718c-0.054-0.01-0.111-0.015-0.172-0.015c-0.159,0-0.292,0.044-0.402,0.133
		c-0.11,0.088-0.188,0.217-0.235,0.385v1.578h-0.253v-2.298h0.248l0.004,0.365c0.135-0.272,0.35-0.408,0.648-0.408
		c0.071,0,0.127,0.009,0.168,0.028L91.897,48.718z"/>
	<path class="st3" d="M93.04,50.842c-0.195,0-0.372-0.048-0.53-0.144c-0.158-0.096-0.28-0.23-0.368-0.402
		c-0.088-0.172-0.132-0.365-0.132-0.579v-0.091c0-0.221,0.042-0.42,0.128-0.597c0.086-0.177,0.205-0.316,0.358-0.417
		c0.153-0.101,0.319-0.152,0.497-0.152c0.279,0,0.5,0.095,0.663,0.286c0.164,0.19,0.246,0.451,0.246,0.78v0.142h-1.64v0.049
		c0,0.261,0.074,0.477,0.224,0.651c0.149,0.173,0.338,0.26,0.564,0.26c0.136,0,0.256-0.025,0.36-0.074
		c0.104-0.05,0.199-0.129,0.284-0.238l0.159,0.121C93.666,50.707,93.395,50.842,93.04,50.842z M92.993,48.676
		c-0.191,0-0.353,0.07-0.484,0.21s-0.21,0.328-0.239,0.565h1.378v-0.028c-0.007-0.221-0.07-0.401-0.189-0.539
		C93.341,48.745,93.186,48.676,92.993,48.676z"/>
	<path class="st3" d="M95.738,50.799c-0.025-0.072-0.042-0.179-0.049-0.321c-0.089,0.116-0.202,0.206-0.341,0.269
		c-0.138,0.063-0.285,0.095-0.439,0.095c-0.221,0-0.399-0.062-0.536-0.185c-0.137-0.123-0.205-0.279-0.205-0.467
		c0-0.224,0.093-0.401,0.28-0.531c0.186-0.13,0.445-0.195,0.778-0.195h0.461v-0.261c0-0.164-0.05-0.293-0.151-0.388
		c-0.101-0.094-0.249-0.141-0.443-0.141c-0.177,0-0.324,0.045-0.44,0.136s-0.174,0.2-0.174,0.327l-0.255-0.002
		c0-0.183,0.085-0.341,0.255-0.475c0.17-0.134,0.379-0.201,0.627-0.201c0.256,0,0.459,0.064,0.607,0.192
		c0.148,0.128,0.224,0.307,0.228,0.536v1.087c0,0.222,0.023,0.389,0.07,0.499v0.025H95.738z M94.94,50.617
		c0.17,0,0.322-0.041,0.456-0.123c0.134-0.082,0.231-0.192,0.292-0.329v-0.505h-0.454c-0.253,0.003-0.452,0.049-0.595,0.139
		c-0.143,0.09-0.215,0.213-0.215,0.371c0,0.129,0.048,0.236,0.144,0.321C94.663,50.574,94.787,50.617,94.94,50.617z"/>
	<path class="st3" d="M96.904,47.913v0.588h0.476v0.208h-0.476v1.533c0,0.127,0.023,0.223,0.069,0.285
		c0.046,0.062,0.123,0.093,0.231,0.093c0.042,0,0.111-0.007,0.206-0.021l0.011,0.206c-0.067,0.024-0.157,0.036-0.272,0.036
		c-0.174,0-0.301-0.051-0.38-0.152c-0.079-0.101-0.119-0.25-0.119-0.447V48.71h-0.423v-0.208h0.423v-0.588H96.904z"/>
	<path class="st3" d="M98.688,50.842c-0.195,0-0.372-0.048-0.53-0.144c-0.158-0.096-0.281-0.23-0.369-0.402
		c-0.088-0.172-0.132-0.365-0.132-0.579v-0.091c0-0.221,0.043-0.42,0.129-0.597c0.086-0.177,0.205-0.316,0.358-0.417
		c0.153-0.101,0.319-0.152,0.497-0.152c0.279,0,0.501,0.095,0.664,0.286c0.164,0.19,0.245,0.451,0.245,0.78v0.142h-1.64v0.049
		c0,0.261,0.075,0.477,0.224,0.651c0.149,0.173,0.337,0.26,0.564,0.26c0.136,0,0.256-0.025,0.36-0.074
		c0.104-0.05,0.198-0.129,0.283-0.238l0.159,0.121C99.314,50.707,99.043,50.842,98.688,50.842z M98.641,48.676
		c-0.191,0-0.352,0.07-0.483,0.21s-0.211,0.328-0.239,0.565h1.378v-0.028c-0.007-0.221-0.07-0.401-0.189-0.539
		C98.989,48.745,98.833,48.676,98.641,48.676z"/>
	<path class="st3" d="M102.336,50.799c-0.025-0.072-0.042-0.179-0.05-0.321c-0.088,0.116-0.202,0.206-0.341,0.269
		c-0.138,0.063-0.284,0.095-0.438,0.095c-0.221,0-0.4-0.062-0.537-0.185c-0.137-0.123-0.205-0.279-0.205-0.467
		c0-0.224,0.093-0.401,0.279-0.531c0.186-0.13,0.446-0.195,0.779-0.195h0.461v-0.261c0-0.164-0.051-0.293-0.152-0.388
		c-0.101-0.094-0.248-0.141-0.442-0.141c-0.177,0-0.324,0.045-0.44,0.136c-0.116,0.091-0.174,0.2-0.174,0.327l-0.255-0.002
		c0-0.183,0.085-0.341,0.255-0.475s0.379-0.201,0.627-0.201c0.256,0,0.458,0.064,0.606,0.192c0.148,0.128,0.224,0.307,0.228,0.536
		v1.087c0,0.222,0.024,0.389,0.071,0.499v0.025H102.336z M101.537,50.617c0.17,0,0.321-0.041,0.455-0.123s0.231-0.192,0.292-0.329
		v-0.505h-0.454c-0.253,0.003-0.452,0.049-0.595,0.139c-0.143,0.09-0.215,0.213-0.215,0.371c0,0.129,0.047,0.236,0.143,0.321
		C101.259,50.574,101.384,50.617,101.537,50.617z"/>
	<path class="st3" d="M104.904,50.627c0.177,0,0.325-0.05,0.445-0.15c0.12-0.1,0.185-0.229,0.195-0.388h0.244
		c-0.007,0.14-0.051,0.268-0.132,0.383s-0.188,0.206-0.321,0.271c-0.135,0.065-0.278,0.098-0.43,0.098
		c-0.302,0-0.541-0.105-0.716-0.314c-0.177-0.21-0.265-0.491-0.265-0.845v-0.076c0-0.227,0.04-0.427,0.119-0.601
		c0.079-0.174,0.193-0.309,0.341-0.404c0.147-0.095,0.321-0.142,0.519-0.142c0.252,0,0.459,0.075,0.624,0.225
		c0.163,0.15,0.251,0.348,0.262,0.593h-0.244c-0.011-0.18-0.076-0.325-0.195-0.435c-0.118-0.11-0.267-0.166-0.447-0.166
		c-0.229,0-0.408,0.083-0.534,0.248c-0.127,0.166-0.19,0.398-0.19,0.697v0.074c0,0.293,0.063,0.522,0.19,0.686
		C104.494,50.545,104.673,50.627,104.904,50.627z"/>
	<path class="st3" d="M107.665,50.509c-0.153,0.222-0.397,0.333-0.733,0.333c-0.245,0-0.431-0.071-0.559-0.213
		c-0.127-0.142-0.193-0.353-0.195-0.632v-1.495h0.253v1.463c0,0.437,0.177,0.656,0.531,0.656c0.368,0,0.601-0.152,0.699-0.457
		v-1.663h0.255v2.298h-0.246L107.665,50.509z"/>
	<path class="st3" d="M109.529,48.718c-0.054-0.01-0.111-0.015-0.172-0.015c-0.159,0-0.293,0.044-0.403,0.133
		c-0.11,0.088-0.188,0.217-0.234,0.385v1.578h-0.253v-2.298h0.248l0.004,0.365c0.135-0.272,0.35-0.408,0.648-0.408
		c0.071,0,0.127,0.009,0.168,0.028L109.529,48.718z"/>
	<path class="st3" d="M110.884,48.718c-0.054-0.01-0.111-0.015-0.172-0.015c-0.159,0-0.293,0.044-0.403,0.133
		c-0.11,0.088-0.188,0.217-0.234,0.385v1.578h-0.253v-2.298h0.248l0.004,0.365c0.135-0.272,0.35-0.408,0.648-0.408
		c0.071,0,0.127,0.009,0.168,0.028L110.884,48.718z"/>
	<path class="st3" d="M111.161,47.838c0-0.048,0.016-0.088,0.047-0.121c0.031-0.033,0.074-0.05,0.127-0.05s0.097,0.017,0.128,0.05
		c0.033,0.033,0.048,0.074,0.048,0.121c0,0.048-0.016,0.088-0.048,0.12c-0.031,0.032-0.074,0.048-0.128,0.048
		s-0.096-0.016-0.127-0.048C111.177,47.926,111.161,47.886,111.161,47.838z M111.461,50.799h-0.255v-2.298h0.255V50.799z"/>
	<path class="st3" d="M112.891,50.627c0.177,0,0.325-0.05,0.445-0.15c0.12-0.1,0.185-0.229,0.195-0.388h0.244
		c-0.007,0.14-0.051,0.268-0.132,0.383s-0.188,0.206-0.321,0.271c-0.135,0.065-0.278,0.098-0.43,0.098
		c-0.302,0-0.541-0.105-0.716-0.314c-0.177-0.21-0.265-0.491-0.265-0.845v-0.076c0-0.227,0.04-0.427,0.119-0.601
		c0.079-0.174,0.193-0.309,0.341-0.404c0.147-0.095,0.321-0.142,0.519-0.142c0.252,0,0.459,0.075,0.624,0.225
		c0.163,0.15,0.251,0.348,0.262,0.593h-0.244c-0.011-0.18-0.076-0.325-0.195-0.435c-0.118-0.11-0.267-0.166-0.447-0.166
		c-0.229,0-0.408,0.083-0.534,0.248c-0.127,0.166-0.19,0.398-0.19,0.697v0.074c0,0.293,0.063,0.522,0.19,0.686
		C112.481,50.545,112.661,50.627,112.891,50.627z"/>
	<path class="st3" d="M115.652,50.509c-0.153,0.222-0.397,0.333-0.733,0.333c-0.245,0-0.431-0.071-0.559-0.213
		c-0.127-0.142-0.193-0.353-0.195-0.632v-1.495h0.253v1.463c0,0.437,0.177,0.656,0.531,0.656c0.368,0,0.601-0.152,0.699-0.457
		v-1.663h0.255v2.298h-0.246L115.652,50.509z"/>
	<path class="st3" d="M116.739,50.799h-0.255v-3.262h0.255V50.799z"/>
	<path class="st3" d="M118.799,50.509c-0.153,0.222-0.397,0.333-0.733,0.333c-0.245,0-0.431-0.071-0.559-0.213
		c-0.127-0.142-0.193-0.353-0.195-0.632v-1.495h0.253v1.463c0,0.437,0.177,0.656,0.531,0.656c0.368,0,0.601-0.152,0.699-0.457
		v-1.663h0.255v2.298h-0.246L118.799,50.509z"/>
	<path class="st3" d="M119.833,48.502l0.008,0.374c0.085-0.139,0.191-0.243,0.319-0.312c0.127-0.069,0.269-0.104,0.425-0.104
		c0.362,0,0.593,0.149,0.69,0.446c0.082-0.143,0.192-0.253,0.329-0.33s0.289-0.116,0.454-0.116c0.493,0,0.744,0.269,0.754,0.807
		v1.533h-0.255v-1.514c-0.001-0.205-0.045-0.358-0.133-0.457c-0.086-0.099-0.229-0.149-0.425-0.149
		c-0.183,0.003-0.337,0.062-0.463,0.177c-0.126,0.115-0.196,0.256-0.21,0.422v1.521h-0.255v-1.533
		c-0.001-0.197-0.048-0.344-0.139-0.441c-0.092-0.097-0.232-0.145-0.422-0.145c-0.16,0-0.297,0.046-0.412,0.137
		c-0.115,0.091-0.2,0.227-0.255,0.407v1.576h-0.255v-2.298H119.833z"/>
	<path class="st3" d="M126.146,49.674c0,0.358-0.079,0.642-0.238,0.853c-0.159,0.21-0.372,0.315-0.639,0.315
		c-0.32,0-0.562-0.119-0.726-0.357l-0.011,0.314h-0.238v-3.262h0.253v1.298c0.161-0.251,0.401-0.376,0.718-0.376
		c0.272,0,0.486,0.104,0.644,0.311s0.237,0.496,0.237,0.865V49.674z M125.891,49.629c0-0.303-0.059-0.537-0.176-0.702
		c-0.118-0.165-0.283-0.247-0.497-0.247c-0.163,0-0.301,0.04-0.414,0.12c-0.113,0.08-0.199,0.197-0.257,0.351v1.036
		c0.127,0.289,0.353,0.433,0.675,0.433c0.21,0,0.373-0.083,0.491-0.248S125.891,49.959,125.891,49.629z"/>
	<path class="st3" d="M126.882,50.799h-0.255v-3.262h0.255V50.799z"/>
	<path class="st3" d="M127.324,49.617c0-0.221,0.042-0.42,0.129-0.597c0.085-0.177,0.206-0.315,0.362-0.413
		c0.156-0.098,0.334-0.148,0.532-0.148c0.306,0,0.554,0.107,0.743,0.322c0.19,0.215,0.285,0.499,0.285,0.853v0.053
		c0,0.222-0.043,0.422-0.129,0.6s-0.206,0.315-0.362,0.411c-0.156,0.096-0.333,0.144-0.533,0.144c-0.304,0-0.552-0.107-0.742-0.322
		c-0.191-0.215-0.286-0.499-0.286-0.853V49.617z M127.579,49.687c0,0.275,0.071,0.5,0.214,0.676
		c0.142,0.176,0.328,0.264,0.559,0.264c0.229,0,0.415-0.088,0.558-0.264c0.142-0.176,0.213-0.409,0.213-0.698v-0.049
		c0-0.176-0.033-0.336-0.098-0.482c-0.065-0.146-0.156-0.259-0.274-0.339c-0.118-0.08-0.252-0.12-0.404-0.12
		c-0.227,0-0.411,0.089-0.554,0.267c-0.143,0.178-0.215,0.41-0.215,0.698V49.687z"/>
	<path class="st3" d="M130.64,50.627c0.177,0,0.325-0.05,0.445-0.15c0.12-0.1,0.185-0.229,0.195-0.388h0.244
		c-0.007,0.14-0.051,0.268-0.132,0.383s-0.188,0.206-0.321,0.271c-0.135,0.065-0.278,0.098-0.43,0.098
		c-0.302,0-0.541-0.105-0.716-0.314c-0.177-0.21-0.265-0.491-0.265-0.845v-0.076c0-0.227,0.04-0.427,0.119-0.601
		s0.193-0.309,0.341-0.404c0.147-0.095,0.321-0.142,0.519-0.142c0.252,0,0.459,0.075,0.624,0.225
		c0.163,0.15,0.251,0.348,0.262,0.593h-0.244c-0.011-0.18-0.076-0.325-0.195-0.435c-0.118-0.11-0.267-0.166-0.447-0.166
		c-0.229,0-0.408,0.083-0.534,0.248c-0.127,0.166-0.19,0.398-0.19,0.697v0.074c0,0.293,0.063,0.522,0.19,0.686
		C130.231,50.545,130.41,50.627,130.64,50.627z"/>
	<path class="st3" d="M132.468,49.642l-0.291,0.28v0.877h-0.255v-3.262h0.255v2.088l0.24-0.259l0.879-0.864h0.321l-0.975,0.968
		l1.06,1.329h-0.304L132.468,49.642z"/>
	<path class="st3" d="M74.138,53.712v0.588h0.476v0.208h-0.476v1.533c0,0.128,0.023,0.223,0.069,0.285
		c0.046,0.062,0.123,0.093,0.23,0.093c0.042,0,0.111-0.007,0.206-0.021l0.011,0.206c-0.067,0.024-0.157,0.036-0.272,0.036
		c-0.174,0-0.301-0.05-0.38-0.151c-0.079-0.101-0.119-0.251-0.119-0.447v-1.533H73.46v-0.208h0.423v-0.588H74.138z"/>
	<path class="st3" d="M75.284,54.689c0.084-0.137,0.19-0.244,0.321-0.319c0.13-0.075,0.273-0.113,0.427-0.113
		c0.246,0,0.43,0.069,0.55,0.208c0.12,0.139,0.181,0.347,0.183,0.624v1.508h-0.253v-1.51c-0.001-0.205-0.045-0.358-0.131-0.459
		c-0.086-0.101-0.223-0.151-0.411-0.151c-0.157,0-0.296,0.05-0.417,0.147c-0.121,0.099-0.211,0.231-0.269,0.399v1.574h-0.253v-3.262
		h0.253V54.689z"/>
	<path class="st3" d="M78.761,56.598c-0.025-0.072-0.042-0.179-0.049-0.321c-0.089,0.116-0.203,0.206-0.341,0.268
		c-0.138,0.063-0.284,0.095-0.439,0.095c-0.221,0-0.4-0.062-0.536-0.185c-0.137-0.123-0.205-0.279-0.205-0.467
		c0-0.224,0.093-0.401,0.279-0.531c0.186-0.13,0.446-0.195,0.778-0.195h0.461v-0.261c0-0.164-0.051-0.293-0.152-0.388
		c-0.101-0.093-0.249-0.141-0.443-0.141c-0.177,0-0.324,0.045-0.44,0.136c-0.116,0.091-0.174,0.2-0.174,0.327l-0.255-0.002
		c0-0.183,0.085-0.341,0.255-0.474c0.17-0.135,0.379-0.201,0.627-0.201c0.256,0,0.458,0.064,0.606,0.193
		c0.148,0.128,0.224,0.307,0.228,0.536v1.087c0,0.222,0.023,0.389,0.07,0.499v0.025H78.761z M77.962,56.416
		c0.17,0,0.322-0.041,0.456-0.123s0.231-0.192,0.292-0.329v-0.505h-0.454c-0.253,0.003-0.452,0.05-0.595,0.139
		c-0.143,0.09-0.215,0.213-0.215,0.37c0,0.129,0.048,0.236,0.143,0.321C77.685,56.373,77.809,56.416,77.962,56.416z"/>
	<path class="st3" d="M79.926,53.712v0.588h0.476v0.208h-0.476v1.533c0,0.128,0.023,0.223,0.069,0.285
		c0.046,0.062,0.123,0.093,0.23,0.093c0.042,0,0.111-0.007,0.206-0.021l0.011,0.206c-0.067,0.024-0.157,0.036-0.272,0.036
		c-0.174,0-0.301-0.05-0.38-0.151c-0.079-0.101-0.119-0.251-0.119-0.447v-1.533h-0.423v-0.208h0.423v-0.588H79.926z"/>
	<path class="st3" d="M82.618,56.426c0.177,0,0.325-0.05,0.445-0.149c0.12-0.101,0.184-0.229,0.194-0.388h0.244
		c-0.007,0.14-0.051,0.268-0.132,0.384c-0.081,0.115-0.188,0.205-0.322,0.27c-0.134,0.065-0.277,0.098-0.43,0.098
		c-0.302,0-0.541-0.105-0.717-0.314c-0.176-0.21-0.264-0.491-0.264-0.845v-0.076c0-0.227,0.04-0.427,0.119-0.601
		c0.079-0.174,0.193-0.309,0.341-0.404c0.148-0.095,0.321-0.142,0.519-0.142c0.252,0,0.46,0.075,0.623,0.225
		c0.164,0.15,0.251,0.348,0.262,0.593h-0.244c-0.011-0.18-0.076-0.325-0.194-0.435c-0.118-0.11-0.267-0.166-0.447-0.166
		c-0.229,0-0.407,0.083-0.534,0.248c-0.127,0.166-0.19,0.398-0.19,0.697v0.074c0,0.293,0.063,0.522,0.19,0.686
		S82.387,56.426,82.618,56.426z"/>
	<path class="st3" d="M84.79,56.641c-0.195,0-0.372-0.048-0.53-0.144c-0.158-0.096-0.281-0.231-0.368-0.402
		c-0.088-0.173-0.132-0.365-0.132-0.579v-0.091c0-0.221,0.043-0.42,0.128-0.597c0.086-0.177,0.205-0.316,0.358-0.418
		c0.153-0.101,0.319-0.151,0.497-0.151c0.279,0,0.5,0.096,0.664,0.286c0.164,0.19,0.245,0.45,0.245,0.78v0.142h-1.64v0.049
		c0,0.261,0.075,0.478,0.224,0.651c0.149,0.173,0.337,0.26,0.564,0.26c0.136,0,0.256-0.025,0.36-0.074
		c0.104-0.05,0.199-0.129,0.284-0.238l0.159,0.121C85.417,56.506,85.146,56.641,84.79,56.641z M84.744,54.475
		c-0.191,0-0.352,0.07-0.483,0.21c-0.131,0.14-0.211,0.328-0.239,0.565H85.4v-0.028c-0.007-0.221-0.07-0.401-0.189-0.539
		C85.092,54.544,84.936,54.475,84.744,54.475z"/>
	<path class="st3" d="M86.281,54.301l0.008,0.393c0.086-0.142,0.194-0.25,0.323-0.324c0.129-0.075,0.271-0.112,0.427-0.112
		c0.246,0,0.43,0.069,0.55,0.208c0.12,0.139,0.181,0.347,0.183,0.624v1.508h-0.253v-1.51c-0.001-0.205-0.045-0.358-0.131-0.459
		c-0.086-0.101-0.223-0.151-0.411-0.151c-0.157,0-0.296,0.05-0.417,0.147c-0.121,0.099-0.211,0.231-0.269,0.399v1.574h-0.253v-2.298
		H86.281z"/>
	<path class="st3" d="M88.714,53.712v0.588h0.476v0.208h-0.476v1.533c0,0.128,0.023,0.223,0.069,0.285s0.123,0.093,0.23,0.093
		c0.042,0,0.111-0.007,0.206-0.021l0.011,0.206c-0.067,0.024-0.157,0.036-0.272,0.036c-0.174,0-0.301-0.05-0.38-0.151
		c-0.079-0.101-0.119-0.251-0.119-0.447v-1.533h-0.423v-0.208h0.423v-0.588H88.714z"/>
	<path class="st3" d="M90.498,56.641c-0.195,0-0.372-0.048-0.53-0.144c-0.158-0.096-0.28-0.231-0.368-0.402
		c-0.088-0.173-0.132-0.365-0.132-0.579v-0.091c0-0.221,0.043-0.42,0.128-0.597c0.086-0.177,0.205-0.316,0.358-0.418
		c0.153-0.101,0.319-0.151,0.497-0.151c0.279,0,0.5,0.096,0.663,0.286c0.164,0.19,0.246,0.45,0.246,0.78v0.142h-1.64v0.049
		c0,0.261,0.074,0.478,0.224,0.651c0.149,0.173,0.338,0.26,0.564,0.26c0.136,0,0.256-0.025,0.36-0.074
		c0.104-0.05,0.199-0.129,0.284-0.238l0.159,0.121C91.124,56.506,90.853,56.641,90.498,56.641z M90.451,54.475
		c-0.191,0-0.353,0.07-0.484,0.21c-0.131,0.14-0.21,0.328-0.239,0.565h1.378v-0.028c-0.007-0.221-0.07-0.401-0.189-0.539
		C90.799,54.544,90.643,54.475,90.451,54.475z"/>
	<path class="st3" d="M92.808,54.517c-0.054-0.01-0.111-0.015-0.172-0.015c-0.159,0-0.292,0.045-0.402,0.132
		c-0.11,0.089-0.188,0.217-0.235,0.386v1.578h-0.253v-2.298h0.248l0.004,0.365c0.135-0.272,0.35-0.408,0.648-0.408
		c0.071,0,0.127,0.009,0.168,0.028L92.808,54.517z"/>
	<path class="st3" d="M94.477,56.014c0-0.126-0.051-0.227-0.152-0.304c-0.101-0.076-0.253-0.136-0.457-0.18
		c-0.204-0.042-0.362-0.092-0.475-0.149c-0.113-0.055-0.196-0.124-0.251-0.205c-0.055-0.081-0.081-0.178-0.081-0.293
		c0-0.181,0.076-0.331,0.227-0.45c0.151-0.118,0.345-0.177,0.582-0.177c0.256,0,0.462,0.064,0.617,0.19
		c0.155,0.127,0.233,0.292,0.233,0.496h-0.255c0-0.135-0.057-0.246-0.169-0.336c-0.113-0.089-0.254-0.134-0.425-0.134
		c-0.167,0-0.302,0.037-0.403,0.112c-0.101,0.074-0.151,0.171-0.151,0.29c0,0.115,0.042,0.204,0.126,0.267
		c0.084,0.063,0.238,0.12,0.461,0.173c0.223,0.052,0.39,0.108,0.501,0.168c0.111,0.059,0.194,0.131,0.248,0.215
		c0.054,0.084,0.081,0.185,0.081,0.304c0,0.194-0.079,0.349-0.235,0.465c-0.156,0.116-0.36,0.174-0.612,0.174
		c-0.268,0-0.485-0.065-0.651-0.194c-0.166-0.13-0.249-0.294-0.249-0.492h0.255c0.01,0.149,0.072,0.264,0.188,0.348
		c0.115,0.082,0.268,0.124,0.458,0.124c0.177,0,0.32-0.039,0.429-0.117C94.422,56.232,94.477,56.133,94.477,56.014z"/>
	<path class="st3" d="M96.002,55.415c0-0.221,0.043-0.42,0.129-0.597c0.086-0.177,0.207-0.314,0.363-0.413
		c0.156-0.098,0.333-0.147,0.532-0.147c0.306,0,0.554,0.108,0.743,0.321c0.19,0.215,0.285,0.499,0.285,0.853v0.053
		c0,0.222-0.042,0.423-0.128,0.6c-0.086,0.178-0.207,0.314-0.362,0.411c-0.156,0.096-0.333,0.144-0.533,0.144
		c-0.304,0-0.551-0.108-0.742-0.321c-0.19-0.215-0.286-0.499-0.286-0.853V55.415z M96.257,55.486c0,0.275,0.072,0.5,0.214,0.677
		c0.142,0.176,0.328,0.264,0.559,0.264c0.229,0,0.416-0.088,0.558-0.264c0.142-0.177,0.213-0.409,0.213-0.698v-0.049
		c0-0.176-0.033-0.336-0.098-0.482s-0.156-0.258-0.274-0.338c-0.118-0.08-0.252-0.12-0.404-0.12c-0.227,0-0.411,0.089-0.554,0.266
		c-0.143,0.178-0.215,0.411-0.215,0.698V55.486z"/>
	<path class="st3" d="M98.712,54.301l0.008,0.393c0.086-0.142,0.194-0.25,0.323-0.324c0.129-0.075,0.271-0.112,0.427-0.112
		c0.246,0,0.43,0.069,0.55,0.208c0.12,0.139,0.181,0.347,0.183,0.624v1.508h-0.253v-1.51c-0.001-0.205-0.045-0.358-0.131-0.459
		c-0.086-0.101-0.222-0.151-0.411-0.151c-0.157,0-0.297,0.05-0.418,0.147c-0.121,0.099-0.21,0.231-0.268,0.399v1.574H98.47v-2.298
		H98.712z"/>
	<path class="st3" d="M102.428,56.233l0.671-1.933h0.275l-0.981,2.689l-0.051,0.119c-0.126,0.279-0.321,0.418-0.584,0.418
		c-0.061,0-0.126-0.01-0.195-0.03l-0.002-0.21l0.132,0.013c0.125,0,0.225-0.031,0.302-0.092c0.077-0.062,0.143-0.168,0.197-0.318
		l0.113-0.31l-0.866-2.279h0.278L102.428,56.233z"/>
	<path class="st3" d="M103.485,55.415c0-0.221,0.042-0.42,0.129-0.597c0.085-0.177,0.206-0.314,0.362-0.413
		c0.156-0.098,0.334-0.147,0.532-0.147c0.306,0,0.554,0.108,0.743,0.321c0.19,0.215,0.285,0.499,0.285,0.853v0.053
		c0,0.222-0.043,0.423-0.129,0.6c-0.086,0.178-0.206,0.314-0.362,0.411c-0.156,0.096-0.333,0.144-0.533,0.144
		c-0.304,0-0.552-0.108-0.742-0.321c-0.191-0.215-0.286-0.499-0.286-0.853V55.415z M103.74,55.486c0,0.275,0.071,0.5,0.214,0.677
		c0.142,0.176,0.328,0.264,0.559,0.264c0.229,0,0.415-0.088,0.558-0.264c0.142-0.177,0.213-0.409,0.213-0.698v-0.049
		c0-0.176-0.033-0.336-0.098-0.482c-0.065-0.146-0.156-0.258-0.274-0.338c-0.118-0.08-0.252-0.12-0.404-0.12
		c-0.227,0-0.411,0.089-0.554,0.266c-0.143,0.178-0.215,0.411-0.215,0.698V55.486z"/>
	<path class="st3" d="M107.43,56.307c-0.153,0.222-0.397,0.333-0.733,0.333c-0.245,0-0.431-0.071-0.559-0.214
		c-0.127-0.142-0.193-0.353-0.195-0.631v-1.495h0.253v1.463c0,0.437,0.177,0.656,0.531,0.656c0.368,0,0.601-0.152,0.699-0.457
		v-1.663h0.255v2.298h-0.246L107.43,56.307z"/>
	<path class="st3" d="M109.295,54.517c-0.054-0.01-0.111-0.015-0.172-0.015c-0.159,0-0.293,0.045-0.403,0.132
		c-0.11,0.089-0.188,0.217-0.234,0.386v1.578h-0.253v-2.298h0.248l0.004,0.365c0.135-0.272,0.35-0.408,0.648-0.408
		c0.071,0,0.127,0.009,0.168,0.028L109.295,54.517z"/>
	<path class="st3" d="M110.434,55.428c0-0.36,0.079-0.645,0.239-0.854c0.159-0.211,0.375-0.316,0.648-0.316
		c0.313,0,0.551,0.125,0.714,0.374l0.013-0.331h0.238v2.251c0,0.296-0.083,0.53-0.248,0.703c-0.166,0.173-0.39,0.259-0.673,0.259
		c-0.16,0-0.313-0.036-0.457-0.107c-0.146-0.072-0.26-0.167-0.343-0.286l0.142-0.153c0.18,0.221,0.394,0.331,0.641,0.331
		c0.212,0,0.378-0.062,0.497-0.188c0.119-0.125,0.181-0.299,0.185-0.521v-0.289c-0.163,0.227-0.4,0.34-0.711,0.34
		c-0.266,0-0.48-0.106-0.641-0.319c-0.161-0.212-0.242-0.499-0.242-0.86V55.428z M110.691,55.473c0,0.293,0.059,0.525,0.176,0.694
		s0.283,0.253,0.497,0.253c0.313,0,0.534-0.14,0.665-0.421v-1.068c-0.059-0.147-0.145-0.259-0.257-0.336s-0.246-0.116-0.404-0.116
		c-0.214,0-0.38,0.084-0.499,0.252C110.751,54.898,110.691,55.146,110.691,55.473z"/>
	<path class="st3" d="M112.7,55.415c0-0.221,0.042-0.42,0.129-0.597c0.085-0.177,0.206-0.314,0.362-0.413
		c0.156-0.098,0.334-0.147,0.532-0.147c0.306,0,0.554,0.108,0.743,0.321c0.19,0.215,0.285,0.499,0.285,0.853v0.053
		c0,0.222-0.043,0.423-0.129,0.6c-0.086,0.178-0.206,0.314-0.362,0.411c-0.156,0.096-0.333,0.144-0.533,0.144
		c-0.304,0-0.552-0.108-0.742-0.321c-0.191-0.215-0.286-0.499-0.286-0.853V55.415z M112.955,55.486c0,0.275,0.071,0.5,0.214,0.677
		c0.142,0.176,0.328,0.264,0.559,0.264c0.229,0,0.415-0.088,0.558-0.264c0.142-0.177,0.213-0.409,0.213-0.698v-0.049
		c0-0.176-0.033-0.336-0.098-0.482c-0.065-0.146-0.156-0.258-0.274-0.338c-0.118-0.08-0.252-0.12-0.404-0.12
		c-0.227,0-0.411,0.089-0.554,0.266c-0.143,0.178-0.215,0.411-0.215,0.698V55.486z"/>
	<path class="st3" d="M116.618,56.598c-0.025-0.072-0.042-0.179-0.049-0.321c-0.089,0.116-0.202,0.206-0.341,0.268
		c-0.137,0.063-0.284,0.095-0.438,0.095c-0.221,0-0.4-0.062-0.536-0.185c-0.137-0.123-0.205-0.279-0.205-0.467
		c0-0.224,0.093-0.401,0.279-0.531c0.186-0.13,0.446-0.195,0.779-0.195h0.461v-0.261c0-0.164-0.051-0.293-0.152-0.388
		c-0.101-0.093-0.248-0.141-0.442-0.141c-0.177,0-0.324,0.045-0.44,0.136c-0.116,0.091-0.174,0.2-0.174,0.327l-0.255-0.002
		c0-0.183,0.085-0.341,0.255-0.474c0.17-0.135,0.379-0.201,0.627-0.201c0.256,0,0.458,0.064,0.607,0.193
		c0.147,0.128,0.224,0.307,0.228,0.536v1.087c0,0.222,0.023,0.389,0.07,0.499v0.025H116.618z M115.819,56.416
		c0.17,0,0.322-0.041,0.455-0.123c0.135-0.082,0.231-0.192,0.292-0.329v-0.505h-0.454c-0.253,0.003-0.452,0.05-0.595,0.139
		c-0.143,0.09-0.215,0.213-0.215,0.37c0,0.129,0.048,0.236,0.143,0.321C115.543,56.373,115.666,56.416,115.819,56.416z"/>
	<path class="st3" d="M117.673,56.598h-0.255v-3.262h0.255V56.598z"/>
	<path class="st3" d="M119.631,56.014c0-0.126-0.051-0.227-0.151-0.304c-0.102-0.076-0.254-0.136-0.458-0.18
		c-0.204-0.042-0.362-0.092-0.475-0.149c-0.112-0.055-0.196-0.124-0.251-0.205c-0.055-0.081-0.081-0.178-0.081-0.293
		c0-0.181,0.076-0.331,0.227-0.45c0.151-0.118,0.345-0.177,0.582-0.177c0.256,0,0.462,0.064,0.617,0.19
		c0.154,0.127,0.232,0.292,0.232,0.496h-0.255c0-0.135-0.057-0.246-0.168-0.336c-0.113-0.089-0.255-0.134-0.426-0.134
		c-0.167,0-0.302,0.037-0.402,0.112c-0.102,0.074-0.152,0.171-0.152,0.29c0,0.115,0.042,0.204,0.127,0.267
		c0.084,0.063,0.238,0.12,0.46,0.173c0.224,0.052,0.39,0.108,0.501,0.168c0.111,0.059,0.194,0.131,0.248,0.215
		c0.054,0.084,0.081,0.185,0.081,0.304c0,0.194-0.079,0.349-0.235,0.465c-0.156,0.116-0.36,0.174-0.612,0.174
		c-0.268,0-0.485-0.065-0.651-0.194c-0.167-0.13-0.25-0.294-0.25-0.492h0.255c0.01,0.149,0.072,0.264,0.188,0.348
		c0.115,0.082,0.268,0.124,0.458,0.124c0.177,0,0.32-0.039,0.429-0.117C119.576,56.232,119.631,56.133,119.631,56.014z"/>
	<path class="st3" d="M122.748,56.598c-0.025-0.072-0.042-0.179-0.049-0.321c-0.089,0.116-0.202,0.206-0.341,0.268
		c-0.137,0.063-0.284,0.095-0.438,0.095c-0.221,0-0.4-0.062-0.536-0.185c-0.137-0.123-0.205-0.279-0.205-0.467
		c0-0.224,0.093-0.401,0.279-0.531c0.186-0.13,0.446-0.195,0.779-0.195h0.461v-0.261c0-0.164-0.051-0.293-0.152-0.388
		c-0.101-0.093-0.248-0.141-0.442-0.141c-0.177,0-0.324,0.045-0.44,0.136c-0.116,0.091-0.174,0.2-0.174,0.327l-0.255-0.002
		c0-0.183,0.085-0.341,0.255-0.474c0.17-0.135,0.379-0.201,0.627-0.201c0.256,0,0.458,0.064,0.607,0.193
		c0.147,0.128,0.224,0.307,0.228,0.536v1.087c0,0.222,0.023,0.389,0.07,0.499v0.025H122.748z M121.949,56.416
		c0.17,0,0.322-0.041,0.455-0.123c0.135-0.082,0.231-0.192,0.292-0.329v-0.505h-0.454c-0.253,0.003-0.452,0.05-0.595,0.139
		c-0.143,0.09-0.215,0.213-0.215,0.37c0,0.129,0.048,0.236,0.143,0.321C121.672,56.373,121.796,56.416,121.949,56.416z"/>
	<path class="st3" d="M123.76,54.301l0.008,0.393c0.086-0.142,0.194-0.25,0.323-0.324c0.129-0.075,0.271-0.112,0.427-0.112
		c0.246,0,0.43,0.069,0.55,0.208c0.12,0.139,0.181,0.347,0.183,0.624v1.508h-0.253v-1.51c-0.001-0.205-0.045-0.358-0.131-0.459
		c-0.086-0.101-0.222-0.151-0.411-0.151c-0.157,0-0.296,0.05-0.418,0.147c-0.12,0.099-0.21,0.231-0.268,0.399v1.574h-0.253v-2.298
		H123.76z"/>
	<path class="st3" d="M125.697,55.428c0-0.357,0.079-0.641,0.239-0.853c0.159-0.211,0.375-0.317,0.648-0.317
		c0.31,0,0.547,0.122,0.709,0.367v-1.289h0.253v3.262h-0.238l-0.011-0.306c-0.163,0.232-0.402,0.348-0.718,0.348
		c-0.265,0-0.479-0.106-0.64-0.32c-0.163-0.212-0.244-0.501-0.244-0.863V55.428z M125.954,55.473c0,0.293,0.059,0.525,0.176,0.694
		s0.283,0.253,0.497,0.253c0.313,0,0.535-0.138,0.667-0.414v-1.079c-0.132-0.299-0.353-0.448-0.663-0.448
		c-0.214,0-0.38,0.084-0.499,0.252C126.013,54.898,125.954,55.146,125.954,55.473z"/>
	<path class="st3" d="M74.633,62.44c-0.195,0-0.372-0.048-0.53-0.144c-0.158-0.096-0.281-0.231-0.368-0.402
		c-0.088-0.173-0.132-0.365-0.132-0.579v-0.091c0-0.221,0.043-0.42,0.128-0.597c0.086-0.177,0.205-0.316,0.358-0.418
		c0.153-0.101,0.319-0.151,0.497-0.151c0.279,0,0.5,0.096,0.664,0.286c0.164,0.19,0.245,0.45,0.245,0.78v0.142h-1.64v0.049
		c0,0.261,0.075,0.478,0.224,0.651c0.149,0.173,0.337,0.26,0.564,0.26c0.136,0,0.256-0.025,0.36-0.074
		c0.104-0.05,0.199-0.129,0.284-0.238l0.159,0.121C75.259,62.305,74.988,62.44,74.633,62.44z M74.586,60.274
		c-0.191,0-0.352,0.07-0.483,0.21s-0.211,0.328-0.239,0.565h1.378v-0.028c-0.007-0.221-0.07-0.401-0.189-0.539
		C74.934,60.343,74.779,60.274,74.586,60.274z"/>
	<path class="st3" d="M76.603,61.032l0.62-0.932h0.302l-0.779,1.128l0.813,1.17h-0.299l-0.654-0.973l-0.654,0.973h-0.299l0.811-1.17
		L75.684,60.1h0.299L76.603,61.032z"/>
	<path class="st3" d="M79.735,61.272c0,0.358-0.079,0.643-0.238,0.852c-0.159,0.211-0.371,0.316-0.637,0.316
		c-0.314,0-0.555-0.11-0.722-0.331v1.172h-0.253V60.1h0.236l0.013,0.325c0.166-0.245,0.406-0.367,0.72-0.367
		c0.275,0,0.49,0.104,0.647,0.312s0.235,0.497,0.235,0.867V61.272z M79.481,61.228c0-0.293-0.06-0.525-0.181-0.694
		s-0.288-0.255-0.503-0.255c-0.156,0-0.29,0.038-0.401,0.113c-0.112,0.075-0.198,0.184-0.257,0.327v1.102
		c0.061,0.132,0.148,0.232,0.261,0.302c0.113,0.069,0.247,0.104,0.401,0.104c0.214,0,0.381-0.085,0.5-0.256
		C79.421,61.8,79.481,61.552,79.481,61.228z"/>
	<path class="st3" d="M81.079,62.44c-0.195,0-0.372-0.048-0.53-0.144c-0.158-0.096-0.281-0.231-0.368-0.402
		c-0.088-0.173-0.132-0.365-0.132-0.579v-0.091c0-0.221,0.043-0.42,0.128-0.597c0.086-0.177,0.205-0.316,0.358-0.418
		c0.153-0.101,0.319-0.151,0.497-0.151c0.279,0,0.5,0.096,0.664,0.286c0.164,0.19,0.245,0.45,0.245,0.78v0.142h-1.64v0.049
		c0,0.261,0.075,0.478,0.224,0.651c0.149,0.173,0.337,0.26,0.564,0.26c0.136,0,0.256-0.025,0.36-0.074
		c0.104-0.05,0.199-0.129,0.284-0.238l0.159,0.121C81.706,62.305,81.434,62.44,81.079,62.44z M81.032,60.274
		c-0.191,0-0.352,0.07-0.483,0.21s-0.211,0.328-0.239,0.565h1.378v-0.028c-0.007-0.221-0.07-0.401-0.189-0.539
		C81.381,60.343,81.225,60.274,81.032,60.274z"/>
	<path class="st3" d="M83.177,62.226c0.177,0,0.325-0.05,0.445-0.149c0.12-0.101,0.184-0.229,0.194-0.388h0.244
		c-0.007,0.14-0.051,0.268-0.132,0.384c-0.081,0.115-0.188,0.205-0.322,0.27c-0.134,0.065-0.277,0.098-0.43,0.098
		c-0.302,0-0.541-0.105-0.717-0.314c-0.176-0.21-0.264-0.491-0.264-0.845v-0.076c0-0.227,0.04-0.427,0.119-0.601
		c0.079-0.174,0.193-0.309,0.341-0.404c0.148-0.095,0.321-0.142,0.519-0.142c0.252,0,0.46,0.075,0.623,0.225
		c0.164,0.15,0.251,0.348,0.262,0.593h-0.244c-0.011-0.18-0.076-0.325-0.194-0.435c-0.118-0.11-0.267-0.166-0.447-0.166
		c-0.229,0-0.407,0.083-0.534,0.248c-0.127,0.166-0.19,0.398-0.19,0.697v0.074c0,0.293,0.063,0.522,0.19,0.686
		S82.946,62.226,83.177,62.226z"/>
	<path class="st3" d="M84.854,59.512V60.1h0.476v0.208h-0.476v1.533c0,0.128,0.023,0.223,0.069,0.285s0.123,0.093,0.23,0.093
		c0.042,0,0.111-0.007,0.206-0.021l0.011,0.206c-0.067,0.024-0.157,0.036-0.272,0.036c-0.174,0-0.301-0.05-0.38-0.151
		c-0.079-0.101-0.119-0.251-0.119-0.447v-1.533h-0.423V60.1H84.6v-0.588H84.854z"/>
	<path class="st3" d="M87.199,62.398c-0.025-0.072-0.042-0.179-0.049-0.321c-0.089,0.116-0.203,0.206-0.341,0.268
		c-0.138,0.063-0.284,0.095-0.439,0.095c-0.221,0-0.4-0.062-0.536-0.185c-0.137-0.123-0.205-0.279-0.205-0.467
		c0-0.224,0.093-0.401,0.279-0.531c0.186-0.13,0.446-0.195,0.778-0.195h0.461v-0.261c0-0.164-0.051-0.293-0.152-0.388
		c-0.101-0.093-0.249-0.141-0.443-0.141c-0.177,0-0.324,0.045-0.44,0.136c-0.116,0.091-0.174,0.2-0.174,0.327l-0.255-0.002
		c0-0.183,0.085-0.341,0.255-0.474c0.17-0.135,0.379-0.201,0.627-0.201c0.256,0,0.458,0.064,0.606,0.193
		c0.148,0.128,0.224,0.307,0.228,0.536v1.087c0,0.222,0.023,0.389,0.07,0.499v0.025H87.199z M86.4,62.215
		c0.17,0,0.322-0.041,0.456-0.123s0.231-0.192,0.292-0.329v-0.505h-0.454c-0.253,0.003-0.452,0.05-0.595,0.139
		c-0.143,0.09-0.215,0.213-0.215,0.37c0,0.129,0.048,0.236,0.143,0.321C86.123,62.173,86.247,62.215,86.4,62.215z"/>
	<path class="st3" d="M88.364,59.512V60.1h0.476v0.208h-0.476v1.533c0,0.128,0.023,0.223,0.069,0.285
		c0.046,0.062,0.123,0.093,0.23,0.093c0.042,0,0.111-0.007,0.206-0.021l0.011,0.206c-0.067,0.024-0.157,0.036-0.272,0.036
		c-0.174,0-0.301-0.05-0.38-0.151c-0.079-0.101-0.119-0.251-0.119-0.447v-1.533h-0.423V60.1h0.423v-0.588H88.364z"/>
	<path class="st3" d="M89.243,59.436c0-0.047,0.016-0.088,0.047-0.121c0.031-0.033,0.074-0.05,0.127-0.05s0.097,0.016,0.128,0.05
		c0.032,0.033,0.048,0.074,0.048,0.121c0,0.048-0.016,0.088-0.048,0.12c-0.032,0.033-0.075,0.049-0.128,0.049
		s-0.096-0.016-0.127-0.049C89.258,59.524,89.243,59.484,89.243,59.436z M89.542,62.398h-0.255V60.1h0.255V62.398z"/>
	<path class="st3" d="M89.984,61.215c0-0.221,0.042-0.42,0.128-0.597c0.086-0.177,0.207-0.314,0.363-0.413
		c0.156-0.098,0.334-0.147,0.532-0.147c0.306,0,0.554,0.108,0.743,0.321c0.19,0.215,0.285,0.499,0.285,0.853v0.053
		c0,0.222-0.043,0.423-0.129,0.6c-0.086,0.178-0.206,0.314-0.362,0.411c-0.156,0.096-0.333,0.144-0.533,0.144
		c-0.304,0-0.552-0.108-0.743-0.321c-0.19-0.215-0.285-0.499-0.285-0.853V61.215z M90.239,61.285c0,0.275,0.071,0.5,0.213,0.677
		c0.142,0.176,0.329,0.264,0.56,0.264c0.229,0,0.415-0.088,0.557-0.264c0.142-0.177,0.214-0.409,0.214-0.698v-0.049
		c0-0.176-0.033-0.336-0.098-0.482c-0.065-0.146-0.156-0.258-0.274-0.338c-0.118-0.08-0.252-0.12-0.404-0.12
		c-0.227,0-0.411,0.089-0.554,0.266c-0.143,0.178-0.215,0.411-0.215,0.698V61.285z"/>
	<path class="st3" d="M92.693,60.1l0.008,0.393c0.086-0.142,0.194-0.25,0.323-0.324c0.129-0.075,0.271-0.112,0.427-0.112
		c0.246,0,0.43,0.069,0.55,0.208c0.12,0.139,0.181,0.347,0.183,0.624v1.508h-0.253v-1.51c-0.001-0.205-0.045-0.358-0.13-0.459
		c-0.086-0.101-0.223-0.151-0.411-0.151c-0.157,0-0.296,0.05-0.417,0.147c-0.121,0.099-0.211,0.231-0.269,0.399v1.574h-0.253V60.1
		H92.693z"/>
	<path class="st3" d="M96.108,61.814c0-0.126-0.051-0.227-0.152-0.304c-0.101-0.076-0.253-0.136-0.457-0.18
		c-0.204-0.042-0.362-0.092-0.475-0.149c-0.113-0.055-0.196-0.124-0.251-0.205c-0.055-0.081-0.081-0.178-0.081-0.293
		c0-0.181,0.076-0.331,0.227-0.45c0.151-0.118,0.345-0.177,0.582-0.177c0.256,0,0.462,0.064,0.617,0.19
		c0.155,0.127,0.233,0.292,0.233,0.496h-0.255c0-0.135-0.057-0.246-0.169-0.336c-0.113-0.089-0.254-0.134-0.425-0.134
		c-0.167,0-0.302,0.037-0.403,0.112c-0.101,0.074-0.151,0.171-0.151,0.29c0,0.115,0.042,0.204,0.126,0.267
		c0.084,0.063,0.238,0.12,0.461,0.173c0.223,0.052,0.39,0.108,0.501,0.168c0.111,0.059,0.194,0.131,0.248,0.215
		c0.054,0.084,0.081,0.185,0.081,0.304c0,0.194-0.079,0.349-0.235,0.465c-0.156,0.116-0.36,0.174-0.612,0.174
		c-0.268,0-0.485-0.065-0.651-0.194c-0.166-0.13-0.249-0.294-0.249-0.492h0.255c0.01,0.149,0.072,0.264,0.188,0.348
		c0.115,0.082,0.268,0.124,0.458,0.124c0.177,0,0.32-0.039,0.429-0.117C96.053,62.031,96.108,61.933,96.108,61.814z"/>
	<path class="st3" d="M96.802,62.245c0-0.05,0.016-0.091,0.048-0.126c0.032-0.035,0.076-0.052,0.132-0.052s0.101,0.018,0.134,0.052
		s0.049,0.076,0.049,0.126c0,0.05-0.016,0.091-0.049,0.122c-0.033,0.033-0.077,0.048-0.134,0.048s-0.101-0.016-0.132-0.048
		C96.818,62.335,96.802,62.294,96.802,62.245z"/>
</g>
</svg>
