<?xml version="1.0" encoding="utf-8"?>
<!-- Generator: Adobe Illustrator 21.0.2, SVG Export Plug-In . SVG Version: 6.00 Build 0)  -->
<svg version="1.1" id="Layer_1" xmlns="http://www.w3.org/2000/svg" xmlns:xlink="http://www.w3.org/1999/xlink" x="0px" y="0px"
	 viewBox="0 0 10 10" style="enable-background:new 0 0 10 10;" xml:space="preserve">
<style type="text/css">
	.st0{fill:#4FC5DD;}
	.st1{fill:#FFFFFF;}
</style>
<path class="st0" d="M7.082,6.576L5.808,5.364c0.451-0.55,0.733-1.245,0.733-2.012c0-1.762-1.428-3.19-3.19-3.19
	c-1.762,0-3.19,1.428-3.19,3.19s1.428,3.19,3.19,3.19c0.504,0,0.974-0.127,1.397-0.335L7.082,6.576z"/>
<polygon class="st1" points="5.042,3.022 3.791,3.022 3.791,1.771 3.022,1.771 3.022,3.022 1.771,3.022 1.771,3.791 3.022,3.791 
	3.022,5.042 3.791,5.042 3.791,3.791 5.042,3.791 "/>
</svg>
