<?xml version="1.0" encoding="utf-8"?>
<!-- Generator: Adobe Illustrator 21.0.2, SVG Export Plug-In . SVG Version: 6.00 Build 0)  -->
<svg version="1.1" id="Layer_1" xmlns="http://www.w3.org/2000/svg" xmlns:xlink="http://www.w3.org/1999/xlink" x="0px" y="0px"
	 viewBox="0 0 100 20" style="enable-background:new 0 0 100 20;" xml:space="preserve">
<style type="text/css">
	.st0{fill:#98A4AE;}
</style>
<g>
	<path class="st0" d="M18.582,12.08v1.503h-0.879V9.317h1.664c0.32,0,0.602,0.059,0.845,0.176s0.43,0.284,0.561,0.5
		s0.196,0.461,0.196,0.736c0,0.418-0.143,0.748-0.429,0.988c-0.286,0.242-0.682,0.362-1.188,0.362H18.582z M18.582,11.368h0.785
		c0.232,0,0.41-0.055,0.532-0.164s0.183-0.266,0.183-0.469c0-0.209-0.062-0.378-0.185-0.507s-0.293-0.195-0.51-0.199h-0.806V11.368z
		"/>
	<path class="st0" d="M21.423,13.583V9.317h1.312c0.375,0,0.71,0.085,1.006,0.254s0.527,0.409,0.693,0.721s0.249,0.665,0.249,1.062
		v0.196c0,0.396-0.082,0.749-0.245,1.058s-0.393,0.548-0.69,0.718s-0.632,0.256-1.005,0.258H21.423z M22.302,10.029v2.848h0.425
		c0.344,0,0.606-0.112,0.788-0.337s0.274-0.546,0.278-0.964v-0.226c0-0.434-0.09-0.762-0.27-0.986
		c-0.18-0.223-0.442-0.335-0.788-0.335H22.302z"/>
	<path class="st0" d="M29.865,12.162c-0.033,0.459-0.203,0.82-0.508,1.084s-0.708,0.396-1.208,0.396
		c-0.547,0-0.977-0.184-1.291-0.553c-0.313-0.367-0.47-0.873-0.47-1.516v-0.261c0-0.41,0.072-0.771,0.217-1.084
		s0.351-0.552,0.62-0.72c0.269-0.166,0.581-0.25,0.936-0.25c0.492,0,0.889,0.132,1.189,0.396s0.475,0.634,0.521,1.11h-0.879
		c-0.021-0.275-0.098-0.475-0.23-0.6c-0.132-0.123-0.333-0.186-0.602-0.186c-0.293,0-0.512,0.105-0.658,0.314
		c-0.146,0.211-0.22,0.536-0.224,0.978v0.322c0,0.461,0.07,0.798,0.209,1.011s0.36,0.319,0.661,0.319
		c0.271,0,0.474-0.062,0.608-0.187c0.134-0.123,0.21-0.315,0.23-0.575H29.865z"/>
	<path class="st0" d="M30.105,11.969c0-0.314,0.061-0.595,0.182-0.841s0.295-0.437,0.523-0.571s0.492-0.202,0.792-0.202
		c0.428,0,0.777,0.131,1.047,0.393c0.27,0.262,0.422,0.617,0.453,1.066l0.006,0.217c0,0.486-0.137,0.877-0.408,1.17
		c-0.271,0.295-0.635,0.441-1.092,0.441s-0.822-0.146-1.094-0.439s-0.409-0.691-0.409-1.195V11.969z M30.952,12.029
		c0,0.301,0.057,0.531,0.17,0.69s0.275,0.239,0.486,0.239c0.205,0,0.365-0.079,0.481-0.236c0.115-0.157,0.172-0.409,0.172-0.756
		c0-0.295-0.057-0.523-0.172-0.687c-0.116-0.162-0.278-0.243-0.487-0.243c-0.207,0-0.367,0.081-0.48,0.242
		S30.952,11.69,30.952,12.029z"/>
	<path class="st0" d="M33.348,11.969c0-0.314,0.061-0.595,0.182-0.841s0.295-0.437,0.523-0.571c0.227-0.135,0.491-0.202,0.792-0.202
		c0.428,0,0.776,0.131,1.048,0.393c0.27,0.262,0.421,0.617,0.452,1.066l0.006,0.217c0,0.486-0.136,0.877-0.407,1.17
		c-0.271,0.295-0.636,0.441-1.093,0.441s-0.821-0.146-1.095-0.439c-0.271-0.293-0.408-0.691-0.408-1.195V11.969z M34.194,12.029
		c0,0.301,0.057,0.531,0.17,0.69s0.275,0.239,0.486,0.239c0.205,0,0.365-0.079,0.48-0.236s0.173-0.409,0.173-0.756
		c0-0.295-0.058-0.523-0.173-0.687c-0.115-0.162-0.277-0.243-0.486-0.243c-0.207,0-0.367,0.081-0.48,0.242
		S34.194,11.69,34.194,12.029z"/>
	<path class="st0" d="M38.503,11.207c-0.115-0.016-0.217-0.023-0.305-0.023c-0.32,0-0.53,0.108-0.63,0.325v2.074h-0.847v-3.17h0.8
		l0.023,0.378c0.17-0.291,0.405-0.437,0.706-0.437c0.094,0,0.182,0.013,0.264,0.038L38.503,11.207z"/>
	<path class="st0" d="M38.573,11.975c0-0.494,0.11-0.888,0.332-1.181s0.525-0.439,0.91-0.439c0.309,0,0.563,0.115,0.765,0.346V9.083
		h0.85v4.5h-0.765l-0.041-0.337c-0.211,0.264-0.482,0.396-0.814,0.396c-0.373,0-0.672-0.146-0.898-0.441
		C38.687,12.907,38.573,12.498,38.573,11.975z M39.42,12.035c0,0.298,0.052,0.526,0.155,0.686s0.254,0.238,0.451,0.238
		c0.262,0,0.446-0.11,0.554-0.333V11.37c-0.105-0.222-0.288-0.333-0.548-0.333C39.624,11.037,39.42,11.37,39.42,12.035z"/>
	<path class="st0" d="M41.93,9.593c0-0.127,0.042-0.231,0.128-0.313c0.084-0.082,0.2-0.123,0.347-0.123
		c0.145,0,0.26,0.041,0.346,0.123s0.129,0.187,0.129,0.313c0,0.129-0.044,0.234-0.13,0.316c-0.088,0.082-0.202,0.123-0.345,0.123
		s-0.258-0.041-0.345-0.123S41.93,9.722,41.93,9.593z M42.829,13.583h-0.85v-3.17h0.85V13.583z"/>
	<path class="st0" d="M44.156,10.413l0.026,0.366c0.227-0.283,0.53-0.425,0.911-0.425c0.336,0,0.586,0.099,0.75,0.296
		s0.248,0.492,0.252,0.885v2.048h-0.847v-2.032c0-0.18-0.039-0.311-0.117-0.392s-0.208-0.122-0.39-0.122
		c-0.238,0-0.417,0.102-0.536,0.306v2.24h-0.847v-3.17H44.156z"/>
	<path class="st0" d="M48.424,13.583c-0.039-0.076-0.067-0.171-0.085-0.284c-0.205,0.229-0.472,0.343-0.8,0.343
		c-0.311,0-0.568-0.09-0.771-0.27c-0.205-0.18-0.307-0.406-0.307-0.68c0-0.336,0.125-0.594,0.373-0.773
		c0.25-0.18,0.609-0.271,1.08-0.272h0.39v-0.182c0-0.146-0.038-0.264-0.112-0.352c-0.076-0.088-0.194-0.132-0.356-0.132
		c-0.143,0-0.255,0.034-0.335,0.103c-0.082,0.068-0.122,0.162-0.122,0.281h-0.847c0-0.184,0.057-0.354,0.17-0.51
		s0.273-0.278,0.48-0.368c0.207-0.088,0.439-0.133,0.697-0.133c0.391,0,0.7,0.098,0.93,0.295c0.229,0.195,0.345,0.472,0.345,0.827
		v1.374c0.002,0.301,0.044,0.528,0.126,0.683v0.05H48.424z M47.724,12.994c0.125,0,0.24-0.028,0.346-0.083
		c0.105-0.057,0.184-0.131,0.234-0.225v-0.545h-0.316c-0.424,0-0.649,0.146-0.677,0.439l-0.003,0.05
		c0,0.105,0.037,0.192,0.111,0.261S47.595,12.994,47.724,12.994z"/>
	<path class="st0" d="M50.667,9.634v0.779h0.542v0.621h-0.542v1.582c0,0.117,0.022,0.201,0.067,0.252s0.131,0.076,0.258,0.076
		c0.094,0,0.177-0.007,0.249-0.021v0.642c-0.166,0.051-0.337,0.076-0.513,0.076c-0.594,0-0.896-0.3-0.908-0.899v-1.708h-0.463
		v-0.621h0.463V9.634H50.667z"/>
	<path class="st0" d="M51.312,11.969c0-0.314,0.061-0.595,0.182-0.841s0.295-0.437,0.523-0.571c0.227-0.135,0.491-0.202,0.792-0.202
		c0.428,0,0.776,0.131,1.048,0.393c0.27,0.262,0.421,0.617,0.452,1.066l0.006,0.217c0,0.486-0.136,0.877-0.407,1.17
		c-0.271,0.295-0.636,0.441-1.093,0.441s-0.821-0.146-1.095-0.439c-0.271-0.293-0.408-0.691-0.408-1.195V11.969z M52.158,12.029
		c0,0.301,0.057,0.531,0.17,0.69s0.275,0.239,0.486,0.239c0.205,0,0.365-0.079,0.48-0.236s0.173-0.409,0.173-0.756
		c0-0.295-0.058-0.523-0.173-0.687c-0.115-0.162-0.277-0.243-0.486-0.243c-0.207,0-0.367,0.081-0.48,0.242
		S52.158,11.69,52.158,12.029z"/>
	<path class="st0" d="M56.467,11.207c-0.115-0.016-0.217-0.023-0.305-0.023c-0.32,0-0.53,0.108-0.63,0.325v2.074h-0.847v-3.17h0.8
		l0.023,0.378c0.17-0.291,0.405-0.437,0.706-0.437c0.094,0,0.182,0.013,0.264,0.038L56.467,11.207z"/>
	<path class="st0" d="M58.441,12.707c0-0.104-0.052-0.185-0.153-0.245c-0.104-0.059-0.268-0.112-0.494-0.159
		c-0.754-0.158-1.131-0.479-1.131-0.961c0-0.281,0.116-0.516,0.35-0.704s0.539-0.283,0.916-0.283c0.402,0,0.724,0.095,0.965,0.284
		s0.362,0.436,0.362,0.738h-0.847c0-0.121-0.039-0.222-0.117-0.3c-0.078-0.08-0.2-0.119-0.366-0.119
		c-0.143,0-0.253,0.032-0.331,0.097s-0.117,0.146-0.117,0.246c0,0.094,0.044,0.17,0.133,0.228s0.239,0.107,0.45,0.148
		c0.211,0.043,0.389,0.09,0.533,0.143c0.447,0.164,0.671,0.448,0.671,0.853c0,0.289-0.124,0.522-0.372,0.702
		c-0.248,0.178-0.568,0.268-0.961,0.268c-0.266,0-0.502-0.048-0.708-0.143c-0.206-0.094-0.367-0.224-0.484-0.389
		s-0.176-0.344-0.176-0.535h0.803c0.008,0.15,0.063,0.266,0.167,0.346s0.242,0.12,0.416,0.12c0.162,0,0.284-0.03,0.368-0.093
		C58.399,12.888,58.441,12.807,58.441,12.707z"/>
</g>
<g>
	<g>
		<path class="st0" d="M9.318,7.828C9.289,7.886,9.259,7.943,9.229,8c0.028-0.062,0.057-0.123,0.085-0.185l-0.313-1.02L8.633,8.01
			h0.742L9.318,7.828z"/>
		<path class="st0" d="M10.32,10.411c-0.045,0.1,0.095,0.188,0.15,0.088l0.079-0.143c0.085,0.001,0.171,0.004,0.257,0.006
			l-0.011,0.028c-0.037,0.091,0.112,0.151,0.157,0.066c0.016-0.03,0.032-0.06,0.047-0.09c0.012,0,0.024,0,0.036,0.001
			c0.022,0.058,0.118,0.083,0.15,0.015l0.007-0.014c0.015,0,0.03,0,0.045,0c-0.008,0.033-0.015,0.066-0.023,0.099
			c-0.024,0.105,0.119,0.139,0.157,0.043l0.058-0.146c0.151-0.006,0.301-0.018,0.447-0.043c0.02-0.003,0.031-0.018,0.038-0.035
			c0.017-0.013,0.029-0.034,0.029-0.062c0-1.832,0.085-3.692-0.03-5.521c-0.004-0.069-0.103-0.069-0.108,0
			c0,0.006-0.001,0.012-0.001,0.018c-0.864-0.087-1.745-0.04-2.613-0.036C8.26,4.688,7.31,4.639,6.378,4.707
			c-0.04,0.003-0.062,0.03-0.067,0.059C6.291,4.715,6.22,4.717,6.212,4.779C6.171,5.097,6.156,5.423,6.153,5.751
			C6.136,5.782,6.118,5.812,6.102,5.844C6.086,5.877,6.125,5.909,6.153,5.885C6.153,6.42,6.182,6.96,6.181,7.483
			C6.18,8.281,6.103,9.131,6.184,9.933c-0.02,0.037-0.011,0.071,0.011,0.095c0.006,0.052,0.011,0.104,0.018,0.155
			c-0.039,0.006-0.078,0.012-0.116,0.02c-0.058,0.013-0.058,0.105,0,0.117c0.429,0.094,0.905,0.038,1.343,0.038
			c0.194,0,0.388,0,0.583-0.001c0.018,0.066,0.121,0.098,0.157,0.023c0.004-0.008,0.008-0.016,0.011-0.024
			c0.241,0,0.482,0,0.722-0.001c0.477-0.001,0.955-0.001,1.432-0.002L10.32,10.411z M10.378,9.81
			c-0.004-0.013-0.012-0.024-0.024-0.032c0.057-0.1,0.114-0.2,0.171-0.3C10.476,9.588,10.427,9.699,10.378,9.81z M11.185,7.536
			c-0.095,0.162-0.191,0.325-0.286,0.487c0.102-0.212,0.204-0.424,0.306-0.636C11.198,7.437,11.191,7.487,11.185,7.536z
			 M11.54,9.179c-0.019-0.012-0.042-0.019-0.064-0.016l0.072-0.178C11.547,9.049,11.544,9.113,11.54,9.179z M11.462,6.656
			c0.012-0.095,0.025-0.191,0.038-0.286c0.002,0.081,0.004,0.162,0.007,0.242c-0.006,0.022-0.013,0.043-0.019,0.065
			C11.479,6.668,11.471,6.661,11.462,6.656z M11.716,10.037c0.005,0.027,0.009,0.055,0.015,0.082
			c0.005,0.021,0.03,0.027,0.046,0.018c0,0.017,0,0.034,0,0.052c-0.04-0.005-0.08-0.007-0.12-0.01
			c0.015-0.053,0.026-0.108,0.035-0.164C11.697,10.026,11.706,10.033,11.716,10.037z M11.639,5.481
			c0.013-0.042,0.025-0.084,0.038-0.127c0,0.218,0.002,0.436,0.005,0.654C11.674,5.831,11.662,5.655,11.639,5.481z M11.117,4.895
			c0.001-0.005,0.002-0.011,0.002-0.015c0.188-0.006,0.376-0.017,0.562-0.032c-0.001,0.069-0.002,0.137-0.003,0.206
			c-0.016-0.004-0.033-0.004-0.048,0.002c0.006-0.023,0.011-0.047,0.017-0.07c0.023-0.087-0.093-0.131-0.141-0.059
			c-0.016,0.024-0.032,0.048-0.048,0.072c-0.01-0.074-0.111-0.112-0.166-0.035C11.196,5.098,11.098,5.233,11,5.369
			c0.061-0.119,0.122-0.237,0.183-0.356C11.212,4.958,11.168,4.898,11.117,4.895z M11.048,5.948
			c0.097-0.153,0.193-0.307,0.289-0.461c-0.012,0.057-0.024,0.115-0.036,0.172C11.3,5.66,11.298,5.661,11.297,5.663
			c-0.105,0.134-0.207,0.27-0.307,0.408C11.009,6.03,11.029,5.989,11.048,5.948z M9.915,4.885c0.295,0.005,0.59,0.008,0.885,0.004
			c-0.065,0.083-0.127,0.167-0.19,0.25c0.015-0.037,0.03-0.075,0.045-0.112c0.041-0.103-0.112-0.15-0.168-0.071
			c-0.03,0.043-0.06,0.086-0.09,0.128c-0.014-0.005-0.03-0.006-0.045,0.002c0.003-0.007,0.006-0.013,0.009-0.02
			c0.045-0.098-0.084-0.177-0.146-0.085c-0.008,0.011-0.015,0.023-0.022,0.034c-0.016-0.068-0.123-0.091-0.169-0.023
			c-0.003,0.005-0.007,0.01-0.01,0.015C9.99,4.961,9.928,4.939,9.88,4.972C9.892,4.943,9.904,4.914,9.915,4.885z M10.316,6.346
			c-0.092,0.14-0.182,0.281-0.27,0.424c0.176-0.341,0.352-0.681,0.527-1.022c0.042-0.055,0.084-0.109,0.126-0.164
			c-0.007,0.02-0.013,0.04-0.02,0.06C10.559,5.878,10.437,6.112,10.316,6.346z M10.671,6.378c-0.099,0.204-0.199,0.409-0.298,0.613
			c-0.01,0.016-0.019,0.031-0.029,0.047c0.1-0.206,0.2-0.412,0.299-0.618C10.652,6.407,10.662,6.393,10.671,6.378z M9.046,4.873
			C9.233,4.874,9.422,4.877,9.611,4.88C9.494,5.006,9.384,5.136,9.278,5.269C9.266,5.245,9.241,5.228,9.216,5.228
			c0.027-0.058,0.053-0.117,0.08-0.175C9.33,4.982,9.225,4.919,9.19,4.991c-0.033,0.068-0.067,0.136-0.1,0.204
			c-0.026-0.05-0.105-0.066-0.14-0.006C8.939,5.207,8.927,5.225,8.916,5.243C8.919,5.237,8.922,5.23,8.925,5.224
			C8.931,5.21,8.931,5.197,8.928,5.185C8.952,5.121,8.977,5.057,9,4.992c0.027-0.077-0.089-0.121-0.129-0.054
			C8.77,5.107,8.656,5.27,8.538,5.43c0.065-0.151,0.13-0.301,0.19-0.453C8.753,4.913,8.663,4.869,8.62,4.908
			C8.6,4.897,8.577,4.894,8.555,4.902C8.549,4.889,8.537,4.879,8.524,4.875C8.698,4.873,8.872,4.872,9.046,4.873z M8.498,4.875
			C8.489,4.879,8.48,4.885,8.473,4.896C8.415,4.999,8.357,5.102,8.298,5.205C8.229,5.27,8.16,5.336,8.091,5.401
			c0.054-0.108,0.107-0.216,0.157-0.325C8.278,5.012,8.192,4.959,8.153,5.02C8.136,5.046,8.121,5.072,8.105,5.098
			C8.074,5.081,8.034,5.084,8.01,5.127C7.868,5.381,7.727,5.636,7.586,5.89C7.585,5.891,7.584,5.892,7.583,5.893
			C7.575,5.848,7.571,5.804,7.57,5.76C7.651,5.57,7.732,5.379,7.813,5.188c0.011-0.02,0.025-0.038,0.036-0.058
			c0.028-0.052-0.004-0.105-0.048-0.12c0.004-0.007,0.007-0.014,0.011-0.021c0.034-0.064-0.063-0.122-0.098-0.057
			C7.676,5.001,7.637,5.07,7.597,5.14C7.565,5.104,7.506,5.097,7.473,5.152c-0.101,0.172-0.2,0.344-0.3,0.517
			C7.159,5.68,7.145,5.689,7.131,5.7C7.128,5.666,7.125,5.632,7.122,5.599C7.213,5.36,7.304,5.122,7.396,4.884
			C7.763,4.886,8.131,4.879,8.498,4.875z M6.378,9.109c0.017-0.062,0.034-0.124,0.052-0.186C6.45,8.889,6.471,8.855,6.491,8.821
			C6.499,8.957,6.508,9.094,6.516,9.23C6.467,9.323,6.418,9.417,6.374,9.512C6.378,9.379,6.378,9.244,6.378,9.109z M6.355,8.023
			c-0.003-0.131-0.006-0.262-0.006-0.39c0-0.022,0.001-0.045,0.001-0.068C6.366,7.579,6.396,7.58,6.411,7.559
			c0.019-0.027,0.037-0.055,0.056-0.082c-0.001,0.009,0,0.017,0.001,0.025C6.431,7.676,6.393,7.849,6.355,8.023z M6.507,7.123
			C6.451,7.248,6.397,7.373,6.35,7.499C6.352,7.24,6.359,6.977,6.366,6.713C6.398,6.719,6.433,6.709,6.45,6.676
			c0.102-0.189,0.201-0.378,0.301-0.568c-0.118,0.305-0.235,0.61-0.353,0.915C6.372,7.093,6.448,7.14,6.507,7.123z M6.376,6.304
			c0.002-0.088,0-0.175,0-0.263c0.006-0.005,0.012-0.01,0.017-0.017c0.108-0.155,0.217-0.31,0.325-0.464
			c-0.067,0.167-0.133,0.334-0.2,0.5C6.469,6.141,6.42,6.221,6.376,6.304z M6.712,7.9c0.209-0.299,0.382-0.631,0.552-0.958
			C7.189,7.12,7.113,7.299,7.038,7.477C6.954,7.629,6.871,7.78,6.788,7.933C6.739,8.024,6.686,8.116,6.633,8.209L6.632,8.191
			C6.659,8.094,6.685,7.997,6.712,7.9z M7.261,7.775c-0.015,0.03-0.031,0.06-0.046,0.091C7.265,7.728,7.316,7.59,7.37,7.455
			c0.252-0.478,0.503-0.956,0.754-1.434c0.005,0.014,0.014,0.025,0.025,0.035C7.852,6.628,7.554,7.2,7.261,7.775z M7.339,8.191
			C7.262,8.358,7.187,8.525,7.113,8.693C7.107,8.672,7.095,8.654,7.078,8.642C7.165,8.492,7.253,8.342,7.339,8.191z M7.286,6.431
			C7.337,6.309,7.389,6.188,7.44,6.066c0.002,0.008,0.004,0.017,0.006,0.025c0.003,0.009,0.009,0.016,0.015,0.023
			C7.403,6.22,7.344,6.325,7.286,6.431z M7.538,6.648C7.644,6.39,7.752,6.132,7.86,5.874c0.049-0.047,0.097-0.095,0.145-0.142
			C7.844,6.032,7.691,6.337,7.563,6.648c-0.002,0.005-0.003,0.01-0.003,0.015C7.555,6.656,7.546,6.651,7.538,6.648z M8.31,5.975
			c0.02-0.031,0.04-0.062,0.06-0.093c0,0.025,0.001,0.05,0.001,0.075c0,0.019,0.008,0.036,0.018,0.05
			c-0.197,0.335-0.395,0.671-0.59,1.008C7.969,6.668,8.14,6.321,8.31,5.975z M7.216,4.883c-0.057,0.106-0.113,0.211-0.17,0.317
			C7.042,5.197,7.038,5.195,7.033,5.194c0.028-0.071,0.055-0.141,0.083-0.212C7.151,4.894,7.02,4.853,6.973,4.921
			C6.831,5.124,6.689,5.326,6.547,5.529C6.568,5.458,6.59,5.387,6.612,5.316c0.09-0.13,0.178-0.261,0.268-0.385
			C6.895,4.91,6.891,4.89,6.879,4.876C6.991,4.879,7.104,4.881,7.216,4.883z M6.378,4.851c0.138,0.01,0.277,0.017,0.416,0.022
			C6.792,4.875,6.79,4.876,6.789,4.878C6.744,4.938,6.695,4.999,6.648,5.06C6.613,5.026,6.548,5.021,6.52,5.073
			C6.468,5.167,6.416,5.261,6.364,5.355c-0.009-0.18-0.021-0.36-0.043-0.536C6.333,4.836,6.351,4.849,6.378,4.851z M6.656,10.147
			c-0.114,0.002-0.227,0.008-0.338,0.021c0.007-0.047,0.011-0.095,0.016-0.143c0.003-0.003,0.006-0.004,0.008-0.007
			C6.383,9.96,6.425,9.902,6.466,9.844c0.016,0.04,0.053,0.068,0.092,0.062c0.003,0.049,0.006,0.098,0.009,0.147
			c0.003,0.046,0.046,0.087,0.09,0.092C6.656,10.146,6.656,10.146,6.656,10.147z M6.727,8.827C6.711,8.858,6.693,8.89,6.677,8.921
			C6.674,8.873,6.671,8.825,6.668,8.776c0.005-0.006,0.01-0.012,0.015-0.021C6.757,8.617,6.83,8.477,6.904,8.338
			C6.863,8.461,6.824,8.585,6.786,8.709C6.767,8.748,6.746,8.788,6.727,8.827z M6.865,10.147c0.023-0.04,0.046-0.081,0.07-0.121
			c0.04,0.033,0.106,0.036,0.137-0.021c0.007-0.014,0.015-0.027,0.022-0.041c-0.01,0.026-0.02,0.052-0.03,0.078
			c-0.023,0.061,0.028,0.108,0.082,0.113C7.053,10.151,6.959,10.149,6.865,10.147z M7.301,10.16
			C7.301,10.16,7.301,10.16,7.301,10.16c-0.05-0.001-0.101-0.003-0.152-0.005c0.032,0.002,0.064-0.01,0.083-0.043l0.154-0.274
			C7.357,9.945,7.329,10.052,7.301,10.16z M8.067,10.167c-0.16,0-0.32,0-0.48-0.001c-0.027,0-0.054-0.001-0.081-0.001
			c0.069-0.121,0.139-0.243,0.208-0.364C7.699,9.857,7.683,9.913,7.668,9.97c-0.026,0.098,0.115,0.16,0.165,0.069
			c0.071-0.128,0.142-0.257,0.213-0.385c-0.041,0.132-0.082,0.264-0.122,0.397c-0.026,0.088,0.11,0.149,0.15,0.063
			c0.007-0.016,0.015-0.031,0.022-0.047C8.087,10.101,8.077,10.134,8.067,10.167z M8.054,9.297C8.047,9.309,8.04,9.321,8.033,9.333
			c0.003-0.012,0.007-0.024,0.01-0.036H7.791c-0.045,0.079-0.09,0.158-0.135,0.237c0.021-0.079,0.041-0.158,0.062-0.237H7.176
			l0.202-0.537C7.367,8.725,7.335,8.699,7.299,8.693c0.154-0.3,0.302-0.605,0.447-0.91l0.7-1.862h0.229
			c0.003-0.004,0.005-0.008,0.007-0.012C8.717,5.88,8.749,5.85,8.78,5.819C8.763,5.853,8.746,5.887,8.729,5.921H9.02
			c0.022-0.034,0.042-0.069,0.064-0.102C9.067,5.853,9.05,5.887,9.033,5.921h0.55l0.008,0.021C9.658,5.846,9.724,5.75,9.79,5.653
			C9.726,5.76,9.666,5.869,9.604,5.977l0.63,1.677c0.092-0.192,0.184-0.383,0.275-0.575c0.186-0.305,0.384-0.603,0.594-0.893
			c-0.124,0.335-0.259,0.665-0.405,0.99c-0.129,0.229-0.257,0.458-0.385,0.687l0.101,0.269c0.155-0.294,0.302-0.592,0.437-0.896
			c0.053-0.096,0.107-0.192,0.161-0.288c-0.152,0.423-0.322,0.839-0.514,1.245c-0.012,0.022-0.025,0.044-0.037,0.065l0.39,1.038
			h-0.487c-0.05,0.104-0.1,0.208-0.149,0.313c-0.016-0.008-0.035-0.007-0.05,0.006c0.062-0.106,0.125-0.213,0.187-0.319H9.76
			L9.755,9.282C9.744,9.298,9.733,9.313,9.722,9.329c0.011-0.017,0.021-0.035,0.032-0.052L9.672,9.008
			C9.638,9.07,9.603,9.131,9.569,9.192c-0.005,0.003-0.01,0.005-0.014,0.009C9.513,9.239,9.474,9.279,9.439,9.32
			c-0.001,0-0.002-0.001-0.003-0.001c0.067-0.141,0.135-0.281,0.202-0.422L9.591,8.74H8.406L8.241,9.297H8.054z M8.731,8.825
			C8.7,8.914,8.669,9.004,8.639,9.094C8.62,9.099,8.603,9.112,8.592,9.134C8.55,9.222,8.507,9.311,8.464,9.399l0.003-0.012
			C8.556,9.2,8.643,9.012,8.731,8.825z M8.564,10.167c-0.094,0-0.187,0-0.281,0c0.031-0.065,0.062-0.129,0.094-0.194
			c0.035,0.035,0.104,0.038,0.138-0.013c0.052-0.077,0.105-0.153,0.157-0.23C8.636,9.876,8.601,10.022,8.564,10.167z M8.713,9.322
			c0.012-0.006,0.023-0.015,0.031-0.03c0.046-0.09,0.093-0.18,0.139-0.269C8.844,9.115,8.806,9.209,8.768,9.303
			C8.739,9.345,8.71,9.387,8.68,9.428C8.691,9.393,8.702,9.357,8.713,9.322z M9.061,10.168c-0.098,0-0.196,0-0.294,0
			c0.033-0.063,0.066-0.125,0.098-0.188c-0.006,0.022-0.012,0.044-0.018,0.066c-0.019,0.069,0.059,0.132,0.121,0.093
			c0.062-0.038,0.118-0.081,0.169-0.126c0.004,0,0.009,0.001,0.013,0.001c-0.003,0.05-0.003,0.102,0,0.154
			C9.121,10.168,9.091,10.168,9.061,10.168z M8.946,9.479C8.921,9.526,8.895,9.574,8.869,9.621c0.018-0.074,0.035-0.149,0.054-0.223
			c0.081-0.156,0.161-0.313,0.242-0.469C9.089,9.11,9.016,9.294,8.946,9.479z M9.329,10.168C9.464,9.966,9.597,9.763,9.73,9.56
			c-0.092,0.164-0.184,0.327-0.276,0.491c-0.028,0.051-0.004,0.096,0.034,0.117C9.435,10.168,9.382,10.168,9.329,10.168z
			 M9.863,9.778c-0.01,0.021-0.02,0.042-0.03,0.063c-0.015,0.031-0.01,0.061,0.003,0.084C9.835,9.93,9.834,9.935,9.833,9.939
			c-0.048,0.076-0.095,0.152-0.141,0.229c-0.04,0-0.079,0-0.119,0c0.012-0.007,0.022-0.016,0.031-0.029
			c0.094-0.142,0.183-0.286,0.27-0.43C9.871,9.732,9.867,9.755,9.863,9.778z M10.233,10.138c-0.005,0.011-0.006,0.021-0.007,0.031
			l-0.232,0c0.014-0.012,0.029-0.023,0.043-0.035c0.036,0.032,0.095,0.038,0.126-0.018c0.031-0.055,0.062-0.11,0.093-0.165
			c0.032-0.027,0.063-0.053,0.095-0.08C10.312,9.96,10.273,10.049,10.233,10.138z"/>
		<path class="st0" d="M8.631,10.92c0,0.006-0.001,0.012-0.001,0.018c-0.864-0.087-1.745-0.04-2.613-0.036
			c-0.934,0.004-1.884-0.046-2.816,0.022c-0.04,0.003-0.062,0.03-0.067,0.059c-0.019-0.051-0.091-0.049-0.099,0.013
			c-0.041,0.318-0.056,0.643-0.059,0.971c-0.017,0.031-0.035,0.062-0.051,0.093c-0.016,0.033,0.023,0.065,0.051,0.041
			c0.001,0.536,0.029,1.076,0.028,1.598c-0.001,0.799-0.078,1.648,0.003,2.45c-0.02,0.037-0.011,0.071,0.011,0.095
			c0.006,0.052,0.011,0.104,0.018,0.155c-0.039,0.006-0.078,0.012-0.116,0.02c-0.058,0.013-0.058,0.105,0,0.117
			c0.429,0.094,0.905,0.038,1.343,0.038c0.194,0,0.388,0,0.583-0.001c0.018,0.066,0.121,0.098,0.157,0.023
			c0.004-0.008,0.008-0.016,0.011-0.024c0.241,0,0.482,0,0.722-0.001c0.477-0.001,0.955-0.001,1.432-0.002l-0.025,0.056
			c-0.045,0.1,0.095,0.188,0.15,0.088l0.079-0.143c0.085,0.001,0.171,0.004,0.257,0.006l-0.011,0.028
			c-0.037,0.091,0.112,0.151,0.157,0.066c0.016-0.03,0.032-0.06,0.047-0.09c0.012,0,0.024,0,0.036,0.001
			c0.022,0.058,0.118,0.083,0.15,0.015l0.007-0.014c0.015,0,0.03,0,0.045,0c-0.008,0.033-0.015,0.066-0.023,0.099
			c-0.024,0.105,0.119,0.139,0.157,0.043l0.058-0.146c0.151-0.006,0.301-0.018,0.447-0.043c0.02-0.003,0.031-0.018,0.038-0.035
			c0.017-0.013,0.029-0.034,0.029-0.062c0-1.832,0.085-3.692-0.03-5.521C8.734,10.851,8.635,10.851,8.631,10.92z M6.739,11.101
			c0.295,0.005,0.59,0.008,0.885,0.004c-0.065,0.083-0.127,0.167-0.19,0.25c0.015-0.037,0.03-0.075,0.045-0.112
			c0.041-0.103-0.112-0.15-0.168-0.071c-0.03,0.043-0.06,0.086-0.09,0.128c-0.014-0.005-0.03-0.006-0.045,0.002
			c0.003-0.007,0.006-0.013,0.009-0.02c0.045-0.098-0.084-0.177-0.146-0.085c-0.008,0.011-0.015,0.023-0.022,0.034
			c-0.016-0.068-0.123-0.091-0.169-0.023c-0.003,0.005-0.007,0.01-0.01,0.015c-0.023-0.046-0.085-0.068-0.133-0.035
			C6.715,11.16,6.728,11.131,6.739,11.101z M5.869,11.09c0.188,0.001,0.376,0.004,0.565,0.007c-0.116,0.126-0.227,0.255-0.333,0.389
			c-0.012-0.024-0.036-0.041-0.062-0.041c0.027-0.058,0.053-0.117,0.08-0.175c0.033-0.071-0.072-0.134-0.106-0.062
			c-0.033,0.068-0.067,0.136-0.1,0.204c-0.026-0.05-0.105-0.066-0.14-0.006c-0.011,0.018-0.023,0.036-0.034,0.054
			c0.003-0.006,0.006-0.012,0.009-0.018c0.007-0.014,0.006-0.027,0.003-0.039c0.024-0.064,0.05-0.128,0.073-0.193
			c0.027-0.077-0.089-0.121-0.129-0.054c-0.102,0.169-0.215,0.332-0.334,0.492c0.065-0.151,0.13-0.301,0.19-0.453
			c0.025-0.063-0.065-0.107-0.108-0.069c-0.019-0.01-0.043-0.014-0.065-0.006c-0.006-0.013-0.018-0.022-0.031-0.026
			C5.522,11.09,5.696,11.089,5.869,11.09z M5.322,11.092c-0.009,0.003-0.018,0.009-0.025,0.021
			c-0.058,0.102-0.117,0.205-0.175,0.309c-0.069,0.065-0.138,0.13-0.207,0.196c0.054-0.108,0.107-0.216,0.157-0.325
			c0.029-0.064-0.057-0.117-0.096-0.056c-0.016,0.026-0.031,0.052-0.048,0.078c-0.031-0.017-0.072-0.014-0.096,0.029
			c-0.142,0.254-0.283,0.509-0.424,0.763c-0.001,0.001-0.002,0.002-0.003,0.003c-0.008-0.045-0.012-0.089-0.013-0.133
			c0.081-0.191,0.162-0.382,0.243-0.572c0.011-0.02,0.025-0.038,0.036-0.058c0.028-0.052-0.004-0.105-0.048-0.12
			c0.004-0.007,0.007-0.014,0.011-0.021c0.034-0.065-0.063-0.122-0.098-0.057C4.5,11.218,4.46,11.287,4.421,11.356
			c-0.033-0.035-0.092-0.043-0.125,0.013c-0.101,0.172-0.2,0.344-0.3,0.517c-0.013,0.011-0.028,0.02-0.042,0.031
			c-0.003-0.034-0.006-0.067-0.009-0.101c0.091-0.238,0.181-0.477,0.273-0.715C4.587,11.102,4.955,11.096,5.322,11.092z
			 M3.201,15.326c0.017-0.062,0.034-0.124,0.052-0.186c0.021-0.034,0.042-0.068,0.062-0.102c0.008,0.136,0.017,0.273,0.025,0.409
			c-0.049,0.093-0.098,0.187-0.142,0.282C3.202,15.595,3.202,15.461,3.201,15.326z M3.178,14.24
			c-0.003-0.131-0.006-0.262-0.006-0.39c0-0.022,0.001-0.045,0.001-0.068c0.017,0.014,0.047,0.015,0.062-0.007
			c0.019-0.027,0.037-0.055,0.056-0.082c-0.001,0.009,0,0.017,0.001,0.025C3.254,13.892,3.216,14.066,3.178,14.24z M3.331,13.34
			c-0.056,0.124-0.11,0.249-0.157,0.376c0.002-0.259,0.009-0.522,0.017-0.785c0.032,0.005,0.066-0.004,0.084-0.038
			c0.102-0.189,0.201-0.378,0.301-0.568c-0.118,0.305-0.235,0.61-0.353,0.915C3.195,13.31,3.272,13.357,3.331,13.34z M3.199,12.52
			c0.002-0.088,0-0.175,0-0.263c0.006-0.005,0.012-0.01,0.017-0.017c0.108-0.155,0.217-0.31,0.325-0.464
			c-0.067,0.167-0.133,0.334-0.2,0.5C3.293,12.358,3.244,12.438,3.199,12.52z M3.536,14.117c0.209-0.299,0.382-0.631,0.552-0.958
			c-0.075,0.179-0.15,0.357-0.226,0.535c-0.084,0.152-0.167,0.304-0.249,0.456c-0.049,0.091-0.102,0.183-0.156,0.276l-0.001-0.018
			C3.482,14.311,3.509,14.214,3.536,14.117z M4.039,11.099c-0.057,0.106-0.113,0.211-0.17,0.317
			c-0.004-0.002-0.008-0.004-0.013-0.006c0.028-0.071,0.055-0.141,0.083-0.212c0.035-0.088-0.096-0.129-0.144-0.06
			c-0.142,0.203-0.284,0.405-0.426,0.608c0.022-0.071,0.044-0.142,0.065-0.213c0.09-0.13,0.178-0.261,0.268-0.385
			c0.015-0.021,0.012-0.041-0.001-0.055C3.815,11.096,3.927,11.098,4.039,11.099z M3.202,11.068c0.138,0.01,0.277,0.017,0.416,0.022
			c-0.002,0.002-0.004,0.003-0.005,0.005c-0.045,0.061-0.094,0.122-0.141,0.183c-0.035-0.034-0.099-0.039-0.128,0.013
			c-0.052,0.094-0.104,0.188-0.155,0.282c-0.009-0.18-0.021-0.36-0.043-0.536C3.156,11.053,3.174,11.066,3.202,11.068z M3.48,16.364
			c-0.114,0.002-0.227,0.008-0.338,0.021c0.007-0.047,0.011-0.095,0.016-0.143c0.003-0.003,0.006-0.004,0.008-0.007
			c0.041-0.058,0.083-0.115,0.124-0.173c0.016,0.04,0.053,0.068,0.092,0.062c0.003,0.049,0.006,0.098,0.009,0.147
			c0.003,0.046,0.046,0.087,0.09,0.092C3.48,16.363,3.48,16.363,3.48,16.364z M3.55,15.044c-0.016,0.031-0.033,0.063-0.049,0.094
			c-0.003-0.048-0.006-0.097-0.009-0.145c0.005-0.006,0.01-0.012,0.015-0.021c0.074-0.139,0.147-0.279,0.221-0.418
			c-0.041,0.123-0.079,0.247-0.117,0.371C3.59,14.965,3.57,15.004,3.55,15.044z M3.689,16.364c0.023-0.04,0.046-0.081,0.07-0.121
			c0.04,0.033,0.106,0.036,0.137-0.021c0.007-0.014,0.015-0.027,0.022-0.041c-0.01,0.026-0.02,0.052-0.03,0.078
			c-0.023,0.061,0.028,0.108,0.082,0.113C3.876,16.368,3.783,16.365,3.689,16.364z M3.902,14.859c0.087-0.15,0.175-0.3,0.261-0.451
			c-0.078,0.166-0.152,0.334-0.226,0.501C3.931,14.888,3.918,14.871,3.902,14.859z M4.124,16.376
			C4.124,16.377,4.124,16.377,4.124,16.376c-0.05-0.001-0.101-0.003-0.152-0.005c0.032,0.002,0.064-0.01,0.083-0.043l0.154-0.274
			C4.181,16.162,4.153,16.269,4.124,16.376z M4.89,16.383c-0.16,0-0.32,0-0.48-0.001c-0.027,0-0.054-0.001-0.081-0.001
			c0.069-0.121,0.139-0.243,0.208-0.364c-0.015,0.056-0.031,0.112-0.046,0.169c-0.026,0.098,0.115,0.16,0.165,0.069
			c0.071-0.128,0.142-0.257,0.213-0.385c-0.041,0.132-0.082,0.264-0.122,0.397c-0.026,0.088,0.11,0.149,0.15,0.063
			c0.007-0.016,0.015-0.031,0.022-0.047C4.91,16.317,4.9,16.35,4.89,16.383z M5.388,16.384c-0.094,0-0.187,0-0.281,0
			c0.031-0.065,0.062-0.129,0.094-0.194c0.035,0.035,0.104,0.038,0.138-0.013c0.052-0.077,0.105-0.153,0.157-0.23
			C5.46,16.093,5.424,16.238,5.388,16.384z M5.885,16.384c-0.098,0-0.196,0-0.294,0c0.033-0.063,0.066-0.125,0.098-0.188
			c-0.006,0.022-0.012,0.044-0.018,0.066c-0.019,0.069,0.059,0.132,0.121,0.093c0.062-0.038,0.118-0.081,0.169-0.126
			c0.004,0,0.009,0.001,0.013,0.001c-0.003,0.05-0.003,0.102,0,0.154C5.944,16.384,5.915,16.384,5.885,16.384z M6.152,16.385
			c0.135-0.202,0.269-0.405,0.401-0.608c-0.092,0.164-0.184,0.327-0.276,0.491c-0.028,0.051-0.004,0.096,0.034,0.117
			C6.258,16.385,6.205,16.385,6.152,16.385z M6.686,15.995c-0.01,0.021-0.02,0.042-0.03,0.063c-0.015,0.031-0.01,0.061,0.003,0.084
			c-0.001,0.005-0.002,0.009-0.003,0.014c-0.048,0.076-0.095,0.152-0.141,0.229c-0.04,0-0.079,0-0.119,0
			c0.012-0.007,0.022-0.016,0.031-0.029c0.094-0.142,0.183-0.286,0.27-0.43C6.695,15.949,6.69,15.972,6.686,15.995z M7.057,16.355
			c-0.005,0.011-0.007,0.021-0.007,0.031l-0.232,0c0.014-0.012,0.029-0.023,0.043-0.035c0.036,0.032,0.095,0.038,0.126-0.018
			c0.031-0.055,0.062-0.11,0.093-0.165c0.032-0.027,0.063-0.053,0.095-0.08C7.136,16.177,7.096,16.266,7.057,16.355z M6.99,15.833
			c0.084-0.144,0.169-0.288,0.253-0.432c-0.068,0.142-0.136,0.284-0.203,0.426C7.023,15.819,7.005,15.82,6.99,15.833z M7.202,16.027
			c-0.004-0.013-0.012-0.024-0.024-0.032c0.057-0.1,0.114-0.2,0.171-0.3C7.3,15.805,7.251,15.916,7.202,16.027z M7.367,14.31
			c0.019,0.076,0.031,0.156,0.031,0.244c0,0.175-0.041,0.332-0.122,0.472c-0.081,0.14-0.193,0.25-0.334,0.332
			c-0.077,0.044-0.19,0.078-0.335,0.101c-0.021,0.029-0.041,0.058-0.061,0.088c0.018-0.028,0.035-0.058,0.053-0.086
			c-0.018,0.003-0.034,0.006-0.052,0.008C6.45,15.481,6.37,15.49,6.3,15.498c-0.012,0.013-0.026,0.026-0.038,0.039
			c-0.001,0-0.002-0.001-0.003-0.001c0.006-0.012,0.011-0.024,0.017-0.036c-0.089,0.009-0.156,0.014-0.198,0.014H5.842
			c-0.024,0.061-0.049,0.121-0.072,0.182c-0.026,0.047-0.051,0.094-0.077,0.142c0.018-0.074,0.035-0.149,0.054-0.223
			c0.017-0.033,0.034-0.067,0.052-0.1H5.594c-0.001,0.002-0.002,0.004-0.002,0.006c-0.029,0.042-0.059,0.083-0.088,0.125
			c0.011-0.035,0.022-0.071,0.032-0.106c0.01-0.005,0.019-0.013,0.027-0.024H5.337c-0.016,0.034-0.033,0.068-0.049,0.101
			l0.003-0.012c0.014-0.03,0.028-0.06,0.042-0.089H4.877c-0.007,0.012-0.014,0.024-0.021,0.036c0.003-0.012,0.007-0.024,0.01-0.036
			H4.614c-0.045,0.079-0.09,0.158-0.135,0.237c0.021-0.079,0.041-0.158,0.062-0.237H4.277v-0.668
			c-0.027,0.067-0.054,0.134-0.08,0.201c0.002-0.007,0.004-0.015,0.006-0.022c0.015-0.061-0.03-0.107-0.081-0.115
			c0.053-0.103,0.103-0.207,0.155-0.311v-0.981c-0.064,0.124-0.129,0.248-0.193,0.373c-0.015,0.03-0.031,0.06-0.046,0.091
			c0.05-0.138,0.101-0.275,0.155-0.411c0.028-0.053,0.056-0.106,0.084-0.159v-1.168c-0.056,0.101-0.113,0.202-0.168,0.303
			c0.051-0.122,0.103-0.243,0.155-0.365c0.002,0.008,0.004,0.017,0.006,0.025c0.001,0.005,0.005,0.008,0.007,0.012v-0.182h0.387
			c0.007-0.016,0.013-0.032,0.02-0.048c0.049-0.047,0.097-0.095,0.145-0.142c-0.034,0.063-0.067,0.126-0.1,0.19h0.439
			c0.009-0.013,0.017-0.026,0.025-0.04c0,0.013,0,0.026,0,0.04h0.303c0.003-0.004,0.005-0.008,0.007-0.012
			c0.035-0.029,0.068-0.059,0.099-0.09c-0.017,0.034-0.034,0.068-0.052,0.102h0.292c0.022-0.034,0.042-0.069,0.064-0.102
			c-0.018,0.034-0.034,0.068-0.052,0.102H6.23c0.067,0,0.13,0.006,0.191,0.013c0.064-0.093,0.129-0.187,0.193-0.28
			c-0.056,0.093-0.108,0.188-0.162,0.282c0.22,0.029,0.396,0.105,0.529,0.227c0.05,0.046,0.09,0.096,0.126,0.148
			c0.097-0.188,0.194-0.376,0.291-0.564c0.042-0.055,0.084-0.109,0.126-0.164c-0.007,0.02-0.013,0.04-0.02,0.06
			c-0.121,0.234-0.242,0.468-0.364,0.702c-0.003,0.004-0.005,0.008-0.007,0.012c0.07,0.12,0.109,0.254,0.109,0.404
			c0,0.053-0.005,0.104-0.014,0.154c0.08-0.165,0.16-0.33,0.24-0.494c0.009-0.014,0.019-0.028,0.028-0.043
			c-0.092,0.188-0.183,0.377-0.275,0.565c-0.027,0.123-0.08,0.235-0.165,0.332c-0.083,0.095-0.204,0.17-0.364,0.226
			c0.147,0.035,0.267,0.088,0.367,0.153c0.092-0.192,0.184-0.383,0.276-0.575c0.186-0.305,0.384-0.603,0.594-0.893
			c-0.124,0.335-0.259,0.665-0.405,0.99c-0.11,0.197-0.22,0.393-0.331,0.59c0.011,0.012,0.025,0.023,0.035,0.035
			c0.04,0.05,0.071,0.106,0.097,0.165c0.123-0.241,0.242-0.483,0.352-0.73c0.053-0.096,0.107-0.192,0.161-0.288
			C7.696,13.554,7.539,13.936,7.367,14.31z M8.008,13.753c-0.095,0.162-0.191,0.325-0.286,0.487
			c0.102-0.212,0.204-0.424,0.306-0.636C8.022,13.654,8.015,13.703,8.008,13.753z M8.125,11.875
			c-0.002,0.002-0.004,0.002-0.005,0.004c-0.105,0.134-0.207,0.27-0.307,0.408c0.019-0.041,0.039-0.082,0.059-0.123
			c0.097-0.153,0.193-0.307,0.289-0.461C8.149,11.761,8.137,11.818,8.125,11.875z M8.364,15.396
			C8.345,15.384,8.322,15.377,8.3,15.38l0.072-0.178C8.37,15.265,8.367,15.33,8.364,15.396z M8.285,12.872
			c0.012-0.095,0.025-0.191,0.038-0.286c0.002,0.081,0.004,0.162,0.007,0.242c-0.006,0.022-0.013,0.043-0.019,0.065
			C8.303,12.885,8.294,12.878,8.285,12.872z M8.332,11.141C8.316,11.165,8.3,11.19,8.284,11.214
			c-0.01-0.074-0.111-0.112-0.166-0.035c-0.098,0.136-0.196,0.271-0.294,0.407c0.061-0.119,0.122-0.237,0.183-0.355
			c0.029-0.055-0.016-0.115-0.066-0.119c0.001-0.005,0.002-0.011,0.002-0.015c0.188-0.006,0.376-0.017,0.562-0.032
			c-0.001,0.069-0.002,0.137-0.003,0.206c-0.016-0.004-0.033-0.004-0.048,0.002c0.006-0.023,0.011-0.047,0.017-0.07
			C8.495,11.114,8.379,11.07,8.332,11.141z M8.501,11.571c0,0.218,0.002,0.436,0.005,0.654c-0.008-0.177-0.02-0.354-0.043-0.527
			C8.475,11.656,8.488,11.614,8.501,11.571z M8.481,16.395c0.015-0.053,0.026-0.108,0.035-0.164
			c0.005,0.011,0.013,0.018,0.024,0.022c0.005,0.027,0.009,0.055,0.015,0.082c0.005,0.021,0.03,0.027,0.046,0.018
			c0,0.017,0,0.034,0,0.052C8.562,16.4,8.521,16.399,8.481,16.395z"/>
		<path class="st0" d="M5.669,13.42c-0.005,0.014-0.009,0.028-0.014,0.043h0.128c0.163,0,0.276-0.028,0.34-0.084
			c0.064-0.056,0.096-0.137,0.096-0.243c0-0.098-0.032-0.175-0.096-0.23c-0.017-0.015-0.037-0.027-0.061-0.038
			c-0.036,0.071-0.075,0.14-0.11,0.212c0.024-0.075,0.049-0.15,0.073-0.225c-0.061-0.021-0.138-0.032-0.235-0.032H5.522
			c-0.066,0.144-0.13,0.289-0.192,0.435v0.206h0.32C5.656,13.448,5.663,13.434,5.669,13.42z"/>
		<path class="st0" d="M5.33,14.105v0.053c0.008-0.018,0.016-0.035,0.024-0.053H5.33z"/>
		<path class="st0" d="M5.33,12.822v0.342c0.054-0.114,0.108-0.228,0.162-0.342H5.33z"/>
		<path class="st0" d="M6.098,14.129c-0.015,0.029-0.03,0.059-0.045,0.088c0.013-0.03,0.028-0.059,0.041-0.089
			c-0.064-0.015-0.142-0.023-0.234-0.023H5.445c-0.039,0.118-0.077,0.235-0.115,0.353v0.331h0.532c0.18,0,0.306-0.032,0.38-0.096
			c0.074-0.064,0.11-0.149,0.11-0.257c0-0.1-0.036-0.18-0.109-0.241C6.208,14.166,6.159,14.145,6.098,14.129z"/>
		<path class="st0" d="M13.639,13.133l-0.229,0.051c-0.004,0.008-0.008,0.017-0.012,0.025c-0.01,0.016-0.019,0.031-0.029,0.047
			c0.011-0.023,0.023-0.047,0.034-0.07l-0.675,0.15c-0.002-0.007-0.005-0.013-0.007-0.02c-0.156,0.301-0.311,0.601-0.467,0.902
			c0.139-0.313,0.294-0.619,0.461-0.917c-0.029-0.084-0.058-0.148-0.089-0.19c-0.058-0.08-0.13-0.141-0.214-0.184
			c-0.047-0.024-0.099-0.04-0.153-0.05c-0.035,0.068-0.072,0.135-0.106,0.204c0.022-0.069,0.045-0.138,0.068-0.208
			c-0.03-0.004-0.06-0.01-0.092-0.01c-0.236,0-0.418,0.095-0.544,0.285c-0.014,0.021-0.026,0.048-0.038,0.073
			c-0.011,0.027-0.023,0.053-0.034,0.08c-0.046,0.132-0.071,0.301-0.071,0.512c0,0.179,0.013,0.33,0.039,0.454
			c0.129-0.282,0.26-0.564,0.389-0.846c-0.112,0.342-0.224,0.684-0.335,1.026c0.022,0.053,0.048,0.098,0.078,0.135
			c0.114,0.139,0.273,0.208,0.479,0.208c0.2,0,0.35-0.056,0.453-0.168c0.102-0.112,0.176-0.275,0.222-0.488l0.32,0.097
			c0.149-0.311,0.299-0.622,0.447-0.933C13.569,13.241,13.605,13.187,13.639,13.133z"/>
		<path class="st0" d="M14.94,10.92c-0.004-0.069-0.103-0.069-0.108,0c0,0.006-0.001,0.012-0.001,0.018
			c-0.864-0.087-1.745-0.04-2.613-0.036c-0.934,0.004-1.884-0.046-2.816,0.022c-0.04,0.003-0.062,0.03-0.067,0.059
			c-0.019-0.051-0.091-0.049-0.099,0.013c-0.041,0.318-0.056,0.643-0.059,0.971c-0.017,0.031-0.035,0.062-0.051,0.093
			c-0.016,0.033,0.023,0.065,0.051,0.041c0.001,0.536,0.029,1.076,0.028,1.598c-0.001,0.799-0.078,1.648,0.003,2.45
			c-0.02,0.037-0.011,0.071,0.011,0.095c0.006,0.052,0.011,0.104,0.018,0.155c-0.039,0.006-0.078,0.012-0.116,0.02
			c-0.058,0.013-0.058,0.105,0,0.117c0.429,0.094,0.905,0.038,1.343,0.038c0.194,0,0.388,0,0.583-0.001
			c0.018,0.066,0.121,0.098,0.157,0.023c0.004-0.008,0.008-0.016,0.011-0.024c0.241,0,0.482,0,0.722-0.001
			c0.477-0.001,0.955-0.001,1.432-0.002l-0.025,0.056c-0.045,0.1,0.095,0.188,0.15,0.088l0.079-0.143
			c0.085,0.001,0.171,0.004,0.257,0.006l-0.011,0.028c-0.037,0.091,0.112,0.151,0.157,0.066c0.016-0.03,0.032-0.06,0.047-0.09
			c0.012,0,0.024,0,0.036,0.001c0.022,0.058,0.117,0.083,0.15,0.015l0.007-0.014c0.015,0,0.03,0,0.045,0
			c-0.008,0.033-0.015,0.066-0.023,0.099c-0.024,0.105,0.119,0.139,0.157,0.043l0.058-0.146c0.151-0.006,0.301-0.018,0.447-0.043
			c0.02-0.003,0.031-0.018,0.038-0.035c0.017-0.013,0.029-0.034,0.029-0.062C14.97,14.609,15.054,12.749,14.94,10.92z
			 M12.941,11.101c0.295,0.005,0.59,0.008,0.885,0.004c-0.065,0.083-0.127,0.167-0.19,0.25c0.015-0.037,0.03-0.075,0.045-0.112
			c0.041-0.103-0.112-0.15-0.168-0.071c-0.03,0.043-0.06,0.086-0.09,0.128c-0.014-0.005-0.03-0.006-0.045,0.002
			c0.003-0.007,0.006-0.013,0.009-0.02c0.045-0.098-0.084-0.177-0.146-0.085c-0.008,0.011-0.015,0.023-0.022,0.034
			c-0.016-0.068-0.123-0.091-0.169-0.023c-0.003,0.005-0.007,0.01-0.01,0.015c-0.023-0.046-0.085-0.068-0.133-0.035
			C12.917,11.16,12.93,11.131,12.941,11.101z M12.071,11.09c0.188,0.001,0.376,0.004,0.565,0.007
			c-0.116,0.126-0.227,0.255-0.333,0.389c-0.012-0.024-0.036-0.041-0.062-0.041c0.027-0.058,0.053-0.117,0.08-0.175
			c0.033-0.071-0.072-0.134-0.106-0.062c-0.033,0.068-0.067,0.136-0.1,0.204c-0.026-0.05-0.105-0.066-0.14-0.006
			c-0.011,0.018-0.023,0.036-0.034,0.054c0.003-0.006,0.006-0.012,0.009-0.018c0.007-0.014,0.006-0.027,0.003-0.039
			c0.024-0.064,0.05-0.128,0.073-0.193c0.027-0.077-0.089-0.121-0.129-0.054c-0.102,0.169-0.215,0.332-0.334,0.492
			c0.065-0.151,0.13-0.301,0.19-0.453c0.025-0.063-0.065-0.107-0.108-0.069c-0.019-0.01-0.043-0.014-0.065-0.006
			c-0.006-0.013-0.018-0.022-0.031-0.026C11.723,11.09,11.897,11.089,12.071,11.09z M11.523,11.092
			c-0.009,0.003-0.018,0.009-0.025,0.021c-0.058,0.102-0.117,0.205-0.175,0.309c-0.069,0.065-0.138,0.13-0.207,0.196
			c0.054-0.108,0.107-0.216,0.157-0.325c0.029-0.064-0.057-0.117-0.096-0.056c-0.016,0.026-0.031,0.052-0.048,0.078
			c-0.031-0.017-0.072-0.014-0.095,0.029c-0.142,0.254-0.283,0.509-0.424,0.763c-0.001,0.001-0.002,0.002-0.003,0.003
			c-0.008-0.045-0.012-0.089-0.013-0.133c0.081-0.191,0.162-0.382,0.243-0.572c0.011-0.02,0.025-0.038,0.036-0.058
			c0.028-0.052-0.004-0.105-0.048-0.12c0.004-0.007,0.007-0.014,0.011-0.021c0.034-0.065-0.063-0.122-0.098-0.057
			c-0.038,0.069-0.077,0.139-0.116,0.208c-0.033-0.035-0.092-0.043-0.125,0.013c-0.101,0.172-0.2,0.344-0.3,0.517
			c-0.013,0.011-0.028,0.02-0.042,0.031c-0.003-0.034-0.006-0.067-0.008-0.101c0.091-0.238,0.181-0.477,0.273-0.715
			C10.788,11.102,11.156,11.096,11.523,11.092z M11.031,11.948c-0.162,0.301-0.315,0.606-0.442,0.917
			c-0.002,0.005-0.003,0.01-0.003,0.015c-0.006-0.007-0.014-0.011-0.023-0.015c0.106-0.259,0.214-0.517,0.322-0.775
			C10.934,12.043,10.983,11.996,11.031,11.948z M10.486,12.331c-0.058,0.105-0.117,0.21-0.176,0.316
			c0.051-0.122,0.103-0.243,0.155-0.365c0.002,0.008,0.004,0.017,0.006,0.025C10.475,12.317,10.481,12.324,10.486,12.331z
			 M9.403,15.326c0.017-0.062,0.034-0.124,0.052-0.186c0.021-0.034,0.042-0.068,0.062-0.102c0.008,0.136,0.017,0.273,0.025,0.409
			c-0.049,0.093-0.098,0.187-0.142,0.282C9.404,15.595,9.403,15.461,9.403,15.326z M9.38,14.24c-0.003-0.131-0.006-0.262-0.006-0.39
			c0-0.022,0.001-0.045,0.001-0.068c0.017,0.014,0.047,0.015,0.062-0.007c0.019-0.027,0.037-0.055,0.056-0.082
			c-0.001,0.009,0,0.017,0.001,0.025C9.456,13.892,9.418,14.066,9.38,14.24z M9.532,13.34c-0.056,0.124-0.11,0.249-0.157,0.376
			c0.002-0.259,0.009-0.522,0.017-0.785c0.032,0.005,0.066-0.004,0.084-0.038c0.102-0.189,0.201-0.378,0.301-0.568
			c-0.118,0.305-0.235,0.61-0.353,0.915C9.397,13.31,9.474,13.357,9.532,13.34z M9.401,12.52c0.002-0.088,0-0.175,0-0.263
			c0.006-0.005,0.012-0.01,0.017-0.017c0.108-0.155,0.217-0.31,0.325-0.464c-0.067,0.167-0.133,0.334-0.2,0.5
			C9.494,12.358,9.446,12.438,9.401,12.52z M9.737,14.117c0.209-0.299,0.382-0.631,0.552-0.958c-0.075,0.179-0.15,0.357-0.226,0.535
			c-0.084,0.152-0.167,0.304-0.249,0.456c-0.049,0.091-0.102,0.183-0.156,0.276l-0.001-0.018
			C9.684,14.311,9.711,14.214,9.737,14.117z M10.241,11.099c-0.057,0.106-0.113,0.211-0.17,0.317
			c-0.004-0.002-0.008-0.004-0.013-0.006c0.028-0.071,0.055-0.141,0.083-0.212c0.035-0.088-0.096-0.129-0.143-0.06
			c-0.142,0.203-0.284,0.405-0.426,0.608c0.022-0.071,0.044-0.142,0.065-0.213c0.09-0.13,0.178-0.261,0.268-0.385
			c0.015-0.021,0.012-0.041-0.001-0.055C10.017,11.096,10.129,11.098,10.241,11.099z M9.403,11.068
			c0.138,0.01,0.277,0.017,0.416,0.022c-0.002,0.002-0.004,0.003-0.005,0.005c-0.045,0.061-0.094,0.122-0.141,0.183
			c-0.035-0.034-0.099-0.039-0.128,0.013c-0.052,0.094-0.104,0.188-0.155,0.282c-0.009-0.18-0.021-0.36-0.043-0.536
			C9.358,11.053,9.376,11.066,9.403,11.068z M9.681,16.364c-0.114,0.002-0.227,0.008-0.338,0.021
			c0.007-0.047,0.011-0.095,0.016-0.143c0.003-0.003,0.006-0.004,0.008-0.007c0.041-0.058,0.083-0.115,0.124-0.173
			c0.016,0.04,0.053,0.068,0.092,0.062c0.003,0.049,0.006,0.098,0.009,0.147c0.003,0.046,0.046,0.087,0.09,0.092
			C9.682,16.363,9.682,16.363,9.681,16.364z M9.752,15.044c-0.016,0.031-0.033,0.063-0.049,0.094
			c-0.003-0.048-0.006-0.097-0.009-0.145c0.005-0.006,0.01-0.012,0.015-0.021c0.074-0.139,0.147-0.279,0.221-0.418
			c-0.041,0.123-0.079,0.247-0.117,0.371C9.792,14.965,9.772,15.004,9.752,15.044z M9.891,16.364c0.023-0.04,0.046-0.081,0.07-0.121
			c0.04,0.033,0.106,0.036,0.137-0.021c0.007-0.014,0.015-0.027,0.022-0.041c-0.01,0.026-0.02,0.052-0.03,0.078
			c-0.023,0.061,0.028,0.108,0.082,0.113C10.078,16.368,9.984,16.365,9.891,16.364z M10.103,14.859
			c0.087-0.15,0.175-0.3,0.261-0.451c-0.078,0.166-0.152,0.334-0.226,0.501C10.133,14.888,10.12,14.871,10.103,14.859z
			 M10.326,16.376C10.326,16.377,10.326,16.377,10.326,16.376c-0.05-0.001-0.101-0.003-0.152-0.005
			c0.032,0.002,0.064-0.01,0.083-0.043l0.154-0.274C10.383,16.162,10.354,16.269,10.326,16.376z M11.092,16.383
			c-0.16,0-0.32,0-0.48-0.001c-0.027,0-0.054-0.001-0.081-0.001c0.069-0.121,0.139-0.243,0.208-0.364
			c-0.015,0.056-0.031,0.112-0.046,0.169c-0.026,0.098,0.115,0.16,0.165,0.069c0.071-0.128,0.142-0.257,0.213-0.385
			c-0.041,0.132-0.082,0.264-0.121,0.397c-0.026,0.088,0.11,0.149,0.15,0.063c0.007-0.016,0.015-0.031,0.022-0.047
			C11.112,16.317,11.102,16.35,11.092,16.383z M11.589,16.384c-0.094,0-0.187,0-0.281,0c0.031-0.065,0.062-0.129,0.094-0.194
			c0.035,0.035,0.104,0.038,0.138-0.013c0.052-0.077,0.105-0.153,0.157-0.23C11.662,16.093,11.626,16.238,11.589,16.384z
			 M12.086,16.384c-0.098,0-0.196,0-0.294,0c0.033-0.063,0.066-0.125,0.098-0.188c-0.006,0.022-0.012,0.044-0.018,0.066
			c-0.019,0.069,0.059,0.132,0.121,0.093c0.062-0.038,0.118-0.081,0.169-0.126c0.004,0,0.009,0.001,0.013,0.001
			c-0.003,0.05-0.003,0.102,0,0.154C12.146,16.384,12.116,16.384,12.086,16.384z M12.354,16.385
			c0.135-0.202,0.269-0.405,0.401-0.608c-0.092,0.164-0.184,0.327-0.276,0.491c-0.028,0.051-0.004,0.096,0.034,0.117
			C12.46,16.385,12.407,16.385,12.354,16.385z M12.888,15.995c-0.01,0.021-0.02,0.042-0.03,0.063
			c-0.015,0.031-0.01,0.061,0.003,0.084c-0.001,0.005-0.002,0.009-0.003,0.014c-0.048,0.076-0.095,0.152-0.141,0.229
			c-0.04,0-0.079,0-0.119,0c0.012-0.007,0.022-0.016,0.031-0.029c0.094-0.142,0.183-0.286,0.27-0.43
			C12.896,15.949,12.892,15.972,12.888,15.995z M13.259,16.355c-0.005,0.011-0.007,0.021-0.007,0.031l-0.232,0
			c0.014-0.012,0.029-0.023,0.043-0.035c0.036,0.032,0.095,0.038,0.126-0.018c0.031-0.055,0.062-0.11,0.094-0.165
			c0.032-0.027,0.063-0.053,0.095-0.08C13.337,16.177,13.298,16.266,13.259,16.355z M13.191,15.833
			c0.084-0.144,0.169-0.288,0.253-0.432c-0.068,0.142-0.136,0.284-0.203,0.426C13.225,15.819,13.206,15.82,13.191,15.833z
			 M13.404,16.027c-0.004-0.013-0.012-0.024-0.024-0.032c0.057-0.1,0.114-0.2,0.171-0.3C13.502,15.805,13.453,15.916,13.404,16.027z
			 M13.544,14.367l0.138,0.042c-0.061,0.256-0.158,0.471-0.29,0.643c-0.132,0.172-0.296,0.302-0.492,0.389
			c-0.033,0.015-0.07,0.027-0.106,0.039c-0.016,0.022-0.031,0.045-0.047,0.067c0.014-0.021,0.026-0.043,0.039-0.064
			c-0.176,0.059-0.386,0.09-0.634,0.09c-0.045,0-0.086-0.003-0.129-0.005c-0.017,0.043-0.035,0.086-0.051,0.129
			c-0.026,0.047-0.051,0.094-0.077,0.142c0.018-0.074,0.035-0.149,0.054-0.223c0.009-0.016,0.017-0.033,0.025-0.049
			c-0.069-0.004-0.136-0.01-0.2-0.018c-0.023,0.033-0.046,0.065-0.069,0.098c0.01-0.034,0.021-0.068,0.031-0.102
			c-0.068-0.01-0.133-0.022-0.195-0.037c-0.018,0.037-0.035,0.073-0.053,0.11l0.003-0.012c0.015-0.033,0.031-0.066,0.046-0.098
			c-0.103-0.025-0.201-0.054-0.286-0.093c-0.03-0.014-0.058-0.033-0.087-0.049c-0.036,0.062-0.072,0.125-0.108,0.187
			c0.017-0.061,0.034-0.122,0.051-0.183c0.003-0.013,0.003-0.024,0.001-0.035c-0.084-0.054-0.162-0.121-0.236-0.198
			c-0.012,0.04-0.024,0.079-0.035,0.119c-0.014,0.051,0.023,0.092,0.066,0.105c-0.075,0.131-0.15,0.262-0.225,0.393
			c0.03-0.115,0.06-0.23,0.091-0.345c0.012-0.044-0.01-0.079-0.042-0.099c0.043-0.064,0.083-0.13,0.124-0.196
			c-0.071-0.077-0.14-0.162-0.203-0.262c-0.037-0.059-0.068-0.123-0.097-0.189c-0.053,0.128-0.105,0.257-0.155,0.387
			c0.002-0.007,0.004-0.015,0.006-0.022c0.015-0.061-0.03-0.107-0.081-0.115c0.063-0.123,0.124-0.247,0.185-0.371
			c-0.072-0.209-0.112-0.447-0.112-0.721c0-0.015,0.001-0.029,0.002-0.044c-0.037,0.073-0.075,0.145-0.112,0.218
			c-0.015,0.03-0.031,0.06-0.046,0.091c0.05-0.138,0.101-0.275,0.155-0.411c0.003-0.005,0.005-0.009,0.007-0.014
			c0.026-0.48,0.172-0.857,0.44-1.127c0.078-0.079,0.165-0.146,0.26-0.205c0.016-0.029,0.031-0.059,0.046-0.088
			c0.005,0.014,0.014,0.025,0.025,0.035c-0.003,0.007-0.007,0.013-0.01,0.02c0.051-0.028,0.104-0.053,0.16-0.075
			c0.004-0.008,0.008-0.017,0.012-0.025c0.02-0.031,0.04-0.062,0.06-0.093c0,0.025,0.001,0.05,0.001,0.075
			c0,0.005,0.002,0.01,0.003,0.014c0.102-0.035,0.211-0.062,0.327-0.08c0.027-0.023,0.054-0.047,0.079-0.072
			c-0.011,0.022-0.023,0.045-0.034,0.067c0.098-0.013,0.201-0.021,0.31-0.021c0.01-0.015,0.019-0.03,0.029-0.045
			c-0.008,0.015-0.015,0.03-0.023,0.045c0.006,0,0.011-0.001,0.017-0.001c0.196,0,0.371,0.02,0.528,0.057
			c0.061-0.089,0.122-0.178,0.184-0.267c-0.054,0.09-0.104,0.181-0.156,0.272c0.173,0.043,0.323,0.108,0.448,0.196
			c0.074,0.052,0.142,0.114,0.204,0.184c0.096-0.186,0.192-0.371,0.288-0.557c0.042-0.055,0.084-0.109,0.126-0.164
			c-0.007,0.02-0.013,0.04-0.02,0.06c-0.12,0.233-0.241,0.465-0.362,0.698c0.078,0.094,0.147,0.202,0.206,0.324
			c0.04-0.082,0.079-0.163,0.119-0.245c0.009-0.014,0.019-0.028,0.028-0.043c-0.048,0.098-0.095,0.197-0.143,0.295
			c0.034,0.072,0.065,0.149,0.093,0.232c0.154-0.244,0.313-0.485,0.483-0.719c-0.124,0.335-0.259,0.665-0.405,0.99
			c-0.164,0.293-0.328,0.586-0.493,0.879l0.215,0.065c0.152-0.29,0.298-0.584,0.431-0.884c0.053-0.096,0.107-0.192,0.161-0.288
			C13.891,13.574,13.726,13.975,13.544,14.367z M14.21,13.753c-0.095,0.162-0.191,0.325-0.286,0.487
			c0.102-0.212,0.204-0.424,0.306-0.636C14.223,13.654,14.217,13.703,14.21,13.753z M14.327,11.875
			c-0.002,0.002-0.004,0.002-0.005,0.004c-0.105,0.134-0.207,0.27-0.307,0.408c0.019-0.041,0.039-0.082,0.059-0.123
			c0.097-0.153,0.193-0.307,0.289-0.461C14.351,11.761,14.339,11.818,14.327,11.875z M14.566,15.396
			c-0.019-0.012-0.042-0.019-0.064-0.016l0.072-0.178C14.572,15.265,14.569,15.33,14.566,15.396z M14.487,12.872
			c0.012-0.095,0.025-0.191,0.038-0.286c0.002,0.081,0.004,0.162,0.007,0.242c-0.006,0.022-0.013,0.043-0.019,0.065
			C14.505,12.885,14.496,12.878,14.487,12.872z M14.533,11.141c-0.016,0.024-0.032,0.048-0.048,0.072
			c-0.01-0.074-0.111-0.112-0.166-0.035c-0.098,0.136-0.196,0.271-0.294,0.407c0.061-0.119,0.122-0.237,0.183-0.355
			c0.029-0.055-0.016-0.115-0.066-0.119c0.001-0.005,0.002-0.011,0.002-0.015c0.188-0.006,0.376-0.017,0.562-0.032
			c-0.001,0.069-0.002,0.137-0.003,0.206c-0.016-0.004-0.033-0.004-0.048,0.002c0.006-0.023,0.011-0.047,0.017-0.07
			C14.697,11.114,14.581,11.07,14.533,11.141z M14.702,11.571c0,0.218,0.002,0.436,0.005,0.654c-0.008-0.177-0.02-0.354-0.043-0.527
			C14.677,11.656,14.689,11.614,14.702,11.571z M14.683,16.395c0.015-0.053,0.026-0.108,0.035-0.164
			c0.005,0.011,0.013,0.018,0.024,0.022c0.005,0.027,0.009,0.055,0.015,0.082c0.005,0.021,0.03,0.027,0.046,0.018
			c0,0.017,0,0.034,0,0.052C14.763,16.4,14.723,16.399,14.683,16.395z"/>
	</g>
</g>
</svg>
