<?xml version="1.0" encoding="utf-8"?>
<!-- Generator: Adobe Illustrator 21.1.0, SVG Export Plug-In . SVG Version: 6.00 Build 0)  -->
<svg version="1.1" id="Layer_1" xmlns="http://www.w3.org/2000/svg" xmlns:xlink="http://www.w3.org/1999/xlink" x="0px" y="0px"
	 viewBox="0 0 100 20" style="enable-background:new 0 0 100 20;" xml:space="preserve">
<style type="text/css">
	.st0{fill:#98A4AE;}
</style>
<g>
	<path class="st0" d="M18.372,7.248V8.5H17.64V4.945h1.387c0.267,0,0.502,0.049,0.704,0.146c0.203,0.098,0.359,0.236,0.468,0.416
		s0.164,0.385,0.164,0.614c0,0.349-0.119,0.623-0.358,0.824c-0.238,0.201-0.568,0.302-0.99,0.302H18.372z M18.372,6.654h0.654
		c0.194,0,0.341-0.046,0.443-0.137c0.102-0.091,0.152-0.222,0.152-0.391c0-0.174-0.051-0.314-0.154-0.422s-0.244-0.163-0.425-0.166
		h-0.671V6.654z"/>
	<path class="st0" d="M22.178,6.519c-0.096-0.013-0.181-0.02-0.254-0.02c-0.267,0-0.442,0.091-0.525,0.271V8.5h-0.706V5.858h0.667
		l0.02,0.315c0.142-0.243,0.338-0.364,0.588-0.364c0.078,0,0.151,0.011,0.22,0.032L22.178,6.519z"/>
	<path class="st0" d="M22.387,5.174c0-0.105,0.036-0.192,0.106-0.261c0.071-0.068,0.167-0.104,0.29-0.104
		c0.121,0,0.216,0.035,0.288,0.104s0.107,0.155,0.107,0.261c0,0.107-0.036,0.195-0.109,0.264c-0.072,0.068-0.168,0.103-0.287,0.103
		s-0.214-0.034-0.287-0.103C22.423,5.37,22.387,5.282,22.387,5.174z M23.137,8.5h-0.708V5.858h0.708V8.5z"/>
	<path class="st0" d="M24.242,5.858l0.022,0.306c0.189-0.236,0.442-0.354,0.759-0.354c0.28,0,0.488,0.082,0.625,0.247
		c0.137,0.164,0.207,0.41,0.21,0.736V8.5h-0.706V6.806c0-0.15-0.033-0.259-0.098-0.327c-0.065-0.067-0.173-0.101-0.325-0.101
		c-0.199,0-0.348,0.084-0.447,0.254V8.5h-0.706V5.858H24.242z"/>
	<path class="st0" d="M27.367,7.98c0.13,0,0.236-0.036,0.317-0.107c0.082-0.072,0.124-0.167,0.127-0.286h0.662
		c-0.001,0.179-0.05,0.343-0.146,0.492c-0.096,0.148-0.228,0.265-0.395,0.347c-0.167,0.082-0.351,0.123-0.553,0.123
		c-0.377,0-0.675-0.12-0.894-0.36s-0.327-0.571-0.327-0.995V7.147c0-0.407,0.108-0.731,0.325-0.974
		c0.216-0.243,0.514-0.364,0.891-0.364c0.331,0,0.595,0.094,0.795,0.282c0.199,0.188,0.3,0.438,0.304,0.75h-0.662
		c-0.003-0.137-0.045-0.249-0.127-0.335s-0.189-0.128-0.322-0.128c-0.165,0-0.289,0.06-0.373,0.18
		c-0.083,0.119-0.125,0.313-0.125,0.583v0.073c0,0.272,0.042,0.468,0.125,0.587S27.197,7.98,27.367,7.98z"/>
	<path class="st0" d="M28.746,5.174c0-0.105,0.036-0.192,0.106-0.261c0.071-0.068,0.167-0.104,0.29-0.104
		c0.121,0,0.216,0.035,0.288,0.104s0.107,0.155,0.107,0.261c0,0.107-0.036,0.195-0.109,0.264c-0.072,0.068-0.168,0.103-0.287,0.103
		s-0.214-0.034-0.287-0.103C28.782,5.37,28.746,5.282,28.746,5.174z M29.495,8.5h-0.708V5.858h0.708V8.5z"/>
	<path class="st0" d="M32.329,7.203c0,0.407-0.092,0.733-0.277,0.979s-0.435,0.367-0.749,0.367c-0.267,0-0.482-0.093-0.647-0.278
		v1.245h-0.706V5.858h0.654l0.024,0.259c0.171-0.205,0.394-0.308,0.669-0.308c0.326,0,0.579,0.12,0.759,0.361
		c0.181,0.241,0.271,0.573,0.271,0.996V7.203z M31.624,7.149c0-0.246-0.043-0.437-0.131-0.57c-0.087-0.134-0.213-0.2-0.379-0.2
		c-0.221,0-0.374,0.084-0.457,0.254v1.085c0.086,0.175,0.24,0.263,0.461,0.263C31.455,7.98,31.624,7.703,31.624,7.149z"/>
	<path class="st0" d="M34.172,8.5c-0.032-0.063-0.056-0.143-0.071-0.236c-0.17,0.189-0.393,0.285-0.666,0.285
		c-0.259,0-0.474-0.075-0.644-0.225s-0.255-0.339-0.255-0.566c0-0.28,0.104-0.495,0.312-0.645c0.207-0.149,0.507-0.226,0.899-0.227
		h0.324V6.734c0-0.121-0.031-0.219-0.094-0.293c-0.062-0.072-0.161-0.109-0.297-0.109c-0.118,0-0.212,0.028-0.279,0.086
		C33.334,6.474,33.3,6.552,33.3,6.652h-0.705c0-0.153,0.047-0.295,0.142-0.426c0.095-0.13,0.228-0.231,0.4-0.306
		s0.366-0.111,0.581-0.111c0.325,0,0.584,0.082,0.775,0.245c0.191,0.164,0.287,0.394,0.287,0.689v1.146
		c0.001,0.251,0.036,0.44,0.104,0.569V8.5H34.172z M33.589,8.009c0.104,0,0.199-0.023,0.287-0.07
		c0.088-0.046,0.153-0.108,0.195-0.187V7.298h-0.264c-0.353,0-0.541,0.122-0.563,0.366l-0.003,0.042c0,0.088,0.031,0.16,0.094,0.217
		C33.396,7.98,33.481,8.009,33.589,8.009z"/>
	<path class="st0" d="M35.941,8.5h-0.708V4.75h0.708V8.5z"/>
	<path class="st0" d="M37.827,7.769c0-0.086-0.042-0.153-0.128-0.203c-0.085-0.05-0.223-0.094-0.411-0.133
		C36.66,7.3,36.346,7.034,36.346,6.632c0-0.234,0.098-0.431,0.292-0.588s0.448-0.235,0.763-0.235c0.335,0,0.604,0.079,0.805,0.237
		c0.201,0.157,0.302,0.362,0.302,0.615h-0.706c0-0.102-0.032-0.185-0.098-0.251c-0.065-0.065-0.167-0.099-0.306-0.099
		c-0.118,0-0.21,0.027-0.275,0.08c-0.065,0.055-0.098,0.123-0.098,0.205c0,0.078,0.037,0.142,0.111,0.189s0.199,0.09,0.375,0.125
		s0.323,0.074,0.443,0.118c0.373,0.137,0.56,0.374,0.56,0.71c0,0.241-0.104,0.437-0.31,0.585c-0.207,0.149-0.475,0.224-0.801,0.224
		c-0.222,0-0.418-0.039-0.59-0.118s-0.307-0.188-0.404-0.325s-0.146-0.286-0.146-0.445h0.669c0.007,0.125,0.053,0.222,0.14,0.288
		c0.086,0.066,0.201,0.101,0.346,0.101c0.136,0,0.237-0.026,0.307-0.077C37.793,7.919,37.827,7.853,37.827,7.769z"/>
	<path class="st0" d="M40.186,8.804h-0.524l1.309-3.859h0.524L40.186,8.804z"/>
</g>
<g>
	<path class="st0" d="M18.372,12.414v1.252H17.64v-3.555h1.387c0.267,0,0.502,0.049,0.704,0.146
		c0.203,0.098,0.359,0.236,0.468,0.416s0.164,0.385,0.164,0.614c0,0.349-0.119,0.623-0.358,0.824
		c-0.238,0.201-0.568,0.302-0.99,0.302H18.372z M18.372,11.82h0.654c0.194,0,0.341-0.046,0.443-0.137
		c0.102-0.091,0.152-0.222,0.152-0.391c0-0.174-0.051-0.314-0.154-0.422s-0.244-0.163-0.425-0.166h-0.671V11.82z"/>
	<path class="st0" d="M20.74,13.666v-3.555h1.094c0.312,0,0.592,0.07,0.839,0.211c0.246,0.141,0.439,0.341,0.577,0.601
		s0.208,0.555,0.208,0.886v0.163c0,0.33-0.068,0.624-0.204,0.882c-0.136,0.257-0.328,0.456-0.575,0.598s-0.526,0.213-0.837,0.215
		H20.74z M21.472,10.705v2.373h0.354c0.287,0,0.505-0.094,0.657-0.281s0.229-0.455,0.232-0.803v-0.188
		c0-0.361-0.075-0.635-0.225-0.821s-0.369-0.279-0.657-0.279H21.472z"/>
	<path class="st0" d="M27.775,12.482c-0.028,0.382-0.169,0.684-0.423,0.902c-0.255,0.221-0.591,0.33-1.007,0.33
		c-0.456,0-0.814-0.153-1.076-0.46c-0.261-0.307-0.392-0.729-0.392-1.264v-0.218c0-0.342,0.06-0.643,0.181-0.902
		c0.121-0.261,0.292-0.461,0.517-0.6c0.224-0.14,0.483-0.209,0.78-0.209c0.41,0,0.741,0.109,0.991,0.33
		c0.25,0.219,0.396,0.527,0.435,0.925h-0.732c-0.018-0.229-0.082-0.396-0.192-0.499c-0.109-0.104-0.277-0.155-0.501-0.155
		c-0.244,0-0.427,0.088-0.548,0.263c-0.121,0.175-0.183,0.446-0.187,0.814v0.268c0,0.385,0.058,0.665,0.175,0.843
		c0.116,0.178,0.3,0.267,0.55,0.267c0.226,0,0.395-0.052,0.506-0.155c0.112-0.104,0.176-0.264,0.192-0.479H27.775z"/>
	<path class="st0" d="M27.975,12.32c0-0.262,0.05-0.495,0.151-0.7s0.246-0.364,0.436-0.476c0.19-0.113,0.41-0.169,0.661-0.169
		c0.356,0,0.647,0.109,0.873,0.327c0.226,0.218,0.352,0.515,0.377,0.889l0.005,0.181c0,0.405-0.113,0.73-0.339,0.976
		s-0.53,0.367-0.911,0.367s-0.685-0.122-0.912-0.366c-0.228-0.244-0.341-0.576-0.341-0.996V12.32z M28.68,12.371
		c0,0.251,0.047,0.442,0.142,0.575s0.229,0.2,0.405,0.2c0.171,0,0.304-0.066,0.4-0.197s0.144-0.341,0.144-0.63
		c0-0.246-0.048-0.437-0.144-0.572c-0.096-0.135-0.231-0.202-0.405-0.202c-0.172,0-0.306,0.066-0.4,0.201S28.68,12.089,28.68,12.371
		z"/>
	<path class="st0" d="M30.677,12.32c0-0.262,0.05-0.495,0.151-0.7s0.246-0.364,0.436-0.476c0.19-0.113,0.41-0.169,0.661-0.169
		c0.356,0,0.647,0.109,0.873,0.327s0.352,0.515,0.377,0.889l0.006,0.181c0,0.405-0.113,0.73-0.34,0.976s-0.53,0.367-0.911,0.367
		c-0.381,0-0.685-0.122-0.912-0.366c-0.228-0.244-0.341-0.576-0.341-0.996V12.32z M31.382,12.371c0,0.251,0.047,0.442,0.142,0.575
		s0.229,0.2,0.405,0.2c0.171,0,0.304-0.066,0.4-0.197c0.097-0.131,0.145-0.341,0.145-0.63c0-0.246-0.048-0.437-0.145-0.572
		c-0.096-0.135-0.23-0.202-0.405-0.202c-0.172,0-0.306,0.066-0.4,0.201S31.382,12.089,31.382,12.371z"/>
	<path class="st0" d="M34.974,11.686c-0.097-0.013-0.182-0.02-0.254-0.02c-0.268,0-0.442,0.091-0.525,0.271v1.729h-0.705v-2.642
		h0.666l0.02,0.315c0.142-0.243,0.338-0.364,0.588-0.364c0.078,0,0.152,0.011,0.221,0.032L34.974,11.686z"/>
	<path class="st0" d="M35.031,12.326c0-0.412,0.093-0.74,0.277-0.984s0.438-0.366,0.758-0.366c0.257,0,0.47,0.096,0.638,0.288V9.916
		h0.707v3.75h-0.637l-0.034-0.281c-0.176,0.221-0.402,0.33-0.679,0.33c-0.311,0-0.561-0.122-0.748-0.367
		C35.125,13.103,35.031,12.762,35.031,12.326z M35.737,12.376c0,0.248,0.043,0.438,0.129,0.571s0.212,0.199,0.376,0.199
		c0.218,0,0.372-0.093,0.462-0.277v-1.048c-0.088-0.185-0.24-0.276-0.457-0.276C35.907,11.545,35.737,11.821,35.737,12.376z"/>
	<path class="st0" d="M37.828,10.341c0-0.105,0.036-0.192,0.106-0.261c0.071-0.068,0.167-0.104,0.29-0.104
		c0.12,0,0.216,0.035,0.287,0.104c0.072,0.068,0.107,0.155,0.107,0.261c0,0.107-0.036,0.195-0.108,0.264s-0.168,0.103-0.286,0.103
		c-0.119,0-0.215-0.034-0.287-0.103S37.828,10.448,37.828,10.341z M38.578,13.666H37.87v-2.642h0.708V13.666z"/>
	<path class="st0" d="M39.683,11.024l0.022,0.306c0.188-0.236,0.442-0.354,0.759-0.354c0.28,0,0.488,0.082,0.625,0.247
		c0.137,0.164,0.207,0.41,0.211,0.736v1.707h-0.706v-1.693c0-0.15-0.032-0.259-0.098-0.327c-0.065-0.067-0.173-0.101-0.325-0.101
		c-0.198,0-0.347,0.084-0.446,0.254v1.867h-0.706v-2.642H39.683z"/>
	<path class="st0" d="M43.24,13.666c-0.032-0.063-0.056-0.143-0.071-0.236c-0.17,0.189-0.393,0.285-0.666,0.285
		c-0.259,0-0.474-0.075-0.644-0.225s-0.255-0.339-0.255-0.566c0-0.28,0.104-0.495,0.312-0.645c0.207-0.149,0.507-0.226,0.899-0.227
		h0.324V11.9c0-0.121-0.031-0.219-0.094-0.293c-0.062-0.072-0.161-0.109-0.297-0.109c-0.118,0-0.212,0.028-0.279,0.086
		c-0.067,0.057-0.102,0.135-0.102,0.234h-0.705c0-0.153,0.047-0.295,0.142-0.426c0.095-0.13,0.228-0.231,0.4-0.306
		s0.366-0.111,0.581-0.111c0.325,0,0.584,0.082,0.775,0.245c0.191,0.164,0.287,0.394,0.287,0.689v1.146
		c0.001,0.251,0.036,0.44,0.104,0.569v0.041H43.24z M42.657,13.176c0.104,0,0.199-0.023,0.287-0.07
		c0.088-0.046,0.153-0.108,0.195-0.187v-0.454h-0.264c-0.353,0-0.541,0.122-0.563,0.366l-0.003,0.042
		c0,0.088,0.031,0.16,0.094,0.217C42.465,13.146,42.55,13.176,42.657,13.176z"/>
	<path class="st0" d="M45.109,10.375v0.649h0.452v0.518h-0.452v1.318c0,0.098,0.02,0.168,0.057,0.21s0.109,0.063,0.215,0.063
		c0.078,0,0.147-0.006,0.207-0.017v0.534c-0.138,0.042-0.28,0.063-0.427,0.063c-0.495,0-0.747-0.25-0.757-0.75v-1.423h-0.386v-0.518
		h0.386v-0.649H45.109z"/>
	<path class="st0" d="M45.646,12.32c0-0.262,0.051-0.495,0.151-0.7s0.246-0.364,0.436-0.476c0.189-0.113,0.41-0.169,0.66-0.169
		c0.357,0,0.647,0.109,0.873,0.327s0.352,0.515,0.377,0.889l0.006,0.181c0,0.405-0.113,0.73-0.34,0.976s-0.529,0.367-0.91,0.367
		s-0.686-0.122-0.912-0.366c-0.228-0.244-0.341-0.576-0.341-0.996V12.32z M46.353,12.371c0,0.251,0.047,0.442,0.141,0.575
		c0.095,0.133,0.23,0.2,0.406,0.2c0.17,0,0.304-0.066,0.4-0.197c0.096-0.131,0.144-0.341,0.144-0.63
		c0-0.246-0.048-0.437-0.144-0.572c-0.097-0.135-0.231-0.202-0.406-0.202c-0.172,0-0.306,0.066-0.4,0.201
		C46.399,11.881,46.353,12.089,46.353,12.371z"/>
	<path class="st0" d="M49.943,11.686c-0.097-0.013-0.182-0.02-0.254-0.02c-0.268,0-0.442,0.091-0.525,0.271v1.729h-0.705v-2.642
		h0.666l0.02,0.315c0.142-0.243,0.338-0.364,0.588-0.364c0.078,0,0.152,0.011,0.221,0.032L49.943,11.686z"/>
	<path class="st0" d="M51.587,12.936c0-0.086-0.042-0.153-0.128-0.203c-0.085-0.05-0.223-0.094-0.411-0.133
		c-0.628-0.133-0.942-0.399-0.942-0.801c0-0.234,0.098-0.431,0.292-0.588s0.448-0.235,0.763-0.235c0.335,0,0.604,0.079,0.805,0.237
		c0.201,0.157,0.302,0.362,0.302,0.615h-0.706c0-0.102-0.032-0.185-0.098-0.251c-0.065-0.065-0.167-0.099-0.306-0.099
		c-0.118,0-0.21,0.027-0.275,0.08c-0.065,0.055-0.098,0.123-0.098,0.205c0,0.078,0.037,0.142,0.111,0.189s0.199,0.09,0.375,0.125
		s0.323,0.074,0.443,0.118c0.373,0.137,0.56,0.374,0.56,0.71c0,0.241-0.104,0.437-0.31,0.585c-0.207,0.149-0.475,0.224-0.801,0.224
		c-0.222,0-0.418-0.039-0.59-0.118s-0.307-0.188-0.404-0.325s-0.146-0.286-0.146-0.445h0.669c0.007,0.125,0.053,0.222,0.14,0.288
		c0.086,0.066,0.201,0.101,0.346,0.101c0.136,0,0.237-0.026,0.307-0.077C51.553,13.086,51.587,13.02,51.587,12.936z"/>
</g>
<g>
	<path class="st0" d="M12.095,13.203c-0.035-0.068-0.144-0.068-0.18,0c-0.105,0.201-0.072,0.415-0.067,0.638
		c0.005,0.266,0.015,0.531,0.042,0.795c-1.772-0.757-3.603-1.689-5.464-2.162c-0.012-0.003-0.023-0.003-0.034-0.002
		c-0.053-0.063-0.167-0.075-0.209,0.013c-0.284,0.591-0.755,0.98-1.42,0.608c-0.521-0.292-0.509-1.013-0.509-1.569
		c0.122-1.002-0.021-2.119-0.023-3.102c-0.003-1.248,0.068-2.526-0.045-3.77c1.236,0.023,2.471,0.034,3.707,0.039
		c1.196,0.004,2.529,0.171,3.717-0.031c-0.059,0.718-0.043,1.442-0.049,2.162c-0.006,0.762-0.074,1.558,0.058,2.309
		c0.017,0.097,0.179,0.097,0.196,0c0.114-0.65,0.059-1.324,0.059-1.983c-0.001-0.844,0.022-1.699-0.053-2.541
		c0.046-0.045,0.034-0.142-0.039-0.157c-1.132-0.231-2.414-0.067-3.568-0.063C6.819,4.39,5.423,4.4,4.027,4.427
		C3.917,4.43,3.893,4.559,3.954,4.618C3.836,5.872,3.909,7.163,3.906,8.421c-0.003,1.145-0.197,2.472,0.061,3.588
		c0.006,0.028,0.023,0.047,0.045,0.06c0.005,0.321,0.071,0.633,0.222,0.896c-0.021,0.038-0.026,0.088,0.002,0.142
		c0.506,0.985,1.96,1.09,2.916,1.258c0.191,0.034,0.382,0.065,0.572,0.098c0.019,0.013,0.043,0.019,0.064,0.011
		c0.503,0.086,1.007,0.169,1.511,0.247c0.021,0.052,0.052,0.097,0.106,0.127c0.036,0.02,0.085,0.01,0.105-0.028
		c0.011-0.021,0.018-0.042,0.022-0.063c0.044,0.007,0.087,0.014,0.131,0.021c0.737,0.111,1.496,0.302,2.243,0.278
		c0.063-0.002,0.087-0.057,0.072-0.102c0.072-0.006,0.123-0.085,0.12-0.156c0.002-0.007,0.005-0.012,0.006-0.02
		c0.035-0.273,0.049-0.545,0.055-0.819C12.165,13.705,12.215,13.433,12.095,13.203z M6.213,13.74
		c-0.222-0.056-0.441-0.121-0.655-0.204c0.333-0.086,0.63-0.308,0.772-0.614C6.26,13.19,6.177,13.473,6.213,13.74z M6.537,13.815
		c-0.05-0.011-0.1-0.02-0.149-0.031c0.159-0.288,0.146-0.67,0.19-0.989c0.001-0.004-0.001-0.008-0.001-0.012
		c0.076,0.041,0.154,0.079,0.23,0.119c-0.012,0.011-0.022,0.024-0.028,0.043l-0.152,0.504C6.591,13.566,6.543,13.691,6.537,13.815z
		 M6.971,13.104c-0.031,0.209-0.063,0.419-0.094,0.628C6.87,13.782,6.86,13.83,6.852,13.878c-0.033-0.006-0.068-0.012-0.101-0.018
		c0.039-0.086,0.056-0.181,0.081-0.277c0.05-0.194,0.085-0.393,0.128-0.589c0.001-0.005,0-0.009,0-0.014
		c0.034,0.017,0.069,0.033,0.104,0.05C7.02,13.031,6.978,13.054,6.971,13.104z M7.336,13.213L7.29,13.767
		c-0.005,0.061-0.014,0.123-0.02,0.185c-0.056-0.01-0.113-0.019-0.169-0.029c0.005-0.052,0.008-0.104,0.013-0.158l0.066-0.632
		c0.002-0.021-0.004-0.038-0.013-0.053c0.06,0.029,0.122,0.057,0.183,0.086C7.343,13.18,7.338,13.195,7.336,13.213z M7.687,13.338
		l-0.034,0.576c-0.002,0.034-0.005,0.069-0.008,0.104c-0.034-0.006-0.068-0.012-0.102-0.018c0.004-0.051,0.005-0.103,0.009-0.153
		c0.014-0.189,0.028-0.378,0.043-0.567c0.032,0.015,0.066,0.028,0.098,0.042C7.69,13.327,7.687,13.331,7.687,13.338z M8.066,13.502
		c-0.001,0.155-0.003,0.31-0.004,0.465c0,0.04-0.003,0.08-0.004,0.121c-0.049-0.008-0.099-0.016-0.148-0.025
		c0-0.023,0-0.045,0.001-0.068c0.004-0.192,0.007-0.384,0.011-0.575c0.049,0.021,0.099,0.041,0.149,0.062
		C8.069,13.489,8.066,13.495,8.066,13.502z M8.476,14.129c0.001,0.009,0.001,0.019,0.001,0.028
		c-0.058-0.009-0.117-0.018-0.175-0.027C8.302,14.098,8.3,14.066,8.3,14.034c-0.001-0.153-0.003-0.306-0.004-0.458
		c0.065,0.027,0.131,0.052,0.196,0.079c-0.024,0.021-0.039,0.052-0.037,0.095C8.462,13.876,8.469,14.003,8.476,14.129z
		 M8.929,13.831l-0.003,0.395c-0.06-0.009-0.12-0.018-0.179-0.027c-0.001-0.024-0.003-0.047-0.005-0.07l-0.027-0.38
		c0-0.002-0.001-0.004-0.002-0.006c0.072,0.029,0.144,0.055,0.216,0.083C8.929,13.828,8.929,13.83,8.929,13.831z M9.423,14.303
		c-0.01-0.03-0.019-0.059-0.029-0.089c-0.045-0.134-0.242-0.084-0.219,0.05c-0.004-0.001-0.008-0.001-0.013-0.002
		c-0.001-0.116-0.002-0.231-0.002-0.347c0.161,0.062,0.322,0.122,0.484,0.183c-0.017,0.025-0.025,0.057-0.017,0.094
		c0.01,0.049,0.02,0.099,0.03,0.148C9.579,14.328,9.501,14.315,9.423,14.303z M10.165,14.431c0.001-0.022,0.001-0.043,0.002-0.065
		c0.001-0.036-0.012-0.062-0.03-0.083c0.305,0.114,0.61,0.227,0.913,0.338C10.762,14.545,10.464,14.486,10.165,14.431z"/>
	<path class="st0" d="M10.763,5.94C9.93,5.773,9.024,5.871,8.176,5.871c-0.958,0-1.958-0.076-2.906,0.069
		c-0.118,0.018-0.118,0.22,0,0.238c0.847,0.129,1.732,0.069,2.587,0.069c0.948,0,1.975,0.118,2.906-0.069
		C10.881,6.155,10.881,5.964,10.763,5.94z"/>
	<path class="st0" d="M10.474,6.89C9.726,6.734,8.92,6.818,8.158,6.818c-0.973,0-1.971-0.05-2.938,0.064
		C5.061,6.9,5.061,7.11,5.22,7.129C6.081,7.23,6.965,7.191,7.831,7.193c0.863,0.002,1.796,0.105,2.643-0.072
		C10.589,7.097,10.589,6.914,10.474,6.89z"/>
	<path class="st0" d="M7.836,7.777C7.439,7.645,7.01,7.689,6.596,7.692C6.12,7.695,5.612,7.645,5.147,7.755
		c-0.113,0.027-0.113,0.201,0,0.228C5.551,8.078,5.98,8.039,6.393,8.044C6.867,8.048,7.381,8.112,7.836,7.96
		C7.926,7.93,7.926,7.807,7.836,7.777z"/>
	<path class="st0" d="M13.219,11.18c0.009-0.022,0.008-0.049-0.013-0.071c-0.059-0.065-0.13-0.118-0.193-0.178
		c-0.017-0.017-0.042-0.012-0.057,0.002c-0.526-0.667-1.158-1.278-1.739-1.894c0.003-0.004,0.008-0.008,0.011-0.012
		c0.036-0.045-0.008-0.106-0.062-0.08c-0.064,0.032-0.125,0.069-0.185,0.108c0.018-0.075,0.018-0.155,0.024-0.231
		c0.008-0.103,0.021-0.207,0.02-0.31c0-0.005-0.002-0.009-0.003-0.013c0.019-0.027,0.018-0.07-0.015-0.093
		c-0.552-0.388-1.273-0.693-1.903-0.934c-0.109-0.042-0.177,0.13-0.078,0.186c0.01,0.005,0.019,0.011,0.029,0.016
		c0.027,0.215,0.08,0.426,0.126,0.638c0.053,0.244,0.088,0.507,0.182,0.741c0.008,0.063,0.016,0.134,0.042,0.191
		c0.011,0.054,0.023,0.107,0.032,0.156c0.005,0.032,0.04,0.066,0.072,0.072C9.58,9.486,9.652,9.499,9.724,9.512
		c0.076,0.019,0.153,0.035,0.229,0.05c0.09,0.018,0.183,0.047,0.276,0.058c-0.066,0.059-0.122,0.124-0.15,0.201
		c-0.02,0.053,0.037,0.089,0.082,0.082c0.016-0.002,0.031-0.007,0.047-0.012c0,0.001,0,0.002,0,0.003
		c0.091,0.411,0.421,0.792,0.638,1.149c0.283,0.465,0.579,0.924,0.871,1.383c0.06,0.095,0.193,0.034,0.19-0.055
		c0.019-0.01,0.033-0.028,0.038-0.05c0.446-0.298,0.863-0.65,1.288-0.975C13.296,11.297,13.271,11.207,13.219,11.18z M10.412,9.478
		c-0.117-0.082-0.263-0.091-0.403-0.119C9.922,9.342,9.833,9.325,9.744,9.313C9.706,9.305,9.667,9.297,9.628,9.288
		C9.612,9.121,9.608,8.922,9.5,8.798C9.493,8.791,9.485,8.786,9.475,8.783c-0.029-0.134-0.065-0.268-0.096-0.4
		C9.344,8.235,9.313,8.085,9.276,7.936C9.317,7.984,9.361,8.03,9.392,8.068c0.108,0.136,0.213,0.298,0.335,0.433
		C9.722,8.511,9.718,8.523,9.718,8.535c0,0.024,0.004,0.049,0.008,0.074C9.654,8.809,9.742,9.042,9.996,9.068
		c0.127,0.013,0.233-0.089,0.257-0.206c0.007-0.031,0.006-0.059,0.002-0.084c0.018-0.023,0.034-0.049,0.045-0.079
		c0.05-0.131-0.046-0.295-0.181-0.316c-0.018-0.003-0.036-0.003-0.054-0.001C9.958,8.271,9.848,8.161,9.739,8.051
		C9.73,8.042,9.721,8.032,9.712,8.023c0.375,0.186,0.768,0.356,1.149,0.468c-0.003,0.007-0.006,0.014-0.007,0.022
		c-0.013,0.102-0.011,0.207-0.015,0.31c-0.004,0.095-0.016,0.19,0.009,0.282c0.003,0.013,0.011,0.021,0.019,0.028
		c-0.103,0.075-0.202,0.156-0.302,0.234C10.519,9.404,10.466,9.44,10.412,9.478z M12.13,11.957c-0.43-0.786-0.928-1.542-1.401-2.303
		c-0.017-0.027-0.043-0.035-0.067-0.03c-0.011-0.016-0.021-0.033-0.031-0.049c0.005-0.004,0.011-0.01,0.016-0.014
		c0.16-0.132,0.326-0.262,0.47-0.412c0.588,0.663,1.164,1.385,1.819,1.982c0.002,0.002,0.004,0.002,0.007,0.004
		c0.034,0.05,0.073,0.098,0.13,0.106C12.761,11.478,12.438,11.71,12.13,11.957z"/>
	<path class="st0" d="M15.326,12.493c-0.187-0.407-0.447-0.745-0.795-1.026c-0.292-0.235-1.036-0.648-1.064-1.078
		c0.021,0.018,0.042,0.035,0.064,0.048c0.129,0.076,0.279,0.037,0.386-0.054c0.184-0.158,0.092-0.496-0.12-0.549
		c-0.007-0.055-0.051-0.103-0.118-0.079c-0.314,0.112-0.436,0.411-0.409,0.731c0.038,0.436,0.47,0.732,0.8,0.948
		c0.047,0.03,0.091,0.062,0.135,0.093c0.532,0.575,0.731,1.156,0.714,1.867c-0.009-0.023-0.018-0.046-0.025-0.065
		c-0.272-0.71-0.733-1.396-1.329-1.872c-0.028-0.022-0.06-0.019-0.083-0.004c-0.018-0.005-0.037-0.003-0.056,0.008
		c-0.266,0.164-0.513,0.365-0.765,0.55c-0.255,0.187-0.536,0.365-0.76,0.59c-0.037,0.037-0.014,0.087,0.025,0.101
		c-0.031,0.034-0.045,0.083-0.017,0.135c0.332,0.604,0.778,1.112,1.329,1.526c0.416,0.313,1.18,0.837,1.712,0.546
		c0.042-0.023,0.075-0.053,0.105-0.085c0.026,0.018,0.061,0.021,0.082-0.007C15.623,14.187,15.651,13.201,15.326,12.493z
		 M14.898,14.596c-0.512-0.234-0.976-0.481-1.406-0.856c-0.441-0.384-0.748-0.857-1.049-1.35c0.103-0.076,0.204-0.154,0.305-0.228
		c0.255-0.187,0.522-0.364,0.761-0.57c0.379,0.41,0.72,0.83,0.985,1.325C14.608,13.13,15.088,14.182,14.898,14.596z"/>
</g>
</svg>
