<?xml version="1.0" encoding="utf-8"?>
<!-- Generator: Adobe Illustrator 21.0.2, SVG Export Plug-In . SVG Version: 6.00 Build 0)  -->
<svg version="1.1" id="Layer_1" xmlns="http://www.w3.org/2000/svg" xmlns:xlink="http://www.w3.org/1999/xlink" x="0px" y="0px"
	 viewBox="0 0 100 20" style="enable-background:new 0 0 100 20;" xml:space="preserve">
<style type="text/css">
	.st0{fill:#98A4AE;}
</style>
<g>
	<path class="st0" d="M18.582,12.08v1.503h-0.879V9.317h1.664c0.32,0,0.602,0.059,0.845,0.176s0.43,0.284,0.561,0.5
		s0.196,0.461,0.196,0.736c0,0.418-0.143,0.748-0.429,0.988c-0.286,0.242-0.682,0.362-1.188,0.362H18.582z M18.582,11.368h0.785
		c0.232,0,0.41-0.055,0.532-0.164s0.183-0.266,0.183-0.469c0-0.209-0.062-0.378-0.185-0.507s-0.293-0.195-0.51-0.199h-0.806V11.368z
		"/>
	<path class="st0" d="M23.149,11.207c-0.115-0.016-0.217-0.023-0.305-0.023c-0.32,0-0.53,0.108-0.63,0.325v2.074h-0.847v-3.17h0.8
		l0.023,0.378c0.17-0.291,0.405-0.437,0.706-0.437c0.094,0,0.182,0.013,0.264,0.038L23.149,11.207z"/>
	<path class="st0" d="M23.4,9.593c0-0.127,0.042-0.231,0.127-0.313s0.201-0.123,0.347-0.123c0.145,0,0.26,0.041,0.346,0.123
		s0.129,0.187,0.129,0.313c0,0.129-0.043,0.234-0.13,0.316s-0.202,0.123-0.344,0.123s-0.257-0.041-0.344-0.123
		S23.4,9.722,23.4,9.593z M24.3,13.583h-0.85v-3.17h0.85V13.583z"/>
	<path class="st0" d="M25.626,10.413l0.026,0.366c0.227-0.283,0.53-0.425,0.911-0.425c0.336,0,0.586,0.099,0.75,0.296
		s0.248,0.492,0.252,0.885v2.048h-0.847v-2.032c0-0.18-0.039-0.311-0.117-0.392s-0.208-0.122-0.39-0.122
		c-0.238,0-0.417,0.102-0.536,0.306v2.24h-0.847v-3.17H25.626z"/>
	<path class="st0" d="M29.375,12.959c0.156,0,0.283-0.043,0.381-0.129s0.148-0.2,0.152-0.343h0.794
		c-0.002,0.215-0.061,0.412-0.176,0.59c-0.115,0.18-0.273,0.318-0.473,0.416c-0.2,0.099-0.421,0.148-0.664,0.148
		c-0.453,0-0.811-0.144-1.072-0.432s-0.393-0.687-0.393-1.194V11.96c0-0.488,0.13-0.878,0.39-1.169s0.616-0.437,1.069-0.437
		c0.396,0,0.714,0.113,0.954,0.338c0.239,0.227,0.361,0.526,0.365,0.901h-0.794c-0.004-0.165-0.055-0.299-0.152-0.402
		c-0.098-0.103-0.227-0.154-0.387-0.154c-0.197,0-0.346,0.072-0.447,0.216s-0.151,0.377-0.151,0.699v0.089
		c0,0.326,0.05,0.561,0.149,0.704C29.021,12.888,29.172,12.959,29.375,12.959z"/>
	<path class="st0" d="M31.03,9.593c0-0.127,0.042-0.231,0.127-0.313s0.201-0.123,0.347-0.123c0.145,0,0.26,0.041,0.346,0.123
		s0.129,0.187,0.129,0.313c0,0.129-0.043,0.234-0.13,0.316s-0.202,0.123-0.344,0.123s-0.257-0.041-0.344-0.123
		S31.03,9.722,31.03,9.593z M31.93,13.583h-0.85v-3.17h0.85V13.583z"/>
	<path class="st0" d="M35.33,12.027c0,0.488-0.111,0.88-0.333,1.173c-0.222,0.295-0.521,0.441-0.897,0.441
		c-0.32,0-0.579-0.111-0.776-0.334v1.494h-0.847v-4.389h0.785l0.029,0.311c0.205-0.246,0.473-0.369,0.803-0.369
		c0.391,0,0.694,0.145,0.911,0.434s0.325,0.688,0.325,1.195V12.027z M34.483,11.963c0-0.296-0.053-0.524-0.156-0.685
		c-0.105-0.161-0.257-0.241-0.456-0.241c-0.266,0-0.448,0.102-0.548,0.306v1.302c0.104,0.21,0.288,0.314,0.554,0.314
		C34.281,12.959,34.483,12.627,34.483,11.963z"/>
	<path class="st0" d="M37.542,13.583c-0.039-0.076-0.067-0.171-0.085-0.284c-0.205,0.229-0.472,0.343-0.8,0.343
		c-0.311,0-0.568-0.09-0.771-0.27c-0.205-0.18-0.307-0.406-0.307-0.68c0-0.336,0.125-0.594,0.373-0.773
		c0.25-0.18,0.609-0.271,1.08-0.272h0.39v-0.182c0-0.146-0.038-0.264-0.112-0.352c-0.076-0.088-0.194-0.132-0.356-0.132
		c-0.143,0-0.255,0.034-0.335,0.103c-0.082,0.068-0.122,0.162-0.122,0.281h-0.847c0-0.184,0.057-0.354,0.17-0.51
		s0.273-0.278,0.48-0.368c0.207-0.088,0.439-0.133,0.697-0.133c0.391,0,0.7,0.098,0.93,0.295c0.229,0.195,0.345,0.472,0.345,0.827
		v1.374c0.002,0.301,0.044,0.528,0.126,0.683v0.05H37.542z M36.842,12.994c0.125,0,0.24-0.028,0.346-0.083
		c0.105-0.057,0.184-0.131,0.234-0.225v-0.545h-0.316c-0.424,0-0.649,0.146-0.677,0.439l-0.003,0.05
		c0,0.105,0.037,0.192,0.111,0.261S36.713,12.994,36.842,12.994z"/>
	<path class="st0" d="M39.665,13.583h-0.85v-4.5h0.85V13.583z"/>
	<path class="st0" d="M41.93,12.707c0-0.104-0.052-0.185-0.153-0.245c-0.104-0.059-0.268-0.112-0.494-0.159
		c-0.754-0.158-1.131-0.479-1.131-0.961c0-0.281,0.116-0.516,0.35-0.704s0.539-0.283,0.916-0.283c0.402,0,0.724,0.095,0.965,0.284
		s0.362,0.436,0.362,0.738h-0.847c0-0.121-0.039-0.222-0.117-0.3c-0.078-0.08-0.2-0.119-0.366-0.119
		c-0.143,0-0.253,0.032-0.331,0.097s-0.117,0.146-0.117,0.246c0,0.094,0.044,0.17,0.133,0.228s0.239,0.107,0.45,0.148
		c0.211,0.043,0.389,0.09,0.533,0.143c0.447,0.164,0.671,0.448,0.671,0.853c0,0.289-0.124,0.522-0.372,0.702
		c-0.248,0.178-0.568,0.268-0.961,0.268c-0.266,0-0.502-0.048-0.708-0.143c-0.206-0.094-0.367-0.224-0.484-0.389
		s-0.176-0.344-0.176-0.535h0.803c0.008,0.15,0.063,0.266,0.167,0.346s0.242,0.12,0.416,0.12c0.162,0,0.284-0.03,0.368-0.093
		C41.888,12.888,41.93,12.807,41.93,12.707z"/>
</g>
<g>
	<g>
		<path class="st0" d="M15.822,11.097c-1.793-0.458-3.491-1.23-5.238-1.9C10.6,9.112,10.561,8.999,10.483,9
			C9.23,9.024,7.969,9.222,6.719,9.348C5.378,9.482,4.022,9.553,2.686,9.762c-0.165,0.026-0.174,0.365,0,0.356
			c0.014-0.001,0.028-0.002,0.042-0.003c0.002,0.023,0.011,0.047,0.031,0.064c0.692,0.605,1.41,1.152,2.1,1.764
			c0.281,0.249,0.554,0.512,0.826,0.778c-0.083,0.784-0.067,1.673-0.027,2.459c-0.042,0.052-0.05,0.149,0.014,0.21
			c1.8,1.726,4.359,1.651,6.299,0.416c0.02,0.006,0.041,0.006,0.059-0.008c0.021-0.017,0.036-0.038,0.048-0.061
			c0.006-0.004,0.011-0.007,0.017-0.011c0.117-0.078,0.093-0.256,0.013-0.342c-0.001-0.131-0.001-0.275-0.022-0.408
			c0.015-0.102,0.023-0.207,0.028-0.312c0.013-0.006,0.026-0.012,0.038-0.018c0.094-0.043,0.061-0.212-0.029-0.208
			c0.002-0.095,0.004-0.19,0.007-0.284c0.012-0.384,0.036-0.78,0.013-1.164c-0.001-0.024-0.009-0.043-0.019-0.06
			c0.35-0.092,0.701-0.182,1.053-0.275c-0.003,0.659,0.042,1.333,0.085,1.988c-0.136,0.051-0.258,0.212-0.326,0.402
			c-0.082,0.231-0.06,0.522-0.057,0.768c0.004,0.376-0.009,0.758,0.032,1.13c0.021,0.189,0.215,0.119,0.228-0.042
			c0.014-0.174-0.017-0.531-0.023-0.894c0.039,0.01,0.078,0.017,0.117,0.022c-0.005,0.119-0.006,0.239-0.007,0.36
			c-0.002,0.192-0.032,0.415,0.065,0.567c0.02,0.032,0.066,0.033,0.086,0c0.085-0.138,0.064-0.308,0.061-0.482
			c-0.003-0.146-0.004-0.291-0.012-0.436c0.012,0,0.024,0,0.036,0c0.002,0.148,0.008,0.295,0.022,0.441
			c0.012,0.123,0.002,0.288,0.097,0.35c0.025,0.017,0.048,0.012,0.07-0.012c0.076-0.085,0.044-0.221,0.035-0.338
			c-0.012-0.148-0.031-0.295-0.054-0.44c0.039,0,0.077-0.001,0.114-0.009c0,0.02,0.001,0.041,0.002,0.061
			c-0.017,0.137-0.015,0.275-0.017,0.414c-0.002,0.136-0.014,0.274,0.072,0.363c0.013,0.014,0.04,0.014,0.054,0
			c0.086-0.088,0.074-0.227,0.072-0.363c0-0.011,0-0.022,0-0.033c0.014-0.006,0.026-0.016,0.037-0.033
			c0.208-0.323,0.04-1.017-0.07-1.367c-0.065-0.208-0.219-0.443-0.38-0.47c-0.02-0.666-0.041-1.348-0.108-2.01
			c0.782-0.211,1.56-0.446,2.301-0.781c0.094-0.043,0.117-0.204,0.073-0.298C15.95,11.504,16.009,11.144,15.822,11.097z
			 M11.869,15.386c0,0.005,0,0.009,0,0.014c-0.388,0.248-0.777,0.435-1.167,0.57c0.416-0.152,0.825-0.403,1.169-0.676
			C11.87,15.325,11.87,15.356,11.869,15.386z M11.901,14.485c-0.114,0.024-0.23,0.049-0.346,0.076
			c0.131-0.099,0.252-0.208,0.356-0.318C11.907,14.323,11.903,14.403,11.901,14.485z M11.934,13.579
			c-0.003-0.001-0.007-0.003-0.01-0.003c-0.276-0.009-0.552,0.077-0.823,0.144c-0.306,0.075-0.65,0.106-0.919,0.326
			c-0.046,0.038-0.054,0.138-0.016,0.185c-0.054,0.031-0.107,0.064-0.159,0.099c-0.073,0.05-0.04,0.216,0.042,0.209
			c0.503-0.041,1.051-0.278,1.516-0.532c0.017-0.009,0.029-0.022,0.039-0.036c0.109-0.037,0.216-0.079,0.321-0.135l0,0.006
			c-0.304,0.239-0.586,0.47-0.926,0.62c-0.278,0.123-0.585,0.112-0.849,0.28c-0.058,0.037-0.031,0.137,0.016,0.163
			c0.087,0.047,0.183,0.071,0.283,0.079c-0.041,0.027-0.083,0.054-0.122,0.084c-0.061,0.047-0.033,0.172,0.035,0.174
			c0.018,0.001,0.037-0.002,0.055-0.002c-0.236,0.101-0.465,0.215-0.679,0.347c-0.074,0.046-0.039,0.218,0.042,0.209
			c0.437-0.049,0.898-0.181,1.343-0.36c-0.066,0.031-0.132,0.062-0.199,0.09c-0.394,0.169-0.812,0.223-1.201,0.408
			C9.65,15.969,9.666,16.1,9.74,16.11c0.219,0.028,0.45,0.005,0.683-0.053C8.892,16.484,7.35,16.1,5.852,15.207
			c0.039-0.742,0.057-1.578-0.01-2.332c0.32,0.316,0.638,0.636,0.962,0.946c0.001,0.004,0.001,0.009,0.003,0.013
			c0.036,0.096,0.073,0.176,0.121,0.262c0.021,0.037,0.041,0.079,0.064,0.119c0.014,0.073,0.064,0.137,0.137,0.12
			c0.001,0,0.001,0,0.002,0c1.397-0.32,2.782-0.77,4.167-1.176c0.223-0.065,0.45-0.125,0.677-0.186
			C11.95,13.172,11.941,13.376,11.934,13.579z M13.499,14.939c0.002,0,0.004-0.001,0.006-0.001c0.148,0.092,0.2,0.541,0.222,0.7
			c0.003,0.017,0.003,0.036,0.005,0.054c-0.03-0.005-0.061-0.005-0.092-0.005c0.017-0.017,0.031-0.037,0.042-0.064
			c0.011-0.028,0.014-0.065,0-0.093c-0.021-0.042-0.047-0.065-0.076-0.08c0.021-0.045,0.02-0.1,0.003-0.144
			c0.005-0.062-0.02-0.127-0.075-0.137c0.021-0.049,0.025-0.115-0.01-0.156c-0.046-0.053-0.094-0.065-0.148-0.066
			C13.412,14.935,13.452,14.931,13.499,14.939z M11.471,12.66c-1.415,0.427-2.843,0.813-4.244,1.319
			c0.007-0.042,0.002-0.087-0.028-0.121c-1.169-1.343-2.567-2.582-3.953-3.542c0.266,0.025,0.564,0.097,0.825,0.021
			c0.073-0.021,0.067-0.165,0-0.191c-0.261-0.1-0.569-0.049-0.837-0.05c-0.074,0-0.094,0.103-0.064,0.168
			c-0.077-0.053-0.154-0.108-0.231-0.16c1.26-0.076,2.523-0.263,3.78-0.393c1.206-0.125,2.429-0.19,3.629-0.398
			c0.005,0.006,0.009,0.012,0.016,0.016c1.613,1.07,3.44,1.667,5.2,2.137C14.193,11.691,12.818,12.253,11.471,12.66z"/>
		<path class="st0" d="M12.741,11.668c-0.866,0.102-1.732,0.485-2.575,0.762c-1.016,0.334-2.026,0.69-3.035,1.06
			c-0.093,0.034-0.054,0.221,0.04,0.194c0.939-0.267,1.875-0.541,2.809-0.841c0.917-0.295,1.907-0.497,2.781-0.975
			C12.834,11.829,12.834,11.657,12.741,11.668z"/>
		<path class="st0" d="M11.945,11.335c-1.471,0.347-2.928,1.091-4.352,1.689c-0.103,0.043-0.06,0.259,0.045,0.219
			c1.441-0.546,2.965-0.996,4.345-1.787C12.037,11.424,11.995,11.323,11.945,11.335z"/>
		<path class="st0" d="M10.785,11.327c-1.315,0.25-2.618,0.883-3.896,1.362c-0.103,0.039-0.06,0.252,0.044,0.216
			c1.284-0.444,2.648-0.771,3.88-1.439C10.878,11.431,10.853,11.314,10.785,11.327z"/>
		<path class="st0" d="M9.977,11.02c-1.333,0.106-2.691,0.811-3.987,1.226c-0.125,0.04-0.072,0.301,0.053,0.261
			c1.295-0.422,2.739-0.624,3.963-1.342C10.059,11.134,10.032,11.016,9.977,11.02z"/>
		<path class="st0" d="M9.497,10.461c-1.37,0.165-2.732,0.726-4.073,1.124c-0.113,0.034-0.065,0.262,0.048,0.233
			c1.339-0.353,2.748-0.564,4.046-1.145C9.6,10.636,9.591,10.45,9.497,10.461z"/>
		<path class="st0" d="M8.372,10.021c-1.167,0.132-2.32,0.616-3.456,0.982c-0.116,0.037-0.066,0.27,0.049,0.238
			c1.138-0.31,2.329-0.522,3.423-1.06C8.448,10.152,8.444,10.013,8.372,10.021z"/>
		<path class="st0" d="M6.662,10.034c-0.789-0.293-1.74,0.031-2.499,0.35c-0.119,0.05-0.07,0.29,0.051,0.252
			c0.811-0.25,1.641-0.185,2.447-0.394C6.742,10.221,6.735,10.061,6.662,10.034z"/>
	</g>
</g>
</svg>
