<?xml version="1.0" encoding="utf-8"?>
<!-- Generator: Adobe Illustrator 22.1.0, SVG Export Plug-In . SVG Version: 6.00 Build 0)  -->
<svg version="1.1" id="Layer_1" xmlns="http://www.w3.org/2000/svg" xmlns:xlink="http://www.w3.org/1999/xlink" x="0px" y="0px"
	 viewBox="0 0 430 130" style="enable-background:new 0 0 430 130;" xml:space="preserve">
<style type="text/css">
	.st0{fill:#F4F4F4;}
	.st1{fill:#C3C3C3;}
	.st2{fill:#FFFFFF;}
	.st3{opacity:0.09;}
	.st4{fill:url(#SVGID_1_);}
	.st5{fill:url(#SVGID_2_);}
	.st6{fill:url(#SVGID_3_);}
	.st7{fill:url(#SVGID_4_);}
	.st8{fill:url(#SVGID_5_);}
	.st9{fill:url(#SVGID_6_);}
	.st10{fill:url(#SVGID_7_);}
	.st11{fill:url(#SVGID_8_);}
	.st12{fill:url(#SVGID_9_);}
	.st13{fill:url(#SVGID_10_);}
	.st14{fill:url(#SVGID_11_);}
	.st15{fill:url(#SVGID_12_);}
	.st16{fill:#F5F5F5;}
</style>
<circle class="st0" cx="354.365" cy="63.167" r="42.445"/>
<path class="st1" d="M354.366,106.19c-23.723,0-43.023-19.3-43.023-43.023s19.3-43.023,43.023-43.023
	c23.723,0,43.023,19.3,43.023,43.023S378.089,106.19,354.366,106.19z M354.366,21.299c-23.085,0-41.867,18.781-41.867,41.867
	c0,23.085,18.782,41.867,41.867,41.867s41.867-18.782,41.867-41.867C396.233,40.081,377.451,21.299,354.366,21.299z"/>
<path class="st2" d="M288.268,83.934c-1.694,0-3.066,1.372-3.066,3.066s1.372,3.066,3.066,3.066c1.693,0,3.066-1.372,3.066-3.066
	S289.961,83.934,288.268,83.934z"/>
<path class="st2" d="M93.146,108.435c-0.993-0.284-1.844-0.709-2.837-1.135c-3.405-1.56-6.951-2.978-10.213-4.821
	c-7.659-4.255-15.319-11.914-21.134-18.44c-2.979-3.403-6.241-6.808-8.794-10.638l-3.83-5.673
	c12.057-4.255,36.311-19.716,44.538-29.502c2.27-2.695,3.687-5.249,3.687-8.794c0-4.538-1.844-8.935-4.538-12.481
	C81.799,6.169,67.899,3.9,55.133,3.9c-17.021,0-44.68,5.957-53.048,22.552c-0.851,1.702-1.419,3.546-1.419,5.532
	c0,6.525,6.525,13.9,13.191,13.9c0.709,0,1.419-0.143,2.127-0.425c-3.262-2.411-1.56-2.979-6.241-5.249
	c-1.135-0.567-2.553-1.135-2.553-2.695c0-2.837,2.411-6.383,4.254-8.368c11.491-12.764,30.214-17.588,46.809-17.588
	c8.227,0,22.268,1.703,28.226,7.801c0.709,0.709,1.419,1.56,1.419,2.695c0,8.936-27.375,25.389-35.035,29.502
	c-2.695,1.419-13.333,7.092-15.744,7.092h-0.851l0.284-2.128l4.397-19.148c0.425-1.986,0.851-4.113,0.851-6.241
	c0-0.567-0.141-1.135-0.141-1.702l-1.418-1.134l-1.419,1.418l0.568-2.27l-1.276-0.141l-0.993,1.419l-0.143-0.143l0.709-2.27
	l-1.418-0.568l-2.411,3.83c0.425-1.419,0.851-2.695,1.702-3.83c-0.425-0.284-0.851-0.568-1.276-0.568
	c-1.419,0-2.411,1.844-2.978,2.837c-5.249,8.368-9.362,38.013-9.362,48.367c0,8.51,1.276,17.588,10.638,20.425
	c0.993,0.284,1.986,0.425,2.978,0.425c0.851,0,1.844-0.14,2.695-0.14c-2.837-5.816-4.254-8.936-4.254-15.603
	c0-2.837,0.141-5.674,0.425-8.511l0.425-0.568c11.773,19.716,36.311,43.261,60.707,43.261c6.1,0,10.638-1.135,15.744-4.681
	c-0.567-0.425-1.135-0.567-1.844-0.567C103.926,110.421,98.394,110.137,93.146,108.435z M13.858,17.091
	c-0.284,0.851-2.411,2.128-3.405,2.695C11.447,18.935,12.582,17.941,13.858,17.091z M14.141,19.786
	c-0.284,0.284-0.567,0.425-0.709,0.709c-1.135,0.709-1.986,1.56-3.121,2.27C11.447,21.63,12.724,20.495,14.141,19.786z
	 M9.319,27.162l-0.568,0.851c1.276-3.262,7.376-7.943,10.638-9.219c0.141,0,0.425-0.143,0.568-0.143
	C16.554,21.772,12.724,24.041,9.319,27.162z M20.384,18.225c0.141,0,0.141,0,0.284-0.143h0.143
	C20.667,18.225,20.525,18.225,20.384,18.225z M73.997,50.423c0-0.143,0-0.143,0.143-0.143L73.997,50.423z M78.253,47.303
	c0.143-0.143,0.143-0.143,0.284-0.143C78.395,47.161,78.395,47.303,78.253,47.303z M80.948,45.175c0-0.141,0-0.141,0.143-0.141
	L80.948,45.175z M80.807,39.785c-0.284,0.284-0.568,0.425-0.852,0.568L80.807,39.785z M57.829,52.267l6.667-4.255
	c2.837-1.844,5.532-4.113,8.368-6.099c1.419-0.993,2.695-1.844,3.971-2.979l1.135-0.425C72.013,43.756,64.92,48.437,57.829,52.267
	l-0.568,0.284C57.403,52.408,57.545,52.267,57.829,52.267z M78.253,41.629c-2.411,2.27-8.51,6.808-11.348,8.084
	C70.736,47.161,74.14,43.756,78.253,41.629z M58.538,55.104c-0.143,0.141-0.284,0.141-0.425,0.141c0.141,0,0.141,0,0.284-0.141
	H58.538z M56.978,52.692l-1.986,1.135C55.276,52.976,56.127,52.834,56.978,52.692z M55.133,56.806v0.141l-0.143-0.141H55.133z
	 M51.303,61.486c1.135-0.709,2.695-1.418,3.83-1.986c2.127-1.276,4.255-2.411,6.241-3.687c6.525-3.971,12.908-8.227,18.865-13.049
	c2.837-2.27,5.816-4.538,8.368-7.092l-0.141,0.425c-2.128,1.986-4.113,4.255-6.383,6.241c-9.362,8.227-20.709,14.608-31.772,20.141
	C50.595,62.196,50.878,61.77,51.303,61.486z M38.68,31.275v0.568c-0.141,0-0.141,0-0.284-0.143L38.68,31.275z M38.254,32.551v0.143
	h-0.141L38.254,32.551z M32.581,31.984v0.143H32.44L32.581,31.984z M30.454,39.359h-0.141c0-0.143,0-0.284,0.141-0.284V39.359z
	 M30.738,38.225h-0.143v-0.284l0.143-0.141V38.225z M31.021,36.949l-0.141-0.143l0.284-0.284
	C31.021,36.665,31.021,36.806,31.021,36.949z M31.305,35.246c0.141-0.568,0.284-1.135,0.567-1.56l0.284,0.141L31.305,35.246z
	 M32.297,59.075c0.993-8.652,2.979-17.305,5.532-25.673l0.284,0.143L32.297,59.075z"/>
<path class="st2" d="M85.767,49.328l2.628,4.86c-1.182-0.263-2.365-0.525-3.547-0.525c-4.994,0-9.065,2.234-11.956,6.306
	c-3.678,5.123-6.306,11.429-6.306,17.736c0,7.751,4.729,13.268,12.743,13.268c3.678,0,7.226-2.496,7.488-6.306l-0.525,0.658
	c0,0.525-0.131,0.919-0.525,1.313v-0.525l-0.263,0.525h-0.131l-0.131,0.525h-0.131l0.131,0.263h-0.394v0.131l-0.263-0.131
	l0.131-0.394l-0.919-0.131c0.131-0.788,0.919-1.314,0.919-2.234c0-0.13-0.131-0.394-0.263-0.657
	c-0.788,1.183-1.051,2.496-2.496,3.153c0.394-1.051,1.446-1.97,1.446-3.153v-0.394l-0.131,0.131
	c-0.919,2.364-3.022,4.204-5.78,4.204c-1.84,0-2.234-4.993-2.234-6.306c0-1.052-0.131-3.284,0.394-4.335
	c8.67,0,19.97-6.831,19.97-16.421c0-5.78-3.547-10.115-8.802-11.823L85.767,49.328z M79.328,61.677l0.131-0.131v0.131l-0.525,0.263
	C79.065,61.808,79.065,61.677,79.328,61.677z M75.912,62.99c0,0.131-0.131,0.395-0.263,0.525h-0.131
	C75.649,63.517,75.782,63.123,75.912,62.99z M75.124,63.779c0,0.263,0,0.394-0.131,0.525C74.993,64.173,74.993,64.042,75.124,63.779
	z M71.445,67.194h-0.131c0-0.131,0-0.131,0.131-0.131V67.194z M71.971,65.882l-0.263-0.131l0.394-0.657L71.971,65.882z
	 M72.233,64.961h-0.131l0.131-0.131V64.961z M73.942,71.793h-0.131c0-0.263,0-0.525,0.131-0.657V71.793z M74.205,61.94l-0.525,0.394
	l-0.263,0.525c-0.131,0.525-0.263,1.051-0.919,1.313c0.263-0.525,0.657-0.919,0.919-1.313v-0.131l0.263-0.394l0.657-1.052
	c0.131-0.131,0.263-0.131,0.394-0.131l-0.394,0.131C74.336,61.546,74.205,61.677,74.205,61.94z M74.467,70.348
	c0-2.759,2.496-6.438,4.335-8.276C77.62,64.961,75.387,67.458,74.467,70.348z M87.735,66.276v0.131l-0.394,0.131L87.735,66.276
	c0-0.131,0-0.394,0.131-0.525L87.735,66.276z M93.122,63.517c-0.525,1.707-1.313,3.416-2.627,4.729
	C90.495,67.458,92.597,64.436,93.122,63.517z M90.101,68.509c0.131-0.131,0.263-0.131,0.394-0.131
	C90.363,68.509,90.232,68.509,90.101,68.509z M90.232,65.355l-0.131,0.394h-0.131L90.232,65.355z M89.969,68.509
	c0,0.131-0.131,0.131-0.263,0.263L89.969,68.509z M89.181,63.254h0.263c0,0.131-0.131,0.263-0.263,0.263V63.254z M88.525,64.961
	V64.83l0.263-0.525C88.787,64.567,88.656,64.699,88.525,64.961z M88.656,59.049c0,4.729-6.963,12.48-11.692,13.005
	c1.051-5.779,5.78-12.216,11.692-13.531V59.049z"/>
<path class="st2" d="M159.754,59.182c-2.234-4.335-6.832-8.408-11.955-8.408c-9.985,0-16.685,18.129-16.685,26.537
	c0,1.198,0.148,2.406,0.407,3.594c-0.061,0.153-0.112,0.311-0.146,0.478l-0.131-0.525l-0.788,1.445h0.131l-0.263,0.526h0.131
	c-0.394,0.657-0.919,1.313-1.182,1.97c-0.394,1.052-1.446,1.84-1.707,2.89l-0.263,0.525l-0.394,0.263l-0.263,0.525v-0.525
	c-0.919,0.657-1.051,1.313-1.445,2.364h0.263l0.131-0.131v0.131h-0.131c-0.394,0.657-1.051,1.445-1.182,2.102l-0.131-0.526
	l-0.919,0.657l1.183-2.233l-4.204,4.861c2.364-4.861,6.7-9.196,9.458-13.925l-0.657,0.657c-0.657,0.657-1.183,1.707-1.707,2.364
	c-2.102,2.628-4.204,5.518-6.569,7.882c0,0.131,0,0.131-0.131,0.131v-0.131h0.131c1.183-2.759,3.547-4.86,5.256-7.357h-0.263
	c-1.313,1.445-2.627,3.284-4.335,4.334c0-4.203,5.78-20.494,7.488-25.223c0.263-0.788,0.657-1.707,0.657-2.628
	c0-0.657-0.525-1.051-1.182-1.182c-1.445,2.759-2.496,5.78-3.81,8.67c0,0.263-0.263,0.394-0.394,0.525c0,0.131,0,0.131-0.131,0.131
	l0.131-0.131c1.182-3.153,2.365-6.306,3.416-9.59l-0.657-0.263V60.1l-0.525,0.263l0.131-0.919c-0.131-0.131-0.394-0.394-0.657-0.394
	c-0.394,0-0.657,0.263-0.788,0.525l-0.394,0.263l-0.131,0.657l-0.394,0.131c0.525-0.525,0.263-0.394,0.525-0.919l0.394-0.131
	l-0.131-1.313c-3.021,1.182-3.416,3.941-5.78,6.043l-12.611,11.298l-2.102,1.576l-0.263-0.262c3.81-8.539,8.539-19.18,17.998-22.465
	l3.81,1.051c0.131-0.263,0.263-0.525,0.263-0.788c0-0.394-0.263-0.788-0.525-1.051c-2.364-2.234-5.123-4.072-8.408-4.072
	c-3.284,0-6.569,1.84-9.196,3.678c-6.314,4.466-14.59,18.524-14.59,26.275c0,3.677,4.861,6.7,8.145,6.7
	c4.598,0,8.408-5.518,11.167-8.408l4.466-4.599c-1.445,6.963-3.021,13.925-3.021,21.02c0,3.678,2.102,3.941,4.992,4.992
	c4.38-3.484,9.135-11.04,12.44-17.47c1.602,5.892,6.263,11.033,12.784,11.033c3.547,0,10.773-3.547,12.744-6.569
	c0.394-0.526,0.525-1.183,0.919-1.707c-0.394-0.131-0.788-0.263-1.052-0.658l-1.051,1.052l0.394-1.182l-2.364-1.84
	c-0.657,0.262-1.313,0.525-1.84,0.919c-3.547,2.364-6.569,4.334-11.035,4.729c-0.131-0.525-0.263-0.919-0.263-1.445
	c0-9.459,1.839-20.889,9.985-26.931c0.919-0.657,1.84-0.789,2.89-0.789h0.919c-0.788,1.84-1.313,3.678-1.313,5.65
	c0,4.204,2.627,7.357,6.832,7.882c-0.263-1.313-0.919-2.496-0.919-3.81c0-2.233,1.052-4.204,1.052-6.437
	C160.411,60.759,160.148,59.971,159.754,59.182z M125.462,61.677c0,0.263,0,0.394-0.131,0.657
	C125.331,62.072,125.331,61.94,125.462,61.677z M125.331,62.466l-0.525,1.051c0-0.131-0.131-0.394-0.131-0.394
	C124.674,62.728,124.937,62.596,125.331,62.466z M122.836,74.158c0-0.131,0-0.263,0.131-0.394L122.836,74.158z M123.361,72.844
	l-0.131,0.263c0-0.263,0-0.525,0.131-0.657V72.844z M123.624,61.414l-1.051,1.971C122.704,62.728,123.23,61.808,123.624,61.414z
	 M122.704,74.815c-0.131,0.919-0.263,1.84-0.919,2.628C122.047,76.522,122.31,75.734,122.704,74.815z M121.653,77.574h0.131
	l-0.263,0.525L121.653,77.574z M121.521,78.625v0.657h-0.131C121.39,79.019,121.39,78.886,121.521,78.625z M120.865,81.383v0.395
	l-0.131-0.263L120.865,81.383z M107.201,60.626v0.131h-0.131C107.071,60.626,107.071,60.626,107.201,60.626z M106.677,61.546v0.131
	h-0.263C106.545,61.677,106.545,61.677,106.677,61.546z M106.019,58.261h0.131l-0.394,0.263L106.019,58.261z M97.874,72.318h-0.131
	c0-0.131,0.131-0.263,0.131-0.394V72.318z M98.268,70.874l-0.263,0.657C98.006,71.268,98.137,71.005,98.268,70.874
	c0.919-2.496,4.992-9.591,6.832-11.429l0.263-0.525c0,0.657-1.182,2.102-1.576,2.628c-1.84,2.759-3.416,5.912-5.123,8.802
	C98.662,70.61,98.4,70.742,98.268,70.874z M105.1,63.517v0.263c-1.446,2.364-3.022,4.598-4.335,7.094
	C101.947,68.115,103.393,65.882,105.1,63.517z M99.846,72.975c0.263-0.263,0.263-0.788,0.525-0.919l-0.394,0.919H99.846z
	 M100.24,79.675h-0.131c0-0.13,0-0.394,0.131-0.525V79.675z M100.765,77.967c-0.131,0.395-0.263,0.658-0.525,0.919
	c0.394-1.445,0.657-3.021,1.182-4.466c1.313-3.81,6.306-13.138,9.722-15.239C106.677,64.567,103.261,71.399,100.765,77.967z
	 M120.208,83.879h0.131v0.263h-0.131V83.879z M120.471,96.753c0-0.131,0.131-0.263,0.263-0.263L120.471,96.753z M120.865,96.361
	l0.919-1.183C121.785,95.834,121.259,95.965,120.865,96.361z M121.785,95.703c0.131,0,0.131-0.131,0.263-0.131
	C122.047,95.703,121.916,95.703,121.785,95.703z M121.916,95.046l0.788-1.182c0,0.262-0.131,0.525-0.131,0.788L121.916,95.046z
	 M122.704,94.521l0.131-0.131C122.836,94.521,122.836,94.521,122.704,94.521z M123.361,94.389h-0.263
	c0.131,0,0.131-0.131,0.263-0.131V94.389z M123.886,93.339h-0.131l0.394-0.263h0.131L123.886,93.339z M126.514,89.659
	c0-0.13,0-0.394,0.131-0.525C126.646,89.266,126.646,89.529,126.514,89.659z M144.513,57.736c-0.657,0.788-1.445,1.446-2.233,2.234
	C142.28,59.182,143.725,57.736,144.513,57.736z M139.39,59.576c0.525-0.789,2.496-3.81,3.415-3.81
	C142.149,56.816,140.44,59.05,139.39,59.576z M142.149,65.355c-0.525,0.788-0.919,1.051-1.182,1.97h-0.131
	c0.788-2.234,3.547-8.014,5.78-8.933l1.183-0.394h0.131C145.432,60.232,143.987,62.596,142.149,65.355z M155.942,60.101h-0.131
	c0-0.131,0-0.131,0.131-0.263V60.101z"/>
<path class="st2" d="M164.756,72.512c0,0.131-0.131,0.131-0.131,0.263h0.131V72.512z"/>
<path class="st2" d="M273.475,35.667c-12.106,0-21.565,15.133-21.565,26.23c0,6.18,5.296,11.476,11.475,11.476
	c5.801,0,9.08-5.675,13.116-8.954c-0.252,3.784-1.01,10.215-3.027,13.368c-0.379-1.136-1.513-1.892-2.649-2.144l-0.504-1.009
	c-4.792,2.396-8.576,5.548-12.233,9.331c-7.188,7.314-19.548,26.105-19.548,36.445c0,4.666,5.548,7.693,9.711,7.693
	c5.422,0,10.973-4.288,14.503-7.945c9.08-9.458,13.998-21.187,17.781-33.545c2.901-9.458,3.783-19.548,3.783-29.509
	c0-1.261-0.63-2.396-1.765-3.027l-4.918-2.901c-2.144,1.766-3.531,4.918-5.045,7.188c-2.269,3.657-5.171,6.683-8.827,8.954
	c-0.883,0.504-1.639,1.009-2.649,1.009h-0.63c0-0.378-0.126-0.63-0.126-1.009c0.001-10.089,8.576-25.222,19.801-25.222
	c1.765,0,5.296,2.523,6.809,3.531c0.126-0.504,0.379-1.009,0.379-1.513c0-0.378-0.252-0.756-0.505-1.135
	C283.815,38.567,278.771,35.667,273.475,35.667z M271.457,67.446c-0.125,0.125-0.378,0.125-0.504,0.125v-0.125H271.457v-0.252
	c0-0.883,0.883-1.387,1.514-1.892L271.457,67.446z M274.736,64.545h-0.126l0.379-0.252L274.736,64.545z M274.357,63.662
	c0.378-0.63,0.883-1.261,1.387-1.766C275.492,62.527,274.988,63.284,274.357,63.662z M276.375,59.879l0.126-0.126h0.126
	C276.501,59.879,276.501,59.879,276.375,59.879z M274.483,83.713h0.125l-0.125,0.126V83.713z M260.359,89.894
	c0,0.126,0,0.126-0.126,0.126L260.359,89.894z M256.198,88.884c0,0.126,0,0.126-0.126,0.126L256.198,88.884z M242.578,111.837
	c0.379-1.262,4.415-9.711,5.045-10.215l-4.288,8.576C243.334,110.827,242.957,111.331,242.578,111.837z M247.243,107.044
	l-0.251,0.252C246.992,107.17,247.118,107.044,247.243,107.044z M244.344,119.402h-0.252l0.252-0.63V119.402z M246.866,111.331
	c2.269-4.666,5.045-9.205,7.565-13.746l0.758-0.63c-0.631,1.387-1.388,2.649-2.144,3.909c-2.143,3.658-4.288,7.314-5.926,11.224
	c-0.883,2.144-1.262,4.541-2.775,6.432C245.226,116.123,245.731,113.602,246.866,111.331z M247.623,121.294l-0.883,0.378h-0.379
	c0.126-10.718,18.413-34.932,27.114-40.985C269.06,94.559,260.863,113.98,247.623,121.294z M273.601,86.866l-0.126,0.126v-0.126
	H273.601z M272.971,88.758l-0.252,0.756C272.718,89.262,272.845,89.01,272.971,88.758z M264.017,107.296
	c1.513-3.027,3.153-6.053,4.792-8.954C267.547,101.243,266.035,104.773,264.017,107.296z M266.538,107.926
	c-0.125,0.126-0.378,0.252-0.504,0.252L266.538,107.926z M264.647,110.197v0.251h-0.126
	C264.521,110.323,264.521,110.197,264.647,110.197z M268.809,98.216c0.125-0.378,0.251-0.758,0.504-1.009
	c-0.126,0.125-0.126,0.378-0.126,0.504L268.809,98.216z M273.852,100.99h-0.125l0.125-0.126V100.99z M278.897,82.2l0.252,0.126
	c-0.126,0.126-0.126,0.504-0.252,0.63V82.2z M278.897,83.083v0.63h-0.378L278.897,83.083z M278.141,84.723h0.379
	c-0.126,0.63-0.379,1.136-0.631,1.639L278.141,84.723z M277.762,86.741c-0.758,2.143-1.136,4.288-1.892,6.432
	c-2.523,7.439-6.684,15.889-11.854,21.817c0.882-2.018,2.269-3.91,3.404-5.801c4.035-6.81,7.314-13.998,9.837-21.439
	C277.384,87.371,277.51,86.992,277.762,86.741z M276.88,54.456l0.251,0.126c-0.126,0.504-1.261,1.766-1.765,2.523L276.88,54.456z
	 M275.114,61.519h0.126l-0.252,0.252C274.988,61.645,275.114,61.645,275.114,61.519z M274.736,58.113
	c-1.261,1.766-2.647,3.405-3.909,5.045L274.736,58.113z M263.26,42.728h0.125l-0.378,0.378L263.26,42.728z M263.26,46.007
	l-0.126,0.252V45.88L263.26,46.007z M257.711,49.16c0.756-1.387,1.892-2.775,2.901-3.909
	C260.233,46.007,258.342,48.781,257.711,49.16z M259.35,57.862l-0.251-0.126l0.378-0.378C259.35,57.482,259.35,57.735,259.35,57.862
	z M261.746,52.565c-0.63,1.261-1.135,2.396-2.017,3.657c0.883-4.035,3.405-7.819,6.558-10.467c0.251-0.252,0.504-0.378,0.883-0.378
	C265.151,47.395,263.134,49.916,261.746,52.565z"/>
<path class="st2" d="M199.199,37.307l-0.618,0.117v-1.167l-1.484-0.233l0.248-0.817l-1.236-0.584
	c-0.248,0.233-0.495,0.467-0.865,0.584v-0.817l-0.618-0.117l-0.37-0.467c-2.349,0-3.709,6.069-3.709,7.821
	c0,3.268,2.595,8.52,5.563,10.154c0.865-0.117,1.484,0.584,2.349,0.584c0.37,0,0.742-0.117,1.112-0.35
	c0-1.518-0.494-3.152-0.494-4.669c0-2.802,1.359-5.252,1.359-8.054C200.435,38.475,199.94,37.774,199.199,37.307z"/>
<path class="st2" d="M238.785,100.758c-1.1-0.611-1.467-1.711-1.467-2.932c0-8.186,8.796-32.985,12.095-41.536
	c0.609-1.709,2.564-6.717,2.564-8.305c0-2.81-4.521-5.253-6.842-5.619c-1.343,0.366-2.198,1.343-3.176,2.321
	c-3.054,3.298-5.985,6.719-8.917,10.14c-7.574,8.795-14.049,18.324-20.89,27.73l-0.244-0.121c2.444-7.085,7.208-22.112,7.208-29.198
	c0-3.421-2.077-6.597-5.009-8.064c-0.244-0.122-1.466-0.733-1.711-0.733c-0.489,0-0.977,0-1.221,0.611
	c0.122,0.611,0.366,1.221,0.366,1.832c0,3.298-1.099,6.963-2.076,10.018c-0.682,2.343-1.646,5.646-2.613,9.223
	c-1.944,2.543-4.121,4.97-5.937,7.636c-3.055,4.52-5.986,9.285-9.407,13.559c0-0.122-0.122-0.366-0.122-0.366
	c0-0.122,0.122-0.122,0.122-0.244l2.687-9.039c1.343-4.399,2.932-8.552,2.932-13.194c0-5.864-4.398-8.674-9.772-9.407
	c-0.367,0.122-1.1,0.366-1.1,0.855c0,0.611,0.367,1.221,0.367,1.832v0.489c-0.367,5.008-1.588,9.895-2.932,14.782
	c-1.711,6.231-3.298,13.194-3.298,19.79c0,3.666,2.566,5.62,6.108,5.62c0.978,0,1.711-0.122,2.444-0.855
	c2.809-3.054,6.719-8.429,9.162-11.973c1.955-2.809,3.665-5.863,5.498-8.795c0.328-0.529,0.665-1.061,1.003-1.593
	c-0.807,3.718-1.369,7.147-1.369,9.533c0,3.665,3.665,6.963,7.208,6.963c0.855,0,1.221-0.122,1.954-0.733
	c3.176-2.81,9.407-13.316,11.973-17.469c4.031-6.475,8.551-13.194,13.927-18.691c0.367-0.366,0.733-0.489,1.1-0.733
	c-1.344,3.543-2.933,6.963-4.031,10.628c-2.321,7.452-6.108,17.958-6.108,25.654c0,5.742,1.343,11.605,8.307,11.605
	C238.295,101.979,238.785,101.49,238.785,100.758z M192.483,70.707h0.244c-0.122,0.244-0.122,0.611-0.244,0.733V70.707z
	 M186.496,93.308h-0.244c0.611-4.399,2.198-8.674,3.421-12.95c0.855-2.809,1.221-5.741,2.687-8.307
	C190.407,79.137,188.329,86.222,186.496,93.308z M195.537,85.733c0.244-0.489,0.49-1.099,1.1-1.221L195.537,85.733z M197.004,83.779
	v-0.244c0-0.733,0.489-0.978,1.099-1.099L197.004,83.779z M202.134,77.304l-0.489,0.367c0.489-0.733,1.099-1.467,1.466-2.321
	C202.867,76.083,202.5,76.693,202.134,77.304z M205.224,72.495c-0.121,0.259-0.246,0.519-0.402,0.778
	c0.065,0.065,0.129,0.094,0.194,0.109c-0.019,0.081-0.037,0.161-0.055,0.241l-0.139,0.14v-0.49l-0.612,0.244l1.165-1.651
	C205.325,72.076,205.273,72.285,205.224,72.495z M205.89,69.792c-0.48,0.65-1.015,1.273-1.557,1.892
	c0.585-1.305,1.287-2.543,2.036-3.751C206.207,68.55,206.047,69.169,205.89,69.792z M206.473,67.539
	c-4.859,7.001-9.609,14.003-14.356,21.004c-0.244,0.366-0.855,0.733-1.222,1.099c1.1-2.198,2.81-4.031,4.153-6.108
	c2.076-3.421,4.398-6.719,6.475-10.14c1.261-2.177,3.166-4.141,5.01-6.09C206.514,67.383,206.493,67.462,206.473,67.539z
	 M247.089,48.352l0.122,0.122l-0.122,0.366V48.352z M246.357,50.428c-0.49,1.343-1.222,2.688-1.833,4.031
	C245.013,52.993,245.502,51.65,246.357,50.428z M244.891,48.229v0.611c-1.222,2.444-2.566,4.886-3.666,7.33l-0.366,0.244v0.977
	l-0.367-0.122l0.367-0.855C242.08,53.604,243.302,50.795,244.891,48.229z M214.228,86.1c0-0.244,0.122-0.367,0.244-0.49
	L214.228,86.1z M217.769,81.213l-0.489,0.611c0.122-0.489,0.611-1.099,0.978-1.466C218.137,80.603,217.893,80.848,217.769,81.213z
	 M217.893,79.626l0.122-0.122C218.015,79.626,218.015,79.626,217.893,79.626z M216.426,78.647c0.49-0.855,1.1-1.832,1.833-2.565
	C217.648,76.938,217.159,77.793,216.426,78.647z M219.115,78.037h-0.122l0.122-0.122V78.037z M218.869,75.227
	c1.467-3.054,3.666-5.741,5.621-8.551c5.253-7.452,11.239-14.293,17.468-20.89l0.244,0.244l-0.366,0.489
	c-6.231,7.696-13.316,14.659-18.813,22.844c-0.855,1.221-1.466,2.566-2.444,3.665c-0.49,0.611-0.978,0.855-1.222,1.589
	L218.869,75.227z M222.168,72.662v-0.244h0.243c0,0,0.244,0.122,0.367,0.122c-0.122,0.122-0.244,0.122-0.367,0.122v0.733h-0.489
	c0,0.122,0,0.367-0.122,0.489c-0.122-0.121-0.122-0.243-0.122-0.366v-0.366l0.244,0.122c0.122,0,0.367,0,0.489,0.122
	C222.412,73.273,222.168,72.662,222.168,72.662z M221.313,74.372l-0.122,0.366h-0.611c0.122-0.121,0.243-0.366,0.243-0.489h0.367
	L221.313,74.372z M219.358,78.647c0.49-1.099,1.222-2.076,2.077-3.054C220.824,76.693,220.091,77.672,219.358,78.647z
	 M221.68,76.571v-0.244l0.122,0.122L221.68,76.571z M221.435,75.471c0.366-0.977,1.099-1.71,1.588-2.566
	C222.657,73.883,222.046,74.738,221.435,75.471z M223.389,71.806c-0.366,0-0.489,0.244-0.489,0.611
	c-0.122-0.122-0.122-0.366-0.122-0.489v-0.366l0.244,0.122C223.146,71.684,223.267,71.684,223.389,71.806
	c0-0.244,0-0.489-0.122-0.733v-0.244h0.122c0,0,0.244,0.122,0.367,0.122l-0.244,0.122C223.511,71.318,223.511,71.563,223.389,71.806
	z M223.879,71.929l-0.244,0.244l0.366-0.733L223.879,71.929z M225.711,70.096v-0.244l0.122-0.122
	C225.833,69.852,225.833,69.974,225.711,70.096z M225.589,69.73v0.122c-0.243,0.122-0.489,0.244-0.733,0.489l0.978-1.466
	C225.833,69.119,225.711,69.608,225.589,69.73z M232.553,60.812c-0.367,0.244-1.467,1.711-1.588,2.077l-0.612,0.611h-0.243
	l-0.49,0.734l0.244,0.122c-0.244,0.122-0.367,0.366-0.489,0.611l-0.367,0.244c-0.244,0.733-0.733,1.344-1.221,1.955h-0.244
	l-0.855,0.489c0.244-0.366,0.367-0.733,0.489-1.221c-1.343,1.588-2.198,2.688-3.297,4.398l-0.122-0.489v-0.366
	c4.886-7.085,10.262-13.805,16.37-19.913c-1.343,1.71-7.33,8.185-7.94,9.651c1.588-1.099,2.688-2.688,4.031-4.153v0.489l0.243,0.122
	C235.728,56.536,232.796,60.079,232.553,60.812z M238.904,53.36c-0.611,0.366-0.855,0.855-1.343,1.344
	c-0.489,0-0.733,0.244-1.1,0.489l4.764-5.254l-1.343,1.832C239.882,52.505,239.149,52.749,238.904,53.36z M240.371,58.003v0.244
	h-0.122C240.249,58.125,240.371,58.125,240.371,58.003z M239.637,60.201l-0.121,0.122v-0.122H239.637z M235.606,89.887h-0.122V89.52
	h0.122V89.887z M235.973,88.787l-0.366-0.121l0.854-3.055C236.339,86.711,236.217,87.688,235.973,88.787z M236.46,85.367
	c2.81-11.24,7.697-26.998,12.828-37.26l0.367,0.122c-2.321,6.597-5.131,12.95-7.453,19.547c-1.953,5.498-3.175,11.362-5.253,16.859
	C236.827,84.877,236.705,85.122,236.46,85.367z"/>
<path class="st2" d="M183.033,30.081c3.72-0.62,12.49,0.143,14.867-2.75c-0.62-0.104-1.447-0.31-1.447-1.136
	c-1.344-1.757-1.861-2.169-4.031-2.169c-1.861,0-3.617,0-5.375,0.413c-0.723,0.206-1.55,0.104-2.273,0.206
	c0,0,3.72-10.64,3.72-11.054c0-0.93-1.033-1.445-1.654-1.962l-0.826,0.206v-1.033l-1.137-0.413l-0.826,0.723l0.517-1.446
	L183.74,9.77l-0.413-0.619c-0.517,0.619-0.93,1.24-1.551,1.859l0.723-1.653l-1.24-0.619c-0.93,0-1.344,0.619-1.758,1.343
	c-1.447,2.479-3.101,5.062-4.238,7.747c-1.447,3.512-3.514,6.611-5.787,9.607c-2.274,0.517-4.651,0.723-6.925,1.343
	c-1.033,0.31-1.24,0.619-1.447,1.653l0.93,0.517l-0.104,0.619c0.723,0.93,2.067,1.963,3.101,2.272l-0.104,0.104
	c1.033,0,2.17-0.104,3.204-0.104c0.31,0,1.24,0,1.24,0.517c0,0.723-0.31,1.343-0.414,2.066c-0.414,2.892-1.137,5.785-1.654,8.678
	c-0.517,2.479-0.723,5.062-1.137,7.54c-1.654,10.743-3.101,21.796-3.101,32.643c0,3.616,0,10.64,3.824,12.603
	c1.241,0.619,2.584,0.93,3.824,1.55l0.62-0.93c0.104,0.206,0.207,0.517,0.517,0.517c0.723,0,2.067-0.309,2.067-1.24
	c0-0.309,0-0.517-0.104-0.826c-0.62-2.584-1.033-5.372-1.033-8.057c0-6.715,0.826-13.533,1.861-20.145
	C176.713,56.255,179.312,42.167,183.033,30.081z M165.964,75.882h-0.104v-1.343h0.104V75.882z M174.749,58.115v-0.517h0.103
	c0.104,0.206,0.104,0.31,0.104,0.517H174.749z M175.163,56.359h-0.103v-0.413h0.103V56.359z M175.473,55.119h-0.207l0.104-0.723
	h0.103V55.119z M175.576,53.569v-0.619h0.104c0.103,0.206,0.103,0.413,0.103,0.619H175.576z M175.989,52.226h-0.104V51.4h0.104
	V52.226z M176.3,50.781c-0.104,0-0.104,0-0.207-0.104l0.103-0.619h0.104V50.781z M176.506,49.437h-0.103v-0.723h0.103V49.437z
	 M176.816,47.992h-0.103v-0.619h0.103V47.992z M177.126,46.752l-0.207-0.104l0.207-0.517V46.752z M177.229,45.822
	c0-0.206-0.104-0.31-0.104-0.517c0-0.206,0.207-0.413,0.414-0.413L177.229,45.822z M177.54,44.788c0-0.206-0.104-0.31-0.104-0.517
	c0-0.31,0.207-0.413,0.414-0.517L177.54,44.788z M177.85,43.652c-0.104-0.31-0.104-0.619-0.104-0.93h0.207
	C177.953,43.033,177.85,43.343,177.85,43.652z M178.16,42.103h-0.207c0-0.206,0.104-0.31,0.207-0.517V42.103z M178.264,41.173
	l-0.104,0.104c0-0.104,0-0.206,0.104-0.31V41.173z M181.053,12.456c0.104-0.413,0.311-0.723,0.517-1.136v0.206L181.053,12.456
	c0,0.103-0.103,0.31-0.207,0.413C180.847,12.766,180.95,12.559,181.053,12.456z M181.26,17.207l-0.31,0.206v-0.206H181.26z
	 M183.328,17.828c0.31-0.413,0.723-0.826,1.033-1.343c-1.033,2.789-1.861,5.476-2.894,8.161c-0.103,0.413-0.31,0.826-0.826,0.826
	h-0.207C180.434,24.645,182.811,18.757,183.328,17.828z M180.641,32.083v0.413c0,0.31-0.104,0.619-0.414,0.723L180.641,32.083z
	 M180.123,34.355l-0.31,0.723c0.104-0.413,0.104-0.723,0.31-1.136V34.355z M179.813,14.315l0.207-0.413
	C180.02,14.005,179.917,14.212,179.813,14.315c0,0.206-0.103,0.413-0.207,0.517L179.813,14.315z M179.606,15.038
	c0,0.104,0,0.104-0.104,0.206C179.504,15.141,179.606,15.141,179.606,15.038z M179.297,36.628c0-0.413,0.207-0.827,0.517-1.136
	c-0.207,0.619-0.31,1.136-0.413,1.757v0.103h-0.104c-0.104,0.517-0.31,1.136-0.517,1.653v0.104l-0.207,0.827l-0.104,0.31
	c0-0.104,0-0.206,0.104-0.31c0-0.31,0.104-0.517,0.104-0.827l0.103-0.104c0-0.619,0-1.24,0.517-1.653l0.104-0.103
	C179.297,37.041,179.297,36.835,179.297,36.628z M178.883,22.889c0-0.104,0-0.104,0.104-0.206
	C178.987,22.785,178.883,22.785,178.883,22.889c-0.207,1.033-0.31,2.17-1.137,2.996C177.953,24.851,178.057,23.715,178.883,22.889z
	 M176.506,34.459h0.104c0,0.104,0,0.104-0.104,0.206V34.459z M176.196,35.389l0.207,0.104l-0.207,0.517V35.389z M175.576,24.749
	l-0.104,0.103C175.473,24.749,175.473,24.749,175.576,24.749z M171.235,26.918c0-0.206,0.207-0.413,0.414-0.413l-0.414,0.619V26.918
	z M166.378,71.44h-0.104V70.2h0.104V71.44z M166.688,68.445h-0.207l1.033-8.574l0.31,0.104
	C167.411,62.763,166.997,65.656,166.688,68.445z M167.928,58.528c0-3.306,3.41-22.933,4.858-25.205
	c-2.17,8.47-3.41,17.148-4.858,25.722V58.528z M168.135,78.879h-0.104v-1.033h0.104V78.879z M168.237,76.296h-0.103V76.09h0.103
	V76.296z M168.445,74.126h-0.104l0.104-1.963h0.103L168.445,74.126z M168.858,71.131h-0.207c0-0.517,0.104-0.93,0.104-1.446h0.103
	V71.131z M169.065,67.928c0-4.235,4.754-32.849,6.615-35.226c-1.241,5.991-2.584,11.88-3.721,17.871
	c-1.137,5.889-1.963,11.88-2.894,17.871V67.928z M175.989,37.248l-0.207,0.413l-0.103-0.103L175.989,37.248z M175.576,38.488v0.309
	h-0.207L175.576,38.488z M175.059,40.76v0.31h-0.104v-0.31H175.059z M174.749,42.103v0.206h-0.104L174.749,42.103z M174.542,43.137
	l-0.104,0.517h-0.103c0.103-0.206,0.103-0.31,0.103-0.517H174.542z M174.233,44.479v0.31h-0.104v-0.31H174.233z M171.856,80.014
	h-0.103v-0.309h0.103V80.014z M172.165,76.916h-0.103c0-0.206,0-0.414,0.103-0.517V76.916z M172.579,73.507h-0.104v-0.31h0.104
	V73.507z M169.891,90.138c-0.207-1.55-0.207-3.202-0.207-4.752c0-8.987,1.447-18.078,2.79-26.962
	c1.447-8.678,2.998-17.561,5.582-26.032l0.93-0.103C174.026,51.194,170.718,70.614,169.891,90.138z M172.889,71.131h-0.103v-0.414
	h0.103V71.131z M173.096,68.961v-0.413h0.103L173.096,68.961z M173.406,66.999c-0.104-0.104-0.104-0.31-0.104-0.414h0.104
	c0,0.104,0,0.31,0.103,0.414H173.406z M173.716,65.242h-0.104V64.52h0.104V65.242z M174.026,63.176h-0.104v-0.414h0.104V63.176z
	 M174.336,61.523h-0.104v-0.826h0.104V61.523z M174.439,59.147h0.207v0.62h-0.207V59.147z"/>
<path class="st1" d="M354.366,78.941c-8.698,0-15.774-7.076-15.774-15.774c0-8.697,7.076-15.774,15.774-15.774
	s15.774,7.076,15.774,15.774C370.14,71.865,363.064,78.941,354.366,78.941z M354.366,48.548c-8.06,0-14.619,6.558-14.619,14.618
	s6.558,14.619,14.619,14.619c8.06,0,14.619-6.558,14.619-14.619S362.426,48.548,354.366,48.548z"/>
<g>
	<g class="st3">
		<path d="M344.544,51.77C344.544,51.77,344.544,51.771,344.544,51.77C344.544,51.77,344.544,51.77,344.544,51.77L344.544,51.77
			L344.544,51.77l-0.001,0c-0.085,0.054-47.792,30.531-30.891,65.779c0.017,0.085,0.03,0.169,0.049,0.255
			c0-0.002,0-0.004-0.001-0.005c0,0.002,0.001,0.004,0.001,0.005c-0.007-0.064-0.011-0.126-0.018-0.19
			c0.079,0.165,0.158,0.33,0.24,0.495l0,0c0,0,0,0,0,0c0,0-0.002-0.018-0.005-0.049c-0.001-0.007-0.002-0.016-0.003-0.025
			c-0.001-0.011-0.002-0.023-0.004-0.037c-0.002-0.023-0.004-0.051-0.006-0.082c-0.001-0.014-0.002-0.028-0.003-0.044
			c-0.002-0.037-0.004-0.078-0.006-0.123c-0.001-0.015-0.001-0.031-0.002-0.046c-0.002-0.05-0.003-0.103-0.004-0.162
			c0-0.016,0-0.033-0.001-0.051c-0.001-0.063-0.001-0.13,0-0.202c0-0.014,0.001-0.029,0.001-0.044
			c0.001-0.078,0.004-0.16,0.008-0.248c0-0.01,0.001-0.02,0.002-0.03c0.004-0.087,0.01-0.179,0.017-0.274
			c0.001-0.011,0.001-0.022,0.002-0.033c0.008-0.099,0.017-0.204,0.029-0.312c0.002-0.017,0.003-0.034,0.005-0.051
			c0.012-0.107,0.026-0.218,0.042-0.333c0.003-0.021,0.005-0.041,0.009-0.062c0.017-0.115,0.036-0.234,0.057-0.355
			c0.004-0.023,0.008-0.046,0.012-0.069c0.023-0.124,0.047-0.25,0.075-0.381c0.005-0.023,0.01-0.046,0.015-0.069
			c0.029-0.134,0.061-0.27,0.097-0.41c0.005-0.02,0.011-0.041,0.016-0.061c0.038-0.145,0.078-0.292,0.123-0.443
			c0.004-0.014,0.009-0.029,0.013-0.043c0.047-0.158,0.098-0.318,0.154-0.481c0.001-0.003,0.002-0.005,0.003-0.008
			c0.056-0.163,0.117-0.33,0.183-0.498c0.006-0.016,0.012-0.033,0.019-0.049c0.063-0.162,0.132-0.327,0.205-0.494
			c0.011-0.024,0.021-0.048,0.031-0.072c0.072-0.163,0.15-0.329,0.231-0.496c0.014-0.028,0.027-0.056,0.041-0.084
			c0.083-0.166,0.17-0.334,0.263-0.503c0.016-0.029,0.032-0.059,0.049-0.088c0.095-0.17,0.194-0.342,0.299-0.515
			c0.017-0.028,0.034-0.055,0.051-0.083c0.109-0.176,0.222-0.354,0.343-0.532c0.015-0.023,0.031-0.045,0.047-0.068
			c0.126-0.185,0.257-0.371,0.397-0.558c0.009-0.012,0.018-0.023,0.027-0.035c0.139-0.186,0.286-0.373,0.439-0.56
			c0.012-0.014,0.023-0.029,0.035-0.043c0.153-0.185,0.314-0.372,0.48-0.558c0.023-0.026,0.045-0.051,0.069-0.077
			c0.163-0.18,0.333-0.359,0.51-0.539c0.031-0.032,0.062-0.064,0.094-0.096c0.176-0.176,0.359-0.353,0.548-0.529
			c0.037-0.034,0.074-0.068,0.111-0.102c0.191-0.175,0.389-0.349,0.595-0.523c0.04-0.034,0.081-0.068,0.122-0.102
			c0.21-0.175,0.427-0.35,0.652-0.524c0.039-0.03,0.079-0.06,0.119-0.09c0.233-0.178,0.473-0.355,0.723-0.53
			c0.032-0.023,0.066-0.045,0.098-0.068c0.253-0.176,0.514-0.351,0.784-0.525c0.025-0.016,0.049-0.032,0.074-0.047
			c0.271-0.172,0.552-0.343,0.841-0.513c0.043-0.025,0.085-0.051,0.128-0.076c0.285-0.165,0.581-0.329,0.884-0.491
			c0.072-0.038,0.142-0.077,0.215-0.115c0.075-0.039,0.152-0.079,0.228-0.117c0.125-0.064,0.25-0.129,0.378-0.192
			c0.074-0.037,0.15-0.073,0.225-0.109c0.134-0.065,0.267-0.131,0.404-0.196c0.067-0.032,0.137-0.063,0.205-0.095
			c0.148-0.069,0.295-0.137,0.447-0.205c0.018-0.008,0.037-0.016,0.055-0.024c0.198-0.088,0.399-0.176,0.603-0.262v0h0
			c0,0-0.302-1.001-0.555-2.829c0.046-0.023,0.089-0.046,0.135-0.07c0.165-0.082,0.333-0.165,0.501-0.247
			c0.269-0.132,0.541-0.263,0.819-0.395c0.179-0.085,0.36-0.17,0.543-0.255c0.289-0.134,0.584-0.267,0.882-0.401
			c0.175-0.079,0.348-0.157,0.525-0.235c0.401-0.176,0.811-0.352,1.227-0.528c0.073-0.031,0.142-0.061,0.215-0.092l0,0c0,0,0,0,0,0
			c0,0.001-10.141-14.253,13.429-45.379C344.542,51.772,344.543,51.771,344.544,51.77z"/>
		<path d="M315.309,7.722c1.466,0.53,4.181,1.899,6.476,5.235c0.158,0.23,0.315,0.47,0.468,0.719
			c0.308,0.499,0.605,1.036,0.887,1.616c1.13,2.318,2.026,5.306,2.402,9.153c0,0,0.919,0.008,2.533,0.258
			c0.003,0.015,0.005,0.029,0.008,0.043c0.02,0.117,0.04,0.238,0.06,0.357c0.045,0.268,0.089,0.538,0.131,0.812
			c0.023,0.148,0.045,0.298,0.067,0.447c0.038,0.257,0.075,0.517,0.111,0.78c0.021,0.154,0.042,0.31,0.062,0.466
			c0.036,0.279,0.071,0.563,0.105,0.849c0.017,0.142,0.034,0.281,0.051,0.424c0.047,0.414,0.093,0.834,0.135,1.262
			c0.001,0.014,0.003,0.027,0.005,0.042l0,0c0,0,0,0,0,0.001c0,0,16.602-5.517,39.451,26.146c0,0,0-0.001,0-0.001
			c0,0,0,0.001,0.001,0.001c0,0-0.001-0.003-0.003-0.01c-0.233-0.85-15.286-55.223-54.02-48.911l0.001,0c0,0-0.001,0-0.001,0
			c0,0,0.211,0.037,0.569,0.144c-0.21-0.026-0.421-0.051-0.637-0.069C314.555,7.56,314.93,7.644,315.309,7.722z"/>
		<path d="M418.751,79.31c0.05-0.056,0.099-0.114,0.149-0.171c0.311-0.356,0.619-0.719,0.923-1.093
			c-0.045,0.027-0.09,0.051-0.135,0.078c-0.052,0.029-0.119,0.064-0.2,0.105c-0.092,0.046-0.203,0.099-0.332,0.157
			c-0.033,0.015-0.067,0.03-0.102,0.045c-2.318,0.999-9.661,3.038-19.001-5.583c0,0-0.013,0.011-0.025,0.021
			c-0.004,0.004-0.01,0.008-0.016,0.013c-0.021,0.018-0.052,0.044-0.091,0.076c-0.008,0.006-0.017,0.014-0.025,0.021
			c-0.041,0.033-0.089,0.072-0.145,0.116c-0.007,0.005-0.013,0.01-0.02,0.016c-0.06,0.048-0.133,0.104-0.211,0.163
			c-0.019,0.014-0.038,0.029-0.058,0.043c-0.082,0.062-0.173,0.13-0.273,0.202c-0.018,0.013-0.038,0.027-0.056,0.04
			c-0.094,0.068-0.195,0.14-0.303,0.216c-0.022,0.015-0.042,0.03-0.065,0.046c-0.12,0.084-0.251,0.173-0.388,0.265
			c-0.033,0.023-0.068,0.045-0.102,0.068c-0.105,0.07-0.217,0.143-0.331,0.216c-0.088-0.07-0.178-0.144-0.267-0.216
			c-0.211-0.17-0.423-0.342-0.636-0.519c-0.115-0.096-0.232-0.193-0.348-0.29c-0.198-0.166-0.397-0.335-0.598-0.507
			c-0.12-0.103-0.24-0.206-0.36-0.311c-0.211-0.183-0.423-0.37-0.636-0.56c-0.109-0.096-0.217-0.191-0.326-0.289
			c-0.301-0.27-0.605-0.546-0.912-0.828c-0.019-0.018-0.038-0.034-0.057-0.052c0,0-0.116,0.201-0.38,0.544
			c-0.001,0.001-0.001,0.001-0.002,0.002c-0.104,0.135-0.232,0.293-0.384,0.469c-0.005,0.006-0.01,0.012-0.015,0.017
			c-0.074,0.086-0.154,0.175-0.24,0.269c-0.002,0.002-0.003,0.003-0.005,0.005c-0.087,0.095-0.181,0.194-0.281,0.296
			c-0.009,0.009-0.019,0.019-0.028,0.029c-0.093,0.095-0.192,0.193-0.296,0.293c-0.01,0.009-0.019,0.018-0.028,0.028
			c-0.112,0.107-0.23,0.217-0.355,0.329c-0.013,0.012-0.028,0.024-0.041,0.037c-0.113,0.102-0.232,0.205-0.357,0.311
			c-0.019,0.016-0.038,0.033-0.057,0.049c-0.138,0.116-0.282,0.233-0.433,0.353c-0.017,0.013-0.034,0.027-0.051,0.04
			c-0.136,0.107-0.279,0.216-0.427,0.325c-0.028,0.021-0.056,0.042-0.085,0.063c-0.166,0.122-0.339,0.245-0.519,0.369
			c-0.016,0.011-0.033,0.022-0.048,0.033c-0.165,0.113-0.337,0.226-0.515,0.34c-0.04,0.025-0.079,0.051-0.119,0.076
			c-0.15,0.095-0.304,0.19-0.463,0.285c-0.021,0.013-0.042,0.025-0.063,0.038c-0.185,0.11-0.377,0.221-0.574,0.331
			c-0.03,0.016-0.061,0.033-0.091,0.05c-0.164,0.091-0.332,0.181-0.504,0.271c-0.056,0.029-0.113,0.059-0.17,0.088
			c-0.157,0.081-0.317,0.161-0.481,0.241c-0.057,0.028-0.114,0.056-0.172,0.084c-0.205,0.098-0.415,0.197-0.631,0.294
			c-0.014,0.006-0.027,0.013-0.042,0.019c-0.235,0.105-0.478,0.209-0.725,0.312c-0.052,0.022-0.106,0.043-0.158,0.064
			c-0.194,0.079-0.392,0.158-0.594,0.236c-0.075,0.029-0.151,0.057-0.227,0.086c-0.194,0.073-0.393,0.145-0.594,0.216
			c-0.072,0.025-0.143,0.051-0.217,0.077c-0.547,0.189-1.12,0.371-1.721,0.543c-0.076,0.022-0.155,0.043-0.232,0.065
			c-0.227,0.064-0.456,0.126-0.691,0.187c-0.097,0.025-0.195,0.05-0.293,0.075c-0.236,0.06-0.476,0.117-0.72,0.174
			c-0.086,0.02-0.171,0.041-0.258,0.06c-0.334,0.075-0.673,0.148-1.021,0.217c-0.005,0.001-0.012,0.002-0.017,0.003
			c-0.337,0.067-0.682,0.13-1.032,0.19c-0.103,0.018-0.208,0.035-0.312,0.052c-0.263,0.044-0.529,0.086-0.799,0.126
			c-0.119,0.018-0.237,0.035-0.358,0.052c-0.287,0.041-0.578,0.079-0.874,0.115c-0.096,0.012-0.19,0.024-0.287,0.036
			c-0.395,0.046-0.797,0.089-1.208,0.127c-0.052,0.005-0.107,0.009-0.16,0.014c-0.356,0.032-0.718,0.061-1.085,0.088
			c-0.128,0.009-0.258,0.017-0.387,0.025c-0.306,0.02-0.616,0.037-0.93,0.052c-0.139,0.007-0.278,0.014-0.418,0.019
			c-0.35,0.014-0.705,0.025-1.064,0.034c-0.098,0.002-0.194,0.006-0.293,0.008c-0.462,0.009-0.933,0.014-1.412,0.013
			c-0.089,0-0.182-0.002-0.272-0.003c-0.389-0.002-0.783-0.007-1.182-0.016c-0.153-0.004-0.308-0.008-0.463-0.013
			c-0.356-0.01-0.717-0.023-1.082-0.039c-0.157-0.007-0.313-0.013-0.471-0.021c-0.433-0.021-0.872-0.047-1.317-0.076
			c-0.084-0.005-0.166-0.01-0.251-0.015c-0.535-0.037-1.079-0.08-1.631-0.128c-0.127-0.011-0.257-0.024-0.385-0.036
			c-0.427-0.04-0.859-0.082-1.296-0.129c-0.179-0.019-0.359-0.039-0.539-0.06c-0.413-0.047-0.831-0.097-1.254-0.15
			c-0.173-0.022-0.344-0.043-0.519-0.066c-0.548-0.072-1.102-0.149-1.665-0.232c-0.043-0.006-0.084-0.012-0.127-0.018
			c-0.614-0.091-1.239-0.191-1.871-0.297c-0.159-0.027-0.322-0.056-0.482-0.083c-0.476-0.081-0.957-0.167-1.444-0.256
			c-0.201-0.037-0.404-0.075-0.607-0.114c-0.482-0.091-0.969-0.187-1.461-0.286c-0.182-0.037-0.363-0.072-0.547-0.11
			c-0.674-0.139-1.355-0.284-2.049-0.439l0,0l0,0c0,0,0,0-0.001,0l0.001,0h0c0,0,0.003,0.001,0.003,0.002
			c0.01,0.007,0.29,0.189,0.803,0.503c0.02,0.013,0.04,0.025,0.061,0.038c0.064,0.039,0.131,0.08,0.202,0.123
			c0.051,0.031,0.103,0.062,0.157,0.095c0.051,0.031,0.103,0.062,0.157,0.095c0.08,0.048,0.162,0.097,0.248,0.148
			c0.051,0.031,0.104,0.062,0.158,0.093c0.075,0.044,0.152,0.09,0.232,0.136c0.069,0.04,0.139,0.081,0.211,0.123
			c0.088,0.051,0.177,0.103,0.269,0.156c0.05,0.029,0.099,0.058,0.151,0.087c0.124,0.071,0.253,0.145,0.385,0.22
			c0.053,0.03,0.105,0.06,0.16,0.091c0.138,0.078,0.28,0.158,0.426,0.24c0.054,0.03,0.108,0.06,0.163,0.091
			c0.153,0.085,0.308,0.172,0.469,0.26c0.051,0.028,0.104,0.057,0.155,0.085c0.153,0.084,0.31,0.17,0.47,0.256
			c0.05,0.027,0.099,0.053,0.149,0.08c0.17,0.092,0.343,0.185,0.52,0.279c0.05,0.027,0.099,0.053,0.149,0.079
			c0.192,0.102,0.388,0.205,0.588,0.31c0.055,0.029,0.11,0.058,0.166,0.087c0.204,0.106,0.412,0.213,0.623,0.322
			c0.053,0.027,0.107,0.055,0.162,0.083c0.221,0.113,0.445,0.227,0.674,0.341c0.039,0.02,0.079,0.04,0.119,0.06
			c0.225,0.113,0.453,0.226,0.686,0.341c0.031,0.015,0.061,0.031,0.093,0.046c0.246,0.121,0.498,0.243,0.752,0.366
			c0.051,0.025,0.103,0.05,0.154,0.074c0.249,0.12,0.503,0.24,0.76,0.361c0.057,0.027,0.114,0.054,0.172,0.081
			c0.261,0.122,0.525,0.245,0.793,0.368c0.051,0.023,0.101,0.046,0.152,0.07c0.281,0.129,0.566,0.257,0.855,0.387
			c0.024,0.011,0.048,0.022,0.072,0.032c0.283,0.126,0.571,0.253,0.861,0.38c0.039,0.017,0.078,0.034,0.117,0.051
			c0.294,0.128,0.593,0.256,0.895,0.384c0.054,0.023,0.109,0.046,0.163,0.069c0.298,0.126,0.6,0.251,0.905,0.377
			c0.056,0.023,0.113,0.046,0.17,0.07c0.311,0.127,0.625,0.254,0.943,0.38c0.043,0.017,0.086,0.034,0.129,0.051
			c0.335,0.133,0.673,0.265,1.016,0.396c0.001,0,0.002,0.001,0.003,0.001c0.343,0.132,0.69,0.262,1.039,0.392
			c0.044,0.016,0.087,0.033,0.131,0.049c0.334,0.123,0.671,0.246,1.01,0.367c0.058,0.021,0.116,0.042,0.175,0.062
			c0.337,0.12,0.677,0.238,1.02,0.356c0.055,0.019,0.111,0.038,0.167,0.057c0.353,0.12,0.708,0.239,1.067,0.356
			c0.03,0.01,0.061,0.019,0.091,0.029c0.366,0.119,0.734,0.236,1.104,0.352c0.019,0.006,0.037,0.012,0.056,0.018
			c0.369,0.115,0.741,0.227,1.116,0.338c0.052,0.015,0.104,0.031,0.156,0.046c0.363,0.107,0.728,0.211,1.094,0.314
			c0.06,0.017,0.119,0.033,0.179,0.05c0.369,0.102,0.74,0.202,1.112,0.3c0.05,0.013,0.1,0.026,0.15,0.039
			c0.389,0.101,0.779,0.2,1.172,0.296c0.011,0.003,0.022,0.005,0.033,0.008c0.396,0.096,0.793,0.19,1.193,0.28
			c0.033,0.007,0.066,0.015,0.099,0.023c0.388,0.087,0.777,0.171,1.168,0.253c0.058,0.012,0.116,0.024,0.173,0.036
			c0.384,0.079,0.769,0.155,1.155,0.228c0.06,0.011,0.119,0.022,0.179,0.033c0.392,0.073,0.785,0.143,1.18,0.209
			c0.042,0.007,0.085,0.014,0.127,0.021c0.825,0.137,1.656,0.258,2.49,0.363c0.046,0.006,0.091,0.012,0.136,0.017
			c0.398,0.049,0.796,0.094,1.195,0.135c0.061,0.006,0.123,0.013,0.184,0.019c0.396,0.04,0.792,0.076,1.189,0.107
			c0.058,0.005,0.116,0.009,0.174,0.013c0.407,0.031,0.815,0.059,1.223,0.081c0.029,0.002,0.059,0.003,0.088,0.004
			c0.418,0.022,0.836,0.04,1.255,0.052c0.017,0,0.034,0.001,0.051,0.002c0.413,0.012,0.827,0.018,1.241,0.02
			c0.054,0,0.109,0.001,0.163,0.001c0.399,0.001,0.799-0.004,1.198-0.013c0.063-0.001,0.127-0.003,0.19-0.005
			c0.4-0.011,0.801-0.026,1.201-0.047c0.052-0.003,0.105-0.006,0.157-0.009c0.416-0.023,0.831-0.051,1.247-0.085
			c0.012-0.001,0.024-0.002,0.036-0.003c0.418-0.035,0.835-0.077,1.252-0.124c0.034-0.004,0.068-0.007,0.102-0.011
			c0.405-0.047,0.809-0.1,1.213-0.158c0.059-0.009,0.118-0.017,0.177-0.026c0.395-0.059,0.788-0.123,1.182-0.194
			c0.062-0.011,0.123-0.023,0.185-0.034c0.398-0.073,0.795-0.152,1.191-0.237c0.043-0.009,0.085-0.019,0.128-0.029
			c0.829-0.182,1.653-0.391,2.471-0.629c0.045-0.013,0.09-0.025,0.135-0.039c0.389-0.115,0.777-0.237,1.164-0.366
			c0.061-0.02,0.121-0.04,0.182-0.061c0.382-0.129,0.763-0.265,1.143-0.408c0.056-0.021,0.112-0.043,0.168-0.064
			c0.389-0.149,0.776-0.303,1.161-0.466c0.029-0.012,0.058-0.025,0.087-0.038c0.393-0.168,0.783-0.342,1.172-0.526
			c0.017-0.008,0.035-0.016,0.053-0.024c0.385-0.182,0.767-0.374,1.148-0.572c0.051-0.026,0.102-0.052,0.153-0.079
			c0.367-0.194,0.733-0.395,1.096-0.604c0.058-0.033,0.116-0.067,0.174-0.101c0.363-0.212,0.724-0.43,1.082-0.657
			c0.018-0.012,0.037-0.022,0.055-0.033c0.032-0.02,0.062-0.042,0.094-0.062c0.713-0.457,1.417-0.946,2.111-1.468
			c0.051-0.039,0.103-0.077,0.155-0.116c0.331-0.252,0.659-0.512,0.985-0.779c0.058-0.048,0.116-0.096,0.174-0.144
			c0.329-0.274,0.657-0.553,0.981-0.843c0.033-0.029,0.064-0.059,0.097-0.088c0.316-0.284,0.629-0.577,0.94-0.877
			c0.035-0.033,0.07-0.066,0.105-0.1c0.315-0.306,0.626-0.623,0.935-0.945c0.058-0.06,0.116-0.121,0.174-0.182
			C418.152,79.977,418.453,79.647,418.751,79.31z"/>
	</g>
	<g>
		<g>
			<g>
				<g>
					<g>
						
							<linearGradient id="SVGID_1_" gradientUnits="userSpaceOnUse" x1="-720.4341" y1="-12.2739" x2="-678.8777" y2="-52.9786" gradientTransform="matrix(-0.949 -0.3152 0.3152 -0.949 -325.3311 -167.8637)">
							<stop  offset="0" style="stop-color:#6B69BE"/>
							<stop  offset="1" style="stop-color:#9C98DD"/>
						</linearGradient>
						<path class="st4" d="M329.941,96.055c0,0-9.668-14.58,14.915-44.917c0,0-36.152,23.824-32.995,64.986
							C310.312,107.567,315.491,101.556,329.941,96.055z"/>
					</g>
					<g>
						
							<linearGradient id="SVGID_2_" gradientUnits="userSpaceOnUse" x1="376.1406" y1="-90.7393" x2="324.5026" y2="-141.3189" gradientTransform="matrix(0.8986 -0.4388 -0.4388 -0.8986 -39.5345 132.3124)">
							<stop  offset="0" style="stop-color:#FFFFFF"/>
							<stop  offset="1" style="stop-color:#9C98DD"/>
						</linearGradient>
						<path class="st5" d="M343.835,52.099c-6.848,8.643-14.805,21.017-15.849,32.856c-0.575,6.525,1.17,10.124,1.668,11.001
							c-2.123,0.814-4.065,1.65-5.774,2.484c-6.862,3.352-10.737,7.028-12.007,11.444c0.146-8.071,1.806-16.018,4.944-23.652
							c2.722-6.623,6.557-13.028,11.398-19.036C334.684,59.165,341.261,53.985,343.835,52.099 M344.856,51.137
							c0,0-33.702,22.206-33.184,60.786c0.567-5.229,4.404-9.455,12.293-13.308c1.782-0.87,3.772-1.722,5.976-2.561
							C329.941,96.055,320.274,81.474,344.856,51.137L344.856,51.137z M311.672,111.924c-0.144,1.332-0.077,2.728,0.19,4.199
							C311.753,114.704,311.691,113.302,311.672,111.924L311.672,111.924z"/>
					</g>
				</g>
			</g>
			<g>
				<g>
					
						<linearGradient id="SVGID_3_" gradientUnits="userSpaceOnUse" x1="371.5691" y1="-183.3324" x2="325.8047" y2="-128.9207" gradientTransform="matrix(0.8984 -0.44 0.4392 0.9019 79.9126 377.0487)">
						<stop  offset="0" style="stop-color:#9C98DD"/>
						<stop  offset="0.5794" style="stop-color:#817ECC"/>
						<stop  offset="1" style="stop-color:#6B69BE"/>
					</linearGradient>
					<path class="st6" d="M325.485,100.962c0,0-6.176-23.156,19.371-49.825c0,0-49.304,29.22-32.783,65.299
						C312.074,116.436,311.052,106.52,325.485,100.962z"/>
					
						<linearGradient id="SVGID_4_" gradientUnits="userSpaceOnUse" x1="381.023" y1="-117.8695" x2="322.9128" y2="-117.8695" gradientTransform="matrix(0.8986 -0.4388 -0.4388 -0.8986 -39.5345 132.3124)">
						<stop  offset="0" style="stop-color:#9C98DD"/>
						<stop  offset="0.1951" style="stop-color:#B6B3E6"/>
						<stop  offset="0.6122" style="stop-color:#F8F7FD"/>
						<stop  offset="0.6558" style="stop-color:#FFFFFF"/>
					</linearGradient>
					<path class="st7" d="M343.664,52.116c-12.425,13.387-16.798,25.774-18.267,33.9c-0.856,4.732-0.839,8.553-0.674,10.925
						c0.146,2.103,0.424,3.446,0.53,3.901c-0.886,0.346-1.742,0.72-2.546,1.112c-3.34,1.631-7.753,4.582-9.808,9.378
						c-0.758,1.77-0.974,3.265-1.025,4.175c-3.41-7.923-3.903-16.139-1.463-24.435c2.025-6.884,6.062-13.842,11.999-20.68
						C330.609,60.951,340.235,54.331,343.664,52.116 M344.856,51.137c0,0-49.304,29.22-32.783,65.299c0,0-0.889-8.636,10.721-14.306
						c0.831-0.406,1.726-0.796,2.691-1.168C325.485,100.962,319.308,77.806,344.856,51.137L344.856,51.137z"/>
				</g>
			</g>
		</g>
		<g>
			<g>
				<g>
					
						<linearGradient id="SVGID_5_" gradientUnits="userSpaceOnUse" x1="388.6234" y1="-208.1739" x2="404.5359" y2="-208.1739" gradientTransform="matrix(0.5796 -0.8148 0.8148 0.5796 283.4163 472.9034)">
						<stop  offset="0" style="stop-color:#10677E"/>
						<stop  offset="1" style="stop-color:#4BA7B5"/>
					</linearGradient>
					<path class="st8" d="M329.841,29.05c0,0,16.774-4.969,38.571,27.428c0,0-12.178-41.548-52.457-50.597
						C324.589,6.908,328.818,13.622,329.841,29.05z"/>
				</g>
				<g>
					
						<linearGradient id="SVGID_6_" gradientUnits="userSpaceOnUse" x1="385.4712" y1="-69.1901" x2="402.3505" y2="-69.0168" gradientTransform="matrix(0.5712 -0.8208 -0.8208 -0.5712 61.749 313.1384)">
						<stop  offset="0" style="stop-color:#4BA7B5"/>
						<stop  offset="0.1796" style="stop-color:#66B4C0"/>
						<stop  offset="0.5664" style="stop-color:#ABD6DD"/>
						<stop  offset="0.9982" style="stop-color:#FFFFFF"/>
					</linearGradient>
					<path class="st9" d="M321.921,7.722c7.672,2.506,14.782,6.423,21.16,11.66c5.534,4.545,10.533,10.088,14.858,16.478
						c5.781,8.54,8.805,16.346,9.853,19.36c-6.255-9.081-15.753-20.317-26.766-24.785c-6.07-2.463-10.023-1.849-11.006-1.63
						C329.241,17.482,326.714,10.842,321.921,7.722 M315.955,5.881c1.389,0.312,2.748,0.664,4.07,1.05
						C318.795,6.402,317.44,6.058,315.955,5.881L315.955,5.881z M320.025,6.931c5.924,2.544,8.969,9.344,9.816,22.119
						c0,0,16.774-4.969,38.571,27.428C368.412,56.478,357.063,17.747,320.025,6.931L320.025,6.931z"/>
				</g>
			</g>
			<g>
				
					<linearGradient id="SVGID_7_" gradientUnits="userSpaceOnUse" x1="385.8649" y1="-202.8695" x2="406.9255" y2="-202.8695" gradientTransform="matrix(0.5712 -0.8208 0.8208 0.5712 284.9959 468.528)">
					<stop  offset="0" style="stop-color:#4BA7B5"/>
					<stop  offset="0.4567" style="stop-color:#328C9E"/>
					<stop  offset="1" style="stop-color:#10677E"/>
				</linearGradient>
				<path class="st10" d="M326.764,23.204c0,0,23.862,0.97,41.649,33.274c0,0-13.161-55.745-52.387-50.669
					C316.025,5.809,325.762,7.775,326.764,23.204z"/>
				
					<linearGradient id="SVGID_8_" gradientUnits="userSpaceOnUse" x1="407.8889" y1="-37.73" x2="379.4873" y2="-102.313" gradientTransform="matrix(0.5712 -0.8208 -0.8208 -0.5712 61.749 313.1384)">
					<stop  offset="0" style="stop-color:#4BA7B5"/>
					<stop  offset="0.1796" style="stop-color:#66B4C0"/>
					<stop  offset="0.5664" style="stop-color:#ABD6DD"/>
					<stop  offset="0.9982" style="stop-color:#FFFFFF"/>
				</linearGradient>
				<path class="st11" d="M316.968,5.895c8.549-0.906,16.511,1.06,23.678,5.85c5.948,3.975,11.369,9.893,16.111,17.59
					c6.547,10.625,9.987,21.777,11.076,25.711c-9.046-15.831-19.532-23.68-26.824-27.492c-7.361-3.848-13.01-4.451-14.062-4.533
					c-0.309-4.42-1.572-10.45-5.794-14.442C319.505,7.021,317.92,6.252,316.968,5.895 M316.025,5.809c0,0,9.737,1.966,10.739,17.395
					c0,0,23.862,0.97,41.649,33.274C368.412,56.478,355.252,0.733,316.025,5.809L316.025,5.809z"/>
			</g>
		</g>
		<g>
			<g>
				
					<linearGradient id="SVGID_9_" gradientUnits="userSpaceOnUse" x1="500.3182" y1="-336.8869" x2="561.4791" y2="-336.8869" gradientTransform="matrix(0.8608 -0.509 0.509 0.8608 97.31 638.6181)">
					<stop  offset="0" style="stop-color:#64B946"/>
					<stop  offset="1" style="stop-color:#A7DE8A"/>
				</linearGradient>
				<path class="st12" d="M393.461,71.772c0,0-9.24,14.855-47.052,5.113c0,0,36.699,22.973,72.821,2.986
					C412.093,84.838,404.473,82.627,393.461,71.772z"/>
				
					<linearGradient id="SVGID_10_" gradientUnits="userSpaceOnUse" x1="500.3331" y1="64.9017" x2="561.4946" y2="64.9017" gradientTransform="matrix(0.8608 -0.509 -0.509 -0.8608 -41.1436 404.5006)">
					<stop  offset="0" style="stop-color:#A7DE8A"/>
					<stop  offset="1" style="stop-color:#FFFFFF"/>
				</linearGradient>
				<path class="st13" d="M347.712,77.415c22.555,5.566,34.786,2.347,41.101-1.387c2.898-1.714,4.267-3.386,4.678-3.953
					c8.103,7.948,14.4,11.232,20.056,10.382c-7.4,3.221-15.315,5.014-23.561,5.334c-7.155,0.278-14.575-0.547-22.051-2.45
					C357.943,82.797,350.498,78.972,347.712,77.415 M346.409,76.885c0,0,34.21,21.411,69.08,4.904
					c-6.119,2.032-12.911-1.029-22.028-10.017c0,0-1.259,2.024-4.749,4.088C382.748,79.387,370.266,83.031,346.409,76.885
					L346.409,76.885z M415.49,81.789c0.905-0.301,1.796-0.713,2.677-1.234c0.356-0.21,0.711-0.439,1.064-0.684
					C417.982,80.561,416.737,81.199,415.49,81.789L415.49,81.789z"/>
			</g>
			<g>
				
					<linearGradient id="SVGID_11_" gradientUnits="userSpaceOnUse" x1="500.3186" y1="-335.939" x2="561.4796" y2="-335.939" gradientTransform="matrix(0.8608 -0.509 0.509 0.8608 97.31 638.6181)">
					<stop  offset="0" style="stop-color:#A7DE8A"/>
					<stop  offset="1" style="stop-color:#64B946"/>
				</linearGradient>
				<path class="st14" d="M399.641,74.025c0,0-18.462,15.149-53.231,2.859c0,0,46.908,32.869,72.821,2.986
					C419.231,79.87,410.652,84.88,399.641,74.025z"/>
				
					<linearGradient id="SVGID_12_" gradientUnits="userSpaceOnUse" x1="500.3331" y1="63.9536" x2="561.4946" y2="63.9536" gradientTransform="matrix(0.8608 -0.509 -0.509 -0.8608 -41.1436 404.5006)">
					<stop  offset="0" style="stop-color:#A7DE8A"/>
					<stop  offset="1" style="stop-color:#FFFFFF"/>
				</linearGradient>
				<path class="st15" d="M347.794,77.569c26.744,8.989,43.578,1.751,49.641-1.834c1.177-0.696,1.905-1.23,2.192-1.449
					c3.171,3.095,8.125,6.756,13.933,6.928c2.267,0.067,3.961-0.413,4.91-0.78c-2.5,2.751-5.293,5.048-8.314,6.835
					c-6.001,3.549-13.075,5.205-21.026,4.925c-6.371-0.225-13.316-1.687-20.643-4.346C358.667,84.284,350.767,79.487,347.794,77.569
					 M346.409,76.885c0,0,37.388,26.198,63.845,10.552c3.178-1.879,6.198-4.362,8.977-7.567c0,0-8.578,5.009-19.59-5.845
					c0,0-0.775,0.636-2.306,1.541C391.393,79.08,374.057,86.657,346.409,76.885L346.409,76.885z"/>
			</g>
		</g>
	</g>
</g>
<circle class="st16" cx="354.365" cy="63.167" r="15.196"/>
<g>
	<path class="st2" d="M345.836,60.959c0.396-0.486,0.903-0.722,1.55-0.722c0.642,0,1.143,0.157,1.491,0.468
		c0.348,0.31,0.56,0.781,0.631,1.4l0.029,0.256h0.258h0.28h0.317l-0.03-0.316c-0.079-0.845-0.384-1.508-0.904-1.97
		c-0.519-0.461-1.216-0.694-2.072-0.694c-0.594,0-1.129,0.156-1.592,0.463c-0.461,0.306-0.819,0.742-1.065,1.296
		c-0.24,0.54-0.361,1.159-0.361,1.839v1.165c0.003,0.681,0.129,1.297,0.373,1.831c0.25,0.547,0.608,0.977,1.065,1.277
		c0.458,0.301,0.99,0.454,1.58,0.454c0.864,0,1.563-0.235,2.078-0.698c0.516-0.464,0.818-1.13,0.897-1.977l0.03-0.316l-0.317,0
		l-0.28,0l-0.261,0l-0.027,0.26c-0.064,0.633-0.273,1.108-0.62,1.412c-0.35,0.306-0.855,0.462-1.5,0.462
		c-0.428,0-0.796-0.109-1.124-0.333c-0.327-0.223-0.583-0.541-0.76-0.946c-0.183-0.418-0.276-0.91-0.276-1.461v-1.108
		C345.225,62.142,345.431,61.456,345.836,60.959z"/>
	<path class="st2" d="M354.85,61.706c-0.418-0.259-0.894-0.39-1.416-0.39c-0.527,0-1.007,0.135-1.426,0.402
		c-0.419,0.267-0.747,0.642-0.975,1.116c-0.223,0.464-0.337,0.991-0.337,1.567v0.249c0.003,0.571,0.12,1.093,0.345,1.554
		c0.23,0.471,0.56,0.842,0.979,1.104c0.419,0.263,0.898,0.396,1.425,0.396c0.527,0,1.007-0.136,1.427-0.403
		c0.419-0.266,0.746-0.641,0.973-1.113c0.221-0.463,0.333-0.991,0.333-1.57V64.37c-0.003-0.575-0.12-1.1-0.348-1.562
		C355.597,62.336,355.268,61.965,354.85,61.706z M355.32,64.401v0.161c0,0.693-0.175,1.238-0.535,1.669
		c-0.348,0.415-0.786,0.616-1.34,0.616c-0.37,0-0.689-0.091-0.973-0.279c-0.287-0.19-0.506-0.449-0.67-0.792
		c-0.165-0.347-0.249-0.737-0.249-1.158l0-0.165c0-0.676,0.176-1.217,0.539-1.655c0.349-0.421,0.788-0.626,1.341-0.626
		c0.362,0,0.677,0.092,0.962,0.281c0.284,0.189,0.51,0.458,0.673,0.798C355.236,63.601,355.32,63.988,355.32,64.401z"/>
	<path class="st2" d="M359.249,61.316c-0.491,0-0.944,0.145-1.348,0.431c-0.127,0.09-0.244,0.19-0.352,0.301v-0.34V61.42h-0.289
		h-0.28h-0.289v0.289v5.604v0.289h0.289h0.28h0.289v-0.289V63.76c0.113-0.47,0.325-0.858,0.63-1.153
		c0.301-0.291,0.645-0.433,1.055-0.433c0.439,0,0.743,0.108,0.928,0.329c0.196,0.234,0.297,0.62,0.3,1.148v3.661v0.289h0.289h0.28
		h0.289v-0.289v-3.656c-0.004-0.756-0.176-1.337-0.512-1.729C360.459,61.521,359.935,61.316,359.249,61.316z"/>
	<path class="st2" d="M365.626,64.447c-0.294-0.158-0.677-0.291-1.169-0.405c-0.441-0.102-0.776-0.207-0.997-0.313
		c-0.199-0.095-0.339-0.196-0.416-0.3c-0.069-0.092-0.103-0.233-0.103-0.42c0-0.23,0.1-0.412,0.314-0.571
		c0.234-0.175,0.568-0.264,0.993-0.264c0.442,0,0.8,0.106,1.063,0.315c0.247,0.196,0.367,0.431,0.367,0.717v0.289h0.289h0.284h0.289
		v-0.289c0-0.581-0.222-1.05-0.659-1.395c-0.417-0.328-0.966-0.494-1.634-0.494c-0.618,0-1.133,0.154-1.53,0.458
		c-0.421,0.322-0.634,0.741-0.634,1.245c0,0.494,0.172,0.891,0.51,1.181c0.313,0.267,0.831,0.475,1.583,0.635
		c1.511,0.319,1.511,0.911,1.511,1.106c0,0.24-0.112,0.436-0.352,0.614c-0.26,0.194-0.612,0.292-1.047,0.292
		c-0.484,0-0.865-0.094-1.134-0.278c-0.249-0.171-0.374-0.393-0.396-0.701l-0.019-0.269h-0.27h-0.28h-0.289v0.289
		c0,0.544,0.234,0.992,0.695,1.333c0.433,0.321,1.003,0.484,1.692,0.484c0.648,0,1.185-0.155,1.596-0.461
		c0.438-0.325,0.66-0.762,0.66-1.299c0-0.339-0.075-0.634-0.224-0.878C366.173,64.824,365.939,64.615,365.626,64.447z"/>
	<path class="st2" d="M371.288,61.42h-0.289v0.289v3.941c-0.072,0.364-0.244,0.669-0.522,0.877c-0.282,0.212-0.663,0.32-1.131,0.32
		c-0.42,0-0.724-0.117-0.93-0.357c-0.216-0.252-0.329-0.643-0.335-1.164l0-3.617V61.42h-0.289h-0.28h-0.289v0.289v3.61
		c0.008,0.753,0.189,1.341,0.538,1.749c0.361,0.423,0.898,0.637,1.595,0.637c0.535,0,0.989-0.104,1.35-0.31
		c0.105-0.06,0.202-0.126,0.293-0.198v0.115V67.6l0.289,0l0.285,0l0.289,0v-0.289v-5.604V61.42h-0.289H371.288z"/>
	<polygon class="st2" points="373.141,59.068 372.852,59.068 372.852,59.357 372.852,67.312 372.852,67.601 373.141,67.601 
		373.421,67.601 373.71,67.601 373.71,67.312 373.71,59.357 373.71,59.068 373.421,59.068 	"/>
	<path class="st2" d="M377.304,67.039l-0.049-0.275l-0.277,0.04c-0.202,0.029-0.375,0.044-0.513,0.044
		c-0.303,0-0.384-0.119-0.411-0.159c-0.066-0.097-0.144-0.299-0.144-0.719v-3.692h0.985h0.289v-0.289v-0.28v-0.289h-0.289h-0.985
		v-1.223v-0.289l-0.289,0h-0.285h-0.289v0.289v1.223H374.3h-0.289v0.289v0.28v0.289h0.289h0.747v3.729
		c0.004,0.56,0.112,0.968,0.33,1.248c0.233,0.299,0.604,0.451,1.103,0.451c0.318,0,0.535-0.025,0.684-0.079l0.228-0.083
		l-0.042-0.239L377.304,67.039z"/>
	<path class="st2" d="M378.293,59.379c-0.158,0-0.3,0.06-0.41,0.174c-0.107,0.109-0.164,0.25-0.164,0.405
		c0,0.157,0.058,0.298,0.168,0.407c0.108,0.109,0.249,0.167,0.405,0.167c0.155,0,0.295-0.057,0.406-0.164
		c0.113-0.11,0.173-0.252,0.173-0.409c0-0.156-0.059-0.298-0.17-0.409C378.59,59.437,378.449,59.379,378.293,59.379z"/>
	<polygon class="st2" points="378.153,61.419 377.864,61.419 377.864,61.708 377.864,67.312 377.864,67.601 378.153,67.601 
		378.433,67.601 378.721,67.601 378.721,67.312 378.721,61.708 378.721,61.419 378.433,61.419 	"/>
	<path class="st2" d="M382.274,61.316c-0.491,0-0.944,0.145-1.348,0.431c-0.127,0.09-0.244,0.19-0.352,0.301v-0.34V61.42h-0.289
		h-0.28h-0.289v0.289v5.604v0.289h0.289h0.28h0.289v-0.289V63.76c0.113-0.47,0.325-0.858,0.63-1.153
		c0.301-0.291,0.646-0.433,1.055-0.433c0.439,0,0.743,0.108,0.928,0.329c0.196,0.234,0.297,0.62,0.3,1.148v3.661v0.289h0.289h0.28
		h0.289v-0.289v-3.656c-0.004-0.756-0.176-1.337-0.512-1.729C383.484,61.521,382.96,61.316,382.274,61.316z"/>
	<path class="st2" d="M389.29,61.419h-0.289v0.289v0.187c-0.107-0.095-0.223-0.18-0.346-0.252c-0.369-0.217-0.793-0.328-1.26-0.328
		c-0.749,0-1.348,0.292-1.78,0.869c-0.413,0.551-0.622,1.314-0.622,2.268l0,0.074c0,0.955,0.209,1.725,0.62,2.288
		c0.432,0.59,1.028,0.89,1.771,0.89c0.463,0,0.885-0.097,1.254-0.289c0.13-0.067,0.251-0.145,0.363-0.233v0.102
		c-0.009,0.557-0.151,0.991-0.421,1.286c-0.266,0.29-0.637,0.431-1.133,0.431c-0.296,0-0.555-0.061-0.769-0.182
		c-0.225-0.127-0.437-0.316-0.63-0.56l-0.196-0.249l-0.23,0.218l-0.197,0.187l-0.184,0.174l0.149,0.205
		c0.247,0.339,0.55,0.604,0.901,0.787c0.353,0.184,0.745,0.277,1.167,0.277c0.734,0,1.327-0.242,1.762-0.718
		c0.428-0.469,0.645-1.117,0.645-1.927v-5.505v-0.289h-0.289H389.29z M389.001,63.385v2.447c-0.119,0.317-0.307,0.557-0.575,0.734
		c-0.282,0.186-0.634,0.281-1.047,0.281c-0.477,0-0.836-0.184-1.099-0.562c-0.282-0.406-0.425-0.986-0.425-1.723
		c0-0.815,0.143-1.432,0.426-1.833c0.264-0.374,0.626-0.556,1.108-0.556C388.217,62.173,388.73,62.558,389.001,63.385z"/>
	<path class="st2" d="M397.762,63.831c-0.414-0.304-1.034-0.561-1.896-0.785c-0.776-0.201-1.333-0.431-1.656-0.681
		c-0.284-0.22-0.422-0.503-0.422-0.865c0-0.35,0.162-0.637,0.494-0.877c0.357-0.257,0.841-0.388,1.439-0.388
		c0.592,0,1.056,0.157,1.419,0.479c0.353,0.313,0.524,0.699,0.524,1.18v0.289h0.289h0.28h0.289v-0.289
		c0-0.48-0.121-0.919-0.359-1.304c-0.24-0.386-0.58-0.689-1.012-0.9c-0.424-0.207-0.905-0.311-1.429-0.311
		c-0.801,0-1.467,0.19-1.978,0.566c-0.539,0.396-0.812,0.923-0.812,1.567c0,0.399,0.091,0.746,0.272,1.034
		c0.177,0.282,0.453,0.529,0.821,0.736c0.35,0.196,0.851,0.383,1.533,0.57c0.629,0.173,1.101,0.342,1.405,0.503
		c0.279,0.148,0.482,0.315,0.605,0.496c0.118,0.176,0.176,0.39,0.176,0.654c0,0.387-0.17,0.695-0.519,0.942
		c-0.376,0.265-0.869,0.4-1.465,0.4c-0.675,0-1.226-0.154-1.636-0.456c-0.388-0.286-0.577-0.681-0.577-1.207v-0.289h-0.289h-0.28
		h-0.289v0.289c0,0.511,0.127,0.963,0.376,1.344c0.251,0.383,0.625,0.68,1.112,0.883c0.468,0.195,1,0.294,1.582,0.294
		c0.525,0,1.007-0.087,1.434-0.259c0.443-0.179,0.791-0.439,1.036-0.773c0.25-0.34,0.377-0.737,0.377-1.178
		C398.605,64.802,398.321,64.243,397.762,63.831z"/>
	<path class="st2" d="M401.287,61.316c-0.484,0-0.937,0.138-1.346,0.411c-0.405,0.27-0.726,0.649-0.955,1.126
		c-0.225,0.469-0.339,0.99-0.339,1.549v0.233c0,0.562,0.118,1.081,0.352,1.544c0.237,0.469,0.57,0.844,0.99,1.115
		c0.423,0.273,0.895,0.411,1.402,0.411c0.918,0,1.624-0.347,2.097-1.03l0.163-0.235l-0.233-0.165l-0.197-0.14l-0.225-0.16
		l-0.17,0.217c-0.175,0.224-0.377,0.391-0.598,0.496c-0.224,0.106-0.506,0.16-0.837,0.16c-0.339,0-0.646-0.093-0.937-0.283
		c-0.296-0.194-0.522-0.455-0.692-0.799c-0.171-0.346-0.257-0.728-0.257-1.136v-0.016h3.911h0.289v-0.289v-0.295
		c0-0.794-0.225-1.45-0.669-1.948C402.583,61.573,401.995,61.316,401.287,61.316z M399.568,63.755
		c0.09-0.423,0.269-0.773,0.542-1.065c0.326-0.348,0.711-0.517,1.177-0.517c0.295,0,0.553,0.074,0.789,0.226
		c0.238,0.154,0.422,0.365,0.56,0.646c0.109,0.221,0.176,0.459,0.201,0.71H399.568z"/>
	<path class="st2" d="M411.493,61.419h-0.197l-0.072,0.184l-1.745,4.469l-1.745-4.469l-0.072-0.184h-0.197h-0.3h-0.033l-0.07-0.027
		c-0.135-0.052-0.298-0.077-0.497-0.077c-0.521,0-0.965,0.134-1.318,0.4c-0.078,0.059-0.152,0.122-0.221,0.19v-0.197v-0.289h-0.289
		h-0.28h-0.289v0.289v5.604v0.289h0.289h0.28h0.289v-0.289v-3.669c0.084-0.44,0.268-0.824,0.543-1.088
		c0.268-0.257,0.594-0.382,0.996-0.382l0.338,0.03l0.149,0.013l2.019,5.201l0.072,0.184h0.198h0.274h0.198l0.072-0.184l2.181-5.604
		l0.153-0.394h-0.422H411.493z"/>
	<path class="st2" d="M412.839,59.379c-0.158,0-0.3,0.06-0.41,0.174c-0.107,0.109-0.164,0.25-0.164,0.405
		c0,0.157,0.058,0.298,0.168,0.407c0.108,0.109,0.249,0.167,0.406,0.167c0.155,0,0.295-0.057,0.406-0.164
		c0.113-0.11,0.173-0.252,0.173-0.409c0-0.156-0.059-0.298-0.17-0.409C413.136,59.437,412.995,59.379,412.839,59.379z"/>
	<polygon class="st2" points="412.699,61.419 412.41,61.419 412.41,61.708 412.41,67.312 412.41,67.601 412.699,67.601 
		412.979,67.601 413.268,67.601 413.268,67.312 413.268,61.708 413.268,61.419 412.979,61.419 	"/>
	<path class="st2" d="M418.249,65.324h-0.271l-0.018,0.27c-0.026,0.396-0.168,0.695-0.436,0.914
		c-0.279,0.228-0.63,0.339-1.073,0.339c-0.537,0-0.945-0.184-1.247-0.562c-0.314-0.393-0.473-0.953-0.473-1.666v-0.181
		c0-0.731,0.158-1.302,0.469-1.699c0.299-0.38,0.705-0.565,1.241-0.565c0.45,0,0.804,0.125,1.08,0.381
		c0.275,0.255,0.418,0.587,0.439,1.016l0.013,0.275h0.275h0.28h0.301l-0.012-0.301c-0.027-0.667-0.266-1.212-0.709-1.62
		c-0.44-0.405-1.001-0.61-1.667-0.61c-0.782,0-1.416,0.292-1.884,0.868c-0.454,0.558-0.684,1.304-0.684,2.217v0.186
		c0,0.934,0.23,1.691,0.684,2.249c0.468,0.576,1.106,0.868,1.894,0.868c0.644,0,1.194-0.189,1.637-0.563
		c0.452-0.382,0.697-0.892,0.729-1.514l0.015-0.303h-0.304H418.249z"/>
	<path class="st2" d="M421.578,61.316c-0.484,0-0.937,0.138-1.346,0.411c-0.405,0.27-0.726,0.649-0.955,1.126
		c-0.225,0.469-0.339,0.99-0.339,1.549v0.233c0,0.562,0.118,1.081,0.352,1.544c0.237,0.469,0.57,0.844,0.99,1.115
		c0.423,0.273,0.895,0.411,1.402,0.411c0.918,0,1.624-0.347,2.097-1.03l0.163-0.235l-0.233-0.165l-0.197-0.14l-0.225-0.16
		l-0.17,0.217c-0.175,0.224-0.377,0.391-0.598,0.496c-0.224,0.106-0.506,0.16-0.837,0.16c-0.339,0-0.646-0.093-0.936-0.283
		c-0.296-0.194-0.522-0.455-0.692-0.799c-0.171-0.346-0.257-0.728-0.257-1.136v-0.016h3.911h0.289v-0.289v-0.295
		c0-0.794-0.225-1.45-0.669-1.948C422.875,61.573,422.286,61.316,421.578,61.316z M419.859,63.755
		c0.09-0.423,0.269-0.773,0.542-1.065c0.326-0.348,0.711-0.517,1.177-0.517c0.295,0,0.553,0.074,0.788,0.226
		c0.239,0.154,0.422,0.365,0.56,0.646c0.109,0.221,0.176,0.459,0.201,0.71H419.859z"/>
	<path class="st2" d="M428.547,65.066c-0.148-0.243-0.382-0.451-0.695-0.619c-0.294-0.158-0.677-0.291-1.169-0.405
		c-0.44-0.102-0.776-0.207-0.997-0.313c-0.199-0.095-0.339-0.196-0.416-0.3c-0.069-0.092-0.103-0.233-0.103-0.42
		c0-0.23,0.1-0.412,0.314-0.571c0.234-0.175,0.568-0.264,0.993-0.264c0.442,0,0.8,0.106,1.063,0.315
		c0.247,0.196,0.367,0.431,0.367,0.717v0.289h0.289h0.284h0.289v-0.289c0-0.581-0.222-1.05-0.659-1.395
		c-0.417-0.328-0.967-0.494-1.634-0.494c-0.618,0-1.133,0.154-1.53,0.458c-0.421,0.322-0.634,0.741-0.634,1.244
		c0,0.494,0.172,0.891,0.51,1.181c0.313,0.267,0.831,0.475,1.583,0.635c1.511,0.319,1.511,0.911,1.511,1.106
		c0,0.237-0.115,0.438-0.352,0.614c-0.26,0.194-0.612,0.292-1.047,0.292c-0.484,0-0.865-0.094-1.134-0.278
		c-0.249-0.171-0.374-0.393-0.396-0.701l-0.019-0.269h-0.27h-0.28h-0.289v0.289c0,0.544,0.234,0.992,0.695,1.333
		c0.433,0.321,1.003,0.484,1.692,0.484c0.648,0,1.185-0.155,1.596-0.461c0.438-0.325,0.66-0.762,0.66-1.299
		C428.771,65.605,428.695,65.31,428.547,65.066z"/>
</g>
<g>
	<path d="M350.218,64.904c-0.073,0.777-0.34,1.373-0.803,1.789c-0.463,0.416-1.091,0.624-1.885,0.624
		c-0.535,0-1.009-0.135-1.422-0.406s-0.733-0.656-0.961-1.155c-0.228-0.499-0.344-1.069-0.347-1.712v-1.165
		c0-0.642,0.112-1.216,0.337-1.722c0.224-0.506,0.544-0.897,0.961-1.173c0.416-0.276,0.894-0.414,1.432-0.414
		c0.787,0,1.414,0.207,1.88,0.621c0.466,0.414,0.735,1.008,0.808,1.782h-0.28c-0.079-0.694-0.321-1.221-0.725-1.582
		c-0.404-0.361-0.965-0.541-1.683-0.541c-0.732,0-1.323,0.276-1.774,0.829c-0.45,0.552-0.676,1.293-0.676,2.222v1.108
		c0,0.594,0.1,1.119,0.301,1.577c0.2,0.458,0.487,0.814,0.862,1.069c0.375,0.255,0.804,0.383,1.287,0.383
		c0.721,0,1.285-0.178,1.691-0.534c0.406-0.356,0.645-0.889,0.717-1.6L350.218,64.904L350.218,64.904z"/>
	<path d="M351.129,64.303c0-0.535,0.103-1.016,0.308-1.442s0.496-0.759,0.87-0.997c0.375-0.238,0.799-0.357,1.271-0.357
		c0.47,0,0.891,0.116,1.264,0.347c0.373,0.231,0.664,0.559,0.873,0.984c0.209,0.424,0.315,0.903,0.318,1.434v0.249
		c0,0.539-0.102,1.02-0.305,1.445c-0.204,0.424-0.494,0.756-0.868,0.994c-0.374,0.238-0.798,0.357-1.271,0.357
		c-0.474,0-0.897-0.117-1.272-0.352c-0.375-0.235-0.665-0.564-0.873-0.987c-0.207-0.423-0.313-0.898-0.316-1.427V64.303z
		 M351.409,64.52c0,0.466,0.092,0.894,0.277,1.282c0.185,0.388,0.442,0.691,0.772,0.909c0.33,0.218,0.707,0.326,1.132,0.326
		c0.639,0,1.159-0.24,1.562-0.72c0.402-0.48,0.603-1.098,0.603-1.854v-0.161c0-0.459-0.093-0.884-0.28-1.274
		c-0.186-0.39-0.445-0.695-0.774-0.914c-0.33-0.219-0.704-0.329-1.121-0.329c-0.639,0-1.16,0.243-1.564,0.73
		c-0.404,0.487-0.606,1.1-0.606,1.839L351.409,64.52L351.409,64.52z"/>
	<path d="M357.405,62.915c0.183-0.435,0.452-0.778,0.808-1.031c0.356-0.252,0.749-0.378,1.181-0.378c0.601,0,1.047,0.17,1.339,0.51
		c0.292,0.34,0.439,0.854,0.443,1.541v3.656h-0.28V63.55c-0.004-0.6-0.126-1.044-0.368-1.332c-0.242-0.288-0.625-0.432-1.15-0.432
		c-0.483,0-0.902,0.172-1.256,0.515c-0.354,0.343-0.593,0.786-0.717,1.327v3.586h-0.28V61.61h0.28L357.405,62.915L357.405,62.915z"
		/>
	<path d="M366.12,65.841c0-0.68-0.58-1.143-1.74-1.388c-0.698-0.148-1.183-0.339-1.455-0.572c-0.273-0.233-0.409-0.553-0.409-0.961
		c0-0.411,0.173-0.749,0.521-1.015c0.347-0.266,0.798-0.399,1.354-0.399c0.604,0,1.089,0.144,1.455,0.432
		c0.366,0.288,0.549,0.678,0.549,1.168h-0.284c0-0.376-0.159-0.691-0.477-0.943c-0.317-0.252-0.732-0.378-1.243-0.378
		c-0.49,0-0.878,0.107-1.165,0.321c-0.286,0.214-0.43,0.482-0.43,0.803c0,0.252,0.053,0.45,0.161,0.593
		c0.107,0.144,0.282,0.273,0.523,0.388c0.241,0.116,0.594,0.227,1.056,0.334c0.463,0.107,0.829,0.233,1.098,0.378
		c0.269,0.145,0.464,0.317,0.585,0.515c0.121,0.199,0.181,0.441,0.181,0.728c0,0.442-0.181,0.798-0.544,1.067
		c-0.363,0.269-0.837,0.404-1.424,0.404c-0.629,0-1.135-0.142-1.52-0.427c-0.385-0.285-0.578-0.652-0.578-1.1h0.28
		c0.027,0.394,0.201,0.7,0.52,0.919c0.319,0.219,0.752,0.329,1.297,0.329c0.5,0,0.907-0.116,1.22-0.349
		C365.964,66.455,366.12,66.172,366.12,65.841z"/>
	<path d="M371.432,67.213v-0.906c-0.166,0.311-0.407,0.557-0.725,0.738s-0.72,0.272-1.207,0.272c-0.611,0-1.07-0.179-1.375-0.536
		c-0.306-0.357-0.462-0.878-0.469-1.562v-3.61h0.28v3.62c0.007,0.594,0.142,1.044,0.404,1.349c0.262,0.306,0.645,0.458,1.15,0.458
		c0.535,0,0.97-0.126,1.305-0.378c0.335-0.252,0.547-0.621,0.637-1.108V61.61h0.285v5.604L371.432,67.213L371.432,67.213z"/>
	<path d="M373.566,67.213h-0.28v-7.955h0.28V67.213z"/>
	<path d="M375.765,60.097v1.512h1.274v0.28h-1.274v3.981c0,0.397,0.065,0.691,0.194,0.881c0.129,0.19,0.346,0.285,0.65,0.285
		c0.152,0,0.337-0.015,0.554-0.047l0.047,0.264c-0.114,0.042-0.309,0.062-0.586,0.062c-0.407,0-0.699-0.113-0.875-0.339
		c-0.176-0.226-0.266-0.583-0.269-1.071v-4.017h-1.036v-0.28h1.036v-1.512H375.765z"/>
	<path d="M378.152,59.859c0-0.079,0.027-0.148,0.083-0.205c0.055-0.057,0.122-0.086,0.202-0.086c0.079,0,0.148,0.029,0.205,0.086
		c0.057,0.057,0.086,0.125,0.086,0.205s-0.029,0.147-0.086,0.202c-0.057,0.055-0.125,0.083-0.205,0.083
		c-0.079,0-0.147-0.027-0.202-0.083C378.179,60.006,378.152,59.939,378.152,59.859z M378.577,67.213h-0.28V61.61h0.28V67.213z"/>
	<path d="M380.429,62.915c0.183-0.435,0.452-0.778,0.808-1.031c0.356-0.252,0.749-0.378,1.181-0.378c0.601,0,1.047,0.17,1.339,0.51
		c0.292,0.34,0.439,0.854,0.443,1.541v3.656h-0.28V63.55c-0.004-0.6-0.126-1.044-0.368-1.332c-0.242-0.288-0.625-0.432-1.15-0.432
		c-0.483,0-0.902,0.172-1.256,0.515c-0.354,0.343-0.593,0.786-0.717,1.327v3.586h-0.28V61.61h0.28L380.429,62.915L380.429,62.915z"
		/>
	<path d="M385.426,64.354c0-0.894,0.188-1.592,0.564-2.095c0.376-0.502,0.892-0.754,1.548-0.754c0.417,0,0.789,0.096,1.113,0.287
		c0.324,0.192,0.585,0.472,0.782,0.842V61.61h0.285v5.505c0,0.739-0.19,1.316-0.57,1.732c-0.38,0.416-0.896,0.624-1.548,0.624
		c-0.376,0-0.721-0.081-1.033-0.244c-0.312-0.163-0.579-0.396-0.8-0.701l0.197-0.187c0.217,0.275,0.456,0.486,0.715,0.633
		c0.259,0.146,0.563,0.219,0.911,0.219c0.577,0,1.026-0.175,1.346-0.524c0.321-0.35,0.487-0.844,0.497-1.481v-0.858
		c-0.193,0.318-0.455,0.562-0.784,0.733c-0.329,0.171-0.704,0.256-1.121,0.256c-0.649,0-1.162-0.257-1.538-0.772
		c-0.376-0.515-0.564-1.22-0.564-2.118L385.426,64.354L385.426,64.354z M385.711,64.464c0,0.801,0.159,1.43,0.477,1.888
		c0.317,0.458,0.763,0.686,1.336,0.686c0.473,0,0.875-0.11,1.207-0.329c0.331-0.219,0.566-0.527,0.704-0.924v-2.543
		c-0.304-0.97-0.937-1.455-1.901-1.455c-0.577,0-1.025,0.226-1.344,0.678C385.871,62.917,385.711,63.583,385.711,64.464z"/>
	<path d="M398.175,65.406c0-0.321-0.075-0.593-0.225-0.816c-0.15-0.223-0.386-0.42-0.709-0.59c-0.323-0.171-0.811-0.346-1.463-0.526
		c-0.652-0.18-1.142-0.361-1.468-0.544c-0.326-0.183-0.565-0.395-0.717-0.637c-0.152-0.242-0.227-0.535-0.227-0.88
		c0-0.549,0.231-0.994,0.694-1.334c0.463-0.34,1.065-0.51,1.807-0.51c0.483,0,0.917,0.094,1.303,0.282
		c0.385,0.188,0.682,0.452,0.894,0.793c0.21,0.34,0.316,0.724,0.316,1.152h-0.28c0-0.563-0.208-1.028-0.621-1.396
		c-0.414-0.368-0.952-0.552-1.611-0.552c-0.663,0-1.199,0.148-1.608,0.443c-0.409,0.295-0.614,0.665-0.614,1.111
		c0,0.452,0.178,0.817,0.534,1.093c0.356,0.276,0.942,0.52,1.761,0.733c0.818,0.212,1.417,0.458,1.797,0.738
		c0.483,0.356,0.725,0.832,0.725,1.43c0,0.38-0.107,0.716-0.321,1.007c-0.214,0.292-0.518,0.517-0.911,0.676
		c-0.394,0.159-0.836,0.238-1.326,0.238c-0.546,0-1.036-0.09-1.471-0.272c-0.435-0.181-0.762-0.44-0.981-0.774
		c-0.219-0.335-0.329-0.73-0.329-1.186h0.28c0,0.618,0.231,1.098,0.694,1.44c0.463,0.342,1.065,0.513,1.807,0.513
		c0.659,0,1.203-0.151,1.631-0.453C397.961,66.282,398.175,65.889,398.175,65.406z"/>
	<path d="M401.535,67.317c-0.452,0-0.868-0.122-1.245-0.365c-0.378-0.244-0.674-0.578-0.888-1.002
		c-0.214-0.424-0.321-0.896-0.321-1.414v-0.233c0-0.518,0.104-0.993,0.311-1.424c0.207-0.432,0.492-0.768,0.854-1.01
		c0.363-0.242,0.758-0.363,1.186-0.363c0.625,0,1.136,0.223,1.533,0.668c0.397,0.445,0.596,1.031,0.596,1.756v0.295h-4.2v0.305
		c0,0.455,0.096,0.876,0.287,1.264c0.192,0.388,0.456,0.692,0.793,0.913c0.337,0.221,0.702,0.331,1.095,0.331
		c0.376,0,0.697-0.063,0.961-0.188c0.264-0.125,0.498-0.318,0.702-0.579l0.197,0.14C402.976,67.015,402.357,67.317,401.535,67.317z
		 M401.431,61.786c-0.545,0-1.008,0.203-1.388,0.608c-0.38,0.406-0.603,0.923-0.668,1.551h3.905v-0.068
		c0-0.38-0.08-0.733-0.241-1.059c-0.161-0.326-0.382-0.58-0.663-0.761C402.095,61.876,401.78,61.786,401.431,61.786z"/>
	<path d="M407.07,61.817l-0.363-0.031c-0.477,0-0.876,0.154-1.197,0.463c-0.321,0.309-0.532,0.741-0.632,1.296v3.669h-0.28V61.61
		h0.28v1.165c0.152-0.39,0.38-0.699,0.684-0.927c0.304-0.228,0.685-0.342,1.145-0.342c0.162,0,0.293,0.02,0.394,0.058L407.07,61.817
		z"/>
	<path d="M409.622,66.768l2.015-5.158h0.301l-2.181,5.604h-0.274l-2.175-5.604h0.3L409.622,66.768z"/>
	<path d="M412.698,59.859c0-0.079,0.027-0.148,0.083-0.205c0.055-0.057,0.122-0.086,0.202-0.086c0.079,0,0.148,0.029,0.205,0.086
		c0.057,0.057,0.086,0.125,0.086,0.205s-0.029,0.147-0.086,0.202c-0.057,0.055-0.125,0.083-0.205,0.083s-0.147-0.027-0.202-0.083
		C412.726,60.006,412.698,59.939,412.698,59.859z M413.123,67.213h-0.28V61.61h0.28V67.213z"/>
	<path d="M416.596,67.037c0.508,0,0.926-0.134,1.256-0.404c0.329-0.269,0.51-0.642,0.541-1.119h0.28
		c-0.027,0.542-0.237,0.978-0.626,1.308c-0.39,0.329-0.874,0.495-1.45,0.495c-0.701,0-1.257-0.254-1.67-0.761
		c-0.413-0.507-0.619-1.196-0.619-2.066v-0.186c0-0.849,0.206-1.528,0.619-2.035c0.413-0.508,0.966-0.761,1.66-0.761
		c0.594,0,1.084,0.178,1.471,0.534c0.386,0.356,0.592,0.829,0.616,1.419h-0.28c-0.024-0.504-0.201-0.909-0.531-1.214
		c-0.329-0.306-0.755-0.458-1.276-0.458c-0.625,0-1.114,0.225-1.468,0.676c-0.354,0.45-0.531,1.076-0.531,1.877v0.181
		c0,0.784,0.179,1.399,0.536,1.846C415.48,66.814,415.971,67.037,416.596,67.037z"/>
	<path d="M421.826,67.317c-0.452,0-0.868-0.122-1.245-0.365c-0.378-0.244-0.674-0.578-0.888-1.002
		c-0.214-0.424-0.321-0.896-0.321-1.414v-0.233c0-0.518,0.104-0.993,0.311-1.424c0.207-0.432,0.492-0.768,0.854-1.01
		c0.363-0.242,0.758-0.363,1.186-0.363c0.625,0,1.136,0.223,1.533,0.668c0.397,0.445,0.596,1.031,0.596,1.756v0.295h-4.2v0.305
		c0,0.455,0.096,0.876,0.287,1.264c0.192,0.388,0.456,0.692,0.793,0.913c0.337,0.221,0.702,0.331,1.095,0.331
		c0.376,0,0.697-0.063,0.961-0.188c0.264-0.125,0.498-0.318,0.702-0.579l0.197,0.14C423.268,67.015,422.648,67.317,421.826,67.317z
		 M421.723,61.786c-0.545,0-1.008,0.203-1.388,0.608c-0.38,0.406-0.603,0.923-0.668,1.551h3.905v-0.068
		c0-0.38-0.08-0.733-0.241-1.059c-0.161-0.326-0.382-0.58-0.663-0.761C422.387,61.876,422.072,61.786,421.723,61.786z"/>
	<path d="M428.346,65.841c0-0.68-0.58-1.143-1.74-1.388c-0.698-0.148-1.183-0.339-1.455-0.572s-0.409-0.553-0.409-0.961
		c0-0.411,0.173-0.749,0.521-1.015c0.347-0.266,0.798-0.399,1.354-0.399c0.604,0,1.089,0.144,1.455,0.432
		c0.366,0.288,0.549,0.678,0.549,1.168h-0.285c0-0.376-0.159-0.691-0.477-0.943c-0.317-0.252-0.732-0.378-1.243-0.378
		c-0.49,0-0.878,0.107-1.165,0.321c-0.286,0.214-0.43,0.482-0.43,0.803c0,0.252,0.053,0.45,0.161,0.593
		c0.107,0.144,0.282,0.273,0.523,0.388c0.241,0.116,0.594,0.227,1.056,0.334c0.463,0.107,0.829,0.233,1.098,0.378
		c0.269,0.145,0.464,0.317,0.585,0.515c0.121,0.199,0.181,0.441,0.181,0.728c0,0.442-0.181,0.798-0.544,1.067
		c-0.363,0.269-0.837,0.404-1.424,0.404c-0.629,0-1.135-0.142-1.52-0.427c-0.385-0.285-0.578-0.652-0.578-1.1h0.28
		c0.027,0.394,0.201,0.7,0.52,0.919c0.319,0.219,0.752,0.329,1.297,0.329c0.5,0,0.907-0.116,1.22-0.349
		C428.19,66.455,428.346,66.172,428.346,65.841z"/>
</g>
</svg>
