<?xml version="1.0" encoding="utf-8"?>
<!-- Generator: Adobe Illustrator 21.0.2, SVG Export Plug-In . SVG Version: 6.00 Build 0)  -->
<svg version="1.1" id="Layer_1" xmlns="http://www.w3.org/2000/svg" xmlns:xlink="http://www.w3.org/1999/xlink" x="0px" y="0px"
	 viewBox="0 0 100 20" style="enable-background:new 0 0 100 20;" xml:space="preserve">
<style type="text/css">
	.st0{fill:#98A4AE;}
</style>
<g>
	<path class="st0" d="M19.915,12.464c0-0.166-0.059-0.293-0.176-0.383c-0.117-0.088-0.328-0.182-0.633-0.281
		c-0.305-0.098-0.546-0.195-0.724-0.291c-0.484-0.262-0.727-0.614-0.727-1.058c0-0.23,0.065-0.436,0.195-0.616
		s0.316-0.322,0.56-0.424s0.516-0.152,0.819-0.152c0.305,0,0.576,0.056,0.814,0.166s0.423,0.266,0.555,0.467s0.198,0.43,0.198,0.686
		h-0.879c0-0.195-0.062-0.348-0.185-0.455c-0.123-0.109-0.296-0.163-0.519-0.163c-0.215,0-0.382,0.046-0.501,0.136
		c-0.119,0.092-0.179,0.211-0.179,0.359c0,0.139,0.07,0.255,0.209,0.349s0.345,0.182,0.617,0.264c0.5,0.15,0.864,0.337,1.093,0.56
		s0.343,0.5,0.343,0.832c0,0.369-0.14,0.659-0.419,0.869s-0.655,0.314-1.128,0.314c-0.328,0-0.627-0.061-0.896-0.18
		c-0.27-0.121-0.475-0.285-0.617-0.494s-0.212-0.451-0.212-0.727h0.882c0,0.471,0.281,0.706,0.844,0.706
		c0.209,0,0.372-0.042,0.489-0.128C19.856,12.735,19.915,12.616,19.915,12.464z"/>
	<path class="st0" d="M22.504,12.959c0.156,0,0.283-0.043,0.381-0.129s0.148-0.2,0.152-0.343h0.794
		c-0.002,0.215-0.061,0.412-0.176,0.59c-0.115,0.18-0.273,0.318-0.473,0.416c-0.2,0.099-0.421,0.148-0.664,0.148
		c-0.453,0-0.811-0.144-1.072-0.432s-0.393-0.687-0.393-1.194V11.96c0-0.488,0.13-0.878,0.39-1.169s0.616-0.437,1.069-0.437
		c0.396,0,0.714,0.113,0.954,0.338c0.239,0.227,0.361,0.526,0.365,0.901h-0.794c-0.004-0.165-0.055-0.299-0.152-0.402
		c-0.098-0.103-0.227-0.154-0.387-0.154c-0.197,0-0.346,0.072-0.447,0.216s-0.151,0.377-0.151,0.699v0.089
		c0,0.326,0.05,0.561,0.149,0.704C22.15,12.888,22.301,12.959,22.504,12.959z"/>
	<path class="st0" d="M24.159,9.593c0-0.127,0.042-0.231,0.127-0.313s0.201-0.123,0.347-0.123c0.145,0,0.26,0.041,0.346,0.123
		s0.129,0.187,0.129,0.313c0,0.129-0.043,0.234-0.13,0.316s-0.202,0.123-0.344,0.123s-0.257-0.041-0.344-0.123
		S24.159,9.722,24.159,9.593z M25.059,13.583h-0.85v-3.17h0.85V13.583z"/>
	<path class="st0" d="M27.064,13.642c-0.465,0-0.843-0.143-1.135-0.428s-0.438-0.665-0.438-1.14v-0.082
		c0-0.318,0.062-0.603,0.185-0.854c0.123-0.25,0.297-0.443,0.523-0.58c0.226-0.135,0.483-0.203,0.772-0.203
		c0.434,0,0.775,0.137,1.024,0.41s0.374,0.661,0.374,1.163v0.346H26.35c0.027,0.207,0.11,0.373,0.248,0.498s0.312,0.188,0.523,0.188
		c0.326,0,0.581-0.118,0.765-0.354l0.416,0.466c-0.127,0.18-0.299,0.32-0.516,0.421C27.568,13.591,27.328,13.642,27.064,13.642z
		 M26.968,11.037c-0.168,0-0.304,0.057-0.409,0.171c-0.104,0.113-0.171,0.276-0.201,0.488h1.178v-0.067
		c-0.004-0.188-0.055-0.334-0.152-0.438C27.286,11.089,27.147,11.037,26.968,11.037z"/>
	<path class="st0" d="M29.478,10.413l0.026,0.366c0.227-0.283,0.53-0.425,0.911-0.425c0.336,0,0.586,0.099,0.75,0.296
		s0.248,0.492,0.252,0.885v2.048h-0.847v-2.032c0-0.18-0.039-0.311-0.117-0.392s-0.208-0.122-0.39-0.122
		c-0.238,0-0.417,0.102-0.536,0.306v2.24h-0.847v-3.17H29.478z"/>
	<path class="st0" d="M33.228,12.959c0.156,0,0.283-0.043,0.381-0.129s0.148-0.2,0.152-0.343h0.794
		c-0.002,0.215-0.061,0.412-0.176,0.59c-0.115,0.18-0.273,0.318-0.473,0.416c-0.201,0.099-0.422,0.148-0.664,0.148
		c-0.453,0-0.811-0.144-1.072-0.432s-0.393-0.687-0.393-1.194V11.96c0-0.488,0.13-0.878,0.39-1.169s0.616-0.437,1.069-0.437
		c0.396,0,0.714,0.113,0.953,0.338c0.239,0.227,0.361,0.526,0.365,0.901h-0.794c-0.004-0.165-0.055-0.299-0.152-0.402
		c-0.098-0.103-0.227-0.154-0.387-0.154c-0.197,0-0.347,0.072-0.446,0.216c-0.102,0.144-0.151,0.377-0.151,0.699v0.089
		c0,0.326,0.05,0.561,0.149,0.704C32.873,12.888,33.024,12.959,33.228,12.959z"/>
	<path class="st0" d="M36.347,13.642c-0.465,0-0.844-0.143-1.136-0.428s-0.438-0.665-0.438-1.14v-0.082
		c0-0.318,0.062-0.603,0.185-0.854c0.123-0.25,0.298-0.443,0.522-0.58c0.227-0.135,0.483-0.203,0.772-0.203
		c0.434,0,0.774,0.137,1.024,0.41c0.248,0.273,0.373,0.661,0.373,1.163v0.346h-2.019c0.027,0.207,0.11,0.373,0.247,0.498
		c0.139,0.125,0.312,0.188,0.523,0.188c0.326,0,0.581-0.118,0.765-0.354l0.416,0.466c-0.127,0.18-0.299,0.32-0.516,0.421
		C36.851,13.591,36.61,13.642,36.347,13.642z M36.25,11.037c-0.168,0-0.305,0.057-0.408,0.171c-0.105,0.113-0.172,0.276-0.201,0.488
		h1.178v-0.067c-0.004-0.188-0.055-0.334-0.152-0.438C36.568,11.089,36.43,11.037,36.25,11.037z"/>
	<path class="st0" d="M39.381,13.583V9.317h1.312c0.375,0,0.711,0.085,1.006,0.254c0.297,0.169,0.527,0.409,0.693,0.721
		s0.249,0.665,0.249,1.062v0.196c0,0.396-0.082,0.749-0.245,1.058s-0.393,0.548-0.689,0.718s-0.632,0.256-1.005,0.258H39.381z
		 M40.26,10.029v2.848h0.425c0.344,0,0.606-0.112,0.788-0.337s0.274-0.546,0.278-0.964v-0.226c0-0.434-0.09-0.762-0.27-0.986
		c-0.18-0.223-0.442-0.335-0.788-0.335H40.26z"/>
	<path class="st0" d="M43.069,9.593c0-0.127,0.042-0.231,0.128-0.313c0.084-0.082,0.2-0.123,0.347-0.123
		c0.145,0,0.26,0.041,0.346,0.123s0.129,0.187,0.129,0.313c0,0.129-0.044,0.234-0.13,0.316c-0.088,0.082-0.202,0.123-0.345,0.123
		s-0.258-0.041-0.345-0.123S43.069,9.722,43.069,9.593z M43.969,13.583h-0.85v-3.17h0.85V13.583z"/>
	<path class="st0" d="M46.297,11.207c-0.115-0.016-0.217-0.023-0.305-0.023c-0.32,0-0.53,0.108-0.63,0.325v2.074h-0.847v-3.17h0.8
		l0.023,0.378c0.17-0.291,0.405-0.437,0.706-0.437c0.094,0,0.182,0.013,0.264,0.038L46.297,11.207z"/>
	<path class="st0" d="M47.957,13.642c-0.465,0-0.844-0.143-1.136-0.428s-0.438-0.665-0.438-1.14v-0.082
		c0-0.318,0.062-0.603,0.185-0.854c0.123-0.25,0.298-0.443,0.522-0.58c0.227-0.135,0.483-0.203,0.772-0.203
		c0.434,0,0.774,0.137,1.024,0.41c0.248,0.273,0.373,0.661,0.373,1.163v0.346h-2.019c0.027,0.207,0.11,0.373,0.247,0.498
		c0.139,0.125,0.312,0.188,0.523,0.188c0.326,0,0.581-0.118,0.765-0.354l0.416,0.466c-0.127,0.18-0.299,0.32-0.516,0.421
		C48.461,13.591,48.221,13.642,47.957,13.642z M47.86,11.037c-0.168,0-0.305,0.057-0.408,0.171
		c-0.105,0.113-0.172,0.276-0.201,0.488h1.178v-0.067c-0.004-0.188-0.055-0.334-0.152-0.438
		C48.179,11.089,48.04,11.037,47.86,11.037z"/>
	<path class="st0" d="M50.91,12.959c0.156,0,0.283-0.043,0.381-0.129s0.148-0.2,0.152-0.343h0.794
		c-0.002,0.215-0.061,0.412-0.176,0.59c-0.115,0.18-0.273,0.318-0.473,0.416c-0.201,0.099-0.422,0.148-0.664,0.148
		c-0.453,0-0.811-0.144-1.072-0.432s-0.393-0.687-0.393-1.194V11.96c0-0.488,0.13-0.878,0.39-1.169s0.616-0.437,1.069-0.437
		c0.396,0,0.714,0.113,0.953,0.338c0.239,0.227,0.361,0.526,0.365,0.901h-0.794c-0.004-0.165-0.055-0.299-0.152-0.402
		c-0.098-0.103-0.227-0.154-0.387-0.154c-0.197,0-0.347,0.072-0.446,0.216c-0.102,0.144-0.151,0.377-0.151,0.699v0.089
		c0,0.326,0.05,0.561,0.149,0.704C50.556,12.888,50.707,12.959,50.91,12.959z"/>
	<path class="st0" d="M53.584,9.634v0.779h0.542v0.621h-0.542v1.582c0,0.117,0.022,0.201,0.067,0.252s0.131,0.076,0.258,0.076
		c0.094,0,0.177-0.007,0.249-0.021v0.642c-0.166,0.051-0.337,0.076-0.513,0.076c-0.594,0-0.896-0.3-0.908-0.899v-1.708h-0.463
		v-0.621h0.463V9.634H53.584z"/>
	<path class="st0" d="M54.229,11.969c0-0.314,0.061-0.595,0.182-0.841s0.295-0.437,0.523-0.571c0.227-0.135,0.491-0.202,0.792-0.202
		c0.428,0,0.776,0.131,1.048,0.393c0.27,0.262,0.421,0.617,0.452,1.066l0.006,0.217c0,0.486-0.136,0.877-0.407,1.17
		c-0.271,0.295-0.636,0.441-1.093,0.441s-0.821-0.146-1.095-0.439c-0.271-0.293-0.408-0.691-0.408-1.195V11.969z M55.075,12.029
		c0,0.301,0.057,0.531,0.17,0.69s0.275,0.239,0.486,0.239c0.205,0,0.365-0.079,0.48-0.236s0.173-0.409,0.173-0.756
		c0-0.295-0.058-0.523-0.173-0.687c-0.115-0.162-0.277-0.243-0.486-0.243c-0.207,0-0.367,0.081-0.48,0.242
		S55.075,11.69,55.075,12.029z"/>
	<path class="st0" d="M59.384,11.207c-0.115-0.016-0.217-0.023-0.305-0.023c-0.32,0-0.53,0.108-0.63,0.325v2.074h-0.847v-3.17h0.8
		l0.023,0.378c0.17-0.291,0.405-0.437,0.706-0.437c0.094,0,0.182,0.013,0.264,0.038L59.384,11.207z"/>
	<path class="st0" d="M61.357,12.707c0-0.104-0.052-0.185-0.153-0.245c-0.104-0.059-0.268-0.112-0.494-0.159
		c-0.754-0.158-1.131-0.479-1.131-0.961c0-0.281,0.116-0.516,0.35-0.704s0.539-0.283,0.916-0.283c0.402,0,0.724,0.095,0.965,0.284
		s0.362,0.436,0.362,0.738h-0.847c0-0.121-0.039-0.222-0.117-0.3c-0.078-0.08-0.2-0.119-0.366-0.119
		c-0.143,0-0.253,0.032-0.331,0.097s-0.117,0.146-0.117,0.246c0,0.094,0.044,0.17,0.133,0.228s0.239,0.107,0.45,0.148
		c0.211,0.043,0.389,0.09,0.533,0.143c0.447,0.164,0.671,0.448,0.671,0.853c0,0.289-0.124,0.522-0.372,0.702
		c-0.248,0.178-0.568,0.268-0.961,0.268c-0.266,0-0.502-0.048-0.708-0.143c-0.206-0.094-0.367-0.224-0.484-0.389
		s-0.176-0.344-0.176-0.535h0.803c0.008,0.15,0.063,0.266,0.167,0.346s0.242,0.12,0.416,0.12c0.162,0,0.284-0.03,0.368-0.093
		C61.315,12.888,61.357,12.807,61.357,12.707z"/>
</g>
<g>
	<g>
		<path class="st0" d="M14.012,16.666c0.021-0.533-0.068-1.115-0.374-1.568c-0.043-0.064-0.144-0.046-0.17,0.012
			c-0.36-0.063-0.735-0.036-1.1-0.033c-0.239,0.002-0.48-0.003-0.72,0.004c-0.002-0.007-0.004-0.015-0.009-0.023
			c-0.167-0.275-0.286-0.56-0.372-0.865c-0.076-0.271-0.071-0.552-0.127-0.826c-0.01-0.05-0.085-0.049-0.105-0.007
			c-0.169-0.041-0.334-0.055-0.502-0.059c0.032-0.18,0.016-0.367,0.015-0.549c-0.001-0.216,0.01-0.434-0.024-0.648
			c0.19-0.122,0.344-0.293,0.409-0.507c0.008-0.025,0.002-0.048-0.011-0.066c0.482-0.21,0.973-0.42,1.414-0.687
			c0.033-0.02,0.037-0.058,0.022-0.086c0.012-0.05,0.008-0.106,0.01-0.16c0.003-0.109,0.024-0.239-0.017-0.343
			c-0.01-0.026-0.039-0.045-0.067-0.048c-0.029-0.019-0.067-0.024-0.108-0.001c-0.656,0.377-1.31,0.75-1.988,1.09
			c-0.678,0.339-1.389,0.609-2.072,0.935c-0.028,0.013-0.039,0.037-0.04,0.061c-0.005,0.008-0.009,0.018-0.008,0.028
			c0.008,0.069,0.045,0.09,0.102,0.13c0.071,0.049,0.154,0.095,0.233,0.132c0.01,0.005,0.02,0.006,0.029,0.008
			c0.033,0.028,0.081,0.042,0.132,0.02c0.326-0.143,0.65-0.292,0.973-0.443c0.002,0.016,0.008,0.032,0.022,0.043
			c0.081,0.065,0.191,0.09,0.306,0.092c-0.024,0.169-0.015,0.343-0.016,0.513c-0.001,0.149-0.022,0.318-0.013,0.478
			c-0.217-0.003-0.436,0.001-0.638,0.058c-0.06,0.017-0.06,0.097,0,0.114c0.001,0,0.002,0,0.002,0.001
			c-0.027,0.066-0.055,0.13-0.084,0.194c-1.382-0.365-2.33-1.272-2.659-2.623C6.281,10.32,6.363,9.566,6.574,8.864
			C6.68,8.51,6.841,8.174,7.02,7.849c0.049-0.089,0.108-0.174,0.168-0.26C7.264,7.598,7.341,7.59,7.415,7.57
			c0.144,0.359,0.33,0.702,0.507,1.048C8.12,9.007,8.294,9.433,8.555,9.789c0.004,0.005,0.01,0.006,0.015,0.01
			c0.007,0.025,0.015,0.049,0.023,0.073C8.573,9.88,8.557,9.895,8.549,9.918C8.546,9.928,8.544,9.939,8.541,9.95
			c-0.085,0.109-0.125,0.276-0.145,0.388c-0.016,0.089-0.022,0.2-0.007,0.305c-0.011,0.062-0.021,0.124-0.032,0.186
			c-0.01,0.059,0.029,0.101,0.076,0.116c0.017,0.02,0.044,0.032,0.075,0.022c0.482-0.144,0.929-0.481,1.362-0.727
			c0.539-0.306,1.086-0.603,1.61-0.932c0.051-0.032,0.049-0.086,0.021-0.12c0.011-0.013,0.019-0.028,0.018-0.045
			c-0.014-0.172-0.208-0.288-0.35-0.376c-0.177-0.109-0.421-0.193-0.634-0.174c-0.006,0.001-0.012,0.003-0.017,0.005
			c-0.002,0-0.003-0.001-0.005-0.002c-0.003-0.007-0.004-0.014-0.009-0.022C9.995,7.843,9.471,7.121,8.955,6.395
			c-0.44-0.619-0.852-1.289-1.353-1.87c0.002-0.001,0.003-0.002,0.004-0.003c0.047-0.028,0.068-0.077,0.055-0.128
			C7.631,4.276,7.601,4.157,7.57,4.038c-0.009-0.033-0.031-0.056-0.06-0.069C7.482,3.933,7.428,3.931,7.387,3.947
			C7.352,3.962,7.315,3.975,7.279,3.989C7.269,3.991,7.259,3.992,7.25,3.995C7.126,3.981,7.009,4.013,6.89,4.07
			C6.822,4.102,6.752,4.144,6.682,4.188C6.61,4.222,6.538,4.259,6.467,4.299c-0.199,0.114-0.553,0.33-0.605,0.563
			C5.815,5.076,5.882,5.245,6.119,5.298c0.084,0.019,0.163,0.001,0.235-0.035C6.356,5.264,6.358,5.267,6.36,5.269
			C6.519,5.733,6.747,6.186,6.969,6.63C6.958,6.642,6.947,6.653,6.937,6.666C6.723,6.784,6.669,7.029,6.753,7.235
			C5.855,8.288,5.5,9.853,5.706,11.143c0.231,1.45,1.133,2.97,2.51,3.719c-0.064,0.053-0.129,0.105-0.199,0.154
			c-0.002,0.002-0.003,0.004-0.005,0.005c-0.113-0.006-0.228-0.005-0.34-0.008c-0.106-0.003-0.209-0.005-0.311,0.004
			c-0.661-0.25-0.874,1.396-0.876,1.721c-0.001,0.106,0.125,0.134,0.194,0.086c0.483,0.07,0.985,0.036,1.472,0.036h1.929
			c1.236,0,2.483,0.04,3.719-0.013c0.047,0.041,0.133,0.035,0.179-0.015C14.05,16.804,14.061,16.714,14.012,16.666z M6.371,5.017
			C6.134,4.936,6.082,4.851,6.217,4.763c0.109-0.106,0.239-0.191,0.369-0.272C6.69,4.427,6.8,4.376,6.913,4.332
			c0.024-0.009,0.049-0.017,0.073-0.027c0.111-0.038,0.224-0.07,0.34-0.095c0.022,0.013,0.04,0.03,0.052,0.049
			c0,0.005-0.001,0.01-0.002,0.015C7.376,4.28,7.374,4.286,7.372,4.291C7.288,4.314,7.208,4.353,7.131,4.393
			C7.046,4.436,6.957,4.483,6.903,4.56C6.886,4.584,6.897,4.613,6.918,4.63C6.786,4.715,6.656,4.804,6.532,4.897
			C6.519,4.9,6.505,4.905,6.494,4.914C6.452,4.948,6.411,4.982,6.371,5.017z M6.494,5.236C6.61,5.163,6.722,5.085,6.832,5.004
			C6.883,4.966,6.96,4.922,7.017,4.869C7.052,4.852,7.09,4.835,7.129,4.817c0.228,0.314,0.509,0.595,0.739,0.91
			c0.247,0.339,0.46,0.699,0.652,1.067c0.438,0.84,0.701,1.762,0.802,2.692C9.124,9.572,8.906,9.639,8.738,9.751
			C8.721,9.725,8.704,9.698,8.683,9.674c-0.126-0.35-0.328-0.68-0.501-1.01C7.979,8.28,7.789,7.885,7.551,7.518
			C7.666,7.459,7.763,7.369,7.82,7.26c0.168-0.323-0.037-0.686-0.395-0.766C7.322,6.471,7.224,6.482,7.138,6.516
			C6.943,6.082,6.743,5.64,6.494,5.236z M6.173,10.937c-0.106-0.317-0.19-0.646-0.254-0.986C5.956,9.596,6.03,9.244,6.135,8.903
			C6.301,8.362,6.58,7.899,6.898,7.447c0.002,0.002,0.004,0.005,0.006,0.007c0.01,0.01,0.021,0.018,0.032,0.027
			C6.888,7.564,6.842,7.647,6.797,7.726C6.6,8.066,6.448,8.43,6.325,8.799C6.094,9.491,6.054,10.224,6.173,10.937z M9.753,12.068
			c0.235-0.11,0.469-0.22,0.704-0.328c0.082-0.038,0.164-0.075,0.247-0.112c-0.117,0.175-0.262,0.311-0.476,0.395
			C10.065,12.087,9.911,12.066,9.753,12.068z M10.027,12.294c0.105-0.016,0.206-0.045,0.287-0.079
			c0.014-0.006,0.027-0.013,0.04-0.019c-0.015,0.151-0.01,0.304-0.01,0.456c-0.001,0.212-0.023,0.437,0.015,0.647
			c-0.055,0-0.11,0.001-0.166,0.001c-0.046,0-0.092,0-0.138-0.001c0.005-0.126-0.008-0.256-0.008-0.378
			C10.046,12.716,10.06,12.5,10.027,12.294z M9.733,13.967c-0.005,0.06-0.01,0.121-0.015,0.181c-0.016,0.197-0.07,0.426-0.038,0.628
			c-0.02,0.086-0.031,0.174-0.043,0.261c-0.217-0.001-0.435-0.004-0.654-0.002C9.287,14.779,9.573,14.37,9.733,13.967z
			 M7.561,13.239c0.423,0.322,0.919,0.546,1.459,0.614c-0.066,0.127-0.14,0.247-0.22,0.363C8.327,13.93,7.916,13.602,7.561,13.239z
			 M10.255,16.616H8.326c-0.527,0-1.075-0.041-1.6,0.029c0.004-0.117,0.014-0.259,0.034-0.408c0.001,0,0.001,0.001,0.002,0.001
			c0.693,0.154,1.56,0.092,2.26-0.007c0.051-0.007,0.051-0.089,0-0.097c-0.695-0.099-1.554-0.159-2.244-0.01
			c0.015-0.089,0.033-0.178,0.057-0.265c0.389,0.058,0.788,0.045,1.18,0.046c0.439,0.001,0.939,0.067,1.361-0.059
			c0.054-0.016,0.054-0.088,0-0.104C9,15.631,8.572,15.682,8.183,15.684c-0.433,0.001-0.876-0.017-1.305,0.042
			c0.027-0.075,0.057-0.148,0.094-0.213c0.007,0.005,0.013,0.012,0.023,0.014c0.384,0.054,0.775,0.04,1.163,0.042
			c0.386,0.002,0.782,0.024,1.162-0.043c0.065-0.011,0.065-0.113,0-0.124c-0.381-0.067-0.776-0.042-1.162-0.043
			c-0.368-0.001-0.741-0.01-1.106,0.036c0.057-0.071,0.124-0.129,0.203-0.167c0.135,0.028,0.275,0.024,0.418,0.02
			c0.149-0.004,0.301-0.001,0.45-0.017c0.563,0.075,1.154,0.044,1.722,0.048c0.479,0.003,1.061,0.082,1.552-0.001
			c0.322,0.026,0.649,0.016,0.972,0.018c0.375,0.003,0.759,0.032,1.128-0.038c0.16,0.46,0.284,0.888,0.275,1.374
			C12.603,16.58,11.423,16.616,10.255,16.616z"/>
	</g>
</g>
</svg>
