<?xml version="1.0" encoding="utf-8"?>
<!-- Generator: Adobe Illustrator 21.0.2, SVG Export Plug-In . SVG Version: 6.00 Build 0)  -->
<svg version="1.1" id="Layer_1" xmlns="http://www.w3.org/2000/svg" xmlns:xlink="http://www.w3.org/1999/xlink" x="0px" y="0px"
	 viewBox="0 0 50 14.483" style="enable-background:new 0 0 50 14.483;" xml:space="preserve">
<style type="text/css">
	.st0{fill:#B27AB2;}
	.st1{fill:#EF4F23;}
	.st2{fill:#FFFFFF;}
	.st3{clip-path:url(#SVGID_2_);}
	.st4{opacity:0.51;}
	.st5{clip-path:url(#SVGID_4_);}
	.st6{opacity:0.26;}
	.st7{clip-path:url(#SVGID_6_);}
	.st8{clip-path:url(#SVGID_8_);fill:#252D33;}
	.st9{clip-path:url(#SVGID_10_);}
	.st10{clip-path:url(#SVGID_12_);}
	.st11{clip-path:url(#SVGID_14_);}
	.st12{clip-path:url(#SVGID_16_);fill:#252D33;}
	.st13{clip-path:url(#SVGID_18_);}
	.st14{clip-path:url(#SVGID_20_);}
	.st15{clip-path:url(#SVGID_22_);}
	.st16{clip-path:url(#SVGID_24_);fill:#252D33;}
	.st17{clip-path:url(#SVGID_26_);}
	.st18{clip-path:url(#SVGID_28_);}
	.st19{clip-path:url(#SVGID_30_);}
	.st20{clip-path:url(#SVGID_32_);fill:#252D33;}
</style>
<g>
	<g>
		<path class="st0" d="M19.674,2.871"/>
		<path class="st1" d="M20.58,10.843h-1.633v0.526h1.896c0.145,0,0.262-0.117,0.262-0.262V8.364h-0.526v2.478H20.58z"/>
		<path class="st1" d="M27.76,10.212h-1.632v0.526h1.896c0.145,0,0.262-0.117,0.262-0.262V8.364H27.76V10.212z"/>
		<path class="st1" d="M23.705,12.147h-1.633v0.526h1.896c0.145,0,0.262-0.117,0.262-0.262V8.366h-0.526v3.781H23.705z"/>
		<path class="st1" d="M30.229,12.404h-1.633v0.526h1.896c0.145,0,0.262-0.117,0.262-0.262V8.364h-0.525V12.404z"/>
		<path class="st1" d="M19.877,11.107c0,0.514-0.417,0.931-0.931,0.931s-0.931-0.417-0.931-0.931c0-0.514,0.417-0.931,0.931-0.931
			S19.877,10.593,19.877,11.107"/>
		<path class="st2" d="M19.534,11.107c0,0.325-0.264,0.587-0.587,0.587c-0.325,0-0.587-0.264-0.587-0.587
			c0-0.325,0.262-0.587,0.587-0.587C19.271,10.519,19.534,10.782,19.534,11.107"/>
		<path class="st1" d="M29.723,12.603c0,0.514-0.417,0.931-0.931,0.931s-0.931-0.417-0.931-0.931c0-0.514,0.417-0.931,0.931-0.931
			S29.723,12.089,29.723,12.603"/>
		<path class="st2" d="M29.38,12.603c0,0.325-0.262,0.587-0.587,0.587c-0.325,0-0.587-0.264-0.587-0.587
			c0-0.325,0.262-0.587,0.587-0.587C29.117,12.015,29.38,12.279,29.38,12.603"/>
		<path class="st1" d="M27.057,10.474c0,0.514-0.417,0.931-0.931,0.931s-0.931-0.417-0.931-0.931s0.417-0.931,0.931-0.931
			S27.057,9.96,27.057,10.474"/>
		<path class="st2" d="M26.715,10.474c0,0.325-0.262,0.587-0.587,0.587c-0.325,0-0.587-0.264-0.587-0.587
			c0-0.325,0.262-0.587,0.587-0.587C26.452,9.887,26.715,10.149,26.715,10.474"/>
		<path class="st1" d="M23.199,12.345c0,0.514-0.417,0.931-0.931,0.931s-0.931-0.417-0.931-0.931s0.417-0.931,0.931-0.931
			S23.199,11.831,23.199,12.345"/>
		<path class="st2" d="M22.855,12.345c0,0.325-0.264,0.587-0.587,0.587c-0.325,0-0.587-0.264-0.587-0.587
			c0-0.325,0.262-0.587,0.587-0.587C22.593,11.758,22.855,12.02,22.855,12.345"/>
		<path class="st2" d="M31.052,5.824c-0.031-0.973-0.74-1.774-1.674-1.943C29,2.079,27.401,0.725,25.487,0.725
			c-1.487,0-2.783,0.817-3.465,2.025c-0.092-0.014-0.186-0.023-0.281-0.023c-0.864,0-1.588,0.589-1.799,1.385
			c-1.248,0.147-2.216,1.206-2.216,2.492c0,0.425,0.108,0.823,0.294,1.173h2.559V6.556h0.526v1.223h2.598V6.556h0.526v1.223h3.529
			V6.556h0.526v1.223h1.944V6.556h0.526v1.223h1.131c0.075-0.178,0.119-0.372,0.119-0.576C32.005,6.572,31.61,6.036,31.052,5.824"/>
		<g>
			<g>
				<g>
					<defs>
						<rect id="SVGID_1_" x="18.519" y="10.519" width="1.015" height="1.003"/>
					</defs>
					<clipPath id="SVGID_2_">
						<use xlink:href="#SVGID_1_"  style="overflow:visible;"/>
					</clipPath>
					<g class="st3">
						<g class="st4">
							<defs>
								<rect id="SVGID_3_" x="18.519" y="10.519" class="st4" width="1.015" height="1.003"/>
							</defs>
							<clipPath id="SVGID_4_">
								<use xlink:href="#SVGID_3_"  style="overflow:visible;"/>
							</clipPath>
							<g class="st5">
								<g>
									<g class="st6">
										<defs>
											<rect id="SVGID_5_" x="18.519" y="10.519" class="st6" width="1.015" height="1.003"/>
										</defs>
										<clipPath id="SVGID_6_">
											<use xlink:href="#SVGID_5_"  style="overflow:visible;"/>
										</clipPath>
										<g class="st7">
											<g>
												<defs>
													<rect id="SVGID_7_" x="18.519" y="10.519" width="1.015" height="1.003"/>
												</defs>
												<clipPath id="SVGID_8_">
													<use xlink:href="#SVGID_7_"  style="overflow:visible;"/>
												</clipPath>
												<path class="st8" d="M19.527,11.014c-0.037-0.25-0.244-0.453-0.495-0.489c-0.203-0.03-0.389,0.047-0.514,0.181
													l0.842,0.817C19.488,11.396,19.557,11.213,19.527,11.014"/>
											</g>
										</g>
									</g>
								</g>
							</g>
						</g>
						<g>
							<g>
								<g>
									<defs>
										<rect id="SVGID_9_" x="21.84" y="11.758" width="1.015" height="1.003"/>
									</defs>
									<clipPath id="SVGID_10_">
										<use xlink:href="#SVGID_9_"  style="overflow:visible;"/>
									</clipPath>
									<g class="st9">
										<g class="st4">
											<defs>
												<rect id="SVGID_11_" x="21.84" y="11.758" class="st4" width="1.015" height="1.003"/>
											</defs>
											<clipPath id="SVGID_12_">
												<use xlink:href="#SVGID_11_"  style="overflow:visible;"/>
											</clipPath>
											<g class="st10">
												<g>
													<g class="st6">
														<defs>
															<rect id="SVGID_13_" x="21.84" y="11.758" class="st6" width="1.015" height="1.003"/>
														</defs>
														<clipPath id="SVGID_14_">
															<use xlink:href="#SVGID_13_"  style="overflow:visible;"/>
														</clipPath>
														<g class="st11">
															<g>
																<defs>
																	<rect id="SVGID_15_" x="21.84" y="11.758" width="1.015" height="1.003"/>
																</defs>
																<clipPath id="SVGID_16_">
																	<use xlink:href="#SVGID_15_"  style="overflow:visible;"/>
																</clipPath>
																<path class="st12" d="M22.849,12.253c-0.037-0.25-0.244-0.453-0.495-0.49c-0.203-0.03-0.389,0.047-0.514,0.181
																	l0.842,0.817C22.81,12.635,22.879,12.451,22.849,12.253"/>
															</g>
														</g>
													</g>
												</g>
											</g>
										</g>
										<g>
											<g>
												<g>
													<defs>
														<rect id="SVGID_17_" x="25.7" y="9.887" width="1.015" height="1.004"/>
													</defs>
													<clipPath id="SVGID_18_">
														<use xlink:href="#SVGID_17_"  style="overflow:visible;"/>
													</clipPath>
													<g class="st13">
														<g class="st4">
															<defs>
																<rect id="SVGID_19_" x="25.7" y="9.887" class="st4" width="1.015" height="1.004"/>
															</defs>
															<clipPath id="SVGID_20_">
																<use xlink:href="#SVGID_19_"  style="overflow:visible;"/>
															</clipPath>
															<g class="st14">
																<g>
																	<g class="st6">
																		<defs>
																			<rect id="SVGID_21_" x="25.7" y="9.887" class="st6" width="1.015" height="1.004"/>
																		</defs>
																		<clipPath id="SVGID_22_">
																			<use xlink:href="#SVGID_21_"  style="overflow:visible;"/>
																		</clipPath>
																		<g class="st15">
																			<g>
																				<defs>
																					<rect id="SVGID_23_" x="25.7" y="9.887" width="1.015" height="1.004"/>
																				</defs>
																				<clipPath id="SVGID_24_">
																					<use xlink:href="#SVGID_23_"  style="overflow:visible;"/>
																				</clipPath>
																				<path class="st16" d="M26.708,10.382c-0.037-0.25-0.244-0.453-0.495-0.489c-0.203-0.03-0.389,0.047-0.514,0.181
																					l0.842,0.817C26.669,10.765,26.739,10.582,26.708,10.382"/>
																			</g>
																		</g>
																	</g>
																</g>
															</g>
														</g>
														<g>
															<g>
																<g>
																	<defs>
																		<rect id="SVGID_25_" x="28.365" y="12.015" width="1.015" height="1.003"/>
																	</defs>
																	<clipPath id="SVGID_26_">
																		<use xlink:href="#SVGID_25_"  style="overflow:visible;"/>
																	</clipPath>
																	<g class="st17">
																		<g class="st4">
																			<defs>
																				<rect id="SVGID_27_" x="28.365" y="12.015" class="st4" width="1.015" height="1.003"/>
																			</defs>
																			<clipPath id="SVGID_28_">
																				<use xlink:href="#SVGID_27_"  style="overflow:visible;"/>
																			</clipPath>
																			<g class="st18">
																				<g>
																					<g class="st6">
																						<defs>
																							<rect id="SVGID_29_" x="28.365" y="12.015" class="st6" width="1.015" height="1.003"/>
																						</defs>
																						<clipPath id="SVGID_30_">
																							<use xlink:href="#SVGID_29_"  style="overflow:visible;"/>
																						</clipPath>
																						<g class="st19">
																							<g>
																								<defs>
																									<rect id="SVGID_31_" x="28.365" y="12.015" width="1.015" height="1.003"/>
																								</defs>
																								<clipPath id="SVGID_32_">
																									<use xlink:href="#SVGID_31_"  style="overflow:visible;"/>
																								</clipPath>
																								<path class="st20" d="M29.372,12.512c-0.037-0.25-0.244-0.453-0.495-0.489
																									c-0.203-0.03-0.389,0.047-0.514,0.181l0.842,0.817C29.333,12.893,29.403,12.71,29.372,12.512"/>
																							</g>
																						</g>
																					</g>
																				</g>
																			</g>
																		</g>
																	</g>
																</g>
															</g>
														</g>
													</g>
												</g>
											</g>
										</g>
									</g>
								</g>
							</g>
						</g>
					</g>
				</g>
			</g>
		</g>
	</g>
</g>
</svg>
