<?xml version="1.0" encoding="utf-8"?>
<!-- Generator: Adobe Illustrator 21.0.2, SVG Export Plug-In . SVG Version: 6.00 Build 0)  -->
<svg version="1.1" id="Layer_1" xmlns="http://www.w3.org/2000/svg" xmlns:xlink="http://www.w3.org/1999/xlink" x="0px" y="0px"
	 viewBox="0 0 50 14.483" style="enable-background:new 0 0 50 14.483;" xml:space="preserve">
<style type="text/css">
	.st0{fill:#B27AB2;}
	.st1{fill:#EF5124;}
	.st2{fill:#F9F9F9;}
</style>
<g>
	<g>
		<path class="st0" d="M20.459,3.454"/>
	</g>
	<g>
		<path class="st1" d="M30.566,7.264c0.272-0.313,0.409-0.681,0.409-1.108c0-0.387-0.141-0.722-0.423-1.004
			c-0.282-0.282-0.617-0.423-1.003-0.423h-2.06c0.02-0.069,0.039-0.128,0.059-0.179c0.02-0.049,0.048-0.104,0.082-0.164
			c0.465-0.804,0.426-3.1-0.563-3.385c-0.181-0.052-0.385-0.078-0.612-0.078c-0.814,0-0.585,1.35-0.642,1.877
			c-0.078,0.701-0.487,1.56-1.1,1.95c-0.638,0.406-1.36,0.484-1.932,1.077c-0.088,0.091-0.133,0.199-0.133,0.323v4.766
			c0,0.128,0.048,0.239,0.141,0.331c0.094,0.092,0.206,0.14,0.334,0.144c0.173,0.006,0.565,0.114,1.174,0.328
			c0.382,0.128,0.68,0.226,0.896,0.294c0.215,0.066,0.516,0.138,0.903,0.216c0.386,0.076,0.743,0.115,1.07,0.115h0.959
			c0.66-0.01,1.148-0.203,1.465-0.579c0.287-0.341,0.409-0.791,0.364-1.345c0.193-0.183,0.327-0.416,0.4-0.699
			c0.084-0.302,0.084-0.593,0-0.87c0.228-0.302,0.334-0.642,0.32-1.018C30.679,7.67,30.641,7.481,30.566,7.264"/>
		<path class="st2" d="M21.698,5.679h-2.14c-0.128,0-0.241,0.048-0.334,0.141c-0.094,0.095-0.141,0.206-0.141,0.336v4.758
			c0,0.128,0.048,0.241,0.141,0.334c0.095,0.094,0.206,0.141,0.334,0.141h2.14c0.13,0,0.241-0.048,0.334-0.141
			c0.094-0.095,0.141-0.206,0.141-0.334V6.156c0-0.128-0.048-0.241-0.141-0.336C21.938,5.727,21.826,5.679,21.698,5.679
			 M20.385,10.643c-0.094,0.092-0.206,0.137-0.334,0.137c-0.134,0-0.246-0.046-0.339-0.137c-0.092-0.092-0.137-0.205-0.137-0.339
			c0-0.128,0.046-0.241,0.137-0.334c0.092-0.094,0.205-0.141,0.339-0.141c0.128,0,0.241,0.048,0.334,0.141
			c0.095,0.095,0.141,0.206,0.141,0.334C20.528,10.439,20.48,10.551,20.385,10.643 M21.575,10.643
			c-0.094,0.092-0.206,0.137-0.334,0.137c-0.134,0-0.246-0.046-0.339-0.137c-0.092-0.092-0.137-0.205-0.137-0.339
			c0-0.128,0.046-0.241,0.137-0.334c0.092-0.094,0.205-0.141,0.339-0.141c0.128,0,0.241,0.048,0.334,0.141
			c0.095,0.095,0.141,0.206,0.141,0.334C21.716,10.439,21.669,10.551,21.575,10.643"/>
	</g>
</g>
</svg>
