<?xml version="1.0" encoding="utf-8"?>
<!-- Generator: Adobe Illustrator 21.0.2, SVG Export Plug-In . SVG Version: 6.00 Build 0)  -->
<svg version="1.1" id="Layer_1" xmlns="http://www.w3.org/2000/svg" xmlns:xlink="http://www.w3.org/1999/xlink" x="0px" y="0px"
	 viewBox="0 0 50 14.483" style="enable-background:new 0 0 50 14.483;" xml:space="preserve">
<style type="text/css">
	.st0{fill:#B27AB2;}
	.st1{fill:#EF4F23;}
	.st2{fill:#FFFFFF;}
	.st3{opacity:0.2;}
	.st4{clip-path:url(#SVGID_2_);}
	.st5{clip-path:url(#SVGID_4_);fill:#FFFDF6;}
</style>
<g>
	<g>
		<path class="st0" d="M20.425,3.178"/>
		<path class="st1" d="M19.885,8.025c0.163,0,0.297-0.133,0.297-0.297V7.547c0-0.405,0.33-0.735,0.735-0.735h3.66v0.916
			c0,0.164,0.133,0.297,0.297,0.297c0.163,0,0.297-0.133,0.297-0.297V6.812h3.66c0.405,0,0.735,0.33,0.735,0.735v0.181
			c0,0.164,0.134,0.297,0.297,0.297s0.297-0.133,0.297-0.297V7.547c0-0.732-0.597-1.329-1.329-1.329h-3.66v-1.64h0.75
			c0.427,0,0.774-0.347,0.774-0.774V1.708c0-0.427-0.347-0.774-0.774-0.774h-2.095c-0.427,0-0.774,0.347-0.774,0.774v2.095
			c0,0.427,0.347,0.774,0.774,0.774h0.75v1.64h-3.66c-0.732,0-1.329,0.597-1.329,1.329v0.181
			C19.588,7.892,19.722,8.025,19.885,8.025"/>
		<path class="st2" d="M20.933,8.48h-2.095c-0.394,0-0.713,0.319-0.713,0.713v2.095c0,0.394,0.319,0.713,0.713,0.713h2.095
			c0.394,0,0.713-0.319,0.713-0.713V9.193C21.644,8.799,21.326,8.48,20.933,8.48 M20.81,11.165h-1.851V9.314h1.851V11.165z"/>
		<path class="st2" d="M25.922,8.48h-2.095c-0.394,0-0.713,0.319-0.713,0.713v2.095c0,0.394,0.319,0.713,0.713,0.713h2.095
			c0.394,0,0.713-0.319,0.713-0.713V9.193C26.635,8.799,26.315,8.48,25.922,8.48 M25.799,11.165h-1.851V9.314h1.851V11.165z"/>
		<path class="st2" d="M30.911,8.48h-2.094c-0.394,0-0.713,0.319-0.713,0.713v2.095c0,0.394,0.319,0.713,0.713,0.713h2.094
			c0.394,0,0.713-0.319,0.713-0.713V9.193C31.624,8.799,31.304,8.48,30.911,8.48 M30.788,11.165h-1.849V9.314h1.849V11.165z"/>
		<g>
			<g>
				<g class="st3">
					<defs>
						<rect id="SVGID_1_" x="23.053" y="0.934" class="st3" width="3.517" height="3.357"/>
					</defs>
					<clipPath id="SVGID_2_">
						<use xlink:href="#SVGID_1_"  style="overflow:visible;"/>
					</clipPath>
					<g class="st4">
						<g>
							<defs>
								<rect id="SVGID_3_" x="23.053" y="0.934" width="3.517" height="3.358"/>
							</defs>
							<clipPath id="SVGID_4_">
								<use xlink:href="#SVGID_3_"  style="overflow:visible;"/>
							</clipPath>
							<path class="st5" d="M25.922,0.934h-2.095c-0.427,0-0.774,0.347-0.774,0.774v2.095c0,0.185,0.065,0.355,0.174,0.488
								l3.343-3.006C26.432,1.074,26.192,0.934,25.922,0.934"/>
						</g>
					</g>
				</g>
			</g>
		</g>
	</g>
</g>
</svg>
