<?xml version="1.0" encoding="utf-8"?>
<!-- Generator: Adobe Illustrator 22.1.0, SVG Export Plug-In . SVG Version: 6.00 Build 0)  -->
<svg version="1.1" id="Layer_1" xmlns="http://www.w3.org/2000/svg" xmlns:xlink="http://www.w3.org/1999/xlink" x="0px" y="0px"
	 viewBox="0 0 21 21" style="enable-background:new 0 0 21 21;" xml:space="preserve">
<style type="text/css">
	.st0{fill:#323E48;}
</style>
<g id="_x36_oPcUf_1_">
	<g>
		<path class="st0" d="M11.722,12.447c-2.036,1.601-4.791,1.167-6.306-0.593c-1.546-1.796-1.46-4.425,0.097-6.108
			C7.156,3.968,9.826,3.799,11.656,5.2c1.016,0.778,1.617,1.808,1.778,3.079c0.161,1.27-0.177,2.409-0.952,3.427
			c0.057,0.057,0.115,0.115,0.173,0.173c0.071,0.071,0.142,0.141,0.212,0.213c0.015,0.016,0.027,0.017,0.046,0.008
			c0.349-0.167,0.721-0.103,0.995,0.17c0.483,0.48,0.966,0.961,1.449,1.441c0.227,0.226,0.454,0.451,0.682,0.676
			c0.148,0.146,0.241,0.32,0.263,0.526c0.027,0.251-0.038,0.479-0.211,0.666c-0.153,0.166-0.312,0.328-0.48,0.48
			c-0.342,0.309-0.856,0.29-1.181-0.037c-0.596-0.6-1.192-1.2-1.788-1.8c-0.119-0.119-0.238-0.238-0.356-0.359
			c-0.175-0.18-0.261-0.396-0.254-0.648c0.003-0.117,0.033-0.228,0.083-0.334c0.005-0.011,0.004-0.032-0.003-0.039
			C11.983,12.708,11.852,12.578,11.722,12.447z M12.626,8.858c0-2.068-1.669-3.74-3.738-3.745c-2.06-0.004-3.74,1.673-3.742,3.737
			c-0.002,2.062,1.674,3.743,3.732,3.743C10.947,12.594,12.626,10.92,12.626,8.858z"/>
	</g>
</g>
</svg>
