<?xml version="1.0" encoding="utf-8"?>
<!-- Generator: Adobe Illustrator 21.1.0, SVG Export Plug-In . SVG Version: 6.00 Build 0)  -->
<svg version="1.1" id="Layer_1" xmlns="http://www.w3.org/2000/svg" xmlns:xlink="http://www.w3.org/1999/xlink" x="0px" y="0px"
	 viewBox="0 0 350 130" style="enable-background:new 0 0 350 130;" xml:space="preserve">
<style type="text/css">
	.st0{fill:#FFFFFF;}
</style>
<g>
	<path class="st0" d="M85.646,78.559l-0.212,0.106c0.106,0.106,0.106,0.318,0.106,0.423c0.106-0.106,0.106-0.318,0.106-0.423
		C85.646,78.665,85.646,78.559,85.646,78.559z M85.857,75.913h-0.106v0.318h0.106V75.913z"/>
	<path class="st0" d="M113.798,59.72l0.847-0.847l-0.106,0.635l0.318-0.635h-0.212l0.212-0.318v0.318l0.212-0.422h0.106l0.423-0.742
		l0.212,0.106c-1.905,4.868-5.186,9.419-7.938,13.865c-1.588,2.54-3.069,5.186-4.763,7.62c-2.117,3.068-5.503,7.726-7.938,10.372
		c-0.635,0.635-1.27,0.741-2.117,0.741c-3.069,0-5.292-1.693-5.292-4.868c0-5.715,1.376-11.748,2.858-17.145
		c1.164-4.234,2.223-8.467,2.54-12.807V55.17c0-0.529-0.318-1.059-0.318-1.588c0-0.422,0.635-0.635,0.953-0.741
		c4.657,0.635,8.467,3.068,8.467,8.149c0,4.022-1.376,7.62-2.54,11.43l-2.328,7.833c0,0.105-0.106,0.105-0.106,0.212
		c0,0,0.106,0.212,0.106,0.318c2.963-3.705,5.503-7.833,8.149-11.748c1.588-2.328,3.493-4.446,5.186-6.669
		c0.953-1.164,1.588-2.751,2.752-3.81l-0.529,0.953l0.741-0.847c-1.693,2.858-3.81,5.503-5.186,8.573
		c0.741-0.847,1.482-1.693,2.011-2.646c1.058-1.799,1.799-4.022,3.387-5.503L113.798,59.72z M93.054,85.968
		c1.588-6.138,3.387-12.277,5.08-18.415c-1.27,2.223-1.588,4.764-2.328,7.197c-1.058,3.705-2.434,7.409-2.963,11.219L93.054,85.968
		L93.054,85.968z M100.145,37.071l0.529,0.106v0.741c0.318-0.106,0.529-0.318,0.741-0.529l1.058,0.529l-0.212,0.741l1.27,0.212
		v1.058l0.529-0.106c0.635,0.423,1.058,1.058,1.058,1.799c0,2.54-1.164,4.763-1.164,7.303c0,1.376,0.423,2.858,0.423,4.233
		c-0.318,0.212-0.635,0.318-0.953,0.318c-0.741,0-1.27-0.635-2.011-0.53c-2.54-1.482-4.763-6.244-4.763-9.208
		c0-1.588,1.164-7.091,3.175-7.091L100.145,37.071z M97.923,81.84c4.233-6.244,8.467-12.488,12.806-18.733
		c-1.693,1.799-3.493,3.598-4.657,5.61c-1.799,2.963-3.81,5.821-5.609,8.784c-1.164,1.799-2.646,3.388-3.598,5.292
		C97.182,82.475,97.711,82.158,97.923,81.84z M98.24,66.387v0.635c0.106-0.106,0.106-0.423,0.212-0.635
		C98.452,66.387,98.24,66.387,98.24,66.387z M101.839,78.348c-0.529,0.106-0.741,0.635-0.953,1.059L101.839,78.348z M103.109,76.549
		c-0.529,0.106-0.953,0.318-0.953,0.953v0.212L103.109,76.549z M106.601,72.103c0.318-0.529,0.635-1.058,0.847-1.693
		c-0.318,0.742-0.847,1.376-1.27,2.011L106.601,72.103z M108.93,69.034l0.318-0.318c-0.106,0-0.212,0-0.318-0.106
		c0.318-0.529,0.529-1.058,0.741-1.588l-1.27,1.799l0.529-0.212V69.034z M110.94,65.329l0.318-0.529v-0.422
		c-0.423,0.529-0.741,1.058-0.953,1.587l0.423-0.212L110.94,65.329c0.106,0.106,0.106,0.318,0.106,0.423
		c0.106-0.106,0.106-0.318,0.106-0.423H110.94z M111.046,65.752h-0.212c-0.106,0.106-0.106,0.212-0.106,0.318L111.046,65.752z
		 M111.258,64.906v0.212c0.106-0.106,0.106-0.106,0.106-0.212H111.258z M112.105,63.53c0-0.422,0.212-0.741,0.212-1.164
		l-0.953,1.799l0.423-0.212v0.318l0.212-0.318h-0.212L112.105,63.53z M112.105,63.53v0.318l0.212-0.318c0-0.105,0-0.317,0.106-0.422
		h-0.106c0,0.106-0.106,0.318,0,0.422H112.105z M113.904,60.037l-0.106,0.423l-0.423,0.106c0.212-0.213,0.423-0.53,0.423-0.848
		L113.904,60.037z M114.115,60.355l-0.212,0.106l-0.106,0.318L114.115,60.355z M114.433,57.604l0.212,0.105
		c-0.106,0.529-0.423,0.953-0.741,1.377C114.115,58.556,114.327,58.132,114.433,57.604z M114.856,58.556v-0.212h0.106v0.106
		L114.856,58.556z M115.068,58.026v0.318h-0.106L115.068,58.026z M115.068,58.45v-0.106h0.106L115.068,58.45z"/>
	<path class="st0" d="M104.907,75.173c0-2.328,0.529-4.551,0.953-6.773c1.164-6.034,2.963-12.277,2.963-18.416
		c0-0.741,0-1.376-0.529-1.904c-0.318-0.318-0.423-0.741-0.847-0.847l0.106-0.318c-0.423-0.318-1.376-0.741-1.376-1.27
		c0-0.847,1.905-1.27,2.54-1.27c1.164,0,2.858,0.529,3.81,1.164c3.598,2.434,4.868,4.657,4.868,8.996
		c0,2.858-2.963,14.923-2.963,15.03l0.106,0.423c5.927-8.679,11.959-17.781,20.215-24.449c0.953-0.847,2.011-1.482,3.387-1.482
		c1.164,0,3.598,0.953,4.339,1.905c0.529,0.635,0.635,1.693,0.635,2.54c0,1.27-0.318,2.54-0.635,3.704
		c-0.847,2.963-2.011,8.149-3.069,10.795l0.106,0.423c0.529-0.635,1.164-1.164,1.799-1.799c4.551-4.551,8.996-9.314,14.182-13.229
		l6.244-4.657c0.529-0.423,1.164-0.635,1.905-0.635c1.376,0,4.657,1.693,5.503,2.752c0.423,0.529,0.529,0.847,0.529,1.588
		c0,2.646-7.197,20.638-8.573,25.084c-0.953,3.175-1.799,6.456-2.752,9.737c-0.106,0.318-0.106,0.422-0.106,0.741
		c0,1.059,1.058,0.953,1.058,1.905c0,1.376-1.905,1.376-2.858,1.376c-2.328,0-5.715-2.011-6.033-4.55
		c-0.106-0.53-0.106-1.059-0.106-1.588c0-5.821,2.328-14.183,4.233-19.685c1.058-3.175,2.54-6.138,3.916-9.208
		c-8.044,5.187-14.923,15.875-21.379,23.073c-1.905,2.117-2.54,0.635-4.445,1.269l-3.069-1.904
		c-0.953-0.635-1.058-1.693-1.058-2.752c0-4.129,1.799-10.584,3.281-14.499c0.423-1.165,1.058-2.329,1.376-3.494
		c0.106-0.318,0.106-0.741,0.318-1.058h-0.106c-1.058,1.482-2.646,2.646-3.81,4.022c-5.927,7.197-10.16,15.77-16.194,22.967
		c-0.741,0.847-1.482,1.377-2.646,1.377C107.87,80.253,104.907,78.242,104.907,75.173z M110.304,74.748
		c1.482-6.243,2.858-12.489,4.128-18.733l-0.318-0.106c-1.376,6.244-2.752,12.595-4.233,18.84L110.304,74.748L110.304,74.748z
		 M123.322,62.472c-0.106,0.106-0.212,0.212-0.212,0.423L123.322,62.472z M124.169,57.921c-0.106,0.106-0.212,0.213-0.212,0.423
		L124.169,57.921z M131.472,65.329l-0.212,0.423h0.106l0.212-0.423H131.472z M131.789,64.165V64.06h-0.106L131.789,64.165z
		 M132.212,62.26c-0.106,0-0.106,0-0.106,0.105c0,0.106,0,0.106,0.106,0.106V62.26z M132.318,61.625h0.106l0.106-0.318
		L132.318,61.625z M132.847,60.355V60.25c-0.106,0.105-0.212,0.105-0.212,0.212C132.742,60.461,132.742,60.355,132.847,60.355z
		 M132.847,68.292l-0.106,0.107h0.106V68.292z M133.271,67.023v-0.53c-0.106,0.213-0.106,0.318-0.106,0.53H133.271z M133.8,65.435
		l-0.212-0.106l-0.318,0.953L133.8,65.435z M133.8,64.378v0.105l0.106-0.105H133.8z M134.329,56.44
		c0.847-2.224,2.223-4.763,2.54-7.197c-1.058,2.434-2.223,4.868-2.858,7.514L134.329,56.44z M134.117,63.53h-0.106v0.318h0.106
		V63.53z M134.329,62.789v-0.318c-0.106,0.106-0.106,0.212-0.106,0.318H134.329z M134.435,68.505l0.423,0.105
		c0.318-0.423,0.529-0.953,0.741-1.483c1.588-5.292,3.281-10.478,4.763-15.77c0.318-1.059,0.423-2.117,0.741-3.069l-0.318-0.106
		L134.435,68.505z M134.647,61.625h-0.106c0,0.106,0,0.106,0.106,0.212V61.625z M134.858,60.778h0.212v-1.059L134.858,60.778z
		 M135.493,58.873c-0.106,0.213-0.318,0.423-0.423,0.742c0.212-0.213,0.423-0.423,0.529-0.635L135.493,58.873z M138.033,51.676
		c-0.847,1.482-1.588,3.704-2.011,5.397C137.081,55.381,137.398,53.476,138.033,51.676z M138.668,50.089h-0.212l0.106,0.318
		L138.668,50.089z M139.409,58.238l0.106-0.105h-0.106V58.238z M153.274,74.114c0,0.105,0,0.105,0.106,0.105L153.274,74.114z
		 M153.591,72.633h-0.106v0.317h0.106V72.633z M153.697,71.892h0.212c0-0.423,0.106-0.953,0.106-1.376L153.697,71.892z
		 M154.015,70.516c0.635-0.953,0.847-2.117,0.847-3.282L154.015,70.516z M162.058,48.925c-2.963,5.821-5.609,11.854-7.197,18.204
		c0.741-1.164,1.058-2.433,1.482-3.704c1.058-2.858,2.011-5.821,3.281-8.573c0.847-1.905,2.011-3.81,2.646-5.821L162.058,48.925z
		 M154.967,75.595h0.106V75.49L154.967,75.595z M155.073,75.279l0.318-0.423h-0.212L155.073,75.279z M155.496,74.22v-0.318
		c-0.106,0.106-0.106,0.106-0.106,0.213L155.496,74.22z M156.025,81.417c0.847-2.328,1.27-4.869,1.905-7.303
		c1.27-4.763,2.963-9.526,4.763-14.183l4.233-11.113c0.212-0.529,0.212-1.058,0.318-1.588h-0.212
		c-2.752,6.668-5.715,13.229-7.832,20.215c-1.376,4.446-2.963,9.209-3.387,13.865L156.025,81.417z M164.916,47.549
		c-2.54,6.245-5.821,12.384-7.514,18.945c-0.423,1.588-0.741,3.494-1.376,5.081c0.635-1.058,0.953-2.646,1.376-3.81
		c1.376-3.916,2.752-7.832,4.233-11.748c1.058-2.858,2.54-5.503,3.493-8.361L164.916,47.549z M159.095,73.903
		c0,0.106,0,0.213,0.106,0.318h0.106c-0.106-0.105-0.106-0.212-0.106-0.318H159.095z M159.306,64.482l0.106,0.106v-0.106H159.306z
		 M159.518,63.953l0.106,0.106v-0.106H159.518z M159.624,72.633h-0.106l0.106,0.105V72.633z M160.365,70.41
		c0.106-0.106,0.106-0.106,0.106-0.212C160.471,70.303,160.365,70.303,160.365,70.41z M160.682,69.457l-0.106-0.105
		c0,0.105,0,0.212-0.106,0.318L160.682,69.457z M160.576,60.99v0.106l0.106-0.106H160.576z M160.788,60.461v0.106
		c0.106,0,0.106,0,0.106-0.106H160.788z M161.106,68.292v-0.105c-0.106,0.105-0.212,0.105-0.212,0.212
		C161,68.399,161,68.292,161.106,68.292z M161.211,59.508c0.106,0,0.106,0,0.106-0.106
		C161.211,59.402,161.211,59.402,161.211,59.508z M161.317,67.552h-0.106v0.212h0.106V67.552z M161.529,67.128v-0.105
		c-0.106,0-0.106,0-0.106,0.105H161.529z M163.011,62.896l-0.212-0.106v0.318L163.011,62.896z M163.434,61.414
		c-0.106,0.105-0.106,0.212-0.106,0.318h0.106V61.414z M163.963,60.778l-0.212-0.212c-0.106,0.105-0.106,0.105-0.106,0.212H163.963z
		 M164.81,58.238h-0.106c0,0.106,0,0.213-0.106,0.318L164.81,58.238z M165.021,57.286l-0.106,0.105h0.106V57.286z M165.127,56.756
		l0.106,0.106v-0.106H165.127z M165.445,56.227l-0.106,0.106h0.106V56.227z M165.551,55.804h0.106v-0.106L165.551,55.804z
		 M165.974,55.063l-0.106,0.106h0.106V55.063z M166.609,53.158c0,0.105,0,0.105,0.106,0.105v-0.105H166.609z M167.244,51.57v0.212
		c0-0.105,0-0.105,0.106-0.212H167.244z"/>
	<path class="st0" d="M175.075,77.501l-0.635,3.704c-1.376,8.044-2.963,16.51-2.963,24.661c0,0.952,0.423,1.693,0.423,2.646
		c0,0.635-2.328,1.164-2.858,1.164c-0.529,0-2.434-0.742-3.069-0.953c-2.54-1.058-2.646-3.175-2.646-5.609
		c0-6.35,1.27-12.806,2.117-19.156l3.069-22.331c0.529-3.916,1.482-7.832,1.482-11.748c0-2.117-1.376-2.434-1.376-3.598
		c0-0.847,0.847-0.953,1.482-0.953c2.54,0,5.927,3.069,6.879,5.292c0.741,1.694,0.423,3.493,1.058,5.187
		c0.212-0.213,0.318-0.423,0.423-0.635c1.376-2.434,3.069-4.763,4.868-6.879c2.223-2.434,8.255-6.879,11.536-6.879
		c3.493,0,7.514,3.387,7.514,6.985c0,0.529-0.106,1.27-0.212,1.799c-2.117,9.314-12.489,21.696-21.379,25.189
		c-0.847,0.318-3.281,1.059-4.128,1.059c-0.318,0-0.529-0.213-0.847-0.213C175.075,76.23,175.181,76.972,175.075,77.501z
		 M166.291,92.106h-0.106c0,0.106,0,0.106,0.106,0.213V92.106z M166.501,90.836l-0.106,0.105h0.106V90.836z M166.714,89.566h-0.106
		v0.635h0.106V89.566z M166.714,87.978l0.212,0.106c0-0.212,0.106-0.422,0.106-0.635L166.714,87.978z M167.561,97.292h0.106v-0.423
		h-0.106V97.292z M167.772,81.629h0.106v-0.423h-0.106V81.629z M168.196,78.559l0.106-0.105h-0.106V78.559z M168.407,77.077v0.213
		c0-0.106,0-0.106,0.106-0.213H168.407z M168.407,91.26h0.106v-0.422h-0.106V91.26z M168.724,87.767c0,0.106,0,0.106,0.106,0.212
		c0-0.105,0-0.105,0.106-0.212H168.724z M173.17,72.527h-0.212c-0.423,1.058-1.376,8.996-1.693,10.901
		c-0.741,4.657-2.434,14.394-2.434,19.474c0,0.741,0.106,1.587,0.106,2.328h0.212c0-2.011,0.318-3.916,0.529-5.927
		c0.529-3.81,0.847-7.726,1.376-11.536l1.376-9.737c0.212-1.482,0.635-3.068,0.741-4.55v-0.953H173.17z M169.571,82.793v0.106h0.106
		L169.571,82.793z M169.889,81.311h-0.106v0.318h0.106V81.311z M173.382,70.938l-0.106,0.106h0.106V70.938z M173.487,70.516h0.106
		v-0.213h-0.106V70.516z M174.334,63.53c0.106,0,0.212,0,0.318,0.106v-0.847L174.334,63.53z M174.969,61.732
		c-0.212,0.105-0.318,0.212-0.318,0.422v0.529L174.969,61.732z M174.969,61.732l-0.106-0.423h-0.106L174.969,61.732z
		 M178.356,64.165c1.482-4.022,3.387-7.409,5.503-11.219c-0.212,0.213-0.423,0.318-0.529,0.53c-2.963,4.55-5.503,9.737-6.773,15.03
		C177.297,67.128,177.827,65.647,178.356,64.165z M176.874,72.42c8.044-3.915,15.77-12.594,19.474-20.639
		c0.741-1.693,1.693-4.128,1.693-6.033c0-0.635-0.212-1.27-0.741-1.693c-3.387,0.635-6.244,2.858-8.679,5.186
		c-5.292,5.186-7.726,12.171-10.372,18.945c-0.529,1.376-1.058,2.752-1.482,4.129L176.874,72.42z M178.144,58.238
		c0.318-0.318,1.27-2.116,1.376-2.54L178.144,58.238z M181.637,54.322v0.212c0-0.106,0-0.106,0.106-0.212H181.637z M192.749,64.165
		l0.106-0.212l-0.318,0.318L192.749,64.165z M200.37,51.253l-0.318,0.423c-0.741,1.376-1.27,2.858-2.011,4.232
		c-1.376,2.541-2.858,4.869-4.445,7.197c2.434-2.752,4.657-6.034,5.927-9.419L200.37,51.253z M193.596,59.086
		c0.423-0.53,0.847-0.953,1.058-1.588C194.443,57.604,193.702,58.768,193.596,59.086z M194.655,57.391
		c0.423-0.422,0.635-0.847,0.847-1.376L194.655,57.391z M195.607,55.91c0.106-0.105,0.212-0.212,0.212-0.422
		C195.713,55.592,195.607,55.698,195.607,55.91z M196.983,53.264c-0.423,0.742-0.847,1.482-1.164,2.224L196.983,53.264z
		 M198.147,50.724c0-0.106-0.106-0.106-0.106-0.212v0.212H198.147z M200.581,50.195v0.212c0-0.106,0.106-0.106,0.106-0.212H200.581z
		"/>
	<path class="st0" d="M216.244,6.484c3.068,0,6.456,4.868,6.456,7.832c0,4.339-4.869,19.05-6.351,24.025
		c-0.847,2.858-1.904,5.715-2.751,8.573l-5.715,20.426c-1.905,6.774-3.387,13.97-3.387,20.955c0,2.012,0.423,3.916,0.953,5.927
		c0.318,1.27,0.847,2.646,0.953,3.916c-0.318,0-0.635,0.106-0.953,0.106c-2.858,0-5.186-2.012-6.773-4.233
		c-1.905-2.646-2.117-6.138-2.117-9.314c0-13.125,6.985-37.996,11.113-51.014c1.27-3.916,8.573-22.331,8.573-24.448
		c0-0.741-0.318-1.482-0.742-2.117C215.609,6.802,215.927,6.484,216.244,6.484z M202.909,79.512
		c0.529-3.281,1.058-6.456,1.905-9.737c1.27-5.08,2.434-10.16,3.81-15.24c2.011-7.091,4.55-14.076,6.243-21.273
		c-1.376,2.117-6.773,22.014-7.937,26.037c-2.117,7.303-3.81,14.818-4.551,22.438C202.591,80.994,202.803,80.253,202.909,79.512z
		 M215.714,30.932c-0.422,0.318-0.529,0.635-0.529,1.164L215.714,30.932z M216.031,29.98l-0.212-0.106
		c-0.106,0.318-0.106,0.741-0.106,1.058L216.031,29.98z M216.562,28.181l-0.106-0.106v0.106H216.562z"/>
	<path class="st0" d="M234.976,59.72l0.847-0.847l-0.106,0.635l0.318-0.635h-0.212l0.212-0.318v0.318l0.213-0.422h0.105l0.423-0.742
		l0.212,0.106c-1.904,4.868-5.186,9.419-7.938,13.865c-1.588,2.54-3.069,5.186-4.763,7.62c-2.117,3.068-5.503,7.726-7.938,10.372
		c-0.635,0.635-1.27,0.741-2.117,0.741c-3.068,0-5.291-1.693-5.291-4.868c0-5.715,1.376-11.748,2.858-17.145
		c1.164-4.234,2.223-8.467,2.54-12.807V55.17c0-0.529-0.318-1.059-0.318-1.588c0-0.422,0.635-0.635,0.953-0.741
		c4.657,0.635,8.467,3.068,8.467,8.149c0,4.022-1.376,7.62-2.54,11.43l-2.328,7.833c0,0.105-0.106,0.105-0.106,0.212
		c0,0,0.106,0.212,0.106,0.318c2.963-3.705,5.503-7.833,8.149-11.748c1.588-2.328,3.493-4.446,5.186-6.669
		c0.953-1.164,1.588-2.751,2.752-3.81l-0.529,0.953l0.741-0.847c-1.693,2.858-3.81,5.503-5.186,8.573
		c0.741-0.847,1.482-1.693,2.011-2.646c1.058-1.799,1.799-4.022,3.388-5.503L234.976,59.72z M214.231,85.968
		c1.588-6.138,3.388-12.277,5.08-18.415c-1.27,2.223-1.588,4.764-2.328,7.197c-1.058,3.705-2.434,7.409-2.963,11.219L214.231,85.968
		L214.231,85.968z M221.322,37.071l0.529,0.106v0.741c0.318-0.106,0.53-0.318,0.742-0.529l1.058,0.529l-0.212,0.741l1.27,0.212
		v1.058l0.529-0.106c0.635,0.423,1.058,1.058,1.058,1.799c0,2.54-1.164,4.763-1.164,7.303c0,1.376,0.423,2.858,0.423,4.233
		c-0.318,0.212-0.635,0.318-0.953,0.318c-0.741,0-1.27-0.635-2.011-0.53c-2.54-1.482-4.763-6.244-4.763-9.208
		c0-1.588,1.164-7.091,3.175-7.091L221.322,37.071z M219.101,81.84c4.232-6.244,8.467-12.488,12.806-18.733
		c-1.693,1.799-3.493,3.598-4.657,5.61c-1.799,2.963-3.81,5.821-5.609,8.784c-1.164,1.799-2.646,3.388-3.598,5.292
		C218.359,82.475,218.889,82.158,219.101,81.84z M219.418,66.387v0.635c0.105-0.106,0.105-0.423,0.212-0.635H219.418z
		 M223.016,78.348c-0.529,0.106-0.741,0.635-0.952,1.059L223.016,78.348z M224.287,76.549c-0.529,0.106-0.953,0.318-0.953,0.953
		v0.212L224.287,76.549z M227.778,72.103c0.318-0.529,0.635-1.058,0.847-1.693c-0.317,0.742-0.847,1.376-1.269,2.011L227.778,72.103
		z M230.107,69.034l0.318-0.318c-0.105,0-0.212,0-0.318-0.106c0.318-0.529,0.53-1.058,0.742-1.588l-1.27,1.799l0.529-0.212
		L230.107,69.034L230.107,69.034z M232.118,65.329l0.318-0.529v-0.422c-0.423,0.529-0.742,1.058-0.953,1.587l0.422-0.212
		L232.118,65.329c0.105,0.106,0.105,0.318,0.105,0.423c0.106-0.106,0.106-0.318,0.106-0.423H232.118z M232.224,65.752h-0.212
		c-0.106,0.106-0.106,0.212-0.106,0.318L232.224,65.752z M232.436,64.906v0.212c0.105-0.106,0.105-0.106,0.105-0.212H232.436z
		 M233.283,63.53c0-0.422,0.212-0.741,0.212-1.164l-0.953,1.799l0.423-0.212v0.318l0.212-0.318h-0.212L233.283,63.53z
		 M233.283,63.53v0.318l0.212-0.318c0-0.105,0-0.317,0.106-0.422h-0.106c0,0.106-0.106,0.318,0,0.422H233.283z M235.082,60.037
		l-0.106,0.423l-0.423,0.106c0.213-0.213,0.423-0.53,0.423-0.848L235.082,60.037z M235.294,60.355l-0.212,0.106l-0.106,0.318
		L235.294,60.355z M235.611,57.604l0.212,0.105c-0.106,0.529-0.423,0.953-0.741,1.377C235.294,58.556,235.505,58.132,235.611,57.604
		z M236.033,58.556v-0.212h0.106v0.106L236.033,58.556z M236.246,58.026v0.318h-0.106L236.246,58.026z M236.246,58.45v-0.106h0.105
		L236.246,58.45z"/>
	<path class="st0" d="M255.931,33.684c0,1.799-0.423,3.069-0.953,4.763c-0.212,0.741-0.318,1.482-0.423,2.223
		c-0.635,2.328-1.587,4.763-2.646,6.985c-2.751,5.609-7.303,9.949-11.642,14.393c-1.376,1.377-2.011,2.541-2.224,4.445
		c-0.105,0.848-0.318,1.799-0.529,2.646c3.598,0.106,8.467-3.387,9.525-3.387c0.105,0,2.963,0.741,3.387,0.847
		c-0.318,2.646-8.36,4.764-10.688,5.292c0.105,0.423,0.212,0.742,0.422,1.164c2.117,4.445,3.069,10.901,3.069,15.77
		c0,5.292-0.953,11.959-3.175,16.827c-1.164,2.541-2.963,4.023-5.822,4.023c-0.847,0-1.799-0.106-2.646-0.423
		c-2.54-0.741-3.597-2.858-4.128-5.292c-0.847-3.704-1.164-7.62-1.164-11.43c0-1.693,0.106-3.388,0.213-5.08
		c0.212-2.117,0.105-4.232,0.317-6.35c1.482-16.3,6.351-37.678,15.241-51.437c1.376-2.223,3.81-4.657,6.561-4.657
		C253.496,25.006,255.931,29.451,255.931,33.684z M228.624,89.037h-0.105c0,0.105,0,0.212,0.105,0.318V89.037z M228.941,82.369
		h-0.105v0.848h0.105V82.369z M229.471,77.077l-0.105-0.105v0.422h0.105V77.077z M229.788,74.431h-0.105v0.53h0.105V74.431z
		 M230.318,71.151v-0.318h-0.106v0.318H230.318z M230.636,92.847h-0.213c0,0.741,0.106,1.376,0.106,2.117
		C230.636,94.223,230.636,93.587,230.636,92.847z M230.53,69.139h0.106v-0.318h-0.106V69.139z M230.847,86.18h-0.106v0.952h0.106
		V86.18z M231.165,82.899v-0.635h-0.106v0.635H231.165z M231.694,63.424v-0.529c-0.106,0.212-0.106,0.318-0.106,0.529H231.694z
		 M232.012,62.26l-0.106-0.106c-0.105,0.212-0.212,0.423-0.212,0.635L232.012,62.26z M232.118,60.884c0,0.106,0,0.106,0.105,0.106
		v-0.106H232.118z M232.223,72.42h-0.105l0.105,0.106V72.42z M233.176,87.026c0.318-5.187,0.847-10.479,1.27-15.664
		c-1.482,4.232-2.224,19.474-2.224,24.342c0,2.328,0,4.763,0.529,6.985C232.858,97.504,232.858,92.212,233.176,87.026z
		 M232.434,60.037h0.106v-0.422h-0.106V60.037z M232.752,58.768v0.105h0.106C232.752,58.873,232.752,58.873,232.752,58.768z
		 M232.964,57.604v0.105h0.105v-0.105H232.964z M233.705,55.486l-0.106-0.106l-0.317,0.318L233.705,55.486z M233.916,54.322v-0.318
		c-0.105,0.105-0.105,0.105-0.105,0.212L233.916,54.322z M234.233,53.37l-0.105-0.106l-0.213,0.423L234.233,53.37z M234.869,51.148
		c-0.212,0-0.318,0-0.529,0.105l0.318,0.318C234.763,51.465,234.869,51.253,234.869,51.148z M234.446,60.672h-0.106v0.106h0.106
		V60.672z M235.293,67.023c-0.106,0-0.213,0-0.318-0.106l-0.423,1.8c0.106,0,0.213,0,0.318,0.105
		C235.08,68.188,235.187,67.657,235.293,67.023z M234.869,51.041l0.106-0.318h-0.106V51.041z M235.187,49.983h0.106v-0.422h-0.106
		V49.983z M235.187,57.18v0.106h0.106V57.18H235.187z M237.515,85.968c0-2.751-0.212-5.609-0.953-8.255
		c-1.058,5.187-1.269,13.229-1.269,18.627c0,1.058,0,2.328,0.212,3.388C236.879,95.916,237.515,89.99,237.515,85.968z
		 M235.715,48.607c0.106-0.106,0.106-0.318,0.106-0.423l-0.212,0.318v0.106C235.609,48.607,235.715,48.607,235.715,48.607z
		 M236.245,46.914l0.105-0.318h-0.105V46.914z M246.088,32.732c0.318-0.529,0.423-1.058,0.635-1.588
		c-5.08,7.938-8.149,19.368-10.266,28.47l0.318,0.105C238.785,50.618,241.853,41.093,246.088,32.732z M236.562,45.644l0.106,0.106
		v-0.318L236.562,45.644z M236.774,45.326l0.635-1.376l-0.742,1.27v0.212L236.774,45.326z M236.879,51.041v0.106l0.106-0.106
		H236.879z M237.409,43.527c0-0.212,0.105-0.423,0.105-0.635l0.318-0.529v-0.106l-0.422,0.635L237.409,43.527L237.409,43.527z
		 M237.621,97.504h0.105v-0.318h-0.105V97.504z M237.833,42.257l0.318-0.212c-0.106-0.106-0.106-0.106-0.212-0.106L237.833,42.257z
		 M237.833,96.233l0.318-0.318l-0.212-1.058C237.938,95.282,237.938,95.811,237.833,96.233z M238.361,94.117
		c0-0.318-0.105-0.635-0.105-0.953l-0.318,1.693C238.256,94.647,238.361,94.435,238.361,94.117z M238.361,92.953v-0.106
		l-0.105,0.106H238.361z M238.361,92.847c0.213-0.318,0.318-0.635,0.318-0.953c0-0.529-0.105-0.953-0.105-1.376
		C238.468,91.26,238.361,92.106,238.361,92.847z M238.785,45.538h-0.212l0.212,0.212V45.538z M238.573,45.961l0.212-0.212
		C238.678,45.855,238.573,45.855,238.573,45.961z M238.573,90.201c0.318-0.529,0.422-1.059,0.422-1.693
		c0-0.847-0.212-1.694-0.212-2.541V85.65C238.678,87.132,238.573,88.72,238.573,90.201z M238.785,40.034l0.529-0.847v-0.212
		l-0.422,0.741C238.891,39.823,238.891,39.929,238.785,40.034z M239.314,38.87c0.742-1.376,1.376-2.858,2.011-4.233
		C240.267,35.801,239.632,37.283,239.314,38.87z M239.314,43.633v0.106h0.106C239.42,43.633,239.42,43.633,239.314,43.633z
		 M253.39,33.578c0-0.529,0-0.953-0.105-1.376c-0.106,0.212-0.213,0.318-0.213,0.529c-0.634,5.292-2.433,10.266-5.079,14.923
		c-2.224,3.704-5.292,6.879-8.15,10.054C245.559,52.946,253.39,41.199,253.39,33.578z M239.843,100.468h0.106v-0.106
		L239.843,100.468z M240.161,41.41v0.106l0.106-0.106H240.161z M240.584,98.245c0.212-1.482,0.635-2.963,0.741-4.445
		c0.213-2.328,0.318-4.763,0.423-7.091l-1.588,12.065L240.584,98.245z M240.161,99.409h0.106c0-0.213,0-0.423-0.106-0.635V99.409z
		 M248.205,32.626c-3.705,7.197-5.821,15.346-7.938,23.072h0.212c1.376-1.376,2.858-2.752,4.128-4.233
		c3.81-4.445,7.938-13.652,7.938-19.58c0-1.058,0-2.646-0.847-3.387C250.109,29.451,249.051,31.038,248.205,32.626z M241.219,39.082
		l-0.106,0.106v0.106l0.106-0.106V39.082z M241.643,33.896l0.318-0.635l-0.318,0.529V33.896z M242.066,32.943l0.212-0.212
		l0.212-0.741l0.106-0.106h-0.212c0,0.212-0.106,0.529-0.106,0.741L242.066,32.943z M242.913,31.567
		c-0.106,0.212-0.212,0.318-0.318,0.318h0.318V31.567z M243.124,31.038c0,0.106-0.106,0.212-0.106,0.212s0.106,0,0.106-0.106V31.038
		z M243.23,30.615c0,0-0.106,0.106-0.106,0.212C243.124,30.721,243.23,30.721,243.23,30.615z M243.23,30.509
		c0,0,0.105-0.106,0.212-0.106h-0.212V30.509z M243.442,30.403h0.212c0-0.106,0.106-0.212,0.106-0.318
		c0,0.106-0.106,0.106-0.106,0.212C243.548,30.403,243.442,30.403,243.442,30.403z M243.865,29.557l0.318-0.106l0.105-0.106h-0.105
		L243.865,29.557z M244.183,32.626V32.52l-0.106,0.106H244.183z M245.664,53.476h-0.106l-0.212,0.318L245.664,53.476z
		 M246.405,52.629c-0.106,0.106-0.423,0.318-0.423,0.53C246.194,53.052,246.299,52.84,246.405,52.629z M247.252,52.946
		c-0.318,0.318-0.741,0.53-0.953,0.953C246.616,53.687,247.04,53.37,247.252,52.946z M247.04,52.1h-0.106l-0.529,0.529
		C246.616,52.523,246.829,52.312,247.04,52.1z M246.829,31.038l0.422-0.318l-0.318,0.106L246.829,31.038z M253.814,41.199
		l0.318-0.847h-0.106l0.529-1.588l0.423-0.318c-0.106-0.318-0.106-0.635-0.106-0.953c0.423-0.953,0.529-2.011,0.529-3.069
		c0-0.635,0-1.376-0.105-2.117h-1.059c-0.212,0.953-0.105,1.905-0.318,2.858c-0.847,4.339-2.223,8.467-4.232,12.277
		c-0.635,1.164-1.376,2.224-2.011,3.281l-0.635,1.27c0.953-0.953,1.904-2.224,2.646-3.388v0.529l0.529-0.318v-0.529l-0.529,0.318
		l0.529-0.847v0.529h0.318v0.529l0.212-0.529h-0.212l0.212-0.318l0.106,0.212l0.212-0.212h-0.212l0.212-0.529v0.423l0.212-0.423
		l-0.212-0.106v-0.529l-0.529,0.212l1.588-3.493v0.106l0.847-2.117c0,0.529-0.106,0.953-0.213,1.482l0.423-0.212l0.106,0.106
		c0.105-0.318,0.212-0.529,0.212-0.847L253.814,41.199l-0.106-0.106C253.814,41.093,253.814,41.093,253.814,41.199z M247.358,30.403
		c0,0.106-0.106,0.212-0.106,0.318h0.106V30.403z M247.358,30.403c0-0.106,0-0.318,0.105-0.423l0.106-0.106l-0.212,0.106
		L247.358,30.403L247.358,30.403z M247.675,52.205l-0.318,0.741l0.212-0.105h0.212c-0.105,0-0.105-0.106-0.212-0.106
		C247.675,52.523,247.675,52.417,247.675,52.205z M247.993,51.782l-0.318,0.318v0.106L247.993,51.782z M248.416,51.57l-0.105-0.106
		l-0.318,0.318C248.205,51.782,248.31,51.676,248.416,51.57z M248.099,52.84h0.106v-0.106h-0.106V52.84z M248.522,51.041
		c-0.106,0.212-0.106,0.318-0.106,0.529C248.522,51.359,248.522,51.253,248.522,51.041z M248.944,50.618h-0.105l-0.318,0.213
		C248.627,50.831,248.84,50.724,248.944,50.618z M248.734,51.57c0.106,0.106,0.212,0.106,0.318,0.106L248.734,51.57z
		 M249.051,50.724V50.3c-0.106,0.106-0.106,0.213-0.106,0.318L249.051,50.724z M249.051,50.089c0-0.106,0.318-0.212,0.423-0.318
		h-0.106l-0.318,0.212L249.051,50.089L249.051,50.089z M249.686,49.242c-0.106,0.212-0.212,0.318-0.212,0.529h0.105
		C249.58,49.56,249.686,49.454,249.686,49.242z M251.062,46.808h0.318v0.529l0.212-0.529h-0.212v-0.529L251.062,46.808z
		 M251.697,46.808h-0.106v0.106L251.697,46.808z M252.12,44.585l-0.213,0.423h0.213V44.585z M252.226,43.527v0.953
		c0.529-0.212,0.529-0.953,0.529-1.482C252.544,43.209,252.332,43.315,252.226,43.527z M252.332,45.432c0-0.106,0-0.318,0.106-0.423
		h-0.213C252.226,45.114,252.226,45.326,252.332,45.432z M252.438,44.903c0.105-0.106,0.212-0.318,0.212-0.423h-0.212V44.903z
		 M253.072,42.998v0.423l0.213-0.423H253.072z M254.554,38.447v-0.212h0.106C254.661,38.235,254.554,38.341,254.554,38.447z"/>
	<path class="st0" d="M283.235,49.136l-0.847,4.445c-0.318,1.377-0.635,2.752-0.847,4.128c-0.742,3.81-1.059,7.726-1.377,11.537
		c-0.422,4.657-0.741,9.208-1.269,13.864c-0.423,4.445-0.953,8.996-1.799,13.335c-1.905,9.842-6.351,22.543-14.076,29.422
		c-2.012,1.799-4.445,3.281-7.197,3.281c-2.223,0-4.55-0.953-6.35-2.117c-2.752-1.799-3.388-4.763-3.388-7.833
		c0-2.328,0.212-4.974,0.847-7.196c1.059-3.81,7.726-21.062,12.065-21.062c0.953,0,3.176,1.164,3.916,1.799
		c-3.069,1.905-4.445,4.974-5.821,8.15c-2.117,4.762-3.81,8.679-4.869,13.759c0,0.106-0.105,0.212-0.105,0.318
		c-0.318,1.376-0.53,2.646-0.53,4.022c0,2.328,0.953,3.916,1.482,6.034l2.329-1.905c2.962-2.54,5.608-7.832,7.09-11.324
		c4.869-11.431,6.244-23.496,8.361-35.562c0.423-2.223,0.635-4.445,0.635-6.668c-2.011,3.281-8.784,13.547-12.807,13.547
		c-0.741,0-0.952-0.212-1.587-0.529l-1.059-0.529c-3.387-1.694-5.821-2.963-5.821-7.621c0-4.339,2.011-9.737,3.281-13.97
		c1.058-3.493,2.646-7.409,2.646-11.113c0-1.27-0.318-2.646-0.318-3.916c4.869,0.953,6.879,6.456,6.879,10.901
		c0,6.138-2.011,11.854-3.388,17.781v1.164c6.669-7.092,11.325-15.03,15.346-23.708c0.847-1.904,2.117-4.022,3.493-5.609l1.27-1.164
		l0.212,1.693c-0.318,0.106-0.318,0.212-0.318,0.423c0.106-0.318,0.213-0.318,0.318-0.423c0.318-0.106,0.742-0.212,0.953-0.529
		C281.436,47.02,282.388,47.972,283.235,49.136z M247.992,113.803c0-0.106,0-0.318-0.106-0.423v0.742
		C247.992,114.014,247.992,113.909,247.992,113.803z M248.204,112.215c0-0.106-0.106-0.106-0.106-0.318v0.635
		C248.098,112.427,248.204,112.321,248.204,112.215z M249.368,109.146c0,0.105-0.212,0.317-0.318,0.634
		c-0.212,0-0.212,0.213-0.212,0.423c0.212-0.106,0.212-0.212,0.212-0.423h0.106C249.262,109.569,249.368,109.358,249.368,109.146z
		 M249.474,108.723c0-0.423,0-0.529-0.106-0.635C249.368,108.299,249.368,108.511,249.474,108.723z M250.003,107.029l-0.106,0.529
		C250.003,107.453,250.003,107.241,250.003,107.029z M250.214,106.077l-0.106,0.847
		C250.214,106.606,250.214,106.288,250.214,106.077z M251.061,104.701c0.106-0.213,0.106-0.318,0.106-0.53
		c-0.106,0.213-0.318,0.635-0.529,0.953L251.061,104.701z M250.849,112.956c0-0.106-0.106-0.213-0.106-0.318v0.422
		C250.849,112.956,250.849,112.956,250.849,112.956z M251.167,103.96c0.318-0.635,0.847-1.164,1.27-1.799
		C251.273,102.373,251.167,102.902,251.167,103.96z M251.484,110.522c0-0.106-0.106-0.318-0.106-0.529
		c-0.105,0.212-0.212,0.529-0.212,0.847C251.379,110.839,251.484,110.734,251.484,110.522z M252.437,101.525
		c0-0.212,0.105-0.422,0.105-0.529c0.106-0.212,0.212-0.529,0.212-0.741c-0.105,0.212-0.212,0.422-0.212,0.741
		C252.437,101.103,252.437,101.314,252.437,101.525z M252.543,107.453c-0.105,0.106-0.105,0.318-0.105,0.423
		C252.543,107.77,252.543,107.559,252.543,107.453z M253.284,105.124l-0.213,0.529c0,0.318-0.105,0.742-0.422,1.377l0.318-0.318
		L253.284,105.124z M252.86,100.15c0.106,0,0.318,0,0.423-0.106C253.178,100.043,252.966,100.043,252.86,100.15z M253.178,99.515
		c0,0.106,0,0.318,0.106,0.423l0.635-1.164C253.495,98.774,253.178,98.986,253.178,99.515z M253.813,104.383
		c0,0-0.106,0-0.212,0.105L253.813,104.383z M254.448,97.292c0.212,0,0.318-0.106,0.529-0.106l0.212-0.741
		C254.871,96.763,254.871,96.975,254.448,97.292z M254.66,102.796c0-0.106-0.106-0.212-0.106-0.318v0.423
		C254.66,102.796,254.66,102.796,254.66,102.796z M255.717,95.387l0.106-0.318C255.717,95.176,255.717,95.282,255.717,95.387z
		 M255.824,94.751c0,0,0.106,0,0.212-0.105c0-0.106,0.106-0.212,0.213-0.212c-0.106,0-0.318,0.105-0.423,0.212
		C255.824,94.751,255.824,94.751,255.824,94.751z M256.988,97.61c0.318,0,0.318-0.213,0.529-0.213c0-0.317,0.213-0.529,0.213-0.847
		l-0.318,0.742C257.305,97.397,257.094,97.397,256.988,97.61z M258.787,94.647c0.106,0,0.212,0.105,0.212,0.212
		c0-0.318,0.106-0.422,0.106-0.422C258.999,94.435,258.893,94.435,258.787,94.647z M262.915,73.691
		c-0.106,0.106-0.212,0.212-0.212,0.318L262.915,73.691z M264.291,76.866c-0.105,0.106-0.318,0.106-0.529,0.212
		C263.973,77.077,264.079,77.077,264.291,76.866z M264.291,113.062c-0.105,0.106-0.212,0.106-0.212,0.423l0.106-0.106
		C264.185,113.274,264.185,113.168,264.291,113.062z M266.196,73.903c-0.106,0.318-0.212,0.529-1.059,1.27
		c0,0-0.212,0.106-0.317,0.422c0-0.105,0.317-0.317,0.422-0.422c0.106,0,0.318,0,0.423-0.106l0.318-0.318
		C266.09,74.538,266.196,74.114,266.196,73.903z M265.666,69.881l0.105-0.423C265.666,69.563,265.666,69.774,265.666,69.881z
		 M266.407,108.088c-0.212,0.318-0.635,0.953-0.741,1.588C265.984,109.146,266.196,108.617,266.407,108.088z M267.466,67.234
		l0.422-0.212c-0.106,0-0.318,0-0.422,0.105l-0.213,0.742l-0.422,0.212c-0.318,0.318-0.423,0.741-0.53,1.164
		c0.106-0.423,0.635-1.271,1.059-1.271C267.36,67.763,267.466,67.446,267.466,67.234z M267.677,103.325l-1.059,3.493
		c-0.105,0.106-0.212,0.318-0.212,0.53c0-0.213,0.106-0.318,0.212-0.423l0.318-0.106
		C267.254,105.653,267.466,104.489,267.677,103.325z M266.936,116.131c-0.105,0.212-0.105,0.422-0.105,0.635
		C266.936,116.555,266.936,116.343,266.936,116.131z M267.148,72.527c-0.106,0.212-0.106,0.422-0.106,0.529
		C267.042,72.949,267.148,72.739,267.148,72.527z M267.995,71.998c-0.213,0-0.318,0.212-0.423,0.318
		C267.783,72.209,267.889,72.209,267.995,71.998z M273.816,97.822c-0.635,0.953-3.916,11.748-4.763,13.971
		c-0.422,0.952-0.741,2.011-1.27,2.963C270.323,113.379,273.287,100.15,273.816,97.822z M268.947,65.223l0.317-0.213
		c-0.105,0.106-0.317,0.106-0.529,0.213c0,0.212-0.105,0.529-0.105,0.741c-0.213,0-0.423,0.106-0.635,0.106
		c-0.106,0.212-0.106,0.422-0.106,0.635c0-0.106,0.106-0.318,0.106-0.53c0.212-0.105,0.529-0.105,0.635-0.212
		C268.736,65.752,268.736,65.435,268.947,65.223z M268.736,70.938l-0.529,0.213c-0.106,0.212-0.212,0.529-0.212,0.741
		c0-0.106,0.212-0.318,0.212-0.635C268.312,71.151,268.63,71.151,268.736,70.938z M268.312,101.525c0,0.106,0,0.213,0.105,0.318
		c0.106-0.212,0.106-0.422,0.106-0.634C268.312,101.42,268.312,101.42,268.312,101.525z M268.736,100.362
		c0,0.106,0,0.106,0.106,0.106v-0.423C268.842,100.15,268.736,100.362,268.736,100.362z M269.688,69.246
		c0,0.106-0.106,0.212-0.106,0.423c-0.422,0-0.422,0.105-0.422,0.212v0.106c0.105-0.213,0.318-0.213,0.422-0.318L269.688,69.246z
		 M270.747,63.001c-0.422,0-0.529,0.213-0.634,0.318c-0.106,0.212-0.106,0.318-0.423,0.635c0.106,0,0.212,0,0.318,0
		c0-0.212,0.106-0.423,0.106-0.635C270.323,63.213,270.641,63.213,270.747,63.001z M269.688,104.595l0.318-0.423v-0.529
		C269.9,103.748,269.9,103.96,269.688,104.595z M270.641,67.869c-0.318,0.212-0.318,0.422-0.423,0.636
		C270.641,68.292,270.641,68.081,270.641,67.869z M271.17,61.625c0.106-0.212,0.106-0.318,0.423-0.635l-0.635,0.529
		c0,0.213-0.106,0.529-0.106,0.742L271.17,61.625z M271.805,66.07l0.105-0.106l0.213-0.741c-0.106,0.212-0.213,0.422-0.213,0.741
		l-0.529,0.106v0.318C271.487,66.282,271.593,66.176,271.805,66.07z M271.805,60.672c0.105-0.318,0.105-0.529,0.318-0.847v-0.423
		l-0.213,0.423C271.911,60.143,271.805,60.355,271.805,60.672z M272.546,58.768l0.635-0.423
		C272.863,58.45,272.652,58.661,272.546,58.768z M273.181,58.238c0.106-0.422,0.318-0.952,0.635-1.164
		c0-0.318,0.106-0.634,0.106-0.952C273.922,56.862,273.181,57.391,273.181,58.238z M274.239,96.552c-0.318,0-0.53,0.106-0.53,0.423
		c0,0.212,0.106,0.422,0.106,0.635C273.922,97.187,274.027,96.869,274.239,96.552z M274.239,96.446l-0.213-1.059
		C274.027,95.705,274.027,96.128,274.239,96.446z"/>
</g>
<circle class="st0" cx="290.434" cy="98.056" r="2.566"/>
<g>
	<path class="st0" d="M83.427,8.689c1.367,0.34,2.378,1.037,3.029,2.089c0.651,1.054,1.073,2.32,1.266,3.8
		c0.194,1.479,0.172,3.03-0.064,4.651c-0.237,1.623-0.577,3.198-1.017,4.726c-0.442,1.531-0.939,2.909-1.494,4.141
		c-0.555,1.231-1.046,2.127-1.475,2.683c-0.216-0.136-0.455-0.175-0.718-0.116l-0.293-0.073c-0.177,0.04-0.273,0.016-0.293-0.072
		c-1.574-0.015-2.887,0.301-3.939,0.952c-1.054,0.651-1.899,1.511-2.536,2.576c-0.639,1.067-1.022,2.236-1.151,3.51
		c-0.129,1.275,0.03,2.508,0.483,3.698c-0.832-0.828-1.312-2.15-1.443-3.967c-0.184,1.242-0.065,2.484,0.352,3.728
		c0.418,1.245,1.203,2.384,2.358,3.416c-1.641,0.091-3.031-0.242-4.169-1.003c-1.139-0.759-2.029-1.736-2.665-2.933
		c-0.637-1.194-1.083-2.456-1.333-3.784c-0.252-1.327-0.31-2.513-0.175-3.56c-0.574,1.976-0.707,3.85-0.4,5.626
		c0.306,1.779,0.918,3.278,1.84,4.501c0.919,1.225,2.168,2.168,3.748,2.828c1.578,0.663,3.353,0.864,5.326,0.605
		c-1.298,1.215-3.064,1.773-5.3,1.673c-2.236-0.098-4.38-0.909-6.428-2.435c-2.051-1.524-3.726-3.754-5.03-6.693
		c-1.305-2.937-1.683-6.682-1.134-11.234c-3.714-1.75-7.044-2.712-9.989-2.883c-2.944-0.17-5.411,0.153-7.396,0.966
		c-1.986,0.815-3.446,2.019-4.381,3.612c-0.936,1.594-1.315,3.294-1.14,5.1c0.174,1.807,0.983,3.564,2.427,5.269
		c1.443,1.707,3.529,3.085,6.256,4.134c6.879,2.703,12.555,5.999,17.026,9.887c4.47,3.889,7.921,8.075,10.357,12.558
		c2.435,4.485,3.883,9.095,4.347,13.835c0.46,4.74,0.103,9.319-1.074,13.734c-1.179,4.417-3.131,8.475-5.853,12.178
		c-2.723,3.7-6.075,6.759-10.055,9.172c-3.981,2.415-8.513,4.007-13.599,4.779c-5.087,0.77-10.572,0.385-16.453-1.157
		c-5.384-1.377-9.848-3.585-13.387-6.619c-3.541-3.034-6.253-6.488-8.134-10.357S6.725,94.299,6.37,90.04
		c-0.355-4.257-0.068-8.335,0.857-12.234c0.927-3.896,2.408-7.366,4.449-10.407c2.04-3.04,4.564-5.266,7.569-6.68
		c-0.877,1.027-2.157,2.629-3.837,4.805c-1.681,2.176-3.032,4.9-4.05,8.173c0.757-2.384,2.176-4.8,4.257-7.251
		c2.082-2.449,4.815-4.145,8.201-5.091c1.932-0.433,3.913-0.345,5.941,0.26c2.026,0.608,3.862,1.487,5.506,2.642
		c1.643,1.154,3.002,2.489,4.079,3.998c1.077,1.513,1.632,2.957,1.664,4.334c-3.077-0.142-5.856,0.643-8.332,2.351
		c-2.477,1.71-4.524,3.899-6.14,6.567c-1.616,2.669-2.749,5.646-3.397,8.927c-0.649,3.283-0.722,6.46-0.218,9.529
		c0.502,3.072,1.613,5.867,3.333,8.389c1.718,2.522,4.135,4.354,7.254,5.502c4.328,1.613,8.452,1.795,12.372,0.55
		c3.919-1.249,7.219-3.396,9.906-6.442c2.685-3.045,4.621-6.756,5.81-11.128c1.187-4.371,1.266-8.867,0.232-13.479
		s-3.386-9.137-7.056-13.573c-3.672-4.437-8.952-8.236-15.841-11.398c-6.48-2.977-11.398-6.395-14.755-10.257
		c-3.356-3.861-5.359-7.748-6.005-11.665c-0.648-3.914,0-7.612,1.943-11.092c1.941-3.48,4.96-6.279,9.052-8.396
		c4.093-2.115,9.168-3.346,15.228-3.69c6.06-0.341,12.939,0.608,20.638,2.848c1.267-1.758,2.694-3.209,4.285-4.351
		c1.589-1.139,3.222-1.989,4.895-2.55c1.675-0.559,3.31-0.88,4.906-0.961C80.707,8.191,82.145,8.332,83.427,8.689z M28.712,73.962
		c-2.918,1.393-5.101,3.588-6.55,6.59c-1.45,3.002-2.343,6.223-2.678,9.665c-0.335,3.445-0.176,6.731,0.479,9.858
		c0.655,3.13,1.672,5.508,3.053,7.136c-1.782-3.013-2.765-6.254-2.94-9.722c-0.177-3.466,0.094-6.778,0.818-9.941
		c0.721-3.159,1.799-5.96,3.237-8.406C25.566,76.697,27.093,74.972,28.712,73.962z M34.628,31.806
		c-0.196-0.878-0.172-1.899,0.075-3.062c0.246-1.163,0.804-2.278,1.672-3.351c0.867-1.07,2.114-1.996,3.738-2.775
		c1.625-0.78,3.758-1.234,6.406-1.367c-1.046-0.134-2.386-0.041-4.021,0.278c-1.637,0.322-3.141,0.912-4.516,1.773
		c-1.376,0.863-2.436,2-3.18,3.412C34.057,28.128,33.999,29.826,34.628,31.806z M37.577,74.605c0.33-0.165,0.522-0.139,0.571,0.08
		c0.05,0.221-0.038,0.449-0.262,0.682c-0.244,0.148-0.413,0.116-0.505-0.094C37.286,75.063,37.354,74.842,37.577,74.605z
		 M38.137,27.697c0.136-0.214,0.455-0.539,0.958-0.976c0.501-0.435,1.102-0.846,1.8-1.234c0.696-0.385,1.447-0.739,2.254-1.058
		c0.804-0.319,1.622-0.478,2.453-0.481c-0.499-0.164-1.122-0.163-1.867,0.003c-0.748,0.168-1.514,0.457-2.299,0.861
		c-0.787,0.408-1.49,0.866-2.114,1.374C38.695,26.697,38.302,27.2,38.137,27.697z M39.249,75.891
		c-0.421,0.187-0.653,0.078-0.696-0.328c-0.046-0.404-0.019-0.802,0.079-1.195c0.303,0.119,0.586,0.354,0.851,0.709
		C39.746,75.434,39.669,75.706,39.249,75.891z M40.374,74.116c0.771-0.263,1.476-0.306,2.117-0.127
		c0.639,0.18,1.137,0.437,1.488,0.773c0.353,0.336,0.55,0.707,0.595,1.111c0.044,0.406-0.187,0.713-0.695,0.917
		c-0.928,0.394-1.62,0.18-2.081-0.64C41.338,75.331,40.862,74.653,40.374,74.116z M62.237,77.797
		c-0.297-2.147-1.129-4.313-2.495-6.499c-1.367-2.186-2.953-4.227-4.764-6.129c-1.811-1.9-3.738-3.498-5.781-4.795
		c-2.044-1.293-3.881-2.082-5.513-2.363c0.929,0.439,2.216,1.144,3.864,2.11c1.647,0.969,3.385,2.241,5.214,3.814
		c1.828,1.576,3.578,3.513,5.247,5.813C59.679,72.052,61.088,74.733,62.237,77.797z M65.298,69.223
		c-0.276-1.23-0.808-2.471-1.596-3.726c-0.789-1.252-1.695-2.41-2.716-3.474c-1.023-1.062-2.078-1.956-3.162-2.682
		c-1.086-0.725-2.072-1.218-2.963-1.482c1.77,0.897,3.666,2.362,5.692,4.399C62.578,64.296,64.16,66.618,65.298,69.223z
		 M68.79,72.453c0.173-1.699-0.155-3.471-0.983-5.314c-0.829-1.844-1.916-3.608-3.262-5.291c-1.346-1.681-2.85-3.144-4.513-4.387
		c-1.662-1.24-3.276-2.055-4.838-2.444c1.621,0.653,3.194,1.591,4.715,2.818c1.521,1.229,2.922,2.646,4.204,4.248
		c1.281,1.605,2.333,3.307,3.152,5.106C68.084,68.992,68.592,70.746,68.79,72.453z M69.792,67.661
		c-0.315-1.405-0.832-2.789-1.553-4.15s-1.566-2.555-2.533-3.585c-0.969-1.028-1.975-1.91-3.015-2.645
		c-1.042-0.735-2.006-1.233-2.896-1.497c1.681,0.917,3.5,2.446,5.457,4.59C67.208,62.521,68.721,64.949,69.792,67.661z
		 M69.254,29.444c0.34-0.537,0.859-1.207,1.557-2.01c0.696-0.801,1.518-1.562,2.464-2.283c0.945-0.718,2.03-1.331,3.255-1.837
		c1.224-0.503,2.612-0.793,4.167-0.865c-1.614-0.192-3.103-0.042-4.468,0.447c-1.366,0.492-2.539,1.123-3.519,1.897
		c-0.981,0.774-1.766,1.596-2.354,2.465C69.767,28.13,69.4,28.857,69.254,29.444z"/>
</g>
</svg>
