<?xml version="1.0" encoding="utf-8"?>
<!-- Generator: Adobe Illustrator 22.0.1, SVG Export Plug-In . SVG Version: 6.00 Build 0)  -->
<svg version="1.1" id="Layer_1" xmlns="http://www.w3.org/2000/svg" xmlns:xlink="http://www.w3.org/1999/xlink" x="0px" y="0px"
	 viewBox="0 0 20.188 8" style="enable-background:new 0 0 20.188 8;" xml:space="preserve">
<style type="text/css">
	.st0{fill:#FFFFFF;}
</style>
<g id="XMLID_128_">
	<g id="XMLID_241_">
		<path id="XMLID_242_" class="st0" d="M18.928,6.74c0,0.276-0.222,0.494-0.503,0.494s-0.506-0.218-0.506-0.494
			c0-0.275,0.225-0.491,0.509-0.491C18.706,6.249,18.928,6.465,18.928,6.74z M18.045,6.74c0,0.219,0.165,0.392,0.383,0.392
			c0.212,0.003,0.374-0.174,0.374-0.389c0-0.218-0.162-0.395-0.38-0.395C18.209,6.348,18.045,6.525,18.045,6.74z M18.347,6.995
			h-0.114V6.504c0.045-0.006,0.108-0.015,0.189-0.015c0.093,0,0.135,0.015,0.167,0.039c0.03,0.021,0.051,0.057,0.051,0.105
			c0,0.06-0.045,0.099-0.102,0.117v0.006c0.048,0.015,0.072,0.054,0.087,0.12c0.015,0.075,0.027,0.102,0.036,0.12h-0.12
			c-0.015-0.018-0.024-0.06-0.039-0.12c-0.009-0.051-0.039-0.075-0.102-0.075h-0.054v0.194C18.346,6.995,18.347,6.995,18.347,6.995z
			 M18.35,6.719h0.054c0.063,0,0.114-0.021,0.114-0.072c0-0.045-0.033-0.075-0.105-0.075c-0.03,0-0.051,0.003-0.063,0.006
			C18.35,6.578,18.35,6.719,18.35,6.719z"/>
	</g>
	<g id="XMLID_129_">
		<g id="XMLID_133_">
			<g>
				<path class="st0" d="M15.272,2.647c-0.93-0.323-1.99-0.225-2.835,0.036l0.461,3.022l-1.986-3.236L8.94,6.386
					c-0.533-1.869-0.816-3.88-0.816-3.88L6.432,5.328L4.555,2.344L4.239,5.388c-0.012-0.032-0.021-0.05-0.021-0.05v-0.01
					C4.2,5.29,4.172,5.239,4.157,5.215C3.886,4.724,2.972,4.433,2.326,4.213c-1.637-0.561-1.137-1.137-0.25-1.274
					c0.619-0.097,1.322,0.015,1.763,0.29l0.227-0.661c-1.237-0.651-3.987-0.47-3.542,1.241c0.257,0.989,2.343,1.13,2.836,1.708
					c0.041,0.049,0.098,0.117,0.125,0.18c0.037,0.085,0.049,0.183,0.01,0.306C3.489,6.023,3.48,6.082,3.468,6.106
					C3.451,6.142,3.431,6.177,3.416,6.195C3.101,6.594,2.467,6.61,1.886,6.539C1.22,6.458,0.626,6.13,0.591,6.053L0.312,6.756
					C1.364,7.324,3.36,7.66,4.105,6.613C4.109,6.609,4.11,6.606,4.113,6.602l-0.07,0.673l0.791-0.013l0.244-2.757L6.468,6.7
					l1.297-2.195c0,0,0.138,0.569,0.389,1.613C8.366,7,8.499,7.335,8.499,7.335l0.68-0.053l0.673-1.355h2.403l0.899,1.354
					l0.743-0.001l-0.4-2.363c0.494,0.687,1.86,1.595,2.934,1.972L16.36,7.297l0.777,0.018l0.683-4.034l1.644,0.018l0.256-0.661
					L15.272,2.647z M10.18,5.266l0.792-1.593l0.846,1.593H10.18z M13.358,4.036l-0.14-0.894c0.472-0.283,1.995-0.112,1.825,0.359
					C14.873,3.973,13.39,4.175,13.358,4.036z M16.553,6.25c-0.939-0.332-2.381-1.415-2.435-1.64c0.53-0.04,1.662-0.341,1.541-1.312
					l1.352,0.009L16.553,6.25z"/>
			</g>
		</g>
		<path id="XMLID_132_" class="st0" d="M5.996,4.336"/>
		<path id="XMLID_131_" class="st0" d="M5.996,4.336"/>
		<path id="XMLID_130_" class="st0" d="M6.592,5.328"/>
	</g>
</g>
</svg>
