<?xml version="1.0" encoding="utf-8"?>
<!-- Generator: Adobe Illustrator 21.0.2, SVG Export Plug-In . SVG Version: 6.00 Build 0)  -->
<svg version="1.1" id="Layer_1" xmlns="http://www.w3.org/2000/svg" xmlns:xlink="http://www.w3.org/1999/xlink" x="0px" y="0px"
	 viewBox="0 0 50 5.208" style="enable-background:new 0 0 50 5.208;" xml:space="preserve">
<style type="text/css">
	.st0{fill:#3C4852;}
</style>
<g id="XMLID_128_">
	<g id="XMLID_241_">
		<path id="XMLID_242_" class="st0" d="M21.092,4.205c0,0.17-0.137,0.306-0.311,0.306c-0.174,0-0.313-0.135-0.313-0.306
			c0-0.17,0.139-0.304,0.315-0.304C20.955,3.902,21.092,4.035,21.092,4.205z M20.545,4.205c0,0.135,0.102,0.243,0.237,0.243
			c0.131,0.002,0.231-0.107,0.231-0.241c0-0.135-0.1-0.244-0.235-0.244C20.647,3.963,20.545,4.072,20.545,4.205z M20.732,4.363
			h-0.07V4.059c0.028-0.004,0.067-0.009,0.117-0.009c0.057,0,0.083,0.009,0.104,0.024c0.019,0.013,0.031,0.035,0.031,0.065
			c0,0.037-0.028,0.061-0.063,0.072v0.004c0.03,0.009,0.044,0.033,0.054,0.074c0.009,0.046,0.017,0.063,0.022,0.074h-0.074
			c-0.009-0.011-0.015-0.037-0.024-0.074c-0.005-0.032-0.024-0.046-0.063-0.046h-0.033v0.12C20.733,4.363,20.732,4.363,20.732,4.363
			z M20.734,4.192h0.034c0.039,0,0.07-0.013,0.07-0.044c0-0.028-0.02-0.046-0.065-0.046c-0.019,0-0.031,0.002-0.039,0.004V4.192z"/>
	</g>
	<g id="XMLID_129_">
		<g id="XMLID_133_">
			<g>
				<path class="st0" d="M18.83,1.673c-0.575-0.2-1.231-0.139-1.754,0.022l0.285,1.869l-1.229-2.002l-1.221,2.423
					c-0.33-1.156-0.505-2.4-0.505-2.4l-1.047,1.746l-1.161-1.846l-0.195,1.883c-0.007-0.02-0.013-0.031-0.013-0.031V3.331
					c-0.011-0.024-0.028-0.056-0.037-0.07c-0.168-0.304-0.733-0.484-1.133-0.62c-1.013-0.347-0.704-0.703-0.155-0.788
					c0.383-0.06,0.818,0.009,1.091,0.18l0.14-0.409c-0.766-0.403-2.467-0.29-2.191,0.768c0.159,0.612,1.449,0.699,1.754,1.057
					c0.025,0.03,0.061,0.073,0.077,0.111c0.023,0.053,0.03,0.113,0.006,0.189c-0.004,0.011-0.009,0.048-0.017,0.063
					c-0.011,0.022-0.023,0.044-0.032,0.055c-0.195,0.247-0.587,0.257-0.947,0.213c-0.412-0.05-0.78-0.253-0.801-0.301L9.572,4.214
					c0.651,0.351,1.886,0.559,2.347-0.088c0.002-0.003,0.003-0.004,0.005-0.007l-0.043,0.416l0.489-0.008l0.151-1.706l0.86,1.358
					l0.803-1.358c0,0,0.085,0.352,0.24,0.998c0.133,0.547,0.215,0.754,0.215,0.754L15.06,4.54l0.416-0.838h1.487l0.556,0.838
					l0.46-0.001l-0.247-1.462c0.306,0.425,1.151,0.987,1.815,1.22L19.503,4.55l0.481,0.011l0.423-2.496l1.017,0.011l0.158-0.409
					L18.83,1.673z M15.68,3.293l0.49-0.985l0.523,0.985C16.693,3.293,15.68,3.293,15.68,3.293z M17.646,2.532L17.56,1.979
					c0.292-0.175,1.234-0.069,1.129,0.222C18.583,2.493,17.665,2.618,17.646,2.532z M19.622,3.902
					c-0.581-0.206-1.473-0.875-1.506-1.014c0.328-0.025,1.028-0.211,0.953-0.812l0.837,0.005L19.622,3.902z"/>
			</g>
		</g>
		<path id="XMLID_132_" class="st0" d="M13.091,2.718"/>
		<path id="XMLID_131_" class="st0" d="M13.091,2.718"/>
		<path id="XMLID_130_" class="st0" d="M13.46,3.332"/>
	</g>
</g>
<g>
	<path class="st0" d="M22.637,4.139v-1.66h0.464c0.137,0,0.259,0.03,0.366,0.093c0.108,0.062,0.192,0.15,0.253,0.267
		c0.061,0.115,0.091,0.247,0.091,0.395v0.152c0,0.148-0.03,0.28-0.091,0.395c-0.06,0.115-0.145,0.204-0.253,0.266
		c-0.109,0.062-0.234,0.094-0.376,0.094H22.637z M22.777,2.597v1.424h0.314c0.175,0,0.315-0.059,0.421-0.174
		c0.105-0.116,0.158-0.273,0.158-0.472V3.23c0-0.191-0.052-0.344-0.156-0.459c-0.104-0.115-0.241-0.173-0.411-0.174H22.777z"/>
	<path class="st0" d="M24,3.504c0-0.119,0.023-0.226,0.069-0.32c0.046-0.096,0.11-0.17,0.194-0.223
		c0.085-0.053,0.18-0.079,0.286-0.079c0.164,0,0.297,0.058,0.399,0.173c0.102,0.115,0.152,0.268,0.152,0.458v0.028
		c0,0.12-0.022,0.227-0.068,0.322s-0.111,0.169-0.194,0.221c-0.084,0.052-0.18,0.078-0.287,0.078c-0.163,0-0.296-0.058-0.398-0.173
		C24.051,3.874,24,3.721,24,3.532V3.504z M24.137,3.541c0,0.147,0.038,0.269,0.115,0.363c0.076,0.095,0.176,0.143,0.3,0.143
		s0.224-0.048,0.3-0.143s0.114-0.22,0.114-0.374V3.504c0-0.095-0.018-0.181-0.052-0.259c-0.035-0.079-0.084-0.14-0.147-0.183
		s-0.136-0.064-0.217-0.064c-0.122,0-0.221,0.048-0.298,0.144c-0.076,0.096-0.115,0.221-0.115,0.375V3.541z"/>
	<path class="st0" d="M25.781,4.047c0.096,0,0.175-0.027,0.239-0.081c0.064-0.054,0.099-0.123,0.104-0.208h0.131
		c-0.004,0.075-0.027,0.145-0.07,0.206c-0.044,0.062-0.102,0.11-0.173,0.146c-0.072,0.035-0.149,0.053-0.231,0.053
		c-0.161,0-0.29-0.057-0.385-0.169c-0.095-0.112-0.142-0.264-0.142-0.454V3.498c0-0.122,0.021-0.229,0.063-0.323
		c0.043-0.093,0.104-0.165,0.184-0.217c0.079-0.051,0.172-0.076,0.278-0.076c0.136,0,0.247,0.04,0.335,0.121
		s0.135,0.187,0.141,0.318h-0.131c-0.006-0.097-0.041-0.175-0.104-0.234c-0.063-0.059-0.144-0.089-0.24-0.089
		c-0.123,0-0.219,0.045-0.287,0.134c-0.067,0.089-0.102,0.214-0.102,0.374v0.04c0,0.157,0.034,0.28,0.102,0.368
		C25.562,4.003,25.657,4.047,25.781,4.047z"/>
	<path class="st0" d="M27.265,3.983c-0.082,0.119-0.213,0.18-0.394,0.18c-0.132,0-0.231-0.039-0.3-0.115
		c-0.068-0.076-0.104-0.189-0.104-0.339V2.906h0.136v0.785c0,0.235,0.095,0.353,0.284,0.353c0.198,0,0.323-0.082,0.376-0.245V2.906
		h0.137v1.233h-0.133L27.265,3.983z"/>
	<path class="st0" d="M27.82,2.906l0.004,0.2c0.046-0.074,0.103-0.13,0.171-0.168c0.068-0.037,0.145-0.056,0.229-0.056
		c0.194,0,0.318,0.08,0.371,0.239c0.044-0.076,0.103-0.136,0.177-0.177c0.073-0.042,0.154-0.062,0.243-0.062
		c0.265,0,0.4,0.145,0.405,0.434v0.823h-0.137V3.326c-0.001-0.11-0.024-0.192-0.071-0.246c-0.047-0.053-0.123-0.079-0.229-0.079
		c-0.099,0.001-0.182,0.033-0.249,0.095c-0.067,0.062-0.105,0.138-0.112,0.227v0.816h-0.138V3.316c0-0.105-0.025-0.185-0.074-0.236
		c-0.049-0.053-0.125-0.078-0.227-0.078c-0.086,0-0.159,0.024-0.222,0.073c-0.062,0.049-0.106,0.122-0.137,0.219v0.846h-0.137V2.906
		H27.82z"/>
	<path class="st0" d="M30.186,4.162c-0.105,0-0.2-0.026-0.285-0.078s-0.15-0.124-0.197-0.216c-0.048-0.093-0.071-0.196-0.071-0.311
		v-0.05c0-0.118,0.023-0.225,0.069-0.32c0.046-0.095,0.109-0.17,0.192-0.224c0.082-0.055,0.171-0.082,0.267-0.082
		c0.149,0,0.269,0.052,0.356,0.153c0.088,0.103,0.132,0.242,0.132,0.419v0.077h-0.881v0.026c0,0.14,0.04,0.256,0.12,0.35
		c0.08,0.093,0.182,0.14,0.303,0.14c0.073,0,0.138-0.014,0.193-0.04c0.057-0.026,0.107-0.069,0.152-0.128l0.086,0.065
		C30.521,4.089,30.376,4.162,30.186,4.162z M30.16,2.998c-0.103,0-0.189,0.038-0.26,0.113s-0.113,0.177-0.128,0.304h0.74V3.4
		c-0.004-0.118-0.038-0.215-0.102-0.289C30.347,3.035,30.264,2.998,30.16,2.998z"/>
	<path class="st0" d="M30.985,2.906l0.005,0.211c0.046-0.076,0.104-0.135,0.174-0.174c0.068-0.04,0.146-0.061,0.229-0.061
		c0.133,0,0.231,0.037,0.296,0.112c0.064,0.074,0.097,0.186,0.098,0.335v0.81H31.65V3.328c-0.001-0.11-0.023-0.192-0.07-0.246
		c-0.046-0.055-0.119-0.081-0.221-0.081c-0.084,0-0.159,0.026-0.224,0.079c-0.065,0.053-0.113,0.124-0.145,0.214v0.845h-0.136V2.906
		H30.985z"/>
	<path class="st0" d="M32.292,2.589v0.316h0.256v0.111h-0.256V3.84c0,0.068,0.013,0.119,0.037,0.153
		c0.025,0.033,0.066,0.05,0.124,0.05c0.022,0,0.06-0.004,0.11-0.012l0.006,0.111c-0.035,0.013-0.084,0.02-0.146,0.02
		c-0.094,0-0.162-0.027-0.204-0.082c-0.043-0.055-0.064-0.135-0.064-0.24V3.017h-0.227V2.906h0.227V2.589H32.292z"/>
	<path class="st0" d="M34.489,3.621c-0.019,0.175-0.081,0.309-0.188,0.401c-0.106,0.093-0.247,0.14-0.424,0.14
		c-0.123,0-0.232-0.031-0.327-0.093s-0.167-0.148-0.219-0.262s-0.078-0.242-0.079-0.388V3.205c0-0.147,0.025-0.278,0.077-0.393
		s0.126-0.202,0.224-0.264c0.097-0.062,0.208-0.094,0.335-0.094c0.178,0,0.318,0.048,0.421,0.145
		c0.104,0.096,0.163,0.229,0.18,0.397h-0.142c-0.035-0.282-0.188-0.423-0.459-0.423c-0.151,0-0.271,0.057-0.36,0.169
		c-0.089,0.112-0.134,0.269-0.134,0.467v0.203c0,0.191,0.043,0.345,0.131,0.459c0.087,0.114,0.204,0.171,0.353,0.171
		c0.146,0,0.258-0.035,0.332-0.105c0.074-0.07,0.12-0.176,0.138-0.316H34.489z"/>
	<path class="st0" d="M35.52,4.139c-0.014-0.038-0.022-0.096-0.026-0.172c-0.048,0.063-0.109,0.11-0.183,0.145
		c-0.074,0.033-0.153,0.051-0.236,0.051c-0.118,0-0.214-0.033-0.288-0.1c-0.073-0.066-0.109-0.149-0.109-0.251
		c0-0.12,0.05-0.215,0.149-0.285c0.101-0.07,0.239-0.104,0.418-0.104h0.248V3.282c0-0.088-0.027-0.157-0.082-0.208
		c-0.054-0.051-0.133-0.076-0.237-0.076c-0.095,0-0.174,0.024-0.236,0.073s-0.094,0.107-0.094,0.176l-0.137-0.001
		c0-0.099,0.046-0.184,0.137-0.255c0.092-0.072,0.204-0.108,0.337-0.108c0.138,0,0.246,0.034,0.325,0.104
		c0.08,0.068,0.121,0.165,0.123,0.288v0.584c0,0.119,0.013,0.209,0.037,0.268v0.014H35.52z M35.091,4.041
		c0.091,0,0.173-0.022,0.244-0.066c0.072-0.044,0.124-0.103,0.157-0.177V3.527h-0.244c-0.136,0.002-0.242,0.026-0.319,0.075
		C34.852,3.65,34.813,3.716,34.813,3.8c0,0.069,0.025,0.127,0.077,0.173C34.941,4.018,35.009,4.041,35.091,4.041z"/>
	<path class="st0" d="M36.058,2.906l0.004,0.2c0.046-0.074,0.103-0.13,0.171-0.168c0.068-0.037,0.145-0.056,0.229-0.056
		c0.194,0,0.318,0.08,0.371,0.239c0.044-0.076,0.103-0.136,0.177-0.177c0.073-0.042,0.154-0.062,0.243-0.062
		c0.265,0,0.4,0.145,0.405,0.434v0.823h-0.137V3.326c-0.001-0.11-0.024-0.192-0.071-0.246c-0.047-0.053-0.123-0.079-0.229-0.079
		c-0.099,0.001-0.182,0.033-0.249,0.095c-0.067,0.062-0.105,0.138-0.112,0.227v0.816h-0.138V3.316c0-0.105-0.025-0.185-0.074-0.236
		c-0.049-0.053-0.125-0.078-0.227-0.078c-0.086,0-0.159,0.024-0.222,0.073c-0.062,0.049-0.106,0.122-0.137,0.219v0.846h-0.137V2.906
		H36.058z"/>
	<path class="st0" d="M38.423,4.162c-0.105,0-0.2-0.026-0.285-0.078s-0.15-0.124-0.197-0.216c-0.048-0.093-0.071-0.196-0.071-0.311
		v-0.05c0-0.118,0.023-0.225,0.069-0.32c0.046-0.095,0.109-0.17,0.192-0.224c0.082-0.055,0.171-0.082,0.267-0.082
		c0.149,0,0.269,0.052,0.356,0.153c0.088,0.103,0.132,0.242,0.132,0.419v0.077h-0.881v0.026c0,0.14,0.04,0.256,0.12,0.35
		c0.08,0.093,0.182,0.14,0.303,0.14c0.073,0,0.138-0.014,0.193-0.04c0.057-0.026,0.107-0.069,0.152-0.128l0.086,0.065
		C38.759,4.089,38.613,4.162,38.423,4.162z M38.397,2.998c-0.103,0-0.189,0.038-0.26,0.113s-0.113,0.177-0.128,0.304h0.74V3.4
		c-0.004-0.118-0.038-0.215-0.102-0.289C38.584,3.035,38.501,2.998,38.397,2.998z"/>
	<path class="st0" d="M39.663,3.022c-0.028-0.006-0.06-0.008-0.092-0.008c-0.086,0-0.157,0.023-0.217,0.071
		c-0.059,0.047-0.101,0.116-0.126,0.206v0.848h-0.136V2.906h0.134l0.002,0.195c0.072-0.146,0.188-0.219,0.348-0.219
		c0.038,0,0.068,0.005,0.091,0.015L39.663,3.022z"/>
	<path class="st0" d="M40.554,4.139c-0.014-0.038-0.022-0.096-0.026-0.172c-0.048,0.063-0.109,0.11-0.183,0.145
		c-0.074,0.033-0.153,0.051-0.236,0.051c-0.118,0-0.214-0.033-0.288-0.1c-0.073-0.066-0.109-0.149-0.109-0.251
		c0-0.12,0.05-0.215,0.149-0.285c0.101-0.07,0.239-0.104,0.418-0.104h0.248V3.282c0-0.088-0.027-0.157-0.082-0.208
		c-0.054-0.051-0.133-0.076-0.237-0.076c-0.095,0-0.174,0.024-0.236,0.073s-0.094,0.107-0.094,0.176L39.74,3.245
		c0-0.099,0.046-0.184,0.137-0.255c0.092-0.072,0.204-0.108,0.337-0.108c0.138,0,0.246,0.034,0.325,0.104
		c0.08,0.068,0.121,0.165,0.123,0.288v0.584c0,0.119,0.013,0.209,0.037,0.268v0.014H40.554z M40.125,4.041
		c0.091,0,0.173-0.022,0.244-0.066c0.072-0.044,0.124-0.103,0.157-0.177V3.527h-0.244c-0.136,0.002-0.242,0.026-0.319,0.075
		C39.886,3.65,39.848,3.716,39.848,3.8c0,0.069,0.025,0.127,0.077,0.173C39.976,4.018,40.043,4.041,40.125,4.041z"/>
</g>
</svg>
