<?xml version="1.0" encoding="utf-8"?>
<!-- Generator: Adobe Illustrator 21.0.2, SVG Export Plug-In . SVG Version: 6.00 Build 0)  -->
<svg version="1.1" xmlns="http://www.w3.org/2000/svg" xmlns:xlink="http://www.w3.org/1999/xlink" x="0px" y="0px"
	 viewBox="0 0 50 14.483" style="enable-background:new 0 0 50 14.483;" xml:space="preserve">
<style type="text/css">
	.st0{fill:#4FC5DD;}
	.st1{fill:#ECEEEF;}
</style>
<g id="Layer_1">
	<circle class="st0" cx="25.078" cy="7.218" r="4.369"/>
	<path class="st1" d="M26.513,9.094H23.79v-0.59l1.254-1.319c0.309-0.352,0.464-0.632,0.464-0.839c0-0.168-0.037-0.296-0.11-0.383
		c-0.073-0.088-0.18-0.131-0.319-0.131c-0.138,0-0.249,0.059-0.335,0.176c-0.086,0.117-0.129,0.263-0.129,0.438H23.71
		c0-0.239,0.06-0.461,0.18-0.663s0.286-0.361,0.499-0.476c0.213-0.114,0.45-0.172,0.713-0.172c0.422,0,0.746,0.097,0.974,0.292
		c0.228,0.195,0.342,0.474,0.342,0.839c0,0.154-0.029,0.303-0.086,0.449c-0.057,0.146-0.146,0.298-0.267,0.458
		c-0.121,0.16-0.315,0.374-0.583,0.642l-0.504,0.582h1.536V9.094z"/>
</g>
<g id="Layer_2">
</g>
</svg>
