<?xml version="1.0" encoding="utf-8"?>
<!-- Generator: Adobe Illustrator 21.0.2, SVG Export Plug-In . SVG Version: 6.00 Build 0)  -->
<svg version="1.1" xmlns="http://www.w3.org/2000/svg" xmlns:xlink="http://www.w3.org/1999/xlink" x="0px" y="0px"
	 viewBox="0 0 50 14.483" style="enable-background:new 0 0 50 14.483;" xml:space="preserve">
<style type="text/css">
	.st0{fill:#4FC5DD;}
	.st1{fill:#ECEEEF;}
</style>
<g id="Layer_1">
	<circle class="st0" cx="25.078" cy="7.218" r="4.369"/>
	<path class="st1" d="M24.523,6.753h0.426c0.338,0,0.507-0.165,0.507-0.496c0-0.129-0.04-0.234-0.121-0.315
		c-0.08-0.081-0.194-0.122-0.34-0.122c-0.12,0-0.224,0.035-0.312,0.105s-0.133,0.156-0.133,0.26h-0.903
		c0-0.205,0.057-0.389,0.172-0.549c0.114-0.161,0.273-0.286,0.476-0.377c0.203-0.09,0.426-0.135,0.669-0.135
		c0.434,0,0.775,0.099,1.024,0.298c0.248,0.198,0.373,0.471,0.373,0.817c0,0.168-0.051,0.327-0.154,0.476
		c-0.103,0.149-0.252,0.27-0.449,0.363c0.207,0.075,0.37,0.189,0.488,0.342c0.118,0.153,0.177,0.342,0.177,0.567
		c0,0.348-0.134,0.627-0.402,0.836c-0.268,0.209-0.62,0.314-1.056,0.314c-0.256,0-0.493-0.049-0.712-0.146
		c-0.219-0.097-0.385-0.232-0.497-0.405c-0.113-0.172-0.169-0.369-0.169-0.588h0.909c0,0.12,0.048,0.223,0.145,0.311
		c0.096,0.088,0.215,0.131,0.356,0.131c0.159,0,0.286-0.044,0.381-0.133c0.095-0.088,0.142-0.201,0.142-0.339
		c0-0.197-0.049-0.336-0.147-0.418s-0.234-0.123-0.407-0.123h-0.44V6.753z"/>
</g>
<g id="Layer_2">
</g>
</svg>
