<?xml version="1.0" encoding="utf-8"?>
<!-- Generator: Adobe Illustrator 21.0.2, SVG Export Plug-In . SVG Version: 6.00 Build 0)  -->
<svg version="1.1" id="Layer_1" xmlns="http://www.w3.org/2000/svg" xmlns:xlink="http://www.w3.org/1999/xlink" x="0px" y="0px"
	 viewBox="0 0 100 20" style="enable-background:new 0 0 100 20;" xml:space="preserve">
<style type="text/css">
	.st0{fill:#98A4AE;}
</style>
<g>
	<path class="st0" d="M19.9,12.5c0-0.2-0.1-0.3-0.2-0.4c-0.1-0.1-0.3-0.2-0.6-0.3c-0.3-0.1-0.5-0.2-0.7-0.3
		c-0.5-0.3-0.7-0.6-0.7-1.1c0-0.2,0.1-0.4,0.2-0.6s0.3-0.3,0.6-0.4s0.5-0.2,0.8-0.2c0.3,0,0.6,0.1,0.8,0.2s0.4,0.3,0.6,0.5
		s0.2,0.4,0.2,0.7h-0.9c0-0.2-0.1-0.3-0.2-0.5C19.6,10,19.4,10,19.2,10c-0.2,0-0.4,0-0.5,0.1c-0.1,0.1-0.2,0.2-0.2,0.4
		c0,0.1,0.1,0.3,0.2,0.3s0.3,0.2,0.6,0.3c0.5,0.1,0.9,0.3,1.1,0.6s0.3,0.5,0.3,0.8c0,0.4-0.1,0.7-0.4,0.9s-0.7,0.3-1.1,0.3
		c-0.3,0-0.6-0.1-0.9-0.2c-0.3-0.1-0.5-0.3-0.6-0.5s-0.2-0.5-0.2-0.7h0.9c0,0.5,0.3,0.7,0.8,0.7c0.2,0,0.4,0,0.5-0.1
		C19.9,12.7,19.9,12.6,19.9,12.5z"/>
	<path class="st0" d="M24.5,10h-1.3v3.6h-0.9V10H21V9.3h3.5C24.5,9.3,24.5,10,24.5,10z"/>
	<path class="st0" d="M27.4,11.7h-1.7v1.1h2v0.7h-2.9V9.3h2.9V10h-2v1h1.7V11.7z"/>
	<path class="st0" d="M33.2,9.3l1.1,3.1l1.1-3.1h1.2v4.3h-0.9v-1.2l0.1-2l-1.2,3.2H34l-1.1-3.2l0.1,2v1.2h-0.9V9.3H33.2z"/>
	<path class="st0" d="M41.9,12.2c0,0.5-0.2,0.8-0.5,1.1s-0.7,0.4-1.2,0.4c-0.5,0-1-0.2-1.3-0.6c-0.3-0.4-0.5-0.9-0.5-1.5v-0.3
		c0-0.4,0.1-0.8,0.2-1.1s0.4-0.6,0.6-0.7c0.3-0.2,0.6-0.2,0.9-0.2c0.5,0,0.9,0.1,1.2,0.4s0.5,0.6,0.5,1.1H41c0-0.3-0.1-0.5-0.2-0.6
		C40.6,10,40.4,10,40.2,10c-0.3,0-0.5,0.1-0.7,0.3c-0.1,0.2-0.2,0.5-0.2,1v0.3c0,0.5,0.1,0.8,0.2,1s0.4,0.3,0.7,0.3
		c0.3,0,0.5-0.1,0.6-0.2c0.1-0.1,0.2-0.3,0.2-0.6L41.9,12.2L41.9,12.2z"/>
	<path class="st0" d="M42.1,12c0-0.3,0.1-0.6,0.2-0.8s0.3-0.4,0.5-0.6c0.2-0.1,0.5-0.2,0.8-0.2c0.4,0,0.8,0.1,1,0.4
		c0.3,0.3,0.4,0.6,0.5,1.1l0,0.2c0,0.5-0.1,0.9-0.4,1.2c-0.3,0.3-0.6,0.4-1.1,0.4s-0.8-0.1-1.1-0.4C42.2,12.9,42.1,12.5,42.1,12
		C42.1,12,42.1,12,42.1,12z M43,12c0,0.3,0.1,0.5,0.2,0.7s0.3,0.2,0.5,0.2c0.2,0,0.4-0.1,0.5-0.2s0.2-0.4,0.2-0.8
		c0-0.3-0.1-0.5-0.2-0.7C44,11.1,43.8,11,43.6,11c-0.2,0-0.4,0.1-0.5,0.2S43,11.7,43,12z"/>
	<path class="st0" d="M45.4,12c0-0.3,0.1-0.6,0.2-0.8s0.3-0.4,0.5-0.6c0.2-0.1,0.5-0.2,0.8-0.2c0.4,0,0.8,0.1,1,0.4
		c0.3,0.3,0.4,0.6,0.5,1.1l0,0.2c0,0.5-0.1,0.9-0.4,1.2c-0.3,0.3-0.6,0.4-1.1,0.4s-0.8-0.1-1.1-0.4C45.5,12.9,45.4,12.5,45.4,12
		C45.4,12,45.4,12,45.4,12z M46.2,12c0,0.3,0.1,0.5,0.2,0.7s0.3,0.2,0.5,0.2c0.2,0,0.4-0.1,0.5-0.2s0.2-0.4,0.2-0.8
		c0-0.3-0.1-0.5-0.2-0.7c-0.1-0.2-0.3-0.2-0.5-0.2c-0.2,0-0.4,0.1-0.5,0.2S46.2,11.7,46.2,12z"/>
	<path class="st0" d="M50.5,11.2c-0.1,0-0.2,0-0.3,0c-0.3,0-0.5,0.1-0.6,0.3v2.1h-0.8v-3.2h0.8l0,0.4c0.2-0.3,0.4-0.4,0.7-0.4
		c0.1,0,0.2,0,0.3,0L50.5,11.2z"/>
	<path class="st0" d="M50.6,12c0-0.5,0.1-0.9,0.3-1.2s0.5-0.4,0.9-0.4c0.3,0,0.6,0.1,0.8,0.3V9.1h0.8v4.5h-0.8l0-0.3
		c-0.2,0.3-0.5,0.4-0.8,0.4c-0.4,0-0.7-0.1-0.9-0.4C50.7,12.9,50.6,12.5,50.6,12z M51.4,12c0,0.3,0.1,0.5,0.2,0.7S51.8,13,52,13
		c0.3,0,0.4-0.1,0.6-0.3v-1.3C52.5,11.1,52.3,11,52,11C51.6,11,51.4,11.4,51.4,12z"/>
	<path class="st0" d="M53.9,9.6c0-0.1,0-0.2,0.1-0.3c0.1-0.1,0.2-0.1,0.3-0.1c0.1,0,0.3,0,0.3,0.1s0.1,0.2,0.1,0.3
		c0,0.1,0,0.2-0.1,0.3C54.7,10,54.6,10,54.4,10s-0.3,0-0.3-0.1S53.9,9.7,53.9,9.6z M54.8,13.6H54v-3.2h0.8V13.6z"/>
	<path class="st0" d="M56.2,10.4l0,0.4c0.2-0.3,0.5-0.4,0.9-0.4c0.3,0,0.6,0.1,0.8,0.3s0.2,0.5,0.3,0.9v2h-0.8v-2
		c0-0.2,0-0.3-0.1-0.4S56.9,11,56.7,11c-0.2,0-0.4,0.1-0.5,0.3v2.2h-0.8v-3.2H56.2z"/>
	<path class="st0" d="M60.4,13.6c0-0.1-0.1-0.2-0.1-0.3c-0.2,0.2-0.5,0.3-0.8,0.3c-0.3,0-0.6-0.1-0.8-0.3c-0.2-0.2-0.3-0.4-0.3-0.7
		c0-0.3,0.1-0.6,0.4-0.8c0.2-0.2,0.6-0.3,1.1-0.3h0.4v-0.2c0-0.1,0-0.3-0.1-0.4C60.1,11,60,11,59.8,11c-0.1,0-0.3,0-0.3,0.1
		c-0.1,0.1-0.1,0.2-0.1,0.3h-0.8c0-0.2,0.1-0.4,0.2-0.5s0.3-0.3,0.5-0.4c0.2-0.1,0.4-0.1,0.7-0.1c0.4,0,0.7,0.1,0.9,0.3
		c0.2,0.2,0.3,0.5,0.3,0.8v1.4c0,0.3,0,0.5,0.1,0.7v0.1C61.3,13.6,60.4,13.6,60.4,13.6z M59.7,13c0.1,0,0.2,0,0.3-0.1
		c0.1-0.1,0.2-0.1,0.2-0.2v-0.5H60c-0.4,0-0.6,0.1-0.7,0.4l0,0.1c0,0.1,0,0.2,0.1,0.3S59.6,13,59.7,13z"/>
	<path class="st0" d="M62.7,9.6v0.8h0.5V11h-0.5v1.6c0,0.1,0,0.2,0.1,0.3s0.1,0.1,0.3,0.1c0.1,0,0.2,0,0.2,0v0.6
		c-0.2,0.1-0.3,0.1-0.5,0.1c-0.6,0-0.9-0.3-0.9-0.9V11h-0.5v-0.6h0.5V9.6H62.7z"/>
	<path class="st0" d="M63.3,12c0-0.3,0.1-0.6,0.2-0.8s0.3-0.4,0.5-0.6c0.2-0.1,0.5-0.2,0.8-0.2c0.4,0,0.8,0.1,1,0.4
		c0.3,0.3,0.4,0.6,0.5,1.1l0,0.2c0,0.5-0.1,0.9-0.4,1.2c-0.3,0.3-0.6,0.4-1.1,0.4c-0.5,0-0.8-0.1-1.1-0.4
		C63.5,12.9,63.3,12.5,63.3,12C63.3,12,63.3,12,63.3,12z M64.2,12c0,0.3,0.1,0.5,0.2,0.7s0.3,0.2,0.5,0.2c0.2,0,0.4-0.1,0.5-0.2
		s0.2-0.4,0.2-0.8c0-0.3-0.1-0.5-0.2-0.7C65.2,11.1,65,11,64.8,11c-0.2,0-0.4,0.1-0.5,0.2S64.2,11.7,64.2,12z"/>
	<path class="st0" d="M68.5,11.2c-0.1,0-0.2,0-0.3,0c-0.3,0-0.5,0.1-0.6,0.3v2.1h-0.8v-3.2h0.8l0,0.4c0.2-0.3,0.4-0.4,0.7-0.4
		c0.1,0,0.2,0,0.3,0L68.5,11.2z"/>
	<path class="st0" d="M70.4,12.7c0-0.1-0.1-0.2-0.2-0.2c-0.1-0.1-0.3-0.1-0.5-0.2c-0.8-0.2-1.1-0.5-1.1-1c0-0.3,0.1-0.5,0.3-0.7
		s0.5-0.3,0.9-0.3c0.4,0,0.7,0.1,1,0.3s0.4,0.4,0.4,0.7h-0.8c0-0.1,0-0.2-0.1-0.3C70.2,11,70.1,11,69.9,11c-0.1,0-0.3,0-0.3,0.1
		s-0.1,0.1-0.1,0.2c0,0.1,0,0.2,0.1,0.2s0.2,0.1,0.4,0.1c0.2,0,0.4,0.1,0.5,0.1c0.4,0.2,0.7,0.4,0.7,0.9c0,0.3-0.1,0.5-0.4,0.7
		c-0.2,0.2-0.6,0.3-1,0.3c-0.3,0-0.5,0-0.7-0.1c-0.2-0.1-0.4-0.2-0.5-0.4s-0.2-0.3-0.2-0.5h0.8c0,0.1,0.1,0.3,0.2,0.3S69.8,13,70,13
		c0.2,0,0.3,0,0.4-0.1C70.4,12.9,70.4,12.8,70.4,12.7z"/>
</g>
<g>
	<g>
		<path class="st0" d="M9.8,10.1C9.6,9.9,9.4,9.9,9.1,9.9c0,0-0.1,0-0.1,0c-0.2,0-0.5,0.1-0.7,0.2c-0.2,0.2-0.2,0.5-0.2,0.7
			c0.1,0.5,0.9,0.9,1.4,0.7C10,11.3,10.1,10.5,9.8,10.1z M8.6,11.1c-0.1-0.1-0.2-0.2-0.2-0.4c0-0.3,0.2-0.3,0.4-0.4
			c0,0.2-0.1,0.3-0.1,0.5C8.7,10.9,8.6,11,8.6,11.1z M9,10.8C9,11,9,11.1,9,11.3c-0.1,0-0.2,0-0.2-0.1c0.1-0.1,0.1-0.2,0.1-0.3
			C8.9,10.7,9,10.5,9,10.3c0,0,0,0,0-0.1c0,0,0.1,0,0.1,0C9.1,10.4,9.1,10.6,9,10.8z M9.2,11.3C9.2,11.3,9.2,11.3,9.2,11.3
			c0.1-0.1,0.1-0.3,0.1-0.5c0-0.2,0.1-0.4,0.1-0.6c0,0,0-0.1,0-0.1c0.2,0,0.2,0.1,0.3,0.3c0,0-0.1,0-0.1,0c0,0.1-0.1,0.2-0.1,0.4
			c0,0.1-0.1,0.2-0.1,0.4c0,0,0.1,0.1,0.1,0c0.1-0.1,0.1-0.2,0.1-0.3c0-0.1,0.1-0.3,0.1-0.4c0,0,0,0,0,0c0,0,0,0.1,0,0.1
			C9.8,11,9.6,11.3,9.2,11.3z"/>
		<path class="st0" d="M10.6,6.3c0.6-0.3,0.6-1,0.3-1.5c-0.2-0.3-0.5-0.4-0.8-0.3C9.7,3.8,9.3,3.6,8.8,4C7.9,4.5,7.7,6.5,7.6,7.5
			c0,0.2,0,0.4-0.1,0.7c0,0-0.1,0.1-0.1,0.1c-0.1,1.2,0,2.5,0.1,3.7c0,0.1,0,0.2,0,0.2c0,0,0,0,0,0c0,0.3,0.1,0.6,0.1,0.8
			c0.1,0.8,0.3,1.6,0.5,2.4c0.1,0.5,0.3,1,0.7,1.3c0.7,0.5,1.5-0.4,1.8-1.2c0.2-0.6,0.2-1.3,0.2-2c0-0.9,0-1.9,0-2.8
			C10.9,10.1,10.9,8,10.6,6.3z M10.4,5.6c0-0.1,0.1-0.2,0.1-0.3C10.5,5.4,10.5,5.5,10.4,5.6C10.5,5.6,10.5,5.6,10.4,5.6
			C10.5,5.6,10.5,5.6,10.4,5.6z M10.4,4.7c0.2,0.1,0.3,0.3,0.4,0.5c0.1,0.2,0,0.4-0.1,0.6c0.1-0.2,0.1-0.5,0-0.6
			c0-0.1-0.1-0.1-0.1,0c0,0,0-0.1,0-0.1c0-0.1-0.2-0.2-0.2-0.1c0,0,0,0.1,0,0.1c0,0,0-0.1,0-0.1C10.3,4.9,10.4,4.8,10.4,4.7z
			 M10.2,5.4c0,0,0,0.1,0,0.1c0,0,0,0.1,0,0.1C10.1,5.7,10,5.9,10,6.1c0,0,0,0,0,0c0,0,0,0,0,0c0.1-0.2,0.1-0.4,0.2-0.6
			C10.2,5.4,10.2,5.4,10.2,5.4z M10,4.8C10,4.8,10,4.9,10.1,5c0,0.1-0.1,0.2-0.1,0.4C9.9,5.5,9.8,5.8,9.8,6C9.7,5.9,9.6,5.8,9.5,5.7
			c0,0,0,0,0.1,0c0.1-0.1,0.2-0.3,0.2-0.5C9.9,5.1,10,4.9,10,4.8z M9.5,5.5c0-0.1,0-0.2,0-0.3c0-0.1,0.1-0.2,0.2-0.3c0,0,0,0,0.1,0
			c0,0.1-0.1,0.2-0.1,0.3C9.6,5.3,9.5,5.4,9.5,5.5z M10.6,14.4c0,0.7-0.2,1.3-0.5,1.8c-0.5,0.6-1.2,0.5-1.5-0.2
			c-0.2-0.5-0.3-1.1-0.5-1.6c-0.1-0.7-0.3-1.3-0.3-2c-0.2-1.2-0.2-2.4-0.2-3.6C7.7,7.5,7.9,6.2,8.3,5c0.3-0.7,0.7-1.2,1.3-0.8
			c0.1,0,0.1,0.1,0.2,0.2c-0.2,0-0.3,0.2-0.4,0.3C9.2,4.9,9.2,5.2,9.2,5.5c0,0.6,0.6,1,1.2,0.9c0.2,1.4,0.3,2.7,0.3,4.1
			C10.7,11.8,10.7,13.1,10.6,14.4z"/>
		<path class="st0" d="M14.5,7c-0.9-0.5-2.7,0.2-3.7,0.7c-0.2,0.1-0.4,0.2-0.6,0.3c0,0-0.1,0-0.1,0C9,8.4,7.9,9,6.9,9.8
			c-0.1,0-0.1,0.1-0.2,0.1c0,0,0,0,0,0c-0.2,0.2-0.5,0.3-0.7,0.5c-0.6,0.5-1.3,1-1.8,1.6c-0.4,0.4-0.7,0.8-0.8,1.3
			c-0.1,0.8,0.9,1.1,1.7,1c0,0,0,0,0,0c0.1,0.3,0.3,0.5,0.5,0.6c0,0,0,0,0.1,0c0.2,0,0.3,0,0.5,0c0.5-0.2,0.6-0.7,0.5-1.1
			c0.2-0.1,0.4-0.2,0.5-0.3C8,13,8.9,12.6,9.7,12.1C10.8,11.4,16.8,8.1,14.5,7z M5.6,14.5c-0.1-0.1-0.2-0.2-0.2-0.3
			c0.1,0,0.2,0,0.2-0.1C5.6,14.3,5.6,14.4,5.6,14.5z M5.6,13.9c-0.1,0-0.2,0.1-0.3,0.1c0,0,0-0.1,0-0.1c0-0.2,0.2-0.3,0.3-0.5
			c0,0,0,0,0,0C5.7,13.6,5.6,13.7,5.6,13.9z M6,14.6c-0.1,0-0.1,0-0.2,0c0-0.2,0-0.3,0-0.5c0,0,0,0,0,0C5.9,14.1,6,14,6,14
			c0,0,0,0.1,0,0.1C6,14.3,6,14.4,6,14.6z M6,13.4c0,0.1,0,0.2,0,0.3c-0.1,0-0.1,0.1-0.2,0.1c0-0.2,0-0.4,0-0.5
			c0.1-0.1,0.4-0.2,0.5,0.1c0,0,0,0,0,0c0,0-0.1,0-0.1,0.1c0,0,0,0.1,0,0.1c0-0.1,0-0.1,0-0.2C6.2,13.3,6.1,13.3,6,13.4z M6.2,14.3
			C6.2,14.3,6.3,14.3,6.2,14.3C6.3,14.4,6.3,14.4,6.2,14.3c0,0.1,0,0.1,0,0.2C6.2,14.4,6.2,14.3,6.2,14.3z M14.7,7.9
			c-0.1,0.6-0.9,1.2-1.4,1.6c-1.1,0.9-2.3,1.6-3.5,2.3c-1,0.6-2.1,1.2-3.2,1.7c0,0,0-0.1,0-0.1c-0.1-0.5-0.6-0.6-0.9-0.2
			c0,0,0,0,0,0c-0.4,0-0.6,0.5-0.6,0.9c-0.2,0-0.4,0-0.5,0c-0.8-0.1-1-0.7-0.6-1.4c0.3-0.4,0.8-0.8,1.2-1.2c0.5-0.4,1-0.9,1.6-1.3
			c1-0.7,2-1.3,3.1-1.9c1.2-0.6,2.4-1,3.6-1.2C14.1,7,14.8,7.1,14.7,7.9z"/>
		<path class="st0" d="M15,13.3c-0.1-0.5-0.4-0.9-0.8-1.3c-0.6-0.6-1.2-1.1-1.8-1.6c-0.2-0.2-0.4-0.3-0.7-0.5c0,0,0,0,0,0
			c-0.1,0-0.1-0.1-0.2-0.1c-1-0.7-2.1-1.4-3.2-1.9c-0.1,0-0.1,0-0.1,0C8,7.8,7.7,7.7,7.5,7.6C7.4,7.5,7.2,7.5,7,7.4
			c0-0.1,0-0.1-0.1-0.2C6.9,7.1,6.8,7,6.7,6.9c0,0,0,0,0-0.1C6.5,6.7,6.2,6.7,6,6.8C5.9,6.9,5.8,6.9,5.8,7C5,6.8,4.3,6.7,3.9,7
			c-2.2,1.2,3.7,4.5,4.9,5.1c0.8,0.5,1.7,0.9,2.5,1.4c0.6,0.3,1.2,0.6,1.8,0.8C14,14.4,15.2,14.1,15,13.3z M6.7,7.2
			C6.7,7.2,6.7,7.3,6.7,7.2C6.7,7.3,6.6,7.3,6.7,7.2C6.6,7.2,6.6,7.2,6.7,7.2C6.6,7.1,6.6,7.2,6.7,7.2z M6.7,7.8
			C6.7,7.8,6.7,7.8,6.7,7.8c0,0,0-0.1,0-0.2c0-0.1,0-0.1,0-0.2c0,0,0.1,0,0.1,0C6.7,7.6,6.7,7.7,6.7,7.8z M6.4,7c0,0.1,0,0.1,0,0.2
			c0,0,0,0,0,0C6.3,7.1,6.3,7.1,6.4,7C6.4,7,6.4,7,6.4,7z M6.3,8.2C6.4,8,6.4,7.8,6.4,7.7c0-0.1,0-0.2,0-0.3c0,0,0,0,0,0
			c0,0.1,0,0.2,0,0.3c0,0.2,0,0.4,0.1,0.5C6.4,8.2,6.3,8.2,6.3,8.2C6.3,8.2,6.3,8.2,6.3,8.2z M5.9,7.2c0.1,0,0.2,0,0.3,0.1
			c0,0.1,0,0.2,0,0.3c0,0.2,0,0.4,0.1,0.6c0,0-0.1,0-0.1,0C5.9,8.1,5.8,7.9,5.8,7.8c0,0,0,0,0-0.1c0-0.1,0-0.2,0-0.3
			C5.8,7.4,5.8,7.3,5.9,7.2C5.9,7.3,5.9,7.3,5.9,7.2z M13.9,14c-0.6,0.1-1.2-0.1-1.8-0.4c-1.2-0.6-2.3-1.2-3.4-1.8
			c-1.2-0.7-2.4-1.5-3.5-2.3c-0.5-0.4-1.3-1-1.4-1.6C3.6,7.1,4.3,7,5,7.1c0.2,0,0.4,0.1,0.6,0.1c0,0.1-0.1,0.1-0.1,0.2
			c-0.2,0.6,0.3,1,0.8,1.1c0.2,0,0.5-0.1,0.6-0.2c0.1-0.1,0.1-0.3,0.1-0.4c0-0.1,0-0.1,0-0.2c0.5,0.2,1,0.4,1.5,0.6
			c1.1,0.6,2.1,1.2,3.1,1.9c0.5,0.4,1.1,0.8,1.6,1.3c0.4,0.4,0.9,0.8,1.2,1.2C14.9,13.3,14.7,13.9,13.9,14z"/>
	</g>
</g>
<g>
	<path class="st0" d="M30.7,12.7h-1.5l-0.3,0.9h-0.9l1.6-4.3h0.8l1.6,4.3h-0.9L30.7,12.7z M29.3,12h1.1l-0.5-1.6L29.3,12z"/>
</g>
</svg>
