<?xml version="1.0" encoding="utf-8"?>
<!-- Generator: Adobe Illustrator 21.0.2, SVG Export Plug-In . SVG Version: 6.00 Build 0)  -->
<svg version="1.1" id="Layer_1" xmlns="http://www.w3.org/2000/svg" xmlns:xlink="http://www.w3.org/1999/xlink" x="0px" y="0px"
	 viewBox="0 0 100 20" style="enable-background:new 0 0 100 20;" xml:space="preserve">
<style type="text/css">
	.st0{fill:#98A4AE;}
</style>
<g>
	<path class="st0" d="M39.2,13.6V9.3h1.3c0.4,0,0.7,0.1,1,0.3c0.3,0.2,0.5,0.4,0.7,0.7s0.2,0.7,0.2,1.1v0.2c0,0.4-0.1,0.7-0.2,1.1
		s-0.4,0.5-0.7,0.7s-0.6,0.3-1,0.3L39.2,13.6L39.2,13.6z M40.1,10v2.8h0.4c0.3,0,0.6-0.1,0.8-0.3s0.3-0.5,0.3-1v-0.2
		c0-0.4-0.1-0.8-0.3-1c-0.2-0.2-0.4-0.3-0.8-0.3C40.5,10,40.1,10,40.1,10z"/>
	<path class="st0" d="M42.9,9.6c0-0.1,0-0.2,0.1-0.3c0.1-0.1,0.2-0.1,0.3-0.1c0.1,0,0.3,0,0.3,0.1s0.1,0.2,0.1,0.3
		c0,0.1,0,0.2-0.1,0.3C43.6,10,43.5,10,43.4,10s-0.3,0-0.3-0.1S42.9,9.7,42.9,9.6z M43.8,13.6H43v-3.2h0.8V13.6z"/>
	<path class="st0" d="M46.1,11.2c-0.1,0-0.2,0-0.3,0c-0.3,0-0.5,0.1-0.6,0.3v2.1h-0.8v-3.2h0.8l0,0.4c0.2-0.3,0.4-0.4,0.7-0.4
		c0.1,0,0.2,0,0.3,0L46.1,11.2z"/>
	<path class="st0" d="M47.8,13.6c-0.5,0-0.8-0.1-1.1-0.4s-0.4-0.7-0.4-1.1V12c0-0.3,0.1-0.6,0.2-0.9c0.1-0.2,0.3-0.4,0.5-0.6
		c0.2-0.1,0.5-0.2,0.8-0.2c0.4,0,0.8,0.1,1,0.4c0.2,0.3,0.4,0.7,0.4,1.2v0.3h-2c0,0.2,0.1,0.4,0.2,0.5c0.1,0.1,0.3,0.2,0.5,0.2
		c0.3,0,0.6-0.1,0.8-0.4l0.4,0.5c-0.1,0.2-0.3,0.3-0.5,0.4C48.3,13.6,48.1,13.6,47.8,13.6z M47.7,11c-0.2,0-0.3,0.1-0.4,0.2
		c-0.1,0.1-0.2,0.3-0.2,0.5h1.2v-0.1c0-0.2-0.1-0.3-0.2-0.4C48,11.1,47.9,11,47.7,11z"/>
	<path class="st0" d="M50.8,13c0.2,0,0.3,0,0.4-0.1s0.1-0.2,0.2-0.3h0.8c0,0.2-0.1,0.4-0.2,0.6c-0.1,0.2-0.3,0.3-0.5,0.4
		c-0.2,0.1-0.4,0.1-0.7,0.1c-0.5,0-0.8-0.1-1.1-0.4s-0.4-0.7-0.4-1.2V12c0-0.5,0.1-0.9,0.4-1.2s0.6-0.4,1.1-0.4c0.4,0,0.7,0.1,1,0.3
		c0.2,0.2,0.4,0.5,0.4,0.9h-0.8c0-0.2-0.1-0.3-0.2-0.4C51,11.1,50.9,11,50.8,11c-0.2,0-0.3,0.1-0.4,0.2c-0.1,0.1-0.2,0.4-0.2,0.7V12
		c0,0.3,0,0.6,0.1,0.7C50.4,12.9,50.6,13,50.8,13z"/>
	<path class="st0" d="M53.4,9.6v0.8H54V11h-0.5v1.6c0,0.1,0,0.2,0.1,0.3s0.1,0.1,0.3,0.1c0.1,0,0.2,0,0.2,0v0.6
		c-0.2,0.1-0.3,0.1-0.5,0.1c-0.6,0-0.9-0.3-0.9-0.9V11h-0.5v-0.6h0.5V9.6H53.4z"/>
	<path class="st0" d="M54.1,12c0-0.3,0.1-0.6,0.2-0.8s0.3-0.4,0.5-0.6c0.2-0.1,0.5-0.2,0.8-0.2c0.4,0,0.8,0.1,1,0.4
		c0.3,0.3,0.4,0.6,0.5,1.1l0,0.2c0,0.5-0.1,0.9-0.4,1.2c-0.3,0.3-0.6,0.4-1.1,0.4s-0.8-0.1-1.1-0.4C54.2,12.9,54.1,12.5,54.1,12
		C54.1,12,54.1,12,54.1,12z M54.9,12c0,0.3,0.1,0.5,0.2,0.7s0.3,0.2,0.5,0.2c0.2,0,0.4-0.1,0.5-0.2s0.2-0.4,0.2-0.8
		c0-0.3-0.1-0.5-0.2-0.7c-0.1-0.2-0.3-0.2-0.5-0.2c-0.2,0-0.4,0.1-0.5,0.2S54.9,11.7,54.9,12z"/>
	<path class="st0" d="M59.2,11.2c-0.1,0-0.2,0-0.3,0c-0.3,0-0.5,0.1-0.6,0.3v2.1h-0.8v-3.2h0.8l0,0.4c0.2-0.3,0.4-0.4,0.7-0.4
		c0.1,0,0.2,0,0.3,0L59.2,11.2z"/>
	<path class="st0" d="M61.2,12.7c0-0.1-0.1-0.2-0.2-0.2c-0.1-0.1-0.3-0.1-0.5-0.2c-0.8-0.2-1.1-0.5-1.1-1c0-0.3,0.1-0.5,0.3-0.7
		s0.5-0.3,0.9-0.3c0.4,0,0.7,0.1,1,0.3s0.4,0.4,0.4,0.7h-0.8c0-0.1,0-0.2-0.1-0.3C61,11,60.9,11,60.7,11c-0.1,0-0.3,0-0.3,0.1
		s-0.1,0.1-0.1,0.2c0,0.1,0,0.2,0.1,0.2s0.2,0.1,0.5,0.1c0.2,0,0.4,0.1,0.5,0.1c0.4,0.2,0.7,0.4,0.7,0.9c0,0.3-0.1,0.5-0.4,0.7
		c-0.2,0.2-0.6,0.3-1,0.3c-0.3,0-0.5,0-0.7-0.1c-0.2-0.1-0.4-0.2-0.5-0.4s-0.2-0.3-0.2-0.5h0.8c0,0.1,0.1,0.3,0.2,0.3
		s0.2,0.1,0.4,0.1c0.2,0,0.3,0,0.4-0.1C61.2,12.9,61.2,12.8,61.2,12.7z"/>
</g>
<g>
	<g>
		<path class="st0" d="M13.2,16.5C13.2,16.5,13.2,16.4,13.2,16.5c-0.5-1.4-0.9-2.8-1.2-4.2c-0.2-0.7-0.3-1.4-0.5-2.1
			c-0.1-0.7-0.2-1.4-0.4-2c0.1,0,0.1,0,0.2,0c0,0,0,0,0,0c0,0,0.1,0,0.1,0c0.1-0.1,0.1-0.2,0.1-0.3c0-0.2,0-0.3,0.1-0.5c0,0,0,0,0,0
			c0,0,0,0,0,0c0.1,0,0.1-0.2,0-0.2C11,6.9,10.3,7,9.7,7c-0.6,0-1.2,0-1.8,0c0,0,0,0,0,0c0-0.1-0.1-0.1-0.1,0
			C7.7,7.2,7.7,7.4,7.7,7.6c0,0.2,0.1,0.5,0.3,0.5c0,0,0.1,0,0.1-0.1c0,0,0,0,0,0c0.5,0.1,1,0.1,1.4,0.1c0.4,0,0.9,0,1.3,0
			c-0.1,0.6,0.1,1.2,0.3,1.8c0.1,0.4,0.2,0.9,0.3,1.3c0,0,0,0,0,0c-0.9,1.3-2.8,0.4-4.2,0.8c0.1-0.2,0.2-0.4,0.2-0.7
			c0.2,0,0.4,0,0.7-0.1c0.1,0,0.1-0.2,0-0.2c-0.2,0-0.4-0.1-0.5-0.1c0.1-0.3,0.2-0.6,0.3-0.9c0.2,0,0.5,0,0.6,0c0.1,0,0.1-0.2,0-0.2
			C8.4,9.9,8.2,9.9,8,9.9c0.1-0.3,0.2-0.5,0.3-0.8c0.1,0,0.2,0,0.3,0c0.2,0,0.4,0,0.5-0.1c0.1,0,0.1-0.1,0-0.2
			C9,8.8,8.8,8.9,8.6,8.9c-0.1,0-0.2,0-0.3,0c0.1-0.2,0.1-0.4,0.2-0.6c0-0.1-0.2-0.3-0.3-0.1c-0.4,1-0.8,2-1.1,3
			c-0.1,0-0.1,0.1-0.1,0.2c-0.1,0.3-0.2,0.6-0.3,0.9l0,0.1c0,0,0,0,0,0c-0.1,0-0.1,0.1-0.1,0.2c-0.5,1.3-1,2.7-1.4,4
			c0,0.1,0.1,0.2,0.2,0.2c0,0,0,0,0.1,0c1.3,0.2,2.6,0.1,3.8,0.1c0.6,0,1.3,0,1.9,0c0.5,0,1.1,0.1,1.7,0c0.1,0.2,0.3,0.1,0.3-0.1
			C13.3,16.6,13.3,16.5,13.2,16.5z M9.8,7.8c-0.6,0-1.2-0.1-1.7,0.1C8,7.8,8,7.7,7.9,7.6c0-0.1,0-0.3,0-0.4c0.6,0.1,1.2,0,1.8,0
			c0.5,0,1.1,0,1.6,0c0,0.2-0.1,0.3-0.1,0.5c0,0,0,0.1,0,0.1C10.7,7.8,10.3,7.8,9.8,7.8z"/>
		<path class="st0" d="M10.6,5.4c-0.2-0.1-0.7-0.1-0.7,0.2c0,0,0,0,0,0c0,0-0.1,0-0.1,0.1C9.6,6,9.9,6.3,10.1,6.4
			c0.3,0.1,0.6-0.1,0.7-0.4C10.9,5.8,10.8,5.5,10.6,5.4z M10.3,6.1c-0.2,0-0.3-0.2-0.3-0.4c0,0,0-0.1,0-0.1c0.1,0,0.2-0.1,0.4-0.1
			c0.1,0,0.2,0.1,0.2,0.3C10.6,6,10.4,6.1,10.3,6.1z"/>
		<path class="st0" d="M9.5,4.2C9.4,4,9.2,3.8,9,3.7c0,0,0,0,0,0c-0.1-0.1-0.3-0.1-0.4,0C8.4,3.8,8.3,3.9,8.3,4C8,4.2,8,4.6,8.1,4.9
			c0.2,0.4,0.6,0.5,1,0.3C9.5,5,9.7,4.6,9.5,4.2z M8.9,4.9C8.7,5,8.5,4.9,8.4,4.7c-0.1-0.1,0-0.3,0-0.4c0,0,0,0,0.1,0
			c0-0.1,0.1-0.2,0.2-0.2c0.1,0,0.2,0,0.3,0.1c0.1,0,0.2,0.1,0.3,0.3C9.4,4.6,9.2,4.8,8.9,4.9z"/>
		<path class="st0" d="M10.7,4c0-0.3-0.3-0.5-0.6-0.5c-0.1,0-0.1,0.1-0.1,0.2C9.7,3.8,9.8,4.3,9.9,4.5c0,0.1,0.1,0.1,0.2,0.1
			c0.1,0,0.2,0,0.4-0.1c0.1,0,0.2,0,0.3-0.1C10.8,4.3,10.8,4.1,10.7,4z M10.1,4.2c0-0.1,0-0.1,0-0.2c0-0.1,0.1-0.2,0.1-0.3
			c0,0,0,0,0,0c0.2,0.1,0.4,0.2,0.3,0.4C10.3,4.2,10.2,4.2,10.1,4.2z"/>
	</g>
</g>
<path class="st0" d="M19.9,12.5c0-0.2-0.1-0.3-0.2-0.4c-0.1-0.1-0.3-0.2-0.6-0.3c-0.3-0.1-0.5-0.2-0.7-0.3c-0.5-0.3-0.7-0.6-0.7-1.1
	c0-0.2,0.1-0.4,0.2-0.6s0.3-0.3,0.6-0.4s0.5-0.2,0.8-0.2c0.3,0,0.6,0.1,0.8,0.2s0.4,0.3,0.6,0.5s0.2,0.4,0.2,0.7h-0.9
	c0-0.2-0.1-0.3-0.2-0.5C19.6,10,19.4,10,19.2,10c-0.2,0-0.4,0-0.5,0.1c-0.1,0.1-0.2,0.2-0.2,0.4c0,0.1,0.1,0.3,0.2,0.3
	s0.3,0.2,0.6,0.3c0.5,0.1,0.9,0.3,1.1,0.6s0.3,0.5,0.3,0.8c0,0.4-0.1,0.7-0.4,0.9s-0.7,0.3-1.1,0.3c-0.3,0-0.6-0.1-0.9-0.2
	c-0.3-0.1-0.5-0.3-0.6-0.5s-0.2-0.5-0.2-0.7h0.9c0,0.5,0.3,0.7,0.8,0.7c0.2,0,0.4,0,0.5-0.1C19.8,12.7,19.9,12.6,19.9,12.5z"/>
<path class="st0" d="M24.4,10h-1.3v3.6h-0.9V10H21V9.3h3.5C24.4,9.3,24.4,10,24.4,10z"/>
<path class="st0" d="M27.4,11.7h-1.7v1.1h2v0.7h-2.9V9.3h2.9V10h-2v1h1.7V11.7z"/>
<path class="st0" d="M33.2,9.3l1.1,3.1l1.1-3.1h1.2v4.3h-0.9v-1.2l0.1-2l-1.2,3.2H34l-1.1-3.2l0.1,2v1.2h-0.9V9.3H33.2z"/>
<g>
	<path class="st0" d="M30.6,12.7h-1.5l-0.3,0.9h-0.9l1.6-4.3h0.8l1.6,4.3h-0.9L30.6,12.7z M29.3,12h1.1l-0.5-1.6L29.3,12z"/>
</g>
</svg>
