<?xml version="1.0" encoding="utf-8"?>
<!-- Generator: Adobe Illustrator 21.1.0, SVG Export Plug-In . SVG Version: 6.00 Build 0)  -->
<svg version="1.1" id="Layer_1" xmlns="http://www.w3.org/2000/svg" xmlns:xlink="http://www.w3.org/1999/xlink" x="0px" y="0px"
	 viewBox="0 0 100 20" style="enable-background:new 0 0 100 20;" xml:space="preserve">
<style type="text/css">
	.st0{fill:#98A4AE;}
</style>
<g>
	<path class="st0" d="M19.483,7.567c0-0.139-0.049-0.244-0.146-0.318s-0.273-0.152-0.527-0.234s-0.455-0.163-0.603-0.243
		c-0.404-0.218-0.605-0.512-0.605-0.881c0-0.192,0.054-0.364,0.162-0.515c0.108-0.15,0.264-0.268,0.467-0.353
		c0.202-0.085,0.43-0.127,0.682-0.127c0.254,0,0.48,0.046,0.679,0.138s0.353,0.222,0.462,0.39c0.11,0.168,0.165,0.358,0.165,0.571
		h-0.732c0-0.163-0.051-0.289-0.154-0.38c-0.103-0.09-0.247-0.135-0.432-0.135c-0.179,0-0.318,0.037-0.417,0.113
		c-0.099,0.075-0.149,0.175-0.149,0.299c0,0.115,0.058,0.213,0.175,0.291c0.116,0.078,0.288,0.15,0.514,0.219
		c0.417,0.126,0.72,0.281,0.911,0.467s0.286,0.417,0.286,0.693c0,0.308-0.116,0.549-0.349,0.724s-0.546,0.263-0.94,0.263
		c-0.273,0-0.522-0.05-0.747-0.15c-0.225-0.1-0.396-0.237-0.514-0.411c-0.118-0.174-0.177-0.376-0.177-0.605h0.735
		c0,0.393,0.234,0.589,0.703,0.589c0.174,0,0.31-0.036,0.408-0.106C19.434,7.792,19.483,7.694,19.483,7.567z"/>
	<path class="st0" d="M23.264,5.539h-1.089V8.5h-0.732V5.539h-1.074V4.945h2.896V5.539z"/>
	<path class="st0" d="M25.695,6.955h-1.406v0.957h1.65V8.5h-2.383V4.945h2.378v0.594h-1.646v0.847h1.406V6.955z"/>
	<path class="st0" d="M27.201,4.945l0.913,2.578l0.908-2.578h0.962V8.5H29.25V7.528l0.073-1.677L28.363,8.5H27.86l-0.957-2.646
		l0.073,1.675V8.5h-0.732V4.945H27.201z"/>
	<path class="st0" d="M31.619,8.5V4.945h1.094c0.312,0,0.592,0.07,0.839,0.211c0.246,0.141,0.438,0.341,0.577,0.601
		s0.208,0.555,0.208,0.886v0.163c0,0.33-0.068,0.624-0.204,0.882c-0.136,0.257-0.328,0.456-0.575,0.598S33.031,8.498,32.72,8.5
		H31.619z M32.352,5.539v2.373h0.354c0.286,0,0.505-0.094,0.656-0.281s0.229-0.455,0.232-0.803V6.639
		c0-0.361-0.075-0.635-0.225-0.821c-0.15-0.187-0.369-0.279-0.657-0.279H32.352z"/>
	<path class="st0" d="M34.692,5.174c0-0.105,0.036-0.192,0.106-0.261c0.071-0.068,0.167-0.104,0.29-0.104
		c0.12,0,0.216,0.035,0.287,0.104c0.072,0.068,0.107,0.155,0.107,0.261c0,0.107-0.036,0.195-0.108,0.264s-0.168,0.103-0.286,0.103
		c-0.119,0-0.215-0.034-0.287-0.103S34.692,5.282,34.692,5.174z M35.442,8.5h-0.708V5.858h0.708V8.5z"/>
	<path class="st0" d="M37.383,6.519c-0.097-0.013-0.182-0.02-0.254-0.02c-0.268,0-0.442,0.091-0.525,0.271V8.5h-0.705V5.858h0.666
		l0.02,0.315c0.142-0.243,0.338-0.364,0.588-0.364c0.078,0,0.152,0.011,0.221,0.032L37.383,6.519z"/>
	<path class="st0" d="M38.766,8.548c-0.387,0-0.702-0.119-0.945-0.356s-0.365-0.554-0.365-0.95V7.173
		c0-0.265,0.051-0.502,0.154-0.711c0.102-0.209,0.247-0.37,0.436-0.483c0.188-0.113,0.402-0.17,0.643-0.17
		c0.361,0,0.646,0.114,0.854,0.342c0.208,0.228,0.312,0.551,0.312,0.97v0.287H38.17c0.023,0.173,0.092,0.312,0.207,0.416
		c0.114,0.104,0.26,0.156,0.436,0.156c0.271,0,0.484-0.099,0.637-0.296l0.348,0.388c-0.106,0.15-0.25,0.267-0.43,0.351
		C39.186,8.506,38.986,8.548,38.766,8.548z M38.686,6.378c-0.14,0-0.254,0.047-0.341,0.142s-0.143,0.23-0.167,0.407h0.981V6.871
		c-0.003-0.156-0.046-0.278-0.127-0.364S38.835,6.378,38.686,6.378z"/>
	<path class="st0" d="M41.226,7.98c0.131,0,0.236-0.036,0.318-0.107c0.081-0.072,0.123-0.167,0.127-0.286h0.661
		c-0.002,0.179-0.051,0.343-0.146,0.492c-0.096,0.148-0.228,0.265-0.395,0.347s-0.351,0.123-0.553,0.123
		c-0.378,0-0.676-0.12-0.894-0.36s-0.327-0.571-0.327-0.995V7.147c0-0.407,0.108-0.731,0.325-0.974
		c0.216-0.243,0.513-0.364,0.891-0.364c0.33,0,0.596,0.094,0.795,0.282c0.199,0.188,0.301,0.438,0.304,0.75h-0.661
		c-0.004-0.137-0.046-0.249-0.127-0.335c-0.082-0.086-0.189-0.128-0.322-0.128c-0.165,0-0.289,0.06-0.373,0.18
		c-0.084,0.119-0.125,0.313-0.125,0.583v0.073c0,0.272,0.041,0.468,0.124,0.587S41.057,7.98,41.226,7.98z"/>
	<path class="st0" d="M43.454,5.208v0.649h0.452v0.518h-0.452v1.318c0,0.098,0.02,0.168,0.057,0.21s0.109,0.063,0.215,0.063
		c0.078,0,0.147-0.006,0.207-0.017v0.534c-0.138,0.042-0.28,0.063-0.427,0.063c-0.495,0-0.747-0.25-0.757-0.75V6.375h-0.386V5.858
		h0.386V5.208H43.454z"/>
	<path class="st0" d="M43.992,7.154c0-0.262,0.051-0.495,0.151-0.7s0.246-0.364,0.436-0.476c0.189-0.113,0.41-0.169,0.66-0.169
		c0.357,0,0.647,0.109,0.873,0.327s0.352,0.515,0.377,0.889l0.006,0.181c0,0.405-0.113,0.73-0.34,0.976s-0.529,0.367-0.91,0.367
		s-0.686-0.122-0.912-0.366c-0.228-0.244-0.341-0.576-0.341-0.996V7.154z M44.698,7.205c0,0.251,0.047,0.442,0.141,0.575
		c0.095,0.133,0.23,0.2,0.406,0.2c0.17,0,0.304-0.066,0.4-0.197c0.096-0.131,0.144-0.341,0.144-0.63
		c0-0.246-0.048-0.437-0.144-0.572c-0.097-0.135-0.231-0.202-0.406-0.202c-0.172,0-0.306,0.066-0.4,0.201
		C44.745,6.714,44.698,6.922,44.698,7.205z"/>
	<path class="st0" d="M48.288,6.519c-0.097-0.013-0.182-0.02-0.254-0.02c-0.268,0-0.442,0.091-0.525,0.271V8.5h-0.705V5.858h0.666
		l0.02,0.315c0.142-0.243,0.338-0.364,0.588-0.364c0.078,0,0.152,0.011,0.221,0.032L48.288,6.519z"/>
	<path class="st0" d="M49.845,8.804H49.32l1.309-3.859h0.524L49.845,8.804z"/>
</g>
<g>
	<path class="st0" d="M20.315,10.705h-1.089v2.961h-0.732v-2.961H17.42v-0.594h2.896V10.705z"/>
	<path class="st0" d="M21.56,13.715c-0.387,0-0.703-0.119-0.946-0.356c-0.244-0.237-0.365-0.554-0.365-0.95V12.34
		c0-0.265,0.051-0.502,0.154-0.711s0.248-0.37,0.436-0.483c0.188-0.113,0.402-0.17,0.643-0.17c0.361,0,0.646,0.114,0.853,0.342
		c0.208,0.228,0.312,0.551,0.312,0.97v0.287h-1.682c0.023,0.173,0.091,0.312,0.207,0.416c0.114,0.104,0.26,0.156,0.436,0.156
		c0.272,0,0.484-0.099,0.637-0.296l0.347,0.388c-0.106,0.15-0.249,0.267-0.43,0.351S21.78,13.715,21.56,13.715z M21.479,11.545
		c-0.14,0-0.253,0.047-0.341,0.142c-0.087,0.095-0.143,0.23-0.167,0.407h0.981v-0.057c-0.003-0.156-0.045-0.278-0.127-0.364
		S21.629,11.545,21.479,11.545z"/>
	<path class="st0" d="M24.021,13.146c0.13,0,0.236-0.036,0.317-0.107c0.082-0.072,0.124-0.167,0.127-0.286h0.662
		c-0.001,0.179-0.05,0.343-0.146,0.492c-0.096,0.148-0.228,0.265-0.395,0.347c-0.167,0.082-0.351,0.123-0.553,0.123
		c-0.377,0-0.675-0.12-0.894-0.36s-0.327-0.571-0.327-0.995v-0.046c0-0.407,0.108-0.731,0.325-0.974
		c0.216-0.243,0.514-0.364,0.891-0.364c0.331,0,0.595,0.094,0.795,0.282c0.199,0.188,0.3,0.438,0.304,0.75h-0.662
		c-0.003-0.137-0.045-0.249-0.127-0.335s-0.189-0.128-0.322-0.128c-0.165,0-0.289,0.06-0.373,0.18
		c-0.083,0.119-0.125,0.313-0.125,0.583v0.073c0,0.272,0.042,0.468,0.125,0.587S23.851,13.146,24.021,13.146z"/>
	<path class="st0" d="M26.093,11.312c0.187-0.225,0.422-0.337,0.706-0.337c0.573,0,0.863,0.333,0.872,0.999v1.691h-0.706V11.99
		c0-0.152-0.033-0.265-0.098-0.337s-0.173-0.108-0.325-0.108c-0.207,0-0.356,0.079-0.449,0.239v1.882h-0.706v-3.75h0.706V11.312z"/>
	<path class="st0" d="M28.727,11.024l0.022,0.306c0.189-0.236,0.442-0.354,0.759-0.354c0.28,0,0.488,0.082,0.625,0.247
		c0.137,0.164,0.207,0.41,0.21,0.736v1.707h-0.706v-1.693c0-0.15-0.033-0.259-0.098-0.327c-0.065-0.067-0.173-0.101-0.325-0.101
		c-0.199,0-0.348,0.084-0.447,0.254v1.867h-0.706v-2.642H28.727z"/>
	<path class="st0" d="M30.643,12.32c0-0.262,0.05-0.495,0.151-0.7s0.246-0.364,0.436-0.476c0.19-0.113,0.41-0.169,0.661-0.169
		c0.357,0,0.647,0.109,0.873,0.327s0.352,0.515,0.377,0.889l0.006,0.181c0,0.405-0.113,0.73-0.34,0.976s-0.529,0.367-0.911,0.367
		c-0.381,0-0.685-0.122-0.912-0.366c-0.228-0.244-0.341-0.576-0.341-0.996V12.32z M31.348,12.371c0,0.251,0.047,0.442,0.142,0.575
		s0.229,0.2,0.405,0.2c0.171,0,0.304-0.066,0.401-0.197c0.096-0.131,0.144-0.341,0.144-0.63c0-0.246-0.048-0.437-0.144-0.572
		c-0.097-0.135-0.231-0.202-0.406-0.202c-0.172,0-0.306,0.066-0.4,0.201S31.348,12.089,31.348,12.371z"/>
	<path class="st0" d="M34.199,13.666h-0.708v-3.75h0.708V13.666z"/>
	<path class="st0" d="M34.545,12.32c0-0.262,0.051-0.495,0.151-0.7s0.246-0.364,0.436-0.476c0.189-0.113,0.41-0.169,0.66-0.169
		c0.357,0,0.647,0.109,0.873,0.327s0.352,0.515,0.377,0.889l0.006,0.181c0,0.405-0.113,0.73-0.34,0.976s-0.529,0.367-0.91,0.367
		s-0.686-0.122-0.912-0.366c-0.228-0.244-0.341-0.576-0.341-0.996V12.32z M35.251,12.371c0,0.251,0.047,0.442,0.141,0.575
		c0.095,0.133,0.23,0.2,0.406,0.2c0.17,0,0.304-0.066,0.4-0.197c0.096-0.131,0.144-0.341,0.144-0.63
		c0-0.246-0.048-0.437-0.144-0.572c-0.097-0.135-0.231-0.202-0.406-0.202c-0.172,0-0.306,0.066-0.4,0.201
		C35.298,11.881,35.251,12.089,35.251,12.371z"/>
	<path class="st0" d="M37.255,12.326c0-0.406,0.097-0.732,0.29-0.979c0.192-0.247,0.452-0.371,0.78-0.371
		c0.289,0,0.515,0.1,0.676,0.298l0.029-0.249h0.64v2.554c0,0.231-0.053,0.432-0.157,0.604c-0.105,0.17-0.253,0.301-0.443,0.391
		c-0.19,0.089-0.413,0.134-0.669,0.134c-0.193,0-0.383-0.039-0.566-0.116s-0.323-0.177-0.417-0.299l0.312-0.43
		c0.176,0.197,0.389,0.295,0.639,0.295c0.188,0,0.333-0.05,0.438-0.149c0.104-0.101,0.156-0.242,0.156-0.427v-0.141
		c-0.163,0.184-0.377,0.275-0.643,0.275c-0.316,0-0.573-0.124-0.77-0.372s-0.295-0.577-0.295-0.987V12.326z M37.961,12.376
		c0,0.24,0.048,0.429,0.144,0.565c0.097,0.137,0.229,0.205,0.396,0.205c0.215,0,0.368-0.081,0.461-0.243v-1.116
		c-0.095-0.162-0.246-0.242-0.457-0.242c-0.169,0-0.302,0.069-0.398,0.208S37.961,12.1,37.961,12.376z"/>
	<path class="st0" d="M41.073,12.668l0.488-1.644h0.756l-1.062,3.052l-0.059,0.139c-0.158,0.346-0.418,0.518-0.781,0.518
		c-0.103,0-0.207-0.015-0.312-0.046v-0.534l0.107,0.002c0.134,0,0.233-0.021,0.299-0.061c0.066-0.041,0.118-0.108,0.155-0.203
		l0.083-0.217l-0.925-2.649h0.759L41.073,12.668z"/>
	<path class="st0" d="M46.428,12.482c-0.027,0.382-0.168,0.684-0.423,0.902c-0.255,0.221-0.591,0.33-1.007,0.33
		c-0.456,0-0.814-0.153-1.076-0.46c-0.261-0.307-0.392-0.729-0.392-1.264v-0.218c0-0.342,0.061-0.643,0.181-0.902
		c0.12-0.261,0.293-0.461,0.517-0.6c0.224-0.14,0.483-0.209,0.78-0.209c0.41,0,0.74,0.109,0.99,0.33
		c0.251,0.219,0.396,0.527,0.436,0.925h-0.732c-0.019-0.229-0.082-0.396-0.192-0.499c-0.109-0.104-0.276-0.155-0.501-0.155
		c-0.244,0-0.428,0.088-0.549,0.263s-0.184,0.446-0.187,0.814v0.268c0,0.385,0.059,0.665,0.175,0.843s0.3,0.267,0.551,0.267
		c0.226,0,0.395-0.052,0.506-0.155s0.176-0.264,0.191-0.479H46.428z"/>
	<path class="st0" d="M46.628,12.32c0-0.262,0.051-0.495,0.151-0.7s0.246-0.364,0.436-0.476c0.189-0.113,0.41-0.169,0.66-0.169
		c0.357,0,0.647,0.109,0.873,0.327s0.352,0.515,0.377,0.889l0.006,0.181c0,0.405-0.113,0.73-0.34,0.976s-0.529,0.367-0.91,0.367
		s-0.686-0.122-0.912-0.366c-0.228-0.244-0.341-0.576-0.341-0.996V12.32z M47.334,12.371c0,0.251,0.047,0.442,0.141,0.575
		c0.095,0.133,0.23,0.2,0.406,0.2c0.17,0,0.304-0.066,0.4-0.197c0.096-0.131,0.144-0.341,0.144-0.63
		c0-0.246-0.048-0.437-0.144-0.572c-0.097-0.135-0.231-0.202-0.406-0.202c-0.172,0-0.306,0.066-0.4,0.201
		C47.381,11.881,47.334,12.089,47.334,12.371z"/>
	<path class="st0" d="M49.33,12.32c0-0.262,0.051-0.495,0.151-0.7s0.246-0.364,0.436-0.476c0.189-0.113,0.41-0.169,0.66-0.169
		c0.357,0,0.647,0.109,0.873,0.327s0.352,0.515,0.377,0.889l0.006,0.181c0,0.405-0.113,0.73-0.34,0.976s-0.529,0.367-0.91,0.367
		s-0.686-0.122-0.912-0.366c-0.228-0.244-0.341-0.576-0.341-0.996V12.32z M50.036,12.371c0,0.251,0.047,0.442,0.141,0.575
		c0.095,0.133,0.23,0.2,0.406,0.2c0.17,0,0.304-0.066,0.4-0.197c0.096-0.131,0.144-0.341,0.144-0.63
		c0-0.246-0.048-0.437-0.144-0.572c-0.097-0.135-0.231-0.202-0.406-0.202c-0.172,0-0.306,0.066-0.4,0.201
		C50.083,11.881,50.036,12.089,50.036,12.371z"/>
	<path class="st0" d="M53.627,11.686c-0.097-0.013-0.182-0.02-0.254-0.02c-0.268,0-0.442,0.091-0.525,0.271v1.729h-0.705v-2.642
		h0.666l0.02,0.315c0.142-0.243,0.338-0.364,0.588-0.364c0.078,0,0.152,0.011,0.221,0.032L53.627,11.686z"/>
	<path class="st0" d="M53.685,12.326c0-0.412,0.093-0.74,0.277-0.984s0.438-0.366,0.758-0.366c0.257,0,0.47,0.096,0.638,0.288V9.916
		h0.707v3.75h-0.637l-0.034-0.281c-0.176,0.221-0.402,0.33-0.679,0.33c-0.311,0-0.561-0.122-0.748-0.367
		C53.778,13.103,53.685,12.762,53.685,12.326z M54.391,12.376c0,0.248,0.043,0.438,0.129,0.571s0.212,0.199,0.376,0.199
		c0.218,0,0.372-0.093,0.462-0.277v-1.048c-0.088-0.185-0.24-0.276-0.457-0.276C54.561,11.545,54.391,11.821,54.391,12.376z"/>
	<path class="st0" d="M56.481,10.341c0-0.105,0.036-0.192,0.106-0.261c0.071-0.068,0.167-0.104,0.29-0.104
		c0.12,0,0.216,0.035,0.287,0.104c0.072,0.068,0.107,0.155,0.107,0.261c0,0.107-0.036,0.195-0.108,0.264s-0.168,0.103-0.286,0.103
		c-0.119,0-0.215-0.034-0.287-0.103S56.481,10.448,56.481,10.341z M57.231,13.666h-0.708v-2.642h0.708V13.666z"/>
	<path class="st0" d="M58.337,11.024l0.022,0.306c0.188-0.236,0.442-0.354,0.759-0.354c0.28,0,0.488,0.082,0.625,0.247
		c0.137,0.164,0.207,0.41,0.211,0.736v1.707h-0.706v-1.693c0-0.15-0.032-0.259-0.098-0.327c-0.065-0.067-0.173-0.101-0.325-0.101
		c-0.198,0-0.347,0.084-0.446,0.254v1.867h-0.706v-2.642H58.337z"/>
	<path class="st0" d="M61.894,13.666c-0.032-0.063-0.056-0.143-0.071-0.236c-0.17,0.189-0.393,0.285-0.666,0.285
		c-0.259,0-0.474-0.075-0.644-0.225s-0.255-0.339-0.255-0.566c0-0.28,0.104-0.495,0.312-0.645c0.207-0.149,0.507-0.226,0.899-0.227
		h0.324V11.9c0-0.121-0.031-0.219-0.094-0.293c-0.062-0.072-0.161-0.109-0.297-0.109c-0.118,0-0.212,0.028-0.279,0.086
		c-0.067,0.057-0.102,0.135-0.102,0.234h-0.705c0-0.153,0.047-0.295,0.142-0.426c0.095-0.13,0.228-0.231,0.4-0.306
		s0.366-0.111,0.581-0.111c0.325,0,0.584,0.082,0.775,0.245c0.191,0.164,0.287,0.394,0.287,0.689v1.146
		c0.001,0.251,0.036,0.44,0.104,0.569v0.041H61.894z M61.311,13.176c0.104,0,0.199-0.023,0.287-0.07
		c0.088-0.046,0.153-0.108,0.195-0.187v-0.454h-0.264c-0.353,0-0.541,0.122-0.563,0.366l-0.003,0.042
		c0,0.088,0.031,0.16,0.094,0.217C61.118,13.146,61.203,13.176,61.311,13.176z"/>
	<path class="st0" d="M63.763,10.375v0.649h0.452v0.518h-0.452v1.318c0,0.098,0.02,0.168,0.057,0.21s0.109,0.063,0.215,0.063
		c0.078,0,0.147-0.006,0.207-0.017v0.534c-0.138,0.042-0.28,0.063-0.427,0.063c-0.495,0-0.747-0.25-0.757-0.75v-1.423h-0.386v-0.518
		h0.386v-0.649H63.763z"/>
	<path class="st0" d="M64.3,12.32c0-0.262,0.051-0.495,0.151-0.7s0.246-0.364,0.436-0.476c0.189-0.113,0.41-0.169,0.66-0.169
		c0.357,0,0.647,0.109,0.873,0.327s0.352,0.515,0.377,0.889l0.006,0.181c0,0.405-0.113,0.73-0.34,0.976s-0.529,0.367-0.91,0.367
		s-0.686-0.122-0.912-0.366c-0.228-0.244-0.341-0.576-0.341-0.996V12.32z M65.006,12.371c0,0.251,0.047,0.442,0.141,0.575
		c0.095,0.133,0.23,0.2,0.406,0.2c0.17,0,0.304-0.066,0.4-0.197c0.096-0.131,0.144-0.341,0.144-0.63
		c0-0.246-0.048-0.437-0.144-0.572c-0.097-0.135-0.231-0.202-0.406-0.202c-0.172,0-0.306,0.066-0.4,0.201
		C65.053,11.881,65.006,12.089,65.006,12.371z"/>
	<path class="st0" d="M68.597,11.686c-0.097-0.013-0.182-0.02-0.254-0.02c-0.268,0-0.442,0.091-0.525,0.271v1.729h-0.705v-2.642
		h0.666l0.02,0.315c0.142-0.243,0.338-0.364,0.588-0.364c0.078,0,0.152,0.011,0.221,0.032L68.597,11.686z"/>
</g>
<g>
	<path class="st0" d="M12.568,8.389c-0.14-0.536-0.471-1.539-1.122-2.237c-0.502-0.538-1.303-0.709-2.379-0.513
		c-1.732,0.318-3.008,1.625-3.175,3.25C5.863,9.174,5.879,9.46,5.942,9.742C5.938,9.77,5.941,9.8,5.952,9.829
		c0.01,0.027,0.022,0.053,0.027,0.058c0.114,0.412,0.326,0.817,0.629,1.206c0.136,0.173,0.282,0.34,0.427,0.506
		c0.431,0.493,0.84,0.96,0.958,1.564c-0.04,0.035-0.062,0.085-0.061,0.141c0.001,0.082,0.012,0.169,0.031,0.252
		c-0.008,0.1-0.011,0.2-0.013,0.302c-0.045,0.021-0.079,0.062-0.089,0.114c-0.02,0.105,0.013,0.199,0.089,0.267v0.013
		c0.001,0.08,0.001,0.16,0.004,0.257l-0.007,0.016c-0.026,0.059-0.043,0.121-0.051,0.187c-0.069,0.207-0.013,0.436,0.158,0.63
		c0.063,0.071,0.146,0.125,0.221,0.162c0.007,0.03,0.02,0.062,0.046,0.092c0.048,0.146,0.174,0.268,0.36,0.348
		c0.145,0.062,0.307,0.094,0.462,0.094c0.151,0,0.296-0.029,0.413-0.088c0.036,0.002,0.065-0.003,0.095-0.012
		c0.106-0.03,0.149-0.132,0.182-0.208c0.03-0.064,0.049-0.135,0.058-0.211c0.052-0.044,0.097-0.099,0.133-0.144
		c0.103-0.125,0.181-0.277,0.218-0.42c0.005-0.004,0.009-0.008,0.014-0.012c0.038-0.01,0.087-0.032,0.124-0.081
		c0.037-0.045,0.049-0.099,0.031-0.155c0.051-0.107,0.083-0.221,0.094-0.337c0.021-0.217,0.005-0.385-0.05-0.511
		c0.012-0.028,0.018-0.06,0.016-0.09c-0.01-0.219-0.015-0.438-0.016-0.657c0-0.046-0.001-0.094-0.003-0.144
		c-0.004-0.153-0.009-0.325,0.023-0.47c0.28-0.149,0.528-0.359,0.77-0.563c0.079-0.066,0.158-0.133,0.236-0.195
		c0.39-0.313,0.669-0.605,0.88-0.92C12.762,10.22,12.832,9.402,12.568,8.389z M10.04,14.546c-0.092,0.002-0.183,0.005-0.273,0.019
		c-0.087,0.012-0.151,0.088-0.152,0.181c-0.001,0.095,0.062,0.172,0.152,0.186c0.01,0.001,0.019,0.002,0.028,0.003
		c-0.016,0.045-0.035,0.087-0.06,0.128c-0.009,0.016-0.02,0.031-0.033,0.049c-0.006,0-0.012,0-0.018,0
		c-0.103-0.021-0.205-0.025-0.305-0.025c-0.027,0-0.055,0-0.082,0l-0.141,0.001c-0.113,0-0.229,0-0.333,0.016
		c-0.05-0.062-0.129-0.076-0.247-0.042c-0.006-0.003-0.013-0.006-0.02-0.01c-0.04-0.021-0.078-0.052-0.118-0.092
		c-0.005-0.027-0.007-0.057-0.006-0.086c0.097,0.024,0.186,0.03,0.261,0.029c0.05,0.005,0.094,0,0.144-0.016l0.059-0.001
		l0.013-0.026C8.944,14.847,8.975,14.83,9,14.811c0.045-0.034,0.071-0.089,0.067-0.145c-0.003-0.054-0.033-0.102-0.08-0.128
		c-0.059-0.033-0.12-0.048-0.18-0.056c-0.013-0.036-0.039-0.067-0.074-0.086c-0.069-0.037-0.139-0.033-0.192-0.027
		c-0.016,0-0.033,0.001-0.057-0.001c-0.006-0.006-0.012-0.012-0.018-0.018c0.001,0,0.002,0,0.003,0l0.097-0.001l0.088,0.002
		c0.144,0.006,0.305,0.011,0.454-0.049c0.059-0.023,0.098-0.075,0.104-0.136c0.001-0.01,0.001-0.021,0-0.03
		c0.284-0.01,0.569-0.043,0.852-0.101c0.003,0.013,0.006,0.026,0.009,0.04c0.012,0.054,0.024,0.109,0.026,0.166
		C10.103,14.333,10.083,14.434,10.04,14.546z M8.42,13.484c0.007-0.075,0.01-0.149,0.008-0.224c0.009,0.11,0.021,0.211,0.032,0.296
		C8.447,13.536,8.434,13.512,8.42,13.484z M8.874,12.673c0.013-0.121,0.031-0.242,0.057-0.381c0.001-0.021,0.002-0.048,0.027-0.07
		c0.128,0.448,0.189,0.943,0.182,1.475c-0.082,0-0.161-0.002-0.241-0.008c-0.023-0.191-0.044-0.408-0.046-0.628
		C8.852,12.931,8.863,12.801,8.874,12.673z M8.563,9.236c0.262,0.02,0.488-0.054,0.647-0.224c0.146-0.157,0.214-0.108,0.379,0.01
		c0.127,0.091,0.282,0.207,0.493,0.158c0.102-0.023,0.201-0.064,0.297-0.125c-0.185,0.438-0.396,0.856-0.589,1.229
		c-0.048,0.094-0.098,0.188-0.148,0.282c-0.192,0.362-0.39,0.736-0.531,1.127c-0.1-0.012-0.198,0.001-0.282,0.04
		c-0.07-0.501-0.272-1.009-0.451-1.46l-0.053-0.132C8.25,9.951,8.159,9.762,8.071,9.579C7.966,9.361,7.858,9.138,7.778,8.911
		C7.999,9.078,8.284,9.211,8.563,9.236z M10.344,11.992c-0.376,0.239-0.344,0.842-0.32,1.281c0.004,0.088,0.009,0.168,0.009,0.235
		c0,0.034-0.009,0.06-0.031,0.082c-0.077,0.077-0.277,0.098-0.422,0.104c0.005-0.538-0.065-1.071-0.208-1.589
		c0.128-0.25,0.25-0.502,0.373-0.754c0.158-0.325,0.316-0.65,0.486-0.971c0.313-0.589,0.636-1.222,0.849-1.904
		c0.034-0.111-0.017-0.221-0.121-0.267l0.11-0.314L10.842,8.19c-0.085,0.007-0.161,0.061-0.193,0.146
		c-0.01,0.004-0.019,0.009-0.027,0.015c-0.073,0.049-0.143,0.11-0.213,0.172c-0.274,0.238-0.397,0.312-0.598,0.129
		C9.705,8.556,9.455,8.329,9.222,8.425C9.094,8.477,9.004,8.563,8.924,8.639C8.806,8.752,8.725,8.824,8.561,8.802
		c-0.208-0.031-0.379-0.153-0.56-0.283C7.907,8.452,7.809,8.382,7.703,8.323C7.668,8.304,7.631,8.3,7.595,8.302
		c-0.03-0.024-0.07-0.038-0.11-0.036C7.399,8.27,7.333,8.337,7.33,8.423c-0.018,0.465,0.169,0.87,0.35,1.262
		C7.715,9.762,7.75,9.839,7.785,9.917c0.153,0.35,0.263,0.724,0.369,1.086c0.096,0.328,0.195,0.668,0.329,0.994
		c0.009,0.02,0.02,0.038,0.034,0.053c0.003,0.012,0.007,0.022,0.011,0.033c-0.116,0.287-0.128,0.688-0.109,1.031
		c-0.032-0.285-0.135-0.569-0.312-0.869c0.005-0.008,0.009-0.017,0.013-0.025c0.027-0.068,0.01-0.143-0.046-0.191
		c-0.052-0.044-0.113-0.072-0.173-0.095c-0.023-0.032-0.047-0.064-0.072-0.098c0.054-0.008,0.1-0.042,0.123-0.093
		c0.026-0.06,0.016-0.128-0.027-0.176c-0.062-0.069-0.139-0.104-0.231-0.145c-0.072-0.032-0.146-0.06-0.222-0.087
		c-0.022-0.008-0.049-0.016-0.064-0.009l-0.034-0.039c0.056-0.001,0.114-0.001,0.17-0.012c0.063-0.013,0.112-0.064,0.122-0.13
		c0.01-0.065-0.023-0.13-0.08-0.158c-0.123-0.065-0.265-0.081-0.391-0.095l-0.098-0.012c-0.024-0.004-0.046-0.002-0.066,0.003
		c-0.026-0.031-0.052-0.062-0.078-0.096c0.038-0.005,0.076-0.013,0.111-0.025c0.066-0.022,0.109-0.088,0.105-0.159
		c-0.004-0.068-0.052-0.124-0.122-0.14c-0.037-0.007-0.074-0.013-0.109-0.019c-0.043-0.007-0.083-0.014-0.122-0.021
		c0.058-0.02,0.099-0.07,0.106-0.131c0.007-0.062-0.022-0.123-0.079-0.156c-0.056-0.031-0.116-0.052-0.176-0.072
		c-0.053-0.019-0.104-0.035-0.146-0.062C6.496,9.99,6.473,9.973,6.447,9.949C6.44,9.931,6.434,9.912,6.428,9.893
		c0.133,0.069,0.27,0.099,0.398,0.083C6.894,9.97,6.951,9.918,6.964,9.851l0.004-0.117L6.887,9.69
		C6.83,9.66,6.771,9.634,6.711,9.609C6.653,9.585,6.594,9.561,6.538,9.528c-0.08-0.046-0.157-0.111-0.225-0.189
		C6.312,9.316,6.31,9.293,6.309,9.271c0.097,0.086,0.256,0.201,0.419,0.177c0.062-0.009,0.113-0.05,0.134-0.107
		c0.02-0.056,0.007-0.118-0.033-0.163C6.787,9.132,6.738,9.106,6.68,9.075C6.632,9.05,6.585,9.016,6.529,8.968
		C6.45,8.901,6.384,8.814,6.341,8.72c0.002-0.012,0.004-0.024,0.007-0.037c0.014,0.019,0.028,0.039,0.044,0.058
		c0.081,0.099,0.23,0.283,0.425,0.288c0.001,0,0.003,0,0.005,0c0.056,0,0.106-0.028,0.136-0.076c0.031-0.05,0.033-0.113,0.005-0.166
		C6.919,8.706,6.847,8.647,6.784,8.596C6.752,8.569,6.72,8.543,6.694,8.515C6.632,8.446,6.59,8.363,6.544,8.274L6.506,8.2
		C6.502,8.194,6.499,8.188,6.495,8.182C6.5,8.171,6.504,8.16,6.509,8.148c0.154,0.17,0.375,0.309,0.615,0.289
		C7.19,8.431,7.245,8.384,7.26,8.32c0.016-0.063-0.01-0.128-0.064-0.164C7.145,8.122,7.09,8.092,7.036,8.063
		C6.975,8.031,6.914,7.999,6.858,7.955C6.8,7.909,6.747,7.851,6.697,7.777C6.731,7.72,6.769,7.662,6.812,7.601
		c0.125,0.136,0.263,0.226,0.411,0.269C7.291,7.891,7.359,7.86,7.394,7.8L7.44,7.686L7.26,7.521C7.181,7.45,7.105,7.382,7.037,7.308
		C7.138,7.19,7.25,7.077,7.37,6.97c0.017,0.027,0.036,0.054,0.056,0.08c0.12,0.153,0.245,0.235,0.375,0.243
		c0.061-0.001,0.111-0.028,0.14-0.08l0.037-0.095L7.934,7.056C7.897,7.001,7.85,6.96,7.809,6.923
		c-0.025-0.022-0.05-0.043-0.07-0.068c-0.029-0.034-0.056-0.073-0.08-0.118c0.013-0.009,0.026-0.019,0.039-0.028
		C7.737,6.77,7.785,6.825,7.842,6.873C7.89,6.914,8.065,7.039,8.246,6.996l0.097-0.041l0.016-0.077
		C8.37,6.818,8.346,6.756,8.298,6.719C8.26,6.69,8.218,6.667,8.175,6.645c-0.03-0.016-0.061-0.031-0.088-0.053
		c-0.029-0.023-0.056-0.05-0.078-0.082C8.088,6.466,8.17,6.423,8.255,6.383c0.002,0.001,0.004,0.003,0.006,0.005
		C8.356,6.467,8.474,6.565,8.615,6.6C8.681,6.617,8.759,6.589,8.8,6.527c0.039-0.058,0.038-0.132-0.003-0.189
		C8.762,6.29,8.718,6.249,8.672,6.213c0.07-0.024,0.141-0.046,0.211-0.065C8.936,6.213,9,6.29,9.086,6.332
		c0.066,0.033,0.147,0.021,0.201-0.03C9.339,6.255,9.355,6.186,9.331,6.12C9.322,6.097,9.312,6.075,9.3,6.054
		c0.41-0.069,0.937-0.084,1.412,0.125c0.705,0.308,1.07,1.31,1.312,1.972c0.354,0.969,0.338,1.788-0.047,2.431
		c-0.23,0.387-0.585,0.648-0.961,0.926c-0.193,0.144-0.392,0.29-0.573,0.456C10.415,11.956,10.375,11.973,10.344,11.992z"/>
	<path class="st0" d="M11.568,9.115c-0.008,0.133-0.015,0.268-0.014,0.408c0,0.086,0.062,0.162,0.148,0.182
		c0.015,0.003,0.03,0.005,0.044,0.005c0.068,0,0.129-0.037,0.161-0.1c0.438-0.861-0.129-2.318-0.873-2.776h0
		c-0.073-0.045-0.165-0.032-0.221,0.031c-0.059,0.067-0.062,0.167-0.007,0.236l0.07,0.088c0.261,0.33,0.487,0.615,0.621,1.015
		C11.602,8.517,11.585,8.808,11.568,9.115z"/>
	<path class="st0" d="M11.542,9.912c-0.062,0-0.116,0.024-0.155,0.069c-0.033,0.038-0.05,0.087-0.05,0.139
		c0,0.118,0.088,0.207,0.205,0.207c0.062,0,0.116-0.024,0.155-0.069c0.032-0.037,0.05-0.087,0.05-0.138
		C11.747,10.001,11.659,9.912,11.542,9.912z"/>
	<path class="st0" d="M13.636,11.771l-0.525-0.344c-0.079-0.053-0.282-0.167-0.444-0.104c-0.078,0.031-0.133,0.099-0.156,0.19
		c-0.017,0.072,0.013,0.15,0.076,0.193c0.061,0.042,0.137,0.042,0.187,0.005c0.001,0,0.002,0,0.004,0
		c0.066,0,0.245,0.139,0.304,0.186c0.035,0.026,0.064,0.049,0.085,0.063c0.035,0.023,0.071,0.05,0.108,0.076
		c0.131,0.096,0.279,0.204,0.454,0.232c0.009,0.002,0.018,0.003,0.027,0.003c0.059,0,0.117-0.03,0.149-0.08
		c0.036-0.056,0.036-0.124,0-0.18C13.829,11.896,13.731,11.832,13.636,11.771z"/>
	<path class="st0" d="M15.018,10.217c-0.454-0.115-0.965-0.101-1.455-0.088c-0.146,0.005-0.291,0.009-0.429,0.009
		c-0.098,0-0.174,0.073-0.178,0.171c-0.003,0.099,0.071,0.182,0.168,0.188c0.137,0.01,0.279,0.023,0.424,0.038
		c0.3,0.029,0.607,0.06,0.905,0.06c0.189,0,0.375-0.012,0.554-0.044c0.078-0.013,0.134-0.078,0.137-0.158
		C15.149,10.311,15.095,10.236,15.018,10.217z"/>
	<path class="st0" d="M12.989,7.949C13.025,8,13.08,8.027,13.135,8.027c0.036,0,0.073-0.011,0.106-0.035
		c0.117-0.082,0.239-0.142,0.373-0.182c0.075-0.022,0.154-0.031,0.239-0.039c0.071-0.007,0.143-0.015,0.214-0.03
		c0.071-0.015,0.122-0.074,0.126-0.145c0.005-0.075-0.04-0.145-0.11-0.17h0c-0.344-0.125-0.77,0.049-1.051,0.252
		C12.944,7.741,12.925,7.86,12.989,7.949z"/>
	<path class="st0" d="M12.645,6.579c0.052,0,0.102-0.022,0.137-0.066c0.094-0.116,0.202-0.208,0.33-0.282
		c0.065-0.038,0.139-0.061,0.218-0.086c0.078-0.024,0.158-0.05,0.237-0.091c0.063-0.034,0.098-0.102,0.089-0.174
		c-0.009-0.073-0.06-0.131-0.13-0.148h0c-0.386-0.093-0.81,0.224-1.042,0.556c-0.057,0.082-0.037,0.189,0.045,0.252
		C12.565,6.566,12.605,6.579,12.645,6.579z"/>
	<path class="st0" d="M11.204,5.179c0.05,0,0.099-0.022,0.132-0.065c0.363-0.463,0.725-0.959,0.812-1.485
		c0.013-0.083-0.031-0.162-0.106-0.193c-0.076-0.03-0.161-0.004-0.208,0.064c-0.102,0.146-0.177,0.307-0.25,0.464
		c-0.041,0.088-0.082,0.176-0.127,0.26c-0.121,0.226-0.258,0.455-0.407,0.678c-0.053,0.08-0.033,0.183,0.048,0.242
		C11.13,5.167,11.167,5.179,11.204,5.179z"/>
	<path class="st0" d="M9.286,4.845c0.023,0.074,0.089,0.123,0.166,0.123c0.077,0,0.144-0.049,0.167-0.123
		c0.042-0.136,0.04-0.28,0.039-0.407l0-0.056c0-0.036,0.001-0.073,0.002-0.11c0.004-0.133,0.008-0.284-0.034-0.423l0-0.001
		c-0.046-0.151-0.295-0.152-0.344,0C9.242,3.974,9.244,4.106,9.247,4.223l0.001,0.089L9.247,4.4C9.244,4.54,9.241,4.698,9.286,4.845
		z"/>
	<path class="st0" d="M7.066,4.02c0.193,0.478,0.393,0.971,0.658,1.405c0.031,0.05,0.083,0.079,0.137,0.079
		c0.02,0,0.039-0.003,0.059-0.011c0.074-0.028,0.117-0.106,0.103-0.184c-0.128-0.685-0.5-1.381-0.87-2.037
		C7.102,3.185,7.003,3.154,6.916,3.197C6.826,3.242,6.787,3.35,6.827,3.442C6.909,3.63,6.987,3.824,7.066,4.02z"/>
	<path class="st0" d="M6.325,5.538c0.044,0.034,0.088,0.067,0.126,0.105c0.056,0.058,0.1,0.126,0.146,0.199
		c0.034,0.053,0.068,0.107,0.107,0.157c0.038,0.05,0.093,0.077,0.15,0.077c0.023,0,0.048-0.004,0.071-0.015
		C7.003,6.028,7.046,5.947,7.033,5.86C7.007,5.677,6.889,5.519,6.778,5.388C6.672,5.265,6.509,5.11,6.328,5.075
		c-0.08-0.013-0.161,0.02-0.202,0.09C6.085,5.236,6.094,5.322,6.15,5.384C6.204,5.444,6.265,5.492,6.325,5.538z"/>
	<path class="st0" d="M4.435,7.192c0.116,0.027,0.233,0.051,0.35,0.074c0.099,0.02,0.197,0.039,0.294,0.062
		c0.064,0.015,0.129,0.032,0.193,0.049c0.156,0.042,0.316,0.085,0.485,0.095c0.003,0,0.006,0,0.009,0
		c0.074,0,0.139-0.049,0.16-0.122c0.022-0.077-0.01-0.157-0.078-0.196C5.446,6.924,4.879,6.86,4.488,6.833
		C4.4,6.821,4.314,6.892,4.299,6.986C4.285,7.082,4.343,7.171,4.435,7.192z"/>
	<path class="st0" d="M5.324,8.508C5.042,8.409,4.68,8.577,4.434,8.711C4.342,8.761,4.31,8.869,4.36,8.962
		c0.035,0.065,0.1,0.102,0.167,0.102c0.03,0,0.061-0.007,0.089-0.022c0.11-0.058,0.223-0.103,0.345-0.136
		c0.042-0.012,0.087-0.018,0.13-0.024c0.079-0.011,0.168-0.024,0.254-0.063c0.061-0.028,0.097-0.087,0.093-0.154
		C5.436,8.594,5.39,8.532,5.324,8.508L5.324,8.508z"/>
	<path class="st0" d="M5.539,10.128c-0.029-0.083-0.116-0.132-0.198-0.115c-0.221,0.039-0.438,0.104-0.648,0.166
		c-0.133,0.04-0.267,0.08-0.401,0.113c-0.285,0.071-0.582,0.123-0.87,0.173l-0.178,0.031c-0.096,0.018-0.158,0.106-0.146,0.206
		c0.012,0.097,0.088,0.165,0.181,0.165c0.004,0,0.009,0,0.013,0c0.941-0.073,1.65-0.248,2.167-0.535
		C5.535,10.292,5.567,10.207,5.539,10.128z"/>
	<path class="st0" d="M5.882,11.649c0.111-0.035,0.236-0.074,0.324-0.189c0.032-0.043,0.04-0.1,0.021-0.151
		c-0.02-0.054-0.064-0.094-0.118-0.106c-0.135-0.033-0.259,0.017-0.358,0.056l-0.142,0.053c-0.123,0.044-0.249,0.089-0.37,0.148
		c-0.085,0.042-0.124,0.137-0.092,0.227c0.028,0.08,0.103,0.133,0.184,0.133c0.014,0,0.027-0.002,0.041-0.005
		c0.12-0.026,0.233-0.067,0.343-0.106L5.882,11.649z"/>
	<path class="st0" d="M6.787,12.038L6.787,12.038c-0.162,0.121-0.308,0.259-0.45,0.391l-0.09,0.084
		c-0.078,0.071-0.159,0.141-0.24,0.21c-0.137,0.117-0.278,0.238-0.406,0.372c-0.067,0.071-0.071,0.179-0.008,0.256
		c0.037,0.046,0.091,0.07,0.146,0.07c0.034,0,0.068-0.009,0.099-0.028c0.21-0.129,0.394-0.295,0.572-0.457l0.064-0.058
		c0.194-0.177,0.397-0.367,0.561-0.594c0.05-0.069,0.04-0.164-0.023-0.227C6.95,11.997,6.855,11.988,6.787,12.038z"/>
</g>
</svg>
