<?xml version="1.0" encoding="utf-8"?>
<!-- Generator: Adobe Illustrator 21.0.2, SVG Export Plug-In . SVG Version: 6.00 Build 0)  -->
<svg version="1.1" id="Layer_1" xmlns="http://www.w3.org/2000/svg" xmlns:xlink="http://www.w3.org/1999/xlink" x="0px" y="0px"
	 viewBox="0 0 5.099 6.583" style="enable-background:new 0 0 5.099 6.583;" xml:space="preserve">
<style type="text/css">
	.st0{fill:#02B3E0;}
</style>
<g>
	<path class="st0" d="M4.521,3.248C3.636,3.645,2.649,3.847,1.667,4.062c0.175-0.006,0.347-0.014,0.518-0.031
		c0.375-0.037,0.75-0.073,1.124-0.117C3.801,3.856,4.29,3.788,4.755,3.655c0-0.004,0-0.009,0-0.013
		C4.678,3.511,4.6,3.381,4.521,3.248z"/>
	<path class="st0" d="M4.446,3.908C3.963,3.999,3.471,4.054,2.975,4.092c-0.38,0.029-0.761,0.053-1.141,0.081
		C1.78,4.177,1.729,4.196,1.677,4.208c0.031,0,0.063,0,0.094,0c0.102-0.005,0.204-0.014,0.306-0.016
		c0.475-0.006,0.95-0.008,1.425-0.015C3.902,4.171,4.301,4.16,4.7,4.152c0.019,0,0.037,0.002,0.056,0.003c0-0.004,0-0.009,0-0.013
		c-0.028-0.05-0.059-0.1-0.084-0.15C4.613,3.876,4.615,3.877,4.446,3.908z"/>
	<path class="st0" d="M3.924,2.729C4.098,2.62,4.245,2.49,4.403,2.369c0.06-0.046,0.064-0.096,0.035-0.157
		c-0.271-0.583-0.536-1.166-0.803-1.75C3.61,0.409,3.587,0.356,3.564,0.302c-0.009,0-0.018-0.001-0.028-0.001
		c-0.02,0.021-0.041,0.043-0.061,0.064C3.454,0.386,3.435,0.409,3.413,0.43C3.112,0.718,2.717,0.929,2.271,1.093
		C1.842,1.25,1.384,1.354,0.919,1.441C0.82,1.46,0.787,1.491,0.769,1.557c-0.208,0.77-0.422,1.538-0.633,2.307
		C0.11,3.958,0.088,4.052,0.061,4.157c0.046-0.008,0.076-0.012,0.104-0.019c0.207-0.05,0.415-0.097,0.619-0.15
		C1.425,3.82,2.048,3.625,2.638,3.381C3.097,3.192,3.529,2.977,3.924,2.729z M1.457,2.042C1.336,2.078,1.213,2.113,1.09,2.149
		C1.073,2.154,1.126,2.097,1.133,2.074c0.063-0.192,0.062-0.097,0.124-0.289C1.263,1.769,1.28,1.758,1.339,1.742
		c0.278-0.074,0.609-0.158,0.858-0.243c0.26-0.089,0.936-0.426,1.095-0.524c0.012-0.007,0.021-0.014,0.032-0.022
		c0.011-0.007,0.022-0.014,0.033-0.022C3.362,0.93,3.368,0.929,3.374,0.928c0.019,0.009-0.047,0.198,0.169,0.291
		c0.023,0.01,0.025,0.021-0.008,0.038C3.449,1.303,3.369,1.348,3.272,1.393c-0.221,0.101-0.467,0.2-0.731,0.295
		C2.2,1.812,1.835,1.929,1.457,2.042z"/>
	<path class="st0" d="M1.845,3.842c0.004,0.006,0.008,0.012,0.012,0.017c0.012,0,0.025,0.002,0.036,0
		c0.655-0.15,1.305-0.31,1.919-0.531C4.057,3.24,4.287,3.13,4.521,3.026c0.029-0.013,0.064-0.053,0.055-0.07
		C4.52,2.852,4.453,2.75,4.385,2.639C3.655,3.17,2.781,3.538,1.845,3.842z"/>
</g>
</svg>
