<?xml version="1.0" encoding="utf-8"?>
<!-- Generator: Adobe Illustrator 21.0.2, SVG Export Plug-In . SVG Version: 6.00 Build 0)  -->
<svg version="1.1" id="Layer_1" xmlns="http://www.w3.org/2000/svg" xmlns:xlink="http://www.w3.org/1999/xlink" x="0px" y="0px"
	 viewBox="0 0 25 20" style="enable-background:new 0 0 25 20;" xml:space="preserve">
<style type="text/css">
	.st0{fill:#02B3E0;}
</style>
<polygon class="st0" points="8.9,8.2 7.8,7.1 6.2,8.7 4.5,7.1 3.4,8.2 5.1,9.8 3.4,11.5 4.5,12.6 6.2,10.9 7.8,12.6 8.9,11.5 
	7.3,9.8 "/>
<path class="st0" d="M11.8,9.8c0,3.1-2.5,5.6-5.6,5.6s-5.6-2.5-5.6-5.6s2.5-5.6,5.6-5.6S11.8,6.7,11.8,9.8z M6.2,4.6
	C3.3,4.6,1,7,1,9.8S3.3,15,6.2,15s5.2-2.3,5.2-5.2S9,4.6,6.2,4.6z"/>
</svg>
