<?xml version="1.0" encoding="utf-8"?>
<!-- Generator: Adobe Illustrator 24.1.2, SVG Export Plug-In . SVG Version: 6.00 Build 0)  -->
<svg version="1.1" id="Layer_1" xmlns="http://www.w3.org/2000/svg" xmlns:xlink="http://www.w3.org/1999/xlink" x="0px" y="0px"
	 viewBox="0 0 11.945 11.945" style="enable-background:new 0 0 11.945 11.945;" xml:space="preserve">
<g>
	<polygon points="7.572,3.272 5.972,4.872 4.272,3.272 3.172,4.372 4.872,5.972 3.172,7.672 4.272,8.772 5.972,7.072 7.572,8.772 
		8.672,7.672 7.072,5.972 8.672,4.372 	"/>
	<path d="M5.972,0.372c-3.1,0-5.6,2.5-5.6,5.6c0,3.1,2.5,5.6,5.6,5.6c3.1,0,5.6-2.5,5.6-5.6C11.572,2.872,9.072,0.372,5.972,0.372z
		 M5.972,11.172c-2.9,0-5.2-2.4-5.2-5.2s2.3-5.2,5.2-5.2c2.8,0,5.2,2.3,5.2,5.2C11.172,8.872,8.872,11.172,5.972,11.172z"/>
</g>
</svg>
