<?xml version="1.0" encoding="utf-8"?>
<!-- Generator: Adobe Illustrator 21.1.0, SVG Export Plug-In . SVG Version: 6.00 Build 0)  -->
<svg version="1.1" id="Layer_1" xmlns="http://www.w3.org/2000/svg" xmlns:xlink="http://www.w3.org/1999/xlink" x="0px" y="0px"
	 viewBox="0 0 100 20" style="enable-background:new 0 0 100 20;" xml:space="preserve">
<style type="text/css">
	.st0{fill:#98A4AE;}
</style>
<g>
	<path class="st0" d="M19.483,7.567c0-0.139-0.049-0.244-0.146-0.318s-0.273-0.152-0.527-0.234s-0.455-0.163-0.603-0.243
		c-0.404-0.218-0.605-0.512-0.605-0.881c0-0.192,0.054-0.364,0.162-0.515c0.108-0.15,0.264-0.268,0.467-0.353
		c0.202-0.085,0.43-0.127,0.682-0.127c0.254,0,0.48,0.046,0.679,0.138s0.353,0.222,0.462,0.39c0.11,0.168,0.165,0.358,0.165,0.571
		h-0.732c0-0.163-0.051-0.289-0.154-0.38c-0.103-0.09-0.247-0.135-0.432-0.135c-0.179,0-0.318,0.037-0.417,0.113
		c-0.099,0.075-0.149,0.175-0.149,0.299c0,0.115,0.058,0.213,0.175,0.291c0.116,0.078,0.288,0.15,0.514,0.219
		c0.417,0.126,0.72,0.281,0.911,0.467s0.286,0.417,0.286,0.693c0,0.308-0.116,0.549-0.349,0.724s-0.546,0.263-0.94,0.263
		c-0.273,0-0.522-0.05-0.747-0.15c-0.225-0.1-0.396-0.237-0.514-0.411c-0.118-0.174-0.177-0.376-0.177-0.605h0.735
		c0,0.393,0.234,0.589,0.703,0.589c0.174,0,0.31-0.036,0.408-0.106C19.434,7.792,19.483,7.694,19.483,7.567z"/>
	<path class="st0" d="M22.124,8.231c-0.174,0.212-0.415,0.317-0.723,0.317c-0.283,0-0.5-0.081-0.648-0.244
		c-0.149-0.163-0.225-0.401-0.229-0.715V5.858h0.706v1.709c0,0.275,0.125,0.413,0.376,0.413c0.239,0,0.404-0.084,0.493-0.25V5.858
		h0.708V8.5h-0.664L22.124,8.231z"/>
	<path class="st0" d="M25.593,7.203c0,0.407-0.092,0.733-0.277,0.979c-0.185,0.245-0.435,0.367-0.749,0.367
		c-0.267,0-0.482-0.093-0.647-0.278v1.245h-0.706V5.858h0.654l0.024,0.259c0.171-0.205,0.394-0.308,0.669-0.308
		c0.326,0,0.579,0.12,0.759,0.361s0.271,0.573,0.271,0.996V7.203z M24.887,7.149c0-0.246-0.043-0.437-0.131-0.57
		c-0.087-0.134-0.213-0.2-0.379-0.2c-0.221,0-0.374,0.084-0.457,0.254v1.085c0.086,0.175,0.24,0.263,0.461,0.263
		C24.719,7.98,24.887,7.703,24.887,7.149z"/>
	<path class="st0" d="M27.121,8.548c-0.387,0-0.703-0.119-0.946-0.356c-0.244-0.237-0.365-0.554-0.365-0.95V7.173
		c0-0.265,0.051-0.502,0.154-0.711s0.248-0.37,0.436-0.483c0.188-0.113,0.402-0.17,0.643-0.17c0.361,0,0.646,0.114,0.853,0.342
		c0.208,0.228,0.312,0.551,0.312,0.97v0.287h-1.682c0.023,0.173,0.091,0.312,0.207,0.416c0.114,0.104,0.26,0.156,0.436,0.156
		c0.272,0,0.484-0.099,0.637-0.296l0.347,0.388c-0.106,0.15-0.249,0.267-0.43,0.351S27.34,8.548,27.121,8.548z M27.04,6.378
		c-0.14,0-0.253,0.047-0.341,0.142c-0.087,0.095-0.143,0.23-0.167,0.407h0.981V6.871c-0.003-0.156-0.045-0.278-0.127-0.364
		S27.19,6.378,27.04,6.378z"/>
	<path class="st0" d="M29.967,6.519c-0.096-0.013-0.181-0.02-0.254-0.02c-0.267,0-0.442,0.091-0.525,0.271V8.5h-0.706V5.858h0.667
		l0.02,0.315c0.142-0.243,0.338-0.364,0.588-0.364c0.078,0,0.151,0.011,0.22,0.032L29.967,6.519z"/>
	<path class="st0" d="M30.176,5.174c0-0.105,0.036-0.192,0.106-0.261c0.071-0.068,0.167-0.104,0.29-0.104
		c0.121,0,0.216,0.035,0.288,0.104s0.107,0.155,0.107,0.261c0,0.107-0.036,0.195-0.109,0.264c-0.072,0.068-0.168,0.103-0.287,0.103
		s-0.214-0.034-0.287-0.103C30.212,5.37,30.176,5.282,30.176,5.174z M30.926,8.5h-0.708V5.858h0.708V8.5z"/>
	<path class="st0" d="M32.031,5.858l0.022,0.306c0.188-0.236,0.442-0.354,0.758-0.354c0.281,0,0.488,0.082,0.625,0.247
		c0.137,0.164,0.207,0.41,0.211,0.736V8.5h-0.705V6.806c0-0.15-0.033-0.259-0.098-0.327c-0.066-0.067-0.174-0.101-0.326-0.101
		c-0.197,0-0.346,0.084-0.446,0.254V8.5h-0.706V5.858H32.031z"/>
	<path class="st0" d="M34.901,5.208v0.649h0.452v0.518h-0.452v1.318c0,0.098,0.02,0.168,0.057,0.21s0.109,0.063,0.215,0.063
		c0.078,0,0.147-0.006,0.207-0.017v0.534c-0.138,0.042-0.28,0.063-0.427,0.063c-0.495,0-0.747-0.25-0.757-0.75V6.375h-0.386V5.858
		h0.386V5.208H34.901z"/>
	<path class="st0" d="M36.837,8.548c-0.387,0-0.702-0.119-0.945-0.356s-0.365-0.554-0.365-0.95V7.173
		c0-0.265,0.051-0.502,0.154-0.711c0.102-0.209,0.247-0.37,0.436-0.483c0.188-0.113,0.402-0.17,0.643-0.17
		c0.361,0,0.646,0.114,0.854,0.342c0.208,0.228,0.312,0.551,0.312,0.97v0.287h-1.683c0.023,0.173,0.092,0.312,0.207,0.416
		c0.114,0.104,0.26,0.156,0.436,0.156c0.271,0,0.484-0.099,0.637-0.296l0.348,0.388c-0.106,0.15-0.25,0.267-0.43,0.351
		C37.257,8.506,37.058,8.548,36.837,8.548z M36.757,6.378c-0.14,0-0.254,0.047-0.341,0.142s-0.143,0.23-0.167,0.407h0.981V6.871
		c-0.003-0.156-0.046-0.278-0.127-0.364S36.906,6.378,36.757,6.378z"/>
	<path class="st0" d="M38.849,5.858l0.022,0.306c0.188-0.236,0.442-0.354,0.759-0.354c0.28,0,0.488,0.082,0.625,0.247
		c0.137,0.164,0.207,0.41,0.211,0.736V8.5H39.76V6.806c0-0.15-0.032-0.259-0.098-0.327c-0.065-0.067-0.173-0.101-0.325-0.101
		c-0.198,0-0.347,0.084-0.446,0.254V8.5h-0.706V5.858H38.849z"/>
	<path class="st0" d="M40.765,7.16c0-0.412,0.093-0.74,0.277-0.984s0.438-0.366,0.758-0.366c0.257,0,0.47,0.096,0.638,0.288V4.75
		h0.707V8.5h-0.637l-0.034-0.281c-0.176,0.221-0.402,0.33-0.679,0.33c-0.311,0-0.561-0.122-0.748-0.367
		C40.858,7.936,40.765,7.595,40.765,7.16z M41.471,7.209c0,0.248,0.043,0.438,0.129,0.571s0.212,0.199,0.376,0.199
		c0.218,0,0.372-0.093,0.462-0.277V6.655c-0.088-0.185-0.24-0.276-0.457-0.276C41.641,6.378,41.471,6.655,41.471,7.209z"/>
	<path class="st0" d="M44.782,8.548c-0.387,0-0.702-0.119-0.945-0.356s-0.365-0.554-0.365-0.95V7.173
		c0-0.265,0.051-0.502,0.154-0.711c0.102-0.209,0.247-0.37,0.436-0.483c0.188-0.113,0.402-0.17,0.643-0.17
		c0.361,0,0.646,0.114,0.854,0.342c0.208,0.228,0.312,0.551,0.312,0.97v0.287h-1.683c0.023,0.173,0.092,0.312,0.207,0.416
		c0.114,0.104,0.26,0.156,0.436,0.156c0.271,0,0.484-0.099,0.637-0.296l0.348,0.388c-0.106,0.15-0.25,0.267-0.43,0.351
		C45.202,8.506,45.003,8.548,44.782,8.548z M44.702,6.378c-0.14,0-0.254,0.047-0.341,0.142s-0.143,0.23-0.167,0.407h0.981V6.871
		c-0.003-0.156-0.046-0.278-0.127-0.364S44.852,6.378,44.702,6.378z"/>
	<path class="st0" d="M46.794,5.858l0.022,0.306c0.188-0.236,0.442-0.354,0.759-0.354c0.28,0,0.488,0.082,0.625,0.247
		c0.137,0.164,0.207,0.41,0.211,0.736V8.5h-0.706V6.806c0-0.15-0.032-0.259-0.098-0.327c-0.065-0.067-0.173-0.101-0.325-0.101
		c-0.198,0-0.347,0.084-0.446,0.254V8.5H46.13V5.858H46.794z"/>
	<path class="st0" d="M49.664,5.208v0.649h0.452v0.518h-0.452v1.318c0,0.098,0.02,0.168,0.057,0.21s0.109,0.063,0.215,0.063
		c0.078,0,0.147-0.006,0.207-0.017v0.534c-0.138,0.042-0.28,0.063-0.427,0.063c-0.495,0-0.747-0.25-0.757-0.75V6.375h-0.386V5.858
		h0.386V5.208H49.664z"/>
	<path class="st0" d="M51.814,7.769c0-0.086-0.042-0.153-0.128-0.203c-0.085-0.05-0.223-0.094-0.411-0.133
		c-0.628-0.133-0.942-0.399-0.942-0.801c0-0.234,0.098-0.431,0.292-0.588s0.448-0.235,0.763-0.235c0.335,0,0.604,0.079,0.805,0.237
		c0.201,0.157,0.302,0.362,0.302,0.615h-0.706c0-0.102-0.032-0.185-0.098-0.251c-0.065-0.065-0.167-0.099-0.306-0.099
		c-0.118,0-0.21,0.027-0.275,0.08c-0.065,0.055-0.098,0.123-0.098,0.205c0,0.078,0.037,0.142,0.111,0.189s0.199,0.09,0.375,0.125
		s0.323,0.074,0.443,0.118c0.373,0.137,0.56,0.374,0.56,0.71c0,0.241-0.104,0.437-0.31,0.585c-0.207,0.149-0.475,0.224-0.801,0.224
		c-0.222,0-0.418-0.039-0.59-0.118s-0.307-0.188-0.404-0.325S50.25,7.819,50.25,7.66h0.669c0.007,0.125,0.053,0.222,0.14,0.288
		c0.086,0.066,0.201,0.101,0.346,0.101c0.136,0,0.237-0.026,0.307-0.077C51.78,7.919,51.814,7.853,51.814,7.769z"/>
	<path class="st0" d="M54.172,8.804h-0.524l1.309-3.859h0.524L54.172,8.804z"/>
</g>
<g>
	<path class="st0" d="M20.315,10.705h-1.089v2.961h-0.732v-2.961H17.42v-0.594h2.896V10.705z"/>
	<path class="st0" d="M21.56,13.715c-0.387,0-0.703-0.119-0.946-0.356c-0.244-0.237-0.365-0.554-0.365-0.95V12.34
		c0-0.265,0.051-0.502,0.154-0.711s0.248-0.37,0.436-0.483c0.188-0.113,0.402-0.17,0.643-0.17c0.361,0,0.646,0.114,0.853,0.342
		c0.208,0.228,0.312,0.551,0.312,0.97v0.287h-1.682c0.023,0.173,0.091,0.312,0.207,0.416c0.114,0.104,0.26,0.156,0.436,0.156
		c0.272,0,0.484-0.099,0.637-0.296l0.347,0.388c-0.106,0.15-0.249,0.267-0.43,0.351S21.78,13.715,21.56,13.715z M21.479,11.545
		c-0.14,0-0.253,0.047-0.341,0.142c-0.087,0.095-0.143,0.23-0.167,0.407h0.981v-0.057c-0.003-0.156-0.045-0.278-0.127-0.364
		S21.629,11.545,21.479,11.545z"/>
	<path class="st0" d="M24.021,13.146c0.13,0,0.236-0.036,0.317-0.107c0.082-0.072,0.124-0.167,0.127-0.286h0.662
		c-0.001,0.179-0.05,0.343-0.146,0.492c-0.096,0.148-0.228,0.265-0.395,0.347c-0.167,0.082-0.351,0.123-0.553,0.123
		c-0.377,0-0.675-0.12-0.894-0.36s-0.327-0.571-0.327-0.995v-0.046c0-0.407,0.108-0.731,0.325-0.974
		c0.216-0.243,0.514-0.364,0.891-0.364c0.331,0,0.595,0.094,0.795,0.282c0.199,0.188,0.3,0.438,0.304,0.75h-0.662
		c-0.003-0.137-0.045-0.249-0.127-0.335s-0.189-0.128-0.322-0.128c-0.165,0-0.289,0.06-0.373,0.18
		c-0.083,0.119-0.125,0.313-0.125,0.583v0.073c0,0.272,0.042,0.468,0.125,0.587S23.851,13.146,24.021,13.146z"/>
	<path class="st0" d="M26.093,11.312c0.187-0.225,0.422-0.337,0.706-0.337c0.573,0,0.863,0.333,0.872,0.999v1.691h-0.706V11.99
		c0-0.152-0.033-0.265-0.098-0.337s-0.173-0.108-0.325-0.108c-0.207,0-0.356,0.079-0.449,0.239v1.882h-0.706v-3.75h0.706V11.312z"/>
	<path class="st0" d="M28.727,11.024l0.022,0.306c0.189-0.236,0.442-0.354,0.759-0.354c0.28,0,0.488,0.082,0.625,0.247
		c0.137,0.164,0.207,0.41,0.21,0.736v1.707h-0.706v-1.693c0-0.15-0.033-0.259-0.098-0.327c-0.065-0.067-0.173-0.101-0.325-0.101
		c-0.199,0-0.348,0.084-0.447,0.254v1.867h-0.706v-2.642H28.727z"/>
	<path class="st0" d="M30.643,12.32c0-0.262,0.05-0.495,0.151-0.7s0.246-0.364,0.436-0.476c0.19-0.113,0.41-0.169,0.661-0.169
		c0.357,0,0.647,0.109,0.873,0.327s0.352,0.515,0.377,0.889l0.006,0.181c0,0.405-0.113,0.73-0.34,0.976s-0.529,0.367-0.911,0.367
		c-0.381,0-0.685-0.122-0.912-0.366c-0.228-0.244-0.341-0.576-0.341-0.996V12.32z M31.348,12.371c0,0.251,0.047,0.442,0.142,0.575
		s0.229,0.2,0.405,0.2c0.171,0,0.304-0.066,0.401-0.197c0.096-0.131,0.144-0.341,0.144-0.63c0-0.246-0.048-0.437-0.144-0.572
		c-0.097-0.135-0.231-0.202-0.406-0.202c-0.172,0-0.306,0.066-0.4,0.201S31.348,12.089,31.348,12.371z"/>
	<path class="st0" d="M34.199,13.666h-0.708v-3.75h0.708V13.666z"/>
	<path class="st0" d="M34.545,12.32c0-0.262,0.051-0.495,0.151-0.7s0.246-0.364,0.436-0.476c0.189-0.113,0.41-0.169,0.66-0.169
		c0.357,0,0.647,0.109,0.873,0.327s0.352,0.515,0.377,0.889l0.006,0.181c0,0.405-0.113,0.73-0.34,0.976s-0.529,0.367-0.91,0.367
		s-0.686-0.122-0.912-0.366c-0.228-0.244-0.341-0.576-0.341-0.996V12.32z M35.251,12.371c0,0.251,0.047,0.442,0.141,0.575
		c0.095,0.133,0.23,0.2,0.406,0.2c0.17,0,0.304-0.066,0.4-0.197c0.096-0.131,0.144-0.341,0.144-0.63
		c0-0.246-0.048-0.437-0.144-0.572c-0.097-0.135-0.231-0.202-0.406-0.202c-0.172,0-0.306,0.066-0.4,0.201
		C35.298,11.881,35.251,12.089,35.251,12.371z"/>
	<path class="st0" d="M37.255,12.326c0-0.406,0.097-0.732,0.29-0.979c0.192-0.247,0.452-0.371,0.78-0.371
		c0.289,0,0.515,0.1,0.676,0.298l0.029-0.249h0.64v2.554c0,0.231-0.053,0.432-0.157,0.604c-0.105,0.17-0.253,0.301-0.443,0.391
		c-0.19,0.089-0.413,0.134-0.669,0.134c-0.193,0-0.383-0.039-0.566-0.116s-0.323-0.177-0.417-0.299l0.312-0.43
		c0.176,0.197,0.389,0.295,0.639,0.295c0.188,0,0.333-0.05,0.438-0.149c0.104-0.101,0.156-0.242,0.156-0.427v-0.141
		c-0.163,0.184-0.377,0.275-0.643,0.275c-0.316,0-0.573-0.124-0.77-0.372s-0.295-0.577-0.295-0.987V12.326z M37.961,12.376
		c0,0.24,0.048,0.429,0.144,0.565c0.097,0.137,0.229,0.205,0.396,0.205c0.215,0,0.368-0.081,0.461-0.243v-1.116
		c-0.095-0.162-0.246-0.242-0.457-0.242c-0.169,0-0.302,0.069-0.398,0.208S37.961,12.1,37.961,12.376z"/>
	<path class="st0" d="M41.073,12.668l0.488-1.644h0.756l-1.062,3.052l-0.059,0.139c-0.158,0.346-0.418,0.518-0.781,0.518
		c-0.103,0-0.207-0.015-0.312-0.046v-0.534l0.107,0.002c0.134,0,0.233-0.021,0.299-0.061c0.066-0.041,0.118-0.108,0.155-0.203
		l0.083-0.217l-0.925-2.649h0.759L41.073,12.668z"/>
	<path class="st0" d="M43.638,13.666v-3.555h1.094c0.312,0,0.592,0.07,0.839,0.211c0.246,0.141,0.438,0.341,0.577,0.601
		s0.208,0.555,0.208,0.886v0.163c0,0.33-0.068,0.624-0.204,0.882c-0.136,0.257-0.328,0.456-0.575,0.598s-0.526,0.213-0.838,0.215
		H43.638z M44.37,10.705v2.373h0.354c0.286,0,0.505-0.094,0.656-0.281s0.229-0.455,0.232-0.803v-0.188
		c0-0.361-0.075-0.635-0.225-0.821c-0.15-0.187-0.369-0.279-0.657-0.279H44.37z"/>
	<path class="st0" d="M46.71,10.341c0-0.105,0.036-0.192,0.106-0.261c0.071-0.068,0.167-0.104,0.29-0.104
		c0.12,0,0.216,0.035,0.287,0.104c0.072,0.068,0.107,0.155,0.107,0.261c0,0.107-0.036,0.195-0.108,0.264s-0.168,0.103-0.286,0.103
		c-0.119,0-0.215-0.034-0.287-0.103S46.71,10.448,46.71,10.341z M47.46,13.666h-0.708v-2.642h0.708V13.666z"/>
	<path class="st0" d="M49.401,11.686c-0.097-0.013-0.182-0.02-0.254-0.02c-0.268,0-0.442,0.091-0.525,0.271v1.729h-0.705v-2.642
		h0.666l0.02,0.315c0.142-0.243,0.338-0.364,0.588-0.364c0.078,0,0.152,0.011,0.221,0.032L49.401,11.686z"/>
	<path class="st0" d="M50.784,13.715c-0.387,0-0.702-0.119-0.945-0.356s-0.365-0.554-0.365-0.95V12.34
		c0-0.265,0.051-0.502,0.154-0.711c0.102-0.209,0.247-0.37,0.436-0.483c0.188-0.113,0.402-0.17,0.643-0.17
		c0.361,0,0.646,0.114,0.854,0.342c0.208,0.228,0.312,0.551,0.312,0.97v0.287h-1.683c0.023,0.173,0.092,0.312,0.207,0.416
		c0.114,0.104,0.26,0.156,0.436,0.156c0.271,0,0.484-0.099,0.637-0.296l0.348,0.388c-0.106,0.15-0.25,0.267-0.43,0.351
		C51.204,13.673,51.005,13.715,50.784,13.715z M50.704,11.545c-0.14,0-0.254,0.047-0.341,0.142s-0.143,0.23-0.167,0.407h0.981
		v-0.057c-0.003-0.156-0.046-0.278-0.127-0.364S50.854,11.545,50.704,11.545z"/>
	<path class="st0" d="M53.245,13.146c0.131,0,0.236-0.036,0.318-0.107c0.081-0.072,0.123-0.167,0.127-0.286h0.661
		c-0.002,0.179-0.051,0.343-0.146,0.492c-0.096,0.148-0.228,0.265-0.395,0.347s-0.351,0.123-0.553,0.123
		c-0.378,0-0.676-0.12-0.894-0.36s-0.327-0.571-0.327-0.995v-0.046c0-0.407,0.108-0.731,0.325-0.974
		c0.216-0.243,0.513-0.364,0.891-0.364c0.33,0,0.596,0.094,0.795,0.282c0.199,0.188,0.301,0.438,0.304,0.75H53.69
		c-0.004-0.137-0.046-0.249-0.127-0.335c-0.082-0.086-0.189-0.128-0.322-0.128c-0.165,0-0.289,0.06-0.373,0.18
		c-0.084,0.119-0.125,0.313-0.125,0.583v0.073c0,0.272,0.041,0.468,0.124,0.587S53.076,13.146,53.245,13.146z"/>
	<path class="st0" d="M55.474,10.375v0.649h0.452v0.518h-0.452v1.318c0,0.098,0.02,0.168,0.057,0.21s0.109,0.063,0.215,0.063
		c0.078,0,0.147-0.006,0.207-0.017v0.534c-0.138,0.042-0.28,0.063-0.427,0.063c-0.495,0-0.747-0.25-0.757-0.75v-1.423h-0.386v-0.518
		h0.386v-0.649H55.474z"/>
	<path class="st0" d="M56.01,12.32c0-0.262,0.051-0.495,0.151-0.7s0.246-0.364,0.436-0.476c0.189-0.113,0.41-0.169,0.66-0.169
		c0.357,0,0.647,0.109,0.873,0.327s0.352,0.515,0.377,0.889l0.006,0.181c0,0.405-0.113,0.73-0.34,0.976s-0.529,0.367-0.91,0.367
		s-0.686-0.122-0.912-0.366c-0.228-0.244-0.341-0.576-0.341-0.996V12.32z M56.716,12.371c0,0.251,0.047,0.442,0.141,0.575
		c0.095,0.133,0.23,0.2,0.406,0.2c0.17,0,0.304-0.066,0.4-0.197c0.096-0.131,0.144-0.341,0.144-0.63
		c0-0.246-0.048-0.437-0.144-0.572c-0.097-0.135-0.231-0.202-0.406-0.202c-0.172,0-0.306,0.066-0.4,0.201
		C56.763,11.881,56.716,12.089,56.716,12.371z"/>
	<path class="st0" d="M60.308,11.686c-0.097-0.013-0.182-0.02-0.254-0.02c-0.268,0-0.442,0.091-0.525,0.271v1.729h-0.705v-2.642
		h0.666l0.02,0.315c0.142-0.243,0.338-0.364,0.588-0.364c0.078,0,0.152,0.011,0.221,0.032L60.308,11.686z"/>
	<path class="st0" d="M61.951,12.936c0-0.086-0.042-0.153-0.128-0.203c-0.085-0.05-0.223-0.094-0.411-0.133
		c-0.628-0.133-0.942-0.399-0.942-0.801c0-0.234,0.098-0.431,0.292-0.588s0.448-0.235,0.763-0.235c0.335,0,0.604,0.079,0.805,0.237
		c0.201,0.157,0.302,0.362,0.302,0.615h-0.706c0-0.102-0.032-0.185-0.098-0.251c-0.065-0.065-0.167-0.099-0.306-0.099
		c-0.118,0-0.21,0.027-0.275,0.08c-0.065,0.055-0.098,0.123-0.098,0.205c0,0.078,0.037,0.142,0.111,0.189s0.199,0.09,0.375,0.125
		s0.323,0.074,0.443,0.118c0.373,0.137,0.56,0.374,0.56,0.71c0,0.241-0.104,0.437-0.31,0.585c-0.207,0.149-0.475,0.224-0.801,0.224
		c-0.222,0-0.418-0.039-0.59-0.118s-0.307-0.188-0.404-0.325s-0.146-0.286-0.146-0.445h0.669c0.007,0.125,0.053,0.222,0.14,0.288
		c0.086,0.066,0.201,0.101,0.346,0.101c0.136,0,0.237-0.026,0.307-0.077C61.917,13.086,61.951,13.02,61.951,12.936z"/>
</g>
<g>
	<g>
		<path class="st0" d="M16.068,14.79c-0.033-0.035-0.067-0.068-0.099-0.103c-0.002-0.101-0.008-0.201-0.011-0.292
			c-0.002-0.052-0.047-0.073-0.086-0.066c-0.006-0.005-0.01-0.011-0.019-0.012c-0.204-0.03-0.412-0.016-0.618-0.015
			c-0.198,0.001-0.398-0.005-0.595,0.016c-0.001-0.015-0.004-0.029-0.015-0.041c0.057-0.403,0.019-0.827,0.019-1.233
			c-0.001-0.52-0.001-1.04-0.002-1.56c-0.001-1.038,0.03-2.085-0.045-3.121c-0.001-0.009-0.006-0.014-0.013-0.016
			c-0.002-0.015-0.003-0.029-0.006-0.044c0.032-0.023,0.027-0.072-0.019-0.083c-0.001-0.003-0.001-0.007-0.002-0.01
			c-0.008-0.027-0.046-0.027-0.055,0c0,0.001,0,0.002-0.001,0.003c-0.359-0.038-0.733-0.008-1.094-0.008c-0.005,0-0.011,0-0.016,0
			c-0.013-0.017-0.027-0.032-0.039-0.049c-0.041-0.061-0.145-0.026-0.126,0.049c-0.369,0-0.739,0.001-1.108,0.002
			c-0.79,0.002-1.582-0.006-2.372,0.007C9.599,8.212,9.45,8.213,9.302,8.212c0.04-0.028,0.039-0.073,0.014-0.1
			c0.051-0.384,0.09-0.82,0.059-1.208c0.188-0.119,0.378-0.237,0.571-0.347c0.476-0.271,0.969-0.51,1.447-0.778
			c0.014-0.008,0.02-0.019,0.022-0.03c0.009,0.001,0.018,0.002,0.028,0.003c0.115,0.011,0.119-0.155,0.011-0.175
			c-0.879-0.159-1.775-0.251-2.66-0.373C7.969,5.089,7.139,4.939,6.309,4.875c-0.052-0.004-0.081,0.05-0.073,0.092
			C5.057,5.222,3.907,5.53,2.704,5.68C2.579,5.695,2.607,5.874,2.719,5.887C2.687,5.932,2.697,6.012,2.758,6.037
			c0.481,0.196,0.989,0.344,1.501,0.48c-0.065,0.322-0.1,0.656-0.134,0.982C4.018,7.505,3.909,7.614,3.859,7.714
			C3.775,7.881,3.642,8.215,3.77,8.382C3.777,8.391,3.785,8.396,3.794,8.4c0,0.005-0.001,0.011-0.001,0.016
			C3.787,8.482,3.775,8.55,3.829,8.597c0.008,0.007,0.026,0.008,0.036,0.002c0.06-0.04,0.056-0.108,0.059-0.175
			C3.927,8.356,3.932,8.288,3.925,8.22C3.927,8.21,3.927,8.2,3.928,8.19c0.024,0.005,0.049,0.008,0.075,0.009
			c-0.02,0.07-0.037,0.142-0.05,0.214C3.944,8.47,3.918,8.536,3.966,8.581C3.98,8.593,3.995,8.596,4.012,8.589
			c0.065-0.026,0.063-0.108,0.075-0.168C4.101,8.35,4.11,8.278,4.116,8.206c0.008,0.001,0.016,0.001,0.024,0.002
			c-0.01,0.071-0.015,0.142-0.022,0.214C4.11,8.506,4.09,8.589,4.143,8.66c0.012,0.017,0.042,0.018,0.057,0.004
			c0.07-0.071,0.056-0.182,0.061-0.276c0.003-0.06,0.006-0.118,0.007-0.177c0.026,0,0.053-0.002,0.079-0.006
			C4.33,8.383,4.299,8.557,4.303,8.643c0.003,0.079,0.13,0.122,0.15,0.03C4.491,8.492,4.494,8.304,4.509,8.12
			c0.01-0.121,0.033-0.263-0.014-0.38C4.456,7.644,4.381,7.56,4.292,7.529c0.048-0.32,0.1-0.649,0.118-0.973
			C4.64,6.617,4.87,6.676,5.099,6.736C5.092,6.744,5.086,6.753,5.085,6.764C5.057,6.952,5.061,7.147,5.057,7.336
			c-0.001,0.046-0.003,0.093-0.004,0.14C4.993,7.47,4.966,7.552,5.027,7.577c0.008,0.003,0.017,0.007,0.025,0.01
			c0,0.052,0.002,0.104,0.009,0.155C5.043,7.806,5.038,7.877,5.033,7.941C4.978,7.98,4.956,8.066,5.031,8.11
			c0.004,0.002,0.007,0.004,0.011,0.006c0.007,0.011,0.016,0.022,0.03,0.032c0.011,0.008,0.025,0.009,0.039,0.007
			c0.035,0.019,0.074,0.034,0.11,0.052c-0.076,0.003-0.153,0-0.228,0.008c0-0.001,0-0.002-0.001-0.003
			c-0.008-0.027-0.046-0.027-0.055,0c-0.001,0.003-0.001,0.007-0.002,0.01c-0.046,0.011-0.051,0.06-0.019,0.083
			C4.914,8.318,4.912,8.333,4.91,8.348C4.904,8.35,4.898,8.355,4.897,8.364c-0.075,1.035-0.044,2.083-0.045,3.121
			c0,0.354-0.001,0.707-0.001,1.06c-0.02,0.019-0.029,0.047-0.012,0.079c0.004,0.008,0.008,0.016,0.012,0.023
			c0,0.132,0,0.265,0,0.397c0,0.406-0.038,0.83,0.019,1.233c-0.01,0.011-0.014,0.026-0.015,0.041
			c-0.022-0.002-0.045-0.003-0.067-0.005c-0.026-0.024-0.066-0.023-0.096-0.006c-0.144-0.006-0.288-0.003-0.431-0.004
			c-0.206-0.001-0.414-0.015-0.618,0.015c-0.008,0.001-0.013,0.007-0.019,0.012c-0.039-0.008-0.084,0.013-0.086,0.066
			c-0.007,0.229-0.036,0.516,0.04,0.735c0.01,0.03,0.05,0.03,0.06,0c0.004-0.011,0.006-0.023,0.01-0.034
			c0.461,0.06,0.939,0.025,1.402,0.025c0.183,0,0.367,0,0.55,0c0.015,0.012,0.029,0.023,0.044,0.035
			c0.053,0.042,0.118,0.016,0.133-0.035c0.286,0,0.572,0,0.859,0c0.922,0,1.846,0.016,2.768,0c0.036,0.014,0.071,0.029,0.107,0.043
			c0.041,0.015,0.072-0.012,0.085-0.046c0.05-0.001,0.1-0.001,0.151-0.003c0.394,0.011,0.789,0.013,1.184,0.013
			c0.007,0.007,0.013,0.014,0.02,0.021c0.041,0.043,0.096,0.021,0.117-0.021c0.597-0.001,1.194-0.008,1.79-0.008
			c0.512,0,1.025,0,1.538,0c0,0,0,0,0,0c0.035,0.029,0.082,0.023,0.113,0c0.403,0.003,0.815,0.026,1.217-0.013
			c0.032,0.026,0.065,0.053,0.098,0.079c0.08,0.065,0.178-0.033,0.113-0.113c-0.001-0.001-0.002-0.003-0.003-0.004
			c0.015-0.058,0.024-0.12,0.029-0.183c0.001,0.001,0.002,0.002,0.004,0.003C16.035,14.952,16.131,14.857,16.068,14.79z
			 M4.106,7.699C4.081,7.718,4.082,7.75,4.094,7.775C4.058,7.778,4.039,7.809,4.041,7.839C4.027,7.861,4.025,7.887,4.038,7.91
			C4.018,7.916,4,7.927,3.985,7.947c-0.01,0.013-0.009,0.031-0.003,0.046c0.006,0.014,0.015,0.024,0.026,0.033
			c-0.02-0.001-0.041-0.002-0.061-0.001C3.948,8.015,3.95,8.006,3.952,7.998c0.02-0.077,0.068-0.295,0.169-0.334
			c0.001,0,0.002,0.001,0.004,0c0.031-0.002,0.058,0.001,0.081,0.009C4.171,7.671,4.138,7.675,4.106,7.699z M14.527,9.039
			c-0.004,0.131-0.007,0.262-0.009,0.394c-0.027-0.128-0.053-0.256-0.08-0.384C14.465,9.066,14.502,9.06,14.527,9.039z
			 M14.265,14.174c0.018,0.011,0.036,0.022,0.054,0.033c0.026,0.017,0.052,0.013,0.072,0c0.01,0.015,0.02,0.03,0.03,0.044
			c-0.054-0.002-0.109-0.003-0.163-0.004c0.018-0.018,0.026-0.046,0.009-0.07C14.267,14.176,14.266,14.175,14.265,14.174z
			 M14.111,13.655c0.021-0.201,0.03-0.407,0.033-0.614c0.055,0.106,0.113,0.21,0.173,0.314c0.056,0.096,0.105,0.21,0.184,0.29
			c-0.001,0.177,0.002,0.354,0.02,0.527L14.111,13.655z M13.995,14.511c0.036,0.054,0.072,0.109,0.108,0.164
			c-0.111-0.088-0.223-0.176-0.333-0.266c0.095-0.001,0.19-0.004,0.285-0.006C14.006,14.407,13.961,14.46,13.995,14.511z
			 M13.542,14.234c0-0.031,0-0.062,0-0.093c0.107,0.032,0.214,0.064,0.32,0.096C13.755,14.235,13.649,14.234,13.542,14.234z
			 M13.937,14.238c0.027-0.016,0.041-0.053,0.025-0.084l-0.039-0.075c0.081,0.055,0.163,0.11,0.244,0.165
			C14.09,14.242,14.014,14.24,13.937,14.238z M14.081,13.923c-0.042-0.022-0.098,0.016-0.089,0.059
			c-0.043-0.029-0.086-0.058-0.128-0.088c0.05-0.004,0.1-0.007,0.149-0.013c0.016,0.028,0.069,0.027,0.074-0.009
			c0,0,0-0.001,0-0.001c0.029-0.01,0.043-0.034,0.043-0.059c0.041,0.067,0.084,0.132,0.128,0.198
			C14.199,13.981,14.139,13.954,14.081,13.923z M14.436,10.736c0.017,0.031,0.049,0.039,0.078,0.033
			c0.001,0.143,0.001,0.286,0.001,0.43c-0.164-0.293-0.277-0.604-0.332-0.932C14.267,10.424,14.35,10.581,14.436,10.736z
			 M14.402,10.106c0.038,0.028,0.098,0.003,0.11-0.043c0,0.139,0,0.278,0.001,0.417C14.476,10.356,14.438,10.232,14.402,10.106z
			 M14.388,12.757c-0.07-0.118-0.146-0.232-0.22-0.348c-0.008-0.013-0.02-0.02-0.031-0.023c-0.003-0.104-0.006-0.207-0.009-0.31
			c0.114,0.233,0.229,0.465,0.347,0.696c0.009,0.018,0.024,0.027,0.04,0.031c0,0.034,0,0.067,0,0.101
			c0,0.179-0.007,0.363-0.011,0.547c-0.022-0.034-0.044-0.068-0.065-0.102c-0.086-0.142-0.173-0.285-0.269-0.421
			c-0.007-0.01-0.015-0.014-0.024-0.016c0-0.11-0.002-0.22-0.004-0.33c0.038,0.066,0.076,0.133,0.115,0.199
			c0.053,0.092,0.107,0.218,0.203,0.27c0.021,0.012,0.05-0.003,0.05-0.028C14.507,12.924,14.437,12.84,14.388,12.757z
			 M14.265,12.083c-0.048-0.091-0.097-0.182-0.145-0.273c-0.001-0.059-0.002-0.118-0.003-0.177
			C14.169,11.782,14.218,11.932,14.265,12.083z M14.115,11.236C14.115,11.236,14.114,11.236,14.115,11.236
			c0-0.071,0-0.141,0.001-0.211c0.049,0.15,0.098,0.3,0.146,0.451C14.212,11.397,14.165,11.315,14.115,11.236z M14.273,11.763
			c0.056,0.092,0.109,0.187,0.165,0.278c0.018,0.029,0.049,0.037,0.077,0.031c0,0.138,0,0.276,0,0.415
			C14.43,12.247,14.349,12.006,14.273,11.763z M14.315,11.192c0.052,0.077,0.103,0.154,0.156,0.23
			c0.012,0.017,0.028,0.027,0.045,0.031c0,0.122,0,0.243,0,0.365C14.447,11.61,14.38,11.401,14.315,11.192z M14.137,9.878
			c-0.004-0.006-0.008-0.011-0.013-0.016c0-0.085-0.001-0.17-0.003-0.255c0.049,0.167,0.097,0.335,0.144,0.503
			C14.223,10.033,14.18,9.956,14.137,9.878z M14.116,9.369c-0.003-0.093-0.006-0.186-0.011-0.279
			c0.028,0.095,0.055,0.19,0.082,0.286C14.167,9.359,14.139,9.358,14.116,9.369z M14.48,8.323c-0.011,0.079-0.012,0.159-0.013,0.242
			c0,0.033-0.001,0.066-0.002,0.1C14.433,8.553,14.4,8.442,14.368,8.33C14.406,8.327,14.443,8.327,14.48,8.323z M14.4,9.553
			c0.029,0.048,0.086,0.041,0.115,0.008c-0.002,0.155-0.002,0.311-0.003,0.466c-0.053-0.185-0.107-0.37-0.159-0.555
			C14.369,9.498,14.384,9.526,14.4,9.553z M14.224,8.338c0.006,0.033,0.014,0.066,0.02,0.099c-0.036,0.009-0.069,0.045-0.06,0.088
			c0,0.001,0,0.002,0.001,0.003c-0.047-0.059-0.096-0.117-0.152-0.167c-0.014-0.013-0.03-0.01-0.042-0.002
			c-0.007-0.006-0.014-0.013-0.021-0.019C14.055,8.341,14.14,8.341,14.224,8.338z M13.657,8.335
			c-0.017,0.016-0.026,0.041-0.013,0.068c0.01,0.022,0.022,0.043,0.033,0.065c-0.062-0.04-0.119-0.086-0.172-0.137
			C13.555,8.332,13.606,8.333,13.657,8.335z M13.795,8.677c0.056,0.036,0.116-0.033,0.087-0.087
			c-0.045-0.083-0.09-0.165-0.139-0.245c-0.002-0.004-0.005-0.006-0.008-0.009c0.053,0.001,0.106,0.002,0.159,0.003
			c-0.006,0.013-0.009,0.027-0.003,0.039c0.034,0.071,0.089,0.133,0.138,0.195c0.06,0.076,0.12,0.152,0.183,0.225
			c0.01,0.011,0.021,0.016,0.033,0.017c0.02,0.096,0.04,0.192,0.059,0.287c-0.033-0.056-0.065-0.113-0.099-0.169
			c-0.026-0.043-0.079-0.041-0.11-0.014c-0.002-0.032-0.003-0.064-0.006-0.095c-0.002-0.029-0.024-0.042-0.046-0.04
			c-0.168-0.02-0.338-0.032-0.508-0.039c0.01-0.015,0.013-0.034,0.006-0.057c-0.03-0.091-0.063-0.18-0.094-0.27
			C13.557,8.511,13.669,8.596,13.795,8.677z M14.002,8.868c-0.058,0.844-0.02,1.701-0.021,2.547
			c-0.001,0.757-0.082,1.572,0.011,2.328c-0.719-0.076-1.474-0.016-2.195-0.016c-0.658,0-1.394-0.088-2.048,0.03
			c-0.654-0.118-1.39-0.03-2.048-0.03c-0.721,0-1.477-0.06-2.195,0.016c0.093-0.756,0.012-1.57,0.011-2.328
			C5.515,10.683,5.542,9.943,5.512,9.21c0.011-0.018,0.015-0.039,0.006-0.062C5.515,9.139,5.512,9.13,5.508,9.121
			C5.504,9.037,5.5,8.952,5.494,8.868c0.744,0.083,1.519,0.026,2.267,0.025c0.66-0.001,1.326,0.021,1.986-0.006
			c0.448,0.018,0.899,0.014,1.348,0.01c0.062,0.038,0.129,0.061,0.197,0.043c0.021-0.005,0.024-0.029,0.014-0.045
			c0.143-0.001,0.285-0.002,0.427-0.002c0.213,0,0.429,0.005,0.645,0.01c0.005,0.009,0.008,0.019,0.013,0.027
			c0.028,0.049,0.101,0.028,0.106-0.025C13.002,8.916,13.508,8.923,14.002,8.868z M10.914,14.134
			c0.122,0.033,0.244,0.066,0.366,0.099c0.051,0.014,0.086-0.035,0.073-0.08c0.068,0.028,0.136,0.057,0.203,0.085
			c-0.288,0-0.575,0-0.863,0c-0.279,0-0.579-0.025-0.865-0.004c0.002-0.009,0.003-0.018,0.001-0.027
			c-0.008-0.029-0.016-0.058-0.024-0.087c0.124,0.028,0.248,0.057,0.372,0.085c0.042,0.01,0.096-0.03,0.078-0.077
			c-0.011-0.029-0.023-0.059-0.034-0.088c0.081,0.048,0.162,0.096,0.244,0.145c0.051,0.03,0.109-0.029,0.08-0.08
			c-0.018-0.031-0.035-0.061-0.053-0.092c0.12,0.072,0.241,0.143,0.361,0.216c0.047,0.029,0.099-0.027,0.074-0.074
			C10.921,14.148,10.917,14.141,10.914,14.134z M11.159,14.441c0.121,0.091,0.214,0.195,0.29,0.313
			c-0.148-0.115-0.297-0.231-0.443-0.349c0.043,0,0.085,0,0.128,0C11.139,14.418,11.146,14.431,11.159,14.441z M9.673,14.117
			c-0.112-0.046-0.225-0.092-0.337-0.138c-0.046-0.019-0.089,0.035-0.077,0.077c0.005,0.017,0.01,0.034,0.014,0.051
			c-0.065-0.022-0.13-0.034-0.211-0.038c-0.106-0.006-0.184,0.059-0.298,0.025c-0.108-0.032-0.216-0.064-0.324-0.096
			c-0.038-0.011-0.069,0.015-0.076,0.049c-0.059-0.031-0.118-0.061-0.177-0.092c-0.043-0.022-0.092,0.009-0.092,0.055
			c-0.058-0.036-0.117-0.072-0.175-0.108c0.6,0.014,1.247,0.072,1.829-0.033c0.095,0.017,0.192,0.029,0.29,0.038
			c0,0.002-0.001,0.003,0,0.005c0.018,0.048,0.036,0.096,0.055,0.144c-0.12-0.028-0.241-0.055-0.361-0.083
			c-0.046-0.011-0.091,0.03-0.077,0.077C9.66,14.074,9.667,14.095,9.673,14.117z M9.413,14.146c0.069,0.028,0.138,0.057,0.207,0.085
			c-0.064-0.004-0.128-0.006-0.193-0.006c0.001-0.008,0.003-0.016,0.001-0.026C9.423,14.181,9.418,14.164,9.413,14.146z
			 M9.249,14.226c-0.099,0.003-0.196,0.006-0.293,0.008C8.988,14.184,8.947,14.082,9.249,14.226z M7.217,14.62
			c-0.058-0.07-0.114-0.141-0.17-0.213c0.04,0,0.081,0,0.121-0.001c-0.005,0.014-0.007,0.029-0.003,0.043
			C7.182,14.507,7.2,14.563,7.217,14.62z M7.103,14.237c0.014-0.011,0.024-0.027,0.024-0.048c0.001-0.035,0.002-0.07,0.003-0.106
			c0.109,0.052,0.218,0.103,0.327,0.155C7.339,14.238,7.221,14.237,7.103,14.237z M7.439,14.046
			c0.003,0.014,0.005,0.029,0.008,0.043c-0.116-0.055-0.231-0.11-0.347-0.166c-0.045-0.021-0.098,0.004-0.099,0.057
			C7,14.014,6.999,14.048,6.998,14.082c-0.105-0.054-0.21-0.109-0.314-0.163c0.341-0.006,0.682-0.019,1.016-0.019
			c0.013,0,0.027,0,0.04,0.001c0,0.002-0.001,0.003-0.001,0.005c0.005,0.043,0.009,0.085,0.014,0.128
			c-0.078-0.022-0.156-0.045-0.234-0.067C7.468,13.952,7.43,13.999,7.439,14.046z M6.648,14.234
			c0.031-0.003,0.059-0.025,0.059-0.062c0-0.031,0-0.062,0-0.093c0.101,0.052,0.202,0.105,0.303,0.157
			C6.89,14.235,6.769,14.235,6.648,14.234z M6.983,14.617c-0.097-0.067-0.191-0.137-0.285-0.208c0.067,0,0.134-0.001,0.201-0.001
			c-0.004,0.016-0.003,0.034,0.007,0.054C6.931,14.514,6.957,14.565,6.983,14.617z M7.584,14.12c0.075,0.021,0.15,0.043,0.225,0.064
			c0.037,0.01,0.086-0.02,0.081-0.062c-0.004-0.031-0.007-0.062-0.011-0.093c0.093,0.057,0.185,0.114,0.278,0.171
			c0.047,0.029,0.104-0.017,0.093-0.069c0.054,0.028,0.109,0.056,0.163,0.084c0.048,0.025,0.099-0.014,0.092-0.066
			c0.1,0.03,0.201,0.06,0.301,0.09c-0.002,0-0.003,0-0.005,0c-0.406,0-0.812,0-1.218,0c0.01-0.014,0.017-0.032,0.013-0.053
			C7.592,14.163,7.588,14.141,7.584,14.12z M6.162,14.194c-0.046-0.009-0.092-0.008-0.136,0.009
			c-0.024-0.055-0.048-0.11-0.072-0.165C6.023,14.09,6.092,14.142,6.162,14.194z M5.814,14.045
			c-0.069-0.051-0.138-0.102-0.207-0.152c0.049,0.004,0.097,0.009,0.146,0.013C5.773,13.952,5.794,13.998,5.814,14.045z
			 M5.521,8.652c0.064,0.034,0.127,0.067,0.191,0.1C5.718,8.755,5.724,8.756,5.73,8.758c-0.059,0.004-0.117,0.01-0.176,0.016
			c0.012-0.022,0.014-0.049-0.004-0.077C5.541,8.682,5.531,8.667,5.521,8.652z M5.825,8.639C5.82,8.632,5.815,8.625,5.809,8.617
			C5.88,8.656,5.95,8.695,6.02,8.733C6.032,8.74,6.044,8.742,6.056,8.742C5.963,8.745,5.87,8.749,5.777,8.755
			C5.826,8.74,5.863,8.689,5.825,8.639z M6.071,8.742C6.11,8.736,6.144,8.707,6.145,8.668c0.045,0.023,0.089,0.046,0.134,0.07
			C6.21,8.738,6.14,8.74,6.071,8.742z M10.64,8.522c0.085,0.076,0.176,0.146,0.259,0.217c0.003,0.002,0.006,0.005,0.009,0.008
			c-0.04,0-0.079,0-0.119,0c0-0.014-0.004-0.028-0.013-0.04c-0.006-0.007-0.011-0.015-0.017-0.022
			c0.004-0.016,0.002-0.034-0.013-0.05C10.711,8.598,10.676,8.56,10.64,8.522z M12.771,8.594c0.063,0.051,0.129,0.1,0.2,0.144
			c-0.061,0-0.122,0.002-0.183,0.003c0.014-0.017,0.02-0.04,0.011-0.067C12.789,8.646,12.78,8.62,12.771,8.594z M13.392,8.741
			c-0.06-0.001-0.12-0.003-0.181-0.004c-0.001-0.009-0.003-0.019-0.007-0.028c-0.025-0.057-0.05-0.114-0.076-0.171
			C13.218,8.604,13.306,8.672,13.392,8.741z M13.266,8.327C13.267,8.327,13.267,8.327,13.266,8.327
			c0.021,0.064,0.043,0.128,0.064,0.192c-0.087-0.062-0.173-0.126-0.257-0.192C13.138,8.327,13.202,8.327,13.266,8.327z
			 M12.887,8.327c0,0.012,0.001,0.024,0.006,0.037c0.028,0.066,0.057,0.133,0.085,0.199c-0.101-0.068-0.195-0.145-0.279-0.236
			C12.762,8.327,12.824,8.327,12.887,8.327z M12.487,8.746c-0.005-0.035-0.012-0.069-0.02-0.103c0.054,0.037,0.112,0.07,0.173,0.1
			C12.589,8.743,12.538,8.745,12.487,8.746z M12.525,8.326c-0.002,0.01-0.002,0.021,0.002,0.032c0.018,0.055,0.036,0.11,0.054,0.165
			c-0.074-0.049-0.142-0.105-0.206-0.173c-0.014-0.015-0.03-0.022-0.046-0.024C12.394,8.326,12.46,8.326,12.525,8.326z
			 M12.009,8.753c0.027-0.017,0.042-0.058,0.027-0.091c-0.014-0.029-0.028-0.059-0.041-0.088c-0.003-0.016-0.005-0.027-0.008-0.039
			c0.067,0.05,0.133,0.1,0.2,0.15c0.038,0.028,0.075,0.001,0.088-0.034c0.006,0.005,0.012,0.011,0.018,0.016
			c0.007,0.027,0.014,0.055,0.023,0.082C12.213,8.751,12.111,8.752,12.009,8.753z M11.977,8.325c0.112,0,0.224,0,0.336,0
			c-0.048,0.004-0.092,0.051-0.078,0.106c0.001,0.004,0.002,0.008,0.003,0.012c-0.007-0.001-0.012-0.004-0.02-0.005
			c-0.042-0.006-0.073,0.016-0.079,0.053c-0.071-0.052-0.141-0.104-0.212-0.156c-0.022-0.016-0.058-0.009-0.076,0.01
			c-0.013,0.013-0.025,0.027-0.038,0.04c-0.021,0.022-0.022,0.049-0.01,0.076c0.008,0.018,0.016,0.035,0.024,0.053
			c-0.097-0.065-0.196-0.129-0.296-0.189C11.679,8.325,11.828,8.325,11.977,8.325z M11.604,8.679
			c0.045,0.051,0.135-0.017,0.095-0.073c-0.008-0.012-0.016-0.024-0.024-0.036c0.09,0.061,0.181,0.122,0.271,0.181
			c0.002,0.001,0.004,0.002,0.006,0.003c-0.025,0-0.05,0.001-0.074,0.001c-0.123,0-0.248-0.001-0.371-0.002
			c0.042-0.001,0.077-0.048,0.039-0.085c-0.071-0.068-0.139-0.141-0.202-0.218C11.438,8.514,11.525,8.588,11.604,8.679z
			 M11.141,8.325c0.001,0.002,0.001,0.004,0.003,0.006c0.079,0.075,0.148,0.158,0.213,0.245c-0.068-0.032-0.136-0.064-0.204-0.095
			c-0.017-0.015-0.035-0.029-0.054-0.043c-0.049-0.039-0.097-0.081-0.151-0.113C11.011,8.325,11.076,8.325,11.141,8.325z
			 M10.744,8.325L10.744,8.325c0.042,0.078,0.13,0.129,0.199,0.181c0.085,0.063,0.17,0.126,0.257,0.186
			c0.039,0.027,0.077,0.005,0.094-0.029c0.063,0.029,0.126,0.058,0.189,0.085c0.005,0.002,0.011,0.003,0.017,0.004
			c-0.12-0.001-0.24-0.001-0.36-0.002c-0.068-0.048-0.138-0.094-0.197-0.144c-0.11-0.091-0.222-0.2-0.345-0.282
			C10.647,8.325,10.696,8.325,10.744,8.325z M10.451,8.324c0.034,0.045,0.073,0.087,0.114,0.128
			c-0.034-0.009-0.073,0.022-0.068,0.056c-0.007-0.003-0.015-0.006-0.022-0.01c-0.054-0.037-0.109-0.074-0.164-0.11
			c-0.032-0.02-0.059-0.006-0.072,0.019c-0.047-0.016-0.096-0.029-0.144-0.043c-0.02-0.015-0.039-0.029-0.059-0.044
			C10.174,8.322,10.312,8.323,10.451,8.324z M10.057,8.477c0.111,0.093,0.224,0.183,0.34,0.27c-0.121,0.001-0.242,0.004-0.362,0.007
			c0.012-0.028,0.012-0.062-0.009-0.089c-0.061-0.077-0.122-0.153-0.184-0.23C9.916,8.445,9.987,8.459,10.057,8.477z M9.644,8.594
			C9.726,8.649,9.808,8.703,9.89,8.757C9.843,8.759,9.795,8.758,9.748,8.76C9.04,8.731,8.325,8.755,7.617,8.755
			c-0.213,0-0.427-0.005-0.643-0.01c0.003-0.011-0.003-0.024-0.006-0.036c0.311,0.027,0.622,0.024,0.928-0.016
			C7.9,8.701,7.904,8.709,7.909,8.717c0.03,0.056,0.129,0.033,0.123-0.033c0-0.005-0.001-0.008-0.002-0.013
			c0.135-0.022,0.268-0.05,0.399-0.086C8.472,8.6,8.516,8.616,8.559,8.631c0.072,0.025,0.12-0.057,0.095-0.118
			C8.657,8.512,8.661,8.511,8.665,8.51c0.114,0.069,0.228,0.138,0.343,0.206c0.085,0.05,0.165-0.062,0.103-0.132
			C9.264,8.635,9.417,8.686,9.57,8.738C9.635,8.76,9.702,8.677,9.661,8.62C9.656,8.611,9.65,8.603,9.644,8.594z M7.505,8.347
			c-0.027-0.013-0.062,0-0.077,0.023c-0.01-0.004-0.02-0.008-0.03-0.012C7.384,8.347,7.37,8.336,7.357,8.326
			c0.054,0,0.108,0,0.162,0c0.078,0,0.156,0,0.234,0C7.726,8.352,7.715,8.392,7.741,8.428c0.007,0.009,0.012,0.018,0.017,0.028
			C7.747,8.457,7.736,8.46,7.724,8.461C7.652,8.422,7.579,8.384,7.505,8.347z M8.21,8.326c0.056,0,0.112,0,0.167,0
			c0.005,0.009,0.009,0.018,0.014,0.028C8.367,8.359,8.343,8.36,8.319,8.365C8.283,8.352,8.246,8.339,8.21,8.326z M7.249,8.402
			C7.012,8.518,6.834,8.493,6.716,8.327l0,0c0.178,0,0.356,0,0.533-0.001c-0.009,0.015-0.011,0.034,0,0.056
			c0.001,0.002,0.002,0.004,0.003,0.007C7.252,8.393,7.249,8.397,7.249,8.402z M6.129,8.342C6.282,8.38,6.434,8.401,6.58,8.397
			c0.009,0,0.01-0.009,0.016-0.013C6.595,8.398,6.581,8.409,6.59,8.423C6.436,8.399,6.282,8.384,6.129,8.342z M6.279,8.207
			C6.123,8.162,5.965,8.119,5.814,8.061C5.771,8.044,5.728,8.026,5.685,8.008C5.921,8.095,6.163,8.16,6.401,8.207
			C6.36,8.207,6.32,8.207,6.279,8.207z M8.997,8.369c0.03-0.015,0.06-0.03,0.09-0.046c0.062,0,0.124-0.001,0.186-0.001
			c0.002,0.008,0.005,0.016,0.01,0.024C9.318,8.399,9.354,8.452,9.39,8.505C9.259,8.46,9.128,8.414,8.997,8.369z M8.474,8.207
			c-0.019-0.007-0.037-0.006-0.052,0c-0.349,0-0.698,0.002-1.046,0.001c-0.254,0-0.508-0.001-0.762-0.001
			C6.625,8.183,6.624,8.154,6.598,8.14C6.46,8.066,6.312,8.001,6.159,7.941c0.012,0.001,0.024,0.003,0.036,0.003
			C6.24,7.947,6.263,7.887,6.224,7.861C6.198,7.844,6.172,7.829,6.145,7.814c0.067,0,0.131-0.007,0.19-0.027
			c0.032-0.011,0.053-0.059,0.016-0.079c-0.17-0.094-0.373-0.101-0.554-0.173C5.576,7.447,5.396,7.322,5.202,7.192l0-0.003
			C5.27,7.221,5.34,7.246,5.411,7.269c0.006,0.007,0.014,0.014,0.025,0.019c0.301,0.144,0.656,0.283,0.989,0.325
			C6.478,7.62,6.505,7.539,6.458,7.512C6.425,7.493,6.391,7.474,6.356,7.457c0.027-0.022,0.025-0.071-0.005-0.092
			C6.18,7.245,5.953,7.216,5.752,7.166C5.575,7.122,5.395,7.068,5.212,7.061c-0.002,0-0.005,0.001-0.007,0.001
			c0.002-0.1,0.002-0.2-0.008-0.3C5.345,6.801,5.494,6.84,5.64,6.882c0.905,0.258,1.809,0.537,2.726,0.753c0,0,0.001,0,0.001,0
			c0.048,0.011,0.083-0.018,0.095-0.053c0.016-0.019,0.031-0.039,0.046-0.056c0.035-0.04,0.062-0.078,0.088-0.123
			C8.597,7.4,8.597,7.398,8.598,7.396c0.224-0.139,0.445-0.282,0.667-0.424C9.197,7.34,9.183,7.751,9.186,8.117
			C9.084,8.154,8.982,8.177,8.88,8.21C8.744,8.209,8.609,8.207,8.474,8.207z M5.425,7.56C5.349,7.542,5.273,7.525,5.198,7.508
			c0.001-0.04,0.001-0.08,0.001-0.119C5.265,7.447,5.342,7.506,5.425,7.56z M2.864,5.872c1.181-0.157,2.411-0.373,3.514-0.831
			c0.005-0.002,0.007-0.005,0.011-0.007c0.79,0.153,1.598,0.236,2.393,0.348c0.829,0.117,1.66,0.262,2.493,0.352
			c-0.053,0.022-0.105,0.046-0.158,0.069c0.022-0.03,0.012-0.082-0.037-0.085c-0.178-0.011-0.381-0.049-0.556-0.011
			c-0.045,0.01-0.054,0.08-0.006,0.094c0.171,0.048,0.371,0.025,0.548,0.024c-0.949,0.413-1.914,0.963-2.731,1.573
			C8.314,7.413,8.309,7.435,8.312,7.456C7.399,7.149,6.464,6.899,5.54,6.63C4.66,6.374,3.766,6.04,2.864,5.872z M5.191,7.952
			c0.001-0.015,0.001-0.03,0.002-0.045c0.104,0.07,0.219,0.138,0.338,0.2C5.418,8.056,5.303,8.021,5.191,7.959
			C5.191,7.956,5.191,7.954,5.191,7.952z M6.623,8.672C6.664,8.695,6.705,8.718,6.746,8.74C6.699,8.74,6.653,8.739,6.607,8.738
			c-0.01-0.025-0.019-0.051-0.029-0.076C6.593,8.665,6.608,8.67,6.623,8.672z M5.002,8.98c0.043-0.132,0.027-0.277,0.026-0.415
			c0-0.083-0.001-0.163-0.013-0.242C5.153,8.337,5.292,8.34,5.433,8.341C5.426,8.36,5.427,8.382,5.443,8.403
			c0.01,0.013,0.02,0.027,0.03,0.041c-0.049-0.025-0.098-0.05-0.147-0.076c-0.068-0.035-0.156,0.038-0.11,0.11
			C5.227,8.496,5.238,8.514,5.25,8.531C5.19,8.511,5.109,8.56,5.136,8.63c0.046,0.119,0.093,0.238,0.139,0.357
			C5.236,8.966,5.197,8.944,5.157,8.923C5.094,8.889,5.02,8.945,5.037,9.015C5.07,9.147,5.1,9.279,5.131,9.411
			c-0.023-0.015-0.045-0.03-0.067-0.044C5.035,9.348,5.002,9.353,4.976,9.371C4.974,9.249,4.972,9.128,4.968,9.007
			C4.983,9.005,4.997,8.997,5.002,8.98z M5.226,10.422c-0.055-0.009-0.119,0.034-0.096,0.098c0.029,0.08,0.058,0.16,0.087,0.24
			c0.029,0.081,0.139,0.066,0.16,0.005c0.003,0.217,0.005,0.435,0.005,0.651c0,0.018-0.001,0.037-0.001,0.056
			c-0.09-0.369-0.179-0.738-0.298-1.099c-0.02-0.06-0.104-0.035-0.093,0.026c0.054,0.299,0.129,0.595,0.206,0.889
			c-0.06-0.109-0.12-0.219-0.18-0.328c-0.009-0.016-0.022-0.024-0.036-0.027c0.002-0.448,0.005-0.896,0-1.344
			C5,9.648,5.018,9.708,5.037,9.768C5.008,9.781,4.988,9.81,5.004,9.85C5.079,10.04,5.153,10.231,5.226,10.422z M5.239,9.156
			C5.287,9.183,5.336,9.21,5.384,9.237C5.37,9.614,5.37,9.992,5.373,10.37c-0.04-0.099-0.079-0.199-0.118-0.298
			c0.022-0.018,0.035-0.046,0.025-0.081C5.245,9.872,5.209,9.754,5.171,9.636c0.016,0.01,0.031,0.02,0.047,0.031
			C5.282,9.708,5.356,9.64,5.34,9.573C5.306,9.434,5.272,9.295,5.239,9.156z M5.375,11.83c-0.004,0.154-0.01,0.31-0.015,0.466
			c-0.075-0.289-0.15-0.577-0.223-0.866c0.066,0.123,0.131,0.247,0.197,0.37C5.344,11.818,5.359,11.827,5.375,11.83z M5.149,12.003
			c-0.034-0.052-0.069-0.104-0.103-0.156c-0.017-0.025-0.042-0.034-0.066-0.032c0-0.157,0-0.315-0.001-0.472
			c0-0.019,0-0.038,0-0.057C5.038,11.525,5.094,11.764,5.149,12.003z M5.161,12.866c-0.06-0.091-0.12-0.181-0.18-0.272
			c0-0.149,0-0.297-0.001-0.446C5.041,12.388,5.101,12.627,5.161,12.866z M5.168,13.693c-0.043-0.062-0.086-0.125-0.129-0.187
			c-0.011-0.016-0.028-0.025-0.045-0.027c-0.004-0.185-0.011-0.369-0.012-0.55C5.08,13.175,5.141,13.427,5.168,13.693z M5.15,12.261
			c0.032,0.048,0.063,0.097,0.095,0.145c0.028,0.043,0.082,0.04,0.112,0.012c-0.006,0.222-0.01,0.445-0.006,0.666
			C5.284,12.809,5.217,12.535,5.15,12.261z M5.229,14.113c0.042,0.043,0.083,0.086,0.125,0.13c-0.052,0.001-0.104,0.003-0.157,0.005
			c0.033-0.006,0.063-0.036,0.05-0.075C5.242,14.152,5.236,14.133,5.229,14.113z M5.28,13.983c0.02-0.009,0.036-0.028,0.035-0.057
			c-0.006-0.263-0.044-0.516-0.113-0.76c0.02,0.029,0.039,0.059,0.059,0.088c0.024,0.036,0.068,0.037,0.096,0.017
			c0.007,0.165,0.018,0.328,0.038,0.489c-0.04,0.009-0.07,0.06-0.046,0.099c0.061,0.087,0.082,0.175,0.067,0.264
			C5.371,14.076,5.326,14.03,5.28,13.983z M4.991,13.956c0.048,0.088,0.096,0.175,0.144,0.263c0.01,0.018,0.026,0.027,0.043,0.028
			c-0.071,0.003-0.142,0.003-0.213,0.007C4.979,14.157,4.987,14.057,4.991,13.956z M3.727,14.431
			c0.06,0.006,0.121,0.009,0.181,0.011c-0.006,0.011-0.009,0.023-0.007,0.037c0.008,0.064,0.017,0.127,0.025,0.191
			c-0.054-0.07-0.107-0.141-0.16-0.211C3.755,14.444,3.741,14.436,3.727,14.431z M3.799,14.986c0.004-0.011,0.006-0.022,0.004-0.035
			c-0.005-0.035-0.01-0.07-0.015-0.106c0.009,0.012,0.018,0.023,0.027,0.035c0.027,0.035,0.065,0.039,0.096,0.026
			c0.017,0.023,0.034,0.046,0.051,0.068C3.908,14.978,3.854,14.982,3.799,14.986z M4.194,14.459
			c-0.009-0.009-0.018-0.015-0.028-0.019c0.065-0.001,0.131-0.003,0.195-0.003c0.047,0,0.093,0,0.14,0
			c-0.012,0.018-0.019,0.04-0.015,0.064c0.008,0.048,0.016,0.097,0.024,0.145c-0.042-0.057-0.084-0.113-0.126-0.17
			c-0.044-0.059-0.143-0.037-0.146,0.031C4.223,14.491,4.208,14.475,4.194,14.459z M4.303,14.967
			c0.003-0.012,0.005-0.024,0.002-0.037c-0.011-0.052-0.021-0.103-0.032-0.155c0.027,0.029,0.053,0.058,0.08,0.086
			c0.035,0.038,0.09,0.025,0.118-0.01c0.029,0.039,0.059,0.079,0.088,0.118C4.472,14.968,4.387,14.967,4.303,14.967z M5.05,14.977
			c-0.112,0-0.225-0.002-0.338-0.004c0.004-0.012,0.006-0.026,0.003-0.042c-0.012-0.073-0.024-0.146-0.036-0.22
			c0.061,0.062,0.122,0.123,0.183,0.185c0.053,0.054,0.166-0.001,0.135-0.078c0-0.001-0.001-0.003-0.002-0.004
			c0.007,0.002,0.014,0.003,0.022,0.003c0.015,0.024,0.031,0.047,0.046,0.071c0.041,0.063,0.168,0.047,0.157-0.042
			c-0.001-0.009-0.002-0.018-0.003-0.027c0.067,0.053,0.135,0.106,0.202,0.159C5.296,14.977,5.173,14.977,5.05,14.977z
			 M5.534,14.542l-0.012-0.012c-0.037-0.037-0.082-0.028-0.11,0c-0.021-0.031-0.041-0.061-0.062-0.092
			c-0.055-0.083-0.171-0.012-0.132,0.077c0.007,0.016,0.014,0.032,0.021,0.048c-0.081-0.057-0.162-0.115-0.243-0.172c0,0,0,0,0,0
			c0.179,0.008,0.359,0.013,0.538,0.016c-0.027,0.023-0.04,0.063-0.019,0.101C5.522,14.519,5.528,14.53,5.534,14.542z M5.513,14.238
			c0.028-0.082,0.037-0.158,0.028-0.232c0.103,0.076,0.206,0.152,0.309,0.228C5.737,14.234,5.625,14.235,5.513,14.238z
			 M5.648,14.409c0.058,0.001,0.116,0,0.174,0.001c-0.009,0.029-0.012,0.059-0.01,0.089C5.757,14.469,5.702,14.439,5.648,14.409z
			 M5.94,14.977c-0.001-0.01-0.004-0.02-0.01-0.031c-0.05-0.094-0.099-0.188-0.149-0.281c0.063,0.034,0.126,0.069,0.189,0.103
			c0.02,0.011,0.039,0.013,0.056,0.009c0.064,0.067,0.129,0.133,0.193,0.2L5.94,14.977z M6.603,13.92
			c-0.015,0.011-0.027,0.028-0.027,0.051c0,0.033,0,0.066,0,0.099c-0.109-0.05-0.219-0.099-0.328-0.149
			C6.366,13.922,6.484,13.922,6.603,13.92z M6.256,14.224c0.027-0.014,0.047-0.047,0.039-0.077
			c-0.006-0.023-0.011-0.046-0.017-0.068c0.11,0.05,0.22,0.1,0.33,0.15c0.009,0.004,0.017,0.005,0.026,0.005
			c-0.121-0.001-0.242-0.002-0.363-0.002C6.267,14.229,6.261,14.227,6.256,14.224z M6.636,14.977c-0.069,0-0.137,0-0.206,0
			c-0.001-0.004-0.003-0.007-0.004-0.011c0.041-0.008,0.078-0.048,0.061-0.093c-0.008-0.021-0.016-0.043-0.023-0.064
			c0.067,0.05,0.134,0.1,0.201,0.15c0.046,0.034,0.103-0.006,0.113-0.054c0.027,0.018,0.054,0.038,0.081,0.056
			c0.054,0.037,0.128-0.024,0.109-0.084c-0.007-0.022-0.013-0.045-0.02-0.067c0.045,0.029,0.09,0.058,0.135,0.087
			c0.018,0.011,0.036,0.012,0.053,0.007c0.006,0.005,0.012,0.009,0.018,0.014c0.038,0.029,0.075,0.01,0.095-0.022
			c0.02,0.026,0.04,0.052,0.061,0.078C7.085,14.975,6.861,14.977,6.636,14.977z M7.507,14.405c0.044,0,0.089,0,0.133,0
			c0.007,0.08,0.016,0.159,0.024,0.239c-0.112-0.078-0.224-0.157-0.334-0.238C7.388,14.406,7.448,14.405,7.507,14.405z
			 M7.483,14.973c0-0.008,0-0.016-0.003-0.024c-0.035-0.11-0.07-0.22-0.105-0.33c0.115,0.083,0.229,0.167,0.343,0.251
			c0.045,0.033,0.124-0.011,0.117-0.067c-0.004-0.034-0.009-0.067-0.013-0.101c0.014,0.043,0.027,0.087,0.041,0.13
			c-0.042,0.025-0.059,0.09-0.004,0.116c0.016,0.008,0.031,0.015,0.047,0.023C7.764,14.972,7.624,14.972,7.483,14.973z
			 M7.874,14.405c0.139,0,0.277,0,0.416,0c-0.019,0.015-0.031,0.039-0.022,0.066c0.019,0.056,0.038,0.113,0.057,0.168
			c-0.084-0.064-0.168-0.128-0.253-0.192c-0.03-0.023-0.068-0.009-0.091,0.017C7.946,14.446,7.91,14.426,7.874,14.405z M8.025,14.97
			c0.02-0.017,0.031-0.043,0.021-0.075c-0.02-0.061-0.039-0.122-0.059-0.183c0.091,0.071,0.182,0.143,0.274,0.213
			c0.038,0.029,0.088,0.002,0.108-0.036c0.043,0.031,0.087,0.058,0.13,0.08C8.34,14.97,8.183,14.97,8.025,14.97z M8.545,14.807
			c-0.001-0.003,0-0.006-0.002-0.009c-0.048-0.128-0.101-0.252-0.156-0.377c-0.003-0.007-0.007-0.011-0.011-0.016
			c0.029,0,0.059,0,0.088,0c0,0.017,0.004,0.034,0.017,0.05c0.005,0.006,0.01,0.012,0.015,0.018
			c-0.006,0.019-0.003,0.041,0.014,0.059c0.004,0.005,0.009,0.009,0.013,0.014c0.009,0.088,0.018,0.176,0.027,0.264
			C8.549,14.809,8.547,14.808,8.545,14.807z M8.772,14.406c-0.013,0.017-0.017,0.04-0.002,0.061c0.06,0.084,0.137,0.152,0.212,0.222
			c0.038,0.035,0.08,0.078,0.126,0.107c-0.087-0.05-0.181-0.084-0.264-0.147c-0.005-0.004-0.01-0.005-0.015-0.007
			c-0.066-0.079-0.133-0.157-0.199-0.236C8.677,14.406,8.725,14.406,8.772,14.406z M8.78,14.97c0.001-0.001,0.001-0.001,0.002-0.002
			c0.027-0.027,0.047-0.054,0.06-0.081c0.032,0.029,0.069,0.022,0.093-0.003c0.05,0.031,0.101,0.06,0.152,0.087
			C8.985,14.971,8.882,14.97,8.78,14.97z M9.436,14.978c-0.099-0.037-0.183-0.103-0.274-0.152c0.087,0.022,0.176,0.032,0.265,0.035
			c0,0.005-0.002,0.011-0.001,0.016c0.005,0.034,0.01,0.068,0.015,0.102C9.439,14.978,9.438,14.978,9.436,14.978z M9.709,14.866
			c0.013,0,0.026,0.001,0.039,0.001c0.04,0.001,0.081,0,0.122-0.002c0.002,0.024,0.005,0.047,0.007,0.069
			C9.821,14.911,9.765,14.889,9.709,14.866z M9.748,14.696c-0.063-0.002-0.128,0.003-0.189,0.005
			c-0.112,0.004-0.223,0.004-0.333,0.022c-0.031-0.067-0.104-0.114-0.158-0.163c-0.06-0.055-0.121-0.109-0.189-0.154
			c0.283,0.005,0.585,0.03,0.869-0.001c0.284,0.031,0.585,0.006,0.869,0.001c-0.068,0.045-0.129,0.1-0.189,0.154
			c-0.053,0.048-0.127,0.096-0.157,0.163c-0.11-0.019-0.221-0.019-0.333-0.022C9.876,14.699,9.811,14.694,9.748,14.696z
			 M10.02,14.978c-0.004-0.015-0.009-0.03-0.014-0.045c0.127,0.048,0.251,0.044,0.378-0.046c0.035-0.025,0.036-0.067,0.018-0.095
			c0.014-0.01,0.028-0.021,0.041-0.033c0.026,0.07,0.051,0.141,0.077,0.211C10.352,14.971,10.186,14.975,10.02,14.978z
			 M10.777,14.502c-0.062-0.047-0.124,0.04-0.097,0.097c0.019,0.038,0.037,0.076,0.056,0.114c-0.016-0.016-0.032-0.032-0.047-0.048
			c-0.034-0.036-0.079-0.023-0.103,0.007c-0.008-0.009-0.017-0.018-0.025-0.027c0.06-0.055,0.118-0.111,0.166-0.178
			c0.015-0.021,0.011-0.044-0.002-0.061c0.061,0,0.123,0,0.184,0c-0.02,0.018-0.029,0.048-0.012,0.081
			c0.029,0.058,0.059,0.115,0.089,0.173C10.915,14.607,10.846,14.554,10.777,14.502z M11.026,14.97
			c-0.027-0.053-0.053-0.105-0.08-0.158c0.067,0.052,0.133,0.104,0.2,0.156c0.001,0.001,0.002,0.001,0.004,0.002
			C11.109,14.969,11.067,14.97,11.026,14.97z M11.246,14.969c0.025-0.019,0.038-0.053,0.017-0.092
			c-0.028-0.052-0.056-0.104-0.085-0.156c0.101,0.083,0.203,0.166,0.305,0.249C11.404,14.97,11.325,14.97,11.246,14.969z
			 M11.371,14.405c0.047,0,0.093,0,0.14,0c-0.005,0.016-0.003,0.035,0.01,0.055c0.02,0.032,0.04,0.063,0.06,0.094
			C11.51,14.505,11.44,14.455,11.371,14.405z M11.557,14.06c0.004,0.015,0.009,0.029,0.013,0.044
			c-0.111-0.046-0.222-0.092-0.333-0.138c-0.056-0.023-0.096,0.05-0.073,0.094c0.003,0.006,0.006,0.012,0.01,0.017
			c-0.119-0.029-0.239-0.058-0.359-0.086c-0.034-0.008-0.064,0.016-0.069,0.046c-0.059-0.036-0.117-0.072-0.176-0.107
			c0.414,0,0.833-0.031,1.226-0.031c0.626,0,1.277,0.045,1.909,0.007c0.001,0.007,0.002,0.015,0.006,0.021
			c0.026,0.052,0.052,0.103,0.078,0.155l-0.293-0.091c-0.04-0.013-0.081,0.021-0.081,0.062c0,0.048-0.001,0.096-0.001,0.144
			c-0.133-0.058-0.265-0.116-0.398-0.174c-0.058-0.025-0.108,0.026-0.083,0.083l0.003,0.006c-0.115-0.055-0.231-0.109-0.347-0.164
			c-0.037-0.018-0.071,0.002-0.082,0.031c-0.087-0.035-0.18-0.054-0.288-0.055c-0.029,0-0.059,0.026-0.057,0.057l0.01,0.11
			c-0.04-0.021-0.081-0.042-0.121-0.062c-0.047-0.024-0.09,0.018-0.079,0.064c-0.111-0.038-0.222-0.077-0.333-0.114
			C11.59,13.964,11.543,14.014,11.557,14.06z M12.914,14.234c-0.217,0.001-0.434,0.002-0.651,0.003
			c0.019-0.008,0.033-0.025,0.031-0.049c-0.023-0.252,0.242-0.087,0.354,0.007c0.045,0.038,0.098,0.001,0.095-0.045
			C12.799,14.179,12.856,14.206,12.914,14.234z M11.731,14.238c0.005-0.013,0.008-0.027,0.004-0.039
			c-0.006-0.02-0.012-0.039-0.018-0.059c0.11,0.032,0.221,0.064,0.33,0.098c-0.02,0-0.039,0-0.059,0
			C11.903,14.238,11.817,14.238,11.731,14.238z M11.966,14.637c-0.096-0.077-0.19-0.155-0.286-0.232c0.061,0,0.121,0,0.181,0
			c-0.016,0.02-0.02,0.048,0,0.078C11.897,14.535,11.931,14.586,11.966,14.637z M11.723,14.972c-0.021-0.059-0.044-0.115-0.07-0.168
			c0.06,0.044,0.119,0.088,0.179,0.132c0.067,0.049,0.157-0.046,0.113-0.113c-0.003-0.004-0.006-0.008-0.009-0.013
			c0.066,0.055,0.131,0.109,0.197,0.163C11.997,14.974,11.86,14.973,11.723,14.972z M12,14.405c0.082,0,0.164,0.001,0.246,0.001
			c-0.019,0.022-0.028,0.053-0.009,0.086c0.035,0.063,0.069,0.126,0.104,0.189C12.227,14.589,12.114,14.497,12,14.405z
			 M13.178,14.412c-0.025,0.013-0.042,0.037-0.043,0.064c-0.051-0.026-0.125,0.042-0.087,0.098c0.026,0.039,0.053,0.076,0.08,0.115
			c-0.104-0.075-0.207-0.151-0.306-0.232c-0.047-0.039-0.132,0.013-0.091,0.07c0.048,0.068,0.096,0.137,0.143,0.207
			c-0.186-0.079-0.35-0.182-0.508-0.327C12.636,14.408,12.907,14.41,13.178,14.412z M12.859,14.977
			c-0.056,0-0.113-0.001-0.169-0.001c-0.002-0.004-0.002-0.007-0.004-0.01c-0.043-0.075-0.086-0.149-0.129-0.224
			c0.151,0.095,0.313,0.169,0.493,0.215c0.065,0.017,0.102-0.041,0.088-0.093c0.045,0.038,0.089,0.076,0.134,0.113
			C13.135,14.977,12.997,14.977,12.859,14.977z M13.522,14.977c-0.087-0.117-0.174-0.233-0.262-0.349
			c0.003,0.001,0.006,0.002,0.01,0.002c0.129,0.116,0.258,0.231,0.387,0.346H13.522z M13.776,14.977
			c0.026-0.023,0.038-0.059,0.013-0.097c-0.04-0.061-0.08-0.121-0.119-0.182c0.106,0.081,0.211,0.161,0.317,0.241
			c0.058,0.043,0.11-0.01,0.113-0.067c0.042,0.035,0.084,0.07,0.126,0.105C14.076,14.977,13.926,14.977,13.776,14.977z
			 M14.496,14.977c-0.026-0.038-0.053-0.076-0.079-0.114c0.062,0.041,0.126,0.078,0.191,0.113
			C14.571,14.976,14.534,14.977,14.496,14.977z M14.111,14.422c-0.014-0.013-0.03-0.018-0.046-0.019
			c0.145-0.003,0.289-0.006,0.433-0.013c0.004,0.009,0.011,0.016,0.022,0.018c0.017,0.003,0.035,0.004,0.053,0.007
			c-0.039,0.015-0.065,0.061-0.04,0.107c0.059,0.109,0.119,0.218,0.178,0.327C14.492,14.736,14.294,14.597,14.111,14.422z
			 M14.964,14.969c-0.034-0.06-0.069-0.12-0.103-0.18c0.1,0.068,0.205,0.129,0.316,0.178C15.106,14.967,15.035,14.968,14.964,14.969
			z M14.652,14.43c-0.004-0.003-0.008-0.005-0.011-0.007c0.106,0.011,0.212,0.014,0.319,0.014c-0.004,0.021-0.001,0.044,0.017,0.066
			c0.08,0.101,0.16,0.202,0.24,0.302C15.01,14.714,14.824,14.593,14.652,14.43z M15.13,14.437c0.002,0,0.003,0,0.005,0
			c0.058,0,0.117,0.002,0.175,0.003c-0.019,0.026-0.025,0.062,0,0.094c0.032,0.042,0.066,0.083,0.098,0.125
			C15.315,14.586,15.222,14.512,15.13,14.437z M15.793,14.898c-0.034-0.089-0.07-0.178-0.105-0.267
			c0.04,0.036,0.08,0.072,0.119,0.109c0,0.064,0.004,0.126,0.011,0.188C15.81,14.918,15.801,14.908,15.793,14.898z"/>
		<path class="st0" d="M7.158,11.045c0.071,0.047,0.142,0.108,0.221,0.141c0.009,0.004,0.02-0.007,0.012-0.015
			c-0.062-0.06-0.146-0.103-0.218-0.151C7.157,11.009,7.142,11.035,7.158,11.045z"/>
		<path class="st0" d="M8.015,11.556c-0.414-0.407-0.829-0.814-1.245-1.219c-0.046-0.044-0.115,0.024-0.07,0.07
			c0.407,0.414,0.815,0.828,1.225,1.24c0.373,0.376,0.732,0.798,1.158,1.114c0.03,0.022,0.075-0.022,0.052-0.052
			C8.817,12.284,8.392,11.927,8.015,11.556z"/>
		<path class="st0" d="M8.191,10.296c-0.048-0.048-0.122,0.026-0.075,0.075c0.762,0.776,1.494,1.624,2.323,2.327
			c0.042,0.036,0.095-0.018,0.06-0.06C9.803,11.802,8.961,11.064,8.191,10.296z"/>
		<path class="st0" d="M10.207,10.532c-0.053-0.051-0.132,0.029-0.08,0.08c0.832,0.823,1.636,1.73,2.545,2.469
			c0.05,0.041,0.114-0.021,0.071-0.071C11.981,12.12,11.052,11.342,10.207,10.532z"/>
		<path class="st0" d="M8.358,7.314C8.419,7.331,8.451,7.241,8.391,7.22C7.733,6.996,7.075,6.779,6.412,6.572
			C5.862,6.401,5.299,6.176,4.729,6.09c-0.061-0.009-0.066,0.075-0.02,0.098C5.274,6.459,5.924,6.6,6.523,6.783
			C7.132,6.97,7.744,7.144,8.358,7.314z"/>
		<path class="st0" d="M8.063,7.077c0.068,0.024,0.103-0.08,0.036-0.106c-0.925-0.354-1.868-0.78-2.832-1.012
			c-0.033-0.008-0.064,0.04-0.029,0.058C6.128,6.464,7.125,6.749,8.063,7.077z"/>
		<path class="st0" d="M8.54,6.941C8.608,6.963,8.644,6.86,8.576,6.837C7.744,6.548,6.9,6.182,6.036,6.004
			C5.992,5.995,5.972,6.051,6.013,6.071C6.809,6.451,7.703,6.669,8.54,6.941z"/>
		<path class="st0" d="M9.143,6.783c0.082,0.025,0.125-0.101,0.043-0.126C8.34,6.399,7.462,5.996,6.581,5.888
			C6.545,5.883,6.523,5.94,6.558,5.957C7.347,6.362,8.298,6.522,9.143,6.783z"/>
		<path class="st0" d="M9.543,6.469c0.073,0.019,0.113-0.091,0.039-0.112C8.705,6.105,7.82,5.772,6.917,5.633
			C6.855,5.624,6.843,5.715,6.896,5.736C7.739,6.076,8.666,6.239,9.543,6.469z"/>
		<path class="st0" d="M9.897,6.207c0.075,0.02,0.115-0.092,0.04-0.115c-0.742-0.228-1.49-0.514-2.26-0.628
			C7.629,5.457,7.622,5.526,7.661,5.543C8.369,5.853,9.152,6.007,9.897,6.207z"/>
		<path class="st0" d="M10.413,5.941c0.08,0.024,0.12-0.092,0.042-0.122C9.962,5.631,9.341,5.432,8.81,5.543
			c-0.049,0.01-0.059,0.088-0.006,0.102C9.331,5.781,9.883,5.785,10.413,5.941z"/>
	</g>
</g>
</svg>
