<?xml version="1.0" encoding="utf-8"?>
<!-- Generator: Adobe Illustrator 21.1.0, SVG Export Plug-In . SVG Version: 6.00 Build 0)  -->
<svg version="1.1" id="Layer_1" xmlns="http://www.w3.org/2000/svg" xmlns:xlink="http://www.w3.org/1999/xlink" x="0px" y="0px"
	 viewBox="0 0 100 20" style="enable-background:new 0 0 100 20;" xml:space="preserve">
<style type="text/css">
	.st0{fill:#98A4AE;}
</style>
<g>
	<path class="st0" d="M19.483,7.567c0-0.139-0.049-0.244-0.146-0.318s-0.273-0.152-0.527-0.234s-0.455-0.163-0.603-0.243
		c-0.404-0.218-0.605-0.512-0.605-0.881c0-0.192,0.054-0.364,0.162-0.515c0.108-0.15,0.264-0.268,0.467-0.353
		c0.202-0.085,0.43-0.127,0.682-0.127c0.254,0,0.48,0.046,0.679,0.138s0.353,0.222,0.462,0.39c0.11,0.168,0.165,0.358,0.165,0.571
		h-0.732c0-0.163-0.051-0.289-0.154-0.38c-0.103-0.09-0.247-0.135-0.432-0.135c-0.179,0-0.318,0.037-0.417,0.113
		c-0.099,0.075-0.149,0.175-0.149,0.299c0,0.115,0.058,0.213,0.175,0.291c0.116,0.078,0.288,0.15,0.514,0.219
		c0.417,0.126,0.72,0.281,0.911,0.467s0.286,0.417,0.286,0.693c0,0.308-0.116,0.549-0.349,0.724s-0.546,0.263-0.94,0.263
		c-0.273,0-0.522-0.05-0.747-0.15c-0.225-0.1-0.396-0.237-0.514-0.411c-0.118-0.174-0.177-0.376-0.177-0.605h0.735
		c0,0.393,0.234,0.589,0.703,0.589c0.174,0,0.31-0.036,0.408-0.106C19.434,7.792,19.483,7.694,19.483,7.567z"/>
	<path class="st0" d="M22.124,8.231c-0.174,0.212-0.415,0.317-0.723,0.317c-0.283,0-0.5-0.081-0.648-0.244
		c-0.149-0.163-0.225-0.401-0.229-0.715V5.858h0.706v1.709c0,0.275,0.125,0.413,0.376,0.413c0.239,0,0.404-0.084,0.493-0.25V5.858
		h0.708V8.5h-0.664L22.124,8.231z"/>
	<path class="st0" d="M25.593,7.203c0,0.407-0.092,0.733-0.277,0.979c-0.185,0.245-0.435,0.367-0.749,0.367
		c-0.267,0-0.482-0.093-0.647-0.278v1.245h-0.706V5.858h0.654l0.024,0.259c0.171-0.205,0.394-0.308,0.669-0.308
		c0.326,0,0.579,0.12,0.759,0.361s0.271,0.573,0.271,0.996V7.203z M24.887,7.149c0-0.246-0.043-0.437-0.131-0.57
		c-0.087-0.134-0.213-0.2-0.379-0.2c-0.221,0-0.374,0.084-0.457,0.254v1.085c0.086,0.175,0.24,0.263,0.461,0.263
		C24.719,7.98,24.887,7.703,24.887,7.149z"/>
	<path class="st0" d="M27.121,8.548c-0.387,0-0.703-0.119-0.946-0.356c-0.244-0.237-0.365-0.554-0.365-0.95V7.173
		c0-0.265,0.051-0.502,0.154-0.711s0.248-0.37,0.436-0.483c0.188-0.113,0.402-0.17,0.643-0.17c0.361,0,0.646,0.114,0.853,0.342
		c0.208,0.228,0.312,0.551,0.312,0.97v0.287h-1.682c0.023,0.173,0.091,0.312,0.207,0.416c0.114,0.104,0.26,0.156,0.436,0.156
		c0.272,0,0.484-0.099,0.637-0.296l0.347,0.388c-0.106,0.15-0.249,0.267-0.43,0.351S27.34,8.548,27.121,8.548z M27.04,6.378
		c-0.14,0-0.253,0.047-0.341,0.142c-0.087,0.095-0.143,0.23-0.167,0.407h0.981V6.871c-0.003-0.156-0.045-0.278-0.127-0.364
		S27.19,6.378,27.04,6.378z"/>
	<path class="st0" d="M29.967,6.519c-0.096-0.013-0.181-0.02-0.254-0.02c-0.267,0-0.442,0.091-0.525,0.271V8.5h-0.706V5.858h0.667
		l0.02,0.315c0.142-0.243,0.338-0.364,0.588-0.364c0.078,0,0.151,0.011,0.22,0.032L29.967,6.519z"/>
	<path class="st0" d="M30.176,5.174c0-0.105,0.036-0.192,0.106-0.261c0.071-0.068,0.167-0.104,0.29-0.104
		c0.121,0,0.216,0.035,0.288,0.104s0.107,0.155,0.107,0.261c0,0.107-0.036,0.195-0.109,0.264c-0.072,0.068-0.168,0.103-0.287,0.103
		s-0.214-0.034-0.287-0.103C30.212,5.37,30.176,5.282,30.176,5.174z M30.926,8.5h-0.708V5.858h0.708V8.5z"/>
	<path class="st0" d="M32.031,5.858l0.022,0.306c0.188-0.236,0.442-0.354,0.758-0.354c0.281,0,0.488,0.082,0.625,0.247
		c0.137,0.164,0.207,0.41,0.211,0.736V8.5h-0.705V6.806c0-0.15-0.033-0.259-0.098-0.327c-0.066-0.067-0.174-0.101-0.326-0.101
		c-0.197,0-0.346,0.084-0.446,0.254V8.5h-0.706V5.858H32.031z"/>
	<path class="st0" d="M34.901,5.208v0.649h0.452v0.518h-0.452v1.318c0,0.098,0.02,0.168,0.057,0.21s0.109,0.063,0.215,0.063
		c0.078,0,0.147-0.006,0.207-0.017v0.534c-0.138,0.042-0.28,0.063-0.427,0.063c-0.495,0-0.747-0.25-0.757-0.75V6.375h-0.386V5.858
		h0.386V5.208H34.901z"/>
	<path class="st0" d="M36.837,8.548c-0.387,0-0.702-0.119-0.945-0.356s-0.365-0.554-0.365-0.95V7.173
		c0-0.265,0.051-0.502,0.154-0.711c0.102-0.209,0.247-0.37,0.436-0.483c0.188-0.113,0.402-0.17,0.643-0.17
		c0.361,0,0.646,0.114,0.854,0.342c0.208,0.228,0.312,0.551,0.312,0.97v0.287h-1.683c0.023,0.173,0.092,0.312,0.207,0.416
		c0.114,0.104,0.26,0.156,0.436,0.156c0.271,0,0.484-0.099,0.637-0.296l0.348,0.388c-0.106,0.15-0.25,0.267-0.43,0.351
		C37.257,8.506,37.058,8.548,36.837,8.548z M36.757,6.378c-0.14,0-0.254,0.047-0.341,0.142s-0.143,0.23-0.167,0.407h0.981V6.871
		c-0.003-0.156-0.046-0.278-0.127-0.364S36.906,6.378,36.757,6.378z"/>
	<path class="st0" d="M38.849,5.858l0.022,0.306c0.188-0.236,0.442-0.354,0.759-0.354c0.28,0,0.488,0.082,0.625,0.247
		c0.137,0.164,0.207,0.41,0.211,0.736V8.5H39.76V6.806c0-0.15-0.032-0.259-0.098-0.327c-0.065-0.067-0.173-0.101-0.325-0.101
		c-0.198,0-0.347,0.084-0.446,0.254V8.5h-0.706V5.858H38.849z"/>
	<path class="st0" d="M40.765,7.16c0-0.412,0.093-0.74,0.277-0.984s0.438-0.366,0.758-0.366c0.257,0,0.47,0.096,0.638,0.288V4.75
		h0.707V8.5h-0.637l-0.034-0.281c-0.176,0.221-0.402,0.33-0.679,0.33c-0.311,0-0.561-0.122-0.748-0.367
		C40.858,7.936,40.765,7.595,40.765,7.16z M41.471,7.209c0,0.248,0.043,0.438,0.129,0.571s0.212,0.199,0.376,0.199
		c0.218,0,0.372-0.093,0.462-0.277V6.655c-0.088-0.185-0.24-0.276-0.457-0.276C41.641,6.378,41.471,6.655,41.471,7.209z"/>
	<path class="st0" d="M44.782,8.548c-0.387,0-0.702-0.119-0.945-0.356s-0.365-0.554-0.365-0.95V7.173
		c0-0.265,0.051-0.502,0.154-0.711c0.102-0.209,0.247-0.37,0.436-0.483c0.188-0.113,0.402-0.17,0.643-0.17
		c0.361,0,0.646,0.114,0.854,0.342c0.208,0.228,0.312,0.551,0.312,0.97v0.287h-1.683c0.023,0.173,0.092,0.312,0.207,0.416
		c0.114,0.104,0.26,0.156,0.436,0.156c0.271,0,0.484-0.099,0.637-0.296l0.348,0.388c-0.106,0.15-0.25,0.267-0.43,0.351
		C45.202,8.506,45.003,8.548,44.782,8.548z M44.702,6.378c-0.14,0-0.254,0.047-0.341,0.142s-0.143,0.23-0.167,0.407h0.981V6.871
		c-0.003-0.156-0.046-0.278-0.127-0.364S44.852,6.378,44.702,6.378z"/>
	<path class="st0" d="M46.794,5.858l0.022,0.306c0.188-0.236,0.442-0.354,0.759-0.354c0.28,0,0.488,0.082,0.625,0.247
		c0.137,0.164,0.207,0.41,0.211,0.736V8.5h-0.706V6.806c0-0.15-0.032-0.259-0.098-0.327c-0.065-0.067-0.173-0.101-0.325-0.101
		c-0.198,0-0.347,0.084-0.446,0.254V8.5H46.13V5.858H46.794z"/>
	<path class="st0" d="M49.664,5.208v0.649h0.452v0.518h-0.452v1.318c0,0.098,0.02,0.168,0.057,0.21s0.109,0.063,0.215,0.063
		c0.078,0,0.147-0.006,0.207-0.017v0.534c-0.138,0.042-0.28,0.063-0.427,0.063c-0.495,0-0.747-0.25-0.757-0.75V6.375h-0.386V5.858
		h0.386V5.208H49.664z"/>
	<path class="st0" d="M51.814,7.769c0-0.086-0.042-0.153-0.128-0.203c-0.085-0.05-0.223-0.094-0.411-0.133
		c-0.628-0.133-0.942-0.399-0.942-0.801c0-0.234,0.098-0.431,0.292-0.588s0.448-0.235,0.763-0.235c0.335,0,0.604,0.079,0.805,0.237
		c0.201,0.157,0.302,0.362,0.302,0.615h-0.706c0-0.102-0.032-0.185-0.098-0.251c-0.065-0.065-0.167-0.099-0.306-0.099
		c-0.118,0-0.21,0.027-0.275,0.08c-0.065,0.055-0.098,0.123-0.098,0.205c0,0.078,0.037,0.142,0.111,0.189s0.199,0.09,0.375,0.125
		s0.323,0.074,0.443,0.118c0.373,0.137,0.56,0.374,0.56,0.71c0,0.241-0.104,0.437-0.31,0.585c-0.207,0.149-0.475,0.224-0.801,0.224
		c-0.222,0-0.418-0.039-0.59-0.118s-0.307-0.188-0.404-0.325S50.25,7.819,50.25,7.66h0.669c0.007,0.125,0.053,0.222,0.14,0.288
		c0.086,0.066,0.201,0.101,0.346,0.101c0.136,0,0.237-0.026,0.307-0.077C51.78,7.919,51.814,7.853,51.814,7.769z"/>
	<path class="st0" d="M54.172,8.804h-0.524l1.309-3.859h0.524L54.172,8.804z"/>
	<path class="st0" d="M59.389,5.539H58.3V8.5h-0.732V5.539h-1.074V4.945h2.896V5.539z"/>
	<path class="st0" d="M60.633,8.548c-0.387,0-0.702-0.119-0.945-0.356s-0.365-0.554-0.365-0.95V7.173
		c0-0.265,0.051-0.502,0.154-0.711c0.102-0.209,0.247-0.37,0.436-0.483c0.188-0.113,0.402-0.17,0.643-0.17
		c0.361,0,0.646,0.114,0.854,0.342c0.208,0.228,0.312,0.551,0.312,0.97v0.287h-1.683c0.023,0.173,0.092,0.312,0.207,0.416
		c0.114,0.104,0.26,0.156,0.436,0.156c0.271,0,0.484-0.099,0.637-0.296l0.348,0.388c-0.106,0.15-0.25,0.267-0.43,0.351
		C61.053,8.506,60.854,8.548,60.633,8.548z M60.553,6.378c-0.14,0-0.254,0.047-0.341,0.142s-0.143,0.23-0.167,0.407h0.981V6.871
		c-0.003-0.156-0.046-0.278-0.127-0.364S60.702,6.378,60.553,6.378z"/>
	<path class="st0" d="M63.093,7.98c0.131,0,0.236-0.036,0.318-0.107c0.081-0.072,0.123-0.167,0.127-0.286h0.661
		c-0.002,0.179-0.051,0.343-0.146,0.492c-0.096,0.148-0.228,0.265-0.395,0.347s-0.351,0.123-0.553,0.123
		c-0.378,0-0.676-0.12-0.894-0.36s-0.327-0.571-0.327-0.995V7.147c0-0.407,0.108-0.731,0.325-0.974
		c0.216-0.243,0.513-0.364,0.891-0.364c0.33,0,0.596,0.094,0.795,0.282c0.199,0.188,0.301,0.438,0.304,0.75h-0.661
		c-0.004-0.137-0.046-0.249-0.127-0.335c-0.082-0.086-0.189-0.128-0.322-0.128c-0.165,0-0.289,0.06-0.373,0.18
		c-0.084,0.119-0.125,0.313-0.125,0.583v0.073c0,0.272,0.041,0.468,0.124,0.587S62.924,7.98,63.093,7.98z"/>
	<path class="st0" d="M65.165,6.146c0.188-0.225,0.423-0.337,0.706-0.337c0.573,0,0.863,0.333,0.872,0.999V8.5h-0.706V6.824
		c0-0.152-0.032-0.265-0.098-0.337s-0.173-0.108-0.325-0.108c-0.206,0-0.355,0.079-0.449,0.239V8.5H64.46V4.75h0.705V6.146z"/>
	<path class="st0" d="M67.8,5.858l0.022,0.306c0.188-0.236,0.442-0.354,0.759-0.354c0.28,0,0.488,0.082,0.625,0.247
		c0.137,0.164,0.207,0.41,0.211,0.736V8.5h-0.706V6.806c0-0.15-0.032-0.259-0.098-0.327c-0.065-0.067-0.173-0.101-0.325-0.101
		c-0.198,0-0.347,0.084-0.446,0.254V8.5h-0.706V5.858H67.8z"/>
	<path class="st0" d="M69.716,7.154c0-0.262,0.051-0.495,0.151-0.7s0.246-0.364,0.436-0.476c0.189-0.113,0.41-0.169,0.66-0.169
		c0.357,0,0.647,0.109,0.873,0.327s0.352,0.515,0.377,0.889l0.006,0.181c0,0.405-0.113,0.73-0.34,0.976s-0.529,0.367-0.91,0.367
		s-0.686-0.122-0.912-0.366c-0.228-0.244-0.341-0.576-0.341-0.996V7.154z M70.422,7.205c0,0.251,0.047,0.442,0.141,0.575
		c0.095,0.133,0.23,0.2,0.406,0.2c0.17,0,0.304-0.066,0.4-0.197c0.096-0.131,0.144-0.341,0.144-0.63
		c0-0.246-0.048-0.437-0.144-0.572c-0.097-0.135-0.231-0.202-0.406-0.202c-0.172,0-0.306,0.066-0.4,0.201
		C70.469,6.714,70.422,6.922,70.422,7.205z"/>
	<path class="st0" d="M73.272,8.5h-0.708V4.75h0.708V8.5z"/>
	<path class="st0" d="M73.619,7.154c0-0.262,0.051-0.495,0.151-0.7s0.246-0.364,0.436-0.476c0.189-0.113,0.41-0.169,0.66-0.169
		c0.357,0,0.647,0.109,0.873,0.327s0.352,0.515,0.377,0.889l0.006,0.181c0,0.405-0.113,0.73-0.34,0.976s-0.529,0.367-0.91,0.367
		s-0.686-0.122-0.912-0.366c-0.228-0.244-0.341-0.576-0.341-0.996V7.154z M74.325,7.205c0,0.251,0.047,0.442,0.141,0.575
		c0.095,0.133,0.23,0.2,0.406,0.2c0.17,0,0.304-0.066,0.4-0.197c0.096-0.131,0.144-0.341,0.144-0.63
		c0-0.246-0.048-0.437-0.144-0.572c-0.097-0.135-0.231-0.202-0.406-0.202c-0.172,0-0.306,0.066-0.4,0.201
		C74.372,6.714,74.325,6.922,74.325,7.205z"/>
	<path class="st0" d="M76.327,7.16c0-0.406,0.097-0.732,0.29-0.979c0.192-0.247,0.452-0.371,0.78-0.371
		c0.289,0,0.515,0.1,0.676,0.298l0.029-0.249h0.64v2.554c0,0.231-0.053,0.432-0.157,0.604c-0.105,0.17-0.253,0.301-0.443,0.391
		c-0.19,0.089-0.413,0.134-0.669,0.134c-0.193,0-0.383-0.039-0.566-0.116s-0.323-0.177-0.417-0.299l0.312-0.43
		C76.978,8.892,77.19,8.99,77.44,8.99c0.188,0,0.333-0.05,0.438-0.149c0.104-0.101,0.156-0.242,0.156-0.427V8.273
		c-0.163,0.184-0.377,0.275-0.643,0.275c-0.316,0-0.573-0.124-0.77-0.372s-0.295-0.577-0.295-0.987V7.16z M77.033,7.209
		c0,0.24,0.048,0.429,0.144,0.565c0.097,0.137,0.229,0.205,0.396,0.205c0.215,0,0.368-0.081,0.461-0.243V6.621
		c-0.095-0.162-0.246-0.242-0.457-0.242c-0.169,0-0.302,0.069-0.398,0.208S77.033,6.933,77.033,7.209z"/>
	<path class="st0" d="M80.146,7.501l0.488-1.644h0.756L80.329,8.91l-0.059,0.139c-0.158,0.346-0.418,0.518-0.781,0.518
		c-0.103,0-0.207-0.015-0.312-0.046V8.986l0.107,0.002c0.134,0,0.233-0.021,0.299-0.061c0.066-0.041,0.118-0.108,0.155-0.203
		l0.083-0.217l-0.925-2.649h0.759L80.146,7.501z"/>
</g>
<g>
	<path class="st0" d="M17.64,13.666v-3.555h1.094c0.312,0,0.592,0.07,0.839,0.211c0.246,0.141,0.439,0.341,0.577,0.601
		s0.208,0.555,0.208,0.886v0.163c0,0.33-0.068,0.624-0.204,0.882c-0.136,0.257-0.328,0.456-0.575,0.598s-0.526,0.213-0.837,0.215
		H17.64z M18.372,10.705v2.373h0.354c0.287,0,0.505-0.094,0.657-0.281s0.229-0.455,0.232-0.803v-0.188
		c0-0.361-0.075-0.635-0.225-0.821s-0.369-0.279-0.657-0.279H18.372z"/>
	<path class="st0" d="M20.713,10.341c0-0.105,0.036-0.192,0.106-0.261c0.071-0.068,0.167-0.104,0.29-0.104
		c0.121,0,0.216,0.035,0.288,0.104s0.107,0.155,0.107,0.261c0,0.107-0.036,0.195-0.109,0.264c-0.072,0.068-0.168,0.103-0.287,0.103
		s-0.214-0.034-0.287-0.103C20.749,10.536,20.713,10.448,20.713,10.341z M21.462,13.666h-0.708v-2.642h0.708V13.666z"/>
	<path class="st0" d="M23.403,11.686c-0.096-0.013-0.181-0.02-0.254-0.02c-0.267,0-0.442,0.091-0.525,0.271v1.729h-0.706v-2.642
		h0.667l0.02,0.315c0.142-0.243,0.338-0.364,0.588-0.364c0.078,0,0.151,0.011,0.22,0.032L23.403,11.686z"/>
	<path class="st0" d="M24.787,13.715c-0.387,0-0.703-0.119-0.946-0.356c-0.244-0.237-0.365-0.554-0.365-0.95V12.34
		c0-0.265,0.051-0.502,0.154-0.711s0.248-0.37,0.436-0.483c0.188-0.113,0.402-0.17,0.643-0.17c0.361,0,0.646,0.114,0.853,0.342
		c0.208,0.228,0.312,0.551,0.312,0.97v0.287h-1.682c0.023,0.173,0.091,0.312,0.207,0.416c0.114,0.104,0.26,0.156,0.436,0.156
		c0.272,0,0.484-0.099,0.637-0.296l0.347,0.388c-0.106,0.15-0.249,0.267-0.43,0.351S25.006,13.715,24.787,13.715z M24.706,11.545
		c-0.14,0-0.253,0.047-0.341,0.142c-0.087,0.095-0.143,0.23-0.167,0.407h0.981v-0.057c-0.003-0.156-0.045-0.278-0.127-0.364
		S24.856,11.545,24.706,11.545z"/>
	<path class="st0" d="M27.247,13.146c0.13,0,0.236-0.036,0.317-0.107c0.082-0.072,0.124-0.167,0.127-0.286h0.662
		c-0.001,0.179-0.05,0.343-0.146,0.492c-0.096,0.148-0.228,0.265-0.395,0.347c-0.167,0.082-0.351,0.123-0.553,0.123
		c-0.377,0-0.675-0.12-0.894-0.36s-0.327-0.571-0.327-0.995v-0.046c0-0.407,0.108-0.731,0.325-0.974
		c0.216-0.243,0.514-0.364,0.891-0.364c0.331,0,0.595,0.094,0.795,0.282c0.199,0.188,0.3,0.438,0.304,0.75h-0.662
		c-0.003-0.137-0.045-0.249-0.127-0.335s-0.189-0.128-0.322-0.128c-0.165,0-0.289,0.06-0.373,0.18
		c-0.083,0.119-0.125,0.313-0.125,0.583v0.073c0,0.272,0.042,0.468,0.125,0.587S27.078,13.146,27.247,13.146z"/>
	<path class="st0" d="M29.476,10.375v0.649h0.452v0.518h-0.452v1.318c0,0.098,0.019,0.168,0.056,0.21s0.109,0.063,0.215,0.063
		c0.078,0,0.147-0.006,0.208-0.017v0.534c-0.138,0.042-0.281,0.063-0.427,0.063c-0.495,0-0.747-0.25-0.757-0.75v-1.423h-0.386
		v-0.518h0.386v-0.649H29.476z"/>
	<path class="st0" d="M30.012,12.32c0-0.262,0.05-0.495,0.151-0.7s0.246-0.364,0.436-0.476c0.19-0.113,0.41-0.169,0.661-0.169
		c0.356,0,0.647,0.109,0.872,0.327c0.227,0.218,0.352,0.515,0.378,0.889l0.005,0.181c0,0.405-0.113,0.73-0.34,0.976
		c-0.226,0.245-0.529,0.367-0.91,0.367s-0.685-0.122-0.912-0.366c-0.228-0.244-0.341-0.576-0.341-0.996V12.32z M30.718,12.371
		c0,0.251,0.047,0.442,0.142,0.575s0.229,0.2,0.405,0.2c0.171,0,0.304-0.066,0.4-0.197s0.144-0.341,0.144-0.63
		c0-0.246-0.048-0.437-0.144-0.572c-0.096-0.135-0.231-0.202-0.405-0.202c-0.172,0-0.306,0.066-0.4,0.201
		S30.718,12.089,30.718,12.371z"/>
	<path class="st0" d="M34.31,11.686c-0.097-0.013-0.182-0.02-0.254-0.02c-0.268,0-0.442,0.091-0.525,0.271v1.729h-0.705v-2.642
		h0.666l0.02,0.315c0.142-0.243,0.338-0.364,0.588-0.364c0.078,0,0.152,0.011,0.221,0.032L34.31,11.686z"/>
	<path class="st0" d="M35.953,12.936c0-0.086-0.042-0.153-0.128-0.203c-0.085-0.05-0.223-0.094-0.411-0.133
		c-0.628-0.133-0.942-0.399-0.942-0.801c0-0.234,0.098-0.431,0.292-0.588s0.448-0.235,0.763-0.235c0.335,0,0.604,0.079,0.805,0.237
		c0.201,0.157,0.302,0.362,0.302,0.615h-0.706c0-0.102-0.032-0.185-0.098-0.251c-0.065-0.065-0.167-0.099-0.306-0.099
		c-0.118,0-0.21,0.027-0.275,0.08c-0.065,0.055-0.098,0.123-0.098,0.205c0,0.078,0.037,0.142,0.111,0.189s0.199,0.09,0.375,0.125
		s0.323,0.074,0.443,0.118c0.373,0.137,0.56,0.374,0.56,0.71c0,0.241-0.104,0.437-0.31,0.585c-0.207,0.149-0.475,0.224-0.801,0.224
		c-0.222,0-0.418-0.039-0.59-0.118s-0.307-0.188-0.404-0.325s-0.146-0.286-0.146-0.445h0.669c0.007,0.125,0.053,0.222,0.14,0.288
		c0.086,0.066,0.201,0.101,0.346,0.101c0.136,0,0.237-0.026,0.307-0.077C35.919,13.086,35.953,13.02,35.953,12.936z"/>
	<path class="st0" d="M38.311,13.971h-0.524l1.309-3.859h0.524L38.311,13.971z"/>
	<path class="st0" d="M41.73,12.414v1.252h-0.732v-3.555h1.387c0.267,0,0.502,0.049,0.704,0.146
		c0.203,0.098,0.358,0.236,0.468,0.416s0.163,0.385,0.163,0.614c0,0.349-0.119,0.623-0.357,0.824s-0.568,0.302-0.99,0.302H41.73z
		 M41.73,11.82h0.654c0.193,0,0.342-0.046,0.443-0.137s0.152-0.222,0.152-0.391c0-0.174-0.052-0.314-0.153-0.422
		c-0.104-0.107-0.244-0.163-0.426-0.166H41.73V11.82z"/>
	<path class="st0" d="M45.536,11.686c-0.097-0.013-0.182-0.02-0.254-0.02c-0.268,0-0.442,0.091-0.525,0.271v1.729h-0.705v-2.642
		h0.666l0.02,0.315c0.142-0.243,0.338-0.364,0.588-0.364c0.078,0,0.152,0.011,0.221,0.032L45.536,11.686z"/>
	<path class="st0" d="M45.745,10.341c0-0.105,0.036-0.192,0.106-0.261c0.071-0.068,0.167-0.104,0.29-0.104
		c0.12,0,0.216,0.035,0.287,0.104c0.072,0.068,0.107,0.155,0.107,0.261c0,0.107-0.036,0.195-0.108,0.264s-0.168,0.103-0.286,0.103
		c-0.119,0-0.215-0.034-0.287-0.103S45.745,10.448,45.745,10.341z M46.495,13.666h-0.708v-2.642h0.708V13.666z"/>
	<path class="st0" d="M47.601,11.024l0.022,0.306c0.188-0.236,0.442-0.354,0.759-0.354c0.28,0,0.488,0.082,0.625,0.247
		c0.137,0.164,0.207,0.41,0.211,0.736v1.707h-0.706v-1.693c0-0.15-0.032-0.259-0.098-0.327c-0.065-0.067-0.173-0.101-0.325-0.101
		c-0.198,0-0.347,0.084-0.446,0.254v1.867h-0.706v-2.642H47.601z"/>
	<path class="st0" d="M50.725,13.146c0.131,0,0.236-0.036,0.318-0.107c0.081-0.072,0.123-0.167,0.127-0.286h0.661
		c-0.002,0.179-0.051,0.343-0.146,0.492c-0.096,0.148-0.228,0.265-0.395,0.347s-0.351,0.123-0.553,0.123
		c-0.378,0-0.676-0.12-0.894-0.36s-0.327-0.571-0.327-0.995v-0.046c0-0.407,0.108-0.731,0.325-0.974
		c0.216-0.243,0.513-0.364,0.891-0.364c0.33,0,0.596,0.094,0.795,0.282c0.199,0.188,0.301,0.438,0.304,0.75H51.17
		c-0.004-0.137-0.046-0.249-0.127-0.335c-0.082-0.086-0.189-0.128-0.322-0.128c-0.165,0-0.289,0.06-0.373,0.18
		c-0.084,0.119-0.125,0.313-0.125,0.583v0.073c0,0.272,0.041,0.468,0.124,0.587S50.556,13.146,50.725,13.146z"/>
	<path class="st0" d="M52.104,10.341c0-0.105,0.036-0.192,0.106-0.261c0.071-0.068,0.167-0.104,0.29-0.104
		c0.12,0,0.216,0.035,0.287,0.104c0.072,0.068,0.107,0.155,0.107,0.261c0,0.107-0.036,0.195-0.108,0.264s-0.168,0.103-0.286,0.103
		c-0.119,0-0.215-0.034-0.287-0.103S52.104,10.448,52.104,10.341z M52.854,13.666h-0.708v-2.642h0.708V13.666z"/>
	<path class="st0" d="M55.687,12.369c0,0.407-0.092,0.733-0.276,0.979s-0.435,0.367-0.749,0.367c-0.267,0-0.482-0.093-0.646-0.278
		v1.245H53.31v-3.657h0.654l0.023,0.259c0.172-0.205,0.395-0.308,0.67-0.308c0.325,0,0.578,0.12,0.759,0.361
		s0.271,0.573,0.271,0.996V12.369z M54.981,12.315c0-0.246-0.044-0.437-0.131-0.57s-0.213-0.2-0.379-0.2
		c-0.222,0-0.374,0.084-0.457,0.254v1.085c0.086,0.175,0.24,0.263,0.461,0.263C54.813,13.146,54.981,12.869,54.981,12.315z"/>
	<path class="st0" d="M57.53,13.666c-0.032-0.063-0.056-0.143-0.071-0.236c-0.17,0.189-0.393,0.285-0.666,0.285
		c-0.259,0-0.474-0.075-0.644-0.225s-0.255-0.339-0.255-0.566c0-0.28,0.104-0.495,0.312-0.645c0.207-0.149,0.507-0.226,0.899-0.227
		h0.324V11.9c0-0.121-0.031-0.219-0.094-0.293c-0.062-0.072-0.161-0.109-0.297-0.109c-0.118,0-0.212,0.028-0.279,0.086
		c-0.067,0.057-0.102,0.135-0.102,0.234h-0.705c0-0.153,0.047-0.295,0.142-0.426c0.095-0.13,0.228-0.231,0.4-0.306
		s0.366-0.111,0.581-0.111c0.325,0,0.584,0.082,0.775,0.245c0.191,0.164,0.287,0.394,0.287,0.689v1.146
		c0.001,0.251,0.036,0.44,0.104,0.569v0.041H57.53z M56.947,13.176c0.104,0,0.199-0.023,0.287-0.07
		c0.088-0.046,0.153-0.108,0.195-0.187v-0.454h-0.264c-0.353,0-0.541,0.122-0.563,0.366L56.6,12.873c0,0.088,0.031,0.16,0.094,0.217
		C56.755,13.146,56.84,13.176,56.947,13.176z"/>
	<path class="st0" d="M59.3,13.666h-0.708v-3.75H59.3V13.666z"/>
	<path class="st0" d="M61.187,12.936c0-0.086-0.042-0.153-0.128-0.203c-0.085-0.05-0.223-0.094-0.411-0.133
		c-0.628-0.133-0.942-0.399-0.942-0.801c0-0.234,0.098-0.431,0.292-0.588s0.448-0.235,0.763-0.235c0.335,0,0.604,0.079,0.805,0.237
		c0.201,0.157,0.302,0.362,0.302,0.615H61.16c0-0.102-0.032-0.185-0.098-0.251c-0.065-0.065-0.167-0.099-0.306-0.099
		c-0.118,0-0.21,0.027-0.275,0.08c-0.065,0.055-0.098,0.123-0.098,0.205c0,0.078,0.037,0.142,0.111,0.189s0.199,0.09,0.375,0.125
		s0.323,0.074,0.443,0.118c0.373,0.137,0.56,0.374,0.56,0.71c0,0.241-0.104,0.437-0.31,0.585c-0.207,0.149-0.475,0.224-0.801,0.224
		c-0.222,0-0.418-0.039-0.59-0.118s-0.307-0.188-0.404-0.325s-0.146-0.286-0.146-0.445h0.669c0.007,0.125,0.053,0.222,0.14,0.288
		c0.086,0.066,0.201,0.101,0.346,0.101c0.136,0,0.237-0.026,0.307-0.077C61.152,13.086,61.187,13.02,61.187,12.936z"/>
</g>
<g>
	<g>
		<g>
			<path class="st0" d="M13.358,7.02c-0.004-0.001-0.008-0.001-0.012-0.002c0.012-0.025,0.009-0.053-0.019-0.074
				c-0.266-0.187-0.54-0.364-0.817-0.539c-0.391-0.278-0.8-0.543-1.185-0.816c-0.382-0.271-0.758-0.558-1.154-0.818
				c-0.059-0.053-0.116-0.108-0.173-0.163C9.974,4.586,9.942,4.6,9.932,4.621C9.809,4.547,9.685,4.475,9.557,4.408
				C9.551,4.405,9.546,4.405,9.54,4.403C9.479,4.36,9.417,4.32,9.335,4.312C9.329,4.312,9.324,4.313,9.319,4.315
				c-0.005-0.002-0.01-0.004-0.016-0.003C9.221,4.32,9.159,4.36,9.098,4.403C9.092,4.405,9.087,4.405,9.081,4.408
				C8.953,4.475,8.829,4.547,8.707,4.621C8.696,4.6,8.664,4.586,8.642,4.608c-0.057,0.056-0.114,0.11-0.173,0.163
				c-0.396,0.26-0.772,0.547-1.154,0.818C6.929,5.862,6.521,6.127,6.129,6.405C5.852,6.58,5.578,6.757,5.312,6.944
				c-0.029,0.02-0.031,0.049-0.019,0.074C5.289,7.018,5.284,7.019,5.28,7.02c-0.053,0.011-0.053,0.082,0,0.093
				c0.294,0.06,0.605,0.035,0.905,0.035c0.396,0,0.792,0,1.187,0.001c0.642,0,1.306,0.041,1.946-0.02
				c0.641,0.061,1.304,0.02,1.946,0.02c0.396,0,0.792,0,1.187-0.001c0.3,0,0.612,0.025,0.905-0.035
				C13.411,7.102,13.411,7.031,13.358,7.02z M12.304,6.985l-1.039,0c-0.541,0-1.097-0.029-1.642-0.002
				c0.136-0.064,0.248-0.166,0.321-0.31c0.034-0.067,0.041-0.163,0.03-0.236C9.941,6.199,9.946,5.973,9.932,5.736
				C9.905,5.281,9.448,5.113,9.084,5.235C8.689,5.248,8.481,5.85,8.465,6.186C8.455,6.387,8.43,6.765,8.59,6.928
				c0.016,0.016,0.032,0.03,0.049,0.043C8.216,6.967,7.79,6.984,7.373,6.984l-1.039,0c-0.242,0-0.494-0.015-0.739-0.002
				c0.182-0.107,0.359-0.221,0.534-0.339c-0.004,0.028,0.012,0.058,0.049,0.06C6.357,6.711,6.592,6.766,6.76,6.687
				c0.027-0.013,0.027-0.059,0-0.072C6.597,6.54,6.373,6.588,6.196,6.598C6.373,6.477,6.547,6.352,6.72,6.224
				C6.924,6.089,7.128,5.954,7.333,5.82c0.055-0.036,0.11-0.072,0.166-0.109C7.502,5.74,7.522,5.766,7.559,5.766
				C7.75,5.769,7.944,5.785,8.13,5.739c0.037-0.009,0.037-0.065,0-0.074C7.961,5.623,7.786,5.632,7.613,5.636
				C7.744,5.55,7.874,5.462,7.998,5.368c0.18,0.014,0.345,0.036,0.521-0.015c0.04-0.011,0.04-0.069,0-0.08
				C8.395,5.238,8.276,5.239,8.154,5.247c0.112-0.091,0.218-0.187,0.314-0.29C8.696,4.81,8.93,4.672,9.174,4.546
				C9.211,4.528,9.222,4.498,9.217,4.47c0.041-0.024,0.076-0.052,0.102-0.088C9.345,4.417,9.381,4.446,9.421,4.47
				C9.416,4.498,9.427,4.528,9.464,4.546c0.245,0.125,0.479,0.264,0.707,0.41c0.314,0.339,0.736,0.604,1.135,0.864
				c0.205,0.133,0.409,0.269,0.613,0.404c0.363,0.268,0.733,0.528,1.125,0.758C12.798,6.969,12.546,6.985,12.304,6.985z"/>
			<path class="st0" d="M13.819,12.305c-0.001,0.005-0.002,0.01-0.003,0.015c-0.008-0.007-0.017-0.013-0.026-0.018
				c-0.005-0.015-0.017-0.028-0.042-0.03c-0.004,0-0.008-0.001-0.012-0.001c-0.044-0.021-0.091-0.035-0.133-0.038
				c-0.023-0.002-0.04,0.009-0.051,0.025c-0.025-0.002-0.05-0.004-0.075-0.005c-0.06-0.65-0.119-1.301-0.179-1.951
				c-0.058-0.63-0.085-1.273-0.188-1.897c-0.001-0.006-0.004-0.011-0.006-0.016c0.196-0.002,0.393-0.003,0.589-0.005
				c0.002,0.015,0.001,0.031,0.004,0.046c0.008,0.04,0.073,0.05,0.09,0.012c0.004-0.01,0.007-0.02,0.01-0.03
				c0.012-0.003,0.023-0.009,0.027-0.019c0.001-0.003,0.002-0.006,0.003-0.009c0.007,0,0.015,0,0.022,0
				c0.061,0,0.062-0.08,0.003-0.084c0.026-0.111,0.025-0.228,0.032-0.341c0.002-0.037,0.005-0.075,0.009-0.112
				c0.002-0.021,0.004-0.042,0.005-0.062c0.008-0.108,0.014-0.216-0.001-0.322c-0.003-0.023-0.028-0.034-0.049-0.032
				c-0.002-0.007-0.003-0.014-0.005-0.02c-0.016-0.068-0.122-0.058-0.128,0.007c-0.741-0.061-1.505-0.024-2.248-0.025
				c-0.704-0.001-1.445-0.055-2.149,0.002C8.615,7.338,7.875,7.391,7.17,7.392C6.503,7.393,5.82,7.363,5.152,7.401
				C5.055,7.3,4.823,7.363,4.728,7.429c-0.038,0.027-0.028,0.086,0.008,0.1c-0.01,0.143,0.008,0.288,0.017,0.43
				C4.76,8.072,4.759,8.188,4.785,8.3C4.726,8.303,4.727,8.383,4.788,8.384c0.007,0,0.015,0,0.022,0
				C4.812,8.387,4.812,8.39,4.813,8.393c0.011,0.026,0.06,0.031,0.068,0C4.882,8.39,4.882,8.387,4.882,8.384
				c0.168,0.001,0.337,0.003,0.505,0.004C5.18,9.666,5.09,10.974,4.987,12.265c-0.032,0.002-0.065,0.003-0.097,0.006
				c-0.063,0.005-0.063,0.079,0,0.085c0.03,0.003,0.059,0.004,0.089,0.006c-0.002,0.024-0.004,0.049-0.006,0.073
				c-0.002,0.025,0.008,0.043,0.023,0.054c-0.048,0.003-0.094,0.009-0.14,0.016c-0.008-0.067-0.018-0.135-0.037-0.2
				c-0.012-0.041-0.073-0.027-0.078,0.009c-0.02,0.141-0.005,0.285,0.007,0.427c-0.019,0.026-0.016,0.065,0.006,0.087
				c0.003,0.045,0.004,0.091,0.007,0.137c-0.016,0.019-0.013,0.05,0.006,0.066c0.004,0.04,0.009,0.08,0.018,0.119
				c-0.059,0.004-0.058,0.084,0.003,0.084c0.007,0,0.015,0,0.022,0c0.001,0.003,0.002,0.006,0.003,0.009
				c0.011,0.026,0.06,0.032,0.068,0c0.001-0.003,0.001-0.006,0.001-0.009c1.311,0.008,2.622,0.024,3.933,0.03
				c0.006,0.001,0.011,0.003,0.017,0.003c0.162,0,0.324-0.001,0.486-0.001c0.162,0,0.324,0.001,0.486,0.001
				c0.007,0,0.011-0.002,0.017-0.003c1.311-0.006,2.622-0.022,3.933-0.03c0.001,0.003,0.001,0.006,0.001,0.009
				c0.008,0.032,0.057,0.026,0.068,0c0.001-0.003,0.002-0.006,0.003-0.009c0.007,0,0.015,0,0.022,0c0.061,0,0.062-0.08,0.003-0.084
				c0.026-0.111,0.025-0.228,0.032-0.341c0.007-0.105,0.018-0.211,0.02-0.317c0-0.008,0.001-0.016,0.001-0.024
				c0-0.052-0.001-0.104-0.009-0.155C13.892,12.278,13.831,12.264,13.819,12.305z M6.47,12.238
				c-0.448-0.006-0.898-0.008-1.342,0.018c0.11-1.289,0.275-2.577,0.357-3.867C5.648,8.39,5.812,8.392,5.976,8.393
				C5.969,8.4,5.963,8.409,5.963,8.421c-0.034,0.602-0.023,1.21-0.023,1.813c-0.001,0.557-0.05,1.141,0.032,1.693
				c0.005,0.033,0.062,0.033,0.067,0c0.083-0.552,0.033-1.136,0.032-1.693C6.07,9.631,6.081,9.024,6.047,8.421
				C6.047,8.409,6.041,8.4,6.035,8.393c0.151,0.001,0.302,0.002,0.453,0.004c-0.01,0.613-0.032,1.225-0.032,1.839
				C6.454,10.898,6.411,11.578,6.47,12.238z M8.714,10.3c-0.013,0.64-0.047,1.28-0.095,1.919c-0.485-0.001-0.975,0.024-1.449,0.025
				c-0.197,0-0.395-0.002-0.594-0.005c0.056-0.619,0.016-1.256,0.015-1.877C6.59,9.706,6.569,9.052,6.559,8.398
				C7.277,8.404,7.995,8.41,8.713,8.414C8.693,9.041,8.727,9.673,8.714,10.3z M9.321,12.247c-0.188-0.015-0.378-0.023-0.57-0.026
				c0.048-0.639,0.079-1.279,0.09-1.921C8.852,9.678,8.873,9.036,8.81,8.414c0.002,0,0.004,0,0.006,0
				c0.005,0.001,0.011,0.003,0.017,0.003c0.162,0,0.324-0.001,0.486-0.001c0.162,0,0.324,0.001,0.486,0.001c0,0,0.001,0,0.001,0
				c0.129,1.278,0.35,2.55,0.614,3.806C10.051,12.216,9.681,12.217,9.321,12.247z M12.006,8.41
				c-0.102,0.584-0.028,1.232-0.028,1.825c0,0.662-0.045,1.346,0.023,2.006c-0.178,0.002-0.356,0.004-0.532,0.004
				c-0.297,0-0.601-0.01-0.905-0.017c-0.266-1.263-0.459-2.533-0.627-3.812c0.693-0.004,1.385-0.01,2.078-0.016
				C12.011,8.402,12.007,8.405,12.006,8.41z M12.952,12.236c0.075-1.121,0.043-2.262,0.008-3.383c-0.002-0.061-0.093-0.061-0.095,0
				c-0.035,1.121-0.067,2.262,0.008,3.382c-0.19-0.002-0.381,0.001-0.571,0.003c0.022-0.517,0.023-1.033,0.023-1.55
				c0-0.587-0.073-1.21,0.004-1.791c0.011-0.083-0.139-0.083-0.128,0c0.077,0.581,0.004,1.205,0.004,1.791
				c0,0.518,0.001,1.034,0.023,1.551c-0.044,0-0.087,0-0.131,0.001c0.062-0.617,0.023-1.256,0.023-1.875
				c0-0.633,0.081-1.33-0.028-1.954c-0.001-0.005-0.005-0.008-0.008-0.012c0.308-0.003,0.616-0.005,0.924-0.008
				c-0.006,0.008-0.01,0.018-0.01,0.03c0.011,0.626,0.101,1.258,0.158,1.881c0.059,0.648,0.118,1.296,0.177,1.944
				C13.206,12.241,13.079,12.238,12.952,12.236z"/>
			<path class="st0" d="M15.251,14.201c0.008-0.002,0.016-0.003,0.022-0.009c0.057-0.064,0.048-0.147,0.049-0.229
				c0.001-0.106,0-0.213-0.001-0.319c0-0.042-0.035-0.078-0.077-0.077c-0.101,0.001-0.202-0.001-0.302,0.005
				c-0.043,0.003-0.064,0.032-0.067,0.064c-0.093-0.011-0.184-0.014-0.278-0.006c-0.015,0.001-0.026,0.007-0.034,0.015
				c-0.787-0.027-1.588-0.002-2.371-0.003c-0.942-0.001-1.935-0.062-2.871,0.012c-0.936-0.075-1.929-0.013-2.871-0.012
				c-0.955,0.001-1.936-0.038-2.886,0.027c-0.075,0.005-0.078,0.07-0.012,0.082c-0.019,0.005-0.038,0.01-0.057,0.018
				c-0.006-0.022-0.013-0.045-0.021-0.067c-0.015-0.041-0.092-0.027-0.099,0.009c-0.029,0.164,0.002,0.332,0.015,0.497
				c0.009,0.113,0.009,0.229,0.041,0.341c-0.075,0.004-0.074,0.084,0.004,0.084c0.009,0,0.019,0,0.028,0
				c0.001,0.003,0.002,0.006,0.004,0.009c0.014,0.026,0.075,0.031,0.086,0c0.001-0.003,0.001-0.006,0.002-0.009
				c1.762,0.009,3.524,0.026,5.286,0.031c0.006,0.001,0.01,0.002,0.016,0.002c0.155,0,0.309-0.001,0.464-0.001
				c0.155,0,0.309,0.001,0.464,0.001c0.006,0,0.011-0.002,0.016-0.002c1.763-0.005,3.525-0.022,5.286-0.031
				c0.001,0.003,0.001,0.006,0.002,0.009c0.01,0.031,0.072,0.026,0.086,0c0.002-0.003,0.002-0.006,0.004-0.009
				c0.009,0,0.019,0,0.028,0c0.078,0,0.079-0.08,0.004-0.084c0.033-0.111,0.032-0.228,0.041-0.341
				C15.25,14.207,15.25,14.204,15.251,14.201z"/>
		</g>
		<path class="st0" d="M7.44,6.181c-0.16-0.063-0.362-0.03-0.529-0.014c-0.068,0.006-0.068,0.099,0,0.105
			C7.078,6.288,7.28,6.321,7.44,6.258C7.478,6.244,7.478,6.196,7.44,6.181z"/>
		<path class="st0" d="M5.717,10.49C5.715,9.858,5.708,9.226,5.699,8.594c-0.001-0.051-0.078-0.051-0.079,0
			c-0.008,0.59-0.016,1.18-0.018,1.77c-0.002,0.579-0.071,1.206,0.03,1.777c0.005,0.027,0.049,0.027,0.054,0
			C5.781,11.609,5.719,11.03,5.717,10.49z"/>
		<path class="st0" d="M9.096,10.405C9.097,9.819,9.12,9.222,9.071,8.637c-0.005-0.057-0.083-0.057-0.088,0
			c-0.046,0.544-0.023,1.097-0.025,1.642c-0.002,0.585-0.034,1.187,0.035,1.768c0.005,0.045,0.064,0.045,0.07,0
			C9.126,11.506,9.096,10.95,9.096,10.405z"/>
		<path class="st0" d="M9.393,8.551c0-0.083-0.128-0.083-0.128,0c-0.004,1.116-0.066,2.254,0.037,3.367
			c0.003,0.035,0.051,0.035,0.055,0C9.459,10.805,9.397,9.667,9.393,8.551z"/>
		<path class="st0" d="M9.652,8.551c0.007-0.083-0.136-0.083-0.128,0c0.091,1.013-0.046,2.047,0.024,3.065
			c0.004,0.052,0.077,0.052,0.081,0C9.698,10.598,9.561,9.564,9.652,8.551z"/>
		<path class="st0" d="M12.631,8.551c0.002-0.083-0.13-0.083-0.128,0c0.022,1.134-0.068,2.279,0.029,3.41
			c0.004,0.045,0.066,0.045,0.07,0C12.699,10.83,12.608,9.685,12.631,8.551z"/>
	</g>
</g>
</svg>
