<?xml version="1.0" encoding="utf-8"?>
<!-- Generator: Adobe Illustrator 21.0.2, SVG Export Plug-In . SVG Version: 6.00 Build 0)  -->
<svg version="1.1" id="Layer_1" xmlns="http://www.w3.org/2000/svg" xmlns:xlink="http://www.w3.org/1999/xlink" x="0px" y="0px"
	 viewBox="0 0 100 20" style="enable-background:new 0 0 100 20;" xml:space="preserve">
<style type="text/css">
	.st0{fill:#98A4AE;}
</style>
<g>
	<path class="st0" d="M19.915,12.464c0-0.166-0.059-0.293-0.176-0.383c-0.117-0.088-0.328-0.182-0.633-0.281
		c-0.305-0.098-0.546-0.195-0.724-0.291c-0.484-0.262-0.727-0.614-0.727-1.058c0-0.23,0.065-0.436,0.195-0.616
		s0.316-0.322,0.56-0.424s0.516-0.152,0.819-0.152c0.305,0,0.576,0.056,0.814,0.166s0.423,0.266,0.555,0.467s0.198,0.43,0.198,0.686
		h-0.879c0-0.195-0.062-0.348-0.185-0.455c-0.123-0.109-0.296-0.163-0.519-0.163c-0.215,0-0.382,0.046-0.501,0.136
		c-0.119,0.092-0.179,0.211-0.179,0.359c0,0.139,0.07,0.255,0.209,0.349s0.345,0.182,0.617,0.264c0.5,0.15,0.864,0.337,1.093,0.56
		s0.343,0.5,0.343,0.832c0,0.369-0.14,0.659-0.419,0.869s-0.655,0.314-1.128,0.314c-0.328,0-0.627-0.061-0.896-0.18
		c-0.27-0.121-0.475-0.285-0.617-0.494s-0.212-0.451-0.212-0.727h0.882c0,0.471,0.281,0.706,0.844,0.706
		c0.209,0,0.372-0.042,0.489-0.128C19.856,12.735,19.915,12.616,19.915,12.464z"/>
	<path class="st0" d="M23.084,13.261c-0.209,0.254-0.498,0.381-0.867,0.381c-0.34,0-0.599-0.098-0.778-0.293
		s-0.27-0.481-0.274-0.858v-2.077h0.847v2.05c0,0.331,0.15,0.496,0.451,0.496c0.287,0,0.484-0.1,0.592-0.299v-2.247h0.85v3.17
		h-0.797L23.084,13.261z"/>
	<path class="st0" d="M27.247,12.027c0,0.488-0.111,0.88-0.333,1.173c-0.222,0.295-0.521,0.441-0.898,0.441
		c-0.32,0-0.579-0.111-0.776-0.334v1.494h-0.847v-4.389h0.785l0.029,0.311c0.205-0.246,0.473-0.369,0.803-0.369
		c0.391,0,0.694,0.145,0.911,0.434s0.325,0.688,0.325,1.195V12.027z M26.4,11.963c0-0.296-0.052-0.524-0.157-0.685
		c-0.104-0.161-0.256-0.241-0.456-0.241c-0.266,0-0.448,0.102-0.548,0.306v1.302c0.104,0.21,0.288,0.314,0.554,0.314
		C26.198,12.959,26.4,12.627,26.4,11.963z"/>
	<path class="st0" d="M29.08,13.642c-0.465,0-0.843-0.143-1.135-0.428s-0.438-0.665-0.438-1.14v-0.082
		c0-0.318,0.062-0.603,0.185-0.854c0.123-0.25,0.297-0.443,0.523-0.58c0.226-0.135,0.483-0.203,0.772-0.203
		c0.434,0,0.775,0.137,1.024,0.41s0.374,0.661,0.374,1.163v0.346h-2.019c0.027,0.207,0.11,0.373,0.248,0.498
		s0.312,0.188,0.523,0.188c0.326,0,0.581-0.118,0.765-0.354l0.416,0.466c-0.127,0.18-0.299,0.32-0.516,0.421
		C29.584,13.591,29.344,13.642,29.08,13.642z M28.983,11.037c-0.168,0-0.304,0.057-0.409,0.171
		c-0.104,0.113-0.171,0.276-0.201,0.488h1.178v-0.067c-0.004-0.188-0.055-0.334-0.152-0.438
		C29.302,11.089,29.163,11.037,28.983,11.037z"/>
	<path class="st0" d="M32.495,11.207c-0.115-0.016-0.217-0.023-0.305-0.023c-0.32,0-0.53,0.108-0.629,0.325v2.074h-0.847v-3.17h0.8
		l0.023,0.378c0.17-0.291,0.405-0.437,0.706-0.437c0.094,0,0.182,0.013,0.264,0.038L32.495,11.207z"/>
	<path class="st0" d="M32.747,9.593c0-0.127,0.042-0.231,0.128-0.313c0.084-0.082,0.2-0.123,0.347-0.123
		c0.145,0,0.26,0.041,0.346,0.123s0.129,0.187,0.129,0.313c0,0.129-0.044,0.234-0.13,0.316c-0.088,0.082-0.202,0.123-0.345,0.123
		s-0.258-0.041-0.345-0.123S32.747,9.722,32.747,9.593z M33.646,13.583h-0.85v-3.17h0.85V13.583z"/>
	<path class="st0" d="M34.973,10.413l0.026,0.366c0.227-0.283,0.53-0.425,0.911-0.425c0.336,0,0.586,0.099,0.75,0.296
		s0.248,0.492,0.252,0.885v2.048h-0.847v-2.032c0-0.18-0.039-0.311-0.117-0.392s-0.208-0.122-0.39-0.122
		c-0.238,0-0.417,0.102-0.536,0.306v2.24h-0.847v-3.17H34.973z"/>
	<path class="st0" d="M38.418,9.634v0.779h0.542v0.621h-0.542v1.582c0,0.117,0.022,0.201,0.067,0.252s0.131,0.076,0.258,0.076
		c0.094,0,0.177-0.007,0.249-0.021v0.642c-0.166,0.051-0.337,0.076-0.513,0.076c-0.594,0-0.896-0.3-0.908-0.899v-1.708h-0.463
		v-0.621h0.463V9.634H38.418z"/>
	<path class="st0" d="M40.74,13.642c-0.465,0-0.844-0.143-1.136-0.428s-0.438-0.665-0.438-1.14v-0.082
		c0-0.318,0.062-0.603,0.185-0.854c0.123-0.25,0.298-0.443,0.522-0.58c0.227-0.135,0.483-0.203,0.772-0.203
		c0.434,0,0.774,0.137,1.024,0.41c0.248,0.273,0.373,0.661,0.373,1.163v0.346h-2.019c0.027,0.207,0.11,0.373,0.247,0.498
		c0.139,0.125,0.312,0.188,0.523,0.188c0.326,0,0.581-0.118,0.765-0.354l0.416,0.466c-0.127,0.18-0.299,0.32-0.516,0.421
		C41.244,13.591,41.004,13.642,40.74,13.642z M40.644,11.037c-0.168,0-0.305,0.057-0.408,0.171
		c-0.105,0.113-0.172,0.276-0.201,0.488h1.178v-0.067c-0.004-0.188-0.055-0.334-0.152-0.438
		C40.962,11.089,40.823,11.037,40.644,11.037z"/>
	<path class="st0" d="M43.154,10.413l0.026,0.366c0.227-0.283,0.53-0.425,0.911-0.425c0.336,0,0.586,0.099,0.75,0.296
		s0.248,0.492,0.252,0.885v2.048h-0.847v-2.032c0-0.18-0.039-0.311-0.117-0.392s-0.208-0.122-0.39-0.122
		c-0.238,0-0.417,0.102-0.536,0.306v2.24h-0.847v-3.17H43.154z"/>
	<path class="st0" d="M45.453,11.975c0-0.494,0.11-0.888,0.332-1.181s0.525-0.439,0.91-0.439c0.309,0,0.563,0.115,0.765,0.346V9.083
		h0.85v4.5h-0.765l-0.041-0.337c-0.211,0.264-0.482,0.396-0.814,0.396c-0.373,0-0.672-0.146-0.898-0.441
		C45.566,12.907,45.453,12.498,45.453,11.975z M46.3,12.035c0,0.298,0.052,0.526,0.155,0.686s0.254,0.238,0.451,0.238
		c0.262,0,0.446-0.11,0.554-0.333V11.37c-0.105-0.222-0.288-0.333-0.548-0.333C46.504,11.037,46.3,11.37,46.3,12.035z"/>
	<path class="st0" d="M50.274,13.642c-0.465,0-0.844-0.143-1.136-0.428s-0.438-0.665-0.438-1.14v-0.082
		c0-0.318,0.062-0.603,0.185-0.854c0.123-0.25,0.298-0.443,0.522-0.58c0.227-0.135,0.483-0.203,0.772-0.203
		c0.434,0,0.774,0.137,1.024,0.41c0.248,0.273,0.373,0.661,0.373,1.163v0.346H49.56c0.027,0.207,0.11,0.373,0.247,0.498
		c0.139,0.125,0.312,0.188,0.523,0.188c0.326,0,0.581-0.118,0.765-0.354l0.416,0.466c-0.127,0.18-0.299,0.32-0.516,0.421
		C50.778,13.591,50.538,13.642,50.274,13.642z M50.178,11.037c-0.168,0-0.305,0.057-0.408,0.171
		c-0.105,0.113-0.172,0.276-0.201,0.488h1.178v-0.067c-0.004-0.188-0.055-0.334-0.152-0.438
		C50.496,11.089,50.357,11.037,50.178,11.037z"/>
	<path class="st0" d="M52.688,10.413l0.026,0.366c0.227-0.283,0.53-0.425,0.911-0.425c0.336,0,0.586,0.099,0.75,0.296
		s0.248,0.492,0.252,0.885v2.048h-0.847v-2.032c0-0.18-0.039-0.311-0.117-0.392s-0.208-0.122-0.39-0.122
		c-0.238,0-0.417,0.102-0.536,0.306v2.24h-0.847v-3.17H52.688z"/>
	<path class="st0" d="M56.133,9.634v0.779h0.542v0.621h-0.542v1.582c0,0.117,0.022,0.201,0.067,0.252s0.131,0.076,0.258,0.076
		c0.094,0,0.177-0.007,0.249-0.021v0.642c-0.166,0.051-0.337,0.076-0.513,0.076c-0.594,0-0.896-0.3-0.908-0.899v-1.708h-0.463
		v-0.621h0.463V9.634H56.133z"/>
	<path class="st0" d="M58.714,12.707c0-0.104-0.052-0.185-0.153-0.245c-0.104-0.059-0.268-0.112-0.494-0.159
		c-0.754-0.158-1.131-0.479-1.131-0.961c0-0.281,0.116-0.516,0.35-0.704s0.539-0.283,0.916-0.283c0.402,0,0.724,0.095,0.965,0.284
		s0.362,0.436,0.362,0.738h-0.847c0-0.121-0.039-0.222-0.117-0.3c-0.078-0.08-0.2-0.119-0.366-0.119
		c-0.143,0-0.253,0.032-0.331,0.097s-0.117,0.146-0.117,0.246c0,0.094,0.044,0.17,0.133,0.228s0.239,0.107,0.45,0.148
		c0.211,0.043,0.389,0.09,0.533,0.143c0.447,0.164,0.671,0.448,0.671,0.853c0,0.289-0.124,0.522-0.372,0.702
		c-0.248,0.178-0.568,0.268-0.961,0.268c-0.266,0-0.502-0.048-0.708-0.143c-0.206-0.094-0.367-0.224-0.484-0.389
		s-0.176-0.344-0.176-0.535h0.803c0.008,0.15,0.063,0.266,0.167,0.346s0.242,0.12,0.416,0.12c0.162,0,0.284-0.03,0.368-0.093
		C58.672,12.888,58.714,12.807,58.714,12.707z"/>
</g>
<g>
	<g>
		<g>
			<path class="st0" d="M14.232,14.633c-0.683,0.333-1.374,0.649-2.06,0.974c-0.685,0.324-1.444,0.603-2.09,1.005
				c-0.003-0.012-0.006-0.024-0.01-0.036c0.026-0.022,0.035-0.062,0.008-0.095c-0.029-0.035-0.059-0.066-0.088-0.096
				c-0.029-0.06-0.057-0.119-0.074-0.182c-0.067-0.244,0.035-0.46,0.005-0.694c-0.006-0.048-0.061-0.082-0.101-0.042
				c-0.009,0.009-0.016,0.02-0.023,0.03c-0.032-0.025-0.08-0.028-0.106,0.017c-0.921-0.581-2.045-0.928-3.072-1.242
				c-1.151-0.352-2.33-0.639-3.508-0.889c-0.003-0.001-0.006,0-0.009,0c-0.027-0.047-0.098-0.064-0.138-0.003
				c-0.135,0.205-0.183,0.471-0.145,0.713c0.035,0.22,0.129,0.549,0.363,0.628c0.033,0.011,0.066-0.012,0.076-0.042
				c0.133,0.041,0.277,0.075,0.423,0.099c0.94,0.355,1.918,0.635,2.868,0.953c1.114,0.373,2.228,0.745,3.341,1.121
				c0.058,0.02,0.11-0.024,0.122-0.077c0.006,0,0.011,0.003,0.018,0.001c0.722-0.216,1.418-0.618,2.103-0.931
				c0.738-0.337,1.471-0.684,2.213-1.013C14.484,14.774,14.367,14.567,14.232,14.633z M7.007,14.629
				c-0.125,0.162-0.215,0.426-0.205,0.667c-0.023-0.082-0.058-0.166-0.064-0.25c-0.011-0.163,0.049-0.326,0.133-0.464
				C6.917,14.596,6.962,14.613,7.007,14.629z M4.363,13.909c0.006,0.001,0.011,0.003,0.017,0.004c0,0.175,0.025,0.348,0.045,0.522
				c0.005,0.04,0.008,0.082,0.011,0.124c-0.013,0.002-0.027,0.002-0.039,0.005C4.298,14.358,4.29,14.131,4.363,13.909z
				 M3.901,13.822c0.004-0.009,0.005-0.017,0.004-0.025c0.018,0.004,0.036,0.009,0.054,0.013c-0.042,0.096-0.071,0.216-0.084,0.34
				C3.851,14.042,3.859,13.924,3.901,13.822z M3.792,13.77c-0.001,0.002-0.003,0.003-0.004,0.005
				c-0.098,0.171-0.105,0.353-0.034,0.537c0.028,0.072,0.079,0.157,0.145,0.221c0.011,0.041,0.024,0.08,0.042,0.116
				c-0.052-0.016-0.104-0.031-0.156-0.046c-0.032-0.136-0.118-0.263-0.161-0.397c-0.052-0.16-0.06-0.325-0.062-0.491
				C3.638,13.732,3.715,13.751,3.792,13.77z M3.551,14.525c0.002,0.003,0.003,0.007,0.005,0.01
				c-0.052-0.015-0.105-0.029-0.157-0.043c-0.013-0.062-0.036-0.122-0.063-0.18C3.389,14.407,3.461,14.491,3.551,14.525z
				 M3.181,14.476c-0.057-0.095-0.123-0.186-0.157-0.299c-0.061-0.2-0.036-0.398,0.032-0.587l0.001,0
				c0.016,0.004,0.031,0.008,0.047,0.011c-0.076,0.235-0.063,0.637,0.101,0.857C3.196,14.463,3.187,14.468,3.181,14.476z
				 M4.155,14.716c-0.005-0.032-0.013-0.063-0.022-0.094c0.002,0,0.003,0,0.005,0c0.027-0.005,0.04-0.041,0.026-0.064
				c-0.023-0.037-0.052-0.068-0.083-0.098c-0.008-0.024-0.015-0.049-0.02-0.074c-0.039-0.18-0.012-0.366,0.02-0.546
				c0.058,0.014,0.117,0.029,0.175,0.043c-0.146,0.262-0.132,0.573,0.026,0.829c0.023,0.037,0.077,0.057,0.116,0.03
				c0.02-0.014,0.038-0.028,0.055-0.042c0.007,0.041,0.015,0.081,0.029,0.119C4.373,14.784,4.264,14.751,4.155,14.716z M4.62,14.866
				c0.035-0.138-0.01-0.291-0.029-0.431c-0.021-0.164-0.043-0.329-0.081-0.49c0.066,0.016,0.132,0.032,0.198,0.048
				c-0.06,0.146-0.085,0.29-0.074,0.452c0.009,0.148,0.06,0.371,0.2,0.448c0.032,0.018,0.074-0.004,0.074-0.043
				c-0.001-0.127-0.08-0.248-0.105-0.374c-0.031-0.149-0.017-0.309,0.018-0.457c0.021,0.005,0.041,0.01,0.062,0.015
				c-0.001,0.004-0.005,0.007-0.005,0.012c-0.01,0.173,0,0.344,0.011,0.518c0.008,0.13-0.001,0.29,0.058,0.411
				C4.837,14.939,4.728,14.902,4.62,14.866z M5.05,15.012c0.065-0.137,0.024-0.299,0.013-0.447
				c-0.013-0.169-0.033-0.336-0.068-0.502c0.03,0.007,0.059,0.014,0.089,0.022c-0.042,0.17-0.044,0.376,0.009,0.56
				C5.11,14.829,5.178,15,5.315,15.104C5.227,15.073,5.139,15.043,5.05,15.012z M6.603,15.55c-0.262-0.087-0.525-0.179-0.788-0.271
				c0.011-0.133-0.014-0.269-0.028-0.401c-0.015-0.149-0.032-0.299-0.05-0.448c0.01,0.003,0.02,0.004,0.029,0.008
				c0.066,0.021,0.103-0.074,0.046-0.109c-0.046-0.025-0.089-0.054-0.13-0.086c-0.051-0.037-0.13,0.012-0.127,0.073
				c0.011,0.188,0.028,0.375,0.045,0.562c0.01,0.111,0.014,0.227,0.034,0.338c-0.086-0.03-0.172-0.06-0.258-0.09
				c0.013-0.005,0.023-0.015,0.029-0.028c0.024,0.002,0.048-0.01,0.058-0.036c0.048-0.127,0.007-0.272-0.009-0.404
				c-0.019-0.159-0.041-0.315-0.073-0.472c-0.003-0.014-0.01-0.023-0.018-0.031c0.258,0.066,0.515,0.134,0.771,0.206
				c-0.008,0.004-0.015,0.01-0.021,0.019c-0.115,0.174-0.155,0.364-0.138,0.571c0.013,0.159,0.071,0.379,0.225,0.455
				c0.031,0.016,0.079-0.003,0.076-0.044c-0.011-0.132-0.085-0.251-0.113-0.381c-0.039-0.184-0.002-0.381,0.062-0.555
				c0.006-0.016,0.004-0.029-0.001-0.041c0.068,0.019,0.137,0.037,0.206,0.057c0.105,0.031,0.209,0.063,0.312,0.096
				c-0.107,0.13-0.159,0.281-0.171,0.455c-0.01,0.149,0.025,0.41,0.18,0.476c0.032,0.014,0.065-0.002,0.068-0.038
				c0.019,0.084,0.053,0.161,0.106,0.225C6.819,15.621,6.711,15.586,6.603,15.55z M7.752,15.932
				c-0.071-0.024-0.142-0.047-0.213-0.071c-0.026-0.103-0.073-0.204-0.095-0.308c-0.037-0.183,0.003-0.371,0.055-0.546
				c0.024-0.08-0.096-0.132-0.135-0.057c-0.106,0.202-0.165,0.573-0.064,0.832c-0.056-0.019-0.111-0.037-0.167-0.056
				c0-0.002,0.001-0.004,0-0.006c-0.053-0.162-0.146-0.293-0.169-0.468c-0.026-0.205,0.041-0.409,0.161-0.573
				c0.002-0.003,0.002-0.005,0.004-0.008c0.22,0.077,0.438,0.156,0.654,0.24C7.634,15.184,7.543,15.666,7.752,15.932z M7.852,15.965
				c0.01-0.01,0.017-0.021,0.018-0.037c0.005-0.147-0.051-0.292-0.058-0.44c-0.008-0.18,0.039-0.359,0.099-0.527
				c0.077,0.03,0.155,0.061,0.232,0.092c-0.243,0.204-0.331,0.756-0.093,0.978C7.984,16.009,7.918,15.987,7.852,15.965z
				 M8.616,15.312c-0.021,0.158-0.033,0.317-0.043,0.476c-0.009,0.142-0.04,0.292,0.02,0.424c-0.153-0.051-0.306-0.102-0.459-0.153
				c0.015-0.01,0.027-0.028,0.028-0.046c0.007-0.145-0.053-0.286-0.05-0.434c0.003-0.177,0.096-0.317,0.156-0.476
				c0.129,0.052,0.258,0.104,0.388,0.157C8.636,15.268,8.62,15.285,8.616,15.312z M8.656,16.233
				c0.006-0.004,0.012-0.008,0.015-0.014c0.066-0.11,0.054-0.237,0.058-0.362c0.005-0.182,0.009-0.362,0.002-0.544
				c0-0.009-0.002-0.016-0.005-0.022c0.103,0.042,0.205,0.084,0.308,0.126c-0.017,0.002-0.034,0.011-0.041,0.031
				c-0.046,0.141-0.074,0.284-0.1,0.429c-0.024,0.131-0.072,0.275-0.032,0.405c0.012,0.038,0.056,0.039,0.078,0.01
				c0.078-0.106,0.079-0.249,0.099-0.375c0.024-0.152,0.047-0.302,0.05-0.456c0-0.011-0.005-0.018-0.009-0.025
				c0.131,0.053,0.261,0.106,0.393,0.159c-0.005,0.007-0.01,0.016-0.009,0.028c0.003,0.059,0.011,0.118,0.02,0.177
				c-0.029,0.118-0.026,0.245-0.03,0.366c-0.003,0.111-0.015,0.221,0.03,0.324c0.013,0.03,0.063,0.028,0.077,0
				c0.022-0.043,0.032-0.088,0.037-0.134c0.015,0.071,0.032,0.141,0.054,0.21C9.32,16.454,8.988,16.343,8.656,16.233z"/>
			<path class="st0" d="M9.349,15.579c-0.193,0.169-0.278,0.704,0.027,0.813c0.022,0.008,0.048-0.013,0.046-0.035
				c-0.005-0.1-0.058-0.19-0.078-0.287c-0.03-0.146,0.024-0.3,0.083-0.431C9.449,15.588,9.393,15.541,9.349,15.579z"/>
			<path class="st0" d="M7.18,14.779c-0.087,0.13-0.131,0.265-0.146,0.42c-0.013,0.131,0,0.321,0.117,0.401
				c0.028,0.019,0.072,0,0.079-0.032c0.024-0.105-0.025-0.216-0.029-0.323c-0.005-0.136,0.039-0.274,0.104-0.392
				C7.352,14.77,7.232,14.702,7.18,14.779z"/>
			<path class="st0" d="M6.409,15.007c-0.039-0.183,0.05-0.342,0.043-0.517c-0.001-0.034-0.043-0.067-0.075-0.043
				c-0.29,0.21-0.185,0.955,0.152,1.076c0.039,0.014,0.074-0.028,0.065-0.065C6.554,15.299,6.444,15.173,6.409,15.007z"/>
		</g>
		<g>
			<path class="st0" d="M14.232,12.974c-0.683,0.333-1.374,0.649-2.06,0.974c-0.685,0.324-1.444,0.603-2.09,1.005
				c-0.003-0.012-0.006-0.024-0.01-0.036c0.026-0.022,0.035-0.062,0.008-0.095c-0.029-0.035-0.059-0.066-0.088-0.096
				c-0.029-0.06-0.057-0.119-0.074-0.182c-0.067-0.244,0.035-0.46,0.005-0.694c-0.006-0.048-0.061-0.082-0.101-0.042
				c-0.009,0.009-0.016,0.02-0.023,0.03c-0.032-0.025-0.08-0.028-0.106,0.017c-0.921-0.581-2.045-0.928-3.072-1.242
				c-1.151-0.352-2.33-0.639-3.508-0.889c-0.003-0.001-0.006,0-0.009,0c-0.027-0.047-0.098-0.064-0.138-0.003
				c-0.135,0.205-0.183,0.471-0.145,0.713c0.035,0.22,0.129,0.549,0.363,0.628c0.033,0.011,0.066-0.012,0.076-0.042
				c0.133,0.041,0.277,0.075,0.423,0.099c0.94,0.355,1.918,0.635,2.868,0.953c1.114,0.373,2.228,0.745,3.341,1.121
				c0.058,0.02,0.11-0.024,0.122-0.077c0.006,0,0.011,0.003,0.018,0.001c0.722-0.216,1.418-0.618,2.103-0.931
				c0.738-0.337,1.471-0.684,2.213-1.013C14.484,13.114,14.367,12.908,14.232,12.974z M7.007,12.969
				c-0.125,0.162-0.215,0.426-0.205,0.667c-0.023-0.082-0.058-0.166-0.064-0.25c-0.011-0.163,0.049-0.326,0.133-0.464
				C6.917,12.937,6.962,12.954,7.007,12.969z M4.363,12.25c0.006,0.001,0.011,0.003,0.017,0.004c0,0.175,0.025,0.348,0.045,0.522
				c0.005,0.04,0.008,0.082,0.011,0.124c-0.013,0.002-0.027,0.002-0.039,0.005C4.298,12.698,4.29,12.471,4.363,12.25z M3.901,12.163
				c0.004-0.009,0.005-0.017,0.004-0.025c0.018,0.004,0.036,0.009,0.054,0.013c-0.042,0.096-0.071,0.216-0.084,0.34
				C3.851,12.382,3.859,12.264,3.901,12.163z M3.792,12.111c-0.001,0.002-0.003,0.003-0.004,0.005
				c-0.098,0.171-0.105,0.353-0.034,0.537c0.028,0.072,0.079,0.157,0.145,0.221c0.011,0.041,0.024,0.08,0.042,0.116
				c-0.052-0.016-0.104-0.031-0.156-0.046c-0.032-0.136-0.118-0.263-0.161-0.397c-0.052-0.16-0.06-0.325-0.062-0.491
				C3.638,12.073,3.715,12.092,3.792,12.111z M3.551,12.866c0.002,0.003,0.003,0.007,0.005,0.01
				c-0.052-0.015-0.105-0.029-0.157-0.043c-0.013-0.062-0.036-0.122-0.063-0.18C3.389,12.747,3.461,12.832,3.551,12.866z
				 M3.181,12.816c-0.057-0.095-0.123-0.186-0.157-0.299c-0.061-0.2-0.036-0.398,0.032-0.587c0,0,0,0,0.001,0
				c0.016,0.004,0.031,0.008,0.047,0.011c-0.076,0.235-0.063,0.637,0.101,0.857C3.196,12.804,3.187,12.809,3.181,12.816z
				 M4.155,13.057c-0.005-0.032-0.013-0.063-0.022-0.094c0.002,0,0.003,0,0.005,0c0.027-0.005,0.04-0.041,0.026-0.064
				c-0.023-0.037-0.052-0.068-0.083-0.098c-0.008-0.024-0.015-0.049-0.02-0.074c-0.039-0.18-0.012-0.366,0.02-0.546
				c0.058,0.014,0.117,0.029,0.175,0.043c-0.146,0.262-0.132,0.573,0.026,0.829c0.023,0.037,0.077,0.057,0.116,0.03
				c0.02-0.014,0.038-0.028,0.055-0.042c0.007,0.041,0.015,0.081,0.029,0.119C4.373,13.125,4.264,13.091,4.155,13.057z M4.62,13.206
				c0.035-0.138-0.01-0.291-0.029-0.431c-0.021-0.164-0.043-0.329-0.081-0.49c0.066,0.016,0.132,0.032,0.198,0.048
				c-0.06,0.146-0.085,0.29-0.074,0.452c0.009,0.148,0.06,0.371,0.2,0.448c0.032,0.018,0.074-0.004,0.074-0.043
				c-0.001-0.127-0.08-0.248-0.105-0.374c-0.031-0.149-0.017-0.309,0.018-0.457c0.021,0.005,0.041,0.01,0.062,0.015
				c-0.001,0.004-0.005,0.007-0.005,0.012c-0.01,0.173,0,0.344,0.011,0.518c0.008,0.13-0.001,0.29,0.058,0.411
				C4.837,13.279,4.728,13.243,4.62,13.206z M5.05,13.353c0.065-0.137,0.024-0.299,0.013-0.447
				c-0.013-0.169-0.033-0.336-0.068-0.502c0.03,0.007,0.059,0.014,0.089,0.022c-0.042,0.17-0.044,0.376,0.009,0.56
				c0.015,0.184,0.083,0.355,0.221,0.459C5.227,13.414,5.139,13.383,5.05,13.353z M6.603,13.89
				c-0.262-0.087-0.525-0.179-0.788-0.271c0.011-0.133-0.014-0.269-0.028-0.401c-0.015-0.149-0.032-0.299-0.05-0.448
				c0.01,0.003,0.02,0.004,0.029,0.008c0.066,0.021,0.103-0.074,0.046-0.109c-0.046-0.025-0.089-0.054-0.13-0.086
				c-0.051-0.037-0.13,0.012-0.127,0.073c0.011,0.188,0.028,0.375,0.045,0.562c0.01,0.111,0.014,0.227,0.034,0.338
				c-0.086-0.03-0.172-0.06-0.258-0.09c0.013-0.005,0.023-0.015,0.029-0.028c0.024,0.002,0.048-0.01,0.058-0.036
				c0.048-0.127,0.007-0.272-0.009-0.404c-0.019-0.159-0.041-0.315-0.073-0.472c-0.003-0.014-0.01-0.023-0.018-0.031
				c0.258,0.066,0.515,0.134,0.771,0.206c-0.008,0.004-0.015,0.01-0.021,0.019c-0.115,0.174-0.155,0.364-0.138,0.571
				c0.013,0.159,0.071,0.379,0.225,0.456c0.031,0.016,0.079-0.003,0.076-0.044c-0.011-0.132-0.085-0.251-0.113-0.381
				c-0.039-0.184-0.002-0.381,0.062-0.555c0.006-0.016,0.004-0.029-0.001-0.041c0.068,0.019,0.137,0.037,0.206,0.057
				c0.105,0.031,0.209,0.063,0.312,0.097c-0.107,0.13-0.159,0.281-0.171,0.455c-0.01,0.149,0.025,0.41,0.18,0.476
				c0.032,0.014,0.065-0.002,0.068-0.038c0.019,0.084,0.053,0.161,0.106,0.225C6.819,13.962,6.711,13.926,6.603,13.89z
				 M7.752,14.272c-0.071-0.024-0.142-0.047-0.213-0.071c-0.026-0.103-0.073-0.204-0.095-0.308
				c-0.037-0.183,0.003-0.371,0.055-0.546c0.024-0.08-0.096-0.132-0.135-0.057c-0.106,0.202-0.165,0.573-0.064,0.832
				c-0.056-0.019-0.111-0.037-0.167-0.056c0-0.002,0.001-0.004,0-0.006c-0.053-0.162-0.146-0.293-0.169-0.468
				c-0.026-0.205,0.041-0.409,0.161-0.573c0.002-0.003,0.002-0.005,0.004-0.008c0.22,0.077,0.438,0.156,0.654,0.24
				C7.634,13.524,7.543,14.006,7.752,14.272z M7.852,14.306c0.01-0.01,0.017-0.021,0.018-0.037c0.005-0.147-0.051-0.292-0.058-0.44
				c-0.008-0.18,0.039-0.359,0.099-0.527c0.077,0.03,0.155,0.061,0.232,0.092c-0.243,0.204-0.331,0.756-0.093,0.978
				C7.984,14.35,7.918,14.328,7.852,14.306z M8.616,13.653c-0.021,0.158-0.033,0.317-0.043,0.476
				c-0.009,0.142-0.04,0.292,0.02,0.424c-0.153-0.051-0.306-0.102-0.459-0.153c0.015-0.01,0.027-0.028,0.028-0.046
				c0.007-0.145-0.053-0.286-0.05-0.434c0.003-0.177,0.096-0.317,0.156-0.476c0.129,0.052,0.258,0.104,0.388,0.157
				C8.636,13.609,8.62,13.626,8.616,13.653z M8.656,14.573c0.006-0.004,0.012-0.008,0.015-0.014c0.066-0.11,0.054-0.237,0.058-0.362
				c0.005-0.182,0.009-0.362,0.002-0.544c0-0.009-0.002-0.016-0.005-0.022c0.103,0.042,0.205,0.084,0.308,0.126
				c-0.017,0.002-0.034,0.011-0.041,0.031c-0.046,0.141-0.074,0.284-0.1,0.429c-0.024,0.131-0.072,0.275-0.032,0.405
				c0.012,0.038,0.056,0.039,0.078,0.01c0.078-0.106,0.079-0.249,0.099-0.375c0.024-0.152,0.047-0.302,0.05-0.456
				c0-0.011-0.005-0.018-0.009-0.025c0.131,0.053,0.261,0.106,0.393,0.159c-0.005,0.007-0.01,0.016-0.009,0.028
				c0.003,0.059,0.011,0.118,0.02,0.177c-0.029,0.118-0.026,0.245-0.03,0.366c-0.003,0.111-0.015,0.221,0.03,0.324
				c0.013,0.03,0.063,0.028,0.077,0c0.022-0.043,0.032-0.088,0.037-0.134c0.015,0.071,0.032,0.141,0.054,0.21
				C9.32,14.794,8.988,14.684,8.656,14.573z"/>
			<path class="st0" d="M9.349,13.92c-0.193,0.169-0.278,0.704,0.027,0.813c0.022,0.008,0.048-0.013,0.046-0.035
				c-0.005-0.1-0.058-0.19-0.078-0.287c-0.03-0.146,0.024-0.3,0.083-0.431C9.449,13.929,9.393,13.881,9.349,13.92z"/>
			<path class="st0" d="M7.18,13.12c-0.087,0.13-0.131,0.265-0.146,0.42c-0.013,0.131,0,0.321,0.117,0.401
				c0.028,0.019,0.072,0,0.079-0.032c0.024-0.105-0.025-0.216-0.029-0.323c-0.005-0.136,0.039-0.274,0.104-0.392
				C7.352,13.11,7.232,13.042,7.18,13.12z"/>
			<path class="st0" d="M6.409,13.347c-0.039-0.183,0.05-0.342,0.043-0.517c-0.001-0.034-0.043-0.067-0.075-0.043
				c-0.29,0.21-0.185,0.955,0.152,1.076c0.039,0.014,0.074-0.028,0.065-0.065C6.554,13.64,6.444,13.513,6.409,13.347z"/>
		</g>
		<g>
			<path class="st0" d="M14.232,11.216c-0.683,0.333-1.374,0.649-2.06,0.974c-0.685,0.324-1.444,0.603-2.09,1.005
				c-0.003-0.012-0.006-0.024-0.01-0.036c0.026-0.022,0.035-0.062,0.008-0.095c-0.029-0.035-0.059-0.066-0.088-0.096
				c-0.029-0.06-0.057-0.119-0.074-0.182c-0.054-0.196,0.001-0.375,0.009-0.56c0.525-0.163,1.033-0.468,1.527-0.701
				c0.624-0.294,1.261-0.571,1.871-0.893c0.018-0.01,0.029-0.025,0.035-0.041c0.16-0.048,0.318-0.106,0.475-0.156
				c0.011-0.003,0.019-0.009,0.026-0.015c0.04-0.006,0.05-0.05,0.032-0.082c-0.007-0.048-0.046-0.091-0.105-0.071
				c-0.009,0.003-0.019,0.006-0.028,0.009c-0.259-0.09-0.532-0.143-0.798-0.207c-0.262-0.063-0.535-0.165-0.806-0.148
				c-0.06,0.004-0.09,0.085-0.032,0.118c0.235,0.13,0.517,0.157,0.778,0.211c-0.037,0.065-0.065,0.134-0.095,0.203
				c-0.035,0.082-0.082,0.164-0.075,0.252c-0.022,0.01-0.044,0.02-0.066,0.031c0.01-0.023,0.02-0.046,0.031-0.067
				c0.054-0.109,0.105-0.219,0.148-0.333c0.031-0.082-0.093-0.126-0.136-0.057c-0.061,0.097-0.115,0.198-0.167,0.3
				c-0.042,0.083-0.105,0.168-0.099,0.262c-0.274,0.131-0.547,0.263-0.82,0.393c-0.46,0.218-0.976,0.413-1.437,0.665
				c0.04-0.108,0.072-0.219,0.11-0.325c0.089-0.255,0.185-0.51,0.246-0.773c0.014-0.061-0.075-0.104-0.104-0.044
				c-0.105,0.219-0.184,0.45-0.265,0.678c-0.068,0.191-0.155,0.385-0.194,0.585c-0.023,0.014-0.046,0.027-0.069,0.041
				c-0.016-0.022-0.043-0.033-0.068-0.023c0.001-0.003,0.002-0.007,0.003-0.01c0.008-0.003,0.016-0.005,0.023-0.014
				c0.105-0.128,0.128-0.301,0.174-0.458c0.058-0.198,0.133-0.404,0.146-0.611c0.002-0.039-0.033-0.058-0.066-0.055
				c0.003-0.013,0.006-0.027,0.009-0.041c0.022-0.093-0.118-0.132-0.144-0.04c-0.11,0.406-0.281,0.845-0.327,1.27
				c-0.036-0.022-0.073-0.043-0.11-0.064c0.08-0.152,0.1-0.33,0.134-0.498c0.041-0.201,0.107-0.411,0.102-0.617
				c-0.001-0.051-0.077-0.079-0.102-0.028c-0.077,0.161-0.102,0.342-0.141,0.516c-0.041,0.18-0.107,0.373-0.106,0.56
				c-0.016-0.009-0.03-0.018-0.046-0.027c0.063-0.145,0.083-0.307,0.113-0.462c0.041-0.212,0.094-0.425,0.102-0.641
				c0.002-0.061-0.081-0.064-0.1-0.014C9.431,11,9.397,11.212,9.352,11.417c-0.031,0.143-0.075,0.291-0.081,0.439
				c-0.814-0.431-1.738-0.721-2.6-0.985c0.012-0.012,0.02-0.026,0.021-0.046c0.005-0.109,0.004-0.224-0.013-0.332
				c-0.009-0.055-0.103-0.055-0.111,0c-0.017,0.108-0.018,0.223-0.013,0.332c0,0.005,0.003,0.008,0.004,0.013
				c-0.128-0.038-0.256-0.075-0.384-0.112c0.006-0.04,0.012-0.08,0.018-0.121c0.015-0.1-0.139-0.143-0.153-0.042
				c-0.005,0.04-0.011,0.079-0.016,0.119c-0.241-0.068-0.482-0.134-0.724-0.197c0.022-0.041,0.041-0.083,0.057-0.127
				c0.001,0.035,0.008,0.067,0.028,0.095c0.014,0.019,0.039,0.03,0.062,0.016c0.084-0.051,0.081-0.149,0.098-0.239
				c0.025-0.129,0.05-0.247,0.034-0.377C5.576,9.812,5.522,9.788,5.499,9.83c0,0.001-0.001,0.002-0.001,0.002
				c0.052-0.205,0.103-0.41,0.133-0.619C5.636,9.182,5.613,9.165,5.59,9.166C5.6,9.133,5.609,9.101,5.619,9.068
				c0.01-0.033-0.007-0.056-0.03-0.067c0.012-0.014,0.022-0.029,0.03-0.047c0.009-0.019,0.003-0.046-0.021-0.051
				c-0.12-0.027-0.216,0.054-0.321,0.108C5.228,9.036,5.18,9.065,5.132,9.093c-0.026-0.036-0.074-0.06-0.125-0.036
				c-0.325,0.151-0.65,0.302-0.975,0.453C3.734,9.647,3.383,9.761,3.127,9.97C3.122,9.969,3.118,9.968,3.114,9.967
				c-0.003-0.001-0.006,0-0.009,0C3.077,9.92,3.007,9.903,2.967,9.964c-0.135,0.205-0.183,0.471-0.145,0.713
				c0.035,0.22,0.129,0.549,0.363,0.628c0.033,0.011,0.066-0.012,0.076-0.042c0.133,0.041,0.277,0.075,0.423,0.099
				c0.94,0.355,1.918,0.635,2.868,0.953c1.114,0.373,2.228,0.745,3.341,1.121c0.058,0.02,0.11-0.024,0.122-0.077
				c0.006,0,0.011,0.003,0.018,0.001c0.722-0.216,1.418-0.618,2.103-0.931c0.738-0.337,1.471-0.684,2.213-1.013
				C14.484,11.356,14.367,11.15,14.232,11.216z M12.965,10.519c0.028-0.08,0.056-0.158,0.072-0.24
				c0.144,0.031,0.288,0.064,0.433,0.091c-0.144,0.046-0.286,0.096-0.421,0.16c-0.022,0.01-0.032,0.027-0.034,0.044
				c-0.028,0.012-0.055,0.026-0.082,0.038C12.944,10.581,12.954,10.55,12.965,10.519z M3.181,11.058
				c-0.057-0.095-0.123-0.186-0.157-0.299c-0.061-0.2-0.036-0.398,0.032-0.587l0.001,0c0.016,0.004,0.031,0.008,0.047,0.011
				c-0.076,0.235-0.063,0.637,0.101,0.857C3.196,11.046,3.187,11.051,3.181,11.058z M7.007,11.211
				c-0.125,0.162-0.215,0.426-0.205,0.667c-0.023-0.082-0.058-0.166-0.064-0.25c-0.011-0.163,0.049-0.326,0.133-0.464
				C6.917,11.179,6.962,11.195,7.007,11.211z M4.532,9.487c0.091-0.042,0.181-0.084,0.272-0.126c0.011,0.005,0.025,0.007,0.039,0
				c0.149-0.069,0.304-0.127,0.453-0.196c0.058-0.026,0.128-0.051,0.189-0.084C5.409,9.283,5.332,9.483,5.262,9.687
				c-0.075,0.22-0.183,0.446-0.198,0.679c-0.004,0.06,0.076,0.072,0.105,0.028c0.024-0.037,0.044-0.076,0.063-0.117
				C5.22,10.338,5.21,10.399,5.209,10.46c-0.348-0.09-0.697-0.175-1.047-0.257c0.043-0.063,0.077-0.133,0.114-0.201
				c0.089-0.164,0.179-0.327,0.251-0.499C4.531,9.498,4.531,9.492,4.532,9.487z M4.436,11.142c-0.013,0.002-0.027,0.002-0.039,0.005
				c-0.099-0.207-0.107-0.434-0.034-0.656c0.006,0.001,0.011,0.003,0.017,0.004c0,0.175,0.025,0.348,0.045,0.522
				C4.43,11.057,4.433,11.099,4.436,11.142z M3.754,9.853C3.754,9.854,3.753,9.855,3.752,9.856C3.729,9.898,3.693,9.97,3.751,10.004
				c0.011,0.006,0.021,0.008,0.03,0.008c-0.025,0.029-0.048,0.059-0.065,0.09c-0.116-0.026-0.231-0.054-0.347-0.079
				C3.5,9.977,3.628,9.915,3.754,9.853z M3.399,11.075c-0.013-0.062-0.036-0.122-0.063-0.18c0.053,0.094,0.125,0.179,0.215,0.213
				c0.002,0.003,0.003,0.007,0.005,0.01C3.504,11.103,3.451,11.089,3.399,11.075z M3.784,11.184
				c-0.032-0.136-0.118-0.263-0.161-0.397c-0.052-0.16-0.06-0.325-0.062-0.491c0.077,0.019,0.154,0.038,0.231,0.056
				c-0.001,0.002-0.003,0.003-0.004,0.005c-0.098,0.171-0.105,0.353-0.034,0.537c0.028,0.072,0.079,0.157,0.145,0.221
				c0.011,0.041,0.024,0.08,0.042,0.116C3.889,11.215,3.836,11.2,3.784,11.184z M3.875,10.733c-0.024-0.109-0.015-0.227,0.026-0.329
				c0.004-0.009,0.005-0.017,0.004-0.025c0.018,0.004,0.036,0.009,0.054,0.013C3.917,10.489,3.888,10.609,3.875,10.733z
				 M3.881,10.139c0.038-0.044,0.071-0.093,0.105-0.136C4.08,9.886,4.171,9.767,4.263,9.649C4.274,9.635,4.277,9.62,4.276,9.606
				c0.021-0.01,0.042-0.019,0.063-0.029C4.28,9.672,4.224,9.769,4.169,9.867c-0.054,0.097-0.121,0.195-0.157,0.302
				C3.968,10.159,3.925,10.149,3.881,10.139z M4.155,11.299c-0.005-0.032-0.013-0.063-0.022-0.094c0.002,0,0.003,0,0.005,0
				c0.027-0.005,0.04-0.041,0.026-0.064c-0.023-0.037-0.052-0.068-0.083-0.098c-0.008-0.024-0.015-0.049-0.02-0.074
				c-0.039-0.18-0.012-0.366,0.02-0.546c0.058,0.014,0.117,0.029,0.175,0.043c-0.146,0.262-0.132,0.573,0.026,0.829
				c0.023,0.037,0.077,0.057,0.116,0.03c0.02-0.014,0.038-0.028,0.055-0.042c0.007,0.041,0.015,0.081,0.029,0.119
				C4.373,11.366,4.264,11.333,4.155,11.299z M4.62,11.448c0.035-0.138-0.01-0.291-0.029-0.431c-0.021-0.164-0.043-0.329-0.081-0.49
				c0.066,0.016,0.132,0.032,0.198,0.048c-0.06,0.146-0.085,0.29-0.074,0.452c0.009,0.148,0.06,0.371,0.2,0.448
				c0.032,0.018,0.074-0.004,0.074-0.043c-0.001-0.127-0.08-0.248-0.105-0.374c-0.031-0.149-0.017-0.309,0.018-0.457
				c0.021,0.005,0.041,0.01,0.062,0.015c-0.001,0.004-0.005,0.007-0.005,0.012c-0.01,0.173,0,0.344,0.011,0.518
				c0.008,0.13-0.001,0.29,0.058,0.411C4.837,11.521,4.728,11.485,4.62,11.448z M5.05,11.595c0.065-0.137,0.024-0.299,0.013-0.447
				c-0.013-0.169-0.033-0.336-0.068-0.502c0.03,0.007,0.059,0.014,0.089,0.022c-0.042,0.17-0.044,0.376,0.009,0.56
				c0.015,0.184,0.083,0.355,0.221,0.459C5.227,11.655,5.139,11.625,5.05,11.595z M6.603,12.132
				c-0.262-0.087-0.525-0.179-0.788-0.271c0.011-0.133-0.014-0.269-0.028-0.401c-0.015-0.149-0.032-0.299-0.05-0.448
				c0.01,0.003,0.02,0.004,0.029,0.008c0.066,0.021,0.103-0.074,0.046-0.109c-0.046-0.025-0.089-0.054-0.13-0.086
				c-0.051-0.037-0.13,0.012-0.127,0.073c0.011,0.188,0.028,0.375,0.045,0.562c0.01,0.111,0.014,0.227,0.034,0.338
				c-0.086-0.03-0.172-0.06-0.258-0.09c0.013-0.005,0.023-0.015,0.029-0.028c0.024,0.002,0.048-0.01,0.058-0.036
				c0.048-0.127,0.007-0.272-0.009-0.404c-0.019-0.159-0.041-0.315-0.073-0.472c-0.003-0.014-0.01-0.023-0.018-0.031
				c0.258,0.066,0.515,0.134,0.771,0.206c-0.008,0.004-0.015,0.01-0.021,0.019c-0.115,0.174-0.155,0.364-0.138,0.571
				c0.013,0.159,0.071,0.379,0.225,0.456c0.031,0.016,0.079-0.003,0.076-0.044c-0.011-0.132-0.085-0.251-0.113-0.381
				c-0.039-0.184-0.002-0.381,0.062-0.555c0.006-0.016,0.004-0.029-0.001-0.041c0.068,0.019,0.137,0.037,0.206,0.057
				c0.105,0.031,0.209,0.063,0.312,0.097c-0.107,0.13-0.159,0.281-0.171,0.455c-0.01,0.149,0.025,0.41,0.18,0.476
				c0.032,0.014,0.065-0.002,0.068-0.038c0.019,0.084,0.053,0.161,0.106,0.225C6.819,12.204,6.711,12.168,6.603,12.132z
				 M7.752,12.514c-0.071-0.024-0.142-0.047-0.213-0.071c-0.026-0.103-0.073-0.204-0.095-0.308
				c-0.037-0.183,0.003-0.371,0.055-0.546c0.024-0.08-0.096-0.132-0.135-0.057c-0.106,0.202-0.165,0.573-0.064,0.832
				c-0.056-0.019-0.111-0.037-0.167-0.056c0-0.002,0.001-0.004,0-0.006c-0.053-0.162-0.146-0.293-0.169-0.468
				c-0.026-0.205,0.041-0.409,0.161-0.573c0.002-0.003,0.002-0.005,0.004-0.008c0.22,0.077,0.438,0.156,0.654,0.24
				C7.634,11.766,7.543,12.248,7.752,12.514z M7.852,12.548c0.01-0.01,0.017-0.021,0.018-0.037c0.005-0.147-0.051-0.292-0.058-0.44
				c-0.008-0.18,0.039-0.359,0.099-0.527c0.077,0.03,0.155,0.061,0.232,0.092c-0.243,0.204-0.331,0.756-0.093,0.978
				C7.984,12.592,7.918,12.57,7.852,12.548z M8.616,11.894c-0.021,0.158-0.033,0.317-0.043,0.476
				c-0.009,0.142-0.04,0.292,0.02,0.424c-0.153-0.051-0.306-0.102-0.459-0.153c0.015-0.01,0.027-0.028,0.028-0.046
				c0.007-0.145-0.053-0.286-0.05-0.434c0.003-0.177,0.096-0.317,0.156-0.476c0.129,0.052,0.258,0.104,0.388,0.157
				C8.636,11.85,8.62,11.868,8.616,11.894z M8.656,12.815c0.006-0.004,0.012-0.008,0.015-0.014c0.066-0.11,0.054-0.237,0.058-0.362
				c0.005-0.182,0.009-0.362,0.002-0.544c0-0.009-0.002-0.016-0.005-0.022c0.103,0.042,0.205,0.084,0.308,0.126
				c-0.017,0.002-0.034,0.011-0.041,0.031c-0.046,0.141-0.074,0.284-0.1,0.429c-0.024,0.131-0.072,0.275-0.032,0.405
				c0.012,0.038,0.056,0.039,0.078,0.01c0.078-0.106,0.079-0.249,0.099-0.376c0.024-0.152,0.047-0.302,0.05-0.456
				c0-0.011-0.005-0.018-0.009-0.025c0.131,0.053,0.261,0.106,0.393,0.159c-0.005,0.007-0.01,0.016-0.009,0.028
				c0.003,0.059,0.011,0.118,0.02,0.177c-0.029,0.118-0.026,0.245-0.03,0.366c-0.003,0.111-0.015,0.221,0.03,0.324
				c0.013,0.03,0.063,0.028,0.077,0c0.022-0.043,0.032-0.088,0.037-0.134c0.015,0.071,0.032,0.141,0.054,0.21
				C9.32,13.036,8.988,12.925,8.656,12.815z"/>
			<path class="st0" d="M9.349,12.162c-0.193,0.169-0.278,0.704,0.027,0.813c0.022,0.008,0.048-0.013,0.046-0.035
				c-0.005-0.1-0.058-0.19-0.078-0.287c-0.03-0.146,0.024-0.3,0.083-0.431C9.449,12.171,9.393,12.123,9.349,12.162z"/>
			<path class="st0" d="M7.18,11.362c-0.087,0.13-0.131,0.265-0.146,0.42c-0.013,0.131,0,0.321,0.117,0.401
				c0.028,0.019,0.072,0,0.079-0.032c0.024-0.105-0.025-0.216-0.029-0.323c-0.005-0.136,0.039-0.274,0.104-0.392
				C7.352,11.352,7.232,11.284,7.18,11.362z"/>
			<path class="st0" d="M6.409,11.589c-0.039-0.183,0.05-0.342,0.043-0.517c-0.001-0.034-0.043-0.067-0.075-0.043
				c-0.29,0.21-0.185,0.955,0.152,1.076c0.039,0.014,0.074-0.028,0.065-0.065C6.554,11.882,6.444,11.755,6.409,11.589z"/>
		</g>
		<path class="st0" d="M15.929,6.928c-1.912-0.421-3.823-0.901-5.749-1.252c-0.014-0.003-0.027-0.001-0.039,0.002
			c0.017-0.061-0.012-0.133-0.091-0.123L6.438,6.017C5.836,6.094,5.234,6.171,4.632,6.25C4.096,6.32,3.534,6.356,3,6.467
			C2.98,6.456,2.96,6.445,2.94,6.434c-0.062-0.033-0.117,0.02-0.116,0.073C2.819,6.508,2.814,6.509,2.809,6.51
			C2.738,6.528,2.754,6.638,2.827,6.638c0.047,0,0.094-0.003,0.14-0.004c0.742,0.448,1.502,0.87,2.253,1.302
			c0.394,0.227,0.788,0.453,1.182,0.679C6.724,8.8,7.052,9.038,7.403,9.166c0.006,0.032,0.029,0.059,0.071,0.053
			c0.656-0.088,1.31-0.284,1.954-0.436c0.692-0.163,1.384-0.325,2.077-0.488c0.132-0.031,0.263-0.062,0.394-0.093
			c-0.003,0.074-0.007,0.147-0.009,0.221c0,0.019-0.001,0.038-0.001,0.057c-0.092,0.089-0.188,0.174-0.292,0.246
			c-0.158,0.109-0.341,0.172-0.499,0.279c-0.036,0.024-0.024,0.084,0.023,0.084c0.288-0.002,0.569-0.19,0.777-0.413
			c0.006,0.031,0.013,0.061,0.026,0.091c0.002,0.051,0.004,0.102,0.007,0.153c-0.001,0.025-0.001,0.05-0.001,0.074
			c-0.005,0-0.009,0-0.014,0.002c-0.284,0.096-0.61,0.177-0.861,0.348c-0.052,0.035-0.018,0.106,0.041,0.097
			c0.287-0.044,0.567-0.194,0.831-0.315c0,0.047,0,0.094,0,0.141c-0.236,0.08-0.509,0.149-0.681,0.325
			c-0.023,0.024-0.007,0.066,0.027,0.066c0.228-0.004,0.447-0.133,0.653-0.245c-0.001,0.064-0.002,0.127-0.002,0.191
			c-0.015-0.005-0.031-0.005-0.048,0.003c-0.132,0.058-0.264,0.115-0.394,0.174c-0.128,0.059-0.285,0.116-0.378,0.224
			c-0.012,0.013-0.014,0.032-0.009,0.048c-0.009,0.02-0.005,0.047,0.022,0.051c0.229,0.04,0.497-0.077,0.717-0.134
			c0.082-0.021,0.047-0.144-0.035-0.126c-0.046,0.01-0.096,0.018-0.147,0.026c0.091-0.047,0.181-0.095,0.271-0.143
			c0.001,0.107,0.005,0.215,0.015,0.322c-0.399,0.04-0.822,0.245-1.211,0.331c-0.56,0.123-1.132,0.179-1.704,0.19
			c-1.04,0.021-2.033-0.201-3.028-0.467c-0.019-0.019-0.039-0.038-0.055-0.06C5.854,9.926,5.821,9.792,5.808,9.654
			C5.847,9.48,5.83,9.296,5.829,9.118C5.828,8.877,5.831,8.635,5.822,8.394c-0.004-0.105-0.159-0.105-0.163,0
			c-0.005,0.125-0.006,0.25-0.006,0.375C5.643,8.762,5.633,8.756,5.62,8.757C5.492,8.762,5.382,8.906,5.289,8.985
			C5.221,9.042,5.142,9.1,5.08,9.168c-0.003-0.053-0.077-0.087-0.11-0.03c-0.098,0.176-0.196,0.352-0.292,0.53
			C4.651,9.719,4.621,9.77,4.592,9.822c0.082-0.17,0.16-0.342,0.238-0.515c0.028-0.062-0.057-0.115-0.092-0.054
			c-0.095,0.167-0.19,0.334-0.28,0.504c-0.081,0.152-0.197,0.314-0.209,0.489c-0.003,0.043,0.05,0.055,0.077,0.032
			c0.065-0.055,0.113-0.13,0.154-0.21c-0.011,0.036-0.02,0.072-0.025,0.109c-0.005,0.043,0.052,0.056,0.078,0.032
			C4.664,10.09,4.73,9.901,4.808,9.744c0.069-0.138,0.136-0.276,0.202-0.415c0.008,0.006,0.019,0.01,0.029,0.01
			C4.993,9.432,4.945,9.524,4.901,9.618C4.85,9.727,4.764,9.85,4.777,9.974c0.003,0.034,0.04,0.065,0.073,0.042
			c0.105-0.071,0.14-0.202,0.192-0.315c0.065-0.14,0.124-0.282,0.186-0.424c0.005-0.012,0.006-0.024,0.005-0.036
			c0.02-0.016,0.039-0.032,0.057-0.048C5.218,9.361,5.144,9.529,5.075,9.698c-0.083,0.203-0.208,0.416-0.215,0.638
			c-0.001,0.039,0.051,0.062,0.078,0.032c0.133-0.149,0.186-0.355,0.258-0.539C5.287,9.594,5.372,9.356,5.46,9.12
			c0.009-0.023,0-0.043-0.014-0.058C5.477,9.036,5.509,9.01,5.54,8.984C5.584,8.947,5.626,8.92,5.652,8.878c0,0.08,0,0.161,0,0.241
			C5.651,9.283,5.636,9.453,5.665,9.615C5.655,9.716,5.669,9.814,5.7,9.908C5.686,9.916,5.674,9.93,5.67,9.95
			c-0.024,0.102-0.048,0.205-0.072,0.307c-0.019,0.08-0.048,0.157-0.009,0.234c0.01,0.019,0.041,0.029,0.058,0.015
			c0.032-0.025,0.051-0.055,0.063-0.088c-0.007,0.048-0.014,0.097-0.02,0.146c-0.009,0.079-0.045,0.179,0.019,0.241
			c0.012,0.012,0.033,0.016,0.048,0.006c0.063-0.041,0.058-0.106,0.063-0.176c0.008-0.106,0.016-0.212,0.02-0.319
			c0.002-0.048-0.058-0.069-0.091-0.049c0.013-0.057,0.026-0.113,0.038-0.17c0.005,0.008,0.009,0.017,0.014,0.025
			c0.086,0.133,0.241,0.292,0.412,0.256c0.019-0.004,0.029-0.03,0.019-0.046c-0.007-0.011-0.017-0.02-0.025-0.03
			c0.262,0.102,0.532,0.182,0.806,0.247c-0.004,0.006-0.007,0.013-0.009,0.022c-0.016,0.079-0.034,0.157-0.048,0.236
			C6.938,10.9,7.079,10.94,7.097,10.846c0.016-0.079,0.028-0.159,0.042-0.238c0.002-0.011,0.001-0.021-0.001-0.03
			c0.047,0.01,0.095,0.017,0.142,0.026c-0.019,0.055-0.039,0.11-0.058,0.164C7.199,10.833,7.168,10.89,7.2,10.954
			c0.011,0.023,0.042,0.027,0.062,0.016c0.055-0.028,0.063-0.081,0.082-0.136c0.023-0.068,0.043-0.137,0.064-0.206
			c0.064,0.011,0.128,0.02,0.192,0.029c-0.011,0.005-0.021,0.014-0.024,0.03c-0.022,0.098-0.043,0.193-0.055,0.293
			c-0.003,0.022,0.015,0.049,0.034,0.059c0.019,0.01,0.031,0.012,0.052,0.007c0.032-0.007,0.046-0.036,0.05-0.066
			c0.012-0.094,0.014-0.185,0.017-0.28c0-0.014-0.005-0.026-0.014-0.034c0.077,0.011,0.155,0.02,0.233,0.03
			c-0.036,0.12-0.078,0.258-0.03,0.366c0.009,0.02,0.038,0.021,0.052,0.007c0.058-0.058,0.062-0.122,0.076-0.201
			c0.009-0.052,0.015-0.105,0.02-0.157c0.218,0.024,0.436,0.037,0.654,0.045c-0.034,0.11-0.059,0.222-0.085,0.335
			c-0.026,0.116-0.057,0.231-0.04,0.35c0.006,0.038,0.058,0.036,0.076,0.01c0.063-0.096,0.081-0.21,0.105-0.321
			c0.026-0.123,0.053-0.246,0.069-0.37c0.077,0.002,0.155,0.006,0.232,0.006c0.055,0,0.11-0.003,0.165-0.005
			c-0.07,0.176-0.112,0.364-0.161,0.547c-0.045,0.169-0.11,0.339-0.086,0.514c0.006,0.044,0.063,0.038,0.083,0.011
			c0.101-0.137,0.123-0.318,0.161-0.481c0.045-0.193,0.099-0.385,0.121-0.582c0-0.004-0.001-0.008-0.001-0.012
			c0.451-0.017,0.901-0.072,1.345-0.155c0.003-0.001,0.007-0.001,0.011-0.002c-0.073,0.188-0.143,0.376-0.212,0.565
			c-0.071,0.193-0.185,0.404-0.183,0.611c0,0.039,0.056,0.07,0.084,0.035c0.118-0.147,0.156-0.343,0.215-0.521
			c0.074-0.226,0.149-0.452,0.219-0.68c0.004-0.012,0.003-0.022,0.001-0.032c0.054-0.01,0.11-0.02,0.167-0.031
			c-0.055,0.167-0.11,0.333-0.163,0.5c-0.059,0.185-0.147,0.379-0.154,0.575c-0.002,0.065,0.087,0.085,0.119,0.032
			c0.089-0.146,0.117-0.323,0.163-0.486c0.059-0.212,0.115-0.425,0.172-0.638c0.001-0.004,0-0.006,0.001-0.01
			c0.032-0.006,0.064-0.014,0.097-0.021c-0.047,0.111-0.092,0.222-0.134,0.335c-0.065,0.176-0.174,0.371-0.168,0.561
			c0.002,0.047,0.064,0.081,0.098,0.041c0.116-0.132,0.15-0.315,0.208-0.479c0.057-0.164,0.109-0.328,0.156-0.495
			c0.081-0.02,0.16-0.044,0.238-0.07c-0.063,0.132-0.124,0.265-0.184,0.4c-0.077,0.174-0.192,0.36-0.19,0.554
			c0,0.043,0.051,0.061,0.081,0.034c0.158-0.144,0.22-0.387,0.303-0.58c0.07-0.161,0.135-0.325,0.196-0.489
			c0.002-0.001,0.004-0.002,0.006-0.003c-0.042,0.106-0.077,0.215-0.113,0.323c-0.057,0.168-0.154,0.359-0.137,0.538
			c0.004,0.043,0.058,0.077,0.092,0.038c0.11-0.125,0.14-0.3,0.191-0.456c0.057-0.178,0.119-0.359,0.151-0.544
			c0.034-0.022,0.069-0.044,0.1-0.07c0.031-0.026,0.017-0.071-0.013-0.089c0.007-0.054,0.013-0.111,0.019-0.167
			c0.033,0.006,0.066-0.007,0.073-0.047c0.032-0.205-0.009-0.416-0.027-0.622c-0.002-0.028-0.005-0.055-0.007-0.083
			c-0.002-0.121-0.009-0.24-0.021-0.355c0.006-0.003,0.011-0.008,0.014-0.014c0.055-0.113,0.042-0.233,0.042-0.357
			c0-0.087-0.004-0.173-0.01-0.26c0.383-0.09,0.766-0.181,1.15-0.271c-0.007,0.398-0.02,0.832,0.048,1.22
			c-0.07,0.031-0.131,0.08-0.169,0.152c-0.002,0.004-0.003,0.008-0.004,0.013c-0.084,0.094-0.089,0.239-0.037,0.357
			c-0.006,0.089-0.013,0.18,0.023,0.262c0.012,0.028,0.062,0.028,0.075,0c0.016-0.036,0.022-0.074,0.025-0.113
			c0.007,0.003,0.015,0.006,0.022,0.01c-0.009,0.111-0.018,0.232,0.019,0.326c0.02,0.05,0.081,0.05,0.101,0
			c0.034-0.085,0.029-0.192,0.021-0.294c0,0,0.001,0,0.001,0c0.011,0.002,0.023,0.002,0.034,0.003
			c-0.008,0.106-0.006,0.219,0.041,0.299c0.016,0.027,0.059,0.029,0.075,0c0.045-0.084,0.041-0.199,0.028-0.307
			c0.041-0.01,0.076-0.027,0.108-0.047c-0.001,0.035-0.003,0.07-0.004,0.104c-0.002,0.097-0.014,0.198,0.038,0.284
			c0.014,0.023,0.048,0.023,0.062,0c0.044-0.074,0.04-0.155,0.038-0.24c-0.002-0.097-0.006-0.195-0.01-0.292
			c0.06-0.126,0.053-0.287-0.033-0.409c-0.065-0.092-0.167-0.137-0.272-0.143c0.032-0.397-0.018-0.83-0.057-1.227
			c0.778-0.183,1.556-0.366,2.334-0.55c0.085-0.02,0.097-0.105,0.063-0.164c0.003,0.001,0.005,0.001,0.008,0.002
			C16.001,7.146,16.053,6.956,15.929,6.928z M13.652,9.282c0.064,0.064,0.071,0.152,0.041,0.225
			c-0.006-0.001-0.012-0.003-0.018-0.001c-0.009,0.003-0.016,0.007-0.024,0.011c0.016-0.049,0.024-0.104,0.036-0.143
			c0.016-0.054-0.034-0.083-0.075-0.073c0-0.001,0.001-0.002,0.001-0.003c0.006-0.017,0.004-0.031-0.001-0.044
			C13.625,9.261,13.639,9.269,13.652,9.282z M13.302,9.43c-0.013,0.029-0.029,0.061-0.044,0.093
			c-0.004-0.013-0.008-0.026-0.009-0.038c-0.008-0.071,0.021-0.127,0.064-0.179c0.021-0.021,0.044-0.039,0.069-0.053
			c0,0.001,0,0.002,0.001,0.003C13.355,9.313,13.328,9.371,13.302,9.43z M13.433,7.615C13.409,7.59,13.372,7.587,13.344,7.6
			c-1.307-0.314-2.644-0.584-3.97-0.816c-0.017-0.033-0.04-0.063-0.071-0.089C9.236,6.638,9.145,6.61,9.057,6.616
			C9.053,6.614,9.05,6.612,9.046,6.61C8.929,6.561,8.863,6.614,8.818,6.711c-0.096,0.064-0.12,0.256-0.061,0.351
			C8.774,7.09,8.799,7.109,8.825,7.123c0.012,0.017,0.024,0.034,0.038,0.05c0.13,0.144,0.347,0.099,0.465-0.033
			c0.034-0.038,0.056-0.082,0.069-0.128c1.2,0.265,2.42,0.502,3.634,0.698c-0.345,0.082-0.69,0.165-1.035,0.247
			c-0.026-0.013-0.059-0.007-0.076,0.018c-0.108,0.026-0.215,0.051-0.323,0.077c-0.691,0.166-1.383,0.331-2.074,0.497
			C8.857,8.71,8.159,8.831,7.51,9.05C7.218,8.799,6.834,8.635,6.502,8.446c-0.395-0.225-0.79-0.449-1.186-0.673
			C4.635,7.387,3.958,6.992,3.272,6.616c0.455-0.039,0.913-0.122,1.361-0.177c0.602-0.074,1.204-0.149,1.806-0.225
			C7.612,6.066,8.786,5.918,9.96,5.77c0.024,0.02,0.052,0.037,0.077,0.052c0.059,0.034,0.102,0.054,0.169,0.039
			c0.003-0.001,0.004-0.004,0.007-0.006c1.806,0.466,3.649,0.823,5.471,1.222C14.934,7.255,14.183,7.435,13.433,7.615z"/>
		<path class="st0" d="M11.746,8.302c-0.011-0.026-0.041-0.047-0.074-0.03c-0.046,0.023-0.091,0.047-0.136,0.07
			c-0.08,0.018-0.16,0.037-0.24,0.061c-0.112,0.033-0.241,0.059-0.325,0.143c-0.024,0.024-0.015,0.073,0.021,0.079
			c0.119,0.022,0.235-0.027,0.348-0.062c0.142-0.044,0.274-0.1,0.411-0.157C11.806,8.384,11.796,8.311,11.746,8.302z"/>
		<path class="st0" d="M8.306,10.787c-0.037,0.084-0.066,0.173-0.092,0.261c-0.026,0.086-0.063,0.177-0.051,0.268
			c0.004,0.03,0.041,0.055,0.066,0.027c0.056-0.062,0.078-0.145,0.103-0.224c0.03-0.095,0.061-0.191,0.078-0.288
			C8.419,10.772,8.333,10.725,8.306,10.787z"/>
		<path class="st0" d="M12.285,10.102c-0.025,0.049-0.047,0.1-0.071,0.15c0.005-0.019,0.01-0.037,0.014-0.056
			c0.014-0.073-0.082-0.12-0.123-0.052c-0.083,0.139-0.136,0.296-0.194,0.448c-0.055,0.146-0.142,0.303-0.135,0.461
			c0.002,0.046,0.058,0.073,0.092,0.038c0.026-0.026,0.047-0.056,0.066-0.087c0.018,0.027,0.056,0.034,0.085,0.01
			c0.117-0.097,0.16-0.277,0.219-0.414c0.063-0.146,0.121-0.294,0.177-0.443C12.443,10.081,12.321,10.031,12.285,10.102z"/>
		<path class="st0" d="M12.406,10.291c-0.048,0.087-0.071,0.182-0.099,0.277c-0.025,0.085-0.077,0.196-0.024,0.277
			c0.016,0.025,0.044,0.031,0.07,0.018c0.08-0.038,0.088-0.133,0.112-0.211c0.033-0.106,0.065-0.216,0.07-0.327
			C12.538,10.257,12.439,10.232,12.406,10.291z"/>
		<path class="st0" d="M13.603,10.912c-0.533,0.107-1.055,0.408-1.553,0.621c-0.547,0.233-1.132,0.436-1.644,0.74
			c-0.046,0.027-0.016,0.1,0.036,0.086c0.532-0.149,1.043-0.409,1.551-0.626c0.534-0.229,1.164-0.412,1.641-0.745
			C13.673,10.961,13.65,10.903,13.603,10.912z"/>
		<path class="st0" d="M13.658,12.293c-0.57,0.198-1.106,0.516-1.645,0.788c-0.627,0.316-1.266,0.617-1.87,0.974
			c-0.047,0.028-0.015,0.112,0.038,0.09c0.56-0.236,1.1-0.52,1.643-0.792c0.622-0.31,1.293-0.586,1.869-0.977
			C13.734,12.349,13.71,12.275,13.658,12.293z"/>
		<path class="st0" d="M13.45,14.134c-0.531,0.178-1.042,0.426-1.557,0.644c-0.602,0.255-1.218,0.491-1.8,0.789
			c-0.057,0.029-0.017,0.124,0.043,0.103c0.531-0.18,1.044-0.415,1.561-0.633c0.601-0.254,1.227-0.479,1.806-0.779
			C13.571,14.224,13.523,14.11,13.45,14.134z"/>
		<path class="st0" d="M12.873,14.95c-0.289,0.085-0.561,0.217-0.835,0.341c-0.264,0.119-0.569,0.222-0.786,0.418
			c-0.019,0.017-0.005,0.057,0.022,0.053c0.259-0.033,0.495-0.171,0.732-0.277c0.306-0.136,0.619-0.273,0.901-0.455
			C12.947,15.004,12.922,14.936,12.873,14.95z"/>
	</g>
</g>
</svg>
