<?xml version="1.0" encoding="utf-8"?>
<!-- Generator: Adobe Illustrator 21.1.0, SVG Export Plug-In . SVG Version: 6.00 Build 0)  -->
<svg version="1.1" id="Layer_1" xmlns="http://www.w3.org/2000/svg" xmlns:xlink="http://www.w3.org/1999/xlink" x="0px" y="0px"
	 viewBox="0 0 100 20" style="enable-background:new 0 0 100 20;" xml:space="preserve">
<style type="text/css">
	.st0{fill:#98A4AE;}
</style>
<g>
	<path class="st0" d="M18.162,12.581v1.002h-0.586v-2.844h1.109c0.213,0,0.401,0.039,0.563,0.117s0.287,0.189,0.374,0.333
		s0.131,0.308,0.131,0.491c0,0.278-0.095,0.498-0.286,0.659s-0.455,0.241-0.792,0.241H18.162z M18.162,12.106h0.523
		c0.155,0,0.273-0.036,0.354-0.109s0.122-0.177,0.122-0.312c0-0.14-0.041-0.252-0.123-0.338s-0.195-0.13-0.34-0.133h-0.537V12.106z"
		/>
	<path class="st0" d="M21.207,11.999c-0.077-0.011-0.145-0.016-0.203-0.016c-0.213,0-0.354,0.072-0.42,0.217v1.383h-0.564V11.47
		h0.533l0.016,0.252c0.113-0.194,0.27-0.291,0.471-0.291c0.062,0,0.121,0.009,0.176,0.025L21.207,11.999z"/>
	<path class="st0" d="M21.374,10.923c0-0.085,0.028-0.154,0.085-0.209s0.134-0.082,0.231-0.082c0.096,0,0.173,0.027,0.23,0.082
		s0.086,0.124,0.086,0.209c0,0.086-0.029,0.156-0.087,0.211s-0.134,0.082-0.229,0.082s-0.171-0.027-0.229-0.082
		S21.374,11.009,21.374,10.923z M21.974,13.583h-0.566V11.47h0.566V13.583z"/>
	<path class="st0" d="M22.858,11.47l0.018,0.244c0.151-0.188,0.354-0.283,0.607-0.283c0.224,0,0.391,0.065,0.5,0.197
		s0.166,0.328,0.168,0.59v1.365h-0.564v-1.354c0-0.12-0.026-0.207-0.078-0.262c-0.052-0.054-0.139-0.081-0.26-0.081
		c-0.159,0-0.278,0.068-0.357,0.203v1.494h-0.564V11.47H22.858z"/>
	<path class="st0" d="M25.358,13.167c0.104,0,0.189-0.028,0.254-0.086s0.099-0.134,0.102-0.229h0.529
		c-0.001,0.144-0.041,0.274-0.117,0.394s-0.182,0.212-0.315,0.277s-0.281,0.099-0.442,0.099c-0.302,0-0.541-0.096-0.715-0.288
		s-0.262-0.457-0.262-0.796v-0.037c0-0.325,0.086-0.585,0.26-0.779s0.411-0.291,0.713-0.291c0.264,0,0.476,0.075,0.636,0.226
		s0.241,0.351,0.243,0.601h-0.529c-0.002-0.11-0.037-0.199-0.102-0.268c-0.065-0.069-0.151-0.104-0.258-0.104
		c-0.131,0-0.231,0.048-0.298,0.144s-0.101,0.252-0.101,0.467v0.059c0,0.218,0.033,0.374,0.1,0.47
		C25.122,13.119,25.223,13.167,25.358,13.167z"/>
	<path class="st0" d="M26.461,10.923c0-0.085,0.028-0.154,0.085-0.209s0.134-0.082,0.231-0.082c0.096,0,0.173,0.027,0.23,0.082
		s0.086,0.124,0.086,0.209c0,0.086-0.029,0.156-0.087,0.211s-0.134,0.082-0.229,0.082s-0.171-0.027-0.229-0.082
		S26.461,11.009,26.461,10.923z M27.061,13.583h-0.566V11.47h0.566V13.583z"/>
	<path class="st0" d="M29.328,12.546c0,0.325-0.074,0.586-0.222,0.782s-0.347,0.294-0.599,0.294c-0.213,0-0.386-0.074-0.518-0.223
		v0.996h-0.564V11.47h0.523l0.02,0.207c0.137-0.164,0.315-0.246,0.535-0.246c0.26,0,0.463,0.097,0.607,0.289
		s0.217,0.458,0.217,0.797V12.546z M28.763,12.503c0-0.197-0.035-0.35-0.104-0.457c-0.07-0.106-0.171-0.16-0.304-0.16
		c-0.177,0-0.299,0.068-0.365,0.204v0.867c0.069,0.14,0.192,0.21,0.369,0.21C28.628,13.167,28.763,12.945,28.763,12.503z"/>
	<path class="st0" d="M30.802,13.583c-0.026-0.051-0.045-0.114-0.057-0.189c-0.137,0.152-0.314,0.229-0.533,0.229
		c-0.207,0-0.378-0.06-0.515-0.18s-0.204-0.271-0.204-0.453c0-0.224,0.083-0.396,0.249-0.516s0.406-0.181,0.72-0.182h0.26v-0.121
		c0-0.098-0.025-0.176-0.075-0.234s-0.129-0.088-0.237-0.088c-0.095,0-0.169,0.022-0.224,0.068s-0.081,0.108-0.081,0.188H29.54
		c0-0.122,0.038-0.235,0.113-0.34s0.182-0.186,0.32-0.245s0.293-0.089,0.465-0.089c0.26,0,0.467,0.065,0.62,0.196
		s0.229,0.314,0.229,0.552v0.916c0.001,0.2,0.029,0.353,0.084,0.455v0.033H30.802z M30.335,13.19c0.083,0,0.16-0.019,0.23-0.056
		s0.123-0.087,0.156-0.149v-0.363h-0.211c-0.283,0-0.433,0.098-0.451,0.293l-0.002,0.033c0,0.07,0.025,0.128,0.074,0.174
		S30.249,13.19,30.335,13.19z"/>
	<path class="st0" d="M32.218,13.583h-0.566v-3h0.566V13.583z"/>
	<path class="st0" d="M33.656,13.827h-0.42l1.047-3.088h0.42L33.656,13.827z"/>
	<path class="st0" d="M37.411,12.997h-1.027l-0.195,0.586h-0.623l1.059-2.844h0.543l1.064,2.844h-0.623L37.411,12.997z
		 M36.542,12.522h0.711l-0.357-1.064L36.542,12.522z"/>
	<path class="st0" d="M39.505,12.999c0-0.069-0.034-0.123-0.103-0.163s-0.178-0.075-0.329-0.106
		c-0.503-0.105-0.754-0.319-0.754-0.641c0-0.188,0.078-0.344,0.233-0.47s0.359-0.188,0.61-0.188c0.269,0,0.482,0.063,0.644,0.189
		s0.241,0.29,0.241,0.492h-0.564c0-0.081-0.026-0.147-0.078-0.2s-0.134-0.079-0.244-0.079c-0.095,0-0.169,0.021-0.221,0.064
		s-0.078,0.098-0.078,0.164c0,0.062,0.029,0.113,0.089,0.151s0.159,0.071,0.3,0.1s0.259,0.06,0.355,0.095
		c0.298,0.109,0.447,0.299,0.447,0.568c0,0.192-0.083,0.349-0.248,0.468s-0.379,0.179-0.641,0.179c-0.177,0-0.334-0.031-0.472-0.095
		s-0.245-0.149-0.323-0.26s-0.117-0.229-0.117-0.356h0.535c0.005,0.101,0.042,0.177,0.111,0.23s0.161,0.08,0.277,0.08
		c0.108,0,0.189-0.021,0.245-0.062S39.505,13.065,39.505,12.999z"/>
	<path class="st0" d="M41.461,12.999c0-0.069-0.034-0.123-0.103-0.163s-0.178-0.075-0.329-0.106
		c-0.503-0.105-0.754-0.319-0.754-0.641c0-0.188,0.078-0.344,0.233-0.47s0.359-0.188,0.61-0.188c0.269,0,0.482,0.063,0.644,0.189
		s0.241,0.29,0.241,0.492h-0.564c0-0.081-0.026-0.147-0.078-0.2s-0.134-0.079-0.244-0.079c-0.095,0-0.169,0.021-0.221,0.064
		s-0.078,0.098-0.078,0.164c0,0.062,0.029,0.113,0.089,0.151s0.159,0.071,0.3,0.1s0.259,0.06,0.355,0.095
		c0.298,0.109,0.447,0.299,0.447,0.568c0,0.192-0.083,0.349-0.248,0.468s-0.379,0.179-0.641,0.179c-0.177,0-0.334-0.031-0.472-0.095
		s-0.245-0.149-0.323-0.26s-0.117-0.229-0.117-0.356h0.535c0.005,0.101,0.042,0.177,0.111,0.23s0.161,0.08,0.277,0.08
		c0.108,0,0.189-0.021,0.245-0.062S41.461,13.065,41.461,12.999z"/>
	<path class="st0" d="M42.27,10.923c0-0.085,0.028-0.154,0.085-0.209s0.134-0.082,0.231-0.082c0.097,0,0.173,0.027,0.23,0.082
		s0.086,0.124,0.086,0.209c0,0.086-0.029,0.156-0.087,0.211s-0.135,0.082-0.229,0.082s-0.172-0.027-0.229-0.082
		S42.27,11.009,42.27,10.923z M42.869,13.583h-0.566V11.47h0.566V13.583z"/>
	<path class="st0" d="M44.379,12.999c0-0.069-0.034-0.123-0.103-0.163s-0.178-0.075-0.329-0.106
		c-0.503-0.105-0.754-0.319-0.754-0.641c0-0.188,0.078-0.344,0.233-0.47s0.359-0.188,0.61-0.188c0.269,0,0.482,0.063,0.644,0.189
		s0.241,0.29,0.241,0.492h-0.564c0-0.081-0.026-0.147-0.078-0.2s-0.134-0.079-0.244-0.079c-0.095,0-0.169,0.021-0.221,0.064
		s-0.078,0.098-0.078,0.164c0,0.062,0.029,0.113,0.089,0.151s0.159,0.071,0.3,0.1s0.259,0.06,0.355,0.095
		c0.298,0.109,0.447,0.299,0.447,0.568c0,0.192-0.083,0.349-0.248,0.468s-0.379,0.179-0.641,0.179c-0.177,0-0.334-0.031-0.472-0.095
		s-0.245-0.149-0.323-0.26s-0.117-0.229-0.117-0.356h0.535c0.005,0.101,0.042,0.177,0.111,0.23s0.161,0.08,0.277,0.08
		c0.108,0,0.189-0.021,0.245-0.062S44.379,13.065,44.379,12.999z"/>
	<path class="st0" d="M45.866,10.95v0.52h0.361v0.414h-0.361v1.055c0,0.078,0.015,0.134,0.045,0.168s0.087,0.051,0.172,0.051
		c0.062,0,0.118-0.005,0.166-0.014v0.428c-0.11,0.034-0.225,0.051-0.342,0.051c-0.396,0-0.598-0.2-0.605-0.6v-1.139h-0.309V11.47
		h0.309v-0.52H45.866z"/>
	<path class="st0" d="M47.667,13.583c-0.026-0.051-0.045-0.114-0.057-0.189c-0.137,0.152-0.314,0.229-0.533,0.229
		c-0.207,0-0.379-0.06-0.515-0.18s-0.204-0.271-0.204-0.453c0-0.224,0.083-0.396,0.249-0.516s0.406-0.181,0.72-0.182h0.26v-0.121
		c0-0.098-0.025-0.176-0.075-0.234s-0.129-0.088-0.237-0.088c-0.095,0-0.17,0.022-0.224,0.068s-0.081,0.108-0.081,0.188h-0.564
		c0-0.122,0.038-0.235,0.113-0.34s0.183-0.186,0.32-0.245s0.293-0.089,0.465-0.089c0.261,0,0.467,0.065,0.62,0.196
		s0.229,0.314,0.229,0.552v0.916c0.001,0.2,0.029,0.353,0.084,0.455v0.033H47.667z M47.2,13.19c0.083,0,0.16-0.019,0.23-0.056
		s0.122-0.087,0.156-0.149v-0.363h-0.211c-0.282,0-0.433,0.098-0.451,0.293l-0.002,0.033c0,0.07,0.024,0.128,0.074,0.174
		S47.114,13.19,47.2,13.19z"/>
	<path class="st0" d="M49.006,11.47l0.018,0.244c0.151-0.188,0.354-0.283,0.607-0.283c0.224,0,0.391,0.065,0.5,0.197
		s0.165,0.328,0.168,0.59v1.365h-0.564v-1.354c0-0.12-0.026-0.207-0.078-0.262c-0.052-0.054-0.139-0.081-0.26-0.081
		c-0.159,0-0.278,0.068-0.357,0.203v1.494h-0.564V11.47H49.006z"/>
	<path class="st0" d="M51.303,10.95v0.52h0.361v0.414h-0.361v1.055c0,0.078,0.015,0.134,0.045,0.168s0.087,0.051,0.172,0.051
		c0.062,0,0.118-0.005,0.166-0.014v0.428c-0.11,0.034-0.225,0.051-0.342,0.051c-0.396,0-0.598-0.2-0.605-0.6v-1.139H50.43V11.47
		h0.309v-0.52H51.303z"/>
	<path class="st0" d="M53.397,12.581v1.002h-0.586v-2.844h1.109c0.214,0,0.401,0.039,0.563,0.117s0.287,0.189,0.374,0.333
		s0.131,0.308,0.131,0.491c0,0.278-0.096,0.498-0.286,0.659s-0.455,0.241-0.792,0.241H53.397z M53.397,12.106h0.523
		c0.155,0,0.273-0.036,0.354-0.109s0.122-0.177,0.122-0.312c0-0.14-0.041-0.252-0.123-0.338s-0.195-0.13-0.34-0.133h-0.537V12.106z"
		/>
	<path class="st0" d="M56.442,11.999c-0.077-0.011-0.145-0.016-0.203-0.016c-0.214,0-0.354,0.072-0.42,0.217v1.383h-0.564V11.47
		h0.533l0.016,0.252c0.113-0.194,0.271-0.291,0.471-0.291c0.062,0,0.121,0.009,0.176,0.025L56.442,11.999z"/>
	<path class="st0" d="M56.609,10.923c0-0.085,0.028-0.154,0.085-0.209s0.134-0.082,0.231-0.082c0.097,0,0.173,0.027,0.23,0.082
		s0.086,0.124,0.086,0.209c0,0.086-0.029,0.156-0.087,0.211s-0.135,0.082-0.229,0.082s-0.172-0.027-0.229-0.082
		S56.609,11.009,56.609,10.923z M57.209,13.583h-0.566V11.47h0.566V13.583z"/>
	<path class="st0" d="M58.094,11.47l0.018,0.244c0.151-0.188,0.354-0.283,0.607-0.283c0.224,0,0.391,0.065,0.5,0.197
		s0.165,0.328,0.168,0.59v1.365h-0.564v-1.354c0-0.12-0.026-0.207-0.078-0.262c-0.052-0.054-0.139-0.081-0.26-0.081
		c-0.159,0-0.278,0.068-0.357,0.203v1.494h-0.564V11.47H58.094z"/>
	<path class="st0" d="M60.594,13.167c0.104,0,0.188-0.028,0.254-0.086s0.099-0.134,0.102-0.229h0.529
		c-0.001,0.144-0.04,0.274-0.117,0.394s-0.182,0.212-0.315,0.277s-0.281,0.099-0.442,0.099c-0.302,0-0.54-0.096-0.715-0.288
		s-0.262-0.457-0.262-0.796v-0.037c0-0.325,0.087-0.585,0.26-0.779s0.411-0.291,0.713-0.291c0.265,0,0.477,0.075,0.636,0.226
		s0.24,0.351,0.243,0.601h-0.529c-0.003-0.11-0.036-0.199-0.102-0.268c-0.065-0.069-0.151-0.104-0.258-0.104
		c-0.132,0-0.23,0.048-0.298,0.144s-0.101,0.252-0.101,0.467v0.059c0,0.218,0.033,0.374,0.1,0.47
		C60.357,13.119,60.458,13.167,60.594,13.167z"/>
	<path class="st0" d="M61.696,10.923c0-0.085,0.028-0.154,0.085-0.209s0.134-0.082,0.231-0.082c0.097,0,0.173,0.027,0.23,0.082
		s0.086,0.124,0.086,0.209c0,0.086-0.029,0.156-0.087,0.211s-0.135,0.082-0.229,0.082s-0.172-0.027-0.229-0.082
		S61.696,11.009,61.696,10.923z M62.296,13.583h-0.566V11.47h0.566V13.583z"/>
	<path class="st0" d="M64.563,12.546c0,0.325-0.074,0.586-0.222,0.782s-0.348,0.294-0.599,0.294c-0.214,0-0.386-0.074-0.518-0.223
		v0.996h-0.564V11.47h0.523l0.02,0.207c0.137-0.164,0.315-0.246,0.535-0.246c0.261,0,0.463,0.097,0.607,0.289
		s0.217,0.458,0.217,0.797V12.546z M63.999,12.503c0-0.197-0.035-0.35-0.104-0.457c-0.069-0.106-0.171-0.16-0.304-0.16
		c-0.177,0-0.299,0.068-0.365,0.204v0.867c0.069,0.14,0.192,0.21,0.369,0.21C63.864,13.167,63.999,12.945,63.999,12.503z"/>
	<path class="st0" d="M66.037,13.583c-0.026-0.051-0.045-0.114-0.057-0.189c-0.137,0.152-0.314,0.229-0.533,0.229
		c-0.207,0-0.379-0.06-0.515-0.18s-0.204-0.271-0.204-0.453c0-0.224,0.083-0.396,0.249-0.516s0.406-0.181,0.72-0.182h0.26v-0.121
		c0-0.098-0.025-0.176-0.075-0.234s-0.129-0.088-0.237-0.088c-0.095,0-0.17,0.022-0.224,0.068s-0.081,0.108-0.081,0.188h-0.564
		c0-0.122,0.038-0.235,0.113-0.34s0.183-0.186,0.32-0.245s0.293-0.089,0.465-0.089c0.261,0,0.467,0.065,0.62,0.196
		s0.229,0.314,0.229,0.552v0.916c0.001,0.2,0.029,0.353,0.084,0.455v0.033H66.037z M65.57,13.19c0.083,0,0.16-0.019,0.23-0.056
		s0.122-0.087,0.156-0.149v-0.363h-0.211c-0.282,0-0.433,0.098-0.451,0.293l-0.002,0.033c0,0.07,0.024,0.128,0.074,0.174
		S65.484,13.19,65.57,13.19z"/>
	<path class="st0" d="M67.453,13.583h-0.566v-3h0.566V13.583z"/>
</g>
<g>
	<path class="st0" d="M19.717,6.797h-0.871v2.369H18.26V6.797H17.4V6.323h2.316V6.797z"/>
	<path class="st0" d="M20.712,9.206c-0.31,0-0.562-0.095-0.757-0.285s-0.292-0.443-0.292-0.76V8.106
		c0-0.212,0.041-0.402,0.123-0.569s0.198-0.296,0.349-0.387s0.322-0.136,0.515-0.136c0.289,0,0.517,0.091,0.683,0.273
		s0.249,0.44,0.249,0.775v0.23h-1.346c0.018,0.138,0.073,0.249,0.165,0.332S20.609,8.75,20.75,8.75c0.217,0,0.387-0.079,0.51-0.236
		l0.277,0.311c-0.084,0.12-0.199,0.213-0.344,0.28S20.888,9.206,20.712,9.206z M20.648,7.469c-0.112,0-0.203,0.038-0.272,0.114
		c-0.07,0.075-0.114,0.184-0.134,0.325h0.785V7.864c-0.002-0.126-0.037-0.223-0.102-0.292C20.86,7.503,20.768,7.469,20.648,7.469z"
		/>
	<path class="st0" d="M22.681,8.75c0.104,0,0.189-0.028,0.254-0.086s0.099-0.134,0.102-0.229h0.529
		C23.564,8.58,23.525,8.71,23.448,8.83s-0.182,0.212-0.315,0.277s-0.281,0.099-0.442,0.099c-0.302,0-0.541-0.096-0.715-0.288
		s-0.262-0.457-0.262-0.796V8.084c0-0.325,0.086-0.585,0.26-0.779s0.411-0.291,0.713-0.291c0.264,0,0.476,0.075,0.636,0.226
		s0.241,0.351,0.243,0.601h-0.529C23.034,7.73,23,7.641,22.935,7.573c-0.065-0.069-0.151-0.104-0.258-0.104
		c-0.131,0-0.231,0.048-0.298,0.144s-0.101,0.252-0.101,0.467v0.059c0,0.218,0.033,0.374,0.1,0.47
		C22.444,8.703,22.545,8.75,22.681,8.75z"/>
	<path class="st0" d="M24.339,7.284c0.15-0.18,0.338-0.27,0.564-0.27c0.458,0,0.691,0.267,0.697,0.799v1.354h-0.564V7.826
		c0-0.121-0.026-0.211-0.078-0.27c-0.052-0.058-0.139-0.087-0.26-0.087c-0.166,0-0.285,0.064-0.359,0.191v1.506h-0.564v-3h0.564
		V7.284z"/>
	<path class="st0" d="M26.446,7.053l0.018,0.244c0.151-0.188,0.354-0.283,0.607-0.283c0.224,0,0.391,0.065,0.5,0.197
		s0.166,0.328,0.168,0.59v1.365h-0.564V7.812c0-0.12-0.026-0.207-0.078-0.262c-0.052-0.054-0.139-0.081-0.26-0.081
		c-0.159,0-0.278,0.068-0.357,0.203v1.494h-0.564V7.053H26.446z"/>
	<path class="st0" d="M27.979,8.09c0-0.21,0.041-0.396,0.121-0.561s0.197-0.291,0.349-0.381s0.328-0.135,0.528-0.135
		c0.285,0,0.518,0.087,0.698,0.262s0.281,0.411,0.302,0.711l0.004,0.145c0,0.324-0.09,0.584-0.271,0.78s-0.424,0.294-0.729,0.294
		s-0.548-0.098-0.729-0.293s-0.272-0.461-0.272-0.797V8.09z M28.543,8.13c0,0.201,0.038,0.354,0.113,0.461S28.84,8.75,28.98,8.75
		c0.137,0,0.244-0.053,0.32-0.157c0.077-0.105,0.115-0.273,0.115-0.504c0-0.197-0.039-0.35-0.115-0.458s-0.185-0.162-0.324-0.162
		c-0.138,0-0.245,0.054-0.32,0.161S28.543,7.905,28.543,8.13z"/>
	<path class="st0" d="M30.824,9.167h-0.566v-3h0.566V9.167z"/>
	<path class="st0" d="M31.101,8.09c0-0.21,0.041-0.396,0.121-0.561s0.197-0.291,0.349-0.381s0.328-0.135,0.528-0.135
		c0.285,0,0.518,0.087,0.698,0.262s0.281,0.411,0.302,0.711l0.004,0.145c0,0.324-0.091,0.584-0.271,0.78
		c-0.182,0.196-0.424,0.294-0.729,0.294s-0.548-0.098-0.729-0.293s-0.272-0.461-0.272-0.797V8.09z M31.665,8.13
		c0,0.201,0.038,0.354,0.113,0.461s0.184,0.159,0.324,0.159c0.137,0,0.244-0.053,0.32-0.157c0.076-0.105,0.115-0.273,0.115-0.504
		c0-0.197-0.039-0.35-0.115-0.458s-0.186-0.162-0.324-0.162c-0.138,0-0.245,0.054-0.32,0.161S31.665,7.905,31.665,8.13z"/>
	<path class="st0" d="M33.269,8.094c0-0.324,0.077-0.585,0.231-0.783s0.362-0.297,0.624-0.297c0.231,0,0.412,0.079,0.541,0.238
		l0.023-0.199H35.2v2.043c0,0.185-0.042,0.346-0.126,0.482S34.872,9.82,34.72,9.891s-0.331,0.107-0.535,0.107
		c-0.155,0-0.306-0.031-0.453-0.093s-0.259-0.142-0.334-0.239l0.25-0.344c0.141,0.157,0.312,0.236,0.512,0.236
		c0.149,0,0.267-0.04,0.35-0.12s0.125-0.193,0.125-0.341V8.985c-0.13,0.147-0.302,0.221-0.514,0.221c-0.254,0-0.459-0.1-0.616-0.298
		s-0.235-0.462-0.235-0.79V8.094z M33.833,8.134c0,0.192,0.038,0.343,0.115,0.452s0.183,0.164,0.316,0.164
		c0.172,0,0.295-0.064,0.369-0.194V7.664c-0.075-0.13-0.197-0.194-0.365-0.194c-0.136,0-0.242,0.056-0.319,0.167
		S33.833,7.914,33.833,8.134z"/>
	<path class="st0" d="M36.322,8.368l0.391-1.314h0.605l-0.85,2.441l-0.047,0.111c-0.126,0.276-0.335,0.414-0.625,0.414
		c-0.082,0-0.165-0.013-0.25-0.037V9.555l0.086,0.002c0.106,0,0.187-0.017,0.239-0.049s0.094-0.087,0.124-0.162l0.066-0.174
		l-0.74-2.119h0.607L36.322,8.368z"/>
	<path class="st0" d="M38.375,9.167V6.323h0.875c0.25,0,0.474,0.057,0.671,0.169s0.352,0.272,0.462,0.48s0.166,0.443,0.166,0.708
		v0.131c0,0.265-0.055,0.499-0.163,0.705s-0.262,0.365-0.46,0.479s-0.421,0.171-0.67,0.172H38.375z M38.961,6.797v1.898h0.283
		c0.229,0,0.404-0.075,0.525-0.225s0.183-0.364,0.186-0.643v-0.15c0-0.289-0.06-0.508-0.18-0.657S39.48,6.797,39.25,6.797H38.961z"
		/>
	<path class="st0" d="M40.833,6.506c0-0.085,0.028-0.154,0.085-0.209s0.134-0.082,0.231-0.082c0.097,0,0.173,0.027,0.23,0.082
		s0.086,0.124,0.086,0.209c0,0.086-0.029,0.156-0.087,0.211s-0.135,0.082-0.229,0.082s-0.172-0.027-0.229-0.082
		S40.833,6.592,40.833,6.506z M41.433,9.167h-0.566V7.053h0.566V9.167z"/>
	<path class="st0" d="M42.985,7.583c-0.077-0.011-0.145-0.016-0.203-0.016c-0.214,0-0.354,0.072-0.42,0.217v1.383h-0.564V7.053
		h0.533l0.016,0.252c0.113-0.194,0.271-0.291,0.471-0.291c0.062,0,0.121,0.009,0.176,0.025L42.985,7.583z"/>
	<path class="st0" d="M44.092,9.206c-0.31,0-0.562-0.095-0.757-0.285s-0.292-0.443-0.292-0.76V8.106
		c0-0.212,0.041-0.402,0.123-0.569s0.198-0.296,0.349-0.387s0.322-0.136,0.515-0.136c0.289,0,0.517,0.091,0.683,0.273
		s0.249,0.44,0.249,0.775v0.23h-1.346c0.019,0.138,0.073,0.249,0.165,0.332s0.208,0.125,0.349,0.125c0.218,0,0.388-0.079,0.51-0.236
		l0.277,0.311c-0.085,0.12-0.199,0.213-0.344,0.28S44.268,9.206,44.092,9.206z M44.027,7.469c-0.112,0-0.203,0.038-0.272,0.114
		c-0.069,0.075-0.114,0.184-0.134,0.325h0.785V7.864c-0.003-0.126-0.036-0.223-0.102-0.292C44.239,7.503,44.147,7.469,44.027,7.469z
		"/>
	<path class="st0" d="M46.061,8.75c0.104,0,0.188-0.028,0.254-0.086s0.099-0.134,0.102-0.229h0.529
		c-0.001,0.144-0.04,0.274-0.117,0.394s-0.182,0.212-0.315,0.277s-0.281,0.099-0.442,0.099c-0.302,0-0.54-0.096-0.715-0.288
		s-0.262-0.457-0.262-0.796V8.084c0-0.325,0.087-0.585,0.26-0.779s0.411-0.291,0.713-0.291c0.265,0,0.477,0.075,0.636,0.226
		s0.24,0.351,0.243,0.601h-0.529c-0.003-0.11-0.036-0.199-0.102-0.268c-0.065-0.069-0.151-0.104-0.258-0.104
		c-0.132,0-0.23,0.048-0.298,0.144s-0.101,0.252-0.101,0.467v0.059c0,0.218,0.033,0.374,0.1,0.47
		C45.824,8.703,45.925,8.75,46.061,8.75z"/>
	<path class="st0" d="M47.844,6.534v0.52h0.361v0.414h-0.361v1.055c0,0.078,0.015,0.134,0.045,0.168s0.087,0.051,0.172,0.051
		c0.062,0,0.118-0.005,0.166-0.014v0.428c-0.11,0.034-0.225,0.051-0.342,0.051c-0.396,0-0.598-0.2-0.605-0.6V7.467h-0.309V7.053
		h0.309v-0.52H47.844z"/>
	<path class="st0" d="M48.272,8.09c0-0.21,0.04-0.396,0.121-0.561s0.197-0.291,0.349-0.381s0.328-0.135,0.528-0.135
		c0.285,0,0.518,0.087,0.698,0.262s0.281,0.411,0.302,0.711l0.004,0.145c0,0.324-0.091,0.584-0.271,0.78s-0.424,0.294-0.729,0.294
		s-0.548-0.098-0.729-0.293s-0.272-0.461-0.272-0.797V8.09z M48.837,8.13c0,0.201,0.038,0.354,0.113,0.461s0.184,0.159,0.324,0.159
		c0.137,0,0.243-0.053,0.32-0.157c0.077-0.105,0.115-0.273,0.115-0.504c0-0.197-0.038-0.35-0.115-0.458s-0.185-0.162-0.324-0.162
		c-0.138,0-0.245,0.054-0.32,0.161S48.837,7.905,48.837,8.13z"/>
	<path class="st0" d="M51.71,7.583c-0.077-0.011-0.145-0.016-0.203-0.016c-0.214,0-0.354,0.072-0.42,0.217v1.383h-0.564V7.053h0.533
		l0.016,0.252c0.113-0.194,0.271-0.291,0.471-0.291c0.062,0,0.121,0.009,0.176,0.025L51.71,7.583z"/>
	<path class="st0" d="M52.955,9.411h-0.42l1.047-3.088h0.42L52.955,9.411z"/>
</g>
<g>
	<path class="st0" d="M19.051,4.003c0-0.11-0.039-0.195-0.117-0.255s-0.219-0.122-0.422-0.188s-0.364-0.131-0.482-0.194
		c-0.323-0.175-0.484-0.409-0.484-0.705c0-0.153,0.043-0.291,0.13-0.411s0.211-0.215,0.373-0.282s0.344-0.102,0.546-0.102
		c0.203,0,0.384,0.037,0.543,0.11s0.282,0.178,0.37,0.312s0.132,0.286,0.132,0.457h-0.586c0-0.13-0.041-0.231-0.123-0.304
		s-0.197-0.108-0.346-0.108c-0.143,0-0.254,0.03-0.334,0.091s-0.119,0.141-0.119,0.239c0,0.093,0.046,0.17,0.14,0.232
		s0.23,0.121,0.411,0.176c0.333,0.101,0.576,0.225,0.729,0.373S19.639,3.778,19.639,4c0,0.246-0.093,0.439-0.279,0.579
		s-0.437,0.21-0.752,0.21c-0.219,0-0.418-0.04-0.598-0.12s-0.317-0.189-0.411-0.329s-0.142-0.301-0.142-0.484h0.588
		c0,0.313,0.188,0.471,0.562,0.471c0.139,0,0.248-0.028,0.326-0.085S19.051,4.105,19.051,4.003z"/>
	<path class="st0" d="M21.164,4.535c-0.139,0.169-0.332,0.254-0.578,0.254c-0.227,0-0.399-0.065-0.519-0.195
		s-0.18-0.321-0.183-0.572V2.636h0.564v1.367c0,0.22,0.1,0.33,0.301,0.33c0.191,0,0.323-0.066,0.395-0.199V2.636h0.566V4.75h-0.531
		L21.164,4.535z"/>
	<path class="st0" d="M23.938,3.712c0,0.325-0.074,0.586-0.222,0.782s-0.347,0.294-0.599,0.294c-0.213,0-0.386-0.074-0.518-0.223
		v0.996h-0.564V2.636h0.523l0.02,0.207c0.137-0.164,0.315-0.246,0.535-0.246c0.26,0,0.463,0.097,0.607,0.289
		s0.217,0.458,0.217,0.797V3.712z M23.374,3.669c0-0.197-0.035-0.35-0.104-0.457c-0.07-0.106-0.171-0.16-0.304-0.16
		c-0.177,0-0.299,0.068-0.365,0.204v0.867c0.069,0.14,0.192,0.21,0.369,0.21C23.239,4.333,23.374,4.112,23.374,3.669z"/>
	<path class="st0" d="M25.161,4.789c-0.31,0-0.562-0.095-0.757-0.285s-0.292-0.443-0.292-0.76V3.689
		c0-0.212,0.041-0.402,0.123-0.569s0.198-0.296,0.349-0.387s0.322-0.136,0.515-0.136c0.289,0,0.517,0.091,0.683,0.273
		s0.249,0.44,0.249,0.775v0.23h-1.346c0.018,0.138,0.073,0.249,0.165,0.332s0.208,0.125,0.349,0.125c0.217,0,0.387-0.079,0.51-0.236
		l0.277,0.311c-0.084,0.12-0.199,0.213-0.344,0.28S25.337,4.789,25.161,4.789z M25.097,3.052c-0.112,0-0.203,0.038-0.272,0.114
		c-0.07,0.075-0.114,0.184-0.134,0.325h0.785V3.447c-0.002-0.126-0.037-0.223-0.102-0.292C25.309,3.086,25.216,3.052,25.097,3.052z"
		/>
	<path class="st0" d="M27.438,3.166c-0.077-0.011-0.145-0.016-0.203-0.016c-0.213,0-0.354,0.072-0.42,0.217V4.75H26.25V2.636h0.533
		l0.016,0.252c0.113-0.194,0.27-0.291,0.471-0.291c0.062,0,0.121,0.009,0.176,0.025L27.438,3.166z"/>
	<path class="st0" d="M27.605,2.089c0-0.085,0.028-0.154,0.085-0.209s0.134-0.082,0.231-0.082c0.096,0,0.173,0.027,0.23,0.082
		s0.086,0.124,0.086,0.209c0,0.086-0.029,0.156-0.087,0.211s-0.134,0.082-0.229,0.082S27.75,2.355,27.692,2.3
		S27.605,2.175,27.605,2.089z M28.205,4.75h-0.566V2.636h0.566V4.75z"/>
	<path class="st0" d="M29.089,2.636l0.018,0.244c0.151-0.188,0.354-0.283,0.607-0.283c0.224,0,0.391,0.065,0.5,0.197
		s0.166,0.328,0.168,0.59V4.75h-0.564V3.395c0-0.12-0.026-0.207-0.078-0.262c-0.052-0.054-0.139-0.081-0.26-0.081
		c-0.159,0-0.278,0.068-0.357,0.203V4.75h-0.564V2.636H29.089z"/>
	<path class="st0" d="M31.386,2.117v0.52h0.361V3.05h-0.361v1.055c0,0.078,0.015,0.134,0.045,0.168s0.087,0.051,0.172,0.051
		c0.062,0,0.118-0.005,0.166-0.014v0.428c-0.111,0.034-0.225,0.051-0.342,0.051c-0.396,0-0.598-0.2-0.605-0.6V3.05h-0.309V2.636
		h0.309v-0.52H31.386z"/>
	<path class="st0" d="M32.935,4.789c-0.311,0-0.562-0.095-0.757-0.285c-0.195-0.19-0.292-0.443-0.292-0.76V3.689
		c0-0.212,0.041-0.402,0.123-0.569s0.198-0.296,0.349-0.387s0.321-0.136,0.515-0.136c0.289,0,0.517,0.091,0.683,0.273
		s0.249,0.44,0.249,0.775v0.23h-1.346c0.018,0.138,0.073,0.249,0.165,0.332s0.208,0.125,0.349,0.125c0.218,0,0.388-0.079,0.51-0.236
		l0.277,0.311c-0.085,0.12-0.199,0.213-0.344,0.28S33.11,4.789,32.935,4.789z M32.87,3.052c-0.112,0-0.203,0.038-0.272,0.114
		c-0.069,0.075-0.114,0.184-0.134,0.325h0.785V3.447c-0.003-0.126-0.036-0.223-0.102-0.292C33.082,3.086,32.99,3.052,32.87,3.052z"
		/>
	<path class="st0" d="M34.543,2.636l0.018,0.244c0.151-0.188,0.354-0.283,0.607-0.283c0.224,0,0.391,0.065,0.5,0.197
		s0.165,0.328,0.168,0.59V4.75h-0.564V3.395c0-0.12-0.026-0.207-0.078-0.262c-0.052-0.054-0.139-0.081-0.26-0.081
		c-0.159,0-0.278,0.068-0.357,0.203V4.75h-0.564V2.636H34.543z"/>
	<path class="st0" d="M36.076,3.677c0-0.329,0.074-0.592,0.222-0.787s0.35-0.293,0.606-0.293c0.206,0,0.376,0.077,0.51,0.23V1.75
		h0.566v3h-0.51l-0.027-0.225c-0.141,0.176-0.321,0.264-0.543,0.264c-0.249,0-0.448-0.098-0.599-0.294S36.076,4.026,36.076,3.677z
		 M36.641,3.717c0,0.199,0.034,0.352,0.104,0.457c0.069,0.106,0.169,0.159,0.301,0.159c0.175,0,0.298-0.074,0.369-0.222V3.274
		c-0.07-0.147-0.192-0.222-0.365-0.222C36.776,3.052,36.641,3.274,36.641,3.717z"/>
	<path class="st0" d="M39.291,4.789c-0.31,0-0.562-0.095-0.757-0.285s-0.292-0.443-0.292-0.76V3.689
		c0-0.212,0.041-0.402,0.123-0.569s0.198-0.296,0.349-0.387s0.322-0.136,0.515-0.136c0.289,0,0.517,0.091,0.683,0.273
		s0.249,0.44,0.249,0.775v0.23h-1.346c0.019,0.138,0.073,0.249,0.165,0.332s0.208,0.125,0.349,0.125c0.218,0,0.388-0.079,0.51-0.236
		l0.277,0.311c-0.085,0.12-0.199,0.213-0.344,0.28S39.467,4.789,39.291,4.789z M39.227,3.052c-0.112,0-0.203,0.038-0.272,0.114
		C38.885,3.242,38.84,3.35,38.82,3.492h0.785V3.447c-0.003-0.126-0.036-0.223-0.102-0.292C39.438,3.086,39.347,3.052,39.227,3.052z"
		/>
	<path class="st0" d="M40.899,2.636l0.018,0.244c0.151-0.188,0.354-0.283,0.607-0.283c0.224,0,0.391,0.065,0.5,0.197
		s0.165,0.328,0.168,0.59V4.75h-0.564V3.395c0-0.12-0.026-0.207-0.078-0.262c-0.052-0.054-0.139-0.081-0.26-0.081
		c-0.159,0-0.278,0.068-0.357,0.203V4.75h-0.564V2.636H40.899z"/>
	<path class="st0" d="M43.196,2.117v0.52h0.361V3.05h-0.361v1.055c0,0.078,0.015,0.134,0.045,0.168s0.087,0.051,0.172,0.051
		c0.062,0,0.118-0.005,0.166-0.014v0.428c-0.11,0.034-0.225,0.051-0.342,0.051c-0.396,0-0.598-0.2-0.605-0.6V3.05h-0.309V2.636
		h0.309v-0.52H43.196z"/>
	<path class="st0" d="M44.846,4.994h-0.42l1.047-3.088h0.42L44.846,4.994z"/>
	<path class="st0" d="M48.601,4.164h-1.027L47.378,4.75h-0.623l1.059-2.844h0.543l1.064,2.844h-0.623L48.601,4.164z M47.731,3.689
		h0.711l-0.357-1.064L47.731,3.689z"/>
	<path class="st0" d="M50.694,4.166c0-0.069-0.034-0.123-0.103-0.163s-0.178-0.075-0.329-0.106
		c-0.503-0.105-0.754-0.319-0.754-0.641c0-0.188,0.078-0.344,0.233-0.47s0.359-0.188,0.61-0.188c0.269,0,0.482,0.063,0.644,0.189
		s0.241,0.29,0.241,0.492h-0.564c0-0.081-0.026-0.147-0.078-0.2S50.461,3,50.351,3c-0.095,0-0.169,0.021-0.221,0.064
		s-0.078,0.098-0.078,0.164c0,0.062,0.029,0.113,0.089,0.151s0.159,0.071,0.3,0.1s0.259,0.06,0.355,0.095
		c0.298,0.109,0.447,0.299,0.447,0.568c0,0.192-0.083,0.349-0.248,0.468s-0.379,0.179-0.641,0.179c-0.177,0-0.334-0.031-0.472-0.095
		s-0.245-0.149-0.323-0.26s-0.117-0.229-0.117-0.356h0.535c0.005,0.101,0.042,0.177,0.111,0.23s0.161,0.08,0.277,0.08
		c0.108,0,0.189-0.021,0.245-0.062S50.694,4.232,50.694,4.166z"/>
	<path class="st0" d="M52.65,4.166c0-0.069-0.034-0.123-0.103-0.163s-0.178-0.075-0.329-0.106c-0.503-0.105-0.754-0.319-0.754-0.641
		c0-0.188,0.078-0.344,0.233-0.47s0.359-0.188,0.61-0.188c0.269,0,0.482,0.063,0.644,0.189s0.241,0.29,0.241,0.492h-0.564
		c0-0.081-0.026-0.147-0.078-0.2S52.417,3,52.307,3c-0.095,0-0.169,0.021-0.221,0.064s-0.078,0.098-0.078,0.164
		c0,0.062,0.029,0.113,0.089,0.151s0.159,0.071,0.3,0.1s0.259,0.06,0.355,0.095c0.298,0.109,0.447,0.299,0.447,0.568
		c0,0.192-0.083,0.349-0.248,0.468s-0.379,0.179-0.641,0.179c-0.177,0-0.334-0.031-0.472-0.095s-0.245-0.149-0.323-0.26
		s-0.117-0.229-0.117-0.356h0.535c0.005,0.101,0.042,0.177,0.111,0.23s0.161,0.08,0.277,0.08c0.108,0,0.189-0.021,0.245-0.062
		S52.65,4.232,52.65,4.166z"/>
	<path class="st0" d="M53.459,2.089c0-0.085,0.028-0.154,0.085-0.209s0.134-0.082,0.231-0.082c0.097,0,0.173,0.027,0.23,0.082
		s0.086,0.124,0.086,0.209c0,0.086-0.029,0.156-0.087,0.211s-0.135,0.082-0.229,0.082S53.604,2.355,53.546,2.3
		S53.459,2.175,53.459,2.089z M54.059,4.75h-0.566V2.636h0.566V4.75z"/>
	<path class="st0" d="M55.568,4.166c0-0.069-0.034-0.123-0.103-0.163s-0.178-0.075-0.329-0.106
		c-0.503-0.105-0.754-0.319-0.754-0.641c0-0.188,0.078-0.344,0.233-0.47s0.359-0.188,0.61-0.188c0.269,0,0.482,0.063,0.644,0.189
		s0.241,0.29,0.241,0.492h-0.564c0-0.081-0.026-0.147-0.078-0.2S55.335,3,55.225,3c-0.095,0-0.169,0.021-0.221,0.064
		s-0.078,0.098-0.078,0.164c0,0.062,0.029,0.113,0.089,0.151s0.159,0.071,0.3,0.1s0.259,0.06,0.355,0.095
		c0.298,0.109,0.447,0.299,0.447,0.568c0,0.192-0.083,0.349-0.248,0.468s-0.379,0.179-0.641,0.179c-0.177,0-0.334-0.031-0.472-0.095
		s-0.245-0.149-0.323-0.26s-0.117-0.229-0.117-0.356h0.535c0.005,0.101,0.042,0.177,0.111,0.23s0.161,0.08,0.277,0.08
		c0.108,0,0.189-0.021,0.245-0.062S55.568,4.232,55.568,4.166z"/>
	<path class="st0" d="M57.056,2.117v0.52h0.361V3.05h-0.361v1.055c0,0.078,0.015,0.134,0.045,0.168s0.087,0.051,0.172,0.051
		c0.062,0,0.118-0.005,0.166-0.014v0.428c-0.11,0.034-0.225,0.051-0.342,0.051c-0.396,0-0.598-0.2-0.605-0.6V3.05h-0.309V2.636
		h0.309v-0.52H57.056z"/>
	<path class="st0" d="M58.856,4.75C58.83,4.699,58.812,4.635,58.8,4.56c-0.137,0.152-0.314,0.229-0.533,0.229
		c-0.207,0-0.379-0.06-0.515-0.18s-0.204-0.271-0.204-0.453c0-0.224,0.083-0.396,0.249-0.516s0.406-0.181,0.72-0.182h0.26V3.337
		c0-0.098-0.025-0.176-0.075-0.234s-0.129-0.088-0.237-0.088c-0.095,0-0.17,0.022-0.224,0.068s-0.081,0.108-0.081,0.188h-0.564
		c0-0.122,0.038-0.235,0.113-0.34s0.183-0.186,0.32-0.245s0.293-0.089,0.465-0.089c0.261,0,0.467,0.065,0.62,0.196
		s0.229,0.314,0.229,0.552v0.916c0.001,0.2,0.029,0.353,0.084,0.455V4.75H58.856z M58.39,4.357c0.083,0,0.16-0.019,0.23-0.056
		s0.122-0.087,0.156-0.149V3.789h-0.211c-0.282,0-0.433,0.098-0.451,0.293l-0.002,0.033c0,0.07,0.024,0.128,0.074,0.174
		S58.304,4.357,58.39,4.357z"/>
	<path class="st0" d="M60.195,2.636l0.018,0.244c0.151-0.188,0.354-0.283,0.607-0.283c0.224,0,0.391,0.065,0.5,0.197
		s0.165,0.328,0.168,0.59V4.75h-0.564V3.395c0-0.12-0.026-0.207-0.078-0.262c-0.052-0.054-0.139-0.081-0.26-0.081
		c-0.159,0-0.278,0.068-0.357,0.203V4.75h-0.564V2.636H60.195z"/>
	<path class="st0" d="M62.492,2.117v0.52h0.361V3.05h-0.361v1.055c0,0.078,0.015,0.134,0.045,0.168s0.087,0.051,0.172,0.051
		c0.062,0,0.118-0.005,0.166-0.014v0.428c-0.11,0.034-0.225,0.051-0.342,0.051c-0.396,0-0.598-0.2-0.605-0.6V3.05h-0.309V2.636
		h0.309v-0.52H62.492z"/>
	<path class="st0" d="M65.476,4.003c0-0.11-0.039-0.195-0.117-0.255s-0.219-0.122-0.422-0.188s-0.364-0.131-0.482-0.194
		c-0.323-0.175-0.484-0.409-0.484-0.705c0-0.153,0.043-0.291,0.13-0.411s0.211-0.215,0.373-0.282s0.344-0.102,0.546-0.102
		c0.203,0,0.384,0.037,0.543,0.11s0.282,0.178,0.37,0.312s0.132,0.286,0.132,0.457h-0.586c0-0.13-0.041-0.231-0.123-0.304
		s-0.197-0.108-0.346-0.108c-0.144,0-0.255,0.03-0.334,0.091s-0.119,0.141-0.119,0.239c0,0.093,0.047,0.17,0.14,0.232
		s0.23,0.121,0.411,0.176c0.333,0.101,0.576,0.225,0.729,0.373S66.063,3.778,66.063,4c0,0.246-0.093,0.439-0.279,0.579
		s-0.437,0.21-0.752,0.21c-0.219,0-0.418-0.04-0.598-0.12s-0.316-0.189-0.411-0.329s-0.142-0.301-0.142-0.484h0.588
		c0,0.313,0.188,0.471,0.562,0.471c0.14,0,0.248-0.028,0.326-0.085S65.476,4.105,65.476,4.003z"/>
	<path class="st0" d="M67.589,4.535c-0.14,0.169-0.332,0.254-0.578,0.254c-0.227,0-0.399-0.065-0.519-0.195s-0.18-0.321-0.183-0.572
		V2.636h0.564v1.367c0,0.22,0.101,0.33,0.301,0.33c0.191,0,0.323-0.066,0.395-0.199V2.636h0.566V4.75h-0.531L67.589,4.535z"/>
	<path class="st0" d="M70.363,3.712c0,0.325-0.074,0.586-0.222,0.782s-0.348,0.294-0.599,0.294c-0.214,0-0.386-0.074-0.518-0.223
		v0.996h-0.564V2.636h0.523l0.02,0.207c0.137-0.164,0.315-0.246,0.535-0.246c0.261,0,0.463,0.097,0.607,0.289
		s0.217,0.458,0.217,0.797V3.712z M69.799,3.669c0-0.197-0.035-0.35-0.104-0.457c-0.069-0.106-0.171-0.16-0.304-0.16
		c-0.177,0-0.299,0.068-0.365,0.204v0.867c0.069,0.14,0.192,0.21,0.369,0.21C69.664,4.333,69.799,4.112,69.799,3.669z"/>
	<path class="st0" d="M71.586,4.789c-0.31,0-0.562-0.095-0.757-0.285s-0.292-0.443-0.292-0.76V3.689
		c0-0.212,0.041-0.402,0.123-0.569s0.198-0.296,0.349-0.387s0.322-0.136,0.515-0.136c0.289,0,0.517,0.091,0.683,0.273
		s0.249,0.44,0.249,0.775v0.23h-1.346c0.019,0.138,0.073,0.249,0.165,0.332s0.208,0.125,0.349,0.125c0.218,0,0.388-0.079,0.51-0.236
		l0.277,0.311c-0.085,0.12-0.199,0.213-0.344,0.28S71.762,4.789,71.586,4.789z M71.521,3.052c-0.112,0-0.203,0.038-0.272,0.114
		c-0.069,0.075-0.114,0.184-0.134,0.325H71.9V3.447c-0.003-0.126-0.036-0.223-0.102-0.292C71.733,3.086,71.642,3.052,71.521,3.052z"
		/>
	<path class="st0" d="M73.863,3.166C73.786,3.155,73.719,3.15,73.66,3.15c-0.214,0-0.354,0.072-0.42,0.217V4.75h-0.564V2.636h0.533
		l0.016,0.252c0.113-0.194,0.271-0.291,0.471-0.291c0.062,0,0.121,0.009,0.176,0.025L73.863,3.166z"/>
	<path class="st0" d="M74.03,2.089c0-0.085,0.028-0.154,0.085-0.209s0.134-0.082,0.231-0.082c0.097,0,0.173,0.027,0.23,0.082
		s0.086,0.124,0.086,0.209c0,0.086-0.029,0.156-0.087,0.211s-0.135,0.082-0.229,0.082S74.175,2.355,74.117,2.3
		S74.03,2.175,74.03,2.089z M74.63,4.75h-0.566V2.636h0.566V4.75z"/>
	<path class="st0" d="M75.515,2.636l0.018,0.244c0.151-0.188,0.354-0.283,0.607-0.283c0.224,0,0.391,0.065,0.5,0.197
		s0.165,0.328,0.168,0.59V4.75h-0.564V3.395c0-0.12-0.026-0.207-0.078-0.262c-0.052-0.054-0.139-0.081-0.26-0.081
		c-0.159,0-0.278,0.068-0.357,0.203V4.75h-0.564V2.636H75.515z"/>
	<path class="st0" d="M77.811,2.117v0.52h0.361V3.05h-0.361v1.055c0,0.078,0.015,0.134,0.045,0.168s0.087,0.051,0.172,0.051
		c0.062,0,0.118-0.005,0.166-0.014v0.428c-0.11,0.034-0.225,0.051-0.342,0.051c-0.396,0-0.598-0.2-0.605-0.6V3.05h-0.309V2.636
		h0.309v-0.52H77.811z"/>
	<path class="st0" d="M79.359,4.789c-0.31,0-0.562-0.095-0.757-0.285s-0.292-0.443-0.292-0.76V3.689
		c0-0.212,0.041-0.402,0.123-0.569s0.198-0.296,0.349-0.387s0.322-0.136,0.515-0.136c0.289,0,0.517,0.091,0.683,0.273
		s0.249,0.44,0.249,0.775v0.23h-1.346c0.019,0.138,0.073,0.249,0.165,0.332s0.208,0.125,0.349,0.125c0.218,0,0.388-0.079,0.51-0.236
		l0.277,0.311c-0.085,0.12-0.199,0.213-0.344,0.28S79.535,4.789,79.359,4.789z M79.295,3.052c-0.112,0-0.203,0.038-0.272,0.114
		c-0.069,0.075-0.114,0.184-0.134,0.325h0.785V3.447c-0.003-0.126-0.036-0.223-0.102-0.292C79.507,3.086,79.415,3.052,79.295,3.052z
		"/>
	<path class="st0" d="M80.969,2.636l0.018,0.244c0.151-0.188,0.354-0.283,0.607-0.283c0.224,0,0.391,0.065,0.5,0.197
		s0.165,0.328,0.168,0.59V4.75h-0.564V3.395c0-0.12-0.026-0.207-0.078-0.262c-0.052-0.054-0.139-0.081-0.26-0.081
		c-0.159,0-0.278,0.068-0.357,0.203V4.75h-0.564V2.636H80.969z"/>
	<path class="st0" d="M82.501,3.677c0-0.329,0.074-0.592,0.222-0.787s0.35-0.293,0.606-0.293c0.206,0,0.376,0.077,0.51,0.23V1.75
		h0.566v3h-0.51l-0.027-0.225c-0.141,0.176-0.321,0.264-0.543,0.264c-0.249,0-0.448-0.098-0.599-0.294S82.501,4.026,82.501,3.677z
		 M83.065,3.717c0,0.199,0.034,0.352,0.104,0.457c0.069,0.106,0.169,0.159,0.301,0.159c0.175,0,0.298-0.074,0.369-0.222V3.274
		c-0.07-0.147-0.192-0.222-0.365-0.222C83.201,3.052,83.065,3.274,83.065,3.717z"/>
	<path class="st0" d="M85.716,4.789c-0.31,0-0.562-0.095-0.757-0.285s-0.292-0.443-0.292-0.76V3.689
		c0-0.212,0.041-0.402,0.123-0.569s0.198-0.296,0.349-0.387s0.322-0.136,0.515-0.136c0.289,0,0.517,0.091,0.683,0.273
		s0.249,0.44,0.249,0.775v0.23h-1.346c0.019,0.138,0.073,0.249,0.165,0.332s0.208,0.125,0.349,0.125c0.218,0,0.388-0.079,0.51-0.236
		l0.277,0.311c-0.085,0.12-0.199,0.213-0.344,0.28S85.892,4.789,85.716,4.789z M85.651,3.052c-0.112,0-0.203,0.038-0.272,0.114
		c-0.069,0.075-0.114,0.184-0.134,0.325h0.785V3.447c-0.003-0.126-0.036-0.223-0.102-0.292C85.863,3.086,85.771,3.052,85.651,3.052z
		"/>
	<path class="st0" d="M87.324,2.636l0.018,0.244c0.151-0.188,0.354-0.283,0.607-0.283c0.224,0,0.391,0.065,0.5,0.197
		s0.165,0.328,0.168,0.59V4.75h-0.564V3.395c0-0.12-0.026-0.207-0.078-0.262c-0.052-0.054-0.139-0.081-0.26-0.081
		c-0.159,0-0.278,0.068-0.357,0.203V4.75h-0.564V2.636H87.324z"/>
	<path class="st0" d="M89.621,2.117v0.52h0.361V3.05h-0.361v1.055c0,0.078,0.015,0.134,0.045,0.168s0.087,0.051,0.172,0.051
		c0.062,0,0.118-0.005,0.166-0.014v0.428c-0.11,0.034-0.225,0.051-0.342,0.051c-0.396,0-0.598-0.2-0.605-0.6V3.05h-0.309V2.636
		h0.309v-0.52H89.621z"/>
	<path class="st0" d="M91.271,4.994h-0.42l1.047-3.088h0.42L91.271,4.994z"/>
</g>
</svg>
