<?xml version="1.0" encoding="utf-8"?>
<!-- Generator: Adobe Illustrator 21.0.2, SVG Export Plug-In . SVG Version: 6.00 Build 0)  -->
<svg version="1.1" id="Layer_1" xmlns="http://www.w3.org/2000/svg" xmlns:xlink="http://www.w3.org/1999/xlink" x="0px" y="0px"
	 viewBox="0 0 100 20" style="enable-background:new 0 0 100 20;" xml:space="preserve">
<style type="text/css">
	.st0{fill:#98A4AE;}
	.st1{font-family:'Roboto-Bold';}
	.st2{font-size:6px;}
</style>
<text transform="matrix(1 0 0 1 17.3225 13.5828)" class="st0 st1 st2">Superintendents</text>
<g>
	<path class="st0" d="M15.919,12.08c-0.183-0.954-0.747-1.516-1.636-1.813c-1.006-0.336-2.075-0.564-2.881-1.387
		c-0.041-0.042-0.137-0.025-0.355-0.057c0.841,2.337,0.044,4.332-0.912,6.301c0.06-1.256-0.799-2.551,0.167-3.732
		c-0.861-1.077-1.331-1.066-2.067,0.026c0.957,1.196,0.077,2.497,0.165,3.753c-1.072-1.954-1.667-4.004-0.995-6.383
		C7.098,8.919,6.94,8.938,6.857,9.031C6.277,9.683,5.5,9.863,4.731,10.09c-0.428,0.126-0.844,0.323-1.238,0.544
		c-0.211,0.118-0.431,0.319-0.531,0.542c-0.799,1.789-0.027,3.722-0.196,5.685c4.959,0,8.024,0,13.087,0
		C15.558,15.226,16.221,13.65,15.919,12.08z M11.331,15.516c0.599-0.681,1.1-1.25,1.666-1.894c0.345,0.656,0.644,1.223,0.997,1.894
		C13.121,15.516,12.33,15.516,11.331,15.516z"/>
	<path class="st0" d="M6.052,6.513c0.154,0.2,0.26,0.417,0.369,0.638C6.7,7.724,7.022,8.267,7.495,8.697
		C8.07,9.22,8.735,9.422,9.491,9.256c0.485-0.106,0.877-0.381,1.214-0.745c0.457-0.493,0.769-1.083,1.042-1.697
		c0.022-0.05,0.047-0.104,0.084-0.143c0.332-0.346,0.468-0.769,0.454-1.247c-0.003-0.104-0.023-0.181-0.052-0.249
		c0.521-1.379,0.127-2.605-1.108-3.411c-1.373-0.897-3.199-0.689-4.33,0.492c-0.872,0.91-1.59,2.188-1.053,3.126
		C5.692,5.798,5.799,6.184,6.052,6.513z M8.505,3.964c0.994,0.366,1.969,0.549,3.047,0.016c0.014,0.041,0.028,0.074,0.043,0.113
		l-0.103,0.17c-0.074,0.476,0.069,0.843,0.193,0.874c0.121,0.03,0.18,0.143,0.188,0.26c0.025,0.361-0.073,0.684-0.313,0.958
		c-0.065,0.074-0.127,0.155-0.167,0.244c-0.222,0.494-0.437,0.993-0.754,1.434C10.026,8.884,8.93,9.15,8.046,8.664
		C7.693,8.47,7.429,8.175,7.233,7.824c-0.22-0.396-0.407-0.812-0.614-1.215C6.573,6.518,6.513,6.431,6.447,6.354
		C6.208,6.08,6.113,5.757,6.135,5.396C6.138,5.346,6.163,5.293,6.19,5.25c0.08-0.131,0.302-0.764,0.344-1.128
		C6.928,3.696,7.724,3.676,8.505,3.964z"/>
</g>
</svg>
