<?xml version="1.0" encoding="utf-8"?>
<!-- Generator: Adobe Illustrator 21.1.0, SVG Export Plug-In . SVG Version: 6.00 Build 0)  -->
<svg version="1.1" id="Layer_1" xmlns="http://www.w3.org/2000/svg" xmlns:xlink="http://www.w3.org/1999/xlink" x="0px" y="0px"
	 viewBox="0 0 100 20" style="enable-background:new 0 0 100 20;" xml:space="preserve">
<style type="text/css">
	.st0{fill:#98A4AE;}
</style>
<g>
	<path class="st0" d="M20.914,10.029h-1.307v3.554h-0.879v-3.554h-1.289V9.317h3.475C20.914,9.317,20.914,10.029,20.914,10.029z"/>
	<path class="st0" d="M22.408,13.642c-0.465,0-0.843-0.143-1.135-0.428s-0.438-0.665-0.438-1.14v-0.082
		c0-0.318,0.062-0.603,0.185-0.854c0.123-0.25,0.297-0.443,0.523-0.58c0.226-0.135,0.483-0.203,0.772-0.203
		c0.434,0,0.775,0.137,1.024,0.41s0.374,0.661,0.374,1.163v0.346h-2.019c0.027,0.207,0.11,0.373,0.248,0.498
		s0.312,0.188,0.523,0.188c0.326,0,0.581-0.118,0.765-0.354l0.416,0.466c-0.127,0.18-0.299,0.32-0.516,0.421
		C22.912,13.591,22.671,13.642,22.408,13.642z M22.311,11.037c-0.168,0-0.304,0.057-0.409,0.171
		c-0.104,0.113-0.171,0.276-0.201,0.488h1.178v-0.067c-0.004-0.188-0.055-0.334-0.152-0.438
		C22.629,11.089,22.491,11.037,22.311,11.037z"/>
	<path class="st0" d="M25.879,13.583c-0.039-0.076-0.067-0.171-0.085-0.284c-0.205,0.229-0.472,0.343-0.8,0.343
		c-0.311,0-0.568-0.09-0.772-0.27s-0.306-0.406-0.306-0.68c0-0.336,0.125-0.594,0.374-0.773s0.609-0.271,1.08-0.272h0.39v-0.182
		c0-0.146-0.038-0.264-0.113-0.352s-0.194-0.132-0.356-0.132c-0.143,0-0.254,0.034-0.335,0.103s-0.122,0.162-0.122,0.281h-0.847
		c0-0.184,0.057-0.354,0.17-0.51s0.273-0.278,0.48-0.368c0.207-0.088,0.439-0.133,0.697-0.133c0.391,0,0.701,0.098,0.93,0.295
		c0.229,0.195,0.344,0.472,0.344,0.827v1.374c0.002,0.301,0.044,0.528,0.126,0.683v0.05C26.734,13.583,25.879,13.583,25.879,13.583z
		 M25.179,12.994c0.125,0,0.24-0.028,0.346-0.083c0.105-0.057,0.184-0.131,0.234-0.225v-0.545h-0.316
		c-0.424,0-0.649,0.146-0.677,0.439l-0.003,0.05c0,0.105,0.037,0.192,0.111,0.261S25.05,12.994,25.179,12.994z"/>
	<path class="st0" d="M28.427,12.959c0.156,0,0.283-0.043,0.381-0.129s0.148-0.2,0.152-0.343h0.794
		c-0.002,0.215-0.061,0.412-0.176,0.59c-0.115,0.18-0.273,0.318-0.473,0.416c-0.2,0.099-0.421,0.148-0.664,0.148
		c-0.453,0-0.811-0.144-1.072-0.432s-0.393-0.687-0.393-1.194V11.96c0-0.488,0.13-0.878,0.39-1.169s0.616-0.437,1.069-0.437
		c0.396,0,0.714,0.113,0.954,0.338c0.239,0.227,0.361,0.526,0.365,0.901H28.96c-0.004-0.165-0.055-0.299-0.152-0.402
		c-0.098-0.103-0.227-0.154-0.387-0.154c-0.197,0-0.346,0.072-0.447,0.216s-0.151,0.377-0.151,0.699v0.089
		c0,0.326,0.05,0.561,0.149,0.704C28.072,12.888,28.224,12.959,28.427,12.959z"/>
	<path class="st0" d="M30.914,10.759c0.225-0.27,0.507-0.404,0.847-0.404c0.688,0,1.036,0.399,1.045,1.198v2.03H31.96v-2.012
		c0-0.182-0.039-0.316-0.117-0.403s-0.208-0.131-0.39-0.131c-0.248,0-0.428,0.096-0.539,0.288v2.258h-0.847v-4.5h0.847V10.759z"/>
	<path class="st0" d="M34.754,13.642c-0.465,0-0.844-0.143-1.136-0.428s-0.438-0.665-0.438-1.14v-0.082
		c0-0.318,0.062-0.603,0.185-0.854c0.123-0.25,0.298-0.443,0.522-0.58c0.227-0.135,0.483-0.203,0.772-0.203
		c0.434,0,0.774,0.137,1.024,0.41c0.248,0.273,0.373,0.661,0.373,1.163v0.346h-2.019c0.027,0.207,0.11,0.373,0.247,0.498
		c0.139,0.125,0.312,0.188,0.523,0.188c0.326,0,0.581-0.118,0.765-0.354l0.416,0.466c-0.127,0.18-0.299,0.32-0.516,0.421
		C35.258,13.591,35.018,13.642,34.754,13.642z M34.657,11.037c-0.168,0-0.305,0.057-0.408,0.171
		c-0.105,0.113-0.172,0.276-0.201,0.488h1.178v-0.067c-0.004-0.188-0.055-0.334-0.152-0.438
		C34.976,11.089,34.837,11.037,34.657,11.037z"/>
	<path class="st0" d="M38.169,11.207c-0.115-0.016-0.217-0.023-0.305-0.023c-0.32,0-0.53,0.108-0.63,0.325v2.074h-0.847v-3.17h0.8
		l0.023,0.378c0.17-0.291,0.405-0.437,0.706-0.437c0.094,0,0.182,0.013,0.264,0.038L38.169,11.207z"/>
</g>
</svg>
