<?xml version="1.0" encoding="utf-8"?>
<!-- Generator: Adobe Illustrator 21.0.2, SVG Export Plug-In . SVG Version: 6.00 Build 0)  -->
<svg version="1.1" id="Layer_1" xmlns="http://www.w3.org/2000/svg" xmlns:xlink="http://www.w3.org/1999/xlink" x="0px" y="0px"
	 viewBox="0 0 100 20" style="enable-background:new 0 0 100 20;" xml:space="preserve">
<style type="text/css">
	.st0{fill:#98A4AE;}
</style>
<g>
	<path class="st0" d="M20.914,10.029h-1.307v3.554h-0.879v-3.554h-1.289V9.317h3.475V10.029z"/>
	<path class="st0" d="M22.408,13.642c-0.465,0-0.843-0.143-1.135-0.428s-0.438-0.665-0.438-1.14v-0.082
		c0-0.318,0.062-0.603,0.185-0.854c0.123-0.25,0.297-0.443,0.523-0.58c0.226-0.135,0.483-0.203,0.772-0.203
		c0.434,0,0.775,0.137,1.024,0.41s0.374,0.661,0.374,1.163v0.346h-2.019c0.027,0.207,0.11,0.373,0.248,0.498
		s0.312,0.188,0.523,0.188c0.326,0,0.581-0.118,0.765-0.354l0.416,0.466c-0.127,0.18-0.299,0.32-0.516,0.421
		C22.912,13.591,22.671,13.642,22.408,13.642z M22.311,11.037c-0.168,0-0.304,0.057-0.409,0.171
		c-0.104,0.113-0.171,0.276-0.201,0.488h1.178v-0.067c-0.004-0.188-0.055-0.334-0.152-0.438
		C22.629,11.089,22.491,11.037,22.311,11.037z"/>
	<path class="st0" d="M25.879,13.583c-0.039-0.076-0.067-0.171-0.085-0.284c-0.205,0.229-0.472,0.343-0.8,0.343
		c-0.311,0-0.568-0.09-0.772-0.27s-0.306-0.406-0.306-0.68c0-0.336,0.125-0.594,0.374-0.773s0.609-0.271,1.08-0.272h0.39v-0.182
		c0-0.146-0.038-0.264-0.113-0.352s-0.194-0.132-0.356-0.132c-0.143,0-0.254,0.034-0.335,0.103s-0.122,0.162-0.122,0.281h-0.847
		c0-0.184,0.057-0.354,0.17-0.51s0.273-0.278,0.48-0.368c0.207-0.088,0.439-0.133,0.697-0.133c0.391,0,0.701,0.098,0.93,0.295
		c0.229,0.195,0.344,0.472,0.344,0.827v1.374c0.002,0.301,0.044,0.528,0.126,0.683v0.05H25.879z M25.179,12.994
		c0.125,0,0.24-0.028,0.346-0.083c0.105-0.057,0.184-0.131,0.234-0.225v-0.545h-0.316c-0.424,0-0.649,0.146-0.677,0.439l-0.003,0.05
		c0,0.105,0.037,0.192,0.111,0.261S25.05,12.994,25.179,12.994z"/>
	<path class="st0" d="M28.427,12.959c0.156,0,0.283-0.043,0.381-0.129s0.148-0.2,0.152-0.343h0.794
		c-0.002,0.215-0.061,0.412-0.176,0.59c-0.115,0.18-0.273,0.318-0.473,0.416c-0.2,0.099-0.421,0.148-0.664,0.148
		c-0.453,0-0.811-0.144-1.072-0.432s-0.393-0.687-0.393-1.194V11.96c0-0.488,0.13-0.878,0.39-1.169s0.616-0.437,1.069-0.437
		c0.396,0,0.714,0.113,0.954,0.338c0.239,0.227,0.361,0.526,0.365,0.901H28.96c-0.004-0.165-0.055-0.299-0.152-0.402
		c-0.098-0.103-0.227-0.154-0.387-0.154c-0.197,0-0.346,0.072-0.447,0.216s-0.151,0.377-0.151,0.699v0.089
		c0,0.326,0.05,0.561,0.149,0.704C28.072,12.888,28.224,12.959,28.427,12.959z"/>
	<path class="st0" d="M30.914,10.759c0.225-0.27,0.507-0.404,0.847-0.404c0.688,0,1.036,0.399,1.045,1.198v2.03h-0.846v-2.012
		c0-0.182-0.039-0.316-0.117-0.403s-0.208-0.131-0.39-0.131c-0.248,0-0.428,0.096-0.539,0.288v2.258h-0.847v-4.5h0.847V10.759z"/>
	<path class="st0" d="M34.754,13.642c-0.465,0-0.844-0.143-1.136-0.428s-0.438-0.665-0.438-1.14v-0.082
		c0-0.318,0.062-0.603,0.185-0.854c0.123-0.25,0.298-0.443,0.522-0.58c0.227-0.135,0.483-0.203,0.772-0.203
		c0.434,0,0.774,0.137,1.024,0.41c0.248,0.273,0.373,0.661,0.373,1.163v0.346h-2.019c0.027,0.207,0.11,0.373,0.247,0.498
		c0.139,0.125,0.312,0.188,0.523,0.188c0.326,0,0.581-0.118,0.765-0.354l0.416,0.466c-0.127,0.18-0.299,0.32-0.516,0.421
		C35.258,13.591,35.018,13.642,34.754,13.642z M34.657,11.037c-0.168,0-0.305,0.057-0.408,0.171
		c-0.105,0.113-0.172,0.276-0.201,0.488h1.178v-0.067c-0.004-0.188-0.055-0.334-0.152-0.438
		C34.976,11.089,34.837,11.037,34.657,11.037z"/>
	<path class="st0" d="M38.169,11.207c-0.115-0.016-0.217-0.023-0.305-0.023c-0.32,0-0.53,0.108-0.63,0.325v2.074h-0.847v-3.17h0.8
		l0.023,0.378c0.17-0.291,0.405-0.437,0.706-0.437c0.094,0,0.182,0.013,0.264,0.038L38.169,11.207z"/>
	<path class="st0" d="M40.144,12.707c0-0.104-0.052-0.185-0.153-0.245c-0.104-0.059-0.268-0.112-0.494-0.159
		c-0.754-0.158-1.131-0.479-1.131-0.961c0-0.281,0.116-0.516,0.35-0.704s0.539-0.283,0.916-0.283c0.402,0,0.724,0.095,0.965,0.284
		s0.362,0.436,0.362,0.738h-0.847c0-0.121-0.039-0.222-0.117-0.3c-0.078-0.08-0.2-0.119-0.366-0.119
		c-0.143,0-0.253,0.032-0.331,0.097s-0.117,0.146-0.117,0.246c0,0.094,0.044,0.17,0.133,0.228s0.239,0.107,0.45,0.148
		c0.211,0.043,0.389,0.09,0.533,0.143c0.447,0.164,0.671,0.448,0.671,0.853c0,0.289-0.124,0.522-0.372,0.702
		c-0.248,0.178-0.568,0.268-0.961,0.268c-0.266,0-0.502-0.048-0.708-0.143c-0.206-0.094-0.367-0.224-0.484-0.389
		s-0.176-0.344-0.176-0.535h0.803c0.008,0.15,0.063,0.266,0.167,0.346s0.242,0.12,0.416,0.12c0.162,0,0.284-0.03,0.368-0.093
		C40.102,12.888,40.144,12.807,40.144,12.707z"/>
</g>
<g>
	<g>
		<g>
			<path class="st0" d="M4.701,15.856c0.011,0.091,0.125,0.093,0.144,0.01c0.225,0.109,0.494,0.072,0.74,0.074
				c0.073,0.001,0.147,0.002,0.22,0.003c0.539,0.063,1.092,0.029,1.633,0.029c0.58-0.001,1.159-0.001,1.739-0.002
				c1.197-0.001,2.43,0.081,3.623-0.018c0.032-0.003,0.051-0.02,0.061-0.041c0.013,0.007,0.027,0.009,0.042,0.006
				c0.712-0.184,0.656-0.958,0.614-1.547c-0.037-0.524-0.161-1.363-0.794-1.483c-0.02-0.004-0.036,0-0.049,0.007
				c-1.084-0.085-2.192-0.023-3.279-0.021c-0.967,0.002-1.96-0.055-2.929,0.007c-0.505-0.026-1.029,0.015-1.521,0.014
				c-0.057,0-0.087,0.042-0.09,0.087c-0.02,0.005-0.038,0.017-0.043,0.04c-0.019,0.082-0.02,0.168-0.022,0.252
				c-0.001,0.063-0.013,0.135,0.009,0.195c-0.004,0.039,0.02,0.079,0.073,0.084c0.104,0.009,0.209,0.015,0.313,0.022
				c0.001,0.003,0,0.006,0.001,0.01c0.18,0.572,0.289,1.12,0.009,1.674c-0.005,0.009-0.006,0.019-0.006,0.028
				c-0.131,0.011-0.259,0.028-0.38,0.058c-0.028,0.007-0.04,0.034-0.037,0.059c-0.031,0.001-0.061,0.023-0.067,0.067
				C4.688,15.592,4.685,15.73,4.701,15.856z M5.339,13.582c1.09,0.057,2.203-0.009,3.289-0.01c1.178-0.001,2.359,0.033,3.532-0.061
				c0.002,0.003,0.002,0.006,0.005,0.008c0.042,0.043,0.102,0.064,0.163,0.074c-0.034,0.293-0.017,0.594-0.018,0.888
				c-0.001,0.275-0.027,0.562,0.007,0.837c-1.279-0.07-2.577-0.013-3.858-0.014c-0.63,0-1.26,0-1.891,0
				c-0.379,0-0.805-0.044-1.209-0.031c0.052-0.048,0.09-0.108,0.121-0.173c0.838,0.101,1.713,0.021,2.552,0.003
				c0.066-0.001,0.066-0.101,0-0.103c-0.825-0.018-1.686-0.094-2.511-0.001c0.026-0.083,0.043-0.174,0.049-0.27
				c0.905,0.074,1.82,0.04,2.728,0.039c0.867-0.001,1.735,0.006,2.603-0.012c0.089-0.002,0.089-0.136,0-0.138
				c-0.915-0.02-1.832-0.011-2.747-0.012c-0.86-0.001-1.724-0.031-2.581,0.039C5.577,14.266,5.454,13.838,5.339,13.582z"/>
			<path class="st0" d="M6.136,14.035c0.9-0.103,1.831-0.044,2.736-0.043c0.897,0,1.846-0.085,2.736,0.022
				c0.086,0.01,0.086,0.123,0,0.133c-0.89,0.107-1.839,0.022-2.736,0.022c-0.905,0-1.835,0.06-2.736-0.043
				C6.078,14.119,6.078,14.042,6.136,14.035z"/>
		</g>
		<g>
			<path class="st0" d="M11.412,12.143c-0.006-0.043-0.036-0.065-0.067-0.067c0.003-0.025-0.008-0.052-0.037-0.059
				c-0.122-0.03-0.249-0.047-0.38-0.058c0-0.009-0.001-0.019-0.006-0.028c-0.28-0.554-0.171-1.102,0.009-1.674
				c0.001-0.003,0-0.007,0.001-0.01c0.104-0.007,0.209-0.013,0.313-0.022c0.053-0.005,0.077-0.046,0.073-0.084
				c0.021-0.06,0.009-0.132,0.009-0.195c-0.001-0.084-0.002-0.17-0.022-0.252c-0.005-0.023-0.023-0.034-0.043-0.04
				c-0.003-0.044-0.032-0.087-0.09-0.087c-0.492,0.001-1.016-0.04-1.521-0.014C8.683,9.493,7.69,9.55,6.723,9.548
				C5.636,9.546,4.528,9.484,3.444,9.569C3.431,9.562,3.415,9.558,3.395,9.562c-0.633,0.12-0.757,0.959-0.794,1.483
				c-0.042,0.59-0.097,1.363,0.614,1.547c0.015,0.004,0.029,0.001,0.042-0.006c0.01,0.021,0.03,0.038,0.061,0.041
				c1.193,0.099,2.425,0.017,3.623,0.018c0.58,0.001,1.159,0.001,1.739,0.002c0.541,0.001,1.094,0.034,1.633-0.029
				c0.073-0.001,0.147-0.002,0.22-0.003c0.246-0.002,0.515,0.035,0.74-0.074c0.019,0.083,0.133,0.081,0.144-0.01
				C11.431,12.406,11.428,12.268,11.412,12.143z M10.543,11.322c-0.857-0.07-1.721-0.04-2.581-0.039
				c-0.915,0.001-1.832-0.007-2.747,0.012c-0.089,0.002-0.089,0.136,0,0.138c0.867,0.018,1.735,0.011,2.603,0.012
				c0.908,0.001,1.823,0.035,2.728-0.039c0.006,0.096,0.023,0.186,0.049,0.27C9.77,11.584,8.91,11.66,8.084,11.678
				c-0.066,0.001-0.066,0.101,0,0.103c0.839,0.018,1.714,0.097,2.552-0.003c0.032,0.065,0.069,0.125,0.121,0.173
				c-0.404-0.013-0.829,0.03-1.209,0.031c-0.63,0-1.26,0-1.891,0c-1.28,0-2.579-0.057-3.858,0.014
				c0.034-0.275,0.008-0.562,0.007-0.837c-0.001-0.294,0.016-0.595-0.018-0.888c0.061-0.01,0.121-0.03,0.163-0.074
				c0.002-0.003,0.003-0.006,0.005-0.008c1.173,0.094,2.355,0.06,3.532,0.061c1.086,0.001,2.199,0.067,3.289,0.01
				C10.663,10.514,10.54,10.943,10.543,11.322z"/>
			<path class="st0" d="M9.981,10.712c-0.9-0.103-1.831-0.044-2.736-0.043c-0.897,0-1.846-0.085-2.736,0.022
				c-0.086,0.01-0.086,0.123,0,0.133c0.89,0.107,1.839,0.022,2.736,0.022c0.905,0,1.835,0.06,2.736-0.043
				C10.039,10.795,10.039,10.718,9.981,10.712z"/>
		</g>
	</g>
	<g>
		<path class="st0" d="M5.579,9.473C5.58,9.486,5.583,9.498,5.587,9.511C5.593,9.533,5.62,9.535,5.633,9.518
			c0.404,0.316,1.015,0.418,1.413,0.077c0.007-0.003,0.013-0.006,0.019-0.013c0.031-0.036,0.072-0.059,0.114-0.071
			c0.02-0.005,0.038-0.001,0.056-0.009C7.252,9.51,7.271,9.506,7.291,9.511c0.043,0.011,0.083,0.035,0.114,0.071
			c0.006,0.007,0.012,0.011,0.019,0.013C7.872,9.98,8.593,9.802,8.98,9.388c0.529-0.565,0.736-1.373,0.707-2.185
			c0.008-0.594-0.142-1.302-0.547-1.674c-0.507-0.467-1.076-0.291-1.63-0.037C7.472,5.501,7.432,5.516,7.393,5.533
			C7.358,5.53,7.323,5.529,7.287,5.529C7.291,5.47,7.291,5.411,7.292,5.352C7.335,5.366,7.38,5.374,7.42,5.379
			c0.164,0.022,0.312-0.006,0.458-0.082c0.231-0.119,0.368-0.417,0.33-0.674c0.058-0.033,0.073-0.134-0.01-0.147
			C7.885,4.428,7.501,4.595,7.295,4.859c0.003-0.153,0.006-0.307-0.03-0.455c-0.011-0.045-0.079-0.045-0.09,0
			C7.129,4.592,7.147,4.79,7.147,4.982c0,0.054,0,0.109-0.001,0.164C7.129,5.158,7.123,5.18,7.127,5.201
			C7.13,5.22,7.137,5.236,7.146,5.251c0,0.093,0.001,0.185,0.007,0.277C7.127,5.529,7.102,5.531,7.076,5.533
			C7.037,5.516,6.997,5.501,6.959,5.492c-0.554-0.254-1.123-0.43-1.63,0.037C5.077,5.761,4.924,6.122,4.846,6.506
			c-0.01,0.017-0.02,0.033-0.03,0.05C4.807,6.573,4.814,6.593,4.828,6.604C4.794,6.805,4.779,7.01,4.782,7.203
			C4.753,8.015,4.96,8.823,5.489,9.388C5.517,9.418,5.547,9.446,5.579,9.473z M5.687,9.383c0.012-0.057,0.017-0.116,0.026-0.172
			C5.716,9.197,5.718,9.184,5.72,9.17C5.719,9.176,5.718,9.18,5.718,9.187l0.026,0.23c0,0.002,0,0.003,0.001,0.005
			C5.725,9.409,5.706,9.397,5.687,9.383z M5.209,8.839c0.012,0.007,0.027,0.008,0.037-0.004C5.387,8.659,5.44,8.398,5.518,8.189
			c0.026-0.069-0.084-0.098-0.11-0.03C5.331,8.362,5.203,8.591,5.193,8.811c-0.101-0.189-0.17-0.398-0.218-0.615
			C4.983,8.198,4.993,8.198,5,8.191c0.166-0.176,0.278-0.423,0.402-0.63c0.036-0.06-0.059-0.116-0.094-0.055
			c-0.116,0.204-0.27,0.417-0.344,0.641C4.92,7.932,4.896,7.709,4.882,7.489c0.007-0.001,0.014-0.003,0.02-0.008
			c0.119-0.105,0.199-0.253,0.289-0.383C5.305,6.931,5.419,6.766,5.532,6.6c0.04-0.058-0.054-0.112-0.094-0.055l-0.305,0.44
			C5.047,7.11,4.943,7.233,4.875,7.369C4.874,7.345,4.873,7.321,4.872,7.297C4.887,7.214,4.9,7.132,4.913,7.05
			c0.12-0.107,0.211-0.252,0.308-0.379c0.136-0.177,0.272-0.355,0.409-0.532C5.667,6.09,5.581,6.024,5.542,6.072
			C5.419,6.229,5.297,6.385,5.174,6.542c-0.07,0.089-0.153,0.18-0.225,0.276c0.017-0.11,0.035-0.218,0.059-0.326
			c0.095-0.087,0.181-0.186,0.27-0.279c0.145-0.152,0.309-0.31,0.42-0.49c0.028-0.046-0.031-0.114-0.079-0.079
			c-0.152,0.115-0.273,0.27-0.4,0.41c-0.042,0.046-0.086,0.093-0.13,0.141c0.038-0.112,0.086-0.222,0.147-0.33
			C5.651,5.139,6.387,5.373,6.969,5.64C6.981,5.645,6.991,5.645,7,5.642c0.051,0.025,0.104,0.046,0.153,0.06
			c0.016,0.005,0.03,0,0.04-0.009C7.217,5.705,7.246,5.7,7.264,5.679c0.011,0.018,0.03,0.029,0.052,0.023
			c0.049-0.014,0.102-0.035,0.153-0.06C7.479,5.645,7.489,5.645,7.501,5.64c0.582-0.267,1.318-0.5,1.734,0.227
			c0.256,0.449,0.272,0.932,0.364,1.43c-0.027,0.66-0.12,1.368-0.552,1.846C8.557,9.684,8.017,9.731,7.416,9.425
			C7.414,9.423,7.411,9.423,7.408,9.422C7.366,9.388,7.315,9.371,7.261,9.371c-0.008,0-0.017,0.003-0.026,0.007
			C7.226,9.374,7.217,9.371,7.209,9.371c-0.055,0-0.105,0.018-0.147,0.051C7.059,9.423,7.056,9.423,7.053,9.425
			C6.936,9.484,6.822,9.529,6.709,9.56c0.005-0.027,0.002-0.057,0.002-0.081c-0.001-0.065-0.1-0.065-0.101,0
			c0,0.033-0.005,0.074,0.009,0.105C6.574,9.593,6.53,9.601,6.486,9.605C6.494,9.576,6.497,9.545,6.5,9.512
			C6.508,9.43,6.516,9.348,6.524,9.266C6.529,9.21,6.436,9.198,6.427,9.252C6.413,9.334,6.399,9.415,6.385,9.496
			C6.378,9.537,6.372,9.575,6.376,9.612C6.297,9.613,6.22,9.607,6.144,9.591c0.004-0.002,0.009-0.004,0.012-0.008
			c0.041-0.044,0.04-0.1,0.043-0.158c0.004-0.075,0.005-0.152-0.017-0.224c-0.013-0.04-0.064-0.037-0.078,0
			c-0.024,0.063-0.028,0.13-0.031,0.197C6.069,9.463,6.064,9.53,6.105,9.582c-0.081-0.02-0.161-0.049-0.239-0.089
			c-0.002-0.025-0.007-0.05-0.01-0.076l-0.03-0.23C5.818,9.128,5.737,9.119,5.721,9.163C5.737,9.06,5.754,8.956,5.77,8.852
			c0.011-0.07-0.096-0.1-0.107-0.03L5.607,9.182C5.601,9.22,5.593,9.261,5.586,9.302C5.531,9.254,5.477,9.202,5.424,9.143
			C5.34,9.05,5.269,8.948,5.209,8.839z"/>
		<path class="st0" d="M8.221,5.941c0.251,0.105,0.442,0.218,0.588,0.457C8.957,6.64,8.902,6.891,8.896,7.154
			C8.895,7.216,8.979,7.235,9.01,7.185c0.332-0.539-0.196-1.306-0.772-1.37C8.16,5.806,8.161,5.916,8.221,5.941z"/>
		<path class="st0" d="M9.005,7.371c-0.107,0-0.107,0.166,0,0.166C9.112,7.537,9.112,7.371,9.005,7.371z"/>
		<path class="st0" d="M5.314,7.015C5.256,7.116,5.198,7.218,5.139,7.319c-0.051,0.089-0.12,0.18-0.142,0.282
			C4.991,7.632,5.026,7.653,5.05,7.631c0.077-0.069,0.122-0.174,0.174-0.263c0.059-0.101,0.118-0.202,0.178-0.303
			C5.435,7.01,5.347,6.958,5.314,7.015z"/>
		<path class="st0" d="M5.315,7.909c-0.072,0.14-0.17,0.288-0.199,0.445C5.11,8.384,5.146,8.41,5.17,8.385
			c0.111-0.114,0.174-0.277,0.247-0.416C5.453,7.901,5.35,7.841,5.315,7.909z"/>
		<path class="st0" d="M5.62,8.507C5.638,8.44,5.535,8.412,5.516,8.479C5.492,8.565,5.468,8.651,5.444,8.737
			C5.423,8.813,5.39,8.893,5.4,8.972c0.003,0.025,0.037,0.051,0.059,0.024c0.045-0.057,0.06-0.124,0.079-0.194
			C5.565,8.704,5.593,8.606,5.62,8.507z"/>
		<path class="st0" d="M6.869,9.465c0.047-0.082,0.033-0.189,0.034-0.28c0.001-0.072-0.113-0.072-0.112,0
			c0.001,0.091-0.013,0.198,0.034,0.28C6.834,9.482,6.86,9.482,6.869,9.465z"/>
	</g>
</g>
</svg>
