<?xml version="1.0" encoding="utf-8"?>
<!-- Generator: Adobe Illustrator 21.0.2, SVG Export Plug-In . SVG Version: 6.00 Build 0)  -->
<svg version="1.1" id="Layer_1" xmlns="http://www.w3.org/2000/svg" xmlns:xlink="http://www.w3.org/1999/xlink" x="0px" y="0px"
	 viewBox="0 0 800 100" style="enable-background:new 0 0 800 100;" xml:space="preserve">
<style type="text/css">
	.st0{fill:#3C4852;}
</style>
<g>
	<path class="st0" d="M68.464,46.013c-4.999,0.006-9.997,0.009-14.996-0.005c-0.455-0.001-0.527,0.184-0.521,0.575
		c0.02,1.146,0.048,2.295-0.009,3.439c-0.032,0.651,0.189,0.786,0.8,0.781c3.325-0.029,6.65-0.01,9.974-0.019
		c0.368-0.001,0.627,0.01,0.535,0.505c-0.396,2.138-1.127,4.101-2.761,5.633c-3.15,2.954-6.931,3.812-11.028,2.966
		c-8.035-1.661-12.267-10.257-8.864-17.748c2.178-4.794,7.172-7.688,12.346-7.241c2.723,0.235,5.112,1.181,7.15,2.991
		c0.336,0.299,0.543,0.28,0.845-0.034c0.826-0.859,1.665-1.709,2.534-2.524c0.361-0.338,0.34-0.529-0.019-0.848
		c-2.383-2.116-5.093-3.546-8.254-4.109c-0.798-0.142-1.627-0.079-2.398-0.378c-0.596,0-1.193,0-1.789,0
		c-0.671,0.314-1.411,0.238-2.116,0.369c-7.749,1.441-13.456,7.39-14.525,15.174c-0.02,0.148,0.04,0.331-0.149,0.421
		c0,0.092,0,0.183,0,0.275c0,0.826,0,1.651,0,2.477c0,0.138,0,0.275,0,0.413c0.215,0.108,0.137,0.32,0.162,0.487
		c0.677,4.684,2.848,8.529,6.564,11.451c4.127,3.245,8.829,4.391,14.013,3.636c4.455-0.648,8.043-2.779,10.594-6.464
		c2.449-3.538,2.98-7.562,2.515-11.765C69.025,46.065,68.804,46.012,68.464,46.013z"/>
	<path class="st0" d="M141.209,43.703c0.001-0.376-0.093-0.525-0.496-0.517c-1.238,0.023-2.476,0.024-3.714,0
		c-0.419-0.008-0.503,0.17-0.482,0.532c0.023,0.414,0.005,0.83,0.005,1.328c-0.188-0.117-0.253-0.143-0.299-0.188
		c-2.215-2.211-4.906-2.759-7.859-2.11c-4.74,1.041-8.382,5.349-8.635,10.093c-0.281,5.276,2.681,9.924,7.474,11.524
		c3.263,1.089,6.33,0.764,8.935-1.736c0.092-0.088,0.155-0.241,0.368-0.162c0,0.763,0.036,1.538-0.006,2.31
		c-0.195,3.619-2.496,5.862-5.993,5.788c-2.479-0.052-4.228-1.336-5.365-3.478c-0.228-0.429-0.409-0.468-0.821-0.284
		c-1.044,0.468-2.1,0.91-3.169,1.317c-0.459,0.175-0.535,0.374-0.312,0.802c1.262,2.428,3.1,4.218,5.643,5.289
		c0.888,0.374,1.849,0.44,2.736,0.79c0.917,0,1.835,0,2.752,0c0.095-0.186,0.278-0.12,0.426-0.142
		c1.868-0.277,3.598-0.892,5.072-2.109c2.597-2.145,3.63-5.065,3.681-8.274C141.261,57.552,141.193,50.627,141.209,43.703z
		 M135.783,57.687c-1.183,2.017-3.066,3.03-5.429,2.78c-2.77-0.293-4.513-1.934-5.387-4.533c-0.235-0.697-0.342-1.425-0.315-1.883
		c0.007-2.327,0.669-4.1,2.174-5.518c2.649-2.497,6.811-2.08,8.787,0.971C137.331,52.155,137.377,54.97,135.783,57.687z"/>
	<path class="st0" d="M157.232,56.87c1.74-0.696,3.469-1.422,5.202-2.134c3.103-1.274,6.206-2.546,9.31-3.82
		c0-0.046,0-0.092,0-0.138c-0.557-0.809-0.766-1.779-1.229-2.636c-3.881-7.18-11.817-6.812-15.951-2.957
		c-2.838,2.647-3.858,5.991-3.482,9.782c0.462,4.662,3.596,8.376,7.978,9.555c4.565,1.228,9.293-0.378,12.073-4.075
		c0.281-0.373,0.318-0.554-0.119-0.82c-0.899-0.547-1.794-1.112-2.626-1.754c-0.57-0.44-0.831-0.338-1.264,0.205
		c-2.766,3.477-7.921,3.227-10.143-0.439C156.715,57.199,156.787,57.048,157.232,56.87z M156.367,53.164
		c-0.723,0.303-0.389-0.258-0.462-0.461c0.16-4.041,4.252-6.899,7.833-5.5c0.83,0.324,1.51,0.839,1.985,1.613
		c0.176,0.287,0.132,0.431-0.181,0.56C162.48,50.631,159.418,51.886,156.367,53.164z"/>
	<path class="st0" d="M82.359,42.51c-6.391,0.02-11.233,4.874-11.22,11.246c0.014,6.31,4.971,11.207,11.318,11.181
		c6.289-0.026,11.214-4.972,11.195-11.244C93.634,47.338,88.738,42.49,82.359,42.51z M87.482,57.801
		c-2.545,3.616-7.676,3.603-10.199-0.026c-2.546-3.662-1.017-8.983,3.009-10.476c0.694-0.258,1.411-0.386,2.155-0.38
		c2.016,0.08,3.678,0.873,4.898,2.499C89.136,51.803,89.183,55.384,87.482,57.801z"/>
	<path class="st0" d="M106.71,42.511c-6.377-0.018-11.293,4.847-11.3,11.182c-0.007,6.278,4.916,11.22,11.2,11.245
		c6.316,0.025,11.297-4.864,11.323-11.112C117.96,47.401,113.127,42.528,106.71,42.511z M109.472,59.81
		c-2.783,1.456-6.03,0.599-7.856-1.972c-1.798-2.532-1.705-6.283,0.295-8.65c1.655-1.959,3.81-2.692,6.296-2.054
		c2.576,0.661,4.049,2.454,4.635,5.01c0.118,0.516,0.167,1.04,0.157,1.576C112.922,56.383,111.899,58.539,109.472,59.81z"/>
	<path class="st0" d="M148.213,31.36c-1.122,0.047-2.249,0.053-3.37-0.002c-0.613-0.03-0.752,0.147-0.751,0.752
		c0.023,7.591,0.015,15.183,0.015,22.774c0,2.913,0.014,5.826-0.013,8.738c-0.005,0.527,0.148,0.658,0.656,0.642
		c1.168-0.038,2.34-0.045,3.508,0.002c0.562,0.023,0.672-0.167,0.67-0.69c-0.019-5.229-0.011-10.458-0.011-15.687
		c0-5.275-0.01-10.55,0.015-15.825C148.935,31.48,148.778,31.336,148.213,31.36z"/>
</g>
<g id="_x32_Ehok9.tif">
	<g>
		<path class="st0" d="M294.074,43.73c5.088-1.908,10.173-3.822,15.268-5.709c0.349-0.129,0.803-0.156,1.16-0.058
			c2.569,0.707,5.123,1.466,7.688,2.19c0.368,0.104,0.487,0.274,0.486,0.654c-0.01,7.817-0.01,15.633-0.001,23.45
			c0,0.373-0.1,0.549-0.479,0.651c-2.606,0.702-5.204,1.436-7.81,2.137c-0.268,0.072-0.605,0.066-0.864-0.029
			c-4.906-1.792-9.806-3.603-14.706-5.411c-0.064-0.024-0.121-0.066-0.288-0.16c5.183,0.709,10.247,1.402,15.376,2.104
			c0-7.046,0-14.048,0-21.125c-0.254,0.045-0.486,0.074-0.712,0.128c-3.019,0.715-6.034,1.445-9.058,2.141
			c-0.502,0.115-0.665,0.312-0.662,0.836c0.022,4.374,0.006,8.748,0.023,13.121c0.002,0.459-0.132,0.665-0.573,0.826
			c-1.464,0.536-2.906,1.136-4.36,1.7c-0.148,0.057-0.325,0.038-0.488,0.054C294.074,55.396,294.074,49.563,294.074,43.73z"/>
		<path class="st0" d="M356.715,61.299c-0.616,0-1.141,0.018-1.663-0.014c-0.112-0.007-0.275-0.179-0.304-0.301
			c-0.051-0.217-0.02-0.453-0.02-0.682c0-3.057,0.001-6.113,0.001-9.17c0-0.206,0-0.413,0-0.654c-1.661,0-3.267,0-4.956,0
			c0,0.233,0,0.455,0,0.676c0,3.179-0.009,6.359,0.009,9.538c0.003,0.476-0.122,0.631-0.617,0.62
			c-1.387-0.031-1.387-0.007-1.387-1.37c0-2.934,0-5.867,0-8.801c0-0.208,0-0.416,0-0.697c-0.716,0-1.39,0-2.096,0
			c0-0.573,0-1.073,0-1.67c0.535,0,1.071-0.014,1.606,0.005c0.359,0.013,0.499-0.113,0.495-0.485
			c-0.008-0.737-0.012-1.477,0.047-2.211c0.206-2.537,2.44-4.144,4.935-3.583c0.321,0.072,0.48,0.204,0.45,0.563
			c-0.034,0.414-0.008,0.833-0.008,1.246c-0.444-0.075-0.837-0.183-1.233-0.2c-1.139-0.049-1.934,0.523-2.098,1.64
			c-0.139,0.946-0.106,1.918-0.151,2.925c1.697,0,3.302,0,5.001,0c0-0.21-0.011-0.43,0.002-0.648
			c0.055-0.908-0.01-1.847,0.202-2.718c0.506-2.082,2.426-3.283,4.887-2.758c0.134,0.029,0.318,0.226,0.329,0.357
			c0.04,0.466,0.016,0.938,0.016,1.406c-0.443-0.075-0.835-0.181-1.232-0.2c-1.171-0.056-1.988,0.576-2.127,1.733
			c-0.102,0.85-0.078,1.718-0.067,2.578c0.001,0.111,0.254,0.307,0.398,0.314c0.683,0.034,1.37,0.028,2.054,0.012
			c0.326-0.007,0.489,0.08,0.466,0.441c-0.025,0.38-0.006,0.762-0.006,1.216c-0.781,0-1.496,0-2.21,0
			c-0.725,0.001-0.726,0.001-0.726,0.703c0,3.162,0,6.324,0,9.486C356.715,60.804,356.715,61.013,356.715,61.299z"/>
		<path class="st0" d="M344.273,52.28c0,1.681-0.243,3.213-0.896,4.664c-1.13,2.509-3.046,4.012-5.757,4.503
			c-2.729,0.494-5.211-0.011-7.321-1.877c-1.321-1.168-2.067-2.695-2.437-4.395c-0.457-2.101-0.372-4.198,0.32-6.235
			c1.128-3.324,3.523-5.1,6.966-5.494c3.507-0.401,6.624,1.224,8.111,4.197C344.004,49.133,344.312,50.722,344.273,52.28z
			 M342.168,52.169c-0.05-0.417-0.099-1.19-0.239-1.946c-0.497-2.685-2.336-4.57-4.749-4.914c-2.945-0.42-5.301,0.762-6.597,3.327
			c-0.819,1.621-0.983,3.355-0.78,5.127c0.41,3.578,2.747,6.244,6.577,5.999c2.064-0.132,3.69-1.007,4.751-2.836
			C341.923,55.561,342.131,54.065,342.168,52.169z"/>
		<path class="st0" d="M415.19,45.596c-0.918-0.173-1.799-0.424-2.694-0.489c-1.553-0.113-2.795,0.56-3.717,1.797
			c-1.264,1.696-1.594,3.66-1.617,5.823c0.133-0.14,0.21-0.196,0.254-0.271c0.961-1.634,2.425-2.257,4.263-2.121
			c1.98,0.146,3.412,1.08,4.165,2.954c0.963,2.397,0.381,5.23-1.361,6.921c-1.778,1.724-6.012,2.381-8.092-1.028
			c-0.848-1.389-1.168-2.927-1.262-4.514c-0.145-2.444,0.092-4.844,1.14-7.097c1.013-2.175,2.579-3.711,5.048-4.084
			c1.173-0.177,2.344-0.084,3.489,0.26c0.266,0.08,0.41,0.203,0.391,0.515C415.17,44.73,415.19,45.201,415.19,45.596z
			 M414.359,56.143c-0.13-0.718-0.182-1.263-0.331-1.78c-0.366-1.269-1.188-2.093-2.517-2.319c-1.414-0.241-2.614,0.159-3.482,1.332
			c-1.306,1.765-0.837,4.664,0.936,5.952c1.574,1.144,3.872,0.651,4.742-1.092C414.05,57.55,414.176,56.754,414.359,56.143z"/>
		<path class="st0" d="M387.618,55.518c-3.025,0-5.935,0-8.832,0c-0.465,1.648,0.886,3.803,2.663,4.237
			c1.588,0.388,3.1,0.137,4.509-0.702c0.206-0.123,0.41-0.248,0.715-0.433c0,0.609,0.027,1.112-0.016,1.609
			c-0.013,0.153-0.192,0.344-0.344,0.424c-2.041,1.073-4.167,1.303-6.358,0.536c-1.032-0.361-1.793-1.081-2.361-2.01
			c-1.486-2.432-1.297-6.311,0.417-8.58c1.609-2.131,4.659-2.814,7.005-1.542c1.484,0.804,2.151,2.181,2.416,3.76
			C387.576,53.674,387.558,54.56,387.618,55.518z M378.751,53.791c2.267,0,4.497,0,6.721,0c0.177-2.035-1.034-3.549-2.876-3.653
			C380.611,50.025,378.787,51.746,378.751,53.791z"/>
		<path class="st0" d="M420.964,45.48c-0.12,1.766-0.234,3.457-0.352,5.188c0.527,0,0.978,0.011,1.428-0.002
			c1.082-0.032,2.141,0.08,3.15,0.492c2.044,0.835,3.12,2.658,3.006,5.067c-0.135,2.865-2.044,4.932-4.913,5.297
			c-1.442,0.183-2.869,0.12-4.273-0.303c-0.524-0.158-0.8-0.422-0.721-1.018c0.057-0.425,0.011-0.865,0.011-1.377
			c0.347,0.175,0.605,0.312,0.869,0.436c1.449,0.677,2.948,0.931,4.495,0.4c1.724-0.592,2.679-2.159,2.492-4.001
			c-0.176-1.733-1.364-2.974-3.195-3.173c-1.075-0.117-2.171-0.057-3.257-0.064c-0.314-0.002-0.628,0.039-1.052,0.067
			c0.197-2.923,0.392-5.8,0.589-8.715c2.704,0,5.381,0,8.097,0c0,0.553,0,1.105,0,1.706C425.22,45.48,423.137,45.48,420.964,45.48z"
			/>
		<path class="st0" d="M393.451,46.259c0-0.607-0.023-1.099,0.014-1.586c0.012-0.153,0.153-0.365,0.291-0.43
			c2.042-0.953,4.149-1.223,6.256-0.291c1.559,0.689,2.315,1.991,2.305,3.699c-0.012,1.897-0.823,3.302-2.605,4.075
			c-0.25,0.109-0.504,0.209-0.896,0.37c0.444,0.109,0.743,0.168,1.034,0.255c3.061,0.913,4.142,4.484,2.13,7.038
			c-0.775,0.983-1.769,1.645-2.989,1.94c-1.889,0.458-3.752,0.401-5.581-0.311c-0.478-0.186-0.742-0.448-0.665-1.014
			c0.059-0.43,0.012-0.875,0.012-1.386c0.177,0.092,0.315,0.149,0.437,0.23c1.549,1.014,3.228,1.296,5.033,0.919
			c1.53-0.319,2.576-1.473,2.672-2.973c0.109-1.705-0.618-2.891-2.244-3.356c-0.914-0.261-1.896-0.295-2.851-0.401
			c-0.394-0.044-0.798-0.007-1.23-0.007c0-0.568,0-1.069,0-1.669c0.326,0,0.654,0.028,0.975-0.005
			c0.885-0.092,1.803-0.09,2.643-0.341c1.628-0.486,2.294-1.769,2.041-3.606c-0.19-1.379-1.199-2.202-2.828-2.316
			c-1.173-0.082-2.264,0.172-3.276,0.771C393.938,45.978,393.744,46.089,393.451,46.259z"/>
		<path class="st0" d="M375.128,50.887c-0.879-0.258-1.681-0.635-2.511-0.712c-2.654-0.245-4.699,1.571-4.85,4.25
			c-0.043,0.763-0.029,1.56,0.145,2.298c0.623,2.643,3.246,3.904,5.867,2.87c0.434-0.171,0.842-0.408,1.329-0.648
			c0,0.56,0.016,1.08-0.012,1.596c-0.007,0.12-0.141,0.276-0.258,0.341c-2.202,1.216-5.217,0.942-7.127-0.666
			c-1.382-1.163-1.869-2.76-2.035-4.478c-0.104-1.079,0.062-2.136,0.436-3.155c1.022-2.785,3.354-4.311,6.397-4.121
			c0.759,0.048,1.506,0.285,2.257,0.442c0.285,0.06,0.381,0.244,0.368,0.538C375.111,49.945,375.128,50.45,375.128,50.887z"/>
		<path class="st0" d="M363.501,61.298c-0.159,0.007-0.295,0.018-0.431,0.018c-0.453,0.002-0.906,0.001-1.435,0.001
			c0-4.179,0-8.312,0-12.504c0.608,0,1.211,0,1.866,0C363.501,52.968,363.501,57.115,363.501,61.298z"/>
		<path class="st0" d="M362.611,45.508c-0.757,0.006-1.295-0.529-1.293-1.289c0.001-0.745,0.555-1.291,1.305-1.286
			c0.705,0.005,1.284,0.572,1.294,1.265C363.928,44.906,363.332,45.503,362.611,45.508z"/>
	</g>
</g>
<g>
	<g id="xrx8KN.tif">
		<g>
			<path class="st0" d="M602.181,59.459c-0.843,0.258-1.514,0.464-2.338,0.716c0-5.244,0-10.215,0-15.348
				c0.67-0.035,1.318-0.068,2.13-0.11c0,1.756,0,3.394,0,5.233c0.48-0.279,0.748-0.455,1.033-0.597
				c1.253-0.627,2.445-0.316,3.245,0.837c1.365,1.969,1.362,6.625-0.005,8.581C605.062,60.463,603.608,60.626,602.181,59.459z
				 M605.241,54.464c-0.214-0.869-0.318-1.869-0.709-2.74c-0.49-1.09-1.898-1.078-2.074,0.037c-0.292,1.846-0.166,3.769-0.079,5.654
				c0.015,0.323,0.739,0.887,1.087,0.852c0.432-0.043,1.016-0.517,1.173-0.939C604.959,56.464,605.038,55.512,605.241,54.464z"/>
			<path class="st0" d="M552.821,59.45c-0.838,0.266-1.485,0.472-2.28,0.725c0-5.286,0-10.294,0-15.367c0.714,0,1.33,0,2.089,0
				c0,1.712,0,3.354,0,5.202c0.422-0.27,0.645-0.426,0.879-0.561c1.354-0.78,2.797-0.483,3.504,0.908
				c1.385,2.724,1.341,5.556-0.006,8.252C556.063,60.497,554.324,60.644,552.821,59.45z M552.536,54.767
				c0.151,0.844,0.163,1.862,0.53,2.73c0.479,1.134,1.656,1.163,2.112,0.077c0.785-1.869,0.812-3.83,0.058-5.725
				c-0.153-0.384-0.776-0.863-1.118-0.817c-0.429,0.057-1,0.541-1.14,0.963C552.703,52.826,552.683,53.74,552.536,54.767z"/>
			<path class="st0" d="M538.464,49.679c0-1.669,0-3.196,0-4.859c0.683-0.035,1.294-0.065,2.08-0.105c0,5.103,0,10.1,0,15.376
				c-0.696-0.18-1.382-0.357-2.348-0.607c-1.93,1.406-3.895,0.903-4.518-1.851c-0.417-1.845-0.413-3.912-0.055-5.775
				C534.123,49.259,535.924,48.547,538.464,49.679z M538.569,54.606c-0.145-0.941-0.193-1.892-0.475-2.768
				c-0.119-0.372-0.71-0.772-1.121-0.814c-0.33-0.034-0.893,0.376-1.043,0.723c-0.81,1.882-0.845,3.829-0.045,5.72
				c0.164,0.387,0.759,0.84,1.132,0.821c0.384-0.02,0.94-0.517,1.068-0.918C538.365,56.492,538.42,55.543,538.569,54.606z"/>
			<path class="st0" d="M569.715,59.808c1.128-4.882,2.256-9.762,3.389-14.663c0.856,0,1.573,0,2.501,0
				c1.025,4.854,2.058,9.749,3.091,14.642c-1.98,0.5-2.108,0.423-2.492-1.464c-0.034-0.167-0.05-0.338-0.083-0.506
				c-0.379-1.884-0.951-2.269-2.865-1.838c-0.258,0.058-0.564,0.361-0.654,0.618c-0.211,0.6-0.303,1.242-0.444,1.866
				C571.764,60.204,571.716,60.232,569.715,59.808z M575.425,54.113c-0.372-1.969-0.723-3.831-1.075-5.693
				c-0.081,0.005-0.163,0.01-0.244,0.015c-0.344,1.862-0.689,3.724-1.05,5.677C573.891,54.113,574.588,54.113,575.425,54.113z"/>
			<path class="st0" d="M532.493,59.845c-1.931,0.357-1.926,0.356-2.297-1.408c-0.166-0.79-0.357-1.574-0.566-2.492
				c-0.755,0-1.488-0.083-2.187,0.035c-0.352,0.059-0.77,0.422-0.93,0.757c-0.233,0.487-0.264,1.071-0.375,1.615
				c-0.374,1.844-0.419,1.873-2.45,1.476c1.054-4.663,2.124-9.321,3.143-13.989c0.172-0.786,0.659-0.81,1.223-0.738
				c0.564,0.072,1.375-0.381,1.579,0.597c0.975,4.676,1.937,9.356,2.9,14.034C532.54,59.767,532.508,59.808,532.493,59.845z
				 M528.309,48.409c-0.091,0.001-0.182,0.003-0.273,0.004c-0.344,1.884-0.688,3.768-1.036,5.677c0.88,0,1.571,0,2.363,0
				C528.995,52.112,528.652,50.26,528.309,48.409z"/>
			<path class="st0" d="M598.798,54.734c-0.267,1.068-0.433,2.308-0.894,3.426c-0.563,1.366-1.717,2.078-3.25,2.027
				c-1.454-0.049-2.358-0.88-2.894-2.147c-0.903-2.135-0.902-4.318-0.134-6.481c0.558-1.573,1.875-2.511,3.354-2.534
				c1.388-0.022,2.595,0.88,3.154,2.545C598.455,52.527,598.559,53.555,598.798,54.734z M596.578,54.446
				c-0.233-0.943-0.353-2.026-0.775-2.974c-0.452-1.016-1.504-0.997-1.926,0.023c-0.829,2.002-0.836,4.081-0.028,6.101
				c0.141,0.352,0.721,0.789,1.035,0.744c0.401-0.057,0.93-0.499,1.062-0.89C596.256,56.533,596.361,55.548,596.578,54.446z"/>
			<path class="st0" d="M549.437,54.822c-0.246,1.015-0.385,2.224-0.838,3.301c-0.569,1.354-1.71,2.107-3.25,2.064
				c-1.46-0.041-2.373-0.881-2.909-2.151c-0.883-2.095-0.911-4.247-0.171-6.38c0.572-1.648,1.995-2.682,3.429-2.63
				c1.519,0.055,2.624,0.941,3.167,2.72C549.148,52.673,549.229,53.662,549.437,54.822z M547.278,54.45
				c-0.241-0.932-0.385-2.043-0.823-3.022c-0.42-0.939-1.481-0.947-1.862-0.025c-0.853,2.066-0.966,4.23-0.018,6.294
				c0.481,1.047,1.588,0.98,1.996-0.097C546.926,56.666,547.025,55.634,547.278,54.45z"/>
			<path class="st0" d="M614.677,60.094c-0.768-0.15-1.46-0.285-2.488-0.486c-1.52,0.94-2.914,0.819-3.842-0.607
				c-1.06-1.628-0.588-4.095,1.097-5.061c0.898-0.515,1.957-0.749,2.956-1.114c0.019-2.064-0.762-2.47-3.394-1.62
				c-0.147-0.413-0.296-0.831-0.488-1.37c1.437-0.819,2.896-1.105,4.396-0.469c1.406,0.596,1.743,1.897,1.756,3.285
				C614.693,55.035,614.677,57.417,614.677,60.094z M612.624,54.691c-2.011,0.03-2.943,1.006-2.589,2.594
				c0.097,0.435,0.591,1.028,0.971,1.083c0.387,0.056,1.131-0.382,1.236-0.744C612.511,56.697,612.513,55.692,612.624,54.691z"/>
			<path class="st0" d="M560.977,55.119c-0.209,2.479,0.926,3.604,3.13,3.189c0.671-0.126,1.209-0.074,1.169,0.644
				c-0.022,0.388-0.5,0.976-0.882,1.084c-2.714,0.769-4.907-0.53-5.503-3.284c-0.412-1.905-0.342-3.82,0.551-5.618
				c0.729-1.465,2.086-2.246,3.502-2.059c1.406,0.185,2.327,1.156,2.701,2.846c0.68,3.076,0.583,3.198-2.552,3.198
				C562.382,55.119,561.669,55.119,560.977,55.119z M563.717,53.379c0.063-1.549-0.471-2.595-1.293-2.654
				c-0.836-0.059-1.399,0.911-1.481,2.654C561.84,53.379,562.736,53.379,563.717,53.379z"/>
			<path class="st0" d="M619.054,49.15c0.723,0.053,1.307,0.095,1.95,0.142c0,0.516,0,0.967,0,1.505
				c-0.627,0.051-1.212,0.098-1.949,0.158c0,2.155-0.075,4.307,0.064,6.446c0.028,0.424,0.874,0.795,1.343,1.191
				c0.152-0.042,0.304-0.083,0.456-0.125c-0.158,0.531-0.155,1.26-0.51,1.55c-0.672,0.548-2.466,0.203-2.89-0.597
				c-0.437-0.824-0.679-1.823-0.734-2.761c-0.11-1.864-0.032-3.738-0.032-5.625c-0.458-0.12-0.818-0.214-1.225-0.32
				c0-0.444,0-0.86,0-1.336c0.362-0.092,0.719-0.182,1.186-0.3c-0.278-1.649,0.647-2.244,2.222-2.278
				C618.972,47.545,619.011,48.294,619.054,49.15z"/>
			<path class="st0" d="M585.022,58.225c0.225,1.717,0.021,1.966-1.554,1.98c-1.682,0.015-3.158-1.074-3.751-2.762
				c-0.746-2.122-0.577-4.194,0.395-6.196c0.892-1.836,2.867-2.575,5.13-1.872c-0.07,0.489-0.143,1.005-0.215,1.503
				c-2.631,0.133-3.91,1.594-3.657,4.058C581.646,57.627,582.647,58.554,585.022,58.225z"/>
			<path class="st0" d="M588.377,59.865c-0.347,0.098-0.747,0.347-1.062,0.266c-0.39-0.101-1.008-0.47-1.014-0.734
				c-0.069-3.326-0.045-6.655-0.045-10.082c0.917-0.013,1.979-0.721,2.051,0.809c0.82-0.428,1.598-0.834,2.608-1.361
				c0,1.01,0,1.627,0,2.255c-2.068,0.799-2.418,1.333-2.423,3.705c-0.004,1.625-0.014,3.249-0.027,4.874
				C588.465,59.677,588.414,59.757,588.377,59.865z"/>
		</g>
	</g>
	<g>
		<path class="st0" d="M512.256,34.528c-12.223,0-24.378,0-36.581,0c-0.016,0.356-0.042,0.666-0.042,0.975
			c-0.004,11.367-0.006,22.735-0.007,34.102c0,0.746,0.126,0.865,0.881,0.864c3.124-0.001,6.248-0.003,9.373-0.004
			c5.872-0.003,11.745-0.006,17.617-0.008c2.643-0.001,5.285,0.001,7.928-0.005c0.512-0.001,0.918-0.053,0.916-0.778
			c-0.021-11.451-0.018-22.902-0.024-34.353C512.315,35.059,512.277,34.797,512.256,34.528z M508.742,58.106
			c-0.117,0.869-0.684,1.35-1.514,1.523c-0.426,0.089-0.864,0.12-1.152,0.159c-2.913-0.12-5.223-1.307-7.291-3.032
			c-0.424-0.353-0.802-0.497-1.333-0.354c-2.382,0.64-4.773,1.245-7.147,1.913c-0.316,0.089-0.629,0.423-0.809,0.724
			c-1.261,2.101-2.588,4.15-4.367,5.861c-0.878,0.844-1.829,1.643-3.08,1.785c-0.618,0.07-1.331-0.04-1.896-0.298
			c-1.069-0.489-1.36-1.849-0.481-2.785c0.981-1.044,2.131-1.973,3.337-2.751c1.19-0.768,2.557-1.256,3.814-1.927
			c0.402-0.215,0.853-0.554,1.026-0.949c1.377-3.136,2.708-6.292,4.006-9.461c0.134-0.327,0.056-0.813-0.08-1.165
			c-0.798-2.061-1.454-4.147-1.38-6.39c0.016-0.488,0.102-0.983,0.225-1.457c0.208-0.807,0.715-1.388,1.561-1.511
			c0.844-0.123,1.575,0.185,2.1,0.874c0.794,1.043,1.043,2.289,0.859,3.516c-0.316,2.109-0.847,4.185-1.234,6.284
			c-0.081,0.438-0.087,1.03,0.144,1.361c1.176,1.683,2.441,3.304,3.676,4.945c0.404,0.537,0.894,0.647,1.581,0.543
			c2.368-0.359,4.753-0.58,7.112,0.076c0.469,0.13,0.931,0.334,1.352,0.58C508.496,56.592,508.856,57.258,508.742,58.106z"/>
		<path class="st0" d="M490.425,57.533c2.362-0.616,4.699-1.225,6.987-1.821c-1.329-1.748-2.666-3.507-4.011-5.276
			C492.422,52.771,491.432,55.131,490.425,57.533z"/>
		<path class="st0" d="M481.226,62.792c-0.539,0.358-0.973,0.974-1.264,1.566c-0.158,0.322-0.057,0.977,0.188,1.233
			c0.248,0.26,0.84,0.341,1.239,0.268c0.429-0.078,0.852-0.375,1.204-0.666c1.821-1.505,3.083-3.451,4.279-5.444
			c-0.075-0.097-0.151-0.194-0.226-0.29C484.833,60.561,482.992,61.621,481.226,62.792z"/>
		<path class="st0" d="M505.373,55.957c-2.05-0.37-4.09-0.19-6.36,0.181c1.271,1.131,2.512,1.911,3.909,2.4
			c0.712,0.249,1.483,0.423,2.233,0.448c0.993,0.034,1.641-0.605,1.684-1.441C506.879,56.743,506.347,56.133,505.373,55.957z"/>
		<path class="st0" d="M493.618,40.467c-0.03-1.241-0.466-1.852-1.177-1.882c-0.731-0.03-1.262,0.611-1.391,1.838
			c-0.235,2.237,0.371,4.323,1.284,6.361C493.048,44.721,493.67,42.654,493.618,40.467z"/>
	</g>
</g>
<g>
	<path class="st0" d="M251.292,36.973c-0.431,0.298-0.859,0.576-1.269,0.88c-1.458,1.083-2.652,2.397-3.472,4.032
		c-0.496,0.989-0.816,2.034-0.986,3.127c-0.153,0.983-0.182,1.971-0.105,2.96c0.205,2.627,1.176,4.924,2.991,6.849
		c0.951,1.008,2.017,1.87,3.245,2.52c0.328,0.174,0.666,0.329,1.017,0.501c-0.068,0.194-0.139,0.395-0.21,0.596
		c-0.826,2.329-1.91,4.529-3.305,6.571c-0.937,1.373-1.917,2.715-3.049,3.937c-0.732,0.79-1.533,1.5-2.477,2.032
		c-1.009,0.568-2.09,0.883-3.253,0.857c-0.827-0.018-1.638-0.172-2.421-0.432c-0.836-0.277-1.657-0.598-2.487-0.894
		c-1.326-0.472-2.687-0.766-4.102-0.733c-1.345,0.031-2.642,0.32-3.904,0.776c-0.669,0.242-1.33,0.507-2.001,0.744
		c-0.672,0.237-1.36,0.413-2.066,0.527c-1.239,0.2-2.405-0.007-3.512-0.586c-1.109-0.58-2.025-1.4-2.878-2.297
		c-1.027-1.08-1.91-2.276-2.783-3.48c-1.811-2.499-3.153-5.238-4.17-8.143c-0.572-1.632-1.018-3.299-1.319-5.002
		c-0.292-1.648-0.442-3.31-0.418-4.985c0.032-2.246,0.362-4.442,1.186-6.544c0.774-1.974,1.881-3.734,3.409-5.215
		c1.363-1.321,2.94-2.306,4.722-2.96c0.909-0.333,1.846-0.555,2.807-0.668c0.65-0.076,1.299-0.134,1.955-0.083
		c0.791,0.061,1.569,0.204,2.325,0.439c0.942,0.293,1.874,0.617,2.806,0.939c0.933,0.322,1.861,0.654,2.826,0.877
		c0.525,0.121,1.015,0.012,1.5-0.15c1.314-0.439,2.625-0.891,3.936-1.338c1.006-0.343,2.029-0.617,3.08-0.783
		c0.941-0.148,1.884-0.177,2.834-0.073c1.214,0.134,2.406,0.361,3.564,0.755c2.449,0.832,4.442,2.281,5.949,4.39
		C251.269,36.934,251.28,36.953,251.292,36.973z"/>
	<path class="st0" d="M230.589,31.673c-0.016-0.215-0.041-0.429-0.048-0.644c-0.069-2.12,0.55-4.053,1.624-5.855
		c1.726-2.894,4.271-4.705,7.481-5.627c0.566-0.163,1.147-0.257,1.734-0.305c0.059-0.005,0.119-0.001,0.192-0.001
		c0.014,0.156,0.032,0.31,0.04,0.465c0.118,2.341-0.495,4.484-1.757,6.448c-0.948,1.475-2.122,2.741-3.539,3.775
		c-1.059,0.772-2.216,1.336-3.505,1.611c-0.706,0.151-1.421,0.191-2.14,0.149C230.649,31.688,230.627,31.681,230.589,31.673z"/>
</g>
<g>
	<g>
		<circle class="st0" cx="671.642" cy="55.935" r="2.608"/>
		<ellipse class="st0" cx="686.916" cy="59.288" rx="1.676" ry="1.676"/>
		<path class="st0" d="M681.886,56.68c-1.118,0-1.676,0.931-1.676,1.676c0,1.118,0.931,1.676,1.676,1.676
			c1.118,0,1.676-0.931,1.676-1.676C683.563,57.611,682.818,56.68,681.886,56.68z"/>
		<ellipse class="st0" cx="685.239" cy="55.376" rx="1.118" ry="1.118"/>
		<path class="st0" d="M699.954,66.924c0,0-4.098-7.823-10.99-18.999v-6.519h0.372c0.745,0,1.118-0.559,1.118-1.118
			c0-0.559-0.745-1.118-1.118-1.118h-1.676l1.118-3.912h-8.382l0.745,3.912h-1.676c-0.745,0-1.118,0.559-1.118,1.118
			c0,0.745,0.559,1.118,1.118,1.118h0.559v2.98l0,0l-1.304,1.118c-1.304-1.118-3.166-1.676-4.843-1.863v-1.676
			c0-0.373-0.372-0.745-0.745-0.745h-2.98c-0.373,0-0.745,0.373-0.745,0.745v1.676c-1.676,0.373-3.353,1.118-4.843,2.049
			l-1.118-1.118c-0.372-0.373-0.745-0.373-0.931,0l-2.049,2.049c-0.186,0.186-0.186,0.373-0.186,0.559s0.186,0.373,0.186,0.559
			l1.118,1.118c-1.118,1.304-1.676,3.166-2.049,4.843h-1.676c-0.372,0-0.745,0.373-0.745,0.745v2.98
			c0,0.373,0.373,0.745,0.745,0.745h1.49c0.373,1.676,1.118,3.353,2.049,5.029l-1.118,1.118c-0.373,0.373-0.373,0.745,0,0.931
			l2.049,2.049c0.186,0.186,0.372,0.186,0.559,0.186s0.373-0.186,0.559-0.186l1.118-1.118c1.118,0.931,2.794,1.49,4.284,1.863
			c-0.559,2.608,0.931,5.029,3.725,5.029h23.842C699.768,72.885,700.885,69.905,699.954,66.924z M671.269,62.64
			C671.456,62.64,671.456,62.64,671.269,62.64c-3.539-0.186-6.333-3.166-6.333-6.705c0-3.725,2.98-6.705,6.706-6.705
			c2.421,0,4.47,1.118,5.588,3.166C674.808,56.307,672.76,60.033,671.269,62.64z M673.877,62.64
			c0.186-0.186,0.186-0.186,0.186-0.373c0.745-1.118,5.774-10.244,7.823-13.038l0.373-0.559h4.657l0.372,0.559
			c1.676,2.794,7.451,12.48,7.823,13.411L673.877,62.64L673.877,62.64z"/>
	</g>
	<g>
		<path class="st0" d="M710.828,58.993c0-0.631-0.163-1.131-0.49-1.499s-0.903-0.73-1.727-1.086c-1.686-0.587-2.951-1.254-3.794-2
			c-0.843-0.747-1.265-1.792-1.265-3.137c0-1.33,0.49-2.412,1.471-3.248s2.232-1.254,3.755-1.254c1.545,0,2.8,0.466,3.766,1.398
			c0.966,0.932,1.434,2.108,1.404,3.527l-0.022,0.067h-3.075c0-0.743-0.186-1.345-0.557-1.805s-0.895-0.691-1.571-0.691
			c-0.631,0-1.124,0.191-1.476,0.574c-0.353,0.383-0.529,0.864-0.529,1.443c0,0.535,0.197,0.975,0.591,1.32
			c0.394,0.345,1.077,0.73,2.05,1.153c1.538,0.52,2.695,1.179,3.471,1.978c0.776,0.799,1.164,1.877,1.164,3.237
			c0,1.404-0.468,2.503-1.404,3.298s-2.18,1.192-3.733,1.192c-1.545,0-2.884-0.451-4.017-1.354
			c-1.133-0.903-1.681-2.197-1.643-3.883l0.022-0.067h3.086c0,1.003,0.212,1.723,0.635,2.162s1.062,0.657,1.916,0.657
			c0.669,0,1.164-0.178,1.488-0.535S710.828,59.602,710.828,58.993z"/>
		<path class="st0" d="M725.525,49.533h-3.655v13.694h-3.164V49.533h-3.632v-2.529h10.452V49.533z"/>
		<path class="st0" d="M735.676,56.107h-5.449v4.591h6.407v2.529h-9.582V47.004h9.56v2.529h-6.385v4.045h5.449V56.107z"/>
		<path class="st0" d="M745.581,59.762h-4.279l-0.869,3.465h-3.198l4.568-16.223h3.298l4.557,16.223h-3.198L745.581,59.762z
			 M741.949,57.233h2.986l-1.46-5.738h-0.067L741.949,57.233z"/>
		<path class="st0" d="M754.974,47.004l2.908,11.911h0.067l2.942-11.911h4.134v16.223h-3.153v-4.713l0.267-6.307l-0.067-0.011
			l-3.098,11.031h-2.106l-3.064-10.942l-0.067,0.011l0.279,6.217v4.713h-3.153V47.004H754.974z"/>
	</g>
</g>
</svg>
