<?xml version="1.0" encoding="utf-8"?>
<!-- Generator: Adobe Illustrator 21.0.2, SVG Export Plug-In . SVG Version: 6.00 Build 0)  -->
<svg version="1.1" id="Layer_1" xmlns="http://www.w3.org/2000/svg" xmlns:xlink="http://www.w3.org/1999/xlink" x="0px" y="0px"
	 viewBox="0 0 100 20" style="enable-background:new 0 0 100 20;" xml:space="preserve">
<style type="text/css">
	.st0{fill:#98A4AE;}
</style>
<g>
	<path class="st0" d="M20.914,10.029h-1.307v3.554h-0.879v-3.554h-1.289V9.317h3.475V10.029z"/>
	<path class="st0" d="M22.408,13.642c-0.465,0-0.843-0.143-1.135-0.428s-0.438-0.665-0.438-1.14v-0.082
		c0-0.318,0.062-0.603,0.185-0.854c0.123-0.25,0.297-0.443,0.523-0.58c0.226-0.135,0.483-0.203,0.772-0.203
		c0.434,0,0.775,0.137,1.024,0.41s0.374,0.661,0.374,1.163v0.346h-2.019c0.027,0.207,0.11,0.373,0.248,0.498
		s0.312,0.188,0.523,0.188c0.326,0,0.581-0.118,0.765-0.354l0.416,0.466c-0.127,0.18-0.299,0.32-0.516,0.421
		C22.912,13.591,22.671,13.642,22.408,13.642z M22.311,11.037c-0.168,0-0.304,0.057-0.409,0.171
		c-0.104,0.113-0.171,0.276-0.201,0.488h1.178v-0.067c-0.004-0.188-0.055-0.334-0.152-0.438
		C22.629,11.089,22.491,11.037,22.311,11.037z"/>
	<path class="st0" d="M25.36,12.959c0.156,0,0.283-0.043,0.381-0.129s0.148-0.2,0.152-0.343h0.794
		c-0.002,0.215-0.061,0.412-0.176,0.59c-0.115,0.18-0.273,0.318-0.473,0.416c-0.2,0.099-0.421,0.148-0.664,0.148
		c-0.453,0-0.811-0.144-1.072-0.432s-0.393-0.687-0.393-1.194V11.96c0-0.488,0.13-0.878,0.39-1.169s0.616-0.437,1.069-0.437
		c0.396,0,0.714,0.113,0.954,0.338c0.239,0.227,0.361,0.526,0.365,0.901h-0.794c-0.004-0.165-0.055-0.299-0.152-0.402
		c-0.098-0.103-0.227-0.154-0.387-0.154c-0.197,0-0.346,0.072-0.447,0.216s-0.151,0.377-0.151,0.699v0.089
		c0,0.326,0.05,0.561,0.149,0.704C25.006,12.888,25.157,12.959,25.36,12.959z"/>
	<path class="st0" d="M27.847,10.759c0.225-0.27,0.507-0.404,0.847-0.404c0.688,0,1.036,0.399,1.046,1.198v2.03h-0.847v-2.012
		c0-0.182-0.039-0.316-0.117-0.403s-0.208-0.131-0.39-0.131c-0.248,0-0.428,0.096-0.539,0.288v2.258H27v-4.5h0.847V10.759z"/>
	<path class="st0" d="M31.007,10.413l0.026,0.366c0.227-0.283,0.53-0.425,0.911-0.425c0.335,0,0.585,0.099,0.75,0.296
		s0.248,0.492,0.252,0.885v2.048h-0.846v-2.032c0-0.18-0.04-0.311-0.118-0.392s-0.208-0.122-0.39-0.122
		c-0.238,0-0.417,0.102-0.536,0.306v2.24H30.21v-3.17H31.007z"/>
	<path class="st0" d="M33.307,11.969c0-0.314,0.061-0.595,0.182-0.841s0.295-0.437,0.523-0.571c0.227-0.135,0.491-0.202,0.792-0.202
		c0.428,0,0.776,0.131,1.048,0.393c0.27,0.262,0.421,0.617,0.452,1.066l0.006,0.217c0,0.486-0.136,0.877-0.407,1.17
		c-0.271,0.295-0.636,0.441-1.093,0.441s-0.821-0.146-1.095-0.439c-0.271-0.293-0.408-0.691-0.408-1.195V11.969z M34.153,12.029
		c0,0.301,0.057,0.531,0.17,0.69s0.275,0.239,0.486,0.239c0.205,0,0.365-0.079,0.48-0.236s0.173-0.409,0.173-0.756
		c0-0.295-0.058-0.523-0.173-0.687c-0.115-0.162-0.277-0.243-0.486-0.243c-0.207,0-0.367,0.081-0.48,0.242
		S34.153,11.69,34.153,12.029z"/>
	<path class="st0" d="M37.574,13.583h-0.85v-4.5h0.85V13.583z"/>
	<path class="st0" d="M37.99,11.969c0-0.314,0.061-0.595,0.182-0.841s0.295-0.437,0.523-0.571c0.227-0.135,0.491-0.202,0.792-0.202
		c0.428,0,0.776,0.131,1.048,0.393c0.27,0.262,0.421,0.617,0.452,1.066l0.006,0.217c0,0.486-0.136,0.877-0.407,1.17
		c-0.271,0.295-0.636,0.441-1.093,0.441s-0.821-0.146-1.095-0.439c-0.271-0.293-0.408-0.691-0.408-1.195V11.969z M38.837,12.029
		c0,0.301,0.057,0.531,0.17,0.69s0.275,0.239,0.486,0.239c0.205,0,0.365-0.079,0.48-0.236s0.173-0.409,0.173-0.756
		c0-0.295-0.058-0.523-0.173-0.687c-0.115-0.162-0.277-0.243-0.486-0.243c-0.207,0-0.367,0.081-0.48,0.242
		S38.837,11.69,38.837,12.029z"/>
	<path class="st0" d="M41.241,11.975c0-0.486,0.116-0.878,0.347-1.175c0.232-0.297,0.544-0.445,0.937-0.445
		c0.348,0,0.618,0.119,0.812,0.357l0.035-0.299h0.768v3.064c0,0.277-0.062,0.519-0.189,0.724c-0.125,0.205-0.303,0.361-0.531,0.469
		s-0.496,0.161-0.803,0.161c-0.232,0-0.459-0.047-0.68-0.139c-0.221-0.094-0.388-0.213-0.501-0.359l0.375-0.516
		c0.211,0.236,0.467,0.354,0.768,0.354c0.225,0,0.399-0.06,0.524-0.181c0.125-0.119,0.188-0.29,0.188-0.511v-0.17
		c-0.195,0.221-0.452,0.331-0.771,0.331c-0.381,0-0.689-0.148-0.925-0.447c-0.235-0.297-0.353-0.692-0.353-1.185V11.975z
		 M42.088,12.035c0,0.288,0.058,0.515,0.173,0.678c0.115,0.164,0.273,0.246,0.475,0.246c0.258,0,0.442-0.097,0.554-0.291v-1.34
		c-0.113-0.194-0.296-0.291-0.548-0.291c-0.203,0-0.363,0.083-0.479,0.25S42.088,11.703,42.088,12.035z"/>
	<path class="st0" d="M45.823,12.385l0.586-1.972h0.908l-1.274,3.662l-0.07,0.167c-0.189,0.414-0.502,0.621-0.938,0.621
		c-0.123,0-0.248-0.019-0.375-0.056v-0.642l0.129,0.003c0.16,0,0.279-0.024,0.359-0.073c0.078-0.049,0.141-0.13,0.186-0.243
		l0.1-0.261l-1.11-3.179h0.911L45.823,12.385z"/>
	<path class="st0" d="M52.249,12.162c-0.033,0.459-0.203,0.82-0.509,1.084s-0.708,0.396-1.208,0.396
		c-0.547,0-0.978-0.184-1.29-0.553c-0.314-0.367-0.471-0.873-0.471-1.516v-0.261c0-0.41,0.072-0.771,0.217-1.084
		s0.351-0.552,0.619-0.72c0.269-0.166,0.581-0.25,0.937-0.25c0.492,0,0.889,0.132,1.189,0.396s0.475,0.634,0.521,1.11h-0.879
		c-0.021-0.275-0.099-0.475-0.229-0.6c-0.133-0.123-0.333-0.186-0.603-0.186c-0.293,0-0.513,0.105-0.657,0.314
		c-0.146,0.211-0.221,0.536-0.225,0.978v0.322c0,0.461,0.069,0.798,0.209,1.011s0.36,0.319,0.661,0.319
		c0.271,0,0.474-0.062,0.608-0.187c0.133-0.123,0.21-0.315,0.229-0.575H52.249z"/>
	<path class="st0" d="M52.489,11.969c0-0.314,0.061-0.595,0.182-0.841s0.295-0.437,0.523-0.571c0.227-0.135,0.491-0.202,0.792-0.202
		c0.428,0,0.776,0.131,1.048,0.393c0.27,0.262,0.421,0.617,0.452,1.066l0.006,0.217c0,0.486-0.136,0.877-0.407,1.17
		c-0.271,0.295-0.636,0.441-1.093,0.441s-0.821-0.146-1.095-0.439c-0.271-0.293-0.408-0.691-0.408-1.195V11.969z M53.336,12.029
		c0,0.301,0.057,0.531,0.17,0.69s0.275,0.239,0.486,0.239c0.205,0,0.365-0.079,0.48-0.236s0.173-0.409,0.173-0.756
		c0-0.295-0.058-0.523-0.173-0.687c-0.115-0.162-0.277-0.243-0.486-0.243c-0.207,0-0.367,0.081-0.48,0.242
		S53.336,11.69,53.336,12.029z"/>
	<path class="st0" d="M55.731,11.969c0-0.314,0.061-0.595,0.182-0.841s0.295-0.437,0.523-0.571c0.227-0.135,0.491-0.202,0.792-0.202
		c0.428,0,0.776,0.131,1.048,0.393c0.27,0.262,0.421,0.617,0.452,1.066l0.006,0.217c0,0.486-0.136,0.877-0.407,1.17
		c-0.271,0.295-0.636,0.441-1.093,0.441s-0.821-0.146-1.095-0.439c-0.271-0.293-0.408-0.691-0.408-1.195V11.969z M56.578,12.029
		c0,0.301,0.057,0.531,0.17,0.69s0.275,0.239,0.486,0.239c0.205,0,0.365-0.079,0.48-0.236s0.173-0.409,0.173-0.756
		c0-0.295-0.058-0.523-0.173-0.687c-0.115-0.162-0.277-0.243-0.486-0.243c-0.207,0-0.367,0.081-0.48,0.242
		S56.578,11.69,56.578,12.029z"/>
	<path class="st0" d="M60.888,11.207c-0.115-0.016-0.217-0.023-0.305-0.023c-0.32,0-0.53,0.108-0.63,0.325v2.074h-0.847v-3.17h0.8
		l0.023,0.378c0.17-0.291,0.405-0.437,0.706-0.437c0.094,0,0.182,0.013,0.264,0.038L60.888,11.207z"/>
	<path class="st0" d="M60.957,11.975c0-0.494,0.11-0.888,0.332-1.181s0.525-0.439,0.91-0.439c0.309,0,0.563,0.115,0.765,0.346V9.083
		h0.85v4.5h-0.765l-0.041-0.337c-0.211,0.264-0.482,0.396-0.814,0.396c-0.373,0-0.672-0.146-0.898-0.441
		C61.07,12.907,60.957,12.498,60.957,11.975z M61.804,12.035c0,0.298,0.052,0.526,0.155,0.686s0.254,0.238,0.451,0.238
		c0.262,0,0.446-0.11,0.554-0.333V11.37c-0.105-0.222-0.288-0.333-0.548-0.333C62.008,11.037,61.804,11.37,61.804,12.035z"/>
	<path class="st0" d="M64.313,9.593c0-0.127,0.042-0.231,0.128-0.313c0.084-0.082,0.2-0.123,0.347-0.123
		c0.145,0,0.26,0.041,0.346,0.123s0.129,0.187,0.129,0.313c0,0.129-0.044,0.234-0.13,0.316c-0.088,0.082-0.202,0.123-0.345,0.123
		s-0.258-0.041-0.345-0.123S64.313,9.722,64.313,9.593z M65.213,13.583h-0.85v-3.17h0.85V13.583z"/>
	<path class="st0" d="M66.54,10.413l0.026,0.366c0.227-0.283,0.53-0.425,0.911-0.425c0.336,0,0.586,0.099,0.75,0.296
		s0.248,0.492,0.252,0.885v2.048h-0.847v-2.032c0-0.18-0.039-0.311-0.117-0.392s-0.208-0.122-0.39-0.122
		c-0.238,0-0.417,0.102-0.536,0.306v2.24h-0.847v-3.17H66.54z"/>
	<path class="st0" d="M70.808,13.583c-0.039-0.076-0.067-0.171-0.085-0.284c-0.205,0.229-0.472,0.343-0.8,0.343
		c-0.311,0-0.568-0.09-0.771-0.27c-0.205-0.18-0.307-0.406-0.307-0.68c0-0.336,0.125-0.594,0.373-0.773
		c0.25-0.18,0.609-0.271,1.08-0.272h0.39v-0.182c0-0.146-0.038-0.264-0.112-0.352c-0.076-0.088-0.194-0.132-0.356-0.132
		c-0.143,0-0.255,0.034-0.335,0.103c-0.082,0.068-0.122,0.162-0.122,0.281h-0.847c0-0.184,0.057-0.354,0.17-0.51
		s0.273-0.278,0.48-0.368c0.207-0.088,0.439-0.133,0.697-0.133c0.391,0,0.7,0.098,0.93,0.295c0.229,0.195,0.345,0.472,0.345,0.827
		v1.374c0.002,0.301,0.044,0.528,0.126,0.683v0.05H70.808z M70.107,12.994c0.125,0,0.24-0.028,0.346-0.083
		c0.105-0.057,0.184-0.131,0.234-0.225v-0.545h-0.316c-0.424,0-0.649,0.146-0.677,0.439l-0.003,0.05
		c0,0.105,0.037,0.192,0.111,0.261S69.979,12.994,70.107,12.994z"/>
	<path class="st0" d="M73.052,9.634v0.779h0.542v0.621h-0.542v1.582c0,0.117,0.022,0.201,0.067,0.252s0.131,0.076,0.258,0.076
		c0.094,0,0.177-0.007,0.249-0.021v0.642c-0.166,0.051-0.337,0.076-0.513,0.076c-0.594,0-0.896-0.3-0.908-0.899v-1.708h-0.463
		v-0.621h0.463V9.634H73.052z"/>
	<path class="st0" d="M73.695,11.969c0-0.314,0.061-0.595,0.182-0.841s0.295-0.437,0.523-0.571c0.227-0.135,0.491-0.202,0.792-0.202
		c0.428,0,0.776,0.131,1.048,0.393c0.27,0.262,0.421,0.617,0.452,1.066l0.006,0.217c0,0.486-0.136,0.877-0.407,1.17
		c-0.271,0.295-0.636,0.441-1.093,0.441s-0.821-0.146-1.095-0.439c-0.271-0.293-0.408-0.691-0.408-1.195V11.969z M74.542,12.029
		c0,0.301,0.057,0.531,0.17,0.69s0.275,0.239,0.486,0.239c0.205,0,0.365-0.079,0.48-0.236s0.173-0.409,0.173-0.756
		c0-0.295-0.058-0.523-0.173-0.687c-0.115-0.162-0.277-0.243-0.486-0.243c-0.207,0-0.367,0.081-0.48,0.242
		S74.542,11.69,74.542,12.029z"/>
	<path class="st0" d="M78.851,11.207c-0.115-0.016-0.217-0.023-0.305-0.023c-0.32,0-0.53,0.108-0.63,0.325v2.074h-0.847v-3.17h0.8
		l0.023,0.378c0.17-0.291,0.405-0.437,0.706-0.437c0.094,0,0.182,0.013,0.264,0.038L78.851,11.207z"/>
	<path class="st0" d="M80.825,12.707c0-0.104-0.052-0.185-0.153-0.245c-0.104-0.059-0.268-0.112-0.494-0.159
		c-0.754-0.158-1.131-0.479-1.131-0.961c0-0.281,0.116-0.516,0.35-0.704s0.539-0.283,0.916-0.283c0.402,0,0.724,0.095,0.965,0.284
		s0.362,0.436,0.362,0.738h-0.847c0-0.121-0.039-0.222-0.117-0.3c-0.078-0.08-0.2-0.119-0.366-0.119
		c-0.143,0-0.253,0.032-0.331,0.097s-0.117,0.146-0.117,0.246c0,0.094,0.044,0.17,0.133,0.228s0.239,0.107,0.45,0.148
		c0.211,0.043,0.389,0.09,0.533,0.143c0.447,0.164,0.671,0.448,0.671,0.853c0,0.289-0.124,0.522-0.372,0.702
		c-0.248,0.178-0.568,0.268-0.961,0.268c-0.266,0-0.502-0.048-0.708-0.143c-0.206-0.094-0.367-0.224-0.484-0.389
		s-0.176-0.344-0.176-0.535h0.803c0.008,0.15,0.063,0.266,0.167,0.346s0.242,0.12,0.416,0.12c0.162,0,0.284-0.03,0.368-0.093
		C80.783,12.888,80.825,12.807,80.825,12.707z"/>
</g>
<g>
	<path class="st0" d="M13.251,15.119c0.019-1.344,0.011-2.69,0.021-4.034c0.008-1.111,0.071-2.243,0.007-3.359
		c0.188-0.849-0.083-2.506-1.169-2.494c-0.037,0-0.064,0.014-0.082,0.034c-0.58-0.086-1.21-0.01-1.787-0.008
		C9.476,5.261,8.684,5.203,7.925,5.304c-0.002,0-0.003-0.001-0.005-0.001C7.333,5.261,6.751,5.256,6.164,5.292
		C5.89,5.309,5.546,5.363,5.381,5.614C4.882,6.369,5.028,7.573,5.037,8.429c0.014,1.311,0.022,2.623,0.031,3.934
		c0.008,1.082-0.079,2.222,0.022,3.308c-0.211,0.315-0.02,0.737,0.229,0.984c0.324,0.321,0.985,0.37,1.436,0.223
		c0.956,0.08,1.94,0.021,2.897,0.022c0.933,0,1.934,0.105,2.855-0.052c0.247,0.005,0.502-0.101,0.644-0.301
		c0.134-0.188,0.164-0.393,0.163-0.62c-0.001-0.241-0.008-0.534-0.069-0.785C13.248,15.135,13.251,15.128,13.251,15.119z
		 M12.985,15.153c-0.012,0.256,0.045,0.523,0.059,0.775c0.027,0.498-0.351,0.759-0.807,0.61c-0.07-0.023-0.12,0.022-0.135,0.078
		c-0.805-0.075-1.651,0-2.449,0c-0.826,0-1.671-0.043-2.502-0.004C7.147,16.605,7.14,16.599,7.13,16.6
		c-0.025,0.002-0.047,0.003-0.071,0.009c-0.005,0.001-0.008,0.004-0.011,0.008c-0.042,0.002-0.084,0.005-0.127,0.008
		c-0.015-0.01-0.032-0.017-0.05-0.019c-0.184-0.021-0.361,0.003-0.538,0.021c-0.006-0.057-0.055-0.113-0.115-0.111
		c-0.108,0.004-0.198,0.028-0.303-0.008c-0.084-0.029-0.142,0.027-0.156,0.095c-0.136-0.038-0.242-0.107-0.319-0.198
		c0.033,0.008,0.067,0.014,0.102,0.019c0.115,0.015,0.295,0.033,0.347-0.098c0.041-0.102-0.084-0.161-0.164-0.171
		c-0.141-0.017-0.284-0.039-0.424-0.067c0.013-0.015,0.023-0.032,0.025-0.052C5.332,16,5.335,15.963,5.339,15.927
		c0.019,0.003,0.04,0.002,0.062-0.007c0.185-0.075,0.385-0.084,0.569-0.154c0.061-0.023,0.068-0.093,0.017-0.131
		c-0.183-0.138-0.424-0.097-0.623-0.007c0.01-0.159,0.016-0.318,0.018-0.479c0.013,0.005,0.026,0.01,0.041,0.011
		c0.177,0.015,0.419,0.004,0.562-0.111c0.051-0.041,0.031-0.127-0.02-0.156c-0.158-0.092-0.41-0.056-0.58-0.014
		c-0.001,0-0.001,0.001-0.002,0.001c-0.001-0.149-0.004-0.298-0.008-0.448c0.105,0.022,0.222,0.026,0.313-0.012
		c0.107-0.044,0.13-0.206,0-0.241c-0.099-0.027-0.214-0.024-0.321-0.018c-0.007-0.213-0.015-0.425-0.021-0.636
		c0.085-0.013,0.169-0.027,0.253-0.041c0.074-0.012,0.259-0.037,0.226-0.156c-0.03-0.109-0.171-0.112-0.263-0.119
		c-0.071-0.005-0.147,0.005-0.221,0.025c0-0.028-0.001-0.056-0.001-0.084c-0.003-0.357-0.006-0.715-0.008-1.072
		c0.085,0.019,0.171,0.029,0.258,0.015c0.053-0.008,0.089-0.068,0.089-0.117c0-0.058-0.038-0.098-0.089-0.117
		c-0.082-0.031-0.171-0.035-0.26-0.031c-0.002-0.208-0.003-0.416-0.005-0.624c0.113-0.023,0.231-0.04,0.331-0.097
		c0.109-0.062,0.054-0.215-0.06-0.223c-0.09-0.006-0.183,0.017-0.273,0.041c-0.002-0.235-0.004-0.47-0.005-0.705
		c0.012-0.003,0.024-0.006,0.037-0.014c0.077-0.049,0.38-0.162,0.301-0.297C5.62,9.851,5.511,9.842,5.452,9.864
		C5.404,9.882,5.359,9.905,5.315,9.93C5.313,9.769,5.312,9.607,5.31,9.446c0.154,0.026,0.391,0.029,0.467-0.113
		C5.805,9.281,5.79,9.219,5.739,9.189c-0.068-0.041-0.145-0.024-0.22-0.017c-0.07,0.007-0.141,0.011-0.212,0.014
		C5.306,9.058,5.305,8.931,5.304,8.803c0.005,0.004,0.009,0.01,0.015,0.013c0.084,0.051,0.169,0.076,0.267,0.083
		c0.079,0.006,0.221-0.02,0.241-0.115c0.02-0.096-0.063-0.137-0.146-0.141C5.602,8.64,5.518,8.634,5.445,8.6
		C5.39,8.575,5.339,8.589,5.303,8.619C5.303,8.451,5.3,8.283,5.302,8.115c0.008,0.003,0.015,0.008,0.024,0.009
		C5.42,8.14,5.512,8.147,5.608,8.138c0.07-0.007,0.188-0.048,0.188-0.135c0-0.087-0.118-0.128-0.188-0.135
		C5.512,7.859,5.42,7.867,5.325,7.883C5.318,7.884,5.313,7.888,5.306,7.89C5.308,7.753,5.31,7.616,5.314,7.478
		c0.133-0.004,0.279-0.03,0.351-0.122c0.02-0.026,0.028-0.065,0-0.09C5.581,7.192,5.45,7.184,5.326,7.198
		c0.003-0.064,0.006-0.129,0.009-0.193c0.008-0.129,0.016-0.253,0.029-0.37c0.159,0.035,0.414,0.048,0.532-0.062
		c0.025-0.023,0.025-0.068,0-0.091c-0.11-0.102-0.34-0.098-0.499-0.068C5.436,6.206,5.5,6.026,5.618,5.886
		C5.629,5.89,5.64,5.893,5.654,5.893c0.401,0.013,0.844,0.046,1.23-0.081c0.056-0.018,0.062-0.103,0-0.119
		c-0.312-0.078-0.65-0.054-0.975-0.02c0.133-0.059,0.298-0.098,0.506-0.11C6.85,5.538,7.287,5.545,7.723,5.567
		c0.012,0.02,0.032,0.035,0.063,0.036c1.104,0.033,2.208,0.053,3.313,0.075c0.58,0.012,1.289-0.12,1.641,0.337
		c0.078,0.155,0.13,0.34,0.173,0.564c0.071,0.366,0.071,0.748,0.161,1.109c0.004,0.145,0.006,0.29,0.009,0.433
		c0.033,2.331-0.086,4.666-0.103,6.997C12.979,15.132,12.983,15.142,12.985,15.153z"/>
	<path class="st0" d="M12.309,6.978c0.05-0.077,0.053-0.193,0.029-0.279c-0.026-0.089-0.131-0.087-0.179-0.036
		c-0.245-0.222-0.883-0.166-1.129-0.187C9.467,6.344,7.847,6.215,6.279,6.303C6.218,6.307,6.186,6.348,6.18,6.393
		C6.159,6.4,6.139,6.41,6.119,6.421C6.092,6.402,6.045,6.413,6.037,6.449C5.968,6.745,5.97,7.038,5.967,7.341
		C5.964,7.677,5.931,8.065,6.05,8.383c0.02,0.052,0.1,0.063,0.117,0.003c0.135-0.002,0.27-0.006,0.405-0.01
		c0.276,0.027,0.561,0.002,0.843,0.003l1.523,0.005c0.799,0.002,1.643,0.073,2.453,0.016c0.001,0.001,0,0.002,0.001,0.003
		c0.075,0.114,0.219,0.101,0.344,0.1c0.157-0.001,0.32,0.009,0.473-0.033c0.063-0.017,0.087-0.08,0.075-0.133
		C12.292,7.966,12.399,7.391,12.309,6.978z M12.071,8.112c-0.018-0.028-0.047-0.049-0.089-0.051c-1.59-0.07-3.238-0.127-4.841,0.011
		C6.818,8.061,6.493,8.067,6.199,8.17c0.015-0.225-0.016-0.458-0.021-0.682C6.172,7.28,6.176,7.071,6.169,6.863
		c0.017-0.006,0.033-0.015,0.047-0.033C6.264,6.768,6.26,6.672,6.257,6.588C6.304,6.562,6.354,6.543,6.408,6.54
		C6.425,6.54,6.438,6.533,6.45,6.525c1.024,0.062,2.056,0.053,3.082,0.103c0.583,0.028,1.166,0.068,1.748,0.108
		c0.417,0.029,0.808,0.139,0.803,0.604C12.081,7.598,12.075,7.855,12.071,8.112z"/>
	<path class="st0" d="M11.396,7.376c-0.015-0.088-0.033-0.203-0.095-0.271c-0.116-0.127-0.332-0.132-0.447,0
		c-0.015,0.018-0.022,0.036-0.025,0.055c-0.052,0.114-0.089,0.209-0.083,0.342c0.004,0.104,0.028,0.252,0.144,0.281
		c0.009,0.002,0.018,0.002,0.027,0.001c0.024,0.016,0.049,0.029,0.077,0.039c0.149,0.05,0.306-0.025,0.373-0.161
		C11.41,7.574,11.412,7.471,11.396,7.376z"/>
	<path class="st0" d="M7.766,9.439C7.731,9.37,7.633,9.373,7.589,9.428c-0.02-0.012-0.042-0.02-0.066-0.02
		C7.122,9.41,6.712,9.386,6.314,9.44c-0.043,0.006-0.067,0.04-0.075,0.079c-0.04,0.012-0.076,0.045-0.078,0.093
		C6.154,9.787,6.16,9.961,6.17,10.136c0.008,0.133-0.016,0.286,0.092,0.379c0.029,0.025,0.073,0.03,0.101,0
		c0.01-0.011,0.018-0.023,0.026-0.034c0.404,0.082,0.855,0.097,1.266,0.09c0.114-0.002,0.149-0.105,0.115-0.182
		c0.036-0.102,0.032-0.22,0.035-0.33C7.81,9.857,7.858,9.623,7.766,9.439z"/>
	<path class="st0" d="M9.933,9.439C9.899,9.37,9.8,9.373,9.757,9.428c-0.02-0.012-0.042-0.02-0.066-0.02
		C9.29,9.41,8.879,9.386,8.481,9.44c-0.043,0.006-0.067,0.04-0.075,0.079c-0.04,0.012-0.076,0.045-0.078,0.093
		c-0.007,0.176-0.001,0.35,0.009,0.525c0.008,0.133-0.016,0.286,0.092,0.379c0.029,0.025,0.073,0.03,0.101,0
		c0.01-0.011,0.018-0.023,0.026-0.034c0.404,0.082,0.855,0.097,1.266,0.09c0.114-0.002,0.149-0.105,0.115-0.182
		c0.036-0.102,0.032-0.22,0.035-0.33C9.978,9.857,10.026,9.623,9.933,9.439z"/>
	<path class="st0" d="M12.101,9.439c-0.034-0.069-0.133-0.066-0.177-0.01c-0.02-0.012-0.042-0.02-0.066-0.02
		c-0.401,0.002-0.811-0.022-1.209,0.031c-0.043,0.006-0.067,0.04-0.075,0.079c-0.04,0.012-0.076,0.045-0.078,0.093
		c-0.007,0.176-0.001,0.35,0.009,0.525c0.008,0.133-0.016,0.286,0.092,0.379c0.029,0.025,0.073,0.03,0.101,0
		c0.01-0.011,0.018-0.023,0.026-0.034c0.404,0.082,0.855,0.097,1.266,0.09c0.114-0.002,0.149-0.105,0.115-0.182
		c0.036-0.102,0.032-0.22,0.035-0.33C12.146,9.857,12.193,9.623,12.101,9.439z"/>
	<path class="st0" d="M12.101,11.259c-0.034-0.069-0.133-0.066-0.177-0.01c-0.02-0.012-0.042-0.02-0.066-0.02
		c-0.401,0.002-0.811-0.022-1.209,0.031c-0.043,0.006-0.067,0.04-0.075,0.079c-0.04,0.012-0.076,0.045-0.078,0.093
		c-0.007,0.176-0.001,0.35,0.009,0.525c0.008,0.133-0.016,0.286,0.092,0.379c0.029,0.025,0.073,0.03,0.101,0
		c0.01-0.011,0.018-0.023,0.026-0.034c0.404,0.082,0.855,0.097,1.266,0.09c0.114-0.002,0.149-0.105,0.115-0.182
		c0.036-0.102,0.032-0.22,0.035-0.33C12.146,11.677,12.193,11.444,12.101,11.259z"/>
	<path class="st0" d="M12.101,12.983c-0.034-0.061-0.133-0.058-0.177-0.009c-0.02-0.01-0.042-0.018-0.066-0.018
		c-0.401,0.001-0.811-0.02-1.209,0.028c-0.043,0.005-0.067,0.035-0.075,0.069c-0.04,0.011-0.076,0.039-0.078,0.082
		c-0.007,0.155-0.001,1.981,0.009,2.135c0.008,0.117-0.016,0.252,0.092,0.334c0.029,0.022,0.073,0.027,0.101,0
		c0.01-0.01,0.018-0.02,0.026-0.03c0.404,0.072,0.855,0.085,1.266,0.079c0.114-0.002,0.149-0.092,0.115-0.161
		c0.036-0.09,0.032-0.194,0.035-0.291C12.146,15.023,12.193,13.145,12.101,12.983z"/>
	<path class="st0" d="M6.961,11.256c-0.127-0.142-0.433-0.243-0.544-0.028c-0.001,0.003-0.002,0.005-0.003,0.008
		c-0.015,0.001-0.029,0.001-0.044,0.003c-0.031,0.003-0.065,0.015-0.091,0.034c-0.067,0.029-0.089,0.115-0.065,0.182
		c-0.035,0.223-0.071,0.54,0.124,0.654c0.117,0.068,0.303,0.034,0.432,0.035c0.119,0.001,0.225-0.049,0.269-0.165
		C7.117,11.772,7.115,11.429,6.961,11.256z"/>
	<path class="st0" d="M8.338,11.256c-0.127-0.142-0.433-0.243-0.544-0.028c-0.001,0.003-0.002,0.005-0.003,0.008
		c-0.015,0.001-0.029,0.001-0.044,0.003c-0.031,0.003-0.065,0.015-0.091,0.034c-0.067,0.029-0.089,0.115-0.065,0.182
		c-0.035,0.223-0.071,0.54,0.124,0.654c0.117,0.068,0.303,0.034,0.432,0.035c0.119,0.001,0.225-0.049,0.269-0.165
		C8.495,11.772,8.492,11.429,8.338,11.256z"/>
	<path class="st0" d="M9.715,11.256c-0.127-0.142-0.433-0.243-0.544-0.028c-0.001,0.003-0.002,0.005-0.003,0.008
		c-0.015,0.001-0.029,0.001-0.044,0.003c-0.031,0.003-0.064,0.015-0.091,0.034c-0.067,0.029-0.089,0.115-0.065,0.182
		c-0.035,0.223-0.071,0.54,0.124,0.654c0.117,0.068,0.303,0.034,0.432,0.035c0.119,0.001,0.225-0.049,0.269-0.165
		C9.872,11.772,9.87,11.429,9.715,11.256z"/>
	<path class="st0" d="M6.961,12.928c-0.127-0.142-0.433-0.243-0.544-0.028c-0.001,0.003-0.002,0.005-0.003,0.008
		c-0.015,0.001-0.029,0.001-0.044,0.003c-0.031,0.003-0.065,0.015-0.091,0.034c-0.067,0.029-0.089,0.115-0.065,0.182
		c-0.035,0.223-0.071,0.54,0.124,0.654c0.117,0.068,0.303,0.034,0.432,0.035c0.119,0.001,0.225-0.049,0.269-0.165
		C7.117,13.445,7.115,13.101,6.961,12.928z"/>
	<path class="st0" d="M8.338,12.928c-0.127-0.142-0.433-0.243-0.544-0.028c-0.001,0.003-0.002,0.005-0.003,0.008
		c-0.015,0.001-0.029,0.001-0.044,0.003c-0.031,0.003-0.065,0.015-0.091,0.034c-0.067,0.029-0.089,0.115-0.065,0.182
		c-0.035,0.223-0.071,0.54,0.124,0.654c0.117,0.068,0.303,0.034,0.432,0.035c0.119,0.001,0.225-0.049,0.269-0.165
		C8.495,13.445,8.492,13.101,8.338,12.928z"/>
	<path class="st0" d="M9.715,12.928c-0.127-0.142-0.433-0.243-0.544-0.028c-0.001,0.003-0.002,0.005-0.003,0.008
		c-0.015,0.001-0.029,0.001-0.044,0.003c-0.031,0.003-0.064,0.015-0.091,0.034c-0.067,0.029-0.089,0.115-0.065,0.182
		c-0.035,0.223-0.071,0.54,0.124,0.654c0.117,0.068,0.303,0.034,0.432,0.035c0.119,0.001,0.225-0.049,0.269-0.165
		C9.872,13.445,9.87,13.101,9.715,12.928z"/>
	<path class="st0" d="M6.961,14.601c-0.127-0.142-0.433-0.243-0.544-0.028c-0.001,0.003-0.002,0.005-0.003,0.008
		c-0.015,0.001-0.029,0.001-0.044,0.003c-0.031,0.003-0.065,0.015-0.091,0.034c-0.067,0.029-0.089,0.115-0.065,0.182
		c-0.035,0.223-0.071,0.54,0.124,0.654c0.117,0.068,0.303,0.034,0.432,0.035c0.119,0.001,0.225-0.049,0.269-0.165
		C7.117,15.117,7.115,14.774,6.961,14.601z"/>
	<path class="st0" d="M8.338,14.601c-0.127-0.142-0.433-0.243-0.544-0.028c-0.001,0.003-0.002,0.005-0.003,0.008
		c-0.015,0.001-0.029,0.001-0.044,0.003c-0.031,0.003-0.065,0.015-0.091,0.034c-0.067,0.029-0.089,0.115-0.065,0.182
		c-0.035,0.223-0.071,0.54,0.124,0.654c0.117,0.068,0.303,0.034,0.432,0.035c0.119,0.001,0.225-0.049,0.269-0.165
		C8.495,15.117,8.492,14.774,8.338,14.601z"/>
	<path class="st0" d="M9.715,14.601c-0.127-0.142-0.433-0.243-0.544-0.028c-0.001,0.003-0.002,0.005-0.003,0.008
		c-0.015,0.001-0.029,0.001-0.044,0.003c-0.031,0.003-0.064,0.015-0.091,0.034c-0.067,0.029-0.089,0.115-0.065,0.182
		c-0.035,0.223-0.071,0.54,0.124,0.654c0.117,0.068,0.303,0.034,0.432,0.035c0.119,0.001,0.225-0.049,0.269-0.165
		C9.872,15.117,9.87,14.774,9.715,14.601z"/>
</g>
</svg>
