<?xml version="1.0" encoding="utf-8"?>
<!-- Generator: Adobe Illustrator 21.1.0, SVG Export Plug-In . SVG Version: 6.00 Build 0)  -->
<svg version="1.1" id="Layer_1" xmlns="http://www.w3.org/2000/svg" xmlns:xlink="http://www.w3.org/1999/xlink" x="0px" y="0px"
	 viewBox="0 0 100 20" style="enable-background:new 0 0 100 20;" xml:space="preserve">
<style type="text/css">
	.st0{fill:#98A4AE;}
</style>
<g>
	<path class="st0" d="M20.914,10.029h-1.307v3.554h-0.879v-3.554h-1.289V9.317h3.475C20.914,9.317,20.914,10.029,20.914,10.029z"/>
	<path class="st0" d="M22.408,13.642c-0.465,0-0.843-0.143-1.135-0.428s-0.438-0.665-0.438-1.14v-0.082
		c0-0.318,0.062-0.603,0.185-0.854c0.123-0.25,0.297-0.443,0.523-0.58c0.226-0.135,0.483-0.203,0.772-0.203
		c0.434,0,0.775,0.137,1.024,0.41s0.374,0.661,0.374,1.163v0.346h-2.019c0.027,0.207,0.11,0.373,0.248,0.498
		s0.312,0.188,0.523,0.188c0.326,0,0.581-0.118,0.765-0.354l0.416,0.466c-0.127,0.18-0.299,0.32-0.516,0.421
		C22.912,13.591,22.671,13.642,22.408,13.642z M22.311,11.037c-0.168,0-0.304,0.057-0.409,0.171
		c-0.104,0.113-0.171,0.276-0.201,0.488h1.178v-0.067c-0.004-0.188-0.055-0.334-0.152-0.438
		C22.629,11.089,22.491,11.037,22.311,11.037z"/>
	<path class="st0" d="M25.36,12.959c0.156,0,0.283-0.043,0.381-0.129s0.148-0.2,0.152-0.343h0.794
		c-0.002,0.215-0.061,0.412-0.176,0.59c-0.115,0.18-0.273,0.318-0.473,0.416c-0.2,0.099-0.421,0.148-0.664,0.148
		c-0.453,0-0.811-0.144-1.072-0.432s-0.393-0.687-0.393-1.194V11.96c0-0.488,0.13-0.878,0.39-1.169s0.616-0.437,1.069-0.437
		c0.396,0,0.714,0.113,0.954,0.338c0.239,0.227,0.361,0.526,0.365,0.901h-0.794c-0.004-0.165-0.055-0.299-0.152-0.402
		c-0.098-0.103-0.227-0.154-0.387-0.154c-0.197,0-0.346,0.072-0.447,0.216s-0.151,0.377-0.151,0.699v0.089
		c0,0.326,0.05,0.561,0.149,0.704C25.006,12.888,25.157,12.959,25.36,12.959z"/>
	<path class="st0" d="M27.847,10.759c0.225-0.27,0.507-0.404,0.847-0.404c0.688,0,1.036,0.399,1.046,1.198v2.03h-0.847v-2.012
		c0-0.182-0.039-0.316-0.117-0.403s-0.208-0.131-0.39-0.131c-0.248,0-0.428,0.096-0.539,0.288v2.258H27v-4.5h0.847V10.759z"/>
	<path class="st0" d="M31.007,10.413l0.026,0.366c0.227-0.283,0.53-0.425,0.911-0.425c0.335,0,0.585,0.099,0.75,0.296
		s0.248,0.492,0.252,0.885v2.048H32.1v-2.032c0-0.18-0.04-0.311-0.118-0.392s-0.208-0.122-0.39-0.122
		c-0.238,0-0.417,0.102-0.536,0.306v2.24H30.21v-3.17H31.007z"/>
	<path class="st0" d="M33.307,11.969c0-0.314,0.061-0.595,0.182-0.841s0.295-0.437,0.523-0.571c0.227-0.135,0.491-0.202,0.792-0.202
		c0.428,0,0.776,0.131,1.048,0.393c0.27,0.262,0.421,0.617,0.452,1.066l0.006,0.217c0,0.486-0.136,0.877-0.407,1.17
		c-0.271,0.295-0.636,0.441-1.093,0.441s-0.821-0.146-1.095-0.439c-0.271-0.293-0.408-0.691-0.408-1.195
		C33.307,12.008,33.307,11.969,33.307,11.969z M34.153,12.029c0,0.301,0.057,0.531,0.17,0.69s0.275,0.239,0.486,0.239
		c0.205,0,0.365-0.079,0.48-0.236s0.173-0.409,0.173-0.756c0-0.295-0.058-0.523-0.173-0.687c-0.115-0.162-0.277-0.243-0.486-0.243
		c-0.207,0-0.367,0.081-0.48,0.242S34.153,11.69,34.153,12.029z"/>
	<path class="st0" d="M37.574,13.583h-0.85v-4.5h0.85V13.583z"/>
	<path class="st0" d="M37.99,11.969c0-0.314,0.061-0.595,0.182-0.841s0.295-0.437,0.523-0.571c0.227-0.135,0.491-0.202,0.792-0.202
		c0.428,0,0.776,0.131,1.048,0.393c0.27,0.262,0.421,0.617,0.452,1.066l0.006,0.217c0,0.486-0.136,0.877-0.407,1.17
		c-0.271,0.295-0.636,0.441-1.093,0.441s-0.821-0.146-1.095-0.439c-0.271-0.293-0.408-0.691-0.408-1.195
		C37.99,12.008,37.99,11.969,37.99,11.969z M38.837,12.029c0,0.301,0.057,0.531,0.17,0.69s0.275,0.239,0.486,0.239
		c0.205,0,0.365-0.079,0.48-0.236s0.173-0.409,0.173-0.756c0-0.295-0.058-0.523-0.173-0.687c-0.115-0.162-0.277-0.243-0.486-0.243
		c-0.207,0-0.367,0.081-0.48,0.242S38.837,11.69,38.837,12.029z"/>
	<path class="st0" d="M41.241,11.975c0-0.486,0.116-0.878,0.347-1.175c0.232-0.297,0.544-0.445,0.937-0.445
		c0.348,0,0.618,0.119,0.812,0.357l0.035-0.299h0.768v3.064c0,0.277-0.062,0.519-0.189,0.724c-0.125,0.205-0.303,0.361-0.531,0.469
		s-0.496,0.161-0.803,0.161c-0.232,0-0.459-0.047-0.68-0.139c-0.221-0.094-0.388-0.213-0.501-0.359l0.375-0.516
		c0.211,0.236,0.467,0.354,0.768,0.354c0.225,0,0.399-0.06,0.524-0.181c0.125-0.119,0.188-0.29,0.188-0.511v-0.17
		c-0.195,0.221-0.452,0.331-0.771,0.331c-0.381,0-0.689-0.148-0.925-0.447c-0.235-0.297-0.353-0.692-0.353-1.185v-0.033H41.241z
		 M42.088,12.035c0,0.288,0.058,0.515,0.173,0.678c0.115,0.164,0.273,0.246,0.475,0.246c0.258,0,0.442-0.097,0.554-0.291v-1.34
		c-0.113-0.194-0.296-0.291-0.548-0.291c-0.203,0-0.363,0.083-0.479,0.25S42.088,11.703,42.088,12.035z"/>
	<path class="st0" d="M45.823,12.385l0.586-1.972h0.908l-1.274,3.662l-0.07,0.167c-0.189,0.414-0.502,0.621-0.938,0.621
		c-0.123,0-0.248-0.019-0.375-0.056v-0.642l0.129,0.003c0.16,0,0.279-0.024,0.359-0.073c0.078-0.049,0.141-0.13,0.186-0.243
		l0.1-0.261l-1.11-3.179h0.911L45.823,12.385z"/>
	<path class="st0" d="M48.9,13.583V9.317h1.312c0.375,0,0.711,0.085,1.006,0.254c0.297,0.169,0.527,0.409,0.693,0.721
		s0.249,0.665,0.249,1.062v0.196c0,0.396-0.082,0.749-0.245,1.058s-0.393,0.548-0.689,0.718s-0.632,0.256-1.005,0.258H48.9V13.583z
		 M49.779,10.029v2.848h0.425c0.344,0,0.606-0.112,0.788-0.337s0.274-0.546,0.278-0.964V11.35c0-0.434-0.09-0.762-0.27-0.986
		c-0.18-0.223-0.442-0.335-0.788-0.335C50.212,10.029,49.779,10.029,49.779,10.029z"/>
	<path class="st0" d="M52.589,9.593c0-0.127,0.042-0.231,0.128-0.313c0.084-0.082,0.2-0.123,0.347-0.123
		c0.145,0,0.26,0.041,0.346,0.123s0.129,0.187,0.129,0.313c0,0.129-0.044,0.234-0.13,0.316c-0.088,0.082-0.202,0.123-0.345,0.123
		s-0.258-0.041-0.345-0.123S52.589,9.722,52.589,9.593z M53.488,13.583h-0.85v-3.17h0.85V13.583z"/>
	<path class="st0" d="M55.816,11.207c-0.115-0.016-0.217-0.023-0.305-0.023c-0.32,0-0.53,0.108-0.63,0.325v2.074h-0.847v-3.17h0.8
		l0.023,0.378c0.17-0.291,0.405-0.437,0.706-0.437c0.094,0,0.182,0.013,0.264,0.038L55.816,11.207z"/>
	<path class="st0" d="M57.478,13.642c-0.465,0-0.844-0.143-1.136-0.428s-0.438-0.665-0.438-1.14v-0.082
		c0-0.318,0.062-0.603,0.185-0.854c0.123-0.25,0.298-0.443,0.522-0.58c0.227-0.135,0.483-0.203,0.772-0.203
		c0.434,0,0.774,0.137,1.024,0.41c0.248,0.273,0.373,0.661,0.373,1.163v0.346h-2.019c0.027,0.207,0.11,0.373,0.247,0.498
		c0.139,0.125,0.312,0.188,0.523,0.188c0.326,0,0.581-0.118,0.765-0.354l0.416,0.466c-0.127,0.18-0.299,0.32-0.516,0.421
		C57.981,13.591,57.741,13.642,57.478,13.642z M57.381,11.037c-0.168,0-0.305,0.057-0.408,0.171
		c-0.105,0.113-0.172,0.276-0.201,0.488h1.178v-0.067c-0.004-0.188-0.055-0.334-0.152-0.438
		C57.699,11.089,57.561,11.037,57.381,11.037z"/>
	<path class="st0" d="M60.43,12.959c0.156,0,0.283-0.043,0.381-0.129s0.148-0.2,0.152-0.343h0.794
		c-0.002,0.215-0.061,0.412-0.176,0.59c-0.115,0.18-0.273,0.318-0.473,0.416c-0.201,0.099-0.422,0.148-0.664,0.148
		c-0.453,0-0.811-0.144-1.072-0.432s-0.393-0.687-0.393-1.194V11.96c0-0.488,0.13-0.878,0.39-1.169s0.616-0.437,1.069-0.437
		c0.396,0,0.714,0.113,0.953,0.338c0.239,0.227,0.361,0.526,0.365,0.901h-0.794c-0.004-0.165-0.055-0.299-0.152-0.402
		c-0.098-0.103-0.227-0.154-0.387-0.154c-0.197,0-0.347,0.072-0.446,0.216c-0.102,0.144-0.151,0.377-0.151,0.699v0.089
		c0,0.326,0.05,0.561,0.149,0.704C60.075,12.888,60.227,12.959,60.43,12.959z"/>
	<path class="st0" d="M63.104,9.634v0.779h0.542v0.621h-0.542v1.582c0,0.117,0.022,0.201,0.067,0.252s0.131,0.076,0.258,0.076
		c0.094,0,0.177-0.007,0.249-0.021v0.642c-0.166,0.051-0.337,0.076-0.513,0.076c-0.594,0-0.896-0.3-0.908-0.899v-1.708h-0.463
		v-0.621h0.463V9.634H63.104z"/>
	<path class="st0" d="M63.748,11.969c0-0.314,0.061-0.595,0.182-0.841c0.121-0.246,0.295-0.437,0.523-0.571
		c0.227-0.135,0.491-0.202,0.792-0.202c0.428,0,0.776,0.131,1.048,0.393c0.27,0.262,0.421,0.617,0.452,1.066l0.006,0.217
		c0,0.486-0.136,0.877-0.407,1.17c-0.271,0.295-0.636,0.441-1.093,0.441s-0.821-0.146-1.095-0.439
		c-0.271-0.293-0.408-0.691-0.408-1.195C63.748,12.008,63.748,11.969,63.748,11.969z M64.595,12.029c0,0.301,0.057,0.531,0.17,0.69
		s0.275,0.239,0.486,0.239c0.205,0,0.365-0.079,0.48-0.236s0.173-0.409,0.173-0.756c0-0.295-0.058-0.523-0.173-0.687
		c-0.115-0.162-0.277-0.243-0.486-0.243c-0.207,0-0.367,0.081-0.48,0.242S64.595,11.69,64.595,12.029z"/>
	<path class="st0" d="M68.903,11.207c-0.115-0.016-0.217-0.023-0.305-0.023c-0.32,0-0.53,0.108-0.63,0.325v2.074h-0.847v-3.17h0.8
		l0.023,0.378c0.17-0.291,0.405-0.437,0.706-0.437c0.094,0,0.182,0.013,0.264,0.038L68.903,11.207z"/>
</g>
</svg>
