<?xml version="1.0" encoding="utf-8"?>
<!-- Generator: Adobe Illustrator 21.0.2, SVG Export Plug-In . SVG Version: 6.00 Build 0)  -->
<svg version="1.1" id="Layer_1" xmlns="http://www.w3.org/2000/svg" xmlns:xlink="http://www.w3.org/1999/xlink" x="0px" y="0px"
	 viewBox="0 0 50 5.2" style="enable-background:new 0 0 50 5.2;" xml:space="preserve">
<style type="text/css">
	.st0{fill:#ECEEEF;}
</style>
<g>
	<g>
		<path class="st0" d="M19.5,1.8h-1v2.7h-0.2V1.8h-1V1.6h2.2L19.5,1.8L19.5,1.8z"/>
		<path class="st0" d="M20.4,4.5c-0.2,0-0.3,0-0.5-0.1c-0.1-0.1-0.3-0.2-0.3-0.4c-0.1-0.2-0.1-0.3-0.1-0.5V3.4c0-0.2,0-0.4,0.1-0.6
			c0.1-0.2,0.2-0.3,0.3-0.4c0.1-0.1,0.3-0.1,0.5-0.1c0.3,0,0.5,0.1,0.6,0.3c0.2,0.2,0.2,0.4,0.2,0.7v0.1h-1.5v0
			c0,0.2,0.1,0.4,0.2,0.6c0.1,0.2,0.3,0.2,0.5,0.2c0.1,0,0.2,0,0.3-0.1c0.1,0,0.2-0.1,0.3-0.2l0.1,0.1C21,4.4,20.8,4.5,20.4,4.5z
			 M20.4,2.5c-0.2,0-0.3,0.1-0.5,0.2c-0.1,0.1-0.2,0.3-0.2,0.5H21v0c0-0.2-0.1-0.4-0.2-0.5C20.7,2.6,20.6,2.5,20.4,2.5z"/>
		<path class="st0" d="M22.4,4.3c0.2,0,0.3,0,0.4-0.1S23,4,23,3.8h0.2c0,0.1,0,0.3-0.1,0.4s-0.2,0.2-0.3,0.3
			c-0.1,0.1-0.3,0.1-0.4,0.1c-0.3,0-0.5-0.1-0.7-0.3c-0.2-0.2-0.2-0.5-0.2-0.8V3.4c0-0.2,0-0.4,0.1-0.6c0.1-0.2,0.2-0.3,0.3-0.4
			s0.3-0.1,0.5-0.1c0.2,0,0.4,0.1,0.6,0.2c0.2,0.1,0.2,0.3,0.2,0.6H23c0-0.2-0.1-0.3-0.2-0.4c-0.1-0.1-0.3-0.2-0.4-0.2
			c-0.2,0-0.4,0.1-0.5,0.2c-0.1,0.2-0.2,0.4-0.2,0.7v0.1c0,0.3,0.1,0.5,0.2,0.6C22,4.2,22.2,4.3,22.4,4.3z"/>
		<path class="st0" d="M23.9,2.7c0.1-0.1,0.2-0.2,0.3-0.3c0.1-0.1,0.3-0.1,0.4-0.1c0.2,0,0.4,0.1,0.5,0.2c0.1,0.1,0.2,0.3,0.2,0.6
			v1.4H25V3.1c0-0.2,0-0.3-0.1-0.4c-0.1-0.1-0.2-0.1-0.4-0.1c-0.1,0-0.3,0-0.4,0.1C24,2.7,23.9,2.8,23.9,3v1.5h-0.2V1.4h0.2
			L23.9,2.7L23.9,2.7z"/>
		<path class="st0" d="M28.6,1.8h-1v2.7h-0.2V1.8h-1V1.6h2.2L28.6,1.8L28.6,1.8z"/>
		<path class="st0" d="M30.1,4.2c-0.1,0.2-0.4,0.3-0.7,0.3c-0.2,0-0.4-0.1-0.5-0.2c-0.1-0.1-0.2-0.3-0.2-0.6V2.3h0.2v1.4
			c0,0.4,0.2,0.6,0.5,0.6c0.3,0,0.6-0.1,0.7-0.4V2.3h0.2v2.2h-0.2L30.1,4.2z"/>
		<path class="st0" d="M32.6,3.4c0,0.3-0.1,0.6-0.2,0.8S32,4.5,31.8,4.5c-0.3,0-0.5-0.1-0.7-0.3l0,0.3h-0.2V1.4h0.2v1.2
			c0.2-0.2,0.4-0.4,0.7-0.4c0.3,0,0.5,0.1,0.6,0.3C32.5,2.8,32.6,3,32.6,3.4L32.6,3.4z M32.4,3.4c0-0.3-0.1-0.5-0.2-0.7
			c-0.1-0.2-0.3-0.2-0.5-0.2c-0.2,0-0.3,0-0.4,0.1c-0.1,0.1-0.2,0.2-0.2,0.3v1c0.1,0.3,0.3,0.4,0.6,0.4c0.2,0,0.4-0.1,0.5-0.2
			C32.3,3.9,32.4,3.7,32.4,3.4z"/>
	</g>
	<g>
		<path class="st0" d="M33.3,2.4h-0.6V2.3L33.1,2c0-0.1,0.1-0.1,0.1-0.1c0,0,0-0.1,0-0.1c0,0,0-0.1,0-0.1s-0.1,0-0.1,0
			c-0.1,0-0.1,0-0.1,0c0,0,0,0.1,0,0.1h-0.1c0-0.1,0-0.1,0.1-0.2c0.1-0.1,0.1-0.1,0.2-0.1c0.1,0,0.1,0,0.2,0.1c0,0,0.1,0.1,0.1,0.2
			c0,0.1-0.1,0.2-0.2,0.3l-0.2,0.3L33.3,2.4C33.3,2.3,33.3,2.4,33.3,2.4z"/>
	</g>
	<g id="XMLID_1_">
		<path id="XMLID_3_" class="st0" d="M34.1,1.7c0,0.2-0.1,0.3-0.3,0.3s-0.3-0.1-0.3-0.3s0.1-0.3,0.3-0.3C33.9,1.5,34.1,1.6,34.1,1.7
			z M33.6,1.7c0,0.1,0.1,0.2,0.2,0.2c0.1,0,0.2-0.1,0.2-0.2c0-0.1-0.1-0.2-0.2-0.2C33.7,1.5,33.6,1.6,33.6,1.7z M33.8,1.9L33.8,1.9
			l-0.1-0.3c0,0,0.1,0,0.1,0c0.1,0,0.1,0,0.1,0c0,0,0,0,0,0.1c0,0,0,0.1-0.1,0.1v0c0,0,0,0,0,0.1c0,0,0,0.1,0,0.1h-0.1
			C33.8,1.8,33.8,1.8,33.8,1.9c0.1-0.1,0.1-0.1,0-0.1h0L33.8,1.9L33.8,1.9z M33.8,1.7L33.8,1.7C33.8,1.7,33.8,1.7,33.8,1.7
			C33.8,1.6,33.8,1.6,33.8,1.7C33.8,1.6,33.8,1.6,33.8,1.7L33.8,1.7z"/>
	</g>
</g>
</svg>
