<?xml version="1.0" encoding="utf-8"?>
<!-- Generator: Adobe Illustrator 21.0.2, SVG Export Plug-In . SVG Version: 6.00 Build 0)  -->
<svg version="1.1" id="Layer_1" xmlns="http://www.w3.org/2000/svg" xmlns:xlink="http://www.w3.org/1999/xlink" x="0px" y="0px"
	 viewBox="0 0 50 5.208" style="enable-background:new 0 0 50 5.208;" xml:space="preserve">
<style type="text/css">
	.st0{fill:#3C4852;}
</style>
<g>
	<g>
		<path class="st0" d="M19.492,1.784h-0.995v2.697h-0.245V1.784h-0.993V1.576h2.234L19.492,1.784L19.492,1.784z"/>
		<path class="st0" d="M20.441,4.521c-0.184,0-0.349-0.045-0.498-0.136c-0.148-0.09-0.264-0.216-0.346-0.378
			c-0.082-0.162-0.124-0.343-0.124-0.544V3.378c0-0.207,0.04-0.394,0.121-0.561c0.08-0.166,0.193-0.297,0.336-0.392
			c0.144-0.095,0.299-0.143,0.467-0.143c0.262,0,0.47,0.089,0.623,0.268c0.154,0.179,0.23,0.423,0.23,0.733v0.134h-1.54v0.046
			c0,0.245,0.07,0.449,0.21,0.611c0.14,0.163,0.317,0.244,0.53,0.244c0.128,0,0.24-0.023,0.338-0.07
			c0.098-0.047,0.187-0.121,0.266-0.223l0.15,0.114C21.03,4.394,20.775,4.521,20.441,4.521z M20.397,2.486
			c-0.18,0-0.331,0.066-0.454,0.198c-0.123,0.132-0.198,0.309-0.224,0.531h1.295V3.188c-0.007-0.207-0.066-0.376-0.178-0.507
			C20.725,2.551,20.578,2.486,20.397,2.486z"/>
		<path class="st0" d="M22.412,4.319c0.166,0,0.306-0.047,0.418-0.141s0.173-0.215,0.183-0.364h0.229
			c-0.007,0.132-0.048,0.252-0.124,0.36s-0.177,0.193-0.302,0.254c-0.126,0.061-0.26,0.092-0.404,0.092
			c-0.283,0-0.508-0.098-0.673-0.295c-0.166-0.197-0.248-0.461-0.248-0.794V3.36c0-0.213,0.037-0.401,0.112-0.565
			c0.074-0.164,0.181-0.29,0.32-0.379s0.302-0.134,0.488-0.134c0.237,0,0.432,0.071,0.586,0.211
			c0.154,0.141,0.236,0.327,0.246,0.557h-0.229c-0.011-0.169-0.071-0.305-0.183-0.409c-0.111-0.104-0.251-0.156-0.42-0.156
			c-0.215,0-0.383,0.078-0.502,0.233C21.79,2.874,21.73,3.092,21.73,3.372v0.07c0,0.275,0.059,0.49,0.179,0.644
			C22.027,4.242,22.195,4.319,22.412,4.319z"/>
		<path class="st0" d="M23.854,2.687c0.078-0.129,0.179-0.229,0.301-0.299c0.122-0.071,0.256-0.106,0.401-0.106
			c0.231,0,0.404,0.065,0.517,0.196c0.113,0.13,0.17,0.326,0.172,0.587v1.416h-0.237V3.063c-0.001-0.193-0.042-0.336-0.123-0.431
			c-0.081-0.094-0.209-0.142-0.386-0.142c-0.148,0-0.278,0.046-0.392,0.139c-0.114,0.092-0.198,0.217-0.252,0.374v1.478h-0.237
			V1.417h0.237v1.27H23.854z"/>
		<path class="st0" d="M28.595,1.784H27.6v2.697h-0.245V1.784h-0.993V1.576h2.234L28.595,1.784L28.595,1.784z"/>
		<path class="st0" d="M30.105,4.208c-0.144,0.209-0.373,0.313-0.688,0.313c-0.23,0-0.405-0.067-0.525-0.2
			c-0.12-0.134-0.181-0.331-0.184-0.593V2.322h0.237v1.375c0,0.411,0.166,0.616,0.499,0.616c0.346,0,0.565-0.143,0.656-0.429V2.322
			h0.239v2.159h-0.231L30.105,4.208z"/>
		<path class="st0" d="M32.596,3.424c0,0.336-0.074,0.603-0.223,0.801s-0.349,0.296-0.6,0.296c-0.301,0-0.528-0.112-0.682-0.335
			l-0.01,0.295h-0.223V1.417h0.237v1.219c0.152-0.235,0.376-0.353,0.674-0.353c0.255,0,0.457,0.097,0.605,0.292
			c0.148,0.195,0.222,0.466,0.222,0.813V3.424z M32.357,3.382c0-0.285-0.055-0.504-0.166-0.659c-0.11-0.155-0.266-0.232-0.467-0.232
			c-0.153,0-0.283,0.038-0.389,0.113c-0.106,0.075-0.187,0.185-0.241,0.33v0.974c0.12,0.271,0.331,0.407,0.634,0.407
			c0.197,0,0.351-0.078,0.462-0.233C32.301,3.924,32.357,3.692,32.357,3.382z"/>
	</g>
	<g>
		<path class="st0" d="M33.346,2.419h-0.585V2.338l0.309-0.343c0.046-0.052,0.077-0.094,0.095-0.127
			c0.017-0.032,0.026-0.066,0.026-0.101c0-0.047-0.014-0.085-0.042-0.115s-0.066-0.045-0.113-0.045c-0.056,0-0.1,0.016-0.131,0.048
			c-0.031,0.032-0.047,0.077-0.047,0.134h-0.113c0-0.082,0.026-0.149,0.079-0.199c0.053-0.051,0.124-0.076,0.212-0.076
			c0.083,0,0.149,0.022,0.197,0.065c0.048,0.044,0.072,0.101,0.072,0.174c0,0.088-0.056,0.192-0.168,0.314l-0.239,0.259h0.448
			C33.346,2.326,33.346,2.419,33.346,2.419z"/>
	</g>
	<g id="XMLID_1_">
		<path id="XMLID_3_" class="st0" d="M34.068,1.719c0,0.151-0.122,0.271-0.276,0.271s-0.278-0.12-0.278-0.271
			s0.123-0.269,0.279-0.269C33.947,1.45,34.068,1.568,34.068,1.719z M33.584,1.719c0,0.12,0.09,0.215,0.21,0.215
			c0.117,0.002,0.205-0.095,0.205-0.214c0-0.12-0.089-0.217-0.209-0.217C33.674,1.504,33.584,1.601,33.584,1.719z M33.75,1.859
			h-0.062v-0.27c0.025-0.003,0.059-0.008,0.104-0.008c0.051,0,0.074,0.008,0.092,0.021c0.017,0.012,0.028,0.031,0.028,0.058
			c0,0.033-0.025,0.054-0.056,0.064v0.003c0.026,0.008,0.039,0.03,0.048,0.066c0.008,0.041,0.015,0.056,0.02,0.066h-0.066
			c-0.008-0.01-0.013-0.033-0.021-0.066c-0.005-0.028-0.021-0.041-0.056-0.041h-0.03L33.75,1.859L33.75,1.859z M33.751,1.707h0.03
			c0.034,0,0.062-0.011,0.062-0.039c0-0.025-0.018-0.041-0.057-0.041c-0.016,0-0.028,0.001-0.035,0.003V1.707z"/>
	</g>
</g>
</svg>
