<?xml version="1.0" encoding="utf-8"?>
<!-- Generator: Adobe Illustrator 21.1.0, SVG Export Plug-In . SVG Version: 6.00 Build 0)  -->
<svg version="1.1" id="Layer_1" xmlns="http://www.w3.org/2000/svg" xmlns:xlink="http://www.w3.org/1999/xlink" x="0px" y="0px"
	 viewBox="0 0 100 20" style="enable-background:new 0 0 100 20;" xml:space="preserve">
<style type="text/css">
	.st0{fill:#98A4AE;}
</style>
<g>
	<path class="st0" d="M20.315,5.539h-1.089V8.5h-0.732V5.539H17.42V4.945h2.896V5.539z"/>
	<path class="st0" d="M21.56,8.548c-0.387,0-0.703-0.119-0.946-0.356c-0.244-0.237-0.365-0.554-0.365-0.95V7.173
		c0-0.265,0.051-0.502,0.154-0.711s0.248-0.37,0.436-0.483c0.188-0.113,0.402-0.17,0.643-0.17c0.361,0,0.646,0.114,0.853,0.342
		c0.208,0.228,0.312,0.551,0.312,0.97v0.287h-1.682c0.023,0.173,0.091,0.312,0.207,0.416c0.114,0.104,0.26,0.156,0.436,0.156
		c0.272,0,0.484-0.099,0.637-0.296l0.347,0.388c-0.106,0.15-0.249,0.267-0.43,0.351S21.78,8.548,21.56,8.548z M21.479,6.378
		c-0.14,0-0.253,0.047-0.341,0.142c-0.087,0.095-0.143,0.23-0.167,0.407h0.981V6.871c-0.003-0.156-0.045-0.278-0.127-0.364
		S21.629,6.378,21.479,6.378z"/>
	<path class="st0" d="M24.021,7.98c0.13,0,0.236-0.036,0.317-0.107c0.082-0.072,0.124-0.167,0.127-0.286h0.662
		c-0.001,0.179-0.05,0.343-0.146,0.492c-0.096,0.148-0.228,0.265-0.395,0.347c-0.167,0.082-0.351,0.123-0.553,0.123
		c-0.377,0-0.675-0.12-0.894-0.36s-0.327-0.571-0.327-0.995V7.147c0-0.407,0.108-0.731,0.325-0.974
		c0.216-0.243,0.514-0.364,0.891-0.364c0.331,0,0.595,0.094,0.795,0.282c0.199,0.188,0.3,0.438,0.304,0.75h-0.662
		c-0.003-0.137-0.045-0.249-0.127-0.335s-0.189-0.128-0.322-0.128c-0.165,0-0.289,0.06-0.373,0.18
		c-0.083,0.119-0.125,0.313-0.125,0.583v0.073c0,0.272,0.042,0.468,0.125,0.587S23.851,7.98,24.021,7.98z"/>
	<path class="st0" d="M26.093,6.146c0.187-0.225,0.422-0.337,0.706-0.337c0.573,0,0.863,0.333,0.872,0.999V8.5h-0.706V6.824
		c0-0.152-0.033-0.265-0.098-0.337s-0.173-0.108-0.325-0.108c-0.207,0-0.356,0.079-0.449,0.239V8.5h-0.706V4.75h0.706V6.146z"/>
	<path class="st0" d="M28.727,5.858l0.022,0.306c0.189-0.236,0.442-0.354,0.759-0.354c0.28,0,0.488,0.082,0.625,0.247
		c0.137,0.164,0.207,0.41,0.21,0.736V8.5h-0.706V6.806c0-0.15-0.033-0.259-0.098-0.327c-0.065-0.067-0.173-0.101-0.325-0.101
		c-0.199,0-0.348,0.084-0.447,0.254V8.5h-0.706V5.858H28.727z"/>
	<path class="st0" d="M30.643,7.154c0-0.262,0.05-0.495,0.151-0.7s0.246-0.364,0.436-0.476c0.19-0.113,0.41-0.169,0.661-0.169
		c0.357,0,0.647,0.109,0.873,0.327s0.352,0.515,0.377,0.889l0.006,0.181c0,0.405-0.113,0.73-0.34,0.976s-0.529,0.367-0.911,0.367
		c-0.381,0-0.685-0.122-0.912-0.366c-0.228-0.244-0.341-0.576-0.341-0.996V7.154z M31.348,7.205c0,0.251,0.047,0.442,0.142,0.575
		s0.229,0.2,0.405,0.2c0.171,0,0.304-0.066,0.401-0.197c0.096-0.131,0.144-0.341,0.144-0.63c0-0.246-0.048-0.437-0.144-0.572
		c-0.097-0.135-0.231-0.202-0.406-0.202c-0.172,0-0.306,0.066-0.4,0.201S31.348,6.922,31.348,7.205z"/>
	<path class="st0" d="M34.199,8.5h-0.708V4.75h0.708V8.5z"/>
	<path class="st0" d="M34.545,7.154c0-0.262,0.051-0.495,0.151-0.7s0.246-0.364,0.436-0.476c0.189-0.113,0.41-0.169,0.66-0.169
		c0.357,0,0.647,0.109,0.873,0.327s0.352,0.515,0.377,0.889l0.006,0.181c0,0.405-0.113,0.73-0.34,0.976s-0.529,0.367-0.91,0.367
		s-0.686-0.122-0.912-0.366c-0.228-0.244-0.341-0.576-0.341-0.996V7.154z M35.251,7.205c0,0.251,0.047,0.442,0.141,0.575
		c0.095,0.133,0.23,0.2,0.406,0.2c0.17,0,0.304-0.066,0.4-0.197c0.096-0.131,0.144-0.341,0.144-0.63
		c0-0.246-0.048-0.437-0.144-0.572c-0.097-0.135-0.231-0.202-0.406-0.202c-0.172,0-0.306,0.066-0.4,0.201
		C35.298,6.714,35.251,6.922,35.251,7.205z"/>
	<path class="st0" d="M37.255,7.16c0-0.406,0.097-0.732,0.29-0.979c0.192-0.247,0.452-0.371,0.78-0.371
		c0.289,0,0.515,0.1,0.676,0.298l0.029-0.249h0.64v2.554c0,0.231-0.053,0.432-0.157,0.604c-0.105,0.17-0.253,0.301-0.443,0.391
		C38.879,9.495,38.656,9.54,38.4,9.54c-0.193,0-0.383-0.039-0.566-0.116s-0.323-0.177-0.417-0.299l0.312-0.43
		c0.176,0.197,0.389,0.295,0.639,0.295c0.188,0,0.333-0.05,0.438-0.149c0.104-0.101,0.156-0.242,0.156-0.427V8.273
		c-0.163,0.184-0.377,0.275-0.643,0.275c-0.316,0-0.573-0.124-0.77-0.372s-0.295-0.577-0.295-0.987V7.16z M37.961,7.209
		c0,0.24,0.048,0.429,0.144,0.565c0.097,0.137,0.229,0.205,0.396,0.205c0.215,0,0.368-0.081,0.461-0.243V6.621
		c-0.095-0.162-0.246-0.242-0.457-0.242c-0.169,0-0.302,0.069-0.398,0.208S37.961,6.933,37.961,7.209z"/>
	<path class="st0" d="M41.073,7.501l0.488-1.644h0.756L41.256,8.91l-0.059,0.139c-0.158,0.346-0.418,0.518-0.781,0.518
		c-0.103,0-0.207-0.015-0.312-0.046V8.986l0.107,0.002c0.134,0,0.233-0.021,0.299-0.061c0.066-0.041,0.118-0.108,0.155-0.203
		l0.083-0.217l-0.925-2.649h0.759L41.073,7.501z"/>
	<path class="st0" d="M43.638,8.5V4.945h1.094c0.312,0,0.592,0.07,0.839,0.211c0.246,0.141,0.438,0.341,0.577,0.601
		s0.208,0.555,0.208,0.886v0.163c0,0.33-0.068,0.624-0.204,0.882c-0.136,0.257-0.328,0.456-0.575,0.598S45.05,8.498,44.738,8.5
		H43.638z M44.37,5.539v2.373h0.354c0.286,0,0.505-0.094,0.656-0.281s0.229-0.455,0.232-0.803V6.639
		c0-0.361-0.075-0.635-0.225-0.821c-0.15-0.187-0.369-0.279-0.657-0.279H44.37z"/>
	<path class="st0" d="M46.71,5.174c0-0.105,0.036-0.192,0.106-0.261c0.071-0.068,0.167-0.104,0.29-0.104
		c0.12,0,0.216,0.035,0.287,0.104c0.072,0.068,0.107,0.155,0.107,0.261c0,0.107-0.036,0.195-0.108,0.264s-0.168,0.103-0.286,0.103
		c-0.119,0-0.215-0.034-0.287-0.103S46.71,5.282,46.71,5.174z M47.46,8.5h-0.708V5.858h0.708V8.5z"/>
	<path class="st0" d="M49.401,6.519C49.305,6.506,49.22,6.5,49.147,6.5c-0.268,0-0.442,0.091-0.525,0.271V8.5h-0.705V5.858h0.666
		l0.02,0.315c0.142-0.243,0.338-0.364,0.588-0.364c0.078,0,0.152,0.011,0.221,0.032L49.401,6.519z"/>
	<path class="st0" d="M50.784,8.548c-0.387,0-0.702-0.119-0.945-0.356s-0.365-0.554-0.365-0.95V7.173
		c0-0.265,0.051-0.502,0.154-0.711c0.102-0.209,0.247-0.37,0.436-0.483c0.188-0.113,0.402-0.17,0.643-0.17
		c0.361,0,0.646,0.114,0.854,0.342c0.208,0.228,0.312,0.551,0.312,0.97v0.287h-1.683c0.023,0.173,0.092,0.312,0.207,0.416
		c0.114,0.104,0.26,0.156,0.436,0.156c0.271,0,0.484-0.099,0.637-0.296l0.348,0.388c-0.106,0.15-0.25,0.267-0.43,0.351
		C51.204,8.506,51.005,8.548,50.784,8.548z M50.704,6.378c-0.14,0-0.254,0.047-0.341,0.142s-0.143,0.23-0.167,0.407h0.981V6.871
		c-0.003-0.156-0.046-0.278-0.127-0.364S50.854,6.378,50.704,6.378z"/>
	<path class="st0" d="M53.245,7.98c0.131,0,0.236-0.036,0.318-0.107c0.081-0.072,0.123-0.167,0.127-0.286h0.661
		c-0.002,0.179-0.051,0.343-0.146,0.492c-0.096,0.148-0.228,0.265-0.395,0.347s-0.351,0.123-0.553,0.123
		c-0.378,0-0.676-0.12-0.894-0.36s-0.327-0.571-0.327-0.995V7.147c0-0.407,0.108-0.731,0.325-0.974
		c0.216-0.243,0.513-0.364,0.891-0.364c0.33,0,0.596,0.094,0.795,0.282c0.199,0.188,0.301,0.438,0.304,0.75H53.69
		c-0.004-0.137-0.046-0.249-0.127-0.335c-0.082-0.086-0.189-0.128-0.322-0.128c-0.165,0-0.289,0.06-0.373,0.18
		c-0.084,0.119-0.125,0.313-0.125,0.583v0.073c0,0.272,0.041,0.468,0.124,0.587S53.076,7.98,53.245,7.98z"/>
	<path class="st0" d="M55.474,5.208v0.649h0.452v0.518h-0.452v1.318c0,0.098,0.02,0.168,0.057,0.21s0.109,0.063,0.215,0.063
		c0.078,0,0.147-0.006,0.207-0.017v0.534c-0.138,0.042-0.28,0.063-0.427,0.063c-0.495,0-0.747-0.25-0.757-0.75V6.375h-0.386V5.858
		h0.386V5.208H55.474z"/>
	<path class="st0" d="M56.01,7.154c0-0.262,0.051-0.495,0.151-0.7s0.246-0.364,0.436-0.476c0.189-0.113,0.41-0.169,0.66-0.169
		c0.357,0,0.647,0.109,0.873,0.327s0.352,0.515,0.377,0.889l0.006,0.181c0,0.405-0.113,0.73-0.34,0.976s-0.529,0.367-0.91,0.367
		s-0.686-0.122-0.912-0.366c-0.228-0.244-0.341-0.576-0.341-0.996V7.154z M56.716,7.205c0,0.251,0.047,0.442,0.141,0.575
		c0.095,0.133,0.23,0.2,0.406,0.2c0.17,0,0.304-0.066,0.4-0.197c0.096-0.131,0.144-0.341,0.144-0.63
		c0-0.246-0.048-0.437-0.144-0.572c-0.097-0.135-0.231-0.202-0.406-0.202c-0.172,0-0.306,0.066-0.4,0.201
		C56.763,6.714,56.716,6.922,56.716,7.205z"/>
	<path class="st0" d="M60.308,6.519c-0.097-0.013-0.182-0.02-0.254-0.02c-0.268,0-0.442,0.091-0.525,0.271V8.5h-0.705V5.858h0.666
		l0.02,0.315c0.142-0.243,0.338-0.364,0.588-0.364c0.078,0,0.152,0.011,0.221,0.032L60.308,6.519z"/>
	<path class="st0" d="M61.863,8.804h-0.524l1.309-3.859h0.524L61.863,8.804z"/>
</g>
<g>
	<path class="st0" d="M18.372,12.414v1.252H17.64v-3.555h1.387c0.267,0,0.502,0.049,0.704,0.146
		c0.203,0.098,0.359,0.236,0.468,0.416s0.164,0.385,0.164,0.614c0,0.349-0.119,0.623-0.358,0.824
		c-0.238,0.201-0.568,0.302-0.99,0.302H18.372z M18.372,11.82h0.654c0.194,0,0.341-0.046,0.443-0.137
		c0.102-0.091,0.152-0.222,0.152-0.391c0-0.174-0.051-0.314-0.154-0.422s-0.244-0.163-0.425-0.166h-0.671V11.82z"/>
	<path class="st0" d="M22.178,11.686c-0.096-0.013-0.181-0.02-0.254-0.02c-0.267,0-0.442,0.091-0.525,0.271v1.729h-0.706v-2.642
		h0.667l0.02,0.315c0.142-0.243,0.338-0.364,0.588-0.364c0.078,0,0.151,0.011,0.22,0.032L22.178,11.686z"/>
	<path class="st0" d="M22.387,10.341c0-0.105,0.036-0.192,0.106-0.261c0.071-0.068,0.167-0.104,0.29-0.104
		c0.121,0,0.216,0.035,0.288,0.104s0.107,0.155,0.107,0.261c0,0.107-0.036,0.195-0.109,0.264c-0.072,0.068-0.168,0.103-0.287,0.103
		s-0.214-0.034-0.287-0.103C22.423,10.536,22.387,10.448,22.387,10.341z M23.137,13.666h-0.708v-2.642h0.708V13.666z"/>
	<path class="st0" d="M24.242,11.024l0.022,0.306c0.189-0.236,0.442-0.354,0.759-0.354c0.28,0,0.488,0.082,0.625,0.247
		c0.137,0.164,0.207,0.41,0.21,0.736v1.707h-0.706v-1.693c0-0.15-0.033-0.259-0.098-0.327c-0.065-0.067-0.173-0.101-0.325-0.101
		c-0.199,0-0.348,0.084-0.447,0.254v1.867h-0.706v-2.642H24.242z"/>
	<path class="st0" d="M26.263,10.341c0-0.105,0.036-0.192,0.106-0.261c0.071-0.068,0.167-0.104,0.29-0.104
		c0.121,0,0.216,0.035,0.288,0.104s0.107,0.155,0.107,0.261c0,0.107-0.036,0.195-0.109,0.264c-0.072,0.068-0.168,0.103-0.287,0.103
		s-0.214-0.034-0.287-0.103C26.299,10.536,26.263,10.448,26.263,10.341z M27.013,13.666h-0.708v-2.642h0.708V13.666z"/>
	<path class="st0" d="M28.567,13.146c0.13,0,0.236-0.036,0.317-0.107c0.082-0.072,0.124-0.167,0.127-0.286h0.662
		c-0.001,0.179-0.05,0.343-0.146,0.492c-0.096,0.148-0.228,0.265-0.395,0.347c-0.167,0.082-0.351,0.123-0.553,0.123
		c-0.377,0-0.675-0.12-0.894-0.36s-0.327-0.571-0.327-0.995v-0.046c0-0.407,0.108-0.731,0.325-0.974
		c0.216-0.243,0.514-0.364,0.891-0.364c0.331,0,0.595,0.094,0.795,0.282c0.199,0.188,0.3,0.438,0.304,0.75h-0.662
		c-0.003-0.137-0.045-0.249-0.127-0.335s-0.189-0.128-0.322-0.128c-0.165,0-0.289,0.06-0.373,0.18
		c-0.083,0.119-0.125,0.313-0.125,0.583v0.073c0,0.272,0.042,0.468,0.125,0.587S28.398,13.146,28.567,13.146z"/>
	<path class="st0" d="M32.329,12.369c0,0.407-0.092,0.733-0.277,0.979s-0.435,0.367-0.749,0.367c-0.267,0-0.482-0.093-0.647-0.278
		v1.245h-0.706v-3.657h0.654l0.024,0.259c0.171-0.205,0.394-0.308,0.669-0.308c0.326,0,0.579,0.12,0.759,0.361
		c0.181,0.241,0.271,0.573,0.271,0.996V12.369z M31.624,12.315c0-0.246-0.043-0.437-0.131-0.57c-0.087-0.134-0.213-0.2-0.379-0.2
		c-0.221,0-0.374,0.084-0.457,0.254v1.085c0.086,0.175,0.24,0.263,0.461,0.263C31.455,13.146,31.624,12.869,31.624,12.315z"/>
	<path class="st0" d="M34.172,13.666c-0.032-0.063-0.056-0.143-0.071-0.236c-0.17,0.189-0.393,0.285-0.666,0.285
		c-0.259,0-0.474-0.075-0.644-0.225s-0.255-0.339-0.255-0.566c0-0.28,0.104-0.495,0.312-0.645c0.207-0.149,0.507-0.226,0.899-0.227
		h0.324V11.9c0-0.121-0.031-0.219-0.094-0.293c-0.062-0.072-0.161-0.109-0.297-0.109c-0.118,0-0.212,0.028-0.279,0.086
		c-0.067,0.057-0.102,0.135-0.102,0.234h-0.705c0-0.153,0.047-0.295,0.142-0.426c0.095-0.13,0.228-0.231,0.4-0.306
		s0.366-0.111,0.581-0.111c0.325,0,0.584,0.082,0.775,0.245c0.191,0.164,0.287,0.394,0.287,0.689v1.146
		c0.001,0.251,0.036,0.44,0.104,0.569v0.041H34.172z M33.589,13.176c0.104,0,0.199-0.023,0.287-0.07
		c0.088-0.046,0.153-0.108,0.195-0.187v-0.454h-0.264c-0.353,0-0.541,0.122-0.563,0.366l-0.003,0.042
		c0,0.088,0.031,0.16,0.094,0.217C33.396,13.146,33.481,13.176,33.589,13.176z"/>
	<path class="st0" d="M35.941,13.666h-0.708v-3.75h0.708V13.666z"/>
	<path class="st0" d="M37.827,12.936c0-0.086-0.042-0.153-0.128-0.203c-0.085-0.05-0.223-0.094-0.411-0.133
		c-0.628-0.133-0.942-0.399-0.942-0.801c0-0.234,0.098-0.431,0.292-0.588s0.448-0.235,0.763-0.235c0.335,0,0.604,0.079,0.805,0.237
		c0.201,0.157,0.302,0.362,0.302,0.615h-0.706c0-0.102-0.032-0.185-0.098-0.251c-0.065-0.065-0.167-0.099-0.306-0.099
		c-0.118,0-0.21,0.027-0.275,0.08c-0.065,0.055-0.098,0.123-0.098,0.205c0,0.078,0.037,0.142,0.111,0.189s0.199,0.09,0.375,0.125
		s0.323,0.074,0.443,0.118c0.373,0.137,0.56,0.374,0.56,0.71c0,0.241-0.104,0.437-0.31,0.585c-0.207,0.149-0.475,0.224-0.801,0.224
		c-0.222,0-0.418-0.039-0.59-0.118s-0.307-0.188-0.404-0.325s-0.146-0.286-0.146-0.445h0.669c0.007,0.125,0.053,0.222,0.14,0.288
		c0.086,0.066,0.201,0.101,0.346,0.101c0.136,0,0.237-0.026,0.307-0.077C37.793,13.086,37.827,13.02,37.827,12.936z"/>
</g>
<g>
	<g>
		<g>
			<path class="st0" d="M13.602,14.334c-0.028-0.032-0.058-0.063-0.086-0.095c-0.002-0.093-0.007-0.185-0.009-0.269
				c-0.001-0.048-0.041-0.068-0.074-0.06c-0.005-0.004-0.009-0.01-0.016-0.011c-0.177-0.027-0.357-0.015-0.536-0.014
				c-0.171,0.001-0.345-0.004-0.515,0.015c-0.001-0.014-0.004-0.027-0.013-0.037c0.05-0.371,0.017-0.762,0.016-1.136
				c-0.001-0.479-0.001-0.959-0.002-1.438c-0.001-0.455,0.005-0.913,0.005-1.37h-0.118c0,0.009,0,0.017,0,0.026
				c-0.002-0.009-0.005-0.017-0.007-0.026h-0.235c0.009,0.034,0.019,0.069,0.028,0.103c-0.018-0.034-0.036-0.069-0.054-0.103h-0.203
				c0,0.436,0.01,0.872,0.009,1.305c-0.001,0.698-0.071,1.448,0.01,2.145c-0.623-0.07-1.278-0.014-1.903-0.014
				c-0.571,0-1.209-0.081-1.775,0.028c-0.567-0.109-1.205-0.028-1.775-0.028c-0.625,0-1.28-0.055-1.903,0.014
				c0.081-0.697,0.01-1.447,0.01-2.145C4.454,10.55,4.478,9.868,4.452,9.193c0.009-0.016,0.013-0.036,0.005-0.057
				C4.455,9.127,4.452,9.119,4.449,9.111C4.445,9.033,4.441,8.955,4.436,8.878c0.645,0.077,1.317,0.024,1.966,0.023
				C6.974,8.9,7.552,8.92,8.124,8.896c0.388,0.017,0.779,0.013,1.169,0.009c0.054,0.035,0.112,0.056,0.171,0.04
				c0.018-0.005,0.021-0.027,0.012-0.041c0.124-0.001,0.247-0.002,0.37-0.002c0.184,0,0.369,0.005,0.556,0.009V8.863
				c-0.059-0.028-0.115-0.059-0.17-0.093c-0.049,0.001-0.098,0.002-0.147,0.002c0.024-0.016,0.037-0.053,0.023-0.084
				c-0.001-0.002-0.002-0.004-0.003-0.006c-0.073-0.056-0.14-0.118-0.2-0.187c0.001,0.003,0,0.005,0.001,0.008
				c0.007,0.016,0.014,0.032,0.021,0.049c-0.084-0.06-0.17-0.118-0.257-0.174c0.049,0,0.098,0,0.147,0
				c-0.011-0.016-0.019-0.033-0.029-0.05c-0.023-0.02-0.046-0.039-0.07-0.059C9.186,8.268,8.655,8.266,8.124,8.275
				C7.756,8.269,7.388,8.268,7.019,8.269c-0.016-0.006-0.032-0.006-0.045,0c-0.302,0-0.605,0.001-0.907,0.001
				C5.695,8.269,5.322,8.268,4.95,8.268c-0.312,0-0.637-0.028-0.948,0.007c0-0.001,0-0.002-0.001-0.003
				c-0.007-0.025-0.04-0.025-0.047,0C3.953,8.275,3.953,8.278,3.952,8.281c-0.04,0.01-0.045,0.055-0.016,0.076
				C3.933,8.371,3.932,8.385,3.931,8.398C3.925,8.4,3.92,8.404,3.919,8.413c-0.065,0.954-0.038,1.919-0.039,2.876
				c0,0.326-0.001,0.651-0.001,0.977c-0.017,0.017-0.025,0.044-0.01,0.073c0.004,0.007,0.007,0.014,0.01,0.022l0,0.366
				c0,0.374-0.033,0.765,0.016,1.136c-0.009,0.01-0.012,0.024-0.013,0.037c-0.019-0.002-0.039-0.003-0.058-0.005
				c-0.023-0.022-0.057-0.022-0.083-0.006c-0.125-0.006-0.25-0.003-0.374-0.004c-0.179-0.001-0.359-0.014-0.536,0.014
				C2.824,13.9,2.82,13.905,2.815,13.91c-0.034-0.007-0.073,0.012-0.074,0.06c-0.006,0.211-0.031,0.475,0.035,0.677
				c0.009,0.027,0.043,0.027,0.052,0c0.003-0.01,0.006-0.021,0.008-0.032c0.399,0.055,0.814,0.023,1.215,0.023
				c0.159,0,0.318,0,0.477,0c0.013,0.011,0.025,0.021,0.038,0.032c0.046,0.038,0.102,0.015,0.116-0.032c0.248,0,0.496,0,0.744,0
				c0.799,0,1.601,0.015,2.4,0c0.031,0.013,0.062,0.027,0.093,0.039c0.035,0.014,0.063-0.011,0.074-0.042
				c0.043-0.001,0.087-0.001,0.131-0.002c0.342,0.01,0.684,0.012,1.026,0.012c0.006,0.007,0.012,0.013,0.018,0.02
				c0.036,0.04,0.083,0.019,0.102-0.019c0.518-0.001,1.035-0.007,1.552-0.007c0.444,0,0.889,0,1.333,0l0,0
				c0.03,0.026,0.071,0.021,0.098,0c0.349,0.002,0.707,0.024,1.055-0.012c0.028,0.024,0.056,0.049,0.085,0.073
				c0.069,0.06,0.155-0.03,0.098-0.104c-0.001-0.001-0.002-0.002-0.003-0.004c0.013-0.054,0.021-0.11,0.025-0.168
				c0.001,0.001,0.002,0.002,0.003,0.003C13.574,14.484,13.657,14.396,13.602,14.334z M4.682,8.774
				c0.042-0.014,0.075-0.061,0.042-0.107C4.719,8.66,4.714,8.653,4.71,8.647c0.061,0.036,0.122,0.071,0.183,0.107
				c0.01,0.006,0.02,0.008,0.031,0.008C4.843,8.764,4.762,8.768,4.682,8.774z M4.937,8.761C4.97,8.756,5,8.729,5.001,8.693
				C5.04,8.715,5.078,8.736,5.117,8.757C5.057,8.758,4.997,8.759,4.937,8.761z M5.401,8.758L5.37,8.67
				C5.42,8.7,5.471,8.73,5.521,8.76C5.481,8.759,5.441,8.759,5.401,8.758z M9.027,8.766c0-0.013-0.003-0.026-0.012-0.037
				c-0.005-0.007-0.01-0.014-0.015-0.02c0.004-0.015,0.001-0.032-0.011-0.046C8.959,8.629,8.928,8.594,8.898,8.559
				c0.074,0.07,0.153,0.135,0.225,0.2C9.125,8.762,9.128,8.764,9.13,8.767C9.096,8.766,9.061,8.767,9.027,8.766z M9.733,8.703
				C9.772,8.75,9.85,8.687,9.816,8.636C9.808,8.625,9.802,8.613,9.795,8.603C9.873,8.659,9.952,8.715,10.03,8.77
				c0.002,0.001,0.004,0.001,0.005,0.002c-0.021,0-0.043,0.001-0.064,0.001c-0.107,0-0.215-0.001-0.322-0.002
				C9.686,8.77,9.716,8.727,9.683,8.693C9.621,8.63,9.562,8.563,9.508,8.492C9.589,8.551,9.664,8.619,9.733,8.703z M9.331,8.377
				c0.001,0.002,0.001,0.004,0.002,0.005c0.068,0.069,0.128,0.146,0.185,0.226C9.459,8.579,9.4,8.55,9.341,8.52
				C9.326,8.507,9.31,8.494,9.295,8.481C9.252,8.444,9.21,8.406,9.163,8.377C9.219,8.377,9.275,8.377,9.331,8.377z M8.988,8.377
				C8.988,8.377,8.988,8.377,8.988,8.377C9.025,8.449,9.1,8.496,9.16,8.544c0.074,0.058,0.148,0.116,0.223,0.172
				C9.417,8.74,9.45,8.72,9.465,8.688c0.055,0.026,0.109,0.053,0.164,0.079c0.005,0.002,0.01,0.003,0.015,0.004
				C9.539,8.77,9.435,8.77,9.331,8.769C9.273,8.724,9.211,8.682,9.16,8.636c-0.095-0.084-0.193-0.184-0.299-0.26
				C8.903,8.377,8.946,8.377,8.988,8.377z M8.733,8.376c0.029,0.042,0.063,0.081,0.098,0.118c-0.029-0.009-0.064,0.02-0.059,0.052
				C8.767,8.543,8.76,8.54,8.754,8.537C8.707,8.503,8.66,8.469,8.612,8.436C8.585,8.417,8.561,8.43,8.549,8.453
				C8.508,8.438,8.466,8.427,8.425,8.414C8.408,8.4,8.391,8.387,8.373,8.373C8.493,8.374,8.613,8.375,8.733,8.376z M8.392,8.517
				c0.096,0.086,0.195,0.169,0.295,0.249C8.582,8.767,8.478,8.77,8.373,8.772C8.384,8.747,8.384,8.715,8.365,8.69
				C8.313,8.619,8.259,8.549,8.206,8.478C8.269,8.488,8.331,8.501,8.392,8.517z M7.711,8.375C7.713,8.382,7.716,8.389,7.72,8.396
				c0.031,0.049,0.062,0.098,0.093,0.147c-0.15-0.055-0.301-0.111-0.451-0.166C7.478,8.377,7.595,8.375,7.711,8.375z M6.936,8.378
				c0.01,0.023,0.021,0.045,0.031,0.068C6.909,8.423,6.85,8.4,6.791,8.378C6.839,8.378,6.888,8.378,6.936,8.378z M6.192,8.378
				c0.068,0,0.135,0,0.203,0c-0.023,0.024-0.033,0.061-0.01,0.094C6.397,8.491,6.407,8.51,6.418,8.53
				C6.339,8.484,6.26,8.44,6.18,8.397c-0.023-0.012-0.054,0-0.067,0.021C6.104,8.414,6.095,8.411,6.086,8.407
				c-0.012-0.01-0.023-0.019-0.035-0.029C6.098,8.378,6.145,8.378,6.192,8.378z M6.069,8.537C6.07,8.538,6.071,8.539,6.072,8.54
				c-0.001,0.004,0,0.008,0.005,0.008c0.001,0,0.001-0.001,0.001-0.001c0.07,0.064,0.14,0.128,0.214,0.188
				C6.344,8.776,6.396,8.69,6.358,8.643C6.356,8.641,6.354,8.638,6.352,8.636c0.02,0.008,0.039,0.015,0.059,0.023
				C6.44,8.67,6.463,8.653,6.474,8.628C6.493,8.664,6.511,8.701,6.53,8.739c0.026,0.051,0.112,0.03,0.106-0.031
				c-0.002-0.027-0.006-0.05-0.01-0.073C6.644,8.646,6.662,8.658,6.68,8.669c0.067,0.042,0.141-0.04,0.104-0.11
				C6.78,8.552,6.777,8.545,6.773,8.538c0.107,0.04,0.213,0.081,0.32,0.121c0.065,0.024,0.11-0.058,0.083-0.114L7.174,8.54
				c0.103,0.066,0.205,0.132,0.309,0.197c0.074,0.046,0.143-0.057,0.089-0.122C7.704,8.662,7.837,8.71,7.97,8.758
				c0.056,0.02,0.114-0.056,0.079-0.109c-0.005-0.008-0.01-0.016-0.015-0.023c0.071,0.05,0.142,0.1,0.213,0.15
				C8.206,8.777,8.165,8.777,8.124,8.778C7.51,8.751,6.89,8.774,6.277,8.773c-0.184,0-0.37-0.005-0.557-0.009
				C5.724,8.747,5.722,8.728,5.71,8.71C5.706,8.704,5.703,8.698,5.699,8.692C5.862,8.756,6.025,8.743,6.069,8.537z M5.958,8.378
				c-0.008,0.014-0.01,0.032,0,0.051C5.959,8.431,5.96,8.433,5.961,8.435C5.96,8.44,5.958,8.444,5.957,8.448
				C5.752,8.555,5.598,8.532,5.496,8.379l0,0C5.65,8.378,5.804,8.378,5.958,8.378z M5.074,8.379c0.109,0,0.217,0,0.326-0.001
				c-0.023,0.022-0.035,0.057-0.014,0.09c0.015,0.023,0.029,0.047,0.044,0.07C5.378,8.509,5.326,8.48,5.275,8.449
				C5.226,8.42,5.153,8.468,5.174,8.531c0.012,0.035,0.023,0.07,0.035,0.105c-0.098-0.053-0.195-0.107-0.293-0.16
				C4.873,8.453,4.813,8.482,4.809,8.532C4.728,8.485,4.647,8.438,4.567,8.391C4.737,8.387,4.907,8.38,5.074,8.379z M4.625,8.771
				C4.63,8.774,4.636,8.775,4.641,8.776C4.59,8.78,4.54,8.786,4.489,8.791C4.5,8.771,4.501,8.746,4.485,8.72
				C4.477,8.706,4.468,8.692,4.46,8.679C4.515,8.709,4.57,8.741,4.625,8.771z M12.146,12.461c-0.06-0.109-0.127-0.214-0.191-0.32
				c-0.007-0.012-0.017-0.018-0.027-0.021c-0.003-0.096-0.005-0.191-0.008-0.286c0.099,0.214,0.199,0.429,0.301,0.641
				c0.008,0.016,0.021,0.025,0.035,0.028c0,0.031,0,0.062,0,0.093c0,0.165-0.006,0.334-0.01,0.504
				c-0.019-0.031-0.038-0.062-0.056-0.094c-0.075-0.131-0.15-0.263-0.233-0.388c-0.006-0.009-0.013-0.013-0.021-0.015
				c0-0.101-0.001-0.202-0.003-0.304c0.033,0.061,0.066,0.122,0.099,0.184c0.046,0.085,0.093,0.201,0.176,0.249
				c0.019,0.011,0.043-0.003,0.043-0.026C12.249,12.615,12.189,12.538,12.146,12.461z M11.914,11.588
				c-0.001-0.055-0.002-0.109-0.003-0.163c0.045,0.138,0.087,0.276,0.128,0.415C11.998,11.756,11.956,11.672,11.914,11.588z
				 M12.046,11.545c0.048,0.085,0.094,0.172,0.143,0.257c0.015,0.026,0.042,0.034,0.067,0.029c0,0.127,0,0.255,0,0.382
				C12.183,11.991,12.112,11.769,12.046,11.545z M12.083,11.019c0.045,0.071,0.089,0.142,0.135,0.212
				c0.011,0.016,0.024,0.024,0.039,0.028c0,0.112,0,0.224,0,0.336C12.197,11.404,12.139,11.212,12.083,11.019z M12.254,9.979
				c0,0.128,0,0.256,0.001,0.385c-0.033-0.115-0.065-0.23-0.096-0.345C12.191,10.044,12.243,10.021,12.254,9.979z M12.188,10.599
				c0.015,0.029,0.043,0.036,0.068,0.03c0.001,0.132,0.001,0.264,0.001,0.396c-0.142-0.27-0.24-0.557-0.288-0.859
				C12.041,10.311,12.113,10.456,12.188,10.599z M11.91,10.866c0.043,0.138,0.085,0.277,0.127,0.415
				c-0.043-0.073-0.084-0.148-0.127-0.221c0,0,0,0-0.001-0.001C11.909,10.995,11.909,10.93,11.91,10.866z M11.935,12.723
				c0.048,0.098,0.098,0.194,0.15,0.289c0.048,0.088,0.091,0.193,0.159,0.267c-0.001,0.163,0.001,0.326,0.017,0.485l-0.356-0.476
				C11.924,13.103,11.932,12.914,11.935,12.723z M12.042,13.77c-0.001-0.001-0.001-0.002-0.002-0.002
				c0.015,0.01,0.031,0.02,0.047,0.031c0.023,0.015,0.045,0.012,0.062,0c0.009,0.014,0.017,0.027,0.026,0.041
				c-0.047-0.002-0.094-0.002-0.141-0.004C12.049,13.817,12.056,13.792,12.042,13.77z M11.821,13.498
				c0.013,0.026,0.06,0.024,0.064-0.008l0-0.001c0.025-0.009,0.037-0.032,0.037-0.054c0.036,0.061,0.073,0.122,0.111,0.182
				c-0.051-0.026-0.103-0.052-0.153-0.081c-0.036-0.02-0.085,0.014-0.077,0.055c-0.037-0.027-0.074-0.054-0.111-0.081
				C11.735,13.506,11.778,13.503,11.821,13.498z M11.806,14.078c0.031,0.05,0.062,0.101,0.093,0.151
				c-0.096-0.081-0.193-0.162-0.288-0.245c0.082-0.001,0.165-0.004,0.247-0.006C11.815,13.982,11.776,14.03,11.806,14.078z
				 M11.755,13.826c0.023-0.015,0.035-0.048,0.021-0.077l-0.033-0.069c0.07,0.051,0.141,0.101,0.211,0.152
				C11.888,13.83,11.822,13.827,11.755,13.826z M11.413,13.822c0-0.029,0-0.057,0-0.086c0.093,0.029,0.185,0.059,0.278,0.088
				C11.598,13.823,11.505,13.822,11.413,13.822z M8.562,13.724c-0.01-0.027-0.02-0.054-0.03-0.081
				c0.07,0.044,0.141,0.089,0.211,0.133c0.044,0.028,0.095-0.027,0.07-0.074c-0.015-0.028-0.03-0.057-0.046-0.085
				c0.104,0.066,0.209,0.132,0.313,0.199c0.041,0.026,0.086-0.025,0.064-0.068c-0.003-0.006-0.006-0.012-0.01-0.019
				c0.106,0.03,0.212,0.061,0.317,0.091c0.044,0.013,0.075-0.032,0.064-0.073c0.059,0.026,0.118,0.052,0.176,0.078
				c-0.249,0-0.499,0-0.748,0c-0.242,0-0.502-0.023-0.75-0.004c0.002-0.008,0.003-0.017,0.001-0.025l-0.021-0.08
				c0.108,0.026,0.215,0.052,0.323,0.079C8.532,13.805,8.579,13.768,8.562,13.724z M9.598,14.301
				c-0.129-0.106-0.257-0.213-0.384-0.321c0.037,0,0.074,0,0.111,0c0.004,0.012,0.011,0.023,0.022,0.033
				C9.452,14.096,9.533,14.193,9.598,14.301z M8.124,13.486c0.082,0.016,0.167,0.027,0.252,0.035c0,0.002-0.001,0.003,0,0.004
				c0.016,0.044,0.032,0.089,0.047,0.133c-0.104-0.025-0.209-0.051-0.313-0.076c-0.04-0.01-0.079,0.027-0.067,0.071
				c0.005,0.02,0.011,0.04,0.016,0.06c-0.097-0.042-0.195-0.085-0.292-0.127c-0.04-0.017-0.077,0.032-0.067,0.071
				c0.004,0.016,0.008,0.031,0.012,0.047c-0.057-0.02-0.113-0.031-0.183-0.035c-0.092-0.005-0.16,0.054-0.258,0.023
				c-0.094-0.03-0.187-0.059-0.281-0.089c-0.033-0.01-0.06,0.014-0.066,0.045c-0.051-0.028-0.103-0.056-0.154-0.085
				c-0.038-0.021-0.08,0.008-0.08,0.051c-0.051-0.033-0.101-0.066-0.152-0.1C7.059,13.53,7.619,13.583,8.124,13.486z M7.834,13.741
				c0.06,0.026,0.12,0.052,0.18,0.078c-0.056-0.003-0.111-0.006-0.168-0.006c0.001-0.008,0.003-0.015,0.001-0.024
				C7.842,13.774,7.838,13.757,7.834,13.741z M7.692,13.815c-0.085,0.003-0.17,0.006-0.254,0.008
				C7.465,13.776,7.43,13.682,7.692,13.815z M6.514,13.718c-0.003-0.029-0.006-0.057-0.009-0.086
				c0.08,0.052,0.161,0.105,0.241,0.157c0.041,0.027,0.09-0.016,0.08-0.063c0.047,0.026,0.094,0.052,0.142,0.077
				c0.042,0.023,0.086-0.013,0.079-0.061c0.087,0.028,0.174,0.055,0.261,0.083c-0.001,0-0.003,0-0.004,0c-0.352,0-0.704,0-1.056,0
				c0.009-0.013,0.015-0.029,0.011-0.049c-0.004-0.02-0.007-0.04-0.011-0.061c0.065,0.02,0.13,0.039,0.195,0.059
				C6.475,13.785,6.518,13.757,6.514,13.718z M6.348,13.514c0.011,0,0.023,0,0.034,0.001c0,0.002-0.001,0.003-0.001,0.005
				c0.004,0.039,0.008,0.079,0.012,0.118c-0.068-0.021-0.135-0.041-0.203-0.062c-0.044-0.013-0.077,0.03-0.069,0.073
				c0.002,0.013,0.005,0.027,0.007,0.04c-0.1-0.051-0.2-0.102-0.301-0.153c-0.039-0.02-0.085,0.004-0.086,0.052
				c-0.001,0.031-0.001,0.062-0.002,0.093c-0.091-0.05-0.182-0.1-0.272-0.15C5.764,13.525,6.059,13.514,6.348,13.514z M5.886,14.021
				c0.014,0.052,0.03,0.104,0.045,0.157c-0.05-0.065-0.099-0.13-0.147-0.196c0.035,0,0.07,0,0.105-0.001
				C5.883,13.994,5.882,14.008,5.886,14.021z M5.831,13.825c0.012-0.011,0.021-0.025,0.021-0.044
				c0.001-0.032,0.002-0.065,0.002-0.097c0.095,0.048,0.189,0.095,0.284,0.143C6.036,13.826,5.934,13.825,5.831,13.825z
				 M5.488,13.765c0-0.029,0-0.057,0-0.085c0.088,0.048,0.175,0.097,0.263,0.145c-0.105-0.001-0.209-0.001-0.314-0.002
				C5.464,13.819,5.488,13.799,5.488,13.765z M5.66,14.032c0.022,0.048,0.045,0.096,0.067,0.143
				c-0.084-0.062-0.166-0.126-0.247-0.192c0.058,0,0.116-0.001,0.174-0.001C5.651,13.997,5.652,14.014,5.66,14.032z M5.015,13.785
				c-0.04-0.008-0.08-0.008-0.118,0.009c-0.021-0.051-0.042-0.101-0.063-0.152C4.895,13.69,4.955,13.738,5.015,13.785z
				 M4.661,13.519c0.018,0.043,0.035,0.086,0.053,0.129c-0.06-0.047-0.12-0.094-0.18-0.141C4.576,13.511,4.618,13.516,4.661,13.519z
				 M4.01,8.98c0.038-0.122,0.023-0.256,0.023-0.382c0-0.077-0.001-0.15-0.011-0.223c0.119,0.013,0.24,0.016,0.361,0.016
				C4.377,8.409,4.378,8.429,4.392,8.449c0.009,0.012,0.018,0.025,0.026,0.037C4.376,8.463,4.333,8.44,4.291,8.417
				C4.231,8.384,4.156,8.452,4.195,8.518c0.01,0.016,0.02,0.033,0.029,0.049C4.173,8.549,4.102,8.593,4.126,8.658
				c0.04,0.11,0.08,0.219,0.121,0.329c-0.034-0.02-0.068-0.039-0.103-0.059C4.089,8.897,4.025,8.948,4.04,9.013
				c0.028,0.121,0.055,0.243,0.082,0.365c-0.02-0.014-0.039-0.027-0.058-0.041C4.039,9.32,4.009,9.325,3.988,9.341
				C3.986,9.229,3.984,9.117,3.98,9.005C3.993,9.004,4.005,8.996,4.01,8.98z M3.992,9.541c0.016,0.055,0.032,0.11,0.048,0.165
				C4.015,9.719,3.998,9.746,4.012,9.783c0.065,0.175,0.129,0.351,0.193,0.527c-0.048-0.008-0.103,0.031-0.083,0.09
				c0.025,0.074,0.05,0.147,0.076,0.221c0.026,0.074,0.121,0.061,0.138,0.004c0.002,0.2,0.004,0.4,0.004,0.6
				c0,0.017,0,0.034-0.001,0.051c-0.078-0.34-0.155-0.681-0.258-1.012C4.064,10.208,3.991,10.231,4,10.287
				c0.047,0.276,0.112,0.548,0.179,0.819c-0.052-0.101-0.104-0.202-0.156-0.302c-0.008-0.015-0.019-0.022-0.031-0.025
				C3.993,10.367,3.996,9.954,3.992,9.541z M4.302,9.527C4.273,9.399,4.244,9.271,4.215,9.143c0.042,0.025,0.084,0.05,0.126,0.075
				c-0.013,0.347-0.013,0.696-0.009,1.044c-0.034-0.092-0.068-0.183-0.103-0.275c0.019-0.016,0.03-0.042,0.022-0.075
				c-0.03-0.11-0.062-0.218-0.094-0.327C4.17,9.594,4.184,9.604,4.197,9.613C4.252,9.651,4.317,9.589,4.302,9.527z M4.333,11.607
				c-0.004,0.142-0.008,0.285-0.013,0.429c-0.065-0.266-0.13-0.532-0.194-0.798c0.057,0.114,0.113,0.228,0.171,0.341
				C4.307,11.596,4.32,11.604,4.333,11.607z M4.138,11.766c-0.03-0.048-0.059-0.096-0.089-0.144
				c-0.014-0.023-0.036-0.032-0.057-0.03c0-0.145,0-0.29,0-0.435c0-0.017,0-0.035,0-0.052C4.041,11.326,4.09,11.546,4.138,11.766z
				 M4.148,12.562c-0.052-0.083-0.104-0.167-0.156-0.25c0-0.137,0-0.274,0-0.411C4.043,12.121,4.096,12.342,4.148,12.562z
				 M4.154,13.324c-0.037-0.058-0.075-0.115-0.112-0.173c-0.01-0.015-0.024-0.023-0.039-0.025c-0.004-0.17-0.01-0.34-0.011-0.506
				C4.078,12.846,4.131,13.079,4.154,13.324z M4.138,12.004c0.027,0.044,0.055,0.089,0.082,0.134
				c0.025,0.039,0.071,0.037,0.097,0.011c-0.006,0.205-0.009,0.41-0.005,0.613C4.255,12.509,4.196,12.257,4.138,12.004z
				 M4.223,13.765c-0.005-0.018-0.011-0.037-0.016-0.055c0.036,0.04,0.072,0.08,0.108,0.12c-0.045,0.001-0.09,0.003-0.136,0.005
				C4.208,13.829,4.234,13.801,4.223,13.765z M4.251,13.591c0.018-0.009,0.031-0.026,0.03-0.052
				c-0.005-0.242-0.038-0.475-0.098-0.701c0.017,0.027,0.034,0.054,0.051,0.081c0.021,0.033,0.059,0.034,0.083,0.016
				c0.006,0.152,0.016,0.303,0.033,0.45c-0.034,0.008-0.061,0.055-0.04,0.092c0.053,0.08,0.071,0.161,0.058,0.243
				C4.33,13.677,4.291,13.634,4.251,13.591z M4.001,13.566c0.042,0.081,0.084,0.161,0.125,0.242
				c0.009,0.017,0.023,0.025,0.037,0.026c-0.062,0.002-0.123,0.003-0.185,0.006C3.99,13.751,3.997,13.659,4.001,13.566z
				 M2.905,14.003c0.052,0.005,0.105,0.009,0.157,0.01c-0.005,0.01-0.008,0.021-0.006,0.034c0.007,0.059,0.014,0.117,0.022,0.176
				c-0.046-0.065-0.093-0.13-0.139-0.194C2.929,14.016,2.917,14.008,2.905,14.003z M2.967,14.515
				c0.003-0.01,0.005-0.021,0.004-0.033c-0.004-0.032-0.008-0.065-0.013-0.097c0.008,0.011,0.016,0.022,0.024,0.033
				c0.023,0.032,0.057,0.036,0.083,0.024c0.015,0.021,0.03,0.042,0.045,0.063C3.062,14.508,3.014,14.511,2.967,14.515z
				 M3.348,14.074c-0.013-0.015-0.026-0.029-0.038-0.044c-0.008-0.009-0.016-0.014-0.024-0.017c0.057-0.001,0.113-0.003,0.169-0.003
				c0.04,0,0.081,0,0.121,0c-0.011,0.016-0.016,0.037-0.013,0.059l0.021,0.134c-0.036-0.052-0.073-0.105-0.11-0.157
				C3.436,13.991,3.35,14.011,3.348,14.074z M3.404,14.498c0.003-0.011,0.004-0.022,0.002-0.034
				c-0.009-0.048-0.019-0.095-0.028-0.143C3.4,14.347,3.423,14.374,3.446,14.4c0.03,0.035,0.078,0.023,0.102-0.009
				c0.025,0.036,0.051,0.073,0.076,0.109C3.551,14.499,3.477,14.498,3.404,14.498z M4.052,14.507c-0.097,0-0.195-0.002-0.293-0.004
				c0.003-0.011,0.005-0.024,0.003-0.038c-0.01-0.067-0.021-0.135-0.031-0.202c0.053,0.057,0.106,0.113,0.158,0.17
				c0.046,0.05,0.144,0,0.117-0.072c0-0.001-0.001-0.002-0.001-0.004c0.006,0.002,0.013,0.003,0.019,0.003
				c0.013,0.022,0.027,0.044,0.04,0.065c0.036,0.058,0.146,0.043,0.136-0.039c-0.001-0.008-0.002-0.016-0.003-0.025
				c0.058,0.049,0.117,0.097,0.175,0.146C4.265,14.507,4.158,14.507,4.052,14.507z M4.455,14.074
				c0.005,0.011,0.011,0.021,0.016,0.032L4.46,14.094c-0.032-0.034-0.071-0.026-0.095,0c-0.018-0.028-0.036-0.056-0.054-0.085
				c-0.048-0.077-0.148-0.011-0.114,0.071c0.006,0.015,0.012,0.029,0.018,0.044c-0.07-0.053-0.141-0.106-0.211-0.158l0,0
				c0.155,0.008,0.311,0.012,0.467,0.015C4.449,14.002,4.438,14.039,4.455,14.074z M4.453,13.825
				c0.024-0.075,0.032-0.145,0.024-0.214c0.089,0.07,0.179,0.14,0.268,0.21C4.647,13.822,4.55,13.823,4.453,13.825z M4.57,13.983
				c0.05,0.001,0.1,0,0.151,0.001c-0.008,0.027-0.01,0.054-0.009,0.082C4.664,14.039,4.617,14.011,4.57,13.983z M4.823,14.507
				c-0.001-0.009-0.003-0.019-0.008-0.028c-0.043-0.086-0.086-0.173-0.129-0.259c0.055,0.032,0.109,0.063,0.164,0.095
				c0.018,0.01,0.034,0.012,0.049,0.008c0.056,0.062,0.112,0.123,0.168,0.184L4.823,14.507z M5.398,13.533
				c-0.013,0.01-0.023,0.026-0.023,0.047c0,0.03,0,0.061,0,0.091c-0.095-0.046-0.189-0.091-0.284-0.137
				C5.192,13.535,5.295,13.535,5.398,13.533z M5.097,13.813c0.024-0.013,0.041-0.043,0.034-0.071
				c-0.005-0.021-0.01-0.042-0.015-0.063c0.095,0.046,0.191,0.092,0.286,0.138c0.007,0.004,0.015,0.004,0.023,0.005
				c-0.105-0.001-0.21-0.002-0.314-0.002C5.106,13.818,5.101,13.816,5.097,13.813z M5.427,14.507c-0.059,0-0.119,0-0.179,0
				c-0.001-0.003-0.003-0.007-0.004-0.01c0.036-0.007,0.067-0.044,0.053-0.085c-0.007-0.02-0.013-0.04-0.02-0.059
				c0.058,0.046,0.116,0.092,0.174,0.138c0.04,0.032,0.089-0.005,0.098-0.05c0.023,0.017,0.046,0.035,0.07,0.052
				c0.047,0.034,0.111-0.022,0.095-0.078c-0.006-0.02-0.011-0.041-0.017-0.062c0.039,0.027,0.078,0.054,0.117,0.08
				c0.015,0.01,0.031,0.011,0.046,0.006c0.005,0.004,0.011,0.009,0.016,0.013c0.033,0.027,0.065,0.009,0.083-0.021
				c0.017,0.024,0.035,0.048,0.053,0.072C5.816,14.505,5.621,14.507,5.427,14.507z M6.181,13.98c0.038,0,0.077,0,0.115,0
				c0.006,0.073,0.013,0.147,0.021,0.22c-0.098-0.072-0.195-0.144-0.29-0.219C6.079,13.98,6.13,13.98,6.181,13.98z M6.16,14.503
				c0-0.007,0-0.015-0.002-0.023c-0.03-0.101-0.061-0.203-0.091-0.304c0.099,0.077,0.198,0.154,0.297,0.231
				c0.039,0.03,0.107-0.01,0.101-0.062c-0.004-0.031-0.008-0.062-0.012-0.093c0.012,0.04,0.024,0.08,0.035,0.12
				c-0.037,0.023-0.052,0.083-0.004,0.107c0.014,0.007,0.027,0.014,0.041,0.021C6.404,14.502,6.282,14.503,6.16,14.503z M6.5,13.98
				c0.12,0,0.24,0,0.361,0c-0.017,0.014-0.027,0.036-0.019,0.061c0.016,0.052,0.033,0.104,0.049,0.155
				c-0.073-0.059-0.146-0.118-0.219-0.177c-0.026-0.021-0.059-0.008-0.079,0.016C6.562,14.017,6.531,13.999,6.5,13.98z M6.63,14.501
				c0.017-0.016,0.027-0.04,0.018-0.069c-0.017-0.056-0.034-0.112-0.051-0.168c0.079,0.066,0.158,0.131,0.237,0.196
				c0.033,0.027,0.077,0.002,0.093-0.033c0.037,0.029,0.075,0.054,0.112,0.074C6.904,14.5,6.767,14.5,6.63,14.501z M7.081,14.35
				c-0.001-0.003,0-0.005-0.001-0.008c-0.042-0.118-0.088-0.232-0.135-0.347c-0.003-0.006-0.006-0.01-0.01-0.014
				c0.025,0,0.051,0,0.076,0c0,0.016,0.003,0.032,0.015,0.046c0.004,0.006,0.009,0.011,0.013,0.017
				c-0.005,0.018-0.003,0.038,0.012,0.054c0.004,0.004,0.007,0.009,0.011,0.013c0.008,0.081,0.016,0.162,0.024,0.243
				C7.084,14.352,7.083,14.351,7.081,14.35z M7.285,14.5c0.001-0.001,0.001-0.001,0.002-0.002c0.023-0.025,0.041-0.05,0.052-0.075
				c0.027,0.027,0.06,0.02,0.08-0.002c0.043,0.029,0.087,0.055,0.132,0.08C7.462,14.501,7.373,14.501,7.285,14.5z M7.854,14.508
				c-0.186-0.074-0.351-0.174-0.514-0.303c-0.004-0.003-0.009-0.005-0.013-0.007c-0.058-0.072-0.115-0.145-0.173-0.217
				c0.041,0,0.082,0,0.123,0c-0.011,0.016-0.015,0.037-0.002,0.056c0.052,0.077,0.119,0.14,0.184,0.205
				c0.038,0.038,0.078,0.091,0.128,0.115c0.004,0.003,0.007,0.007,0.012,0.009c0.08,0.024,0.163,0.031,0.247,0.034
				c0,0.005-0.002,0.01-0.001,0.015c0.004,0.031,0.009,0.062,0.013,0.093C7.857,14.508,7.855,14.508,7.854,14.508z M8.09,14.405
				c0.011,0,0.023,0.001,0.034,0.001c0.035,0.001,0.071,0,0.106-0.002c0.002,0.022,0.004,0.043,0.006,0.063
				C8.188,14.446,8.139,14.425,8.09,14.405z M8.124,14.248c-0.055-0.002-0.111,0.003-0.164,0.005
				c-0.097,0.003-0.193,0.003-0.288,0.021c-0.026-0.061-0.09-0.105-0.137-0.15c-0.052-0.05-0.105-0.101-0.164-0.142
				c0.246,0.004,0.507,0.027,0.753-0.001c0.246,0.029,0.507,0.005,0.753,0.001c-0.059,0.041-0.112,0.092-0.164,0.142
				c-0.046,0.045-0.11,0.088-0.137,0.15c-0.095-0.017-0.191-0.017-0.288-0.021C8.235,14.251,8.179,14.246,8.124,14.248z
				 M8.359,14.508c-0.003-0.014-0.008-0.028-0.012-0.041c0.11,0.044,0.218,0.04,0.327-0.043c0.031-0.023,0.031-0.061,0.016-0.088
				c0.012-0.009,0.024-0.02,0.035-0.031c0.022,0.065,0.044,0.13,0.066,0.194C8.648,14.502,8.504,14.505,8.359,14.508z M9.016,14.069
				c-0.054-0.043-0.108,0.037-0.084,0.089c0.016,0.035,0.032,0.07,0.048,0.105c-0.014-0.015-0.027-0.029-0.041-0.044
				c-0.03-0.033-0.068-0.021-0.089,0.006c-0.007-0.008-0.014-0.017-0.022-0.025c0.052-0.051,0.103-0.103,0.143-0.164
				c0.013-0.02,0.009-0.041-0.002-0.056c0.053,0,0.106,0,0.159,0c-0.017,0.017-0.025,0.044-0.011,0.075
				c0.026,0.053,0.051,0.106,0.077,0.159C9.136,14.166,9.076,14.117,9.016,14.069z M9.232,14.5
				c-0.023-0.049-0.046-0.097-0.069-0.146c0.058,0.048,0.116,0.096,0.174,0.144c0.001,0.001,0.002,0.001,0.003,0.002
				C9.304,14.5,9.268,14.5,9.232,14.5z M9.423,14.5c0.022-0.018,0.033-0.049,0.015-0.085c-0.024-0.048-0.049-0.096-0.073-0.144
				c0.088,0.077,0.176,0.153,0.264,0.23C9.56,14.5,9.491,14.5,9.423,14.5z M9.531,13.98c0.041,0,0.081,0,0.122,0
				c-0.004,0.015-0.002,0.033,0.009,0.051c0.017,0.029,0.035,0.058,0.052,0.087C9.652,14.072,9.591,14.026,9.531,13.98z
				 M9.692,13.662c0.004,0.013,0.008,0.027,0.011,0.04c-0.096-0.042-0.192-0.084-0.288-0.127c-0.049-0.021-0.083,0.046-0.063,0.087
				c0.003,0.005,0.006,0.011,0.008,0.016c-0.104-0.027-0.207-0.053-0.311-0.08c-0.029-0.008-0.056,0.015-0.06,0.042
				c-0.051-0.033-0.102-0.066-0.153-0.099c0.359,0,0.722-0.029,1.062-0.029c0.542,0,1.107,0.041,1.654,0.007
				c0.001,0.007,0.002,0.013,0.005,0.02c0.023,0.048,0.045,0.095,0.067,0.143l-0.254-0.084c-0.035-0.012-0.07,0.02-0.07,0.057
				c0,0.044-0.001,0.088-0.001,0.133c-0.115-0.053-0.23-0.107-0.345-0.16c-0.05-0.023-0.094,0.024-0.072,0.077l0.002,0.005
				c-0.1-0.05-0.2-0.101-0.3-0.151c-0.032-0.016-0.061,0.001-0.071,0.028c-0.075-0.032-0.156-0.049-0.25-0.051
				c-0.025,0-0.051,0.024-0.049,0.052l0.009,0.102c-0.035-0.019-0.07-0.038-0.105-0.057c-0.041-0.022-0.078,0.016-0.069,0.059
				c-0.096-0.035-0.192-0.071-0.289-0.105C9.721,13.573,9.68,13.619,9.692,13.662z M10.637,13.787
				c0.039,0.035,0.085,0.001,0.082-0.041c0.05,0.025,0.099,0.051,0.149,0.076c-0.188,0.001-0.377,0.002-0.565,0.003
				c0.016-0.008,0.028-0.023,0.027-0.045C10.31,13.548,10.54,13.7,10.637,13.787z M9.957,14.052c0.03,0.047,0.06,0.095,0.091,0.142
				c-0.083-0.071-0.165-0.143-0.248-0.214c0.052,0,0.105,0,0.157,0C9.942,13.999,9.939,14.024,9.957,14.052z M9.843,13.826
				c0.004-0.012,0.007-0.024,0.003-0.036c-0.005-0.018-0.01-0.036-0.015-0.054c0.096,0.03,0.191,0.059,0.286,0.091
				c-0.017,0-0.034,0-0.051,0C9.992,13.826,9.918,13.826,9.843,13.826z M9.836,14.502c-0.018-0.054-0.038-0.106-0.061-0.155
				c0.052,0.041,0.103,0.081,0.156,0.122c0.058,0.045,0.136-0.042,0.098-0.104c-0.002-0.004-0.005-0.008-0.007-0.012
				c0.057,0.05,0.114,0.101,0.171,0.151C10.074,14.504,9.955,14.503,9.836,14.502z M10.076,13.98c0.071,0,0.142,0.001,0.213,0.001
				c-0.017,0.02-0.024,0.049-0.008,0.079c0.031,0.058,0.06,0.116,0.09,0.174C10.273,14.15,10.175,14.064,10.076,13.98z
				 M11.098,13.986c-0.022,0.012-0.037,0.034-0.037,0.059c-0.044-0.024-0.108,0.039-0.076,0.091c0.023,0.036,0.046,0.07,0.069,0.106
				c-0.09-0.069-0.179-0.139-0.265-0.214c-0.041-0.036-0.115,0.012-0.079,0.065c0.042,0.063,0.083,0.127,0.124,0.19
				c-0.161-0.073-0.304-0.168-0.441-0.301C10.628,13.983,10.863,13.985,11.098,13.986z M10.821,14.507
				c-0.049,0-0.098-0.001-0.147-0.001c-0.001-0.003-0.002-0.006-0.003-0.01c-0.037-0.069-0.074-0.138-0.112-0.206
				c0.131,0.087,0.271,0.156,0.427,0.198c0.056,0.015,0.088-0.038,0.077-0.086c0.039,0.035,0.077,0.07,0.116,0.104
				C11.06,14.507,10.941,14.507,10.821,14.507z M11.396,14.507c-0.075-0.108-0.15-0.215-0.227-0.321
				c0.003,0,0.006,0.002,0.008,0.002c0.111,0.107,0.223,0.213,0.336,0.319L11.396,14.507z M11.615,14.507
				c0.022-0.021,0.033-0.054,0.012-0.089c-0.034-0.056-0.069-0.112-0.103-0.168c0.092,0.074,0.183,0.149,0.275,0.222
				c0.05,0.04,0.095-0.009,0.098-0.062c0.036,0.032,0.073,0.064,0.109,0.097C11.876,14.507,11.746,14.507,11.615,14.507z
				 M12.24,14.507c-0.023-0.035-0.046-0.07-0.069-0.105c0.053,0.038,0.109,0.072,0.166,0.104
				C12.305,14.506,12.273,14.506,12.24,14.507z M11.906,13.995c-0.012-0.012-0.026-0.017-0.04-0.018
				c0.125-0.003,0.251-0.006,0.376-0.012c0.004,0.008,0.01,0.015,0.019,0.016c0.015,0.003,0.03,0.004,0.046,0.006
				c-0.034,0.014-0.057,0.056-0.035,0.099c0.051,0.1,0.103,0.201,0.154,0.301C12.236,14.285,12.065,14.157,11.906,13.995z
				 M12.646,14.5c-0.03-0.056-0.06-0.111-0.09-0.166c0.087,0.062,0.177,0.118,0.274,0.164C12.769,14.498,12.707,14.499,12.646,14.5z
				 M12.375,14.003c-0.003-0.003-0.007-0.005-0.01-0.007c0.092,0.01,0.184,0.013,0.276,0.013c-0.004,0.019-0.001,0.04,0.014,0.061
				c0.069,0.093,0.139,0.186,0.208,0.279C12.685,14.264,12.524,14.153,12.375,14.003z M12.789,14.01c0.001,0,0.003,0,0.004,0
				c0.05,0,0.101,0.002,0.152,0.003c-0.016,0.024-0.021,0.058,0,0.087c0.028,0.039,0.057,0.077,0.085,0.115
				C12.95,14.146,12.869,14.078,12.789,14.01z M13.364,14.434c-0.03-0.082-0.061-0.164-0.091-0.246
				c0.035,0.033,0.069,0.066,0.103,0.101c0,0.059,0.003,0.116,0.009,0.173C13.379,14.453,13.371,14.443,13.364,14.434z"/>
			<path class="st0" d="M6.08,11c-0.054-0.056-0.126-0.095-0.189-0.139c-0.014-0.01-0.027,0.014-0.013,0.023
				c0.061,0.043,0.124,0.099,0.191,0.13C6.078,11.017,6.088,11.007,6.08,11z"/>
			<path class="st0" d="M7.592,12.417c-0.276-0.391-0.643-0.72-0.971-1.062c-0.359-0.375-0.719-0.75-1.08-1.123
				c-0.04-0.041-0.099,0.022-0.061,0.064c0.353,0.382,0.707,0.763,1.062,1.142c0.323,0.346,0.635,0.736,1.004,1.027
				C7.573,12.485,7.612,12.444,7.592,12.417z"/>
			<path class="st0" d="M8.776,12.351c-0.604-0.769-1.334-1.45-2.001-2.158c-0.042-0.044-0.106,0.024-0.065,0.069
				c0.66,0.715,1.295,1.496,2.014,2.144C8.76,12.439,8.806,12.39,8.776,12.351z"/>
			<path class="st0" d="M10.72,12.694c-0.661-0.819-1.466-1.537-2.198-2.283c-0.046-0.047-0.115,0.026-0.07,0.074
				c0.722,0.758,1.418,1.595,2.206,2.275C10.702,12.797,10.758,12.74,10.72,12.694z"/>
		</g>
		<g>
			<g>
				<path class="st0" d="M11.827,9.677c-0.237-0.092-0.476-0.158-0.702-0.282c-0.233-0.128-0.441-0.312-0.652-0.472
					c-0.391-0.296-0.92-0.589-0.99-1.117c0.053,0.063,0.12,0.112,0.192,0.108c0.018-0.001,0.034-0.022,0.022-0.039
					c-0.032-0.045-0.084-0.07-0.126-0.106C9.537,7.739,9.507,7.704,9.481,7.667c0.064-0.09,0.121-0.185,0.175-0.282
					C9.648,7.533,9.777,7.714,9.922,7.683c0.032-0.007,0.03-0.047,0.008-0.063c-0.059-0.042-0.114-0.063-0.154-0.13
					C9.738,7.426,9.742,7.362,9.74,7.29c0-0.011-0.009-0.02-0.019-0.023c0.024-0.045,0.049-0.09,0.074-0.134
					c0.004-0.006,0.007-0.013,0.011-0.019c0.04,0.109,0.128,0.227,0.24,0.263c0.033,0.011,0.048-0.031,0.03-0.054
					c-0.031-0.04-0.069-0.075-0.104-0.113c-0.037-0.041-0.062-0.09-0.09-0.137C9.875,7.06,9.864,7.054,9.851,7.052
					c-0.001-0.003-0.003-0.007-0.004-0.01l-0.001,0c0.121-0.213,0.247-0.426,0.341-0.652c0.012-0.029-0.023-0.049-0.042-0.024
					C9.98,6.59,9.851,6.843,9.712,7.084C9.613,7.256,9.508,7.423,9.427,7.602C9.402,7.596,9.372,7.614,9.384,7.643
					c0.004,0.009,0.008,0.019,0.013,0.029C9.386,7.698,9.375,7.725,9.366,7.753C9.359,7.772,9.387,7.788,9.4,7.773
					C9.404,7.769,9.406,7.765,9.41,7.761c-0.042,0.466,0.379,0.781,0.71,1.035c0.53,0.407,1.018,0.829,1.681,0.984
					C11.868,9.796,11.889,9.701,11.827,9.677z"/>
				<path class="st0" d="M10.562,8.944c0.198,0.161,0.376,0.336,0.595,0.47c0.226,0.139,0.489,0.227,0.732,0.33
					c0.475,0.202,1.025,0.541,1.533,0.261c0.009-0.005,0.018-0.004,0.026-0.001c0.083-0.201,0.201-0.384,0.31-0.574
					c0.138-0.242,0.268-0.494,0.434-0.719c0.019-0.025,0.054-0.005,0.042,0.024c-0.107,0.258-0.257,0.499-0.392,0.743
					c-0.122,0.22-0.232,0.447-0.394,0.64c-0.013,0.016-0.041-0.001-0.034-0.02c0.002-0.005,0.004-0.009,0.005-0.014
					c-0.375,0.273-0.857,0.064-1.241-0.096c-0.614-0.257-1.221-0.47-1.688-0.97C10.44,8.968,10.511,8.901,10.562,8.944z"/>
			</g>
			<path class="st0" d="M15.95,8.762c-0.002,0-0.004-0.001-0.006-0.001c-0.456-0.536-0.939-1.049-1.399-1.582
				c-0.232-0.268-0.461-0.539-0.688-0.811c-0.242-0.29-0.467-0.65-0.756-0.891c-0.016-0.013-0.035-0.014-0.05-0.008
				c-0.139-0.062-0.301-0.104-0.454-0.081c-0.05-0.006-0.099-0.008-0.148-0.003c-0.464-0.084-0.937-0.127-1.404-0.169
				c-0.177-0.016-0.355-0.03-0.533-0.043c-0.016-0.009-0.033-0.017-0.049-0.026c-0.024-0.013-0.046,0-0.055,0.019
				c-0.139-0.01-0.277-0.02-0.416-0.029C9.735,5.119,9.47,5.087,9.209,5.08c-0.001-0.004-0.003-0.007-0.004-0.01
				c-0.011-0.038-0.074-0.032-0.07,0.01c0,0,0,0.001,0,0.001c-0.033,0-0.065,0.001-0.098,0.001c-0.033-0.019-0.065-0.036-0.095-0.05
				C8.914,5.018,8.879,5.055,8.907,5.078c0.012,0.01,0.023,0.019,0.035,0.029C8.925,5.134,8.93,5.176,8.97,5.183
				C8.99,5.187,9.011,5.19,9.032,5.193C8.906,5.318,8.81,5.547,8.753,5.717c-0.118,0.17-0.204,0.376-0.295,0.552
				C8.391,6.398,8.313,6.533,8.246,6.673c-0.05-0.009-0.1-0.002-0.142,0.021C8.101,6.689,8.097,6.686,8.089,6.686
				c-0.163-0.001-0.28,0.194-0.315,0.35c-0.007,0-0.013,0.001-0.02,0.006C7.68,7.097,7.595,7.188,7.597,7.288
				C7.598,7.313,7.632,7.331,7.65,7.31c0.026-0.03,0.043-0.067,0.064-0.101c0.018-0.028,0.04-0.054,0.063-0.078
				C7.8,7.152,7.847,7.148,7.854,7.11C7.857,7.098,7.86,7.086,7.862,7.074C7.919,7.048,7.97,7.003,8.019,6.967
				C8.07,6.931,8.121,6.894,8.17,6.855C8.159,6.884,8.149,6.913,8.14,6.942c-0.089,0.036-0.177,0.081-0.246,0.14
				c-0.011,0.003-0.02,0.011-0.025,0.023c-0.004,0.004-0.008,0.007-0.011,0.01C7.828,7.147,7.856,7.19,7.891,7.188
				c-0.02,0.025-0.041,0.049-0.06,0.075C7.793,7.315,7.747,7.367,7.736,7.432c-0.003,0.02,0.016,0.036,0.035,0.027
				c0.046-0.024,0.076-0.065,0.106-0.107c0.026-0.036,0.051-0.073,0.075-0.11C7.955,7.253,7.968,7.262,7.98,7.263
				c0.002,0,0.004,0,0.006,0C7.97,7.288,7.955,7.314,7.94,7.34C7.907,7.395,7.87,7.45,7.867,7.516
				C7.866,7.537,7.891,7.552,7.908,7.54c0.048-0.032,0.071-0.078,0.099-0.128c0.024-0.043,0.048-0.086,0.07-0.13
				C8.108,7.3,8.138,7.317,8.168,7.335c-0.012,0.026-0.024,0.053-0.036,0.08C8.106,7.475,8.077,7.533,8.079,7.6
				C8.08,7.621,8.103,7.629,8.118,7.616c0.048-0.042,0.07-0.097,0.095-0.155c0.012-0.028,0.024-0.057,0.036-0.085
				C8.27,7.379,8.292,7.37,8.303,7.35C8.394,7.182,8.54,6.926,8.382,6.748C8.632,6.256,8.897,5.77,9.136,5.272
				C9.183,5.315,9.23,5.358,9.274,5.405c0.022,0.029,0.045,0.056,0.07,0.083c0.078,0.107,0.136,0.228,0.22,0.327
				c0.001,0.002,0,0.004,0.001,0.006C9.647,5.945,9.742,6.06,9.827,6.183c0.066,0.096,0.126,0.195,0.199,0.286
				c-0.042,0.07-0.08,0.143-0.1,0.218C9.918,6.713,9.952,6.733,9.971,6.713c0.019-0.019,0.036-0.041,0.052-0.063
				c-0.002,0.052-0.013,0.052,0.011,0.109c0.028,0.066,0.055,0.132,0.084,0.197c0.039,0.085,0.098,0.172,0.2,0.154
				c0.022-0.004,0.026-0.033,0.013-0.048c-0.063-0.071-0.11-0.134-0.149-0.222c-0.02-0.044-0.04-0.088-0.06-0.132
				c-0.027-0.058-0.031-0.036-0.08-0.082c0,0-0.001,0-0.001,0c0.032-0.049,0.061-0.101,0.088-0.153
				c0.012,0.016,0.024,0.033,0.037,0.049c0.114,0.147,0.237,0.286,0.364,0.421c-0.02,0.018-0.025,0.051,0.005,0.064
				c0.033,0.015,0.065,0.03,0.098,0.045c0.118,0.122,0.238,0.243,0.358,0.363c0.302,0.303,0.593,0.629,0.916,0.909
				c0.001,0.001,0.003,0.001,0.004,0.002c-0.009,0.027,0,0.063,0.035,0.077c0.61,0.247,1.202,0.144,1.84,0.168
				c0.132,0.005,0.263,0.016,0.393,0.029c-0.045,0.071-0.093,0.15-0.106,0.231c-0.004,0.024,0.021,0.038,0.039,0.023
				c0.029-0.024,0.053-0.056,0.075-0.089c0.005,0,0.009-0.002,0.014-0.006c0.044-0.037,0.072-0.093,0.096-0.146
				c0.544,0.063,1.081,0.181,1.621,0.28C16.001,8.91,16.036,8.781,15.95,8.762z M7.948,6.906c-0.01,0.006-0.02,0.013-0.03,0.019
				c0.004-0.008,0.008-0.016,0.013-0.024c0.025-0.042,0.06-0.072,0.095-0.103c-0.003,0.01-0.006,0.02-0.007,0.032
				C8.018,6.84,8.021,6.848,8.026,6.853C8,6.871,7.974,6.888,7.948,6.906z M8.346,6.945C8.348,6.971,8.345,6.996,8.34,7.021
				C8.343,6.996,8.32,6.97,8.291,6.986C8.277,6.995,8.263,7.004,8.248,7.012C8.254,7,8.26,6.988,8.266,6.976
				c0.017-0.008,0.035-0.017,0.052-0.024c0.036-0.015,0.028-0.068-0.005-0.069c0.005-0.009,0.009-0.019,0.014-0.028
				C8.339,6.885,8.345,6.918,8.346,6.945z M8.134,7.188c0.065-0.046,0.128-0.094,0.191-0.142C8.333,7.04,8.337,7.033,8.339,7.025
				c-0.01,0.046-0.028,0.09-0.05,0.133c-0.008,0-0.017,0.002-0.025,0.009c-0.02,0.017-0.047,0.036-0.068,0.057
				C8.174,7.212,8.154,7.2,8.134,7.188C8.133,7.188,8.134,7.188,8.134,7.188z M8.17,7.055C8.173,7.05,8.176,7.045,8.18,7.04
				c0.004,0.002,0.008,0.004,0.013,0.005c-0.035,0.021-0.07,0.04-0.104,0.062c-0.015,0.009-0.03,0.018-0.045,0.028
				C8.034,7.129,8.024,7.123,8.015,7.118C8.043,7.099,8.071,7.08,8.1,7.062c0.006-0.004,0.013-0.007,0.019-0.01
				C8.128,7.071,8.155,7.075,8.17,7.055z M12.499,6.813c-0.057,0.006-0.114-0.05-0.103-0.107c0.005-0.028,0.023-0.048,0.045-0.063
				c0.001,0.007,0.001,0.014,0.003,0.019c0,0.001,0.001,0.002,0.002,0.003c-0.014,0.049,0.002,0.109,0.047,0.136
				c0.005,0.003,0.01,0.003,0.015,0.005C12.504,6.81,12.501,6.813,12.499,6.813z"/>
		</g>
	</g>
</g>
</svg>
