<?xml version="1.0" encoding="utf-8"?>
<!-- Generator: Adobe Illustrator 21.0.2, SVG Export Plug-In . SVG Version: 6.00 Build 0)  -->
<svg version="1.1" id="Layer_1" xmlns="http://www.w3.org/2000/svg" xmlns:xlink="http://www.w3.org/1999/xlink" x="0px" y="0px"
	 viewBox="0 0 100 20" style="enable-background:new 0 0 100 20;" xml:space="preserve">
<style type="text/css">
	.st0{fill:#98A4AE;}
</style>
<g>
	<path class="st0" d="M20.914,10.029h-1.307v3.554h-0.879v-3.554h-1.289V9.317h3.475V10.029z"/>
	<path class="st0" d="M22.408,13.642c-0.465,0-0.843-0.143-1.135-0.428s-0.438-0.665-0.438-1.14v-0.082
		c0-0.318,0.062-0.603,0.185-0.854c0.123-0.25,0.297-0.443,0.523-0.58c0.226-0.135,0.483-0.203,0.772-0.203
		c0.434,0,0.775,0.137,1.024,0.41s0.374,0.661,0.374,1.163v0.346h-2.019c0.027,0.207,0.11,0.373,0.248,0.498
		s0.312,0.188,0.523,0.188c0.326,0,0.581-0.118,0.765-0.354l0.416,0.466c-0.127,0.18-0.299,0.32-0.516,0.421
		C22.912,13.591,22.671,13.642,22.408,13.642z M22.311,11.037c-0.168,0-0.304,0.057-0.409,0.171
		c-0.104,0.113-0.171,0.276-0.201,0.488h1.178v-0.067c-0.004-0.188-0.055-0.334-0.152-0.438
		C22.629,11.089,22.491,11.037,22.311,11.037z"/>
	<path class="st0" d="M25.36,12.959c0.156,0,0.283-0.043,0.381-0.129s0.148-0.2,0.152-0.343h0.794
		c-0.002,0.215-0.061,0.412-0.176,0.59c-0.115,0.18-0.273,0.318-0.473,0.416c-0.2,0.099-0.421,0.148-0.664,0.148
		c-0.453,0-0.811-0.144-1.072-0.432s-0.393-0.687-0.393-1.194V11.96c0-0.488,0.13-0.878,0.39-1.169s0.616-0.437,1.069-0.437
		c0.396,0,0.714,0.113,0.954,0.338c0.239,0.227,0.361,0.526,0.365,0.901h-0.794c-0.004-0.165-0.055-0.299-0.152-0.402
		c-0.098-0.103-0.227-0.154-0.387-0.154c-0.197,0-0.346,0.072-0.447,0.216s-0.151,0.377-0.151,0.699v0.089
		c0,0.326,0.05,0.561,0.149,0.704C25.006,12.888,25.157,12.959,25.36,12.959z"/>
	<path class="st0" d="M27.847,10.759c0.225-0.27,0.507-0.404,0.847-0.404c0.688,0,1.036,0.399,1.046,1.198v2.03h-0.847v-2.012
		c0-0.182-0.039-0.316-0.117-0.403s-0.208-0.131-0.39-0.131c-0.248,0-0.428,0.096-0.539,0.288v2.258H27v-4.5h0.847V10.759z"/>
	<path class="st0" d="M31.007,10.413l0.026,0.366c0.227-0.283,0.53-0.425,0.911-0.425c0.335,0,0.585,0.099,0.75,0.296
		s0.248,0.492,0.252,0.885v2.048h-0.846v-2.032c0-0.18-0.04-0.311-0.118-0.392s-0.208-0.122-0.39-0.122
		c-0.238,0-0.417,0.102-0.536,0.306v2.24H30.21v-3.17H31.007z"/>
	<path class="st0" d="M33.307,11.969c0-0.314,0.061-0.595,0.182-0.841s0.295-0.437,0.523-0.571c0.227-0.135,0.491-0.202,0.792-0.202
		c0.428,0,0.776,0.131,1.048,0.393c0.27,0.262,0.421,0.617,0.452,1.066l0.006,0.217c0,0.486-0.136,0.877-0.407,1.17
		c-0.271,0.295-0.636,0.441-1.093,0.441s-0.821-0.146-1.095-0.439c-0.271-0.293-0.408-0.691-0.408-1.195V11.969z M34.153,12.029
		c0,0.301,0.057,0.531,0.17,0.69s0.275,0.239,0.486,0.239c0.205,0,0.365-0.079,0.48-0.236s0.173-0.409,0.173-0.756
		c0-0.295-0.058-0.523-0.173-0.687c-0.115-0.162-0.277-0.243-0.486-0.243c-0.207,0-0.367,0.081-0.48,0.242
		S34.153,11.69,34.153,12.029z"/>
	<path class="st0" d="M37.574,13.583h-0.85v-4.5h0.85V13.583z"/>
	<path class="st0" d="M37.99,11.969c0-0.314,0.061-0.595,0.182-0.841s0.295-0.437,0.523-0.571c0.227-0.135,0.491-0.202,0.792-0.202
		c0.428,0,0.776,0.131,1.048,0.393c0.27,0.262,0.421,0.617,0.452,1.066l0.006,0.217c0,0.486-0.136,0.877-0.407,1.17
		c-0.271,0.295-0.636,0.441-1.093,0.441s-0.821-0.146-1.095-0.439c-0.271-0.293-0.408-0.691-0.408-1.195V11.969z M38.837,12.029
		c0,0.301,0.057,0.531,0.17,0.69s0.275,0.239,0.486,0.239c0.205,0,0.365-0.079,0.48-0.236s0.173-0.409,0.173-0.756
		c0-0.295-0.058-0.523-0.173-0.687c-0.115-0.162-0.277-0.243-0.486-0.243c-0.207,0-0.367,0.081-0.48,0.242
		S38.837,11.69,38.837,12.029z"/>
	<path class="st0" d="M41.241,11.975c0-0.486,0.116-0.878,0.347-1.175c0.232-0.297,0.544-0.445,0.937-0.445
		c0.348,0,0.618,0.119,0.812,0.357l0.035-0.299h0.768v3.064c0,0.277-0.062,0.519-0.189,0.724c-0.125,0.205-0.303,0.361-0.531,0.469
		s-0.496,0.161-0.803,0.161c-0.232,0-0.459-0.047-0.68-0.139c-0.221-0.094-0.388-0.213-0.501-0.359l0.375-0.516
		c0.211,0.236,0.467,0.354,0.768,0.354c0.225,0,0.399-0.06,0.524-0.181c0.125-0.119,0.188-0.29,0.188-0.511v-0.17
		c-0.195,0.221-0.452,0.331-0.771,0.331c-0.381,0-0.689-0.148-0.925-0.447c-0.235-0.297-0.353-0.692-0.353-1.185V11.975z
		 M42.088,12.035c0,0.288,0.058,0.515,0.173,0.678c0.115,0.164,0.273,0.246,0.475,0.246c0.258,0,0.442-0.097,0.554-0.291v-1.34
		c-0.113-0.194-0.296-0.291-0.548-0.291c-0.203,0-0.363,0.083-0.479,0.25S42.088,11.703,42.088,12.035z"/>
	<path class="st0" d="M45.823,12.385l0.586-1.972h0.908l-1.274,3.662l-0.07,0.167c-0.189,0.414-0.502,0.621-0.938,0.621
		c-0.123,0-0.248-0.019-0.375-0.056v-0.642l0.129,0.003c0.16,0,0.279-0.024,0.359-0.073c0.078-0.049,0.141-0.13,0.186-0.243
		l0.1-0.261l-1.11-3.179h0.911L45.823,12.385z"/>
	<path class="st0" d="M48.9,13.583V9.317h1.312c0.375,0,0.711,0.085,1.006,0.254c0.297,0.169,0.527,0.409,0.693,0.721
		s0.249,0.665,0.249,1.062v0.196c0,0.396-0.082,0.749-0.245,1.058s-0.393,0.548-0.689,0.718s-0.632,0.256-1.005,0.258H48.9z
		 M49.779,10.029v2.848h0.425c0.344,0,0.606-0.112,0.788-0.337s0.274-0.546,0.278-0.964v-0.226c0-0.434-0.09-0.762-0.27-0.986
		c-0.18-0.223-0.442-0.335-0.788-0.335H49.779z"/>
	<path class="st0" d="M52.589,9.593c0-0.127,0.042-0.231,0.128-0.313c0.084-0.082,0.2-0.123,0.347-0.123
		c0.145,0,0.26,0.041,0.346,0.123s0.129,0.187,0.129,0.313c0,0.129-0.044,0.234-0.13,0.316c-0.088,0.082-0.202,0.123-0.345,0.123
		s-0.258-0.041-0.345-0.123S52.589,9.722,52.589,9.593z M53.488,13.583h-0.85v-3.17h0.85V13.583z"/>
	<path class="st0" d="M55.816,11.207c-0.115-0.016-0.217-0.023-0.305-0.023c-0.32,0-0.53,0.108-0.63,0.325v2.074h-0.847v-3.17h0.8
		l0.023,0.378c0.17-0.291,0.405-0.437,0.706-0.437c0.094,0,0.182,0.013,0.264,0.038L55.816,11.207z"/>
	<path class="st0" d="M57.478,13.642c-0.465,0-0.844-0.143-1.136-0.428s-0.438-0.665-0.438-1.14v-0.082
		c0-0.318,0.062-0.603,0.185-0.854c0.123-0.25,0.298-0.443,0.522-0.58c0.227-0.135,0.483-0.203,0.772-0.203
		c0.434,0,0.774,0.137,1.024,0.41c0.248,0.273,0.373,0.661,0.373,1.163v0.346h-2.019c0.027,0.207,0.11,0.373,0.247,0.498
		c0.139,0.125,0.312,0.188,0.523,0.188c0.326,0,0.581-0.118,0.765-0.354l0.416,0.466c-0.127,0.18-0.299,0.32-0.516,0.421
		C57.981,13.591,57.741,13.642,57.478,13.642z M57.381,11.037c-0.168,0-0.305,0.057-0.408,0.171
		c-0.105,0.113-0.172,0.276-0.201,0.488h1.178v-0.067c-0.004-0.188-0.055-0.334-0.152-0.438
		C57.699,11.089,57.561,11.037,57.381,11.037z"/>
	<path class="st0" d="M60.43,12.959c0.156,0,0.283-0.043,0.381-0.129s0.148-0.2,0.152-0.343h0.794
		c-0.002,0.215-0.061,0.412-0.176,0.59c-0.115,0.18-0.273,0.318-0.473,0.416c-0.201,0.099-0.422,0.148-0.664,0.148
		c-0.453,0-0.811-0.144-1.072-0.432s-0.393-0.687-0.393-1.194V11.96c0-0.488,0.13-0.878,0.39-1.169s0.616-0.437,1.069-0.437
		c0.396,0,0.714,0.113,0.953,0.338c0.239,0.227,0.361,0.526,0.365,0.901h-0.794c-0.004-0.165-0.055-0.299-0.152-0.402
		c-0.098-0.103-0.227-0.154-0.387-0.154c-0.197,0-0.347,0.072-0.446,0.216c-0.102,0.144-0.151,0.377-0.151,0.699v0.089
		c0,0.326,0.05,0.561,0.149,0.704C60.075,12.888,60.227,12.959,60.43,12.959z"/>
	<path class="st0" d="M63.104,9.634v0.779h0.542v0.621h-0.542v1.582c0,0.117,0.022,0.201,0.067,0.252s0.131,0.076,0.258,0.076
		c0.094,0,0.177-0.007,0.249-0.021v0.642c-0.166,0.051-0.337,0.076-0.513,0.076c-0.594,0-0.896-0.3-0.908-0.899v-1.708h-0.463
		v-0.621h0.463V9.634H63.104z"/>
	<path class="st0" d="M63.748,11.969c0-0.314,0.061-0.595,0.182-0.841s0.295-0.437,0.523-0.571c0.227-0.135,0.491-0.202,0.792-0.202
		c0.428,0,0.776,0.131,1.048,0.393c0.27,0.262,0.421,0.617,0.452,1.066l0.006,0.217c0,0.486-0.136,0.877-0.407,1.17
		c-0.271,0.295-0.636,0.441-1.093,0.441s-0.821-0.146-1.095-0.439c-0.271-0.293-0.408-0.691-0.408-1.195V11.969z M64.595,12.029
		c0,0.301,0.057,0.531,0.17,0.69s0.275,0.239,0.486,0.239c0.205,0,0.365-0.079,0.48-0.236s0.173-0.409,0.173-0.756
		c0-0.295-0.058-0.523-0.173-0.687c-0.115-0.162-0.277-0.243-0.486-0.243c-0.207,0-0.367,0.081-0.48,0.242
		S64.595,11.69,64.595,12.029z"/>
	<path class="st0" d="M68.903,11.207c-0.115-0.016-0.217-0.023-0.305-0.023c-0.32,0-0.53,0.108-0.63,0.325v2.074h-0.847v-3.17h0.8
		l0.023,0.378c0.17-0.291,0.405-0.437,0.706-0.437c0.094,0,0.182,0.013,0.264,0.038L68.903,11.207z"/>
	<path class="st0" d="M70.878,12.707c0-0.104-0.052-0.185-0.153-0.245c-0.104-0.059-0.268-0.112-0.494-0.159
		c-0.754-0.158-1.131-0.479-1.131-0.961c0-0.281,0.116-0.516,0.35-0.704s0.539-0.283,0.916-0.283c0.402,0,0.724,0.095,0.965,0.284
		s0.362,0.436,0.362,0.738h-0.847c0-0.121-0.039-0.222-0.117-0.3c-0.078-0.08-0.2-0.119-0.366-0.119
		c-0.143,0-0.253,0.032-0.331,0.097s-0.117,0.146-0.117,0.246c0,0.094,0.044,0.17,0.133,0.228s0.239,0.107,0.45,0.148
		c0.211,0.043,0.389,0.09,0.533,0.143c0.447,0.164,0.671,0.448,0.671,0.853c0,0.289-0.124,0.522-0.372,0.702
		c-0.248,0.178-0.568,0.268-0.961,0.268c-0.266,0-0.502-0.048-0.708-0.143c-0.206-0.094-0.367-0.224-0.484-0.389
		S69,12.767,69,12.575h0.803c0.008,0.15,0.063,0.266,0.167,0.346s0.242,0.12,0.416,0.12c0.162,0,0.284-0.03,0.368-0.093
		C70.836,12.888,70.878,12.807,70.878,12.707z"/>
</g>
<g>
	<g>
		<path class="st0" d="M15.998,16.379c0-0.153,0-0.305-0.007-0.458c-0.004-0.092-0.139-0.092-0.143,0
			c-0.006,0.134-0.007,0.267-0.007,0.401c0,0.054-0.004,0.109-0.004,0.164c-0.456-0.057-0.933-0.025-1.39-0.026
			c-0.54-0.001-1.079-0.003-1.619-0.003c-1.129,0-2.257,0-3.386,0c-1.129,0-2.257,0-3.386,0c-0.54,0-1.079,0-1.619,0
			c-0.511,0-1.143-0.101-1.632,0.063c-0.007,0.002-0.012,0.008-0.016,0.012c0.026-0.194,0.016-0.405-0.016-0.595
			c0.005,0.016,0.013,0.029,0.032,0.033c0.244,0.051,0.498,0.033,0.747,0.034c0.25,0.001,0.499,0.005,0.747-0.023
			c0.179,0.001,0.359,0,0.538,0.001c-0.004,0.007-0.009,0.014-0.014,0.021c-0.027,0.042,0.036,0.092,0.069,0.054
			c0.021-0.024,0.041-0.05,0.063-0.074c1.596,0.003,3.192,0.001,4.787,0.001c0.98,0,1.96,0,2.941,0c1.024,0,2.066,0.052,3.088-0.022
			c0.07-0.005,0.097-0.066,0.083-0.116c0.052,0.002,0.103-0.052,0.068-0.106c-0.267-0.415-0.625-0.784-0.94-1.164
			c-0.236-0.285-0.459-0.668-0.829-0.784c-0.02-0.006-0.037-0.004-0.052,0.003c0.086-0.876,0.023-1.784,0.022-2.663
			c-0.001-0.953,0.085-1.955-0.034-2.901c-0.007-0.055-0.063-0.067-0.093-0.037C12.545,8.08,11.074,8.14,9.617,8.141
			C8.148,8.142,6.668,8.089,5.201,8.157C5.169,8.159,5.15,8.175,5.139,8.196C5.112,8.167,5.052,8.177,5.05,8.229
			c-0.026,0.884-0.024,1.769-0.027,2.654L5.019,12.21c-0.001,0.259-0.021,0.529-0.011,0.793c-0.01,0.006-0.017,0.015-0.019,0.027
			c-0.048,0.284,0.036,0.618,0.075,0.908c-0.816,0.549-1.565,1.23-2.332,1.842c-0.021,0.016-0.029,0.036-0.031,0.054
			c-0.011,0.005-0.021,0.012-0.023,0.026c-0.053,0.254-0.068,0.566-0.004,0.818c0.005,0.02,0.022,0.03,0.04,0.032
			c-0.066,0.008-0.064,0.109,0.005,0.11c0.089,0.002,0.174,0.01,0.259-0.018c0.038-0.012,0.038-0.064,0-0.076
			C2.896,16.7,2.815,16.706,2.73,16.708c0.016-0.003,0.03-0.012,0.035-0.031c0.007-0.028,0.01-0.059,0.015-0.088
			c0.006,0.009,0.014,0.017,0.026,0.022c0.449,0.151,1.015,0.063,1.485,0.063c0.54,0,1.079,0,1.619,0c1.129,0,2.257,0,3.386,0
			c1.129,0,2.257,0,3.386,0c0.54,0,1.079-0.001,1.619-0.003c0.513-0.001,1.052,0.039,1.563-0.03
			c0.005,0.015,0.009,0.031,0.017,0.045c0.017,0.029,0.062,0.029,0.078,0C16.013,16.592,15.998,16.487,15.998,16.379z M5.142,15.759
			c0.158-0.191,0.314-0.385,0.465-0.584c0.599,0.002,1.197-0.001,1.796-0.003c-0.113,0.191-0.227,0.384-0.313,0.587
			C6.441,15.759,5.791,15.758,5.142,15.759z M7.513,14.983c-0.587-0.002-1.174-0.005-1.761-0.003c0.095-0.129,0.19-0.259,0.281-0.39
			c0.567,0.006,1.136,0,1.704-0.008C7.662,14.716,7.588,14.85,7.513,14.983z M7.913,14.58c0.428-0.006,0.856-0.012,1.282-0.015
			c-0.047,0.108-0.094,0.216-0.142,0.324c-0.014,0.032-0.029,0.065-0.044,0.097c-0.443-0.001-0.885-0.002-1.328-0.004
			C7.759,14.849,7.837,14.715,7.913,14.58z M7.234,15.759c0.127-0.186,0.232-0.39,0.341-0.587c0.45-0.002,0.901-0.003,1.351-0.004
			c-0.09,0.193-0.179,0.389-0.235,0.591C8.205,15.759,7.719,15.759,7.234,15.759z M10.807,15.759c-0.306,0-0.612,0-0.918,0
			c-0.356,0-0.712,0-1.068,0c0.108-0.186,0.192-0.39,0.273-0.591c0.166,0,0.332-0.002,0.498-0.002c0.437,0,0.874,0,1.311,0
			C10.862,15.362,10.821,15.561,10.807,15.759z M9.592,14.989c-0.141,0-0.282-0.001-0.424-0.001c0.003-0.008,0.007-0.016,0.01-0.024
			c0.057-0.133,0.116-0.266,0.173-0.399c0.097,0,0.194-0.002,0.291-0.002c0.459,0,0.918,0,1.377,0
			c-0.023,0.123-0.045,0.246-0.068,0.369c-0.004,0.019-0.008,0.038-0.011,0.057L9.592,14.989z M13.54,14.063
			c0.053,0.107,0.108,0.212,0.162,0.317c-0.338-0.002-0.677,0.007-1.014,0.014c-0.024-0.093-0.049-0.185-0.07-0.278
			c-0.015-0.067-0.129-0.053-0.121,0.016c0.01,0.087,0.021,0.175,0.034,0.265c-0.133,0.002-0.265,0.004-0.397,0.004
			c-0.311,0-0.621,0-0.932,0c0.023-0.137,0.043-0.275,0.056-0.413c0.189,0,0.377,0,0.566,0c0.567,0,1.155,0.034,1.729,0.009
			C13.537,14.011,13.526,14.035,13.54,14.063z M13.943,14.86c0.018,0.037,0.033,0.076,0.049,0.114
			c-0.382,0.001-0.764,0.009-1.143,0.013c-0.039-0.138-0.078-0.277-0.116-0.416c0.356,0.008,0.714,0.016,1.07,0.01
			C13.851,14.673,13.899,14.766,13.943,14.86z M12.136,14.562c0.14,0,0.282,0.002,0.424,0.005c0.024,0.14,0.053,0.281,0.088,0.42
			c-0.039,0-0.077,0.001-0.116,0.001c-0.478,0-0.956,0-1.434,0c0.001-0.005,0.002-0.011,0.003-0.016
			c0.025-0.137,0.051-0.273,0.076-0.41C11.496,14.562,11.816,14.562,12.136,14.562z M11.05,14.401c-0.469,0-0.939,0-1.408,0
			c-0.074,0-0.148-0.001-0.222-0.001c0.054-0.131,0.107-0.264,0.154-0.398c0.002-0.005,0.002-0.009,0.002-0.013
			c0.014,0,0.028,0,0.041,0c0.509,0,1.019,0,1.528,0C11.108,14.124,11.078,14.262,11.05,14.401z M12.83,15.758
			c-0.627,0-1.254,0-1.881,0c0.056-0.192,0.087-0.394,0.119-0.592c0.439,0,0.878,0,1.317,0c0.104,0,0.207,0.001,0.311,0.002
			c0.059,0.205,0.131,0.404,0.219,0.59C12.887,15.758,12.858,15.758,12.83,15.758z M12.9,15.171c0.392,0.005,0.787,0.014,1.18,0.012
			c0.075,0.191,0.15,0.383,0.249,0.56c-0.426,0.003-0.853,0.012-1.277,0.014C13.006,15.561,12.954,15.366,12.9,15.171z
			 M15.764,15.78c-0.441-0.032-0.886-0.039-1.332-0.038c-0.032-0.183-0.092-0.373-0.167-0.563c0.317-0.004,0.634-0.014,0.948-0.04
			C15.388,15.361,15.566,15.583,15.764,15.78z M14.034,13.96c0.024-0.003,0.039-0.014,0.051-0.027
			c0.007,0.006,0.015,0.011,0.026,0.015c0.355,0.117,0.615,0.592,0.841,0.866c0.052,0.063,0.104,0.128,0.155,0.193
			c-0.308-0.023-0.618-0.03-0.929-0.031c-0.062-0.136-0.13-0.269-0.202-0.399c0.219-0.006,0.438-0.017,0.653-0.041
			c0.069-0.008,0.069-0.099,0-0.107c-0.252-0.028-0.508-0.041-0.765-0.046c-0.078-0.131-0.158-0.257-0.234-0.373
			c-0.005-0.007-0.01-0.012-0.016-0.016C13.755,13.986,13.895,13.976,14.034,13.96z M5.758,8.851
			c1.28,0.054,2.571,0.012,3.852,0.013c1.264,0.001,2.54,0.048,3.8-0.04c-0.093,0.713-0.026,1.466-0.026,2.183
			c-0.001,0.747-0.061,1.521,0.02,2.266c-0.612-0.06-1.254-0.017-1.868-0.017c-0.642,0-1.284,0-1.926,0
			c-1.27,0-2.574-0.076-3.837,0.045c-0.013-0.097-0.027-0.194-0.04-0.291c-0.005-0.034-0.009-0.068-0.013-0.102
			c0.008-0.044,0.016-0.088,0.021-0.133c0.006,0.002,0.013,0.004,0.019,0.006c0.02,0.008,0.033-0.023,0.014-0.032
			c-0.01-0.005-0.019-0.01-0.029-0.015c0.021-0.246-0.002-0.501-0.003-0.743l-0.004-1.066c-0.003-0.697-0.001-1.393-0.022-2.09
			C5.727,8.844,5.74,8.85,5.758,8.851z M5.143,14.061c0.048,0.01,0.102-0.015,0.094-0.076l-0.001-0.011
			c0.008-0.008,0.017-0.016,0.025-0.024c0.005-0.004,0.007-0.009,0.01-0.014c1.381,0.138,2.804,0.059,4.195,0.053
			c-0.07,0.135-0.135,0.272-0.197,0.41c-0.416-0.003-0.832-0.008-1.25-0.013c0.045-0.086,0.088-0.173,0.127-0.262
			c0.028-0.063-0.052-0.111-0.092-0.054c-0.071,0.101-0.137,0.207-0.201,0.314c-0.558-0.008-1.117-0.014-1.674-0.01
			c0.057-0.085,0.116-0.169,0.17-0.253c0.031-0.049-0.042-0.106-0.08-0.062c-0.089,0.103-0.175,0.21-0.262,0.316
			c-0.419,0.005-0.838,0.016-1.255,0.038C4.885,14.297,5.016,14.181,5.143,14.061z M4.614,14.53c0.01,0.009,0.023,0.016,0.04,0.017
			c0.392,0.022,0.785,0.034,1.178,0.041c-0.102,0.129-0.204,0.26-0.303,0.392c-0.497,0.002-0.995,0.006-1.492,0.015
			C4.233,14.842,4.426,14.689,4.614,14.53z M3.837,15.152c0.007,0.002,0.015,0.005,0.024,0.005c0.509,0.01,1.019,0.015,1.528,0.018
			c-0.14,0.193-0.275,0.388-0.405,0.585c-0.374,0.001-0.749,0-1.123,0.002c-0.056,0-0.089,0.034-0.101,0.075
			c-0.029,0-0.058,0-0.086,0c-0.242,0-0.493-0.014-0.735,0.016C3.233,15.617,3.536,15.386,3.837,15.152z"/>
		<path class="st0" d="M7.692,9.232C7.445,9.174,7.193,9.686,7.066,9.847c-0.282,0.359-0.608,0.732-0.809,1.142
			c-0.02,0.042,0.031,0.086,0.066,0.051c0.239-0.239,0.425-0.535,0.63-0.804c0.123-0.162,0.248-0.323,0.373-0.483
			c0.049-0.063,0.328-0.325,0.3-0.425c0.013,0.048,0.093,0.054,0.102,0C7.73,9.32,7.731,9.312,7.733,9.304
			C7.738,9.273,7.725,9.24,7.692,9.232z"/>
		<path class="st0" d="M8.773,9.442c-0.872,0.653-1.676,1.488-2.193,2.454c-0.019,0.035,0.029,0.061,0.052,0.031
			c0.667-0.883,1.357-1.685,2.216-2.388C8.902,9.494,8.829,9.4,8.773,9.442z"/>
		<path class="st0" d="M11.665,9.211c-0.827,0.477-1.584,1.13-2.326,1.729c-0.813,0.657-1.633,1.341-2.343,2.111
			c-0.038,0.041,0.019,0.096,0.061,0.061c0.775-0.642,1.509-1.333,2.287-1.973c0.775-0.638,1.621-1.195,2.385-1.844
			C11.775,9.254,11.715,9.182,11.665,9.211z"/>
		<path class="st0" d="M12.462,10.158c-0.471,0.316-0.912,0.668-1.337,1.043c-0.442,0.391-0.935,0.817-1.254,1.318
			c-0.029,0.045,0.033,0.085,0.07,0.054c0.426-0.357,0.786-0.8,1.196-1.178c0.439-0.404,0.91-0.774,1.387-1.132
			C12.585,10.217,12.528,10.113,12.462,10.158z"/>
		<path class="st0" d="M12.512,11.126c-0.446,0.363-0.954,0.796-1.244,1.301c-0.028,0.049,0.035,0.094,0.076,0.058
			c0.222-0.196,0.407-0.437,0.614-0.649c0.208-0.214,0.426-0.417,0.648-0.616C12.67,11.162,12.577,11.073,12.512,11.126z"/>
	</g>
</g>
</svg>
