<?xml version="1.0" encoding="utf-8"?>
<!-- Generator: Adobe Illustrator 22.1.0, SVG Export Plug-In . SVG Version: 6.00 Build 0)  -->
<svg version="1.1" id="Layer_1" xmlns="http://www.w3.org/2000/svg" xmlns:xlink="http://www.w3.org/1999/xlink" x="0px" y="0px"
	 viewBox="0 0 21 21" style="enable-background:new 0 0 21 21;" xml:space="preserve">
<style type="text/css">
	.st0{fill:#00B4E4;}
</style>
<g>
	<path class="st0" d="M12.503,10.69c0.678-1.03,0.907-2.246,0.646-3.425c-0.431-2.071-2.284-3.574-4.407-3.574
		c-0.297,0-0.596,0.031-0.888,0.091C6.647,4.032,5.615,4.73,4.948,5.748C4.29,6.753,4.064,7.956,4.311,9.136
		c0.216,1.028,0.784,1.952,1.599,2.603c0.801,0.639,1.805,0.991,2.828,0.991c0.285,0,0.572-0.027,0.853-0.081
		C10.77,12.426,11.831,11.712,12.503,10.69z M9.534,11.751C9.27,11.809,9,11.839,8.734,11.839c-0.821,0-1.625-0.283-2.265-0.798
		c-0.647-0.52-1.098-1.257-1.271-2.076c-0.201-0.95-0.019-1.923,0.513-2.738C6.24,5.418,7.049,4.863,7.99,4.666
		c0.245-0.051,0.494-0.077,0.742-0.077c1.696,0,3.186,1.216,3.543,2.891C12.686,9.41,11.456,11.326,9.534,11.751z"/>
	<path class="st0" d="M17.712,15.022c-1.292-1.231-2.293-2.175-3.245-3.063c-0.073-0.069-0.176-0.104-0.276-0.138
		c-0.045-0.015-0.091-0.031-0.133-0.05l-0.015-0.007l-0.014,0.01c-0.048,0.034-0.092,0.064-0.134,0.092
		c-0.085,0.057-0.159,0.106-0.222,0.167c-0.188,0.183-0.36,0.369-0.564,0.593c-0.269,0.293-0.26,0.579,0.026,0.85
		c1.014,0.961,2.059,1.949,3.194,3.02c0.127,0.12,0.26,0.181,0.395,0.181c0.14,0,0.276-0.065,0.405-0.194
		c0.202-0.202,0.407-0.418,0.609-0.642C17.99,15.562,17.981,15.279,17.712,15.022z"/>
	<path class="st0" d="M13.757,11.706c0.041-0.044,0.065-0.101,0.088-0.156c0.01-0.024,0.021-0.049,0.032-0.072l0.008-0.016
		l-0.011-0.014c-0.019-0.026-0.035-0.049-0.049-0.071c-0.029-0.043-0.055-0.08-0.086-0.112c-0.056-0.056-0.114-0.111-0.171-0.164
		c-0.096-0.09-0.195-0.183-0.281-0.283c-0.099-0.116-0.195-0.172-0.295-0.172c-0.102,0-0.208,0.058-0.323,0.179
		c-0.145,0.151-0.289,0.308-0.429,0.46c-0.143,0.155-0.291,0.316-0.439,0.471c-0.152,0.159-0.153,0.314-0.001,0.462
		c0.133,0.129,0.271,0.257,0.404,0.381c0.053,0.049,0.107,0.099,0.16,0.149c0.071,0.066,0.139,0.099,0.209,0.099
		c0.073,0,0.145-0.037,0.214-0.111c0.126-0.134,0.252-0.267,0.379-0.4C13.361,12.129,13.562,11.917,13.757,11.706z"/>
	<path class="st0" d="M6.982,6.139c-0.05-0.025-0.099-0.038-0.145-0.038c-0.124,0-0.217,0.089-0.277,0.155
		c-0.693,0.779-0.912,1.64-0.687,2.71c0.011,0.033,0.023,0.069,0.036,0.111C5.947,9.196,6,9.358,6.063,9.516
		C6.115,9.647,6.186,9.782,6.282,9.93c0.07,0.109,0.181,0.174,0.296,0.174c0.116,0,0.209-0.066,0.248-0.177
		c0.04-0.112,0.002-0.269-0.051-0.368C6.404,8.864,6.31,8.25,6.479,7.625C6.57,7.292,6.754,6.973,7.042,6.65
		c0.083-0.093,0.119-0.205,0.1-0.307C7.125,6.254,7.068,6.182,6.982,6.139z"/>
</g>
</svg>
