<?xml version="1.0" encoding="utf-8"?>
<!-- Generator: Adobe Illustrator 22.0.0, SVG Export Plug-In . SVG Version: 6.00 Build 0)  -->
<svg version="1.1" id="Layer_1" xmlns="http://www.w3.org/2000/svg" xmlns:xlink="http://www.w3.org/1999/xlink" x="0px" y="0px"
	 viewBox="0 0 10 8" style="enable-background:new 0 0 10 8;" xml:space="preserve">
<style type="text/css">
	.st0{fill:#00B3E3;}
	.st1{fill:#2374BB;}
	.st2{fill:#FFFFFF;}
</style>
<g>
	<rect x="0.192" y="1.201" class="st0" width="7.033" height="5.539"/>
	<polygon class="st1" points="7.224,1.201 7.224,6.74 0.192,6.74 1.492,7.607 8.525,7.607 8.525,2.501 	"/>
	<polygon class="st2" points="1.396,5.536 1.444,2.309 0.817,2.357 0.722,1.971 2.697,2.068 2.648,2.26 1.973,2.26 1.636,5.584 	"/>
	<g>
		<path class="st2" d="M4.286,5.15C4.19,5.246,3.949,5.295,3.756,5.295C2.841,5.44,2.503,4.813,2.407,4.187
			C2.263,3.465,2.503,2.79,3.081,2.742c0,0,0.048,0,0.096,0C3.803,2.694,4.045,3.176,4.14,3.705c0,0.096,0.048,0.193,0.048,0.337
			L2.744,4.139c0.096,0.819,0.53,0.915,0.915,0.868c0.048,0,0.048,0,0.096,0c0.096-0.048,0.241-0.145,0.337-0.193L4.286,5.15z
			 M3.708,3.705C3.611,3.224,3.419,2.982,3.13,2.982C2.744,3.031,2.697,3.416,2.744,3.801L3.708,3.705z"/>
		<path class="st2" d="M5.828,6.403l0.145-1.301l0,0C5.876,5.295,5.587,5.44,5.298,5.391C4.575,5.295,4.478,4.476,4.575,3.85
			C4.72,3.031,5.25,2.694,5.683,2.742c0.193,0.048,0.434,0.145,0.53,0.434l0,0V2.693l0.482,0.241L6.55,3.705L6.069,6.354
			L5.828,6.403z M6.117,3.85C6.165,3.465,6.02,3.128,5.683,3.079C5.297,3.031,5.057,3.368,5.008,3.85
			C4.912,4.284,4.96,4.958,5.49,5.006C5.683,5.054,6.02,4.91,6.068,4.428L6.117,3.85z"/>
	</g>
</g>
<g>
	<path class="st2" d="M8.908,1.801V1.49H8.791V1.448h0.28V1.49H8.954v0.311H8.908z"/>
	<path class="st2" d="M9.118,1.801V1.448h0.07l0.084,0.25C9.28,1.721,9.286,1.739,9.289,1.75c0.004-0.013,0.01-0.032,0.018-0.057
		l0.085-0.246h0.063V1.8H9.41V1.506L9.307,1.801H9.265l-0.102-0.3v0.301H9.118V1.801z"/>
</g>
</svg>
