<?xml version="1.0" encoding="utf-8"?>
<!-- Generator: Adobe Illustrator 22.1.0, SVG Export Plug-In . SVG Version: 6.00 Build 0)  -->
<svg version="1.1" id="Layer_1" xmlns="http://www.w3.org/2000/svg" xmlns:xlink="http://www.w3.org/1999/xlink" x="0px" y="0px"
	 viewBox="0 0 65 75" style="enable-background:new 0 0 65 75;" xml:space="preserve">
<style type="text/css">
	.st0{fill:url(#SVGID_1_);}
	.st1{fill:#D8D9DA;}
	.st2{fill:#00B4E4;}
	.st3{fill:#B41000;}
	.st4{fill:#FFFFFF;}
</style>
<g>
	<g>
		
			<linearGradient id="SVGID_1_" gradientUnits="userSpaceOnUse" x1="14.0694" y1="49.6838" x2="14.0694" y2="32.8516" gradientTransform="matrix(1 0 0 1 0 8)">
			<stop  offset="0" style="stop-color:#FFFFFF"/>
			<stop  offset="1" style="stop-color:#F0F0F0"/>
		</linearGradient>
		<path class="st0" d="M6.178,47.633c0,1.07,0.134,2.207,0.535,3.344c1.003,3.009,3.477,5.216,7.356,6.688
			c3.879-1.471,6.353-3.678,7.356-6.688c0.401-1.137,0.535-2.274,0.535-3.344c0-3.411-1.404-6.286-1.672-6.754
			c-3.143,2.073-5.885,0.268-6.219,0.067c-0.334,0.268-3.076,2.006-6.219-0.067C7.649,41.347,6.178,44.223,6.178,47.633z"/>
		<path class="st1" d="M14.069,57.865L14.069,57.865c-3.946-1.471-6.42-3.745-7.49-6.821c-0.334-1.07-0.535-2.207-0.535-3.411
			c0-3.411,1.404-6.286,1.672-6.821l0.067-0.134l0.134,0.067c3.076,2.006,5.751,0.268,6.086,0.067l0.067-0.067l0.067,0.067
			c0.267,0.201,2.942,2.006,6.086-0.067l0.134-0.067l0.067,0.134c0.267,0.535,1.672,3.477,1.672,6.821
			c0,1.204-0.201,2.341-0.535,3.411C20.556,54.053,18.015,56.327,14.069,57.865L14.069,57.865z M7.917,41.079
			c-0.401,0.802-1.605,3.477-1.605,6.554c0,1.204,0.201,2.274,0.535,3.277c1.003,2.942,3.411,5.149,7.222,6.621
			c3.812-1.471,6.219-3.678,7.222-6.621c0.334-1.003,0.535-2.14,0.535-3.277c0-3.143-1.204-5.818-1.605-6.554
			c-3.009,1.872-5.617,0.401-6.152,0C13.534,41.414,10.926,42.952,7.917,41.079z"/>
	</g>
	<path class="st2" d="M6.914,47.566c0,1.003,0.134,2.073,0.468,3.143c0.936,2.742,3.143,4.815,6.621,6.153
		c3.478-1.404,5.684-3.478,6.621-6.153c0.334-1.07,0.468-2.14,0.468-3.143c0-0.268,0-0.535,0-0.869H6.914
		C6.914,47.031,6.914,47.299,6.914,47.566z"/>
	<path class="st3" d="M19.954,41.949c-2.608,1.337-4.882,0.401-5.885-0.201c-1.003,0.535-3.277,1.471-5.885,0.201
		c-0.334,0.803-0.803,2.073-1.003,3.611h13.91C20.757,44.022,20.289,42.751,19.954,41.949z"/>
	<g>
		<g>
			<polygon class="st4" points="10.324,52.916 10.391,47.968 9.455,48.101 9.321,47.499 12.331,47.633 12.264,47.901 11.194,47.968 
				10.726,52.983 			"/>
			<g>
				<path class="st4" d="M14.738,52.314c-0.134,0.134-0.468,0.201-0.802,0.267c-1.337,0.201-1.872-0.802-2.073-1.739
					c-0.201-1.137,0.134-2.14,1.07-2.274c0.067,0,0.067,0,0.134,0c0.936-0.067,1.337,0.602,1.471,1.471
					c0,0.134,0.067,0.268,0.067,0.468l-2.207,0.134c0.201,1.204,0.803,1.404,1.337,1.338c0.067,0,0.067,0,0.134,0
					c0.267-0.067,0.468-0.134,0.602-0.201L14.738,52.314z M13.869,50.108c-0.134-0.736-0.468-1.137-0.936-1.07
					c-0.535,0.067-0.602,0.669-0.602,1.204L13.869,50.108z"/>
				<path class="st4" d="M17.079,54.187l0.267-1.939l0,0c-0.201,0.268-0.602,0.535-1.07,0.468c-1.07-0.134-1.204-1.337-1.07-2.341
					c0.201-1.204,1.003-1.806,1.672-1.672c0.334,0.067,0.669,0.268,0.803,0.669l0,0v-0.736l0.736,0.334l-0.201,1.137L17.48,54.12
					L17.079,54.187z M17.547,50.308c0.067-0.602-0.201-1.07-0.602-1.137c-0.535-0.067-0.936,0.468-1.07,1.204
					c-0.134,0.669-0.067,1.672,0.669,1.806c0.267,0.067,0.802-0.134,0.869-0.869L17.547,50.308z"/>
			</g>
		</g>
	</g>
	<g>
		<path class="st4" d="M9.388,44.691v-1.137h0.201v1.137H9.388z"/>
		<path class="st4" d="M9.856,44.691v-1.137h0.201l0.468,0.736v-0.736h0.201v1.137h-0.201l-0.468-0.736v0.736H9.856z"/>
		<path class="st4" d="M11.194,44.691v-0.936h-0.334v-0.201h0.869v0.201h-0.334v0.936H11.194z"/>
		<path class="st4" d="M11.929,44.691v-1.137h0.802v0.201H12.13v0.267h0.535v0.201H12.13v0.334h0.602v0.201L11.929,44.691
			L11.929,44.691z"/>
		<path class="st4" d="M13.2,43.754h0.134c0.067,0,0.134,0,0.134,0c0.067,0,0.067,0,0.067,0.067v0.067v0.067l-0.067,0.067
			c0,0-0.067,0-0.201,0h-0.134L13.2,43.754L13.2,43.754z M13.2,44.691v-0.468h0.067c0.067,0,0.067,0,0.134,0
			c0,0,0.067,0,0.067,0.067c0,0,0.067,0.067,0.134,0.134l0.134,0.268h0.267l-0.134-0.201c-0.067-0.067-0.067-0.134-0.134-0.201
			c0-0.067-0.067-0.067-0.134-0.067c0.067,0,0.201-0.067,0.201-0.134c0.067-0.067,0.067-0.134,0.067-0.201
			c0-0.067,0-0.134-0.067-0.201c0-0.067-0.067-0.067-0.134-0.134c-0.067,0-0.134,0-0.267,0h-0.468v1.137L13.2,44.691L13.2,44.691z"
			/>
		<path class="st4" d="M14.003,44.356h0.201c0,0.067,0.067,0.134,0.067,0.134c0.067,0.067,0.067,0.067,0.134,0.067
			s0.134,0,0.134-0.067c0.067,0,0.067-0.067,0.067-0.134v-0.067l-0.067-0.067c0,0-0.067,0-0.201-0.067
			c-0.134,0-0.201-0.067-0.267-0.134c-0.067-0.067-0.134-0.134-0.134-0.201c0-0.067,0-0.134,0.067-0.134
			c0-0.067,0.067-0.067,0.134-0.134c0.067,0,0.134-0.067,0.201-0.067c0.134,0,0.267,0,0.334,0.067
			c0.067,0.067,0.134,0.134,0.134,0.268h-0.201c0-0.067,0-0.067-0.067-0.134c0,0-0.067-0.067-0.134-0.067s-0.134,0-0.134,0.067
			l-0.067,0.067v0.067c0,0,0.067,0.067,0.201,0.067c0.134,0,0.201,0.067,0.267,0.067c0.067,0,0.067,0.067,0.134,0.134
			c0,0.067,0.067,0.134,0.067,0.201c0,0.067,0,0.134-0.067,0.201s-0.067,0.067-0.134,0.134c-0.067,0-0.134,0.067-0.267,0.067
			c-0.134,0-0.267,0-0.334-0.067C14.069,44.557,14.069,44.423,14.003,44.356z"/>
		<path class="st4" d="M15.407,44.691v-0.936h-0.334v-0.201h0.869v0.201h-0.334v0.936H15.407z"/>
		<path class="st4" d="M16.276,44.223l0.134-0.401l0.134,0.401H16.276z M16.544,43.554h-0.267l-0.401,1.137h0.267l0.067-0.268h0.468
			l0.067,0.268h0.267L16.544,43.554z"/>
		<path class="st4" d="M17.212,44.691v-0.936h-0.334v-0.201h0.869v0.201h-0.334v0.936H17.212z"/>
		<path class="st4" d="M17.948,44.691v-1.137h0.803v0.201h-0.602v0.267h0.535v0.201h-0.535v0.334h0.602v0.201L17.948,44.691
			L17.948,44.691z"/>
	</g>
</g>
</svg>
