<?xml version="1.0" encoding="utf-8"?>
<!-- Generator: Adobe Illustrator 22.1.0, SVG Export Plug-In . SVG Version: 6.00 Build 0)  -->
<svg version="1.1" id="Layer_1" xmlns="http://www.w3.org/2000/svg" xmlns:xlink="http://www.w3.org/1999/xlink" x="0px" y="0px"
	 viewBox="0 0 65 75" style="enable-background:new 0 0 65 75;" xml:space="preserve">
<style type="text/css">
	.st0{fill:url(#SVGID_1_);}
	.st1{fill:#D8D9DA;}
	.st2{fill:#00B4E4;}
	.st3{fill:#B41000;}
	.st4{fill:#FFFFFF;}
	.st5{fill:#2374BA;}
	.st6{fill:url(#SVGID_2_);}
</style>
<g>
	<g>
		
			<linearGradient id="SVGID_1_" gradientUnits="userSpaceOnUse" x1="20.63" y1="109.3147" x2="20.63" y2="80.9967" gradientTransform="matrix(1 0 0 1 0 -48)">
			<stop  offset="0" style="stop-color:#FFFFFF"/>
			<stop  offset="1" style="stop-color:#F0F0F0"/>
		</linearGradient>
		<path class="st0" d="M7.368,44.407c0,1.836,0.25,3.754,0.898,5.64c1.726,5.029,5.888,8.82,12.364,11.268
			c6.479-2.449,10.64-6.24,12.365-11.271c0.647-1.887,0.897-3.804,0.897-5.64c0-5.711-2.411-10.626-2.814-11.407
			c-5.301,3.508-9.88,0.466-10.449,0.058c-0.559,0.394-5.194,3.416-10.448-0.058C9.779,33.778,7.368,38.697,7.368,44.407z"/>
		<path class="st1" d="M20.63,61.565l-0.083-0.032C14,59.059,9.793,55.22,8.045,50.123c-0.604-1.757-0.911-3.681-0.911-5.715
			c0-5.722,2.365-10.599,2.84-11.518l0.119-0.231l0.217,0.144c5.148,3.404,9.684,0.414,10.184,0.062l0.136-0.095l0.135,0.097
			c0.496,0.356,4.99,3.373,10.184-0.063l0.217-0.144l0.12,0.231c0.474,0.919,2.84,5.796,2.84,11.514
			c0,2.034-0.306,3.957-0.909,5.715c-1.748,5.098-5.955,8.939-12.504,11.414L20.63,61.565z M10.274,33.334
			c-0.648,1.312-2.672,5.832-2.672,11.074c0,1.983,0.298,3.855,0.885,5.564c1.694,4.938,5.78,8.669,12.143,11.094
			c6.366-2.424,10.451-6.158,12.144-11.097c0.586-1.71,0.884-3.582,0.884-5.564c0-5.238-2.024-9.758-2.672-11.07
			c-5.043,3.18-9.426,0.627-10.359,0.004C19.688,33.955,15.273,36.483,10.274,33.334z"/>
	</g>
	<path class="st2" d="M8.551,44.322c0,1.725,0.232,3.519,0.83,5.276c1.552,4.559,5.317,8.046,11.157,10.39
		c5.84-2.344,9.605-5.831,11.158-10.39c0.597-1.757,0.829-3.551,0.829-5.276c0-0.48-0.019-0.953-0.051-1.419H8.603
		C8.571,43.37,8.551,43.843,8.551,44.322z"/>
	<path class="st3" d="M30.489,34.791c-4.425,2.2-8.258,0.659-9.946-0.288c-1.685,0.954-5.51,2.503-9.953,0.289
		c-0.561,1.346-1.327,3.506-1.741,6.035H32.23C31.815,38.297,31.049,36.137,30.489,34.791z"/>
	<g>
		<g>
			<polygon class="st4" points="14.288,53.275 14.433,44.993 12.851,45.163 12.655,44.137 17.727,44.367 17.518,44.848 
				15.798,44.926 14.924,53.42 			"/>
			<g>
				<path class="st4" d="M21.674,52.304c-0.28,0.19-0.818,0.349-1.356,0.426c-2.252,0.325-3.185-1.359-3.447-2.87
					c-0.329-1.894,0.247-3.553,1.802-3.777c0.058-0.008,0.134-0.006,0.191-0.014c1.575-0.106,2.208,1.053,2.448,2.43
					c0.049,0.279,0.064,0.453,0.094,0.801l-3.709,0.251c0.298,2.062,1.387,2.325,2.287,2.277c0.073-0.01,0.148-0.007,0.22-0.018
					c0.465-0.067,0.796-0.223,1.022-0.379L21.674,52.304z M20.231,48.548c-0.209-1.206-0.776-1.898-1.532-1.789
					c-0.857,0.123-1.065,1.158-0.964,2.081L20.231,48.548z"/>
				<path class="st4" d="M25.661,55.484l0.425-3.306l-0.044-0.007c-0.301,0.445-0.996,0.847-1.781,0.734
					c-1.845-0.266-2.047-2.279-1.763-3.908c0.361-2.079,1.712-2.999,2.86-2.833c0.553,0.079,1.092,0.402,1.37,1.121l0.029,0.005
					l0.016-1.206l1.27,0.577l-0.338,1.948l-1.248,6.759L25.661,55.484z M26.459,48.918c0.124-0.973-0.292-1.834-1.062-1.946
					c-0.944-0.137-1.565,0.779-1.781,2.024c-0.189,1.086-0.101,2.81,1.178,2.995c0.494,0.071,1.342-0.268,1.479-1.484L26.459,48.918
					z"/>
			</g>
		</g>
	</g>
	<g>
		<path class="st4" d="M12.748,39.459v-1.877h0.379v1.877H12.748z"/>
		<path class="st4" d="M13.487,39.459v-1.877h0.368l0.771,1.258v-1.258h0.352v1.877h-0.38l-0.759-1.231v1.231H13.487z"/>
		<path class="st4" d="M15.803,39.459v-1.56H15.25v-0.318h1.484v0.318h-0.552v1.56H15.803z"/>
		<path class="st4" d="M16.98,39.459v-1.877h1.388V37.9h-1.01v0.416h0.939v0.318h-0.939v0.509h1.048v0.317L16.98,39.459
			L16.98,39.459z"/>
		<path class="st4" d="M19.107,37.901h0.295c0.153,0,0.246,0.002,0.276,0.007c0.062,0.01,0.109,0.035,0.143,0.074
			c0.034,0.038,0.05,0.089,0.05,0.152c0,0.056-0.013,0.103-0.039,0.14c-0.025,0.037-0.061,0.064-0.106,0.079
			c-0.046,0.015-0.159,0.022-0.34,0.022h-0.28v-0.474C19.106,37.901,19.107,37.901,19.107,37.901z M19.107,39.459v-0.784h0.077
			c0.088,0,0.151,0.007,0.192,0.021c0.039,0.015,0.078,0.041,0.114,0.079c0.036,0.038,0.102,0.13,0.199,0.277l0.273,0.409h0.453
			l-0.229-0.367c-0.09-0.147-0.161-0.248-0.215-0.305c-0.053-0.057-0.121-0.109-0.202-0.158c0.164-0.023,0.287-0.081,0.369-0.173
			c0.082-0.092,0.123-0.208,0.123-0.348c0-0.11-0.027-0.209-0.081-0.295c-0.055-0.086-0.127-0.146-0.218-0.18
			s-0.237-0.05-0.437-0.05h-0.796v1.877L19.107,39.459L19.107,39.459z"/>
		<path class="st4" d="M20.522,38.849l0.368-0.037c0.022,0.123,0.067,0.214,0.135,0.272c0.068,0.057,0.159,0.087,0.275,0.087
			c0.122,0,0.214-0.026,0.276-0.078c0.062-0.052,0.093-0.111,0.093-0.18c0-0.044-0.013-0.082-0.039-0.113
			c-0.025-0.032-0.072-0.058-0.136-0.081c-0.044-0.015-0.145-0.043-0.303-0.081c-0.202-0.05-0.344-0.111-0.425-0.185
			c-0.115-0.103-0.172-0.229-0.172-0.379c0-0.095,0.026-0.185,0.08-0.268s0.132-0.147,0.234-0.19
			c0.102-0.044,0.223-0.065,0.368-0.065c0.235,0,0.411,0.052,0.53,0.156c0.119,0.104,0.18,0.243,0.187,0.417l-0.379,0.013
			c-0.016-0.096-0.051-0.166-0.104-0.209c-0.052-0.043-0.132-0.065-0.238-0.065c-0.108,0-0.194,0.022-0.256,0.068
			c-0.039,0.029-0.06,0.068-0.06,0.118c0,0.045,0.019,0.083,0.056,0.114c0.048,0.04,0.164,0.082,0.347,0.125
			c0.184,0.043,0.32,0.088,0.408,0.135c0.088,0.047,0.156,0.11,0.207,0.191c0.05,0.081,0.075,0.18,0.075,0.299
			c0,0.108-0.03,0.209-0.09,0.303c-0.059,0.093-0.144,0.164-0.253,0.209c-0.108,0.046-0.245,0.068-0.407,0.068
			c-0.238,0-0.42-0.055-0.547-0.165C20.623,39.219,20.547,39.059,20.522,38.849z"/>
		<path class="st4" d="M22.791,39.459v-1.56h-0.553v-0.318h1.485v0.318H23.17v1.56H22.791z"/>
		<path class="st4" d="M24.259,38.716l0.252-0.696l0.261,0.696H24.259z M24.712,37.583h-0.406l-0.723,1.877h0.407l0.154-0.426h0.753
			l0.163,0.426h0.407L24.712,37.583z"/>
		<path class="st4" d="M25.896,39.459v-1.56h-0.553v-0.318h1.485v0.318h-0.553v1.56H25.896z"/>
		<path class="st4" d="M27.073,39.459v-1.877h1.388V37.9h-1.01v0.416h0.939v0.318h-0.938v0.509h1.047v0.317L27.073,39.459
			L27.073,39.459z"/>
	</g>
</g>
<g>
	<path class="st5" d="M35.267,27.951c0,1.058-0.866,1.924-1.924,1.924H8.832c-1.058,0-1.924-0.866-1.924-1.924v-2.887
		c0-1.057,0.866-1.924,1.924-1.924h24.511c1.058,0,1.924,0.866,1.924,1.924V27.951z"/>
	
		<linearGradient id="SVGID_2_" gradientUnits="userSpaceOnUse" x1="21.1058" y1="3.7514" x2="21.063" y2="-1.6745" gradientTransform="matrix(1 0 0 -1 0 28)">
		<stop  offset="0" style="stop-color:#0098DA"/>
		<stop  offset="1" style="stop-color:#0080C6"/>
	</linearGradient>
	<path class="st6" d="M8.832,23.781c-0.708,0-1.283,0.576-1.283,1.283v2.886c0,0.708,0.575,1.283,1.283,1.283h24.511
		c0.708,0,1.284-0.575,1.284-1.283v-2.886c0-0.707-0.575-1.283-1.284-1.283C33.343,23.781,8.832,23.781,8.832,23.781z"/>
	<g>
		<path class="st4" d="M9.016,27.246c0.065-0.157,0.222-0.324,0.467-0.499c0.213-0.152,0.352-0.262,0.414-0.328
			c0.096-0.103,0.145-0.216,0.145-0.338c0-0.1-0.027-0.182-0.082-0.249c-0.055-0.066-0.135-0.099-0.237-0.099
			c-0.141,0-0.237,0.052-0.288,0.158c-0.029,0.061-0.047,0.157-0.052,0.289H8.932c0.007-0.201,0.044-0.363,0.109-0.486
			c0.123-0.235,0.343-0.352,0.659-0.352c0.25,0,0.448,0.069,0.596,0.208s0.222,0.321,0.222,0.549c0,0.175-0.052,0.329-0.156,0.465
			c-0.068,0.09-0.18,0.19-0.337,0.3l-0.186,0.132c-0.117,0.082-0.195,0.142-0.238,0.179s-0.079,0.079-0.108,0.128h1.028v0.408H8.906
			C8.911,27.539,8.947,27.385,9.016,27.246z"/>
		<path class="st4" d="M12.119,25.652c0.121,0.211,0.181,0.511,0.181,0.9s-0.061,0.688-0.181,0.899s-0.331,0.315-0.631,0.315
			s-0.511-0.105-0.631-0.315c-0.121-0.21-0.181-0.51-0.181-0.899s0.061-0.689,0.181-0.9s0.331-0.317,0.631-0.317
			C11.787,25.335,11.997,25.441,12.119,25.652z M11.214,27.174c0.044,0.144,0.136,0.215,0.273,0.215s0.228-0.072,0.27-0.215
			s0.065-0.351,0.065-0.622c0-0.284-0.022-0.495-0.065-0.631c-0.043-0.137-0.133-0.205-0.27-0.205s-0.229,0.068-0.273,0.205
			s-0.066,0.347-0.066,0.631C11.148,26.824,11.17,27.031,11.214,27.174z"/>
		<path class="st4" d="M12.57,26.083v-0.315c0.146-0.007,0.248-0.017,0.307-0.029c0.093-0.021,0.169-0.062,0.227-0.123
			c0.04-0.042,0.07-0.098,0.091-0.169c0.012-0.042,0.018-0.074,0.018-0.094H13.6v2.357h-0.474v-1.626L12.57,26.083L12.57,26.083z"/>
		<path class="st4" d="M14.284,26.696c0.06-0.108,0.148-0.188,0.263-0.242c-0.114-0.076-0.188-0.158-0.223-0.247
			c-0.034-0.088-0.051-0.17-0.051-0.248c0-0.171,0.065-0.317,0.194-0.438s0.311-0.181,0.547-0.181s0.418,0.061,0.547,0.181
			c0.129,0.121,0.194,0.266,0.194,0.438c0,0.078-0.017,0.16-0.051,0.248c-0.034,0.089-0.108,0.165-0.222,0.23
			c0.117,0.065,0.204,0.151,0.263,0.258s0.088,0.227,0.088,0.359c0,0.198-0.073,0.367-0.221,0.507
			c-0.147,0.139-0.352,0.209-0.616,0.209s-0.463-0.069-0.598-0.209c-0.136-0.139-0.203-0.308-0.203-0.507
			C14.195,26.923,14.225,26.803,14.284,26.696z M14.766,27.294c0.06,0.065,0.143,0.096,0.25,0.096s0.189-0.032,0.25-0.096
			c0.061-0.065,0.09-0.153,0.09-0.27c0-0.12-0.031-0.211-0.092-0.274s-0.144-0.094-0.248-0.094c-0.105,0-0.187,0.031-0.248,0.094
			c-0.062,0.063-0.092,0.153-0.092,0.274C14.676,27.14,14.706,27.23,14.766,27.294z M14.796,26.221
			c0.052,0.054,0.125,0.081,0.219,0.081s0.167-0.027,0.22-0.081c0.051-0.054,0.078-0.124,0.078-0.209
			c0-0.093-0.025-0.165-0.078-0.219c-0.051-0.052-0.125-0.079-0.22-0.079c-0.094,0-0.166,0.026-0.219,0.079
			c-0.052,0.052-0.079,0.125-0.079,0.219C14.716,26.097,14.743,26.167,14.796,26.221z"/>
		<g>
			<path class="st4" d="M18.505,25.375c0.088,0.038,0.163,0.094,0.224,0.167c0.05,0.061,0.091,0.128,0.121,0.201
				c0.03,0.074,0.045,0.158,0.045,0.252c0,0.114-0.029,0.225-0.086,0.336c-0.057,0.109-0.152,0.188-0.284,0.233
				c0.11,0.044,0.189,0.108,0.235,0.189s0.069,0.207,0.069,0.375v0.161c0,0.109,0.004,0.183,0.013,0.223
				c0.013,0.062,0.044,0.108,0.093,0.137v0.06h-0.553c-0.015-0.053-0.026-0.096-0.033-0.128c-0.013-0.067-0.021-0.136-0.022-0.206
				l-0.004-0.223c-0.002-0.152-0.028-0.254-0.079-0.306c-0.051-0.051-0.146-0.077-0.285-0.077h-0.488v0.94h-0.489v-2.395h1.145
				C18.291,25.316,18.417,25.336,18.505,25.375z M17.471,25.729v0.643h0.539c0.108,0,0.187-0.013,0.241-0.039
				c0.094-0.046,0.142-0.135,0.142-0.269c0-0.145-0.046-0.243-0.137-0.293c-0.051-0.028-0.129-0.042-0.232-0.042
				C18.024,25.729,17.471,25.729,17.471,25.729z"/>
			<path class="st4" d="M21.135,27.495c-0.18,0.187-0.442,0.28-0.785,0.28s-0.604-0.093-0.785-0.28
				c-0.243-0.228-0.365-0.558-0.365-0.988c0-0.439,0.122-0.769,0.365-0.988c0.18-0.186,0.442-0.28,0.785-0.28
				s0.604,0.093,0.785,0.28c0.241,0.22,0.363,0.55,0.363,0.988C21.498,26.937,21.377,27.267,21.135,27.495z M20.823,27.131
				c0.117-0.146,0.175-0.354,0.175-0.625c0-0.268-0.058-0.476-0.175-0.623s-0.274-0.219-0.472-0.219s-0.356,0.073-0.474,0.22
				c-0.118,0.146-0.178,0.354-0.178,0.624s0.059,0.478,0.178,0.625c0.118,0.147,0.276,0.22,0.474,0.22
				C20.549,27.35,20.706,27.278,20.823,27.131z"/>
			<path class="st4" d="M22.482,25.313h0.567l0.848,2.395h-0.543l-0.158-0.493h-0.882l-0.163,0.493h-0.524L22.482,25.313z
				 M22.449,26.803h0.613l-0.302-0.942L22.449,26.803z"/>
			<path class="st4" d="M25.521,25.364c0.168,0.055,0.304,0.156,0.409,0.304c0.083,0.119,0.14,0.248,0.17,0.387
				c0.031,0.138,0.046,0.271,0.046,0.396c0,0.319-0.065,0.588-0.193,0.809c-0.174,0.298-0.441,0.447-0.803,0.447h-1.033v-2.395
				h1.033C25.299,25.315,25.422,25.333,25.521,25.364z M24.603,25.729v1.563h0.463c0.237,0,0.401-0.117,0.495-0.35
				c0.05-0.128,0.077-0.28,0.077-0.456c0-0.244-0.038-0.431-0.115-0.562s-0.229-0.195-0.456-0.195
				C25.066,25.729,24.603,25.729,24.603,25.729z"/>
			<path class="st4" d="M28.027,25.313h0.72v2.395H28.28v-1.62c0-0.047,0-0.111,0.002-0.195c0.001-0.084,0.002-0.149,0.002-0.194
				l-0.454,2.01h-0.486l-0.451-2.01c0,0.046,0.001,0.11,0.002,0.194s0.002,0.15,0.002,0.195v1.62H26.43v-2.395h0.728l0.436,1.884
				L28.027,25.313z"/>
			<path class="st4" d="M29.813,25.313h0.567l0.848,2.395h-0.543l-0.158-0.493h-0.882l-0.163,0.493h-0.524L29.813,25.313z
				 M29.779,26.803h0.613l-0.302-0.942L29.779,26.803z"/>
			<path class="st4" d="M33.056,26.671c-0.14,0.117-0.34,0.176-0.601,0.176h-0.498v0.861H31.46v-2.395h1.028
				c0.237,0,0.426,0.062,0.568,0.185c0.141,0.123,0.211,0.314,0.211,0.574C33.267,26.354,33.197,26.555,33.056,26.671z
				 M32.675,25.808c-0.064-0.053-0.152-0.079-0.266-0.079h-0.451v0.706h0.451c0.114,0,0.203-0.029,0.266-0.086
				c0.064-0.057,0.095-0.149,0.095-0.273C32.769,25.951,32.738,25.862,32.675,25.808z"/>
		</g>
	</g>
</g>
<g>
	<path class="st2" d="M36.03,54.007c0.01-0.012,0.018-0.023,0.025-0.034c-0.019,0.01-0.038,0.02-0.038,0.02L36.03,54.007z"/>
	<path class="st2" d="M35.938,53.776c0.005,0.003,0.008,0.007,0.012,0.011c0-0.006-0.001-0.012,0-0.017L35.938,53.776z"/>
	<path class="st2" d="M36.03,54.008c0.047,0.055,0.106,0.102,0.13,0.168c-0.021,0.011-0.063,0.033-0.084,0.044
		c0.003,0.041,0.048,0.061,0.071,0.092c-0.021,0.011-0.042,0.022-0.03,0.037c0.018,0.047,0.061,0.062,0.109,0.051
		C36.183,54.18,36.365,54,36.03,54.008z"/>
	<path class="st2" d="M36.057,53.969c0.037-0.055,0.049-0.103,0.044-0.171l-0.11,0.057C36.007,53.896,36.019,53.94,36.057,53.969z"
		/>
	<path class="st2" d="M42.466,55.281c0.079,0.116,0.163,0.183,0.243,0.293c-0.01,0.004-0.023,0.011-0.036,0.005
		c0.068,0.063,0.143,0.138,0.204,0.217c0.025,0.003,0.05,0.005,0.075,0.006C42.805,55.606,42.668,55.405,42.466,55.281z"/>
	<path class="st2" d="M42.95,53.852c0.112,0.071,0.171,0.117,0.198,0.147c0.033,0.004,0.075,0.01,0.128,0.019
		c-0.004-0.005-0.008-0.011-0.011-0.016c-0.095-0.082-0.189-0.166-0.281-0.253c-0.049-0.031-0.098-0.059-0.147-0.078
		C42.873,53.731,42.91,53.792,42.95,53.852z"/>
	<path class="st2" d="M43.148,53.998C42.865,53.967,43.254,54.113,43.148,53.998L43.148,53.998z"/>
	<path class="st2" d="M41.633,53.817c0.017,0.017,0.033,0.033,0.049,0.05l-0.01-0.014L41.633,53.817z"/>
	<path class="st2" d="M41.38,52.516c0.062,0.078,0.129,0.154,0.2,0.226c-0.13-0.156-0.261-0.314-0.405-0.43
		c0.014,0.02,0.011,0.048,0.025,0.069C41.262,52.408,41.338,52.455,41.38,52.516z"/>
	<path class="st2" d="M42.141,54.207l-0.084-0.123c-0.013-0.02-0.026-0.039-0.039-0.059c-0.119-0.114-0.238-0.233-0.363-0.361
		c0.109,0.097,0.217,0.198,0.324,0.301c-0.149-0.236-0.286-0.491-0.499-0.693c-0.132-0.099-0.259-0.251-0.404-0.371
		c-0.008,0-0.017,0-0.025,0c-0.006-0.012-0.012-0.023-0.018-0.034c-0.024-0.013-0.053-0.026-0.071-0.033
		c-0.069-0.065-0.139-0.131-0.21-0.198c-0.013-0.013-0.027-0.026-0.04-0.039c0.001-0.015,0.003-0.03,0.004-0.044
		c0.034,0.025,0.069,0.049,0.101,0.075c0.084,0.067,0.158,0.14,0.216,0.24c0.016,0.009,0.03,0.018,0.035,0.026l0.008,0.007
		c0.132,0.006,0.224,0.14,0.303,0.256c0.02-0.035,0.045,0.034,0.079,0.019c0.152,0.093,0.303,0.186,0.424,0.267
		c0.179,0.134,0.258,0.313,0.457,0.412c0.062,0.026,0.101,0.116,0.16,0.17c0.034,0.019,0.067,0.041,0.1,0.064
		c-0.015-0.033-0.029-0.066-0.043-0.099c0.003-0.028,0.461,0.474,0.514,0.424c0.017-0.007-0.366-0.415-0.585-0.729
		c0.009-0.084,0.285-0.056,0.33-0.022c0.008,0.002,0.015,0.006,0.023,0.009c-0.029-0.049-0.057-0.097-0.085-0.145
		c-0.067-0.067-0.134-0.135-0.201-0.202c-0.106-0.11-0.213-0.221-0.32-0.332c0.036,0.026,0.074,0.052,0.112,0.078
		c0.02,0.011,0.04,0.024,0.058,0.037c0.15,0.104,0.253,0.257,0.35,0.42c0.077,0.076,0.154,0.15,0.232,0.224l0.008,0.005
		c-0.071-0.106-0.133-0.219-0.198-0.327c-0.176-0.173-0.348-0.353-0.52-0.534c0.036,0.026,0.074,0.052,0.112,0.078
		c0.182,0.102,0.299,0.273,0.408,0.456c0.167,0.165,0.337,0.325,0.513,0.476c-0.082-0.119-0.175-0.255-0.272-0.365
		c-0.409-0.436-0.797-0.831-1.188-1.232c-0.076-0.036-0.145-0.075-0.192-0.123c-0.029-0.027-0.058-0.056-0.085-0.087
		c-0.015-0.017-0.024-0.026-0.044-0.051l-0.061-0.079c-0.08-0.105-0.158-0.211-0.232-0.304c-0.006,0.055-0.073-0.043-0.086-0.03
		c-0.185-0.142-0.315-0.365-0.466-0.586c-0.021-0.031-0.012-0.049-0.027-0.098c-0.147-0.062-0.273-0.181-0.397-0.338
		c-0.176,0.109-0.355,0.194-0.535,0.284c0.18-0.107,0.362-0.235,0.556-0.376l0.069,0.071c-0.023-0.027-0.046-0.054-0.067-0.079
		c-0.512,0.332-0.95,0.602-1.403,0.855c-0.056,0.033-0.113,0.066-0.168,0.099c-0.038,0.025-0.076,0.051-0.114,0.076
		c-0.074,0.051-0.146,0.104-0.216,0.158c-0.14,0.108-0.273,0.22-0.405,0.333c-0.11,0.09-0.24,0.153-0.375,0.21
		c0.004-0.015,0.007-0.03,0.008-0.046c-0.168,0.071-0.318,0.154-0.465,0.258l-0.04,0.028c-0.298,0.22-0.573,0.385-0.913,0.563
		c-0.083,0.044-0.155,0.103-0.238,0.146c-0.051,0.048,0.125,0.085,0.033,0.155c0.009,0.001,0.018,0.004,0.028,0.007
		c0.064-0.061,0.112-0.126,0.16-0.105c0.078,0.048-0.046,0.162-0.091,0.277c0.006,0.013,0.012,0.027,0.016,0.042
		c0,0-0.014,0.007-0.03,0.016v0.017c0.02,0.019,0.033,0.043,0.042,0.068l0.11-0.057c0.005,0.068-0.007,0.115-0.044,0.171
		l0.002,0.002l-0.005-0.003c-0.008,0.011-0.016,0.022-0.025,0.034v0.001c0.334-0.008,0.153,0.173,0.197,0.391
		c0.025-0.006,0.051-0.019,0.076-0.039c0.012,0.015,0.036,0.046,0.036,0.046c0.212-0.068,0.384-0.072,0.611-0.083
		c0.054-0.006,0.101,0.055,0.164,0.022c0.167-0.087,0.346-0.159,0.501-0.262c0.317-0.236,0.632-0.443,0.961-0.643
		c-0.005-0.002-0.009-0.005-0.011-0.009c0.081-0.046,0.162-0.092,0.244-0.14c0.049-0.026,0.079-0.063,0.113-0.099
		c-0.035,0.143-0.07,0.286-0.096,0.431c-0.077,0.58-0.21,1.115-0.388,1.64c0.005-0.002,0.01-0.002,0.014,0
		c-0.045,0.126-0.094,0.25-0.144,0.376c-0.056,0.121-0.04,0.238-0.098,0.359c-0.392,0.812-0.828,1.552-1.391,2.206
		c-0.018,0.072-0.046,0.143-0.085,0.211c0.039-0.035,0.085-0.068,0.13-0.104c-0.068,0.284-0.298,0.585-0.588,0.83
		c-0.067,0.063-0.149,0.127-0.228,0.189c-0.079,0.062-0.156,0.124-0.23,0.183c-0.147,0.121-0.282,0.235-0.387,0.342
		c-0.481,0.479-1.124,0.898-1.83,1.282c-0.307,0.241-0.636,0.477-0.984,0.703c0.303-0.226,0.62-0.447,0.961-0.69
		c-0.375,0.204-0.771,0.396-1.169,0.583c-0.417,0.252-0.853,0.443-1.298,0.67c-0.097,0.062-0.205,0.107-0.256,0.169
		c-0.024,0.062-0.049,0.125-0.069,0.185c0.141-0.064,0.278-0.142,0.391-0.214c-0.013,0.013-0.002,0.025,0.004,0.034
		c0.195-0.087,0.315-0.177,0.516-0.267c-0.227,0.212-0.579,0.366-0.932,0.519c-0.006,0.027-0.011,0.053-0.013,0.078
		c0.765-0.274,1.476-0.653,2.119-1.071c0.112-0.082,0.225-0.165,0.339-0.249c-0.067,0.028-0.134,0.056-0.204,0.082l0.206-0.106
		c0.033-0.017,0.066-0.033,0.099-0.05c0.193-0.138,0.391-0.281,0.601-0.432c-0.162,0.127-0.327,0.258-0.501,0.383
		c0.394-0.192,0.815-0.385,1.144-0.645c0.161-0.154,0.405-0.321,0.597-0.495c0-0.008,0-0.017-0.001-0.025
		c0.019-0.009,0.036-0.018,0.054-0.027c0.02-0.027,0.039-0.06,0.051-0.08c0.206-0.175,0.41-0.352,0.634-0.525
		c0.017-0.017,0.035-0.034,0.052-0.052c0.051-0.055,0.16-0.1,0.224-0.14c-0.098,0.062-0.189,0.126-0.276,0.192
		c-0.221,0.229-0.367,0.435-0.685,0.606c-0.014,0.019-0.028,0.035-0.041,0.042l-0.012,0.01c-0.006,0.133-0.222,0.258-0.409,0.366
		c0.058,0.011-0.054,0.053-0.029,0.083c-0.151,0.173-0.304,0.345-0.436,0.485c-0.225,0.207-0.52,0.325-0.692,0.54
		c-0.046,0.066-0.196,0.123-0.289,0.191c-0.033,0.037-0.072,0.073-0.111,0.11c0.056-0.02,0.112-0.04,0.169-0.06
		c0.024,0-0.181,0.134-0.382,0.275c-0.202,0.14-0.403,0.283-0.363,0.306c0.003,0.004,0.05-0.021,0.127-0.064
		c0.077-0.044,0.186-0.105,0.308-0.178c0.247-0.144,0.556-0.328,0.822-0.469c0.14-0.008,0.085,0.272,0.025,0.324
		c-0.005,0.008-0.011,0.017-0.016,0.025c0.083-0.038,0.166-0.076,0.248-0.114c0.114-0.082,0.229-0.163,0.343-0.246
		c0.187-0.13,0.37-0.266,0.557-0.399c-0.044,0.043-0.087,0.087-0.13,0.131c-0.019,0.023-0.04,0.045-0.061,0.067
		c-0.173,0.177-0.434,0.312-0.709,0.446c-0.131,0.092-0.26,0.184-0.387,0.277c-0.003,0.003-0.006,0.006-0.008,0.009
		c0.181-0.093,0.376-0.176,0.559-0.265c0.296-0.213,0.598-0.429,0.901-0.647c-0.044,0.043-0.087,0.087-0.13,0.132
		c-0.086,0.104-0.2,0.196-0.332,0.281c-0.133,0.083-0.283,0.16-0.439,0.235c-0.283,0.203-0.561,0.406-0.83,0.608
		c0.209-0.102,0.444-0.223,0.635-0.342c0.755-0.5,1.413-0.991,2.06-1.5c0.056-0.087,0.118-0.167,0.196-0.229
		c0.173-0.15,0.401-0.295,0.584-0.432c-0.059-0.009,0.039-0.07,0.026-0.085c0.018-0.023,0.037-0.044,0.058-0.066
		c0.022-0.023,0.045-0.046,0.069-0.068c0.048-0.044,0.101-0.087,0.157-0.128c0.114-0.08,0.224-0.168,0.337-0.255
		c0.032-0.025,0.046-0.012,0.092-0.026c0.155-0.371,0.523-0.695,0.831-1.057c-0.079,0.111-0.163,0.218-0.237,0.33
		c-0.076,0.112-0.159,0.219-0.237,0.331c0.428-0.513,0.769-1.023,1.093-1.562c0.303-0.519,0.477-1.053,0.617-1.589
		c0.06-0.218,0.144-0.424,0.234-0.629c0.005,0.022,0.011,0.044,0.019,0.066c0.109-0.256,0.192-0.511,0.249-0.791l0.015-0.076
		c0.092-0.486,0.172-0.913,0.261-1.385c0.093,0.118,0.188,0.234,0.283,0.351c0.317,0.334,0.625,0.671,0.963,0.996
		c0.037,0.037,0.073,0.075,0.107,0.113c-0.398-0.615-0.794-1.227-1.308-1.694c0.002-0.012,0.005-0.024,0.007-0.037
		c0.004-0.023,0.007-0.047,0.011-0.071c0.375,0.307,0.688,0.692,0.979,1.105c0.205,0.185,0.408,0.38,0.603,0.584
		c-0.2-0.176-0.391-0.364-0.594-0.57c0.159,0.227,0.312,0.463,0.465,0.699c0.22,0.244,0.382,0.498,0.593,0.752
		c0.059,0.054,0.101,0.116,0.163,0.142c0.063,0.01,0.126,0.02,0.188,0.027c-0.061-0.079-0.136-0.154-0.204-0.217
		c0.013,0.007,0.026-0.001,0.036-0.005c-0.08-0.11-0.164-0.177-0.243-0.293c0.202,0.125,0.339,0.325,0.486,0.521
		c0.027,0.001,0.054,0.002,0.08,0.001c-0.258-0.427-0.589-0.833-0.948-1.21c-0.073-0.065-0.145-0.131-0.217-0.199
		C42.101,54.125,42.122,54.165,42.141,54.207z M36.671,53.586c0.006,0.002,0.012,0.004,0.018,0.005
		c-0.016,0.02-0.032,0.039-0.049,0.056C36.642,53.622,36.651,53.597,36.671,53.586z M36.659,53.722
		c-0.003-0.004-0.005-0.008-0.007-0.013c0.164-0.119,0.325-0.253,0.489-0.301C36.981,53.52,36.822,53.656,36.659,53.722z
		 M37.958,53.43l-0.006-0.007l0.007,0.003L37.958,53.43z M36.228,60.07c-0.145,0.159-0.32,0.308-0.507,0.452
		c-0.188,0.142-0.391,0.276-0.589,0.411c-0.031,0.028-0.062,0.056-0.093,0.083c-0.07,0.056-0.141,0.092-0.214,0.122l-0.028,0.019
		l0.014-0.014c-0.11,0.043-0.225,0.072-0.352,0.129l-0.022,0.034l-0.036-0.046c0.22-0.274,0.654-0.404,0.949-0.644
		c0.383-0.31,0.829-0.604,1.156-0.971c0.052-0.055,0.162-0.101,0.226-0.142C36.545,59.688,36.416,59.883,36.228,60.07z
		 M37.676,58.157c-0.009-0.05,0.038-0.103,0.045-0.141c0.026-0.236,0.275-0.526,0.381-0.824c0.039-0.097,0.06-0.203,0.098-0.298
		c0.182-0.445,0.329-0.903,0.494-1.387c0.03-0.098,0.059-0.206,0.084-0.315c0.023-0.11,0.044-0.221,0.061-0.323
		c0.01-0.07,0.031-0.135,0.054-0.198c0.006-0.001,0.012-0.003,0.019-0.004l-0.066,0.242c-0.005,0.071,0.027,0.157,0.015,0.189
		c-0.009,0.144-0.078,0.3-0.125,0.466c-0.021,0.14-0.124,0.282-0.184,0.441c-0.015,0.03,0.007,0.078,0.025,0.087
		c-0.071,0.099-0.096,0.191-0.121,0.283c-0.025,0.092-0.044,0.189-0.117,0.286l0.089-0.07c-0.053,0.127-0.067,0.236-0.141,0.393
		c-0.076,0.115-0.061,0.243-0.12,0.33C38.003,57.618,37.787,57.89,37.676,58.157z M39.103,57.393
		c-0.037,0.112-0.088,0.232-0.141,0.341c-0.057,0.106-0.116,0.2-0.16,0.261c-0.24,0.291-0.487,0.654-0.721,0.993
		c-0.277-0.053,0.067-0.379,0.4-0.803c0.339-0.421,0.657-0.947,0.548-1.205C39.175,56.973,39.169,57.165,39.103,57.393z
		 M39.069,54.189l0.009,0.003l-0.008,0.003L39.069,54.189z M39.252,52.497c-0.03,0.059-0.103,0.045-0.127,0.128
		c-0.124,0.101-0.252,0.199-0.392,0.292c-0.113,0.081-0.236,0.188-0.337,0.284c-0.034,0.032-0.075,0.056-0.117,0.077l-0.016-0.009
		c0.048-0.031,0.096-0.061,0.142-0.094c0.03-0.037,0.036-0.105,0.057-0.116c0.06-0.074,0.164-0.129,0.257-0.199
		c0.06-0.074,0.188-0.098,0.28-0.168c0.021-0.011,0.018-0.052,0.006-0.068c0.156-0.042,0.18-0.159,0.306-0.225
		C39.292,52.431,39.273,52.463,39.252,52.497z M39.321,52.383l-0.062,0.002c0.036-0.029,0.063-0.06,0.094-0.092
		c0.013-0.023,0.028-0.047,0.054-0.071c0.004-0.002,0.007-0.005,0.011-0.008C39.387,52.27,39.355,52.326,39.321,52.383z
		 M39.725,53.403c0.042-0.294,0.056-0.617,0.12-0.866c0.005,0.001,0.01,0.004,0.015,0.007
		C39.836,52.853,39.816,53.178,39.725,53.403z M39.828,51.829c-0.005,0.01-0.01,0.017-0.014,0.026
		c-0.004-0.006-0.007-0.013-0.011-0.02c0.03-0.031,0.061-0.065,0.092-0.106C39.874,51.783,39.844,51.799,39.828,51.829z
		 M39.921,52.718c-0.003-0.039-0.006-0.079-0.008-0.116c0.019,0.032,0.032,0.07,0.025,0.103
		C39.932,52.709,39.927,52.714,39.921,52.718z M40.209,50.831c-0.168,0.161-0.475,0.304-0.778,0.473
		c-0.298,0.167-0.586,0.357-0.547,0.523c-0.057-0.035-0.073-0.083-0.064-0.136c0.004-0.051,0.054-0.117,0.122-0.185
		c0.135-0.135,0.347-0.278,0.46-0.337c0.259-0.119,0.543-0.301,0.851-0.538c0.02,0.019,0.04,0.037,0.06,0.054
		C40.313,50.835,40.271,50.865,40.209,50.831z M40.576,52.459c-0.006-0.007-0.013-0.013-0.019-0.02l-0.034-0.023
		c-0.036-0.021-0.051-0.075-0.072-0.106c0.032,0.046,0.067,0.088,0.106,0.129c0.006,0.004,0.013,0.008,0.02,0.012
		C40.577,52.455,40.576,52.457,40.576,52.459z M41.077,53.457c-0.141-0.148-0.284-0.295-0.432-0.44
		c0.005-0.027,0.01-0.054,0.015-0.081C40.797,53.112,40.937,53.285,41.077,53.457z M40.692,51.958
		c0.073,0.058,0.152,0.111,0.236,0.169c0.083,0.057,0.178,0.131,0.247,0.186c0.265,0.186,0.471,0.438,0.676,0.681
		c0.023,0.019,0.046,0.038,0.069,0.057c0.046,0.042,0.072,0.085,0.091,0.129l0.015,0.017l-0.012-0.009
		c0.027,0.066,0.04,0.136,0.079,0.213l0.031,0.013l-0.051,0.022c-0.244-0.133-0.314-0.395-0.504-0.578
		c-0.125-0.118-0.24-0.247-0.362-0.374c-0.061-0.063-0.123-0.126-0.19-0.186c-0.071-0.067-0.146-0.134-0.221-0.187
		C40.753,52.079,40.722,52.003,40.692,51.958z"/>
	<path class="st2" d="M43.336,55.484c0.057-0.011,0.108-0.032,0.152-0.068c-0.207-0.408-0.56-0.752-0.793-1.148l-0.012-0.007
		c-0.213-0.12-0.362-0.401-0.586-0.569c-0.241-0.161-0.415-0.351-0.639-0.518c0.202,0.296,0.431,0.562,0.6,0.867
		c0.081,0.079,0.162,0.16,0.24,0.242c0.068,0.06,0.138,0.119,0.209,0.178C42.821,54.751,43.054,55.149,43.336,55.484z"/>
	<path class="st2" d="M42.017,54.025c0.021,0.02,0.043,0.04,0.064,0.06l-0.024-0.043l-0.079-0.077
		C41.992,53.985,42.004,54.005,42.017,54.025z"/>
	<path class="st2" d="M42.015,53.189l-0.004-0.008c-0.054-0.061-0.107-0.123-0.16-0.186c-0.093-0.078-0.185-0.163-0.271-0.252
		C41.721,52.911,41.86,53.078,42.015,53.189z"/>
	<path class="st2" d="M42.031,52.443c-0.014-0.021-0.042-0.061-0.056-0.082l-0.056-0.024l0.036,0.059L42.031,52.443z"/>
	<path class="st2" d="M40.655,50.947c0.221,0.258,0.436,0.509,0.647,0.755c0.056,0.066,0.113,0.132,0.169,0.198
		c0.054,0.064,0.123,0.147,0.152,0.173c0.075,0.077,0.15,0.154,0.225,0.231c0.024,0.011,0.048,0.021,0.072,0.032
		c-0.072-0.115-0.152-0.227-0.243-0.331l-0.108-0.131c-0.038-0.045-0.076-0.088-0.115-0.13c-0.077-0.084-0.155-0.163-0.233-0.232
		c-0.061-0.057-0.167-0.117-0.212-0.182c-0.226-0.3-0.456-0.535-0.661-0.743c0.098,0.115,0.198,0.231,0.299,0.349L40.655,50.947z"/>
	<path class="st2" d="M30.802,62.199c-0.005-0.009-0.016-0.022-0.004-0.034c-0.112,0.07-0.248,0.145-0.387,0.205
		c-0.008,0.024-0.015,0.048-0.021,0.072c0.348-0.143,0.699-0.292,0.925-0.5C31.115,62.028,30.995,62.115,30.802,62.199z"/>
	<path class="st2" d="M36.025,59.096c-0.157,0.125-0.301,0.247-0.416,0.36c0.157-0.102,0.313-0.205,0.474-0.305
		c0.088-0.066,0.173-0.14,0.23-0.214c0.06-0.074,0.112-0.15,0.163-0.225c-0.071,0.064-0.143,0.129-0.214,0.192
		C36.19,58.969,36.102,59.033,36.025,59.096z"/>
	<path class="st2" d="M36.739,58.231c0.067-0.071,0.134-0.14,0.195-0.216c0.005-0.019,0.011-0.039,0.015-0.058
		c-0.051,0.037-0.094,0.077-0.134,0.117c-0.042,0.038-0.078,0.077-0.111,0.117s-0.062,0.082-0.089,0.124
		c-0.028,0.042-0.056,0.081-0.081,0.123c0.035-0.034,0.072-0.066,0.106-0.101L36.739,58.231z"/>
	<path class="st2" d="M36.688,58.476c0.065-0.079,0.116-0.167,0.162-0.249c-0.167,0.154-0.269,0.317-0.373,0.486
		C36.552,58.635,36.622,58.554,36.688,58.476z"/>
	<path class="st2" d="M33.68,62.218c-0.126,0.124-0.209,0.192-0.26,0.224c-0.008,0.034-0.021,0.076-0.04,0.131
		c0.009-0.005,0.019-0.01,0.029-0.014c0.144-0.111,0.295-0.217,0.444-0.327c0.054-0.055,0.103-0.109,0.138-0.163
		C33.886,62.118,33.782,62.167,33.68,62.218z"/>
	<path class="st2" d="M33.42,62.442C33.491,62.154,33.22,62.569,33.42,62.442L33.42,62.442z"/>
	<path class="st2" d="M33.776,60.901c-0.028,0.02-0.055,0.039-0.083,0.059l0.023-0.013C33.736,60.932,33.756,60.916,33.776,60.901z"
		/>
	<path class="st2" d="M35.905,60.332c-0.126,0.084-0.245,0.175-0.364,0.263c0.254-0.172,0.505-0.35,0.687-0.526
		c-0.033,0.02-0.079,0.025-0.112,0.045C36.077,60.184,36.004,60.273,35.905,60.332z"/>
	<path class="st2" d="M32.985,61.646c-0.103,0.079-0.205,0.157-0.307,0.236c-0.504,0.356-1.193,0.632-1.809,0.923
		c0.011,0.055,0.039,0.104,0.094,0.145c0.736-0.227,1.35-0.617,2.028-0.913l0.012-0.013c0.213-0.231,0.689-0.429,0.971-0.688
		c0.271-0.272,0.583-0.49,0.856-0.753c-0.483,0.271-0.92,0.559-1.432,0.782C33.263,61.461,33.127,61.555,32.985,61.646z"/>
	<path class="st2" d="M36.354,58.722c0.07-0.088,0.12-0.189,0.18-0.283c-0.047,0.044-0.093,0.089-0.14,0.133
		c-0.048,0.043-0.099,0.083-0.149,0.126c-0.125,0.119-0.288,0.246-0.426,0.368c-0.14,0.125-0.277,0.246-0.416,0.37
		c0.232-0.149,0.459-0.305,0.697-0.452C36.217,58.901,36.285,58.813,36.354,58.722z"/>
	<path class="st2" d="M34.776,59.96c0.137-0.105,0.272-0.211,0.403-0.322c0.076-0.069,0.15-0.136,0.223-0.203
		c-0.34,0.225-0.678,0.448-1.015,0.671c-0.535,0.391-1.088,0.764-1.636,1.149c-0.063,0.043-0.127,0.084-0.191,0.123
		c1.153-0.54,2.264-1.145,3.006-1.881c0.014-0.013,0.029-0.028,0.043-0.043c-0.419,0.274-0.834,0.545-1.248,0.815
		C34.503,60.171,34.638,60.065,34.776,59.96z"/>
	<path class="st2" d="M33.527,61.273c-0.034,0.017-0.067,0.033-0.1,0.049c-0.034,0.025-0.068,0.05-0.102,0.074
		c0.024-0.01,0.048-0.021,0.072-0.031C33.44,61.334,33.484,61.304,33.527,61.273z"/>
	<path class="st2" d="M34.811,61.143l0.014-0.005c0.101-0.067,0.204-0.136,0.307-0.205c0.127-0.114,0.264-0.227,0.409-0.337
		C35.266,60.78,34.995,60.963,34.811,61.143z"/>
	<path class="st2" d="M36.046,60.967c0.033-0.02,0.1-0.06,0.134-0.08l0.038-0.063c-0.032,0.018-0.064,0.036-0.097,0.054
		L36.046,60.967z"/>
	<path class="st2" d="M37.788,59.452c-0.129,0.124-0.248,0.253-0.386,0.366c-0.067,0.058-0.134,0.116-0.201,0.173
		c-0.063,0.051-0.126,0.102-0.189,0.153c-0.249,0.203-0.494,0.403-0.743,0.597c-0.017,0.027-0.034,0.054-0.051,0.082
		c0.378-0.21,0.723-0.457,0.982-0.746c0.052-0.054,0.119-0.175,0.187-0.22c0.161-0.116,0.29-0.252,0.418-0.384
		c0.064-0.066,0.118-0.138,0.176-0.207c0.055-0.071,0.115-0.137,0.164-0.211c-0.108,0.129-0.226,0.255-0.346,0.386L37.788,59.452z"
		/>
</g>
</svg>
