<?xml version="1.0" encoding="utf-8"?>
<!-- Generator: Adobe Illustrator 21.1.0, SVG Export Plug-In . SVG Version: 6.00 Build 0)  -->
<svg version="1.1" id="Layer_1" xmlns="http://www.w3.org/2000/svg" xmlns:xlink="http://www.w3.org/1999/xlink" x="0px" y="0px"
	 viewBox="0 0 30 16.5" style="enable-background:new 0 0 30 16.5;" xml:space="preserve">
<style type="text/css">
	.st0{opacity:0.73;fill:#00B4E3;enable-background:new    ;}
</style>
<path class="st0" d="M21.51,4.361c-0.024-0.182-0.061-0.363-0.092-0.545c-0.068-0.191-0.137-0.383-0.205-0.575
	c-0.105-0.188-0.203-0.38-0.317-0.563c-0.793-1.266-2.363-1.924-3.819-1.595c-1.357,0.306-2.301,1.118-2.868,2.38
	c-0.016,0.036-0.024,0.074-0.035,0.109c-0.112-0.048-0.205-0.086-0.296-0.129c-0.782-0.369-1.605-0.489-2.451-0.332
	C9.373,3.493,8.089,5.296,8.372,7.296C8.388,7.408,8.407,7.52,8.424,7.632C8.51,7.873,8.596,8.115,8.682,8.356
	C8.794,8.55,8.897,8.75,9.019,8.937c0.491,0.754,1.166,1.316,1.911,1.799c1.087,0.705,2.267,1.225,3.452,1.737
	c1.135,0.49,2.303,0.901,3.409,1.46c0.019,0.009,0.04,0.015,0.066,0.025c0.015-0.027,0.029-0.048,0.04-0.071
	c0.524-1.176,1.186-2.28,1.777-3.42c0.581-1.122,1.149-2.251,1.528-3.462C21.471,6.144,21.63,5.268,21.51,4.361z"/>
</svg>
