<?xml version="1.0" encoding="utf-8"?>
<!-- Generator: Adobe Illustrator 21.0.2, SVG Export Plug-In . SVG Version: 6.00 Build 0)  -->
<svg version="1.1" id="Layer_1" xmlns="http://www.w3.org/2000/svg" xmlns:xlink="http://www.w3.org/1999/xlink" x="0px" y="0px"
	 viewBox="0 0 16.661 15.503" style="enable-background:new 0 0 16.661 15.503;" xml:space="preserve">
<style type="text/css">
	.st0{fill:#00B3E3;}
	.st1{fill:#2374BB;}
	.st2{fill:#FFFFFF;}
</style>
<g>
	<rect x="0.2" y="0.239" class="st0" width="13.671" height="10.768"/>
	<polygon class="st1" points="13.871,0.239 13.871,11.007 0.2,11.007 2.728,12.693 16.4,12.693 16.4,2.767 	"/>
	<polygon class="st2" points="2.541,8.667 2.634,2.393 1.417,2.486 1.23,1.737 5.07,1.924 4.976,2.299 3.664,2.299 3.009,8.76 	"/>
	<g>
		<path class="st2" d="M8.16,7.917C7.973,8.104,7.504,8.198,7.13,8.198C5.35,8.479,4.694,7.261,4.507,6.044
			C4.227,4.64,4.694,3.328,5.818,3.235c0,0,0.094,0,0.187,0c1.217-0.094,1.686,0.843,1.873,1.873c0,0.187,0.094,0.374,0.094,0.656
			L5.163,5.951C5.35,7.543,6.193,7.73,6.943,7.637c0.094,0,0.094,0,0.187,0c0.187-0.094,0.468-0.282,0.655-0.375L8.16,7.917z
			 M7.036,5.108C6.848,4.171,6.474,3.703,5.913,3.703C5.163,3.797,5.07,4.546,5.163,5.295L7.036,5.108z"/>
		<path class="st2" d="M11.156,10.352l0.281-2.528l0,0c-0.187,0.374-0.749,0.656-1.311,0.562C8.722,8.199,8.534,6.606,8.722,5.389
			c0.281-1.592,1.311-2.247,2.154-2.154c0.374,0.094,0.843,0.281,1.03,0.843l0,0V3.141l0.936,0.468l-0.281,1.498l-0.936,5.15
			L11.156,10.352z M11.718,5.389c0.094-0.749-0.187-1.404-0.843-1.498c-0.749-0.094-1.217,0.562-1.311,1.498
			c-0.187,0.843-0.094,2.154,0.936,2.247c0.374,0.094,1.03-0.187,1.124-1.124L11.718,5.389z"/>
	</g>
</g>
</svg>
