<?xml version="1.0" encoding="utf-8"?>
<!-- Generator: Adobe Illustrator 22.1.0, SVG Export Plug-In . SVG Version: 6.00 Build 0)  -->
<svg version="1.1" id="Layer_1" xmlns="http://www.w3.org/2000/svg" xmlns:xlink="http://www.w3.org/1999/xlink" x="0px" y="0px"
	 viewBox="0 0 130 30" style="enable-background:new 0 0 130 30;" xml:space="preserve">
<style type="text/css">
	.st0{fill:#7DB44C;}
	.st1{fill:#649BCD;}
	.st2{fill:#F58F22;}
	.st3{fill:#FFFFFF;}
</style>
<g>
	<g>
		<polygon class="st0" points="6.917,21.467 1.846,21.467 0.559,20.179 0.559,2.072 1.807,0.823 6.837,0.823 13.237,7.221 
			13.237,2.083 14.671,0.823 19.792,0.823 20.95,1.98 20.95,20.247 19.73,21.467 14.591,21.467 8.228,15.104 8.228,20.104 		"/>
	</g>
	<g>
		<polygon class="st1" points="54.556,13.707 49.268,13.707 49.268,8.419 54.556,8.419 54.556,9.733 61.02,9.733 62.178,8.576 
			62.178,4.583 58.215,0.823 45.61,0.823 41.564,4.845 41.564,17.444 45.61,21.467 58.215,21.467 62.178,17.705 62.178,13.601 
			61.02,12.444 54.556,12.444 		"/>
	</g>
	<polygon class="st2" points="28.705,4.658 28.705,2.076 27.451,0.823 22.199,0.823 20.95,2.072 20.95,9.807 27.516,16.373 
		27.516,20.011 28.803,21.298 33.71,21.298 34.996,20.011 34.996,16.373 41.564,9.807 41.564,2.072 40.315,0.823 35.061,0.823 
		33.807,2.076 33.807,4.658 31.3,7.164 	"/>
	<g>
		<path class="st1" d="M60.627,1.412c0-0.107,0.025-0.207,0.074-0.298c0.05-0.092,0.118-0.164,0.206-0.216
			c0.088-0.052,0.182-0.08,0.284-0.08c0.101,0,0.197,0.026,0.284,0.08c0.088,0.053,0.157,0.125,0.206,0.216
			c0.05,0.092,0.074,0.191,0.074,0.298c0,0.106-0.024,0.204-0.073,0.295c-0.048,0.091-0.116,0.164-0.204,0.22
			c-0.088,0.055-0.184,0.082-0.288,0.082c-0.105,0-0.2-0.027-0.289-0.082c-0.088-0.055-0.156-0.127-0.204-0.22
			C60.652,1.616,60.627,1.518,60.627,1.412z M60.696,1.412c0,0.094,0.022,0.183,0.066,0.265c0.044,0.082,0.105,0.146,0.182,0.193
			c0.077,0.047,0.16,0.071,0.249,0.071c0.089,0,0.172-0.024,0.249-0.071c0.077-0.047,0.138-0.111,0.182-0.193
			c0.044-0.082,0.066-0.171,0.066-0.265c0-0.093-0.022-0.181-0.065-0.262c-0.043-0.081-0.102-0.144-0.18-0.192
			c-0.077-0.048-0.162-0.072-0.251-0.072c-0.089,0-0.172,0.024-0.249,0.071c-0.077,0.047-0.138,0.111-0.182,0.192
			C60.717,1.23,60.696,1.318,60.696,1.412z M61.064,1.462v0.275h-0.078V1.07h0.205c0.078,0,0.138,0.016,0.18,0.049
			c0.042,0.033,0.063,0.082,0.063,0.148c0,0.071-0.038,0.123-0.113,0.157c0.039,0.014,0.065,0.035,0.08,0.064
			c0.015,0.028,0.023,0.064,0.023,0.104c0,0.04,0.001,0.069,0.003,0.088c0.002,0.018,0.006,0.033,0.01,0.045v0.013h-0.081
			c-0.007-0.019-0.011-0.067-0.011-0.146c0-0.048-0.01-0.081-0.03-0.1c-0.019-0.019-0.053-0.03-0.101-0.03h-0.149V1.462z
			 M61.064,1.391h0.143c0.043,0,0.078-0.011,0.106-0.033c0.028-0.023,0.042-0.051,0.042-0.089c0-0.045-0.011-0.077-0.034-0.097
			c-0.023-0.019-0.063-0.03-0.119-0.031h-0.139v0.249H61.064z"/>
	</g>
</g>
<g>
	<path class="st3" d="M67.604,8.534V1.797h2.073c0.592,0,1.122,0.133,1.589,0.4s0.832,0.646,1.094,1.138
		c0.262,0.492,0.393,1.051,0.393,1.677v0.31c0,0.626-0.129,1.183-0.386,1.67c-0.258,0.487-0.621,0.865-1.09,1.134
		c-0.469,0.268-0.998,0.404-1.587,0.407H67.604z M68.992,2.922v4.497h0.671c0.543,0,0.958-0.177,1.245-0.532s0.433-0.862,0.44-1.522
		V5.008c0-0.685-0.142-1.204-0.426-1.557c-0.284-0.353-0.699-0.53-1.245-0.53H68.992z"/>
	<path class="st3" d="M75.979,8.627c-0.734,0-1.332-0.225-1.793-0.676c-0.461-0.45-0.692-1.05-0.692-1.8v-0.13
		c0-0.503,0.097-0.952,0.291-1.349c0.194-0.396,0.47-0.702,0.826-0.916c0.356-0.214,0.763-0.322,1.219-0.322
		c0.685,0,1.224,0.216,1.617,0.648c0.393,0.432,0.59,1.044,0.59,1.837v0.546H74.85c0.043,0.327,0.174,0.589,0.391,0.787
		c0.217,0.197,0.493,0.296,0.826,0.296c0.515,0,0.918-0.187,1.208-0.56l0.657,0.736c-0.2,0.284-0.472,0.505-0.814,0.664
		S76.395,8.627,75.979,8.627z M75.826,4.513c-0.265,0-0.48,0.09-0.645,0.27c-0.165,0.18-0.271,0.437-0.317,0.772h1.86V5.448
		c-0.006-0.298-0.086-0.527-0.241-0.69S76.11,4.513,75.826,4.513z"/>
	<path class="st3" d="M83.303,6.077c0,0.771-0.175,1.389-0.525,1.853c-0.35,0.464-0.823,0.696-1.418,0.696
		c-0.506,0-0.915-0.176-1.226-0.527v2.36h-1.337V3.528h1.24l0.046,0.49c0.324-0.389,0.746-0.583,1.268-0.583
		c0.617,0,1.097,0.228,1.439,0.685c0.342,0.457,0.514,1.086,0.514,1.888V6.077z M81.966,5.975c0-0.467-0.083-0.828-0.248-1.082
		c-0.165-0.254-0.405-0.381-0.719-0.381c-0.419,0-0.708,0.161-0.865,0.483v2.056c0.163,0.331,0.455,0.497,0.874,0.497
		C81.646,7.548,81.966,7.024,81.966,5.975z"/>
	<path class="st3" d="M87.032,8.534c-0.062-0.12-0.106-0.27-0.134-0.449c-0.324,0.361-0.745,0.541-1.263,0.541
		c-0.49,0-0.897-0.142-1.219-0.426c-0.322-0.284-0.483-0.642-0.483-1.073c0-0.531,0.197-0.938,0.59-1.221s0.962-0.427,1.705-0.43
		h0.615V5.189c0-0.231-0.059-0.416-0.178-0.555c-0.119-0.139-0.306-0.208-0.562-0.208c-0.225,0-0.402,0.054-0.53,0.162
		c-0.128,0.108-0.192,0.256-0.192,0.444h-1.337c0-0.29,0.089-0.558,0.268-0.805c0.179-0.247,0.432-0.44,0.759-0.581
		c0.327-0.14,0.694-0.211,1.101-0.211c0.617,0,1.107,0.155,1.469,0.465s0.544,0.746,0.544,1.307v2.17
		c0.003,0.475,0.069,0.834,0.199,1.078v0.079H87.032z M85.926,7.604c0.197,0,0.379-0.044,0.546-0.132
		c0.167-0.088,0.29-0.206,0.37-0.354V6.258h-0.5c-0.669,0-1.026,0.231-1.069,0.694L85.269,7.03c0,0.167,0.059,0.304,0.176,0.412
		C85.562,7.55,85.723,7.604,85.926,7.604z"/>
	<path class="st3" d="M92.024,4.782c-0.182-0.025-0.342-0.037-0.481-0.037c-0.506,0-0.837,0.171-0.995,0.514v3.276h-1.337V3.528
		h1.263l0.037,0.597c0.268-0.46,0.64-0.689,1.115-0.689c0.148,0,0.287,0.02,0.416,0.06L92.024,4.782z"/>
	<path class="st3" d="M94.5,2.297v1.231h0.856v0.981H94.5v2.498c0,0.185,0.035,0.318,0.106,0.398s0.207,0.12,0.407,0.12
		c0.148,0,0.279-0.011,0.393-0.032v1.013c-0.262,0.08-0.532,0.12-0.81,0.12c-0.938,0-1.417-0.473-1.435-1.42V4.509h-0.731V3.528
		h0.731V2.297H94.5z"/>
	<path class="st3" d="M97.355,3.528l0.042,0.56c0.355-0.435,0.834-0.652,1.439-0.652c0.645,0,1.087,0.254,1.328,0.763
		c0.352-0.509,0.853-0.763,1.504-0.763c0.543,0,0.947,0.158,1.212,0.474s0.398,0.792,0.398,1.427v3.197h-1.342v-3.2
		c0-0.285-0.056-0.492-0.167-0.624c-0.111-0.131-0.307-0.197-0.588-0.197c-0.401,0-0.679,0.192-0.833,0.575l0.005,3.446h-1.337
		V5.339c0-0.291-0.057-0.501-0.171-0.631c-0.114-0.13-0.308-0.195-0.583-0.195c-0.379,0-0.654,0.158-0.824,0.473v3.548h-1.337V3.528
		H97.355z"/>
	<path class="st3" d="M106.608,8.627c-0.734,0-1.332-0.225-1.793-0.676c-0.461-0.45-0.692-1.05-0.692-1.8v-0.13
		c0-0.503,0.097-0.952,0.291-1.349c0.194-0.396,0.47-0.702,0.826-0.916c0.356-0.214,0.763-0.322,1.219-0.322
		c0.685,0,1.224,0.216,1.617,0.648c0.393,0.432,0.59,1.044,0.59,1.837v0.546h-3.188c0.043,0.327,0.174,0.589,0.391,0.787
		c0.217,0.197,0.493,0.296,0.826,0.296c0.515,0,0.918-0.187,1.208-0.56l0.657,0.736c-0.2,0.284-0.472,0.505-0.814,0.664
		S107.025,8.627,106.608,8.627z M106.456,4.513c-0.265,0-0.48,0.09-0.645,0.27c-0.165,0.18-0.271,0.437-0.317,0.772h1.86V5.448
		c-0.006-0.298-0.086-0.527-0.241-0.69C106.959,4.595,106.74,4.513,106.456,4.513z"/>
	<path class="st3" d="M110.657,3.528l0.042,0.578c0.358-0.447,0.837-0.671,1.439-0.671c0.531,0,0.925,0.156,1.184,0.467
		c0.259,0.312,0.392,0.777,0.398,1.397v3.234h-1.337V5.325c0-0.285-0.062-0.491-0.185-0.619c-0.123-0.128-0.329-0.192-0.615-0.192
		c-0.376,0-0.659,0.161-0.847,0.482v3.538h-1.337V3.528H110.657z"/>
	<path class="st3" d="M116.334,2.297v1.231h0.856v0.981h-0.856v2.498c0,0.185,0.035,0.318,0.106,0.398
		c0.071,0.08,0.207,0.12,0.407,0.12c0.148,0,0.279-0.011,0.393-0.032v1.013c-0.262,0.08-0.532,0.12-0.81,0.12
		c-0.938,0-1.416-0.473-1.434-1.42V4.509h-0.731V3.528h0.731V2.297H116.334z"/>
	<path class="st3" d="M120.086,5.985c0-0.497,0.096-0.939,0.287-1.328c0.191-0.389,0.467-0.689,0.826-0.902
		c0.359-0.213,0.777-0.319,1.252-0.319c0.676,0,1.227,0.207,1.654,0.62c0.427,0.413,0.665,0.975,0.715,1.684l0.009,0.342
		c0,0.768-0.214,1.384-0.643,1.848c-0.429,0.464-1.004,0.696-1.726,0.696s-1.298-0.231-1.728-0.694
		c-0.43-0.463-0.645-1.092-0.645-1.888V5.985z M121.423,6.079c0,0.476,0.089,0.84,0.268,1.091c0.179,0.252,0.435,0.378,0.768,0.378
		c0.324,0,0.577-0.124,0.759-0.373c0.182-0.248,0.273-0.646,0.273-1.193c0-0.467-0.091-0.828-0.273-1.084
		c-0.182-0.256-0.438-0.385-0.768-0.385c-0.327,0-0.58,0.128-0.759,0.382S121.423,5.545,121.423,6.079z"/>
	<path class="st3" d="M126.018,8.534V4.509h-0.745V3.528h0.745V3.102c0-0.561,0.161-0.997,0.483-1.307
		c0.322-0.31,0.773-0.465,1.353-0.465c0.185,0,0.412,0.03,0.68,0.092l-0.014,1.028c-0.111-0.028-0.247-0.042-0.407-0.042
		c-0.503,0-0.754,0.238-0.754,0.714v0.406h0.995v0.981h-0.995v4.025H126.018z"/>
	<path class="st3" d="M71.657,16.66h-2.665v1.814h3.128v1.115h-4.516v-6.737h4.506v1.124h-3.118v1.605h2.665V16.66z"/>
	<path class="st3" d="M72.55,17.049c0-0.78,0.175-1.402,0.525-1.865c0.35-0.463,0.829-0.694,1.437-0.694
		c0.487,0,0.89,0.182,1.208,0.546v-2.554h1.342v7.107h-1.208l-0.065-0.532c-0.333,0.416-0.762,0.625-1.286,0.625
		c-0.589,0-1.062-0.232-1.418-0.696C72.728,18.521,72.55,17.875,72.55,17.049z M73.887,17.144c0,0.47,0.082,0.831,0.245,1.083
		c0.163,0.251,0.401,0.376,0.713,0.376c0.413,0,0.705-0.175,0.874-0.525v-1.985c-0.167-0.35-0.455-0.525-0.865-0.525
		C74.21,15.568,73.887,16.093,73.887,17.144z"/>
	<path class="st3" d="M81.096,19.08c-0.33,0.401-0.787,0.601-1.37,0.601c-0.537,0-0.946-0.154-1.228-0.463
		c-0.282-0.308-0.426-0.76-0.433-1.356v-3.28h1.337v3.238c0,0.522,0.238,0.783,0.713,0.783c0.453,0,0.765-0.157,0.935-0.473v-3.548
		h1.342v5.006h-1.258L81.096,19.08z"/>
	<path class="st3" d="M85.482,18.603c0.247,0,0.447-0.068,0.601-0.204c0.154-0.136,0.234-0.316,0.241-0.541h1.254
		c-0.003,0.339-0.096,0.65-0.278,0.932s-0.431,0.501-0.747,0.657s-0.665,0.234-1.048,0.234c-0.716,0-1.28-0.227-1.693-0.682
		c-0.413-0.455-0.62-1.083-0.62-1.885v-0.088c0-0.771,0.205-1.386,0.615-1.846s0.973-0.689,1.689-0.689
		c0.626,0,1.128,0.178,1.506,0.534c0.378,0.356,0.57,0.831,0.576,1.423h-1.254c-0.006-0.26-0.086-0.472-0.241-0.635
		c-0.154-0.163-0.358-0.244-0.611-0.244c-0.312,0-0.547,0.114-0.706,0.341c-0.159,0.227-0.238,0.595-0.238,1.105v0.139
		c0,0.516,0.079,0.887,0.236,1.113C84.922,18.491,85.161,18.603,85.482,18.603z"/>
	<path class="st3" d="M91.242,19.589c-0.062-0.12-0.106-0.27-0.134-0.449c-0.324,0.361-0.745,0.541-1.263,0.541
		c-0.49,0-0.897-0.142-1.219-0.426c-0.322-0.284-0.483-0.642-0.483-1.073c0-0.531,0.197-0.938,0.59-1.221
		c0.393-0.284,0.962-0.427,1.705-0.43h0.615v-0.287c0-0.231-0.059-0.416-0.178-0.555c-0.119-0.139-0.306-0.208-0.562-0.208
		c-0.225,0-0.402,0.054-0.53,0.162c-0.128,0.108-0.192,0.256-0.192,0.444h-1.337c0-0.29,0.089-0.558,0.268-0.805
		c0.179-0.247,0.432-0.44,0.759-0.581s0.694-0.211,1.101-0.211c0.617,0,1.107,0.155,1.469,0.465c0.362,0.31,0.544,0.746,0.544,1.307
		v2.17c0.003,0.475,0.069,0.834,0.199,1.078v0.079H91.242z M90.136,18.659c0.197,0,0.379-0.044,0.546-0.132s0.29-0.206,0.37-0.354
		v-0.861h-0.5c-0.669,0-1.026,0.231-1.069,0.694l-0.005,0.079c0,0.167,0.059,0.304,0.176,0.412S89.933,18.659,90.136,18.659z"/>
	<path class="st3" d="M95.023,13.352v1.231h0.856v0.981h-0.856v2.498c0,0.185,0.035,0.318,0.106,0.398
		c0.071,0.08,0.207,0.12,0.407,0.12c0.148,0,0.279-0.011,0.393-0.032v1.013c-0.262,0.08-0.532,0.12-0.81,0.12
		c-0.938,0-1.417-0.473-1.435-1.42v-2.697h-0.731v-0.981h0.731v-1.231H95.023z"/>
	<path class="st3" d="M96.615,13.287c0-0.2,0.067-0.366,0.201-0.495c0.134-0.13,0.317-0.194,0.548-0.194
		c0.228,0,0.41,0.065,0.546,0.194s0.204,0.295,0.204,0.495c0,0.204-0.069,0.37-0.206,0.5s-0.318,0.194-0.544,0.194
		c-0.225,0-0.406-0.065-0.544-0.194S96.615,13.491,96.615,13.287z M98.035,19.589h-1.342v-5.006h1.342V19.589z"/>
	<path class="st3" d="M98.928,17.039c0-0.497,0.096-0.939,0.287-1.328c0.191-0.389,0.467-0.689,0.826-0.902s0.777-0.319,1.252-0.319
		c0.676,0,1.227,0.207,1.654,0.62c0.427,0.413,0.665,0.975,0.715,1.684l0.009,0.342c0,0.768-0.214,1.384-0.643,1.848
		c-0.429,0.464-1.004,0.696-1.726,0.696s-1.298-0.231-1.728-0.694s-0.645-1.092-0.645-1.888V17.039z M100.265,17.134
		c0,0.476,0.089,0.84,0.268,1.091c0.179,0.252,0.435,0.378,0.768,0.378c0.324,0,0.577-0.124,0.759-0.373
		c0.182-0.248,0.273-0.646,0.273-1.193c0-0.467-0.091-0.827-0.273-1.084c-0.182-0.256-0.438-0.385-0.768-0.385
		c-0.327,0-0.58,0.128-0.759,0.382C100.355,16.206,100.265,16.6,100.265,17.134z"/>
	<path class="st3" d="M105.725,14.583l0.042,0.578c0.358-0.447,0.837-0.671,1.439-0.671c0.531,0,0.925,0.156,1.184,0.467
		c0.259,0.312,0.392,0.777,0.398,1.397v3.234h-1.337V16.38c0-0.285-0.062-0.491-0.185-0.619c-0.123-0.129-0.328-0.193-0.615-0.193
		c-0.376,0-0.659,0.161-0.847,0.483v3.538h-1.337v-5.006H105.725z"/>
</g>
</svg>
