<?xml version="1.0" encoding="utf-8"?>
<!-- Generator: Adobe Illustrator 21.1.0, SVG Export Plug-In . SVG Version: 6.00 Build 0)  -->
<svg version="1.1" id="Layer_1" xmlns="http://www.w3.org/2000/svg" xmlns:xlink="http://www.w3.org/1999/xlink" x="0px" y="0px"
	 viewBox="0 0 21 21" style="enable-background:new 0 0 21 21;" xml:space="preserve">
<style type="text/css">
	.st0{fill:#98A4AE;}
</style>
<g>
	<path class="st0" d="M16.909,15.961l-2.291-2.319c-0.2-0.2-0.485-0.259-0.737-0.18l-0.42-0.42c0.855-0.968,1.375-2.24,1.375-3.634
		c0-3.034-2.459-5.494-5.494-5.494S3.849,6.374,3.849,9.408s2.459,5.494,5.494,5.494c1.397,0,2.672-0.522,3.641-1.382l0.42,0.42
		c-0.079,0.251-0.019,0.537,0.18,0.737l2.291,2.319c0.143,0.143,0.33,0.214,0.517,0.214s0.374-0.071,0.517-0.214
		C17.195,16.71,17.195,16.247,16.909,15.961z M9.343,13.878c-2.469,0-4.47-2.001-4.47-4.47s2.001-4.469,4.47-4.469
		s4.47,2.001,4.47,4.47S11.812,13.878,9.343,13.878z"/>
	<path class="st0" d="M5.527,9.797c0,0,0.625-1.385,1.672-2.447c1.274-1.292,2.653-1.8,2.653-1.8
		C7.586,5.55,5.527,7.394,5.527,9.797z"/>
</g>
</svg>
