<?xml version="1.0" encoding="utf-8"?>
<!-- Generator: Adobe Illustrator 24.1.2, SVG Export Plug-In . SVG Version: 6.00 Build 0)  -->
<svg version="1.1" id="Layer_1" xmlns="http://www.w3.org/2000/svg" xmlns:xlink="http://www.w3.org/1999/xlink" x="0px" y="0px"
	 viewBox="0 0 8.115 5.077" style="enable-background:new 0 0 8.115 5.077;" xml:space="preserve">
<g>
	<g>
		<g>
			<polygon points="1.294,4.052 1.351,0.799 0.73,0.866 0.653,0.463 2.645,0.553 2.563,0.742 1.887,0.773 1.544,4.109 			"/>
			<g>
				<path d="M4.195,3.671c-0.11,0.074-0.322,0.137-0.533,0.167C2.778,3.966,2.411,3.304,2.308,2.711
					C2.179,1.967,2.405,1.316,3.016,1.228c0.023-0.003,0.052-0.002,0.075-0.005C3.71,1.181,3.958,1.636,4.052,2.177
					c0.019,0.109,0.025,0.178,0.037,0.315L2.632,2.59C2.749,3.4,3.177,3.503,3.53,3.484C3.558,3.48,3.588,3.481,3.616,3.477
					C3.8,3.45,3.929,3.389,4.018,3.328L4.195,3.671z M3.628,2.195C3.546,1.722,3.323,1.45,3.027,1.493
					C2.69,1.541,2.609,1.948,2.648,2.31L3.628,2.195z"/>
				<path d="M5.761,4.92l0.167-1.299L5.911,3.619c-0.118,0.175-0.391,0.332-0.7,0.288C4.487,3.802,4.407,3.012,4.519,2.372
					C4.66,1.555,5.191,1.195,5.642,1.26C5.859,1.291,6.071,1.418,6.18,1.7l0.011,0.002l0.006-0.474l0.499,0.227L6.563,2.22
					l-0.49,2.655L5.761,4.92z M6.074,2.341C6.123,1.959,5.96,1.62,5.657,1.577c-0.371-0.054-0.615,0.306-0.7,0.795
					C4.883,2.798,4.918,3.475,5.42,3.548c0.194,0.028,0.527-0.105,0.581-0.583L6.074,2.341z"/>
			</g>
		</g>
	</g>
	<g>
		<path d="M7.397,0.972c0-0.036,0.009-0.071,0.026-0.102s0.04-0.056,0.07-0.074S7.555,0.769,7.59,0.769s0.068,0.009,0.098,0.027
			S7.742,0.839,7.759,0.87s0.026,0.066,0.026,0.102S7.776,1.042,7.76,1.073C7.743,1.104,7.718,1.13,7.688,1.148
			C7.658,1.167,7.625,1.177,7.59,1.177s-0.069-0.01-0.099-0.028c-0.03-0.019-0.054-0.044-0.07-0.076
			C7.405,1.042,7.397,1.009,7.397,0.972z M7.42,0.972c0,0.033,0.008,0.063,0.023,0.091s0.036,0.05,0.062,0.066
			C7.531,1.145,7.56,1.153,7.59,1.153s0.059-0.008,0.085-0.024s0.047-0.038,0.062-0.066c0.015-0.028,0.022-0.059,0.022-0.091
			S7.752,0.91,7.737,0.883C7.723,0.855,7.703,0.834,7.676,0.818C7.65,0.801,7.62,0.793,7.59,0.793S7.531,0.8,7.505,0.817
			C7.478,0.833,7.458,0.855,7.443,0.883C7.428,0.91,7.42,0.94,7.42,0.972z M7.546,0.99v0.094H7.519V0.855h0.07
			c0.026,0,0.047,0.006,0.061,0.016c0.014,0.011,0.021,0.028,0.021,0.051c0,0.024-0.013,0.042-0.039,0.054
			c0.015,0.005,0.024,0.012,0.029,0.022s0.008,0.021,0.008,0.036c0,0.014,0.001,0.024,0.001,0.03s0.001,0.011,0.003,0.015v0.004
			H7.645C7.643,1.077,7.642,1.06,7.642,1.034c0-0.016-0.004-0.028-0.01-0.034C7.625,0.993,7.613,0.99,7.597,0.99
			C7.597,0.99,7.546,0.99,7.546,0.99z M7.546,0.965h0.049c0.015,0,0.027-0.004,0.036-0.011c0.009-0.008,0.014-0.018,0.014-0.03
			c0-0.016-0.004-0.026-0.012-0.033C7.625,0.885,7.612,0.881,7.592,0.88H7.546V0.965z"/>
	</g>
</g>
</svg>
