<?xml version="1.0" encoding="utf-8"?>
<!-- Generator: Adobe Illustrator 23.0.0, SVG Export Plug-In . SVG Version: 6.00 Build 0)  -->
<svg version="1.1" id="Layer_1" xmlns="http://www.w3.org/2000/svg" xmlns:xlink="http://www.w3.org/1999/xlink" x="0px" y="0px"
	 viewBox="0 0 96 18" style="enable-background:new 0 0 96 18;" xml:space="preserve">
<style type="text/css">
	.st0{fill:#00B3E3;}
</style>
<g>
	<polygon class="st0" points="9.419,4.821 4.84,4.612 5.019,5.539 6.446,5.385 6.316,12.862 6.889,12.993 7.678,5.326 9.231,5.255 	
		"/>
	<path class="st0" d="M11.654,11.54c-0.065,0.009-0.133,0.006-0.199,0.016C10.643,11.599,9.66,11.362,9.391,9.5l3.349-0.226
		c-0.028-0.315-0.042-0.472-0.085-0.723c-0.216-1.244-0.787-2.289-2.21-2.194c-0.053,0.008-0.12,0.005-0.173,0.013
		c-1.403,0.203-1.923,1.7-1.626,3.409c0.238,1.363,1.08,2.884,3.112,2.59c0.486-0.07,0.971-0.214,1.224-0.385l-0.405-0.787
		C12.373,11.339,12.074,11.479,11.654,11.54z M10.298,6.98c0.682-0.099,1.194,0.527,1.383,1.615L9.428,8.859
		C9.336,8.026,9.523,7.091,10.298,6.98z"/>
	<path class="st0" d="M17.57,7.46l-0.026-0.004c-0.25-0.649-0.738-0.94-1.237-1.012c-1.036-0.15-2.255,0.679-2.582,2.557
		c-0.256,1.47-0.073,3.287,1.592,3.528c0.708,0.102,1.335-0.261,1.608-0.663l0.04,0.006l-0.384,2.985l0.717-0.104l1.125-6.103
		l0.305-1.758l-1.144-0.522L17.57,7.46z M17.302,8.929l-0.168,1.435c-0.124,1.098-0.89,1.403-1.335,1.34
		c-1.154-0.167-1.233-1.723-1.063-2.703c0.195-1.124,0.756-1.951,1.608-1.827C17.038,7.272,17.414,8.05,17.302,8.929z"/>
	<rect x="20.66" y="0.704" class="st0" width="0.181" height="16.591"/>
</g>
<g>
	<path class="st0" d="M27.1,9.179h-2.774v1.888h3.256v1.161h-4.7V5.215h4.69v1.17h-3.246v1.671H27.1V9.179z"/>
	<path class="st0" d="M29.917,10.528l0.968-3.511h1.455l-1.758,5.212h-1.33l-1.758-5.212h1.455L29.917,10.528z"/>
	<path class="st0" d="M35.041,12.325c-0.764,0-1.386-0.234-1.866-0.703c-0.481-0.469-0.721-1.094-0.721-1.874V9.613
		c0-0.523,0.102-0.991,0.304-1.404c0.202-0.413,0.488-0.73,0.86-0.954c0.371-0.222,0.794-0.334,1.269-0.334
		c0.713,0,1.274,0.224,1.683,0.674c0.41,0.45,0.614,1.087,0.614,1.912v0.569h-3.319c0.045,0.34,0.18,0.613,0.407,0.819
		c0.226,0.206,0.513,0.309,0.86,0.309c0.537,0,0.956-0.194,1.257-0.583l0.684,0.766c-0.209,0.295-0.491,0.526-0.848,0.691
		C35.869,12.243,35.475,12.325,35.041,12.325z M34.882,8.043c-0.276,0-0.5,0.094-0.672,0.281c-0.172,0.187-0.282,0.455-0.33,0.804
		h1.937V9.015c-0.007-0.31-0.09-0.549-0.251-0.718C35.405,8.127,35.177,8.043,34.882,8.043z"/>
	<path class="st0" d="M39.009,7.016l0.044,0.603c0.372-0.466,0.872-0.698,1.498-0.698c0.552,0,0.963,0.162,1.232,0.486
		c0.27,0.324,0.407,0.809,0.415,1.455v3.367h-1.392V8.887c0-0.296-0.065-0.511-0.192-0.645c-0.128-0.133-0.341-0.2-0.64-0.2
		c-0.392,0-0.686,0.168-0.882,0.503v3.683h-1.391V7.016H39.009z"/>
	<path class="st0" d="M44.672,5.735v1.281h0.891v1.021h-0.891v2.601c0,0.192,0.037,0.331,0.111,0.415
		c0.074,0.083,0.215,0.125,0.424,0.125c0.155,0,0.29-0.011,0.41-0.033v1.054c-0.273,0.084-0.554,0.126-0.843,0.126
		c-0.976,0-1.474-0.493-1.494-1.479V8.038h-0.761V7.016h0.762V5.735H44.672z"/>
	<path class="st0" d="M48.915,10.789c0-0.17-0.084-0.305-0.253-0.403s-0.439-0.185-0.812-0.262c-1.24-0.26-1.859-0.787-1.859-1.58
		c0-0.462,0.192-0.848,0.576-1.159c0.383-0.31,0.885-0.464,1.505-0.464c0.662,0,1.191,0.155,1.587,0.466
		c0.397,0.312,0.595,0.716,0.595,1.214h-1.392c0-0.199-0.065-0.363-0.192-0.493c-0.128-0.13-0.329-0.195-0.602-0.195
		c-0.234,0-0.416,0.053-0.545,0.159c-0.129,0.106-0.192,0.241-0.192,0.405c0,0.154,0.073,0.279,0.219,0.373
		c0.146,0.095,0.393,0.177,0.739,0.246c0.347,0.07,0.639,0.147,0.877,0.234c0.735,0.27,1.103,0.737,1.103,1.402
		c0,0.476-0.204,0.86-0.611,1.154c-0.408,0.294-0.934,0.441-1.58,0.441c-0.437,0-0.825-0.077-1.164-0.234
		c-0.339-0.156-0.605-0.37-0.797-0.64c-0.192-0.27-0.289-0.564-0.289-0.879h1.32c0.013,0.248,0.104,0.437,0.275,0.569
		c0.17,0.132,0.398,0.197,0.684,0.197c0.267,0,0.468-0.05,0.605-0.152C48.848,11.085,48.915,10.952,48.915,10.789z"/>
</g>
</svg>
