<?xml version="1.0" encoding="utf-8"?>
<!-- Generator: Adobe Illustrator 22.0.1, SVG Export Plug-In . SVG Version: 6.00 Build 0)  -->
<svg version="1.1" id="Layer_1" xmlns="http://www.w3.org/2000/svg" xmlns:xlink="http://www.w3.org/1999/xlink" x="0px" y="0px"
	 viewBox="0 0 60 45" style="enable-background:new 0 0 60 45;" xml:space="preserve">
<style type="text/css">
	.st0{fill:#00B3E3;}
</style>
<g>
	<polygon class="st0" points="12.788,21.062 6.338,20.768 6.589,22.073 8.6,21.857 8.416,32.388 9.224,32.573 10.335,21.773 
		12.523,21.673 	"/>
	<path class="st0" d="M15.936,30.526c-0.092,0.013-0.187,0.008-0.28,0.023c-1.144,0.061-2.529-0.273-2.908-2.896l4.717-0.318
		c-0.039-0.444-0.059-0.665-0.12-1.019c-0.304-1.753-1.109-3.225-3.113-3.091c-0.074,0.011-0.169,0.007-0.243,0.018
		c-1.977,0.286-2.709,2.395-2.291,4.802c0.335,1.92,1.521,4.063,4.383,3.649c0.684-0.099,1.368-0.302,1.724-0.543l-0.571-1.109
		C16.948,30.243,16.527,30.441,15.936,30.526z M14.025,24.103c0.961-0.139,1.682,0.742,1.948,2.275L12.8,26.75
		C12.671,25.576,12.934,24.26,14.025,24.103z"/>
	<path class="st0" d="M24.269,24.779l-0.036-0.006c-0.352-0.914-1.039-1.324-1.742-1.425c-1.46-0.211-3.176,0.957-3.637,3.602
		c-0.36,2.071-0.103,4.63,2.243,4.969c0.998,0.144,1.881-0.367,2.265-0.934l0.056,0.008l-0.541,4.205l1.01-0.147l1.585-8.597
		l0.43-2.477l-1.612-0.735L24.269,24.779z M23.891,26.849l-0.237,2.021c-0.174,1.546-1.253,1.977-1.881,1.887
		c-1.626-0.235-1.737-2.427-1.497-3.807c0.275-1.584,1.065-2.748,2.265-2.573C23.52,24.515,24.05,25.611,23.891,26.849z"/>
	<polygon class="st0" points="31.304,23.349 34.258,23.349 34.258,31.497 36.274,31.497 36.274,23.349 39.271,23.349 39.271,21.717 
		31.304,21.717 	"/>
	<path class="st0" d="M40.725,21.347c-0.336,0-0.601,0.095-0.797,0.282c-0.195,0.187-0.292,0.428-0.292,0.719
		c0,0.296,0.099,0.536,0.3,0.726c0.2,0.187,0.462,0.282,0.79,0.282c0.326,0,0.589-0.095,0.79-0.282
		c0.2-0.187,0.299-0.43,0.299-0.726c0-0.29-0.098-0.531-0.295-0.719C41.322,21.441,41.057,21.347,40.725,21.347z"/>
	<rect x="39.751" y="24.228" class="st0" width="1.948" height="7.268"/>
	<path class="st0" d="M46.175,24.093c-0.757,0-1.37,0.282-1.841,0.847l-0.067-0.712h-1.8v10.063h1.942v-3.426
		c0.452,0.511,1.045,0.766,1.779,0.766c0.865,0,1.552-0.336,2.06-1.01c0.508-0.675,0.762-1.571,0.762-2.691v-0.101
		c0-1.164-0.248-2.078-0.746-2.741C47.767,24.426,47.07,24.093,46.175,24.093z M45.678,30.067c-0.609,0-1.033-0.24-1.27-0.722V26.36
		c0.228-0.466,0.647-0.701,1.256-0.701c0.458,0,0.805,0.184,1.045,0.552c0.24,0.368,0.36,0.893,0.36,1.571
		C47.069,29.305,46.603,30.067,45.678,30.067z"/>
	<path class="st0" d="M54.306,27.454c-0.331-0.122-0.738-0.229-1.222-0.326c-0.483-0.096-0.827-0.211-1.031-0.342
		c-0.203-0.131-0.305-0.306-0.305-0.521c0-0.228,0.089-0.417,0.269-0.564c0.179-0.148,0.433-0.222,0.759-0.222
		c0.382,0,0.66,0.091,0.839,0.272c0.179,0.181,0.269,0.412,0.269,0.688h1.942c0-0.695-0.276-1.259-0.83-1.692
		c-0.554-0.434-1.291-0.652-2.213-0.652c-0.865,0-1.563,0.218-2.099,0.649c-0.536,0.433-0.803,0.971-0.803,1.615
		c0,1.106,0.865,1.841,2.594,2.205c0.519,0.107,0.896,0.229,1.132,0.367c0.235,0.136,0.353,0.324,0.353,0.561
		c0,0.229-0.095,0.413-0.285,0.554c-0.191,0.141-0.472,0.212-0.844,0.212c-0.399,0-0.716-0.092-0.955-0.275
		c-0.237-0.183-0.364-0.448-0.382-0.793h-1.841c0,0.439,0.134,0.847,0.403,1.227c0.269,0.378,0.639,0.677,1.111,0.893
		c0.472,0.216,1.013,0.325,1.623,0.325c0.9,0,1.634-0.205,2.203-0.614c0.568-0.409,0.854-0.946,0.854-1.608
		C55.844,28.481,55.331,27.83,54.306,27.454z"/>
	<rect x="28.622" y="15.263" class="st0" width="0.255" height="23.371"/>
</g>
</svg>
