<?xml version="1.0" encoding="utf-8"?>
<!-- Generator: Adobe Illustrator 22.1.0, SVG Export Plug-In . SVG Version: 6.00 Build 0)  -->
<svg version="1.1" id="Layer_1" xmlns="http://www.w3.org/2000/svg" xmlns:xlink="http://www.w3.org/1999/xlink" x="0px" y="0px"
	 viewBox="0 0 130 30" style="enable-background:new 0 0 130 30;" xml:space="preserve">
<style type="text/css">
	.st0{fill:#CA2026;}
	.st1{fill:#00B2E3;}
	.st2{fill:#2374BA;}
	.st3{fill:#FFFFFF;}
	.st4{fill:#ECEEEF;}
</style>
<g>
	<path class="st0" d="M51.488,9.148c0.23-0.296,0.515-0.547,0.872-0.732c0.765-0.396,1.575-0.492,2.405-0.215
		c0.574,0.191,0.867,0.626,1.001,1.193c0.123,0.522,0.123,1.044,0.024,1.577c-0.626,0-1.25,0-1.884,0c0-0.271,0.007-0.535-0.003-0.8
		c-0.006-0.153-0.024-0.314-0.221-0.355c-0.233-0.049-0.43,0.012-0.529,0.207c-0.094,0.185-0.179,0.383-0.221,0.585
		c-0.127,0.61-0.248,1.223-0.335,1.84c-0.027,0.189,0.037,0.404,0.107,0.589c0.081,0.218,0.284,0.277,0.472,0.137
		c0.13-0.097,0.224-0.247,0.316-0.386c0.061-0.093,0.091-0.207,0.132-0.312c0.04-0.106,0.076-0.213,0.118-0.33
		c0.349,0,0.696,0.007,1.042-0.005c0.086-0.003,0.186-0.045,0.251-0.101c0.283-0.246,0.542-0.522,0.837-0.752
		c0.213-0.166,0.208-0.389,0.246-0.605c0.133-0.771,0.255-1.544,0.389-2.315c0.008-0.045,0.082-0.111,0.126-0.111
		c0.859-0.006,1.719-0.012,2.578,0.004c0.229,0.004,0.455,0.087,0.685,0.122c0.076,0.012,0.17,0.01,0.234-0.025
		c1.982-1.074,4.052-1.933,6.212-2.577c1.278-0.381,2.575-0.679,3.894-0.878c1.233-0.186,2.473-0.295,3.72-0.261
		c1.408,0.038,2.797,0.21,4.112,0.75V1.67h-26.58V9.148z"/>
	<path class="st0" d="M64.602,21.114c-1.134,0.259-2.283,0.435-3.445,0.529c-0.994,0.081-1.989,0.101-2.982,0.023
		c-1.418-0.112-2.799-0.381-4.05-1.108c-0.853-0.496-1.51-1.169-1.814-2.129c-0.288-0.909-0.179-1.806,0.143-2.686
		c0.087-0.237,0.19-0.469,0.281-0.693c-0.263-0.048-0.52-0.083-0.771-0.143c-0.176-0.042-0.335-0.101-0.477-0.176V28.25h26.58V14.23
		c-0.986,0.99-2.096,1.843-3.275,2.613C71.659,18.891,68.246,20.282,64.602,21.114z"/>
	<path class="st0" d="M55.611,12.281c-0.006,0.429-0.232,0.797-0.408,1.179c-0.346,0.752-0.941,1.188-1.717,1.414
		c-0.075,0.022-0.16,0.09-0.196,0.159c-0.281,0.543-0.478,1.112-0.537,1.726c-0.079,0.827,0.132,1.566,0.667,2.203
		c0.588,0.699,1.369,1.09,2.224,1.35c1.164,0.355,2.358,0.442,3.569,0.418c1.226-0.025,2.435-0.178,3.631-0.428
		c2.841-0.593,5.525-1.61,8.051-3.036c1.962-1.107,3.771-2.414,5.238-4.147c0.617-0.728,1.139-1.517,1.451-2.428
		c0.275-0.8,0.347-1.607,0.025-2.413c-0.346-0.863-1.014-1.408-1.825-1.797c-1.09-0.523-2.261-0.7-3.452-0.751
		c-1.598-0.069-3.176,0.117-4.737,0.448c-1.986,0.421-3.9,1.066-5.748,1.905c-0.437,0.198-0.868,0.412-1.32,0.628
		c0.058,0.063,0.096,0.103,0.133,0.144c0.267,0.297,0.488,0.627,0.507,1.035c0.022,0.463,0.034,0.931-0.004,1.393
		c-0.073,0.884-0.342,1.714-0.863,2.44c-0.512,0.714-1.197,1.13-2.103,1.125c-0.854-0.005-1.707-0.001-2.561-0.001
		c-0.066,0-0.131,0-0.216,0c0.169-1.011,0.333-1.994,0.497-2.978C55.757,11.97,55.614,12.052,55.611,12.281z M70.228,10.445
		c0.513-0.946,1.252-1.671,2.252-2.096c0.893-0.38,1.786-0.282,2.669,0.057c0.02,0.008,0.036,0.026,0.058,0.041
		c-0.189,0.637-0.378,1.27-0.571,1.92c-0.359-0.182-0.728-0.266-1.118-0.28c-1.07-0.039-1.618,0.492-1.955,1.35
		c-0.128,0.327-0.172,0.67-0.148,1.02c0.026,0.388,0.295,0.663,0.699,0.714c0.006,0.001,0.011,0.001,0.017,0.001
		c0.444,0.048,0.444,0.048,0.57-0.375c0.029-0.097,0.055-0.194,0.087-0.307c-0.289,0-0.561,0-0.865,0
		c0.066-0.132,0.119-0.241,0.174-0.349c0.17-0.34,0.337-0.682,0.513-1.019c0.026-0.05,0.094-0.111,0.143-0.111
		c0.689-0.006,1.377-0.002,2.066,0c0.01,0,0.021,0.008,0.047,0.02c-0.104,0.36-0.208,0.722-0.315,1.083
		c-0.225,0.761-0.448,1.522-0.682,2.279c-0.026,0.085-0.102,0.176-0.18,0.22c-0.616,0.348-1.279,0.517-1.99,0.496
		c-1.135-0.032-1.943-0.754-2.091-1.874C69.476,12.231,69.758,11.312,70.228,10.445z M69.483,11.461
		c-0.001,0.294-0.236,0.535-0.527,0.539c-0.295,0.005-0.54-0.243-0.539-0.545c0.001-0.3,0.247-0.541,0.545-0.535
		C69.257,10.925,69.484,11.161,69.483,11.461z M61.598,8.297c0.606,0,1.206,0,1.838,0c-0.07,1.277-0.141,2.551-0.211,3.825
		c0.011,0.003,0.022,0.006,0.033,0.009c0.358-1.276,0.716-2.553,1.075-3.834c0.718,0,1.428,0,2.162,0
		c-0.068,1.293-0.135,2.583-0.203,3.873c0.011,0.002,0.022,0.005,0.034,0.007c0.349-1.279,0.699-2.558,1.05-3.844
		c0.616,0,1.228,0,1.855,0c-0.733,2.204-1.464,4.401-2.197,6.605c-0.751,0-1.501,0-2.261,0c0.072-1.342,0.143-2.664,0.213-3.986
		c-0.01-0.003-0.02-0.005-0.03-0.008c-0.375,1.318-0.75,2.637-1.125,3.955c-0.747,0-1.485,0-2.233,0
		C61.598,12.697,61.598,10.502,61.598,8.297z"/>
	<path class="st0" d="M58.649,12.836c0.258-0.512,0.342-1.068,0.403-1.625c0.035-0.318,0.046-0.648-0.002-0.962
		c-0.056-0.365-0.357-0.519-0.74-0.436c-0.197,1.162-0.395,2.328-0.594,3.5c0.047,0.013,0.078,0.026,0.11,0.029
		C58.191,13.377,58.463,13.204,58.649,12.836z"/>
	<path class="st0" d="M79.581,1.727c-0.275,0-0.496,0.221-0.496,0.494c0,0.275,0.221,0.496,0.496,0.496
		c0.274,0,0.494-0.221,0.494-0.496C80.075,1.949,79.856,1.727,79.581,1.727z M79.581,2.631c-0.226,0-0.409-0.183-0.409-0.409
		c0-0.224,0.183-0.407,0.409-0.407c0.226,0,0.407,0.183,0.407,0.407C79.988,2.448,79.807,2.631,79.581,2.631z"/>
	<path class="st0" d="M79.672,2.223V2.22c0.078-0.016,0.119-0.068,0.119-0.136c0-0.132-0.112-0.161-0.218-0.161h-0.189v0.582h0.091
		V2.254h0.076c0.032,0.003,0.061,0,0.084,0.024c0.027,0.027,0.027,0.073,0.034,0.123c0.004,0.034,0.013,0.071,0.019,0.104h0.117
		c-0.021-0.052-0.026-0.113-0.035-0.169C79.762,2.275,79.753,2.238,79.672,2.223z M79.573,2.163h-0.097V2.015h0.109
		c0.072,0,0.092,0.022,0.092,0.066C79.677,2.125,79.658,2.161,79.573,2.163z"/>
</g>
<g>
	<g>
		<g>
			<rect x="0.991" y="1.232" class="st1" width="30.251" height="23.848"/>
			<polygon class="st2" points="31.242,1.232 31.242,25.08 0.991,25.08 6.494,28.749 36.763,28.749 36.763,6.735 			"/>
			<polygon class="st3" points="6.017,19.873 6.261,5.94 3.601,6.226 3.269,4.501 11.802,4.887 11.451,5.697 8.557,5.829 
				7.087,20.117 			"/>
			<g>
				<path class="st3" d="M18.442,18.241c-0.471,0.319-1.376,0.587-2.281,0.718c-3.789,0.547-5.358-2.288-5.8-4.828
					c-0.553-3.187,0.415-5.977,3.03-6.354c0.098-0.014,0.224-0.009,0.321-0.023c2.651-0.178,3.715,1.771,4.118,4.089
					c0.081,0.468,0.107,0.761,0.159,1.348L11.75,13.61c0.502,3.468,2.333,3.912,3.848,3.831c0.122-0.018,0.248-0.013,0.37-0.03
					c0.782-0.113,1.338-0.376,1.719-0.637L18.442,18.241z M16.016,11.92c-0.352-2.028-1.306-3.193-2.577-3.009
					c-1.442,0.208-1.791,1.949-1.622,3.501L16.016,11.92z"/>
				<path class="st3" d="M25.15,23.59l0.716-5.562l-0.074-0.01c-0.506,0.749-1.675,1.425-2.996,1.235
					c-3.103-0.448-3.443-3.833-2.967-6.574c0.608-3.499,2.881-5.044,4.811-4.766c0.929,0.134,1.837,0.677,2.304,1.886l0.048,0.007
					l0.027-2.029l2.136,0.971l-0.569,3.276l-2.101,11.371L25.15,23.59z M26.492,12.544c0.209-1.637-0.491-3.086-1.787-3.273
					c-1.589-0.23-2.633,1.31-2.997,3.405c-0.317,1.827-0.17,4.727,1.981,5.038c0.831,0.12,2.258-0.451,2.488-2.496L26.492,12.544z"
					/>
			</g>
		</g>
	</g>
	<g>
		<path class="st3" d="M36.441,2.748c0-0.22,0.051-0.424,0.153-0.612c0.102-0.188,0.243-0.336,0.423-0.445
			c0.18-0.108,0.374-0.162,0.583-0.162c0.209,0,0.403,0.054,0.583,0.162c0.18,0.108,0.321,0.256,0.423,0.445
			c0.102,0.188,0.153,0.392,0.153,0.612c0,0.216-0.049,0.418-0.148,0.605c-0.099,0.187-0.238,0.337-0.419,0.45
			c-0.18,0.113-0.377,0.169-0.591,0.169c-0.214,0-0.411-0.056-0.591-0.169c-0.18-0.113-0.32-0.262-0.419-0.45
			C36.49,3.167,36.441,2.965,36.441,2.748z M36.579,2.748c0,0.195,0.045,0.376,0.136,0.544c0.091,0.168,0.215,0.3,0.374,0.396
			c0.158,0.096,0.328,0.144,0.51,0.144s0.352-0.048,0.511-0.144c0.159-0.097,0.283-0.229,0.373-0.397
			c0.09-0.168,0.135-0.349,0.135-0.543c0-0.192-0.044-0.37-0.132-0.535c-0.088-0.166-0.211-0.297-0.37-0.395
			c-0.158-0.098-0.33-0.147-0.516-0.147c-0.183,0-0.353,0.048-0.512,0.144c-0.158,0.097-0.283,0.228-0.373,0.393
			C36.624,2.374,36.579,2.554,36.579,2.748z M37.335,2.849v0.565h-0.16V2.045h0.421c0.16,0,0.283,0.033,0.369,0.1
			c0.086,0.067,0.129,0.168,0.129,0.304c0,0.145-0.077,0.252-0.23,0.321c0.078,0.028,0.133,0.072,0.163,0.132
			c0.03,0.059,0.046,0.13,0.046,0.213c0,0.083,0.002,0.142,0.007,0.18c0.004,0.037,0.011,0.068,0.021,0.093v0.026h-0.166
			c-0.015-0.039-0.023-0.138-0.023-0.298c0-0.097-0.02-0.166-0.061-0.206c-0.041-0.041-0.11-0.061-0.208-0.061H37.335z
			 M37.335,2.703h0.295c0.088,0,0.161-0.023,0.218-0.069c0.057-0.046,0.086-0.106,0.086-0.181c0-0.092-0.024-0.159-0.071-0.198
			s-0.129-0.061-0.244-0.063h-0.284V2.703z"/>
	</g>
</g>
<g>
	<path class="st4" d="M88.888,13.012c-0.042,0.412-0.18,0.726-0.413,0.944s-0.545,0.328-0.934,0.328
		c-0.271,0-0.512-0.072-0.721-0.217c-0.208-0.145-0.37-0.35-0.483-0.616c-0.114-0.266-0.172-0.569-0.174-0.911v-0.507
		c0-0.347,0.058-0.655,0.171-0.923c0.114-0.268,0.278-0.476,0.491-0.621c0.214-0.146,0.46-0.219,0.738-0.219
		c0.392,0,0.701,0.113,0.929,0.338c0.227,0.226,0.359,0.538,0.396,0.937h-0.312c-0.077-0.664-0.415-0.996-1.013-0.996
		c-0.332,0-0.597,0.133-0.793,0.398c-0.197,0.265-0.296,0.631-0.296,1.098v0.478c0,0.451,0.097,0.811,0.288,1.08
		c0.192,0.269,0.451,0.403,0.778,0.403c0.323,0,0.567-0.083,0.731-0.248s0.266-0.414,0.304-0.745H88.888z"/>
	<path class="st4" d="M92.216,12.489c0,0.36-0.058,0.675-0.175,0.947c-0.116,0.272-0.282,0.481-0.499,0.628
		c-0.216,0.147-0.466,0.22-0.749,0.22c-0.427,0-0.772-0.163-1.035-0.49c-0.264-0.327-0.395-0.767-0.395-1.322V12.07
		c0-0.356,0.059-0.671,0.177-0.946c0.118-0.274,0.285-0.485,0.502-0.633c0.216-0.147,0.465-0.221,0.746-0.221
		s0.53,0.072,0.745,0.217c0.216,0.145,0.382,0.35,0.499,0.615c0.117,0.265,0.179,0.571,0.184,0.92V12.489z M91.907,12.065
		c0-0.471-0.101-0.839-0.3-1.106s-0.473-0.4-0.819-0.4c-0.34,0-0.611,0.134-0.813,0.401c-0.201,0.268-0.303,0.641-0.303,1.121v0.408
		c0,0.463,0.101,0.831,0.302,1.102s0.475,0.407,0.819,0.407c0.351,0,0.624-0.134,0.819-0.401c0.196-0.268,0.295-0.64,0.295-1.118
		V12.065z"/>
	<path class="st4" d="M95.591,14.23h-0.31l-2.104-3.344v3.344h-0.312v-3.907h0.312l2.106,3.346v-3.346h0.307V14.23z"/>
	<path class="st4" d="M98.803,10.602h-1.255v3.628h-0.309v-3.628h-1.252v-0.279h2.815V10.602z"/>
	<path class="st4" d="M100.632,12.602h-1.063v1.629h-0.312v-3.907h1.188c0.391,0,0.695,0.101,0.915,0.303
		c0.22,0.202,0.329,0.484,0.329,0.847c0,0.25-0.068,0.471-0.206,0.662c-0.137,0.191-0.321,0.323-0.553,0.396l0.915,1.664v0.035
		h-0.329L100.632,12.602z M99.568,12.322h0.947c0.26,0,0.469-0.079,0.626-0.236c0.158-0.158,0.236-0.362,0.236-0.613
		c0-0.276-0.082-0.49-0.246-0.643s-0.395-0.229-0.691-0.229h-0.872V12.322z"/>
	<path class="st4" d="M104.38,13.133h-1.662l-0.377,1.098h-0.324l1.385-3.907h0.295l1.385,3.907h-0.322L104.38,13.133z
		 M102.813,12.854h1.468l-0.733-2.128L102.813,12.854z"/>
	<path class="st4" d="M108.054,13.012c-0.042,0.412-0.18,0.726-0.413,0.944s-0.545,0.328-0.934,0.328
		c-0.271,0-0.512-0.072-0.721-0.217c-0.208-0.145-0.37-0.35-0.483-0.616c-0.114-0.266-0.172-0.569-0.174-0.911v-0.507
		c0-0.347,0.058-0.655,0.171-0.923c0.114-0.268,0.278-0.476,0.491-0.621c0.214-0.146,0.46-0.219,0.738-0.219
		c0.392,0,0.701,0.113,0.929,0.338c0.227,0.226,0.359,0.538,0.396,0.937h-0.312c-0.077-0.664-0.415-0.996-1.013-0.996
		c-0.332,0-0.597,0.133-0.793,0.398c-0.197,0.265-0.296,0.631-0.296,1.098v0.478c0,0.451,0.097,0.811,0.288,1.08
		c0.192,0.269,0.451,0.403,0.778,0.403c0.323,0,0.567-0.083,0.731-0.248s0.266-0.414,0.304-0.745H108.054z"/>
	<path class="st4" d="M111.088,10.602h-1.255v3.628h-0.309v-3.628h-1.252v-0.279h2.815V10.602z"/>
	<path class="st4" d="M115.297,14.23h-0.31l-2.104-3.344v3.344h-0.312v-3.907h0.312l2.106,3.346v-3.346h0.307V14.23z"/>
	<path class="st4" d="M118.803,12.489c0,0.36-0.058,0.675-0.175,0.947c-0.116,0.272-0.282,0.481-0.499,0.628
		c-0.216,0.147-0.466,0.22-0.749,0.22c-0.427,0-0.772-0.163-1.035-0.49c-0.264-0.327-0.395-0.767-0.395-1.322V12.07
		c0-0.356,0.059-0.671,0.177-0.946c0.118-0.274,0.285-0.485,0.502-0.633c0.216-0.147,0.465-0.221,0.746-0.221
		s0.53,0.072,0.745,0.217c0.216,0.145,0.382,0.35,0.499,0.615c0.117,0.265,0.179,0.571,0.184,0.92V12.489z M118.494,12.065
		c0-0.471-0.101-0.839-0.3-1.106s-0.473-0.4-0.819-0.4c-0.34,0-0.611,0.134-0.813,0.401c-0.201,0.268-0.303,0.641-0.303,1.121v0.408
		c0,0.463,0.101,0.831,0.302,1.102s0.475,0.407,0.819,0.407c0.351,0,0.624-0.134,0.819-0.401c0.196-0.268,0.295-0.64,0.295-1.118
		V12.065z"/>
	<path class="st4" d="M119.099,14.037c0-0.062,0.02-0.116,0.057-0.16c0.038-0.043,0.09-0.065,0.157-0.065s0.12,0.022,0.158,0.065
		c0.039,0.044,0.058,0.097,0.058,0.16c0,0.063-0.019,0.114-0.058,0.154c-0.038,0.041-0.091,0.061-0.158,0.061
		s-0.119-0.02-0.157-0.061C119.118,14.151,119.099,14.1,119.099,14.037z"/>
	<path class="st4" d="M86.297,19.727v-3.907h1.08c0.393,0,0.69,0.086,0.893,0.259c0.203,0.173,0.305,0.428,0.305,0.765
		c0,0.202-0.052,0.378-0.155,0.527c-0.103,0.149-0.244,0.256-0.423,0.32c0.212,0.051,0.384,0.162,0.514,0.336
		c0.13,0.173,0.194,0.373,0.194,0.601c0,0.345-0.104,0.614-0.312,0.809s-0.499,0.291-0.871,0.291H86.297z M86.605,17.571h0.845
		c0.258-0.005,0.458-0.07,0.6-0.194c0.142-0.125,0.212-0.307,0.212-0.545c0-0.251-0.073-0.436-0.22-0.555s-0.368-0.179-0.665-0.179
		h-0.771V17.571z M86.605,17.851v1.597h0.928c0.265,0,0.475-0.071,0.63-0.216c0.154-0.144,0.232-0.343,0.232-0.599
		c0-0.241-0.074-0.432-0.223-0.571c-0.148-0.141-0.354-0.211-0.614-0.211H86.605z"/>
	<path class="st4" d="M91.497,19.727h-2.292v-0.247l1.254-1.519c0.208-0.256,0.352-0.467,0.433-0.634
		c0.08-0.166,0.12-0.328,0.12-0.485c0-0.247-0.067-0.442-0.203-0.587c-0.136-0.144-0.323-0.216-0.561-0.216
		c-0.246,0-0.445,0.084-0.597,0.253c-0.152,0.168-0.228,0.386-0.228,0.654h-0.3c0-0.22,0.047-0.42,0.14-0.601
		c0.093-0.182,0.226-0.323,0.397-0.426s0.367-0.154,0.587-0.154c0.335,0,0.597,0.094,0.785,0.281
		c0.188,0.188,0.283,0.444,0.283,0.768c0,0.183-0.054,0.383-0.16,0.599c-0.106,0.217-0.293,0.487-0.562,0.811l-1.021,1.231h1.923
		V19.727z"/>
	<path class="st4" d="M94.221,19.727h-2.292v-0.247l1.254-1.519c0.208-0.256,0.352-0.467,0.433-0.634
		c0.08-0.166,0.12-0.328,0.12-0.485c0-0.247-0.067-0.442-0.203-0.587c-0.136-0.144-0.323-0.216-0.561-0.216
		c-0.246,0-0.445,0.084-0.597,0.253c-0.152,0.168-0.228,0.386-0.228,0.654h-0.3c0-0.22,0.047-0.42,0.14-0.601
		c0.093-0.182,0.226-0.323,0.397-0.426s0.367-0.154,0.587-0.154c0.335,0,0.597,0.094,0.785,0.281
		c0.188,0.188,0.283,0.444,0.283,0.768c0,0.183-0.054,0.383-0.16,0.599c-0.106,0.217-0.293,0.487-0.562,0.811l-1.021,1.231h1.923
		V19.727z"/>
	<path class="st4" d="M96.86,18.098c0,0.551-0.095,0.969-0.284,1.255c-0.189,0.285-0.469,0.428-0.837,0.428
		c-0.362,0-0.64-0.14-0.832-0.42c-0.193-0.28-0.292-0.688-0.297-1.223v-0.7c0-0.549,0.096-0.965,0.286-1.248
		c0.191-0.282,0.471-0.424,0.837-0.424c0.362,0,0.639,0.137,0.83,0.409c0.19,0.272,0.29,0.675,0.297,1.206V18.098z M96.559,17.397
		c0-0.447-0.068-0.785-0.205-1.015c-0.137-0.229-0.343-0.344-0.62-0.344c-0.271,0-0.476,0.112-0.613,0.336
		c-0.137,0.224-0.207,0.554-0.211,0.99v0.768c0,0.445,0.071,0.786,0.213,1.022c0.142,0.235,0.347,0.354,0.617,0.354
		c0.268,0,0.471-0.115,0.609-0.346c0.138-0.23,0.208-0.569,0.21-1.015V17.397z"/>
	<path class="st4" d="M99.254,17.918c-0.106,0.168-0.24,0.298-0.399,0.391c-0.159,0.092-0.332,0.138-0.518,0.138
		c-0.208,0-0.392-0.057-0.551-0.172c-0.159-0.114-0.282-0.272-0.369-0.475s-0.131-0.423-0.131-0.663c0-0.258,0.047-0.492,0.14-0.703
		s0.223-0.375,0.39-0.492s0.358-0.176,0.577-0.176c0.366,0,0.652,0.138,0.856,0.412c0.205,0.274,0.307,0.664,0.307,1.169v0.289
		c0,0.705-0.141,1.234-0.422,1.589s-0.712,0.531-1.29,0.531h-0.055l0.002-0.279h0.105c0.438-0.007,0.771-0.139,0.998-0.396
		C99.123,18.822,99.242,18.435,99.254,17.918z M98.374,18.167c0.201,0,0.382-0.063,0.542-0.191c0.16-0.127,0.273-0.293,0.341-0.496
		v-0.185c0-0.396-0.077-0.704-0.232-0.922c-0.155-0.219-0.364-0.328-0.627-0.328c-0.238,0-0.434,0.102-0.586,0.307
		c-0.152,0.204-0.229,0.461-0.229,0.771c0,0.299,0.073,0.547,0.22,0.746S98.14,18.167,98.374,18.167z"/>
	<path class="st4" d="M102.309,18.098c0,0.551-0.095,0.969-0.284,1.255c-0.189,0.285-0.469,0.428-0.837,0.428
		c-0.362,0-0.64-0.14-0.832-0.42c-0.193-0.28-0.292-0.688-0.297-1.223v-0.7c0-0.549,0.096-0.965,0.286-1.248
		c0.191-0.282,0.471-0.424,0.837-0.424c0.362,0,0.639,0.137,0.83,0.409c0.19,0.272,0.29,0.675,0.297,1.206V18.098z M102.007,17.397
		c0-0.447-0.068-0.785-0.205-1.015c-0.137-0.229-0.343-0.344-0.62-0.344c-0.271,0-0.476,0.112-0.613,0.336
		c-0.137,0.224-0.207,0.554-0.211,0.99v0.768c0,0.445,0.071,0.786,0.213,1.022c0.142,0.235,0.347,0.354,0.617,0.354
		c0.268,0,0.471-0.115,0.609-0.346c0.138-0.23,0.208-0.569,0.21-1.015V17.397z"/>
	<path class="st4" d="M104.226,19.727h-0.302v-3.521l-0.995,0.395V16.3l1.247-0.494h0.05V19.727z"/>
</g>
</svg>
