<?xml version="1.0" encoding="utf-8"?>
<!-- Generator: Adobe Illustrator 22.1.0, SVG Export Plug-In . SVG Version: 6.00 Build 0)  -->
<svg version="1.1" id="Layer_1" xmlns="http://www.w3.org/2000/svg" xmlns:xlink="http://www.w3.org/1999/xlink" x="0px" y="0px"
	 viewBox="0 0 65 75" style="enable-background:new 0 0 65 75;" xml:space="preserve">
<style type="text/css">
	.st0{fill:url(#SVGID_1_);}
	.st1{fill:#D8D9DA;}
	.st2{fill:#00B4E4;}
	.st3{fill:#B41000;}
	.st4{fill:#FFFFFF;}
</style>
<g>
	<g>
		
			<linearGradient id="SVGID_1_" gradientUnits="userSpaceOnUse" x1="19.1295" y1="-30.129" x2="19.1295" y2="-4.9594" gradientTransform="matrix(1 0 0 -1 0 28)">
			<stop  offset="0" style="stop-color:#FFFFFF"/>
			<stop  offset="1" style="stop-color:#F0F0F0"/>
		</linearGradient>
		<path class="st0" d="M7.3,43.1c0,1.6,0.2,3.3,0.8,5c1.5,4.5,5.2,7.8,11,10c5.8-2.2,9.5-5.5,11-10c0.6-1.7,0.8-3.4,0.8-5
			c0-5.1-2.1-9.4-2.5-10.1c-4.7,3.1-8.8,0.4-9.3,0.1c-0.5,0.4-4.6,3-9.3-0.1C9.5,33.7,7.3,38,7.3,43.1z"/>
		<path class="st1" d="M19.1,58.4L19.1,58.4c-5.9-2.2-9.6-5.6-11.2-10.2c-0.5-1.6-0.8-3.3-0.8-5.1c0-5.1,2.1-9.4,2.5-10.2l0.1-0.2
			l0.2,0.1c4.6,3,8.6,0.4,9.1,0.1l0.1-0.1l0.1,0.1c0.4,0.3,4.4,3,9.1-0.1l0.2-0.1l0.1,0.2c0.4,0.8,2.5,5.2,2.5,10.2
			c0,1.8-0.3,3.5-0.8,5.1C28.8,52.7,25,56.1,19.1,58.4L19.1,58.4z M9.9,33.3c-0.6,1.2-2.4,5.2-2.4,9.8c0,1.8,0.3,3.4,0.8,4.9
			c1.5,4.4,5.1,7.7,10.8,9.9c5.7-2.2,9.3-5.5,10.8-9.9c0.5-1.5,0.8-3.2,0.8-4.9c0-4.7-1.8-8.7-2.4-9.8c-4.5,2.8-8.4,0.6-9.2,0
			C18.3,33.8,14.4,36.1,9.9,33.3z"/>
	</g>
	<path class="st2" d="M8.4,43c0,1.5,0.2,3.1,0.7,4.7c1.4,4.1,4.7,7.2,9.9,9.2c5.2-2.1,8.5-5.2,9.9-9.2c0.5-1.6,0.7-3.2,0.7-4.7
		c0-0.4,0-0.8,0-1.3H8.4C8.4,42.2,8.4,42.6,8.4,43z"/>
	<path class="st3" d="M27.9,34.6c-3.9,2-7.3,0.6-8.8-0.3c-1.5,0.8-4.9,2.2-8.8,0.3c-0.5,1.2-1.2,3.1-1.5,5.4h20.8
		C29.1,37.7,28.4,35.8,27.9,34.6z"/>
	<g>
		<g>
			<polygon class="st4" points="13.5,51 13.6,43.6 12.2,43.8 12,42.9 16.5,43.1 16.4,43.5 14.8,43.6 14.1,51.1 			"/>
			<g>
				<path class="st4" d="M20.1,50.1c-0.2,0.2-0.7,0.3-1.2,0.4c-2,0.3-2.8-1.2-3.1-2.6c-0.3-1.7,0.2-3.2,1.6-3.4c0.1,0,0.1,0,0.2,0
					c1.4-0.1,2,0.9,2.2,2.2c0,0.2,0.1,0.4,0.1,0.7l-3.3,0.2c0.3,1.8,1.2,2.1,2,2c0.1,0,0.1,0,0.2,0c0.4-0.1,0.7-0.2,0.9-0.3
					L20.1,50.1z M18.8,46.8c-0.2-1.1-0.7-1.7-1.4-1.6c-0.8,0.1-0.9,1-0.9,1.8L18.8,46.8z"/>
				<path class="st4" d="M23.6,52.9L24,50l0,0c-0.3,0.4-0.9,0.8-1.6,0.7c-1.6-0.2-1.8-2-1.6-3.5c0.3-1.8,1.5-2.7,2.5-2.5
					c0.5,0.1,1,0.4,1.2,1l0,0l0-1.1l1.1,0.5l-0.3,1.7l-1.1,6L23.6,52.9z M24.3,47.1c0.1-0.9-0.3-1.6-0.9-1.7
					c-0.8-0.1-1.4,0.7-1.6,1.8c-0.2,1-0.1,2.5,1,2.7c0.4,0.1,1.2-0.2,1.3-1.3L24.3,47.1z"/>
			</g>
		</g>
	</g>
	<g>
		<path class="st4" d="M12.1,38.7V37h0.3v1.7H12.1z"/>
		<path class="st4" d="M12.8,38.7V37h0.3l0.7,1.1V37h0.3v1.7h-0.3l-0.7-1.1v1.1H12.8z"/>
		<path class="st4" d="M14.8,38.7v-1.4h-0.5V37h1.3v0.3h-0.5v1.4H14.8z"/>
		<path class="st4" d="M15.9,38.7V37h1.2v0.3h-0.9v0.4h0.8V38h-0.8v0.5h0.9v0.3L15.9,38.7L15.9,38.7z"/>
		<path class="st4" d="M17.8,37.3H18c0.1,0,0.2,0,0.2,0c0.1,0,0.1,0,0.1,0.1c0,0,0,0.1,0,0.1c0,0,0,0.1,0,0.1c0,0-0.1,0.1-0.1,0.1
			c0,0-0.1,0-0.3,0h-0.2L17.8,37.3C17.8,37.3,17.8,37.3,17.8,37.3z M17.8,38.7V38h0.1c0.1,0,0.1,0,0.2,0c0,0,0.1,0,0.1,0.1
			c0,0,0.1,0.1,0.2,0.2l0.2,0.4h0.4l-0.2-0.3c-0.1-0.1-0.1-0.2-0.2-0.3c0-0.1-0.1-0.1-0.2-0.1c0.1,0,0.3-0.1,0.3-0.2
			c0.1-0.1,0.1-0.2,0.1-0.3c0-0.1,0-0.2-0.1-0.3c0-0.1-0.1-0.1-0.2-0.2c-0.1,0-0.2,0-0.4,0h-0.7v1.7L17.8,38.7L17.8,38.7z"/>
		<path class="st4" d="M19,38.2l0.3,0c0,0.1,0.1,0.2,0.1,0.2c0.1,0.1,0.1,0.1,0.2,0.1c0.1,0,0.2,0,0.2-0.1c0.1,0,0.1-0.1,0.1-0.2
			c0,0,0-0.1,0-0.1c0,0-0.1-0.1-0.1-0.1c0,0-0.1,0-0.3-0.1c-0.2,0-0.3-0.1-0.4-0.2c-0.1-0.1-0.2-0.2-0.2-0.3c0-0.1,0-0.2,0.1-0.2
			c0-0.1,0.1-0.1,0.2-0.2c0.1,0,0.2-0.1,0.3-0.1c0.2,0,0.4,0,0.5,0.1c0.1,0.1,0.2,0.2,0.2,0.4l-0.3,0c0-0.1,0-0.1-0.1-0.2
			c0,0-0.1-0.1-0.2-0.1c-0.1,0-0.2,0-0.2,0.1c0,0-0.1,0.1-0.1,0.1c0,0,0,0.1,0,0.1c0,0,0.1,0.1,0.3,0.1c0.2,0,0.3,0.1,0.4,0.1
			c0.1,0,0.1,0.1,0.2,0.2c0,0.1,0.1,0.2,0.1,0.3c0,0.1,0,0.2-0.1,0.3c-0.1,0.1-0.1,0.1-0.2,0.2c-0.1,0-0.2,0.1-0.4,0.1
			c-0.2,0-0.4,0-0.5-0.1C19.1,38.5,19.1,38.3,19,38.2z"/>
		<path class="st4" d="M21.1,38.7v-1.4h-0.5V37h1.3v0.3h-0.5v1.4H21.1z"/>
		<path class="st4" d="M22.4,38l0.2-0.6l0.2,0.6H22.4z M22.8,37h-0.4l-0.6,1.7h0.4l0.1-0.4h0.7l0.1,0.4h0.4L22.8,37z"/>
		<path class="st4" d="M23.8,38.7v-1.4h-0.5V37h1.3v0.3h-0.5v1.4H23.8z"/>
		<path class="st4" d="M24.9,38.7V37h1.2v0.3h-0.9v0.4H26V38h-0.8v0.5h0.9v0.3L24.9,38.7L24.9,38.7z"/>
	</g>
</g>
</svg>
