<?xml version="1.0" encoding="utf-8"?>
<!-- Generator: Adobe Illustrator 21.1.0, SVG Export Plug-In . SVG Version: 6.00 Build 0)  -->
<svg version="1.1" id="Layer_1" xmlns="http://www.w3.org/2000/svg" xmlns:xlink="http://www.w3.org/1999/xlink" x="0px" y="0px"
	 viewBox="0 0 50 20" style="enable-background:new 0 0 50 20;" xml:space="preserve">
<style type="text/css">
	.st0{fill:#00B3E3;}
	.st1{fill:#FFFFFF;}
</style>
<rect x="8.893" y="8.75" class="st0" width="40.607" height="10.562"/>
<g>
	<polygon class="st1" points="31.462,11.829 29.152,11.724 29.242,12.191 29.962,12.114 29.896,15.885 30.186,15.95 30.583,12.083 
		31.367,12.048 	"/>
	<path class="st1" d="M32.589,15.218c-0.033,0.005-0.067,0.003-0.1,0.008c-0.41,0.022-0.906-0.098-1.041-1.037l1.689-0.114
		c-0.014-0.159-0.021-0.238-0.043-0.365c-0.109-0.628-0.397-1.155-1.115-1.107c-0.026,0.004-0.061,0.002-0.087,0.006
		c-0.708,0.102-0.97,0.857-0.82,1.72c0.12,0.687,0.545,1.455,1.569,1.307c0.245-0.035,0.49-0.108,0.617-0.194l-0.204-0.397
		C32.951,15.116,32.801,15.187,32.589,15.218z M31.905,12.918c0.344-0.05,0.602,0.266,0.697,0.815l-1.136,0.133
		C31.42,13.445,31.514,12.974,31.905,12.918z"/>
	<path class="st1" d="M35.573,13.16l-0.013-0.002c-0.126-0.327-0.372-0.474-0.624-0.51c-0.523-0.076-1.137,0.343-1.302,1.29
		c-0.129,0.742-0.037,1.658,0.803,1.779c0.358,0.052,0.674-0.132,0.811-0.334l0.02,0.003l-0.194,1.506l0.362-0.053l0.568-3.078
		l0.154-0.887L35.58,12.61L35.573,13.16z M35.437,13.901l-0.085,0.724c-0.062,0.554-0.449,0.708-0.673,0.676
		c-0.582-0.084-0.622-0.869-0.536-1.363c0.099-0.567,0.381-0.984,0.811-0.921C35.305,13.065,35.494,13.458,35.437,13.901z"/>
	<polygon class="st1" points="38.092,12.648 39.149,12.648 39.149,15.565 39.871,15.565 39.871,12.648 40.944,12.648 40.944,12.063 
		38.092,12.063 	"/>
	<path class="st1" d="M41.465,11.931c-0.12,0-0.215,0.034-0.285,0.101c-0.07,0.067-0.105,0.153-0.105,0.257
		c0,0.106,0.035,0.192,0.107,0.26c0.072,0.067,0.165,0.101,0.283,0.101c0.117,0,0.211-0.034,0.283-0.101
		c0.072-0.067,0.107-0.154,0.107-0.26c0-0.104-0.035-0.19-0.106-0.257S41.584,11.931,41.465,11.931z"/>
	<rect x="41.116" y="12.963" class="st1" width="0.697" height="2.602"/>
	<path class="st1" d="M43.416,12.914c-0.271,0-0.491,0.101-0.659,0.303l-0.024-0.255h-0.645v3.603h0.695v-1.227
		c0.162,0.183,0.374,0.274,0.637,0.274c0.31,0,0.556-0.12,0.738-0.362c0.182-0.242,0.273-0.563,0.273-0.963v-0.036
		c0-0.417-0.089-0.744-0.267-0.981C43.986,13.033,43.737,12.914,43.416,12.914z M43.238,15.053c-0.218,0-0.37-0.086-0.455-0.259
		v-1.069c0.082-0.167,0.232-0.251,0.45-0.251c0.164,0,0.288,0.066,0.374,0.197c0.086,0.132,0.129,0.32,0.129,0.563
		C43.736,14.78,43.57,15.053,43.238,15.053z"/>
	<path class="st1" d="M46.328,14.118c-0.119-0.044-0.264-0.082-0.438-0.117c-0.173-0.034-0.296-0.076-0.369-0.123
		c-0.073-0.047-0.109-0.11-0.109-0.187c0-0.082,0.032-0.149,0.096-0.202c0.064-0.053,0.155-0.079,0.272-0.079
		c0.137,0,0.236,0.033,0.301,0.097c0.064,0.065,0.096,0.147,0.096,0.246h0.695c0-0.249-0.099-0.451-0.297-0.606
		c-0.198-0.155-0.462-0.233-0.792-0.233c-0.31,0-0.56,0.078-0.752,0.232c-0.192,0.155-0.288,0.348-0.288,0.578
		c0,0.396,0.31,0.659,0.929,0.789c0.186,0.038,0.321,0.082,0.405,0.131c0.084,0.049,0.126,0.116,0.126,0.201
		c0,0.082-0.034,0.148-0.102,0.198c-0.068,0.051-0.169,0.076-0.302,0.076c-0.143,0-0.257-0.033-0.342-0.099
		c-0.085-0.066-0.13-0.16-0.137-0.284h-0.659c0,0.157,0.048,0.303,0.144,0.439c0.096,0.135,0.229,0.242,0.398,0.32
		c0.169,0.077,0.363,0.116,0.581,0.116c0.322,0,0.585-0.073,0.789-0.22c0.203-0.147,0.306-0.339,0.306-0.576
		C46.879,14.485,46.695,14.252,46.328,14.118z"/>
	<rect x="37.131" y="9.752" class="st1" width="0.091" height="8.368"/>
</g>
<g id="x7fB8j_1_">
	<g>
		<path class="st1" d="M11.625,14.333c0.016-0.016,0.027-0.029,0.039-0.041c0.115-0.116,0.232-0.229,0.345-0.347
			c0.103-0.107,0.101-0.266-0.001-0.37c-0.102-0.103-0.265-0.111-0.37-0.01c-0.199,0.193-0.395,0.389-0.588,0.588
			c-0.095,0.098-0.095,0.256,0,0.354c0.195,0.2,0.392,0.397,0.591,0.592c0.086,0.084,0.216,0.09,0.317,0.028
			c0.1-0.062,0.151-0.184,0.114-0.296c-0.016-0.048-0.047-0.095-0.082-0.132C11.873,14.576,11.749,14.457,11.625,14.333z"/>
	</g>
</g>
<g>
	<path class="st1" d="M16.868,14.529c0,0.346-0.077,0.62-0.229,0.823c-0.153,0.203-0.359,0.305-0.617,0.305
		c-0.309,0-0.542-0.115-0.701-0.345l-0.01,0.304h-0.229v-3.148h0.244v1.252c0.156-0.242,0.387-0.362,0.693-0.362
		c0.263,0,0.47,0.1,0.623,0.3s0.229,0.479,0.229,0.836V14.529z M16.622,14.486c0-0.292-0.057-0.518-0.17-0.678
		c-0.114-0.159-0.273-0.238-0.48-0.238c-0.157,0-0.291,0.038-0.4,0.116c-0.109,0.077-0.192,0.189-0.248,0.339v1
		c0.123,0.279,0.34,0.419,0.652,0.419c0.202,0,0.36-0.08,0.474-0.24C16.565,15.044,16.622,14.805,16.622,14.486z"/>
	<path class="st1" d="M18.6,15.616c-0.025-0.069-0.041-0.173-0.047-0.31c-0.086,0.112-0.196,0.198-0.329,0.26
		c-0.133,0.061-0.274,0.091-0.423,0.091c-0.213,0-0.386-0.06-0.518-0.179c-0.132-0.118-0.198-0.269-0.198-0.45
		c0-0.217,0.09-0.388,0.27-0.513c0.18-0.126,0.43-0.188,0.751-0.188h0.445v-0.253c0-0.158-0.049-0.283-0.146-0.374
		c-0.098-0.091-0.24-0.136-0.428-0.136c-0.171,0-0.312,0.043-0.424,0.131c-0.112,0.088-0.168,0.192-0.168,0.315l-0.246-0.002
		c0-0.176,0.082-0.329,0.246-0.458s0.366-0.193,0.604-0.193c0.248,0,0.443,0.062,0.585,0.186c0.143,0.123,0.216,0.296,0.22,0.518
		v1.049c0,0.215,0.023,0.376,0.068,0.482v0.024H18.6z M17.829,15.439c0.164,0,0.311-0.039,0.44-0.118
		c0.129-0.079,0.223-0.186,0.282-0.318v-0.487h-0.439c-0.245,0.003-0.436,0.047-0.574,0.134c-0.138,0.087-0.207,0.206-0.207,0.358
		c0,0.124,0.046,0.228,0.138,0.31C17.561,15.398,17.681,15.439,17.829,15.439z"/>
	<path class="st1" d="M20.058,15.45c0.171,0,0.314-0.048,0.43-0.145c0.115-0.097,0.178-0.221,0.188-0.374h0.236
		c-0.007,0.135-0.049,0.259-0.127,0.37c-0.078,0.111-0.182,0.198-0.311,0.261c-0.129,0.063-0.268,0.095-0.416,0.095
		c-0.291,0-0.521-0.102-0.692-0.304c-0.17-0.202-0.255-0.474-0.255-0.815v-0.074c0-0.219,0.038-0.412,0.115-0.58
		s0.186-0.298,0.329-0.39c0.143-0.091,0.31-0.137,0.501-0.137c0.243,0,0.444,0.072,0.602,0.217c0.158,0.145,0.243,0.336,0.253,0.572
		h-0.236c-0.011-0.174-0.073-0.313-0.188-0.421c-0.114-0.106-0.258-0.159-0.432-0.159c-0.221,0-0.393,0.08-0.516,0.239
		c-0.122,0.16-0.184,0.385-0.184,0.673v0.071c0,0.283,0.062,0.504,0.184,0.662C19.663,15.371,19.836,15.45,20.058,15.45z"/>
	<path class="st1" d="M21.718,14.499l-0.281,0.271v0.847h-0.246v-3.148h0.246v2.015l0.231-0.25l0.849-0.834h0.31l-0.941,0.935
		l1.023,1.283h-0.293L21.718,14.499z"/>
	<path class="st1" d="M24.23,12.83v0.568h0.459v0.2H24.23v1.48c0,0.123,0.022,0.215,0.066,0.274
		c0.044,0.061,0.119,0.091,0.223,0.091c0.041,0,0.107-0.007,0.199-0.021l0.01,0.199c-0.064,0.022-0.152,0.034-0.262,0.034
		c-0.168,0-0.291-0.049-0.367-0.146s-0.115-0.241-0.115-0.432v-1.48h-0.408v-0.2h0.408V12.83H24.23z"/>
	<path class="st1" d="M24.812,14.475c0-0.214,0.041-0.405,0.124-0.576c0.083-0.171,0.2-0.304,0.351-0.398
		c0.151-0.096,0.322-0.143,0.514-0.143c0.295,0,0.534,0.104,0.717,0.311c0.183,0.207,0.274,0.481,0.274,0.823v0.051
		c0,0.215-0.041,0.407-0.124,0.579c-0.083,0.172-0.199,0.304-0.35,0.396s-0.322,0.14-0.515,0.14c-0.294,0-0.533-0.104-0.716-0.311
		c-0.184-0.207-0.276-0.481-0.276-0.823V14.475z M25.058,14.542c0,0.266,0.068,0.482,0.206,0.653c0.137,0.17,0.317,0.255,0.54,0.255
		c0.221,0,0.401-0.085,0.538-0.255c0.137-0.171,0.206-0.396,0.206-0.674v-0.047c0-0.17-0.031-0.325-0.094-0.466
		s-0.151-0.25-0.265-0.327c-0.113-0.077-0.243-0.115-0.389-0.115c-0.219,0-0.397,0.086-0.535,0.257
		c-0.138,0.172-0.207,0.396-0.207,0.674V14.542z"/>
</g>
</svg>
