<?xml version="1.0" encoding="utf-8"?>
<!-- Generator: Adobe Illustrator 22.0.0, SVG Export Plug-In . SVG Version: 6.00 Build 0)  -->
<svg version="1.1" id="Layer_1" xmlns="http://www.w3.org/2000/svg" xmlns:xlink="http://www.w3.org/1999/xlink" x="0px" y="0px"
	 viewBox="0 0 110 30" style="enable-background:new 0 0 110 30;" xml:space="preserve">
<style type="text/css">
	.st0{fill:#7DB44C;}
	.st1{fill:#649BCD;}
	.st2{fill:#F58F22;}
	.st3{fill:#00B2E3;}
	.st4{fill:#2374BB;}
	.st5{fill:#FFFFFF;}
</style>
<g>
	<g>
		<polygon class="st0" points="55.944,24.514 51.486,24.514 50.354,23.382 50.354,7.463 51.452,6.365 55.874,6.365 61.5,11.99 
			61.5,7.473 62.761,6.365 67.263,6.365 68.281,7.382 68.281,23.442 67.209,24.514 62.691,24.514 57.097,18.92 57.097,23.316 		"/>
	</g>
	<g>
		<polygon class="st1" points="97.826,17.692 93.177,17.692 93.177,13.043 97.826,13.043 97.826,14.198 103.509,14.198 
			104.527,13.181 104.527,9.671 101.043,6.365 89.961,6.365 86.404,9.901 86.404,20.978 89.961,24.514 101.043,24.514 
			104.527,21.207 104.527,17.599 103.509,16.582 97.826,16.582 		"/>
	</g>
	<polygon class="st2" points="75.099,9.737 75.099,7.467 73.997,6.365 69.379,6.365 68.281,7.463 68.281,14.263 74.054,20.036 
		74.054,23.234 75.185,24.366 79.499,24.366 80.63,23.234 80.63,20.036 86.404,14.263 86.404,7.463 85.306,6.365 80.687,6.365 
		79.585,7.467 79.585,9.737 77.381,11.94 	"/>
	<g>
		<path class="st1" d="M103.164,6.883c0-0.094,0.022-0.182,0.065-0.262c0.044-0.081,0.104-0.144,0.181-0.19s0.16-0.07,0.25-0.07
			c0.089,0,0.173,0.023,0.25,0.07s0.138,0.11,0.181,0.19c0.044,0.081,0.065,0.168,0.065,0.262c0,0.093-0.021,0.179-0.064,0.259
			c-0.042,0.08-0.102,0.144-0.179,0.193c-0.077,0.048-0.162,0.072-0.253,0.072c-0.092,0-0.176-0.024-0.254-0.072
			c-0.077-0.048-0.137-0.112-0.179-0.193C103.186,7.062,103.164,6.976,103.164,6.883z M103.224,6.883
			c0,0.083,0.019,0.161,0.058,0.233c0.039,0.072,0.092,0.128,0.16,0.17c0.068,0.041,0.141,0.062,0.219,0.062
			c0.078,0,0.151-0.021,0.219-0.062c0.068-0.041,0.121-0.098,0.16-0.17s0.058-0.15,0.058-0.233c0-0.082-0.019-0.159-0.057-0.23
			c-0.038-0.071-0.09-0.127-0.158-0.169c-0.068-0.042-0.142-0.063-0.221-0.063c-0.078,0-0.151,0.021-0.219,0.062
			s-0.121,0.098-0.16,0.169C103.243,6.723,103.224,6.8,103.224,6.883z M103.548,6.927v0.242h-0.069V6.582h0.18
			c0.069,0,0.121,0.014,0.158,0.043c0.037,0.029,0.055,0.072,0.055,0.13c0,0.062-0.033,0.108-0.099,0.138
			c0.034,0.012,0.057,0.031,0.07,0.056c0.013,0.025,0.02,0.056,0.02,0.091c0,0.035,0.001,0.061,0.003,0.077
			c0.002,0.016,0.005,0.029,0.009,0.04v0.011h-0.071c-0.006-0.017-0.01-0.059-0.01-0.128c0-0.042-0.009-0.071-0.026-0.088
			c-0.017-0.017-0.047-0.026-0.089-0.026H103.548z M103.548,6.864h0.126c0.038,0,0.069-0.01,0.093-0.029
			c0.025-0.02,0.037-0.045,0.037-0.078c0-0.04-0.01-0.068-0.03-0.085c-0.02-0.017-0.055-0.026-0.105-0.027h-0.122V6.864z"/>
	</g>
</g>
<g>
	<g>
		<rect x="1.632" y="5.265" class="st3" width="22.367" height="17.633"/>
		<polygon class="st4" points="23.999,5.265 23.999,22.898 1.632,22.898 5.701,25.61 28.081,25.61 28.081,9.334 		"/>
		<polygon class="st5" points="5.349,19.048 5.529,8.745 3.562,8.957 3.317,7.681 9.626,7.967 9.366,8.566 7.227,8.663 
			6.139,19.228 		"/>
		<g>
			<path class="st5" d="M14.535,17.84c-0.348,0.236-1.018,0.434-1.686,0.531c-2.801,0.405-3.962-1.691-4.288-3.57
				c-0.409-2.356,0.307-4.419,2.241-4.698c0.073-0.011,0.166-0.007,0.238-0.017c1.96-0.131,2.747,1.309,3.045,3.023
				c0.06,0.346,0.079,0.563,0.117,0.997l-4.614,0.312c0.371,2.565,1.725,2.893,2.845,2.832c0.09-0.013,0.183-0.01,0.274-0.023
				c0.578-0.084,0.989-0.278,1.271-0.471L14.535,17.84z M12.742,13.167c-0.26-1.5-0.966-2.361-1.906-2.225
				c-1.066,0.154-1.324,1.441-1.199,2.589L12.742,13.167z"/>
			<path class="st5" d="M19.495,21.796l0.529-4.113l-0.054-0.008c-0.374,0.554-1.239,1.054-2.215,0.913
				c-2.295-0.332-2.546-2.834-2.194-4.861c0.449-2.587,2.13-3.73,3.557-3.524c0.687,0.099,1.358,0.5,1.703,1.395l0.036,0.005
				l0.02-1.5l1.579,0.718l-0.421,2.422l-1.553,8.408L19.495,21.796z M20.488,13.628c0.155-1.211-0.363-2.282-1.321-2.42
				c-1.175-0.17-1.947,0.969-2.216,2.518c-0.235,1.351-0.126,3.495,1.465,3.725c0.615,0.089,1.669-0.333,1.84-1.846L20.488,13.628z"
				/>
		</g>
	</g>
	<g>
		<path class="st5" d="M29.958,5.926h-0.495v1.373h-0.202V5.926h-0.494V5.76h1.19V5.926z"/>
		<path class="st5" d="M30.448,5.76l0.503,1.255l0.503-1.255h0.263v1.539h-0.203V6.699l0.019-0.647l-0.505,1.246h-0.155
			l-0.504-1.243l0.02,0.644v0.599h-0.203V5.76H30.448z"/>
	</g>
</g>
<rect x="40.703" y="1.276" class="st5" width="0.442" height="27.073"/>
</svg>
