<?xml version="1.0" encoding="utf-8"?>
<!-- Generator: Adobe Illustrator 22.0.1, SVG Export Plug-In . SVG Version: 6.00 Build 0)  -->
<svg version="1.1" id="Layer_1" xmlns="http://www.w3.org/2000/svg" xmlns:xlink="http://www.w3.org/1999/xlink" x="0px" y="0px"
	 viewBox="0 0 10 8" style="enable-background:new 0 0 10 8;" xml:space="preserve">
<style type="text/css">
	.st0{fill:#00B3E3;}
	.st1{fill:#2374BB;}
	.st2{fill:#FFFFFF;}
</style>
<g>
	<rect x="0.022" y="0.013" class="st0" width="7.033" height="5.539"/>
	<polygon class="st1" points="7.054,0.013 7.054,5.552 0.022,5.552 1.322,6.419 8.355,6.419 8.355,1.313 	"/>
	<polygon class="st2" points="1.226,4.348 1.274,1.121 0.647,1.169 0.552,0.783 2.527,0.88 2.478,1.072 1.803,1.072 1.466,4.396 	
		"/>
	<g>
		<path class="st2" d="M4.116,3.962C4.02,4.058,3.779,4.107,3.586,4.107C2.671,4.252,2.333,3.625,2.237,2.999
			C2.093,2.277,2.333,1.602,2.911,1.554c0,0,0.048,0,0.096,0C3.633,1.506,3.875,1.988,3.97,2.517c0,0.096,0.048,0.193,0.048,0.337
			L2.574,2.951C2.67,3.77,3.104,3.866,3.489,3.819c0.048,0,0.048,0,0.096,0c0.096-0.048,0.241-0.145,0.337-0.193L4.116,3.962z
			 M3.538,2.517C3.441,2.036,3.249,1.794,2.96,1.794C2.574,1.843,2.527,2.228,2.574,2.613L3.538,2.517z"/>
		<path class="st2" d="M5.658,5.215l0.145-1.301l0,0C5.706,4.107,5.417,4.252,5.128,4.203c-0.723-0.096-0.82-0.915-0.723-1.541
			C4.55,1.843,5.08,1.506,5.513,1.554c0.193,0.048,0.434,0.145,0.53,0.434l0,0V1.505l0.482,0.241L6.38,2.517L5.899,5.166
			L5.658,5.215z M5.947,2.662C5.995,2.277,5.85,1.94,5.513,1.891C5.127,1.843,4.887,2.18,4.838,2.662
			C4.742,3.096,4.79,3.77,5.32,3.818C5.513,3.866,5.85,3.722,5.898,3.24L5.947,2.662z"/>
	</g>
</g>
<g>
	<path class="st2" d="M8.738,0.613V0.302H8.621V0.26h0.28v0.042H8.784v0.311H8.738z"/>
	<path class="st2" d="M8.948,0.613V0.26h0.07l0.084,0.25C9.11,0.533,9.116,0.551,9.119,0.562c0.004-0.013,0.01-0.032,0.018-0.057
		l0.085-0.246h0.063v0.353H9.24V0.318L9.137,0.613H9.095l-0.102-0.3v0.301L8.948,0.613L8.948,0.613z"/>
</g>
</svg>
