<?xml version="1.0" encoding="utf-8"?>
<!-- Generator: Adobe Illustrator 22.1.0, SVG Export Plug-In . SVG Version: 6.00 Build 0)  -->
<svg version="1.1" id="Layer_1" xmlns="http://www.w3.org/2000/svg" xmlns:xlink="http://www.w3.org/1999/xlink" x="0px" y="0px"
	 viewBox="0 0 10 8" style="enable-background:new 0 0 10 8;" xml:space="preserve">
<style type="text/css">
	.st0{fill:#00B2E3;}
	.st1{fill:#2374BA;}
	.st2{fill:#FFFFFF;}
</style>
<g>
	<g>
		<g>
			<rect x="0.121" y="1.162" class="st0" width="7.062" height="5.567"/>
			<polygon class="st1" points="7.183,1.162 7.183,6.73 0.121,6.73 1.406,7.586 8.472,7.586 8.472,2.447 			"/>
			<polygon class="st2" points="1.294,5.514 1.351,2.261 0.73,2.328 0.653,1.925 2.645,2.015 2.563,2.204 1.887,2.235 1.544,5.571 
							"/>
			<g>
				<path class="st2" d="M4.195,5.133C4.085,5.207,3.873,5.27,3.662,5.3C2.778,5.428,2.411,4.766,2.308,4.173
					C2.179,3.429,2.405,2.778,3.016,2.69c0.023-0.003,0.052-0.002,0.075-0.005C3.71,2.643,3.958,3.098,4.052,3.639
					c0.019,0.109,0.025,0.178,0.037,0.315L2.632,4.052c0.117,0.81,0.545,0.913,0.898,0.894c0.028-0.004,0.058-0.003,0.086-0.007
					C3.8,4.912,3.929,4.851,4.018,4.79L4.195,5.133z M3.628,3.657C3.546,3.184,3.323,2.912,3.027,2.955
					C2.69,3.003,2.609,3.41,2.648,3.772L3.628,3.657z"/>
				<path class="st2" d="M5.761,6.382l0.167-1.299L5.911,5.081C5.793,5.256,5.52,5.413,5.211,5.369
					C4.487,5.264,4.407,4.474,4.519,3.834C4.66,3.017,5.191,2.657,5.642,2.722C5.859,2.753,6.071,2.88,6.18,3.162l0.011,0.002
					L6.197,2.69l0.499,0.227L6.563,3.682l-0.49,2.655L5.761,6.382z M6.074,3.803C6.123,3.421,5.96,3.082,5.657,3.039
					c-0.371-0.054-0.615,0.306-0.7,0.795C4.883,4.26,4.918,4.937,5.42,5.01c0.194,0.028,0.527-0.105,0.581-0.583L6.074,3.803z"/>
			</g>
		</g>
	</g>
	<g>
		<path class="st2" d="M8.397,1.516c0-0.051,0.012-0.099,0.036-0.143c0.024-0.044,0.057-0.079,0.099-0.104s0.087-0.038,0.136-0.038
			c0.049,0,0.094,0.013,0.136,0.038s0.075,0.06,0.099,0.104c0.024,0.044,0.036,0.092,0.036,0.143c0,0.051-0.012,0.098-0.035,0.141
			S8.847,1.736,8.805,1.762C8.763,1.789,8.717,1.802,8.667,1.802c-0.05,0-0.096-0.013-0.138-0.039
			C8.487,1.736,8.454,1.701,8.431,1.657S8.397,1.567,8.397,1.516z M8.429,1.516c0,0.046,0.011,0.088,0.032,0.127
			c0.021,0.039,0.05,0.07,0.087,0.092c0.037,0.022,0.077,0.034,0.119,0.034c0.042,0,0.082-0.011,0.119-0.034
			c0.037-0.023,0.066-0.053,0.087-0.093c0.021-0.039,0.031-0.082,0.031-0.127c0-0.045-0.01-0.086-0.031-0.125
			C8.853,1.352,8.825,1.322,8.788,1.299C8.751,1.276,8.71,1.264,8.667,1.264c-0.043,0-0.082,0.011-0.119,0.034
			C8.511,1.321,8.482,1.351,8.461,1.39C8.44,1.429,8.429,1.471,8.429,1.516z M8.605,1.54v0.132H8.568v-0.32h0.098
			c0.037,0,0.066,0.008,0.086,0.023c0.02,0.016,0.03,0.039,0.03,0.071c0,0.034-0.018,0.059-0.054,0.075
			C8.747,1.528,8.76,1.538,8.767,1.552c0.007,0.014,0.011,0.03,0.011,0.05c0,0.019,0.001,0.033,0.002,0.042
			C8.78,1.652,8.782,1.66,8.784,1.665v0.006H8.745C8.742,1.662,8.74,1.639,8.74,1.602c0-0.023-0.005-0.039-0.014-0.048
			C8.716,1.544,8.7,1.54,8.677,1.54H8.605z M8.605,1.505h0.069c0.021,0,0.038-0.005,0.051-0.016c0.013-0.011,0.02-0.025,0.02-0.042
			c0-0.022-0.006-0.037-0.017-0.046s-0.03-0.014-0.057-0.015H8.605V1.505z"/>
	</g>
</g>
</svg>
