<?xml version="1.0" encoding="utf-8"?>
<!-- Generator: Adobe Illustrator 21.1.0, SVG Export Plug-In . SVG Version: 6.00 Build 0)  -->
<svg version="1.1" id="Layer_1" xmlns="http://www.w3.org/2000/svg" xmlns:xlink="http://www.w3.org/1999/xlink" x="0px" y="0px"
	 viewBox="0 0 60 10" style="enable-background:new 0 0 60 10;" xml:space="preserve">
<style type="text/css">
	.st0{fill:#D2D4D4;}
</style>
<path class="st0" d="M58.063,0.417c-8.576,0.01-48.302,0.01-56.875,0c-0.347,0-0.603,0.083-0.773,0.388c0,2.77,0,5.54,0,8.307
	C0.584,9.417,0.844,9.5,1.188,9.5c8.573-0.006,48.302-0.006,56.875,0c0.347,0,0.6-0.09,0.77-0.388c0-2.77,0-5.54,0-8.307
	C58.66,0.507,58.41,0.417,58.063,0.417z M25.94,1.559c0.643,0,1.305,0,1.988,0l8.5,6.801c-0.658,0-1.321,0-1.988,0L25.94,1.559z
	 M30.023,1.559c0.612,0,1.233,0,1.863,0l8.5,6.801c-0.614,0-1.235,0-1.863,0L30.023,1.559z M57.684,8.361c-1.862,0-7.804,0-15.202,0
	l-8.5-6.801c10.419,0,22.023,0,23.702,0C57.684,3.822,57.684,6.078,57.684,8.361z"/>
</svg>
