<?xml version="1.0" encoding="utf-8"?>
<!-- Generator: Adobe Illustrator 21.1.0, SVG Export Plug-In . SVG Version: 6.00 Build 0)  -->
<svg version="1.1" id="Layer_1" xmlns="http://www.w3.org/2000/svg" xmlns:xlink="http://www.w3.org/1999/xlink" x="0px" y="0px"
	 viewBox="0 0 123.5 30" style="enable-background:new 0 0 123.5 30;" xml:space="preserve">
<style type="text/css">
	.st0{fill:#3C4852;}
</style>
<g>
	<path class="st0" d="M10.882,17.825c0.709-2.246,1.166-4.189,1.166-6.571c0-0.794-0.118-1.605-0.456-2.331
		C11.389,8.5,11.069,8.146,10.73,7.825c-0.287-0.271-0.54-0.473-0.929-0.575c0,0.085,0.203,0.337,0.271,0.422
		c0.895,1.131,1.013,1.96,1.013,3.362c0,2.111-0.693,4.932-1.453,6.908c-0.422,1.081-1.03,2.162-1.824,3.006
		c-0.236,0.254-0.574,0.558-0.895,0.676c0-0.033-0.017-0.051-0.017-0.085c0-1.402,0.574-3.327,1.013-4.679
		C8.045,16.44,8.297,16,8.348,15.561L8.145,15.46l-0.254,0.49c-0.693,1.351-1.098,3.074-1.385,4.561
		c-0.017-0.017-0.033-0.085-0.033-0.101v-0.051c0.186-1.199,0.558-2.888,1.081-3.97c0.085-0.17,0.491-0.862,0.491-0.963v-0.085
		L7.96,15.374H7.892l-0.033-0.101c-0.101-0.033-0.219-0.118-0.321-0.118c-0.169,0-0.355,0.169-0.473,0.287
		c-0.642,0.709-0.912,1.638-1.216,2.517c-0.085,0.236-0.152,0.456-0.271,0.676c-0.49,0.895-1.993,2.77-2.837,3.294
		c-0.068,0.033-0.135,0.068-0.186,0.118l-0.051-0.033c0.574-2.939,1.689-5.27,2.939-7.939c0.102-0.236,0.541-1.082,0.541-1.267
		c0-0.389-0.558-0.743-0.878-0.879c-0.305,0.118-0.575,0.304-0.845,0.473c-0.827,0.507-1.739,0.912-2.719,0.98
		c-0.017,0.033-0.017,0.068-0.017,0.101c0,0.372,0.625,0.709,0.946,0.709c0.456,0,1.064-0.236,1.486-0.422L3.94,13.872
		c-0.946,1.638-1.841,3.277-2.398,5.101c-0.186,0.591-0.355,1.689-0.355,2.297c0,0.642,0.54,1.486,1.25,1.486
		c0.118,0,0.203-0.085,0.254-0.186c0.794,0,2.196-1.672,2.669-2.28c0,0.49,0.085,1.064,0.405,1.453
		c0.372,0.456,0.878,0.76,1.486,0.76c0.473,0,0.912-0.219,1.25-0.523c0.726-0.642,1.571-1.96,1.925-2.855
		C10.594,18.703,10.747,18.264,10.882,17.825z M8.163,15.764v0.017c-0.017,0-0.017,0-0.017-0.017H8.163z M7.993,16.084v0.017H7.977
		L7.993,16.084z M7.96,16.152l0.017,0.017v0.017c-0.017,0-0.017,0-0.017-0.017V16.152z M7.926,16.237h0.017
		c0,0.017,0,0.017-0.017,0.017V16.237z M7.791,16.541v0.017l-0.017,0.017C7.774,16.558,7.791,16.558,7.791,16.541z M7.065,16.828
		c0-0.033-0.017-0.068,0.017-0.101c0.051-0.135,0.118-0.254,0.186-0.389C7.183,16.507,7.098,16.676,7.065,16.828z M7.115,15.933
		C6.98,16.203,6.845,16.49,6.693,16.76l-0.034-0.016C6.777,16.456,6.912,16.169,7.115,15.933z M4.024,15.865
		c0.186-0.473,0.473-0.929,0.709-1.385c0.271-0.507,0.456-1.047,0.794-1.52l0.034,0.017c-0.186,0.624-0.625,1.199-0.912,1.773
		c-0.186,0.372-0.389,0.929-0.642,1.233C4.007,15.95,4.007,15.899,4.024,15.865z M4.007,16v0.033L3.5,17.115
		C3.653,16.744,3.771,16.338,4.007,16z M3.079,18.112c-0.017,0.017-0.017,0.033-0.017,0.051l-0.017-0.033L3.079,18.112z
		 M3.011,18.247l0.033,0.017l-0.068,0.085C2.977,18.315,2.994,18.28,3.011,18.247z M2.843,18.821v0.017H2.825L2.843,18.821z
		 M6.355,19.176c-0.017,0-0.017,0-0.017-0.017h0.017V19.176z M6.423,18.872v-0.017l0.017,0.017H6.423z M6.457,18.72v0.017
		L6.44,18.72H6.457z M6.474,20.696l-0.017,0.016v-0.068h0.017V20.696z M10.476,18.568l-0.017-0.017h0.017V18.568z M10.544,18.348
		v-0.017l0.017,0.017H10.544z M10.561,18.28v-0.017h0.017L10.561,18.28z M11.574,13.517v0.033c-0.017-0.017-0.017-0.017-0.017-0.033
		H11.574z M11.506,13.99h0.017c-0.017,0.017-0.017,0.017-0.017,0.033V13.99z M11.489,14.108v0.051l-0.016-0.016
		C11.473,14.126,11.473,14.126,11.489,14.108z M11.456,14.261l0.017,0.017l-0.033,0.033C11.439,14.294,11.439,14.277,11.456,14.261z
		 M11.423,14.413l0.033,0.033h-0.033V14.413z M11.388,14.531l0.033,0.017l-0.033,0.152l-0.033-0.017
		C11.355,14.632,11.371,14.581,11.388,14.531z M10.713,16.372v0.017h-0.017L10.713,16.372z M10.611,16.676h0.017v0.017h-0.017
		V16.676z M10.578,16.76l0.017,0.017h-0.017V16.76z M10.493,16.119l0.017,0.017h-0.017V16.119z M10.476,17.149h0.017l-0.017,0.017
		V17.149z M10.325,17.588l0.033,0.017c-0.033,0.033-0.033,0.068-0.051,0.101C10.307,17.672,10.307,17.622,10.325,17.588z
		 M10.156,17.234c0.017,0.017,0.017,0.033,0.017,0.051l-0.033-0.051H10.156z M10.104,18.213l0.017-0.017v0.017l-0.017,0.017V18.213z
		 M10.003,18.466c-0.017,0.051-0.017,0.118-0.033,0.135c0,0.051-0.051,0.085-0.051,0.152l-0.068,0.085
		c0.017-0.033,0.033-0.068,0.033-0.101c0.017-0.017,0.051-0.118,0.068-0.152c0.017-0.017,0.033-0.033,0.033-0.068L10.003,18.466z
		 M9.936,17.875l0.017-0.017c-0.068,0.321-0.575,1.419-0.794,1.739C9.277,19.395,9.919,18.01,9.936,17.875z M9.126,20.679
		c0.085-0.186,0.203-0.355,0.304-0.523c0.929-1.605,1.435-3.429,1.875-5.219c0.017-0.051,0.017-0.101,0.051-0.135v0.101
		C11.034,16.355,10.206,19.699,9.126,20.679z M10.122,19.412l-0.017-0.017h0.017V19.412z M10.139,19.328v-0.017
		c0.017,0,0.017,0,0.017,0.017H10.139z M10.189,19.26h-0.017l0.017-0.017V19.26z"/>
	<path class="st0" d="M13.01,16.574l-0.135,0.033l0.337,0.625c-0.152-0.033-0.304-0.068-0.456-0.068
		c-0.642,0-1.166,0.287-1.537,0.811c-0.473,0.659-0.811,1.47-0.811,2.28c0,0.997,0.608,1.706,1.638,1.706
		c0.473,0,0.929-0.321,0.963-0.811l-0.068,0.085c0,0.068-0.017,0.118-0.068,0.169v-0.068l-0.033,0.068h-0.017l-0.017,0.068h-0.017
		l0.017,0.033h-0.05v0.017l-0.033-0.017l0.017-0.051l-0.118-0.017c0.017-0.101,0.118-0.169,0.118-0.287
		c0-0.017-0.017-0.051-0.033-0.085c-0.101,0.152-0.135,0.321-0.321,0.405c0.051-0.135,0.186-0.254,0.186-0.405v-0.051l-0.017,0.017
		c-0.118,0.304-0.389,0.54-0.743,0.54c-0.236,0-0.287-0.642-0.287-0.811c0-0.135-0.017-0.422,0.051-0.558
		c1.115,0,2.567-0.879,2.567-2.111C14.141,17.352,13.685,16.794,13.01,16.574z M12.047,18.196l0.017-0.017v0.017l-0.068,0.033
		C12.013,18.213,12.013,18.196,12.047,18.196z M11.608,18.365c0,0.017-0.017,0.051-0.033,0.068h-0.017
		C11.574,18.433,11.59,18.382,11.608,18.365z M11.506,18.466c0,0.033,0,0.051-0.017,0.068C11.489,18.517,11.489,18.5,11.506,18.466z
		 M11.033,18.905h-0.017c0-0.017,0-0.017,0.017-0.017V18.905z M11.101,18.737l-0.033-0.017l0.051-0.085L11.101,18.737z
		 M11.135,18.619h-0.017l0.017-0.017V18.619z M11.354,19.496h-0.017c0-0.033,0-0.068,0.017-0.085V19.496z M11.388,18.23
		l-0.068,0.051l-0.033,0.068c-0.017,0.068-0.033,0.135-0.118,0.169c0.033-0.068,0.085-0.118,0.118-0.169v-0.017l0.033-0.051
		l0.085-0.135c0.017-0.017,0.033-0.017,0.051-0.017l-0.051,0.017C11.405,18.179,11.388,18.196,11.388,18.23z M11.422,19.311
		c0-0.355,0.321-0.827,0.558-1.064C11.827,18.619,11.54,18.939,11.422,19.311z M11.743,19.531c0.135-0.743,0.743-1.571,1.503-1.739
		v0.068C13.246,18.466,12.351,19.463,11.743,19.531z M13.128,18.787v0.017l-0.051,0.017L13.128,18.787c0-0.017,0-0.051,0.017-0.068
		L13.128,18.787z M13.229,18.619v-0.017l0.033-0.068C13.263,18.568,13.246,18.584,13.229,18.619z M13.314,18.433v-0.033h0.033
		C13.347,18.416,13.33,18.433,13.314,18.433z M13.381,19.108l0.033-0.033C13.415,19.091,13.398,19.091,13.381,19.108z
		 M13.448,18.669l-0.017,0.051h-0.017L13.448,18.669z M13.432,19.074c0.017-0.017,0.033-0.017,0.051-0.017
		C13.465,19.074,13.448,19.074,13.432,19.074z M13.482,19.041c0-0.101,0.271-0.49,0.337-0.608
		C13.752,18.652,13.651,18.872,13.482,19.041z"/>
	<path class="st0" d="M16.066,12.825c0.101-0.112,0.203-0.234,0.304-0.363c0.101-0.13,0.194-0.256,0.279-0.38
		c0.085-0.124,0.157-0.239,0.219-0.346c0.062-0.107,0.104-0.188,0.126-0.245c0.056-0.124,0.07-0.256,0.042-0.397
		c-0.029-0.141-0.09-0.271-0.186-0.389c-0.096-0.118-0.214-0.208-0.355-0.271c-0.141-0.062-0.296-0.076-0.465-0.042
		c0.023,0.068,0.031,0.149,0.025,0.245c-0.006,0.095-0.02,0.166-0.042,0.211c0-0.033-0.006-0.068-0.017-0.101
		c-0.011-0.033-0.029-0.078-0.051-0.135c-0.023,0.09-0.06,0.211-0.11,0.364c-0.051,0.152-0.104,0.315-0.161,0.49
		c-0.056,0.174-0.116,0.352-0.178,0.532c-0.062,0.18-0.116,0.337-0.161,0.473c-0.023,0.056-0.017,0.126,0.017,0.211
		c0.033,0.085,0.085,0.158,0.152,0.219c0.068,0.062,0.152,0.095,0.254,0.101C15.863,13.008,15.965,12.949,16.066,12.825z
		 M16.176,12.251c0.051-0.09,0.104-0.18,0.161-0.271c0.056-0.09,0.107-0.178,0.152-0.262c0.045-0.085,0.078-0.138,0.101-0.161
		c-0.023,0.045-0.06,0.116-0.11,0.211c-0.051,0.096-0.104,0.192-0.161,0.287c-0.056,0.095-0.11,0.18-0.161,0.254
		c-0.051,0.073-0.082,0.116-0.093,0.126C16.088,12.403,16.125,12.341,16.176,12.251z M15.788,11.887
		c-0.051,0.13-0.104,0.242-0.161,0.337c-0.056,0.095-0.101,0.161-0.135,0.194c0.023-0.023,0.062-0.099,0.118-0.228
		c0.056-0.13,0.112-0.264,0.169-0.405s0.107-0.273,0.152-0.397c0.045-0.124,0.068-0.197,0.068-0.219c0,0.09-0.023,0.2-0.068,0.329
		C15.886,11.629,15.838,11.758,15.788,11.887z"/>
	<path class="st0" d="M20.609,24.057l-0.085,0.101l-0.017-0.017l0.017-0.135l-0.473-0.118c-0.085-0.203-0.118-0.439-0.118-0.659
		c0-0.929,0.54-2.331,0.844-3.226c0.169-0.507,0.49-1.351,0.49-1.858c0-0.372-0.135-0.659-0.405-0.912
		c-0.49-0.456-1.115-0.794-1.689-1.131c-0.017-0.372-0.068-0.743-0.101-1.115c-0.068-0.591-0.405-1.115-0.963-1.351
		c-0.135-0.068-0.271-0.101-0.422-0.101c-0.49,0-0.895,0.558-0.895,1.013c0,0.895,0.895,1.385,1.537,1.824
		c-0.287,1.571-0.844,3.006-1.689,4.358c-0.219,0.337-0.439,0.642-0.726,0.929l-0.033,0.051l0.591,0.203
		c0.304-0.169,0.523-0.439,0.726-0.709c0.963-1.334,1.722-2.787,1.925-4.442c0.304,0.135,0.777,0.304,0.777,0.709
		c0,0.254-0.186,0.794-0.287,1.047c-0.405,1.081-1.115,2.922-1.115,4.054c0,0.929,0.439,2.111,1.537,2.111
		c0.254,0,0.76-0.101,0.76-0.422c0-0.068-0.017-0.135-0.051-0.203L20.609,24.057L20.609,24.057z M20.93,18.821v0.017h-0.017
		L20.93,18.821z M17.147,14.227l-0.033-0.033l0.101-0.152C17.181,14.091,17.163,14.159,17.147,14.227z M17.569,14.497
		c-0.017-0.033-0.017-0.051-0.017-0.085c0-0.085,0.051-0.152,0.101-0.203C17.62,14.311,17.603,14.413,17.569,14.497z M18.363,17.182
		l0.017,0.033l-0.017,0.017V17.182z M17.806,14.767c0-0.219,0.101-0.422,0.271-0.575c0.186,0.236,0.271,0.963,0.271,1.284
		c0,0.068-0.017,0.152-0.017,0.219C18.025,15.528,17.806,15.122,17.806,14.767z M18.329,17.352h0.017l-0.051,0.068L18.329,17.352z
		 M18.245,17.622h0.017c0,0.017-0.017,0.051-0.033,0.068C18.245,17.672,18.245,17.639,18.245,17.622z M18.228,17.706
		c0,0.017,0,0.033-0.017,0.051L18.228,17.706z M18.177,17.842l-0.051,0.219C18.11,17.993,18.126,17.909,18.177,17.842z
		 M18.093,18.112l0.033-0.017c-0.033,0.169-0.101,0.321-0.186,0.49L18.093,18.112z M17.215,20.797h-0.017l0.017-0.017V20.797z
		 M17.333,19.902l0.135-0.271C17.451,19.733,17.417,19.851,17.333,19.902z M17.839,19.767c0.355-0.794,0.642-1.588,0.895-2.415
		c0.017-0.033,0.017-0.068,0.051-0.085C18.718,17.808,18.194,19.378,17.839,19.767z M18.819,17.149h-0.017v-0.068h0.017V17.149z
		 M18.852,16.946h-0.017v-0.051h0.017V16.946z M19.95,21.912h-0.017v-0.051h0.017V21.912z M19.985,21.76h-0.017V21.71h0.017V21.76z
		 M20.052,21.524h-0.017c0-0.017,0-0.033,0.017-0.033V21.524z M20.086,21.388h-0.017l0.017-0.017V21.388z M20.103,21.253
		l0.017-0.033c0.017,0.017,0.017,0.033,0.017,0.051L20.103,21.253z M20.17,21.152h-0.017v-0.051h0.017V21.152z M20.272,20.797
		c-0.017,0-0.017,0-0.017-0.017h0.017V20.797z M20.289,20.696c0-0.017,0-0.017,0.017-0.017L20.289,20.696z M20.373,20.476v-0.017
		h0.017L20.373,20.476z M20.407,20.375v-0.033h0.017C20.423,20.358,20.423,20.375,20.407,20.375z M20.457,20.257H20.44v-0.033h0.017
		V20.257z M20.643,19.75h-0.017v-0.033h0.017V19.75z M20.677,19.632H20.66v-0.017h0.017V19.632z M20.711,19.514l-0.017-0.017h0.017
		V19.514z M20.356,18.551h0.033l-0.033,0.051V18.551z M20.069,18.297h0.017c0,0.017,0,0.051-0.017,0.068V18.297z M18.836,22.081
		l0.186-0.676l0.811-2.466c0.051-0.169,0.101-0.405,0.219-0.54c-0.254,0.912-0.574,1.79-0.862,2.686
		C19.09,21.423,18.988,21.777,18.836,22.081z M19.191,22.402c0-0.033,0-0.051,0.017-0.085c0,0.033,0.017,0.051,0.017,0.085H19.191z
		 M19.224,22.267c0.085-0.372,0.135-0.777,0.254-1.149l0.827-2.432l0.051-0.051c-0.118,0.709-0.439,1.385-0.659,2.061
		c-0.169,0.507-0.287,1.03-0.439,1.537L19.224,22.267z M20.305,19.328v0.017h-0.017L20.305,19.328z M20.052,20.054v0.017h-0.017
		L20.052,20.054z M19.832,20.73v0.017l-0.017-0.017H19.832z M19.799,20.831v0.017l-0.017-0.017H19.799z M19.765,20.949l-0.017,0.017
		v-0.017H19.765z M19.579,21.557v0.017h-0.016L19.579,21.557z M19.495,23.077c-0.017-0.101-0.017-0.203-0.017-0.304
		c0-0.355,0.068-0.693,0.169-1.03c0.355-1.149,0.726-2.314,1.131-3.446h0.033c-0.051,0.54-0.271,1.064-0.439,1.571
		c-0.287,0.827-0.591,1.656-0.76,2.5C19.562,22.605,19.545,22.841,19.495,23.077z M19.799,22.486
		c-0.017-0.017-0.017-0.017-0.017-0.033h0.017V22.486z M19.832,22.318h-0.017v-0.033h0.017V22.318z"/>
	<path class="st0" d="M23.717,16.574l-0.135,0.033l0.337,0.625c-0.152-0.033-0.304-0.068-0.456-0.068
		c-0.642,0-1.166,0.287-1.537,0.811c-0.473,0.659-0.811,1.47-0.811,2.28c0,0.997,0.608,1.706,1.638,1.706
		c0.473,0,0.929-0.321,0.963-0.811l-0.068,0.085c0,0.068-0.017,0.118-0.068,0.169v-0.068l-0.033,0.068H23.53l-0.017,0.068h-0.017
		l0.017,0.033h-0.051v0.017l-0.033-0.017l0.017-0.051l-0.118-0.017c0.017-0.101,0.118-0.169,0.118-0.287
		c0-0.017-0.017-0.051-0.033-0.085c-0.101,0.152-0.135,0.321-0.321,0.405c0.051-0.135,0.186-0.254,0.186-0.405v-0.051l-0.017,0.017
		c-0.118,0.304-0.389,0.54-0.743,0.54c-0.236,0-0.287-0.642-0.287-0.811c0-0.135-0.017-0.422,0.051-0.558
		c1.115,0,2.567-0.879,2.567-2.111C24.848,17.352,24.392,16.794,23.717,16.574z M22.754,18.196l0.017-0.017v0.017l-0.068,0.033
		C22.72,18.213,22.72,18.196,22.754,18.196z M22.315,18.365c0,0.017-0.017,0.051-0.033,0.068h-0.017
		C22.281,18.433,22.298,18.382,22.315,18.365z M22.213,18.466c0,0.033,0,0.051-0.017,0.068C22.197,18.517,22.197,18.5,22.213,18.466
		z M21.74,18.905h-0.017c0-0.017,0-0.017,0.017-0.017V18.905z M21.808,18.737l-0.033-0.017l0.051-0.085L21.808,18.737z
		 M21.842,18.619h-0.017l0.017-0.017V18.619z M22.062,19.496h-0.017c0-0.033,0-0.068,0.017-0.085V19.496z M22.095,18.23
		l-0.068,0.051l-0.033,0.068c-0.017,0.068-0.033,0.135-0.118,0.169c0.033-0.068,0.085-0.118,0.118-0.169v-0.017l0.033-0.051
		l0.085-0.135c0.017-0.016,0.034-0.016,0.051-0.016l-0.051,0.017C22.112,18.179,22.095,18.196,22.095,18.23z M22.129,19.311
		c0-0.355,0.321-0.827,0.558-1.064C22.534,18.619,22.247,18.939,22.129,19.311z M22.45,19.531c0.135-0.743,0.743-1.571,1.503-1.739
		v0.068C23.953,18.466,23.058,19.463,22.45,19.531z M23.835,18.787v0.017l-0.051,0.017L23.835,18.787c0-0.017,0-0.051,0.017-0.068
		L23.835,18.787z M23.936,18.619v-0.017l0.033-0.068C23.97,18.568,23.953,18.584,23.936,18.619z M24.02,18.433v-0.033h0.033
		C24.055,18.416,24.037,18.433,24.02,18.433z M24.088,19.108l0.033-0.033C24.122,19.091,24.105,19.091,24.088,19.108z
		 M24.156,18.669l-0.017,0.051h-0.017L24.156,18.669z M24.139,19.074c0.017-0.017,0.033-0.017,0.051-0.017
		C24.173,19.074,24.156,19.074,24.139,19.074z M24.19,19.041c0-0.101,0.271-0.49,0.337-0.608
		C24.46,18.652,24.359,18.872,24.19,19.041z"/>
	<path class="st0" d="M35.117,16.524c0.135-0.456,0.304-0.912,0.439-1.368c0.236-0.794,1.013-3.141,1.013-3.834
		c0-0.473-0.54-1.25-1.03-1.25c-0.051,0-0.101,0.051-0.118,0.101c0.068,0.101,0.118,0.219,0.118,0.337
		c0,0.337-1.166,3.277-1.368,3.902c-0.468,1.475-1.163,3.902-1.528,5.937c-0.015,0.042-0.03,0.085-0.059,0.127l-0.051,0.033h0.017
		c-0.033,0.068-0.085,0.135-0.101,0.219l-0.017-0.068l-0.101,0.186h0.017l-0.033,0.068h0.017c-0.051,0.085-0.118,0.169-0.152,0.254
		c-0.051,0.135-0.186,0.236-0.219,0.372l-0.033,0.068l-0.051,0.033l-0.033,0.068v-0.067c-0.118,0.085-0.135,0.169-0.186,0.304h0.033
		l0.017-0.017v0.017h-0.017c-0.051,0.085-0.135,0.186-0.152,0.271l-0.017-0.068l-0.118,0.085l0.152-0.287l-0.54,0.625
		c0.304-0.625,0.862-1.183,1.216-1.791l-0.085,0.085c-0.085,0.085-0.152,0.219-0.219,0.304c-0.271,0.337-0.54,0.709-0.844,1.013
		c0,0.017,0,0.017-0.017,0.017v-0.017h0.017c0.152-0.355,0.456-0.625,0.676-0.946h-0.033c-0.169,0.186-0.337,0.422-0.558,0.558
		c0-0.54,0.743-2.635,0.963-3.243c0.033-0.101,0.085-0.219,0.085-0.337c0-0.085-0.068-0.135-0.152-0.152
		c-0.186,0.355-0.321,0.743-0.49,1.115c0,0.033-0.033,0.051-0.051,0.068c0,0.017,0,0.017-0.017,0.017l0.017-0.017
		c0.152-0.405,0.304-0.811,0.439-1.233l-0.085-0.033v0.017l-0.068,0.033l0.017-0.118c-0.017-0.017-0.051-0.051-0.085-0.051
		c-0.051,0-0.085,0.033-0.101,0.068l-0.051,0.033l-0.017,0.085l-0.051,0.017c0.068-0.068,0.033-0.051,0.068-0.118l0.051-0.017
		l-0.017-0.169c-0.389,0.152-0.439,0.507-0.743,0.777l-1.621,1.453l-0.271,0.203l-0.033-0.033c0.49-1.098,1.098-2.466,2.314-2.888
		l0.49,0.135c0.017-0.033,0.033-0.068,0.033-0.101c0-0.051-0.033-0.101-0.068-0.135c-0.304-0.287-0.659-0.523-1.081-0.523
		c-0.422,0-0.844,0.236-1.182,0.473c-0.811,0.575-1.875,2.382-1.875,3.378c0,0.473,0.625,0.862,1.047,0.862
		c0.591,0,1.081-0.709,1.435-1.081l0.574-0.591c-0.186,0.895-0.389,1.791-0.389,2.702c0,0.473,0.271,0.507,0.642,0.642
		c0.615-0.489,1.286-1.601,1.711-2.468c-0.128,0.75-0.208,1.44-0.208,1.995c0,0.507,0.033,1.064,0.337,1.487
		c0.254,0.355,0.625,0.676,1.081,0.676c0.051,0,0.101-0.017,0.152-0.017c-0.017-0.203-0.101-0.422-0.152-0.625
		c-0.085-0.321-0.152-0.625-0.152-0.946c0-1.115,0.236-2.264,0.54-3.344L35.117,16.524z M35.572,13.517l0.017,0.017h-0.017V13.517z
		 M31.688,18.196c0,0.033,0,0.051-0.017,0.085C31.671,18.247,31.671,18.23,31.688,18.196z M31.671,18.297l-0.068,0.135
		c0-0.017-0.017-0.051-0.017-0.051C31.587,18.331,31.621,18.315,31.671,18.297z M31.351,19.8c0-0.017,0-0.033,0.017-0.051
		L31.351,19.8z M31.418,19.632L31.4,19.665c0-0.033,0-0.068,0.017-0.085V19.632z M31.452,18.162l-0.135,0.254
		C31.334,18.331,31.401,18.213,31.452,18.162z M31.334,19.885c-0.017,0.118-0.033,0.236-0.118,0.337
		C31.249,20.105,31.283,20.003,31.334,19.885z M31.198,20.24h0.017l-0.033,0.068L31.198,20.24z M31.181,20.375v0.085h-0.017
		C31.165,20.426,31.165,20.409,31.181,20.375z M31.097,20.73v0.051l-0.017-0.033L31.097,20.73z M31.012,21.051h0.017v0.033h-0.017
		V21.051z M29.341,18.061v0.017h-0.017C29.323,18.061,29.323,18.061,29.341,18.061z M29.273,18.179v0.017H29.24
		C29.256,18.196,29.256,18.196,29.273,18.179z M29.188,17.757h0.017l-0.051,0.033L29.188,17.757z M28.142,19.564h-0.017
		c0-0.017,0.017-0.033,0.017-0.051V19.564z M28.192,19.378l-0.033,0.085C28.158,19.429,28.175,19.395,28.192,19.378
		c0.118-0.321,0.642-1.233,0.878-1.47l0.033-0.068c0,0.085-0.152,0.271-0.203,0.337c-0.236,0.355-0.439,0.76-0.659,1.131
		C28.243,19.345,28.209,19.362,28.192,19.378z M29.07,18.433v0.033c-0.186,0.304-0.389,0.591-0.558,0.912
		C28.665,19.024,28.851,18.737,29.07,18.433z M28.395,19.649c0.033-0.033,0.033-0.101,0.068-0.118l-0.051,0.118H28.395z
		 M28.446,20.51h-0.017c0-0.017,0-0.051,0.017-0.068V20.51z M28.513,20.29c-0.017,0.051-0.033,0.085-0.068,0.118
		c0.051-0.186,0.085-0.389,0.152-0.575c0.169-0.49,0.811-1.689,1.25-1.96C29.273,18.568,28.834,19.446,28.513,20.29z M31.047,22.706
		c0-0.017,0.017-0.033,0.033-0.033L31.047,22.706z M31.097,22.655l0.118-0.152C31.215,22.587,31.148,22.605,31.097,22.655z
		 M31.215,22.571c0.017,0,0.017-0.017,0.033-0.017C31.249,22.571,31.233,22.571,31.215,22.571z M31.233,22.486l0.101-0.152
		c0,0.033-0.017,0.068-0.017,0.101L31.233,22.486z M31.334,22.419l0.017-0.017C31.351,22.419,31.351,22.419,31.334,22.419z
		 M31.418,22.402h-0.033c0.017,0,0.017-0.017,0.033-0.017V22.402z M31.485,22.267h-0.017l0.051-0.033h0.017L31.485,22.267z
		 M31.823,21.793c0-0.017,0-0.051,0.017-0.068C31.84,21.743,31.84,21.777,31.823,21.793z M35.454,13.973
		c0-0.051,0-0.118,0.017-0.169l0.033,0.017L35.454,13.973l-0.084,0.186C35.37,14.075,35.387,14.024,35.454,13.973z M33.411,21.727
		c-0.017,0.118-0.051,0.236-0.085,0.355c0.118-1.216,0.389-2.415,0.726-3.581c0.186-0.642,1.047-3.817,1.267-4.156
		c-0.271,1.149-0.676,2.264-0.997,3.395c-0.219,0.811-0.405,1.621-0.608,2.432C33.579,20.696,33.495,21.202,33.411,21.727z"/>
	<path class="st0" d="M37.599,10.072c-0.051,0-0.101,0.051-0.118,0.101c0.068,0.101,0.118,0.219,0.118,0.337
		c0,0.337-1.166,3.277-1.368,3.902c-0.659,2.078-1.774,6.047-1.774,8.141c0,0.507,0.033,1.064,0.337,1.487
		c0.254,0.355,0.625,0.676,1.081,0.676c0.051,0,0.101-0.017,0.152-0.017c-0.017-0.203-0.101-0.422-0.152-0.625
		c-0.085-0.321-0.152-0.625-0.152-0.946c0-1.115,0.236-2.264,0.54-3.344l0.912-3.26c0.135-0.456,0.304-0.912,0.439-1.368
		c0.236-0.794,1.013-3.141,1.013-3.834C38.63,10.849,38.089,10.072,37.599,10.072z M36.383,17.74
		c-0.219,0.811-0.405,1.621-0.608,2.432c-0.135,0.523-0.219,1.03-0.304,1.554c-0.017,0.118-0.051,0.236-0.085,0.355
		c0.118-1.216,0.389-2.415,0.726-3.581c0.186-0.642,1.047-3.817,1.267-4.156C37.11,15.493,36.704,16.608,36.383,17.74z
		 M37.515,13.973l-0.085,0.186C37.43,14.075,37.447,14.024,37.515,13.973c0-0.051,0-0.118,0.017-0.169l0.033,0.017L37.515,13.973z
		 M37.633,13.535v-0.017l0.017,0.017H37.633z"/>
	<path class="st0" d="M52.884,16.203c-0.743,0-1.385,0.98-1.79,1.503l-0.304-0.135c-0.443,0-0.853,0.558-1.137,1.179
		c0.002-0.021,0.006-0.042,0.006-0.064c0-0.608-0.405-1.503-1.115-1.503c-0.726,0-1.672,0.879-2.111,1.419
		c-0.186,0.219-0.304,0.507-0.54,0.676v0.017l-0.017-0.017c0.439-1.317,0.878-2.635,1.402-3.918
		c0.152-0.389,0.878-2.061,0.878-2.365c0-0.254-0.051-0.608-0.219-0.811c-0.085-0.101-0.101-0.118-0.152-0.254
		c-0.033-0.017-0.085-0.033-0.118-0.033c-0.76,0-2.584,6.334-2.888,7.398c-0.124,0.446-0.256,0.91-0.318,1.378l-0.002-0.011
		l-0.101,0.186h0.017l-0.033,0.068h0.017c-0.051,0.085-0.118,0.169-0.152,0.254c-0.051,0.135-0.186,0.236-0.219,0.372l-0.033,0.068
		l-0.051,0.033l-0.033,0.068v-0.068c-0.118,0.085-0.135,0.169-0.186,0.304h0.033l0.017-0.017v0.017h-0.017
		c-0.051,0.085-0.135,0.186-0.152,0.271l-0.017-0.068l-0.118,0.085l0.152-0.287l-0.54,0.625c0.304-0.625,0.862-1.183,1.216-1.791
		l-0.085,0.085c-0.085,0.085-0.152,0.219-0.219,0.304c-0.271,0.337-0.54,0.709-0.844,1.013c0,0.017,0,0.017-0.017,0.017v-0.017
		h0.017c0.152-0.355,0.456-0.625,0.676-0.946H43.75c-0.169,0.186-0.337,0.422-0.558,0.558c0-0.54,0.743-2.635,0.963-3.243
		c0.03-0.102,0.081-0.221,0.081-0.339c0-0.085-0.068-0.135-0.152-0.152c-0.186,0.355-0.321,0.743-0.49,1.115
		c0,0.033-0.033,0.051-0.051,0.068c0,0.017,0,0.017-0.017,0.017l0.017-0.017c0.152-0.405,0.304-0.811,0.439-1.233l-0.085-0.033
		v0.017l-0.068,0.033l0.017-0.118c-0.017-0.017-0.051-0.051-0.085-0.051c-0.051,0-0.085,0.033-0.101,0.068l-0.051,0.033
		l-0.017,0.085l-0.051,0.017c0.068-0.068,0.033-0.051,0.068-0.118l0.051-0.017l-0.017-0.169c-0.389,0.152-0.439,0.507-0.743,0.777
		l-1.621,1.453L41.01,20.19l-0.033-0.033c0.49-1.098,1.098-2.466,2.314-2.888l0.49,0.135c0.017-0.033,0.033-0.068,0.033-0.101
		c0-0.051-0.033-0.101-0.068-0.135c-0.304-0.287-0.659-0.523-1.081-0.523c-0.422,0-0.844,0.236-1.182,0.473
		c-0.811,0.575-1.875,2.382-1.875,3.378c0,0.473,0.625,0.862,1.047,0.862c0.591,0,1.081-0.709,1.435-1.081l0.574-0.591
		c-0.186,0.895-0.389,1.791-0.389,2.702c0,0.473,0.271,0.507,0.642,0.642c0.526-0.418,1.092-1.291,1.511-2.079
		c-0.005,0.079-0.008,0.158-0.008,0.237c0,0.54,0.304,0.912,0.811,1.081l0.085-0.135h0.101c0.287-1.402,1.385-3.496,2.719-4.138
		c0.186-0.085,0.422-0.186,0.625-0.186c0.101,0,0.203,0,0.287,0.051c-0.135,1.317-1.081,2.922-2.229,3.598l0.118-0.271l-0.219,0.085
		c0.017-0.033,0.068-0.101,0.068-0.152c0-0.051-0.033-0.085-0.068-0.101c-0.068,0.068-0.152,0.135-0.236,0.186l0.101-0.186v-0.033
		l0.085-0.135c-0.405,0.135-0.878,0.709-0.878,1.149c0,0.456,0.574,0.946,1.013,0.946c0.169,0,0.337-0.051,0.49-0.135
		c0.937-0.502,1.599-1.373,1.981-2.352c0.054,0.996,0.81,1.812,1.836,1.812c0.118,0,0.236-0.017,0.355-0.033
		c0.405-0.068,0.676-0.287,0.963-0.558c0.963-0.895,2.044-2.483,2.044-3.851C54.471,17.098,53.609,16.203,52.884,16.203z
		 M43.713,18.196c0,0.033,0,0.051-0.017,0.085C43.696,18.247,43.696,18.23,43.713,18.196z M43.696,18.297l-0.068,0.135
		c0-0.017-0.017-0.051-0.017-0.051C43.611,18.331,43.645,18.315,43.696,18.297z M43.375,19.8c0-0.017,0-0.033,0.017-0.051
		L43.375,19.8z M43.442,19.632l-0.017,0.033c0-0.033,0-0.068,0.017-0.085V19.632z M43.477,18.162l-0.135,0.254
		C43.358,18.331,43.426,18.213,43.477,18.162z M43.358,19.885c-0.017,0.118-0.033,0.236-0.118,0.337
		C43.274,20.105,43.308,20.003,43.358,19.885z M43.223,20.24h0.017l-0.033,0.068L43.223,20.24z M43.206,20.375v0.085h-0.017
		C43.189,20.426,43.189,20.409,43.206,20.375z M43.122,20.73v0.051l-0.017-0.033L43.122,20.73z M43.037,21.051h0.017v0.033h-0.017
		V21.051z M41.365,18.061v0.017h-0.017C41.348,18.061,41.348,18.061,41.365,18.061z M41.298,18.179v0.017h-0.033
		C41.281,18.196,41.281,18.196,41.298,18.179z M41.213,17.757h0.017l-0.051,0.033L41.213,17.757z M40.166,19.564h-0.017
		c0-0.017,0.017-0.033,0.017-0.051V19.564z M40.217,19.378l-0.033,0.085C40.183,19.429,40.2,19.395,40.217,19.378
		c0.118-0.321,0.642-1.233,0.878-1.47l0.033-0.068c0,0.085-0.152,0.271-0.203,0.337c-0.236,0.355-0.439,0.76-0.659,1.131
		C40.267,19.345,40.233,19.362,40.217,19.378z M41.095,18.433v0.033c-0.186,0.304-0.389,0.591-0.558,0.912
		C40.69,19.024,40.875,18.737,41.095,18.433z M40.419,19.649c0.033-0.033,0.033-0.101,0.068-0.118l-0.051,0.118H40.419z
		 M40.47,20.51h-0.017c0-0.017,0-0.051,0.017-0.068V20.51z M40.537,20.29c-0.017,0.051-0.033,0.085-0.068,0.118
		c0.051-0.186,0.085-0.389,0.152-0.575c0.169-0.49,0.811-1.689,1.25-1.96C41.298,18.568,40.858,19.446,40.537,20.29z M43.071,22.706
		c0-0.017,0.017-0.033,0.033-0.033L43.071,22.706z M43.122,22.655l0.118-0.152C43.24,22.587,43.172,22.605,43.122,22.655z
		 M43.24,22.571c0.017,0,0.017-0.017,0.033-0.017C43.274,22.571,43.256,22.571,43.24,22.571z M43.256,22.486l0.101-0.152
		c0,0.033-0.017,0.068-0.017,0.101L43.256,22.486z M43.358,22.419l0.017-0.017C43.375,22.419,43.375,22.419,43.358,22.419z
		 M43.442,22.402h-0.033c0.017,0,0.017-0.017,0.033-0.017V22.402z M43.51,22.267h-0.017l0.051-0.033h0.017L43.51,22.267z
		 M43.848,21.793c0-0.017,0-0.051,0.017-0.068C43.865,21.743,43.865,21.777,43.848,21.793z M46.297,19.007
		c0-0.033,0.017-0.051,0.033-0.068L46.297,19.007z M47.935,17.503l0.051-0.017c-0.068,0.085-0.591,0.372-0.726,0.507l-0.743,0.726
		C46.787,18.315,47.496,17.723,47.935,17.503z M47.986,17.774c-0.017,0.017-0.051,0.033-0.068,0.033L47.986,17.774z M47.8,17.892
		c-0.017,0.017-0.051,0.017-0.068,0.017l-0.017-0.017H47.8z M47.428,18.094v-0.033l0.051-0.033c0.017-0.051,0.051-0.068,0.101-0.068
		l0.017-0.033l0.017,0.033h0.085c-0.033,0.017-0.051,0.017-0.085,0.017l-0.033,0.051c-0.033,0.017-0.085,0.033-0.118,0.068
		c0,0.017,0,0.033-0.017,0.051c-0.085,0.051-0.169,0.101-0.236,0.169v-0.068l0.118-0.118h0.033c0.033,0.017,0.051,0.017,0.085,0.017
		C47.445,18.129,47.445,18.112,47.428,18.094z M47.141,18.398l-0.203,0.219C46.955,18.5,47.023,18.416,47.141,18.398z
		 M47.901,17.909c-0.169,0.118-0.355,0.236-0.507,0.372c-0.186,0.169-0.355,0.372-0.54,0.54
		C47.192,18.416,47.445,18.196,47.901,17.909l0.304-0.152C48.104,17.825,48.003,17.875,47.901,17.909z M48.019,17.47l0.186-0.101
		c0,0.017,0,0.033,0.017,0.051L48.019,17.47z M47.614,21.71l-0.135,0.118C47.496,21.777,47.564,21.727,47.614,21.71l0.304-0.304
		v0.017L47.614,21.71z M47.8,21.743l-0.017,0.017v-0.017H47.8z M47.885,20.933v0.033c0,0.118-0.085,0.135-0.152,0.203
		c-0.236,0.236-0.389,0.439-0.676,0.608C47.293,21.608,47.732,21.169,47.885,20.933z M47.158,22.453l-0.017-0.017
		c0.017,0,0.033,0,0.033-0.017L47.158,22.453z M48.29,21.76v-0.017h0.017L48.29,21.76z M47.242,22.402h-0.033
		c0.49-0.405,0.98-0.844,1.351-1.369C48.256,21.642,47.833,22.064,47.242,22.402z M52.63,17.115c0.017,0,0.017-0.017,0.033-0.017
		h0.017v0.017c-0.389,0.389-0.693,0.827-1.03,1.267C51.735,17.943,52.276,17.368,52.63,17.115z M51.752,17.723
		c0-0.068,0.219-0.287,0.287-0.355C51.955,17.486,51.836,17.588,51.752,17.723z M52.259,16.76h0.033
		c-0.152,0.135-0.709,0.693-0.76,0.827l-0.051,0.033C51.701,17.3,51.955,17.014,52.259,16.76z M50.891,18.179l-0.017,0.033
		c-0.017,0.118-0.355,0.642-0.439,0.76C50.535,18.686,50.671,18.398,50.891,18.179z M50.654,18.094
		c-0.017,0.085-0.085,0.186-0.152,0.236L50.654,18.094z M50.485,17.96l-0.271,0.304C50.283,18.146,50.35,18.028,50.485,17.96z
		 M50.333,19.243V19.21h0.033C50.35,19.227,50.35,19.243,50.333,19.243z M50.485,21.473C50.417,21.237,50.4,21,50.4,20.764
		c0-0.676,0.236-1.317,0.49-1.942c0.254,0.321,0.473,0.693,0.946,0.693c0.068,0,0.135-0.051,0.169-0.101
		c-0.135-0.101-0.236-0.236-0.236-0.405c0-0.54,1.166-1.942,1.722-1.942c0.033,0.068,0.051,0.152,0.051,0.219
		c0,0.118-0.033,0.219-0.051,0.337C53.221,19.125,52.022,21.051,50.485,21.473z M52.478,20.358c0-0.068,0.287-0.405,0.372-0.523
		C52.749,20.037,52.63,20.223,52.478,20.358z M52.563,20.662c-0.017,0-0.017,0-0.017-0.017L52.563,20.662z M52.731,20.443
		l0.389-0.523c0-0.017,0-0.033,0.017-0.051l-0.017,0.051c-0.101,0.186-0.254,0.355-0.372,0.54h-0.017
		C52.731,20.46,52.731,20.443,52.731,20.443z M53.407,20.29H53.39l0.017-0.017C53.407,20.273,53.407,20.29,53.407,20.29z
		 M52.445,21.202c0.017-0.068,0.068-0.118,0.101-0.169c0.422-0.54,0.827-1.081,1.149-1.689
		C53.711,19.868,52.782,20.814,52.445,21.202z"/>
	<path class="st0" d="M64.723,14.328c-0.219-0.287-0.304-0.355-0.659-0.355c-0.304,0-0.591,0-0.878,0.068
		c-0.118,0.033-0.254,0.017-0.372,0.033c0,0,0.608-1.739,0.608-1.807c0-0.152-0.169-0.236-0.271-0.321l-0.135,0.034v-0.169
		l-0.186-0.068l-0.135,0.118l0.085-0.236l-0.135,0.017l-0.068-0.101c-0.085,0.101-0.152,0.203-0.254,0.304l0.118-0.271l-0.203-0.101
		c-0.152,0-0.219,0.101-0.287,0.219c-0.236,0.405-0.507,0.827-0.693,1.267c-0.236,0.574-0.574,1.081-0.946,1.571
		c-0.372,0.085-0.76,0.118-1.131,0.219c-0.169,0.051-0.203,0.101-0.236,0.271l0.152,0.085l-0.017,0.101
		c0.118,0.152,0.337,0.321,0.507,0.372l-0.017,0.017c0.169,0,0.355-0.017,0.523-0.017c0.051,0,0.203,0,0.203,0.085
		c0,0.118-0.051,0.219-0.068,0.337c-0.068,0.473-0.186,0.946-0.271,1.419c-0.085,0.405-0.118,0.827-0.186,1.233
		c-0.095,0.612-0.183,1.231-0.261,1.852c-0.342,0.421-0.871,1.019-1.124,1.019c-0.101,0-0.101-0.101-0.101-0.169
		c0-0.017,0.051-0.169,0.051-0.186c0.287-1.065,0.49-2.179,0.862-3.226c0.101-0.271,0.321-0.676,0.321-0.946
		c0,0-0.017-0.033-0.017-0.051l-0.051,0.068c-0.033,0-0.068-0.017-0.085-0.051h-0.033l-0.118,0.118l0.051-0.186
		c-0.152-0.033-0.321-0.169-0.456-0.169c-0.101,0-0.304,0.135-0.372,0.219c-0.456,0.558-0.591,1.317-1.013,1.875
		c-0.608,0.811-1.199,1.621-1.942,2.331c0.101-0.862,0.236-1.739,0.507-2.568c0.085-0.236,0.54-1.486,0.54-1.605
		c0-0.033-0.017-0.085-0.033-0.118l-0.135-0.068l-0.152,0.068c0,0.068,0.017,0.135-0.017,0.203c-0.405,0.963-0.76,1.892-0.963,2.922
		c0,0.033-0.017,0.051-0.033,0.068c0.085-0.963,0.558-2.348,1.013-3.192l0.051-0.186c-0.051,0.017-0.169,0-0.203,0.068v-0.152
		c-0.135-0.017-0.304-0.101-0.337-0.101c-0.068,0-0.118,0.051-0.169,0.101c-0.811,0.844-1.334,3.141-1.334,4.257
		c0,0.439,0.033,0.827,0.422,1.098c0.219,0.152,0.473,0.236,0.743,0.236c0.203,0,0.337-0.051,0.473-0.186
		c0.49-0.456,0.895-1.013,1.284-1.571c0,0.355-0.033,0.726-0.033,1.081c0,0.591,0.355,0.963,0.946,0.963
		c0.556,0,1.008-0.524,1.358-1.05c-0.086,0.858-0.142,1.717-0.142,2.569c0,0.591,0,1.739,0.625,2.061
		c0.203,0.101,0.422,0.152,0.625,0.254l0.101-0.152c0.017,0.033,0.033,0.085,0.085,0.085c0.118,0,0.337-0.051,0.337-0.203
		c0-0.051,0-0.085-0.017-0.135c-0.101-0.422-0.169-0.879-0.169-1.317c0-1.098,0.135-2.213,0.304-3.294
		c0.337-2.044,0.693-4.088,1.3-6.064c0.608-0.101,2.111-0.236,2.5-0.709C64.858,14.497,64.723,14.463,64.723,14.328z M59.268,17.318
		h0.017l-0.017,0.017V17.318z M56.311,17.132l0.017,0.017h-0.017V17.132z M56.143,17.571v0.017h-0.017L56.143,17.571z
		 M55.889,17.031h0.017c-0.017,0.033-0.051,0.068-0.085,0.101C55.822,17.081,55.822,17.031,55.889,17.031z M55.484,17.909h-0.017
		c0-0.017,0-0.033,0.017-0.051V17.909z M55.569,17.014c0.017-0.033,0-0.101,0.051-0.101l0.033,0.017
		C55.619,16.946,55.602,16.98,55.569,17.014l-0.337,0.659C55.298,17.436,55.416,17.199,55.569,17.014z M55.011,18.331h-0.017v-0.017
		h0.017V18.331z M55.163,20.257c0.017-0.051,0.017-0.118,0.017-0.169c0.017,0.068,0.017,0.118,0.017,0.186L55.163,20.257z
		 M56.717,20.105L56.7,20.087h0.017V20.105z M59.183,17.199c-0.068,0.186-0.051,0.135-0.203,0.236L59.183,17.199z M58.964,17.486
		v0.033h-0.017C58.947,17.503,58.964,17.503,58.964,17.486z M58.17,18.956c0.017,0,0.017,0,0.033,0.017l-0.033,0.051V18.956z
		 M58.102,19.21h0.017l-0.017,0.051V19.21z M57.916,19.868h0.017v0.033h-0.017V19.868z M57.325,19.21
		c0.033-0.101,0.068-0.219,0.203-0.236L57.325,19.21z M57.63,19.8l-0.017-0.033c0.017-0.017,0.017-0.017,0.033-0.017L57.63,19.8z
		 M57.899,21.371c0.068-0.676,0.591-3.006,0.963-3.48v-0.033h0.017c-0.017,0.017-0.017,0.017-0.017,0.033
		c-0.203,0.827-0.456,1.638-0.693,2.466C58.068,20.696,58.001,21.034,57.899,21.371z M59.74,22.453h-0.016v-0.219h0.017
		L59.74,22.453L59.74,22.453z M62.003,12.385l0.033-0.068C62.037,12.335,62.02,12.369,62.003,12.385
		c0,0.033-0.017,0.068-0.033,0.085L62.003,12.385z M61.969,12.503c0,0.017,0,0.017-0.017,0.033
		C61.953,12.521,61.969,12.521,61.969,12.503z M61.851,13.787c0-0.017,0-0.017,0.017-0.033
		C61.868,13.771,61.851,13.771,61.851,13.787c-0.033,0.169-0.051,0.355-0.186,0.49C61.699,14.108,61.717,13.923,61.851,13.787z
		 M61.463,15.679h0.017c0,0.017,0,0.017-0.017,0.033V15.679z M61.413,15.832l0.033,0.017l-0.033,0.085V15.832z M61.311,14.091
		l-0.017,0.017C61.294,14.091,61.294,14.091,61.311,14.091z M60.601,14.446c0-0.033,0.033-0.068,0.068-0.068l-0.068,0.101V14.446z
		 M59.808,21.727H59.79v-0.203h0.017V21.727z M59.858,21.237h-0.033l0.073-0.611c0.015-0.025,0.031-0.051,0.046-0.076
		C59.913,20.779,59.883,21.01,59.858,21.237z M59.97,20.371c-0.015,0.02-0.032,0.039-0.048,0.059l0.012-0.099
		c0.019-0.026,0.036-0.052,0.053-0.079C59.981,20.291,59.975,20.33,59.97,20.371z M60.006,20.115
		c-0.015,0.002-0.031,0.004-0.047,0.005l0.011-0.097c0.016-0.016,0.03-0.034,0.04-0.053l-0.031-0.02l0.014-0.114l0.051,0.017
		C60.031,19.938,60.019,20.027,60.006,20.115z M60.061,19.615c0-0.54,0.558-3.75,0.794-4.121c-0.355,1.385-0.558,2.804-0.794,4.206
		V19.615z M60.094,22.943h-0.017v-0.169h0.017V22.943z M60.112,22.52h-0.017v-0.033h0.017V22.52z M60.146,22.165h-0.017l0.017-0.321
		h0.017L60.146,22.165z M60.213,21.675h-0.033c0-0.085,0.017-0.152,0.017-0.236h0.016V21.675z M60.247,21.152
		c0-0.693,0.777-5.372,1.081-5.76c-0.203,0.98-0.422,1.942-0.608,2.922c-0.186,0.963-0.321,1.942-0.473,2.922
		C60.247,21.237,60.247,21.152,60.247,21.152z M61.378,16.136l-0.033,0.068l-0.017-0.017L61.378,16.136z M61.311,16.338v0.051
		h-0.033L61.311,16.338z M61.227,16.71v0.051H61.21V16.71H61.227z M61.175,16.93v0.034h-0.017L61.175,16.93z M61.142,17.098
		l-0.017,0.085h-0.017c0.017-0.033,0.017-0.051,0.017-0.085H61.142z M61.091,17.318v0.051h-0.017v-0.051H61.091z M60.703,23.128
		h-0.017v-0.051h0.017V23.128z M60.753,22.622h-0.017c0-0.033,0-0.068,0.017-0.085V22.622z M60.821,22.064h-0.017v-0.051h0.017
		V22.064z M60.382,24.783c-0.033-0.254-0.033-0.523-0.033-0.777c0-1.47,0.236-2.956,0.456-4.408c0.236-1.419,0.49-2.872,0.912-4.257
		l0.152-0.017C61.057,18.416,60.517,21.591,60.382,24.783z M60.872,21.675h-0.017v-0.068h0.017V21.675z M60.906,21.321v-0.068h0.017
		L60.906,21.321z M60.956,21c-0.017-0.017-0.017-0.051-0.017-0.068h0.017c0,0.017,0,0.051,0.017,0.068H60.956z M61.007,20.713
		h-0.017v-0.118h0.017V20.713z M61.057,20.375H61.04v-0.068h0.017V20.375z M61.108,20.105h-0.017v-0.135h0.017V20.105z
		 M61.159,19.818h-0.033v-0.101h0.033V19.818z M61.175,19.547v-0.085h0.017c0.017,0.033,0.017,0.051,0.017,0.085H61.175z
		 M61.243,19.26h-0.017v-0.068h0.017V19.26z M61.294,19.058h-0.033l0.017-0.118h0.017L61.294,19.058L61.294,19.058z M61.311,18.804
		v-0.101h0.017c0.017,0.033,0.017,0.068,0.017,0.101H61.311z M61.378,18.584h-0.017v-0.135h0.017V18.584z M61.429,18.348
		c-0.017,0-0.017,0-0.033-0.017l0.017-0.101h0.017L61.429,18.348L61.429,18.348z M61.463,18.129h-0.017V18.01h0.017V18.129z
		 M61.514,17.892h-0.017v-0.101h0.017V17.892z M61.564,17.689l-0.033-0.017l0.033-0.085V17.689z M61.581,17.538
		c0-0.033-0.017-0.051-0.017-0.085s0.033-0.068,0.068-0.068L61.581,17.538z M61.632,17.368c0-0.033-0.017-0.051-0.017-0.085
		c0-0.051,0.033-0.068,0.068-0.085L61.632,17.368z M61.682,17.182c-0.017-0.051-0.017-0.101-0.017-0.152h0.033
		C61.699,17.081,61.682,17.132,61.682,17.182z M61.733,16.93h-0.033c0-0.033,0.017-0.051,0.033-0.085V16.93z M61.75,16.777
		l-0.017,0.017c0-0.017,0-0.033,0.017-0.051V16.777z M61.936,16.136v0.017h-0.017c-0.017,0.085-0.051,0.186-0.085,0.271v0.017
		l-0.033,0.135l-0.017,0.051c0-0.017,0-0.033,0.017-0.051c0-0.051,0.017-0.085,0.017-0.135l0.017-0.017c0-0.101,0-0.203,0.085-0.271
		L61.936,16.136c-0.017-0.033-0.017-0.068-0.017-0.101c0-0.068,0.033-0.135,0.085-0.186C61.969,15.95,61.953,16.034,61.936,16.136z
		 M62.054,15.662l-0.051,0.118c0.017-0.068,0.017-0.118,0.051-0.186V15.662z M62.206,12.081c0.017-0.068,0.051-0.118,0.085-0.186
		v0.033L62.206,12.081c0,0.017-0.017,0.051-0.033,0.068C62.172,12.133,62.189,12.098,62.206,12.081z M62.24,12.859l-0.051,0.033
		v-0.033H62.24z M62.139,15.358c0,0.051-0.017,0.101-0.068,0.118l0.068-0.186V15.358z M62.273,14.075
		c-0.017,0.068-0.051,0.135-0.135,0.135h-0.033c0-0.135,0.389-1.098,0.473-1.25c0.051-0.068,0.118-0.135,0.169-0.219
		C62.577,13.196,62.443,13.636,62.273,14.075z"/>
	<path class="st0" d="M67.661,16.524c0.135-0.456,0.304-0.912,0.439-1.368c0.236-0.794,1.013-3.141,1.013-3.834
		c0-0.473-0.54-1.25-1.03-1.25c-0.051,0-0.101,0.051-0.118,0.101c0.068,0.101,0.118,0.219,0.118,0.337
		c0,0.337-1.166,3.277-1.368,3.902c-0.659,2.078-1.774,6.047-1.774,8.141c0,0.507,0.033,1.064,0.337,1.487
		c0.254,0.355,0.625,0.676,1.081,0.676c0.051,0,0.101-0.017,0.152-0.017c-0.017-0.203-0.101-0.422-0.152-0.625
		c-0.085-0.321-0.152-0.625-0.152-0.946c0-1.115,0.236-2.264,0.54-3.344L67.661,16.524z M68.117,13.517l0.017,0.017h-0.017V13.517z
		 M67.999,13.973c0-0.051,0-0.118,0.017-0.169l0.033,0.017L67.999,13.973l-0.084,0.186C67.915,14.075,67.931,14.024,67.999,13.973z
		 M65.955,21.727c-0.017,0.118-0.051,0.236-0.085,0.355c0.118-1.216,0.389-2.415,0.726-3.581c0.186-0.642,1.047-3.817,1.267-4.156
		c-0.271,1.149-0.676,2.264-0.997,3.395c-0.219,0.811-0.405,1.621-0.608,2.432C66.124,20.696,66.04,21.202,65.955,21.727z"/>
	<path class="st0" d="M69.434,21.405v-0.068l-0.033,0.068h-0.017l-0.017,0.068h-0.017l0.017,0.033h-0.051v0.017l-0.033-0.017
		l0.017-0.051l-0.118-0.017c0.017-0.101,0.118-0.169,0.118-0.287c0-0.017-0.017-0.051-0.033-0.085
		c-0.101,0.152-0.135,0.321-0.321,0.405c0.051-0.135,0.186-0.254,0.186-0.405v-0.051l-0.017,0.017
		c-0.118,0.304-0.389,0.54-0.743,0.54c-0.236,0-0.287-0.642-0.287-0.811c0-0.135-0.017-0.422,0.051-0.558
		c1.115,0,2.568-0.879,2.568-2.111c0-0.743-0.456-1.301-1.131-1.52l-0.135,0.033l0.337,0.625c-0.152-0.033-0.304-0.068-0.456-0.068
		c-0.642,0-1.166,0.287-1.537,0.811c-0.473,0.659-0.811,1.47-0.811,2.28c0,0.997,0.608,1.706,1.638,1.706
		c0.473,0,0.929-0.321,0.963-0.811l-0.068,0.085C69.502,21.304,69.485,21.355,69.434,21.405z M69.688,18.787v0.017l-0.051,0.017
		L69.688,18.787c0-0.017,0-0.051,0.017-0.068L69.688,18.787z M70.38,18.433c-0.068,0.219-0.169,0.439-0.337,0.608
		C70.042,18.939,70.312,18.551,70.38,18.433z M69.992,19.074c0.017-0.017,0.033-0.017,0.051-0.017
		C70.025,19.074,70.009,19.074,69.992,19.074z M70.009,18.669l-0.017,0.051h-0.017L70.009,18.669z M69.975,19.074
		c0,0.017-0.017,0.017-0.033,0.033L69.975,19.074z M69.874,18.398h0.033c0,0.017-0.017,0.033-0.033,0.033V18.398z M69.789,18.619
		v-0.017l0.033-0.068C69.823,18.568,69.806,18.584,69.789,18.619z M69.806,17.79v0.068c0,0.608-0.895,1.605-1.503,1.672
		C68.438,18.787,69.045,17.96,69.806,17.79z M68.607,18.196l0.017-0.017v0.017l-0.068,0.033
		C68.573,18.213,68.573,18.196,68.607,18.196z M68.167,18.365c0,0.017-0.017,0.051-0.033,0.068h-0.017
		C68.134,18.433,68.15,18.382,68.167,18.365z M68.066,18.466c0,0.033,0,0.051-0.017,0.068C68.049,18.517,68.049,18.5,68.066,18.466z
		 M67.593,18.905h-0.017c0-0.017,0-0.017,0.017-0.017V18.905z M67.66,18.737l-0.033-0.017l0.051-0.085L67.66,18.737z M67.695,18.619
		h-0.017l0.017-0.017V18.619z M67.914,19.496h-0.017c0-0.033,0-0.068,0.017-0.085V19.496z M67.948,18.23l-0.068,0.051l-0.033,0.068
		c-0.017,0.068-0.033,0.135-0.118,0.169c0.033-0.068,0.085-0.118,0.118-0.169v-0.017l0.033-0.051l0.085-0.135
		c0.017-0.017,0.033-0.017,0.051-0.017l-0.051,0.017C67.965,18.179,67.948,18.196,67.948,18.23z M68.539,18.247
		c-0.152,0.372-0.439,0.693-0.558,1.064C67.982,18.956,68.303,18.483,68.539,18.247z"/>
	<path class="st0" d="M77.98,24.057l-0.085,0.101l-0.017-0.017l0.017-0.135l-0.473-0.118c-0.085-0.203-0.118-0.439-0.118-0.659
		c0-0.929,0.54-2.331,0.844-3.226c0.169-0.507,0.49-1.351,0.49-1.858c0-0.372-0.135-0.659-0.405-0.912
		c-0.49-0.456-1.115-0.794-1.689-1.131c-0.017-0.372-0.068-0.743-0.101-1.115c-0.068-0.591-0.405-1.115-0.963-1.351
		c-0.135-0.068-0.271-0.101-0.422-0.101c-0.49,0-0.895,0.558-0.895,1.013c0,0.895,0.895,1.385,1.537,1.824
		c-0.287,1.571-0.844,3.006-1.689,4.358c-0.05,0.076-0.099,0.15-0.149,0.223c0.233-0.838,0.638-1.979,0.791-2.401
		c0.033-0.101,0.085-0.219,0.085-0.337c0-0.085-0.068-0.135-0.152-0.152c-0.186,0.355-0.321,0.743-0.49,1.115
		c0,0.033-0.033,0.051-0.051,0.068c0,0.017,0,0.017-0.017,0.017l0.017-0.017c0.152-0.405,0.304-0.811,0.439-1.233l-0.085-0.033
		v0.017l-0.068,0.033l0.017-0.118c-0.017-0.017-0.051-0.051-0.085-0.051c-0.051,0-0.085,0.033-0.101,0.068l-0.051,0.033
		l-0.017,0.085l-0.051,0.017c0.068-0.068,0.033-0.051,0.068-0.118l0.051-0.017l-0.017-0.169c-0.389,0.152-0.439,0.507-0.743,0.777
		l-1.621,1.453l-0.271,0.203l-0.033-0.033c0.49-1.098,1.098-2.466,2.314-2.888l0.49,0.135c0.017-0.033,0.033-0.068,0.033-0.101
		c0-0.051-0.033-0.101-0.068-0.135c-0.304-0.287-0.659-0.523-1.081-0.523s-0.844,0.236-1.182,0.473
		c-0.811,0.575-1.875,2.382-1.875,3.378c0,0.473,0.625,0.862,1.047,0.862c0.591,0,1.081-0.709,1.435-1.081l0.574-0.591
		c-0.186,0.895-0.389,1.791-0.389,2.702c0,0.473,0.271,0.507,0.642,0.642c0.743-0.591,1.571-2.095,1.942-2.973
		c-0.068,0.101-0.135,0.186-0.186,0.287v-0.017c-0.017,0.051-0.033,0.101-0.068,0.152l-0.051,0.033h0.017
		c-0.033,0.068-0.085,0.135-0.101,0.219l-0.017-0.068l-0.101,0.186h0.017l-0.033,0.068h0.017c-0.051,0.085-0.118,0.169-0.152,0.254
		c-0.051,0.135-0.186,0.236-0.219,0.372l-0.033,0.068l-0.051,0.033L74.37,21.71v-0.068c-0.118,0.085-0.135,0.169-0.186,0.304h0.033
		l0.017-0.017v0.017h-0.017c-0.051,0.085-0.135,0.186-0.152,0.271l-0.017-0.068l-0.118,0.085l0.152-0.287l-0.54,0.625
		c0.134-0.277,0.32-0.54,0.514-0.8c0.201-0.161,0.364-0.364,0.516-0.567c0.963-1.334,1.722-2.787,1.925-4.442
		c0.304,0.135,0.777,0.304,0.777,0.709c0,0.254-0.186,0.794-0.287,1.047c-0.405,1.081-1.115,2.922-1.115,4.054
		c0,0.929,0.439,2.111,1.537,2.111c0.254,0,0.76-0.101,0.76-0.422c0-0.068-0.017-0.135-0.051-0.203L77.98,24.057L77.98,24.057z
		 M78.301,18.821v0.017h-0.017L78.301,18.821z M74.518,14.227l-0.033-0.033l0.101-0.152C74.552,14.091,74.534,14.159,74.518,14.227z
		 M74.94,14.497c-0.017-0.033-0.017-0.051-0.017-0.085c0-0.085,0.051-0.152,0.101-0.203C74.991,14.311,74.974,14.413,74.94,14.497z
		 M74.214,18.196c0,0.033,0,0.051-0.017,0.085C74.197,18.247,74.197,18.23,74.214,18.196z M74.197,18.297l-0.068,0.135
		c0-0.017-0.017-0.051-0.017-0.051C74.112,18.331,74.146,18.315,74.197,18.297z M71.867,18.061v0.017h-0.017
		C71.849,18.061,71.849,18.061,71.867,18.061z M71.799,18.179v0.017h-0.033C71.782,18.196,71.782,18.196,71.799,18.179z
		 M71.714,17.757h0.017l-0.051,0.033L71.714,17.757z M70.667,19.564H70.65c0-0.017,0.017-0.033,0.017-0.051V19.564z M70.718,19.378
		l-0.033,0.085C70.684,19.429,70.701,19.395,70.718,19.378c0.118-0.321,0.642-1.233,0.878-1.47l0.033-0.068
		c0,0.085-0.152,0.271-0.203,0.337c-0.236,0.355-0.439,0.76-0.659,1.131C70.769,19.345,70.734,19.362,70.718,19.378z M71.596,18.433
		v0.033c-0.186,0.304-0.389,0.591-0.558,0.912C71.191,19.024,71.377,18.737,71.596,18.433z M70.92,19.649
		c0.033-0.033,0.033-0.101,0.068-0.118l-0.051,0.118H70.92z M70.971,20.51h-0.017c0-0.017,0-0.051,0.017-0.068V20.51z M71.038,20.29
		c-0.017,0.051-0.033,0.085-0.068,0.118c0.051-0.186,0.085-0.389,0.152-0.575c0.169-0.49,0.811-1.689,1.25-1.96
		C71.799,18.568,71.36,19.446,71.038,20.29z M74.366,21.727c0,0.017,0,0.051-0.017,0.068C74.349,21.777,74.349,21.743,74.366,21.727
		z M73.741,22.571c0.017,0,0.017-0.017,0.033-0.017C73.775,22.571,73.758,22.571,73.741,22.571z M74.045,22.233h0.017l-0.051,0.033
		h-0.017L74.045,22.233z M73.943,22.385v0.017H73.91C73.927,22.402,73.927,22.385,73.943,22.385z M73.859,22.419l0.017-0.017
		C73.876,22.419,73.876,22.419,73.859,22.419z M73.859,22.335c0,0.033-0.017,0.068-0.017,0.101l-0.085,0.051L73.859,22.335z
		 M73.741,22.503c0,0.085-0.068,0.101-0.118,0.152L73.741,22.503z M73.606,22.672l-0.033,0.033
		C73.572,22.689,73.589,22.672,73.606,22.672z M73.876,19.8c0-0.017,0-0.033,0.017-0.051L73.876,19.8z M73.943,19.632l-0.017,0.033
		c0-0.033,0-0.068,0.017-0.085V19.632z M73.978,18.162l-0.135,0.254C73.859,18.331,73.927,18.213,73.978,18.162z M73.859,19.885
		c-0.017,0.118-0.033,0.236-0.118,0.337C73.775,20.105,73.809,20.003,73.859,19.885z M73.724,20.24h0.017l-0.033,0.068L73.724,20.24
		z M73.707,20.375v0.085H73.69C73.69,20.426,73.69,20.409,73.707,20.375z M73.623,20.73v0.051l-0.017-0.033L73.623,20.73z
		 M73.555,21.084h-0.017v-0.033h0.017V21.084z M73.606,22.182c0,0.017,0,0.017-0.017,0.017v-0.017H73.606
		c0.045-0.104,0.104-0.201,0.168-0.293l0.068,0.024c0.01-0.006,0.018-0.013,0.027-0.018C73.784,21.994,73.696,22.092,73.606,22.182z
		 M75.734,17.182l0.017,0.033l-0.017,0.017V17.182z M75.177,14.767c0-0.219,0.101-0.422,0.271-0.575
		c0.186,0.236,0.271,0.963,0.271,1.284c0,0.068-0.017,0.152-0.017,0.219C75.396,15.528,75.177,15.122,75.177,14.767z M75.7,17.352
		h0.017l-0.051,0.068L75.7,17.352z M75.615,17.622h0.017c0,0.017-0.017,0.051-0.033,0.068
		C75.615,17.672,75.615,17.639,75.615,17.622z M75.599,17.706c0,0.017,0,0.033-0.017,0.051L75.599,17.706z M75.548,17.842
		l-0.051,0.219C75.481,17.993,75.497,17.909,75.548,17.842z M75.464,18.112l0.033-0.017c-0.033,0.169-0.101,0.321-0.186,0.49
		L75.464,18.112z M74.586,20.797h-0.017l0.017-0.017V20.797z M74.704,19.902l0.135-0.271C74.822,19.733,74.788,19.851,74.704,19.902
		z M75.21,19.767c0.355-0.794,0.642-1.588,0.895-2.415c0.017-0.033,0.017-0.068,0.051-0.085
		C76.089,17.808,75.565,19.378,75.21,19.767z M76.19,17.149h-0.017v-0.068h0.017C76.19,17.081,76.19,17.149,76.19,17.149z
		 M76.223,16.946h-0.017v-0.051h0.017V16.946z M77.321,21.912h-0.017v-0.051h0.017V21.912z M77.356,21.76h-0.017V21.71h0.017
		C77.356,21.71,77.356,21.76,77.356,21.76z M77.423,21.524h-0.017c0-0.017,0-0.033,0.017-0.033V21.524z M77.457,21.388H77.44
		l0.017-0.017V21.388z M77.474,21.253l0.017-0.033c0.017,0.017,0.017,0.033,0.017,0.051L77.474,21.253z M77.541,21.152h-0.017
		v-0.051h0.017V21.152z M77.642,20.797c-0.017,0-0.017,0-0.017-0.017h0.017V20.797z M77.66,20.696c0-0.017,0-0.017,0.017-0.017
		L77.66,20.696z M77.744,20.476v-0.017h0.017L77.744,20.476z M77.778,20.375v-0.033h0.017
		C77.794,20.358,77.794,20.375,77.778,20.375z M77.828,20.257h-0.017v-0.033h0.017C77.828,20.224,77.828,20.257,77.828,20.257z
		 M78.014,19.75h-0.017v-0.033h0.017V19.75z M78.048,19.632h-0.016v-0.017h0.017L78.048,19.632L78.048,19.632z M78.082,19.514
		l-0.017-0.017h0.017V19.514z M77.727,18.551h0.033l-0.033,0.051V18.551z M77.44,18.297h0.017c0,0.017,0,0.051-0.017,0.068V18.297z
		 M76.207,22.081l0.186-0.676l0.811-2.466c0.051-0.169,0.101-0.405,0.219-0.54c-0.254,0.912-0.574,1.79-0.862,2.686
		C76.46,21.423,76.359,21.777,76.207,22.081z M76.562,22.402c0-0.033,0-0.051,0.017-0.085c0,0.033,0.017,0.051,0.017,0.085H76.562z
		 M76.595,22.267c0.085-0.372,0.135-0.777,0.254-1.149l0.827-2.432l0.051-0.051c-0.118,0.709-0.439,1.385-0.659,2.061
		c-0.169,0.507-0.287,1.03-0.439,1.537L76.595,22.267z M77.676,19.328v0.017h-0.017L77.676,19.328z M77.423,20.054v0.017h-0.017
		L77.423,20.054z M77.203,20.73v0.017l-0.017-0.017H77.203z M77.17,20.831v0.017l-0.017-0.017H77.17z M77.135,20.949l-0.017,0.017
		v-0.017H77.135z M76.95,21.557v0.017h-0.017L76.95,21.557z M76.866,23.077c-0.017-0.101-0.017-0.203-0.017-0.304
		c0-0.355,0.068-0.693,0.169-1.03c0.355-1.149,0.726-2.314,1.131-3.446h0.033c-0.051,0.54-0.271,1.064-0.439,1.571
		c-0.287,0.827-0.591,1.656-0.76,2.5C76.933,22.605,76.916,22.841,76.866,23.077z M77.17,22.486
		c-0.017-0.017-0.017-0.017-0.017-0.033h0.017V22.486z M77.203,22.318h-0.017v-0.033h0.017V22.318z"/>
	<path class="st0" d="M83.233,23.381c0-1.131,1.216-4.561,1.672-5.743c0.085-0.236,0.355-0.929,0.355-1.149
		c0-0.389-0.625-0.726-0.946-0.777c-0.186,0.051-0.304,0.186-0.439,0.321c-0.422,0.456-0.827,0.929-1.233,1.402
		c-1.047,1.216-1.942,2.533-2.888,3.834l-0.033-0.017c0.337-0.98,0.996-3.058,0.996-4.037c0-0.473-0.287-0.912-0.693-1.115
		c-0.033-0.017-0.203-0.101-0.236-0.101c-0.068,0-0.135,0-0.169,0.085c0.017,0.085,0.051,0.169,0.051,0.254
		c0,0.456-0.152,0.963-0.287,1.385c-0.271,0.929-0.862,2.939-0.862,3.851c0,0.507,0.507,0.963,0.997,0.963
		c0.118,0,0.169-0.017,0.271-0.101c0.439-0.389,1.3-1.841,1.656-2.415c0.558-0.895,1.182-1.824,1.925-2.584
		c0.051-0.051,0.101-0.068,0.152-0.101c-0.186,0.49-0.405,0.963-0.558,1.47c-0.321,1.03-0.844,2.483-0.844,3.547
		c0,0.794,0.186,1.605,1.149,1.605c0.101,0,0.169-0.068,0.169-0.169C83.283,23.702,83.233,23.55,83.233,23.381z M84.584,16.541
		l0.017,0.017l-0.017,0.051V16.541z M84.482,16.828c-0.068,0.186-0.169,0.372-0.253,0.558
		C84.296,17.182,84.364,16.996,84.482,16.828z M84.28,16.524v0.085c-0.169,0.337-0.355,0.676-0.507,1.013l-0.051,0.033v0.135
		l-0.051-0.017l0.051-0.118C83.891,17.267,84.06,16.878,84.28,16.524z M80.041,21.76c0-0.033,0.017-0.051,0.033-0.068L80.041,21.76z
		 M80.53,21.084l-0.068,0.085c0.017-0.068,0.085-0.152,0.135-0.203C80.581,21,80.547,21.034,80.53,21.084z M80.547,20.865
		l0.017-0.017C80.564,20.865,80.564,20.865,80.547,20.865z M80.345,20.73c0.068-0.118,0.152-0.254,0.254-0.355
		C80.513,20.493,80.446,20.612,80.345,20.73z M81.459,19.074c0.726-1.03,1.554-1.976,2.415-2.888l0.033,0.033l-0.051,0.068
		c-0.862,1.064-1.841,2.027-2.601,3.159c-0.118,0.169-0.203,0.355-0.337,0.507c-0.068,0.085-0.135,0.118-0.169,0.219l-0.068,0.085
		C80.885,19.835,81.189,19.463,81.459,19.074z M81.139,19.902v-0.033h0.033c0,0,0.033,0.017,0.051,0.017
		c-0.017,0.017-0.033,0.017-0.051,0.017v0.1h-0.068c0,0.017,0,0.051-0.017,0.068c-0.017-0.017-0.017-0.033-0.017-0.051V19.97
		l0.033,0.017c0.017,0,0.051,0,0.068,0.017C81.172,19.986,81.139,19.902,81.139,19.902z M81.02,20.139l-0.017,0.051h-0.085
		c0.017-0.017,0.033-0.051,0.033-0.068h0.051L81.02,20.139z M80.716,20.645h-0.017l0.017-0.017V20.645z M80.75,20.73
		c0.068-0.152,0.169-0.287,0.287-0.422C80.953,20.459,80.851,20.594,80.75,20.73z M81.071,20.443v-0.033l0.017,0.017L81.071,20.443z
		 M81.037,20.29c0.051-0.135,0.152-0.236,0.219-0.355C81.206,20.071,81.121,20.189,81.037,20.29z M81.307,19.784
		c-0.051,0-0.068,0.033-0.068,0.085c-0.017-0.017-0.017-0.051-0.017-0.068v-0.051l0.033,0.017
		C81.273,19.767,81.29,19.767,81.307,19.784c0-0.033,0-0.068-0.017-0.101V19.65h0.017c0,0,0.033,0.017,0.051,0.017l-0.033,0.015
		C81.324,19.717,81.324,19.75,81.307,19.784z M81.375,19.8l-0.033,0.033l0.051-0.101L81.375,19.8z M81.628,19.547v-0.033
		l0.017-0.017C81.645,19.514,81.645,19.531,81.628,19.547z M81.611,19.496v0.017c-0.033,0.017-0.068,0.033-0.101,0.068l0.135-0.203
		C81.645,19.412,81.628,19.48,81.611,19.496z M82.574,18.264c-0.051,0.033-0.203,0.236-0.219,0.287l-0.085,0.085h-0.033
		l-0.068,0.101l0.033,0.017c-0.033,0.017-0.051,0.051-0.068,0.085l-0.051,0.033c-0.033,0.101-0.101,0.186-0.169,0.271h-0.033
		l-0.118,0.068c0.033-0.051,0.051-0.101,0.068-0.169c-0.186,0.219-0.304,0.372-0.456,0.608l-0.017-0.068v-0.051
		c0.676-0.98,1.419-1.909,2.264-2.753c-0.186,0.236-1.013,1.131-1.098,1.334c0.219-0.152,0.372-0.372,0.558-0.575v0.068l0.033,0.017
		C83.013,17.672,82.607,18.162,82.574,18.264z M83.452,17.234c-0.085,0.051-0.118,0.118-0.186,0.186
		c-0.068,0-0.101,0.033-0.152,0.068l0.659-0.726l-0.186,0.254C83.587,17.115,83.486,17.149,83.452,17.234z M83.655,17.875v0.033
		h-0.017C83.638,17.892,83.655,17.892,83.655,17.875z M83.554,18.179l-0.017,0.017v-0.017H83.554z M82.996,22.283h-0.017v-0.051
		h0.017V22.283z M83.047,22.132l-0.051-0.017l0.118-0.422C83.097,21.845,83.08,21.979,83.047,22.132z M83.114,21.659
		c0.389-1.554,1.064-3.732,1.774-5.152l0.051,0.017c-0.321,0.912-0.709,1.791-1.03,2.703c-0.271,0.76-0.439,1.571-0.726,2.331
		C83.165,21.591,83.148,21.625,83.114,21.659z"/>
	<path class="st0" d="M86.628,17.486c0.118-0.017,0.203,0.085,0.321,0.085c0.051,0,0.101-0.017,0.152-0.051
		c0-0.219-0.068-0.456-0.068-0.676c0-0.405,0.186-0.76,0.186-1.166c0-0.118-0.068-0.219-0.169-0.287l-0.085,0.017v-0.169
		l-0.203-0.033l0.033-0.118l-0.169-0.085c-0.033,0.033-0.068,0.068-0.118,0.085V14.97l-0.085-0.017l-0.051-0.068
		c-0.321,0-0.507,0.879-0.507,1.131C85.867,16.49,86.222,17.25,86.628,17.486z"/>
	<path class="st0" d="M92.1,23.787c-0.152-0.085-0.203-0.236-0.203-0.405c0-1.131,1.216-4.561,1.672-5.743
		c0.085-0.236,0.355-0.929,0.355-1.149c0-0.389-0.625-0.726-0.946-0.777c-0.186,0.051-0.304,0.186-0.439,0.321
		c-0.422,0.456-0.827,0.929-1.233,1.402c-1.047,1.216-1.942,2.533-2.888,3.834l-0.033-0.017c0.337-0.98,0.997-3.058,0.997-4.037
		c0-0.473-0.287-0.912-0.693-1.115c-0.033-0.017-0.203-0.101-0.236-0.101c-0.068,0-0.135,0-0.169,0.085
		c0.017,0.085,0.051,0.169,0.051,0.254c0,0.456-0.152,0.963-0.287,1.385c-0.143,0.492-0.375,1.285-0.563,2.06
		c-0.068,0.089-0.134,0.179-0.197,0.271c-0.422,0.625-0.827,1.284-1.3,1.875c0-0.017-0.017-0.051-0.017-0.051
		c0-0.017,0.017-0.017,0.017-0.033l0.372-1.25c0.186-0.608,0.405-1.183,0.405-1.824c0-0.811-0.608-1.199-1.351-1.301
		c-0.051,0.017-0.152,0.051-0.152,0.118c0,0.085,0.051,0.169,0.051,0.254v0.068c-0.051,0.693-0.219,1.368-0.405,2.044
		c-0.236,0.862-0.456,1.824-0.456,2.736c0,0.507,0.355,0.777,0.844,0.777c0.135,0,0.236-0.017,0.337-0.118
		c0.389-0.422,0.929-1.166,1.267-1.656c0.108-0.157,0.209-0.32,0.311-0.484c-0.015,0.134-0.024,0.258-0.024,0.366
		c0,0.507,0.507,0.963,0.996,0.963c0.118,0,0.169-0.017,0.271-0.101c0.439-0.389,1.3-1.841,1.656-2.415
		c0.558-0.895,1.182-1.824,1.925-2.584c0.051-0.051,0.101-0.068,0.152-0.101c-0.186,0.49-0.405,0.963-0.558,1.47
		c-0.321,1.03-0.844,2.483-0.844,3.547c0,0.794,0.186,1.605,1.149,1.605C92.032,23.956,92.1,23.888,92.1,23.787z M86.121,19.632
		h0.033c-0.017,0.033-0.017,0.085-0.033,0.101V19.632z M85.293,22.757H85.26c0.085-0.608,0.304-1.199,0.473-1.791
		c0.118-0.389,0.169-0.794,0.372-1.149C85.834,20.797,85.546,21.777,85.293,22.757z M86.543,21.71
		c0.033-0.068,0.068-0.152,0.152-0.169L86.543,21.71z M86.746,21.439v-0.033c0-0.101,0.068-0.135,0.152-0.152L86.746,21.439z
		 M87.397,20.15c-0.445,0.65-0.887,1.298-1.327,1.948c-0.033,0.051-0.118,0.101-0.169,0.152c0.152-0.304,0.389-0.558,0.574-0.844
		c0.287-0.473,0.608-0.929,0.895-1.402c0.028-0.047,0.061-0.093,0.093-0.139C87.44,19.96,87.418,20.056,87.397,20.15z
		 M93.248,16.541l0.017,0.017l-0.017,0.051V16.541z M93.146,16.828c-0.068,0.186-0.169,0.372-0.254,0.558
		C92.96,17.182,93.028,16.996,93.146,16.828z M92.944,16.524v0.085c-0.169,0.337-0.355,0.676-0.507,1.013l-0.051,0.033v0.135
		l-0.051-0.017l0.051-0.118C92.555,17.267,92.724,16.878,92.944,16.524z M88.705,21.76c0-0.033,0.017-0.051,0.033-0.068
		L88.705,21.76z M89.194,21.084l-0.068,0.085c0.017-0.068,0.085-0.152,0.135-0.203C89.245,21,89.211,21.034,89.194,21.084z
		 M89.211,20.865l0.017-0.017C89.228,20.865,89.228,20.865,89.211,20.865z M89.009,20.73c0.068-0.118,0.152-0.254,0.254-0.355
		C89.177,20.493,89.11,20.612,89.009,20.73z M90.123,19.074c0.726-1.03,1.554-1.976,2.415-2.888l0.033,0.033l-0.051,0.068
		c-0.862,1.064-1.841,2.027-2.601,3.159c-0.118,0.169-0.203,0.355-0.337,0.507c-0.068,0.085-0.135,0.118-0.169,0.219l-0.068,0.085
		C89.549,19.835,89.853,19.463,90.123,19.074z M89.803,19.902v-0.033h0.033c0,0,0.033,0.017,0.051,0.017
		c-0.017,0.017-0.033,0.017-0.051,0.017v0.1h-0.068c0,0.017,0,0.051-0.017,0.068c-0.017-0.017-0.017-0.033-0.017-0.051V19.97
		l0.033,0.017c0.017,0,0.051,0,0.068,0.017C89.836,19.986,89.803,19.902,89.803,19.902z M89.684,20.139l-0.017,0.051h-0.085
		c0.017-0.017,0.033-0.051,0.033-0.068h0.051L89.684,20.139z M89.38,20.645h-0.017l0.017-0.017V20.645z M89.414,20.73
		c0.068-0.152,0.169-0.287,0.287-0.422C89.617,20.459,89.515,20.594,89.414,20.73z M89.735,20.443v-0.033l0.017,0.017L89.735,20.443
		z M89.701,20.29c0.051-0.135,0.152-0.236,0.219-0.355C89.87,20.071,89.785,20.189,89.701,20.29z M89.971,19.784
		c-0.051,0-0.068,0.033-0.068,0.085c-0.017-0.017-0.017-0.051-0.017-0.068v-0.051l0.033,0.017
		C89.937,19.767,89.954,19.767,89.971,19.784c0-0.033,0-0.068-0.017-0.101V19.65h0.017c0,0,0.033,0.017,0.051,0.017l-0.033,0.017
		C89.988,19.717,89.988,19.75,89.971,19.784z M90.039,19.8l-0.033,0.033l0.051-0.101L90.039,19.8z M90.292,19.547v-0.033
		l0.017-0.017C90.309,19.514,90.309,19.531,90.292,19.547z M90.275,19.496v0.017c-0.033,0.017-0.068,0.033-0.101,0.068l0.135-0.203
		C90.309,19.412,90.292,19.48,90.275,19.496z M91.238,18.264c-0.051,0.033-0.203,0.236-0.219,0.287l-0.085,0.085h-0.033
		l-0.068,0.101l0.033,0.017c-0.033,0.017-0.051,0.051-0.068,0.085l-0.051,0.033c-0.033,0.101-0.101,0.186-0.169,0.271h-0.033
		l-0.118,0.068c0.033-0.051,0.051-0.101,0.068-0.169c-0.186,0.219-0.304,0.372-0.456,0.608l-0.017-0.068v-0.051
		c0.676-0.98,1.418-1.909,2.264-2.753c-0.186,0.236-1.013,1.131-1.098,1.334c0.219-0.152,0.372-0.372,0.558-0.575v0.068l0.033,0.017
		C91.677,17.672,91.271,18.162,91.238,18.264z M92.116,17.234c-0.085,0.051-0.118,0.118-0.186,0.186
		c-0.068,0-0.101,0.033-0.152,0.068l0.659-0.726l-0.186,0.254C92.251,17.115,92.15,17.149,92.116,17.234z M92.319,17.875v0.033
		h-0.017C92.302,17.892,92.319,17.892,92.319,17.875z M92.218,18.179l-0.017,0.017v-0.017H92.218z M91.66,22.283h-0.017v-0.051
		h0.017V22.283z M91.711,22.132l-0.051-0.017l0.118-0.422C91.761,21.845,91.745,21.979,91.711,22.132z M91.778,21.659
		c0.389-1.554,1.064-3.732,1.774-5.152l0.051,0.017c-0.321,0.912-0.709,1.791-1.03,2.703c-0.271,0.76-0.439,1.571-0.726,2.331
		C91.829,21.591,91.812,21.625,91.778,21.659z"/>
	<path class="st0" d="M96.237,16.777c-1.621,0-2.888,2.027-2.888,3.513c0,0.827,0.709,1.537,1.537,1.537
		c0.777,0,1.216-0.76,1.757-1.199c-0.033,0.507-0.135,1.369-0.405,1.791c-0.051-0.152-0.203-0.254-0.355-0.287l-0.068-0.135
		c-0.642,0.321-1.149,0.743-1.638,1.25c-0.963,0.98-2.618,3.496-2.618,4.882c0,0.625,0.743,1.03,1.3,1.03
		c0.726,0,1.47-0.575,1.942-1.064c1.216-1.267,1.875-2.837,2.382-4.493c0.389-1.267,0.507-2.618,0.507-3.953
		c0-0.169-0.085-0.321-0.236-0.405l-0.659-0.389c-0.287,0.236-0.473,0.659-0.676,0.963c-0.304,0.49-0.693,0.895-1.182,1.199
		c-0.118,0.068-0.219,0.135-0.355,0.135h-0.085c0-0.051-0.017-0.085-0.017-0.135c0-1.351,1.149-3.378,2.652-3.378
		c0.236,0,0.709,0.337,0.912,0.473c0.017-0.068,0.051-0.135,0.051-0.203c0-0.051-0.033-0.101-0.068-0.152
		C97.622,17.166,96.946,16.777,96.237,16.777z M95.966,21.034c-0.017,0.017-0.051,0.017-0.068,0.017v-0.017H95.966V21
		c0-0.118,0.118-0.186,0.203-0.254L95.966,21.034z M96.406,20.645h-0.017l0.051-0.033L96.406,20.645z M96.355,20.527
		c0.051-0.085,0.118-0.169,0.186-0.236C96.507,20.375,96.44,20.476,96.355,20.527z M96.625,20.021l0.017-0.017h0.017
		C96.642,20.021,96.642,20.021,96.625,20.021z M96.372,23.213h0.017l-0.017,0.017V23.213z M96.254,23.635l-0.017,0.017v-0.017
		H96.254z M94.481,24.04c0,0.017,0,0.017-0.017,0.017L94.481,24.04z M93.923,23.905c0,0.017,0,0.017-0.017,0.017L93.923,23.905z
		 M92.099,26.979c0.051-0.169,0.591-1.301,0.676-1.368l-0.574,1.149C92.201,26.844,92.15,26.912,92.099,26.979z M92.724,26.338
		l-0.033,0.033C92.691,26.354,92.707,26.338,92.724,26.338z M92.335,27.992h-0.033l0.033-0.085V27.992z M92.673,26.912
		c0.304-0.625,0.676-1.233,1.013-1.841l0.101-0.085c-0.085,0.186-0.186,0.355-0.287,0.523c-0.287,0.49-0.575,0.98-0.794,1.503
		c-0.118,0.287-0.169,0.608-0.372,0.862C92.453,27.554,92.521,27.216,92.673,26.912z M92.774,28.246l-0.118,0.051h-0.051
		c0.017-1.435,2.466-4.679,3.631-5.49C95.646,24.665,94.548,27.266,92.774,28.246z M96.169,23.888l-0.033,0.101
		C96.136,23.956,96.152,23.922,96.169,23.888z M95.68,25.02c-0.017,0.017-0.017,0.051-0.017,0.068l-0.051,0.068
		C95.629,25.105,95.646,25.054,95.68,25.02z M94.97,26.371c0.203-0.405,0.422-0.811,0.642-1.199
		C95.443,25.56,95.24,26.034,94.97,26.371z M95.308,26.456c-0.017,0.017-0.051,0.033-0.068,0.033L95.308,26.456z M95.054,26.76
		v0.033h-0.017C95.038,26.776,95.038,26.76,95.054,26.76z M96.288,25.527h-0.017l0.017-0.017V25.527z M96.963,23.01l0.033,0.017
		c-0.017,0.017-0.017,0.068-0.033,0.085V23.01z M96.963,23.128v0.085h-0.051L96.963,23.128z M96.862,23.348h0.051
		c-0.017,0.085-0.051,0.152-0.085,0.219L96.862,23.348z M96.811,23.618c-0.101,0.287-0.152,0.575-0.254,0.862
		c-0.337,0.997-0.895,2.128-1.588,2.922c0.118-0.271,0.304-0.523,0.456-0.777c0.54-0.912,0.98-1.875,1.317-2.872
		C96.76,23.702,96.778,23.652,96.811,23.618z M96.693,19.294l0.033,0.017c-0.017,0.068-0.169,0.236-0.236,0.337L96.693,19.294z
		 M96.456,20.24h0.017l-0.033,0.033C96.44,20.257,96.456,20.257,96.456,20.24z M96.406,19.784c-0.169,0.236-0.355,0.456-0.523,0.676
		L96.406,19.784z M94.869,17.723h0.017l-0.051,0.051L94.869,17.723z M94.869,18.162l-0.017,0.033v-0.051L94.869,18.162z
		 M94.126,18.584c0.101-0.186,0.254-0.372,0.389-0.523C94.463,18.162,94.21,18.534,94.126,18.584z M94.345,19.75l-0.033-0.017
		l0.051-0.051C94.345,19.699,94.345,19.733,94.345,19.75z M94.666,19.041c-0.085,0.169-0.152,0.321-0.271,0.49
		c0.118-0.54,0.456-1.047,0.878-1.402c0.033-0.033,0.068-0.051,0.118-0.051C95.122,18.348,94.852,18.686,94.666,19.041z"/>
	<path class="st0" d="M99.944,20.814c-0.096-0.124-0.211-0.211-0.346-0.262c-0.135-0.051-0.279-0.064-0.43-0.042
		c-0.152,0.023-0.284,0.085-0.397,0.186c0.033-0.045,0.085-0.101,0.152-0.169c-0.124,0.045-0.211,0.124-0.262,0.236
		s-0.087,0.219-0.11,0.321c-0.023,0.068-0.033,0.13-0.033,0.186v0.017v0.017c0,0.236,0.076,0.422,0.228,0.558
		c0.152,0.135,0.326,0.205,0.523,0.211c0.197,0.006,0.377-0.056,0.54-0.186c0.163-0.13,0.25-0.329,0.262-0.6
		C100.081,21.096,100.04,20.938,99.944,20.814z M99.674,21.338c0.006-0.112-0.003-0.192-0.025-0.236
		c0.056,0.056,0.073,0.147,0.051,0.271c-0.023,0.124-0.079,0.197-0.169,0.219C99.62,21.535,99.668,21.45,99.674,21.338z
		 M99.8,21.752c-0.079,0.096-0.186,0.161-0.321,0.194c0.192-0.056,0.332-0.194,0.422-0.414c0.09-0.219,0.078-0.448-0.033-0.684
		c0.045,0.056,0.078,0.141,0.101,0.254c0.023,0.112,0.02,0.226-0.008,0.337C99.933,21.552,99.879,21.656,99.8,21.752z"/>
</g>
</svg>
