<?xml version="1.0" encoding="utf-8"?>
<!-- Generator: Adobe Illustrator 22.0.1, SVG Export Plug-In . SVG Version: 6.00 Build 0)  -->
<svg version="1.1" id="Layer_1" xmlns="http://www.w3.org/2000/svg" xmlns:xlink="http://www.w3.org/1999/xlink" x="0px" y="0px"
	 viewBox="0 0 25 25" style="enable-background:new 0 0 25 25;" xml:space="preserve">
<style type="text/css">
	.st0{fill:#FFFFFF;}
</style>
<path class="st0" d="M11.856,1.5C5.879,1.5,1.033,6.346,1.033,12.323c0,5.978,4.846,10.823,10.823,10.823
	c5.977,0,10.823-4.845,10.823-10.823C22.678,6.346,17.833,1.5,11.856,1.5z M14.174,12.327h-1.517c0,2.423,0,5.407,0,5.407H10.41
	c0,0,0-2.954,0-5.407H9.342v-1.91h1.069V9.18c0-0.885,0.42-2.268,2.268-2.268l1.665,0.007v1.855c0,0-1.012,0-1.208,0
	c-0.197,0-0.477,0.098-0.477,0.52v1.123h1.713L14.174,12.327z"/>
</svg>
