<?xml version="1.0" encoding="utf-8"?>
<!-- Generator: Adobe Illustrator 21.1.0, SVG Export Plug-In . SVG Version: 6.00 Build 0)  -->
<svg version="1.1" id="Layer_1" xmlns="http://www.w3.org/2000/svg" xmlns:xlink="http://www.w3.org/1999/xlink" x="0px" y="0px"
	 viewBox="0 0 75 30" style="enable-background:new 0 0 75 30;" xml:space="preserve">
<style type="text/css">
	.st0{fill:#00B3E3;}
</style>
<g>
	<polygon class="st0" points="17.303,6.062 10.853,5.768 11.104,7.073 13.115,6.857 12.931,17.388 13.739,17.573 14.85,6.773 
		17.038,6.673 	"/>
	<path class="st0" d="M20.451,15.526c-0.092,0.013-0.187,0.008-0.28,0.023c-1.144,0.061-2.529-0.273-2.908-2.896l4.717-0.318
		c-0.039-0.444-0.059-0.665-0.12-1.019c-0.304-1.753-1.109-3.225-3.113-3.091c-0.074,0.011-0.169,0.007-0.243,0.018
		c-1.977,0.286-2.709,2.395-2.291,4.802c0.335,1.92,1.521,4.063,4.383,3.649c0.684-0.099,1.368-0.302,1.724-0.543l-0.571-1.109
		C21.463,15.243,21.042,15.441,20.451,15.526z M18.54,9.103c0.961-0.139,1.682,0.742,1.948,2.275l-3.173,0.372
		C17.186,10.576,17.449,9.26,18.54,9.103z"/>
	<path class="st0" d="M28.784,9.779l-0.036-0.006c-0.352-0.914-1.039-1.324-1.742-1.425c-1.46-0.211-3.176,0.957-3.637,3.602
		c-0.36,2.071-0.103,4.63,2.243,4.969c0.998,0.144,1.881-0.367,2.265-0.934l0.056,0.008l-0.541,4.205l1.01-0.147l1.585-8.597
		l0.43-2.477l-1.612-0.735L28.784,9.779z M28.406,11.849l-0.237,2.021c-0.174,1.546-1.253,1.977-1.881,1.887
		c-1.626-0.235-1.737-2.427-1.497-3.807c0.275-1.584,1.065-2.748,2.265-2.573C28.035,9.515,28.565,10.611,28.406,11.849z"/>
	<rect x="33.137" y="0.263" class="st0" width="0.255" height="23.371"/>
</g>
<g>
	<path class="st0" d="M42.208,12.201H38.3v2.66h4.586v1.635h-6.621V6.617h6.607v1.648H38.3v2.354h3.908V12.201z"/>
	<path class="st0" d="M46.176,14.101l1.364-4.946h2.049l-2.477,7.342h-1.873l-2.477-7.342h2.05L46.176,14.101z"/>
	<path class="st0" d="M53.394,16.632c-1.076,0-1.953-0.33-2.629-0.99c-0.677-0.661-1.015-1.541-1.015-2.64v-0.19
		c0-0.737,0.143-1.396,0.428-1.978s0.688-1.029,1.211-1.344c0.522-0.313,1.118-0.471,1.788-0.471c1.004,0,1.795,0.316,2.371,0.949
		c0.577,0.634,0.865,1.531,0.865,2.693v0.801h-4.675c0.063,0.479,0.254,0.864,0.573,1.153c0.319,0.29,0.723,0.435,1.211,0.435
		c0.756,0,1.346-0.273,1.771-0.821l0.963,1.079c-0.294,0.416-0.691,0.741-1.194,0.974C54.561,16.516,54.005,16.632,53.394,16.632z
		 M53.17,10.6c-0.389,0-0.705,0.132-0.946,0.396c-0.242,0.264-0.397,0.641-0.465,1.132h2.728V11.97
		c-0.01-0.437-0.127-0.773-0.353-1.012C53.907,10.719,53.586,10.6,53.17,10.6z"/>
	<path class="st0" d="M58.983,9.154l0.062,0.849c0.524-0.656,1.228-0.983,2.11-0.983c0.777,0,1.356,0.228,1.736,0.685
		s0.574,1.14,0.584,2.049v4.743h-1.961V11.79c0-0.417-0.091-0.72-0.271-0.908c-0.181-0.188-0.481-0.282-0.902-0.282
		c-0.552,0-0.966,0.236-1.242,0.708v5.188h-1.96V9.154H58.983z"/>
	<path class="st0" d="M66.961,7.35v1.805h1.255v1.438h-1.255v3.664c0,0.271,0.052,0.466,0.156,0.584
		c0.104,0.117,0.303,0.176,0.597,0.176c0.218,0,0.409-0.016,0.577-0.047v1.485c-0.385,0.118-0.78,0.177-1.188,0.177
		c-1.375,0-2.076-0.694-2.104-2.083v-3.956h-1.072V9.154H65V7.35H66.961z"/>
	<path class="st0" d="M72.938,14.468c0-0.24-0.119-0.429-0.356-0.567c-0.237-0.138-0.619-0.261-1.144-0.369
		c-1.746-0.366-2.619-1.108-2.619-2.226c0-0.651,0.271-1.195,0.812-1.632c0.54-0.437,1.247-0.654,2.12-0.654
		c0.932,0,1.677,0.219,2.235,0.657c0.559,0.439,0.838,1.009,0.838,1.71h-1.961c0-0.28-0.091-0.512-0.271-0.695
		c-0.181-0.183-0.464-0.274-0.848-0.274c-0.33,0-0.586,0.074-0.767,0.224c-0.182,0.149-0.271,0.339-0.271,0.57
		c0,0.217,0.103,0.393,0.309,0.525c0.206,0.134,0.553,0.249,1.041,0.346c0.489,0.098,0.9,0.207,1.235,0.329
		c1.036,0.381,1.554,1.038,1.554,1.975c0,0.67-0.287,1.211-0.861,1.625c-0.575,0.414-1.316,0.621-2.226,0.621
		c-0.615,0-1.162-0.109-1.639-0.329c-0.478-0.22-0.852-0.521-1.123-0.902s-0.407-0.795-0.407-1.238h1.859
		c0.018,0.349,0.146,0.615,0.387,0.801c0.239,0.186,0.561,0.278,0.963,0.278c0.376,0,0.659-0.071,0.852-0.214
		S72.938,14.698,72.938,14.468z"/>
</g>
</svg>
