<?xml version="1.0" encoding="utf-8"?>
<!-- Generator: Adobe Illustrator 22.0.1, SVG Export Plug-In . SVG Version: 6.00 Build 0)  -->
<svg version="1.1" id="Layer_1" xmlns="http://www.w3.org/2000/svg" xmlns:xlink="http://www.w3.org/1999/xlink" x="0px" y="0px"
	 viewBox="0 0 1600 650" style="enable-background:new 0 0 1600 650;" xml:space="preserve">
<style type="text/css">
	.st0{opacity:0.8;fill:#9A95C9;enable-background:new    ;}
	.st1{fill:#FFFFFF;}
</style>
<rect y="-0.4" class="st0" width="1600" height="721.5"/>
<g>
	<path class="st1" d="M961.6,249.1c1.5-2.5,3.9-3.7,7-3.7c2.8,0,4.7,0.6,5.7,1.8c1.1,1.2,1.6,3.2,1.6,5.8v32.7h16.2v-33.4
		c-0.1-6.5-1.5-11.3-4.1-14.5c-2.7-3.2-6.7-4.8-12.1-4.8c-6.3,0-11.2,2.3-14.8,7l-0.5-6.1h-15.1v51.8h16.1L961.6,249.1L961.6,249.1z
		"/>
	<path class="st1" d="M918.5,286.7c7.7,0,13.7-2.4,18.2-7.1s6.7-11.1,6.7-19.2v-0.6c0-8.3-2.2-14.8-6.7-19.6
		c-4.3-4.8-10.4-7.2-18.2-7.2c-5.1,0-9.5,1.1-13.3,3.3s-6.7,5.3-8.7,9.3s-3,8.6-3,13.8v2.7c0.4,7.6,2.8,13.5,7.2,18
		C905.2,284.5,911.1,286.7,918.5,286.7z M909.7,257.4c0.4-8,3.4-12,8.8-12c5.9,0,8.9,4.6,8.9,13.9v1.6c-0.1,8.8-3.1,13.3-8.8,13.3
		c-2.9,0-5.2-1.1-6.7-3.4c-1.5-2.2-2.2-5.7-2.2-10.5V257.4z"/>
	<path class="st1" d="M875.9,226.2c1.7,1.5,3.8,2.2,6.5,2.2c2.6,0,4.8-0.7,6.5-2.2s2.5-3.4,2.5-5.7s-0.9-4.2-2.5-5.7
		c-1.7-1.5-3.8-2.2-6.5-2.2s-4.8,0.7-6.5,2.2s-2.5,3.4-2.5,5.7S874.2,224.7,875.9,226.2z"/>
	<rect x="874.4" y="233.9" class="st1" width="16.2" height="51.8"/>
	<path class="st1" d="M765.5,286.6c5.8,0,10.4-2.2,13.8-6.6l0.5,5.6h15.1v-51.8h-16.2v36.4c-1.6,2.6-4.2,4-7.9,4
		c-4.3,0-6.5-2.2-6.5-6.7v-33.6h-16.1v33.5c0,6.2,1.5,10.9,4.4,14.2S759.8,286.6,765.5,286.6z"/>
	<path class="st1" d="M732.5,285.7v-32.8c1.4-3.2,4.7-4.8,9.8-4.8l5.3,0.4l0.3-15c-1.3-0.4-2.8-0.6-4.5-0.6
		c-4.9,0.1-8.7,2.6-11.4,7.7l-0.5-6.7h-15.1v51.8L732.5,285.7L732.5,285.7z"/>
	<path class="st1" d="M667.7,274.6c-1.1,0.9-2.8,1.3-5,1.3c-2.4,0-4.4-0.5-5.9-1.7s-2.3-2.8-2.4-5.2h-15.1c0,3,1,5.9,2.9,8.7
		c1.9,2.7,4.7,4.9,8.1,6.5c3.5,1.6,7.4,2.4,11.9,2.4c6.7,0,12.1-1.5,16.3-4.5s6.3-6.8,6.3-11.5c0-6.9-3.9-11.7-11.7-14.4
		c-2.3-0.8-5-1.5-8.1-2.1s-5.3-1.3-6.7-2.2s-2.1-2.1-2.1-3.5s0.6-2.6,1.7-3.5c1.1-0.9,2.6-1.4,4.3-1.4c4.4,0,6.6,2.1,6.6,6.2H685
		c0-1.7-0.3-3.2-0.7-4.7h5.9v25.7c0,5.3,1.3,9.3,4,11.9c2.6,2.6,6.7,3.9,12.3,3.9c3.2,0,6.2-0.5,9.1-1.4v-11.5
		c-1.1,0.2-2.4,0.3-4,0.3c-2.1,0-3.5-0.4-4.2-1.1c-0.7-0.8-1.1-2.1-1.1-4.1V245h8.5v-11.2h-8.5V221h-16.1v12.9h-6.6v9.4
		c-1-2.2-2.6-4.1-4.8-5.7c-4.1-3.1-9.6-4.6-16.5-4.6c-6.3,0-11.5,1.5-15.4,4.6s-5.9,7-5.9,11.7c0,2.7,0.7,5.1,2.1,7.1
		c1.4,2.1,3.4,3.8,6,5.3s5.9,2.6,10,3.5c4,0.9,6.7,1.8,8.2,2.6c1.4,0.8,2.2,1.9,2.2,3.3C669.3,272.6,668.8,273.7,667.7,274.6z"/>
	<path class="st1" d="M621.7,317c-5,0-9.1,1.9-12.2,5.7l-0.5-4.8h-15.1v71.7H610v-24.2c3.1,3.5,7,5.2,11.7,5.2
		c6.2,0,11-2.4,14.7-7.2c3.6-4.8,5.4-11.2,5.4-19.3v-0.8c0-8.2-1.8-14.7-5.3-19.4C633.1,319.3,628.1,317,621.7,317z M625.8,344.9
		c-0.2,8.9-2.8,13.3-7.9,13.3c-3.8,0-6.3-1.4-7.8-4.3v-20.4c1.3-2.7,3.8-4.1,7.7-4.1c5.4,0,8,4.6,8,13.8V344.9z"/>
	<path class="st1" d="M607.7,285.7v-36.6c1.5-2.5,3.9-3.7,7-3.7c2.8,0,4.7,0.6,5.7,1.8c1.1,1.2,1.6,3.2,1.6,5.8v32.7h16.2v-33.4
		c-0.1-6.5-1.5-11.3-4.1-14.5c-2.7-3.2-6.7-4.8-12.1-4.8c-6.3,0-11.2,2.3-14.8,7l-0.5-6.1h-15.1v51.8H607.7z"/>
	<path class="st1" d="M574.5,297.3c-1.7,1.5-2.5,3.4-2.5,5.7s0.8,4.2,2.5,5.7s3.8,2.2,6.5,2.2c2.6,0,4.8-0.7,6.5-2.2
		s2.5-3.4,2.5-5.7s-0.8-4.2-2.5-5.7s-3.8-2.2-6.5-2.2S576.2,295.8,574.5,297.3z"/>
	<rect x="572.7" y="317.9" class="st1" width="16.2" height="51.8"/>
	<rect x="569.1" y="216" class="st1" width="16.7" height="69.7"/>
	<path class="st1" d="M537.2,323.4v-27.3h-16.1v73.5h16.1v-37.1c1.4-2.1,3.7-3.2,7-3.2c2.7,0,4.6,0.6,5.7,1.9
		c1.1,1.3,1.7,3.3,1.7,6.1v32.3h16.2V337c-0.1-6.6-1.5-11.6-4.5-15c-2.9-3.4-7.2-5.1-12.9-5.1C545,316.9,540.6,319.1,537.2,323.4z"
		/>
	<path class="st1" d="M497.6,261c0,7.6,2.5,13.8,7.4,18.5s11.3,7.1,19.3,7.1c4.2,0,8.2-0.8,11.9-2.5c3.7-1.6,6.5-3.9,8.5-6.6
		l-7.4-8.7c-2.9,3.6-6.9,5.4-12,5.4c-3.1,0-5.6-0.8-7.6-2.5c-1.9-1.7-3.2-3.9-3.8-6.8H546v-6.3c0-8.1-2.1-14.4-6.3-18.9
		s-10-6.8-17.2-6.8c-5.2,0-9.6,1.1-13.4,3.3c-3.8,2.2-6.6,5.4-8.6,9.4c-2,4.1-2.9,8.7-2.9,14V261z M522.4,245.4
		c2.6,0,4.5,0.7,5.9,2.1c1.4,1.4,2,3.4,2,6v1.2H514C514.9,248.5,517.7,245.4,522.4,245.4z"/>
	<path class="st1" d="M491.9,329c1.1-0.9,2.6-1.4,4.3-1.4c4.4,0,6.6,2.1,6.6,6.2H519c0-5-2.1-9.1-6.2-12.2
		c-4.1-3.1-9.6-4.6-16.5-4.6c-6.3,0-11.5,1.5-15.4,4.6c-3,2.3-4.8,5.1-5.5,8.4l0.2-12.5c-1.3-0.4-2.8-0.6-4.5-0.6
		c-4.9,0-8.6,2.5-11.3,7.6l-0.5-6.7h-15.1v51.8h16.1v-32.8c1.4-3.2,4.7-4.8,9.8-4.8l5,0.4c0,0.3,0,0.5,0,0.8c0,2.7,0.7,5.1,2.1,7.1
		c1.4,2.1,3.4,3.8,6,5.3s5.9,2.6,10,3.5c4,0.9,6.7,1.8,8.2,2.6c1.4,0.8,2.2,1.9,2.2,3.3s-0.5,2.6-1.7,3.5c-1.1,0.9-2.8,1.3-5,1.3
		c-2.4,0-4.4-0.6-5.9-1.7s-2.3-2.8-2.4-5.2h-15.1c0,3,1,5.9,2.9,8.7c1.9,2.7,4.7,4.9,8.1,6.5c3.5,1.6,7.4,2.4,11.9,2.4
		c6.7,0,12.1-1.5,16.3-4.5c4.2-3,6.3-6.8,6.3-11.5c0-6.9-3.9-11.7-11.7-14.4c-2.3-0.8-5-1.5-8.1-2.1s-5.3-1.3-6.7-2.2
		c-1.4-0.9-2.1-2.1-2.1-3.5C490.2,331.1,490.7,329.9,491.9,329z"/>
	<path class="st1" d="M442.3,342.6c0-8.1-2.1-14.4-6.3-18.9s-10-6.8-17.2-6.8c-5.2,0-9.6,1.1-13.4,3.3s-6.6,5.4-8.6,9.4
		c-2,4.1-2.9,8.7-2.9,14v1.3c0,7.6,2.5,13.8,7.4,18.5s11.3,7.1,19.3,7.1c4.2,0,8.2-0.8,11.9-2.5c3.7-1.6,6.5-3.9,8.5-6.6l-7.4-8.7
		c-2.9,3.6-6.9,5.4-12,5.4c-3.1,0-5.6-0.8-7.6-2.5c-1.9-1.7-3.2-3.9-3.8-6.8h32.1V342.6z M426.5,338.8h-16.3
		c0.9-6.3,3.7-9.4,8.4-9.4c2.6,0,4.5,0.7,5.9,2.1s2,3.4,2,6V338.8z"/>
	<rect x="432.9" y="233.9" class="st1" width="16.2" height="51.8"/>
	<polygon class="st1" points="466.6,285.7 483,285.7 499.9,233.9 482.9,233.9 474.8,266.5 466.7,233.9 449.7,233.9 	"/>
	<path class="st1" d="M440.9,228.4c2.6,0,4.8-0.7,6.5-2.2s2.5-3.4,2.5-5.7s-0.8-4.2-2.5-5.7s-3.8-2.2-6.5-2.2
		c-2.6,0-4.8,0.7-6.5,2.2s-2.5,3.4-2.5,5.7s0.9,4.2,2.5,5.7C436.1,227.7,438.2,228.4,440.9,228.4z"/>
	<path class="st1" d="M307.3,259.7v1.3c0,7.6,2.5,13.8,7.4,18.5s11.3,7.1,19.3,7.1c4.2,0,8.2-0.8,11.9-2.5c3.7-1.6,6.5-3.9,8.5-6.6
		l-7.4-8.7c-2.9,3.6-6.9,5.4-12,5.4c-3.1,0-5.6-0.8-7.6-2.5c-1.9-1.7-3.2-3.9-3.8-6.8h31.9c0.7,6,2.8,10.9,6.2,14.7
		c4.3,4.7,10.3,7.1,17.8,7.1c6.4,0,11.7-1.8,15.7-5.5c4.1-3.6,6.1-8.3,6.1-14h-15.1c0,2.2-0.6,3.9-1.8,5.1c-1.2,1.2-3,1.8-5.3,1.8
		c-2.7,0-4.7-1-5.9-3s-1.9-5.6-1.9-10.8c0-3,0.1-5.3,0.3-7c0.7-5.3,3.1-8,7.3-8c2.2,0,4,0.7,5.3,2.2c1.3,1.4,2,3.5,2,6.2h15.1
		c0-3.2-0.5-6.1-1.5-8.6h6.1v25.7c0,5.3,1.3,9.3,4,11.9c2.6,2.6,6.7,3.9,12.3,3.9c3.2,0,6.2-0.5,9.1-1.4v-11.5
		c-1.1,0.2-2.4,0.3-4,0.3c-2.1,0-3.5-0.4-4.2-1.1c-0.7-0.8-1.1-2.1-1.1-4.1v-23.7h8.5v-11.2H422V221h-16v12.9h-6.6v10
		c-1-2-2.2-3.8-3.9-5.4c-4-3.7-9.3-5.6-16-5.6c-5,0-9.3,1.1-12.9,3.2c-3.6,2.1-6.4,5.2-8.3,9.2c-1.4,2.8-2.2,6-2.6,9.4
		c-0.6-6.3-2.6-11.3-6.1-15.1c-4.2-4.5-10-6.8-17.2-6.8c-5.2,0-9.6,1.1-13.4,3.3s-6.6,5.4-8.6,9.4
		C308.2,249.7,307.3,254.4,307.3,259.7z M332.1,245.4c2.6,0,4.5,0.7,5.9,2.1c1.4,1.4,2,3.4,2,6v1.2h-16.3
		C324.6,248.5,327.4,245.4,332.1,245.4z"/>
	<path class="st1" d="M296.4,342.7c0-8.1-2.1-14.4-6.3-18.9s-10-6.8-17.2-6.8c-5.2,0-9.6,1.1-13.4,3.3s-6.6,5.4-8.6,9.4
		c-2,4.1-2.9,8.7-2.9,14v1.3c0,7.6,2.5,13.8,7.4,18.5s11.3,7.1,19.3,7.1c4.2,0,8.2-0.8,11.9-2.4c3.7-1.6,6.5-3.9,8.5-6.6l-7.4-8.7
		c-2.9,3.6-6.9,5.4-12,5.4c-3.1,0-5.6-0.8-7.6-2.5c-1.9-1.7-3.2-3.9-3.8-6.8h32.1V342.7z M280.8,338.7h-16.3
		c0.8-6.2,3.6-9.3,8.4-9.3c2.6,0,4.5,0.7,5.9,2.1s2,3.4,2,6V338.7z"/>
	<polygon class="st1" points="202.2,300 202.2,369.7 248.2,369.7 248.2,356.8 219,356.8 219,300 	"/>
	<path class="st1" d="M300.8,366.2c3.4,3,7.6,4.4,12.4,4.4c5.3,0,9.5-1.9,12.4-5.6c0.4,2,1,3.6,1.5,4.6h16.1v-0.8
		c-1.4-2.5-2.1-6.2-2.2-10.9V335c-0.1-5.6-2.1-10-5.9-13.3c-3.8-3.2-9-4.8-15.6-4.8s-12,1.6-16.3,4.7s-6.4,7.2-6.4,12.2h16.1
		c0-3.8,1.9-5.7,5.7-5.7c4.1,0,6.2,2.4,6.2,7.2v2.7H320c-7.9,0.1-13.9,1.5-18.1,4.4c-4.1,2.9-6.2,7.1-6.2,12.7
		C295.7,359.6,297.4,363.3,300.8,366.2z M320.3,346.6h4.7v0.1v8.3c-0.6,1.1-1.5,2.1-2.8,2.9c-1.3,0.9-3,1.3-5,1.3
		c-1.5,0-2.8-0.5-3.8-1.4s-1.5-2.1-1.5-3.6C311.9,349.2,314.7,346.6,320.3,346.6z"/>
	<path class="st1" d="M363.2,370.6c5.1,0,9.3-2.2,12.6-6.5l0.8,5.6h14.5v-73.5h-16.2v26.2c-3.2-3.6-7.1-5.5-11.7-5.5
		c-6.3,0-11.3,2.4-14.8,7.1s-5.3,11.2-5.3,19.4c0,8.7,1.8,15.4,5.4,20.1C352.2,368.3,357.1,370.6,363.2,370.6z M359.3,341.5
		c0.4-8,3.1-12.1,8.1-12.1c3.6,0,6.1,1.5,7.6,4.6v19.7c-1.5,3-4.1,4.5-7.7,4.5c-5.4,0-8-4.6-8-13.8V341.5z"/>
	<path class="st1" d="M245,245.1h7.3v40.6h16.2v-40.6h6.9h3.2h4.3v40.6h16.2v-40.6h10.1v-11.2h-10.1v-4c0-4.2,2.4-6.3,7.3-6.3
		c1.7,0,3,0.1,4,0.4v-11.9c-2.7-0.7-5.3-1-7.6-1c-6.3,0-11.2,1.6-14.6,4.9c-3.5,3.3-5.2,7.8-5.2,13.7v4.1h-4.3h-3.2h-6.9v-4
		c0-4.2,2.4-6.3,7.3-6.3c1.7,0,3,0.1,4,0.4V212c-2.7-0.7-5.3-1-7.6-1c-6.3,0-11.2,1.6-14.6,4.9c-3.5,3.3-5.2,7.8-5.2,13.7v4.1H245
		V245.1z"/>
	<polygon class="st1" points="248.5,272.8 217.3,272.8 217.3,256.1 243.7,256.1 243.7,243.7 217.3,243.7 217.3,229 248.5,229 
		248.5,216 200.5,216 200.5,285.7 248.5,285.7 	"/>
	<path class="st1" d="M223.7,403.3c1.7-1.3,4.1-2,7.1-2s5.3,0.8,7.1,2.3c1.7,1.6,2.6,3.8,2.6,6.6h16.7c0-4.2-1.1-8-3.3-11.3
		s-5.3-5.8-9.3-7.6c-4-1.8-8.5-2.7-13.5-2.7c-5.1,0-9.8,0.8-13.9,2.5c-4.1,1.6-7.3,3.9-9.5,6.9s-3.4,6.4-3.4,10.2
		c0,7.8,4.5,13.8,13.5,18.3c2.8,1.4,6.3,2.8,10.7,4.3s7.4,2.9,9.2,4.3c1.7,1.4,2.6,3.3,2.6,5.7c0,2.2-0.8,3.9-2.4,5
		c-1.6,1.2-3.8,1.8-6.6,1.8c-4.3,0-7.5-0.9-9.4-2.7c-1.9-1.8-2.9-4.5-2.9-8.3h-16.8c0,4.6,1.2,8.7,3.5,12.2s5.8,6.3,10.3,8.3
		c4.6,2,9.7,3,15.3,3c8,0,14.3-1.7,18.9-5.2s6.9-8.3,6.9-14.4c0-7.6-3.8-13.6-11.3-17.9c-3.1-1.8-7.1-3.5-11.9-5s-8.2-3-10.1-4.5
		c-1.9-1.5-2.9-3.1-2.9-4.9C221.1,406.3,221.9,404.6,223.7,403.3z"/>
	<path class="st1" d="M290.4,443.8c-1.6,2.6-4.2,4-7.9,4c-4.3,0-6.5-2.2-6.5-6.7v-33.6h-16.1V441c0,6.2,1.5,10.9,4.4,14.2
		c2.9,3.3,7.2,5,12.9,5c5.8,0,10.4-2.2,13.8-6.6l0.5,5.6h15.1v-51.8h-16.2L290.4,443.8L290.4,443.8z"/>
	<path class="st1" d="M338.4,406.6c-5,0-9.1,1.9-12.2,5.7l-0.5-4.8h-15.1v71.7h16.1V455c3.1,3.5,7,5.2,11.7,5.2
		c6.2,0,11-2.4,14.7-7.2c3.6-4.8,5.4-11.2,5.4-19.3v-0.8c0-8.2-1.8-14.7-5.3-19.4C349.7,408.9,344.8,406.6,338.4,406.6z
		 M342.5,434.5c-0.2,8.9-2.8,13.3-7.9,13.3c-3.8,0-6.3-1.4-7.8-4.3v-20.4c1.3-2.7,3.8-4.1,7.7-4.1c5.4,0,8,4.6,8,13.8L342.5,434.5
		L342.5,434.5z"/>
	<path class="st1" d="M384.1,406.6c-5.2,0-9.6,1.1-13.4,3.3c-3.8,2.2-6.6,5.4-8.6,9.4c-2,4.1-2.9,8.7-2.9,14v1.3
		c0,7.6,2.5,13.8,7.4,18.5s11.3,7.1,19.3,7.1c4.2,0,8.2-0.8,11.9-2.5c3.7-1.6,6.5-3.9,8.5-6.6l-7.4-8.7c-2.9,3.6-6.9,5.4-12,5.4
		c-3.1,0-5.6-0.8-7.6-2.5c-1.9-1.7-3.2-3.9-3.8-6.8h32.1v-6.3c0-8.1-2.1-14.4-6.3-18.9S391.4,406.6,384.1,406.6z M391.9,428.4h-16.3
		c0.9-6.3,3.7-9.4,8.4-9.4c2.6,0,4.5,0.7,5.9,2.1s2,3.4,2,6V428.4z"/>
	<path class="st1" d="M463,440.1l-8-32.6h-14.1v-0.4c-1.3-0.4-2.8-0.6-4.5-0.6c-4.8,0-8.6,2.5-11.3,7.6l-0.5-6.7h-15.1v51.8h16.1
		v-32.8c1.4-3.2,4.7-4.8,9.8-4.8l5.3,0.4l0.1-6.1l14.1,43.3h16.5l16.9-51.8h-17L463,440.1z"/>
	<rect x="488.9" y="407.5" class="st1" width="16.2" height="51.8"/>
	<path class="st1" d="M496.9,386.2c-2.6,0-4.8,0.7-6.5,2.2s-2.5,3.4-2.5,5.7c0,2.3,0.8,4.2,2.5,5.7s3.8,2.2,6.5,2.2
		c2.6,0,4.8-0.7,6.5-2.2s2.5-3.4,2.5-5.7c0-2.3-0.9-4.2-2.5-5.7C501.7,386.9,499.6,386.2,496.9,386.2z"/>
	<path class="st1" d="M525.9,418.6c1.1-0.9,2.6-1.4,4.3-1.4c4.4,0,6.6,2.1,6.6,6.2H553c0-5-2.1-9.1-6.2-12.2
		c-4.1-3.1-9.6-4.6-16.5-4.6c-6.3,0-11.5,1.5-15.4,4.6c-3.9,3.1-5.9,7-5.9,11.7c0,2.7,0.7,5.1,2.1,7.1c1.4,2.1,3.4,3.8,6,5.3
		s5.9,2.6,10,3.5c4,0.9,6.7,1.8,8.2,2.6c1.4,0.8,2.2,1.9,2.2,3.3s-0.5,2.6-1.7,3.5c-1.1,0.9-2.8,1.3-5,1.3c-2.4,0-4.4-0.6-5.9-1.7
		s-2.3-2.8-2.4-5.2h-15.1c0,3,1,5.9,2.9,8.7c1.9,2.7,4.7,4.9,8.1,6.5c3.5,1.6,7.4,2.4,11.9,2.4c6.7,0,12.1-1.5,16.3-4.5
		s6.3-6.8,6.3-11.5c0-6.9-3.9-11.7-11.7-14.4c-2.3-0.8-5-1.5-8.1-2.1s-5.3-1.3-6.7-2.2c-1.4-0.9-2.1-2.1-2.1-3.5
		C524.2,420.7,524.7,419.5,525.9,418.6z"/>
	<rect x="556.3" y="407.5" class="st1" width="16.2" height="51.8"/>
	<path class="st1" d="M570.7,388.4c-1.7-1.5-3.8-2.2-6.5-2.2s-4.8,0.7-6.5,2.2s-2.5,3.4-2.5,5.7s0.8,4.2,2.5,5.7s3.8,2.2,6.5,2.2
		c2.6,0,4.8-0.7,6.5-2.2s2.5-3.4,2.5-5.7S572.4,389.9,570.7,388.4z"/>
	<path class="st1" d="M600.4,406.6c-5.1,0-9.5,1.1-13.3,3.3c-3.8,2.2-6.7,5.3-8.7,9.3s-3,8.6-3,13.8v2.7c0.4,7.6,2.8,13.5,7.2,18
		c4.5,4.4,10.4,6.6,17.8,6.6c7.7,0,13.7-2.4,18.2-7.1s6.7-11.1,6.7-19.2v-0.6c0-8.3-2.2-14.8-6.7-19.6
		C614.2,409,608.1,406.6,600.4,406.6z M609.3,434.5c-0.1,8.8-3.1,13.3-8.8,13.3c-2.9,0-5.2-1.1-6.7-3.4c-1.5-2.2-2.2-5.7-2.2-10.5
		V431c0.4-8,3.4-12,8.8-12c5.9,0,8.9,4.6,8.9,13.9V434.5z"/>
	<path class="st1" d="M669.8,411.4c-2.7-3.2-6.7-4.8-12.1-4.8c-6.3,0-11.2,2.3-14.8,7l-0.5-6.1h-15.1v51.8h16.1v-36.6
		c1.5-2.5,3.9-3.7,7-3.7c2.8,0,4.7,0.6,5.7,1.8c1.1,1.2,1.6,3.2,1.6,5.8v32.7h16.2v-33.4C673.8,419.4,672.4,414.6,669.8,411.4z"/>
	<path class="st1" d="M720.5,369.8l-10.6-12.2c4.3-5.8,6.5-13.3,6.5-22.8h-13.5c0,4.2-0.9,8-2.6,11.5L689.6,334l3.6-2.5
		c6.5-4.6,9.8-9.9,9.8-15.8c0-4.8-1.7-8.7-5.2-11.9s-7.8-4.8-13.1-4.8c-5.9,0-10.6,1.7-14.3,5.2c-3.6,3.5-5.5,8-5.5,13.6
		c0,2.6,0.5,5.1,1.6,7.5s2.5,5,4.4,7.7l-0.1,0.1c-4.8,3.5-8,6.5-9.6,9.1s-2.5,5.5-2.5,8.8c0,5.9,2.1,10.7,6.2,14.3
		c4.1,3.6,9.7,5.4,16.6,5.4c3.5,0,6.7-0.4,9.5-1.1c2.8-0.8,5.5-1.9,8.2-3.5l3.3,3.7L720.5,369.8L720.5,369.8z M680.4,313.1
		c1-1.1,2.4-1.7,4.2-1.7c1.5,0,2.8,0.5,3.8,1.6s1.5,2.4,1.5,3.8c0,1.6-0.3,2.9-1,3.9s-1.7,2-3.2,3l-3.2,2c-2.4-3.2-3.6-5.9-3.6-8.1
		C678.9,315.8,679.4,314.3,680.4,313.1z M682.6,358.2c-2.2,0-4-0.8-5.5-2.4s-2.2-3.6-2.2-5.9c0-2.8,0.9-5.3,2.7-7.6l0.4-0.3
		l12.5,14.3C688.1,357.6,685.4,358.2,682.6,358.2z"/>
	<path class="st1" d="M720.4,408.9c1.9-3,4.8-4.5,8.9-4.5c4,0,7,0.9,8.9,2.7c1.9,1.8,3,4.8,3.1,8.9h16.2c-0.7-7.5-3.5-13.5-8.5-17.8
		s-11.6-6.5-19.8-6.5c-5.7,0-10.7,1.4-15,4.1c-4.4,2.7-7.7,6.5-10,11.5s-3.5,10.8-3.5,17.4v3.3c0,10.6,2.6,18.7,7.7,24.5
		c5.1,5.8,12.1,8.7,21,8.7c5.4,0,10.2-1,14.4-3s7.5-4.8,9.8-8.4s3.6-7.8,3.8-12.5h-16.2c-0.2,3.8-1.2,6.6-3.2,8.4
		c-2,1.7-4.9,2.6-8.6,2.6c-4.4,0-7.5-1.5-9.3-4.6s-2.7-8.2-2.7-15.5v-4.8C717.5,416.8,718.5,411.9,720.4,408.9z"/>
	<path class="st1" d="M784.2,409.1c-4.9,0-9.2,1.1-12.8,3.2c-3.7,2.1-6.5,5.1-8.4,9s-2.9,8.4-2.9,13.4v2.6c0.3,7.3,2.7,13.1,7,17.4
		s10.1,6.4,17.2,6.4c7.4,0,13.3-2.3,17.6-6.9s6.5-10.8,6.5-18.6h0.1v-0.5c0-8-2.2-14.3-6.5-19C797.6,411.4,791.7,409.1,784.2,409.1z
		 M792.8,436.1c-0.1,8.5-2.9,12.8-8.5,12.8c-2.8,0-4.9-1-6.4-3.2s-2.2-5.6-2.2-10.2v-2.8c0.4-7.7,3.3-11.6,8.5-11.6
		c5.7,0,8.6,4.5,8.6,13.4L792.8,436.1L792.8,436.1z"/>
	<path class="st1" d="M842.2,410v35.2c-1.6,2.5-4.1,3.8-7.7,3.8c-4.2,0-6.3-2.1-6.3-6.4V410l-15.6-1v33.6c0,6,1.4,10.6,4.2,13.8
		c2.8,3.2,7,4.8,12.5,4.8c5.6,0,10.1-2.2,13.4-6.4l0.5,5.4h14.7V410L842.2,410L842.2,410z"/>
	<path class="st1" d="M873,273.6c-1.1,0.2-2.4,0.3-4,0.3c-2.2,0.1-3.6-0.3-4.3-1c-0.7-0.8-1.1-2.1-1.1-4.1v-23.7h8.5v-11.2h-8.5V221
		h-16.1v12.9h-6.6v10c-1-2-2.2-3.8-3.9-5.4c-4-3.7-9.3-5.6-16-5.6c-5,0-9.3,1.1-12.9,3.2c-3.6,2.2-6.4,5.2-8.3,9.2
		s-2.9,8.6-2.9,13.9v0.7c0,8.4,2.2,14.9,6.5,19.6s10.3,7.1,17.8,7.1c6.4,0,11.7-1.8,15.7-5.5c4.1-3.6,6.1-8.3,6.1-14h-15.1
		c0,2.2-0.6,3.9-1.8,5.1s-3,1.8-5.3,1.8c-2.7,0-4.7-1-5.9-3s-1.9-5.6-1.9-10.8c0-3,0.1-5.3,0.3-7c0.7-5.3,3.1-8,7.3-8
		c2.2,0,4,0.7,5.3,2.2c1.3,1.4,2,3.5,2,6.2H843c0-3.2-0.5-6.1-1.5-8.6h6.1v25.7c0,5.3,1.3,9.3,4,11.9c2.6,2.6,6.7,3.9,12.3,3.9
		c3.2,0,6.2-0.5,9.1-1.4L873,273.6L873,273.6z"/>
	<path class="st1" d="M879.5,416.4L879,410h-14.7v50.1h15.6v-31.8c1.4-3.1,4.6-4.6,9.5-4.6l5.1,0.4l0.4-14.5
		c-1.3-0.4-2.7-0.6-4.4-0.6C885.8,409,882.1,411.5,879.5,416.4z"/>
	<path class="st1" d="M913,420.8c1.1-0.9,2.5-1.4,4.1-1.4c4.3,0,6.4,2,6.4,6h15.7c0-4.9-2-8.8-6-11.8c-4.1-3-9.4-4.5-16-4.5
		c-6.1,0-11.1,1.5-14.9,4.5s-5.7,6.8-5.7,11.4c0,2.6,0.7,4.9,2,6.9s3.3,3.7,5.8,5.1s5.7,2.5,9.6,3.4c3.9,0.9,6.5,1.7,7.9,2.5
		s2.1,1.9,2.1,3.2c0,1.4-0.5,2.5-1.6,3.4s-2.7,1.3-4.8,1.3c-2.3,0-4.2-0.5-5.7-1.6s-2.2-2.8-2.3-5.1H895c0,2.9,0.9,5.7,2.8,8.4
		s4.5,4.8,7.9,6.3s7.2,2.3,11.5,2.3c6.5,0,11.7-1.4,15.8-4.3s6.1-6.6,6.1-11.2c0-6.7-3.8-11.4-11.3-14c-2.3-0.8-4.9-1.4-7.9-2
		c-3-0.5-5.1-1.2-6.5-2.1c-1.4-0.8-2-2-2.1-3.3C911.3,422.8,911.9,421.7,913,420.8z"/>
	<path class="st1" d="M966.7,409.1c-5,0-9.4,1.1-13,3.2s-6.4,5.2-8.3,9.1c-1.9,3.9-2.9,8.5-2.9,13.6v1.2c0,7.3,2.3,13.3,7.1,17.9
		s11,6.9,18.7,6.9c4.1,0,7.9-0.8,11.5-2.4s6.4-3.7,8.3-6.4l-7.1-8.4c-2.8,3.5-6.7,5.2-11.6,5.2c-3,0-5.4-0.8-7.3-2.4
		c-1.9-1.6-3.1-3.8-3.7-6.6h31.1v-6c0-7.8-2-13.9-6.1-18.3C979.3,411.3,973.8,409.1,966.7,409.1z M974.2,429v1.2h-15.8
		c0.9-6.1,3.6-9.1,8.2-9.1c2.4,0,4.3,0.7,5.7,2.1C973.6,424.6,974.3,426.5,974.2,429z"/>
	<path class="st1" d="M1008.6,420.8c1.1-0.9,2.5-1.4,4.1-1.4c4.3,0,6.4,2,6.4,6h15.7c0-4.9-2-8.8-6-11.8c-4.1-3-9.4-4.5-16-4.5
		c-6.1,0-11.1,1.5-14.9,4.5s-5.7,6.8-5.7,11.4c0,2.6,0.7,4.9,2,6.9s3.3,3.7,5.8,5.1s5.7,2.5,9.6,3.4c3.9,0.9,6.5,1.7,7.9,2.5
		s2.1,1.9,2.1,3.2c0,1.4-0.5,2.5-1.6,3.4s-2.7,1.3-4.8,1.3c-2.3,0-4.2-0.5-5.7-1.6s-2.2-2.8-2.3-5.1h-14.6c0,2.9,0.9,5.7,2.8,8.4
		s4.5,4.8,7.9,6.3s7.2,2.3,11.5,2.3c6.5,0,11.7-1.4,15.8-4.3s6.1-6.6,6.1-11.2c0-6.7-3.8-11.4-11.3-14c-2.3-0.8-4.9-1.4-7.9-2
		c-3-0.5-5.1-1.2-6.5-2.1c-1.3-0.8-2-2-2.1-3.3C1006.9,422.8,1007.5,421.7,1008.6,420.8z"/>
	<path class="st1" d="M1039,251h0.2c-0.1-5.6-2.1-10-5.9-13.3c-3.8-3.2-9-4.8-15.6-4.8s-12,1.6-16.3,4.7c-4.3,3.1-6.4,7.2-6.4,12.2
		h16.1c0-3.8,1.9-5.7,5.7-5.7c4.1,0,6.2,2.4,6.2,7.2v2.7h-5c-7.9,0-13.9,1.4-18.1,4.3c-4.1,2.9-6.2,7.1-6.2,12.7
		c0,4.5,1.7,8.2,5.1,11.1c3.4,3,7.6,4.4,12.4,4.4c5.3,0,9.5-1.9,12.4-5.6c0.4,2,1,3.6,1.5,4.6h16.1v-0.8c-1.4-2.5-2.1-6.2-2.2-10.9
		V251z M1023.1,270.9c-0.6,1.1-1.5,2.1-2.8,2.9c-1.3,0.9-3,1.3-5,1.3c-1.5,0-2.8-0.5-3.8-1.4s-1.5-2.1-1.5-3.6c0-5,2.8-7.6,8.4-7.6
		h4.7L1023.1,270.9L1023.1,270.9z"/>
	<rect x="1044.1" y="212.2" class="st1" width="16.2" height="73.5"/>
</g>
<path class="st1" d="M445.1,521.7c0.4,0,0.7-0.1,0.9-0.3c0.2-0.2,0.3-0.5,0.3-0.8s-0.1-0.6-0.3-0.8c-0.2-0.2-0.5-0.3-0.9-0.3
	s-0.7,0.1-0.9,0.3c-0.2,0.2-0.3,0.5-0.3,0.8s0.1,0.6,0.3,0.8C444.4,521.6,444.7,521.7,445.1,521.7z"/>
<path class="st1" d="M457.1,519.5c-0.4,0-0.7,0.1-0.9,0.3c-0.2,0.2-0.3,0.5-0.3,0.8s0.1,0.6,0.3,0.8c0.2,0.2,0.5,0.3,0.9,0.3
	s0.7-0.1,0.9-0.3c0.2-0.2,0.3-0.5,0.3-0.8s-0.1-0.6-0.3-0.8C457.8,519.6,457.5,519.5,457.1,519.5z"/>
<path class="st1" d="M532,521.7c0.4,0,0.7-0.1,0.9-0.3s0.3-0.5,0.3-0.8s-0.1-0.6-0.3-0.8s-0.5-0.3-0.9-0.3s-0.7,0.1-0.9,0.3
	s-0.3,0.5-0.3,0.8s0.1,0.6,0.3,0.8C531.3,521.6,531.6,521.7,532,521.7z"/>
<path class="st1" d="M582.6,521.7c0.4,0,0.7-0.1,0.9-0.3s0.3-0.5,0.3-0.8s-0.1-0.6-0.3-0.8s-0.5-0.3-0.9-0.3s-0.7,0.1-0.9,0.3
	s-0.3,0.5-0.3,0.8s0.1,0.6,0.3,0.8C581.9,521.6,582.2,521.7,582.6,521.7z"/>
<polygon class="st1" points="218.7,539.5 207.2,539.5 207.2,530.8 217.2,530.8 217.2,529.3 207.2,529.3 207.2,521.2 218.6,521.2 
	218.6,519.7 205.4,519.7 205.4,541 218.7,541 "/>
<polygon class="st1" points="221.8,541.1 226.3,534.4 230.8,541.1 232.9,541.1 227.3,533 232.7,525.2 230.6,525.2 226.3,531.6 
	222,525.2 219.9,525.2 225.3,533 219.7,541.1 "/>
<path class="st1" d="M236.2,537.2c0,1.4,0.3,2.5,0.8,3.1s1.4,1,2.6,1c0.8,0,1.4,0,1.9-0.2l-0.1-1.4c-0.6,0.1-1.1,0.1-1.4,0.1
	c-0.8,0-1.3-0.2-1.6-0.6c-0.3-0.5-0.5-1.1-0.5-2v-10.6h3.3v-1.4h-3.3v-4.1h-1.7v4.1h-2.9v1.4h2.9V537.2z"/>
<path class="st1" d="M246.5,540.3c1.1,0.7,2.4,1,3.7,1c2.4,0,4.3-0.9,5.7-2.7l-1.1-0.8c-0.6,0.7-1.3,1.3-2,1.6s-1.6,0.5-2.5,0.5
	c-1.6,0-2.9-0.6-3.9-1.8s-1.5-2.7-1.5-4.5v-0.3h11.3v-1c0-2.3-0.5-4.1-1.7-5.4c-1.2-1.3-2.7-2-4.6-2c-1.2,0-2.3,0.3-3.4,1
	c-1.1,0.7-1.9,1.7-2.5,2.9s-0.9,2.6-0.9,4.1v0.6c0,1.5,0.3,2.8,0.9,4C244.6,538.7,245.4,539.6,246.5,540.3z M246.5,527.9
	c0.9-1,2-1.5,3.3-1.5c1.4,0,2.5,0.6,3.3,1.5s1.3,2.2,1.3,3.7v0.2h-9.5C245,530.2,245.6,528.9,246.5,527.9z"/>
<path class="st1" d="M260.5,530.1L260.5,530.1c0.3-1.2,0.8-2.1,1.6-2.7c0.8-0.6,1.7-0.9,2.8-0.9c0.4,0,0.8,0,1.2,0.1l0.1-1.6
	c-0.3-0.1-0.7-0.2-1.2-0.2c-2.1,0-3.6,0.9-4.5,2.8v-2.5h-1.7V541h1.7V530.1z"/>
<path class="st1" d="M275,524.8c-1,0-2,0.3-2.9,0.8s-1.6,1.2-2.2,2.2l-0.1-2.7h-1.7V541h1.7v-10.9c0.4-1.1,1-2,1.9-2.7s1.8-1,2.9-1
	c1.3,0,2.2,0.3,2.8,1s0.9,1.8,0.9,3.2V541h1.8v-10.5c-0.1-1.9-0.5-3.4-1.3-4.3C278,525.3,276.7,524.8,275,524.8z"/>
<path class="st1" d="M290.4,531.9c-2.3,0-4.1,0.4-5.4,1.3c-1.3,0.9-1.9,2.2-1.9,3.7c0,1.3,0.5,2.3,1.4,3.2s2.2,1.3,3.7,1.3
	c1,0,2-0.2,3-0.7s1.8-1.1,2.4-1.9c0,1,0.1,1.7,0.3,2.2l2-0.1v-0.2c-0.3-0.7-0.5-1.9-0.5-3.4v-7.5c-0.1-1.6-0.6-2.8-1.6-3.7
	s-2.4-1.3-4.2-1.3c-1.7,0-3.1,0.5-4.3,1.4c-1.2,0.9-1.8,2-1.8,3.3h1.8c0-0.9,0.4-1.7,1.2-2.3c0.8-0.6,1.8-0.9,3-0.9
	c1.4,0,2.4,0.3,3.1,1s1,1.6,1,2.7v1.9H290.4z M293.4,536.5c-0.4,1-1.1,1.7-2,2.3s-1.9,0.9-3.1,0.9c-1,0-1.9-0.3-2.6-0.9
	c-0.7-0.6-1-1.3-1-2.2c0-1.1,0.5-1.9,1.5-2.6s2.4-1,4.1-1h3.1V536.5z"/>
<rect x="299.3" y="518.5" class="st1" width="1.8" height="22.5"/>
<path class="st1" d="M318.2,531.9c-2.3,0-4.1,0.4-5.4,1.3c-1.3,0.9-1.9,2.2-1.9,3.7c0,1.3,0.5,2.3,1.4,3.2s2.2,1.3,3.7,1.3
	c1,0,2-0.2,3-0.7s1.8-1.1,2.4-1.9c0,1,0.1,1.7,0.3,2.2l2-0.1v-0.2c-0.3-0.7-0.5-1.9-0.5-3.4v-7.5c-0.1-1.6-0.6-2.8-1.6-3.7
	s-2.4-1.3-4.2-1.3c-1.7,0-3.1,0.5-4.3,1.4c-1.2,0.9-1.8,2-1.8,3.3h1.8c0-0.9,0.4-1.7,1.2-2.3c0.8-0.6,1.8-0.9,3-0.9
	c1.4,0,2.4,0.3,3.1,1s1,1.6,1,2.7v1.9H318.2z M321.3,536.5c-0.4,1-1.1,1.7-2,2.3s-1.9,0.9-3.1,0.9c-1.1,0-1.9-0.3-2.6-0.9
	c-0.7-0.6-1-1.3-1-2.2c0-1.1,0.5-1.9,1.5-2.6s2.4-1,4.1-1h3.1V536.5z"/>
<path class="st1" d="M332.9,541.3c1.1,0,2.1-0.2,3-0.7s1.7-1.1,2.2-1.9s0.9-1.6,0.9-2.6h-1.7c0,1.1-0.4,2-1.3,2.7s-1.9,1-3.1,1
	c-1.6,0-2.8-0.5-3.7-1.6c-0.9-1.1-1.3-2.7-1.3-4.7V533c0-2.1,0.4-3.7,1.3-4.8s2.1-1.7,3.7-1.7c1.3,0,2.3,0.3,3.1,1.1
	c0.8,0.8,1.2,1.8,1.3,3h1.8c-0.1-1.7-0.7-3-1.8-4.1c-1.1-1.1-2.6-1.6-4.3-1.6c-1.4,0-2.5,0.3-3.6,1s-1.9,1.6-2.4,2.8
	s-0.8,2.5-0.8,4.1v0.5c0,2.4,0.6,4.3,1.8,5.8C329.2,540.6,330.8,541.3,332.9,541.3z"/>
<path class="st1" d="M347.6,541.3c1.1,0,2.1-0.2,3-0.7s1.7-1.1,2.2-1.9s0.9-1.6,0.9-2.6H352c0,1.1-0.4,2-1.3,2.7s-1.9,1-3.1,1
	c-1.6,0-2.7-0.5-3.6-1.6s-1.3-2.7-1.3-4.7V533c0-2.1,0.4-3.7,1.3-4.8s2.1-1.7,3.7-1.7c1.3,0,2.3,0.3,3.1,1.1c0.8,0.8,1.2,1.8,1.3,3
	h1.7c-0.1-1.7-0.7-3-1.8-4.1c-1.1-1.1-2.6-1.6-4.3-1.6c-1.4,0-2.5,0.3-3.6,1s-1.9,1.6-2.4,2.8s-0.8,2.5-0.8,4.1v0.5
	c0,2.4,0.6,4.3,1.8,5.8C343.9,540.6,345.5,541.3,347.6,541.3z"/>
<path class="st1" d="M362.5,541.2c1.4,0,2.6-0.4,3.7-1s1.9-1.6,2.5-2.8s0.9-2.6,0.9-4.1v-0.4c0-2.5-0.7-4.4-2-5.9s-3-2.2-5.1-2.2
	c-1.4,0-2.6,0.3-3.7,1s-1.9,1.7-2.5,2.9s-0.9,2.6-0.9,4.1v0.3c0,2.5,0.7,4.4,2,5.9S360.4,541.2,362.5,541.2z M357.2,533.1
	c0-2,0.5-3.6,1.5-4.8s2.2-1.8,3.8-1.8c1.1,0,2,0.3,2.8,0.8s1.4,1.3,1.9,2.3s0.7,2.1,0.7,3.3v0.3c0,2-0.6,3.6-1.5,4.8
	s-2.2,1.8-3.8,1.8s-2.9-0.5-3.9-1.8s-1.5-2.8-1.5-4.7V533.1z"/>
<path class="st1" d="M377.6,541.3c2.4,0,4-0.8,5.1-2.3v2h1.7v-15.9h-1.8v11.5c-0.7,2.1-2.3,3.1-4.8,3.1s-3.7-1.5-3.7-4.5v-10.1h-1.7
	v10.3c0,2,0.4,3.4,1.3,4.4S375.9,541.3,377.6,541.3z"/>
<path class="st1" d="M390,530.1c0.4-1.1,1-2,1.9-2.7s1.8-1,2.9-1c1.3,0,2.2,0.3,2.8,1s0.9,1.8,0.9,3.2V541h1.7v-10.5
	c-0.1-1.9-0.5-3.4-1.3-4.3c-0.8-0.9-2.1-1.4-3.8-1.4c-1,0-2,0.3-2.9,0.8s-1.6,1.2-2.2,2.2l-0.1-2.7h-1.6V541h1.7V530.1z"/>
<path class="st1" d="M404.9,537.2c0,1.4,0.3,2.5,0.8,3.1s1.4,1,2.6,1c0.8,0,1.4,0,1.9-0.2l-0.1-1.4c-0.6,0.1-1.1,0.1-1.4,0.1
	c-0.8,0-1.3-0.2-1.6-0.6c-0.3-0.5-0.5-1.1-0.5-2v-10.6h3.3v-1.4h-3.3v-4.1h-1.7v4.1H402v1.4h2.9V537.2z"/>
<path class="st1" d="M419.3,531.9c-2.3,0-4.1,0.4-5.4,1.3c-1.3,0.9-1.9,2.2-1.9,3.7c0,1.3,0.5,2.3,1.4,3.2s2.2,1.3,3.7,1.3
	c1,0,2-0.2,3-0.7s1.8-1.1,2.4-1.9c0,1,0.1,1.7,0.3,2.2l2-0.1v-0.2c-0.3-0.7-0.5-1.9-0.5-3.4v-7.5c-0.1-1.6-0.6-2.8-1.6-3.7
	s-2.4-1.3-4.2-1.3c-1.7,0-3.1,0.5-4.3,1.4c-1.2,0.9-1.8,2-1.8,3.3h1.8c0-0.9,0.4-1.7,1.2-2.3s1.8-0.9,3-0.9c1.4,0,2.4,0.3,3.1,1
	s1,1.6,1,2.7v1.9H419.3z M422.4,536.5c-0.4,1-1.1,1.7-2,2.3s-1.9,0.9-3.1,0.9c-1,0-1.9-0.3-2.6-0.9c-0.7-0.6-1-1.3-1-2.2
	c0-1.1,0.5-1.9,1.5-2.6s2.4-1,4.1-1h3.1V536.5z"/>
<path class="st1" d="M429.9,538.8c1.1,1.7,2.8,2.5,5,2.5c1.8,0,3.3-0.7,4.4-2.2s1.6-3.4,1.6-5.9V533c0-2.6-0.6-4.6-1.6-6
	s-2.5-2.1-4.4-2.1c-2.2,0-3.9,0.9-5,2.6v-9h-1.7V541h1.6L429.9,538.8z M429.8,529.6L429.8,529.6c0.4-1,1-1.9,1.8-2.4
	s1.8-0.8,2.9-0.8c1.4,0,2.6,0.6,3.4,1.7c0.8,1.1,1.2,2.7,1.2,4.8c0,2.3-0.4,4-1.2,5.1c-0.8,1.1-2,1.7-3.4,1.7c-2.3,0-3.8-1-4.7-3
	L429.8,529.6L429.8,529.6z"/>
<rect x="444.2" y="525.1" class="st1" width="1.8" height="15.9"/>
<rect x="450.1" y="518.5" class="st1" width="1.8" height="22.5"/>
<rect x="456.1" y="525.1" class="st1" width="1.8" height="15.9"/>
<path class="st1" d="M463,537.2L463,537.2c0,1.4,0.3,2.5,0.8,3.1s1.4,1,2.6,1c0.8,0,1.4,0,1.9-0.2l-0.1-1.4
	c-0.6,0.1-1.1,0.1-1.4,0.1c-0.8,0-1.3-0.2-1.6-0.6c-0.3-0.5-0.5-1.1-0.5-2v-10.6h3.3v-1.4h-3.3v-4.1H463v4.1h-2.9v1.4h2.9V537.2z"/>
<path class="st1" d="M474.2,543c-0.4,1-0.9,1.8-1.4,2.2s-1.2,0.6-2.1,0.6l-0.9-0.1v1.5c0.4,0.1,0.9,0.2,1.3,0.2c1.8,0,3.1-1,4-2.9
	l0.4-0.8l6.8-18.5h-1.9l-4.6,13.3l-4.9-13.3H469l6,15.7L474.2,543z"/>
<path class="st1" d="M482.4,545c1.4-1.3,2-2.9,2.1-5v-1.8h-1.7v2.3c-0.1,1.3-0.5,2.5-1.4,3.7L482.4,545z"/>
<rect x="494.5" y="518.5" class="st1" width="1.8" height="22.5"/>
<path class="st1" d="M502.7,540.3c1.1,0.7,2.4,1,3.7,1c2.5,0,4.3-0.9,5.7-2.7l-1.1-0.8c-0.6,0.7-1.3,1.3-2,1.6s-1.6,0.5-2.5,0.5
	c-1.6,0-2.9-0.6-3.9-1.8s-1.5-2.7-1.5-4.5v-0.3h11.3v-1c0-2.3-0.6-4.1-1.7-5.4c-1.1-1.3-2.7-2-4.6-2c-1.2,0-2.3,0.3-3.4,1
	s-1.9,1.7-2.5,2.9s-0.9,2.6-0.9,4.1v0.6c0,1.5,0.3,2.8,0.9,4C500.8,538.7,501.6,539.6,502.7,540.3z M502.8,527.9
	c0.9-1,2-1.5,3.3-1.5s2.5,0.6,3.3,1.5s1.3,2.2,1.3,3.7v0.2h-9.5C501.3,530.2,501.9,528.9,502.8,527.9z"/>
<path class="st1" d="M520.3,541.1c2.1,0,3.8-0.7,4.9-2.3v2c-0.1,1.5-0.5,2.7-1.3,3.6c-0.8,0.9-1.9,1.3-3.4,1.3
	c-1.7,0-3.2-0.8-4.4-2.3l-1,1.1c0.6,0.9,1.4,1.5,2.4,2s2.1,0.7,3.2,0.7c1.9,0,3.5-0.7,4.6-1.8s1.7-2.8,1.7-4.8v-15.5h-1.6l-0.1,2.3
	c-1.1-1.7-2.7-2.6-4.9-2.6c-1.9,0-3.4,0.7-4.5,2.2s-1.6,3.4-1.6,5.9l-0.1,0.1c0,2.5,0.6,4.4,1.7,5.9
	C517,540.4,518.5,541.1,520.3,541.1z M517.3,528.1c0.8-1.1,1.9-1.7,3.4-1.7c1.1,0,2,0.3,2.8,0.8s1.4,1.3,1.8,2.3v7.4
	c-0.9,1.9-2.4,2.9-4.6,2.9c-1.4,0-2.6-0.6-3.4-1.8s-1.2-2.8-1.2-4.8C516.1,531,516.5,529.2,517.3,528.1z"/>
<rect x="531.1" y="525.1" class="st1" width="1.8" height="15.9"/>
<path class="st1" d="M545.6,539.3c-0.8,0.5-1.8,0.8-3,0.8c-1.4,0-2.4-0.3-3.2-0.9c-0.8-0.6-1.2-1.4-1.3-2.4h-1.8
	c0,1.4,0.5,2.5,1.7,3.4s2.7,1.3,4.5,1.3c1.7,0,3.1-0.4,4.2-1.2c1.1-0.8,1.6-1.9,1.6-3.2c0-0.8-0.2-1.5-0.6-2.1
	c-0.4-0.6-0.9-1-1.7-1.5s-1.9-0.8-3.5-1.2s-2.6-0.8-3.2-1.2c-0.6-0.4-0.9-1-0.9-1.8s0.3-1.5,1-2s1.6-0.8,2.8-0.8
	c1.1,0,2.1,0.3,2.9,0.9c0.8,0.6,1.2,1.4,1.2,2.3h1.8c0-1.4-0.5-2.5-1.6-3.4s-2.5-1.3-4.3-1.3c-1.6,0-2.9,0.4-4,1.2s-1.6,1.9-1.6,3.1
	c0,0.8,0.3,1.5,0.6,2s0.9,1,1.7,1.4s1.9,0.7,3.3,1c1.4,0.3,2.5,0.7,3.2,1.2s1,1.2,1,2.1C546.4,537.8,546.4,538.8,545.6,539.3z"/>
<rect x="551.5" y="518.5" class="st1" width="1.8" height="22.5"/>
<path class="st1" d="M563.8,531.9c-2.3,0-4.1,0.4-5.4,1.3c-1.3,0.9-1.9,2.2-1.9,3.7c0,1.3,0.5,2.3,1.4,3.2s2.2,1.3,3.7,1.3
	c1,0,2-0.2,3-0.7s1.8-1.1,2.4-1.9c0,1,0.1,1.7,0.3,2.2l2-0.1v-0.2c-0.3-0.7-0.5-1.9-0.5-3.4v-7.5c-0.1-1.6-0.6-2.8-1.6-3.7
	s-2.4-1.3-4.2-1.3c-1.7,0-3.1,0.5-4.3,1.4s-1.8,2-1.8,3.3h1.8c0-0.9,0.4-1.7,1.2-2.3s1.8-0.9,3-0.9c1.4,0,2.4,0.3,3.1,1s1,1.6,1,2.7
	v1.9H563.8z M566.9,536.5c-0.4,1-1.1,1.7-2,2.3s-1.9,0.9-3.1,0.9c-1.1,0-1.9-0.3-2.6-0.9c-0.7-0.6-1-1.3-1-2.2
	c0-1.1,0.5-1.9,1.5-2.6s2.4-1,4.1-1h3.1V536.5z"/>
<path class="st1" d="M573.6,537.2c0,1.4,0.3,2.5,0.8,3.1s1.4,1,2.6,1c0.8,0,1.4,0,1.9-0.2l-0.1-1.4c-0.6,0.1-1.1,0.1-1.4,0.1
	c-0.8,0-1.3-0.2-1.6-0.6c-0.3-0.5-0.5-1.1-0.5-2v-10.6h3.3v-1.4h-3.3v-4.1h-1.7v4.1h-2.9v1.4h2.9V537.2z"/>
<rect x="581.7" y="525.1" class="st1" width="1.8" height="15.9"/>
<polygon class="st1" points="593.1,541.1 599,525.2 597.2,525.2 592.4,538.6 587.6,525.2 585.8,525.2 591.7,541.1 "/>
<path class="st1" d="M611.7,537.8c-0.6,0.7-1.3,1.3-2,1.6s-1.6,0.5-2.5,0.5c-1.6,0-2.9-0.6-3.9-1.8s-1.5-2.7-1.5-4.5v-0.3h11.3v-1
	c0-2.3-0.6-4.1-1.7-5.4s-2.7-2-4.6-2c-1.2,0-2.3,0.3-3.4,1c-1.1,0.7-1.9,1.7-2.5,2.9s-0.9,2.6-0.9,4.1v0.6c0,1.5,0.3,2.8,0.9,4
	c0.6,1.2,1.4,2.1,2.5,2.8s2.4,1,3.7,1c2.4,0,4.3-0.9,5.7-2.7L611.7,537.8z M603.5,527.9c0.9-1,2-1.5,3.3-1.5s2.5,0.6,3.3,1.5
	s1.3,2.2,1.3,3.7v0.2h-9.5C602,530.2,602.6,528.9,603.5,527.9z"/>
<path class="st1" d="M624,527.6v-2.5h-1.7V541h1.7v-10.9c0.3-1.2,0.8-2.1,1.6-2.7c0.8-0.6,1.7-0.9,2.8-0.9c0.4,0,0.8,0,1.2,0.1
	l0.1-1.6c-0.3-0.1-0.7-0.2-1.2-0.2C626.4,524.8,624.9,525.7,624,527.6z"/>
<path class="st1" d="M643.2,538.6l-1.1-0.8c-0.6,0.7-1.3,1.3-2,1.6s-1.6,0.5-2.5,0.5c-1.6,0-2.9-0.6-3.9-1.8s-1.5-2.7-1.5-4.5v-0.3
	h11.3v-1c0-2.3-0.6-4.1-1.7-5.4s-2.7-2-4.6-2c-1.2,0-2.3,0.3-3.4,1c-1.1,0.7-1.9,1.7-2.5,2.9s-0.9,2.6-0.9,4.1v0.6
	c0,1.5,0.3,2.8,0.9,4c0.6,1.2,1.4,2.1,2.5,2.8s2.4,1,3.7,1C639.9,541.3,641.8,540.4,643.2,538.6z M633.8,527.9c0.9-1,2-1.5,3.3-1.5
	c1.4,0,2.5,0.6,3.3,1.5s1.3,2.2,1.3,3.7v0.2h-9.5C632.3,530.2,632.9,528.9,633.8,527.9z"/>
<path class="st1" d="M649.1,541v-14.3h3.8v-1.4h-3.8v-2c0-1.1,0.3-2,0.8-2.6c0.6-0.6,1.3-0.9,2.3-0.9c0.6,0,1.1,0.1,1.6,0.2l0.1-1.5
	c-0.6-0.1-1.2-0.2-1.9-0.2c-1.5,0-2.7,0.5-3.5,1.3s-1.2,2.1-1.2,3.7v1.9h-2.6v1.4h2.6V541H649.1z"/>
<path class="st1" d="M661.4,541.2c1.4,0,2.6-0.4,3.7-1c1.1-0.6,1.9-1.6,2.5-2.8s0.9-2.6,0.9-4.1v-0.4c0-2.5-0.7-4.4-2-5.9
	s-3-2.2-5.1-2.2c-1.4,0-2.6,0.3-3.7,1c-1.1,0.7-1.9,1.7-2.5,2.9s-0.9,2.6-0.9,4.1v0.3c0,2.5,0.7,4.4,2,5.9S659.3,541.2,661.4,541.2z
	 M656,533.1c0-2,0.5-3.6,1.5-4.8s2.2-1.8,3.8-1.8c1.1,0,2,0.3,2.8,0.8s1.4,1.3,1.9,2.3s0.7,2.1,0.7,3.3v0.3c0,2-0.6,3.6-1.5,4.8
	s-2.2,1.8-3.8,1.8s-2.9-0.5-3.9-1.8s-1.5-2.8-1.5-4.7V533.1z"/>
<path class="st1" d="M673,527.6v-2.5h-1.7V541h1.7v-10.9c0.3-1.2,0.8-2.1,1.6-2.7c0.8-0.6,1.7-0.9,2.8-0.9c0.4,0,0.8,0,1.2,0.1
	l0.1-1.6c-0.3-0.1-0.7-0.2-1.2-0.2C675.4,524.8,673.9,525.7,673,527.6z"/>
<path class="st1" d="M700.1,527.5c0.6,0.6,0.9,1.7,0.9,3.1V541h1.8v-10.6c-0.1-3.7-1.8-5.6-5.2-5.6c-1.1,0-2.1,0.2-3.1,0.8
	s-1.7,1.3-2.3,2.3c-0.7-2.1-2.3-3.1-4.8-3.1c-1,0-2,0.2-2.9,0.7s-1.6,1.2-2.2,2.2l-0.1-2.6h-1.8V541h1.8v-10.9
	c0.4-1.2,1.1-2.2,1.8-2.8s1.7-0.9,2.8-0.9c1.3,0,2.2,0.4,2.9,1s1,1.6,1,3V541h1.8v-10.4c0.1-1.1,0.6-2.1,1.5-2.9s1.9-1.2,3.2-1.2
	S699.5,526.9,700.1,527.5z"/>
<path class="st1" d="M708.2,540v-1.8h-1.7v2.3c-0.1,1.3-0.5,2.5-1.4,3.7l1,0.8C707.5,543.7,708.2,542.1,708.2,540z"/>
<rect x="718.2" y="518.5" class="st1" width="1.8" height="22.5"/>
<path class="st1" d="M730.1,524.8c-1.4,0-2.6,0.3-3.7,1c-1.1,0.7-1.9,1.7-2.5,2.9s-0.9,2.6-0.9,4.1v0.3c0,2.5,0.7,4.4,2,5.9
	s3,2.2,5.1,2.2c1.4,0,2.6-0.4,3.7-1c1.1-0.6,1.9-1.6,2.5-2.8s0.9-2.6,0.9-4.1v-0.4c0-2.5-0.7-4.4-2-5.9S732.2,524.8,730.1,524.8z
	 M735.5,533.2c0,2-0.6,3.6-1.5,4.8s-2.2,1.8-3.8,1.8s-2.9-0.5-3.9-1.8s-1.5-2.8-1.5-4.7v-0.2c0-2,0.5-3.6,1.5-4.8s2.2-1.8,3.8-1.8
	c1.1,0,2,0.3,2.8,0.8s1.4,1.3,1.9,2.3s0.7,2.1,0.7,3.3V533.2z"/>
<path class="st1" d="M745.9,541.3c1.1,0,2.1-0.2,3-0.7s1.7-1.1,2.2-1.9s0.9-1.6,0.9-2.6h-1.7c0,1.1-0.4,2-1.3,2.7s-1.9,1-3.1,1
	c-1.6,0-2.8-0.5-3.7-1.6s-1.3-2.7-1.3-4.7V533c0-2.1,0.4-3.7,1.3-4.8c0.9-1.1,2.1-1.7,3.7-1.7c1.3,0,2.3,0.3,3.1,1.1s1.2,1.8,1.3,3
	h1.8c-0.1-1.7-0.7-3-1.8-4.1s-2.6-1.6-4.3-1.6c-1.4,0-2.5,0.3-3.6,1s-1.9,1.6-2.4,2.8s-0.8,2.5-0.8,4.1v0.5c0,2.4,0.6,4.3,1.8,5.8
	S743.8,541.3,745.9,541.3z"/>
<path class="st1" d="M761.3,531.9c-2.3,0-4.1,0.4-5.4,1.3c-1.3,0.9-1.9,2.2-1.9,3.7c0,1.3,0.5,2.3,1.4,3.2s2.2,1.3,3.7,1.3
	c1,0,2-0.2,3-0.7s1.8-1.1,2.4-1.9c0,1,0.1,1.7,0.3,2.2l2-0.1v-0.2c-0.3-0.7-0.5-1.9-0.5-3.4v-7.5c-0.1-1.6-0.6-2.8-1.6-3.7
	s-2.4-1.3-4.2-1.3c-1.7,0-3.1,0.5-4.3,1.4s-1.8,2-1.8,3.3h1.8c0-0.9,0.4-1.7,1.2-2.3s1.8-0.9,3-0.9c1.4,0,2.4,0.3,3.1,1s1,1.6,1,2.7
	v1.9H761.3z M764.3,536.5c-0.4,1-1.1,1.7-2,2.3s-1.9,0.9-3.1,0.9c-1,0-1.8-0.3-2.5-0.9c-0.7-0.6-1-1.3-1-2.2c0-1.1,0.5-1.9,1.5-2.6
	s2.4-1,4.1-1h3V536.5z"/>
<polygon class="st1" points="772.1,541 772.1,518.5 770.3,518.5 770.3,541 772,541 "/>
<path class="st1" d="M794.5,541v-10.4c0.1-1.1,0.6-2.1,1.5-2.9s1.9-1.2,3.2-1.2s2.3,0.4,2.9,1c0.6,0.6,0.9,1.7,0.9,3.1V541h1.8
	v-10.6c-0.1-3.7-1.8-5.6-5.2-5.6c-1.1,0-2.1,0.2-3.1,0.8s-1.7,1.3-2.3,2.3c-0.7-2.1-2.3-3.1-4.8-3.1c-1,0-2,0.2-2.9,0.7
	s-1.6,1.2-2.2,2.2l-0.1-2.6h-1.8V541h1.8v-10.9c0.4-1.2,1.1-2.2,1.8-2.8s1.7-0.9,2.8-0.9c1.3,0,2.2,0.4,2.9,1s1,1.6,1,3V541H794.5z"
	/>
<path class="st1" d="M815.7,540.7c1-0.5,1.8-1.1,2.4-1.9c0,1,0.1,1.7,0.3,2.2l2-0.1v-0.2c-0.3-0.7-0.5-1.9-0.5-3.4v-7.5
	c-0.1-1.6-0.6-2.8-1.6-3.7s-2.4-1.3-4.2-1.3c-1.7,0-3.1,0.5-4.3,1.4s-1.8,2-1.8,3.3h1.8c0-0.9,0.4-1.7,1.2-2.3s1.8-0.9,3-0.9
	c1.4,0,2.4,0.3,3.1,1s1,1.6,1,2.7v1.9h-3.2c-2.3,0-4.1,0.4-5.4,1.3c-1.3,0.9-1.9,2.2-1.9,3.7c0,1.3,0.5,2.3,1.4,3.2s2.2,1.3,3.7,1.3
	C813.7,541.4,814.7,541.2,815.7,540.7z M809.3,536.6c0-1.1,0.5-1.9,1.5-2.6s2.4-1,4.1-1h3.1v3.5c-0.4,1-1.1,1.7-2,2.3
	s-1.9,0.9-3.1,0.9c-1,0-1.9-0.3-2.6-0.9C809.6,538.2,809.3,537.5,809.3,536.6z"/>
<path class="st1" d="M835.7,541v-10.5c-0.1-1.9-0.5-3.4-1.3-4.3c-0.8-0.9-2.1-1.4-3.8-1.4c-1,0-2,0.3-2.9,0.8s-1.6,1.2-2.2,2.2
	l-0.1-2.7h-1.6V541h1.7v-10.9c0.4-1.1,1-2,1.9-2.7s1.8-1,2.9-1c1.3,0,2.2,0.3,2.8,1s0.9,1.8,0.9,3.2V541H835.7z"/>
<path class="st1" d="M844.8,541.3c2.2,0,3.9-0.8,5-2.4l0.1,2.1h1.6v-22.6h-1.7v8.9c-1.1-1.7-2.8-2.5-4.9-2.5c-1.9,0-3.4,0.7-4.5,2.2
	s-1.6,3.4-1.6,5.9h-0.1v0.2c0,2.5,0.6,4.5,1.7,6S843,541.3,844.8,541.3z M841.7,528.1c0.8-1.1,1.9-1.7,3.4-1.7c2.2,0,3.7,1,4.6,3.1
	v7.4c-0.9,1.9-2.4,2.9-4.6,2.9c-1.4,0-2.6-0.6-3.4-1.8c-0.8-1.2-1.2-2.8-1.2-4.8C840.5,531,840.9,529.2,841.7,528.1z"/>
<path class="st1" d="M867.4,540.7c-0.3-0.7-0.5-1.9-0.5-3.4v-7.5c-0.1-1.6-0.6-2.8-1.6-3.7s-2.4-1.3-4.2-1.3c-1.7,0-3.1,0.5-4.3,1.4
	s-1.8,2-1.8,3.3h1.8c0-0.9,0.4-1.7,1.2-2.3s1.8-0.9,3-0.9c1.4,0,2.4,0.3,3.1,1s1,1.6,1,2.7v1.9h-3.2c-2.3,0-4.1,0.4-5.4,1.3
	c-1.3,0.9-1.9,2.2-1.9,3.7c0,1.3,0.5,2.3,1.4,3.2s2.2,1.3,3.7,1.3c1,0,2-0.3,3-0.7c1-0.5,1.8-1.1,2.4-1.9c0,1,0.1,1.7,0.3,2.2l2-0.1
	V540.7z M865,536.5c-0.4,1-1.1,1.7-2,2.3s-1.9,0.9-3.1,0.9c-1.1,0-1.9-0.3-2.6-0.9c-0.7-0.6-1-1.3-1-2.2c0-1.1,0.5-1.9,1.5-2.6
	s2.4-1,4.1-1h3.1V536.5z"/>
<path class="st1" d="M871.7,537.2c0,1.4,0.3,2.5,0.8,3.1s1.4,1,2.6,1c0.8,0,1.4,0,1.9-0.2l-0.1-1.4c-0.6,0.1-1.1,0.1-1.4,0.1
	c-0.8,0-1.3-0.2-1.6-0.6c-0.3-0.5-0.5-1.1-0.5-2v-10.6h3.3v-1.4h-3.3v-4.1h-1.7v4.1h-2.9v1.4h2.9V537.2z"/>
<path class="st1" d="M890.3,537.8c-0.6,0.7-1.3,1.3-2,1.6s-1.6,0.5-2.5,0.5c-1.6,0-2.9-0.6-3.9-1.8s-1.5-2.7-1.5-4.5v-0.3h11.3v-1
	c0-2.3-0.6-4.1-1.7-5.4s-2.7-2-4.6-2c-1.2,0-2.3,0.3-3.4,1c-1.1,0.7-1.9,1.7-2.5,2.9s-0.9,2.6-0.9,4.1v0.6c0,1.5,0.3,2.8,0.9,4
	c0.6,1.2,1.4,2.1,2.5,2.8s2.4,1,3.7,1c2.5,0,4.4-0.9,5.7-2.7L890.3,537.8z M882.1,527.9c0.9-1,2-1.5,3.3-1.5s2.5,0.6,3.3,1.5
	s1.3,2.2,1.3,3.7v0.2h-9.5C880.6,530.2,881.2,528.9,882.1,527.9z"/>
<path class="st1" d="M904.1,540.3c1.1-0.8,1.6-1.9,1.6-3.2c0-0.8-0.2-1.5-0.6-2.1c-0.4-0.6-0.9-1-1.7-1.5s-2-0.8-3.5-1.2
	c-1.6-0.4-2.6-0.8-3.2-1.2c-0.6-0.4-0.9-1-0.9-1.8s0.3-1.5,1-2s1.6-0.8,2.8-0.8c1.1,0,2.1,0.3,2.9,0.9c0.8,0.6,1.2,1.4,1.2,2.3h1.8
	c0-1.4-0.5-2.5-1.6-3.4s-2.5-1.3-4.3-1.3c-1.6,0-2.9,0.4-4,1.2s-1.6,1.9-1.6,3.1c0,0.8,0.3,1.5,0.6,2s0.9,1,1.7,1.4s1.9,0.7,3.3,1
	c1.4,0.3,2.5,0.7,3.2,1.2s1,1.2,1,2.1c0,0.8,0,1.8-0.8,2.3s-1.8,0.8-3,0.8c-1.4,0-2.4-0.3-3.2-0.9c-0.8-0.6-1.2-1.4-1.3-2.4h-1.8
	c0,1.4,0.6,2.5,1.7,3.4c1.2,0.9,2.7,1.3,4.5,1.3C901.6,541.5,903,541.1,904.1,540.3z"/>
<path class="st1" d="M908.8,540.5c-0.1,1.3-0.5,2.5-1.4,3.7l1,0.8c1.4-1.3,2.1-2.9,2.1-5v-1.8h-1.7L908.8,540.5z"/>
<path class="st1" d="M919.9,529.5h1.8c0-0.9,0.4-1.7,1.2-2.3s1.8-0.9,3-0.9c1.4,0,2.4,0.3,3.1,1s1,1.6,1,2.7v1.9h-3.2
	c-2.3,0-4.1,0.4-5.4,1.3c-1.3,0.9-1.9,2.2-1.9,3.7c0,1.3,0.5,2.3,1.4,3.2s2.2,1.3,3.7,1.3c1,0,2-0.3,3-0.7c1-0.5,1.8-1.1,2.4-1.9
	c0,1,0.1,1.7,0.3,2.2l2-0.1v-0.2c-0.3-0.7-0.5-1.9-0.5-3.4v-7.5c-0.1-1.6-0.6-2.8-1.6-3.7s-2.4-1.3-4.2-1.3c-1.7,0-3.1,0.5-4.3,1.4
	C920.5,527.1,919.9,528.2,919.9,529.5z M929.9,536.5c-0.4,1-1.1,1.7-2,2.3s-1.9,0.9-3.1,0.9c-1,0-1.9-0.3-2.6-0.9
	c-0.7-0.6-1-1.3-1-2.2c0-1.1,0.5-1.9,1.5-2.6s2.4-1,4.1-1h3.1V536.5z"/>
<path class="st1" d="M945.9,530.6V541h1.7v-10.5c-0.1-1.9-0.5-3.4-1.3-4.3c-0.8-0.9-2.1-1.4-3.8-1.4c-1,0-2,0.3-2.9,0.8
	s-1.6,1.2-2.2,2.2l-0.1-2.7h-1.6V541h1.7v-10.9c0.4-1.1,1.1-2,1.9-2.7c0.9-0.7,1.8-1,2.9-1c1.3,0,2.2,0.3,2.8,1
	S945.9,529.2,945.9,530.6z"/>
<path class="st1" d="M961.7,538.9l0.1,2.1h1.6v-22.6h-1.7v8.9c-1.1-1.7-2.8-2.5-4.9-2.5c-1.9,0-3.4,0.7-4.5,2.2s-1.6,3.4-1.6,5.9
	h-0.1v0.2c0,2.5,0.6,4.5,1.7,6c1.1,1.5,2.6,2.2,4.4,2.2C958.9,541.3,960.6,540.5,961.7,538.9z M957,539.8c-1.4,0-2.6-0.6-3.4-1.8
	c-0.8-1.2-1.2-2.8-1.2-4.8c0-2.2,0.4-4,1.2-5.1s1.9-1.7,3.4-1.7c2.2,0,3.7,1,4.6,3.1v7.4C960.7,538.8,959.2,539.8,957,539.8z"/>
<path class="st1" d="M980.2,541.1l-0.1-1.4c-0.6,0.1-1.1,0.1-1.4,0.1c-0.8,0-1.3-0.2-1.6-0.6c-0.3-0.5-0.5-1.1-0.5-2v-10.6h3.3v-1.4
	h-3.3v-4.1h-1.7v4.1H972v1.4h2.9v10.6c0,1.4,0.3,2.5,0.8,3.1s1.4,1,2.6,1C979.1,541.3,979.7,541.3,980.2,541.1z"/>
<path class="st1" d="M992.1,527.4c0.6,0.7,0.9,1.8,0.9,3.2V541h1.7v-10.5c-0.1-1.9-0.5-3.4-1.3-4.3c-0.8-0.9-2.1-1.4-3.8-1.4
	c-1,0-2,0.3-2.9,0.8s-1.6,1.3-2.2,2.2v-9.3h-1.7V541h1.7v-10.9c0.4-1.1,1.1-2,1.9-2.7c0.9-0.7,1.8-1,2.9-1
	C990.6,526.4,991.5,526.7,992.1,527.4z"/>
<path class="st1" d="M1010.3,538.6l-1.1-0.8c-0.6,0.7-1.3,1.3-2,1.6s-1.6,0.5-2.5,0.5c-1.6,0-2.9-0.6-3.9-1.8s-1.5-2.7-1.5-4.5v-0.3
	h11.3v-1c0-2.3-0.6-4.1-1.7-5.4s-2.7-2-4.6-2c-1.2,0-2.3,0.3-3.4,1c-1.1,0.7-1.9,1.7-2.5,2.9s-0.9,2.6-0.9,4.1v0.6
	c0,1.5,0.3,2.8,0.9,4c0.6,1.2,1.4,2.1,2.5,2.8s2.4,1,3.7,1C1007,541.3,1008.9,540.4,1010.3,538.6z M1001,527.9c0.9-1,2-1.5,3.3-1.5
	s2.5,0.6,3.3,1.5s1.3,2.2,1.3,3.7v0.2h-9.5C999.5,530.2,1000.1,528.9,1001,527.9z"/>
<path class="st1" d="M210.3,577.3c2.2,0,3.9-0.8,5-2.4l0.1,2.1h1.6v-22.6h-1.7v8.9c-1.1-1.7-2.8-2.5-4.9-2.5c-1.9,0-3.4,0.7-4.5,2.2
	s-1.6,3.4-1.6,5.9l-0.1,0.2c0,2.5,0.6,4.5,1.7,6C207,576.6,208.5,577.3,210.3,577.3z M207.3,564.1c0.8-1.1,1.9-1.7,3.4-1.7
	c2.2,0,3.7,1,4.6,3.1v7.4c-0.9,1.9-2.4,2.9-4.6,2.9c-1.4,0-2.6-0.6-3.4-1.8s-1.2-2.8-1.2-4.8C206.1,567,206.5,565.2,207.3,564.1z"/>
<path class="st1" d="M230.6,574.8c0,1,0.1,1.7,0.3,2.2l2-0.1v-0.2c-0.3-0.7-0.5-1.9-0.5-3.4v-7.5c-0.1-1.6-0.6-2.8-1.6-3.7
	s-2.4-1.3-4.2-1.3c-1.7,0-3.1,0.5-4.3,1.4s-1.8,2-1.8,3.3h1.8c0-0.9,0.4-1.7,1.2-2.3s1.8-0.9,3-0.9c1.4,0,2.4,0.3,3.1,1s1,1.6,1,2.7
	v1.9h-3.2c-2.3,0-4.1,0.4-5.4,1.3s-1.9,2.2-1.9,3.7c0,1.3,0.5,2.3,1.4,3.2s2.2,1.3,3.7,1.3c1,0,2-0.2,3-0.7S230,575.6,230.6,574.8z
	 M228.5,574.9c-0.9,0.5-1.9,0.8-3.1,0.8c-1.1,0-1.9-0.2-2.6-0.8s-1-1.3-1-2.2c0-1.1,0.5-1.9,1.5-2.6s2.4-1,4.1-1h3.1v3.5
	C230.1,573.6,229.4,574.4,228.5,574.9z"/>
<path class="st1" d="M238,581.2c-0.5,0.4-1.2,0.6-2.1,0.6l-0.9-0.1v1.5c0.4,0.1,0.9,0.2,1.3,0.2c1.8,0,3.1-1,4-2.9l0.4-0.8l6.8-18.5
	h-1.9l-4.6,13.3l-4.9-13.3h-1.9l6,15.7l-0.8,2.1C239,580,238.5,580.8,238,581.2z"/>
<rect x="248" y="566.8" class="st1" width="7" height="1.5"/>
<path class="st1" d="M263.7,577.1l-0.1-1.4c-0.6,0.1-1.1,0.1-1.4,0.1c-0.8,0-1.3-0.2-1.6-0.6c-0.3-0.5-0.5-1.1-0.5-2v-10.6h3.3v-1.4
	h-3.3v-4.1h-1.7v4.1h-2.9v1.4h2.9v10.6c0,1.4,0.3,2.4,0.8,3.1s1.4,1,2.6,1C262.6,577.3,263.2,577.3,263.7,577.1z"/>
<path class="st1" d="M272.1,560.9c-1.4,0-2.6,0.4-3.7,1s-1.9,1.6-2.5,2.8s-0.9,2.6-0.9,4.1v0.4c0,2.5,0.7,4.4,2,5.9s3,2.2,5.1,2.2
	c1.4,0,2.6-0.4,3.7-1s1.9-1.6,2.5-2.8s0.9-2.6,0.9-4.1V569c0-2.5-0.7-4.4-2-5.9S274.2,560.9,272.1,560.9z M277.4,569.2
	c0,2-0.6,3.6-1.5,4.8s-2.2,1.8-3.8,1.8s-2.9-0.5-3.9-1.8s-1.5-2.8-1.5-4.7v-0.2c0-2,0.5-3.6,1.5-4.8s2.2-1.8,3.8-1.8
	c1.1,0,2,0.3,2.8,0.8s1.4,1.3,1.9,2.3s0.7,2.1,0.7,3.3V569.2z"/>
<rect x="280.4" y="566.8" class="st1" width="7" height="1.5"/>
<path class="st1" d="M300.1,574.9l0.1,2.1h1.6v-22.6h-1.7v8.9c-1.1-1.7-2.8-2.5-4.9-2.5c-1.9,0-3.4,0.7-4.5,2.2s-1.6,3.4-1.6,5.9
	l-0.1,0.2c0,2.5,0.6,4.5,1.7,6s2.6,2.2,4.4,2.2C297.3,577.3,299,576.5,300.1,574.9z M295.5,575.8c-1.4,0-2.6-0.6-3.4-1.8
	s-1.2-2.8-1.2-4.8c0-2.2,0.4-4,1.2-5.1s1.9-1.7,3.4-1.7c2.2,0,3.7,1,4.6,3.1v7.4C299.2,574.8,297.7,575.8,295.5,575.8z"/>
<path class="st1" d="M315.4,574.8c0,1,0.1,1.7,0.3,2.2l2-0.1v-0.2c-0.3-0.7-0.5-1.9-0.5-3.4v-7.5c-0.1-1.6-0.6-2.8-1.6-3.7
	s-2.4-1.3-4.2-1.3c-1.7,0-3.1,0.5-4.3,1.4c-1.2,0.9-1.8,2-1.8,3.3h1.8c0-0.9,0.4-1.7,1.2-2.3c0.8-0.6,1.8-0.9,3-0.9
	c1.4,0,2.4,0.3,3.1,1s1,1.6,1,2.7v1.9h-3.2c-2.3,0-4.1,0.4-5.4,1.3s-1.9,2.2-1.9,3.7c0,1.3,0.5,2.3,1.4,3.2s2.2,1.3,3.7,1.3
	c1,0,2-0.2,3-0.7S314.8,575.6,315.4,574.8z M313.3,574.9c-0.9,0.5-1.9,0.8-3.1,0.8c-1,0-1.8-0.2-2.5-0.8s-1-1.3-1-2.2
	c0-1.1,0.5-1.9,1.5-2.6s2.4-1,4.1-1h3v3.5C314.9,573.6,314.2,574.4,313.3,574.9z"/>
<path class="st1" d="M319.1,561.2l6,15.7l-0.8,2.1c-0.4,1-0.9,1.8-1.4,2.2s-1.2,0.6-2.1,0.6l-0.9-0.1v1.5c0.4,0.1,0.9,0.2,1.3,0.2
	c1.8,0,3.1-1,4-2.9l0.4-0.8l6.8-18.5h-1.9l-4.6,13.3l-4.9-13.3H319.1z"/>
<path class="st1" d="M349.7,576.6c0.9-0.5,1.7-1.1,2.2-1.9s0.9-1.6,0.9-2.6h-1.7c0,1.1-0.4,2-1.3,2.7s-1.9,1-3.1,1
	c-1.5,0-2.7-0.5-3.6-1.6s-1.3-2.7-1.3-4.7V569c0-2.1,0.4-3.7,1.3-4.8s2.1-1.7,3.7-1.7c1.3,0,2.3,0.3,3.1,1.1s1.2,1.8,1.3,3h1.7
	c-0.1-1.7-0.7-3-1.8-4.1s-2.6-1.6-4.3-1.6c-1.4,0-2.5,0.3-3.6,1s-1.9,1.6-2.4,2.8s-0.8,2.5-0.8,4.1v0.5c0,2.4,0.6,4.3,1.8,5.8
	c1.2,1.5,2.8,2.2,4.9,2.2C347.8,577.3,348.8,577.1,349.7,576.6z"/>
<path class="st1" d="M364.9,563.4c0.6,0.7,0.9,1.8,0.9,3.2V577h1.7v-10.5c-0.1-1.9-0.5-3.4-1.3-4.3s-2.1-1.4-3.8-1.4
	c-1,0-2,0.3-2.9,0.8s-1.6,1.3-2.2,2.2v-9.3h-1.7V577h1.7v-10.9c0.4-1.1,1-2,1.9-2.7s1.8-1,2.9-1
	C363.4,562.4,364.3,562.7,364.9,563.4z"/>
<path class="st1" d="M377.8,567.9c-2.3,0-4.1,0.4-5.4,1.3s-1.9,2.2-1.9,3.7c0,1.3,0.5,2.3,1.4,3.2s2.2,1.3,3.7,1.3c1,0,2-0.2,3-0.7
	s1.8-1.1,2.4-1.9c0,1,0.1,1.7,0.3,2.2l2-0.1v-0.2c-0.3-0.7-0.5-1.9-0.5-3.4v-7.5c-0.1-1.6-0.6-2.8-1.6-3.7s-2.4-1.3-4.2-1.3
	c-1.7,0-3.1,0.5-4.3,1.4s-1.8,2-1.8,3.3h1.8c0-0.9,0.4-1.7,1.2-2.3s1.8-0.9,3-0.9c1.4,0,2.4,0.3,3.1,1s1,1.6,1,2.7v1.9H377.8z
	 M380.9,572.6c-0.4,1-1.1,1.8-2,2.3s-1.9,0.8-3.1,0.8c-1,0-1.9-0.2-2.6-0.8s-1-1.3-1-2.2c0-1.1,0.5-1.9,1.5-2.6s2.4-1,4.1-1h3.1
	V572.6z"/>
<rect x="386.8" y="554.5" class="st1" width="1.8" height="22.5"/>
<rect x="392.8" y="554.5" class="st1" width="1.8" height="22.5"/>
<path class="st1" d="M410.3,574.6l-1.1-0.8c-0.6,0.7-1.3,1.3-2,1.6s-1.6,0.5-2.5,0.5c-1.6,0-2.9-0.6-3.9-1.8s-1.5-2.7-1.5-4.5v-0.3
	h11.4v-1c0-2.3-0.6-4.1-1.7-5.4c-1.1-1.3-2.7-2-4.6-2c-1.2,0-2.3,0.3-3.4,1s-1.9,1.7-2.5,2.9s-0.9,2.6-0.9,4.1v0.6
	c0,1.5,0.3,2.8,0.9,4s1.4,2.1,2.5,2.8s2.4,1,3.7,1C407.2,577.3,409,576.4,410.3,574.6z M401.1,563.8c0.9-1,2-1.5,3.3-1.5
	s2.5,0.6,3.3,1.5s1.3,2.2,1.3,3.7v0.2h-9.5C399.6,566.1,400.2,564.8,401.1,563.8z"/>
<path class="st1" d="M423.6,566.6V577h1.7v-10.5c-0.1-1.9-0.5-3.4-1.3-4.3s-2.1-1.4-3.8-1.4c-1,0-2,0.3-2.9,0.8s-1.6,1.2-2.2,2.2
	l-0.1-2.7l-1.7,0.1V577h1.8v-10.9c0.4-1.1,1-2,1.9-2.7s1.8-1,2.9-1c1.3,0,2.2,0.3,2.8,1C423.3,564.1,423.6,565.2,423.6,566.6z"/>
<path class="st1" d="M441,576.6v-15.5h-1.6l-0.1,2.3c-1.1-1.7-2.7-2.6-4.9-2.6c-1.9,0-3.4,0.7-4.5,2.2s-1.6,3.4-1.6,5.9l-0.1,0.1
	c0,2.5,0.6,4.4,1.7,5.9s2.6,2.2,4.4,2.2c2.1,0,3.8-0.7,4.9-2.3v2c-0.1,1.5-0.5,2.7-1.3,3.6s-1.9,1.3-3.4,1.3c-1.7,0-3.2-0.8-4.4-2.3
	l-1,1.1c0.6,0.9,1.4,1.5,2.4,2s2.1,0.7,3.2,0.7c1.9,0,3.5-0.7,4.6-1.8C440.4,580.3,441,578.6,441,576.6z M434.7,575.8
	c-1.4,0-2.6-0.6-3.4-1.8s-1.2-2.8-1.2-4.8c0-2.2,0.4-4,1.2-5.1c0.8-1.1,1.9-1.7,3.4-1.7c1.1,0,2,0.3,2.8,0.8s1.4,1.3,1.8,2.3v7.4
	l0,0C438.4,574.8,436.9,575.8,434.7,575.8z"/>
<path class="st1" d="M450.8,560.9c-1.2,0-2.3,0.3-3.4,1s-1.9,1.7-2.5,2.9s-0.9,2.6-0.9,4.1v0.6c0,1.5,0.3,2.8,0.9,4s1.4,2.1,2.5,2.8
	s2.4,1,3.7,1c2.4,0,4.3-0.9,5.7-2.7l-1.1-0.8c-0.6,0.7-1.3,1.3-2,1.6s-1.6,0.5-2.5,0.5c-1.6,0-2.9-0.6-3.9-1.8s-1.5-2.7-1.5-4.5
	v-0.3h11.3v-1c0-2.3-0.6-4.1-1.7-5.4C454.3,561.6,452.7,560.9,450.8,560.9z M455.4,567.7h-9.5c0.1-1.6,0.7-2.9,1.6-3.9
	s2-1.5,3.3-1.5s2.5,0.6,3.3,1.5s1.3,2.2,1.3,3.7L455.4,567.7L455.4,567.7z"/>
<path class="st1" d="M471.1,573.1c0-0.8-0.2-1.5-0.6-2.1s-0.9-1-1.7-1.5c-0.8-0.5-1.9-0.8-3.5-1.2s-2.6-0.8-3.2-1.2s-0.9-1-0.9-1.8
	s0.3-1.5,1-2s1.6-0.8,2.8-0.8c1.1,0,2.1,0.3,2.9,0.9c0.8,0.6,1.2,1.4,1.2,2.3h1.8c0-1.4-0.5-2.5-1.6-3.4s-2.5-1.3-4.3-1.3
	c-1.6,0-2.9,0.4-4,1.2s-1.6,1.9-1.6,3.1c0,0.8,0.3,1.5,0.6,2c0.3,0.5,0.9,1,1.7,1.4c0.8,0.4,1.9,0.7,3.3,1s2.5,0.7,3.2,1.2
	s1,1.2,1,2.1c0,0.8,0,1.8-0.8,2.3s-1.8,0.8-3,0.8c-1.4,0-2.4-0.3-3.2-0.9c-0.8-0.6-1.2-1.4-1.3-2.4h-1.8c0,1.4,0.5,2.5,1.7,3.4
	s2.7,1.3,4.5,1.3c1.7,0,3.1-0.4,4.2-1.2C470.6,575.5,471.1,574.4,471.1,573.1z"/>
<path class="st1" d="M486.8,560.9c-1.4,0-2.6,0.4-3.7,1s-1.9,1.6-2.5,2.8s-0.9,2.6-0.9,4.1v0.4c0,2.5,0.7,4.4,2,5.9s3,2.2,5.1,2.2
	c1.4,0,2.6-0.4,3.7-1s1.9-1.6,2.5-2.8s0.9-2.6,0.9-4.1V569c0-2.5-0.7-4.4-2-5.9S488.9,560.9,486.8,560.9z M492.2,569.2
	c0,2-0.6,3.6-1.5,4.8s-2.2,1.8-3.8,1.8s-2.9-0.5-3.9-1.8s-1.5-2.8-1.5-4.7v-0.2c0-2,0.5-3.6,1.5-4.8s2.2-1.8,3.8-1.8
	c1.1,0,2,0.3,2.8,0.8s1.4,1.3,1.9,2.3s0.7,2.1,0.7,3.3V569.2z"/>
<path class="st1" d="M495.4,562.6h2.6V577h1.8v-14.3h3.8v-1.4h-3.8v-2c0-1.1,0.3-2,0.8-2.6c0.6-0.6,1.3-0.9,2.3-0.9
	c0.6,0,1.1,0.1,1.6,0.2l0.1-1.5c-0.6-0.1-1.2-0.2-1.9-0.2c-1.5,0-2.7,0.5-3.5,1.3s-1.2,2.1-1.2,3.7v1.9h-2.6L495.4,562.6
	L495.4,562.6z"/>
<path class="st1" d="M514.2,566.1c0.3-1.2,0.8-2.1,1.6-2.7c0.8-0.6,1.7-0.9,2.8-0.9c0.4,0,0.8,0,1.2,0.1l0.1-1.5
	c-0.3-0.1-0.7-0.2-1.2-0.2c-2.1,0-3.6,0.9-4.5,2.8v-2.5h-1.7V577h1.7L514.2,566.1L514.2,566.1z"/>
<path class="st1" d="M532,575v2h1.7v-15.9h-1.8v11.5c-0.7,2.1-2.3,3.1-4.8,3.1s-3.7-1.5-3.7-4.5v-10.1h-1.7v10.3
	c0,2,0.4,3.4,1.3,4.4s2.2,1.5,3.9,1.5C529.3,577.3,530.9,576.5,532,575z"/>
<path class="st1" d="M544.4,560.8c-1,0-2,0.3-2.9,0.8s-1.6,1.2-2.2,2.2l-0.1-2.7l-1.6,0.1V577h1.7v-10.9c0.4-1.1,1-2,1.9-2.7
	s1.8-1,2.9-1c1.3,0,2.2,0.3,2.8,1s0.9,1.8,0.9,3.2V577h1.7v-10.5c-0.1-1.9-0.5-3.4-1.3-4.3S546.1,560.8,544.4,560.8z"/>
<path class="st1" d="M565.2,577v-10.5c-0.1-1.9-0.5-3.4-1.3-4.3s-2.1-1.4-3.8-1.4c-1,0-2,0.3-2.9,0.8s-1.6,1.2-2.2,2.2l-0.1-2.7
	l-1.6,0.1V577h1.7v-10.9c0.4-1.1,1-2,1.9-2.7s1.8-1,2.9-1c1.3,0,2.2,0.3,2.8,1s0.9,1.8,0.9,3.2V577H565.2z"/>
<rect x="569.1" y="561.2" class="st1" width="1.8" height="15.8"/>
<path class="st1" d="M568.9,556.6c0,0.3,0.1,0.6,0.3,0.8s0.5,0.3,0.9,0.3s0.7-0.1,0.9-0.3s0.3-0.5,0.3-0.8s-0.1-0.6-0.3-0.8
	s-0.5-0.3-0.9-0.3s-0.7,0.1-0.9,0.3S568.9,556.3,568.9,556.6z"/>
<path class="st1" d="M586.9,577v-10.5c-0.1-1.9-0.5-3.4-1.3-4.3s-2.1-1.4-3.8-1.4c-1,0-2,0.3-2.9,0.8s-1.6,1.2-2.2,2.2l-0.1-2.7
	l-1.6,0.1V577h1.7v-10.9c0.4-1.1,1-2,1.9-2.7s1.8-1,2.9-1c1.3,0,2.2,0.3,2.8,1s0.9,1.8,0.9,3.2V577H586.9z"/>
<path class="st1" d="M602.7,561.1h-1.6l-0.1,2.3c-1.1-1.7-2.7-2.6-4.9-2.6c-1.9,0-3.4,0.7-4.5,2.2s-1.6,3.4-1.6,5.9l-0.1,0.1
	c0,2.5,0.6,4.4,1.7,5.9s2.6,2.2,4.4,2.2c2.1,0,3.8-0.7,4.9-2.3v2c-0.1,1.5-0.5,2.7-1.3,3.6s-1.9,1.3-3.4,1.3c-1.7,0-3.2-0.8-4.4-2.3
	l-1,1.1c0.6,0.9,1.4,1.5,2.4,2s2.1,0.7,3.2,0.7c1.9,0,3.5-0.7,4.6-1.8s1.7-2.8,1.7-4.8L602.7,561.1z M601,572.9
	c-0.9,1.9-2.4,2.9-4.6,2.9c-1.4,0-2.6-0.6-3.4-1.8s-1.2-2.8-1.2-4.8c0-2.2,0.4-4,1.2-5.1s1.9-1.7,3.4-1.7c1.1,0,2,0.3,2.8,0.8
	s1.4,1.3,1.8,2.3V572.9z"/>
<path class="st1" d="M624.6,565.8c-0.1-1.6-0.6-2.8-1.6-3.7s-2.4-1.3-4.2-1.3c-1.7,0-3.1,0.5-4.3,1.4s-1.8,2-1.8,3.3h1.8
	c0-0.9,0.4-1.7,1.2-2.3s1.8-0.9,3-0.9c1.4,0,2.4,0.3,3.1,1s1,1.6,1,2.7v1.9h-3.2c-2.3,0-4.1,0.4-5.4,1.3s-1.9,2.2-1.9,3.7
	c0,1.3,0.5,2.3,1.4,3.2s2.2,1.3,3.7,1.3c1,0,2-0.2,3-0.7s1.8-1.1,2.4-1.9c0,1,0.1,1.7,0.3,2.2l2-0.1v-0.2c-0.3-0.7-0.5-1.9-0.5-3.4
	V565.8z M622.7,572.6c-0.4,1-1.1,1.8-2,2.3s-1.9,0.8-3.1,0.8c-1,0-1.9-0.2-2.6-0.8s-1-1.3-1-2.2c0-1.1,0.5-1.9,1.5-2.6s2.4-1,4.1-1
	h3.1V572.6z"/>
<path class="st1" d="M644.1,569.5c-0.8-0.5-1.9-0.8-3.5-1.2s-2.6-0.8-3.2-1.2s-0.9-1-0.9-1.8s0.3-1.5,1-2s1.6-0.8,2.8-0.8
	c1.1,0,2.1,0.3,2.9,0.9s1.2,1.4,1.2,2.3h1.8c0-1.4-0.5-2.5-1.6-3.4s-2.5-1.3-4.3-1.3c-1.6,0-2.9,0.4-4,1.2s-1.6,1.9-1.6,3.1
	c0,0.8,0.3,1.5,0.6,2s0.9,1,1.7,1.4s1.9,0.7,3.3,1s2.5,0.7,3.2,1.2s1,1.2,1,2.1c0,0.8,0,1.8-0.8,2.3s-1.8,0.8-3,0.8
	c-1.4,0-2.4-0.3-3.2-0.9s-1.2-1.4-1.3-2.4h-1.8c0,1.4,0.5,2.5,1.7,3.4s2.7,1.3,4.5,1.3c1.7,0,3.1-0.4,4.2-1.2s1.6-1.9,1.6-3.2
	c0-0.8-0.2-1.5-0.6-2.1S644.9,570,644.1,569.5z"/>
<path class="st1" d="M651.7,564.2c0.9-1.1,2.1-1.7,3.7-1.7c1.3,0,2.3,0.3,3.1,1.1s1.2,1.8,1.3,3h1.7c-0.1-1.7-0.7-3-1.8-4.1
	s-2.6-1.6-4.3-1.6c-1.4,0-2.5,0.3-3.6,1s-1.9,1.6-2.4,2.8s-0.8,2.5-0.8,4.1v0.5c0,2.4,0.6,4.3,1.8,5.8s2.8,2.2,4.9,2.2
	c1.1,0,2.1-0.2,3-0.7s1.7-1.1,2.2-1.9s0.9-1.6,0.9-2.6h-1.7c0,1.1-0.4,2-1.3,2.7s-1.9,1-3.1,1c-1.6,0-2.7-0.5-3.6-1.6
	s-1.3-2.7-1.3-4.7V569C650.4,566.9,650.8,565.3,651.7,564.2z"/>
<path class="st1" d="M671,560.8c-1,0-2,0.3-2.9,0.8s-1.6,1.3-2.2,2.2l-0.1-9.3h-1.7V577h1.7v-10.9c0.4-1.1,1-2,1.9-2.7s1.8-1,2.9-1
	c1.3,0,2.2,0.3,2.8,1s0.9,1.8,0.9,3.2V577h1.8v-10.5c-0.1-1.9-0.5-3.4-1.3-4.3S672.7,560.8,671,560.8z"/>
<path class="st1" d="M686,560.9c-1.4,0-2.6,0.4-3.7,1s-1.9,1.6-2.5,2.8s-0.9,2.6-0.9,4.1v0.4c0,2.5,0.7,4.4,2,5.9s3,2.2,5.1,2.2
	c1.4,0,2.6-0.4,3.7-1s1.9-1.6,2.5-2.8s0.9-2.6,0.9-4.1V569c0-2.5-0.7-4.4-2-5.9S688.1,560.9,686,560.9z M691.3,569.2
	c0,2-0.6,3.6-1.5,4.8s-2.2,1.8-3.8,1.8s-2.9-0.5-3.9-1.8s-1.5-2.8-1.5-4.7v-0.2c0-2,0.5-3.6,1.5-4.8s2.2-1.8,3.8-1.8
	c1.1,0,2,0.3,2.8,0.8s1.4,1.3,1.9,2.3s0.7,2.1,0.7,3.3V569.2z"/>
<path class="st1" d="M702,560.9c-1.4,0-2.6,0.4-3.7,1s-1.9,1.6-2.5,2.8s-0.9,2.6-0.9,4.1v0.4c0,2.5,0.7,4.4,2,5.9s3,2.2,5.1,2.2
	c1.4,0,2.6-0.4,3.7-1s1.9-1.6,2.5-2.8s0.9-2.6,0.9-4.1V569c0-2.5-0.7-4.4-2-5.9S704.1,560.9,702,560.9z M707.4,569.2
	c0,2-0.6,3.6-1.5,4.8s-2.2,1.8-3.8,1.8s-2.9-0.5-3.9-1.8s-1.5-2.8-1.5-4.7v-0.2c0-2,0.5-3.6,1.5-4.8s2.2-1.8,3.8-1.8
	c1.1,0,2,0.3,2.8,0.8s1.4,1.3,1.9,2.3s0.7,2.1,0.7,3.3V569.2z"/>
<rect x="712.1" y="554.5" class="st1" width="1.8" height="22.5"/>
<path class="st1" d="M726.7,564.2c0.9-1.1,2.1-1.7,3.7-1.7c1.3,0,2.3,0.3,3.1,1.1s1.2,1.8,1.3,3h1.7c-0.1-1.7-0.7-3-1.8-4.1
	s-2.6-1.6-4.3-1.6c-1.4,0-2.5,0.3-3.6,1s-1.9,1.6-2.4,2.8s-0.8,2.5-0.8,4.1v0.5c0,2.4,0.6,4.3,1.8,5.8s2.8,2.2,4.9,2.2
	c1.1,0,2.1-0.2,3-0.7s1.7-1.1,2.2-1.9s0.9-1.6,0.9-2.6h-1.7c0,1.1-0.4,2-1.3,2.7s-1.9,1-3.1,1c-1.6,0-2.7-0.5-3.6-1.6
	s-1.3-2.7-1.3-4.7V569C725.4,566.9,725.8,565.3,726.7,564.2z"/>
<path class="st1" d="M745.3,560.9c-1.4,0-2.6,0.4-3.7,1s-1.9,1.6-2.5,2.8s-0.9,2.6-0.9,4.1v0.4c0,2.5,0.7,4.4,2,5.9s3,2.2,5.1,2.2
	c1.4,0,2.6-0.4,3.7-1s1.9-1.6,2.5-2.8s0.9-2.6,0.9-4.1V569c0-2.5-0.7-4.4-2-5.9S747.4,560.9,745.3,560.9z M750.7,569.2
	c0,2-0.6,3.6-1.5,4.8s-2.2,1.8-3.8,1.8s-2.9-0.5-3.9-1.8s-1.5-2.8-1.5-4.7v-0.2c0-2,0.5-3.6,1.5-4.8s2.2-1.8,3.8-1.8
	c1.1,0,2,0.3,2.8,0.8s1.4,1.3,1.9,2.3s0.7,2.1,0.7,3.3V569.2z"/>
<path class="st1" d="M762.1,560.8c-1,0-2,0.3-2.9,0.8s-1.6,1.2-2.2,2.2l-0.1-2.7l-1.6,0.1V577h1.7v-10.9c0.4-1.1,1-2,1.9-2.7
	s1.8-1,2.9-1c1.3,0,2.2,0.3,2.8,1s0.9,1.8,0.9,3.2V577h1.7v-10.5c-0.1-1.9-0.5-3.4-1.3-4.3S763.8,560.8,762.1,560.8z"/>
<path class="st1" d="M780,569.5c-0.8-0.5-1.9-0.8-3.5-1.2s-2.6-0.8-3.2-1.2s-0.9-1-0.9-1.8s0.3-1.5,1-2s1.6-0.8,2.8-0.8
	c1.1,0,2.1,0.3,2.9,0.9s1.2,1.4,1.2,2.3h1.8c0-1.4-0.5-2.5-1.6-3.4s-2.5-1.3-4.3-1.3c-1.6,0-2.9,0.4-4,1.2s-1.6,1.9-1.6,3.1
	c0,0.8,0.3,1.5,0.6,2s0.9,1,1.7,1.4s1.9,0.7,3.3,1s2.5,0.7,3.2,1.2s1,1.2,1,2.1c0,0.8,0,1.8-0.8,2.3s-1.8,0.8-3,0.8
	c-1.4,0-2.4-0.3-3.2-0.9s-1.2-1.4-1.3-2.4h-1.8c0,1.4,0.5,2.5,1.7,3.4s2.7,1.3,4.5,1.3c1.7,0,3.1-0.4,4.2-1.2s1.6-1.9,1.6-3.2
	c0-0.8-0.2-1.5-0.6-2.1S780.8,570,780,569.5z"/>
<path class="st1" d="M790.2,575.8c-0.8,0-1.3-0.2-1.6-0.6c-0.3-0.5-0.5-1.1-0.5-2v-10.6h3.3v-1.4h-3.3v-4.1h-1.7v4.1h-2.9v1.4h2.9
	v10.6c0,1.4,0.3,2.4,0.8,3.1s1.4,1,2.6,1c0.8,0,1.4,0,1.9-0.2l-0.1-1.4C791,575.8,790.5,575.8,790.2,575.8z"/>
<path class="st1" d="M805.8,565.8c-0.1-1.6-0.6-2.8-1.6-3.7s-2.4-1.3-4.2-1.3c-1.7,0-3.1,0.5-4.3,1.4s-1.8,2-1.8,3.3h1.8
	c0-0.9,0.4-1.7,1.2-2.3s1.8-0.9,3-0.9c1.4,0,2.4,0.3,3.1,1s1,1.6,1,2.7v1.9h-3.2c-2.3,0-4.1,0.4-5.4,1.3s-1.9,2.2-1.9,3.7
	c0,1.3,0.5,2.3,1.4,3.2s2.2,1.3,3.7,1.3c1,0,2-0.2,3-0.7s1.8-1.1,2.4-1.9c0,1,0.1,1.7,0.3,2.2l2-0.1v-0.2c-0.3-0.7-0.5-1.9-0.5-3.4
	V565.8z M803.9,572.6c-0.4,1-1.1,1.8-2,2.3s-1.9,0.8-3.1,0.8c-1.1,0-1.9-0.2-2.6-0.8s-1-1.3-1-2.2c0-1.1,0.5-1.9,1.5-2.6
	s2.4-1,4.1-1h3.1V572.6z"/>
<path class="st1" d="M816.5,560.8c-1,0-2,0.3-2.9,0.8s-1.6,1.2-2.2,2.2l-0.1-2.7l-1.6,0.1V577h1.7v-10.9c0.4-1.1,1-2,1.9-2.7
	s1.8-1,2.9-1c1.3,0,2.2,0.3,2.8,1s0.9,1.8,0.9,3.2V577h1.7v-10.5c-0.1-1.9-0.5-3.4-1.3-4.3S818.2,560.8,816.5,560.8z"/>
<path class="st1" d="M830.2,575.8c-0.8,0-1.3-0.2-1.6-0.6c-0.3-0.5-0.5-1.1-0.5-2v-10.6h3.3v-1.4h-3.3v-4.1h-1.7v4.1h-2.9v1.4h2.9
	v10.6c0,1.4,0.3,2.4,0.8,3.1s1.4,1,2.6,1c0.8,0,1.4,0,1.9-0.2l-0.1-1.4C831,575.8,830.5,575.8,830.2,575.8z"/>
<rect x="834.4" y="554.5" class="st1" width="1.8" height="22.5"/>
<path class="st1" d="M845.2,574.5l-4.9-13.3h-1.9l6,15.7l-0.8,2.1c-0.4,1-0.9,1.8-1.4,2.2s-1.2,0.6-2.1,0.6l-0.9-0.1v1.5
	c0.4,0.1,0.9,0.2,1.3,0.2c1.8,0,3.1-1,4-2.9l0.4-0.8l6.8-18.5h-1.9L845.2,574.5z"/>
<path class="st1" d="M861.3,555.5c-0.4,0-0.7,0.1-0.9,0.3s-0.3,0.5-0.3,0.8s0.1,0.6,0.3,0.8s0.5,0.3,0.9,0.3s0.7-0.1,0.9-0.3
	s0.3-0.5,0.3-0.8s-0.1-0.6-0.3-0.8S861.7,555.5,861.3,555.5z"/>
<rect x="860.4" y="561.2" class="st1" width="1.8" height="15.8"/>
<path class="st1" d="M873.1,560.8c-1,0-2,0.3-2.9,0.8s-1.6,1.2-2.2,2.2l-0.1-2.7l-1.6,0.1V577h1.7v-10.9c0.4-1.1,1.1-2,1.9-2.7
	c0.9-0.7,1.8-1,2.9-1c1.3,0,2.2,0.3,2.8,1s0.9,1.8,0.9,3.2V577h1.7v-10.5c-0.1-1.9-0.5-3.4-1.3-4.3S874.8,560.8,873.1,560.8z"/>
<path class="st1" d="M884.4,555.6c-0.8,0.8-1.2,2.1-1.2,3.7v1.9h-2.6v1.4h2.6V577h1.7v-14.3h3.8v-1.4h-3.8v-2c0-1.1,0.2-2,0.8-2.6
	s1.3-0.9,2.3-0.9c0.6,0,1.1,0.1,1.6,0.2l0.1-1.5c-0.6-0.1-1.2-0.2-1.9-0.2C886.4,554.3,885.2,554.7,884.4,555.6z"/>
<rect x="891.3" y="554.5" class="st1" width="1.8" height="22.5"/>
<path class="st1" d="M907.2,572.6c-0.7,2.1-2.3,3.1-4.8,3.1s-3.7-1.5-3.7-4.5v-10.1H897v10.3c0,2,0.4,3.4,1.3,4.4s2.2,1.5,3.9,1.5
	c2.4,0,4-0.8,5.1-2.3v2h1.7v-15.9h-1.8V572.6z"/>
<path class="st1" d="M918.7,560.9c-1.2,0-2.3,0.3-3.4,1s-1.9,1.7-2.5,2.9s-0.9,2.6-0.9,4.1v0.6c0,1.5,0.3,2.8,0.9,4s1.4,2.1,2.5,2.8
	s2.4,1,3.7,1c2.4,0,4.3-0.9,5.7-2.7l-1.1-0.8c-0.6,0.7-1.3,1.3-2,1.6s-1.6,0.5-2.5,0.5c-1.6,0-2.9-0.6-3.9-1.8s-1.5-2.7-1.5-4.5
	v-0.3H925v-1c0-2.3-0.6-4.1-1.7-5.4S920.6,560.9,918.7,560.9z M923.2,567.7h-9.5c0.1-1.6,0.7-2.9,1.6-3.9s2-1.5,3.3-1.5
	c1.4,0,2.5,0.6,3.3,1.5s1.3,2.2,1.3,3.7L923.2,567.7L923.2,567.7z"/>
<path class="st1" d="M934.4,560.8c-1,0-2,0.3-2.9,0.8s-1.6,1.2-2.2,2.2l-0.1-2.7l-1.6,0.1V577h1.7v-10.9c0.4-1.1,1.1-2,1.9-2.7
	c0.9-0.7,1.8-1,2.9-1c1.3,0,2.2,0.3,2.8,1s0.9,1.8,0.9,3.2V577h1.7v-10.5c-0.1-1.9-0.5-3.4-1.3-4.3S936.1,560.8,934.4,560.8z"/>
<path class="st1" d="M945.6,564.2c0.9-1.1,2.1-1.7,3.7-1.7c1.3,0,2.3,0.3,3.1,1.1s1.2,1.8,1.3,3h1.7c-0.1-1.7-0.7-3.1-1.8-4.1
	c-1.1-1.1-2.6-1.6-4.3-1.6c-1.4,0-2.6,0.3-3.6,1c-1.1,0.7-1.9,1.6-2.4,2.8s-0.8,2.5-0.8,4.1v0.5c0,2.4,0.6,4.4,1.8,5.8
	c1.2,1.5,2.8,2.2,4.9,2.2c1.1,0,2.1-0.3,3-0.7c0.9-0.5,1.7-1.1,2.2-1.9s0.9-1.6,0.9-2.6h-1.7c0,1.1-0.4,2-1.3,2.7s-1.9,1-3.1,1
	c-1.6,0-2.7-0.5-3.6-1.6s-1.3-2.7-1.3-4.7V569C944.3,566.9,944.7,565.3,945.6,564.2z"/>
<path class="st1" d="M963.9,560.9c-1.2,0-2.3,0.3-3.4,1s-1.9,1.7-2.5,2.9s-0.9,2.6-0.9,4.1v0.6c0,1.5,0.3,2.8,0.9,4s1.4,2.1,2.5,2.8
	s2.4,1,3.7,1c2.4,0,4.3-0.9,5.7-2.7l-1.1-0.8c-0.6,0.7-1.3,1.3-2,1.6s-1.6,0.5-2.5,0.5c-1.6,0-2.9-0.6-3.9-1.8s-1.5-2.7-1.5-4.5
	v-0.3h11.3v-1c0-2.3-0.6-4.1-1.7-5.4S965.8,560.9,963.9,560.9z M968.4,567.7h-9.5c0.1-1.6,0.7-2.9,1.6-3.9s2-1.5,3.3-1.5
	c1.4,0,2.5,0.6,3.3,1.5s1.3,2.2,1.3,3.7L968.4,567.7L968.4,567.7z"/>
<path class="st1" d="M984.1,575.8c-0.8,0-1.3-0.2-1.6-0.6c-0.3-0.5-0.5-1.1-0.5-2v-10.6h3.3v-1.4H982v-4.1h-1.7v4.1h-2.9v1.4h2.9
	v10.6c0,1.4,0.3,2.4,0.8,3.1s1.4,1,2.6,1c0.8,0,1.4,0,1.9-0.2l-0.1-1.4C984.9,575.8,984.4,575.8,984.1,575.8z"/>
<path class="st1" d="M995,560.8c-1,0-2,0.3-2.9,0.8s-1.6,1.3-2.2,2.2v-9.3h-1.7V577h1.7v-10.9c0.4-1.1,1.1-2,1.9-2.7
	c0.9-0.7,1.8-1,2.9-1c1.3,0,2.2,0.3,2.8,1s0.9,1.8,0.9,3.2V577h1.7v-10.5c-0.1-1.9-0.5-3.4-1.3-4.3S996.7,560.8,995,560.8z"/>
<path class="st1" d="M1009.7,560.9c-1.2,0-2.3,0.3-3.4,1s-1.9,1.7-2.5,2.9s-0.9,2.6-0.9,4.1v0.6c0,1.5,0.3,2.8,0.9,4
	s1.4,2.1,2.5,2.8s2.4,1,3.7,1c2.5,0,4.4-0.9,5.7-2.7l-1.1-0.8c-0.6,0.7-1.3,1.3-2,1.6s-1.6,0.5-2.5,0.5c-1.6,0-2.9-0.6-3.9-1.8
	s-1.5-2.7-1.5-4.5v-0.3h11.3v-1c0-2.3-0.6-4.1-1.7-5.4S1011.6,560.9,1009.7,560.9z M1014.3,567.7h-9.5c0.1-1.6,0.7-2.9,1.6-3.9
	c0.9-1,2-1.5,3.3-1.5c1.4,0,2.5,0.6,3.3,1.5s1.3,2.2,1.3,3.7L1014.3,567.7L1014.3,567.7z"/>
<path class="st1" d="M207.4,591.6c-0.8,0.8-1.2,2.1-1.2,3.7v1.9h-2.6v1.4h2.6V613h1.7v-14.3h3.8v-1.4h-3.8v-2c0-1.1,0.2-2,0.8-2.6
	s1.3-0.9,2.3-0.9c0.6,0,1.1,0.1,1.6,0.2l0.1-1.5c-0.6-0.1-1.2-0.2-1.9-0.2C209.4,590.3,208.2,590.8,207.4,591.6z"/>
<path class="st1" d="M220.3,596.9c-1.4,0-2.6,0.4-3.7,1c-1.1,0.6-1.9,1.6-2.5,2.8s-0.9,2.6-0.9,4.1v0.4c0,2.5,0.7,4.4,2,5.9
	s3,2.2,5.1,2.2c1.4,0,2.6-0.4,3.7-1c1.1-0.6,1.9-1.6,2.5-2.8s0.9-2.6,0.9-4.1V605c0-2.5-0.7-4.4-2-5.9S222.4,596.9,220.3,596.9z
	 M225.7,605.2c0,2-0.6,3.6-1.5,4.8s-2.2,1.8-3.8,1.8s-2.9-0.5-3.9-1.8s-1.5-2.8-1.5-4.7v-0.2c0-2,0.5-3.6,1.5-4.8s2.2-1.8,3.8-1.8
	c1.1,0,2,0.3,2.8,0.8s1.4,1.3,1.9,2.3s0.7,2.1,0.7,3.3V605.2z"/>
<path class="st1" d="M232.5,600.2c0.9-1.1,2.1-1.7,3.7-1.7c1.3,0,2.3,0.3,3.1,1.1s1.2,1.8,1.3,3h1.7c-0.1-1.7-0.7-3-1.8-4.1
	s-2.6-1.6-4.3-1.6c-1.4,0-2.5,0.3-3.6,1s-1.9,1.6-2.4,2.8s-0.8,2.5-0.8,4.1v0.5c0,2.4,0.6,4.3,1.8,5.8s2.8,2.2,4.9,2.2
	c1.1,0,2.1-0.2,3-0.7s1.7-1.1,2.2-1.9s0.9-1.6,0.9-2.6h-1.7c0,1.1-0.4,2-1.3,2.7s-1.9,1-3.1,1c-1.6,0-2.7-0.5-3.6-1.6
	s-1.3-2.7-1.3-4.7V605C231.2,602.9,231.6,601.3,232.5,600.2z"/>
<path class="st1" d="M255,608.6c-0.7,2.1-2.3,3.1-4.8,3.1s-3.7-1.5-3.7-4.5v-10.1h-1.7v10.3c0,2,0.4,3.4,1.3,4.4
	c0.9,1,2.2,1.5,3.9,1.5c2.4,0,4-0.8,5.1-2.3v2h1.7v-15.9H255V608.6z"/>
<path class="st1" d="M269.7,605.5c-0.8-0.5-2-0.8-3.5-1.2c-1.6-0.4-2.6-0.8-3.2-1.2s-0.9-1-0.9-1.8s0.3-1.5,1-2s1.6-0.8,2.8-0.8
	c1.1,0,2.1,0.3,2.9,0.9c0.8,0.6,1.2,1.4,1.2,2.3h1.8c0-1.4-0.5-2.5-1.6-3.4s-2.5-1.3-4.3-1.3c-1.6,0-2.9,0.4-4,1.2s-1.6,1.9-1.6,3.1
	c0,0.8,0.3,1.5,0.6,2s0.9,1,1.7,1.4c0.8,0.4,1.9,0.7,3.3,1s2.5,0.7,3.2,1.2s1,1.2,1,2.1c0,0.8,0,1.8-0.8,2.3s-1.8,0.8-3,0.8
	c-1.4,0-2.4-0.3-3.2-0.9c-0.8-0.6-1.2-1.4-1.3-2.4H260c0,1.4,0.5,2.5,1.7,3.4s2.7,1.3,4.5,1.3c1.7,0,3.1-0.4,4.2-1.2
	s1.6-1.9,1.6-3.2c0-0.8-0.2-1.5-0.6-2.1C271,606.4,270.5,606,269.7,605.5z"/>
<path class="st1" d="M287.8,596.9c-1.4,0-2.6,0.4-3.7,1s-1.9,1.6-2.5,2.8s-0.9,2.6-0.9,4.1v0.4c0,2.5,0.7,4.4,2,5.9s3,2.2,5.1,2.2
	c1.4,0,2.6-0.4,3.7-1s1.9-1.6,2.5-2.8s0.9-2.6,0.9-4.1V605c0-2.5-0.7-4.4-2-5.9S289.9,596.9,287.8,596.9z M293.1,605.2
	c0,2-0.6,3.6-1.5,4.8s-2.2,1.8-3.8,1.8s-2.9-0.5-3.9-1.8s-1.5-2.8-1.5-4.7v-0.2c0-2,0.5-3.6,1.5-4.8s2.2-1.8,3.8-1.8
	c1.1,0,2,0.3,2.8,0.8s1.4,1.3,1.9,2.3s0.7,2.1,0.7,3.3V605.2z"/>
<path class="st1" d="M300.1,591.6c-0.8,0.8-1.2,2.1-1.2,3.7v1.9h-2.6v1.4h2.6V613h1.8v-14.3h3.8v-1.4h-3.8v-2c0-1.1,0.3-2,0.8-2.6
	c0.6-0.6,1.3-0.9,2.3-0.9c0.6,0,1.1,0.1,1.6,0.2l0.1-1.5c-0.6-0.1-1.2-0.2-1.9-0.2C302.1,590.3,300.9,590.8,300.1,591.6z"/>
<polygon class="st1" points="315.6,602.8 325.6,602.8 325.6,601.3 315.6,601.3 315.6,593.2 327,593.2 327,591.7 313.8,591.7 
	313.8,613 327.1,613 327.1,611.5 315.6,611.5 "/>
<path class="st1" d="M339.7,599.3c-1.1-1.7-2.8-2.5-4.9-2.5c-1.9,0-3.4,0.7-4.5,2.2s-1.6,3.4-1.6,5.9l-0.1,0.2c0,2.5,0.6,4.5,1.7,6
	s2.6,2.2,4.4,2.2c2.2,0,3.9-0.8,5-2.4l0.1,2.1h1.6v-22.6h-1.7V599.3z M339.7,608.9c-0.9,1.9-2.4,2.9-4.6,2.9c-1.4,0-2.6-0.6-3.4-1.8
	s-1.2-2.8-1.2-4.8c0-2.2,0.4-4,1.2-5.1s1.9-1.7,3.4-1.7c2.2,0,3.7,1,4.6,3.1V608.9z"/>
<path class="st1" d="M355.5,608.6c-0.7,2.1-2.3,3.1-4.8,3.1s-3.7-1.5-3.7-4.5v-10.1h-1.7v10.3c0,2,0.4,3.4,1.3,4.4s2.2,1.5,3.9,1.5
	c2.4,0,4-0.8,5.1-2.3v2h1.7v-15.9h-1.8V608.6z"/>
<path class="st1" d="M363.4,600.2c0.9-1.1,2.1-1.7,3.7-1.7c1.3,0,2.3,0.3,3.1,1.1c0.8,0.8,1.2,1.8,1.3,3h1.7c-0.1-1.7-0.7-3-1.8-4.1
	s-2.6-1.6-4.3-1.6c-1.4,0-2.5,0.3-3.6,1s-1.9,1.6-2.4,2.8s-0.8,2.5-0.8,4.1v0.5c0,2.4,0.6,4.3,1.8,5.8s2.8,2.2,4.9,2.2
	c1.1,0,2.1-0.2,3-0.7s1.7-1.1,2.2-1.9s0.9-1.6,0.9-2.6h-1.7c0,1.1-0.4,2-1.3,2.7s-1.9,1-3.1,1c-1.6,0-2.7-0.5-3.6-1.6
	s-1.3-2.7-1.3-4.7V605C362.1,602.9,362.5,601.3,363.4,600.2z"/>
<path class="st1" d="M387.3,601.8c-0.1-1.6-0.6-2.8-1.6-3.7s-2.4-1.3-4.2-1.3c-1.7,0-3.1,0.5-4.3,1.4s-1.8,2-1.8,3.3h1.8
	c0-0.9,0.4-1.7,1.2-2.3s1.8-0.9,3-0.9c1.4,0,2.4,0.3,3.1,1s1,1.6,1,2.7v1.9h-3.2c-2.3,0-4.1,0.4-5.4,1.3s-1.9,2.2-1.9,3.7
	c0,1.3,0.5,2.3,1.4,3.2s2.2,1.3,3.7,1.3c1,0,2-0.2,3-0.7s1.8-1.1,2.4-1.9c0,1,0.1,1.7,0.3,2.2l2-0.1v-0.2c-0.3-0.7-0.5-1.9-0.5-3.4
	V601.8z M385.4,608.6c-0.4,1-1.1,1.8-2,2.3s-1.9,0.8-3.1,0.8c-1.1,0-1.9-0.2-2.6-0.8s-1-1.3-1-2.2c0-1.1,0.5-1.9,1.5-2.6
	s2.4-1,4.1-1h3.1V608.6z"/>
<path class="st1" d="M395.9,611.8c-0.8,0-1.3-0.2-1.6-0.6c-0.3-0.5-0.5-1.1-0.5-2v-10.6h3.3v-1.4h-3.3v-4.1h-1.7v4.1h-2.9v1.4h2.9
	v10.6c0,1.4,0.3,2.4,0.8,3.1s1.4,1,2.6,1c0.8,0,1.4,0,1.9-0.2l-0.1-1.4C396.7,611.8,396.2,611.8,395.9,611.8z"/>
<rect x="400.2" y="597.2" class="st1" width="1.8" height="15.8"/>
<path class="st1" d="M401.1,591.5c-0.4,0-0.7,0.1-0.9,0.3s-0.3,0.5-0.3,0.8s0.1,0.6,0.3,0.8c0.2,0.2,0.5,0.3,0.9,0.3
	s0.7-0.1,0.9-0.3c0.2-0.2,0.3-0.5,0.3-0.8s-0.1-0.6-0.3-0.8C401.8,591.6,401.5,591.5,401.1,591.5z"/>
<path class="st1" d="M412.1,596.9c-1.4,0-2.6,0.4-3.7,1s-1.9,1.6-2.5,2.8s-0.9,2.6-0.9,4.1v0.4c0,2.5,0.7,4.4,2,5.9s3,2.2,5.1,2.2
	c1.4,0,2.6-0.4,3.7-1s1.9-1.6,2.5-2.8s0.9-2.6,0.9-4.1V605c0-2.5-0.7-4.4-2-5.9S414.2,596.9,412.1,596.9z M417.5,605.2
	c0,2-0.6,3.6-1.5,4.8s-2.2,1.8-3.8,1.8s-2.9-0.5-3.9-1.8s-1.5-2.8-1.5-4.7v-0.2c0-2,0.5-3.6,1.5-4.8s2.2-1.8,3.8-1.8
	c1.1,0,2,0.3,2.8,0.8s1.4,1.3,1.9,2.3s0.7,2.1,0.7,3.3V605.2z"/>
<path class="st1" d="M428.9,596.8c-1,0-2,0.3-2.9,0.8s-1.6,1.2-2.2,2.2l-0.1-2.7l-1.6,0.1V613h1.7v-10.9c0.4-1.1,1-2,1.9-2.7
	s1.8-1,2.9-1c1.3,0,2.2,0.3,2.8,1s0.9,1.8,0.9,3.2V613h1.7v-10.5c-0.1-1.9-0.5-3.4-1.3-4.3S430.6,596.8,428.9,596.8z"/>
<path class="st1" d="M449.3,601.8c-0.1-1.6-0.6-2.8-1.6-3.7s-2.4-1.3-4.2-1.3c-1.7,0-3.1,0.5-4.3,1.4s-1.8,2-1.8,3.3h1.8
	c0-0.9,0.4-1.7,1.2-2.3s1.8-0.9,3-0.9c1.4,0,2.4,0.3,3.1,1s1,1.6,1,2.7v1.9h-3.2c-2.3,0-4.1,0.4-5.4,1.3s-1.9,2.2-1.9,3.7
	c0,1.3,0.5,2.3,1.4,3.2s2.2,1.3,3.7,1.3c1,0,2-0.2,3-0.7s1.8-1.1,2.4-1.9c0,1,0.1,1.7,0.3,2.2l2-0.1v-0.2c-0.3-0.7-0.5-1.9-0.5-3.4
	V601.8z M447.4,608.6c-0.4,1-1.1,1.8-2,2.3s-1.9,0.8-3.1,0.8c-1.1,0-1.9-0.2-2.6-0.8s-1-1.3-1-2.2c0-1.1,0.5-1.9,1.5-2.6
	s2.4-1,4.1-1h3.1V608.6z"/>
<rect x="453.3" y="590.5" class="st1" width="1.8" height="22.5"/>
<polygon class="st1" points="467.8,591.7 466,591.7 466,613 478.3,613 478.3,611.5 467.8,611.5 "/>
<path class="st1" d="M486.5,596.9c-1.2,0-2.3,0.3-3.4,1s-1.9,1.7-2.5,2.9s-0.9,2.6-0.9,4.1v0.6c0,1.5,0.3,2.8,0.9,4s1.4,2.1,2.5,2.8
	s2.4,1,3.7,1c2.5,0,4.3-0.9,5.7-2.7l-1.1-0.8c-0.6,0.7-1.3,1.3-2,1.6s-1.6,0.5-2.5,0.5c-1.6,0-2.9-0.6-3.9-1.8s-1.5-2.7-1.5-4.5
	v-0.3h11.3v-1c0-2.3-0.6-4.1-1.7-5.4C490,597.6,488.4,596.9,486.5,596.9z M481.6,603.7c0.1-1.6,0.7-2.9,1.6-3.9s2-1.5,3.3-1.5
	s2.5,0.6,3.3,1.5s1.3,2.2,1.3,3.7v0.2H481.6z"/>
<path class="st1" d="M506.9,601.8c-0.1-1.6-0.6-2.8-1.6-3.7s-2.4-1.3-4.2-1.3c-1.7,0-3.1,0.5-4.3,1.4c-1.2,0.9-1.8,2-1.8,3.3h1.8
	c0-0.9,0.4-1.7,1.2-2.3c0.8-0.6,1.8-0.9,3-0.9c1.4,0,2.4,0.3,3.1,1s1,1.6,1,2.7v1.9h-3.2c-2.3,0-4.1,0.4-5.4,1.3s-1.9,2.2-1.9,3.7
	c0,1.3,0.5,2.3,1.4,3.2s2.2,1.3,3.7,1.3c1,0,2-0.2,3-0.7s1.8-1.1,2.4-1.9c0,1,0.1,1.7,0.3,2.2l2-0.1v-0.2c-0.3-0.7-0.5-1.9-0.5-3.4
	V601.8z M505,608.6c-0.4,1-1.1,1.8-2,2.3s-1.9,0.8-3.1,0.8c-1,0-1.9-0.2-2.6-0.8s-1-1.3-1-2.2c0-1.1,0.5-1.9,1.5-2.6s2.4-1,4.1-1
	h3.1V608.6z"/>
<path class="st1" d="M521,599.3c-1.1-1.7-2.8-2.5-4.9-2.5c-1.9,0-3.4,0.7-4.5,2.2c-1.1,1.5-1.6,3.4-1.6,5.9l-0.1,0.2
	c0,2.5,0.6,4.5,1.7,6c1.1,1.5,2.6,2.2,4.4,2.2c2.2,0,3.9-0.8,5-2.4l0.1,2.1h1.6v-22.6H521V599.3z M521,608.9
	c-0.9,1.9-2.4,2.9-4.6,2.9c-1.4,0-2.6-0.6-3.4-1.8s-1.2-2.8-1.2-4.8c0-2.2,0.4-4,1.2-5.1s1.9-1.7,3.4-1.7c2.2,0,3.7,1,4.6,3.1V608.9
	z"/>
<path class="st1" d="M532.5,596.9c-1.2,0-2.3,0.3-3.4,1s-1.9,1.7-2.5,2.9s-0.9,2.6-0.9,4.1v0.6c0,1.5,0.3,2.8,0.9,4s1.4,2.1,2.5,2.8
	s2.4,1,3.7,1c2.4,0,4.3-0.9,5.7-2.7l-1.1-0.8c-0.6,0.7-1.3,1.3-2,1.6s-1.6,0.5-2.5,0.5c-1.6,0-2.9-0.6-3.9-1.8s-1.5-2.7-1.5-4.5
	v-0.3h11.3v-1c0-2.3-0.6-4.1-1.7-5.4S534.4,596.9,532.5,596.9z M537.1,603.7h-9.5c0.1-1.6,0.7-2.9,1.6-3.9s2-1.5,3.3-1.5
	s2.5,0.6,3.3,1.5s1.3,2.2,1.3,3.7L537.1,603.7L537.1,603.7z"/>
<path class="st1" d="M543.1,599.7v-2.5h-1.7V613h1.7v-10.9c0.3-1.2,0.8-2.1,1.6-2.7s1.7-0.9,2.8-0.9c0.4,0,0.8,0,1.2,0.1l0.1-1.5
	c-0.3-0.1-0.7-0.2-1.2-0.2C545.5,596.9,544,597.8,543.1,599.7z"/>
<path class="st1" d="M559.8,605.5c-0.8-0.5-1.9-0.8-3.5-1.2s-2.6-0.8-3.2-1.2s-0.9-1-0.9-1.8s0.3-1.5,1-2s1.6-0.8,2.8-0.8
	c1.1,0,2.1,0.3,2.9,0.9s1.2,1.4,1.2,2.3h1.8c0-1.4-0.5-2.5-1.6-3.4s-2.5-1.3-4.3-1.3c-1.6,0-2.9,0.4-4,1.2s-1.6,1.9-1.6,3.1
	c0,0.8,0.3,1.5,0.6,2s0.9,1,1.7,1.4s1.9,0.7,3.3,1s2.5,0.7,3.2,1.2s1,1.2,1,2.1c0,0.8,0,1.8-0.8,2.3s-1.8,0.8-3,0.8
	c-1.4,0-2.4-0.3-3.2-0.9s-1.2-1.4-1.3-2.4h-1.8c0,1.4,0.5,2.5,1.7,3.4s2.7,1.3,4.5,1.3c1.7,0,3.1-0.4,4.2-1.2s1.6-1.9,1.6-3.2
	c0-0.8-0.2-1.5-0.6-2.1S560.6,606,559.8,605.5z"/>
<path class="st1" d="M572,596.8c-1,0-2,0.3-2.9,0.8s-1.6,1.3-2.2,2.2v-9.3h-1.7V613h1.7v-10.9c0.4-1.1,1-2,1.9-2.7s1.8-1,2.9-1
	c1.3,0,2.2,0.3,2.8,1s0.9,1.8,0.9,3.2V613h1.7v-10.5c-0.1-1.9-0.5-3.4-1.3-4.3S573.7,596.8,572,596.8z"/>
<path class="st1" d="M582,591.5c-0.4,0-0.7,0.1-0.9,0.3s-0.3,0.5-0.3,0.8s0.1,0.6,0.3,0.8s0.5,0.3,0.9,0.3s0.7-0.1,0.9-0.3
	s0.3-0.5,0.3-0.8s-0.1-0.6-0.3-0.8S582.4,591.5,582,591.5z"/>
<rect x="581.1" y="597.2" class="st1" width="1.8" height="15.8"/>
<path class="st1" d="M593.6,596.9c-2.2,0-3.9,0.8-5,2.5l-0.1-2.2h-1.6v21.9h1.7V611c1.2,1.5,2.8,2.3,5,2.3c1.8,0,3.3-0.7,4.4-2.2
	s1.6-3.4,1.6-5.9l0.1-0.1c0-2.6-0.5-4.5-1.6-6S595.5,596.9,593.6,596.9z M596.7,610c-0.9,1.2-2,1.8-3.5,1.8c-1.1,0-2-0.2-2.8-0.7
	s-1.4-1.2-1.8-2.1v-7.6c0.4-1,1-1.8,1.8-2.3s1.7-0.8,2.8-0.8c1.5,0,2.7,0.6,3.5,1.8s1.2,2.8,1.2,4.8
	C597.9,607.2,597.6,608.8,596.7,610z"/>
<path class="st1" d="M603.8,610.6c-0.4,0-0.7,0.1-0.9,0.4s-0.3,0.6-0.3,0.9c0,0.4,0.1,0.6,0.3,0.8s0.5,0.3,0.9,0.3s0.7-0.1,0.9-0.3
	s0.3-0.4,0.3-0.8s-0.1-0.6-0.3-0.9S604.2,610.6,603.8,610.6z"/>
</svg>
