<?xml version="1.0" encoding="utf-8"?>
<!-- Generator: Adobe Illustrator 22.0.1, SVG Export Plug-In . SVG Version: 6.00 Build 0)  -->
<svg version="1.1" id="Layer_1" xmlns="http://www.w3.org/2000/svg" xmlns:xlink="http://www.w3.org/1999/xlink" x="0px" y="0px"
	 viewBox="0 0 500 500" style="enable-background:new 0 0 500 500;" xml:space="preserve">
<style type="text/css">
	.st0{fill:url(#SVGID_1_);stroke:#C3C3C3;stroke-miterlimit:10;}
	.st1{fill:url(#SVGID_2_);stroke:#C3C3C3;stroke-miterlimit:10;}
	.st2{opacity:0.2;}
	.st3{opacity:0.09;}
	.st4{fill:url(#SVGID_3_);}
	.st5{fill:url(#SVGID_4_);}
	.st6{fill:url(#SVGID_5_);}
	.st7{fill:url(#SVGID_6_);}
	.st8{fill:url(#SVGID_7_);}
	.st9{fill:url(#SVGID_8_);}
	.st10{fill:url(#SVGID_9_);}
	.st11{fill:url(#SVGID_10_);}
	.st12{fill:url(#SVGID_11_);}
	.st13{fill:url(#SVGID_12_);}
	.st14{fill:url(#SVGID_13_);}
	.st15{fill:url(#SVGID_14_);}
</style>
<g>
	
		<linearGradient id="SVGID_1_" gradientUnits="userSpaceOnUse" x1="247.4177" y1="128.43" x2="247.4177" y2="392.2505" gradientTransform="matrix(1 0 0 -1 0 502)">
		<stop  offset="0" style="stop-color:#C3C3C3"/>
		<stop  offset="0.6017" style="stop-color:#DEDEDE"/>
		<stop  offset="1" style="stop-color:#F2F2F2"/>
	</linearGradient>
	<circle class="st0" cx="247.418" cy="241.66" r="131.91"/>
	
		<linearGradient id="SVGID_2_" gradientUnits="userSpaceOnUse" x1="247.4177" y1="213.1133" x2="247.4177" y2="307.5672" gradientTransform="matrix(1 0 0 -1 0 502)">
		<stop  offset="0" style="stop-color:#C3C3C3"/>
		<stop  offset="0.6017" style="stop-color:#DEDEDE"/>
		<stop  offset="1" style="stop-color:#F2F2F2"/>
	</linearGradient>
	<circle class="st1" cx="247.418" cy="241.66" r="47.227"/>
	<g class="st2">
		<path d="M234.083,247.364c-0.226,2.414-1.057,4.267-2.495,5.561c-1.438,1.293-3.391,1.939-5.859,1.939
			c-1.663,0-3.136-0.421-4.418-1.263c-1.282-0.842-2.277-2.039-2.985-3.59c-0.708-1.55-1.068-3.323-1.078-5.319v-3.621
			c0-1.996,0.348-3.78,1.046-5.352c0.697-1.572,1.692-2.787,2.985-3.645c1.293-0.858,2.777-1.288,4.45-1.288
			c2.447,0,4.394,0.644,5.843,1.931c1.448,1.288,2.285,3.134,2.511,5.537h-0.869c-0.247-2.157-0.998-3.796-2.254-4.917
			c-1.255-1.121-2.999-1.682-5.231-1.682c-2.275,0-4.113,0.858-5.513,2.575c-1.4,1.716-2.101,4.018-2.101,6.905v3.444
			c0,1.846,0.311,3.479,0.934,4.901c0.622,1.421,1.515,2.53,2.68,3.323c1.165,0.794,2.498,1.191,4,1.191
			c2.242,0,3.994-0.553,5.255-1.658c1.261-1.105,2.004-2.763,2.229-4.973H234.083z"/>
		<path d="M236.913,245.496c0-1.663,0.319-3.157,0.957-4.482c0.638-1.325,1.54-2.358,2.704-3.099c1.164-0.74,2.482-1.11,3.951-1.11
			c1.46,0,2.768,0.36,3.927,1.078c1.159,0.719,2.063,1.738,2.714,3.058c0.648,1.319,0.978,2.806,0.988,4.458v0.773
			c0,1.674-0.316,3.171-0.947,4.491c-0.634,1.319-1.534,2.35-2.697,3.09c-1.163,0.741-2.481,1.111-3.951,1.111
			c-1.472,0-2.788-0.364-3.952-1.094c-1.165-0.729-2.068-1.751-2.712-3.066c-0.644-1.314-0.972-2.792-0.982-4.434V245.496z
			 M237.781,246.173c0,1.448,0.287,2.777,0.861,3.983c0.574,1.207,1.373,2.149,2.398,2.825c1.025,0.676,2.198,1.014,3.518,1.014
			c1.985,0,3.602-0.745,4.853-2.237c1.249-1.492,1.873-3.412,1.873-5.762v-0.499c0-1.427-0.29-2.747-0.869-3.959
			s-1.382-2.159-2.405-2.841c-1.026-0.681-2.187-1.022-3.485-1.022c-1.985,0-3.605,0.756-4.86,2.269s-1.883,3.418-1.883,5.714
			V246.173z"/>
		<path d="M256.416,241.183c0.569-1.352,1.405-2.419,2.511-3.203c1.105-0.783,2.329-1.175,3.67-1.175
			c1.867,0,3.254,0.529,4.161,1.585c0.907,1.057,1.365,2.654,1.376,4.789v11.363h-0.869v-11.384
			c-0.011-1.865-0.392-3.245-1.143-4.14s-1.942-1.343-3.573-1.343c-1.502,0-2.803,0.533-3.903,1.6
			c-1.099,1.067-1.842,2.442-2.229,4.124v11.144h-0.869v-17.415h0.869V241.183z"/>
		<path d="M283.501,250.277c0-2.114-1.803-3.552-5.408-4.314c-2.168-0.461-3.675-1.054-4.523-1.778s-1.271-1.719-1.271-2.986
			c0-1.277,0.539-2.328,1.618-3.155c1.078-0.826,2.481-1.239,4.208-1.239c1.878,0,3.385,0.448,4.523,1.344
			c1.137,0.896,1.706,2.106,1.706,3.629h-0.884c0-1.17-0.494-2.146-1.481-2.93c-0.986-0.783-2.274-1.175-3.863-1.175
			c-1.523,0-2.73,0.332-3.622,0.998c-0.89,0.665-1.335,1.497-1.335,2.495c0,0.783,0.166,1.398,0.499,1.843
			c0.332,0.446,0.875,0.848,1.626,1.207c0.75,0.36,1.845,0.706,3.283,1.038c1.438,0.333,2.575,0.724,3.412,1.175
			c0.837,0.45,1.443,0.985,1.819,1.601c0.376,0.617,0.564,1.371,0.564,2.261c0,1.373-0.564,2.479-1.69,3.315
			c-1.126,0.837-2.602,1.255-4.425,1.255c-1.954,0-3.528-0.442-4.724-1.328c-1.197-0.885-1.795-2.025-1.795-3.42h0.87
			c0.085,1.223,0.624,2.175,1.617,2.857c0.992,0.681,2.336,1.022,4.032,1.022c1.555,0,2.819-0.362,3.79-1.086
			C283.016,252.184,283.501,251.307,283.501,250.277z"/>
		<path d="M300.011,254.542v-2.817c-0.515,0.966-1.265,1.731-2.253,2.294c-0.988,0.563-2.238,0.845-3.75,0.845
			c-1.899,0-3.324-0.555-4.273-1.665s-1.435-2.728-1.457-4.853v-11.218h0.869v11.25c0.021,1.846,0.44,3.243,1.256,4.193
			c0.814,0.95,2.006,1.424,3.573,1.424c1.663,0,3.015-0.392,4.056-1.175c1.04-0.783,1.7-1.931,1.979-3.444v-12.248h0.886v17.415
			H300.011z"/>
		<path d="M306.64,254.542h-0.87V229.82h0.87V254.542z"/>
		<path d="M313.477,232.427v4.7h3.959v0.869h-3.959v12.373c0,1.235,0.201,2.149,0.603,2.739c0.402,0.591,1.076,0.886,2.02,0.886
			c0.471,0,1.046-0.048,1.722-0.145l0.145,0.821c-0.355,0.129-0.96,0.193-1.82,0.193c-1.265,0-2.172-0.351-2.72-1.055
			c-0.547-0.703-0.826-1.812-0.837-3.327v-12.486h-3.219v-0.869h3.219v-4.7H313.477z"/>
		<path d="M320.894,231.687c0-0.247,0.085-0.459,0.258-0.636c0.171-0.177,0.38-0.266,0.627-0.266c0.247,0,0.459,0.089,0.636,0.266
			c0.177,0.177,0.266,0.389,0.266,0.636c0,0.247-0.089,0.456-0.266,0.628c-0.177,0.172-0.389,0.257-0.636,0.257
			c-0.247,0-0.456-0.085-0.627-0.257C320.979,232.143,320.894,231.934,320.894,231.687z M322.214,254.542h-0.87v-17.415h0.87
			V254.542z"/>
		<path d="M327.972,241.183c0.569-1.352,1.405-2.419,2.511-3.203c1.105-0.783,2.329-1.175,3.67-1.175
			c1.867,0,3.254,0.529,4.161,1.585c0.907,1.057,1.365,2.654,1.376,4.789v11.363h-0.869v-11.384
			c-0.011-1.865-0.392-3.245-1.143-4.14c-0.751-0.895-1.942-1.343-3.573-1.343c-1.502,0-2.803,0.533-3.903,1.6
			c-1.099,1.067-1.842,2.442-2.229,4.124v11.144h-0.869v-17.415h0.869V241.183z"/>
		<path d="M343.501,245.657c0-2.779,0.584-4.949,1.754-6.51c1.169-1.561,2.773-2.342,4.812-2.342c1.297,0,2.451,0.298,3.46,0.893
			c1.008,0.596,1.819,1.468,2.43,2.616v-3.187h0.886v17.109c0,2.296-0.59,4.091-1.771,5.384c-1.18,1.293-2.784,1.939-4.812,1.939
			c-1.169,0-2.24-0.253-3.211-0.758c-0.971-0.506-1.8-1.232-2.487-2.178l0.613-0.581c0.675,0.856,1.416,1.511,2.221,1.966
			c0.805,0.454,1.749,0.682,2.832,0.682c1.792,0,3.187-0.544,4.184-1.63c0.998-1.088,1.513-2.622,1.546-4.603v-2.667
			c-0.601,0.987-1.414,1.746-2.438,2.277c-1.024,0.531-2.187,0.797-3.485,0.797c-2.017,0-3.61-0.799-4.779-2.398
			c-1.17-1.599-1.754-3.793-1.754-6.583V245.657z M344.385,245.996c0,2.489,0.494,4.445,1.481,5.866
			c0.986,1.422,2.371,2.133,4.152,2.133c1.47,0,2.72-0.341,3.75-1.022c1.03-0.681,1.76-1.639,2.189-2.873v-7.903
			c-0.944-3.015-2.913-4.523-5.907-4.523c-1.792,0-3.184,0.703-4.176,2.108C344.882,241.189,344.385,243.259,344.385,245.996z"/>
		<path d="M383.12,248.925c0-0.998-0.234-1.843-0.7-2.535c-0.466-0.692-1.201-1.304-2.204-1.835
			c-1.004-0.531-2.519-1.076-4.548-1.634c-2.027-0.558-3.548-1.121-4.563-1.69c-1.014-0.569-1.757-1.229-2.229-1.98
			c-0.471-0.751-0.707-1.663-0.707-2.736c0-1.706,0.718-3.088,2.157-4.145c1.438-1.056,3.31-1.585,5.617-1.585
			c1.502,0,2.851,0.293,4.048,0.877c1.197,0.585,2.121,1.406,2.777,2.463c0.654,1.057,0.982,2.251,0.982,3.581h-0.869
			c0-1.749-0.645-3.195-1.931-4.338c-1.288-1.143-2.957-1.714-5.006-1.714c-2.061,0-3.726,0.459-4.998,1.376
			c-1.271,0.918-1.908,2.068-1.908,3.453c0,1.406,0.553,2.538,1.658,3.396s2.928,1.617,5.472,2.277
			c2.543,0.66,4.404,1.424,5.585,2.293c1.502,1.105,2.253,2.586,2.253,4.443c0,1.181-0.332,2.224-0.998,3.13
			c-0.665,0.907-1.61,1.607-2.832,2.1c-1.224,0.493-2.597,0.74-4.12,0.74c-1.696,0-3.219-0.281-4.571-0.845
			c-1.352-0.563-2.368-1.366-3.05-2.406c-0.681-1.041-1.022-2.27-1.022-3.686h0.869c0,1.921,0.718,3.412,2.157,4.474
			c1.438,1.062,3.31,1.594,5.617,1.594c2.049,0,3.739-0.469,5.07-1.408C382.454,251.647,383.12,250.427,383.12,248.925z"/>
		<path d="M393.562,254.864c-1.405,0-2.696-0.378-3.87-1.134c-1.175-0.757-2.095-1.795-2.761-3.115
			c-0.665-1.319-0.997-2.784-0.997-4.394v-0.724c0-1.61,0.322-3.085,0.965-4.426c0.643-1.341,1.529-2.388,2.655-3.139
			c1.127-0.751,2.355-1.127,3.686-1.127c1.942,0,3.53,0.692,4.765,2.077c1.233,1.384,1.851,3.203,1.851,5.456v0.918h-13.053v0.948
			c0,1.414,0.298,2.723,0.893,3.928c0.596,1.205,1.416,2.15,2.463,2.836c1.046,0.686,2.181,1.028,3.403,1.028
			c1.17,0,2.165-0.195,2.987-0.583c0.82-0.389,1.547-0.989,2.181-1.798l0.611,0.434
			C398.042,253.925,396.116,254.864,393.562,254.864z M393.24,237.674c-1.695,0-3.133,0.63-4.313,1.891
			c-1.181,1.261-1.873,2.868-2.077,4.821h12.137v-0.21c0-1.18-0.249-2.277-0.749-3.291c-0.499-1.014-1.186-1.803-2.06-2.366
			C395.303,237.956,394.324,237.674,393.24,237.674z"/>
		<path d="M410.766,237.77l-1.127-0.096c-1.481,0-2.721,0.48-3.719,1.439c-0.997,0.959-1.652,2.302-1.963,4.028v11.401h-0.869
			v-17.415h0.869v3.621c0.472-1.213,1.181-2.173,2.125-2.881c0.944-0.708,2.13-1.062,3.558-1.062c0.503,0,0.912,0.061,1.223,0.18
			L410.766,237.77z"/>
		<path d="M418.697,253.158l6.261-16.031h0.934l-6.777,17.415h-0.852l-6.76-17.415h0.933L418.697,253.158z"/>
		<path d="M428.255,231.687c0-0.247,0.085-0.459,0.258-0.636c0.171-0.177,0.38-0.266,0.627-0.266c0.247,0,0.459,0.089,0.636,0.266
			c0.177,0.177,0.266,0.389,0.266,0.636c0,0.247-0.089,0.456-0.266,0.628c-0.177,0.172-0.389,0.257-0.636,0.257
			c-0.247,0-0.456-0.085-0.627-0.257C428.34,232.143,428.255,231.934,428.255,231.687z M429.575,254.542h-0.87v-17.415h0.87V254.542
			z"/>
		<path d="M440.37,253.995c1.578,0,2.879-0.418,3.903-1.255c1.024-0.837,1.586-1.996,1.682-3.477h0.869
			c-0.085,1.685-0.735,3.039-1.947,4.064c-1.213,1.024-2.715,1.537-4.507,1.537c-2.178,0-3.908-0.788-5.191-2.366
			c-1.282-1.577-1.923-3.718-1.923-6.422v-0.579c0-2.639,0.641-4.748,1.923-6.325c1.283-1.578,3.002-2.366,5.159-2.366
			c1.846,0,3.369,0.553,4.571,1.658c1.201,1.106,1.84,2.575,1.915,4.411h-0.869c-0.075-1.567-0.626-2.825-1.65-3.774
			c-1.024-0.95-2.347-1.424-3.967-1.424c-1.942,0-3.463,0.7-4.563,2.1c-1.099,1.4-1.65,3.345-1.65,5.834v0.563
			c0,2.436,0.556,4.348,1.667,5.738C436.901,253.3,438.428,253.995,440.37,253.995z"/>
		<path d="M456.623,254.864c-1.405,0-2.696-0.378-3.87-1.134c-1.175-0.757-2.095-1.795-2.761-3.115
			c-0.665-1.319-0.997-2.784-0.997-4.394v-0.724c0-1.61,0.322-3.085,0.965-4.426c0.643-1.341,1.529-2.388,2.655-3.139
			c1.127-0.751,2.355-1.127,3.686-1.127c1.942,0,3.53,0.692,4.765,2.077c1.233,1.384,1.851,3.203,1.851,5.456v0.918h-13.053v0.948
			c0,1.414,0.298,2.723,0.893,3.928c0.596,1.205,1.416,2.15,2.463,2.836c1.046,0.686,2.181,1.028,3.403,1.028
			c1.17,0,2.165-0.195,2.987-0.583c0.82-0.389,1.547-0.989,2.181-1.798l0.611,0.434
			C461.103,253.925,459.178,254.864,456.623,254.864z M456.301,237.674c-1.695,0-3.133,0.63-4.313,1.891
			c-1.181,1.261-1.873,2.868-2.077,4.821h12.136v-0.21c0-1.18-0.249-2.277-0.749-3.291c-0.499-1.014-1.186-1.803-2.06-2.366
			C458.365,237.956,457.385,237.674,456.301,237.674z"/>
		<path d="M476.884,250.277c0-2.114-1.803-3.552-5.408-4.314c-2.168-0.461-3.675-1.054-4.523-1.778s-1.271-1.719-1.271-2.986
			c0-1.277,0.539-2.328,1.618-3.155c1.078-0.826,2.481-1.239,4.208-1.239c1.878,0,3.385,0.448,4.523,1.344
			c1.137,0.896,1.706,2.106,1.706,3.629h-0.884c0-1.17-0.494-2.146-1.481-2.93c-0.986-0.783-2.274-1.175-3.863-1.175
			c-1.523,0-2.73,0.332-3.622,0.998c-0.89,0.665-1.335,1.497-1.335,2.495c0,0.783,0.166,1.398,0.499,1.843
			c0.332,0.446,0.875,0.848,1.626,1.207c0.75,0.36,1.845,0.706,3.283,1.038c1.438,0.333,2.575,0.724,3.412,1.175
			c0.837,0.45,1.443,0.985,1.819,1.601c0.376,0.617,0.564,1.371,0.564,2.261c0,1.373-0.564,2.479-1.69,3.315
			c-1.126,0.837-2.602,1.255-4.425,1.255c-1.954,0-3.528-0.442-4.724-1.328c-1.197-0.885-1.795-2.025-1.795-3.42h0.87
			c0.085,1.223,0.624,2.175,1.617,2.857c0.992,0.681,2.336,1.022,4.032,1.022c1.555,0,2.819-0.362,3.79-1.086
			C476.398,252.184,476.884,251.307,476.884,250.277z"/>
	</g>
	<g>
		<path d="M234.531,247.058c-0.226,2.414-1.057,4.267-2.495,5.561c-1.438,1.293-3.391,1.939-5.859,1.939
			c-1.663,0-3.136-0.421-4.418-1.263s-2.277-2.039-2.985-3.59c-0.708-1.55-1.068-3.323-1.078-5.319v-3.621
			c0-1.996,0.348-3.78,1.046-5.352c0.697-1.572,1.692-2.787,2.985-3.645c1.293-0.858,2.777-1.288,4.45-1.288
			c2.447,0,4.394,0.644,5.843,1.931c1.448,1.288,2.285,3.134,2.511,5.537h-0.869c-0.247-2.157-0.998-3.796-2.254-4.917
			c-1.255-1.121-2.999-1.682-5.231-1.682c-2.275,0-4.113,0.858-5.513,2.575c-1.4,1.716-2.101,4.018-2.101,6.905v3.444
			c0,1.846,0.311,3.479,0.934,4.901c0.622,1.422,1.515,2.53,2.68,3.323c1.165,0.794,2.498,1.191,4,1.191
			c2.242,0,3.994-0.553,5.255-1.658c1.261-1.105,2.004-2.763,2.229-4.973H234.531z"/>
		<path d="M237.361,245.191c0-1.663,0.319-3.157,0.957-4.482c0.638-1.325,1.54-2.358,2.704-3.099c1.164-0.74,2.482-1.11,3.951-1.11
			c1.46,0,2.768,0.36,3.927,1.078c1.159,0.719,2.063,1.738,2.714,3.058c0.648,1.319,0.978,2.806,0.988,4.458v0.773
			c0,1.674-0.316,3.171-0.947,4.491c-0.634,1.319-1.534,2.35-2.697,3.09c-1.163,0.741-2.481,1.11-3.951,1.11
			c-1.472,0-2.788-0.364-3.952-1.094c-1.165-0.729-2.068-1.752-2.712-3.066c-0.644-1.314-0.972-2.792-0.982-4.434V245.191z
			 M238.23,245.867c0,1.448,0.287,2.777,0.861,3.983c0.574,1.207,1.373,2.149,2.398,2.825c1.025,0.676,2.198,1.014,3.518,1.014
			c1.985,0,3.602-0.745,4.853-2.237c1.249-1.492,1.873-3.412,1.873-5.762v-0.499c0-1.427-0.29-2.747-0.869-3.959
			c-0.579-1.213-1.382-2.159-2.405-2.841c-1.026-0.681-2.187-1.022-3.485-1.022c-1.985,0-3.605,0.756-4.86,2.269
			s-1.883,3.418-1.883,5.714V245.867z"/>
		<path d="M256.864,240.877c0.569-1.352,1.405-2.419,2.511-3.203c1.105-0.783,2.329-1.175,3.67-1.175
			c1.867,0,3.254,0.529,4.161,1.585c0.907,1.057,1.365,2.654,1.376,4.789v11.363h-0.869v-11.384
			c-0.011-1.865-0.392-3.245-1.143-4.14c-0.751-0.895-1.942-1.343-3.573-1.343c-1.502,0-2.803,0.533-3.903,1.6
			c-1.099,1.067-1.842,2.442-2.229,4.124v11.144h-0.869v-17.415h0.869V240.877z"/>
		<path d="M283.95,249.971c0-2.114-1.803-3.552-5.408-4.314c-2.168-0.461-3.675-1.054-4.523-1.778
			c-0.848-0.724-1.271-1.719-1.271-2.986c0-1.277,0.539-2.328,1.618-3.155c1.078-0.826,2.481-1.239,4.208-1.239
			c1.878,0,3.385,0.448,4.523,1.344c1.137,0.896,1.706,2.106,1.706,3.629h-0.884c0-1.17-0.494-2.146-1.481-2.93
			c-0.986-0.783-2.274-1.175-3.863-1.175c-1.523,0-2.73,0.332-3.622,0.998c-0.89,0.665-1.335,1.497-1.335,2.495
			c0,0.783,0.166,1.398,0.499,1.843c0.332,0.446,0.875,0.848,1.626,1.207c0.75,0.36,1.845,0.706,3.283,1.038
			c1.438,0.333,2.575,0.724,3.412,1.175c0.837,0.45,1.443,0.985,1.819,1.601c0.376,0.617,0.564,1.371,0.564,2.261
			c0,1.373-0.564,2.479-1.69,3.315c-1.127,0.837-2.602,1.255-4.425,1.255c-1.954,0-3.528-0.442-4.725-1.328
			c-1.197-0.885-1.795-2.025-1.795-3.42h0.87c0.085,1.223,0.624,2.175,1.617,2.857c0.992,0.681,2.336,1.022,4.032,1.022
			c1.555,0,2.819-0.362,3.79-1.086C283.464,251.878,283.95,251.001,283.95,249.971z"/>
		<path d="M300.459,254.236v-2.817c-0.515,0.966-1.265,1.731-2.253,2.294c-0.988,0.563-2.238,0.845-3.75,0.845
			c-1.899,0-3.324-0.555-4.273-1.665c-0.95-1.11-1.435-2.728-1.457-4.853v-11.218h0.869v11.25c0.021,1.846,0.44,3.243,1.256,4.193
			c0.814,0.95,2.006,1.424,3.573,1.424c1.663,0,3.015-0.392,4.056-1.175c1.04-0.783,1.7-1.931,1.979-3.444v-12.248h0.886v17.415
			H300.459z"/>
		<path d="M307.089,254.236h-0.87v-24.722h0.87V254.236z"/>
		<path d="M313.925,232.121v4.7h3.959v0.869h-3.959v12.373c0,1.235,0.201,2.149,0.603,2.739c0.402,0.591,1.075,0.886,2.02,0.886
			c0.471,0,1.046-0.048,1.722-0.145l0.145,0.821c-0.355,0.129-0.96,0.193-1.82,0.193c-1.265,0-2.172-0.351-2.72-1.055
			c-0.547-0.703-0.826-1.812-0.837-3.327V237.69h-3.219v-0.869h3.219v-4.7H313.925z"/>
		<path d="M321.342,231.381c0-0.247,0.085-0.459,0.258-0.636c0.171-0.177,0.38-0.266,0.627-0.266c0.247,0,0.459,0.089,0.636,0.266
			c0.177,0.177,0.266,0.389,0.266,0.636s-0.089,0.456-0.266,0.628c-0.177,0.172-0.389,0.257-0.636,0.257
			c-0.247,0-0.456-0.085-0.627-0.257C321.427,231.837,321.342,231.628,321.342,231.381z M322.662,254.236h-0.87v-17.415h0.87
			V254.236z"/>
		<path d="M328.42,240.877c0.569-1.352,1.405-2.419,2.511-3.203c1.105-0.783,2.329-1.175,3.67-1.175
			c1.867,0,3.254,0.529,4.161,1.585c0.907,1.057,1.365,2.654,1.376,4.789v11.363h-0.869v-11.384
			c-0.011-1.865-0.392-3.245-1.143-4.14c-0.751-0.895-1.942-1.343-3.573-1.343c-1.502,0-2.803,0.533-3.903,1.6
			c-1.099,1.067-1.842,2.442-2.229,4.124v11.144h-0.869v-17.415h0.869V240.877z"/>
		<path d="M343.949,245.351c0-2.779,0.584-4.949,1.754-6.51c1.169-1.561,2.773-2.342,4.812-2.342c1.297,0,2.451,0.298,3.46,0.893
			c1.008,0.596,1.819,1.468,2.43,2.616v-3.187h0.886v17.109c0,2.296-0.59,4.091-1.771,5.384c-1.18,1.293-2.784,1.939-4.812,1.939
			c-1.169,0-2.24-0.253-3.211-0.758c-0.971-0.506-1.8-1.232-2.487-2.178l0.613-0.581c0.675,0.856,1.416,1.511,2.221,1.966
			c0.805,0.454,1.749,0.682,2.832,0.682c1.792,0,3.187-0.544,4.184-1.63c0.998-1.088,1.514-2.622,1.546-4.603v-2.667
			c-0.601,0.987-1.414,1.746-2.438,2.277c-1.024,0.531-2.187,0.797-3.485,0.797c-2.017,0-3.61-0.799-4.779-2.398
			c-1.17-1.599-1.754-3.793-1.754-6.583V245.351z M344.834,245.69c0,2.489,0.494,4.445,1.481,5.866
			c0.986,1.422,2.371,2.133,4.152,2.133c1.47,0,2.72-0.341,3.75-1.022c1.03-0.681,1.76-1.639,2.189-2.873v-7.903
			c-0.944-3.015-2.913-4.523-5.907-4.523c-1.792,0-3.184,0.703-4.176,2.108C345.33,240.883,344.834,242.953,344.834,245.69z"/>
		<path d="M383.569,248.619c0-0.998-0.234-1.843-0.7-2.535s-1.201-1.304-2.204-1.835c-1.004-0.531-2.519-1.076-4.548-1.634
			c-2.027-0.558-3.548-1.121-4.563-1.69c-1.014-0.569-1.757-1.229-2.229-1.98c-0.471-0.751-0.707-1.663-0.707-2.736
			c0-1.706,0.718-3.088,2.157-4.145c1.438-1.056,3.31-1.585,5.617-1.585c1.502,0,2.851,0.293,4.048,0.877
			c1.197,0.585,2.121,1.406,2.777,2.463c0.654,1.057,0.982,2.251,0.982,3.581h-0.869c0-1.749-0.645-3.195-1.931-4.338
			c-1.288-1.143-2.957-1.714-5.006-1.714c-2.061,0-3.726,0.459-4.998,1.376c-1.271,0.918-1.908,2.068-1.908,3.453
			c0,1.406,0.553,2.538,1.658,3.396c1.105,0.858,2.928,1.617,5.472,2.277c2.543,0.66,4.404,1.424,5.585,2.293
			c1.502,1.105,2.253,2.586,2.253,4.443c0,1.181-0.332,2.224-0.998,3.13c-0.665,0.907-1.61,1.607-2.832,2.101
			c-1.224,0.493-2.597,0.74-4.12,0.74c-1.696,0-3.219-0.281-4.571-0.845c-1.352-0.563-2.368-1.366-3.05-2.406
			c-0.681-1.041-1.022-2.27-1.022-3.686h0.869c0,1.921,0.718,3.412,2.157,4.474c1.438,1.062,3.31,1.594,5.617,1.594
			c2.049,0,3.739-0.469,5.07-1.408C382.903,251.341,383.569,250.121,383.569,248.619z"/>
		<path d="M394.01,254.558c-1.405,0-2.696-0.378-3.87-1.134c-1.175-0.757-2.095-1.795-2.761-3.115
			c-0.665-1.319-0.997-2.784-0.997-4.394v-0.724c0-1.61,0.322-3.085,0.965-4.426c0.643-1.341,1.529-2.388,2.655-3.139
			c1.127-0.751,2.355-1.127,3.686-1.127c1.942,0,3.53,0.692,4.765,2.077c1.233,1.384,1.851,3.203,1.851,5.456v0.918h-13.053v0.948
			c0,1.414,0.298,2.723,0.893,3.928c0.596,1.205,1.416,2.15,2.463,2.836c1.046,0.686,2.181,1.028,3.403,1.028
			c1.17,0,2.165-0.195,2.987-0.583c0.82-0.389,1.547-0.989,2.181-1.798l0.611,0.434C398.49,253.619,396.565,254.558,394.01,254.558z
			 M393.688,237.368c-1.695,0-3.133,0.63-4.313,1.891c-1.181,1.261-1.873,2.868-2.077,4.821h12.137v-0.21
			c0-1.18-0.249-2.277-0.749-3.291c-0.499-1.014-1.186-1.803-2.06-2.366C395.752,237.65,394.772,237.368,393.688,237.368z"/>
		<path d="M411.214,237.465l-1.127-0.096c-1.481,0-2.721,0.48-3.719,1.439c-0.997,0.959-1.652,2.302-1.963,4.028v11.401h-0.869
			v-17.415h0.869v3.621c0.472-1.213,1.181-2.173,2.125-2.881c0.944-0.708,2.13-1.062,3.558-1.062c0.503,0,0.912,0.061,1.223,0.18
			L411.214,237.465z"/>
		<path d="M419.145,252.852l6.261-16.031h0.934l-6.777,17.415h-0.852l-6.76-17.415h0.933L419.145,252.852z"/>
		<path d="M428.703,231.381c0-0.247,0.085-0.459,0.258-0.636c0.171-0.177,0.38-0.266,0.627-0.266s0.459,0.089,0.636,0.266
			c0.177,0.177,0.266,0.389,0.266,0.636s-0.089,0.456-0.266,0.628c-0.177,0.172-0.389,0.257-0.636,0.257s-0.456-0.085-0.627-0.257
			C428.789,231.837,428.703,231.628,428.703,231.381z M430.023,254.236h-0.87v-17.415h0.87V254.236z"/>
		<path d="M440.818,253.689c1.578,0,2.879-0.418,3.903-1.255c1.024-0.837,1.586-1.996,1.682-3.477h0.869
			c-0.085,1.685-0.735,3.039-1.947,4.064c-1.213,1.024-2.715,1.537-4.507,1.537c-2.178,0-3.908-0.788-5.191-2.366
			c-1.282-1.577-1.923-3.718-1.923-6.422v-0.579c0-2.639,0.641-4.748,1.923-6.325c1.283-1.578,3.002-2.366,5.159-2.366
			c1.846,0,3.369,0.553,4.571,1.658c1.201,1.106,1.84,2.575,1.915,4.411h-0.869c-0.075-1.567-0.626-2.825-1.65-3.774
			c-1.024-0.95-2.347-1.424-3.967-1.424c-1.942,0-3.463,0.7-4.563,2.1c-1.099,1.4-1.65,3.345-1.65,5.834v0.563
			c0,2.436,0.556,4.348,1.667,5.738C437.35,252.994,438.876,253.689,440.818,253.689z"/>
		<path d="M457.072,254.558c-1.405,0-2.696-0.378-3.87-1.134c-1.175-0.757-2.095-1.795-2.761-3.115
			c-0.665-1.319-0.997-2.784-0.997-4.394v-0.724c0-1.61,0.322-3.085,0.965-4.426c0.643-1.341,1.529-2.388,2.655-3.139
			c1.127-0.751,2.355-1.127,3.686-1.127c1.942,0,3.53,0.692,4.765,2.077c1.233,1.384,1.851,3.203,1.851,5.456v0.918h-13.053v0.948
			c0,1.414,0.298,2.723,0.893,3.928c0.596,1.205,1.416,2.15,2.463,2.836c1.046,0.686,2.181,1.028,3.403,1.028
			c1.17,0,2.165-0.195,2.987-0.583c0.82-0.389,1.547-0.989,2.181-1.798l0.611,0.434
			C461.552,253.619,459.626,254.558,457.072,254.558z M456.75,237.368c-1.695,0-3.133,0.63-4.313,1.891
			c-1.181,1.261-1.873,2.868-2.077,4.821h12.137v-0.21c0-1.18-0.249-2.277-0.749-3.291c-0.499-1.014-1.186-1.803-2.06-2.366
			C458.813,237.65,457.834,237.368,456.75,237.368z"/>
		<path d="M477.332,249.971c0-2.114-1.803-3.552-5.408-4.314c-2.168-0.461-3.675-1.054-4.523-1.778
			c-0.848-0.724-1.271-1.719-1.271-2.986c0-1.277,0.539-2.328,1.618-3.155c1.078-0.826,2.481-1.239,4.208-1.239
			c1.878,0,3.385,0.448,4.523,1.344c1.137,0.896,1.706,2.106,1.706,3.629H477.3c0-1.17-0.494-2.146-1.481-2.93
			c-0.986-0.783-2.274-1.175-3.863-1.175c-1.523,0-2.73,0.332-3.622,0.998c-0.89,0.665-1.335,1.497-1.335,2.495
			c0,0.783,0.166,1.398,0.499,1.843c0.332,0.446,0.875,0.848,1.626,1.207c0.75,0.36,1.845,0.706,3.283,1.038
			c1.438,0.333,2.575,0.724,3.412,1.175c0.837,0.45,1.443,0.985,1.819,1.601c0.376,0.617,0.564,1.371,0.564,2.261
			c0,1.373-0.564,2.479-1.69,3.315c-1.127,0.837-2.602,1.255-4.425,1.255c-1.954,0-3.528-0.442-4.725-1.328
			c-1.197-0.885-1.795-2.025-1.795-3.42h0.87c0.085,1.223,0.624,2.175,1.617,2.857c0.992,0.681,2.336,1.022,4.032,1.022
			c1.555,0,2.819-0.362,3.79-1.086C476.847,251.878,477.332,251.001,477.332,249.971z"/>
	</g>
	<g class="st3">
		<path d="M216.897,206.242c0,0-0.002,0.002-0.003,0.002c0.001-0.001,0.001-0.002,0.002-0.003c0,0-0.001,0.001-0.001,0.001
			c0,0,0,0,0,0l-0.002,0.001c-0.265,0.169-148.525,94.884-96.002,204.426c0.053,0.265,0.094,0.525,0.152,0.791
			c-0.001-0.006-0.001-0.011-0.002-0.017c0.001,0.006,0.002,0.012,0.003,0.017c-0.022-0.198-0.034-0.392-0.055-0.59
			c0.247,0.513,0.49,1.026,0.745,1.539v0c0,0,0,0.001,0.001,0.001c0,0-0.007-0.055-0.017-0.152
			c-0.002-0.023-0.005-0.049-0.008-0.077c-0.003-0.035-0.007-0.072-0.011-0.115c-0.006-0.072-0.013-0.16-0.02-0.254
			c-0.003-0.043-0.006-0.088-0.009-0.136c-0.007-0.114-0.014-0.242-0.02-0.381c-0.002-0.046-0.004-0.095-0.006-0.144
			c-0.006-0.154-0.01-0.321-0.013-0.502c-0.001-0.051-0.001-0.104-0.002-0.157c-0.002-0.196-0.002-0.404,0.001-0.627
			c0.001-0.044,0.002-0.091,0.003-0.136c0.004-0.243,0.011-0.498,0.024-0.77c0.001-0.03,0.003-0.062,0.005-0.092
			c0.013-0.271,0.03-0.556,0.052-0.853c0.003-0.035,0.004-0.068,0.007-0.103c0.024-0.309,0.054-0.634,0.09-0.969
			c0.006-0.053,0.01-0.105,0.016-0.158c0.036-0.332,0.08-0.678,0.13-1.034c0.009-0.064,0.017-0.127,0.027-0.192
			c0.052-0.357,0.111-0.726,0.177-1.104c0.012-0.071,0.025-0.143,0.038-0.215c0.07-0.384,0.147-0.778,0.234-1.183
			c0.015-0.07,0.031-0.142,0.047-0.213c0.091-0.415,0.19-0.839,0.301-1.273c0.016-0.063,0.033-0.127,0.05-0.191
			c0.117-0.45,0.242-0.908,0.382-1.377c0.013-0.044,0.028-0.09,0.041-0.134c0.147-0.49,0.305-0.987,0.479-1.495
			c0.003-0.008,0.006-0.017,0.009-0.025c0.174-0.507,0.365-1.025,0.568-1.549c0.02-0.051,0.038-0.101,0.058-0.151
			c0.197-0.504,0.411-1.016,0.637-1.534c0.033-0.075,0.064-0.149,0.097-0.223c0.225-0.507,0.465-1.022,0.719-1.54
			c0.042-0.087,0.085-0.174,0.128-0.261c0.257-0.516,0.529-1.037,0.816-1.563c0.05-0.091,0.1-0.182,0.151-0.274
			c0.294-0.529,0.603-1.063,0.929-1.6c0.052-0.086,0.106-0.172,0.16-0.258c0.338-0.548,0.691-1.099,1.065-1.654
			c0.047-0.07,0.097-0.14,0.145-0.21c0.392-0.575,0.8-1.153,1.233-1.733c0.027-0.036,0.056-0.072,0.083-0.109
			c0.433-0.578,0.888-1.158,1.363-1.74c0.036-0.045,0.071-0.089,0.108-0.134c0.474-0.576,0.975-1.155,1.493-1.733
			c0.071-0.08,0.141-0.16,0.213-0.239c0.506-0.558,1.036-1.117,1.584-1.675c0.097-0.099,0.194-0.198,0.292-0.298
			c0.546-0.548,1.115-1.096,1.704-1.643c0.114-0.106,0.229-0.212,0.345-0.318c0.594-0.543,1.21-1.086,1.848-1.626
			c0.125-0.106,0.253-0.212,0.38-0.318c0.653-0.544,1.326-1.087,2.026-1.627c0.121-0.094,0.247-0.187,0.37-0.28
			c0.725-0.552,1.471-1.102,2.248-1.648c0.1-0.07,0.204-0.14,0.305-0.21c0.787-0.547,1.597-1.091,2.437-1.631
			c0.077-0.049,0.153-0.098,0.23-0.147c0.842-0.536,1.716-1.067,2.614-1.594c0.134-0.079,0.263-0.158,0.398-0.236
			c0.886-0.514,1.806-1.022,2.747-1.525c0.223-0.119,0.442-0.239,0.667-0.358c0.233-0.122,0.472-0.244,0.709-0.365
			c0.389-0.2,0.777-0.4,1.175-0.598c0.229-0.114,0.466-0.227,0.698-0.34c0.416-0.203,0.831-0.407,1.257-0.608
			c0.209-0.099,0.426-0.196,0.638-0.294c0.46-0.213,0.918-0.427,1.389-0.637c0.056-0.025,0.115-0.049,0.171-0.074
			c0.616-0.274,1.239-0.546,1.874-0.815l0-0.001c0,0,0.001,0,0.001,0c0,0-0.937-3.11-1.725-8.793
			c0.143-0.072,0.278-0.144,0.421-0.216c0.512-0.256,1.036-0.512,1.558-0.768c0.835-0.409,1.682-0.818,2.544-1.226
			c0.557-0.264,1.118-0.528,1.686-0.791c0.897-0.416,1.815-0.831,2.74-1.246c0.544-0.244,1.08-0.488,1.633-0.731
			c1.245-0.548,2.519-1.094,3.814-1.64c0.226-0.095,0.441-0.191,0.669-0.286l-0.001-0.001c0,0,0.001,0,0.001-0.001
			c-0.001,0.002-31.515-44.296,41.734-141.028C216.891,206.248,216.894,206.245,216.897,206.242z"/>
		<path d="M126.04,69.352c4.557,1.647,12.994,5.901,20.127,16.269c0.492,0.716,0.978,1.461,1.456,2.236
			c0.956,1.55,1.88,3.221,2.758,5.022c3.513,7.204,6.295,16.491,7.466,28.446c0,0,2.856,0.026,7.871,0.801
			c0.008,0.046,0.017,0.089,0.025,0.135c0.063,0.365,0.123,0.741,0.185,1.111c0.14,0.832,0.277,1.671,0.408,2.525
			c0.071,0.459,0.139,0.925,0.208,1.39c0.118,0.799,0.233,1.607,0.344,2.424c0.066,0.48,0.131,0.962,0.194,1.448
			c0.113,0.868,0.221,1.751,0.327,2.639c0.052,0.44,0.107,0.874,0.158,1.319c0.147,1.287,0.288,2.592,0.421,3.922
			c0.004,0.044,0.009,0.085,0.014,0.129l0,0c0,0.001,0,0.001,0,0.002c0,0,51.595-17.145,122.604,81.257c0,0-0.001-0.003-0.001-0.004
			c0.001,0.001,0.001,0.002,0.002,0.002c0,0-0.003-0.01-0.009-0.031c-0.724-2.641-47.506-171.62-167.883-152.005
			c0,0,0.003,0.001,0.003,0.001c-0.001,0-0.002,0-0.003,0c0,0,0.657,0.115,1.769,0.446c-0.653-0.08-1.309-0.157-1.979-0.215
			C123.698,68.848,124.864,69.107,126.04,69.352z"/>
		<path d="M447.513,291.828c0.155-0.175,0.308-0.354,0.462-0.531c0.965-1.107,1.923-2.234,2.867-3.398
			c-0.14,0.083-0.28,0.159-0.419,0.242c-0.162,0.089-0.37,0.199-0.623,0.326c-0.287,0.144-0.631,0.308-1.032,0.487
			c-0.102,0.046-0.208,0.092-0.317,0.139c-7.205,3.104-30.025,9.441-59.052-17.35c0,0-0.041,0.035-0.077,0.066
			c-0.014,0.012-0.03,0.026-0.049,0.041c-0.066,0.056-0.163,0.137-0.283,0.235c-0.024,0.019-0.053,0.043-0.079,0.064
			c-0.126,0.103-0.276,0.223-0.452,0.362c-0.022,0.017-0.039,0.031-0.062,0.049c-0.188,0.148-0.414,0.322-0.655,0.506
			c-0.058,0.044-0.117,0.089-0.179,0.135c-0.256,0.194-0.538,0.403-0.848,0.629c-0.055,0.04-0.117,0.084-0.174,0.125
			c-0.291,0.211-0.607,0.436-0.943,0.671c-0.068,0.048-0.132,0.093-0.202,0.142c-0.374,0.26-0.781,0.537-1.207,0.823
			c-0.104,0.07-0.211,0.14-0.318,0.212c-0.325,0.216-0.676,0.443-1.03,0.671c-0.275-0.219-0.554-0.448-0.83-0.67
			c-0.656-0.529-1.314-1.063-1.978-1.613c-0.358-0.297-0.72-0.6-1.08-0.902c-0.616-0.516-1.235-1.041-1.858-1.576
			c-0.372-0.319-0.745-0.639-1.12-0.965c-0.655-0.569-1.315-1.151-1.978-1.739c-0.338-0.299-0.673-0.593-1.012-0.898
			c-0.936-0.839-1.88-1.696-2.833-2.574c-0.06-0.055-0.118-0.107-0.178-0.162c0,0-0.361,0.626-1.182,1.692
			c-0.002,0.002-0.003,0.004-0.005,0.006c-0.324,0.421-0.72,0.911-1.193,1.457c-0.015,0.018-0.031,0.036-0.046,0.053
			c-0.231,0.266-0.478,0.544-0.746,0.835c-0.005,0.005-0.009,0.01-0.014,0.015c-0.271,0.294-0.563,0.602-0.873,0.92
			c-0.029,0.029-0.059,0.06-0.088,0.089c-0.29,0.295-0.597,0.599-0.921,0.912c-0.03,0.029-0.058,0.057-0.088,0.086
			c-0.347,0.333-0.715,0.675-1.102,1.024c-0.042,0.038-0.086,0.076-0.128,0.114c-0.352,0.316-0.722,0.638-1.108,0.965
			c-0.06,0.051-0.118,0.101-0.178,0.151c-0.428,0.36-0.875,0.725-1.345,1.096c-0.052,0.041-0.107,0.083-0.16,0.124
			c-0.424,0.333-0.867,0.67-1.326,1.009c-0.088,0.066-0.175,0.131-0.265,0.197c-0.517,0.379-1.053,0.761-1.614,1.146
			c-0.049,0.034-0.101,0.067-0.15,0.101c-0.513,0.35-1.048,0.703-1.599,1.056c-0.123,0.079-0.244,0.158-0.369,0.236
			c-0.466,0.295-0.945,0.591-1.438,0.886c-0.066,0.04-0.129,0.079-0.196,0.119c-0.576,0.343-1.172,0.687-1.785,1.029
			c-0.092,0.051-0.189,0.103-0.282,0.154c-0.509,0.282-1.031,0.563-1.565,0.843c-0.174,0.091-0.35,0.182-0.527,0.272
			c-0.488,0.251-0.986,0.501-1.495,0.75c-0.178,0.087-0.354,0.174-0.535,0.261c-0.638,0.306-1.29,0.611-1.961,0.913
			c-0.044,0.02-0.085,0.04-0.13,0.06c-0.731,0.327-1.484,0.651-2.254,0.97c-0.161,0.067-0.329,0.133-0.491,0.199
			c-0.603,0.247-1.218,0.491-1.845,0.732c-0.233,0.09-0.468,0.178-0.705,0.267c-0.604,0.227-1.22,0.45-1.846,0.672
			c-0.224,0.079-0.445,0.159-0.673,0.238c-1.7,0.587-3.481,1.152-5.347,1.689c-0.237,0.068-0.481,0.134-0.721,0.202
			c-0.704,0.198-1.418,0.391-2.146,0.581c-0.301,0.078-0.605,0.156-0.91,0.233c-0.733,0.185-1.48,0.364-2.237,0.54
			c-0.268,0.062-0.531,0.126-0.802,0.187c-1.037,0.233-2.092,0.46-3.174,0.675c-0.017,0.003-0.036,0.007-0.053,0.01
			c-1.046,0.207-2.118,0.403-3.206,0.592c-0.32,0.056-0.647,0.108-0.971,0.162c-0.816,0.136-1.644,0.267-2.484,0.392
			c-0.369,0.055-0.738,0.109-1.111,0.162c-0.891,0.126-1.797,0.244-2.715,0.356c-0.299,0.037-0.591,0.076-0.893,0.111
			c-1.228,0.144-2.477,0.277-3.753,0.396c-0.163,0.015-0.333,0.027-0.497,0.042c-1.106,0.1-2.23,0.191-3.372,0.272
			c-0.397,0.028-0.802,0.053-1.204,0.078c-0.951,0.061-1.914,0.115-2.89,0.162c-0.432,0.021-0.864,0.042-1.3,0.06
			c-1.087,0.045-2.191,0.079-3.308,0.107c-0.306,0.007-0.604,0.019-0.912,0.025c-1.437,0.028-2.899,0.042-4.388,0.039
			c-0.278,0-0.565-0.006-0.845-0.008c-1.208-0.007-2.432-0.023-3.674-0.051c-0.476-0.011-0.958-0.025-1.438-0.039
			c-1.107-0.032-2.228-0.072-3.362-0.121c-0.487-0.021-0.973-0.041-1.465-0.065c-1.346-0.066-2.711-0.145-4.094-0.236
			c-0.262-0.017-0.517-0.03-0.781-0.048c-1.662-0.114-3.354-0.248-5.07-0.399c-0.395-0.035-0.799-0.076-1.197-0.113
			c-1.328-0.123-2.669-0.255-4.029-0.401c-0.555-0.059-1.115-0.122-1.675-0.185c-1.284-0.145-2.584-0.301-3.896-0.466
			c-0.537-0.068-1.07-0.133-1.612-0.204c-1.702-0.223-3.424-0.462-5.174-0.721c-0.133-0.02-0.262-0.036-0.396-0.056
			c-1.908-0.284-3.849-0.594-5.815-0.922c-0.495-0.083-1-0.173-1.498-0.258c-1.48-0.253-2.975-0.518-4.488-0.797
			c-0.625-0.115-1.255-0.233-1.886-0.353c-1.497-0.284-3.012-0.581-4.541-0.89c-0.566-0.114-1.128-0.225-1.699-0.342
			c-2.095-0.432-4.212-0.883-6.367-1.363c0,0,0,0,0,0l0,0c-0.001,0-0.001,0-0.002,0l0.002,0.001c0,0-0.001,0-0.001,0
			c0,0,0.008,0.004,0.008,0.005c0.032,0.021,0.902,0.586,2.497,1.564c0.063,0.039,0.125,0.077,0.19,0.117
			c0.199,0.122,0.407,0.248,0.627,0.382c0.158,0.096,0.319,0.193,0.488,0.295c0.159,0.096,0.321,0.193,0.489,0.294
			c0.248,0.149,0.504,0.302,0.772,0.461c0.159,0.095,0.324,0.192,0.49,0.29c0.233,0.138,0.473,0.279,0.72,0.424
			c0.214,0.125,0.431,0.252,0.655,0.383c0.272,0.158,0.55,0.32,0.837,0.486c0.156,0.09,0.309,0.179,0.469,0.271
			c0.385,0.222,0.787,0.451,1.196,0.685c0.164,0.094,0.327,0.186,0.496,0.282c0.429,0.243,0.871,0.492,1.324,0.746
			c0.167,0.094,0.337,0.188,0.508,0.284c0.474,0.264,0.957,0.533,1.456,0.807c0.159,0.087,0.322,0.176,0.483,0.265
			c0.477,0.262,0.963,0.527,1.462,0.797c0.154,0.083,0.307,0.166,0.463,0.25c0.527,0.285,1.067,0.574,1.617,0.867
			c0.155,0.083,0.307,0.164,0.464,0.247c0.596,0.316,1.207,0.638,1.828,0.963c0.171,0.09,0.342,0.179,0.515,0.269
			c0.633,0.33,1.279,0.663,1.937,1.001c0.166,0.085,0.334,0.171,0.502,0.257c0.686,0.35,1.382,0.704,2.094,1.061
			c0.122,0.061,0.247,0.123,0.37,0.185c0.699,0.35,1.409,0.703,2.132,1.059c0.097,0.048,0.191,0.095,0.289,0.143
			c0.765,0.376,1.547,0.755,2.338,1.136c0.16,0.077,0.319,0.154,0.48,0.231c0.775,0.372,1.563,0.746,2.362,1.122
			c0.177,0.083,0.355,0.167,0.533,0.251c0.811,0.38,1.632,0.761,2.466,1.144c0.157,0.072,0.315,0.144,0.472,0.216
			c0.874,0.4,1.758,0.8,2.656,1.202c0.074,0.033,0.15,0.067,0.225,0.1c0.881,0.393,1.773,0.786,2.676,1.18
			c0.121,0.053,0.241,0.106,0.363,0.159c0.915,0.398,1.844,0.795,2.781,1.192c0.169,0.072,0.338,0.143,0.508,0.215
			c0.927,0.391,1.865,0.781,2.813,1.171c0.175,0.072,0.351,0.144,0.527,0.216c0.967,0.395,1.943,0.79,2.93,1.182
			c0.133,0.053,0.267,0.105,0.401,0.158c1.042,0.413,2.092,0.824,3.156,1.232c0.003,0.001,0.006,0.002,0.01,0.004
			c1.065,0.409,2.143,0.814,3.229,1.217c0.136,0.05,0.27,0.101,0.406,0.151c1.037,0.383,2.084,0.763,3.138,1.139
			c0.181,0.065,0.361,0.129,0.543,0.193c1.048,0.372,2.105,0.741,3.169,1.105c0.172,0.059,0.345,0.117,0.518,0.176
			c1.097,0.373,2.201,0.743,3.315,1.106c0.094,0.031,0.188,0.06,0.282,0.091c1.136,0.37,2.28,0.735,3.432,1.093
			c0.058,0.018,0.116,0.037,0.174,0.055c1.148,0.356,2.304,0.706,3.467,1.05c0.162,0.048,0.323,0.096,0.486,0.144
			c1.127,0.331,2.261,0.656,3.4,0.975c0.186,0.052,0.371,0.104,0.557,0.155c1.147,0.318,2.299,0.629,3.457,0.933
			c0.156,0.041,0.312,0.081,0.467,0.121c1.208,0.314,2.422,0.622,3.642,0.92c0.034,0.008,0.069,0.016,0.103,0.025
			c1.23,0.299,2.466,0.589,3.707,0.87c0.103,0.023,0.205,0.047,0.308,0.071c1.205,0.271,2.416,0.532,3.63,0.785
			c0.18,0.037,0.359,0.075,0.539,0.112c1.192,0.245,2.389,0.481,3.589,0.707c0.185,0.035,0.37,0.069,0.555,0.103
			c1.219,0.226,2.441,0.444,3.667,0.65c0.131,0.022,0.263,0.043,0.395,0.065c2.565,0.425,5.145,0.803,7.737,1.129
			c0.142,0.018,0.283,0.037,0.424,0.054c1.236,0.153,2.475,0.292,3.715,0.42c0.191,0.02,0.381,0.04,0.572,0.059
			c1.23,0.123,2.461,0.235,3.695,0.333c0.181,0.014,0.362,0.028,0.542,0.041c1.266,0.097,2.533,0.183,3.802,0.252
			c0.091,0.005,0.182,0.009,0.273,0.013c1.299,0.069,2.599,0.124,3.899,0.162c0.052,0.001,0.105,0.004,0.157,0.006
			c1.285,0.037,2.57,0.055,3.856,0.061c0.169,0.001,0.339,0.003,0.508,0.003c1.241,0.002,2.483-0.013,3.724-0.041
			c0.197-0.004,0.394-0.01,0.591-0.015c1.244-0.033,2.488-0.081,3.731-0.146c0.163-0.008,0.325-0.019,0.488-0.028
			c1.292-0.072,2.584-0.157,3.874-0.264c0.038-0.003,0.075-0.007,0.113-0.01c1.299-0.109,2.596-0.238,3.891-0.384
			c0.105-0.012,0.21-0.022,0.316-0.034c1.258-0.145,2.514-0.311,3.769-0.492c0.184-0.027,0.367-0.052,0.55-0.08
			c1.226-0.183,2.45-0.383,3.672-0.602c0.192-0.034,0.383-0.07,0.574-0.105c1.237-0.227,2.471-0.471,3.701-0.736
			c0.133-0.029,0.265-0.06,0.398-0.089c2.575-0.565,5.136-1.215,7.679-1.955c0.14-0.041,0.28-0.079,0.42-0.121
			c1.21-0.357,2.415-0.738,3.616-1.137c0.189-0.063,0.377-0.125,0.566-0.189c1.188-0.402,2.372-0.823,3.551-1.267
			c0.175-0.066,0.349-0.133,0.523-0.2c1.208-0.462,2.411-0.942,3.608-1.449c0.09-0.038,0.18-0.079,0.271-0.118
			c1.22-0.521,2.434-1.064,3.641-1.634c0.054-0.026,0.109-0.05,0.164-0.075c1.196-0.567,2.385-1.163,3.568-1.779
			c0.158-0.082,0.317-0.163,0.475-0.246c1.142-0.602,2.277-1.229,3.405-1.878c0.181-0.104,0.361-0.209,0.542-0.314
			c1.128-0.658,2.25-1.337,3.364-2.043c0.056-0.036,0.114-0.068,0.171-0.104c0.098-0.062,0.194-0.131,0.291-0.194
			c2.216-1.421,4.404-2.941,6.559-4.562c0.16-0.121,0.321-0.239,0.481-0.361c1.028-0.782,2.048-1.59,3.061-2.42
			c0.181-0.148,0.361-0.298,0.541-0.448c1.024-0.85,2.042-1.72,3.049-2.62c0.101-0.09,0.2-0.183,0.3-0.274
			c0.982-0.884,1.956-1.792,2.921-2.724c0.108-0.104,0.217-0.206,0.325-0.311c0.978-0.952,1.946-1.935,2.907-2.938
			c0.18-0.188,0.361-0.377,0.541-0.567C445.652,293.901,446.587,292.878,447.513,291.828z"/>
	</g>
	<g>
		<g>
			<g>
				<g>
					<g>
						
							<linearGradient id="SVGID_3_" gradientUnits="userSpaceOnUse" x1="-1006.9019" y1="307.8972" x2="-877.7574" y2="434.3947" gradientTransform="matrix(-0.949 -0.3152 -0.3152 0.949 -610.6681 -344.0067)">
							<stop  offset="0" style="stop-color:#6B69BE"/>
							<stop  offset="1" style="stop-color:#9C98DD"/>
						</linearGradient>
						<path class="st4" d="M171.515,343.868c0,0-30.046-45.312,46.351-139.593c0,0-112.352,74.039-102.54,201.961
							C110.511,379.645,126.606,360.965,171.515,343.868z"/>
					</g>
					<g>
						
							<linearGradient id="SVGID_4_" gradientUnits="userSpaceOnUse" x1="161.211" y1="363.004" x2="0.7316" y2="520.1942" gradientTransform="matrix(0.8986 -0.4388 0.4388 0.8986 -106.7275 -58.4286)">
							<stop  offset="0" style="stop-color:#FFFFFF"/>
							<stop  offset="1" style="stop-color:#9C98DD"/>
						</linearGradient>
						<path class="st5" d="M214.692,207.264c-21.282,26.859-46.011,65.317-49.256,102.109c-1.788,20.279,3.637,31.464,5.184,34.187
							c-6.599,2.531-12.633,5.128-17.944,7.721c-21.327,10.416-33.369,21.84-37.315,35.565c0.455-25.084,5.614-49.781,15.365-73.506
							c8.46-20.584,20.378-40.488,35.421-59.158C186.254,229.224,206.695,213.125,214.692,207.264 M217.867,204.274
							c0,0-104.737,69.012-103.129,188.91c1.763-16.249,13.687-29.385,38.205-41.359c5.539-2.705,11.721-5.351,18.573-7.96
							C171.515,343.868,141.47,298.556,217.867,204.274L217.867,204.274z M114.739,393.186c-0.449,4.138-0.239,8.477,0.589,13.051
							C114.989,401.825,114.796,397.468,114.739,393.186L114.739,393.186z"/>
					</g>
				</g>
			</g>
			<g>
				<g>
					
						<linearGradient id="SVGID_5_" gradientUnits="userSpaceOnUse" x1="147.7797" y1="147.4222" x2="5.5571" y2="-21.6737" gradientTransform="matrix(0.8984 -0.44 -0.4392 -0.9019 113.6566 393.1672)">
						<stop  offset="0" style="stop-color:#9C98DD"/>
						<stop  offset="0.5794" style="stop-color:#817ECC"/>
						<stop  offset="1" style="stop-color:#6B69BE"/>
					</linearGradient>
					<path class="st6" d="M157.666,359.12c0,0-19.195-71.963,60.202-154.845c0,0-153.225,90.81-101.881,202.934
						C115.987,407.209,112.812,376.391,157.666,359.12z"/>
					
						<linearGradient id="SVGID_6_" gradientUnits="userSpaceOnUse" x1="176.3884" y1="447.3198" x2="-4.2119" y2="447.3198" gradientTransform="matrix(0.8986 -0.4388 0.4388 0.8986 -106.7275 -58.4286)">
						<stop  offset="0" style="stop-color:#9C98DD"/>
						<stop  offset="0.1951" style="stop-color:#B6B3E6"/>
						<stop  offset="0.6122" style="stop-color:#F8F7FD"/>
						<stop  offset="0.6558" style="stop-color:#FFFFFF"/>
					</linearGradient>
					<path class="st7" d="M214.162,207.317c-38.615,41.604-52.203,80.101-56.768,105.353c-2.659,14.707-2.606,26.582-2.094,33.953
						c0.454,6.537,1.318,10.71,1.647,12.124c-2.754,1.076-5.413,2.238-7.911,3.457c-10.38,5.069-24.093,14.24-30.48,29.145
						c-2.357,5.5-3.028,10.146-3.186,12.976c-10.599-24.624-12.13-50.156-4.547-75.939c6.293-21.395,18.838-43.018,37.289-64.268
						C173.589,234.774,203.505,214.2,214.162,207.317 M217.867,204.274c0,0-153.225,90.81-101.881,202.934
						c0,0-2.762-26.838,33.318-44.46c2.584-1.262,5.364-2.475,8.362-3.629C157.666,359.12,138.47,287.156,217.867,204.274
						L217.867,204.274z"/>
				</g>
			</g>
		</g>
		<g>
			<g>
				<g>
					
						<linearGradient id="SVGID_7_" gradientUnits="userSpaceOnUse" x1="128.2168" y1="223.7015" x2="177.6679" y2="223.7015" gradientTransform="matrix(0.5796 -0.8148 -0.8148 -0.5796 307.7523 390.1154)">
						<stop  offset="0" style="stop-color:#10677E"/>
						<stop  offset="1" style="stop-color:#4BA7B5"/>
					</linearGradient>
					<path class="st8" d="M171.203,135.634c0,0,52.13-15.442,119.869,85.24c0,0-37.847-129.122-163.024-157.244
						C154.882,66.821,168.024,87.686,171.203,135.634z"/>
				</g>
				<g>
					
						<linearGradient id="SVGID_8_" gradientUnits="userSpaceOnUse" x1="122.5352" y1="282.9027" x2="174.9847" y2="282.3641" gradientTransform="matrix(0.5712 -0.8208 0.8208 0.5712 -103.395 97.0184)">
						<stop  offset="0" style="stop-color:#4BA7B5"/>
						<stop  offset="0.1796" style="stop-color:#66B4C0"/>
						<stop  offset="0.5664" style="stop-color:#ABD6DD"/>
						<stop  offset="0.9982" style="stop-color:#FFFFFF"/>
					</linearGradient>
					<path class="st9" d="M146.59,69.35c23.843,7.789,45.94,19.961,65.759,36.237c17.199,14.124,32.734,31.352,46.175,51.209
						c17.965,26.54,27.364,50.801,30.622,60.166c-19.439-28.222-48.958-63.139-83.181-77.026
						c-18.864-7.655-31.148-5.747-34.203-5.066C169.339,99.681,161.486,79.047,146.59,69.35 M128.048,63.63
						c4.317,0.97,8.539,2.063,12.65,3.262C136.874,65.25,132.665,64.178,128.048,63.63L128.048,63.63z M140.698,66.892
						c18.41,7.907,27.872,29.039,30.505,68.74c0,0,52.13-15.442,119.87,85.24C291.073,220.874,255.801,100.506,140.698,66.892
						L140.698,66.892z"/>
				</g>
			</g>
			<g>
				
					<linearGradient id="SVGID_9_" gradientUnits="userSpaceOnUse" x1="123.6816" y1="219.2686" x2="189.1251" y2="219.2686" gradientTransform="matrix(0.5712 -0.8208 -0.8208 -0.5712 308.6359 383.784)">
					<stop  offset="0" style="stop-color:#4BA7B5"/>
					<stop  offset="0.4567" style="stop-color:#328C9E"/>
					<stop  offset="1" style="stop-color:#10677E"/>
				</linearGradient>
				<path class="st10" d="M161.639,117.466c0,0,74.158,3.013,129.434,103.407c0,0-40.9-173.242-162.808-157.468
					C128.265,63.406,158.525,69.515,161.639,117.466z"/>
				
					<linearGradient id="SVGID_10_" gradientUnits="userSpaceOnUse" x1="192.1957" y1="185.1328" x2="103.9322" y2="385.8372" gradientTransform="matrix(0.5712 -0.8208 0.8208 0.5712 -103.395 97.0184)">
					<stop  offset="0" style="stop-color:#4BA7B5"/>
					<stop  offset="0.1796" style="stop-color:#66B4C0"/>
					<stop  offset="0.5664" style="stop-color:#ABD6DD"/>
					<stop  offset="0.9982" style="stop-color:#FFFFFF"/>
				</linearGradient>
				<path class="st11" d="M131.197,63.672c26.568-2.817,51.312,3.293,73.587,18.179c18.484,12.354,35.331,30.746,50.068,54.666
					c20.345,33.021,31.036,67.679,34.422,79.905c-28.113-49.199-60.701-73.593-83.364-85.44
					c-22.877-11.958-40.433-13.834-43.7-14.088c-0.959-13.736-4.886-32.475-18.007-44.883
					C139.081,67.171,134.156,64.781,131.197,63.672 M128.265,63.406c0,0,30.261,6.109,33.374,54.06
					c0,0,74.158,3.013,129.434,103.407C291.073,220.874,250.173,47.631,128.265,63.406L128.265,63.406z"/>
			</g>
		</g>
		<g>
			<g>
				
					<linearGradient id="SVGID_11_" gradientUnits="userSpaceOnUse" x1="257.67" y1="197.6122" x2="447.7454" y2="197.6122" gradientTransform="matrix(0.8608 -0.509 -0.509 -0.8608 132.877 638.6251)">
					<stop  offset="0" style="stop-color:#64B946"/>
					<stop  offset="1" style="stop-color:#A7DE8A"/>
				</linearGradient>
				<path class="st12" d="M368.92,268.404c0,0-28.716,46.167-146.226,15.889c0,0,114.051,71.394,226.31,9.279
					C426.824,309.008,403.143,302.137,368.92,268.404z"/>
				
					<linearGradient id="SVGID_12_" gradientUnits="userSpaceOnUse" x1="257.6699" y1="304.3869" x2="447.7466" y2="304.3869" gradientTransform="matrix(0.8608 -0.509 0.509 0.8608 -122.6466 206.5236)">
					<stop  offset="0" style="stop-color:#A7DE8A"/>
					<stop  offset="1" style="stop-color:#FFFFFF"/>
				</linearGradient>
				<path class="st13" d="M226.741,285.94c70.096,17.298,108.108,7.295,127.731-4.309c9.007-5.326,13.262-10.524,14.539-12.285
					c25.181,24.7,44.753,34.907,62.329,32.264c-22.997,10.009-47.596,15.582-73.222,16.577c-22.237,0.863-45.295-1.699-68.53-7.615
					C258.537,302.665,235.4,290.778,226.741,285.94 M222.693,284.292c0,0,106.318,66.541,214.685,15.241
					c-19.015,6.316-40.123-3.199-68.458-31.13c0,0-3.914,6.291-14.758,12.704C335.625,292.068,296.834,303.395,222.693,284.292
					L222.693,284.292z M437.379,299.534c2.814-0.934,5.581-2.216,8.32-3.836c1.105-0.653,2.21-1.364,3.306-2.127
					C445.126,295.717,441.256,297.699,437.379,299.534L437.379,299.534z"/>
			</g>
			<g>
				
					<linearGradient id="SVGID_13_" gradientUnits="userSpaceOnUse" x1="257.6711" y1="194.6663" x2="447.7466" y2="194.6663" gradientTransform="matrix(0.8608 -0.509 -0.509 -0.8608 132.877 638.6251)">
					<stop  offset="0" style="stop-color:#A7DE8A"/>
					<stop  offset="1" style="stop-color:#64B946"/>
				</linearGradient>
				<path class="st14" d="M388.125,275.406c0,0-57.376,47.08-165.43,8.886c0,0,145.778,102.149,226.31,9.279
					C449.005,293.571,422.346,309.14,388.125,275.406z"/>
				
					<linearGradient id="SVGID_14_" gradientUnits="userSpaceOnUse" x1="257.6699" y1="307.3328" x2="447.7466" y2="307.3328" gradientTransform="matrix(0.8608 -0.509 0.509 0.8608 -122.6466 206.5236)">
					<stop  offset="0" style="stop-color:#A7DE8A"/>
					<stop  offset="1" style="stop-color:#FFFFFF"/>
				</linearGradient>
				<path class="st15" d="M226.996,286.419c83.114,27.937,135.431,5.442,154.272-5.7c3.658-2.163,5.921-3.821,6.812-4.504
					c9.854,9.618,25.25,20.997,43.3,21.532c7.045,0.209,12.311-1.283,15.258-2.423c-7.768,8.55-16.449,15.688-25.839,21.241
					c-18.649,11.028-40.634,16.177-65.343,15.305c-19.8-0.699-41.384-5.244-64.153-13.507
					C260.787,307.287,236.235,292.381,226.996,286.419 M222.693,284.292c0,0,116.192,81.416,198.414,32.794
					c9.876-5.84,19.262-13.555,27.898-23.515c0,0-26.658,15.568-60.88-18.165c0,0-2.408,1.976-7.165,4.789
					C362.491,291.115,308.615,314.663,222.693,284.292L222.693,284.292z"/>
			</g>
		</g>
	</g>
</g>
</svg>
