<?xml version="1.0" encoding="utf-8"?>
<!-- Generator: Adobe Illustrator 21.0.2, SVG Export Plug-In . SVG Version: 6.00 Build 0)  -->
<svg version="1.1" id="Layer_1" xmlns="http://www.w3.org/2000/svg" xmlns:xlink="http://www.w3.org/1999/xlink" x="0px" y="0px"
	 viewBox="0 0 130 19" style="enable-background:new 0 0 130 19;" xml:space="preserve">
<style type="text/css">
	.st0{fill:#FFFFFF;}
</style>
<g>
	<g>
		<path class="st0" d="M9.727,2.924c0,0.097-0.226,0.646-0.275,0.791C9.13,4.587,8.806,5.46,8.564,6.364l-0.743,2.73
			c-0.129,0.468-0.226,0.953-0.355,1.438c-0.129,0.533-0.291,1.05-0.452,1.567c-0.226,0.711-0.468,1.405-0.711,2.116
			c-0.145,0.404-0.275,0.808-0.468,1.195c-0.485,0.969-1.324,2.73-2.584,2.73c-0.404,0-0.775-0.178-1.066-0.452
			c-0.258-0.242-0.275-0.533-0.275-0.872c0-1.308,0.84-2.504,1.761-3.36c0.275-0.258,0.695-0.614,1.034-0.759l-0.081,0.178
			l0.226-0.081L4.833,12.97l0.145-0.065C4.962,12.922,4.93,12.97,4.93,12.987v0.048l0.162-0.032
			c0.162-0.275,0.258-0.598,0.372-0.905c0.178-0.501,0.388-1.001,0.533-1.518c0.129-0.42,0.226-0.856,0.339-1.276
			c0.113-0.436,0.242-0.872,0.339-1.308c-0.178,0.113-1.664,1.874-1.906,2.148c-0.242,0.275-1.082,1.228-1.421,1.228
			c-0.065,0-0.145-0.016-0.21-0.032C2.378,11.161,1.99,10.612,1.99,9.837c0-1.567,1.357-5.201,2.277-6.461
			C3.88,3.505,2.927,3.877,2.555,3.877c-0.388,0-0.937-0.436-0.937-0.84c0-0.065,0.048-0.145,0.129-0.145
			c0.113,0,0.194,0.065,0.307,0.065c0.485,0,1.518-0.468,1.987-0.678c0.339-0.145,0.937-0.452,1.276-0.485
			C5.544,2.019,6.044,2.391,6.044,2.73c0,0.372-0.339,0.872-0.501,1.195C5.301,4.41,5.075,4.894,4.865,5.379
			C4.478,6.283,3.412,8.916,3.412,9.805c1.292-1.292,2.487-2.649,3.65-4.054C7.191,5.605,7.32,5.46,7.417,5.282
			C7.547,5.04,7.643,4.781,7.74,4.523C8.031,3.747,8.435,2.875,9,2.261c0.032-0.032,0.048-0.065,0.097-0.065S9.21,2.261,9.243,2.294
			C9.21,2.326,9.162,2.391,9.162,2.439l0.145-0.081C9.372,2.391,9.469,2.439,9.42,2.52l0.145,0.048L9.549,2.73L9.63,2.714
			C9.695,2.762,9.727,2.843,9.727,2.924z M2.232,16.185c-0.016,0.016-0.048,0.016-0.065,0.016L2.2,16.233L2.232,16.185z
			 M2.281,15.862c0.032-0.113,0.21-0.436,0.21-0.485c-0.032,0.032-0.048,0.097-0.081,0.129C2.394,15.619,2.313,15.732,2.281,15.862z
			 M2.507,15.959H2.459l0.048,0.032V15.959z M2.636,16.605L2.62,16.508c-0.016,0.016-0.016,0.065-0.016,0.081
			C2.62,16.589,2.62,16.605,2.636,16.605z M2.62,16.492c0.194-0.42,0.307-0.937,0.501-1.373C2.862,15.555,2.62,15.959,2.62,16.492z
			 M4.994,13.326c-0.953,0.824-1.728,1.777-2.019,3.037c-0.032,0.145-0.065,0.307-0.065,0.452c0,0.097,0.016,0.21,0.032,0.307
			C3.945,16.039,4.461,14.666,4.994,13.326z M3.169,15.022c0.048-0.048,0.097-0.145,0.113-0.21
			C3.234,14.876,3.202,14.957,3.169,15.022z M3.492,7.656l0.016,0.016V7.656H3.492z M3.67,7.091l0.032,0.016
			c0.016-0.032,0.016-0.048,0.016-0.081L3.67,7.091z M3.88,6.623L3.896,6.59L3.88,6.574V6.623z M3.945,10.499l-0.016-0.032
			L3.88,10.515h0.032L3.945,10.499z M3.945,6.396h0.016L3.945,6.38V6.396z M4.042,6.106c0.016,0,0.016,0,0.016-0.016V6.073
			C4.042,6.089,4.042,6.089,4.042,6.106z M4.348,15.797l-0.016-0.016C4.332,15.797,4.332,15.797,4.348,15.797z M4.413,5.282
			l0.016,0.016V5.282H4.413z M4.445,5.185l0.016-0.016V5.153L4.445,5.169V5.185z M4.671,9.708C4.655,9.724,4.623,9.74,4.623,9.772
			C4.575,9.805,4.558,9.853,4.51,9.869L4.494,9.918l0.113-0.097l0.016-0.048C4.639,9.756,4.671,9.74,4.671,9.708z M4.688,4.668
			h0.016L4.688,4.652V4.668z M4.736,15.054c0.145-0.388,0.355-0.759,0.436-1.163l-0.485,1.115v0.081L4.736,15.054z M6.884,7.172
			c-0.032,0-0.048,0.016-0.065,0.032C6.497,7.592,5.834,8.302,5.576,8.69c-0.162,0.242-0.63,0.646-0.84,0.953
			C4.833,9.53,4.962,9.465,5.059,9.352C5.657,8.625,6.303,7.931,6.884,7.172z M4.865,16.249c-0.016,0.016-0.016,0.016-0.016,0.032
			l0.016-0.016V16.249z M5.947,13.907c-0.048,0.048-0.081,0.129-0.113,0.194c-0.291,0.646-0.517,1.308-0.856,1.922l-0.016,0.145
			C5.334,15.442,5.786,14.715,5.947,13.907z M5.188,14.763l0.113-0.097c0.081-0.194,0.129-0.388,0.21-0.581
			C5.35,14.246,5.269,14.537,5.188,14.763z M5.204,13.746l0.016,0.032h0.048L5.204,13.746z M5.851,7.624
			c0.032-0.032,0.065-0.065,0.081-0.113H5.899L5.851,7.624z M7.03,6.606H7.014C6.997,6.623,6.997,6.623,6.981,6.623
			C6.997,6.623,7.014,6.623,7.03,6.606z"/>
		<path class="st0" d="M10.099,9.951c-0.033,0.141,0.046,0.404,0.076,0.53c0.037,0.157,0.226,0.743,0.446,0.691
			c0.33-0.078,0.529-0.358,0.572-0.667l0.012-0.019l0.011,0.047c0.034,0.141-0.066,0.281-0.083,0.418
			c0.154-0.12,0.148-0.284,0.209-0.448c0.023,0.028,0.046,0.055,0.05,0.071c0.026,0.11-0.053,0.195-0.047,0.293l0.114-0.01
			l-0.005,0.051l0.035,0.008L11.487,10.9l0.047-0.011l-0.023-0.028l0.016-0.004l0.001-0.067l0.016-0.004l0.017-0.07l0.015,0.063
			c0.036-0.058,0.04-0.109,0.026-0.172l0.044-0.094c0.077,0.463-0.277,0.863-0.717,0.967c-0.959,0.228-1.681-0.298-1.901-1.225
			c-0.179-0.754-0.044-1.583,0.25-2.301c0.23-0.569,0.654-0.952,1.251-1.094c0.141-0.034,0.29-0.036,0.439-0.038l-0.452-0.507
			l0.118-0.061c0.677,0.055,1.225,0.473,1.389,1.164C12.294,8.567,11.137,9.705,10.099,9.951z M9.305,8.845
			C9.29,8.849,9.29,8.849,9.293,8.864l0.016-0.004L9.305,8.845z M9.328,8.591L9.299,8.68l0.035,0.008L9.328,8.591z M9.336,8.555
			L9.324,8.575L9.34,8.571L9.336,8.555z M9.487,8.071L9.53,8.044C9.515,8.048,9.499,8.052,9.487,8.071L9.438,8.216L9.418,8.27
			l0.004,0.016c-0.02,0.055-0.056,0.113-0.073,0.183c0.071-0.05,0.072-0.117,0.073-0.183l0.017-0.07L9.49,8.154
			C9.482,8.122,9.494,8.103,9.487,8.071z M9.72,9.261C9.708,9.281,9.715,9.312,9.723,9.344L9.738,9.34L9.72,9.261z M10.044,8.039
			C9.876,8.311,9.682,8.822,9.76,9.152C9.788,8.78,9.984,8.418,10.044,8.039z M9.622,8.571l0.004,0.016
			C9.622,8.571,9.622,8.571,9.618,8.555L9.622,8.571z M9.651,8.414C9.663,8.395,9.66,8.379,9.652,8.348
			C9.644,8.383,9.648,8.398,9.651,8.414z M9.692,8.305l0.016-0.004c0.012-0.019,0.02-0.055,0.017-0.07
			C9.712,8.25,9.707,8.301,9.692,8.305z M10.107,9.285c0.551-0.197,1.164-1.322,1.029-1.888l-0.015-0.063
			C10.452,7.66,10.069,8.564,10.107,9.285z M10.056,8.019l0.055-0.046l-0.004-0.016l-0.012,0.019
			C10.064,7.984,10.068,8,10.056,8.019z M11.232,8.221c-0.012,0.019-0.005,0.051-0.001,0.067l-0.04,0.043l0.043-0.027l-0.004-0.016
			L11.232,8.221z M11.301,8.022l-0.017,0.07l0.004,0.016C11.297,8.073,11.309,8.054,11.301,8.022z M11.326,7.917
			c0.016-0.004,0.028-0.023,0.024-0.039l-0.031,0.007L11.326,7.917z M11.538,8.53c0.012-0.019,0.028-0.023,0.024-0.039L11.538,8.53z
			 M11.484,8.162L11.5,8.158l0.005-0.051L11.484,8.162z M11.621,8.461c-0.016,0.004-0.031,0.007-0.043,0.027
			C11.594,8.484,11.609,8.48,11.621,8.461z M11.618,8.445c0.12-0.194,0.166-0.421,0.18-0.64C11.761,7.93,11.595,8.351,11.618,8.445z
			"/>
	</g>
	<g>
		<path class="st0" d="M15.468,8.555c0.039-0.07,0.089-0.118,0.151-0.145c0.062-0.027,0.115-0.031,0.157-0.012
			c0.043,0.019,0.072,0.061,0.088,0.122c0.015,0.062-0.004,0.148-0.058,0.256c-0.07,0.155-0.177,0.363-0.32,0.623
			c-0.144,0.26-0.308,0.52-0.495,0.78c-0.186,0.26-0.39,0.496-0.611,0.71c-0.221,0.213-0.44,0.355-0.657,0.425
			c-0.21,0.085-0.456,0.126-0.739,0.122c-0.283-0.004-0.557-0.064-0.82-0.18c-0.248-0.116-0.442-0.289-0.581-0.518
			c-0.14-0.229-0.215-0.483-0.227-0.762c-0.011-0.279,0.043-0.566,0.163-0.861c0.121-0.295,0.312-0.566,0.576-0.814
			c0.062-0.054,0.124-0.083,0.186-0.088c0.062-0.004,0.112,0.006,0.151,0.029c0.046,0.031,0.116,0.099,0.209,0.204
			c0.093,0.105,0.155,0.188,0.186,0.25c-0.039-0.031-0.085-0.041-0.14-0.029c-0.054,0.011-0.097,0.033-0.128,0.064
			c0.023-0.016,0.058-0.025,0.105-0.029c0.046-0.004,0.085,0.01,0.116,0.041c-0.054,0.016-0.107,0.041-0.157,0.076
			c-0.051,0.035-0.095,0.08-0.134,0.134c0.038-0.031,0.075-0.051,0.11-0.058s0.071-0.016,0.11-0.023
			c-0.085,0.062-0.176,0.14-0.273,0.232c-0.097,0.093-0.18,0.198-0.25,0.314C12.117,9.532,12.065,9.66,12.03,9.8
			c-0.035,0.14-0.033,0.283,0.006,0.43c0.039,0.14,0.108,0.26,0.209,0.361c0.101,0.101,0.217,0.175,0.349,0.221
			c0.132,0.046,0.269,0.064,0.413,0.053c0.143-0.012,0.276-0.058,0.396-0.14c0.12-0.081,0.215-0.198,0.285-0.349
			c0.07-0.151,0.097-0.347,0.081-0.588c-0.016-0.202-0.086-0.411-0.209-0.628c-0.125-0.217-0.322-0.415-0.594-0.593
			c-0.031-0.016-0.072-0.045-0.122-0.088c-0.051-0.042-0.091-0.071-0.122-0.087c-0.256-0.217-0.407-0.428-0.454-0.634
			c-0.047-0.205-0.008-0.384,0.116-0.535c0.124-0.151,0.328-0.269,0.611-0.355c0.283-0.085,0.626-0.113,1.03-0.081
			c0.194,0.016,0.374,0.046,0.541,0.093c0.167,0.047,0.304,0.116,0.413,0.21c0.108,0.093,0.18,0.213,0.215,0.36
			c0.035,0.148,0.018,0.33-0.052,0.547c0.015-0.086,0.015-0.171,0-0.256c-0.016,0.108-0.053,0.207-0.111,0.297
			c-0.058,0.089-0.135,0.161-0.232,0.215c-0.097,0.054-0.208,0.088-0.332,0.099c-0.124,0.012-0.256-0.009-0.395-0.064
			c0.124-0.008,0.199-0.045,0.227-0.111c0.027-0.066,0.002-0.141-0.076-0.227c0.039,0.047,0.054,0.097,0.047,0.151
			c-0.008,0.054-0.031,0.097-0.07,0.128c0.031-0.07,0.037-0.132,0.018-0.186s-0.053-0.105-0.099-0.151
			c-0.046-0.046-0.099-0.085-0.157-0.116c-0.058-0.031-0.11-0.054-0.157-0.07c-0.101-0.031-0.19-0.045-0.268-0.041
			c-0.078,0.004-0.134,0.021-0.169,0.053c-0.035,0.031-0.043,0.074-0.023,0.128c0.019,0.054,0.076,0.113,0.169,0.175
			c0.016,0.016,0.062,0.048,0.14,0.099c0.078,0.05,0.124,0.083,0.14,0.098c0.326,0.233,0.566,0.477,0.722,0.733
			c0.155,0.256,0.24,0.508,0.256,0.756c0.178-0.256,0.33-0.496,0.454-0.722C15.348,8.76,15.43,8.617,15.468,8.555z M12.781,8.788
			c-0.008,0.008-0.016,0.009-0.023,0.006c-0.008-0.004-0.008-0.009,0-0.018c0.008-0.008,0.015-0.009,0.023-0.006
			C12.788,8.774,12.788,8.78,12.781,8.788z M12.781,8.869c-0.016-0.008-0.023-0.018-0.023-0.029c0-0.011,0.008-0.018,0.023-0.018
			c0.016,0.008,0.023,0.018,0.023,0.029C12.804,8.863,12.796,8.869,12.781,8.869z M12.932,8.788
			c0.008,0.039-0.011,0.054-0.058,0.046c-0.047-0.008-0.078-0.019-0.093-0.035c0.023-0.023,0.053-0.041,0.087-0.052
			C12.903,8.735,12.924,8.749,12.932,8.788z M13.13,8.543c0.016,0.008,0.074,0.05,0.175,0.128c0.101,0.078,0.202,0.19,0.303,0.338
			c0.101,0.147,0.182,0.326,0.244,0.535c0.062,0.21,0.066,0.446,0.011,0.71c0.07-0.217,0.083-0.423,0.041-0.616
			c-0.043-0.194-0.111-0.368-0.204-0.524c-0.093-0.155-0.194-0.283-0.303-0.384C13.289,8.629,13.2,8.567,13.13,8.543z M14.456,8.124
			c0.016-0.155-0.074-0.291-0.267-0.407c-0.194-0.116-0.435-0.17-0.722-0.163c0.039,0,0.108,0.008,0.209,0.023
			c0.101,0.016,0.205,0.043,0.314,0.081c0.108,0.039,0.207,0.095,0.297,0.169C14.377,7.901,14.433,8,14.456,8.124z M14.072,9.823
			c0.008-0.078,0.004-0.161-0.012-0.25c-0.016-0.089-0.037-0.175-0.064-0.256c-0.027-0.081-0.06-0.152-0.099-0.209
			c-0.039-0.058-0.081-0.099-0.128-0.123c0.046,0.031,0.087,0.08,0.122,0.146c0.035,0.066,0.066,0.14,0.093,0.221
			c0.027,0.081,0.048,0.165,0.064,0.25C14.064,9.688,14.072,9.761,14.072,9.823z M13.886,10.766
			c0.085-0.031,0.147-0.099,0.186-0.204c0.039-0.105,0.064-0.215,0.076-0.332c0.011-0.116,0.013-0.225,0.006-0.326
			c-0.008-0.101-0.016-0.17-0.023-0.209c0.008,0.078,0.013,0.167,0.018,0.267c0.004,0.101-0.002,0.204-0.018,0.308
			c-0.016,0.105-0.043,0.202-0.081,0.291C14.01,10.651,13.956,10.719,13.886,10.766z M14.515,7.694
			c-0.008-0.039-0.035-0.074-0.081-0.105c-0.047-0.031-0.103-0.056-0.169-0.075c-0.066-0.019-0.132-0.035-0.197-0.047
			C14,7.455,13.944,7.449,13.898,7.449c0.225,0.031,0.38,0.072,0.465,0.123C14.448,7.622,14.499,7.663,14.515,7.694z M14.444,7.764
			c0.016-0.046-0.025-0.095-0.122-0.145c-0.097-0.051-0.219-0.083-0.366-0.099c0.07,0.016,0.155,0.045,0.256,0.087
			C14.313,7.649,14.39,7.702,14.444,7.764z"/>
	</g>
	<path class="st0" d="M15.395,13.959c0.355-0.953,0.791-2.681,0.969-3.86l1.583-0.162c-0.372,1.373-1.082,3.166-1.534,3.925
		L15.395,13.959z"/>
	<path class="st0" d="M28.511,6.965c0,1.308-0.775,5.476-2.487,5.476c-0.065,0-0.113,0-0.162-0.016
		c-0.759-0.178-0.84-0.614-0.84-1.308c0-0.565,0.065-1.115,0.065-1.68c-0.436,0.63-0.888,1.276-1.389,1.858
		c-0.194,0.242-0.436,0.388-0.759,0.388c-0.501,0-1.098-0.404-1.098-0.953c0-0.678,0.711-2.342,0.937-3.085
		c0.065-0.194,0.081-0.404,0.081-0.598c0-0.081-0.048-0.21-0.065-0.291c0.048,0,0.113-0.016,0.162-0.016
		c0.194,0,0.485,0.242,0.63,0.372c0.242,0.242,0.339,0.452,0.339,0.791c0,0.775-0.404,1.47-0.614,2.197
		c-0.016,0.065-0.032,0.129-0.065,0.194v0.032c0.242-0.226,0.501-0.533,0.711-0.791c0.129-0.162,1.163-1.567,1.195-1.648
		l-0.178-0.226c0-0.113,0.097-0.113,0.178-0.113c0.501,0,0.953,0.468,1.018,0.937c0.048,0.307,0.048,0.614,0.048,0.921
		c0,0.42-0.032,0.856-0.097,1.276c-0.048,0.339-0.113,0.662-0.113,1.001v0.097c1.034-0.791,1.761-4.022,1.761-5.298
		c0-0.485-0.113-0.985-0.339-1.421c-0.048-0.081-0.081-0.162-0.113-0.242V4.768C28.301,4.994,28.511,6.109,28.511,6.965z
		 M23.262,9.113l-0.048-0.016c-0.162,0.485-0.323,0.969-0.501,1.438C22.89,10.357,23.149,9.404,23.262,9.113z M25.135,8.919h-0.016
		c-0.404,0.533-0.775,1.098-1.163,1.631C24.182,10.308,25.071,9.129,25.135,8.919z M24.231,9.84l0.016,0.016
		C24.247,9.84,24.247,9.84,24.231,9.84z M24.441,9.565c0.016-0.016,0.016-0.048,0.016-0.065C24.441,9.517,24.441,9.549,24.441,9.565
		z M24.522,9.113l0.048-0.065C24.554,9.065,24.522,9.081,24.522,9.113z M24.619,9.339h0.016V9.323L24.619,9.339z M24.99,9.388
		l-0.016,0.016h0.016V9.388z M25.152,8.273l-0.032-0.016c-0.016,0.048-0.065,0.081-0.065,0.129
		C25.071,8.338,25.119,8.305,25.152,8.273z M25.846,10.325h-0.032l-0.097,0.727c0,0.081,0,0.162-0.016,0.242h0.048l-0.032-0.242
		l0.048-0.032L25.846,10.325z M26.912,10.89l-0.016-0.016v0.048L26.912,10.89z M27.138,10.341c-0.032,0.048-0.048,0.097-0.065,0.145
		L27.138,10.341z M27.251,10.001c0.081-0.194,0.129-0.404,0.21-0.598l0.016-0.129C27.413,9.517,27.3,9.759,27.251,10.001z
		 M28.188,7.934l-0.032,0.032c-0.194,1.05-0.485,2.084-0.888,3.085c0.178-0.194,0.452-1.131,0.549-1.421
		C27.994,9.081,28.14,8.515,28.188,7.934z M27.494,9.921h0.016c0-0.016,0-0.016-0.016-0.016V9.921z M27.574,8.935l0.032-0.129
		C27.591,8.855,27.574,8.887,27.574,8.935z M27.639,9.436h0.016V9.372l0.032-0.016V9.339l-0.048,0.032V9.436z M27.655,8.58
		l0.097-0.275l0.032-0.178c-0.032,0.016-0.048,0.032-0.048,0.065s0.016,0.081,0.016,0.113C27.655,8.37,27.671,8.483,27.655,8.58z
		 M27.704,9.194V9.21c0.016,0,0.016,0,0.016-0.016H27.704z M27.768,7.999c0,0.032,0,0.065,0.016,0.097V7.999H27.768z M27.801,7.772
		c0.016,0.016,0.016,0.032,0.016,0.048h0.016l-0.016-0.048H27.801z M27.865,9.921l-0.016-0.016v0.016H27.865z M27.93,9.662
		l-0.016,0.016h0.016V9.662z M28.221,7.708h-0.032v0.178C28.204,7.821,28.221,7.772,28.221,7.708z M28.253,7.546V7.466h-0.032
		c0.016,0.016,0.016,0.048,0.016,0.081H28.253z"/>
	<path class="st0" d="M29.401,10.195c-0.065,0.129-0.048,0.404-0.048,0.533c0,0.162,0.048,0.775,0.275,0.775
		c0.339,0,0.598-0.226,0.711-0.517l0.016-0.016v0.048c0,0.145-0.129,0.258-0.178,0.388c0.178-0.081,0.21-0.242,0.307-0.388
		c0.016,0.032,0.032,0.065,0.032,0.081c0,0.113-0.097,0.178-0.113,0.275l0.113,0.016L30.5,11.439l0.032,0.016v-0.016h0.048
		l-0.016-0.032h0.016l0.016-0.065h0.016l0.032-0.065v0.065c0.048-0.048,0.065-0.097,0.065-0.162l0.065-0.081
		c-0.032,0.468-0.468,0.775-0.921,0.775c-0.985,0-1.567-0.678-1.567-1.631c0-0.775,0.323-1.551,0.775-2.181
		c0.355-0.501,0.856-0.775,1.47-0.775c0.145,0,0.291,0.032,0.436,0.065l-0.323-0.598l0.129-0.032
		c0.646,0.21,1.082,0.743,1.082,1.454C31.856,9.355,30.467,10.195,29.401,10.195z M28.884,8.935c-0.016,0-0.016,0-0.016,0.016h0.016
		V8.935z M28.965,8.693l-0.048,0.081l0.032,0.016L28.965,8.693z M28.981,8.661l-0.016,0.016h0.016V8.661z M29.24,8.225l0.048-0.016
		C29.272,8.209,29.256,8.209,29.24,8.225l-0.081,0.129l-0.032,0.048v0.016c-0.032,0.048-0.081,0.097-0.113,0.162
		c0.081-0.032,0.097-0.097,0.113-0.162l0.032-0.065l0.065-0.048C29.224,8.273,29.24,8.257,29.24,8.225z M29.191,9.436
		c-0.016,0.016-0.016,0.048-0.016,0.081h0.016V9.436z M29.789,8.322C29.563,8.548,29.256,9,29.256,9.339
		C29.369,8.984,29.644,8.677,29.789,8.322z M29.256,8.742v0.016c0-0.016,0-0.016,0-0.032V8.742z M29.32,8.596
		c0.016-0.016,0.016-0.032,0.016-0.065C29.32,8.564,29.32,8.58,29.32,8.596z M29.385,8.499h0.016
		c0.016-0.016,0.032-0.048,0.032-0.065C29.417,8.451,29.401,8.499,29.385,8.499z M29.563,9.549C30.144,9.485,31,8.532,31,7.95V7.886
		C30.273,8.047,29.692,8.839,29.563,9.549z M29.805,8.305l0.065-0.032V8.257l-0.016,0.016C29.821,8.273,29.821,8.289,29.805,8.305z
		 M30.903,8.774c-0.016,0.016-0.016,0.048-0.016,0.065l-0.048,0.032l0.048-0.016V8.839L30.903,8.774z M31.016,8.596l-0.032,0.065
		v0.016C31,8.645,31.016,8.629,31.016,8.596z M31.065,8.499c0.016,0,0.032-0.016,0.032-0.032h-0.032V8.499z M31.13,9.145
		c0.016-0.016,0.032-0.016,0.032-0.032L31.13,9.145z M31.162,8.774h0.016l0.016-0.048L31.162,8.774z M31.226,9.097
		c-0.016,0-0.032,0-0.048,0.016C31.194,9.113,31.21,9.113,31.226,9.097z M31.226,9.081c0.162-0.162,0.258-0.372,0.323-0.581
		C31.485,8.612,31.226,8.984,31.226,9.081z"/>
	<path class="st0" d="M41.953,6.965c0,1.308-0.775,5.476-2.487,5.476c-0.065,0-0.113,0-0.162-0.016
		c-0.759-0.178-0.84-0.614-0.84-1.308c0-0.565,0.065-1.115,0.065-1.68c-0.436,0.63-0.888,1.276-1.389,1.858
		c-0.194,0.242-0.436,0.388-0.759,0.388c-0.501,0-1.098-0.404-1.098-0.953c0-0.678,0.711-2.342,0.937-3.085
		C36.284,7.449,36.3,7.239,36.3,7.046c0-0.081-0.048-0.21-0.065-0.291c0.048,0,0.113-0.016,0.162-0.016
		c0.194,0,0.485,0.242,0.63,0.372c0.242,0.242,0.339,0.452,0.339,0.791c0,0.775-0.404,1.47-0.614,2.197
		c-0.016,0.065-0.032,0.129-0.065,0.194v0.032c0.242-0.226,0.501-0.533,0.711-0.791c0.129-0.162,1.163-1.567,1.195-1.648
		l-0.178-0.226c0-0.113,0.097-0.113,0.178-0.113c0.501,0,0.953,0.468,1.018,0.937C39.66,8.79,39.66,9.097,39.66,9.404
		c0,0.42-0.032,0.856-0.097,1.276c-0.048,0.339-0.113,0.662-0.113,1.001v0.097c1.034-0.791,1.761-4.022,1.761-5.298
		c0-0.485-0.113-0.985-0.339-1.421c-0.048-0.081-0.081-0.162-0.113-0.242V4.768C41.743,4.994,41.953,6.109,41.953,6.965z
		 M36.704,9.113l-0.048-0.016c-0.162,0.485-0.323,0.969-0.501,1.438C36.332,10.357,36.591,9.404,36.704,9.113z M38.577,8.919h-0.016
		c-0.404,0.533-0.775,1.098-1.163,1.631C37.624,10.308,38.513,9.129,38.577,8.919z M37.673,9.84l0.016,0.016
		C37.689,9.84,37.689,9.84,37.673,9.84z M37.883,9.565c0.016-0.016,0.016-0.048,0.016-0.065C37.883,9.517,37.883,9.549,37.883,9.565
		z M37.964,9.113l0.048-0.065C37.996,9.065,37.964,9.081,37.964,9.113z M38.06,9.339h0.016V9.323L38.06,9.339z M38.432,9.388
		l-0.016,0.016h0.016V9.388z M38.594,8.273l-0.032-0.016c-0.016,0.048-0.065,0.081-0.065,0.129
		C38.513,8.338,38.561,8.305,38.594,8.273z M39.288,10.325h-0.032l-0.097,0.727c0,0.081,0,0.162-0.016,0.242h0.048l-0.032-0.242
		l0.048-0.032L39.288,10.325z M40.354,10.89l-0.016-0.016v0.048L40.354,10.89z M40.58,10.341c-0.032,0.048-0.048,0.097-0.065,0.145
		L40.58,10.341z M40.693,10.001c0.081-0.194,0.129-0.404,0.21-0.598l0.016-0.129C40.855,9.517,40.742,9.759,40.693,10.001z
		 M41.63,7.934l-0.032,0.032c-0.194,1.05-0.485,2.084-0.888,3.085c0.178-0.194,0.452-1.131,0.549-1.421
		C41.436,9.081,41.582,8.515,41.63,7.934z M40.936,9.921h0.016c0-0.016,0-0.016-0.016-0.016V9.921z M41.016,8.935l0.032-0.129
		C41.033,8.855,41.016,8.887,41.016,8.935z M41.081,9.436h0.016V9.372l0.032-0.016V9.339l-0.048,0.032V9.436z M41.097,8.58
		l0.097-0.275l0.032-0.178c-0.032,0.016-0.048,0.032-0.048,0.065s0.016,0.081,0.016,0.113C41.097,8.37,41.113,8.483,41.097,8.58z
		 M41.146,9.194V9.21c0.016,0,0.016,0,0.016-0.016H41.146z M41.21,7.999c0,0.032,0,0.065,0.016,0.097V7.999H41.21z M41.243,7.772
		c0.016,0.016,0.016,0.032,0.016,0.048h0.016l-0.016-0.048H41.243z M41.307,9.921l-0.016-0.016v0.016H41.307z M41.372,9.662
		l-0.016,0.016h0.016V9.662z M41.662,7.708H41.63v0.178C41.646,7.821,41.662,7.772,41.662,7.708z M41.695,7.546V7.466h-0.032
		c0.016,0.016,0.016,0.048,0.016,0.081H41.695z"/>
	<path class="st0" d="M42.843,10.195c-0.065,0.129-0.048,0.404-0.048,0.533c0,0.162,0.048,0.775,0.275,0.775
		c0.339,0,0.598-0.226,0.711-0.517l0.016-0.016v0.048c0,0.145-0.129,0.258-0.178,0.388c0.178-0.081,0.21-0.242,0.307-0.388
		c0.016,0.032,0.032,0.065,0.032,0.081c0,0.113-0.097,0.178-0.113,0.275l0.113,0.016l-0.016,0.048l0.032,0.016v-0.016h0.048
		l-0.016-0.032h0.016l0.016-0.065h0.016l0.032-0.065v0.065c0.048-0.048,0.065-0.097,0.065-0.162l0.065-0.081
		c-0.032,0.468-0.468,0.775-0.921,0.775c-0.985,0-1.567-0.678-1.567-1.631c0-0.775,0.323-1.551,0.775-2.181
		c0.355-0.501,0.856-0.775,1.47-0.775c0.145,0,0.291,0.032,0.436,0.065l-0.323-0.598l0.129-0.032
		c0.646,0.21,1.082,0.743,1.082,1.454C45.298,9.355,43.909,10.195,42.843,10.195z M42.326,8.935c-0.016,0-0.016,0-0.016,0.016h0.016
		V8.935z M42.407,8.693l-0.048,0.081l0.032,0.016L42.407,8.693z M42.423,8.661l-0.016,0.016h0.016V8.661z M42.682,8.225l0.048-0.016
		C42.714,8.209,42.698,8.209,42.682,8.225l-0.081,0.129l-0.032,0.048v0.016c-0.032,0.048-0.081,0.097-0.113,0.162
		c0.081-0.032,0.097-0.097,0.113-0.162l0.032-0.065l0.065-0.048C42.665,8.273,42.682,8.257,42.682,8.225z M42.633,9.436
		c-0.016,0.016-0.016,0.048-0.016,0.081h0.016V9.436z M43.231,8.322C43.005,8.548,42.698,9,42.698,9.339
		C42.811,8.984,43.085,8.677,43.231,8.322z M42.698,8.742v0.016c0-0.016,0-0.016,0-0.032V8.742z M42.762,8.596
		c0.016-0.016,0.016-0.032,0.016-0.065C42.762,8.564,42.762,8.58,42.762,8.596z M42.827,8.499h0.016
		c0.016-0.016,0.032-0.048,0.032-0.065C42.859,8.451,42.843,8.499,42.827,8.499z M43.005,9.549c0.581-0.065,1.438-1.018,1.438-1.599
		V7.886C43.715,8.047,43.134,8.839,43.005,9.549z M43.247,8.305l0.065-0.032V8.257l-0.016,0.016
		C43.263,8.273,43.263,8.289,43.247,8.305z M44.345,8.774c-0.016,0.016-0.016,0.048-0.016,0.065l-0.048,0.032l0.048-0.016V8.839
		L44.345,8.774z M44.458,8.596l-0.032,0.065v0.016C44.442,8.645,44.458,8.629,44.458,8.596z M44.507,8.499
		c0.016,0,0.032-0.016,0.032-0.032h-0.032V8.499z M44.571,9.145c0.016-0.016,0.032-0.016,0.032-0.032L44.571,9.145z M44.604,8.774
		h0.016l0.016-0.048L44.604,8.774z M44.668,9.097c-0.016,0-0.032,0-0.048,0.016C44.636,9.113,44.652,9.113,44.668,9.097z
		 M44.668,9.081c0.162-0.162,0.258-0.372,0.323-0.581C44.927,8.612,44.668,8.984,44.668,9.081z"/>
	<path class="st0" d="M45.202,11.148c-0.194,0.258-0.404,0.517-0.695,0.678l-0.565-0.194l0.032-0.048
		c0.275-0.275,0.485-0.565,0.695-0.888c0.808-1.292,1.341-2.665,1.615-4.167c-0.614-0.42-1.47-0.888-1.47-1.744
		c0-0.436,0.388-0.969,0.856-0.969c0.145,0,0.275,0.032,0.404,0.097c0.533,0.226,0.856,0.727,0.921,1.292
		c0.032,0.355,0.081,0.711,0.097,1.066c0.549,0.323,1.147,0.646,1.615,1.082c0.258,0.242,0.388,0.517,0.388,0.872
		c0,0.485-0.307,1.292-0.468,1.777c-0.291,0.856-0.808,2.197-0.808,3.085c0,0.21,0.032,0.436,0.113,0.63l0.452,0.113l-0.016,0.129
		l0.016,0.016l0.081-0.097h0.129c0.032,0.065,0.048,0.129,0.048,0.194c0,0.307-0.485,0.404-0.727,0.404
		c-1.05,0-1.47-1.131-1.47-2.019c0-1.082,0.678-2.843,1.066-3.877c0.097-0.242,0.275-0.759,0.275-1.001
		c0-0.388-0.452-0.549-0.743-0.678C46.849,8.483,46.123,9.872,45.202,11.148z M45.121,4.445l0.032,0.032
		c0.016-0.065,0.032-0.129,0.065-0.178L45.121,4.445z M45.218,10.744l-0.016,0.016h0.016V10.744z M45.331,9.905
		c0.081-0.048,0.113-0.162,0.129-0.258L45.331,9.905z M45.638,4.461c-0.048,0.048-0.097,0.113-0.097,0.194
		c0,0.032,0,0.048,0.016,0.081C45.59,4.655,45.606,4.558,45.638,4.461z M46.3,5.673c0-0.307-0.081-1.001-0.258-1.228
		c-0.162,0.145-0.258,0.339-0.258,0.549c0,0.339,0.21,0.727,0.501,0.888C46.284,5.818,46.3,5.737,46.3,5.673z M46.672,7.466
		c-0.242,0.791-0.517,1.551-0.856,2.31c0.339-0.372,0.84-1.874,0.905-2.391C46.688,7.401,46.688,7.433,46.672,7.466z M45.913,8.645
		c0.081-0.162,0.145-0.307,0.178-0.468l-0.032,0.016L45.913,8.645z M46.139,7.934c-0.048,0.065-0.065,0.145-0.048,0.21L46.139,7.934
		z M46.171,7.853c0.016-0.016,0.016-0.032,0.016-0.048L46.171,7.853z M46.203,7.724c0,0.016,0,0.048-0.016,0.065
		c0.016-0.016,0.032-0.048,0.032-0.065H46.203z M46.252,7.53L46.3,7.466h-0.016L46.252,7.53z M46.333,7.336l-0.016-0.032v0.048
		L46.333,7.336z M46.753,7.207h-0.016v0.065h0.016V7.207z M46.785,7.029h-0.016v0.048h0.016V7.029z M47.722,8.984l-0.775,2.358
		l-0.178,0.646c0.145-0.291,0.242-0.63,0.339-0.953c0.275-0.856,0.581-1.696,0.824-2.568C47.819,8.596,47.77,8.822,47.722,8.984z
		 M47.14,12.295c0-0.032-0.016-0.048-0.016-0.081c-0.016,0.032-0.016,0.048-0.016,0.081H47.14z M48.174,8.742l-0.791,2.326
		c-0.113,0.355-0.162,0.743-0.242,1.098l0.032-0.032c0.145-0.485,0.258-0.985,0.42-1.47c0.21-0.646,0.517-1.292,0.63-1.971
		L48.174,8.742z M47.512,12.263c0.162-0.808,0.452-1.599,0.727-2.391c0.162-0.485,0.372-0.985,0.42-1.502h-0.032
		c-0.388,1.082-0.743,2.197-1.082,3.295c-0.097,0.323-0.162,0.646-0.162,0.985c0,0.097,0,0.194,0.016,0.291
		C47.447,12.715,47.463,12.489,47.512,12.263z M47.479,11.504v-0.016l-0.016,0.016H47.479z M47.641,10.922l0.016-0.016h-0.016
		V10.922z M47.673,10.793l0.016,0.016v-0.016H47.673z M47.689,12.344h-0.016c0,0.016,0,0.016,0.016,0.032V12.344z M47.706,10.696
		l0.016,0.016v-0.016H47.706z M47.722,12.182h-0.016v0.032h0.016V12.182z M47.819,11.827h0.016v-0.048h-0.016V11.827z
		 M47.867,11.633h-0.016v0.048h0.016V11.633z M47.932,10.05l-0.016,0.016h0.016V10.05z M47.932,11.423
		c-0.016,0-0.016,0.016-0.016,0.032h0.016V11.423z M47.948,8.37v0.065c0.016-0.016,0.016-0.048,0.016-0.065H47.948z M47.964,11.31
		l-0.016,0.016h0.016V11.31z M47.98,11.197l0.032,0.016c0-0.016,0-0.032-0.016-0.048L47.98,11.197z M48.045,11.051h-0.016V11.1
		h0.016V11.051z M48.142,10.744h-0.016c0,0.016,0,0.016,0.016,0.016V10.744z M48.174,9.355l-0.016,0.016h0.016V9.355z
		 M48.174,10.648c-0.016,0-0.016,0-0.016,0.016L48.174,10.648z M48.255,8.612h-0.032v0.048L48.255,8.612z M48.239,10.454
		l0.016-0.016h-0.016V10.454z M48.271,10.357c0.016,0,0.016-0.016,0.016-0.032h-0.016V10.357z M48.303,10.244h0.016v-0.032h-0.016
		V10.244z M48.497,9.727h-0.016v0.032h0.016V9.727z M48.513,9.646h0.016V9.63h-0.016V9.646z M48.545,9.517l0.016,0.016V9.517H48.545
		z M48.772,8.887V8.871l-0.016,0.016H48.772z"/>
	<path class="st0" d="M50.469,10.195c-0.065,0.129-0.048,0.404-0.048,0.533c0,0.162,0.048,0.775,0.275,0.775
		c0.339,0,0.598-0.226,0.711-0.517l0.016-0.016v0.048c0,0.145-0.129,0.258-0.178,0.388c0.178-0.081,0.21-0.242,0.307-0.388
		c0.016,0.032,0.032,0.065,0.032,0.081c0,0.113-0.097,0.178-0.113,0.275l0.113,0.016l-0.016,0.048l0.032,0.016v-0.016h0.048
		l-0.016-0.032h0.016l0.016-0.065h0.016l0.032-0.065v0.065c0.048-0.048,0.065-0.097,0.065-0.162l0.065-0.081
		c-0.032,0.468-0.468,0.775-0.921,0.775c-0.985,0-1.567-0.678-1.567-1.631c0-0.775,0.323-1.551,0.775-2.181
		c0.355-0.501,0.856-0.775,1.47-0.775c0.145,0,0.291,0.032,0.436,0.065l-0.323-0.598l0.129-0.032
		c0.646,0.21,1.082,0.743,1.082,1.454C52.924,9.355,51.535,10.195,50.469,10.195z M49.952,8.935c-0.016,0-0.016,0-0.016,0.016h0.016
		V8.935z M50.033,8.693l-0.048,0.081l0.032,0.016L50.033,8.693z M50.049,8.661l-0.016,0.016h0.016V8.661z M50.307,8.225l0.048-0.016
		C50.339,8.209,50.323,8.209,50.307,8.225l-0.081,0.129l-0.032,0.048v0.016c-0.032,0.048-0.081,0.097-0.113,0.162
		c0.081-0.032,0.097-0.097,0.113-0.162l0.032-0.065l0.065-0.048C50.291,8.273,50.307,8.257,50.307,8.225z M50.259,9.436
		c-0.016,0.016-0.016,0.048-0.016,0.081h0.016V9.436z M50.856,8.322C50.63,8.548,50.323,9,50.323,9.339
		C50.436,8.984,50.711,8.677,50.856,8.322z M50.323,8.742v0.016c0-0.016,0-0.016,0-0.032V8.742z M50.388,8.596
		c0.016-0.016,0.016-0.032,0.016-0.065C50.388,8.564,50.388,8.58,50.388,8.596z M50.452,8.499h0.016
		c0.016-0.016,0.032-0.048,0.032-0.065C50.485,8.451,50.469,8.499,50.452,8.499z M50.63,9.549c0.581-0.065,1.438-1.018,1.438-1.599
		V7.886C51.341,8.047,50.759,8.839,50.63,9.549z M50.872,8.305l0.065-0.032V8.257l-0.016,0.016
		C50.889,8.273,50.889,8.289,50.872,8.305z M51.971,8.774c-0.016,0.016-0.016,0.048-0.016,0.065l-0.048,0.032l0.048-0.016V8.839
		L51.971,8.774z M52.084,8.596l-0.032,0.065v0.016C52.068,8.645,52.084,8.629,52.084,8.596z M52.132,8.499
		c0.016,0,0.032-0.016,0.032-0.032h-0.032V8.499z M52.197,9.145c0.016-0.016,0.032-0.016,0.032-0.032L52.197,9.145z M52.229,8.774
		h0.016l0.016-0.048L52.229,8.774z M52.294,9.097c-0.016,0-0.032,0-0.048,0.016C52.262,9.113,52.278,9.113,52.294,9.097z
		 M52.294,9.081c0.162-0.162,0.258-0.372,0.323-0.581C52.552,8.612,52.294,8.984,52.294,9.081z"/>
	<path class="st0" d="M57.012,11.148c-0.194,0.258-0.404,0.517-0.695,0.678l-0.565-0.194l0.032-0.048
		c0.275-0.275,0.485-0.565,0.695-0.888c0.808-1.292,1.341-2.665,1.615-4.167c-0.614-0.42-1.47-0.888-1.47-1.744
		c0-0.436,0.388-0.969,0.856-0.969c0.145,0,0.275,0.032,0.404,0.097c0.533,0.226,0.856,0.727,0.921,1.292
		c0.032,0.355,0.081,0.711,0.097,1.066c0.549,0.323,1.147,0.646,1.615,1.082c0.258,0.242,0.388,0.517,0.388,0.872
		c0,0.485-0.307,1.292-0.468,1.777c-0.291,0.856-0.808,2.197-0.808,3.085c0,0.21,0.032,0.436,0.113,0.63l0.452,0.113l-0.016,0.129
		l0.016,0.016l0.081-0.097h0.129c0.032,0.065,0.048,0.129,0.048,0.194c0,0.307-0.485,0.404-0.727,0.404
		c-1.05,0-1.47-1.131-1.47-2.019c0-1.082,0.678-2.843,1.066-3.877c0.097-0.242,0.275-0.759,0.275-1.001
		c0-0.388-0.452-0.549-0.743-0.678C58.659,8.483,57.933,9.872,57.012,11.148z M56.931,4.445l0.032,0.032
		c0.016-0.065,0.032-0.129,0.065-0.178L56.931,4.445z M57.028,10.744l-0.016,0.016h0.016V10.744z M57.141,9.905
		c0.081-0.048,0.113-0.162,0.129-0.258L57.141,9.905z M57.448,4.461C57.4,4.51,57.351,4.574,57.351,4.655
		c0,0.032,0,0.048,0.016,0.081C57.4,4.655,57.416,4.558,57.448,4.461z M58.11,5.673c0-0.307-0.081-1.001-0.258-1.228
		c-0.162,0.145-0.258,0.339-0.258,0.549c0,0.339,0.21,0.727,0.501,0.888C58.094,5.818,58.11,5.737,58.11,5.673z M58.482,7.466
		c-0.242,0.791-0.517,1.551-0.856,2.31c0.339-0.372,0.84-1.874,0.905-2.391C58.498,7.401,58.498,7.433,58.482,7.466z M57.723,8.645
		c0.081-0.162,0.145-0.307,0.178-0.468l-0.032,0.016L57.723,8.645z M57.949,7.934C57.9,7.999,57.884,8.079,57.9,8.144L57.949,7.934z
		 M57.981,7.853c0.016-0.016,0.016-0.032,0.016-0.048L57.981,7.853z M58.013,7.724c0,0.016,0,0.048-0.016,0.065
		c0.016-0.016,0.032-0.048,0.032-0.065H58.013z M58.062,7.53l0.048-0.065h-0.016L58.062,7.53z M58.143,7.336l-0.016-0.032v0.048
		L58.143,7.336z M58.563,7.207h-0.016v0.065h0.016V7.207z M58.595,7.029h-0.016v0.048h0.016V7.029z M59.532,8.984l-0.775,2.358
		l-0.178,0.646c0.145-0.291,0.242-0.63,0.339-0.953c0.275-0.856,0.581-1.696,0.824-2.568C59.629,8.596,59.58,8.822,59.532,8.984z
		 M58.95,12.295c0-0.032-0.016-0.048-0.016-0.081c-0.016,0.032-0.016,0.048-0.016,0.081H58.95z M59.984,8.742l-0.791,2.326
		c-0.113,0.355-0.162,0.743-0.242,1.098l0.032-0.032c0.145-0.485,0.258-0.985,0.42-1.47c0.21-0.646,0.517-1.292,0.63-1.971
		L59.984,8.742z M59.322,12.263c0.162-0.808,0.452-1.599,0.727-2.391c0.162-0.485,0.372-0.985,0.42-1.502h-0.032
		c-0.388,1.082-0.743,2.197-1.082,3.295c-0.097,0.323-0.162,0.646-0.162,0.985c0,0.097,0,0.194,0.016,0.291
		C59.257,12.715,59.273,12.489,59.322,12.263z M59.289,11.504v-0.016l-0.016,0.016H59.289z M59.451,10.922l0.016-0.016h-0.016
		V10.922z M59.483,10.793l0.016,0.016v-0.016H59.483z M59.499,12.344h-0.016c0,0.016,0,0.016,0.016,0.032V12.344z M59.516,10.696
		l0.016,0.016v-0.016H59.516z M59.532,12.182h-0.016v0.032h0.016V12.182z M59.629,11.827h0.016v-0.048h-0.016V11.827z
		 M59.677,11.633h-0.016v0.048h0.016V11.633z M59.742,10.05l-0.016,0.016h0.016V10.05z M59.742,11.423
		c-0.016,0-0.016,0.016-0.016,0.032h0.016V11.423z M59.758,8.37v0.065c0.016-0.016,0.016-0.048,0.016-0.065H59.758z M59.774,11.31
		l-0.016,0.016h0.016V11.31z M59.79,11.197l0.032,0.016c0-0.016,0-0.032-0.016-0.048L59.79,11.197z M59.855,11.051h-0.016V11.1
		h0.016V11.051z M59.952,10.744h-0.016c0,0.016,0,0.016,0.016,0.016V10.744z M59.984,9.355l-0.016,0.016h0.016V9.355z
		 M59.984,10.648c-0.016,0-0.016,0-0.016,0.016L59.984,10.648z M60.065,8.612h-0.032v0.048L60.065,8.612z M60.049,10.454
		l0.016-0.016h-0.016V10.454z M60.081,10.357c0.016,0,0.016-0.016,0.016-0.032h-0.016V10.357z M60.113,10.244h0.016v-0.032h-0.016
		V10.244z M60.307,9.727h-0.016v0.032h0.016V9.727z M60.323,9.646h0.016V9.63h-0.016V9.646z M60.355,9.517l0.016,0.016V9.517H60.355
		z M60.582,8.887V8.871l-0.016,0.016H60.582z"/>
	<path class="st0" d="M66.22,10.05c-0.355,0.84-1.147,2.277-1.858,2.843c-0.355-0.129-0.614-0.162-0.614-0.614
		c0-0.872,0.194-1.728,0.372-2.584l-0.549,0.565c-0.339,0.355-0.808,1.034-1.373,1.034c-0.404,0-1.001-0.372-1.001-0.824
		c0-0.953,1.018-2.681,1.793-3.23c0.323-0.226,0.727-0.452,1.131-0.452c0.404,0,0.743,0.226,1.034,0.501
		c0.032,0.032,0.065,0.081,0.065,0.129c0,0.032-0.016,0.065-0.032,0.097l-0.468-0.129c-1.163,0.404-1.744,1.712-2.213,2.762
		l0.032,0.032l0.258-0.194l1.551-1.389c0.291-0.258,0.339-0.598,0.711-0.743l0.016,0.162l-0.048,0.016
		c-0.032,0.065,0,0.048-0.065,0.113l0.048-0.016l0.016-0.081l0.048-0.032c0.016-0.032,0.048-0.065,0.097-0.065
		c0.032,0,0.065,0.032,0.081,0.048l-0.016,0.113l0.065-0.032V8.063l0.081,0.032c-0.129,0.404-0.275,0.791-0.42,1.179l-0.016,0.016
		c0.016,0,0.016,0,0.016-0.016c0.016-0.016,0.048-0.032,0.048-0.065c0.162-0.355,0.291-0.727,0.468-1.066
		c0.081,0.016,0.145,0.065,0.145,0.145c0,0.113-0.048,0.226-0.081,0.323c-0.21,0.581-0.921,2.584-0.921,3.101
		c0.21-0.129,0.372-0.355,0.533-0.533h0.032c-0.21,0.307-0.501,0.565-0.646,0.905h-0.016v0.016c0.016,0,0.016,0,0.016-0.016
		c0.291-0.291,0.549-0.646,0.808-0.969c0.065-0.081,0.129-0.21,0.21-0.291l0.081-0.081c-0.339,0.581-0.872,1.115-1.163,1.712
		l0.517-0.598l-0.145,0.275l0.113-0.081l0.016,0.065c0.016-0.081,0.097-0.178,0.145-0.258h0.016v-0.016l-0.016,0.016h-0.032
		c0.048-0.129,0.065-0.21,0.178-0.291v0.065l0.032-0.065l0.048-0.032l0.032-0.065c0.032-0.129,0.162-0.226,0.21-0.355
		c0.032-0.081,0.097-0.162,0.145-0.242h-0.016l0.032-0.065h-0.016l0.097-0.178l0.016,0.065c0.016-0.081,0.065-0.145,0.097-0.21
		h-0.016l0.048-0.032c0.032-0.048,0.048-0.097,0.065-0.145v0.016C66.091,10.228,66.155,10.147,66.22,10.05z M61.729,9.533
		c0,0.016-0.016,0.032-0.016,0.048h0.016V9.533z M61.826,9.339c0.21-0.355,0.404-0.743,0.63-1.082
		c0.048-0.065,0.194-0.242,0.194-0.323l-0.032,0.065c-0.226,0.226-0.727,1.098-0.84,1.405c-0.016,0.016-0.032,0.048-0.032,0.081
		l0.032-0.081C61.794,9.388,61.826,9.372,61.826,9.339z M61.988,9.662l0.048-0.113c-0.032,0.016-0.032,0.081-0.065,0.113H61.988z
		 M62.02,10.421c-0.016,0.016-0.016,0.048-0.016,0.065h0.016V10.421z M63.361,7.966c-0.42,0.258-1.034,1.405-1.195,1.874
		c-0.065,0.178-0.097,0.372-0.145,0.549c0.032-0.032,0.048-0.065,0.065-0.113C62.392,9.468,62.812,8.629,63.361,7.966z
		 M62.085,9.404c0.162-0.307,0.355-0.581,0.533-0.872V8.499C62.408,8.79,62.23,9.065,62.085,9.404z M62.699,7.886l0.048-0.032
		h-0.016L62.699,7.886z M62.779,8.273h0.032V8.257C62.795,8.273,62.795,8.273,62.779,8.273z M62.86,8.16h0.016V8.144
		C62.86,8.144,62.86,8.144,62.86,8.16z M64.475,11.035h0.016v-0.032h-0.016V11.035z M64.54,12.554c-0.016,0-0.032,0.016-0.032,0.032
		L64.54,12.554z M64.54,10.712l0.016,0.032v-0.048L64.54,10.712z M64.669,12.392l-0.113,0.145
		C64.605,12.489,64.669,12.473,64.669,12.392z M64.621,10.438h0.016v-0.081C64.621,10.389,64.621,10.405,64.621,10.438z
		 M64.637,10.292l0.032-0.065h-0.016L64.637,10.292z M64.669,10.211c0.081-0.097,0.097-0.21,0.113-0.323
		C64.734,10.001,64.701,10.098,64.669,10.211z M64.701,12.44c-0.016,0-0.016,0.016-0.032,0.016
		C64.685,12.457,64.701,12.457,64.701,12.44z M64.766,12.327c0-0.032,0.016-0.065,0.016-0.097l-0.097,0.145L64.766,12.327z
		 M64.766,8.483l0.129-0.242C64.847,8.289,64.782,8.402,64.766,8.483z M64.798,12.295l-0.016,0.016
		C64.798,12.311,64.798,12.311,64.798,12.295z M64.815,9.759c-0.016,0.016-0.016,0.032-0.016,0.048L64.815,9.759z M64.863,12.279
		c-0.016,0-0.016,0.016-0.032,0.016h0.032V12.279z M64.863,9.598c-0.016,0.016-0.016,0.048-0.016,0.081l0.016-0.032V9.598z
		 M64.976,12.134H64.96l-0.048,0.032h0.016L64.976,12.134z M65.025,8.451c0,0,0.016,0.032,0.016,0.048l0.065-0.129
		C65.057,8.386,65.025,8.402,65.025,8.451z M65.105,8.354c0.016-0.032,0.016-0.048,0.016-0.081
		C65.105,8.305,65.105,8.322,65.105,8.354z M65.267,11.649c-0.016,0.016-0.016,0.048-0.016,0.065
		C65.267,11.697,65.267,11.665,65.267,11.649z"/>
	<path class="st0" d="M70.097,8.629l0.129-0.129L70.21,8.596l0.049-0.097h-0.033l0.033-0.048v0.048l0.031-0.065h0.017l0.065-0.113
		l0.032,0.016c-0.291,0.743-0.791,1.438-1.212,2.116c-0.242,0.388-0.468,0.791-0.726,1.163c-0.323,0.468-0.84,1.179-1.211,1.583
		c-0.097,0.097-0.194,0.113-0.323,0.113c-0.468,0-0.808-0.258-0.808-0.743c0-0.872,0.21-1.793,0.436-2.617
		c0.178-0.646,0.339-1.292,0.388-1.954V7.934c0-0.081-0.048-0.162-0.048-0.242c0-0.065,0.097-0.097,0.145-0.113
		c0.711,0.097,1.292,0.468,1.292,1.244c0,0.614-0.209,1.163-0.388,1.744l-0.355,1.195c0,0.016-0.016,0.016-0.016,0.032
		c0,0,0.016,0.032,0.016,0.048c0.452-0.565,0.84-1.195,1.244-1.793c0.242-0.355,0.533-0.678,0.791-1.018
		c0.145-0.178,0.243-0.42,0.42-0.581l-0.081,0.145l0.114-0.129c-0.258,0.436-0.581,0.84-0.791,1.308
		c0.113-0.129,0.225-0.258,0.306-0.404c0.162-0.275,0.275-0.614,0.517-0.84L70.097,8.629z M66.932,12.634
		c0.242-0.937,0.517-1.874,0.775-2.811c-0.194,0.339-0.242,0.727-0.355,1.098c-0.162,0.565-0.372,1.131-0.452,1.712H66.932z
		 M68.014,5.172l0.08,0.016v0.113c0.049-0.016,0.081-0.048,0.114-0.081l0.162,0.081l-0.032,0.113l0.194,0.032v0.162l0.08-0.016
		c0.098,0.065,0.163,0.162,0.163,0.275c0,0.388-0.178,0.727-0.178,1.115c0,0.21,0.065,0.436,0.065,0.646
		c-0.049,0.032-0.097,0.048-0.145,0.048c-0.114,0-0.194-0.097-0.307-0.081c-0.388-0.226-0.727-0.953-0.727-1.405
		c0-0.242,0.178-1.082,0.485-1.082L68.014,5.172z M67.675,12.004c0.647-0.953,1.293-1.906,1.954-2.859
		c-0.258,0.275-0.533,0.549-0.711,0.856c-0.274,0.452-0.581,0.888-0.856,1.341c-0.178,0.275-0.404,0.517-0.549,0.808
		C67.561,12.101,67.642,12.053,67.675,12.004z M67.723,9.646v0.097c0.016-0.016,0.016-0.065,0.032-0.097H67.723z M68.272,11.471
		c-0.08,0.016-0.114,0.097-0.145,0.162L68.272,11.471z M68.466,11.197c-0.08,0.016-0.145,0.048-0.145,0.145v0.032L68.466,11.197z
		 M68.999,10.518c0.049-0.081,0.098-0.162,0.129-0.258c-0.048,0.113-0.129,0.21-0.194,0.307L68.999,10.518z M69.355,10.05
		l0.048-0.048c-0.017,0-0.032,0-0.048-0.016c0.048-0.081,0.08-0.162,0.113-0.242l-0.194,0.275l0.081-0.032V10.05z M69.661,9.485
		l0.048-0.081V9.339c-0.065,0.081-0.113,0.162-0.145,0.242l0.065-0.032L69.661,9.485c0.017,0.016,0.017,0.048,0.017,0.065
		c0.016-0.016,0.016-0.048,0.016-0.065H69.661z M69.678,9.549h-0.033c-0.016,0.016-0.016,0.032-0.016,0.048L69.678,9.549z
		 M69.709,9.42v0.032c0.017-0.016,0.017-0.016,0.017-0.032H69.709z M69.838,9.21c0-0.065,0.033-0.113,0.033-0.178l-0.146,0.275
		l0.065-0.032v0.048l0.032-0.048h-0.032L69.838,9.21z M69.838,9.21v0.048l0.033-0.048c0-0.016,0-0.048,0.016-0.065h-0.016
		c0,0.016-0.017,0.048,0,0.065H69.838z M70.114,8.677l-0.017,0.065l-0.065,0.016c0.033-0.032,0.065-0.081,0.065-0.129L70.114,8.677z
		 M70.146,8.725l-0.032,0.016L70.097,8.79L70.146,8.725z M70.195,8.305l0.031,0.016c-0.016,0.081-0.065,0.145-0.113,0.21
		C70.146,8.451,70.178,8.386,70.195,8.305z M70.259,8.451V8.419h0.016v0.016L70.259,8.451z M70.291,8.37v0.048h-0.016L70.291,8.37z
		 M70.291,8.435V8.419h0.017L70.291,8.435z"/>
	<g>
		<path class="st0" d="M74.255,9.484c-0.065,0.129-0.049,0.404-0.049,0.533c0,0.162,0.049,0.775,0.274,0.775
			c0.34,0,0.598-0.226,0.711-0.517l0.017-0.016v0.048c0,0.145-0.129,0.258-0.177,0.388c0.177-0.081,0.209-0.242,0.306-0.388
			c0.017,0.032,0.032,0.065,0.032,0.081c0,0.113-0.097,0.178-0.114,0.275l0.114,0.016l-0.016,0.048l0.031,0.016v-0.016h0.049
			l-0.016-0.032h0.016l0.016-0.065h0.017l0.032-0.065v0.065c0.049-0.048,0.065-0.097,0.065-0.162l0.065-0.081
			c-0.032,0.468-0.468,0.775-0.92,0.775c-0.986,0-1.567-0.678-1.567-1.631c0-0.775,0.323-1.551,0.775-2.181
			c0.355-0.501,0.857-0.775,1.469-0.775c0.146,0,0.292,0.032,0.437,0.065l-0.323-0.598l0.129-0.032
			c0.646,0.21,1.083,0.743,1.083,1.454C76.71,8.644,75.32,9.484,74.255,9.484z M73.738,8.224c-0.017,0-0.017,0-0.017,0.016h0.017
			V8.224z M73.818,7.982l-0.049,0.081l0.033,0.016L73.818,7.982z M73.834,7.949l-0.016,0.016h0.016V7.949z M74.092,7.513
			l0.049-0.016C74.126,7.497,74.109,7.497,74.092,7.513l-0.08,0.129L73.98,7.691v0.016c-0.032,0.048-0.081,0.097-0.113,0.162
			c0.08-0.032,0.096-0.097,0.113-0.162l0.032-0.065l0.065-0.048C74.077,7.562,74.092,7.546,74.092,7.513z M74.044,8.725
			c-0.017,0.016-0.017,0.048-0.017,0.081h0.017V8.725z M74.642,7.61c-0.227,0.226-0.534,0.678-0.534,1.018
			C74.221,8.272,74.497,7.966,74.642,7.61z M74.109,8.03v0.016c0-0.016,0-0.016,0-0.032V8.03z M74.174,7.885
			C74.19,7.869,74.19,7.853,74.19,7.82C74.174,7.853,74.174,7.869,74.174,7.885z M74.238,7.788h0.017
			c0.016-0.016,0.031-0.048,0.031-0.065C74.27,7.739,74.255,7.788,74.238,7.788z M74.415,8.838c0.581-0.065,1.438-1.018,1.438-1.599
			V7.174C75.126,7.336,74.545,8.127,74.415,8.838z M74.658,7.594l0.065-0.032V7.546l-0.016,0.016
			C74.674,7.562,74.674,7.578,74.658,7.594z M75.756,8.063c-0.016,0.016-0.016,0.048-0.016,0.065l-0.049,0.032l0.049-0.016V8.127
			L75.756,8.063z M75.87,7.885l-0.033,0.065v0.016C75.853,7.933,75.87,7.917,75.87,7.885z M75.918,7.788
			c0.017,0,0.032-0.016,0.032-0.032h-0.032V7.788z M75.983,8.434c0.017-0.016,0.032-0.016,0.032-0.032L75.983,8.434z M76.015,8.063
			h0.016l0.017-0.048L76.015,8.063z M76.08,8.386c-0.016,0-0.032,0-0.049,0.016C76.047,8.402,76.064,8.402,76.08,8.386z
			 M76.08,8.369c0.162-0.162,0.258-0.372,0.323-0.581C76.338,7.901,76.08,8.272,76.08,8.369z"/>
		<path class="st0" d="M82.04,13.118c0,0.162-0.323,0.178-0.42,0.178c-0.306,0-0.581-0.129-0.775-0.372
			c-0.534-0.678-0.678-2.277-0.792-3.134h-0.031c-0.452,0.678-0.905,1.68-1.826,1.68c-1.098,0-1.421-1.082-1.421-2.003
			c0-1.034,0.646-2.536,1.857-2.536c0.534,0,0.969,0.258,1.421,0.501c0.258-1.615,0.566-3.634,1.89-4.749
			c0.194-0.162,0.469-0.339,0.727-0.339c0.646,0,1.065,0.711,1.065,1.292c0,1.131-0.985,2.811-1.728,3.634L81.314,8.03
			c-0.081,0.081-0.098,0.178-0.098,0.291c0,0.436-0.016,0.888-0.016,1.324c0,0.727,0,2.455,0.291,3.085
			c0.097,0.21,0.306,0.307,0.534,0.339C82.025,13.086,82.04,13.118,82.04,13.118z M77.065,9.419
			c0.049-0.307,0.097-0.598,0.162-0.888C77.098,8.822,77.065,9.112,77.065,9.419z M77.485,8.741
			c-0.065,0.178-0.129,0.355-0.129,0.549c0,0.048,0.017,0.081,0.017,0.129l0.145-0.695L77.485,8.741z M77.55,8.612
			c-0.017,0-0.048,0.016-0.048,0.048c0,0,0.016,0.032,0.016,0.048C77.533,8.676,77.55,8.644,77.55,8.612z M78.002,8.159
			c-0.242,0.485-0.404,0.905-0.404,1.454c0,0.162,0.017,0.323,0.049,0.485c0.065-0.678,0.08-1.357,0.437-1.971L78.002,8.159z
			 M77.905,9.096h0.016V9.064h-0.016V9.096z M80.005,7.998h-0.032c-0.258-0.194-0.468-0.581-0.824-0.581
			c-0.08,0-0.113,0.016-0.177,0.065c-0.663,0.549-0.952,1.502-0.952,2.342c0,0.323,0.031,0.969,0.258,1.211
			c0.113-0.097,0.209-0.178,0.306-0.291c0.194-0.242,1.421-1.971,1.421-2.132V7.998z M78.083,8.079h-0.017
			c0,0.016,0,0.016,0.017,0.032V8.079z M80.926,7.497H80.91v0.097h0.017V7.497z M80.942,7.239l0.016-0.016h-0.016V7.239z
			 M80.974,7.061h0.017V7.045L80.974,7.061z M81.249,4.008V3.976c0,0.016-0.017,0.016-0.017,0.032H81.249z M81.846,6.512
			c0.549-0.711,1.486-2.084,1.486-2.988c0-0.258,0-0.517-0.178-0.727c-0.242,0.032-0.388,0.178-0.533,0.372
			c-0.84,1.131-1.034,2.584-1.277,3.941C81.426,7.11,81.782,6.593,81.846,6.512z M83.429,3.75h-0.032l0.032,0.113
			c-0.097,0-0.081,0.065-0.097,0.129c-0.08,0.372-0.258,0.727-0.437,1.066c-0.403,0.808-0.905,1.567-1.534,2.229v0.065
			c0.614-0.678,2.067-2.681,2.067-3.554V3.75z M81.41,4.994L81.394,5.01c0,0.016,0,0.016,0.016,0.016V4.994z M81.668,4.299
			c-0.048,0.065-0.08,0.129-0.113,0.21C81.653,4.461,81.637,4.38,81.668,4.299z M81.668,3.314C81.653,3.33,81.62,3.362,81.62,3.394
			L81.668,3.314z M81.831,7.013l-0.21,0.323c0.065-0.065,0.275-0.275,0.291-0.339C81.879,7.013,81.862,7.013,81.831,7.013z
			 M81.653,7.529v0.032c0-0.016,0-0.016,0.016-0.032H81.653z M81.668,4.299c0.017-0.048,0.049-0.081,0.065-0.113
			c0.243-0.452,0.452-0.888,0.824-1.276c-0.339,0.129-0.76,1.001-0.889,1.341V4.299z M81.668,3.314
			c0.114-0.113,0.227-0.258,0.307-0.388C81.862,3.039,81.75,3.168,81.668,3.314z M82.008,6.9L81.96,6.883l-0.049,0.032v0.081
			c0.016-0.032,0.032-0.065,0.065-0.081C81.991,6.916,81.991,6.9,82.008,6.9z M81.976,2.926l0.129-0.113h-0.032L81.976,2.926z
			 M81.991,7.029l0.129-0.081c-0.016-0.032,0-0.048,0-0.081L81.991,7.029z M82.185,6.609l-0.031-0.016
			c-0.033,0.048-0.049,0.097-0.098,0.145v0.081c0.033-0.065,0.114-0.194,0.194-0.194C82.234,6.609,82.202,6.609,82.185,6.609z
			 M82.121,6.996l0.017-0.048h-0.017V6.996z M82.25,6.528l0.049-0.032c0.162-0.291,0.355-0.549,0.566-0.808
			c-0.146,0.388-0.452,0.743-0.679,1.098c0.163-0.113,0.211-0.355,0.388-0.468l0.017,0.065l0.017-0.065
			c0.048-0.032,0.065-0.097,0.113-0.145l0.032-0.065c0.016-0.032,0.032-0.065,0.065-0.097l0.032-0.081l0.032-0.065h-0.032
			l0.113-0.178l0.017,0.081c0-0.081,0.048-0.145,0.081-0.226l0.031-0.065l0.081-0.097c0-0.097,0.129-0.226,0.129-0.323l0.048-0.065
			l0.049-0.162c0.114-0.113,0.274-0.759,0.274-0.937c0-0.065-0.048-0.129-0.08-0.178l-0.049,0.016
			c-0.129,0.404-0.225,0.824-0.403,1.211c-0.129,0.275-0.42,0.872-0.597,1.098L82.46,6.14c-0.032,0.081-0.194,0.275-0.194,0.323
			l-0.048,0.032v0.032c0,0.016,0.016,0.081,0.031,0.097V6.528z"/>
		<path class="st0" d="M89.505,7.917l0.129-0.129l-0.016,0.097l0.049-0.097h-0.033l0.033-0.048v0.048l0.031-0.065h0.017L89.78,7.61
			l0.032,0.016c-0.291,0.743-0.791,1.438-1.212,2.116c-0.242,0.388-0.468,0.791-0.726,1.163c-0.323,0.468-0.84,1.179-1.212,1.583
			c-0.096,0.097-0.194,0.113-0.323,0.113c-0.468,0-0.807-0.258-0.807-0.743c0-0.872,0.209-1.793,0.436-2.617
			c0.177-0.646,0.34-1.292,0.388-1.954V7.223c0-0.081-0.048-0.162-0.048-0.242c0-0.065,0.096-0.097,0.145-0.113
			c0.711,0.097,1.292,0.468,1.292,1.244c0,0.614-0.209,1.163-0.388,1.744l-0.355,1.195c0,0.016-0.017,0.016-0.017,0.032
			c0,0,0.017,0.032,0.017,0.048c0.452-0.565,0.84-1.195,1.244-1.793c0.242-0.355,0.533-0.678,0.791-1.018
			c0.145-0.178,0.243-0.42,0.42-0.581l-0.081,0.145l0.114-0.129c-0.258,0.436-0.581,0.84-0.791,1.308
			c0.113-0.129,0.225-0.258,0.306-0.404c0.162-0.275,0.275-0.614,0.517-0.84L89.505,7.917z M86.339,11.923
			c0.243-0.937,0.517-1.874,0.775-2.811c-0.194,0.339-0.242,0.727-0.354,1.098c-0.163,0.565-0.372,1.131-0.452,1.712H86.339z
			 M87.422,4.461l0.08,0.016V4.59c0.049-0.016,0.081-0.048,0.114-0.081l0.162,0.081l-0.032,0.113l0.194,0.032v0.162l0.08-0.016
			c0.098,0.065,0.163,0.162,0.163,0.275c0,0.388-0.178,0.727-0.178,1.115c0,0.21,0.065,0.436,0.065,0.646
			c-0.049,0.032-0.097,0.048-0.145,0.048c-0.114,0-0.194-0.097-0.307-0.081c-0.388-0.226-0.726-0.953-0.726-1.405
			c0-0.242,0.177-1.082,0.484-1.082L87.422,4.461z M87.083,11.293c0.646-0.953,1.292-1.906,1.954-2.859
			c-0.258,0.275-0.533,0.549-0.711,0.856c-0.274,0.452-0.581,0.888-0.856,1.341c-0.178,0.275-0.404,0.517-0.55,0.808
			C86.969,11.39,87.05,11.341,87.083,11.293z M87.131,8.935v0.097c0.017-0.016,0.017-0.065,0.032-0.097H87.131z M87.68,10.76
			c-0.08,0.016-0.114,0.097-0.145,0.162L87.68,10.76z M87.874,10.485c-0.08,0.016-0.145,0.048-0.145,0.145v0.032L87.874,10.485z
			 M88.406,9.807c0.049-0.081,0.098-0.162,0.129-0.258c-0.048,0.113-0.129,0.21-0.194,0.307L88.406,9.807z M88.763,9.339
			l0.048-0.048c-0.017,0-0.032,0-0.048-0.016c0.048-0.081,0.08-0.162,0.113-0.242l-0.194,0.275l0.081-0.032V9.339z M89.069,8.773
			l0.048-0.081V8.628c-0.065,0.081-0.113,0.162-0.145,0.242l0.065-0.032L89.069,8.773c0.017,0.016,0.017,0.048,0.017,0.065
			c0.016-0.016,0.016-0.048,0.016-0.065H89.069z M89.086,8.838h-0.033c-0.016,0.016-0.016,0.032-0.016,0.048L89.086,8.838z
			 M89.117,8.709v0.032c0.017-0.016,0.017-0.016,0.017-0.032H89.117z M89.246,8.499c0-0.065,0.033-0.113,0.033-0.178l-0.146,0.275
			l0.065-0.032v0.048l0.032-0.048h-0.032L89.246,8.499z M89.246,8.499v0.048l0.033-0.048c0-0.016,0-0.048,0.016-0.065H89.28
			c0,0.016-0.017,0.048,0,0.065H89.246z M89.521,7.966L89.505,8.03L89.44,8.046c0.033-0.032,0.065-0.081,0.065-0.129L89.521,7.966z
			 M89.554,8.014L89.521,8.03l-0.017,0.048L89.554,8.014z M89.603,7.594l0.031,0.016c-0.016,0.081-0.065,0.145-0.113,0.21
			C89.554,7.739,89.586,7.675,89.603,7.594z M89.667,7.739V7.707h0.016v0.016L89.667,7.739z M89.699,7.659v0.048h-0.016
			L89.699,7.659z M89.699,7.723V7.707h0.017L89.699,7.723z"/>
		<path class="st0" d="M88.552,10.792c0-0.872,0.565-2.794,0.823-3.683c0.129-0.404,0.275-0.888,0.275-1.324
			c0-0.081-0.032-0.162-0.048-0.242c0.031-0.081,0.096-0.081,0.16-0.081c0.033,0,0.194,0.081,0.227,0.097
			c0.388,0.194,0.662,0.614,0.662,1.066c0,0.937-0.63,2.924-0.954,3.86l0.033,0.016c0.905-1.244,1.76-2.504,2.762-3.667
			c0.388-0.452,0.775-0.905,1.18-1.341c0.129-0.129,0.242-0.258,0.419-0.307c0.307,0.048,0.905,0.372,0.905,0.743
			c0,0.21-0.258,0.872-0.339,1.098c-0.437,1.131-1.6,4.41-1.6,5.492c0,0.162,0.049,0.307,0.194,0.388
			c0,0.097-0.065,0.162-0.16,0.162c-0.921,0-1.098-0.775-1.098-1.534c0-1.018,0.5-2.407,0.807-3.392
			c0.146-0.485,0.356-0.937,0.534-1.405c-0.048,0.032-0.097,0.048-0.146,0.097c-0.711,0.727-1.308,1.615-1.84,2.471
			c-0.34,0.549-1.163,1.938-1.584,2.31c-0.096,0.081-0.145,0.097-0.258,0.097C89.037,11.713,88.552,11.277,88.552,10.792z
			 M90.038,10.905c-0.017,0.016-0.032,0.032-0.032,0.065L90.038,10.905z M90.297,9.985c0.097-0.113,0.162-0.226,0.242-0.339
			C90.443,9.742,90.361,9.872,90.297,9.985z M90.474,10.324c0.017-0.048,0.049-0.081,0.065-0.113
			c-0.048,0.048-0.113,0.129-0.129,0.194L90.474,10.324z M90.491,10.114c0.017,0,0.017,0,0.017-0.016L90.491,10.114z M90.684,9.452
			c0.032-0.097,0.097-0.129,0.162-0.21c0.129-0.145,0.209-0.323,0.323-0.485c0.726-1.082,1.664-2.003,2.487-3.02l0.048-0.065
			L93.673,5.64c-0.824,0.872-1.615,1.777-2.31,2.762c-0.258,0.372-0.549,0.727-0.743,1.131L90.684,9.452z M90.652,9.904V9.888
			l-0.016,0.016H90.652z M90.96,9.581c-0.114,0.129-0.211,0.258-0.275,0.404C90.781,9.855,90.878,9.726,90.96,9.581z M90.926,9.403
			h-0.048c0,0.016-0.017,0.048-0.032,0.065h0.08l0.017-0.048L90.926,9.403z M90.96,9.565c0.08-0.097,0.16-0.21,0.209-0.339
			C91.104,9.339,91.007,9.435,90.96,9.565z M90.991,9.258v0.048c0,0.016,0,0.032,0.017,0.048c0.017-0.016,0.017-0.048,0.017-0.065
			h0.065c-0.017-0.016-0.049-0.016-0.065-0.016L90.991,9.258z M90.991,9.678V9.71l0.017-0.016L90.991,9.678z M91.055,9.161v0.032
			c0,0,0.033,0.081,0.033,0.097V9.193c0.016,0,0.031,0,0.048-0.016c-0.017,0-0.048-0.016-0.048-0.016H91.055z M91.137,9.048v0.048
			c0,0.016,0,0.048,0.017,0.065c0-0.048,0.016-0.081,0.065-0.081c-0.017-0.016-0.033-0.016-0.049-0.016L91.137,9.048z M91.201,8.951
			v0.032c0.017,0.032,0.017,0.065,0.017,0.097c0.016-0.032,0.016-0.065,0.016-0.097l0.032-0.016c-0.017,0-0.048-0.016-0.048-0.016
			H91.201z M91.283,9.096l0.016-0.065l-0.049,0.097L91.283,9.096z M92.041,8.079l0.065-0.097h0.032l0.08-0.081
			c0.017-0.048,0.163-0.242,0.211-0.275c0.032-0.097,0.42-0.565,0.517-0.614l-0.032-0.016V6.932
			c-0.178,0.194-0.323,0.404-0.533,0.549c0.08-0.194,0.871-1.05,1.049-1.276c-0.808,0.808-1.518,1.696-2.164,2.633v0.048
			l0.017,0.065c0.145-0.226,0.258-0.372,0.436-0.581c-0.017,0.065-0.032,0.113-0.065,0.162l0.113-0.065h0.033
			c0.065-0.081,0.129-0.162,0.16-0.258l0.049-0.032c0.016-0.032,0.032-0.065,0.065-0.081L92.041,8.079z M91.412,8.886
			c0.031-0.032,0.065-0.048,0.096-0.065V8.806c0.017-0.016,0.033-0.081,0.033-0.113L91.412,8.886z M91.524,8.822v0.032
			c0.017-0.016,0.017-0.032,0.017-0.048L91.524,8.822z M92.817,11.471h0.017v-0.048h-0.017V11.471z M92.833,11.309l0.048,0.016
			c0.032-0.145,0.048-0.275,0.065-0.42L92.833,11.309z M94.642,5.947c-0.679,1.357-1.326,3.44-1.697,4.926
			c0.032-0.032,0.048-0.065,0.065-0.097c0.275-0.727,0.436-1.502,0.694-2.229c0.307-0.872,0.679-1.712,0.986-2.584L94.642,5.947z
			 M93.269,6.641c0.032-0.081,0.129-0.113,0.129-0.21l0.177-0.242l-0.629,0.695c0.048-0.032,0.081-0.065,0.146-0.065
			C93.156,6.754,93.187,6.69,93.269,6.641z M93.35,7.562l0.016-0.016H93.35V7.562z M93.463,7.255c0,0.016-0.017,0.016-0.017,0.032
			h0.017V7.255z M93.527,7.045l-0.048,0.113l0.048,0.016V7.045z M93.575,7.013c0.146-0.323,0.323-0.646,0.486-0.969V5.963
			c-0.211,0.339-0.372,0.711-0.534,1.082L93.575,7.013z M94.012,6.786c0.08-0.178,0.178-0.355,0.243-0.533
			C94.141,6.415,94.076,6.593,94.012,6.786z M94.367,5.995L94.35,5.979v0.065L94.367,5.995z"/>
		<path class="st0" d="M103.091,9.339c-0.354,0.84-1.146,2.277-1.857,2.843c-0.355-0.129-0.614-0.162-0.614-0.614
			c0-0.872,0.194-1.728,0.372-2.584l-0.55,0.565c-0.339,0.355-0.807,1.034-1.372,1.034c-0.403,0-1.001-0.372-1.001-0.824
			c0-0.953,1.017-2.681,1.792-3.23c0.323-0.226,0.727-0.452,1.132-0.452c0.403,0,0.742,0.226,1.034,0.501
			c0.031,0.032,0.065,0.081,0.065,0.129c0,0.032-0.017,0.065-0.033,0.097l-0.468-0.129c-1.163,0.404-1.744,1.712-2.212,2.762
			l0.031,0.032l0.258-0.194l1.551-1.389c0.292-0.258,0.34-0.598,0.711-0.743l0.017,0.162l-0.048,0.016
			c-0.033,0.065,0,0.048-0.065,0.113l0.048-0.016l0.017-0.081l0.048-0.032c0.017-0.032,0.048-0.065,0.097-0.065
			c0.032,0,0.065,0.032,0.08,0.048L102.107,7.4l0.065-0.032V7.352l0.08,0.032c-0.129,0.404-0.274,0.791-0.419,1.179l-0.017,0.016
			c0.017,0,0.017,0,0.017-0.016c0.016-0.016,0.048-0.032,0.048-0.065c0.162-0.355,0.291-0.727,0.469-1.066
			c0.08,0.016,0.145,0.065,0.145,0.145c0,0.113-0.049,0.226-0.08,0.323c-0.211,0.581-0.921,2.584-0.921,3.101
			c0.21-0.129,0.371-0.355,0.534-0.533h0.031c-0.209,0.307-0.5,0.565-0.646,0.905h-0.016v0.016c0.016,0,0.016,0,0.016-0.016
			c0.292-0.291,0.55-0.646,0.809-0.969c0.065-0.081,0.129-0.21,0.209-0.291l0.08-0.081c-0.339,0.581-0.871,1.115-1.163,1.712
			l0.517-0.598l-0.145,0.275l0.114-0.081l0.016,0.065c0.016-0.081,0.097-0.178,0.145-0.258h0.017v-0.016l-0.017,0.016h-0.031
			c0.048-0.129,0.065-0.21,0.177-0.291v0.065l0.032-0.065l0.049-0.032l0.031-0.065c0.033-0.129,0.163-0.226,0.211-0.355
			c0.032-0.081,0.097-0.162,0.146-0.242h-0.017l0.032-0.065h-0.016l0.096-0.178l0.017,0.065c0.017-0.081,0.065-0.145,0.097-0.21
			h-0.016l0.048-0.032c0.032-0.048,0.048-0.097,0.065-0.145v0.016C102.962,9.516,103.027,9.435,103.091,9.339z M98.602,8.822
			c0,0.016-0.017,0.032-0.017,0.048h0.017V8.822z M98.698,8.628c0.211-0.355,0.404-0.743,0.63-1.082
			c0.049-0.065,0.194-0.242,0.194-0.323L99.49,7.287c-0.226,0.226-0.727,1.098-0.84,1.405c-0.017,0.016-0.032,0.048-0.032,0.081
			l0.032-0.081C98.667,8.676,98.698,8.66,98.698,8.628z M98.861,8.951l0.048-0.113c-0.032,0.016-0.032,0.081-0.065,0.113H98.861z
			 M98.892,9.71c-0.016,0.016-0.016,0.048-0.016,0.065h0.016V9.71z M100.233,7.255c-0.42,0.258-1.034,1.405-1.195,1.874
			c-0.065,0.178-0.097,0.372-0.146,0.549c0.033-0.032,0.049-0.065,0.065-0.113C99.264,8.757,99.684,7.917,100.233,7.255z
			 M98.956,8.692c0.163-0.307,0.356-0.581,0.534-0.872V7.788C99.28,8.079,99.102,8.353,98.956,8.692z M99.571,7.174l0.048-0.032
			h-0.017L99.571,7.174z M99.652,7.562h0.032V7.546C99.667,7.562,99.667,7.562,99.652,7.562z M99.732,7.449h0.017V7.433
			C99.732,7.433,99.732,7.433,99.732,7.449z M101.347,10.324h0.017v-0.032h-0.017V10.324z M101.412,11.842
			c-0.016,0-0.031,0.016-0.031,0.032L101.412,11.842z M101.412,10.001l0.017,0.032V9.985L101.412,10.001z M101.541,11.681
			l-0.113,0.145C101.476,11.778,101.541,11.761,101.541,11.681z M101.493,9.726h0.017V9.645
			C101.493,9.678,101.493,9.694,101.493,9.726z M101.51,9.581l0.031-0.065h-0.016L101.51,9.581z M101.541,9.5
			c0.081-0.097,0.098-0.21,0.114-0.323C101.605,9.29,101.574,9.387,101.541,9.5z M101.574,11.729c-0.017,0-0.017,0.016-0.033,0.016
			C101.558,11.745,101.574,11.745,101.574,11.729z M101.639,11.616c0-0.032,0.016-0.065,0.016-0.097l-0.097,0.145L101.639,11.616z
			 M101.639,7.772l0.129-0.242C101.719,7.578,101.654,7.691,101.639,7.772z M101.67,11.584l-0.016,0.016
			C101.67,11.6,101.67,11.6,101.67,11.584z M101.687,9.048c-0.017,0.016-0.017,0.032-0.017,0.048L101.687,9.048z M101.735,11.568
			c-0.016,0-0.016,0.016-0.031,0.016h0.031V11.568z M101.735,8.886c-0.016,0.016-0.016,0.048-0.016,0.081l0.016-0.032V8.886z
			 M101.848,11.422h-0.016l-0.049,0.032h0.016L101.848,11.422z M101.897,7.739c0,0,0.016,0.032,0.016,0.048l0.065-0.129
			C101.929,7.675,101.897,7.691,101.897,7.739z M101.978,7.643c0.016-0.032,0.016-0.048,0.016-0.081
			C101.978,7.594,101.978,7.61,101.978,7.643z M102.139,10.938c-0.017,0.016-0.017,0.048-0.017,0.065
			C102.139,10.986,102.139,10.954,102.139,10.938z"/>
		<path class="st0" d="M107.843,8.596c0.225-0.162,0.339-0.436,0.517-0.646c0.419-0.517,1.323-1.357,2.019-1.357
			c0.678,0,1.066,0.856,1.066,1.438c0,0.065-0.017,0.129-0.017,0.194c-0.129,1.486-0.888,3.02-2.245,3.747
			c-0.146,0.081-0.306,0.129-0.469,0.129c-0.419,0-0.969-0.468-0.969-0.905c0-0.42,0.452-0.969,0.84-1.098l-0.08,0.129v0.032
			l-0.097,0.178c0.081-0.048,0.162-0.113,0.226-0.178c0.032,0.016,0.065,0.048,0.065,0.097s-0.049,0.113-0.065,0.145l0.209-0.081
			l-0.113,0.258c1.098-0.646,2.003-2.181,2.132-3.44c-0.081-0.048-0.177-0.048-0.275-0.048c-0.194,0-0.419,0.097-0.597,0.178
			c-1.277,0.614-2.326,2.617-2.6,3.957h-0.098l-0.08,0.129c-0.485-0.162-0.775-0.517-0.775-1.034c0-0.614,0.178-1.228,0.339-1.809
			c0.292-1.018,2.036-7.075,2.763-7.075c0.032,0,0.08,0.016,0.114,0.032c0.048,0.129,0.065,0.145,0.145,0.242
			c0.162,0.194,0.209,0.533,0.209,0.775c0,0.291-0.694,1.89-0.84,2.261c-0.5,1.228-0.92,2.487-1.34,3.747l0.017,0.016V8.596z
			 M108.262,8.272c-0.016,0.016-0.031,0.032-0.031,0.065L108.262,8.272z M109.797,6.9c-0.42,0.21-1.098,0.775-1.357,1.163
			l0.711-0.695c0.129-0.129,0.63-0.404,0.695-0.485L109.797,6.9z M108.764,8.159c0.178-0.162,0.339-0.355,0.517-0.517
			c0.145-0.129,0.323-0.242,0.485-0.355C109.329,7.562,109.087,7.772,108.764,8.159z M109.038,7.756
			c-0.113,0.016-0.177,0.097-0.194,0.21L109.038,7.756z M109.748,10.178c-0.145,0.226-0.565,0.646-0.791,0.808
			c0.274-0.162,0.42-0.355,0.646-0.581c0.065-0.065,0.145-0.081,0.145-0.194V10.178z M109.054,11.632l0.017-0.032
			c0,0.016-0.017,0.016-0.033,0.016L109.054,11.632z M109.248,7.497h-0.032l-0.114,0.113v0.065c0.065-0.065,0.146-0.113,0.227-0.162
			C109.296,7.513,109.28,7.513,109.248,7.497z M109.136,11.584c0.565-0.323,0.969-0.727,1.259-1.308
			c-0.354,0.501-0.823,0.921-1.292,1.308H109.136z M109.459,7.4l0.031-0.048c0.033,0,0.049,0,0.081-0.016h-0.081l-0.016-0.032
			l-0.016,0.032c-0.049,0-0.081,0.016-0.098,0.065l-0.048,0.032v0.032c0.017,0.016,0.017,0.032,0.017,0.048
			c0.016-0.016,0.016-0.032,0.016-0.048C109.377,7.433,109.425,7.416,109.459,7.4z M109.49,10.921
			c-0.048,0.016-0.113,0.065-0.129,0.113L109.49,10.921z M109.782,10.647v-0.016l-0.292,0.291L109.782,10.647z M109.588,7.271
			l0.016,0.016c0.016,0,0.049,0,0.065-0.016H109.588z M109.668,10.954h-0.016v0.016L109.668,10.954z M109.765,7.287
			c0.097-0.032,0.194-0.081,0.291-0.145L109.765,7.287z M109.782,7.19c0.016,0,0.048-0.016,0.065-0.032L109.782,7.19z
			 M110.071,6.819c-0.016-0.016-0.016-0.032-0.016-0.048l-0.178,0.097L110.071,6.819z M110.153,10.954h-0.017v0.016L110.153,10.954z
			"/>
		<path class="st0" d="M116.501,9.339c-0.354,0.84-1.146,2.277-1.857,2.843c-0.355-0.129-0.614-0.162-0.614-0.614
			c0-0.872,0.194-1.728,0.372-2.584l-0.55,0.565c-0.339,0.355-0.807,1.034-1.372,1.034c-0.403,0-1.001-0.372-1.001-0.824
			c0-0.953,1.017-2.681,1.792-3.23c0.323-0.226,0.727-0.452,1.132-0.452c0.403,0,0.742,0.226,1.034,0.501
			c0.031,0.032,0.065,0.081,0.065,0.129c0,0.032-0.017,0.065-0.033,0.097l-0.468-0.129c-1.163,0.404-1.744,1.712-2.212,2.762
			l0.031,0.032l0.258-0.194l1.551-1.389c0.292-0.258,0.34-0.598,0.711-0.743l0.017,0.162l-0.048,0.016
			c-0.033,0.065,0,0.048-0.065,0.113l0.048-0.016l0.017-0.081l0.048-0.032c0.017-0.032,0.048-0.065,0.097-0.065
			c0.032,0,0.065,0.032,0.08,0.048L115.516,7.4l0.065-0.032V7.352l0.08,0.032c-0.129,0.404-0.274,0.791-0.419,1.179l-0.017,0.016
			c0.017,0,0.017,0,0.017-0.016c0.016-0.016,0.048-0.032,0.048-0.065c0.162-0.355,0.291-0.727,0.469-1.066
			c0.08,0.016,0.145,0.065,0.145,0.145c0,0.113-0.049,0.226-0.08,0.323c-0.211,0.581-0.921,2.584-0.921,3.101
			c0.211-0.129,0.371-0.355,0.534-0.533h0.031c-0.209,0.307-0.5,0.565-0.646,0.905h-0.016v0.016c0.016,0,0.016,0,0.016-0.016
			c0.292-0.291,0.55-0.646,0.809-0.969c0.065-0.081,0.129-0.21,0.209-0.291l0.08-0.081c-0.339,0.581-0.871,1.115-1.163,1.712
			l0.517-0.598l-0.145,0.275l0.114-0.081l0.016,0.065c0.016-0.081,0.097-0.178,0.145-0.258h0.017v-0.016l-0.017,0.016h-0.031
			c0.048-0.129,0.065-0.21,0.177-0.291v0.065l0.032-0.065l0.049-0.032l0.031-0.065c0.033-0.129,0.163-0.226,0.211-0.355
			c0.032-0.081,0.097-0.162,0.146-0.242h-0.017l0.032-0.065h-0.016l0.096-0.178l0.017,0.065c0.017-0.081,0.065-0.145,0.097-0.21
			h-0.016l0.048-0.032c0.032-0.048,0.048-0.097,0.065-0.145v0.016C116.372,9.516,116.436,9.435,116.501,9.339z M112.012,8.822
			c0,0.016-0.017,0.032-0.017,0.048h0.017V8.822z M112.108,8.628c0.211-0.355,0.404-0.743,0.63-1.082
			c0.049-0.065,0.194-0.242,0.194-0.323L112.9,7.287c-0.226,0.226-0.727,1.098-0.84,1.405c-0.017,0.016-0.032,0.048-0.032,0.081
			l0.032-0.081C112.076,8.676,112.108,8.66,112.108,8.628z M112.27,8.951l0.048-0.113c-0.032,0.016-0.032,0.081-0.065,0.113H112.27z
			 M112.301,9.71c-0.016,0.016-0.016,0.048-0.016,0.065h0.016V9.71z M113.643,7.255c-0.42,0.258-1.034,1.405-1.195,1.874
			c-0.065,0.178-0.097,0.372-0.146,0.549c0.033-0.032,0.049-0.065,0.065-0.113C112.674,8.757,113.093,7.917,113.643,7.255z
			 M112.366,8.692c0.163-0.307,0.356-0.581,0.534-0.872V7.788C112.689,8.079,112.512,8.353,112.366,8.692z M112.981,7.174
			l0.048-0.032h-0.017L112.981,7.174z M113.061,7.562h0.032V7.546C113.077,7.562,113.077,7.562,113.061,7.562z M113.141,7.449h0.017
			V7.433C113.141,7.433,113.141,7.433,113.141,7.449z M114.757,10.324h0.017v-0.032h-0.017V10.324z M114.821,11.842
			c-0.016,0-0.031,0.016-0.031,0.032L114.821,11.842z M114.821,10.001l0.017,0.032V9.985L114.821,10.001z M114.95,11.681
			l-0.113,0.145C114.886,11.778,114.95,11.761,114.95,11.681z M114.903,9.726h0.017V9.645
			C114.903,9.678,114.903,9.694,114.903,9.726z M114.919,9.581l0.031-0.065h-0.016L114.919,9.581z M114.95,9.5
			c0.081-0.097,0.098-0.21,0.114-0.323C115.015,9.29,114.984,9.387,114.95,9.5z M114.984,11.729c-0.017,0-0.017,0.016-0.033,0.016
			C114.967,11.745,114.984,11.745,114.984,11.729z M115.048,11.616c0-0.032,0.016-0.065,0.016-0.097l-0.097,0.145L115.048,11.616z
			 M115.048,7.772l0.129-0.242C115.129,7.578,115.064,7.691,115.048,7.772z M115.08,11.584l-0.016,0.016
			C115.08,11.6,115.08,11.6,115.08,11.584z M115.096,9.048c-0.017,0.016-0.017,0.032-0.017,0.048L115.096,9.048z M115.144,11.568
			c-0.016,0-0.016,0.016-0.031,0.016h0.031V11.568z M115.144,8.886c-0.016,0.016-0.016,0.048-0.016,0.081l0.016-0.032V8.886z
			 M115.258,11.422h-0.016l-0.049,0.032h0.016L115.258,11.422z M115.307,7.739c0,0,0.016,0.032,0.016,0.048l0.065-0.129
			C115.338,7.675,115.307,7.691,115.307,7.739z M115.387,7.643c0.016-0.032,0.016-0.048,0.016-0.081
			C115.387,7.594,115.387,7.61,115.387,7.643z M115.549,10.938c-0.017,0.016-0.017,0.048-0.017,0.065
			C115.549,10.986,115.549,10.954,115.549,10.938z"/>
		<path class="st0" d="M116.147,10.437c-0.194,0.258-0.403,0.517-0.694,0.678l-0.565-0.194l0.031-0.048
			c0.275-0.275,0.486-0.565,0.695-0.888c0.808-1.292,1.341-2.665,1.615-4.167c-0.614-0.42-1.47-0.888-1.47-1.744
			c0-0.436,0.388-0.969,0.857-0.969c0.146,0,0.275,0.032,0.404,0.097c0.533,0.226,0.856,0.727,0.92,1.292
			c0.032,0.355,0.08,0.711,0.097,1.066c0.549,0.323,1.146,0.646,1.615,1.082c0.258,0.242,0.388,0.517,0.388,0.872
			c0,0.485-0.306,1.292-0.469,1.777c-0.29,0.856-0.807,2.197-0.807,3.085c0,0.21,0.031,0.436,0.113,0.63l0.452,0.113l-0.017,0.129
			l0.017,0.016l0.081-0.097h0.129c0.031,0.065,0.048,0.129,0.048,0.194c0,0.307-0.485,0.404-0.727,0.404
			c-1.049,0-1.469-1.131-1.469-2.019c0-1.082,0.678-2.843,1.066-3.877c0.097-0.242,0.274-0.759,0.274-1.001
			c0-0.388-0.452-0.549-0.742-0.678C117.795,7.772,117.068,9.161,116.147,10.437z M116.067,3.734l0.032,0.032
			c0.017-0.065,0.032-0.129,0.065-0.178L116.067,3.734z M116.163,10.033l-0.017,0.016h0.017V10.033z M116.276,9.193
			c0.081-0.048,0.114-0.162,0.129-0.258L116.276,9.193z M116.583,3.75c-0.049,0.048-0.097,0.113-0.097,0.194
			c0,0.032,0,0.048,0.017,0.081C116.534,3.944,116.551,3.847,116.583,3.75z M117.245,4.961c0-0.307-0.08-1.001-0.258-1.228
			c-0.16,0.145-0.258,0.339-0.258,0.549c0,0.339,0.211,0.727,0.501,0.888C117.23,5.107,117.245,5.026,117.245,4.961z M117.617,6.754
			c-0.243,0.791-0.517,1.551-0.856,2.31c0.339-0.372,0.84-1.874,0.905-2.391C117.633,6.69,117.633,6.722,117.617,6.754z
			 M116.857,7.933c0.081-0.162,0.146-0.307,0.178-0.468l-0.032,0.016L116.857,7.933z M117.085,7.223
			c-0.049,0.065-0.065,0.145-0.049,0.21L117.085,7.223z M117.116,7.142c0.017-0.016,0.017-0.032,0.017-0.048L117.116,7.142z
			 M117.149,7.013c0,0.016,0,0.048-0.017,0.065c0.017-0.016,0.032-0.048,0.032-0.065H117.149z M117.197,6.819l0.048-0.065h-0.016
			L117.197,6.819z M117.278,6.625l-0.017-0.032v0.048L117.278,6.625z M117.697,6.496h-0.016V6.56h0.016V6.496z M117.731,6.318
			h-0.017v0.048h0.017V6.318z M118.667,8.272l-0.775,2.358l-0.177,0.646c0.146-0.291,0.242-0.63,0.34-0.953
			c0.274-0.856,0.581-1.696,0.823-2.568C118.765,7.885,118.716,8.111,118.667,8.272z M118.085,11.584
			c0-0.032-0.016-0.048-0.016-0.081c-0.016,0.032-0.016,0.048-0.016,0.081H118.085z M119.119,8.03l-0.791,2.326
			c-0.114,0.355-0.162,0.743-0.243,1.098l0.033-0.032c0.145-0.485,0.258-0.985,0.419-1.47c0.211-0.646,0.517-1.292,0.63-1.971
			L119.119,8.03z M118.457,11.551c0.162-0.808,0.452-1.599,0.726-2.391c0.163-0.485,0.372-0.985,0.421-1.502h-0.033
			c-0.388,1.082-0.742,2.197-1.082,3.295c-0.097,0.323-0.162,0.646-0.162,0.985c0,0.097,0,0.194,0.016,0.291
			C118.392,12.004,118.408,11.778,118.457,11.551z M118.425,10.792v-0.016l-0.017,0.016H118.425z M118.586,10.211l0.016-0.016
			h-0.016V10.211z M118.619,10.082l0.017,0.016v-0.016H118.619z M118.635,11.632h-0.017c0,0.016,0,0.016,0.017,0.032V11.632z
			 M118.651,9.985l0.016,0.016V9.985H118.651z M118.667,11.471h-0.016v0.032h0.016V11.471z M118.765,11.115h0.016v-0.048h-0.016
			V11.115z M118.812,10.921h-0.017v0.048h0.017V10.921z M118.877,9.339l-0.017,0.016h0.017V9.339z M118.877,10.711
			c-0.017,0-0.017,0.016-0.017,0.032h0.017V10.711z M118.894,7.659v0.065c0.016-0.016,0.016-0.048,0.016-0.065H118.894z
			 M118.909,10.598l-0.016,0.016h0.016V10.598z M118.925,10.485l0.033,0.016c0-0.016,0-0.032-0.017-0.048L118.925,10.485z
			 M118.99,10.34h-0.016v0.048h0.016V10.34z M119.088,10.033h-0.017c0,0.016,0,0.016,0.017,0.016V10.033z M119.119,8.644
			l-0.016,0.016h0.016V8.644z M119.119,9.936c-0.016,0-0.016,0-0.016,0.016L119.119,9.936z M119.2,7.901h-0.032v0.048L119.2,7.901z
			 M119.183,9.742l0.017-0.016h-0.017V9.742z M119.217,9.645c0.016,0,0.016-0.016,0.016-0.032h-0.016V9.645z M119.248,9.532h0.017
			V9.5h-0.017V9.532z M119.442,9.015h-0.016v0.032h0.016V9.015z M119.459,8.935h0.017V8.919h-0.017V8.935z M119.491,8.806
			l0.016,0.016V8.806H119.491z M119.717,8.176V8.159L119.7,8.176H119.717z"/>
		<path class="st0" d="M120.332,10.792c0-0.872,0.565-2.794,0.823-3.683c0.129-0.404,0.275-0.888,0.275-1.324
			c0-0.081-0.032-0.162-0.048-0.242c0.031-0.081,0.096-0.081,0.16-0.081c0.033,0,0.194,0.081,0.227,0.097
			c0.388,0.194,0.662,0.614,0.662,1.066c0,0.937-0.63,2.924-0.954,3.86l0.033,0.016c0.905-1.244,1.76-2.504,2.762-3.667
			c0.388-0.452,0.775-0.905,1.18-1.341c0.129-0.129,0.242-0.258,0.419-0.307c0.307,0.048,0.905,0.372,0.905,0.743
			c0,0.21-0.258,0.872-0.339,1.098c-0.437,1.131-1.6,4.41-1.6,5.492c0,0.162,0.049,0.307,0.194,0.388
			c0,0.097-0.065,0.162-0.16,0.162c-0.921,0-1.098-0.775-1.098-1.534c0-1.018,0.5-2.407,0.807-3.392
			c0.146-0.485,0.356-0.937,0.534-1.405c-0.048,0.032-0.097,0.048-0.146,0.097c-0.711,0.727-1.308,1.615-1.84,2.471
			c-0.34,0.549-1.163,1.938-1.584,2.31c-0.096,0.081-0.145,0.097-0.258,0.097C120.816,11.713,120.332,11.277,120.332,10.792z
			 M121.818,10.905c-0.017,0.016-0.032,0.032-0.032,0.065L121.818,10.905z M122.076,9.985c0.097-0.113,0.162-0.226,0.242-0.339
			C122.222,9.742,122.141,9.872,122.076,9.985z M122.253,10.324c0.017-0.048,0.049-0.081,0.065-0.113
			c-0.048,0.048-0.113,0.129-0.129,0.194L122.253,10.324z M122.27,10.114c0.017,0,0.017,0,0.017-0.016L122.27,10.114z
			 M122.464,9.452c0.032-0.097,0.097-0.129,0.162-0.21c0.129-0.145,0.209-0.323,0.323-0.485c0.726-1.082,1.664-2.003,2.487-3.02
			l0.048-0.065l-0.031-0.032c-0.824,0.872-1.615,1.777-2.31,2.762c-0.258,0.372-0.549,0.727-0.743,1.131L122.464,9.452z
			 M122.432,9.904V9.888l-0.016,0.016H122.432z M122.739,9.581c-0.114,0.129-0.211,0.258-0.275,0.404
			C122.561,9.855,122.658,9.726,122.739,9.581z M122.706,9.403h-0.048c0,0.016-0.017,0.048-0.032,0.065h0.08l0.017-0.048
			L122.706,9.403z M122.739,9.565c0.08-0.097,0.16-0.21,0.209-0.339C122.884,9.339,122.787,9.435,122.739,9.565z M122.77,9.258
			v0.048c0,0.016,0,0.032,0.017,0.048c0.017-0.016,0.017-0.048,0.017-0.065h0.065c-0.017-0.016-0.049-0.016-0.065-0.016
			L122.77,9.258z M122.77,9.678V9.71l0.017-0.016L122.77,9.678z M122.835,9.161v0.032c0,0,0.033,0.081,0.033,0.097V9.193
			c0.016,0,0.031,0,0.048-0.016c-0.017,0-0.048-0.016-0.048-0.016H122.835z M122.916,9.048v0.048c0,0.016,0,0.048,0.017,0.065
			c0-0.048,0.016-0.081,0.065-0.081c-0.017-0.016-0.033-0.016-0.049-0.016L122.916,9.048z M122.981,8.951v0.032
			c0.017,0.032,0.017,0.065,0.017,0.097c0.016-0.032,0.016-0.065,0.016-0.097l0.032-0.016c-0.017,0-0.048-0.016-0.048-0.016H122.981
			z M123.062,9.096l0.016-0.065l-0.049,0.097L123.062,9.096z M123.821,8.079l0.065-0.097h0.032l0.08-0.081
			c0.017-0.048,0.163-0.242,0.211-0.275c0.032-0.097,0.42-0.565,0.517-0.614l-0.032-0.016V6.932
			c-0.178,0.194-0.323,0.404-0.533,0.549c0.08-0.194,0.871-1.05,1.049-1.276c-0.808,0.808-1.518,1.696-2.164,2.633v0.048
			l0.017,0.065c0.145-0.226,0.258-0.372,0.436-0.581c-0.017,0.065-0.032,0.113-0.065,0.162l0.113-0.065h0.033
			c0.065-0.081,0.129-0.162,0.16-0.258l0.049-0.032c0.016-0.032,0.032-0.065,0.065-0.081L123.821,8.079z M123.191,8.886
			c0.031-0.032,0.065-0.048,0.096-0.065V8.806c0.017-0.016,0.033-0.081,0.033-0.113L123.191,8.886z M123.304,8.822v0.032
			c0.017-0.016,0.017-0.032,0.017-0.048L123.304,8.822z M124.596,11.471h0.017v-0.048h-0.017V11.471z M124.613,11.309l0.048,0.016
			c0.032-0.145,0.048-0.275,0.065-0.42L124.613,11.309z M126.422,5.947c-0.679,1.357-1.326,3.44-1.697,4.926
			c0.032-0.032,0.048-0.065,0.065-0.097c0.275-0.727,0.436-1.502,0.694-2.229c0.307-0.872,0.679-1.712,0.986-2.584L126.422,5.947z
			 M125.048,6.641c0.032-0.081,0.129-0.113,0.129-0.21l0.177-0.242l-0.629,0.695c0.048-0.032,0.081-0.065,0.146-0.065
			C124.936,6.754,124.967,6.69,125.048,6.641z M125.13,7.562l0.016-0.016h-0.016V7.562z M125.242,7.255
			c0,0.016-0.017,0.016-0.017,0.032h0.017V7.255z M125.307,7.045l-0.048,0.113l0.048,0.016V7.045z M125.355,7.013
			c0.146-0.323,0.323-0.646,0.486-0.969V5.963c-0.211,0.339-0.372,0.711-0.534,1.082L125.355,7.013z M125.791,6.786
			c0.08-0.178,0.178-0.355,0.243-0.533C125.921,6.415,125.856,6.593,125.791,6.786z M126.147,5.995l-0.017-0.016v0.065
			L126.147,5.995z"/>
		<path class="st0" d="M127.327,10.421c0-0.598,0.403-1.018,0.969-1.018s0.954,0.42,0.954,1.018c0,0.581-0.372,1.018-0.969,1.018
			C127.715,11.438,127.327,11.002,127.327,10.421z"/>
	</g>
	<g>
		<path class="st0" d="M73.14,8.882c0.039-0.07,0.089-0.118,0.151-0.145c0.062-0.027,0.115-0.031,0.157-0.012
			c0.043,0.019,0.072,0.061,0.088,0.122c0.015,0.062-0.004,0.148-0.058,0.256c-0.07,0.155-0.177,0.363-0.32,0.623
			c-0.144,0.26-0.308,0.52-0.495,0.78c-0.186,0.26-0.39,0.496-0.611,0.71c-0.221,0.213-0.44,0.355-0.657,0.425
			c-0.21,0.085-0.456,0.126-0.739,0.122c-0.283-0.004-0.557-0.064-0.82-0.18c-0.248-0.116-0.442-0.289-0.581-0.518
			c-0.14-0.229-0.215-0.483-0.227-0.762c-0.011-0.279,0.043-0.566,0.163-0.861c0.121-0.295,0.312-0.566,0.576-0.814
			c0.062-0.054,0.124-0.083,0.186-0.088c0.062-0.004,0.112,0.006,0.151,0.029c0.046,0.031,0.116,0.099,0.209,0.204
			c0.093,0.105,0.155,0.188,0.186,0.25c-0.039-0.031-0.085-0.041-0.14-0.029c-0.054,0.011-0.097,0.033-0.128,0.064
			c0.023-0.016,0.058-0.025,0.105-0.029c0.046-0.004,0.085,0.01,0.116,0.041c-0.054,0.016-0.107,0.041-0.157,0.076
			c-0.051,0.035-0.095,0.08-0.134,0.134c0.038-0.031,0.075-0.051,0.11-0.058s0.071-0.016,0.11-0.023
			c-0.085,0.062-0.176,0.14-0.273,0.232c-0.097,0.093-0.18,0.198-0.25,0.314c-0.07,0.116-0.122,0.244-0.157,0.384
			s-0.033,0.283,0.006,0.43c0.039,0.14,0.108,0.26,0.209,0.361s0.217,0.175,0.349,0.221c0.132,0.046,0.269,0.064,0.413,0.053
			c0.143-0.012,0.276-0.058,0.396-0.14s0.215-0.198,0.285-0.349c0.07-0.151,0.097-0.347,0.081-0.588
			c-0.016-0.202-0.086-0.411-0.209-0.628c-0.125-0.217-0.322-0.415-0.594-0.593c-0.031-0.016-0.072-0.045-0.122-0.088
			c-0.051-0.042-0.091-0.071-0.122-0.087c-0.256-0.217-0.407-0.428-0.454-0.634c-0.047-0.205-0.008-0.384,0.116-0.535
			c0.124-0.151,0.328-0.269,0.611-0.355c0.283-0.085,0.626-0.113,1.03-0.081c0.194,0.016,0.374,0.046,0.541,0.093
			c0.167,0.047,0.304,0.116,0.413,0.21c0.108,0.093,0.18,0.213,0.215,0.36c0.035,0.148,0.018,0.33-0.052,0.547
			c0.015-0.086,0.015-0.171,0-0.256c-0.016,0.108-0.053,0.207-0.111,0.297c-0.058,0.089-0.135,0.161-0.232,0.215
			c-0.097,0.054-0.208,0.088-0.332,0.099c-0.124,0.012-0.256-0.009-0.395-0.064c0.124-0.008,0.199-0.045,0.227-0.111
			c0.027-0.066,0.002-0.141-0.076-0.227c0.039,0.047,0.054,0.097,0.047,0.151c-0.008,0.054-0.031,0.097-0.07,0.128
			c0.031-0.07,0.037-0.132,0.018-0.186c-0.019-0.054-0.053-0.105-0.099-0.152c-0.046-0.046-0.099-0.085-0.157-0.116
			c-0.058-0.031-0.11-0.054-0.157-0.07c-0.101-0.031-0.19-0.045-0.268-0.041c-0.078,0.004-0.134,0.021-0.169,0.053
			c-0.035,0.031-0.043,0.074-0.023,0.128c0.019,0.054,0.076,0.113,0.169,0.175c0.016,0.016,0.062,0.048,0.14,0.099
			c0.078,0.05,0.124,0.083,0.14,0.098c0.326,0.233,0.566,0.477,0.722,0.733c0.155,0.256,0.24,0.508,0.256,0.756
			c0.178-0.256,0.33-0.496,0.454-0.722C73.02,9.088,73.101,8.945,73.14,8.882z M70.452,9.115c-0.008,0.008-0.016,0.009-0.023,0.006
			c-0.008-0.004-0.008-0.009,0-0.018c0.008-0.008,0.015-0.009,0.023-0.006C70.46,9.102,70.46,9.108,70.452,9.115z M70.452,9.197
			c-0.016-0.008-0.023-0.018-0.023-0.029c0-0.011,0.008-0.018,0.023-0.018c0.016,0.008,0.023,0.018,0.023,0.029
			C70.475,9.191,70.468,9.197,70.452,9.197z M70.603,9.115c0.008,0.039-0.011,0.054-0.058,0.046
			c-0.047-0.008-0.078-0.019-0.093-0.035c0.023-0.023,0.053-0.041,0.087-0.052C70.574,9.063,70.596,9.077,70.603,9.115z
			 M70.801,8.871c0.016,0.008,0.074,0.05,0.175,0.128c0.101,0.078,0.202,0.19,0.303,0.338c0.101,0.147,0.182,0.326,0.244,0.535
			c0.062,0.21,0.066,0.446,0.011,0.71c0.07-0.217,0.083-0.423,0.041-0.616c-0.043-0.194-0.111-0.368-0.204-0.524
			c-0.093-0.155-0.194-0.283-0.303-0.384C70.96,8.956,70.871,8.894,70.801,8.871z M72.128,8.452
			c0.016-0.155-0.074-0.291-0.267-0.407c-0.194-0.116-0.435-0.17-0.722-0.163c0.039,0,0.108,0.008,0.209,0.023
			c0.101,0.016,0.205,0.043,0.314,0.081c0.108,0.039,0.207,0.095,0.297,0.169C72.048,8.229,72.104,8.328,72.128,8.452z
			 M71.744,10.151c0.008-0.078,0.004-0.161-0.012-0.25c-0.016-0.089-0.037-0.175-0.064-0.256s-0.06-0.151-0.099-0.209
			c-0.039-0.058-0.081-0.099-0.128-0.123c0.046,0.031,0.087,0.08,0.122,0.146c0.035,0.066,0.066,0.14,0.093,0.221
			c0.027,0.081,0.048,0.165,0.064,0.25C71.736,10.015,71.744,10.089,71.744,10.151z M71.558,11.093
			c0.085-0.031,0.147-0.099,0.186-0.204c0.039-0.105,0.064-0.215,0.076-0.332c0.011-0.116,0.013-0.225,0.006-0.326
			c-0.008-0.101-0.016-0.17-0.023-0.209c0.008,0.078,0.013,0.167,0.018,0.267c0.004,0.101-0.002,0.204-0.018,0.308
			c-0.016,0.105-0.043,0.202-0.081,0.291C71.682,10.979,71.627,11.047,71.558,11.093z M72.186,8.022
			c-0.008-0.039-0.035-0.074-0.081-0.105c-0.047-0.031-0.103-0.056-0.169-0.075c-0.066-0.019-0.132-0.035-0.197-0.047
			c-0.066-0.011-0.122-0.018-0.169-0.018c0.225,0.031,0.38,0.072,0.465,0.123C72.12,7.95,72.17,7.99,72.186,8.022z M72.116,8.091
			c0.016-0.046-0.025-0.095-0.122-0.145c-0.097-0.051-0.219-0.083-0.366-0.099c0.07,0.016,0.155,0.045,0.256,0.087
			C71.984,7.977,72.061,8.029,72.116,8.091z"/>
	</g>
</g>
</svg>
