<?xml version="1.0" encoding="utf-8"?>
<!-- Generator: Adobe Illustrator 22.1.0, SVG Export Plug-In . SVG Version: 6.00 Build 0)  -->
<svg version="1.1" id="Layer_1" xmlns="http://www.w3.org/2000/svg" xmlns:xlink="http://www.w3.org/1999/xlink" x="0px" y="0px"
	 viewBox="0 0 175 150" style="enable-background:new 0 0 175 150;" xml:space="preserve">
<style type="text/css">
	.st0{opacity:0.75;fill-rule:evenodd;clip-rule:evenodd;fill:#7FA8E0;enable-background:new    ;}
	.st1{fill:#FFFFFF;}
</style>
<path class="st0" d="M4.9,100.425c0,0,104.026-145.702,140.978-86.106c36.953,59.596,44.004,124.807-28.537,134.095
	C44.799,157.702-11.897,124.175,4.9,100.425z"/>
<g>
	<path class="st1" d="M67.632,44.479l1.775-3.844h1.922l-2.801,5.438v3.094h-1.787v-3.094l-2.801-5.438h1.928L67.632,44.479z"/>
	<path class="st1" d="M78.646,45.094c0,0.84-0.148,1.576-0.445,2.209s-0.722,1.121-1.274,1.465s-1.187,0.516-1.901,0.516
		c-0.707,0-1.338-0.17-1.893-0.51s-0.984-0.825-1.289-1.456s-0.459-1.356-0.463-2.177v-0.422c0-0.84,0.151-1.579,0.454-2.218
		s0.73-1.129,1.283-1.471s1.185-0.513,1.896-0.513s1.343,0.171,1.896,0.513s0.98,0.832,1.283,1.471s0.454,1.376,0.454,2.212V45.094z
		 M76.865,44.708c0-0.895-0.16-1.574-0.48-2.039s-0.777-0.697-1.371-0.697c-0.59,0-1.045,0.229-1.365,0.688
		s-0.482,1.132-0.486,2.019v0.416c0,0.871,0.16,1.547,0.48,2.027s0.781,0.721,1.383,0.721c0.59,0,1.043-0.231,1.359-0.694
		s0.477-1.138,0.48-2.024V44.708z"/>
	<path class="st1" d="M86.081,40.635v5.619c0,0.934-0.293,1.672-0.877,2.215s-1.381,0.814-2.393,0.814
		c-0.996,0-1.787-0.264-2.373-0.791s-0.885-1.252-0.896-2.174v-5.684H81.3v5.631c0,0.559,0.133,0.966,0.4,1.222
		s0.639,0.384,1.111,0.384c0.988,0,1.49-0.52,1.506-1.559v-5.678H86.081z"/>
	<path class="st1" d="M90.38,46.043h-1.4v3.123h-1.758v-8.531h3.17c1.008,0,1.785,0.225,2.332,0.674s0.82,1.084,0.82,1.904
		c0,0.582-0.125,1.067-0.377,1.456s-0.635,0.698-1.146,0.929l1.846,3.486v0.082h-1.887L90.38,46.043z M88.979,44.62h1.418
		c0.441,0,0.783-0.112,1.025-0.337s0.363-0.534,0.363-0.929c0-0.402-0.113-0.719-0.342-0.949s-0.58-0.346-1.053-0.346h-1.412V44.62z
		"/>
	<path class="st1" d="M100.708,40.635h1.758v5.906c0,0.543-0.12,1.022-0.36,1.438s-0.579,0.737-1.017,0.964s-0.932,0.34-1.482,0.34
		c-0.902,0-1.605-0.229-2.109-0.688s-0.756-1.108-0.756-1.948h1.77c0,0.418,0.088,0.727,0.264,0.926s0.453,0.299,0.832,0.299
		c0.336,0,0.604-0.115,0.803-0.346s0.299-0.559,0.299-0.984V40.635z"/>
	<path class="st1" d="M110.68,45.094c0,0.84-0.148,1.576-0.445,2.209s-0.722,1.121-1.274,1.465s-1.187,0.516-1.901,0.516
		c-0.707,0-1.338-0.17-1.893-0.51s-0.984-0.825-1.289-1.456s-0.459-1.356-0.463-2.177v-0.422c0-0.84,0.151-1.579,0.454-2.218
		s0.73-1.129,1.283-1.471s1.185-0.513,1.896-0.513s1.343,0.171,1.896,0.513s0.98,0.832,1.283,1.471s0.454,1.376,0.454,2.212V45.094z
		 M108.898,44.708c0-0.895-0.16-1.574-0.48-2.039s-0.777-0.697-1.371-0.697c-0.59,0-1.045,0.229-1.365,0.688
		s-0.482,1.132-0.486,2.019v0.416c0,0.871,0.16,1.547,0.48,2.027s0.781,0.721,1.383,0.721c0.59,0,1.043-0.231,1.359-0.694
		s0.477-1.138,0.48-2.024V44.708z"/>
	<path class="st1" d="M111.657,49.167v-8.531h2.988c1.035,0,1.82,0.198,2.355,0.595s0.803,0.978,0.803,1.743
		c0,0.418-0.107,0.786-0.322,1.104s-0.514,0.552-0.896,0.7c0.438,0.109,0.782,0.33,1.034,0.662s0.378,0.738,0.378,1.219
		c0,0.82-0.262,1.441-0.785,1.863s-1.27,0.637-2.238,0.645H111.657z M113.415,44.209h1.301c0.887-0.016,1.33-0.369,1.33-1.061
		c0-0.387-0.112-0.665-0.337-0.835s-0.579-0.255-1.063-0.255h-1.23V44.209z M113.415,45.452v2.303h1.506
		c0.414,0,0.737-0.099,0.97-0.296s0.349-0.47,0.349-0.817c0-0.781-0.404-1.178-1.213-1.189H113.415z"/>
	<path class="st1" d="M118.985,43.536c0-0.27,0.091-0.488,0.272-0.656s0.409-0.252,0.683-0.252c0.277,0,0.507,0.084,0.688,0.252
		s0.272,0.387,0.272,0.656c0,0.266-0.09,0.481-0.27,0.647s-0.41,0.249-0.691,0.249c-0.277,0-0.506-0.083-0.686-0.249
		S118.985,43.801,118.985,43.536z M118.985,48.334c0-0.27,0.091-0.488,0.272-0.656s0.409-0.252,0.683-0.252
		c0.277,0,0.507,0.084,0.688,0.252s0.272,0.387,0.272,0.656c0,0.266-0.09,0.481-0.27,0.647s-0.41,0.249-0.691,0.249
		c-0.277,0-0.506-0.083-0.686-0.249S118.985,48.6,118.985,48.334z"/>
	<path class="st1" d="M65.244,58.167h-0.879v-4.266h0.879V58.167z"/>
	<path class="st1" d="M65.721,56.558c0-0.494,0.111-0.888,0.333-1.181s0.525-0.439,0.91-0.439c0.309,0,0.563,0.115,0.765,0.346
		v-1.617h0.85v4.5h-0.765l-0.041-0.337c-0.211,0.264-0.482,0.396-0.814,0.396c-0.373,0-0.672-0.147-0.898-0.441
		S65.721,57.082,65.721,56.558z M66.568,56.618c0,0.298,0.052,0.527,0.155,0.686c0.104,0.159,0.254,0.238,0.451,0.238
		c0.262,0,0.446-0.111,0.554-0.333v-1.257c-0.105-0.222-0.288-0.333-0.548-0.333C66.772,55.621,66.568,55.953,66.568,56.618z"/>
	<path class="st1" d="M70.543,58.225c-0.465,0-0.843-0.143-1.135-0.428s-0.438-0.665-0.438-1.14v-0.082
		c0-0.318,0.062-0.603,0.185-0.854s0.297-0.444,0.523-0.58s0.483-0.204,0.772-0.204c0.434,0,0.775,0.137,1.024,0.41
		s0.374,0.661,0.374,1.163v0.346h-2.019c0.027,0.207,0.11,0.373,0.248,0.498s0.312,0.188,0.523,0.188
		c0.326,0,0.581-0.118,0.765-0.354l0.416,0.466c-0.127,0.18-0.299,0.32-0.516,0.42S70.806,58.225,70.543,58.225z M70.446,55.621
		c-0.168,0-0.304,0.057-0.409,0.171s-0.171,0.276-0.201,0.488h1.178v-0.068c-0.004-0.188-0.055-0.334-0.152-0.437
		S70.626,55.621,70.446,55.621z"/>
	<path class="st1" d="M72.956,54.997l0.026,0.366c0.227-0.283,0.53-0.425,0.911-0.425c0.336,0,0.586,0.099,0.75,0.296
		s0.248,0.492,0.252,0.885v2.048h-0.847v-2.032c0-0.18-0.039-0.311-0.117-0.392c-0.078-0.082-0.208-0.122-0.39-0.122
		c-0.238,0-0.417,0.102-0.536,0.305v2.241h-0.847v-3.17H72.956z"/>
	<path class="st1" d="M76.401,54.217v0.779h0.542v0.621h-0.542V57.2c0,0.117,0.022,0.201,0.067,0.252s0.131,0.076,0.258,0.076
		c0.094,0,0.177-0.007,0.25-0.021v0.642c-0.167,0.051-0.337,0.076-0.513,0.076c-0.594,0-0.896-0.3-0.908-0.899v-1.708h-0.463v-0.621
		h0.463v-0.779H76.401z"/>
	<path class="st1" d="M77.259,54.176c0-0.127,0.043-0.231,0.127-0.313c0.086-0.082,0.201-0.123,0.348-0.123
		c0.145,0,0.26,0.041,0.346,0.123s0.129,0.187,0.129,0.313c0,0.129-0.043,0.234-0.131,0.316c-0.086,0.082-0.201,0.123-0.344,0.123
		s-0.258-0.041-0.344-0.123C77.302,54.411,77.259,54.305,77.259,54.176z M78.158,58.167h-0.85v-3.17h0.85V58.167z"/>
	<path class="st1" d="M78.936,58.167v-2.549h-0.471v-0.621h0.471v-0.27c0-0.355,0.103-0.631,0.307-0.828s0.49-0.294,0.857-0.294
		c0.117,0,0.26,0.02,0.43,0.058l-0.008,0.651c-0.07-0.018-0.156-0.026-0.258-0.026c-0.318,0-0.479,0.151-0.479,0.452v0.257h0.631
		v0.621h-0.631v2.549H78.936z"/>
	<path class="st1" d="M81.889,56.968l0.586-1.972h0.908l-1.274,3.662l-0.07,0.167c-0.189,0.414-0.502,0.621-0.938,0.621
		c-0.123,0-0.248-0.019-0.375-0.056V58.75l0.129,0.003c0.16,0,0.28-0.024,0.358-0.073c0.08-0.049,0.142-0.13,0.187-0.243l0.1-0.261
		l-1.11-3.179h0.911L81.889,56.968z"/>
	<path class="st1" d="M86.639,56.347l-1.701-0.595v-0.814l2.551,1.069v0.688l-2.551,1.072v-0.817L86.639,56.347z"/>
	<path class="st1" d="M92.61,56.746c-0.033,0.459-0.203,0.82-0.509,1.084s-0.708,0.396-1.208,0.396
		c-0.547,0-0.978-0.184-1.291-0.552s-0.471-0.874-0.471-1.516v-0.261c0-0.41,0.072-0.771,0.217-1.084s0.352-0.552,0.62-0.719
		s0.581-0.25,0.937-0.25c0.492,0,0.889,0.132,1.189,0.396s0.475,0.634,0.521,1.11h-0.879c-0.021-0.275-0.099-0.475-0.23-0.599
		s-0.332-0.186-0.602-0.186c-0.293,0-0.513,0.105-0.658,0.315s-0.221,0.536-0.225,0.977v0.322c0,0.461,0.07,0.798,0.21,1.011
		s0.36,0.319,0.661,0.319c0.271,0,0.474-0.062,0.607-0.186s0.211-0.316,0.23-0.576H92.61z"/>
	<path class="st1" d="M92.849,56.552c0-0.314,0.061-0.595,0.182-0.841s0.296-0.437,0.522-0.571c0.229-0.135,0.492-0.202,0.793-0.202
		c0.428,0,0.777,0.131,1.047,0.393c0.271,0.262,0.422,0.617,0.453,1.066l0.006,0.217c0,0.486-0.136,0.876-0.407,1.17
		s-0.636,0.441-1.093,0.441s-0.822-0.146-1.094-0.439c-0.273-0.293-0.409-0.691-0.409-1.195V56.552z M93.696,56.612
		c0,0.301,0.057,0.532,0.17,0.691c0.113,0.16,0.275,0.239,0.486,0.239c0.205,0,0.365-0.079,0.48-0.236
		c0.115-0.157,0.173-0.409,0.173-0.755c0-0.295-0.058-0.524-0.173-0.687c-0.115-0.163-0.277-0.244-0.486-0.244
		c-0.207,0-0.367,0.081-0.48,0.242C93.753,56.024,93.696,56.274,93.696,56.612z"/>
	<path class="st1" d="M97.017,54.997l0.026,0.354c0.225-0.275,0.528-0.413,0.911-0.413c0.408,0,0.688,0.161,0.841,0.483
		c0.223-0.322,0.54-0.483,0.952-0.483c0.344,0,0.6,0.1,0.768,0.3s0.252,0.501,0.252,0.904v2.024h-0.85V56.14
		c0-0.18-0.035-0.312-0.105-0.395c-0.07-0.083-0.194-0.125-0.372-0.125c-0.254,0-0.43,0.122-0.527,0.364l0.003,2.182h-0.847v-2.023
		c0-0.184-0.036-0.317-0.108-0.399c-0.072-0.083-0.195-0.124-0.369-0.124c-0.24,0-0.414,0.1-0.521,0.299v2.247h-0.847v-3.17H97.017z
		"/>
	<path class="st1" d="M102.061,54.997l0.027,0.354c0.225-0.275,0.527-0.413,0.91-0.413c0.408,0,0.689,0.161,0.842,0.483
		c0.223-0.322,0.539-0.483,0.951-0.483c0.344,0,0.6,0.1,0.768,0.3s0.252,0.501,0.252,0.904v2.024h-0.85V56.14
		c0-0.18-0.035-0.312-0.105-0.395c-0.07-0.083-0.193-0.125-0.371-0.125c-0.254,0-0.43,0.122-0.527,0.364l0.002,2.182h-0.846v-2.023
		c0-0.184-0.037-0.317-0.109-0.399c-0.072-0.083-0.195-0.124-0.369-0.124c-0.24,0-0.414,0.1-0.521,0.299v2.247h-0.846v-3.17H102.061
		z"/>
	<path class="st1" d="M108.211,57.844c-0.209,0.254-0.498,0.381-0.867,0.381c-0.34,0-0.599-0.098-0.778-0.293
		c-0.178-0.195-0.27-0.481-0.273-0.858v-2.077h0.847v2.05c0,0.331,0.15,0.496,0.451,0.496c0.287,0,0.484-0.1,0.592-0.299v-2.247
		h0.85v3.17h-0.797L108.211,57.844z"/>
	<path class="st1" d="M110.299,54.997l0.026,0.366c0.227-0.283,0.53-0.425,0.911-0.425c0.336,0,0.586,0.099,0.75,0.296
		s0.248,0.492,0.252,0.885v2.048h-0.847v-2.032c0-0.18-0.039-0.311-0.117-0.392c-0.078-0.082-0.208-0.122-0.39-0.122
		c-0.238,0-0.417,0.102-0.536,0.305v2.241h-0.847v-3.17H110.299z"/>
	<path class="st1" d="M112.724,54.176c0-0.127,0.042-0.231,0.128-0.313c0.084-0.082,0.2-0.123,0.347-0.123
		c0.145,0,0.26,0.041,0.346,0.123s0.129,0.187,0.129,0.313c0,0.129-0.044,0.234-0.13,0.316c-0.088,0.082-0.202,0.123-0.345,0.123
		s-0.258-0.041-0.345-0.123S112.724,54.305,112.724,54.176z M113.624,58.167h-0.85v-3.17h0.85V58.167z"/>
	<path class="st1" d="M115.489,57.542c0.156,0,0.283-0.043,0.381-0.129s0.148-0.2,0.152-0.343h0.794
		c-0.002,0.215-0.061,0.412-0.176,0.59s-0.273,0.317-0.473,0.416c-0.201,0.099-0.422,0.148-0.664,0.148
		c-0.453,0-0.811-0.144-1.072-0.432s-0.393-0.686-0.393-1.194v-0.056c0-0.488,0.13-0.878,0.39-1.169s0.616-0.437,1.069-0.437
		c0.396,0,0.714,0.113,0.953,0.338s0.361,0.526,0.365,0.901h-0.794c-0.004-0.165-0.055-0.299-0.152-0.402s-0.227-0.155-0.387-0.155
		c-0.197,0-0.347,0.072-0.446,0.216c-0.102,0.144-0.151,0.377-0.151,0.7v0.088c0,0.327,0.05,0.562,0.149,0.704
		C115.135,57.471,115.286,57.542,115.489,57.542z"/>
	<path class="st1" d="M118.987,58.167c-0.039-0.076-0.067-0.171-0.085-0.284c-0.205,0.229-0.472,0.343-0.8,0.343
		c-0.311,0-0.568-0.09-0.771-0.27c-0.205-0.18-0.307-0.406-0.307-0.68c0-0.336,0.125-0.594,0.373-0.773
		c0.25-0.18,0.609-0.271,1.08-0.272h0.39v-0.182c0-0.146-0.038-0.264-0.112-0.352c-0.076-0.088-0.194-0.132-0.356-0.132
		c-0.143,0-0.255,0.034-0.335,0.103c-0.082,0.068-0.122,0.162-0.122,0.281h-0.847c0-0.184,0.057-0.354,0.17-0.51
		s0.273-0.279,0.48-0.368s0.439-0.133,0.697-0.133c0.391,0,0.7,0.098,0.93,0.294s0.345,0.472,0.345,0.828v1.374
		c0.002,0.301,0.044,0.528,0.126,0.683v0.05H118.987z M118.287,57.578c0.125,0,0.24-0.028,0.346-0.083s0.184-0.13,0.234-0.224
		v-0.545h-0.316c-0.424,0-0.649,0.146-0.677,0.439l-0.003,0.05c0,0.105,0.037,0.192,0.111,0.261S118.158,57.578,118.287,57.578z"/>
	<path class="st1" d="M121.23,54.217v0.779h0.542v0.621h-0.542V57.2c0,0.117,0.022,0.201,0.067,0.252s0.131,0.076,0.258,0.076
		c0.094,0,0.177-0.007,0.249-0.021v0.642c-0.166,0.051-0.337,0.076-0.513,0.076c-0.594,0-0.896-0.3-0.908-0.899v-1.708h-0.463
		v-0.621h0.463v-0.779H121.23z"/>
	<path class="st1" d="M123.553,58.225c-0.465,0-0.844-0.143-1.136-0.428s-0.438-0.665-0.438-1.14v-0.082
		c0-0.318,0.062-0.603,0.185-0.854s0.298-0.444,0.522-0.58c0.227-0.136,0.483-0.204,0.772-0.204c0.434,0,0.774,0.137,1.024,0.41
		c0.248,0.273,0.373,0.661,0.373,1.163v0.346h-2.019c0.027,0.207,0.11,0.373,0.247,0.498c0.139,0.125,0.312,0.188,0.523,0.188
		c0.326,0,0.581-0.118,0.765-0.354l0.416,0.466c-0.127,0.18-0.299,0.32-0.516,0.42S123.816,58.225,123.553,58.225z M123.456,55.621
		c-0.168,0-0.305,0.057-0.408,0.171c-0.105,0.114-0.172,0.276-0.201,0.488h1.178v-0.068c-0.004-0.188-0.055-0.334-0.152-0.437
		S123.636,55.621,123.456,55.621z"/>
	<path class="st1" d="M65.256,65.015l0.132,0.662l0.161-0.633l0.926-3.144H66.8l0.914,3.144l0.158,0.639l0.141-0.668l0.771-3.114
		h0.369l-1.093,4.266h-0.346l-0.967-3.337l-0.108-0.422l-0.105,0.422l-0.99,3.337h-0.346l-1.09-4.266h0.369L65.256,65.015z"/>
	<path class="st1" d="M69.963,63.533c0.115-0.189,0.263-0.336,0.442-0.439s0.376-0.155,0.589-0.155c0.34,0,0.593,0.096,0.759,0.287
		s0.25,0.479,0.252,0.861v2.08h-0.349v-2.083c-0.002-0.283-0.062-0.494-0.18-0.633s-0.307-0.208-0.567-0.208
		c-0.217,0-0.409,0.068-0.576,0.204s-0.291,0.319-0.371,0.549v2.171h-0.349v-4.5h0.349V63.533z"/>
	<path class="st1" d="M74.759,66.167c-0.035-0.1-0.058-0.247-0.067-0.442c-0.123,0.16-0.28,0.284-0.47,0.371s-0.392,0.13-0.605,0.13
		c-0.305,0-0.551-0.085-0.74-0.255s-0.283-0.385-0.283-0.645c0-0.309,0.128-0.553,0.385-0.732s0.615-0.27,1.074-0.27h0.636v-0.36
		c0-0.227-0.07-0.405-0.209-0.535s-0.343-0.195-0.611-0.195c-0.244,0-0.446,0.062-0.606,0.188s-0.24,0.275-0.24,0.451L72.67,63.87
		c0-0.252,0.117-0.47,0.352-0.655s0.522-0.277,0.864-0.277c0.354,0,0.632,0.088,0.836,0.265s0.309,0.423,0.315,0.74v1.5
		c0,0.307,0.032,0.536,0.097,0.688v0.035H74.759z M73.657,65.915c0.234,0,0.444-0.057,0.628-0.17s0.319-0.265,0.403-0.454v-0.697
		h-0.627c-0.35,0.004-0.623,0.068-0.82,0.192s-0.296,0.294-0.296,0.511c0,0.178,0.066,0.325,0.198,0.442
		S73.446,65.915,73.657,65.915z"/>
	<path class="st1" d="M76.366,62.185v0.812h0.656v0.287h-0.656v2.115c0,0.176,0.032,0.307,0.095,0.393s0.169,0.129,0.318,0.129
		c0.059,0,0.153-0.01,0.284-0.029l0.015,0.285c-0.092,0.033-0.217,0.049-0.375,0.049c-0.24,0-0.415-0.07-0.524-0.209
		s-0.164-0.345-0.164-0.617v-2.115h-0.583v-0.287h0.583v-0.812H76.366z"/>
	<path class="st1" d="M79.661,64.57l-0.401,0.387v1.21h-0.352v-4.5h0.352v2.88l0.331-0.357l1.213-1.192h0.442l-1.345,1.336
		l1.462,1.834h-0.419L79.661,64.57z"/>
	<path class="st1" d="M81.677,62.081c0-0.066,0.021-0.122,0.064-0.167c0.043-0.045,0.102-0.068,0.176-0.068s0.133,0.023,0.177,0.068
		c0.044,0.046,0.065,0.102,0.065,0.167s-0.021,0.121-0.065,0.166c-0.044,0.044-0.103,0.067-0.177,0.067s-0.133-0.022-0.176-0.067
		C81.698,62.202,81.677,62.147,81.677,62.081z M82.089,66.167h-0.352v-3.17h0.352V66.167z"/>
	<path class="st1" d="M83.225,62.997l0.012,0.542c0.119-0.195,0.268-0.344,0.445-0.447s0.374-0.154,0.589-0.154
		c0.34,0,0.593,0.096,0.759,0.287s0.25,0.479,0.252,0.861v2.08h-0.349v-2.083c-0.002-0.283-0.062-0.494-0.181-0.633
		c-0.117-0.139-0.307-0.208-0.566-0.208c-0.217,0-0.408,0.068-0.576,0.204c-0.166,0.136-0.29,0.319-0.37,0.549v2.171h-0.349v-3.17
		H83.225z"/>
	<path class="st1" d="M85.896,64.552c0-0.492,0.11-0.884,0.329-1.176c0.221-0.292,0.519-0.438,0.896-0.438
		c0.428,0,0.754,0.169,0.979,0.507v-1.778h0.349v4.5H88.12l-0.015-0.422c-0.225,0.32-0.555,0.48-0.99,0.48
		c-0.365,0-0.659-0.147-0.884-0.441c-0.223-0.294-0.335-0.691-0.335-1.191V64.552z M86.251,64.614c0,0.404,0.081,0.723,0.243,0.957
		s0.391,0.35,0.686,0.35c0.432,0,0.738-0.19,0.92-0.571v-1.488c-0.182-0.412-0.486-0.618-0.914-0.618
		c-0.295,0-0.524,0.116-0.688,0.347S86.251,64.163,86.251,64.614z"/>
	<path class="st1" d="M90.337,64.535c0-0.305,0.059-0.579,0.178-0.823c0.117-0.244,0.285-0.434,0.5-0.57
		c0.217-0.136,0.461-0.204,0.734-0.204c0.422,0,0.764,0.148,1.025,0.444s0.393,0.688,0.393,1.176v0.073
		c0,0.307-0.059,0.583-0.178,0.828c-0.117,0.245-0.284,0.434-0.499,0.567s-0.46,0.199-0.735,0.199c-0.42,0-0.762-0.148-1.023-0.444
		c-0.264-0.296-0.395-0.688-0.395-1.176V64.535z M90.688,64.631c0,0.379,0.098,0.69,0.295,0.933
		c0.195,0.243,0.453,0.365,0.771,0.365c0.316,0,0.572-0.122,0.77-0.365c0.195-0.243,0.294-0.564,0.294-0.962v-0.067
		c0-0.242-0.045-0.464-0.135-0.665s-0.216-0.357-0.378-0.467s-0.348-0.166-0.557-0.166c-0.312,0-0.567,0.123-0.765,0.368
		s-0.296,0.566-0.296,0.962V64.631z"/>
	<path class="st1" d="M93.993,66.167v-2.883h-0.525v-0.287h0.525v-0.384c0-0.324,0.082-0.573,0.247-0.747s0.396-0.261,0.69-0.261
		c0.133,0,0.256,0.017,0.371,0.049l-0.025,0.291c-0.098-0.023-0.205-0.035-0.32-0.035c-0.193,0-0.344,0.06-0.451,0.181
		s-0.16,0.292-0.16,0.513v0.394H95.1v0.287h-0.756v2.883H93.993z"/>
	<path class="st1" d="M97.278,66.167h-0.352v-4.5h0.352V66.167z"/>
	<path class="st1" d="M99.307,66.225c-0.27,0-0.513-0.066-0.73-0.199s-0.387-0.318-0.508-0.555s-0.182-0.503-0.182-0.798v-0.126
		c0-0.305,0.059-0.579,0.177-0.823s0.282-0.436,0.493-0.576s0.439-0.209,0.686-0.209c0.385,0,0.69,0.131,0.916,0.394
		s0.338,0.622,0.338,1.077v0.196h-2.262v0.067c0,0.359,0.104,0.659,0.31,0.898s0.466,0.359,0.778,0.359
		c0.188,0,0.353-0.034,0.496-0.103s0.273-0.178,0.391-0.328l0.221,0.167C100.173,66.039,99.798,66.225,99.307,66.225z
		 M99.243,63.237c-0.264,0-0.485,0.097-0.666,0.29s-0.291,0.453-0.33,0.779h1.902v-0.038c-0.01-0.305-0.098-0.553-0.262-0.744
		S99.509,63.237,99.243,63.237z"/>
	<path class="st1" d="M103.031,66.167c-0.035-0.1-0.058-0.247-0.067-0.442c-0.123,0.16-0.279,0.284-0.471,0.371
		c-0.189,0.087-0.392,0.13-0.604,0.13c-0.305,0-0.552-0.085-0.739-0.255c-0.189-0.17-0.283-0.385-0.283-0.645
		c0-0.309,0.129-0.553,0.385-0.732c0.258-0.18,0.615-0.27,1.074-0.27h0.636v-0.36c0-0.227-0.069-0.405-0.21-0.535
		c-0.139-0.13-0.343-0.195-0.61-0.195c-0.244,0-0.446,0.062-0.606,0.188s-0.24,0.275-0.24,0.451l-0.352-0.003
		c0-0.252,0.117-0.47,0.352-0.655s0.522-0.277,0.864-0.277c0.354,0,0.632,0.088,0.837,0.265c0.203,0.177,0.309,0.423,0.314,0.74v1.5
		c0,0.307,0.032,0.536,0.097,0.688v0.035H103.031z M101.93,65.915c0.234,0,0.444-0.057,0.628-0.17
		c0.186-0.113,0.319-0.265,0.403-0.454v-0.697h-0.627c-0.35,0.004-0.623,0.068-0.82,0.192s-0.296,0.294-0.296,0.511
		c0,0.178,0.066,0.325,0.197,0.442C101.548,65.856,101.719,65.915,101.93,65.915z"/>
	<path class="st1" d="M105.559,63.295c-0.074-0.014-0.154-0.021-0.238-0.021c-0.219,0-0.404,0.061-0.555,0.183
		c-0.151,0.122-0.26,0.299-0.324,0.532v2.177h-0.348v-3.17h0.342l0.006,0.504c0.186-0.375,0.484-0.562,0.895-0.562
		c0.098,0,0.174,0.013,0.23,0.038L105.559,63.295z"/>
	<path class="st1" d="M106.297,62.997l0.012,0.542c0.119-0.195,0.268-0.344,0.445-0.447s0.374-0.154,0.589-0.154
		c0.34,0,0.593,0.096,0.759,0.287s0.25,0.479,0.252,0.861v2.08h-0.349v-2.083c-0.002-0.283-0.062-0.494-0.181-0.633
		s-0.307-0.208-0.566-0.208c-0.217,0-0.408,0.068-0.576,0.204c-0.166,0.136-0.29,0.319-0.37,0.549v2.171h-0.349v-3.17H106.297z"/>
	<path class="st1" d="M109.088,62.081c0-0.066,0.021-0.122,0.064-0.167c0.043-0.045,0.102-0.068,0.176-0.068
		s0.134,0.023,0.177,0.068c0.045,0.046,0.066,0.102,0.066,0.167s-0.021,0.121-0.066,0.166c-0.043,0.044-0.103,0.067-0.177,0.067
		s-0.133-0.022-0.176-0.067C109.109,62.202,109.088,62.147,109.088,62.081z M109.501,66.167h-0.352v-3.17h0.352V66.167z"/>
	<path class="st1" d="M110.638,62.997l0.012,0.542c0.119-0.195,0.268-0.344,0.445-0.447s0.374-0.154,0.589-0.154
		c0.34,0,0.593,0.096,0.759,0.287s0.25,0.479,0.252,0.861v2.08h-0.349v-2.083c-0.002-0.283-0.062-0.494-0.181-0.633
		s-0.307-0.208-0.566-0.208c-0.217,0-0.408,0.068-0.576,0.204c-0.166,0.136-0.29,0.319-0.37,0.549v2.171h-0.349v-3.17H110.638z"/>
	<path class="st1" d="M113.308,64.552c0-0.496,0.109-0.889,0.33-1.179c0.219-0.29,0.518-0.435,0.895-0.435
		c0.432,0,0.76,0.172,0.984,0.516l0.018-0.457h0.328v3.105c0,0.408-0.114,0.731-0.343,0.97s-0.538,0.357-0.929,0.357
		c-0.221,0-0.432-0.049-0.631-0.148c-0.201-0.099-0.358-0.23-0.474-0.394l0.196-0.211c0.248,0.305,0.543,0.457,0.885,0.457
		c0.293,0,0.521-0.086,0.686-0.259s0.249-0.413,0.255-0.719v-0.398c-0.225,0.312-0.552,0.469-0.981,0.469
		c-0.367,0-0.662-0.146-0.885-0.439s-0.334-0.688-0.334-1.187V64.552z M113.663,64.614c0,0.404,0.081,0.723,0.243,0.957
		s0.391,0.35,0.686,0.35c0.432,0,0.737-0.193,0.917-0.58v-1.474c-0.082-0.203-0.2-0.358-0.354-0.464s-0.34-0.16-0.557-0.16
		c-0.295,0-0.524,0.116-0.688,0.347S113.663,64.163,113.663,64.614z"/>
	<path class="st1" d="M119.164,66.225c-0.27,0-0.514-0.066-0.731-0.199s-0.387-0.318-0.508-0.555s-0.182-0.503-0.182-0.798v-0.126
		c0-0.305,0.059-0.579,0.178-0.823c0.117-0.244,0.282-0.436,0.493-0.576s0.439-0.209,0.686-0.209c0.385,0,0.69,0.131,0.915,0.394
		c0.227,0.263,0.339,0.622,0.339,1.077v0.196h-2.262v0.067c0,0.359,0.103,0.659,0.31,0.898c0.205,0.239,0.465,0.359,0.777,0.359
		c0.188,0,0.354-0.034,0.496-0.103c0.145-0.068,0.274-0.178,0.392-0.328l0.22,0.167C120.028,66.039,119.654,66.225,119.164,66.225z
		 M119.099,63.237c-0.264,0-0.486,0.097-0.667,0.29s-0.29,0.453-0.329,0.779h1.901v-0.038c-0.01-0.305-0.097-0.553-0.261-0.744
		S119.365,63.237,119.099,63.237z"/>
	<path class="st1" d="M121.882,64.283l0.855-1.286h0.416l-1.075,1.556l1.122,1.614h-0.413l-0.902-1.342l-0.902,1.342h-0.413
		l1.119-1.614l-1.075-1.556h0.413L121.882,64.283z"/>
	<path class="st1" d="M126.203,64.614c0,0.494-0.109,0.886-0.328,1.176s-0.512,0.435-0.879,0.435c-0.434,0-0.766-0.152-0.996-0.457
		v1.617h-0.349v-4.389h0.325l0.018,0.448c0.229-0.338,0.56-0.507,0.993-0.507c0.379,0,0.676,0.144,0.892,0.431
		s0.324,0.686,0.324,1.195V64.614z M125.851,64.552c0-0.404-0.083-0.724-0.249-0.958s-0.397-0.352-0.694-0.352
		c-0.215,0-0.399,0.052-0.554,0.155s-0.272,0.254-0.354,0.451v1.521c0.084,0.182,0.204,0.32,0.36,0.416s0.341,0.144,0.554,0.144
		c0.295,0,0.524-0.118,0.689-0.353S125.851,65,125.851,64.552z"/>
	<path class="st1" d="M128.056,66.225c-0.27,0-0.514-0.066-0.731-0.199s-0.387-0.318-0.508-0.555s-0.182-0.503-0.182-0.798v-0.126
		c0-0.305,0.059-0.579,0.178-0.823c0.117-0.244,0.282-0.436,0.493-0.576s0.439-0.209,0.686-0.209c0.385,0,0.69,0.131,0.915,0.394
		c0.227,0.263,0.339,0.622,0.339,1.077v0.196h-2.262v0.067c0,0.359,0.103,0.659,0.31,0.898c0.205,0.239,0.465,0.359,0.777,0.359
		c0.188,0,0.354-0.034,0.496-0.103c0.145-0.068,0.274-0.178,0.392-0.328l0.22,0.167C128.921,66.039,128.547,66.225,128.056,66.225z
		 M127.992,63.237c-0.264,0-0.486,0.097-0.667,0.29s-0.29,0.453-0.329,0.779h1.901v-0.038c-0.01-0.305-0.097-0.553-0.261-0.744
		S128.258,63.237,127.992,63.237z"/>
	<path class="st1" d="M131.243,63.295c-0.074-0.014-0.153-0.021-0.237-0.021c-0.219,0-0.404,0.061-0.556,0.183
		s-0.259,0.299-0.323,0.532v2.177h-0.349v-3.17h0.343l0.006,0.504c0.186-0.375,0.483-0.562,0.894-0.562
		c0.098,0,0.175,0.013,0.231,0.038L131.243,63.295z"/>
	<path class="st1" d="M131.627,62.081c0-0.066,0.021-0.122,0.064-0.167c0.043-0.045,0.102-0.068,0.176-0.068
		s0.134,0.023,0.177,0.068c0.045,0.046,0.066,0.102,0.066,0.167s-0.021,0.121-0.066,0.166c-0.043,0.044-0.103,0.067-0.177,0.067
		s-0.133-0.022-0.176-0.067C131.648,62.202,131.627,62.147,131.627,62.081z M132.04,66.167h-0.352v-3.17h0.352V66.167z"/>
	<path class="st1" d="M134.069,66.225c-0.27,0-0.514-0.066-0.731-0.199s-0.387-0.318-0.508-0.555s-0.182-0.503-0.182-0.798v-0.126
		c0-0.305,0.059-0.579,0.178-0.823c0.117-0.244,0.282-0.436,0.493-0.576s0.439-0.209,0.686-0.209c0.385,0,0.69,0.131,0.915,0.394
		c0.227,0.263,0.339,0.622,0.339,1.077v0.196h-2.262v0.067c0,0.359,0.103,0.659,0.31,0.898c0.205,0.239,0.465,0.359,0.777,0.359
		c0.188,0,0.354-0.034,0.496-0.103c0.145-0.068,0.274-0.178,0.392-0.328l0.22,0.167C134.933,66.039,134.559,66.225,134.069,66.225z
		 M134.005,63.237c-0.264,0-0.486,0.097-0.667,0.29s-0.29,0.453-0.329,0.779h1.901v-0.038c-0.01-0.305-0.097-0.553-0.261-0.744
		S134.27,63.237,134.005,63.237z"/>
	<path class="st1" d="M136.126,62.997l0.012,0.542c0.119-0.195,0.268-0.344,0.445-0.447s0.374-0.154,0.589-0.154
		c0.34,0,0.593,0.096,0.759,0.287s0.25,0.479,0.252,0.861v2.08h-0.349v-2.083c-0.002-0.283-0.062-0.494-0.181-0.633
		s-0.307-0.208-0.566-0.208c-0.217,0-0.408,0.068-0.576,0.204c-0.166,0.136-0.29,0.319-0.37,0.549v2.171h-0.349v-3.17H136.126z"/>
	<path class="st1" d="M140.109,65.929c0.244,0,0.448-0.069,0.613-0.207s0.255-0.316,0.269-0.535h0.337
		c-0.01,0.193-0.07,0.37-0.182,0.529s-0.26,0.284-0.443,0.374c-0.186,0.09-0.383,0.135-0.594,0.135
		c-0.416,0-0.746-0.145-0.988-0.434c-0.244-0.289-0.365-0.678-0.365-1.166V64.52c0-0.312,0.055-0.589,0.164-0.829
		s0.266-0.426,0.471-0.557c0.203-0.131,0.442-0.196,0.716-0.196c0.348,0,0.634,0.104,0.86,0.311
		c0.225,0.207,0.346,0.479,0.361,0.817h-0.337c-0.016-0.248-0.105-0.448-0.269-0.601s-0.368-0.229-0.616-0.229
		c-0.316,0-0.562,0.114-0.737,0.343s-0.262,0.549-0.262,0.961v0.103c0,0.404,0.087,0.72,0.262,0.946S139.791,65.929,140.109,65.929z
		"/>
	<path class="st1" d="M143.105,66.225c-0.27,0-0.514-0.066-0.731-0.199s-0.387-0.318-0.508-0.555s-0.182-0.503-0.182-0.798v-0.126
		c0-0.305,0.059-0.579,0.178-0.823c0.117-0.244,0.282-0.436,0.493-0.576s0.439-0.209,0.686-0.209c0.385,0,0.69,0.131,0.915,0.394
		c0.227,0.263,0.339,0.622,0.339,1.077v0.196h-2.262v0.067c0,0.359,0.103,0.659,0.31,0.898c0.205,0.239,0.465,0.359,0.777,0.359
		c0.188,0,0.354-0.034,0.496-0.103c0.145-0.068,0.274-0.178,0.392-0.328l0.22,0.167C143.97,66.039,143.596,66.225,143.105,66.225z
		 M143.041,63.237c-0.264,0-0.486,0.097-0.667,0.29s-0.29,0.453-0.329,0.779h1.901v-0.038c-0.01-0.305-0.097-0.553-0.261-0.744
		S143.306,63.237,143.041,63.237z"/>
	<path class="st1" d="M65.144,73.437l0.053,0.272l0.07-0.287l0.762-2.426h0.299l0.753,2.405l0.082,0.334l0.067-0.308l0.65-2.432
		h0.363l-0.923,3.17h-0.299l-0.814-2.514L66.17,71.48l-0.038,0.176l-0.8,2.511h-0.299l-0.92-3.17h0.36L65.144,73.437z"/>
	<path class="st1" d="M68.566,72.535c0-0.305,0.059-0.579,0.177-0.823s0.285-0.434,0.501-0.57s0.46-0.204,0.734-0.204
		c0.422,0,0.764,0.148,1.025,0.444s0.393,0.688,0.393,1.176v0.073c0,0.307-0.059,0.583-0.177,0.828s-0.285,0.434-0.5,0.567
		s-0.46,0.199-0.735,0.199c-0.42,0-0.761-0.148-1.024-0.444s-0.394-0.688-0.394-1.176V72.535z M68.917,72.631
		c0,0.379,0.098,0.69,0.294,0.933s0.454,0.365,0.772,0.365c0.316,0,0.573-0.122,0.769-0.365s0.294-0.564,0.294-0.962v-0.067
		c0-0.242-0.045-0.464-0.135-0.665s-0.216-0.357-0.378-0.467s-0.348-0.166-0.557-0.166c-0.312,0-0.567,0.123-0.765,0.368
		s-0.296,0.566-0.296,0.962V72.631z"/>
	<path class="st1" d="M74.009,73.765c-0.211,0.307-0.548,0.46-1.011,0.46c-0.338,0-0.595-0.098-0.771-0.294s-0.266-0.487-0.27-0.872
		v-2.062h0.349v2.019c0,0.604,0.244,0.905,0.732,0.905c0.508,0,0.829-0.21,0.964-0.63v-2.294h0.352v3.17h-0.34L74.009,73.765z"/>
	<path class="st1" d="M75.508,74.167h-0.352v-4.5h0.352V74.167z"/>
	<path class="st1" d="M76.169,72.552c0-0.492,0.11-0.884,0.33-1.176s0.518-0.438,0.895-0.438c0.428,0,0.754,0.169,0.979,0.507
		v-1.778h0.35v4.5h-0.328l-0.016-0.422c-0.225,0.32-0.555,0.48-0.99,0.48c-0.365,0-0.659-0.147-0.883-0.441
		s-0.335-0.691-0.335-1.191V72.552z M76.524,72.614c0,0.404,0.081,0.723,0.243,0.957c0.162,0.233,0.39,0.35,0.685,0.35
		c0.432,0,0.738-0.19,0.92-0.571v-1.488c-0.182-0.412-0.486-0.618-0.914-0.618c-0.295,0-0.523,0.116-0.688,0.347
		C76.606,71.821,76.524,72.163,76.524,72.614z"/>
	<path class="st1" d="M81.807,73.663l0.926-2.666h0.379l-1.354,3.709l-0.07,0.164c-0.174,0.384-0.443,0.578-0.807,0.578
		c-0.084,0-0.174-0.014-0.27-0.041l-0.002-0.291l0.182,0.018c0.172,0,0.311-0.042,0.417-0.127s0.196-0.231,0.271-0.438l0.156-0.428
		l-1.195-3.144h0.383L81.807,73.663z"/>
	<path class="st1" d="M83.266,72.535c0-0.305,0.059-0.579,0.178-0.823c0.117-0.244,0.285-0.434,0.5-0.57
		c0.217-0.136,0.461-0.204,0.734-0.204c0.422,0,0.764,0.148,1.025,0.444s0.393,0.688,0.393,1.176v0.073
		c0,0.307-0.059,0.583-0.178,0.828c-0.117,0.245-0.284,0.434-0.499,0.567s-0.46,0.199-0.735,0.199c-0.42,0-0.762-0.148-1.023-0.444
		c-0.264-0.296-0.395-0.688-0.395-1.176V72.535z M83.618,72.631c0,0.379,0.098,0.69,0.295,0.933
		c0.195,0.243,0.453,0.365,0.771,0.365c0.316,0,0.572-0.122,0.77-0.365c0.195-0.243,0.294-0.564,0.294-0.962v-0.067
		c0-0.242-0.045-0.464-0.135-0.665s-0.216-0.357-0.378-0.467s-0.348-0.166-0.557-0.166c-0.312,0-0.567,0.123-0.765,0.368
		s-0.296,0.566-0.296,0.962V72.631z"/>
	<path class="st1" d="M88.709,73.765c-0.211,0.307-0.548,0.46-1.011,0.46c-0.338,0-0.595-0.098-0.771-0.294s-0.266-0.487-0.27-0.872
		v-2.062h0.349v2.019c0,0.604,0.244,0.905,0.732,0.905c0.508,0,0.829-0.21,0.964-0.63v-2.294h0.352v3.17h-0.34L88.709,73.765z"/>
	<path class="st1" d="M91.517,74.167h-0.352v-4.5h0.352V74.167z"/>
	<path class="st1" d="M92.3,70.081c0-0.066,0.021-0.122,0.064-0.167c0.043-0.045,0.102-0.068,0.176-0.068s0.133,0.023,0.177,0.068
		c0.044,0.046,0.065,0.102,0.065,0.167s-0.021,0.121-0.065,0.166c-0.044,0.044-0.103,0.067-0.177,0.067s-0.133-0.022-0.176-0.067
		C92.321,70.202,92.3,70.147,92.3,70.081z M92.712,74.167H92.36v-3.17h0.352V74.167z"/>
	<path class="st1" d="M94.267,72.57l-0.401,0.387v1.21h-0.352v-4.5h0.352v2.88l0.331-0.357l1.213-1.192h0.442l-1.345,1.336
		l1.462,1.834h-0.419L94.267,72.57z"/>
	<path class="st1" d="M97.472,74.225c-0.27,0-0.514-0.066-0.73-0.199c-0.219-0.133-0.388-0.318-0.509-0.555
		s-0.182-0.503-0.182-0.798v-0.126c0-0.305,0.06-0.579,0.177-0.823c0.119-0.244,0.283-0.436,0.494-0.576s0.439-0.209,0.686-0.209
		c0.385,0,0.689,0.131,0.916,0.394c0.225,0.263,0.338,0.622,0.338,1.077v0.196h-2.262v0.067c0,0.359,0.104,0.659,0.309,0.898
		c0.207,0.239,0.466,0.359,0.778,0.359c0.188,0,0.353-0.034,0.497-0.103c0.143-0.068,0.273-0.178,0.391-0.328l0.22,0.167
		C98.336,74.039,97.962,74.225,97.472,74.225z M97.407,71.237c-0.264,0-0.486,0.097-0.666,0.29c-0.182,0.193-0.291,0.453-0.33,0.779
		h1.901v-0.038c-0.01-0.305-0.097-0.553-0.261-0.744S97.673,71.237,97.407,71.237z"/>
	<path class="st1" d="M101.048,70.185v0.812h0.656v0.287h-0.656v2.115c0,0.176,0.031,0.307,0.096,0.393
		c0.062,0.086,0.169,0.129,0.317,0.129c0.059,0,0.153-0.01,0.284-0.029l0.015,0.285c-0.092,0.033-0.217,0.049-0.375,0.049
		c-0.24,0-0.415-0.07-0.524-0.209s-0.164-0.345-0.164-0.617v-2.115h-0.583v-0.287h0.583v-0.812H101.048z"/>
	<path class="st1" d="M102.028,72.535c0-0.305,0.06-0.579,0.178-0.823s0.285-0.434,0.501-0.57s0.46-0.204,0.733-0.204
		c0.422,0,0.764,0.148,1.025,0.444s0.393,0.688,0.393,1.176v0.073c0,0.307-0.059,0.583-0.178,0.828
		c-0.117,0.245-0.283,0.434-0.498,0.567s-0.461,0.199-0.736,0.199c-0.42,0-0.761-0.148-1.023-0.444s-0.395-0.688-0.395-1.176V72.535
		z M102.38,72.631c0,0.379,0.099,0.69,0.295,0.933s0.453,0.365,0.771,0.365c0.316,0,0.572-0.122,0.77-0.365
		c0.195-0.243,0.295-0.564,0.295-0.962v-0.067c0-0.242-0.045-0.464-0.135-0.665s-0.217-0.357-0.379-0.467s-0.348-0.166-0.557-0.166
		c-0.312,0-0.566,0.123-0.764,0.368s-0.297,0.566-0.297,0.962V72.631z"/>
	<path class="st1" d="M107.913,73.929c0.244,0,0.448-0.069,0.613-0.207s0.255-0.316,0.269-0.535h0.337
		c-0.01,0.193-0.07,0.37-0.182,0.529s-0.26,0.284-0.443,0.374c-0.186,0.09-0.383,0.135-0.594,0.135
		c-0.416,0-0.746-0.145-0.988-0.434c-0.244-0.289-0.365-0.678-0.365-1.166V72.52c0-0.312,0.055-0.589,0.164-0.829
		s0.266-0.426,0.471-0.557c0.203-0.131,0.442-0.196,0.716-0.196c0.348,0,0.634,0.104,0.86,0.311
		c0.225,0.207,0.346,0.479,0.361,0.817h-0.337c-0.016-0.248-0.105-0.448-0.269-0.601s-0.368-0.229-0.616-0.229
		c-0.316,0-0.562,0.114-0.737,0.343s-0.262,0.549-0.262,0.961v0.103c0,0.404,0.087,0.72,0.262,0.946S107.595,73.929,107.913,73.929z
		"/>
	<path class="st1" d="M111.147,71.295c-0.074-0.014-0.153-0.021-0.237-0.021c-0.219,0-0.404,0.061-0.556,0.183
		s-0.259,0.299-0.323,0.532v2.177h-0.349v-3.17h0.343l0.006,0.504c0.186-0.375,0.483-0.562,0.894-0.562
		c0.098,0,0.175,0.013,0.231,0.038L111.147,71.295z"/>
	<path class="st1" d="M112.722,74.225c-0.27,0-0.514-0.066-0.731-0.199s-0.387-0.318-0.508-0.555s-0.182-0.503-0.182-0.798v-0.126
		c0-0.305,0.059-0.579,0.178-0.823c0.117-0.244,0.282-0.436,0.493-0.576s0.439-0.209,0.686-0.209c0.385,0,0.69,0.131,0.915,0.394
		c0.227,0.263,0.339,0.622,0.339,1.077v0.196h-2.262v0.067c0,0.359,0.103,0.659,0.31,0.898c0.205,0.239,0.465,0.359,0.777,0.359
		c0.188,0,0.354-0.034,0.496-0.103c0.145-0.068,0.274-0.178,0.392-0.328l0.22,0.167C113.587,74.039,113.213,74.225,112.722,74.225z
		 M112.658,71.237c-0.264,0-0.486,0.097-0.667,0.29s-0.29,0.453-0.329,0.779h1.901v-0.038c-0.01-0.305-0.097-0.553-0.261-0.744
		S112.924,71.237,112.658,71.237z"/>
	<path class="st1" d="M116.445,74.167c-0.035-0.1-0.058-0.247-0.067-0.442c-0.123,0.16-0.279,0.284-0.471,0.371
		c-0.189,0.087-0.392,0.13-0.604,0.13c-0.305,0-0.552-0.085-0.739-0.255c-0.189-0.17-0.283-0.385-0.283-0.645
		c0-0.309,0.128-0.553,0.385-0.732s0.615-0.27,1.074-0.27h0.636v-0.36c0-0.227-0.07-0.405-0.21-0.535s-0.343-0.195-0.61-0.195
		c-0.244,0-0.446,0.062-0.606,0.188s-0.24,0.275-0.24,0.451l-0.352-0.003c0-0.252,0.117-0.47,0.352-0.655s0.522-0.277,0.864-0.277
		c0.354,0,0.632,0.088,0.837,0.265c0.203,0.177,0.309,0.423,0.314,0.74v1.5c0,0.307,0.032,0.536,0.097,0.688v0.035H116.445z
		 M115.344,73.915c0.234,0,0.444-0.057,0.628-0.17c0.186-0.113,0.319-0.265,0.403-0.454v-0.697h-0.627
		c-0.35,0.004-0.623,0.068-0.82,0.192s-0.296,0.294-0.296,0.511c0,0.178,0.066,0.325,0.197,0.442
		C114.962,73.856,115.133,73.915,115.344,73.915z"/>
	<path class="st1" d="M118.054,70.185v0.812h0.656v0.287h-0.656v2.115c0,0.176,0.031,0.307,0.096,0.393
		c0.062,0.086,0.169,0.129,0.317,0.129c0.059,0,0.153-0.01,0.284-0.029l0.015,0.285c-0.092,0.033-0.217,0.049-0.375,0.049
		c-0.24,0-0.415-0.07-0.524-0.209s-0.164-0.345-0.164-0.617v-2.115h-0.583v-0.287h0.583v-0.812H118.054z"/>
	<path class="st1" d="M120.514,74.225c-0.27,0-0.514-0.066-0.731-0.199s-0.387-0.318-0.508-0.555s-0.182-0.503-0.182-0.798v-0.126
		c0-0.305,0.059-0.579,0.178-0.823c0.117-0.244,0.282-0.436,0.493-0.576s0.439-0.209,0.686-0.209c0.385,0,0.69,0.131,0.915,0.394
		c0.227,0.263,0.339,0.622,0.339,1.077v0.196h-2.262v0.067c0,0.359,0.103,0.659,0.31,0.898c0.205,0.239,0.465,0.359,0.777,0.359
		c0.188,0,0.354-0.034,0.496-0.103c0.145-0.068,0.274-0.178,0.392-0.328l0.22,0.167C121.378,74.039,121.004,74.225,120.514,74.225z
		 M120.449,71.237c-0.264,0-0.486,0.097-0.667,0.29s-0.29,0.453-0.329,0.779h1.901v-0.038c-0.01-0.305-0.097-0.553-0.261-0.744
		S120.715,71.237,120.449,71.237z"/>
	<path class="st1" d="M122.881,72.98c0.004-0.23,0.035-0.416,0.094-0.556c0.059-0.14,0.185-0.306,0.378-0.496
		c0.193-0.19,0.317-0.325,0.374-0.404c0.055-0.079,0.098-0.166,0.129-0.26c0.029-0.095,0.045-0.203,0.045-0.324
		c0-0.244-0.065-0.436-0.195-0.575c-0.13-0.14-0.311-0.209-0.543-0.209c-0.234,0-0.424,0.067-0.566,0.201
		c-0.145,0.134-0.218,0.315-0.222,0.543h-0.349c0.004-0.32,0.112-0.577,0.325-0.769s0.483-0.289,0.812-0.289
		c0.336,0,0.601,0.098,0.795,0.294c0.194,0.196,0.292,0.462,0.292,0.798c0,0.211-0.048,0.408-0.144,0.593
		c-0.096,0.184-0.277,0.399-0.545,0.646c-0.221,0.185-0.331,0.455-0.331,0.808H122.881z M122.834,73.96
		c0-0.067,0.021-0.123,0.062-0.169s0.102-0.069,0.178-0.069c0.074,0,0.133,0.023,0.178,0.069c0.043,0.046,0.065,0.103,0.065,0.169
		c0,0.065-0.022,0.12-0.065,0.164c-0.045,0.044-0.104,0.066-0.178,0.066c-0.076,0-0.136-0.022-0.178-0.066
		C122.854,74.08,122.834,74.025,122.834,73.96z"/>
	<path class="st1" d="M65.256,89.015l0.132,0.662l0.161-0.633l0.926-3.144H66.8l0.914,3.144l0.158,0.639l0.141-0.668l0.771-3.114
		h0.369l-1.093,4.266h-0.346l-0.967-3.337l-0.108-0.422l-0.105,0.422l-0.99,3.337h-0.346l-1.09-4.266h0.369L65.256,89.015z"/>
	<path class="st1" d="M69.963,87.532c0.115-0.189,0.263-0.336,0.442-0.439s0.376-0.155,0.589-0.155c0.34,0,0.593,0.096,0.759,0.287
		s0.25,0.479,0.252,0.861v2.08h-0.349v-2.083c-0.002-0.283-0.062-0.494-0.18-0.633s-0.307-0.208-0.567-0.208
		c-0.217,0-0.409,0.068-0.576,0.203c-0.167,0.137-0.291,0.319-0.371,0.55v2.171h-0.349v-4.5h0.349V87.532z"/>
	<path class="st1" d="M74.759,90.166c-0.035-0.1-0.058-0.247-0.067-0.442c-0.123,0.16-0.28,0.284-0.47,0.37
		c-0.19,0.087-0.392,0.131-0.605,0.131c-0.305,0-0.551-0.085-0.74-0.255s-0.283-0.385-0.283-0.645c0-0.309,0.128-0.553,0.385-0.732
		s0.615-0.27,1.074-0.27h0.636v-0.36c0-0.227-0.07-0.404-0.209-0.535c-0.14-0.129-0.343-0.194-0.611-0.194
		c-0.244,0-0.446,0.062-0.606,0.188s-0.24,0.275-0.24,0.451l-0.352-0.003c0-0.252,0.117-0.471,0.352-0.654
		c0.234-0.186,0.522-0.277,0.864-0.277c0.354,0,0.632,0.089,0.836,0.266s0.309,0.423,0.315,0.739v1.5
		c0,0.307,0.032,0.536,0.097,0.688v0.035H74.759z M73.657,89.914c0.234,0,0.444-0.057,0.628-0.17s0.319-0.265,0.403-0.454v-0.697
		h-0.627c-0.35,0.004-0.623,0.068-0.82,0.192s-0.296,0.294-0.296,0.511c0,0.178,0.066,0.325,0.198,0.442
		S73.446,89.914,73.657,89.914z"/>
	<path class="st1" d="M76.366,86.185v0.812h0.656v0.287h-0.656v2.114c0,0.177,0.032,0.308,0.095,0.394s0.169,0.129,0.318,0.129
		c0.059,0,0.153-0.01,0.284-0.029l0.015,0.284c-0.092,0.033-0.217,0.05-0.375,0.05c-0.24,0-0.415-0.069-0.524-0.209
		s-0.164-0.346-0.164-0.617v-2.115h-0.583v-0.287h0.583v-0.812H76.366z"/>
	<path class="st1" d="M80.909,90.166c-0.035-0.1-0.058-0.247-0.067-0.442c-0.123,0.16-0.28,0.284-0.47,0.37
		c-0.191,0.087-0.393,0.131-0.605,0.131c-0.305,0-0.551-0.085-0.74-0.255c-0.188-0.17-0.282-0.385-0.282-0.645
		c0-0.309,0.128-0.553,0.386-0.732c0.256-0.18,0.614-0.27,1.073-0.27h0.636v-0.36c0-0.227-0.07-0.404-0.209-0.535
		c-0.141-0.129-0.344-0.194-0.611-0.194c-0.244,0-0.446,0.062-0.606,0.188s-0.24,0.275-0.24,0.451l-0.352-0.003
		c0-0.252,0.117-0.471,0.352-0.654c0.234-0.186,0.522-0.277,0.864-0.277c0.354,0,0.633,0.089,0.836,0.266
		c0.205,0.177,0.31,0.423,0.315,0.739v1.5c0,0.307,0.032,0.536,0.097,0.688v0.035H80.909z M79.807,89.914
		c0.234,0,0.443-0.057,0.629-0.17c0.184-0.113,0.318-0.265,0.402-0.454v-0.697h-0.627c-0.35,0.004-0.623,0.068-0.82,0.192
		s-0.296,0.294-0.296,0.511c0,0.178,0.065,0.325,0.198,0.442C79.425,89.855,79.597,89.914,79.807,89.914z"/>
	<path class="st1" d="M83.436,87.295c-0.074-0.014-0.152-0.021-0.236-0.021c-0.219,0-0.404,0.062-0.556,0.183
		c-0.151,0.123-0.259,0.3-0.323,0.532v2.177h-0.35v-3.17h0.344l0.006,0.504c0.186-0.375,0.482-0.562,0.893-0.562
		c0.098,0,0.176,0.013,0.232,0.038L83.436,87.295z"/>
	<path class="st1" d="M85.013,90.225c-0.27,0-0.514-0.066-0.73-0.199c-0.219-0.133-0.388-0.318-0.509-0.555
		c-0.121-0.238-0.182-0.504-0.182-0.799v-0.126c0-0.305,0.06-0.579,0.177-0.823c0.119-0.244,0.283-0.436,0.494-0.576
		c0.211-0.139,0.439-0.209,0.686-0.209c0.385,0,0.689,0.132,0.916,0.395c0.225,0.263,0.338,0.621,0.338,1.076v0.196H83.94v0.067
		c0,0.359,0.104,0.659,0.309,0.898c0.207,0.239,0.466,0.358,0.778,0.358c0.188,0,0.353-0.034,0.497-0.103
		c0.143-0.068,0.273-0.178,0.391-0.328l0.22,0.167C85.877,90.038,85.503,90.225,85.013,90.225z M84.948,87.236
		c-0.264,0-0.486,0.097-0.666,0.29c-0.182,0.193-0.291,0.453-0.33,0.779h1.901v-0.038c-0.01-0.305-0.097-0.553-0.261-0.744
		S85.214,87.236,84.948,87.236z"/>
	<path class="st1" d="M88.589,86.185v0.812h0.656v0.287h-0.656v2.114c0,0.177,0.031,0.308,0.095,0.394s0.169,0.129,0.317,0.129
		c0.059,0,0.154-0.01,0.285-0.029l0.014,0.284c-0.092,0.033-0.217,0.05-0.375,0.05c-0.24,0-0.414-0.069-0.523-0.209
		s-0.164-0.346-0.164-0.617v-2.115h-0.584v-0.287h0.584v-0.812H88.589z"/>
	<path class="st1" d="M90.17,87.532c0.115-0.189,0.263-0.336,0.442-0.439s0.376-0.155,0.589-0.155c0.34,0,0.593,0.096,0.759,0.287
		s0.25,0.479,0.252,0.861v2.08h-0.349v-2.083c-0.002-0.283-0.062-0.494-0.181-0.633c-0.117-0.139-0.307-0.208-0.566-0.208
		c-0.217,0-0.408,0.068-0.576,0.203c-0.166,0.137-0.29,0.319-0.37,0.55v2.171h-0.349v-4.5h0.349V87.532z"/>
	<path class="st1" d="M94.192,90.225c-0.27,0-0.514-0.066-0.731-0.199s-0.388-0.318-0.509-0.555
		c-0.121-0.238-0.182-0.504-0.182-0.799v-0.126c0-0.305,0.06-0.579,0.178-0.823s0.283-0.436,0.494-0.576
		c0.211-0.139,0.439-0.209,0.686-0.209c0.385,0,0.689,0.132,0.915,0.395s0.339,0.621,0.339,1.076v0.196H93.12v0.067
		c0,0.359,0.103,0.659,0.309,0.898s0.465,0.358,0.777,0.358c0.188,0,0.354-0.034,0.497-0.103s0.274-0.178,0.392-0.328l0.219,0.167
		C95.055,90.038,94.682,90.225,94.192,90.225z M94.128,87.236c-0.264,0-0.486,0.097-0.667,0.29s-0.29,0.453-0.329,0.779h1.9v-0.038
		c-0.01-0.305-0.096-0.553-0.26-0.744S94.393,87.236,94.128,87.236z"/>
	<path class="st1" d="M97.029,88.534c0-0.305,0.06-0.579,0.177-0.823c0.119-0.244,0.285-0.434,0.502-0.57
		c0.215-0.135,0.46-0.203,0.733-0.203c0.422,0,0.764,0.148,1.025,0.443c0.262,0.297,0.393,0.688,0.393,1.177v0.073
		c0,0.307-0.06,0.583-0.177,0.828c-0.119,0.245-0.285,0.434-0.5,0.566s-0.46,0.199-0.735,0.199c-0.42,0-0.761-0.148-1.024-0.443
		c-0.262-0.297-0.394-0.688-0.394-1.177V88.534z M97.381,88.631c0,0.379,0.099,0.689,0.294,0.934
		c0.197,0.242,0.454,0.364,0.772,0.364c0.316,0,0.573-0.122,0.769-0.364c0.197-0.244,0.295-0.564,0.295-0.963v-0.067
		c0-0.242-0.045-0.464-0.135-0.665s-0.216-0.356-0.378-0.467s-0.348-0.166-0.557-0.166c-0.312,0-0.567,0.123-0.765,0.367
		c-0.197,0.246-0.296,0.566-0.296,0.963V88.631z"/>
	<path class="st1" d="M102.472,89.765c-0.211,0.307-0.547,0.46-1.01,0.46c-0.338,0-0.596-0.098-0.771-0.295
		c-0.176-0.195-0.266-0.486-0.27-0.871v-2.062h0.35v2.019c0,0.604,0.244,0.905,0.732,0.905c0.508,0,0.828-0.21,0.963-0.63v-2.294
		h0.352v3.17h-0.34L102.472,89.765z"/>
	<path class="st1" d="M104.124,86.185v0.812h0.656v0.287h-0.656v2.114c0,0.177,0.031,0.308,0.096,0.394
		c0.062,0.086,0.169,0.129,0.317,0.129c0.059,0,0.153-0.01,0.284-0.029l0.015,0.284c-0.092,0.033-0.217,0.05-0.375,0.05
		c-0.24,0-0.415-0.069-0.524-0.209s-0.164-0.346-0.164-0.617v-2.115h-0.583v-0.287h0.583v-0.812H104.124z"/>
	<path class="st1" d="M106.528,89.929c0.244,0,0.448-0.069,0.613-0.206c0.165-0.139,0.255-0.316,0.269-0.535h0.337
		c-0.01,0.193-0.07,0.37-0.182,0.529s-0.26,0.283-0.443,0.373c-0.186,0.09-0.383,0.135-0.594,0.135
		c-0.416,0-0.746-0.145-0.988-0.434c-0.244-0.289-0.365-0.678-0.365-1.166V88.52c0-0.312,0.055-0.589,0.164-0.829
		s0.266-0.426,0.471-0.557c0.203-0.131,0.442-0.196,0.716-0.196c0.348,0,0.634,0.104,0.86,0.311
		c0.225,0.207,0.346,0.479,0.361,0.817h-0.337c-0.016-0.248-0.105-0.448-0.269-0.601s-0.368-0.229-0.616-0.229
		c-0.316,0-0.562,0.114-0.737,0.343s-0.262,0.549-0.262,0.961v0.103c0,0.404,0.087,0.72,0.262,0.946S106.21,89.929,106.528,89.929z"
		/>
	<path class="st1" d="M108.104,88.534c0-0.305,0.059-0.579,0.178-0.823c0.117-0.244,0.284-0.434,0.5-0.57
		c0.216-0.135,0.461-0.203,0.734-0.203c0.422,0,0.764,0.148,1.025,0.443c0.262,0.297,0.393,0.688,0.393,1.177v0.073
		c0,0.307-0.06,0.583-0.178,0.828s-0.284,0.434-0.499,0.566s-0.46,0.199-0.735,0.199c-0.42,0-0.762-0.148-1.023-0.443
		c-0.264-0.297-0.395-0.688-0.395-1.177V88.534z M108.456,88.631c0,0.379,0.098,0.689,0.295,0.934
		c0.195,0.242,0.453,0.364,0.771,0.364c0.316,0,0.572-0.122,0.77-0.364c0.195-0.244,0.294-0.564,0.294-0.963v-0.067
		c0-0.242-0.045-0.464-0.135-0.665s-0.216-0.356-0.378-0.467s-0.348-0.166-0.557-0.166c-0.312,0-0.567,0.123-0.765,0.367
		c-0.197,0.246-0.296,0.566-0.296,0.963V88.631z"/>
	<path class="st1" d="M111.827,86.996l0.012,0.516c0.117-0.191,0.264-0.335,0.439-0.431s0.371-0.144,0.586-0.144
		c0.5,0,0.817,0.205,0.952,0.615c0.113-0.197,0.265-0.349,0.454-0.455s0.398-0.16,0.627-0.16c0.68,0,1.026,0.371,1.04,1.113v2.115
		h-0.352v-2.089c-0.002-0.283-0.062-0.493-0.184-0.63c-0.119-0.137-0.315-0.205-0.587-0.205c-0.252,0.004-0.465,0.086-0.639,0.244
		c-0.174,0.16-0.271,0.354-0.29,0.582v2.098h-0.352v-2.115c-0.002-0.271-0.066-0.474-0.191-0.607
		c-0.127-0.134-0.32-0.201-0.582-0.201c-0.221,0-0.41,0.062-0.568,0.189c-0.158,0.125-0.275,0.312-0.352,0.561v2.174h-0.352v-3.17
		H111.827z"/>
	<path class="st1" d="M117.903,90.225c-0.27,0-0.514-0.066-0.731-0.199s-0.387-0.318-0.508-0.555
		c-0.121-0.238-0.182-0.504-0.182-0.799v-0.126c0-0.305,0.059-0.579,0.178-0.823c0.117-0.244,0.282-0.436,0.493-0.576
		c0.211-0.139,0.439-0.209,0.686-0.209c0.385,0,0.69,0.132,0.915,0.395c0.227,0.263,0.339,0.621,0.339,1.076v0.196h-2.262v0.067
		c0,0.359,0.103,0.659,0.31,0.898c0.205,0.239,0.465,0.358,0.777,0.358c0.188,0,0.354-0.034,0.496-0.103
		c0.145-0.068,0.274-0.178,0.392-0.328l0.22,0.167C118.767,90.038,118.393,90.225,117.903,90.225z M117.839,87.236
		c-0.264,0-0.486,0.097-0.667,0.29s-0.29,0.453-0.329,0.779h1.901v-0.038c-0.01-0.305-0.097-0.553-0.261-0.744
		S118.104,87.236,117.839,87.236z"/>
	<path class="st1" d="M121.523,89.36c0-0.174-0.07-0.313-0.209-0.419c-0.141-0.105-0.351-0.188-0.632-0.248
		c-0.281-0.059-0.499-0.127-0.655-0.205c-0.154-0.076-0.271-0.171-0.346-0.282s-0.112-0.246-0.112-0.404
		c0-0.25,0.104-0.456,0.313-0.62c0.209-0.162,0.477-0.244,0.803-0.244c0.354,0,0.637,0.088,0.852,0.262
		c0.213,0.176,0.32,0.403,0.32,0.685h-0.352c0-0.186-0.078-0.34-0.232-0.463c-0.156-0.123-0.352-0.185-0.588-0.185
		c-0.23,0-0.416,0.051-0.555,0.154c-0.141,0.102-0.21,0.235-0.21,0.399c0,0.158,0.058,0.281,0.175,0.368
		c0.115,0.087,0.328,0.166,0.635,0.238c0.309,0.072,0.538,0.149,0.691,0.231s0.268,0.181,0.342,0.296s0.111,0.255,0.111,0.419
		c0,0.268-0.108,0.481-0.324,0.642s-0.497,0.24-0.845,0.24c-0.369,0-0.669-0.09-0.897-0.268c-0.23-0.18-0.345-0.405-0.345-0.679
		h0.352c0.014,0.205,0.1,0.364,0.259,0.479c0.159,0.113,0.37,0.171,0.632,0.171c0.244,0,0.441-0.054,0.592-0.161
		S121.523,89.524,121.523,89.36z"/>
	<path class="st1" d="M124.827,89.662l0.926-2.666h0.378l-1.354,3.709l-0.07,0.164c-0.174,0.385-0.442,0.577-0.806,0.577
		c-0.084,0-0.174-0.014-0.27-0.041l-0.003-0.29l0.182,0.018c0.172,0,0.311-0.043,0.418-0.127c0.105-0.086,0.196-0.231,0.271-0.438
		l0.155-0.428l-1.195-3.144h0.384L124.827,89.662z"/>
	<path class="st1" d="M126.285,88.534c0-0.305,0.059-0.579,0.178-0.823c0.117-0.244,0.284-0.434,0.5-0.57
		c0.216-0.135,0.461-0.203,0.734-0.203c0.422,0,0.764,0.148,1.025,0.443c0.262,0.297,0.393,0.688,0.393,1.177v0.073
		c0,0.307-0.06,0.583-0.178,0.828s-0.284,0.434-0.499,0.566s-0.46,0.199-0.735,0.199c-0.42,0-0.762-0.148-1.023-0.443
		c-0.264-0.297-0.395-0.688-0.395-1.177V88.534z M126.637,88.631c0,0.379,0.098,0.689,0.295,0.934
		c0.195,0.242,0.453,0.364,0.771,0.364c0.316,0,0.572-0.122,0.77-0.364c0.195-0.244,0.294-0.564,0.294-0.963v-0.067
		c0-0.242-0.045-0.464-0.135-0.665s-0.216-0.356-0.378-0.467s-0.348-0.166-0.557-0.166c-0.312,0-0.567,0.123-0.765,0.367
		c-0.197,0.246-0.296,0.566-0.296,0.963V88.631z"/>
	<path class="st1" d="M131.728,89.765c-0.211,0.307-0.548,0.46-1.011,0.46c-0.338,0-0.595-0.098-0.771-0.295
		c-0.176-0.195-0.266-0.486-0.27-0.871v-2.062h0.349v2.019c0,0.604,0.244,0.905,0.732,0.905c0.508,0,0.829-0.21,0.964-0.63v-2.294
		h0.352v3.17h-0.34L131.728,89.765z"/>
	<path class="st1" d="M134.902,89.437l0.053,0.272l0.07-0.287l0.762-2.426h0.299l0.753,2.405l0.082,0.334l0.067-0.308l0.65-2.432
		h0.363l-0.923,3.17h-0.299l-0.814-2.514l-0.038-0.173l-0.038,0.176l-0.8,2.511h-0.299l-0.92-3.17h0.36L134.902,89.437z"/>
	<path class="st1" d="M140.518,90.166c-0.035-0.1-0.058-0.247-0.067-0.442c-0.123,0.16-0.279,0.284-0.471,0.37
		c-0.189,0.087-0.392,0.131-0.604,0.131c-0.305,0-0.552-0.085-0.739-0.255c-0.189-0.17-0.283-0.385-0.283-0.645
		c0-0.309,0.128-0.553,0.385-0.732s0.615-0.27,1.074-0.27h0.636v-0.36c0-0.227-0.07-0.404-0.21-0.535
		c-0.14-0.129-0.343-0.194-0.61-0.194c-0.244,0-0.446,0.062-0.606,0.188s-0.24,0.275-0.24,0.451l-0.352-0.003
		c0-0.252,0.117-0.471,0.352-0.654c0.234-0.186,0.522-0.277,0.864-0.277c0.354,0,0.632,0.089,0.837,0.266
		c0.203,0.177,0.309,0.423,0.314,0.739v1.5c0,0.307,0.032,0.536,0.097,0.688v0.035H140.518z M139.417,89.914
		c0.234,0,0.444-0.057,0.628-0.17c0.186-0.113,0.319-0.265,0.403-0.454v-0.697h-0.627c-0.35,0.004-0.623,0.068-0.82,0.192
		s-0.296,0.294-0.296,0.511c0,0.178,0.066,0.325,0.197,0.442C139.035,89.855,139.206,89.914,139.417,89.914z"/>
	<path class="st1" d="M141.915,86.996l0.012,0.542c0.119-0.195,0.268-0.345,0.445-0.446c0.178-0.104,0.374-0.154,0.589-0.154
		c0.34,0,0.593,0.096,0.759,0.287s0.25,0.479,0.252,0.861v2.08h-0.349v-2.083c-0.002-0.283-0.062-0.494-0.181-0.633
		s-0.307-0.208-0.566-0.208c-0.217,0-0.408,0.068-0.576,0.203c-0.166,0.137-0.29,0.319-0.37,0.55v2.171h-0.349v-3.17H141.915z"/>
	<path class="st1" d="M145.272,86.185v0.812h0.656v0.287h-0.656v2.114c0,0.177,0.031,0.308,0.096,0.394
		c0.062,0.086,0.169,0.129,0.317,0.129c0.059,0,0.153-0.01,0.284-0.029l0.015,0.284c-0.092,0.033-0.217,0.05-0.375,0.05
		c-0.24,0-0.415-0.069-0.524-0.209s-0.164-0.346-0.164-0.617v-2.115h-0.583v-0.287h0.583v-0.812H145.272z"/>
	<path class="st1" d="M64.93,94.185v0.812h0.656v0.287H64.93v2.114c0,0.177,0.032,0.308,0.095,0.394s0.169,0.129,0.318,0.129
		c0.059,0,0.153-0.01,0.284-0.029l0.015,0.284c-0.092,0.033-0.217,0.05-0.375,0.05c-0.24,0-0.415-0.069-0.524-0.209
		s-0.164-0.346-0.164-0.617v-2.115h-0.583v-0.287h0.583v-0.812H64.93z"/>
	<path class="st1" d="M65.911,96.534c0-0.305,0.059-0.579,0.177-0.823s0.285-0.434,0.501-0.57c0.216-0.135,0.46-0.203,0.734-0.203
		c0.422,0,0.764,0.148,1.025,0.443c0.262,0.297,0.393,0.688,0.393,1.177v0.073c0,0.307-0.059,0.583-0.177,0.828
		s-0.285,0.434-0.5,0.566s-0.46,0.199-0.735,0.199c-0.42,0-0.761-0.148-1.024-0.443c-0.263-0.297-0.394-0.688-0.394-1.177V96.534z
		 M66.263,96.631c0,0.379,0.098,0.689,0.294,0.934c0.196,0.242,0.454,0.364,0.772,0.364c0.316,0,0.573-0.122,0.769-0.364
		c0.196-0.244,0.294-0.564,0.294-0.963v-0.067c0-0.242-0.045-0.464-0.135-0.665s-0.216-0.356-0.378-0.467s-0.348-0.166-0.557-0.166
		c-0.312,0-0.567,0.123-0.765,0.367c-0.197,0.246-0.296,0.566-0.296,0.963V96.631z"/>
	<path class="st1" d="M72.089,95.295c-0.074-0.014-0.153-0.021-0.237-0.021c-0.219,0-0.404,0.062-0.555,0.183
		c-0.151,0.123-0.259,0.3-0.324,0.532v2.177h-0.349v-3.17h0.343l0.006,0.504c0.186-0.375,0.483-0.562,0.894-0.562
		c0.098,0,0.175,0.013,0.231,0.038L72.089,95.295z"/>
	<path class="st1" d="M73.664,98.225c-0.27,0-0.513-0.066-0.731-0.199s-0.387-0.318-0.508-0.555
		c-0.121-0.238-0.182-0.504-0.182-0.799v-0.126c0-0.305,0.059-0.579,0.177-0.823s0.283-0.436,0.494-0.576
		c0.211-0.139,0.439-0.209,0.686-0.209c0.385,0,0.69,0.132,0.916,0.395s0.338,0.621,0.338,1.076v0.196h-2.262v0.067
		c0,0.359,0.103,0.659,0.309,0.898s0.465,0.358,0.778,0.358c0.188,0,0.353-0.034,0.497-0.103s0.274-0.178,0.391-0.328l0.22,0.167
		C74.529,98.038,74.155,98.225,73.664,98.225z M73.6,95.236c-0.264,0-0.486,0.097-0.667,0.29s-0.291,0.453-0.33,0.779h1.901v-0.038
		c-0.01-0.305-0.097-0.553-0.261-0.744S73.866,95.236,73.6,95.236z"/>
	<path class="st1" d="M77.388,98.166c-0.035-0.1-0.058-0.247-0.067-0.442c-0.123,0.16-0.28,0.284-0.47,0.37
		c-0.19,0.087-0.392,0.131-0.605,0.131c-0.305,0-0.551-0.085-0.74-0.255s-0.283-0.385-0.283-0.645c0-0.309,0.128-0.553,0.385-0.732
		s0.615-0.27,1.074-0.27h0.636v-0.36c0-0.227-0.07-0.404-0.209-0.535c-0.141-0.129-0.344-0.194-0.611-0.194
		c-0.244,0-0.446,0.062-0.606,0.188s-0.24,0.275-0.24,0.451l-0.352-0.003c0-0.252,0.117-0.471,0.352-0.654
		c0.234-0.186,0.522-0.277,0.864-0.277c0.354,0,0.633,0.089,0.836,0.266c0.205,0.177,0.31,0.423,0.315,0.739v1.5
		c0,0.307,0.032,0.536,0.097,0.688v0.035H77.388z M76.286,97.914c0.234,0,0.444-0.057,0.628-0.17
		c0.184-0.113,0.319-0.265,0.403-0.454v-0.697H76.69c-0.35,0.004-0.623,0.068-0.82,0.192s-0.296,0.294-0.296,0.511
		c0,0.178,0.066,0.325,0.198,0.442S76.075,97.914,76.286,97.914z"/>
	<path class="st1" d="M78.843,98.166h-0.352v-4.5h0.352V98.166z"/>
	<path class="st1" d="M79.625,94.08c0-0.065,0.021-0.121,0.064-0.167s0.102-0.068,0.176-0.068s0.134,0.022,0.177,0.068
		c0.045,0.046,0.066,0.102,0.066,0.167c0,0.066-0.021,0.122-0.066,0.166c-0.043,0.045-0.103,0.067-0.177,0.067
		s-0.133-0.022-0.176-0.067C79.646,94.202,79.625,94.146,79.625,94.08z M80.038,98.166h-0.352v-3.17h0.352V98.166z"/>
	<path class="st1" d="M81.071,97.87h2.06v0.296h-2.493v-0.258l1.922-2.607h-1.863v-0.305h2.306v0.264L81.071,97.87z"/>
	<path class="st1" d="M84.788,98.225c-0.27,0-0.513-0.066-0.73-0.199s-0.387-0.318-0.508-0.555
		c-0.121-0.238-0.182-0.504-0.182-0.799v-0.126c0-0.305,0.059-0.579,0.177-0.823s0.282-0.436,0.493-0.576
		c0.211-0.139,0.439-0.209,0.686-0.209c0.385,0,0.69,0.132,0.916,0.395s0.338,0.621,0.338,1.076v0.196h-2.262v0.067
		c0,0.359,0.104,0.659,0.31,0.898s0.466,0.358,0.778,0.358c0.188,0,0.353-0.034,0.496-0.103s0.273-0.178,0.391-0.328l0.221,0.167
		C85.653,98.038,85.278,98.225,84.788,98.225z M84.723,95.236c-0.264,0-0.485,0.097-0.666,0.29s-0.291,0.453-0.33,0.779h1.902
		v-0.038c-0.01-0.305-0.098-0.553-0.262-0.744S84.989,95.236,84.723,95.236z"/>
	<path class="st1" d="M87.155,96.979c0.004-0.23,0.035-0.416,0.094-0.556c0.059-0.141,0.185-0.307,0.378-0.496
		c0.193-0.19,0.317-0.325,0.374-0.404c0.055-0.079,0.098-0.166,0.129-0.261c0.029-0.095,0.045-0.202,0.045-0.323
		c0-0.244-0.064-0.436-0.195-0.575c-0.129-0.14-0.311-0.209-0.543-0.209c-0.234,0-0.424,0.067-0.566,0.2
		c-0.145,0.135-0.218,0.315-0.222,0.544H86.3c0.004-0.32,0.112-0.576,0.325-0.769s0.483-0.289,0.812-0.289
		c0.336,0,0.602,0.098,0.795,0.294c0.195,0.196,0.292,0.462,0.292,0.798c0,0.211-0.048,0.408-0.144,0.593s-0.277,0.399-0.545,0.646
		c-0.221,0.186-0.331,0.454-0.331,0.808H87.155z M87.108,97.96c0-0.067,0.021-0.124,0.062-0.17c0.043-0.046,0.102-0.069,0.178-0.069
		c0.074,0,0.133,0.023,0.178,0.069c0.043,0.046,0.065,0.103,0.065,0.17c0,0.064-0.022,0.119-0.065,0.163
		c-0.045,0.044-0.104,0.066-0.178,0.066c-0.076,0-0.135-0.022-0.178-0.066C87.13,98.079,87.108,98.024,87.108,97.96z"/>
	<path class="st1" d="M64.907,114.166h-0.36V109.9h0.36V114.166z"/>
	<path class="st1" d="M66.084,114.166v-2.883H65.56v-0.287h0.524v-0.384c0-0.324,0.083-0.573,0.248-0.747s0.395-0.261,0.69-0.261
		c0.133,0,0.257,0.017,0.372,0.05l-0.026,0.29c-0.098-0.023-0.204-0.035-0.319-0.035c-0.193,0-0.344,0.061-0.451,0.181
		s-0.161,0.291-0.161,0.513v0.394h0.756v0.287h-0.756v2.883H66.084z"/>
	<path class="st1" d="M69.982,113.662l0.926-2.666h0.378l-1.354,3.709l-0.07,0.164c-0.174,0.385-0.442,0.577-0.806,0.577
		c-0.084,0-0.174-0.014-0.27-0.041l-0.003-0.29l0.182,0.018c0.172,0,0.311-0.043,0.417-0.127c0.106-0.086,0.197-0.231,0.271-0.438
		l0.155-0.428l-1.195-3.144h0.384L69.982,113.662z"/>
	<path class="st1" d="M71.441,112.534c0-0.305,0.059-0.579,0.177-0.823s0.285-0.434,0.501-0.57c0.216-0.135,0.46-0.203,0.734-0.203
		c0.422,0,0.764,0.148,1.025,0.443c0.262,0.297,0.393,0.688,0.393,1.177v0.073c0,0.307-0.059,0.583-0.177,0.828
		s-0.285,0.434-0.5,0.566s-0.46,0.199-0.735,0.199c-0.42,0-0.761-0.148-1.024-0.443c-0.263-0.297-0.394-0.688-0.394-1.177V112.534z
		 M71.792,112.631c0,0.379,0.098,0.689,0.294,0.934c0.196,0.242,0.454,0.364,0.772,0.364c0.316,0,0.573-0.122,0.769-0.364
		c0.196-0.244,0.294-0.564,0.294-0.963v-0.067c0-0.242-0.045-0.464-0.135-0.665s-0.216-0.356-0.378-0.467s-0.348-0.166-0.557-0.166
		c-0.312,0-0.567,0.123-0.765,0.367c-0.197,0.246-0.296,0.566-0.296,0.963V112.631z"/>
	<path class="st1" d="M76.884,113.765c-0.211,0.307-0.548,0.46-1.011,0.46c-0.338,0-0.595-0.098-0.771-0.295
		c-0.176-0.195-0.266-0.486-0.27-0.871v-2.062h0.349v2.019c0,0.604,0.244,0.905,0.732,0.905c0.508,0,0.829-0.21,0.964-0.63v-2.294
		h0.352v3.17h-0.34L76.884,113.765z"/>
	<path class="st1" d="M80.472,113.929c0.244,0,0.449-0.069,0.613-0.206c0.166-0.139,0.255-0.316,0.269-0.535h0.337
		c-0.01,0.193-0.07,0.37-0.182,0.529s-0.26,0.283-0.443,0.373c-0.186,0.09-0.383,0.135-0.594,0.135
		c-0.416,0-0.746-0.145-0.988-0.434c-0.244-0.289-0.365-0.678-0.365-1.166v-0.105c0-0.312,0.055-0.589,0.164-0.829
		s0.266-0.426,0.471-0.557c0.203-0.131,0.442-0.196,0.716-0.196c0.348,0,0.634,0.104,0.86,0.311
		c0.225,0.207,0.346,0.479,0.361,0.817h-0.337c-0.016-0.248-0.104-0.448-0.269-0.601c-0.162-0.152-0.368-0.229-0.616-0.229
		c-0.316,0-0.562,0.114-0.737,0.343c-0.174,0.229-0.262,0.549-0.262,0.961v0.103c0,0.404,0.088,0.72,0.262,0.946
		C79.907,113.815,80.153,113.929,80.472,113.929z"/>
	<path class="st1" d="M82.047,112.534c0-0.305,0.06-0.579,0.177-0.823c0.119-0.244,0.285-0.434,0.502-0.57
		c0.215-0.135,0.46-0.203,0.733-0.203c0.422,0,0.764,0.148,1.025,0.443c0.262,0.297,0.393,0.688,0.393,1.177v0.073
		c0,0.307-0.06,0.583-0.177,0.828c-0.119,0.245-0.285,0.434-0.5,0.566s-0.46,0.199-0.735,0.199c-0.42,0-0.761-0.148-1.024-0.443
		c-0.262-0.297-0.394-0.688-0.394-1.177V112.534z M82.398,112.631c0,0.379,0.099,0.689,0.294,0.934
		c0.197,0.242,0.454,0.364,0.772,0.364c0.316,0,0.573-0.122,0.769-0.364c0.197-0.244,0.295-0.564,0.295-0.963v-0.067
		c0-0.242-0.045-0.464-0.135-0.665s-0.216-0.356-0.378-0.467s-0.348-0.166-0.557-0.166c-0.312,0-0.567,0.123-0.765,0.367
		c-0.197,0.246-0.296,0.566-0.296,0.963V112.631z"/>
	<path class="st1" d="M87.489,113.765c-0.211,0.307-0.547,0.46-1.01,0.46c-0.338,0-0.596-0.098-0.771-0.295
		c-0.176-0.195-0.266-0.486-0.27-0.871v-2.062h0.35v2.019c0,0.604,0.244,0.905,0.732,0.905c0.508,0,0.828-0.21,0.963-0.63v-2.294
		h0.352v3.17h-0.34L87.489,113.765z"/>
	<path class="st1" d="M88.989,114.166h-0.352v-4.5h0.352V114.166z"/>
	<path class="st1" d="M89.651,112.552c0-0.492,0.109-0.884,0.329-1.177c0.22-0.291,0.519-0.438,0.896-0.438
		c0.428,0,0.754,0.169,0.979,0.507v-1.778h0.348v4.5h-0.328l-0.014-0.422c-0.225,0.32-0.555,0.48-0.99,0.48
		c-0.365,0-0.66-0.146-0.884-0.441c-0.224-0.293-0.335-0.69-0.335-1.19V112.552z M90.005,112.613c0,0.404,0.082,0.724,0.244,0.957
		s0.391,0.35,0.686,0.35c0.432,0,0.738-0.19,0.92-0.571v-1.488c-0.182-0.412-0.486-0.618-0.914-0.618
		c-0.295,0-0.525,0.115-0.689,0.348C90.087,111.82,90.005,112.162,90.005,112.613z"/>
	<path class="st1" d="M94.829,110.185v0.812h0.656v0.287h-0.656v2.114c0,0.177,0.031,0.308,0.096,0.394
		c0.062,0.086,0.169,0.129,0.317,0.129c0.059,0,0.153-0.01,0.284-0.029l0.015,0.284c-0.092,0.033-0.217,0.05-0.375,0.05
		c-0.24,0-0.415-0.069-0.524-0.209s-0.164-0.346-0.164-0.617v-2.115h-0.583v-0.287h0.583v-0.812H94.829z"/>
	<path class="st1" d="M97.526,111.295c-0.074-0.014-0.152-0.021-0.236-0.021c-0.219,0-0.404,0.062-0.556,0.183
		c-0.151,0.123-0.259,0.3-0.323,0.532v2.177h-0.35v-3.17h0.344l0.006,0.504c0.186-0.375,0.482-0.562,0.893-0.562
		c0.098,0,0.176,0.013,0.232,0.038L97.526,111.295z"/>
	<path class="st1" d="M99.814,114.166c-0.035-0.1-0.058-0.247-0.067-0.442c-0.123,0.16-0.279,0.284-0.471,0.37
		c-0.189,0.087-0.392,0.131-0.604,0.131c-0.305,0-0.552-0.085-0.739-0.255c-0.189-0.17-0.283-0.385-0.283-0.645
		c0-0.309,0.129-0.553,0.385-0.732c0.258-0.18,0.615-0.27,1.074-0.27h0.636v-0.36c0-0.227-0.069-0.404-0.21-0.535
		c-0.139-0.129-0.343-0.194-0.61-0.194c-0.244,0-0.446,0.062-0.606,0.188s-0.24,0.275-0.24,0.451l-0.352-0.003
		c0-0.252,0.117-0.471,0.352-0.654c0.234-0.186,0.522-0.277,0.864-0.277c0.354,0,0.632,0.089,0.837,0.266
		c0.203,0.177,0.309,0.423,0.314,0.739v1.5c0,0.307,0.032,0.536,0.097,0.688v0.035H99.814z M98.713,113.914
		c0.234,0,0.444-0.057,0.628-0.17c0.186-0.113,0.319-0.265,0.403-0.454v-0.697h-0.627c-0.35,0.004-0.623,0.068-0.82,0.192
		s-0.296,0.294-0.296,0.511c0,0.178,0.066,0.325,0.197,0.442C98.331,113.855,98.502,113.914,98.713,113.914z"/>
	<path class="st1" d="M101.212,110.996l0.012,0.542c0.119-0.195,0.268-0.345,0.445-0.446c0.178-0.104,0.373-0.154,0.588-0.154
		c0.34,0,0.594,0.096,0.76,0.287s0.25,0.479,0.252,0.861v2.08h-0.35v-2.083c-0.002-0.283-0.062-0.494-0.18-0.633
		s-0.307-0.208-0.566-0.208c-0.217,0-0.409,0.068-0.576,0.203c-0.167,0.137-0.291,0.319-0.371,0.55v2.171h-0.348v-3.17H101.212z"/>
	<path class="st1" d="M105.922,113.36c0-0.174-0.07-0.313-0.209-0.419c-0.141-0.105-0.351-0.188-0.632-0.248
		c-0.281-0.059-0.499-0.127-0.654-0.205c-0.156-0.076-0.271-0.171-0.346-0.282c-0.076-0.111-0.113-0.246-0.113-0.404
		c0-0.25,0.104-0.456,0.313-0.62c0.209-0.162,0.477-0.244,0.803-0.244c0.354,0,0.637,0.088,0.852,0.262
		c0.213,0.176,0.32,0.403,0.32,0.685h-0.352c0-0.186-0.078-0.34-0.232-0.463c-0.156-0.123-0.352-0.185-0.588-0.185
		c-0.23,0-0.416,0.051-0.556,0.154c-0.139,0.102-0.209,0.235-0.209,0.399c0,0.158,0.059,0.281,0.174,0.368
		c0.116,0.087,0.329,0.166,0.636,0.238c0.309,0.072,0.538,0.149,0.691,0.231s0.268,0.181,0.342,0.296s0.111,0.255,0.111,0.419
		c0,0.268-0.108,0.481-0.324,0.642s-0.497,0.24-0.845,0.24c-0.369,0-0.668-0.09-0.898-0.268c-0.229-0.18-0.344-0.405-0.344-0.679
		h0.352c0.014,0.205,0.1,0.364,0.26,0.479c0.158,0.113,0.369,0.171,0.631,0.171c0.244,0,0.441-0.054,0.592-0.161
		S105.922,113.524,105.922,113.36z"/>
	<path class="st1" d="M107.163,114.166v-2.883h-0.524v-0.287h0.524v-0.384c0-0.324,0.082-0.573,0.248-0.747
		c0.164-0.174,0.395-0.261,0.689-0.261c0.133,0,0.257,0.017,0.372,0.05l-0.026,0.29c-0.098-0.023-0.204-0.035-0.319-0.035
		c-0.193,0-0.344,0.061-0.451,0.181s-0.161,0.291-0.161,0.513v0.394h0.756v0.287h-0.756v2.883H107.163z"/>
	<path class="st1" d="M108.555,112.534c0-0.305,0.059-0.579,0.178-0.823c0.117-0.244,0.284-0.434,0.5-0.57
		c0.216-0.135,0.461-0.203,0.734-0.203c0.422,0,0.764,0.148,1.025,0.443c0.262,0.297,0.393,0.688,0.393,1.177v0.073
		c0,0.307-0.06,0.583-0.178,0.828s-0.284,0.434-0.499,0.566s-0.46,0.199-0.735,0.199c-0.42,0-0.762-0.148-1.023-0.443
		c-0.264-0.297-0.395-0.688-0.395-1.177V112.534z M108.906,112.631c0,0.379,0.098,0.689,0.295,0.934
		c0.195,0.242,0.453,0.364,0.771,0.364c0.316,0,0.572-0.122,0.77-0.364c0.195-0.244,0.294-0.564,0.294-0.963v-0.067
		c0-0.242-0.045-0.464-0.135-0.665s-0.216-0.356-0.378-0.467s-0.348-0.166-0.557-0.166c-0.312,0-0.567,0.123-0.765,0.367
		c-0.197,0.246-0.296,0.566-0.296,0.963V112.631z"/>
	<path class="st1" d="M113.423,111.295c-0.074-0.014-0.153-0.021-0.237-0.021c-0.219,0-0.404,0.062-0.556,0.183
		c-0.151,0.123-0.259,0.3-0.323,0.532v2.177h-0.349v-3.17h0.343l0.006,0.504c0.186-0.375,0.483-0.562,0.894-0.562
		c0.098,0,0.175,0.013,0.231,0.038L113.423,111.295z"/>
	<path class="st1" d="M114.145,110.996l0.012,0.516c0.117-0.191,0.264-0.335,0.439-0.431s0.371-0.144,0.586-0.144
		c0.5,0,0.817,0.205,0.952,0.615c0.113-0.197,0.265-0.349,0.454-0.455s0.398-0.16,0.627-0.16c0.68,0,1.026,0.371,1.04,1.113v2.115
		h-0.352v-2.089c-0.002-0.283-0.062-0.493-0.184-0.63c-0.119-0.137-0.315-0.205-0.587-0.205c-0.252,0.004-0.465,0.086-0.639,0.244
		c-0.174,0.16-0.271,0.354-0.29,0.582v2.098h-0.352v-2.115c-0.002-0.271-0.066-0.474-0.191-0.607
		c-0.127-0.134-0.32-0.201-0.582-0.201c-0.221,0-0.41,0.062-0.568,0.189c-0.158,0.125-0.275,0.312-0.352,0.561v2.174h-0.352v-3.17
		H114.145z"/>
	<path class="st1" d="M121.307,113.662l0.926-2.666h0.378l-1.354,3.709l-0.07,0.164c-0.174,0.385-0.442,0.577-0.806,0.577
		c-0.084,0-0.174-0.014-0.27-0.041l-0.003-0.29l0.182,0.018c0.172,0,0.311-0.043,0.418-0.127c0.105-0.086,0.196-0.231,0.271-0.438
		l0.155-0.428l-1.195-3.144h0.384L121.307,113.662z"/>
	<path class="st1" d="M122.766,112.534c0-0.305,0.059-0.579,0.178-0.823c0.117-0.244,0.284-0.434,0.5-0.57
		c0.216-0.135,0.461-0.203,0.734-0.203c0.422,0,0.764,0.148,1.025,0.443c0.262,0.297,0.393,0.688,0.393,1.177v0.073
		c0,0.307-0.06,0.583-0.178,0.828s-0.284,0.434-0.499,0.566s-0.46,0.199-0.735,0.199c-0.42,0-0.762-0.148-1.023-0.443
		c-0.264-0.297-0.395-0.688-0.395-1.177V112.534z M123.118,112.631c0,0.379,0.098,0.689,0.295,0.934
		c0.195,0.242,0.453,0.364,0.771,0.364c0.316,0,0.572-0.122,0.77-0.364c0.195-0.244,0.294-0.564,0.294-0.963v-0.067
		c0-0.242-0.045-0.464-0.135-0.665s-0.216-0.356-0.378-0.467s-0.348-0.166-0.557-0.166c-0.312,0-0.567,0.123-0.765,0.367
		c-0.197,0.246-0.296,0.566-0.296,0.963V112.631z"/>
	<path class="st1" d="M128.209,113.765c-0.211,0.307-0.548,0.46-1.011,0.46c-0.338,0-0.595-0.098-0.771-0.295
		c-0.176-0.195-0.266-0.486-0.27-0.871v-2.062h0.349v2.019c0,0.604,0.244,0.905,0.732,0.905c0.508,0,0.829-0.21,0.964-0.63v-2.294
		h0.352v3.17h-0.34L128.209,113.765z"/>
	<path class="st1" d="M130.78,111.295c-0.074-0.014-0.153-0.021-0.237-0.021c-0.219,0-0.404,0.062-0.556,0.183
		c-0.151,0.123-0.259,0.3-0.323,0.532v2.177h-0.349v-3.17h0.343l0.006,0.504c0.186-0.375,0.483-0.562,0.894-0.562
		c0.098,0,0.175,0.013,0.231,0.038L130.78,111.295z"/>
	<path class="st1" d="M65.557,121.929c0.244,0,0.449-0.069,0.614-0.206c0.165-0.139,0.254-0.316,0.268-0.535h0.337
		c-0.01,0.193-0.07,0.37-0.182,0.529s-0.259,0.283-0.444,0.373s-0.382,0.135-0.593,0.135c-0.416,0-0.746-0.145-0.989-0.434
		s-0.365-0.678-0.365-1.166v-0.105c0-0.312,0.055-0.589,0.164-0.829s0.266-0.426,0.47-0.557s0.443-0.196,0.716-0.196
		c0.348,0,0.634,0.104,0.86,0.311s0.346,0.479,0.362,0.817h-0.337c-0.016-0.248-0.105-0.448-0.268-0.601s-0.369-0.229-0.617-0.229
		c-0.316,0-0.562,0.114-0.737,0.343s-0.262,0.549-0.262,0.961v0.103c0,0.404,0.087,0.72,0.262,0.946S65.239,121.929,65.557,121.929z
		"/>
	<path class="st1" d="M69.366,121.765c-0.211,0.307-0.548,0.46-1.011,0.46c-0.338,0-0.595-0.098-0.771-0.295
		c-0.176-0.195-0.266-0.486-0.27-0.871v-2.062h0.349v2.019c0,0.604,0.244,0.905,0.732,0.905c0.508,0,0.829-0.21,0.964-0.63v-2.294
		h0.352v3.17h-0.34L69.366,121.765z"/>
	<path class="st1" d="M71.937,119.295c-0.074-0.014-0.153-0.021-0.237-0.021c-0.219,0-0.404,0.062-0.555,0.183
		c-0.151,0.123-0.259,0.3-0.324,0.532v2.177h-0.349v-3.17h0.343l0.006,0.504c0.186-0.375,0.483-0.562,0.894-0.562
		c0.098,0,0.175,0.013,0.231,0.038L71.937,119.295z"/>
	<path class="st1" d="M73.805,119.295c-0.074-0.014-0.153-0.021-0.237-0.021c-0.219,0-0.404,0.062-0.555,0.183
		c-0.151,0.123-0.259,0.3-0.324,0.532v2.177h-0.349v-3.17h0.343l0.006,0.504c0.186-0.375,0.483-0.562,0.894-0.562
		c0.098,0,0.175,0.013,0.231,0.038L73.805,119.295z"/>
	<path class="st1" d="M74.189,118.08c0-0.065,0.021-0.121,0.064-0.167s0.102-0.068,0.176-0.068s0.133,0.022,0.177,0.068
		s0.066,0.102,0.066,0.167c0,0.066-0.022,0.122-0.066,0.166c-0.044,0.045-0.103,0.067-0.177,0.067s-0.133-0.022-0.176-0.067
		C74.21,118.202,74.189,118.146,74.189,118.08z M74.602,122.166H74.25v-3.17h0.352V122.166z"/>
	<path class="st1" d="M76.576,121.929c0.244,0,0.448-0.069,0.614-0.206c0.164-0.139,0.254-0.316,0.268-0.535h0.337
		c-0.01,0.193-0.07,0.37-0.182,0.529s-0.259,0.283-0.444,0.373c-0.184,0.09-0.382,0.135-0.593,0.135
		c-0.416,0-0.746-0.145-0.989-0.434s-0.365-0.678-0.365-1.166v-0.105c0-0.312,0.055-0.589,0.164-0.829s0.266-0.426,0.47-0.557
		s0.443-0.196,0.716-0.196c0.348,0,0.635,0.104,0.859,0.311c0.227,0.207,0.347,0.479,0.362,0.817h-0.337
		c-0.016-0.248-0.105-0.448-0.268-0.601c-0.164-0.152-0.369-0.229-0.617-0.229c-0.316,0-0.562,0.114-0.737,0.343
		s-0.262,0.549-0.262,0.961v0.103c0,0.404,0.087,0.72,0.262,0.946S76.258,121.929,76.576,121.929z"/>
	<path class="st1" d="M80.384,121.765c-0.211,0.307-0.547,0.46-1.01,0.46c-0.338,0-0.596-0.098-0.771-0.295
		c-0.176-0.195-0.266-0.486-0.27-0.871v-2.062h0.35v2.019c0,0.604,0.244,0.905,0.732,0.905c0.508,0,0.828-0.21,0.963-0.63v-2.294
		h0.352v3.17h-0.34L80.384,121.765z"/>
	<path class="st1" d="M81.884,122.166h-0.352v-4.5h0.352V122.166z"/>
	<path class="st1" d="M84.724,121.765c-0.211,0.307-0.548,0.46-1.011,0.46c-0.338,0-0.595-0.098-0.771-0.295
		c-0.176-0.195-0.266-0.486-0.27-0.871v-2.062h0.349v2.019c0,0.604,0.244,0.905,0.732,0.905c0.508,0,0.829-0.21,0.964-0.63v-2.294
		h0.352v3.17h-0.34L84.724,121.765z"/>
	<path class="st1" d="M86.151,118.996l0.012,0.516c0.117-0.191,0.264-0.335,0.439-0.431s0.371-0.144,0.586-0.144
		c0.5,0,0.816,0.205,0.951,0.615c0.113-0.197,0.266-0.349,0.455-0.455s0.398-0.16,0.627-0.16c0.68,0,1.025,0.371,1.039,1.113v2.115
		h-0.352v-2.089c-0.002-0.283-0.062-0.493-0.183-0.63s-0.315-0.205-0.587-0.205c-0.252,0.004-0.465,0.086-0.639,0.244
		c-0.174,0.16-0.271,0.354-0.291,0.582v2.098h-0.352v-2.115c-0.002-0.271-0.065-0.474-0.191-0.607s-0.32-0.201-0.582-0.201
		c-0.221,0-0.41,0.062-0.568,0.189c-0.158,0.125-0.275,0.312-0.352,0.561v2.174h-0.352v-3.17H86.151z"/>
	<path class="st1" d="M90.926,122.963l-0.208-0.152c0.178-0.238,0.27-0.485,0.275-0.741v-0.454h0.343v0.366
		C91.336,122.388,91.199,122.715,90.926,122.963z"/>
	<path class="st1" d="M94.065,121.437l0.053,0.272l0.07-0.287l0.762-2.426h0.299l0.753,2.405l0.082,0.334l0.067-0.308l0.65-2.432
		h0.363l-0.923,3.17h-0.299l-0.814-2.514l-0.038-0.173l-0.038,0.176l-0.8,2.511h-0.299l-0.92-3.17h0.36L94.065,121.437z"/>
	<path class="st1" d="M98.028,119.532c0.115-0.189,0.263-0.336,0.442-0.439s0.376-0.155,0.589-0.155c0.34,0,0.593,0.096,0.759,0.287
		s0.25,0.479,0.252,0.861v2.08h-0.349v-2.083c-0.002-0.283-0.062-0.494-0.18-0.633c-0.119-0.139-0.308-0.208-0.567-0.208
		c-0.217,0-0.409,0.068-0.575,0.203c-0.168,0.137-0.291,0.319-0.371,0.55v2.171H97.68v-4.5h0.349V119.532z"/>
	<path class="st1" d="M102.823,122.166c-0.035-0.1-0.057-0.247-0.066-0.442c-0.123,0.16-0.28,0.284-0.471,0.37
		c-0.19,0.087-0.393,0.131-0.605,0.131c-0.305,0-0.551-0.085-0.739-0.255s-0.282-0.385-0.282-0.645c0-0.309,0.128-0.553,0.385-0.732
		s0.615-0.27,1.074-0.27h0.635v-0.36c0-0.227-0.069-0.404-0.209-0.535c-0.14-0.129-0.344-0.194-0.611-0.194
		c-0.244,0-0.445,0.062-0.605,0.188s-0.24,0.275-0.24,0.451l-0.352-0.003c0-0.252,0.117-0.471,0.352-0.654
		c0.234-0.186,0.521-0.277,0.863-0.277c0.354,0,0.633,0.089,0.837,0.266s0.31,0.423,0.315,0.739v1.5
		c0,0.307,0.031,0.536,0.096,0.688v0.035H102.823z M101.722,121.914c0.234,0,0.444-0.057,0.629-0.17s0.318-0.265,0.402-0.454v-0.697
		h-0.627c-0.35,0.004-0.623,0.068-0.82,0.192s-0.295,0.294-0.295,0.511c0,0.178,0.065,0.325,0.197,0.442
		S101.511,121.914,101.722,121.914z"/>
	<path class="st1" d="M104.431,118.185v0.812h0.656v0.287h-0.656v2.114c0,0.177,0.031,0.308,0.096,0.394
		c0.062,0.086,0.169,0.129,0.317,0.129c0.059,0,0.153-0.01,0.284-0.029l0.015,0.284c-0.092,0.033-0.217,0.05-0.375,0.05
		c-0.24,0-0.415-0.069-0.524-0.209s-0.164-0.346-0.164-0.617v-2.115h-0.583v-0.287h0.583v-0.812H104.431z"/>
	<path class="st1" d="M107.732,121.437l0.053,0.272l0.07-0.287l0.762-2.426h0.299l0.753,2.405l0.082,0.334l0.067-0.308l0.65-2.432
		h0.363l-0.923,3.17h-0.299l-0.814-2.514l-0.038-0.173l-0.038,0.176l-0.8,2.511h-0.299l-0.92-3.17h0.36L107.732,121.437z"/>
	<path class="st1" d="M111.153,120.534c0-0.305,0.059-0.579,0.178-0.823c0.117-0.244,0.284-0.434,0.5-0.57
		c0.216-0.135,0.461-0.203,0.734-0.203c0.422,0,0.764,0.148,1.025,0.443c0.262,0.297,0.393,0.688,0.393,1.177v0.073
		c0,0.307-0.06,0.583-0.178,0.828s-0.284,0.434-0.499,0.566s-0.46,0.199-0.735,0.199c-0.42,0-0.762-0.148-1.023-0.443
		c-0.264-0.297-0.395-0.688-0.395-1.177V120.534z M111.505,120.631c0,0.379,0.098,0.689,0.295,0.934
		c0.195,0.242,0.453,0.364,0.771,0.364c0.316,0,0.572-0.122,0.77-0.364c0.195-0.244,0.294-0.564,0.294-0.963v-0.067
		c0-0.242-0.045-0.464-0.135-0.665s-0.216-0.356-0.378-0.467s-0.348-0.166-0.557-0.166c-0.312,0-0.567,0.123-0.765,0.367
		c-0.197,0.246-0.296,0.566-0.296,0.963V120.631z"/>
	<path class="st1" d="M116.597,121.765c-0.211,0.307-0.548,0.46-1.011,0.46c-0.338,0-0.595-0.098-0.771-0.295
		c-0.176-0.195-0.266-0.486-0.27-0.871v-2.062h0.349v2.019c0,0.604,0.244,0.905,0.732,0.905c0.508,0,0.829-0.21,0.964-0.63v-2.294
		h0.352v3.17h-0.34L116.597,121.765z"/>
	<path class="st1" d="M118.096,122.166h-0.352v-4.5h0.352V122.166z"/>
	<path class="st1" d="M118.757,120.552c0-0.492,0.109-0.884,0.33-1.177c0.219-0.291,0.518-0.438,0.895-0.438
		c0.428,0,0.754,0.169,0.979,0.507v-1.778h0.349v4.5h-0.328l-0.015-0.422c-0.225,0.32-0.555,0.48-0.99,0.48
		c-0.365,0-0.66-0.146-0.883-0.441c-0.225-0.293-0.336-0.69-0.336-1.19V120.552z M119.111,120.613c0,0.404,0.081,0.724,0.243,0.957
		s0.391,0.35,0.686,0.35c0.432,0,0.738-0.19,0.92-0.571v-1.488c-0.182-0.412-0.486-0.618-0.914-0.618
		c-0.295,0-0.524,0.115-0.688,0.348C119.193,119.82,119.111,120.162,119.111,120.613z"/>
	<path class="st1" d="M123.37,118.08c0-0.065,0.021-0.121,0.064-0.167s0.102-0.068,0.176-0.068s0.134,0.022,0.177,0.068
		c0.045,0.046,0.066,0.102,0.066,0.167c0,0.066-0.021,0.122-0.066,0.166c-0.043,0.045-0.103,0.067-0.177,0.067
		s-0.133-0.022-0.176-0.067C123.391,118.202,123.37,118.146,123.37,118.08z M123.783,122.166h-0.352v-3.17h0.352V122.166z"/>
	<path class="st1" d="M125.131,118.185v0.812h0.656v0.287h-0.656v2.114c0,0.177,0.031,0.308,0.096,0.394
		c0.062,0.086,0.169,0.129,0.317,0.129c0.059,0,0.153-0.01,0.284-0.029l0.015,0.284c-0.092,0.033-0.217,0.05-0.375,0.05
		c-0.24,0-0.415-0.069-0.524-0.209s-0.164-0.346-0.164-0.617v-2.115h-0.583v-0.287h0.583v-0.812H125.131z"/>
	<path class="st1" d="M129.374,122.166h-0.352v-4.5h0.352V122.166z"/>
	<path class="st1" d="M129.982,120.534c0-0.305,0.059-0.579,0.178-0.823c0.117-0.244,0.284-0.434,0.5-0.57
		c0.216-0.135,0.461-0.203,0.734-0.203c0.422,0,0.764,0.148,1.025,0.443c0.262,0.297,0.393,0.688,0.393,1.177v0.073
		c0,0.307-0.06,0.583-0.178,0.828s-0.284,0.434-0.499,0.566s-0.46,0.199-0.735,0.199c-0.42,0-0.762-0.148-1.023-0.443
		c-0.264-0.297-0.395-0.688-0.395-1.177V120.534z M130.334,120.631c0,0.379,0.098,0.689,0.295,0.934
		c0.195,0.242,0.453,0.364,0.771,0.364c0.316,0,0.572-0.122,0.77-0.364c0.195-0.244,0.294-0.564,0.294-0.963v-0.067
		c0-0.242-0.045-0.464-0.135-0.665s-0.216-0.356-0.378-0.467s-0.348-0.166-0.557-0.166c-0.312,0-0.567,0.123-0.765,0.367
		c-0.197,0.246-0.296,0.566-0.296,0.963V120.631z"/>
	<path class="st1" d="M133.193,120.534c0-0.305,0.059-0.579,0.178-0.823c0.117-0.244,0.284-0.434,0.5-0.57
		c0.216-0.135,0.461-0.203,0.734-0.203c0.422,0,0.764,0.148,1.025,0.443c0.262,0.297,0.393,0.688,0.393,1.177v0.073
		c0,0.307-0.06,0.583-0.178,0.828s-0.284,0.434-0.499,0.566s-0.46,0.199-0.735,0.199c-0.42,0-0.762-0.148-1.023-0.443
		c-0.264-0.297-0.395-0.688-0.395-1.177V120.534z M133.545,120.631c0,0.379,0.098,0.689,0.295,0.934
		c0.195,0.242,0.453,0.364,0.771,0.364c0.316,0,0.572-0.122,0.77-0.364c0.195-0.244,0.294-0.564,0.294-0.963v-0.067
		c0-0.242-0.045-0.464-0.135-0.665s-0.216-0.356-0.378-0.467s-0.348-0.166-0.557-0.166c-0.312,0-0.567,0.123-0.765,0.367
		c-0.197,0.246-0.296,0.566-0.296,0.963V120.631z"/>
	<path class="st1" d="M137.349,120.569l-0.401,0.387v1.21h-0.352v-4.5h0.352v2.88l0.331-0.357l1.213-1.192h0.442l-1.345,1.336
		l1.462,1.834h-0.419L137.349,120.569z"/>
	<path class="st1" d="M141.087,122.166h-0.352v-4.5h0.352V122.166z"/>
	<path class="st1" d="M141.868,118.08c0-0.065,0.021-0.121,0.064-0.167s0.102-0.068,0.176-0.068s0.134,0.022,0.177,0.068
		c0.045,0.046,0.066,0.102,0.066,0.167c0,0.066-0.021,0.122-0.066,0.166c-0.043,0.045-0.103,0.067-0.177,0.067
		s-0.133-0.022-0.176-0.067C141.889,118.202,141.868,118.146,141.868,118.08z M142.281,122.166h-0.352v-3.17h0.352V122.166z"/>
	<path class="st1" d="M143.837,120.569l-0.401,0.387v1.21h-0.352v-4.5h0.352v2.88l0.331-0.357l1.213-1.192h0.442l-1.345,1.336
		l1.462,1.834h-0.419L143.837,120.569z"/>
	<path class="st1" d="M147.041,122.225c-0.27,0-0.514-0.066-0.731-0.199s-0.387-0.318-0.508-0.555
		c-0.121-0.238-0.182-0.504-0.182-0.799v-0.126c0-0.305,0.059-0.579,0.178-0.823c0.117-0.244,0.282-0.436,0.493-0.576
		c0.211-0.139,0.439-0.209,0.686-0.209c0.385,0,0.69,0.132,0.915,0.395c0.227,0.263,0.339,0.621,0.339,1.076v0.196h-2.262v0.067
		c0,0.359,0.103,0.659,0.31,0.898c0.205,0.239,0.465,0.358,0.777,0.358c0.188,0,0.354-0.034,0.496-0.103
		c0.145-0.068,0.274-0.178,0.392-0.328l0.22,0.167C147.905,122.038,147.531,122.225,147.041,122.225z M146.976,119.236
		c-0.264,0-0.486,0.097-0.667,0.29s-0.29,0.453-0.329,0.779h1.901v-0.038c-0.01-0.305-0.097-0.553-0.261-0.744
		S147.242,119.236,146.976,119.236z"/>
	<path class="st1" d="M149.407,120.979c0.004-0.23,0.035-0.416,0.094-0.556c0.059-0.141,0.185-0.307,0.378-0.496
		c0.193-0.19,0.317-0.325,0.374-0.404c0.055-0.079,0.098-0.166,0.129-0.261c0.029-0.095,0.045-0.202,0.045-0.323
		c0-0.244-0.065-0.436-0.195-0.575s-0.311-0.209-0.543-0.209c-0.234,0-0.424,0.067-0.566,0.2c-0.145,0.135-0.218,0.315-0.222,0.544
		h-0.349c0.004-0.32,0.112-0.576,0.325-0.769s0.483-0.289,0.812-0.289c0.336,0,0.601,0.098,0.795,0.294s0.292,0.462,0.292,0.798
		c0,0.211-0.048,0.408-0.144,0.593s-0.277,0.399-0.545,0.646c-0.221,0.186-0.331,0.454-0.331,0.808H149.407z M149.36,121.96
		c0-0.067,0.021-0.124,0.062-0.17s0.102-0.069,0.178-0.069c0.074,0,0.133,0.023,0.178,0.069c0.043,0.046,0.065,0.103,0.065,0.17
		c0,0.064-0.022,0.119-0.065,0.163c-0.045,0.044-0.104,0.066-0.178,0.066c-0.076,0-0.136-0.022-0.178-0.066
		S149.36,122.024,149.36,121.96z"/>
</g>
</svg>
