<?xml version="1.0" encoding="utf-8"?>
<!-- Generator: Adobe Illustrator 22.1.0, SVG Export Plug-In . SVG Version: 6.00 Build 0)  -->
<svg version="1.1" id="Layer_1" xmlns="http://www.w3.org/2000/svg" xmlns:xlink="http://www.w3.org/1999/xlink" x="0px" y="0px"
	 viewBox="0 0 36 36" style="enable-background:new 0 0 36 36;" xml:space="preserve">
<g>
	<path d="M17.041,31.05c-0.216-0.21-0.512-0.336-0.875-0.336c-0.888,0-1.563,0.732-1.563,1.636c0,0.907,0.675,1.639,1.563,1.639
		c0.364,0,0.659-0.122,0.875-0.333v0.27h0.775v-4.082h-0.775V31.05z M17.041,32.746c0,0.016-0.009,0.047-0.016,0.057
		c-0.148,0.27-0.449,0.443-0.775,0.443c-0.477,0-0.863-0.399-0.863-0.895c0-0.487,0.386-0.892,0.863-0.892
		c0.317,0,0.618,0.157,0.769,0.418c0.009,0.019,0.022,0.044,0.022,0.076V32.746z"/>
	<path d="M10.138,31.05c-0.216-0.21-0.511-0.327-0.875-0.327c-0.888,0-1.563,0.722-1.563,1.627c0,0.907,0.675,1.639,1.563,1.639
		c0.364,0,0.659-0.122,0.875-0.333v0.27h0.775v-3.14h-0.775V31.05z M10.138,32.742c-0.001,0.021-0.007,0.041-0.016,0.06
		c-0.148,0.27-0.449,0.443-0.775,0.443c-0.477,0-0.863-0.399-0.863-0.895c0-0.487,0.386-0.892,0.863-0.892
		c0.317,0,0.634,0.148,0.769,0.418c0.009,0.019,0.022,0.044,0.022,0.076V32.742z"/>
	<path d="M27.01,29.844v1.206c-0.217-0.21-0.511-0.327-0.875-0.327c-0.888,0-1.563,0.722-1.563,1.627
		c0,0.907,0.675,1.642,1.563,1.642c0.364,0,0.659-0.126,0.875-0.336v0.27h0.775v-4.082H27.01z M27.01,32.749
		c0,0.016-0.009,0.044-0.016,0.053c-0.147,0.27-0.449,0.443-0.775,0.443c-0.477,0-0.863-0.399-0.863-0.895
		c0-0.487,0.386-0.892,0.863-0.892c0.317,0,0.618,0.157,0.769,0.418c0.009,0.019,0.022,0.044,0.022,0.076V32.749z"/>
	<path d="M12.802,30.724c-0.832,0-1.478,0.669-1.478,1.504v1.699h0.775v-1.699c0-0.411,0.289-0.725,0.703-0.725
		c0.411,0,0.703,0.314,0.703,0.725v1.699h0.775v-1.699C14.28,31.392,13.63,30.724,12.802,30.724z"/>
	<path d="M23.836,29.643c-0.001,0-0.001,0-0.002,0c-0.248,0-0.449,0.202-0.449,0.45c0,0.001,0,0.001,0,0.002
		c0,0.248,0.201,0.452,0.449,0.452c0.248,0,0.449-0.204,0.449-0.452C24.285,29.847,24.085,29.645,23.836,29.643z"/>
	<rect x="23.446" y="30.786" width="0.775" height="3.14"/>
	<path d="M18.227,32.25v1.677h0.775V32.25c0-0.496,0.26-0.76,0.756-0.76v-0.766C18.761,30.724,18.227,31.254,18.227,32.25z"/>
	<path d="M21.453,30.724c-0.904,0-1.638,0.722-1.638,1.627c0,0.907,0.734,1.639,1.638,1.639h0c0.907,0,1.641-0.732,1.641-1.639
		C23.094,31.446,22.36,30.724,21.453,30.724z M22.31,32.35c0,0.474-0.38,0.857-0.857,0.857c-0.471,0-0.853-0.383-0.853-0.857
		c0-0.471,0.383-0.854,0.853-0.854c0.471-0.002,0.855,0.379,0.857,0.85C22.31,32.348,22.31,32.349,22.31,32.35z"/>
	<path d="M9.287,18.87c0.798,0,1.444-0.645,1.443-1.444l0-6.046c0-0.796-0.647-1.443-1.445-1.443c-0.797,0-1.443,0.647-1.444,1.444
		l0.001,6.046C7.844,18.225,8.49,18.87,9.287,18.87z"/>
	<path d="M20.928,4.508l1.008-1.84c0.054-0.096,0.018-0.219-0.079-0.273c-0.098-0.052-0.22-0.017-0.272,0.08l-1.018,1.859
		c-0.857-0.381-1.815-0.595-2.829-0.594c-1.011-0.001-1.969,0.212-2.822,0.591l-1.019-1.854c-0.053-0.098-0.175-0.133-0.271-0.08
		c-0.098,0.053-0.134,0.175-0.08,0.271l1.008,1.839c-1.981,1.022-3.319,2.967-3.318,5.2l13.004-0.001
		C24.242,7.473,22.906,5.532,20.928,4.508z M14.781,7.351c-0.299-0.001-0.543-0.244-0.543-0.545c0-0.3,0.244-0.546,0.544-0.546
		c0.301,0,0.545,0.246,0.546,0.546C15.327,7.107,15.083,7.351,14.781,7.351z M20.702,7.35c-0.301,0-0.545-0.243-0.545-0.545
		c0.001-0.299,0.244-0.545,0.546-0.546c0.299,0.001,0.544,0.247,0.544,0.547C21.247,7.106,21.003,7.35,20.702,7.35z"/>
	<path d="M26.199,18.868c0.797,0,1.443-0.645,1.443-1.444l-0.001-6.046c0-0.797-0.646-1.444-1.444-1.443
		c-0.797-0.001-1.443,0.647-1.443,1.444l0.001,6.046C24.755,18.223,25.401,18.868,26.199,18.868z"/>
	<path d="M16.77,24.317l-0.001-3.198l1.949,0l0.001,3.199c0,0.796,0.648,1.444,1.443,1.443c0.798,0,1.444-0.648,1.444-1.444
		l-0.001-3.198l1.052-0.001c0.85,0,1.541-0.689,1.541-1.541l-0.002-9.369L11.29,10.209l0.002,9.369
		c-0.001,0.852,0.689,1.54,1.54,1.54l1.049,0l0.001,3.199c0,0.796,0.647,1.444,1.443,1.444
		C16.123,25.762,16.769,25.114,16.77,24.317z"/>
</g>
</svg>
