<?xml version="1.0" encoding="utf-8"?>
<!-- Generator: Adobe Illustrator 22.1.0, SVG Export Plug-In . SVG Version: 6.00 Build 0)  -->
<svg version="1.1" id="Layer_1" xmlns="http://www.w3.org/2000/svg" xmlns:xlink="http://www.w3.org/1999/xlink" x="0px" y="0px"
	 viewBox="0 0 164.25 89.25" style="enable-background:new 0 0 164.25 89.25;" xml:space="preserve">
<style type="text/css">
	.st0{fill:#CC0000;}
</style>
<g>
	<path class="st0" d="M79.604,14.523v-0.011c0.319-0.065,0.485-0.28,0.485-0.555c0-0.537-0.452-0.656-0.889-0.656h-0.769v2.376
		h0.371v-1.025h0.311c0.129,0.011,0.252,0,0.344,0.097c0.111,0.111,0.111,0.3,0.137,0.505c0.016,0.139,0.053,0.289,0.078,0.425
		h0.477c-0.084-0.213-0.108-0.461-0.142-0.689C79.971,14.733,79.934,14.588,79.604,14.523z M79.197,14.28h-0.395l0,0v-0.607h0.447
		c0.296,0,0.377,0.092,0.377,0.268C79.625,14.123,79.544,14.271,79.197,14.28z"/>
	<path class="st0" d="M79.231,12.5c-1.123,0-2.025,0.904-2.025,2.019c0,1.121,0.902,2.025,2.025,2.025
		c1.119,0,2.017-0.904,2.017-2.026C81.249,13.403,80.35,12.5,79.231,12.5z M79.231,16.188c-0.923,0-1.67-0.747-1.67-1.67
		c0-0.915,0.747-1.663,1.67-1.663c0.921,0,1.661,0.749,1.661,1.663C80.894,15.442,80.154,16.188,79.231,16.188z"/>
	<path class="st0" d="M2.656,59.42c-1.139-3.011-0.652-6.446,1.139-10.008c-1.091,0.082-2.005-0.183-3.086-0.54
		c-0.048-0.016-0.088-0.04-0.135-0.058v37.092h73.404V47.68c-5.89,5.697-14.557,11.117-24.837,15.056
		C27.322,71.091,6.51,69.607,2.656,59.42z"/>
	<path class="st0" d="M20.577,42.505c0.362-0.857,0.817-3.547,0.897-4.92c0.077-1.372-0.244-2.042-0.559-2.342
		c-0.317-0.306-1.032-0.418-1.032-0.418h-0.618l-1.676,9.874c0,0,0.291,0.074,0.567,0.074c0.28,0,0.713-0.067,1.226-0.373
		C19.897,44.092,20.22,43.347,20.577,42.505z"/>
	<path class="st0" d="M0.575,32.63c1.045-1.14,2.409-1.949,3.263-2.196c1.022-0.297,2.102-0.461,3.527-0.461
		c0.911,0,2.809,0.461,3.759,1.577c0.952,1.117,1.151,2.74,1.268,3.707c0.12,0.965-0.155,2.898-0.155,2.898H6.928
		c0,0,0.082-0.51,0.079-1.425c-0.002-0.617-0.023-1.211-0.237-1.574c-0.121-0.205-0.28-0.306-0.872-0.306
		c-0.593,0-0.95,0.357-1.149,0.763c-0.199,0.406-0.437,1.016-0.437,1.016s-0.937,4.21-1.066,5.688
		c-0.056,0.626,0.155,1.422,0.511,1.88c0.278,0.356,0.919,0.37,1.465-0.102c0.355-0.306,0.629-0.954,0.793-1.372
		c0.237-0.61,0.474-1.32,0.474-1.32h3.344c0.952-0.947,1.986-1.887,3.087-2.817l1.353-8.08l7.4,0.01c0,0,1.592,0.244,2.066,0.396
		c0.081,0.025,0.189,0.074,0.292,0.118c3.433-1.904,7.162-3.66,11.149-5.187c15.238-5.836,29.976-6.867,38.798-3.491V12.5H0.575
		V32.63z"/>
	<path class="st0" d="M9.066,47.247c-0.983,0.934-2.34,1.508-3.654,1.857c-1.736,3.276-2.231,6.418-1.16,9.126
		c3.453,8.732,21.69,9.631,40.731,2.009c19.04-7.623,31.678-20.879,28.225-29.612c-3.453-8.732-21.688-9.631-40.731-2.009
		c-2.471,0.989-4.824,2.077-7.058,3.235c0.076,0.059,0.162,0.12,0.222,0.178c0.476,0.457,1.028,1.166,1.387,2.081
		c0.354,0.916,0.437,2.748,0.278,4.422c-0.159,1.678-0.713,4.166-1.346,5.283c-0.635,1.119-1.152,2.543-2.932,3.811
		c-1.783,1.268-3.274,1.328-3.789,1.328c-1.114,0-8.053-0.008-8.053-0.008l1.422-8.486c-0.354,0.315-0.706,0.628-1.041,0.943H11.8
		c0,0-0.041,0.102-0.12,0.862C11.6,43.029,10.304,46.07,9.066,47.247z M52.033,37.696c1.137-2.56,3.053-4.779,5.501-6.241
		c2.441-1.435,4.94-1.749,8.153-0.731c0.256,0.105,0.537,0.183,0.788,0.313l-1.607,5.408c-0.25-0.131-0.5-0.262-0.775-0.366
		c-0.656-0.235-1.35-0.366-2.037-0.419c-2.913-0.181-4.603,0.993-5.667,3.501c-0.19,0.443-0.325,0.915-0.416,1.383
		c-0.453,2.535,0.288,3.733,2.524,3.788c0.213,0,0.429-0.026,0.672-0.077l0.557-1.881h-2.436l2.083-4.153l6.165,0.002l-2.921,9.871
		c-1.773,1.044-3.596,1.592-5.506,1.592C51.357,49.735,49.055,44.381,52.033,37.696z M50.485,39.486c0,0.827-0.67,1.495-1.495,1.495
		c-0.823,0-1.494-0.67-1.494-1.495c0-0.823,0.67-1.495,1.494-1.495C49.816,37.991,50.485,38.662,50.485,39.486z M33.584,30.599
		l-0.627,11.248l3.133-11.205h6.035l-0.593,11.331l3.065-11.246h5.18l-6.165,18.521h-6.299l0.627-11.629l-3.263,11.502h-6.23V30.599
		H33.584z"/>
	<path class="st0" d="M87.209,41.201h2.648c3.305,0,5.291-1.985,5.291-5.184c0-3.197-1.984-5.18-5.291-5.18h-6.615V45.83h3.968
		L87.209,41.201L87.209,41.201z M87.209,34.366h2.206c0.882,0,1.654,0.331,1.654,1.652c0,1.324-0.773,1.654-1.654,1.654h-2.206
		V34.366z"/>
	<polygon class="st0" points="107.715,42.302 100.881,42.302 100.881,39.876 106.614,39.876 106.614,36.347 100.881,36.347 
		100.881,34.366 107.606,34.366 107.606,30.837 96.913,30.837 96.913,45.83 107.715,45.83 	"/>
	<path class="st0" d="M116.301,46.049c5.401,0,6.945-3.527,6.945-7.826c0-4.299-1.545-7.607-6.945-7.607
		c-5.401,0-6.944,3.307-6.944,7.607C109.357,42.521,110.9,46.049,116.301,46.049z M116.301,33.924c2.315,0,2.757,1.542,2.757,4.299
		c0,2.755-0.441,4.519-2.757,4.519c-2.315,0-2.755-1.763-2.755-4.519C113.545,35.466,113.985,33.924,116.301,33.924z"/>
	<path class="st0" d="M129.387,41.201h2.648c3.306,0,5.29-1.985,5.29-5.184c0-3.197-1.983-5.18-5.29-5.18h-6.616V45.83h3.968V41.201
		z M129.387,34.366h2.206c0.882,0,1.655,0.331,1.655,1.652c0,1.324-0.773,1.654-1.655,1.654h-2.206V34.366z"/>
	<polygon class="st0" points="149.671,42.302 143.058,42.302 143.058,30.837 139.09,30.837 139.09,45.83 149.671,45.83 	"/>
	<polygon class="st0" points="155.391,42.302 155.391,39.876 161.124,39.876 161.124,36.347 155.391,36.347 155.391,34.366 
		162.116,34.366 162.116,30.837 151.422,30.837 151.422,45.83 162.226,45.83 162.226,42.302 	"/>
	<polygon class="st0" points="91.07,65.977 92.701,57.269 92.745,57.269 94.376,65.977 99.449,65.977 102.865,50.874 98.677,50.874 
		97.022,61.016 97,61.016 95.148,50.874 90.518,50.874 88.754,61.016 88.731,61.016 86.991,50.874 82.581,50.874 85.997,65.977 	"/>
	<polygon class="st0" points="104.538,50.874 104.538,65.868 108.506,65.868 108.506,59.914 112.917,59.914 112.917,65.868 
		116.885,65.868 116.885,50.874 112.917,50.874 112.917,56.387 108.506,56.387 108.506,50.874 	"/>
	<path class="st0" d="M126.002,50.653c-5.401,0-6.944,3.308-6.944,7.607c0,4.298,1.543,7.826,6.944,7.827
		c5.401,0,6.945-3.528,6.945-7.827C132.947,53.961,131.402,50.653,126.002,50.653z M126.001,62.78c-2.313,0-2.755-1.763-2.755-4.519
		c0-2.757,0.442-4.299,2.755-4.299c2.315,0,2.755,1.541,2.755,4.299C128.756,61.016,128.317,62.78,126.001,62.78z"/>
	<path class="st0" d="M90.298,74.219c1.103,0,1.985,0.11,4.409,0.663l0.882-3.309c-2.205-0.661-3.748-0.882-5.622-0.882
		c-5.401,0-6.945,3.309-6.945,7.607c0,4.298,1.545,7.828,6.945,7.828c1.874,0,3.417-0.221,5.622-0.883v-7.717h-5.731v3.528h1.764
		v1.477c-0.486,0.045-0.906,0.065-1.323,0.066c-2.095,0-3.088-1.321-3.088-4.299C87.21,75.542,88.204,74.219,90.298,74.219z"/>
	<polygon class="st0" points="102.069,79.952 107.8,79.952 107.8,76.424 102.069,76.424 102.069,74.441 108.793,74.441 
		108.793,70.911 98.1,70.911 98.1,85.904 108.903,85.904 108.903,82.377 102.069,82.377 	"/>
	<polygon class="st0" points="110.487,74.441 114.233,74.441 114.233,85.904 118.204,85.904 118.204,74.441 121.951,74.441 
		121.951,70.911 110.487,70.911 	"/>
	<rect x="128.124" y="70.911" class="st0" width="3.969" height="14.993"/>
	<polygon class="st0" points="133.82,74.441 137.566,74.441 137.566,85.904 141.537,85.904 141.537,74.441 145.285,74.441 
		145.285,70.911 133.82,70.911 	"/>
	<path class="st0" d="M149.807,72.495v-0.01c0.265-0.053,0.405-0.231,0.405-0.459c0-0.447-0.378-0.546-0.741-0.546h-0.64v1.976
		h0.309v-0.854h0.261v-0.001c0.107,0.01,0.208,0,0.284,0.083c0.092,0.092,0.092,0.247,0.115,0.418
		c0.013,0.116,0.044,0.241,0.065,0.353h0.397c-0.07-0.175-0.09-0.384-0.119-0.572C150.113,72.671,150.083,72.548,149.807,72.495z
		 M149.47,72.293h-0.328v-0.504h0.371c0.246,0,0.313,0.076,0.313,0.223C149.825,72.163,149.758,72.284,149.47,72.293z"/>
	<path class="st0" d="M149.499,70.812c-0.934,0-1.684,0.752-1.684,1.679c-0.001,0.934,0.749,1.686,1.684,1.686
		c0.932,0,1.679-0.752,1.679-1.686C151.178,71.565,150.431,70.812,149.499,70.812z M149.499,73.881c-0.768,0-1.389-0.621-1.389-1.39
		c0-0.76,0.621-1.382,1.389-1.382c0.768,0,1.382,0.623,1.382,1.382C150.882,73.26,150.266,73.881,149.499,73.881z"/>
</g>
</svg>
