<?xml version="1.0" encoding="utf-8"?>
<!-- Generator: Adobe Illustrator 22.1.0, SVG Export Plug-In . SVG Version: 6.00 Build 0)  -->
<svg version="1.1" id="Layer_1" xmlns="http://www.w3.org/2000/svg" xmlns:xlink="http://www.w3.org/1999/xlink" x="0px" y="0px"
	 viewBox="0 0 980 75" style="enable-background:new 0 0 980 75;" xml:space="preserve">
<style type="text/css">
	.st0{fill:#03B2E2;}
	.st1{fill:#CB2026;}
</style>
<rect y="11.699" width="980" height="14.541"/>
<g>
	<polygon class="st0" points="134.278,38.39 119.522,37.721 120.095,40.705 124.696,40.21 124.274,64.304 126.123,64.726 
		128.666,40.018 133.67,39.79 	"/>
	<path class="st0" d="M141.48,60.044c-0.212,0.03-0.429,0.022-0.64,0.053c-2.619,0.141-5.785-0.627-6.654-6.624l10.792-0.729
		c-0.089-1.014-0.134-1.521-0.274-2.331c-0.696-4.009-2.537-7.377-7.121-7.07c-0.168,0.024-0.386,0.016-0.556,0.041
		c-4.522,0.653-6.197,5.477-5.241,10.988c0.763,4.394,3.478,9.295,10.029,8.349c1.563-0.226,3.129-0.689,3.944-1.242l-1.307-2.537
		C143.794,59.394,142.832,59.848,141.48,60.044z M137.108,45.348c2.198-0.318,3.848,1.695,4.456,5.203l-7.262,0.851
		C134.009,48.718,134.613,45.708,137.108,45.348z"/>
	<path class="st0" d="M160.544,46.895l-0.084-0.013c-0.807-2.092-2.377-3.03-3.984-3.261c-3.338-0.482-7.269,2.19-8.32,8.241
		c-0.823,4.739-0.236,10.593,5.129,11.368c2.283,0.328,4.306-0.84,5.181-2.136l0.127,0.018l-1.237,9.618l2.312-0.337l3.633-19.662
		l0.984-5.665l-3.693-1.679L160.544,46.895z M159.679,51.629l-0.543,4.623c-0.398,3.537-2.866,4.525-4.303,4.317
		c-3.719-0.537-3.975-5.552-3.426-8.712c0.629-3.623,2.435-6.285,5.182-5.888C158.83,46.292,160.041,48.798,159.679,51.629z"/>
	<polygon class="st0" points="167.376,40.619 167.89,40.619 167.89,41.996 168.097,41.996 168.097,40.619 168.613,40.619 
		168.613,40.434 167.376,40.434 	"/>
	<path class="st0" d="M169.656,41.521c-0.037,0.11-0.065,0.193-0.083,0.25c-0.016-0.052-0.041-0.128-0.074-0.231l-0.37-1.105h-0.31
		v1.561h0.199v-1.329l0.451,1.329h0.186l0.453-1.306v1.306h0.199v-1.561h-0.278L169.656,41.521z"/>
</g>
<g>
	<path class="st1" d="M46.243,34.52v-0.005c0.145-0.03,0.22-0.127,0.22-0.252c0-0.244-0.205-0.298-0.404-0.298H45.71v1.08h0.169
		v-0.466h0.141c0.059,0.005,0.114,0,0.156,0.044c0.05,0.05,0.05,0.136,0.062,0.229c0.007,0.063,0.024,0.131,0.035,0.193h0.217
		c-0.038-0.097-0.049-0.209-0.065-0.313C46.41,34.616,46.393,34.55,46.243,34.52z M46.058,34.41h-0.179l0,0v-0.276h0.203
		c0.134,0,0.171,0.042,0.171,0.122C46.253,34.339,46.216,34.406,46.058,34.41z"/>
	<path class="st1" d="M46.074,33.601c-0.51,0-0.92,0.411-0.92,0.917c0,0.509,0.41,0.92,0.92,0.92c0.508,0,0.916-0.411,0.916-0.921
		C46.991,34.012,46.582,33.601,46.074,33.601z M46.074,35.277c-0.419,0-0.759-0.339-0.759-0.759c0-0.416,0.339-0.756,0.759-0.756
		c0.418,0,0.755,0.34,0.755,0.756C46.829,34.938,46.493,35.277,46.074,35.277z"/>
	<path class="st1" d="M11.282,54.919c-0.518-1.368-0.296-2.929,0.518-4.547c-0.496,0.037-0.911-0.083-1.402-0.245
		c-0.022-0.007-0.04-0.018-0.061-0.026v16.853h33.351V49.585c-2.676,2.588-6.614,5.051-11.285,6.841
		C22.489,60.222,13.033,59.548,11.282,54.919z"/>
	<path class="st1" d="M19.424,47.234c0.164-0.389,0.371-1.612,0.408-2.235c0.035-0.623-0.111-0.928-0.254-1.064
		c-0.144-0.139-0.469-0.19-0.469-0.19h-0.281l-0.761,4.486c0,0,0.132,0.034,0.258,0.034c0.127,0,0.324-0.03,0.557-0.169
		C19.115,47.955,19.262,47.617,19.424,47.234z"/>
	<path class="st1" d="M10.336,42.747c0.475-0.518,1.095-0.886,1.483-0.998c0.464-0.135,0.955-0.209,1.602-0.209
		c0.414,0,1.276,0.209,1.708,0.717c0.433,0.508,0.523,1.245,0.576,1.684c0.055,0.438-0.07,1.317-0.07,1.317h-2.412
		c0,0,0.037-0.232,0.036-0.647c-0.001-0.28-0.01-0.55-0.108-0.715c-0.055-0.093-0.127-0.139-0.396-0.139
		c-0.269,0-0.432,0.162-0.522,0.347c-0.09,0.184-0.199,0.462-0.199,0.462s-0.426,1.913-0.484,2.584
		c-0.025,0.284,0.07,0.646,0.232,0.854c0.126,0.162,0.418,0.168,0.666-0.046c0.161-0.139,0.286-0.433,0.36-0.623
		c0.108-0.277,0.215-0.6,0.215-0.6h1.519c0.433-0.43,0.902-0.857,1.403-1.28l0.615-3.671l3.362,0.005c0,0,0.723,0.111,0.939,0.18
		c0.037,0.011,0.086,0.034,0.133,0.054c1.56-0.865,3.254-1.663,5.066-2.357c6.923-2.652,13.62-3.12,17.628-1.586v-4.476H10.336
		V42.747z"/>
	<path class="st1" d="M14.194,49.389c-0.447,0.424-1.063,0.685-1.66,0.844c-0.789,1.488-1.014,2.916-0.527,4.146
		c1.569,3.967,9.855,4.376,18.506,0.913c8.651-3.464,14.393-9.486,12.824-13.454c-1.569-3.967-9.854-4.376-18.506-0.913
		c-1.123,0.449-2.192,0.944-3.207,1.47c0.035,0.027,0.074,0.055,0.101,0.081c0.216,0.208,0.467,0.53,0.63,0.946
		c0.161,0.416,0.199,1.249,0.126,2.009c-0.072,0.762-0.324,1.893-0.612,2.4c-0.289,0.508-0.523,1.155-1.332,1.732
		c-0.81,0.576-1.488,0.603-1.722,0.603c-0.506,0-3.659-0.004-3.659-0.004l0.646-3.856c-0.161,0.143-0.321,0.285-0.473,0.428h0.106
		c0,0-0.019,0.046-0.055,0.392C15.346,47.472,14.757,48.854,14.194,49.389z M33.716,45.049c0.517-1.163,1.387-2.171,2.499-2.836
		c1.109-0.652,2.244-0.795,3.704-0.332c0.116,0.048,0.244,0.083,0.358,0.142l-0.73,2.457c-0.114-0.06-0.227-0.119-0.352-0.166
		c-0.298-0.107-0.613-0.166-0.926-0.19c-1.324-0.082-2.091,0.451-2.575,1.591c-0.086,0.201-0.148,0.416-0.189,0.628
		c-0.206,1.152,0.131,1.696,1.147,1.721c0.097,0,0.195-0.012,0.305-0.035l0.253-0.855h-1.107l0.946-1.887l2.801,0.001l-1.327,4.485
		c-0.806,0.474-1.634,0.723-2.502,0.723C33.409,50.519,32.363,48.086,33.716,45.049z M33.013,45.862
		c0,0.376-0.304,0.679-0.679,0.679c-0.374,0-0.679-0.304-0.679-0.679c0-0.374,0.304-0.679,0.679-0.679
		C32.709,45.183,33.013,45.488,33.013,45.862z M25.334,41.825l-0.285,5.111l1.423-5.091h2.742l-0.269,5.148l1.393-5.11h2.354
		l-2.801,8.415h-2.862l0.285-5.284l-1.483,5.226H23v-8.415H25.334z"/>
	<path class="st1" d="M49.699,46.642h1.203c1.502,0,2.404-0.902,2.404-2.355c0-1.453-0.901-2.354-2.404-2.354h-3.006v6.812h1.803
		L49.699,46.642L49.699,46.642z M49.699,43.536h1.002c0.401,0,0.751,0.15,0.751,0.751c0,0.602-0.351,0.751-0.751,0.751h-1.002
		V43.536z"/>
	<polygon class="st1" points="59.015,47.142 55.91,47.142 55.91,46.04 58.515,46.04 58.515,44.436 55.91,44.436 55.91,43.536 
		58.966,43.536 58.966,41.933 54.108,41.933 54.108,48.745 59.015,48.745 	"/>
	<path class="st1" d="M62.917,48.844c2.454,0,3.155-1.602,3.155-3.556s-0.702-3.456-3.155-3.456c-2.454,0-3.155,1.503-3.155,3.456
		C59.762,47.241,60.463,48.844,62.917,48.844z M62.917,43.335c1.052,0,1.253,0.701,1.253,1.953c0,1.252-0.2,2.053-1.253,2.053
		c-1.052,0-1.252-0.801-1.252-2.053C61.664,44.036,61.864,43.335,62.917,43.335z"/>
	<path class="st1" d="M68.862,46.642h1.203c1.502,0,2.404-0.902,2.404-2.355c0-1.453-0.901-2.354-2.404-2.354h-3.006v6.812h1.803
		V46.642z M68.862,43.536h1.002c0.401,0,0.752,0.15,0.752,0.751c0,0.602-0.351,0.751-0.752,0.751h-1.002V43.536z"/>
	<polygon class="st1" points="78.078,47.142 75.074,47.142 75.074,41.933 73.271,41.933 73.271,48.745 78.078,48.745 	"/>
	<polygon class="st1" points="80.677,47.142 80.677,46.04 83.282,46.04 83.282,44.436 80.677,44.436 80.677,43.536 83.733,43.536 
		83.733,41.933 78.874,41.933 78.874,48.745 83.783,48.745 83.783,47.142 	"/>
	<polygon class="st1" points="51.453,57.899 52.194,53.942 52.214,53.942 52.955,57.899 55.26,57.899 56.812,51.036 54.909,51.036 
		54.157,55.645 54.147,55.645 53.306,51.036 51.202,51.036 50.401,55.645 50.39,55.645 49.6,51.036 47.596,51.036 49.148,57.899 	
		"/>
	<polygon class="st1" points="57.572,51.036 57.572,57.849 59.375,57.849 59.375,55.144 61.379,55.144 61.379,57.849 63.182,57.849 
		63.182,51.036 61.379,51.036 61.379,53.541 59.375,53.541 59.375,51.036 	"/>
	<path class="st1" d="M67.324,50.936c-2.454,0-3.155,1.503-3.155,3.456c0,1.953,0.701,3.556,3.155,3.556
		c2.454,0,3.155-1.603,3.155-3.556S69.778,50.936,67.324,50.936z M67.324,56.446c-1.051,0-1.252-0.801-1.252-2.053
		c0-1.253,0.201-1.953,1.252-1.953c1.052,0,1.252,0.7,1.252,1.953C68.575,55.645,68.376,56.446,67.324,56.446z"/>
	<path class="st1" d="M51.102,61.643c0.501,0,0.902,0.05,2.003,0.301l0.401-1.503c-1.002-0.3-1.703-0.401-2.554-0.401
		c-2.454,0-3.155,1.503-3.155,3.456c0,1.953,0.702,3.557,3.155,3.557c0.851,0,1.553-0.1,2.554-0.401v-3.506h-2.604v1.603h0.801
		v0.671c-0.221,0.02-0.412,0.03-0.601,0.03c-0.952,0-1.403-0.6-1.403-1.953C49.699,62.244,50.151,61.643,51.102,61.643z"/>
	<polygon class="st1" points="56.45,64.248 59.054,64.248 59.054,62.645 56.45,62.645 56.45,61.744 59.505,61.744 59.505,60.14 
		54.647,60.14 54.647,66.952 59.555,66.952 59.555,65.35 56.45,65.35 	"/>
	<polygon class="st1" points="60.275,61.744 61.977,61.744 61.977,66.952 63.781,66.952 63.781,61.744 65.484,61.744 65.484,60.14 
		60.275,60.14 	"/>
	<rect x="68.288" y="60.14" class="st1" width="1.803" height="6.812"/>
	<polygon class="st1" points="70.876,61.744 72.578,61.744 72.578,66.952 74.383,66.952 74.383,61.744 76.085,61.744 76.085,60.14 
		70.876,60.14 	"/>
	<path class="st1" d="M78.14,60.86v-0.005c0.12-0.024,0.184-0.105,0.184-0.209c0-0.203-0.172-0.248-0.337-0.248h-0.291v0.898h0.14
		v-0.388h0.119v0c0.049,0.005,0.095,0,0.129,0.038c0.042,0.042,0.042,0.112,0.052,0.19c0.006,0.053,0.02,0.109,0.03,0.16h0.18
		c-0.032-0.08-0.041-0.174-0.054-0.26C78.279,60.94,78.265,60.884,78.14,60.86z M77.987,60.768h-0.149v-0.229h0.169
		c0.112,0,0.142,0.035,0.142,0.101C78.148,60.709,78.118,60.764,77.987,60.768z"/>
	<path class="st1" d="M78,60.095c-0.424,0-0.765,0.342-0.765,0.763c0,0.424,0.34,0.766,0.765,0.766c0.423,0,0.763-0.342,0.763-0.766
		C78.763,60.437,78.424,60.095,78,60.095z M78,61.49c-0.349,0-0.631-0.282-0.631-0.632c0-0.345,0.282-0.628,0.631-0.628
		s0.628,0.283,0.628,0.628C78.628,61.208,78.349,61.49,78,61.49z"/>
</g>
<rect x="100.5" y="38.832" transform="matrix(-1 -1.224647e-16 1.224647e-16 -1 201.7036 103.5577)" width="0.704" height="25.894"/>
<g>
	<path class="st1" d="M850.238,58.87c0.48-0.59,1.105-0.885,1.875-0.885c1.34,0,2.016,0.756,2.027,2.268v4.189h-1.084v-4.195
		c-0.004-0.457-0.109-0.795-0.314-1.014s-0.523-0.328-0.957-0.328c-0.352,0-0.66,0.094-0.926,0.281s-0.473,0.434-0.621,0.738v4.518
		h-1.084v-9h1.084V58.87z"/>
	<path class="st1" d="M856.934,56.567v1.535h1.184v0.838h-1.184v3.937c0,0.254,0.053,0.445,0.158,0.572s0.285,0.19,0.539,0.19
		c0.125,0,0.297-0.023,0.516-0.07v0.874c-0.285,0.077-0.562,0.116-0.832,0.116c-0.484,0-0.85-0.146-1.096-0.439
		s-0.369-0.709-0.369-1.248V58.94h-1.154v-0.838h1.154v-1.535H856.934z"/>
	<path class="st1" d="M860.554,56.567v1.535h1.184v0.838h-1.184v3.937c0,0.254,0.053,0.445,0.158,0.572s0.285,0.19,0.539,0.19
		c0.125,0,0.297-0.023,0.516-0.07v0.874c-0.285,0.077-0.562,0.116-0.832,0.116c-0.484,0-0.85-0.146-1.096-0.439
		s-0.369-0.709-0.369-1.248V58.94h-1.154v-0.838h1.154v-1.535H860.554z"/>
	<path class="st1" d="M868.059,61.343c0,0.965-0.221,1.742-0.662,2.332s-1.039,0.885-1.793,0.885c-0.77,0-1.375-0.244-1.816-0.732
		v3.053h-1.084v-8.777h0.99l0.053,0.703c0.441-0.547,1.055-0.82,1.84-0.82c0.762,0,1.364,0.287,1.808,0.861s0.665,1.373,0.665,2.396
		V61.343z M866.975,61.22c0-0.715-0.152-1.279-0.457-1.693s-0.723-0.621-1.254-0.621c-0.656,0-1.148,0.291-1.477,0.873v3.029
		c0.324,0.578,0.82,0.867,1.488,0.867c0.52,0,0.933-0.206,1.239-0.618S866.975,62.032,866.975,61.22z"/>
	<path class="st1" d="M872.826,62.761c0-0.293-0.109-0.521-0.33-0.683s-0.605-0.302-1.154-0.419s-0.984-0.258-1.307-0.422
		s-0.561-0.359-0.715-0.586s-0.232-0.496-0.232-0.809c0-0.52,0.221-0.959,0.66-1.318s1-0.539,1.684-0.539
		c0.719,0,1.303,0.186,1.75,0.557s0.67,0.846,0.67,1.424h-1.09c0-0.297-0.125-0.553-0.377-0.768s-0.57-0.322-0.953-0.322
		c-0.395,0-0.703,0.086-0.926,0.258s-0.334,0.396-0.334,0.674c0,0.262,0.104,0.459,0.311,0.592s0.582,0.26,1.123,0.381
		s0.979,0.266,1.314,0.434s0.586,0.37,0.748,0.606s0.242,0.524,0.242,0.864c0,0.566-0.227,1.021-0.68,1.362
		s-1.041,0.513-1.764,0.513c-0.508,0-0.957-0.09-1.348-0.27s-0.695-0.431-0.916-0.753s-0.332-0.671-0.332-1.046h1.084
		c0.02,0.363,0.166,0.651,0.438,0.864s0.629,0.319,1.074,0.319c0.41,0,0.74-0.083,0.988-0.249S872.826,63.038,872.826,62.761z"/>
	<path class="st1" d="M874.988,63.874c0-0.188,0.055-0.344,0.166-0.469s0.279-0.188,0.502-0.188s0.391,0.062,0.506,0.188
		s0.174,0.281,0.174,0.469c0,0.18-0.059,0.33-0.174,0.451s-0.283,0.182-0.506,0.182s-0.391-0.061-0.502-0.182
		S874.988,64.054,874.988,63.874z M874.994,58.7c0-0.188,0.055-0.344,0.166-0.469s0.279-0.188,0.502-0.188s0.391,0.062,0.506,0.188
		s0.174,0.281,0.174,0.469c0,0.18-0.059,0.33-0.174,0.451s-0.283,0.182-0.506,0.182s-0.391-0.061-0.502-0.182
		S874.994,58.88,874.994,58.7z"/>
	<path class="st1" d="M877.846,65.175h-0.932l3.562-9.264h0.926L877.846,65.175z"/>
	<path class="st1" d="M881.179,65.175h-0.932l3.562-9.264h0.926L881.179,65.175z"/>
	<path class="st1" d="M891.221,62.948l1.219-4.846h1.084l-1.846,6.34h-0.879l-1.541-4.805l-1.5,4.805h-0.879l-1.84-6.34h1.078
		l1.248,4.746l1.477-4.746h0.873L891.221,62.948z"/>
	<path class="st1" d="M899.938,62.948l1.219-4.846h1.084l-1.846,6.34h-0.879l-1.541-4.805l-1.5,4.805h-0.879l-1.84-6.34h1.078
		l1.248,4.746l1.477-4.746h0.873L899.938,62.948z"/>
	<path class="st1" d="M908.656,62.948l1.219-4.846h1.084l-1.846,6.34h-0.879l-1.541-4.805l-1.5,4.805h-0.879l-1.84-6.34h1.078
		l1.248,4.746l1.477-4.746h0.873L908.656,62.948z"/>
	<path class="st1" d="M911.057,63.874c0-0.188,0.057-0.344,0.168-0.469s0.277-0.188,0.5-0.188s0.393,0.062,0.508,0.188
		s0.172,0.281,0.172,0.469c0,0.18-0.057,0.33-0.172,0.451s-0.285,0.182-0.508,0.182s-0.389-0.061-0.5-0.182
		S911.057,64.054,911.057,63.874z"/>
	<path class="st1" d="M916.435,63.675c0.387,0,0.725-0.117,1.014-0.352s0.449-0.527,0.48-0.879h1.025
		c-0.02,0.363-0.145,0.709-0.375,1.037s-0.538,0.59-0.923,0.785s-0.792,0.293-1.222,0.293c-0.863,0-1.55-0.288-2.06-0.864
		s-0.765-1.364-0.765-2.364v-0.182c0-0.617,0.113-1.166,0.34-1.646s0.552-0.854,0.976-1.119s0.925-0.398,1.503-0.398
		c0.711,0,1.302,0.213,1.772,0.639s0.722,0.979,0.753,1.658h-1.025c-0.031-0.41-0.187-0.747-0.466-1.011s-0.624-0.396-1.034-0.396
		c-0.551,0-0.978,0.198-1.28,0.595s-0.454,0.97-0.454,1.72v0.205c0,0.73,0.15,1.293,0.451,1.688S915.876,63.675,916.435,63.675z"/>
	<path class="st1" d="M919.609,61.22c0-0.973,0.23-1.755,0.691-2.347s1.064-0.888,1.811-0.888c0.742,0,1.33,0.254,1.764,0.762
		v-3.305h1.084v9h-0.996l-0.053-0.68c-0.434,0.531-1.037,0.797-1.811,0.797c-0.734,0-1.333-0.301-1.796-0.902
		s-0.694-1.387-0.694-2.355V61.22z M920.693,61.343c0,0.719,0.148,1.281,0.445,1.688s0.707,0.609,1.23,0.609
		c0.688,0,1.189-0.309,1.506-0.926v-2.912c-0.324-0.598-0.822-0.896-1.494-0.896c-0.531,0-0.945,0.205-1.242,0.615
		S920.693,60.538,920.693,61.343z"/>
	<path class="st1" d="M931.953,62.948l1.219-4.846h1.084l-1.846,6.34h-0.879l-1.541-4.805l-1.5,4.805h-0.879l-1.84-6.34h1.078
		l1.248,4.746l1.477-4.746h0.873L931.953,62.948z"/>
	<path class="st1" d="M934.801,61.22c0-0.988,0.229-1.774,0.686-2.358s1.062-0.876,1.816-0.876c0.773,0,1.377,0.273,1.811,0.82
		l0.053-0.703h0.99v6.188c0,0.82-0.244,1.467-0.73,1.939s-1.139,0.709-1.959,0.709c-0.457,0-0.904-0.098-1.342-0.293
		s-0.771-0.463-1.002-0.803l0.562-0.65c0.465,0.574,1.033,0.861,1.705,0.861c0.527,0,0.938-0.148,1.232-0.445
		s0.443-0.715,0.443-1.254V63.81c-0.434,0.5-1.025,0.75-1.775,0.75c-0.742,0-1.344-0.299-1.803-0.896S934.801,62.251,934.801,61.22z
		 M935.891,61.343c0,0.715,0.146,1.276,0.439,1.685s0.703,0.612,1.23,0.612c0.684,0,1.186-0.311,1.506-0.932v-2.895
		c-0.332-0.605-0.83-0.908-1.494-0.908c-0.527,0-0.939,0.205-1.236,0.615S935.891,60.538,935.891,61.343z"/>
	<path class="st1" d="M941.514,63.874c0-0.188,0.057-0.344,0.168-0.469s0.277-0.188,0.5-0.188s0.393,0.062,0.508,0.188
		s0.172,0.281,0.172,0.469c0,0.18-0.057,0.33-0.172,0.451s-0.285,0.182-0.508,0.182s-0.389-0.061-0.5-0.182
		S941.514,64.054,941.514,63.874z"/>
	<path class="st1" d="M946.892,63.675c0.387,0,0.725-0.117,1.014-0.352s0.449-0.527,0.48-0.879h1.025
		c-0.02,0.363-0.145,0.709-0.375,1.037s-0.538,0.59-0.923,0.785s-0.792,0.293-1.222,0.293c-0.863,0-1.55-0.288-2.06-0.864
		s-0.765-1.364-0.765-2.364v-0.182c0-0.617,0.113-1.166,0.34-1.646s0.552-0.854,0.976-1.119s0.925-0.398,1.503-0.398
		c0.711,0,1.302,0.213,1.772,0.639s0.722,0.979,0.753,1.658h-1.025c-0.031-0.41-0.187-0.747-0.466-1.011s-0.624-0.396-1.034-0.396
		c-0.551,0-0.978,0.198-1.28,0.595s-0.454,0.97-0.454,1.72v0.205c0,0.73,0.15,1.293,0.451,1.688S946.333,63.675,946.892,63.675z"/>
	<path class="st1" d="M950.043,61.214c0-0.621,0.122-1.18,0.366-1.676s0.584-0.879,1.02-1.148s0.933-0.404,1.491-0.404
		c0.863,0,1.562,0.299,2.095,0.896s0.8,1.393,0.8,2.385v0.076c0,0.617-0.118,1.171-0.354,1.661s-0.574,0.872-1.014,1.146
		s-0.944,0.41-1.515,0.41c-0.859,0-1.556-0.299-2.089-0.896s-0.8-1.389-0.8-2.373V61.214z M951.133,61.343
		c0,0.703,0.163,1.268,0.489,1.693s0.763,0.639,1.31,0.639c0.551,0,0.988-0.216,1.312-0.647s0.486-1.036,0.486-1.813
		c0-0.695-0.165-1.259-0.495-1.69s-0.769-0.647-1.315-0.647c-0.535,0-0.967,0.213-1.295,0.639S951.133,60.55,951.133,61.343z"/>
	<path class="st1" d="M957.893,58.103l0.029,0.703c0.465-0.547,1.092-0.82,1.881-0.82c0.887,0,1.49,0.34,1.811,1.02
		c0.211-0.305,0.486-0.551,0.824-0.738s0.736-0.281,1.197-0.281c1.391,0,2.098,0.736,2.121,2.209v4.248h-1.084v-4.184
		c0-0.453-0.104-0.792-0.311-1.017s-0.555-0.337-1.043-0.337c-0.402,0-0.736,0.12-1.002,0.36s-0.42,0.563-0.463,0.97v4.207h-1.09
		v-4.154c0-0.922-0.451-1.383-1.354-1.383c-0.711,0-1.197,0.303-1.459,0.908v4.629h-1.084v-6.34H957.893z"/>
	<path class="st1" d="M967.309,65.175h-0.932l3.562-9.264h0.926L967.309,65.175z"/>
</g>
</svg>
