<?xml version="1.0" encoding="utf-8"?>
<!-- Generator: Adobe Illustrator 22.1.0, SVG Export Plug-In . SVG Version: 6.00 Build 0)  -->
<svg version="1.1" id="Layer_1" xmlns="http://www.w3.org/2000/svg" xmlns:xlink="http://www.w3.org/1999/xlink" x="0px" y="0px"
	 viewBox="0 0 36 36" style="enable-background:new 0 0 36 36;" xml:space="preserve">
<g>
	<path d="M14.329,30.288h-0.028l-0.037-0.891H13.55c0.028,0.418,0.037,0.873,0.037,1.402v3.091h0.817v-2.395
		c0-0.13,0.009-0.269,0.028-0.381c0.111-0.613,0.52-1.04,1.095-1.04c0.111,0,0.195,0,0.278,0.019v-0.771
		c-0.074-0.009-0.139-0.019-0.223-0.019C15.035,29.304,14.534,29.685,14.329,30.288z"/>
	<path d="M10.69,29.304c-0.293,0-0.581,0.077-0.835,0.223C9.604,29.666,9.4,29.88,9.27,30.112H9.252v-2.813H8.435v6.591h0.817
		v-2.711c0-0.149,0.009-0.269,0.056-0.39c0.158-0.436,0.566-0.808,1.095-0.808c0.771,0,1.04,0.603,1.04,1.328v2.581h0.817v-2.674
		C12.259,29.675,11.294,29.304,10.69,29.304z"/>
	<path d="M6.364,29.954c0.446,0,0.752,0.111,0.947,0.214l0.186-0.622c-0.223-0.121-0.65-0.241-1.133-0.241
		c-1.467,0-2.413,1.012-2.413,2.395c0,1.374,0.882,2.293,2.237,2.293c0.603,0,1.077-0.158,1.29-0.26L7.339,33.12
		c-0.232,0.102-0.538,0.214-1.003,0.214c-0.891,0-1.56-0.64-1.56-1.68C4.777,30.724,5.334,29.954,6.364,29.954z"/>
	<path d="M18.433,29.304c-1.235,0-2.228,0.882-2.228,2.376c0,1.42,0.947,2.312,2.154,2.312c1.077,0,2.237-0.724,2.237-2.386
		C20.596,30.242,19.723,29.304,18.433,29.304z M18.396,33.379c-0.798,0-1.355-0.743-1.355-1.727c0-0.845,0.418-1.736,1.374-1.736
		c0.965,0,1.346,0.956,1.346,1.718C19.76,32.646,19.175,33.379,18.396,33.379z"/>
	<path d="M26.565,29.304c-0.427,0-0.715,0.111-0.984,0.316c-0.186,0.139-0.371,0.325-0.511,0.585h-0.019
		c-0.195-0.529-0.659-0.901-1.262-0.901c-0.752,0-1.17,0.399-1.42,0.826h-0.028l-0.037-0.733h-0.715
		c0.018,0.371,0.037,0.743,0.037,1.216v3.277h0.798v-2.701c0-0.139,0.019-0.288,0.065-0.399c0.13-0.408,0.511-0.817,1.012-0.817
		c0.622,0,0.938,0.511,0.938,1.225v2.692h0.798v-2.776c0-0.149,0.028-0.288,0.065-0.408c0.148-0.39,0.501-0.733,0.975-0.733
		c0.65,0,0.975,0.511,0.975,1.383v2.534h0.799v-2.636C28.05,29.694,27.168,29.304,26.565,29.304z"/>
	<path d="M33.008,31.411c0-0.826-0.381-2.107-1.857-2.107c-1.309,0-2.107,1.058-2.107,2.414c0,1.355,0.826,2.274,2.209,2.274
		c0.715,0,1.216-0.158,1.504-0.288l-0.149-0.585c-0.297,0.13-0.659,0.232-1.244,0.232c-0.826,0-1.522-0.455-1.541-1.559l3.156,0
		C32.998,31.699,33.008,31.579,33.008,31.411z M29.833,31.207c0.065-0.566,0.418-1.318,1.253-1.318c0.919,0,1.142,0.808,1.132,1.318
		H29.833z"/>
	<path d="M16.378,23.614l1.796-4.983c-0.155,0.017-0.312,0.026-0.471,0.026c-0.138,0-0.275-0.007-0.41-0.019
		c-0.067-0.006-0.133-0.014-0.199-0.024c-1.852-0.263-3.324-1.707-3.629-3.545L9.952,9.135c-1.008,1.492-1.596,3.29-1.596,5.226
		C8.356,19.073,11.843,22.971,16.378,23.614z"/>
	<path d="M21.564,12.475c0.034,0.069,0.066,0.138,0.096,0.209c0.219,0.515,0.34,1.082,0.34,1.677c0,1.51-0.779,2.838-1.957,3.604
		l-3.23,5.7c0.293,0.028,0.591,0.042,0.891,0.042c5.162,0,9.346-4.185,9.346-9.346c0-1.294-0.263-2.528-0.739-3.649l-5.154,1.092
		C21.311,12.014,21.448,12.238,21.564,12.475z"/>
	<path d="M14.14,11.959c0.043-0.064,0.088-0.127,0.135-0.189c0.784-1.036,2.028-1.706,3.428-1.706c0.444,0,0.872,0.068,1.275,0.193
		h7.124c-1.52-3.105-4.71-5.243-8.4-5.243c-3.045,0-5.75,1.456-7.457,3.71l3.49,3.984C13.846,12.444,13.982,12.193,14.14,11.959z"/>
	<path d="M20.739,13.074c-0.023-0.054-0.048-0.108-0.073-0.161c-0.536-1.095-1.662-1.85-2.964-1.85
		c-1.075,0-2.029,0.514-2.631,1.309c-0.036,0.047-0.07,0.096-0.104,0.145c-0.355,0.526-0.563,1.161-0.563,1.844
		c0,1.663,1.23,3.038,2.83,3.265c0.051,0.007,0.102,0.013,0.153,0.018c0.104,0.01,0.208,0.015,0.315,0.015
		c1.821,0,3.298-1.476,3.298-3.298C21,13.904,20.907,13.469,20.739,13.074z"/>
</g>
</svg>
