<?xml version="1.0" encoding="utf-8"?>
<!-- Generator: Adobe Illustrator 22.0.1, SVG Export Plug-In . SVG Version: 6.00 Build 0)  -->
<svg version="1.1" id="Layer_1" xmlns="http://www.w3.org/2000/svg" xmlns:xlink="http://www.w3.org/1999/xlink" x="0px" y="0px"
	 viewBox="0 0 500 250" style="enable-background:new 0 0 500 250;" xml:space="preserve">
<style type="text/css">
	.st0{opacity:0.1;enable-background:new    ;}
	.st1{fill:#C3C3C3;}
	.st2{display:none;}
	.st3{display:inline;fill:url(#SVGID_1_);stroke:#C3C3C3;stroke-miterlimit:10;}
	.st4{display:inline;}
	.st5{fill:url(#SVGID_2_);stroke:#C3C3C3;stroke-miterlimit:10;}
	.st6{opacity:0.66;fill:#C3C3C3;enable-background:new    ;}
	.st7{fill:url(#SVGID_3_);}
	.st8{fill:url(#SVGID_4_);}
	.st9{fill:url(#SVGID_5_);}
	.st10{fill:url(#SVGID_6_);}
	.st11{fill:url(#SVGID_7_);}
	.st12{fill:url(#SVGID_8_);}
	.st13{fill:url(#SVGID_9_);}
	.st14{fill:url(#SVGID_10_);}
	.st15{fill:url(#SVGID_11_);stroke:#C3C3C3;stroke-miterlimit:10;}
	.st16{fill:url(#SVGID_12_);}
	.st17{fill:url(#SVGID_13_);}
	.st18{fill:url(#SVGID_14_);}
	.st19{fill:url(#SVGID_15_);}
	.st20{fill:#10677E;}
</style>
<path class="st0" d="M95.447,28.372L95.447,28.372c0-0.09,0-0.09-0.09-0.181c0-0.09-0.09-0.181-0.09-0.181
	c-0.904-2.078-1.897-4.066-2.982-6.054c-0.09-0.09-0.09-0.271-0.181-0.361c-0.542-0.994-1.084-1.897-1.626-2.891
	c-0.09-0.181-0.181-0.271-0.271-0.452c-0.542-0.994-1.175-1.988-1.807-2.891c0-0.09-0.09-0.181-0.181-0.181
	c-0.633-0.994-1.265-1.897-1.897-2.891c-0.09-0.09-0.09-0.181-0.181-0.271c-0.633-0.904-1.355-1.897-2.078-2.801
	c-0.09-0.181-0.271-0.271-0.361-0.452c-0.723-0.904-1.446-1.807-2.169-2.711c-0.09-0.181-0.271-0.271-0.361-0.452
	c-0.813-0.904-1.626-1.897-2.44-2.801l0,0l0,0l0,0l0,0l0,0l0,0l0,0c0.09,0.09,0.09,0.271,0.181,0.361
	c0.723,1.897,3.343,10.662-1.084,22.408c-0.813,0-1.626-0.09-2.44-0.09C36.534,25.481,5,57.015,5,95.868
	c0,32.438,21.866,59.635,51.684,67.858c-0.361,1.265-0.723,2.53-1.175,3.795c-0.09,0.181-0.09,0.361-0.181,0.542
	c-0.452,1.536-0.994,3.072-1.536,4.608c-0.181,0.452-0.271,0.904-0.452,1.355c-0.361,1.175-0.813,2.259-1.175,3.434
	c-0.181,0.542-0.361,1.084-0.542,1.626c-0.452,1.175-0.813,2.349-1.265,3.524c-0.181,0.452-0.361,0.994-0.542,1.446
	c-0.632,1.626-1.265,3.343-1.897,5.06l0,0l0,0l0,0c0,0,0.723-0.813,1.897-2.259l0,0c0.181-0.271,0.452-0.452,0.632-0.723l0,0
	c0.271-0.271,0.452-0.542,0.723-0.904l0,0c0.813-0.904,1.626-2.078,2.62-3.253c0,0,0-0.09,0.09-0.09
	c0.361-0.361,0.632-0.813,0.994-1.265l0.09-0.09c0.361-0.452,0.723-0.904,1.084-1.355l0,0c0.723-0.994,1.536-1.988,2.349-3.072l0,0
	c0.361-0.542,0.813-1.084,1.265-1.626l0.09-0.09c0.452-0.542,0.813-1.175,1.265-1.717l0.09-0.09
	c1.355-1.807,2.711-3.795,4.156-5.783c0,0,0-0.09,0.09-0.09c0.181-0.271,0.361-0.542,0.542-0.723
	c3.072,0.452,6.325,0.632,9.487,0.632c38.853,0,70.388-31.534,70.388-70.388C145.866,63.882,124.632,36.956,95.447,28.372z"/>
<path class="st1" d="M-719.3,380.9c-1.8,2.9-3.2,6.2-4.3,9.8C-722.2,387.4-720.8,384.1-719.3,380.9z"/>
<g class="st2">
	
		<linearGradient id="SVGID_1_" gradientUnits="userSpaceOnUse" x1="250" y1="-106.4" x2="250" y2="165.6" gradientTransform="matrix(1 0 0 -1 0 155)">
		<stop  offset="0" style="stop-color:#C3C3C3"/>
		<stop  offset="0.6017" style="stop-color:#DEDEDE"/>
		<stop  offset="1" style="stop-color:#F2F2F2"/>
	</linearGradient>
	<circle class="st3" cx="250" cy="125.4" r="136"/>
</g>
<g class="st2">
	<g class="st4">
		
			<linearGradient id="SVGID_2_" gradientUnits="userSpaceOnUse" x1="250" y1="-107.7" x2="250" y2="164.3" gradientTransform="matrix(1 0 0 -1 0 155)">
			<stop  offset="0" style="stop-color:#C3C3C3"/>
			<stop  offset="0.6017" style="stop-color:#DEDEDE"/>
			<stop  offset="1" style="stop-color:#F2F2F2"/>
		</linearGradient>
		<circle class="st5" cx="250" cy="126.7" r="136"/>
	</g>
	<g class="st4">
		<path class="st6" d="M235.9,60c-9.8,10.8-22.7,22.2-38.6,34.4c0,0,65.5,67.3,0,211.1C197.3,305.5,269.5,215.9,235.9,60z"/>
		<g>
			<g>
				
					<linearGradient id="SVGID_3_" gradientUnits="userSpaceOnUse" x1="199.0353" y1="27.9124" x2="278.6586" y2="27.9124" gradientTransform="matrix(0.9999 0.0103 0.0103 -0.9999 -0.1846 150.9301)">
					<stop  offset="0" style="stop-color:#10677E"/>
					<stop  offset="1" style="stop-color:#4BA7B5"/>
				</linearGradient>
				<path class="st7" d="M199.7,68.6c0,0,68.4,54.7-2.4,236.8c0,0,135.8-168.8,57.9-360.1C275.6-16.2,260.2,20.3,199.7,68.6z"/>
			</g>
			<g>
				
					<linearGradient id="SVGID_4_" gradientUnits="userSpaceOnUse" x1="199.1196" y1="29.8786" x2="278.7318" y2="29.0611" gradientTransform="matrix(1 0 0 -1 0 155)">
					<stop  offset="0" style="stop-color:#4BA7B5"/>
					<stop  offset="0.1796" style="stop-color:#66B4C0"/>
					<stop  offset="0.5664" style="stop-color:#ABD6DD"/>
					<stop  offset="0.9982" style="stop-color:#FFFFFF"/>
				</linearGradient>
				<path class="st8" d="M264.7-24.9c11.6,38.7,15.9,79.1,12.6,120.2c-2.8,35.7-11.3,72.1-25.2,108.1c-18.6,48.2-42,82.9-51.3,95.8
					c19.4-51.7,38.4-122.8,25.3-180.8c-7.2-32-21.1-46.5-24.8-49.9C245.5,33.1,265.6,3.8,264.7-24.9 M255.2-54.6
					c2.7,6.6,5.1,13.2,7.3,19.7C261.2-41.5,258.7-48,255.2-54.6L255.2-54.6z M262.5-34.9c6.5,31.6-12.7,63.5-62.8,103.5
					c0,0,68.4,54.7-2.4,236.8C197.3,305.5,323.9,148.1,262.5-34.9L262.5-34.9z"/>
			</g>
		</g>
		<g>
			
				<linearGradient id="SVGID_5_" gradientUnits="userSpaceOnUse" x1="197.3" y1="29.5" x2="302.6774" y2="29.5" gradientTransform="matrix(1 0 0 -1 0 155)">
				<stop  offset="0" style="stop-color:#4BA7B5"/>
				<stop  offset="0.4567" style="stop-color:#328C9E"/>
				<stop  offset="1" style="stop-color:#10677E"/>
			</linearGradient>
			<path class="st9" d="M214.9,39.3c0,0,64.2,100.8-17.6,266.2c0,0,191.3-213.4,58.4-360C255.7-54.5,275.4-8.9,214.9,39.3z"/>
			
				<linearGradient id="SVGID_6_" gradientUnits="userSpaceOnUse" x1="292.6101" y1="-108.6295" x2="169.3972" y2="171.5467" gradientTransform="matrix(1 0 0 -1 0 155)">
				<stop  offset="0" style="stop-color:#4BA7B5"/>
				<stop  offset="0.1796" style="stop-color:#66B4C0"/>
				<stop  offset="0.5664" style="stop-color:#ABD6DD"/>
				<stop  offset="0.9982" style="stop-color:#FFFFFF"/>
			</linearGradient>
			<path class="st10" d="M258-50.4c28.2,32.5,42.8,70.8,43.7,114c0.7,35.8-8.1,75-26.2,116.5c-24.9,57.3-60.9,103.3-73.9,119
				c39.2-82.4,41.4-147.9,36.2-188.8c-5.2-41.2-18.9-66.2-21.6-70.7c17.3-13.9,38.4-36.3,42.8-65.1C260.6-36.8,259.3-45.5,258-50.4
				 M255.7-54.5c0,0,19.8,45.6-40.7,93.8c0,0,64.2,100.8-17.6,266.2C197.3,305.5,388.7,92.1,255.7-54.5L255.7-54.5z"/>
		</g>
	</g>
</g>
<g class="st2">
	<g class="st4">
		<path class="st6" d="M196.9,305.3c0,0,73.1-88.8,41-245.1c-10,10.7-22.9,22-38.9,34C199,94.3,263.8,162.2,196.9,305.3z"/>
	</g>
	<g class="st4">
		<g>
			
				<linearGradient id="SVGID_7_" gradientUnits="userSpaceOnUse" x1="-846.8653" y1="-356.9252" x2="-540.8187" y2="-356.9252" gradientTransform="matrix(-0.3996 -0.9167 -0.9167 0.3996 -377.6921 -368.0658)">
				<stop  offset="0" style="stop-color:#64B946"/>
				<stop  offset="1" style="stop-color:#A7DE8A"/>
			</linearGradient>
			<path class="st11" d="M200.4,68.5c0,0,68.1,55-3.5,236.8c0,0,136.6-168.2,59.5-359.8C276.7-16,261.1,20.5,200.4,68.5z"/>
			
				<linearGradient id="SVGID_8_" gradientUnits="userSpaceOnUse" x1="-846.8365" y1="555.9471" x2="-540.8298" y2="555.9471" gradientTransform="matrix(-0.3996 -0.9167 0.9167 -0.3996 -560.0995 -288.5209)">
				<stop  offset="0" style="stop-color:#A7DE8A"/>
				<stop  offset="1" style="stop-color:#FFFFFF"/>
			</linearGradient>
			<path class="st12" d="M200.4,299.2c41.5-108.6,33-171.3,18.3-205C212,78.8,204.5,71,201.9,68.6c44.4-35.4,64.6-64.6,63.9-93.2
				c11.5,38.7,15.5,79.1,12,120.3c-3,35.7-11.7,72-25.7,108C233.4,251.7,209.8,286.3,200.4,299.2 M196.9,305.3
				c0,0,127.3-156.8,66.7-340.1c6.3,31.6-13,63.5-63.3,103.3c0,0,9.3,7.5,17.4,26.1C231.7,126.4,242.1,190.6,196.9,305.3
				L196.9,305.3z M263.7-34.7c-0.9-4.7-2.4-9.4-4.5-14.1c-0.8-1.9-1.7-3.8-2.7-5.7C259.1-47.9,261.5-41.3,263.7-34.7L263.7-34.7z"/>
		</g>
	</g>
	<g class="st4">
		<g>
			
				<linearGradient id="SVGID_9_" gradientUnits="userSpaceOnUse" x1="-846.8653" y1="-361.6694" x2="-540.8187" y2="-361.6694" gradientTransform="matrix(-0.3996 -0.9167 -0.9167 0.3996 -377.6921 -368.0658)">
				<stop  offset="0" style="stop-color:#A7DE8A"/>
				<stop  offset="1" style="stop-color:#64B946"/>
			</linearGradient>
			<path class="st13" d="M215.4,39.2c0,0,63.9,101-18.5,266.1c0,0,192-212.8,59.5-359.8C256.4-54.5,276.1-8.8,215.4,39.2z"/>
			
				<linearGradient id="SVGID_10_" gradientUnits="userSpaceOnUse" x1="-846.8365" y1="560.6827" x2="-540.7899" y2="560.6827" gradientTransform="matrix(-0.3996 -0.9167 0.9167 -0.3996 -560.0995 -288.5209)">
				<stop  offset="0" style="stop-color:#A7DE8A"/>
				<stop  offset="1" style="stop-color:#FFFFFF"/>
			</linearGradient>
			<path class="st14" d="M201.2,298.9c61.1-127.3,35.4-215.4,21.3-247.7c-2.7-6.3-4.9-10.2-5.9-11.8c17.3-13.8,38.5-36.2,43-64.9
				c1.7-11.2,0.4-19.9-0.9-24.9c12.1,14.1,21.8,29.4,28.8,45.5c13.9,32,17.8,68.1,11.6,107.4c-5,31.5-16.5,65.1-34.2,99.9
				C241.2,249,212.5,285.3,201.2,298.9 M196.9,305.3c0,0,153-169.6,91.6-310.6c-7.4-16.9-17.9-33.5-32.1-49.2c0,0,19.6,45.7-41,93.7
				c0,0,2.7,4.2,6.2,12.4C235.4,83.3,262.4,174,196.9,305.3L196.9,305.3z"/>
		</g>
	</g>
</g>
<g>
	<g>
		
			<linearGradient id="SVGID_11_" gradientUnits="userSpaceOnUse" x1="78.1888" y1="-9.2682" x2="78.1888" y2="131.5073" gradientTransform="matrix(1 0 0 -1 0 155)">
			<stop  offset="0" style="stop-color:#C3C3C3"/>
			<stop  offset="0.6017" style="stop-color:#DEDEDE"/>
			<stop  offset="1" style="stop-color:#F2F2F2"/>
		</linearGradient>
		<circle class="st15" cx="78.189" cy="93.88" r="70.388"/>
	</g>
	<g>
		<path class="st6" d="M70.87,59.364c-5.06,5.602-11.746,11.475-19.969,17.8c0,0,33.884,34.878,0,109.241
			C50.901,186.406,88.309,140.053,70.87,59.364z"/>
		<g>
			<g>
				
					<linearGradient id="SVGID_12_" gradientUnits="userSpaceOnUse" x1="51.4509" y1="58.4077" x2="92.6598" y2="58.4077" gradientTransform="matrix(0.9999 0.0103 0.0103 -0.9999 -0.1846 150.9301)">
					<stop  offset="0" style="stop-color:#10677E"/>
					<stop  offset="1" style="stop-color:#4BA7B5"/>
				</linearGradient>
				<path class="st16" d="M52.166,63.792c0,0,35.42,28.282-1.265,122.614c0,0,70.297-87.375,29.998-186.406
					C91.471,19.878,83.429,38.853,52.166,63.792z"/>
			</g>
			<g>
				
					<linearGradient id="SVGID_13_" gradientUnits="userSpaceOnUse" x1="51.8599" y1="61.9414" x2="93.1008" y2="61.5179" gradientTransform="matrix(1 0 0 -1 0 155)">
					<stop  offset="0" style="stop-color:#4BA7B5"/>
					<stop  offset="0.1796" style="stop-color:#66B4C0"/>
					<stop  offset="0.5664" style="stop-color:#ABD6DD"/>
					<stop  offset="0.9982" style="stop-color:#FFFFFF"/>
				</linearGradient>
				<path class="st17" d="M85.779,15.451c6.054,20.059,8.222,40.932,6.506,62.256c-1.446,18.523-5.873,37.317-13.011,56.021
					c-9.578,24.938-21.776,42.919-26.565,49.606c10.03-26.746,19.878-63.611,13.102-93.609
					c-3.705-16.535-10.933-24.035-12.831-25.842C75.84,45.449,86.231,30.179,85.779,15.451 M80.899,0
					c1.355,3.434,2.62,6.867,3.795,10.21C83.972,6.777,82.707,3.434,80.899,0L80.899,0z M84.694,10.21
					c3.343,16.355-6.596,32.89-32.528,53.581c0,0,35.42,28.282-1.265,122.614C50.901,186.406,116.5,104.994,84.694,10.21
					L84.694,10.21z"/>
			</g>
		</g>
		<g>
			
				<linearGradient id="SVGID_14_" gradientUnits="userSpaceOnUse" x1="50.9011" y1="61.7972" x2="105.4305" y2="61.7972" gradientTransform="matrix(1 0 0 -1 0 155)">
				<stop  offset="0" style="stop-color:#4BA7B5"/>
				<stop  offset="0.4567" style="stop-color:#328C9E"/>
				<stop  offset="1" style="stop-color:#10677E"/>
			</linearGradient>
			<path class="st18" d="M60.027,48.612c0,0,33.251,52.136-9.126,137.794c0,0,99.031-110.506,30.179-186.406
				C81.08,0,91.381,23.673,60.027,48.612z"/>
			
				<linearGradient id="SVGID_15_" gradientUnits="userSpaceOnUse" x1="100.1396" y1="-9.7123" x2="36.3541" y2="135.3308" gradientTransform="matrix(1 0 0 -1 0 155)">
				<stop  offset="0" style="stop-color:#4BA7B5"/>
				<stop  offset="0.1796" style="stop-color:#66B4C0"/>
				<stop  offset="0.5664" style="stop-color:#ABD6DD"/>
				<stop  offset="0.9982" style="stop-color:#FFFFFF"/>
			</linearGradient>
			<path class="st19" d="M82.345,2.169c14.547,16.806,22.228,36.685,22.589,59.003c0.361,18.523-4.247,38.853-13.553,60.268
				C78.46,151.076,59.846,174.93,53.07,183.062c20.24-42.648,21.414-76.622,18.794-97.766c-2.711-21.324-9.759-34.245-11.204-36.594
				c8.945-7.229,19.878-18.794,22.137-33.703C83.701,9.216,82.978,4.699,82.345,2.169 M81.08,0c0,0,10.21,23.583-21.143,48.612
				c0,0,33.251,52.136-9.126,137.794C50.901,186.406,149.932,75.99,81.08,0L81.08,0z"/>
		</g>
	</g>
</g>
<g>
	<path class="st20" d="M214.572,102.93c0-2.006-0.71-3.569-2.13-4.69c-1.42-1.12-3.915-2.28-7.485-3.478
		c-3.57-1.199-6.488-2.358-8.755-3.479c-7.375-3.621-11.062-8.599-11.062-14.931c0-3.153,0.918-5.935,2.756-8.345
		c1.837-2.41,4.436-4.286,7.797-5.629c3.362-1.342,7.14-2.013,11.335-2.013c4.091,0,7.758,0.73,11.003,2.189
		c3.244,1.46,5.765,3.537,7.563,6.235c1.798,2.697,2.697,5.779,2.697,9.244h-13.681c0-2.319-0.71-4.117-2.13-5.394
		s-3.342-1.916-5.765-1.916c-2.45,0-4.384,0.541-5.804,1.622c-1.42,1.081-2.13,2.456-2.13,4.123c0,1.46,0.782,2.782,2.345,3.967
		c1.563,1.186,4.313,2.411,8.248,3.675c3.934,1.264,7.166,2.625,9.694,4.084c6.149,3.544,9.224,8.43,9.224,14.657
		c0,4.978-1.876,8.886-5.628,11.726c-3.753,2.84-8.9,4.261-15.44,4.261c-4.613,0-8.789-0.828-12.528-2.482
		c-3.739-1.655-6.554-3.922-8.443-6.801c-1.89-2.879-2.834-6.195-2.834-9.948h13.758c0,3.049,0.788,5.296,2.365,6.743
		c1.576,1.447,4.136,2.169,7.681,2.169c2.267,0,4.058-0.489,5.374-1.466C213.914,106.077,214.572,104.702,214.572,102.93z"/>
	<path class="st20" d="M279.964,61.146v37.25c0,4.222-0.899,7.876-2.697,10.964c-1.798,3.088-4.377,5.439-7.739,7.055
		c-3.362,1.616-7.335,2.424-11.922,2.424c-6.931,0-12.391-1.798-16.377-5.394c-3.986-3.596-6.019-8.521-6.097-14.775V61.146h13.798
		v37.797c0.156,6.228,3.049,9.342,8.677,9.342c2.84,0,4.989-0.782,6.45-2.345c1.458-1.563,2.188-4.104,2.188-7.622V61.146H279.964z"
		/>
	<path class="st20" d="M309.67,97.927h-7.426v20.129h-13.72V61.146h22.398c6.748,0,12.024,1.497,15.83,4.49
		c3.804,2.994,5.706,7.224,5.706,12.69c0,3.957-0.801,7.236-2.403,9.84c-1.603,2.603-4.111,4.711-7.524,6.325l11.882,22.978v0.587
		h-14.697L309.67,97.927z M302.243,87.373h8.678c2.605,0,4.565-0.685,5.883-2.057c1.315-1.372,1.973-3.285,1.973-5.741
		c0-2.455-0.664-4.382-1.993-5.779c-1.329-1.397-3.283-2.096-5.863-2.096h-8.678V87.373z"/>
	<path class="st20" d="M362.086,102.578l11.335-41.432h15.322l-19.153,56.911h-15.009l-18.996-56.911h15.204L362.086,102.578z"/>
	<path class="st20" d="M428.181,93.901h-21.576v13.602h25.485v10.554h-39.204V61.146h39.283v10.593h-25.563v12h21.576V93.901z"/>
	<path class="st20" d="M458.513,85.849l10.475-24.703h14.814l-18.332,36.468v20.442h-13.915V97.614l-18.292-36.468h14.736
		L458.513,85.849z"/>
</g>
</svg>
