<?xml version="1.0" encoding="utf-8"?>
<!-- Generator: Adobe Illustrator 22.0.1, SVG Export Plug-In . SVG Version: 6.00 Build 0)  -->
<svg version="1.1" id="Layer_1" xmlns="http://www.w3.org/2000/svg" xmlns:xlink="http://www.w3.org/1999/xlink" x="0px" y="0px"
	 viewBox="0 0 25 25" style="enable-background:new 0 0 25 25;" xml:space="preserve">
<style type="text/css">
	.st0{fill:#C3C3C3;}
	.st1{display:none;}
	.st2{display:inline;fill:url(#SVGID_1_);stroke:#C3C3C3;stroke-miterlimit:10;}
	.st3{display:inline;}
	.st4{fill:url(#SVGID_2_);stroke:#C3C3C3;stroke-miterlimit:10;}
	.st5{opacity:0.66;fill:#C3C3C3;enable-background:new    ;}
	.st6{fill:url(#SVGID_3_);}
	.st7{fill:url(#SVGID_4_);}
	.st8{fill:url(#SVGID_5_);}
	.st9{fill:url(#SVGID_6_);}
	.st10{fill:url(#SVGID_7_);}
	.st11{fill:url(#SVGID_8_);}
	.st12{fill:url(#SVGID_9_);}
	.st13{fill:url(#SVGID_10_);}
	.st14{fill:#FFFFFF;}
</style>
<path class="st0" d="M-956.8,266c-1.8,2.9-3.2,6.2-4.3,9.8C-959.7,272.5-958.3,269.2-956.8,266z"/>
<g class="st1">
	
		<linearGradient id="SVGID_1_" gradientUnits="userSpaceOnUse" x1="12.5" y1="-269.2688" x2="12.5" y2="2.7312" gradientTransform="matrix(1 0 0 -1 0 -122.7688)">
		<stop  offset="0" style="stop-color:#C3C3C3"/>
		<stop  offset="0.6017" style="stop-color:#DEDEDE"/>
		<stop  offset="1" style="stop-color:#F2F2F2"/>
	</linearGradient>
	<circle class="st2" cx="12.5" cy="10.5" r="136"/>
</g>
<g class="st1">
	<g class="st3">
		
			<linearGradient id="SVGID_2_" gradientUnits="userSpaceOnUse" x1="12.5" y1="-270.5688" x2="12.5" y2="1.4312" gradientTransform="matrix(1 0 0 -1 0 -122.7688)">
			<stop  offset="0" style="stop-color:#C3C3C3"/>
			<stop  offset="0.6017" style="stop-color:#DEDEDE"/>
			<stop  offset="1" style="stop-color:#F2F2F2"/>
		</linearGradient>
		<circle class="st4" cx="12.5" cy="11.8" r="136"/>
	</g>
	<g class="st3">
		<path class="st5" d="M-1.6-54.9c-9.8,10.8-22.7,22.2-38.6,34.4c0,0,65.5,67.3,0,211.1C-40.2,190.6,32,101-1.6-54.9z"/>
		<g>
			<g>
				
					<linearGradient id="SVGID_3_" gradientUnits="userSpaceOnUse" x1="-40.359" y1="-136.8838" x2="39.2642" y2="-136.8838" gradientTransform="matrix(0.9999 0.0103 0.0103 -0.9999 3.3832 -126.2839)">
					<stop  offset="0" style="stop-color:#10677E"/>
					<stop  offset="1" style="stop-color:#4BA7B5"/>
				</linearGradient>
				<path class="st6" d="M-37.8-46.3c0,0,68.4,54.7-2.4,236.8c0,0,135.8-168.8,57.9-360.1C38.1-131.1,22.7-94.6-37.8-46.3z"/>
			</g>
			<g>
				
					<linearGradient id="SVGID_4_" gradientUnits="userSpaceOnUse" x1="-38.3804" y1="-132.9902" x2="41.2318" y2="-133.8077" gradientTransform="matrix(1 0 0 -1 0 -122.7688)">
					<stop  offset="0" style="stop-color:#4BA7B5"/>
					<stop  offset="0.1796" style="stop-color:#66B4C0"/>
					<stop  offset="0.5664" style="stop-color:#ABD6DD"/>
					<stop  offset="0.9982" style="stop-color:#FFFFFF"/>
				</linearGradient>
				<path class="st7" d="M27.2-139.8c11.6,38.7,15.9,79.1,12.6,120.2C37,16.1,28.5,52.5,14.6,88.5c-18.6,48.2-42,82.9-51.3,95.8
					C-17.3,132.6,1.7,61.5-11.4,3.5c-7.2-32-21.1-46.5-24.8-49.9C8-81.8,28.1-111.1,27.2-139.8 M17.7-169.5
					c2.7,6.6,5.1,13.2,7.3,19.7C23.7-156.4,21.2-162.9,17.7-169.5L17.7-169.5z M25-149.8c6.5,31.6-12.7,63.5-62.8,103.5
					c0,0,68.4,54.7-2.4,236.8C-40.2,190.6,86.4,33.2,25-149.8L25-149.8z"/>
			</g>
		</g>
		<g>
			
				<linearGradient id="SVGID_5_" gradientUnits="userSpaceOnUse" x1="-40.2" y1="-133.3688" x2="65.1774" y2="-133.3688" gradientTransform="matrix(1 0 0 -1 0 -122.7688)">
				<stop  offset="0" style="stop-color:#4BA7B5"/>
				<stop  offset="0.4567" style="stop-color:#328C9E"/>
				<stop  offset="1" style="stop-color:#10677E"/>
			</linearGradient>
			<path class="st8" d="M-22.6-75.6c0,0,64.2,100.8-17.6,266.2c0,0,191.3-213.4,58.4-360C18.2-169.4,37.9-123.8-22.6-75.6z"/>
			
				<linearGradient id="SVGID_6_" gradientUnits="userSpaceOnUse" x1="55.1101" y1="-271.4984" x2="-68.1028" y2="8.6779" gradientTransform="matrix(1 0 0 -1 0 -122.7688)">
				<stop  offset="0" style="stop-color:#4BA7B5"/>
				<stop  offset="0.1796" style="stop-color:#66B4C0"/>
				<stop  offset="0.5664" style="stop-color:#ABD6DD"/>
				<stop  offset="0.9982" style="stop-color:#FFFFFF"/>
			</linearGradient>
			<path class="st9" d="M20.5-165.3c28.2,32.5,42.8,70.8,43.7,114c0.7,35.8-8.1,75-26.2,116.5c-24.9,57.3-60.9,103.3-73.9,119
				C3.3,101.8,5.5,36.3,0.3-4.6c-5.2-41.2-18.9-66.2-21.6-70.7c17.3-13.9,38.4-36.3,42.8-65.1C23.1-151.7,21.8-160.4,20.5-165.3
				 M18.2-169.4c0,0,19.8,45.6-40.7,93.8c0,0,64.2,100.8-17.6,266.2C-40.2,190.6,151.2-22.8,18.2-169.4L18.2-169.4z"/>
		</g>
	</g>
</g>
<g class="st1">
	<g class="st3">
		<path class="st5" d="M-40.6,190.4c0,0,73.1-88.8,41-245.1c-10,10.7-22.9,22-38.9,34C-38.5-20.6,26.3,47.3-40.6,190.4z"/>
	</g>
	<g class="st3">
		<g>
			
				<linearGradient id="SVGID_7_" gradientUnits="userSpaceOnUse" x1="-653.9576" y1="-605.9213" x2="-347.911" y2="-605.9213" gradientTransform="matrix(-0.3996 -0.9167 -0.9167 0.3996 -766.3609 -206.6285)">
				<stop  offset="0" style="stop-color:#64B946"/>
				<stop  offset="1" style="stop-color:#A7DE8A"/>
			</linearGradient>
			<path class="st10" d="M-37.1-46.4c0,0,68.1,55-3.5,236.8c0,0,136.6-168.2,59.5-359.8C39.2-130.9,23.6-94.4-37.1-46.4z"/>
			
				<linearGradient id="SVGID_8_" gradientUnits="userSpaceOnUse" x1="-653.9288" y1="111.1744" x2="-347.9222" y2="111.1744" gradientTransform="matrix(-0.3996 -0.9167 0.9167 -0.3996 -312.7904 -404.3137)">
				<stop  offset="0" style="stop-color:#A7DE8A"/>
				<stop  offset="1" style="stop-color:#FFFFFF"/>
			</linearGradient>
			<path class="st11" d="M-37.1,184.3C4.4,75.7-4.1,13-18.8-20.7C-25.5-36.1-33-43.9-35.6-46.3C8.8-81.7,29-110.9,28.3-139.5
				c11.5,38.7,15.5,79.1,12,120.3c-3,35.7-11.7,72-25.7,108C-4.1,136.8-27.7,171.4-37.1,184.3 M-40.6,190.4
				c0,0,127.3-156.8,66.7-340.1c6.3,31.6-13,63.5-63.3,103.3c0,0,9.3,7.5,17.4,26.1C-5.8,11.5,4.6,75.7-40.6,190.4L-40.6,190.4z
				 M26.2-149.6c-0.9-4.7-2.4-9.4-4.5-14.1c-0.8-1.9-1.7-3.8-2.7-5.7C21.6-162.8,24-156.2,26.2-149.6L26.2-149.6z"/>
		</g>
	</g>
	<g class="st3">
		<g>
			
				<linearGradient id="SVGID_9_" gradientUnits="userSpaceOnUse" x1="-653.9576" y1="-610.6655" x2="-347.911" y2="-610.6655" gradientTransform="matrix(-0.3996 -0.9167 -0.9167 0.3996 -766.3609 -206.6285)">
				<stop  offset="0" style="stop-color:#A7DE8A"/>
				<stop  offset="1" style="stop-color:#64B946"/>
			</linearGradient>
			<path class="st12" d="M-22.1-75.7c0,0,63.9,101-18.5,266.1c0,0,192-212.8,59.5-359.8C18.9-169.4,38.6-123.7-22.1-75.7z"/>
			
				<linearGradient id="SVGID_10_" gradientUnits="userSpaceOnUse" x1="-653.9288" y1="115.9099" x2="-347.8822" y2="115.9099" gradientTransform="matrix(-0.3996 -0.9167 0.9167 -0.3996 -312.7904 -404.3137)">
				<stop  offset="0" style="stop-color:#A7DE8A"/>
				<stop  offset="1" style="stop-color:#FFFFFF"/>
			</linearGradient>
			<path class="st13" d="M-36.3,184C24.8,56.7-0.9-31.4-15-63.7c-2.7-6.3-4.9-10.2-5.9-11.8c17.3-13.8,38.5-36.2,43-64.9
				c1.7-11.2,0.4-19.9-0.9-24.9C33.3-151.2,43-135.9,50-119.8c13.9,32,17.8,68.1,11.6,107.4c-5,31.5-16.5,65.1-34.2,99.9
				C3.7,134.1-25,170.4-36.3,184 M-40.6,190.4c0,0,153-169.6,91.6-310.6c-7.4-16.9-17.9-33.5-32.1-49.2c0,0,19.6,45.7-41,93.7
				c0,0,2.7,4.2,6.2,12.4C-2.1-31.6,24.9,59.1-40.6,190.4L-40.6,190.4z"/>
		</g>
	</g>
</g>
<path class="st14" d="M13.724,3.997h-1.113c-2.299,0-4.1,1.874-4.1,4.265v5.972c0,2.392,1.801,4.266,4.1,4.266h1.113
	c2.352,0,4.265-1.914,4.265-4.266V8.262C17.989,5.91,16.075,3.997,13.724,3.997z"/>
<path d="M13.724,3.997h-1.113c-2.299,0-4.1,1.874-4.1,4.265v5.972c0,2.392,1.801,4.266,4.1,4.266h1.113
	c2.352,0,4.265-1.914,4.265-4.266V8.262C17.989,5.91,16.075,3.997,13.724,3.997z M13.207,6.232h0.086
	c0.135,0,0.244,0.109,0.244,0.244v1.737c0,0.135-0.109,0.244-0.244,0.244h-0.086c-0.135,0-0.244-0.109-0.244-0.244V6.476
	C12.963,6.341,13.072,6.232,13.207,6.232z M17.431,14.234c0,2.045-1.663,3.708-3.707,3.708h-1.113c-1.986,0-3.542-1.629-3.542-3.708
	V8.262c0-2.079,1.556-3.708,3.542-3.708h0.356V5.71c-0.326,0.102-0.563,0.407-0.563,0.765v1.737c0,0.359,0.237,0.663,0.563,0.765
	v1.435c0,0.154,0.125,0.279,0.279,0.279s0.279-0.125,0.279-0.279V8.979c0.329-0.1,0.569-0.406,0.569-0.767V6.476
	c0-0.361-0.24-0.667-0.569-0.767V4.554h0.198c2.044,0,3.707,1.663,3.707,3.708L17.431,14.234L17.431,14.234z"/>
<g>
	<path d="M11.718,19.702c0.083,0,0.167,0.027,0.238,0.083l1.279,1.014l1.318-0.987c0.169-0.127,0.409-0.092,0.536,0.077
		c0.127,0.169,0.092,0.409-0.077,0.536l-1.554,1.164c-0.139,0.104-0.331,0.102-0.468-0.007l-1.51-1.198
		c-0.166-0.131-0.194-0.372-0.062-0.538C11.493,19.751,11.605,19.702,11.718,19.702z"/>
</g>
</svg>
