<?xml version="1.0" encoding="utf-8"?>
<!-- Generator: Adobe Illustrator 22.0.1, SVG Export Plug-In . SVG Version: 6.00 Build 0)  -->
<svg version="1.1" id="Layer_1" xmlns="http://www.w3.org/2000/svg" xmlns:xlink="http://www.w3.org/1999/xlink" x="0px" y="0px"
	 viewBox="0 0 300 500" style="enable-background:new 0 0 300 500;" xml:space="preserve">
<g>
	<g>
		<path d="M66.591,489.6c-0.546,0-1.085-0.183-1.519-0.514l-15.7-12.008H11.744c-5.833,0-10.579-4.754-10.579-10.597V18.602
			c0-5.845,4.746-10.6,10.579-10.6h276.844c5.833,0,10.579,4.755,10.579,10.6v447.88c0,5.843-4.746,10.597-10.579,10.597H69.234
			l-0.144,10.058c-0.014,0.95-0.553,1.799-1.409,2.214C67.343,489.513,66.966,489.6,66.591,489.6z M11.744,9.002
			c-5.282,0-9.579,4.307-9.579,9.6v447.88c0,5.292,4.297,9.597,9.579,9.597h37.967l15.968,12.213c0.438,0.336,1.065,0.4,1.566,0.158
			c0.513-0.249,0.837-0.758,0.845-1.327l0.157-11.044h220.34c5.282,0,9.579-4.305,9.579-9.597V18.602c0-5.293-4.297-9.6-9.579-9.6
			C288.587,9.002,11.744,9.002,11.744,9.002z"/>
	</g>
</g>
</svg>
