<?xml version="1.0" encoding="utf-8"?>
<!-- Generator: Adobe Illustrator 22.0.1, SVG Export Plug-In . SVG Version: 6.00 Build 0)  -->
<svg version="1.1" id="Layer_1" xmlns="http://www.w3.org/2000/svg" xmlns:xlink="http://www.w3.org/1999/xlink" x="0px" y="0px"
	 viewBox="0 0 95 20" style="enable-background:new 0 0 95 20;" xml:space="preserve">
<style type="text/css">
	.st0{opacity:0.46;}
	.st1{opacity:0.33;fill:#5C6A75;enable-background:new    ;}
	.st2{fill:url(#SVGID_1_);}
	.st3{fill:url(#SVGID_2_);}
	.st4{fill:url(#SVGID_3_);}
	.st5{opacity:0.44;fill:#FFFFFF;enable-background:new    ;}
	.st6{fill:#50C5DD;}
	.st7{fill:#2EA8D6;}
	.st8{opacity:0.33;fill:#FFFFFF;enable-background:new    ;}
	.st9{fill:#00B3E3;}
	.st10{fill:#2374BB;}
	.st11{fill:#FFFFFF;}
</style>
<g class="st0">
	<path class="st1" d="M51.79,2.753v2.953C51.255,5.42,50.647,5.257,50,5.257c-2.111,0-3.821,1.726-3.821,3.856
		s1.711,3.856,3.821,3.856c0.647,0,1.256-0.163,1.79-0.449v0.449h2.031V2.753H51.79z M50.042,10.926
		c-0.965,0-1.747-0.79-1.747-1.765c0.001-0.975,0.783-1.765,1.747-1.765c0.965,0,1.747,0.79,1.747,1.765
		C51.79,10.135,51.007,10.926,50.042,10.926z"/>
	<path class="st1" d="M42.269,5.536c-0.647,0-1.256,0.163-1.79,0.449V5.536h-2.031v10.215h2.031v-2.953
		c0.534,0.286,1.143,0.449,1.79,0.449c2.111,0,3.821-1.726,3.821-3.856C46.09,7.262,44.38,5.536,42.269,5.536z M42.227,11.106
		c-0.965,0-1.747-0.79-1.747-1.764c0-0.973,0.783-1.764,1.747-1.764c0.965,0,1.747,0.79,1.747,1.764S43.192,11.106,42.227,11.106z"
		/>
	<path class="st1" d="M37.899,6.921c-0.002-0.004-0.004-0.009-0.006-0.013c-0.019-0.046-0.041-0.09-0.061-0.135
		c-0.045-0.101-0.092-0.201-0.142-0.3c-0.029-0.055-0.058-0.109-0.088-0.164c-0.051-0.09-0.104-0.179-0.159-0.266
		c-0.03-0.047-0.059-0.095-0.09-0.142c-0.085-0.125-0.174-0.247-0.268-0.365c-0.025-0.032-0.053-0.061-0.079-0.092
		c-0.075-0.09-0.153-0.178-0.234-0.262c-0.04-0.042-0.08-0.082-0.121-0.122c-0.076-0.074-0.155-0.147-0.235-0.217
		c-0.04-0.034-0.079-0.07-0.119-0.103c-0.118-0.097-0.24-0.192-0.366-0.278c-0.022-0.016-0.047-0.029-0.069-0.044
		c-0.108-0.072-0.219-0.142-0.333-0.205c-0.045-0.025-0.092-0.05-0.137-0.074c-0.1-0.053-0.201-0.102-0.304-0.149
		c-0.045-0.02-0.088-0.042-0.134-0.06c-0.146-0.061-0.294-0.118-0.445-0.165c-0.013-0.004-0.026-0.007-0.039-0.011
		c-0.141-0.043-0.285-0.08-0.43-0.113c-0.048-0.011-0.097-0.02-0.146-0.029c-0.117-0.022-0.236-0.041-0.356-0.055
		C33.488,3.552,33.44,3.545,33.39,3.54c-0.165-0.016-0.331-0.026-0.499-0.026c-0.17,0-0.339,0.011-0.505,0.026
		c-0.052,0.005-0.103,0.013-0.153,0.019c-0.116,0.014-0.232,0.031-0.345,0.052c-0.055,0.011-0.11,0.021-0.164,0.034
		c-0.117,0.027-0.232,0.057-0.345,0.091c-0.043,0.013-0.088,0.024-0.131,0.038c-0.153,0.049-0.304,0.105-0.45,0.167
		c-0.029,0.012-0.056,0.027-0.084,0.039c-0.119,0.053-0.234,0.11-0.348,0.171c-0.049,0.026-0.097,0.055-0.144,0.082
		c-0.092,0.053-0.183,0.109-0.273,0.168c-0.048,0.032-0.096,0.064-0.143,0.097c-0.094,0.067-0.185,0.137-0.274,0.209
		c-0.034,0.029-0.071,0.055-0.106,0.084c-0.117,0.099-0.23,0.204-0.338,0.313c-0.038,0.038-0.073,0.078-0.11,0.117
		c-0.072,0.076-0.142,0.155-0.21,0.234c-0.042,0.051-0.082,0.101-0.123,0.154c-0.059,0.075-0.115,0.154-0.17,0.232
		c-0.038,0.053-0.075,0.106-0.111,0.162c-0.061,0.093-0.117,0.191-0.172,0.288c-0.03,0.052-0.061,0.105-0.089,0.159
		c-0.064,0.123-0.124,0.25-0.178,0.378c-0.026,0.061-0.049,0.124-0.073,0.186c-0.022,0.057-0.047,0.113-0.067,0.171
		c0.002,0.001,0.002,0.002,0.004,0.002c-0.201,0.575-0.315,1.192-0.315,1.837c0,3.044,2.426,5.511,5.417,5.511
		c2.991,0,5.417-2.467,5.417-5.511C38.308,8.28,38.162,7.569,37.899,6.921C37.898,6.922,37.899,6.922,37.899,6.921z"/>
</g>
<g>
	
		<linearGradient id="SVGID_1_" gradientUnits="userSpaceOnUse" x1="32.8041" y1="1293.5341" x2="32.8041" y2="1304.5568" gradientTransform="matrix(1 0 0 1 0 -1290.1943)">
		<stop  offset="0" style="stop-color:#FFFFFF"/>
		<stop  offset="0.3126" style="stop-color:#E2E1E0"/>
		<stop  offset="0.4767" style="stop-color:#E0E0DF"/>
		<stop  offset="0.7198" style="stop-color:#C8C8C8"/>
	</linearGradient>
	<path class="st2" d="M31.625,5.876c0.396,0,4.325,2.27,4.325,2.989c0,0.718-3.823,2.989-4.325,2.989
		C31.123,11.855,31.23,5.876,31.625,5.876z M32.804,3.34c2.992,0,5.417,2.468,5.417,5.511c0,3.044-2.426,5.511-5.417,5.511
		s-5.418-2.468-5.418-5.512S29.812,3.34,32.804,3.34z"/>
	
		<linearGradient id="SVGID_2_" gradientUnits="userSpaceOnUse" x1="49.9132" y1="1158.7728" x2="49.9132" y2="1177.8945" gradientTransform="matrix(1 0 0 1 0 -1156.1943)">
		<stop  offset="0" style="stop-color:#FFFFFF"/>
		<stop  offset="0.1656" style="stop-color:#EAEAEA"/>
		<stop  offset="0.6628" style="stop-color:#B6B8B8"/>
	</linearGradient>
	<path class="st3" d="M49.955,7.222c0.965,0,1.747,0.79,1.747,1.765s-0.782,1.765-1.747,1.765s-1.747-0.79-1.747-1.765
		C48.208,8.012,48.991,7.222,49.955,7.222z M51.703,2.579v2.953c-0.534-0.286-1.143-0.449-1.79-0.449
		c-2.111,0-3.821,1.726-3.821,3.856s1.711,3.856,3.821,3.856c0.647,0,1.255-0.163,1.79-0.449v0.449h2.031V2.579H51.703z"/>
	
		<linearGradient id="SVGID_3_" gradientUnits="userSpaceOnUse" x1="42.1822" y1="1161.5564" x2="42.1822" y2="1178.4176" gradientTransform="matrix(1 0 0 1 0 -1156.1943)">
		<stop  offset="0" style="stop-color:#FFFFFF"/>
		<stop  offset="0.2611" style="stop-color:#D4D5D5"/>
		<stop  offset="0.6575" style="stop-color:#B9BBBB"/>
		<stop  offset="0.8092" style="stop-color:#B6B8B8"/>
	</linearGradient>
	<path class="st4" d="M42.14,7.405c0.965,0,1.747,0.79,1.747,1.764s-0.782,1.764-1.747,1.764s-1.747-0.79-1.747-1.764
		S41.175,7.405,42.14,7.405z M42.182,5.362c-0.647,0-1.256,0.163-1.79,0.449V5.362h-2.031v10.216h2.031v-2.953
		c0.534,0.286,1.143,0.449,1.79,0.449c2.111,0,3.821-1.726,3.821-3.856S44.293,5.362,42.182,5.362z"/>
	<path class="st5" d="M32.804,3.34c-2.358,0-4.362,1.533-5.107,3.672c0.935,0.676,2.187,1.156,3.6,1.341
		c0.035-1.305,0.153-2.476,0.327-2.476c0.293,0,2.518,1.243,3.658,2.18c0.998-0.295,1.865-0.746,2.529-1.308
		C37,4.747,35.064,3.34,32.804,3.34z"/>
	<path class="st6" d="M31.625,5.876c0.396,0,4.325,2.27,4.325,2.989c0,0.718-3.823,2.989-4.325,2.989
		C31.123,11.855,31.23,5.876,31.625,5.876z"/>
	<g>
		<path class="st7" d="M31.625,5.876c-0.05,0-0.096,0.097-0.136,0.266c0.503,0.074,4.3,2.279,4.3,2.986
			c0,0.027-0.007,0.056-0.017,0.088c0.114-0.137,0.179-0.258,0.179-0.35C35.951,8.146,32.02,5.876,31.625,5.876z"/>
	</g>
	<path class="st8" d="M31.298,8.352c0.417,0.055,0.848,0.083,1.289,0.083c0.961,0,1.873-0.136,2.696-0.379
		c-1.139-0.937-3.365-2.179-3.658-2.179C31.451,5.876,31.333,7.047,31.298,8.352z"/>
</g>
<g>
	<g>
		<rect x="0.758" y="1.353" class="st9" width="16.567" height="13.017"/>
		<polygon class="st10" points="17.325,1.353 17.325,14.37 0.758,14.37 3.834,16.5 20.401,16.5 20.401,4.43 		"/>
		<polygon class="st11" points="3.598,11.53 3.598,3.956 2.178,4.193 1.941,3.246 6.674,3.483 6.438,3.956 5.018,3.956 
			4.071,11.767 		"/>
		<g>
			<path class="st11" d="M10.461,10.82c-0.237,0-0.947,0.237-1.183,0.237c-2.367,0.237-3.077-1.183-3.313-2.603
				C5.728,6.796,6.201,5.14,7.621,4.903c0,0,0,0,0.237,0c1.42,0,2.13,0.947,2.367,2.367c0,0.237,0,0.473,0,0.71l-3.55,0.237
				c0.237,2.13,1.42,2.367,2.367,2.13c0,0,0,0,0.237,0c0.237,0,0.473-0.237,0.71-0.473L10.461,10.82z M9.041,7.27
				c-0.237-1.183-0.71-1.657-1.42-1.657c-0.947,0-0.947,0.947-0.947,1.893L9.041,7.27z"/>
			<path class="st11" d="M14.011,13.66l0.473-3.077l0,0c-0.237,0.473-0.947,0.71-1.657,0.71c-1.657-0.237-1.893-2.13-1.657-3.787
				c0.237-1.893,1.42-2.603,2.603-2.603c0.473,0,0.947,0.237,1.183,0.947l0,0V4.903l1.183,0.473L15.905,7.27l-1.183,6.39H14.011z
				 M14.721,7.506c0-0.947-0.237-1.657-0.947-1.893c-0.947,0-1.42,0.947-1.657,1.893c-0.237,1.183,0,2.84,1.183,2.84
				c0.473,0,1.183-0.237,1.42-1.42V7.506z"/>
		</g>
	</g>
	<g>
		<path class="st11" d="M21.159,2.084h-0.317V1.968h0.776v0.116h-0.322v0.932h-0.137V2.084z"/>
		<path class="st11" d="M22.612,2.555c-0.009-0.147-0.019-0.322-0.017-0.452h-0.005c-0.038,0.123-0.078,0.253-0.133,0.398
			L22.273,3.01h-0.102l-0.17-0.499c-0.05-0.147-0.09-0.282-0.121-0.407h-0.002c-0.005,0.13-0.012,0.305-0.021,0.464l-0.026,0.447
			h-0.13l0.073-1.046h0.17l0.178,0.506c0.045,0.13,0.08,0.244,0.107,0.353h0.005c0.028-0.107,0.066-0.22,0.111-0.353l0.185-0.506
			h0.173l0.066,1.046h-0.133L22.612,2.555z"/>
	</g>
</g>
<g>
	<path class="st11" d="M55.009,2.836H54.78V2.753h0.559v0.083h-0.232v0.671h-0.099V2.836z"/>
	<path class="st11" d="M56.055,3.175c-0.007-0.106-0.014-0.232-0.012-0.325H56.04c-0.027,0.089-0.056,0.182-0.095,0.286
		l-0.133,0.366h-0.073l-0.123-0.36C55.58,3.037,55.551,2.94,55.528,2.85h-0.002c-0.003,0.094-0.009,0.22-0.015,0.334l-0.019,0.322
		h-0.094l0.053-0.753h0.123l0.128,0.365c0.032,0.094,0.058,0.175,0.077,0.254h0.003c0.02-0.077,0.048-0.158,0.08-0.254l0.133-0.365
		h0.124l0.048,0.753h-0.095L56.055,3.175z"/>
</g>
</svg>
