<?xml version="1.0" encoding="utf-8"?>
<!-- Generator: Adobe Illustrator 23.0.1, SVG Export Plug-In . SVG Version: 6.00 Build 0)  -->
<svg version="1.1" id="Layer_1" xmlns="http://www.w3.org/2000/svg" xmlns:xlink="http://www.w3.org/1999/xlink" x="0px" y="0px"
	 viewBox="0 0 181 42" style="enable-background:new 0 0 181 42;" xml:space="preserve">
<style type="text/css">
	.st0{fill:#BE2026;}
</style>
<g>
	<path class="st0" d="M170.552,2.355v8.471c-1.533-0.819-3.278-1.287-5.134-1.287c-6.055,0-10.962,4.951-10.962,11.06
		s4.907,11.06,10.962,11.06c1.857,0,3.601-0.467,5.134-1.287v1.287h5.827V2.355H170.552z M165.537,25.8
		c-2.768,0-5.012-2.265-5.012-5.062c0.002-2.796,2.247-5.062,5.012-5.062c2.768,0,5.012,2.265,5.012,5.062
		S168.305,25.8,165.537,25.8z"/>
	<path class="st0" d="M143.241,10.34c-1.857,0-3.604,0.467-5.135,1.287V10.34h-5.827v29.305h5.827v-8.471
		c1.533,0.819,3.278,1.287,5.135,1.287c6.055,0,10.962-4.951,10.962-11.06C154.202,15.291,149.296,10.34,143.241,10.34z
		 M143.118,26.318c-2.768,0-5.012-2.265-5.012-5.059s2.247-5.059,5.012-5.059c2.768,0,5.012,2.265,5.012,5.059
		S145.887,26.318,143.118,26.318z"/>
	<path class="st0" d="M116.34,4.539c-8.583,0-15.542,7.076-15.542,15.807s6.961,15.812,15.542,15.812s15.54-7.078,15.54-15.81
		C131.88,11.619,124.923,4.539,116.34,4.539z M112.957,28.962c-1.439,0.003-1.134-17.148,0-17.148
		c1.136,0,12.408,6.513,12.408,8.574C125.365,22.447,114.398,28.962,112.957,28.962z"/>
</g>
<g>
	<path class="st0" d="M14.506,20.921h-6.75v4.593h7.921v2.824H4.241V11.277h11.413v2.848H7.756v4.066h6.749L14.506,20.921
		L14.506,20.921z"/>
	<path class="st0" d="M16.722,28.255V11.194h5.25c1.5,0,2.842,0.338,4.025,1.014c1.183,0.675,2.107,1.637,2.771,2.882
		c0.664,1.246,0.996,2.662,0.996,4.248v0.785c0,1.586-0.326,2.996-0.978,4.23c-0.653,1.234-1.572,2.191-2.76,2.87
		c-1.188,0.679-2.527,1.024-4.019,1.031L16.722,28.255L16.722,28.255z M20.238,14.042v11.39h1.699c1.375,0,2.426-0.45,3.152-1.347
		c0.727-0.898,1.098-2.184,1.114-3.855v-0.902c0-1.734-0.36-3.049-1.078-3.943c-0.719-0.894-1.769-1.342-3.152-1.342L20.238,14.042
		L20.238,14.042z"/>
	<path class="st0" d="M44.531,22.655c-0.133,1.836-0.81,3.281-2.033,4.336c-1.222,1.055-2.834,1.581-4.834,1.581
		c-2.187,0-3.908-0.735-5.162-2.209c-1.254-1.472-1.88-3.493-1.88-6.064v-1.043c0-1.64,0.289-3.086,0.867-4.336
		c0.578-1.25,1.404-2.209,2.478-2.877s2.322-1.002,3.744-1.002c1.969,0,3.554,0.528,4.757,1.582
		c1.203,1.055,1.898,2.535,2.086,4.442h-3.515c-0.086-1.102-0.393-1.9-0.92-2.397c-0.527-0.496-1.33-0.744-2.408-0.744
		c-1.172,0-2.049,0.42-2.631,1.26s-0.881,2.143-0.896,3.908v1.289c0,1.844,0.279,3.191,0.838,4.042
		c0.558,0.851,1.44,1.277,2.642,1.277c1.086,0,1.897-0.248,2.432-0.744s0.842-1.263,0.92-2.303h3.515V22.655z"/>
	<path class="st0" d="M64.248,23.734l1.664-8.074h3.27l-3.234,12.679h-2.836l-2.402-7.98l-2.402,7.98h-2.824L52.248,15.66h3.269
		l1.652,8.062l2.32-8.062h2.449L64.248,23.734z"/>
	<path class="st0" d="M70.233,12.379c0-0.508,0.17-0.926,0.51-1.254c0.34-0.328,0.803-0.492,1.389-0.492
		c0.578,0,1.039,0.164,1.383,0.492c0.343,0.328,0.516,0.746,0.516,1.254c0,0.516-0.174,0.937-0.522,1.266
		c-0.348,0.328-0.807,0.492-1.377,0.492c-0.571,0-1.03-0.164-1.377-0.492C70.407,13.316,70.233,12.895,70.233,12.379z
		 M73.831,28.339h-3.398V15.66h3.398V28.339z"/>
	<path class="st0" d="M80.074,12.543v3.117h2.168v2.484h-2.168v6.327c0,0.468,0.09,0.805,0.27,1.007
		c0.179,0.204,0.523,0.305,1.031,0.305c0.375,0,0.707-0.028,0.996-0.082v2.566c-0.664,0.204-1.348,0.304-2.051,0.304
		c-2.375,0-3.586-1.199-3.632-3.597v-6.831h-1.852V15.66h1.852v-3.117C76.688,12.543,80.074,12.543,80.074,12.543z"/>
	<path class="st0" d="M86.833,17.043c0.898-1.078,2.027-1.617,3.387-1.617c2.75,0,4.144,1.598,4.183,4.793v8.12h-3.387v-8.045
		c0-0.728-0.156-1.267-0.468-1.615c-0.312-0.348-0.832-0.523-1.559-0.523c-0.992,0-1.711,0.383-2.156,1.151v9.032h-3.387V10.34
		h3.387V17.043z"/>
</g>
</svg>
