<?xml version="1.0" encoding="utf-8"?>
<!-- Generator: Adobe Illustrator 22.1.0, SVG Export Plug-In . SVG Version: 6.00 Build 0)  -->
<svg version="1.1" id="Layer_1" xmlns="http://www.w3.org/2000/svg" xmlns:xlink="http://www.w3.org/1999/xlink" x="0px" y="0px"
	 viewBox="0 0 10 10" style="enable-background:new 0 0 10 10;" xml:space="preserve">
<style type="text/css">
	.st0{fill:#3D4953;}
</style>
<path class="st0" d="M9.745,0.335C9.678,0.213,9.507,0.008,9.123,0.008L8.997,0.024C8.686,0.105,8.376,0.246,8.046,0.463
	C7.544,0.845,7.013,1.539,6.414,2.596C5.86,3.641,5.306,4.702,4.749,5.786C4.383,6.521,4.017,7.223,3.637,7.918
	C3.63,7.933,3.624,7.945,3.619,7.955C3.573,7.927,3.496,7.872,3.378,7.768C3.354,7.751,3.214,7.644,2.896,7.186
	c-0.315-0.446-0.581-0.884-0.8-1.318C1.858,5.439,1.412,5.296,0.953,5.503L0.821,5.59C0.777,5.631,0.688,5.73,0.554,5.893
	L0.481,6.009C0.353,6.3,0.331,6.562,0.436,6.836c0.543,1.102,1.257,2.022,2.12,2.738l0.01,0.009c0.347,0.272,0.749,0.41,1.193,0.41
	c0.605,0,1.109-0.38,1.502-1.145c0.617-1.293,1.434-2.918,2.418-4.816c0.714-1.271,1.36-2.224,1.979-2.907
	C9.843,0.83,9.872,0.563,9.745,0.335z"/>
</svg>
