<?xml version="1.0" encoding="utf-8"?>
<!-- Generator: Adobe Illustrator 22.1.0, SVG Export Plug-In . SVG Version: 6.00 Build 0)  -->
<svg version="1.1" id="Layer_1" xmlns="http://www.w3.org/2000/svg" xmlns:xlink="http://www.w3.org/1999/xlink" x="0px" y="0px"
	 viewBox="0 0 600 600" style="enable-background:new 0 0 600 600;" xml:space="preserve">
<style type="text/css">
	.st0{fill:#FFFFFF;}
	.st1{fill:#80A7D8;}
</style>
<path class="st0" d="M181.023,8c95.911,3,451.894,2.017,414.823,220.508S331.876,408,226.781,371S13,162.606,13,96
	S85.113,5,181.023,8z"/>
<g>
	<path class="st1" d="M191.68,115.983c0,2.464-0.436,4.623-1.307,6.48s-2.117,3.289-3.738,4.297
		c-1.622,1.009-3.48,1.512-5.577,1.512c-2.075,0-3.925-0.498-5.552-1.495s-2.887-2.42-3.782-4.271
		c-0.893-1.85-1.348-3.979-1.357-6.386v-1.237c0-2.463,0.443-4.632,1.332-6.505c0.888-1.873,2.142-3.311,3.764-4.314
		c1.621-1.002,3.474-1.504,5.56-1.504s3.938,0.502,5.561,1.504c1.621,1.003,2.875,2.441,3.764,4.314
		c0.888,1.873,1.332,4.036,1.332,6.488V115.983L191.68,115.983L191.68,115.983z M186.455,114.849c0-2.623-0.471-4.618-1.409-5.982
		c-0.939-1.363-2.28-2.045-4.022-2.045c-1.73,0-3.066,0.673-4.005,2.02c-0.939,1.346-1.416,3.321-1.427,5.921v1.22
		c0,2.555,0.47,4.537,1.409,5.947c0.939,1.409,2.291,2.114,4.057,2.114c1.729,0,3.059-0.679,3.988-2.037s1.398-3.337,1.409-5.938
		V114.849z"/>
	<path class="st1" d="M214.368,102.904v16.482c0,2.739-0.857,4.904-2.57,6.497c-1.714,1.593-4.055,2.389-7.021,2.389
		c-2.922,0-5.243-0.773-6.961-2.32s-2.595-3.672-2.63-6.377v-16.672h5.157v16.518c0,1.639,0.392,2.834,1.177,3.584
		c0.784,0.751,1.87,1.125,3.257,1.125c2.898,0,4.371-1.523,4.418-4.572v-16.655L214.368,102.904L214.368,102.904z"/>
	<path class="st1" d="M227.859,118.767h-4.107v9.161h-5.157v-25.024h9.298c2.957,0,5.236,0.659,6.841,1.977
		c1.604,1.318,2.407,3.18,2.407,5.586c0,1.707-0.37,3.132-1.109,4.271c-0.739,1.141-1.859,2.048-3.36,2.725l5.414,10.227v0.241
		h-5.534L227.859,118.767z M223.752,114.591h4.159c1.295,0,2.297-0.329,3.007-0.988c0.711-0.659,1.066-1.566,1.066-2.725
		c0-1.18-0.335-2.109-1.005-2.784c-0.67-0.675-1.699-1.014-3.085-1.014h-4.143v7.511
		C223.751,114.591,223.752,114.591,223.752,114.591z"/>
	<path class="st1" d="M259.09,118.767h-4.107v9.161h-5.157v-25.024h9.298c2.957,0,5.236,0.659,6.841,1.977
		c1.604,1.318,2.407,3.18,2.407,5.586c0,1.707-0.37,3.132-1.109,4.271c-0.739,1.141-1.859,2.048-3.36,2.725l5.414,10.227v0.241
		h-5.534L259.09,118.767z M254.981,114.591h4.159c1.295,0,2.297-0.329,3.007-0.988s1.066-1.566,1.066-2.725
		c0-1.18-0.335-2.109-1.005-2.784c-0.67-0.675-1.699-1.014-3.085-1.014h-4.143L254.981,114.591
		C254.98,114.591,254.981,114.591,254.981,114.591z"/>
	<path class="st1" d="M292.845,115.983c0,2.464-0.436,4.623-1.307,6.48s-2.117,3.289-3.738,4.297
		c-1.622,1.009-3.48,1.512-5.577,1.512c-2.075,0-3.925-0.498-5.552-1.495s-2.888-2.42-3.782-4.271
		c-0.893-1.85-1.348-3.979-1.357-6.386v-1.237c0-2.463,0.443-4.632,1.332-6.505c0.888-1.873,2.142-3.311,3.764-4.314
		c1.621-1.002,3.474-1.504,5.56-1.504s3.938,0.502,5.561,1.504c1.621,1.003,2.875,2.441,3.764,4.314
		c0.888,1.873,1.332,4.036,1.332,6.488V115.983L292.845,115.983L292.845,115.983z M287.62,114.849c0-2.623-0.471-4.618-1.409-5.982
		c-0.939-1.363-2.28-2.045-4.022-2.045c-1.73,0-3.066,0.673-4.005,2.02c-0.939,1.346-1.416,3.321-1.427,5.921v1.22
		c0,2.555,0.47,4.537,1.409,5.947c0.939,1.409,2.291,2.114,4.057,2.114c1.729,0,3.059-0.679,3.987-2.037s1.398-3.337,1.409-5.938
		v-1.22H287.62z"/>
	<path class="st1" d="M301.749,123.786h10.948v4.143h-16.105v-25.025h5.157V123.786z"/>
	<path class="st1" d="M330.709,117.049h-9.9v6.737h11.618v4.143h-16.775v-25.025h16.741v4.177h-11.584v5.964h9.9V117.049z"/>
	<path class="st1" d="M335.368,111.411c0-0.791,0.266-1.432,0.8-1.925c0.532-0.493,1.2-0.739,2.002-0.739
		c0.813,0,1.487,0.246,2.02,0.739s0.8,1.134,0.8,1.925c0,0.779-0.264,1.412-0.791,1.9c-0.527,0.487-1.203,0.73-2.028,0.73
		c-0.814,0-1.485-0.243-2.011-0.73C335.631,112.824,335.368,112.19,335.368,111.411z M335.368,125.488
		c0-0.791,0.266-1.432,0.8-1.925c0.532-0.493,1.2-0.739,2.002-0.739c0.813,0,1.487,0.246,2.02,0.739s0.8,1.134,0.8,1.925
		c0,0.779-0.264,1.412-0.791,1.9c-0.527,0.487-1.203,0.73-2.028,0.73c-0.814,0-1.485-0.243-2.011-0.73
		C335.631,126.9,335.368,126.267,335.368,125.488z"/>
	<path class="st1" d="M174.183,168.38h12.357v1.787h-14.488v-25.025h2.132L174.183,168.38L174.183,168.38L174.183,168.38z"/>
	<path class="st1" d="M189.995,146.2c0-0.387,0.125-0.714,0.378-0.982c0.252-0.267,0.595-0.402,1.032-0.402
		c0.436,0,0.782,0.134,1.04,0.402c0.257,0.267,0.387,0.595,0.387,0.982s-0.129,0.712-0.387,0.973
		c-0.257,0.262-0.605,0.393-1.04,0.393c-0.436,0-0.78-0.131-1.032-0.393C190.122,146.911,189.995,146.587,189.995,146.2z
		 M192.419,170.168h-2.062v-18.597h2.062V170.168z"/>
	<path class="st1" d="M209.143,165.442c0-1.02-0.41-1.839-1.229-2.457s-2.054-1.102-3.704-1.452c-1.65-0.349-2.93-0.75-3.841-1.203
		c-0.911-0.452-1.587-1.005-2.028-1.659s-0.662-1.443-0.662-2.372c0-1.466,0.613-2.678,1.839-3.635
		c1.225-0.957,2.795-1.436,4.709-1.436c2.074,0,3.738,0.513,4.993,1.538c1.255,1.026,1.882,2.363,1.882,4.013h-2.062
		c0-1.088-0.455-1.993-1.366-2.716s-2.06-1.082-3.446-1.082c-1.352,0-2.439,0.3-3.257,0.902c-0.819,0.602-1.229,1.384-1.229,2.346
		c0,0.928,0.341,1.648,1.023,2.157c0.681,0.51,1.925,0.977,3.73,1.4c1.805,0.425,3.156,0.877,4.057,1.357
		c0.899,0.482,1.566,1.06,2.002,1.736s0.653,1.495,0.653,2.457c0,1.57-0.634,2.825-1.9,3.764s-2.919,1.409-4.959,1.409
		c-2.166,0-3.921-0.525-5.268-1.573c-1.348-1.048-2.02-2.375-2.02-3.979h2.062c0.079,1.203,0.586,2.139,1.521,2.811
		c0.934,0.67,2.168,1.005,3.704,1.005c1.432,0,2.589-0.315,3.472-0.945C208.701,167.201,209.143,166.405,209.143,165.442z"/>
	<path class="st1" d="M219.025,146.81v4.761h3.85v1.684h-3.85v12.406c0,1.032,0.186,1.801,0.559,2.306
		c0.372,0.505,0.993,0.757,1.865,0.757c0.343,0,0.899-0.057,1.668-0.172l0.086,1.67c-0.539,0.193-1.272,0.289-2.2,0.289
		c-1.409,0-2.435-0.409-3.077-1.229s-0.962-2.025-0.962-3.618v-12.409h-3.42v-1.684h3.42v-4.761
		C216.963,146.81,219.025,146.81,219.025,146.81z"/>
	<path class="st1" d="M234.34,170.512c-1.582,0-3.011-0.389-4.288-1.168c-1.278-0.779-2.271-1.865-2.982-3.257
		c-0.711-1.393-1.066-2.953-1.066-4.684v-0.739c0-1.788,0.345-3.397,1.04-4.83c0.693-1.432,1.659-2.557,2.896-3.377
		s2.578-1.229,4.022-1.229c2.257,0,4.048,0.771,5.371,2.312s1.985,3.646,1.985,6.316v1.152H228.05v0.395
		c0,2.109,0.604,3.864,1.813,5.268s2.729,2.105,4.563,2.105c1.1,0,2.071-0.2,2.913-0.602c0.843-0.4,1.607-1.043,2.295-1.925
		l1.289,0.98C239.409,169.417,237.215,170.512,234.34,170.512z M233.961,152.98c-1.547,0-2.851,0.568-3.91,1.702
		c-1.06,1.134-1.705,2.659-1.934,4.572h11.155v-0.223c-0.058-1.788-0.568-3.243-1.53-4.366
		C236.78,153.542,235.519,152.98,233.961,152.98z"/>
	<path class="st1" d="M247.281,151.571l0.068,3.18c0.698-1.146,1.57-2.02,2.612-2.621c1.042-0.602,2.193-0.902,3.455-0.902
		c1.993,0,3.477,0.562,4.452,1.684c0.974,1.123,1.466,2.807,1.478,5.053v12.203h-2.045v-12.221
		c-0.012-1.661-0.364-2.898-1.057-3.713c-0.694-0.813-1.803-1.22-3.325-1.22c-1.272,0-2.398,0.398-3.377,1.195
		c-0.98,0.796-1.705,1.871-2.175,3.223v12.736h-2.045v-18.597h1.958v0H247.281z"/>
	<path class="st1" d="M284.888,158.842l-12.22-5.207v-2.114l14.523,6.497v1.668l-14.523,6.514v-2.131L284.888,158.842z"/>
	<path class="st1" d="M318.215,162.365c-0.287,2.636-1.229,4.652-2.827,6.05c-1.598,1.398-3.728,2.097-6.385,2.097
		c-1.857,0-3.498-0.464-4.925-1.393c-1.427-0.928-2.53-2.243-3.309-3.945c-0.78-1.702-1.175-3.646-1.186-5.835v-3.248
		c0-2.223,0.389-4.193,1.168-5.912c0.779-1.718,1.9-3.045,3.361-3.979s3.142-1.4,5.045-1.4c2.682,0,4.797,0.722,6.35,2.166
		c1.552,1.443,2.454,3.443,2.707,5.998h-2.132c-0.527-4.25-2.836-6.377-6.927-6.377c-2.268,0-4.077,0.848-5.423,2.545
		c-1.348,1.697-2.02,4.043-2.02,7.036v3.061c0,2.89,0.656,5.195,1.968,6.915c1.311,1.72,3.086,2.581,5.32,2.581
		c2.211,0,3.878-0.529,5.002-1.59c1.123-1.059,1.815-2.65,2.08-4.77L318.215,162.365L318.215,162.365z"/>
	<path class="st1" d="M331.466,153.324c-0.436-0.08-0.9-0.12-1.393-0.12c-1.284,0-2.369,0.359-3.257,1.075
		c-0.889,0.716-1.521,1.757-1.9,3.12v12.77h-2.045v-18.597h2.011l0.034,2.957c1.088-2.2,2.836-3.3,5.243-3.3
		c0.573,0,1.025,0.075,1.357,0.223L331.466,153.324z"/>
	<path class="st1" d="M341.59,170.512c-1.582,0-3.011-0.389-4.288-1.168c-1.278-0.779-2.272-1.865-2.982-3.257
		s-1.066-2.953-1.066-4.684v-0.739c0-1.788,0.345-3.397,1.04-4.83c0.693-1.432,1.659-2.557,2.896-3.377
		c1.238-0.82,2.578-1.229,4.022-1.229c2.257,0,4.048,0.771,5.371,2.312s1.986,3.646,1.986,6.316v1.152H335.3v0.395
		c0,2.109,0.604,3.864,1.813,5.268c1.209,1.404,2.729,2.105,4.563,2.105c1.1,0,2.071-0.2,2.913-0.602
		c0.843-0.4,1.607-1.043,2.295-1.925l1.289,0.98C346.659,169.417,344.465,170.512,341.59,170.512z M341.211,152.98
		c-1.547,0-2.851,0.568-3.91,1.702c-1.06,1.134-1.705,2.659-1.934,4.572h11.155v-0.223c-0.058-1.788-0.568-3.243-1.53-4.366
		C344.03,153.542,342.769,152.98,341.211,152.98z"/>
	<path class="st1" d="M364.311,170.168c-0.207-0.584-0.339-1.449-0.395-2.595c-0.722,0.939-1.641,1.664-2.759,2.175
		c-1.118,0.51-2.301,0.765-3.55,0.765c-1.787,0-3.234-0.498-4.34-1.495c-1.107-0.997-1.659-2.257-1.659-3.781
		c0-1.811,0.754-3.243,2.26-4.297s3.606-1.582,6.3-1.582h3.73v-2.114c0-1.329-0.41-2.375-1.229-3.137
		c-0.819-0.761-2.014-1.143-3.584-1.143c-1.433,0-2.619,0.366-3.557,1.1c-0.939,0.734-1.409,1.616-1.409,2.647l-2.062-0.018
		c0-1.478,0.688-2.759,2.062-3.841c1.375-1.082,3.065-1.625,5.07-1.625c2.073,0,3.709,0.519,4.907,1.555
		c1.197,1.037,1.813,2.484,1.848,4.339v8.8c0,1.8,0.189,3.145,0.568,4.039v0.207L364.311,170.168L364.311,170.168z M357.849,168.69
		c1.375,0,2.604-0.332,3.687-0.997c1.082-0.664,1.87-1.552,2.363-2.664v-4.091h-3.678c-2.051,0.023-3.655,0.398-4.812,1.125
		c-1.158,0.728-1.736,1.727-1.736,3c0,1.043,0.387,1.907,1.16,2.595S356.611,168.69,357.849,168.69z"/>
	<path class="st1" d="M374.624,146.81v4.761h3.85v1.684h-3.85v12.406c0,1.032,0.186,1.801,0.559,2.306
		c0.372,0.505,0.993,0.757,1.865,0.757c0.343,0,0.899-0.057,1.668-0.172l0.086,1.67c-0.539,0.193-1.272,0.289-2.2,0.289
		c-1.409,0-2.435-0.409-3.077-1.229s-0.962-2.025-0.962-3.618v-12.409h-3.42v-1.684h3.42v-4.761
		C372.561,146.81,374.624,146.81,374.624,146.81z"/>
	<path class="st1" d="M389.938,170.512c-1.582,0-3.011-0.389-4.288-1.168c-1.278-0.779-2.272-1.865-2.982-3.257
		c-0.711-1.393-1.066-2.953-1.066-4.684v-0.739c0-1.788,0.345-3.397,1.04-4.83c0.693-1.432,1.659-2.557,2.896-3.377
		c1.237-0.82,2.578-1.229,4.022-1.229c2.257,0,4.048,0.771,5.371,2.312s1.986,3.646,1.986,6.316v1.152h-13.268v0.395
		c0,2.109,0.604,3.864,1.813,5.268c1.209,1.404,2.729,2.105,4.563,2.105c1.1,0,2.071-0.2,2.913-0.602
		c0.843-0.4,1.607-1.043,2.295-1.925l1.289,0.98C395.008,169.417,392.813,170.512,389.938,170.512z M389.559,152.98
		c-1.547,0-2.851,0.568-3.91,1.702c-1.06,1.134-1.705,2.659-1.934,4.572h11.155v-0.223c-0.058-1.788-0.568-3.243-1.53-4.366
		C392.379,153.542,391.117,152.98,389.559,152.98z"/>
	<path class="st1" d="M173.269,212.568l0.436,2.185l0.531-2.088l3.055-10.374h1.074l3.016,10.374l0.523,2.108l0.464-2.204
		l2.543-10.277h1.218l-3.606,14.077h-1.141l-3.19-11.012l-0.357-1.393l-0.348,1.393l-3.268,11.012h-1.141l-3.597-14.077h1.218
		L173.269,212.568z"/>
	<path class="st1" d="M189.299,207.677c0.381-0.625,0.867-1.109,1.46-1.45s1.241-0.513,1.944-0.513c1.122,0,1.956,0.316,2.504,0.947
		c0.548,0.631,0.825,1.58,0.832,2.842v6.864h-1.151v-6.874c-0.007-0.935-0.206-1.63-0.595-2.088s-1.013-0.686-1.87-0.686
		c-0.715,0-1.35,0.224-1.901,0.672s-0.958,1.053-1.222,1.813v7.164h-1.151v-14.85h1.151v6.159H189.299z"/>
	<path class="st1" d="M205.617,216.368c-0.115-0.329-0.19-0.815-0.222-1.46c-0.406,0.528-0.924,0.936-1.552,1.223
		s-1.294,0.43-1.995,0.43c-1.005,0-1.819-0.281-2.442-0.842c-0.623-0.561-0.933-1.269-0.933-2.127c0-1.019,0.424-1.824,1.271-2.417
		s2.029-0.89,3.544-0.89h2.098v-1.189c0-0.748-0.231-1.335-0.692-1.764s-1.132-0.642-2.015-0.642c-0.805,0-1.473,0.207-2.001,0.618
		s-0.793,0.909-0.793,1.489l-1.16-0.01c0-0.832,0.387-1.552,1.16-2.16s1.724-0.914,2.852-0.914c1.167,0,2.086,0.292,2.76,0.874
		c0.674,0.583,1.021,1.397,1.04,2.441v4.95c0,1.012,0.107,1.769,0.319,2.271v0.115h-1.238L205.617,216.368L205.617,216.368z
		 M201.983,215.537c0.773,0,1.464-0.187,2.073-0.561c0.609-0.374,1.053-0.873,1.33-1.498v-2.301h-2.069
		c-1.154,0.013-2.056,0.224-2.707,0.634s-0.977,0.971-0.977,1.687c0,0.586,0.217,1.074,0.652,1.46
		C200.721,215.344,201.287,215.537,201.983,215.537z"/>
	<path class="st1" d="M211.419,203.229v2.678h2.166v0.947h-2.166v6.978c0,0.581,0.104,1.013,0.314,1.297
		c0.209,0.284,0.56,0.426,1.049,0.426c0.194,0,0.506-0.032,0.938-0.097l0.048,0.939c-0.302,0.109-0.715,0.163-1.238,0.163
		c-0.793,0-1.369-0.23-1.73-0.691s-0.541-1.14-0.541-2.035v-6.981h-1.924v-0.947h1.924v-2.678L211.419,203.229L211.419,203.229z"/>
	<path class="st1" d="M223.281,211.099l-1.324,1.276v3.993h-1.16v-14.85h1.16v9.504l1.092-1.179l4.003-3.935h1.46l-4.437,4.409
		l4.825,6.052h-1.383L223.281,211.099z"/>
	<path class="st1" d="M230.426,202.886c0-0.218,0.07-0.402,0.212-0.552c0.142-0.151,0.335-0.226,0.58-0.226s0.439,0.075,0.584,0.226
		s0.218,0.334,0.218,0.552s-0.073,0.4-0.218,0.548s-0.34,0.221-0.584,0.221s-0.438-0.074-0.58-0.221
		C230.497,203.286,230.426,203.104,230.426,202.886z M231.789,216.368h-1.16v-10.461h1.16V216.368z"/>
	<path class="st1" d="M236.034,205.908l0.038,1.789c0.393-0.645,0.883-1.136,1.47-1.474s1.234-0.507,1.944-0.507
		c1.122,0,1.956,0.316,2.504,0.947s0.825,1.58,0.832,2.842v6.864h-1.151v-6.875c-0.007-0.935-0.206-1.63-0.595-2.088
		s-1.013-0.686-1.87-0.686c-0.715,0-1.35,0.224-1.901,0.672s-0.958,1.053-1.222,1.813v7.164h-1.151v-10.461H236.034L236.034,205.908
		z"/>
	<path class="st1" d="M245.344,211.041c0-1.625,0.362-2.918,1.087-3.882s1.71-1.445,2.955-1.445c1.411,0,2.488,0.558,3.23,1.673
		v-5.869h1.151v14.85h-1.082l-0.048-1.393c-0.741,1.057-1.83,1.585-3.268,1.585c-1.206,0-2.177-0.485-2.915-1.455
		c-0.738-0.97-1.107-2.28-1.107-3.93v-0.134H245.344z M246.513,211.244c0,1.334,0.267,2.386,0.802,3.157s1.289,1.155,2.263,1.155
		c1.424,0,2.436-0.628,3.036-1.885v-4.911c-0.6-1.36-1.605-2.039-3.016-2.039c-0.973,0-1.73,0.382-2.271,1.146
		C246.785,208.63,246.513,209.756,246.513,211.244z"/>
	<path class="st1" d="M260.986,210.983c0-1.005,0.195-1.911,0.584-2.717s0.94-1.432,1.653-1.88s1.52-0.672,2.422-0.672
		c1.393,0,2.52,0.488,3.384,1.465c0.863,0.977,1.296,2.27,1.296,3.882v0.242c0,1.012-0.196,1.923-0.585,2.731
		s-0.939,1.432-1.648,1.871s-1.518,0.658-2.427,0.658c-1.386,0-2.512-0.488-3.379-1.465c-0.867-0.977-1.3-2.27-1.3-3.882
		L260.986,210.983L260.986,210.983z M262.146,211.302c0,1.251,0.323,2.277,0.971,3.079s1.497,1.203,2.548,1.203
		c1.044,0,1.89-0.402,2.538-1.203c0.648-0.802,0.972-1.861,0.972-3.176v-0.222c0-0.8-0.149-1.531-0.444-2.195
		c-0.296-0.663-0.712-1.178-1.247-1.542s-1.147-0.547-1.837-0.547c-1.032,0-1.872,0.405-2.523,1.213s-0.977,1.868-0.977,3.176
		L262.146,211.302L262.146,211.302z"/>
	<path class="st1" d="M273.545,216.368v-9.513h-1.73v-0.947h1.73v-1.266c0-1.07,0.272-1.892,0.816-2.465s1.305-0.86,2.277-0.86
		c0.438,0,0.848,0.054,1.228,0.163l-0.087,0.959c-0.322-0.077-0.673-0.115-1.054-0.115c-0.638,0-1.134,0.199-1.489,0.596
		c-0.355,0.397-0.531,0.961-0.531,1.692v1.299h2.495v0.947h-2.495v9.513h-1.159v-0.003H273.545z"/>
	<path class="st1" d="M285.378,216.368h-1.16v-14.85h1.16V216.368z"/>
	<path class="st1" d="M292.571,216.561c-0.89,0-1.694-0.219-2.412-0.658s-1.277-1.049-1.676-1.833c-0.399-0.783-0.6-1.661-0.6-2.634
		v-0.416c0-1.005,0.195-1.911,0.584-2.717s0.934-1.439,1.629-1.9s1.45-0.691,2.263-0.691c1.269,0,2.276,0.433,3.021,1.3
		s1.118,2.052,1.118,3.553v0.648h-7.464v0.222c0,1.186,0.34,2.174,1.02,2.963c0.68,0.79,1.536,1.185,2.567,1.185
		c0.618,0,1.165-0.113,1.638-0.339s0.904-0.586,1.291-1.082l0.725,0.551C295.424,215.946,294.189,216.561,292.571,216.561z
		 M292.359,206.7c-0.87,0-1.604,0.319-2.2,0.957s-0.958,1.495-1.087,2.572h6.274v-0.125c-0.032-1.005-0.319-1.824-0.86-2.455
		C293.945,207.017,293.236,206.7,292.359,206.7z"/>
	<path class="st1" d="M305.352,216.368c-0.116-0.329-0.19-0.815-0.222-1.46c-0.406,0.528-0.924,0.936-1.552,1.223
		s-1.294,0.43-1.995,0.43c-1.005,0-1.819-0.281-2.442-0.842c-0.623-0.561-0.933-1.269-0.933-2.127c0-1.019,0.424-1.824,1.271-2.417
		s2.03-0.89,3.544-0.89h2.098v-1.189c0-0.748-0.231-1.335-0.692-1.764s-1.132-0.642-2.015-0.642c-0.805,0-1.473,0.207-2.001,0.618
		s-0.793,0.909-0.793,1.489l-1.16-0.01c0-0.832,0.387-1.552,1.16-2.16s1.724-0.914,2.852-0.914c1.167,0,2.086,0.292,2.76,0.874
		c0.674,0.583,1.021,1.397,1.04,2.441v4.95c0,1.012,0.107,1.769,0.319,2.271v0.115h-1.237v0.004H305.352z M301.718,215.537
		c0.773,0,1.464-0.187,2.074-0.561c0.609-0.374,1.053-0.873,1.33-1.498v-2.301h-2.069c-1.154,0.013-2.056,0.224-2.707,0.634
		s-0.977,0.971-0.977,1.687c0,0.586,0.217,1.074,0.652,1.46C300.456,215.344,301.022,215.537,301.718,215.537z"/>
	<path class="st1" d="M314.19,206.893c-0.245-0.045-0.506-0.068-0.783-0.068c-0.722,0-1.333,0.201-1.833,0.604
		c-0.499,0.403-0.855,0.988-1.068,1.755v7.183h-1.151v-10.461h1.131l0.02,1.663c0.613-1.238,1.595-1.857,2.949-1.857
		c0.322,0,0.576,0.042,0.763,0.125L314.19,206.893z"/>
	<path class="st1" d="M317.119,205.908l0.039,1.789c0.393-0.645,0.883-1.136,1.47-1.474c0.586-0.338,1.234-0.507,1.944-0.507
		c1.122,0,1.956,0.316,2.504,0.947c0.548,0.631,0.825,1.58,0.832,2.842v6.864h-1.151v-6.875c-0.007-0.935-0.206-1.63-0.595-2.088
		s-1.013-0.686-1.87-0.686c-0.715,0-1.35,0.224-1.901,0.672s-0.958,1.053-1.222,1.813v7.164h-1.151v-10.461H317.119L317.119,205.908
		z"/>
	<path class="st1" d="M326.825,202.886c0-0.218,0.07-0.402,0.212-0.552c0.142-0.151,0.335-0.226,0.58-0.226
		c0.244,0,0.439,0.075,0.584,0.226c0.145,0.151,0.218,0.334,0.218,0.552s-0.073,0.4-0.218,0.548
		c-0.145,0.147-0.34,0.221-0.584,0.221c-0.244,0-0.438-0.074-0.58-0.221C326.896,203.286,326.825,203.104,326.825,202.886z
		 M328.188,216.368h-1.16v-10.461h1.16V216.368z"/>
	<path class="st1" d="M332.433,205.908l0.039,1.789c0.393-0.645,0.883-1.136,1.47-1.474c0.586-0.338,1.234-0.507,1.944-0.507
		c1.122,0,1.956,0.316,2.504,0.947s0.825,1.58,0.832,2.842v6.864h-1.151v-6.875c-0.007-0.935-0.206-1.63-0.595-2.088
		s-1.013-0.686-1.87-0.686c-0.715,0-1.35,0.224-1.901,0.672s-0.958,1.053-1.222,1.813v7.164h-1.151v-10.461H332.433L332.433,205.908
		z"/>
	<path class="st1" d="M341.742,211.041c0-1.637,0.362-2.934,1.087-3.892s1.71-1.435,2.955-1.435c1.425,0,2.507,0.568,3.248,1.702
		l0.058-1.508h1.082v10.248c0,1.348-0.377,2.413-1.131,3.2s-1.775,1.179-3.065,1.179c-0.728,0-1.423-0.163-2.085-0.488
		c-0.661-0.326-1.18-0.759-1.561-1.3l0.648-0.696c0.818,1.005,1.792,1.508,2.919,1.508c0.967,0,1.72-0.285,2.263-0.856
		c0.542-0.571,0.822-1.362,0.842-2.374v-1.315c-0.741,1.032-1.82,1.547-3.238,1.547c-1.212,0-2.185-0.483-2.919-1.45
		c-0.735-0.967-1.102-2.271-1.102-3.916v-0.153L341.742,211.041L341.742,211.041z M342.913,211.244c0,1.334,0.267,2.386,0.802,3.157
		s1.289,1.155,2.263,1.155c1.424,0,2.433-0.638,3.026-1.914v-4.863c-0.271-0.67-0.661-1.181-1.169-1.532s-1.122-0.527-1.837-0.527
		c-0.974,0-1.73,0.382-2.272,1.146C343.185,208.63,342.913,209.756,342.913,211.244z"/>
	<path class="st1" d="M362.055,216.561c-0.89,0-1.694-0.219-2.412-0.658c-0.718-0.439-1.277-1.049-1.676-1.833
		c-0.399-0.783-0.6-1.661-0.6-2.634v-0.416c0-1.005,0.195-1.911,0.584-2.717s0.934-1.439,1.629-1.9s1.45-0.691,2.263-0.691
		c1.269,0,2.276,0.433,3.021,1.3s1.118,2.052,1.118,3.553v0.648h-7.464v0.222c0,1.186,0.34,2.174,1.02,2.963
		c0.68,0.79,1.536,1.185,2.567,1.185c0.618,0,1.165-0.113,1.638-0.339s0.904-0.586,1.291-1.082l0.725,0.551
		C364.907,215.946,363.673,216.561,362.055,216.561z M361.843,206.7c-0.87,0-1.604,0.319-2.2,0.957s-0.958,1.495-1.087,2.572h6.274
		v-0.125c-0.032-1.005-0.319-1.824-0.86-2.455C363.429,207.017,362.719,206.7,361.843,206.7z"/>
	<path class="st1" d="M371.521,210.152l2.823-4.244h1.373l-3.549,5.134l3.703,5.327h-1.363l-2.978-4.427l-2.978,4.427h-1.363
		l3.693-5.327l-3.549-5.134h1.363L371.521,210.152z"/>
	<path class="st1" d="M386.274,211.244c0,1.63-0.361,2.925-1.082,3.882c-0.722,0.957-1.689,1.436-2.901,1.436
		c-1.431,0-2.527-0.503-3.287-1.508v5.337h-1.151v-14.483h1.074l0.058,1.48c0.755-1.115,1.847-1.673,3.277-1.673
		c1.251,0,2.231,0.474,2.944,1.421s1.069,2.263,1.069,3.945v0.164h-0.001V211.244z M385.113,211.041
		c0-1.334-0.274-2.388-0.822-3.161s-1.311-1.16-2.291-1.16c-0.709,0-1.318,0.171-1.827,0.513s-0.899,0.838-1.169,1.489v5.018
		c0.277,0.6,0.673,1.057,1.189,1.373s1.124,0.474,1.827,0.474c0.974,0,1.731-0.388,2.276-1.165S385.113,212.517,385.113,211.041z"/>
	<path class="st1" d="M392.887,216.561c-0.89,0-1.694-0.219-2.412-0.658s-1.277-1.049-1.676-1.833c-0.399-0.783-0.6-1.661-0.6-2.634
		v-0.416c0-1.005,0.195-1.911,0.584-2.717s0.934-1.439,1.629-1.9s1.45-0.691,2.263-0.691c1.269,0,2.276,0.433,3.021,1.3
		s1.118,2.052,1.118,3.553v0.648h-7.464v0.222c0,1.186,0.34,2.174,1.02,2.963c0.68,0.79,1.536,1.185,2.567,1.185
		c0.618,0,1.165-0.113,1.638-0.339s0.904-0.586,1.291-1.082l0.725,0.551C395.738,215.946,394.504,216.561,392.887,216.561z
		 M392.674,206.7c-0.87,0-1.604,0.319-2.2,0.957s-0.958,1.495-1.087,2.572h6.274v-0.125c-0.032-1.005-0.319-1.824-0.86-2.455
		C394.26,207.017,393.55,206.7,392.674,206.7z"/>
	<path class="st1" d="M403.898,206.893c-0.245-0.045-0.506-0.068-0.783-0.068c-0.722,0-1.333,0.201-1.833,0.604
		c-0.499,0.403-0.855,0.988-1.068,1.755v7.183h-1.151v-10.461h1.131l0.02,1.663c0.613-1.238,1.595-1.857,2.949-1.857
		c0.322,0,0.576,0.042,0.763,0.125L403.898,206.893z"/>
	<path class="st1" d="M405.658,202.886c0-0.218,0.07-0.402,0.212-0.552c0.142-0.151,0.335-0.226,0.58-0.226
		c0.244,0,0.439,0.075,0.584,0.226c0.145,0.151,0.218,0.334,0.218,0.552s-0.073,0.4-0.218,0.548
		c-0.145,0.147-0.34,0.221-0.584,0.221c-0.244,0-0.438-0.074-0.58-0.221S405.658,203.104,405.658,202.886z M407.021,216.368h-1.16
		v-10.461h1.16V216.368z"/>
	<path class="st1" d="M414.214,216.561c-0.89,0-1.694-0.219-2.412-0.658c-0.718-0.439-1.277-1.049-1.676-1.833
		c-0.399-0.783-0.6-1.661-0.6-2.634v-0.416c0-1.005,0.195-1.911,0.584-2.717s0.934-1.439,1.629-1.9s1.45-0.691,2.263-0.691
		c1.269,0,2.276,0.433,3.021,1.3s1.118,2.052,1.118,3.553v0.648h-7.464v0.222c0,1.186,0.34,2.174,1.02,2.963
		c0.68,0.79,1.536,1.185,2.567,1.185c0.618,0,1.165-0.113,1.638-0.339s0.904-0.586,1.291-1.082l0.725,0.551
		C417.066,215.946,415.832,216.561,414.214,216.561z M414.001,206.7c-0.87,0-1.604,0.319-2.2,0.957s-0.958,1.495-1.087,2.572h6.274
		v-0.125c-0.032-1.005-0.319-1.824-0.86-2.455C415.588,207.017,414.878,206.7,414.001,206.7z"/>
	<path class="st1" d="M421.494,205.908l0.039,1.789c0.393-0.645,0.883-1.136,1.47-1.474c0.586-0.338,1.234-0.507,1.944-0.507
		c1.122,0,1.956,0.316,2.504,0.947s0.825,1.58,0.832,2.842v6.864h-1.151v-6.875c-0.007-0.935-0.206-1.63-0.595-2.088
		s-1.013-0.686-1.87-0.686c-0.715,0-1.35,0.224-1.901,0.672s-0.958,1.053-1.222,1.813v7.164h-1.151v-10.461H421.494L421.494,205.908
		z"/>
	<path class="st1" d="M435.136,215.584c0.805,0,1.481-0.228,2.025-0.682s0.84-1.043,0.885-1.764h1.112
		c-0.032,0.638-0.232,1.22-0.599,1.745s-0.856,0.936-1.465,1.233s-1.261,0.444-1.957,0.444c-1.373,0-2.461-0.477-3.264-1.431
		s-1.203-2.236-1.203-3.848v-0.348c0-1.032,0.18-1.944,0.541-2.736s0.878-1.405,1.551-1.837s1.462-0.648,2.364-0.648
		c1.147,0,2.092,0.342,2.837,1.025s1.143,1.582,1.195,2.697h-1.112c-0.052-0.818-0.346-1.48-0.885-1.982
		c-0.539-0.503-1.216-0.755-2.035-0.755c-1.044,0-1.856,0.377-2.432,1.131c-0.576,0.754-0.865,1.811-0.865,3.171v0.339
		c0,1.334,0.288,2.375,0.865,3.123C433.269,215.21,434.085,215.584,435.136,215.584z"/>
	<path class="st1" d="M445.519,216.561c-0.89,0-1.694-0.219-2.412-0.658s-1.277-1.049-1.676-1.833c-0.399-0.783-0.6-1.661-0.6-2.634
		v-0.416c0-1.005,0.195-1.911,0.584-2.717s0.934-1.439,1.629-1.9s1.45-0.691,2.263-0.691c1.269,0,2.276,0.433,3.021,1.3
		s1.118,2.052,1.118,3.553v0.648h-7.464v0.222c0,1.186,0.34,2.174,1.02,2.963c0.68,0.79,1.536,1.185,2.567,1.185
		c0.618,0,1.165-0.113,1.638-0.339s0.904-0.586,1.291-1.082l0.725,0.551C448.371,215.946,447.137,216.561,445.519,216.561z
		 M445.306,206.7c-0.87,0-1.604,0.319-2.2,0.957s-0.958,1.495-1.087,2.572h6.274v-0.125c-0.032-1.005-0.319-1.824-0.86-2.455
		S446.183,206.7,445.306,206.7z"/>
	<path class="st1" d="M459.016,213.961l0.174,0.899l0.232-0.947l2.514-8.005h0.986l2.485,7.938l0.271,1.102l0.222-1.015l2.146-8.025
		h1.199l-3.046,10.461h-0.986l-2.687-8.295l-0.125-0.571l-0.125,0.58l-2.639,8.285h-0.986l-3.036-10.461h1.189L459.016,213.961z"/>
	<path class="st1" d="M470.801,210.983c0-1.005,0.195-1.911,0.584-2.717s0.941-1.432,1.653-1.88s1.52-0.672,2.422-0.672
		c1.393,0,2.52,0.488,3.384,1.465c0.863,0.977,1.296,2.27,1.296,3.882v0.242c0,1.012-0.196,1.923-0.585,2.731
		s-0.939,1.432-1.648,1.871s-1.518,0.658-2.427,0.658c-1.386,0-2.512-0.488-3.379-1.465c-0.867-0.977-1.3-2.27-1.3-3.882
		L470.801,210.983L470.801,210.983z M471.96,211.302c0,1.251,0.323,2.277,0.971,3.079s1.497,1.203,2.548,1.203
		c1.044,0,1.89-0.402,2.538-1.203c0.648-0.802,0.972-1.861,0.972-3.176v-0.222c0-0.8-0.148-1.531-0.444-2.195
		c-0.296-0.663-0.712-1.178-1.247-1.542s-1.147-0.547-1.837-0.547c-1.032,0-1.872,0.405-2.523,1.213
		c-0.651,0.809-0.977,1.868-0.977,3.176L471.96,211.302L471.96,211.302z"/>
	<path class="st1" d="M489.256,215.043c-0.696,1.012-1.807,1.518-3.334,1.518c-1.115,0-1.962-0.323-2.543-0.971
		s-0.877-1.606-0.89-2.877v-6.807h1.151v6.662c0,1.992,0.805,2.988,2.417,2.988c1.675,0,2.735-0.693,3.18-2.079v-7.57h1.16v10.461
		h-1.122L489.256,215.043z"/>
	<path class="st1" d="M494.7,216.368h-1.16v-14.85h1.16V216.368z"/>
	<path class="st1" d="M497.378,211.041c0-1.625,0.363-2.918,1.087-3.882c0.726-0.964,1.711-1.445,2.955-1.445
		c1.411,0,2.488,0.558,3.23,1.673v-5.869h1.151v14.85h-1.082l-0.048-1.393c-0.741,1.057-1.83,1.585-3.268,1.585
		c-1.206,0-2.177-0.485-2.915-1.455s-1.107-2.28-1.107-3.93v-0.134H497.378z M498.547,211.244c0,1.334,0.267,2.386,0.802,3.157
		s1.289,1.155,2.263,1.155c1.425,0,2.436-0.628,3.036-1.885v-4.911c-0.6-1.36-1.605-2.039-3.016-2.039
		c-0.974,0-1.73,0.382-2.272,1.146C498.819,208.63,498.547,209.756,498.547,211.244z"/>
	<path class="st1" d="M516.975,214.706l3.055-8.798h1.247l-4.467,12.24l-0.232,0.541c-0.573,1.269-1.46,1.904-2.659,1.904
		c-0.277,0-0.573-0.045-0.89-0.135l-0.01-0.957l0.599,0.058c0.568,0,1.026-0.14,1.377-0.42c0.351-0.281,0.65-0.762,0.894-1.445
		l0.513-1.411l-3.945-10.374h1.266L516.975,214.706z"/>
	<path class="st1" d="M522.282,210.983c0-1.005,0.195-1.911,0.584-2.717s0.941-1.432,1.654-1.88
		c0.711-0.448,1.519-0.672,2.421-0.672c1.393,0,2.52,0.488,3.384,1.465c0.863,0.977,1.296,2.27,1.296,3.882v0.242
		c0,1.012-0.196,1.923-0.584,2.731c-0.391,0.809-0.939,1.432-1.649,1.871s-1.518,0.658-2.427,0.658
		c-1.386,0-2.512-0.488-3.379-1.465c-0.867-0.977-1.3-2.27-1.3-3.882V210.983z M523.443,211.302c0,1.251,0.325,2.277,0.971,3.079
		c0.649,0.802,1.497,1.203,2.548,1.203c1.044,0,1.891-0.402,2.538-1.203c0.649-0.802,0.972-1.861,0.972-3.176v-0.222
		c0-0.8-0.148-1.531-0.444-2.195c-0.296-0.663-0.712-1.178-1.247-1.542s-1.147-0.547-1.837-0.547c-1.032,0-1.872,0.405-2.523,1.213
		c-0.651,0.809-0.977,1.868-0.977,3.176v0.214H523.443z"/>
	<path class="st1" d="M540.739,215.043c-0.696,1.012-1.808,1.518-3.335,1.518c-1.115,0-1.962-0.323-2.543-0.971
		s-0.877-1.606-0.89-2.877v-6.807h1.151v6.662c0,1.992,0.805,2.988,2.417,2.988c1.675,0,2.736-0.693,3.181-2.079v-7.57h1.161v10.461
		h-1.122L540.739,215.043z"/>
	<path class="st1" d="M552.573,212.568l0.436,2.185l0.531-2.088l3.055-10.374h1.074l3.016,10.374l0.523,2.108l0.464-2.204
		l2.543-10.277h1.218l-3.606,14.077h-1.141l-3.19-11.012l-0.358-1.393l-0.348,1.393l-3.268,11.012h-1.141l-3.597-14.077h1.218
		L552.573,212.568z"/>
	<path class="st1" d="M571.202,216.561c-0.89,0-1.694-0.219-2.411-0.658c-0.719-0.438-1.278-1.049-1.677-1.833
		c-0.399-0.783-0.599-1.661-0.599-2.634v-0.416c0-1.005,0.195-1.911,0.584-2.717s0.934-1.439,1.629-1.9s1.45-0.691,2.263-0.691
		c1.269,0,2.276,0.433,3.022,1.3c0.744,0.867,1.117,2.052,1.117,3.553v0.648h-7.463v0.222c0,1.186,0.34,2.174,1.02,2.963
		c0.68,0.79,1.536,1.185,2.567,1.185c0.618,0,1.165-0.113,1.639-0.339c0.473-0.226,0.903-0.586,1.29-1.082l0.725,0.551
		C574.055,215.946,572.821,216.561,571.202,216.561z M570.99,206.7c-0.87,0-1.604,0.319-2.199,0.957
		c-0.597,0.638-0.959,1.495-1.088,2.572h6.274v-0.125c-0.032-1.005-0.319-1.824-0.86-2.455S571.867,206.7,570.99,206.7z"/>
	<path class="st1" d="M172.901,240.36l0.174,0.899l0.232-0.947l2.514-8.005h0.986l2.485,7.936l0.271,1.102l0.222-1.015l2.146-8.023
		h1.199l-3.046,10.46h-0.986l-2.687-8.295l-0.125-0.571l-0.125,0.58l-2.639,8.285h-0.986l-3.036-10.46h1.189L172.901,240.36z"/>
	<path class="st1" d="M184.687,237.382c0-1.005,0.195-1.911,0.584-2.716c0.389-0.805,0.94-1.432,1.653-1.88s1.52-0.672,2.422-0.672
		c1.393,0,2.52,0.488,3.384,1.465c0.864,0.977,1.296,2.27,1.296,3.881v0.242c0,1.012-0.196,1.923-0.585,2.731
		s-0.939,1.432-1.648,1.87c-0.708,0.438-1.518,0.658-2.427,0.658c-1.386,0-2.512-0.487-3.379-1.464s-1.3-2.27-1.3-3.882V237.382z
		 M185.847,237.701c0,1.251,0.323,2.277,0.971,3.08s1.497,1.203,2.548,1.203c1.044,0,1.89-0.4,2.538-1.203s0.972-1.861,0.972-3.177
		v-0.222c0-0.8-0.148-1.53-0.444-2.194s-0.712-1.178-1.247-1.542c-0.536-0.364-1.147-0.547-1.837-0.547
		c-1.032,0-1.872,0.405-2.523,1.213c-0.651,0.809-0.977,1.867-0.977,3.176L185.847,237.701L185.847,237.701z"/>
	<path class="st1" d="M201.248,233.293c-0.245-0.045-0.506-0.068-0.783-0.068c-0.722,0-1.333,0.201-1.833,0.604
		c-0.499,0.403-0.855,0.988-1.068,1.755v7.183h-1.151v-10.46h1.131l0.02,1.663c0.613-1.238,1.595-1.857,2.949-1.857
		c0.322,0,0.576,0.042,0.763,0.125L201.248,233.293z"/>
	<path class="st1" d="M205.56,237.499l-1.324,1.276v3.993h-1.16v-14.85h1.16v9.503l1.092-1.179l4.003-3.935h1.46l-4.437,4.408
		l4.825,6.052h-1.383L205.56,237.499z"/>
	<path class="st1" d="M220.091,240.36l0.174,0.899l0.232-0.947l2.514-8.005h0.986l2.485,7.936l0.271,1.102l0.222-1.015l2.146-8.023
		h1.199l-3.046,10.46h-0.986l-2.687-8.295l-0.125-0.571l-0.125,0.58l-2.639,8.285h-0.986l-3.036-10.46h1.189L220.091,240.36z"/>
	<path class="st1" d="M232.446,229.286c0-0.218,0.07-0.402,0.212-0.552c0.142-0.151,0.335-0.225,0.58-0.225s0.439,0.075,0.584,0.225
		c0.145,0.151,0.218,0.334,0.218,0.552s-0.073,0.4-0.218,0.548c-0.145,0.147-0.34,0.221-0.584,0.221s-0.438-0.074-0.58-0.221
		C232.518,229.686,232.446,229.504,232.446,229.286z M233.809,242.768h-1.16v-10.46h1.16V242.768z"/>
	<path class="st1" d="M238.751,229.629v2.678h2.166v0.947h-2.166v6.977c0,0.581,0.105,1.014,0.314,1.298s0.56,0.426,1.049,0.426
		c0.194,0,0.506-0.032,0.938-0.097l0.048,0.939c-0.303,0.109-0.715,0.162-1.238,0.162c-0.793,0-1.369-0.23-1.73-0.691
		s-0.541-1.14-0.541-2.036v-6.979h-1.924v-0.947h1.924v-2.678h1.159v0.001H238.751z"/>
	<path class="st1" d="M244.464,234.077c0.381-0.625,0.867-1.109,1.46-1.45s1.241-0.513,1.944-0.513c1.122,0,1.956,0.316,2.504,0.947
		c0.548,0.631,0.825,1.58,0.832,2.842v6.864h-1.151v-6.874c-0.007-0.935-0.206-1.63-0.595-2.088s-1.013-0.686-1.87-0.686
		c-0.715,0-1.35,0.224-1.901,0.672s-0.958,1.053-1.222,1.813v7.163h-1.151v-14.85h1.151v6.16H244.464z"/>
	<path class="st1" d="M262.311,241.104l3.055-8.798h1.247l-4.467,12.239l-0.232,0.541c-0.573,1.269-1.46,1.904-2.659,1.904
		c-0.277,0-0.573-0.045-0.89-0.135l-0.01-0.957l0.6,0.058c0.568,0,1.026-0.14,1.377-0.42c0.351-0.281,0.65-0.762,0.894-1.445
		l0.513-1.411l-3.945-10.373h1.266L262.311,241.104z"/>
	<path class="st1" d="M267.619,237.382c0-1.005,0.195-1.911,0.584-2.716c0.389-0.805,0.941-1.432,1.653-1.88
		c0.713-0.448,1.52-0.672,2.422-0.672c1.393,0,2.52,0.488,3.384,1.465c0.863,0.977,1.296,2.27,1.296,3.881v0.242
		c0,1.012-0.196,1.923-0.585,2.731s-0.939,1.432-1.648,1.87c-0.708,0.438-1.518,0.658-2.427,0.658c-1.386,0-2.512-0.487-3.379-1.464
		s-1.3-2.27-1.3-3.882L267.619,237.382L267.619,237.382z M268.778,237.701c0,1.251,0.323,2.277,0.971,3.08s1.497,1.203,2.548,1.203
		c1.044,0,1.89-0.4,2.538-1.203s0.972-1.861,0.972-3.177v-0.222c0-0.8-0.148-1.53-0.444-2.194s-0.712-1.178-1.247-1.542
		s-1.147-0.547-1.837-0.547c-1.032,0-1.872,0.405-2.523,1.213c-0.651,0.809-0.977,1.867-0.977,3.176L268.778,237.701
		L268.778,237.701z"/>
	<path class="st1" d="M286.075,241.443c-0.696,1.012-1.808,1.518-3.335,1.518c-1.115,0-1.962-0.323-2.543-0.971
		s-0.877-1.607-0.89-2.877v-6.806h1.151v6.66c0,1.992,0.805,2.988,2.417,2.988c1.675,0,2.736-0.693,3.181-2.079v-7.569h1.16v10.46
		h-1.122L286.075,241.443z"/>
	<path class="st1" d="M296.835,229.629v2.678h2.166v0.947h-2.166v6.977c0,0.581,0.104,1.014,0.314,1.298
		c0.209,0.284,0.56,0.426,1.049,0.426c0.194,0,0.506-0.032,0.938-0.097l0.048,0.939c-0.302,0.109-0.715,0.162-1.237,0.162
		c-0.793,0-1.37-0.23-1.73-0.691s-0.541-1.14-0.541-2.036v-6.979h-1.924v-0.947h1.924v-2.678L296.835,229.629L296.835,229.629z"/>
	<path class="st1" d="M300.567,237.382c0-1.005,0.195-1.911,0.584-2.716c0.389-0.805,0.941-1.432,1.653-1.88
		c0.713-0.448,1.52-0.672,2.422-0.672c1.393,0,2.52,0.488,3.384,1.465c0.863,0.977,1.296,2.27,1.296,3.881v0.242
		c0,1.012-0.196,1.923-0.585,2.731s-0.939,1.432-1.648,1.87c-0.708,0.438-1.518,0.658-2.427,0.658c-1.386,0-2.512-0.487-3.379-1.464
		s-1.3-2.27-1.3-3.882L300.567,237.382L300.567,237.382z M301.728,237.701c0,1.251,0.323,2.277,0.971,3.08s1.497,1.203,2.548,1.203
		c1.044,0,1.89-0.4,2.538-1.203s0.972-1.861,0.972-3.177v-0.222c0-0.8-0.149-1.53-0.444-2.194c-0.296-0.664-0.712-1.178-1.247-1.542
		s-1.147-0.547-1.837-0.547c-1.032,0-1.872,0.405-2.523,1.213c-0.651,0.809-0.977,1.867-0.977,3.176L301.728,237.701
		L301.728,237.701z"/>
	<path class="st1" d="M320.977,241.984c0.805,0,1.481-0.227,2.025-0.681s0.84-1.043,0.885-1.764h1.112
		c-0.032,0.638-0.232,1.22-0.6,1.746c-0.367,0.526-0.856,0.936-1.465,1.232c-0.609,0.296-1.261,0.444-1.957,0.444
		c-1.373,0-2.461-0.477-3.264-1.431s-1.203-2.236-1.203-3.848v-0.348c0-1.032,0.18-1.943,0.541-2.736s0.878-1.405,1.551-1.837
		s1.462-0.648,2.364-0.648c1.147,0,2.092,0.342,2.837,1.025s1.143,1.582,1.195,2.697h-1.112c-0.052-0.818-0.346-1.48-0.885-1.982
		s-1.216-0.755-2.035-0.755c-1.044,0-1.856,0.377-2.432,1.131c-0.576,0.754-0.865,1.811-0.865,3.17v0.339
		c0,1.334,0.288,2.375,0.865,3.123C319.11,241.61,319.925,241.984,320.977,241.984z"/>
	<path class="st1" d="M332.143,233.293c-0.245-0.045-0.506-0.068-0.783-0.068c-0.722,0-1.333,0.201-1.833,0.604
		c-0.499,0.403-0.855,0.988-1.068,1.755v7.183h-1.151v-10.46h1.131l0.02,1.663c0.613-1.238,1.595-1.857,2.949-1.857
		c0.322,0,0.576,0.042,0.763,0.125L332.143,233.293z"/>
	<path class="st1" d="M337.837,242.961c-0.89,0-1.694-0.219-2.412-0.658c-0.718-0.439-1.277-1.048-1.676-1.831
		c-0.399-0.783-0.6-1.662-0.6-2.636v-0.416c0-1.005,0.195-1.911,0.584-2.716s0.934-1.439,1.629-1.9s1.45-0.691,2.263-0.691
		c1.269,0,2.276,0.433,3.021,1.3s1.118,2.051,1.118,3.552v0.648H334.3v0.222c0,1.186,0.34,2.175,1.02,2.963
		c0.68,0.789,1.536,1.184,2.567,1.184c0.618,0,1.165-0.113,1.638-0.339s0.904-0.586,1.291-1.082l0.725,0.551
		C340.689,242.345,339.454,242.961,337.837,242.961z M337.624,233.1c-0.87,0-1.604,0.319-2.2,0.957s-0.958,1.495-1.087,2.571h6.274
		v-0.125c-0.032-1.005-0.319-1.824-0.86-2.455S338.501,233.1,337.624,233.1z"/>
	<path class="st1" d="M350.618,242.768c-0.116-0.329-0.19-0.815-0.222-1.46c-0.406,0.528-0.924,0.937-1.552,1.223
		s-1.294,0.43-1.995,0.43c-1.005,0-1.819-0.281-2.442-0.841c-0.623-0.561-0.933-1.269-0.933-2.127c0-1.019,0.423-1.824,1.27-2.417
		s2.03-0.89,3.544-0.89h2.098v-1.189c0-0.748-0.231-1.335-0.692-1.764s-1.132-0.642-2.015-0.642c-0.805,0-1.473,0.207-2.001,0.618
		s-0.793,0.909-0.793,1.489l-1.16-0.01c0-0.832,0.387-1.552,1.16-2.16s1.724-0.914,2.852-0.914c1.167,0,2.086,0.291,2.76,0.874
		s1.021,1.397,1.04,2.441v4.95c0,1.012,0.107,1.769,0.319,2.272v0.115h-1.237v0.002H350.618z M346.983,241.936
		c0.773,0,1.464-0.187,2.074-0.561c0.609-0.374,1.053-0.873,1.33-1.498v-2.301h-2.069c-1.154,0.013-2.056,0.224-2.707,0.634
		s-0.977,0.971-0.977,1.686c0,0.586,0.217,1.074,0.652,1.46C345.721,241.741,346.287,241.936,346.983,241.936z"/>
	<path class="st1" d="M356.419,229.629v2.678h2.166v0.947h-2.166v6.977c0,0.581,0.104,1.014,0.314,1.298s0.56,0.426,1.049,0.426
		c0.194,0,0.506-0.032,0.938-0.097l0.048,0.939c-0.302,0.109-0.715,0.162-1.237,0.162c-0.793,0-1.37-0.23-1.73-0.691
		c-0.361-0.461-0.541-1.14-0.541-2.036v-6.979h-1.924v-0.947h1.924v-2.678L356.419,229.629L356.419,229.629z"/>
	<path class="st1" d="M365.033,242.961c-0.89,0-1.694-0.219-2.412-0.658c-0.718-0.439-1.277-1.048-1.676-1.831
		c-0.399-0.783-0.6-1.662-0.6-2.636v-0.416c0-1.005,0.195-1.911,0.584-2.716s0.934-1.439,1.629-1.9s1.45-0.691,2.263-0.691
		c1.269,0,2.276,0.433,3.021,1.3s1.118,2.051,1.118,3.552v0.648h-7.464v0.222c0,1.186,0.34,2.175,1.02,2.963
		c0.68,0.789,1.536,1.184,2.567,1.184c0.618,0,1.165-0.113,1.638-0.339s0.904-0.586,1.291-1.082l0.725,0.551
		C367.885,242.345,366.651,242.961,365.033,242.961z M364.82,233.1c-0.87,0-1.604,0.319-2.2,0.957s-0.958,1.495-1.087,2.571h6.274
		v-0.125c-0.032-1.005-0.319-1.824-0.86-2.455C366.407,233.415,365.697,233.1,364.82,233.1z"/>
	<path class="st1" d="M377.824,229.629v2.678h2.166v0.947h-2.166v6.977c0,0.581,0.105,1.014,0.314,1.298
		c0.209,0.284,0.56,0.426,1.049,0.426c0.194,0,0.506-0.032,0.938-0.097l0.048,0.939c-0.302,0.109-0.715,0.162-1.238,0.162
		c-0.793,0-1.369-0.23-1.73-0.691s-0.541-1.14-0.541-2.036v-6.979h-1.924v-0.947h1.924v-2.678h1.159v0.001H377.824z"/>
	<path class="st1" d="M383.538,234.077c0.381-0.625,0.867-1.109,1.46-1.45s1.241-0.513,1.944-0.513c1.122,0,1.956,0.316,2.504,0.947
		s0.825,1.58,0.832,2.842v6.864h-1.151v-6.874c-0.007-0.935-0.206-1.63-0.595-2.088s-1.013-0.686-1.87-0.686
		c-0.715,0-1.35,0.224-1.901,0.672s-0.958,1.053-1.222,1.813v7.163h-1.151v-14.85h1.151v6.16H383.538z"/>
	<path class="st1" d="M397.305,242.961c-0.89,0-1.694-0.219-2.412-0.658c-0.718-0.439-1.277-1.048-1.676-1.831
		c-0.399-0.783-0.6-1.662-0.6-2.636v-0.416c0-1.005,0.195-1.911,0.584-2.716s0.934-1.439,1.629-1.9s1.45-0.691,2.263-0.691
		c1.269,0,2.276,0.433,3.021,1.3s1.118,2.051,1.118,3.552v0.648h-7.464v0.222c0,1.186,0.34,2.175,1.02,2.963
		c0.68,0.789,1.536,1.184,2.567,1.184c0.618,0,1.165-0.113,1.638-0.339s0.904-0.586,1.291-1.082l0.725,0.551
		C400.157,242.345,398.923,242.961,397.305,242.961z M397.092,233.1c-0.87,0-1.604,0.319-2.2,0.957s-0.958,1.495-1.087,2.571h6.274
		v-0.125c-0.032-1.005-0.319-1.824-0.86-2.455C398.678,233.415,397.969,233.1,397.092,233.1z"/>
	<path class="st1" d="M414.562,240.109c0-0.573-0.231-1.034-0.692-1.383s-1.155-0.619-2.083-0.816s-1.649-0.422-2.161-0.676
		s-0.893-0.566-1.141-0.934c-0.249-0.366-0.372-0.812-0.372-1.333c0-0.825,0.344-1.507,1.034-2.045s1.573-0.807,2.649-0.807
		c1.167,0,2.102,0.288,2.808,0.866c0.706,0.578,1.059,1.329,1.059,2.257h-1.16c0-0.613-0.256-1.122-0.769-1.528
		s-1.158-0.609-1.938-0.609c-0.76,0-1.372,0.169-1.833,0.507s-0.691,0.779-0.691,1.32c0,0.523,0.191,0.926,0.574,1.213
		s1.082,0.549,2.098,0.788c1.015,0.239,1.775,0.493,2.281,0.763c0.506,0.271,0.882,0.596,1.126,0.977
		c0.244,0.381,0.367,0.841,0.367,1.383c0,0.883-0.356,1.588-1.069,2.118c-0.713,0.529-1.641,0.793-2.789,0.793
		c-1.218,0-2.207-0.295-2.963-0.884c-0.757-0.59-1.135-1.336-1.135-2.238h1.16c0.045,0.676,0.33,1.204,0.855,1.582
		s1.22,0.565,2.084,0.565c0.805,0,1.456-0.177,1.952-0.531C414.312,241.1,414.562,240.65,414.562,240.109z"/>
	<path class="st1" d="M420.807,237.499l-1.324,1.276v3.993h-1.16v-14.85h1.16v9.503l1.092-1.179l4.003-3.935h1.46l-4.437,4.408
		l4.825,6.052h-1.383L420.807,237.499z"/>
	<path class="st1" d="M427.953,229.286c0-0.218,0.07-0.402,0.212-0.552s0.335-0.225,0.58-0.225c0.244,0,0.439,0.075,0.584,0.225
		c0.145,0.151,0.218,0.334,0.218,0.552s-0.073,0.4-0.218,0.548c-0.145,0.147-0.34,0.221-0.584,0.221
		c-0.244,0-0.438-0.074-0.58-0.221C428.023,229.686,427.953,229.504,427.953,229.286z M429.316,242.768h-1.16v-10.46h1.16V242.768z"
		/>
	<path class="st1" d="M433.753,242.768h-1.16v-14.85h1.16V242.768z"/>
	<path class="st1" d="M438.19,242.768h-1.16v-14.85h1.16V242.768z"/>
	<path class="st1" d="M447.598,240.109c0-0.573-0.231-1.034-0.692-1.383s-1.155-0.619-2.083-0.816
		c-0.928-0.197-1.649-0.422-2.161-0.676s-0.893-0.566-1.141-0.934c-0.249-0.366-0.372-0.812-0.372-1.333
		c0-0.825,0.344-1.507,1.034-2.045s1.573-0.807,2.649-0.807c1.167,0,2.102,0.288,2.808,0.866c0.706,0.578,1.059,1.329,1.059,2.257
		h-1.16c0-0.613-0.256-1.122-0.769-1.528s-1.158-0.609-1.938-0.609c-0.76,0-1.372,0.169-1.833,0.507s-0.691,0.779-0.691,1.32
		c0,0.523,0.191,0.926,0.574,1.213s1.082,0.549,2.098,0.788c1.015,0.239,1.775,0.493,2.281,0.763
		c0.506,0.271,0.882,0.596,1.126,0.977c0.244,0.381,0.367,0.841,0.367,1.383c0,0.883-0.356,1.588-1.069,2.118
		c-0.713,0.529-1.641,0.793-2.788,0.793c-1.218,0-2.207-0.295-2.963-0.884s-1.135-1.336-1.135-2.238h1.16
		c0.045,0.676,0.33,1.204,0.855,1.582c0.525,0.377,1.22,0.565,2.085,0.565c0.805,0,1.456-0.177,1.952-0.531
		S447.598,240.65,447.598,240.109z"/>
	<path class="st1" d="M457.227,232.308l0.039,1.702c0.387-0.631,0.87-1.105,1.45-1.421s1.224-0.474,1.934-0.474
		c1.65,0,2.697,0.677,3.142,2.031c0.374-0.651,0.873-1.152,1.498-1.504s1.315-0.527,2.069-0.527c2.243,0,3.387,1.224,3.432,3.674
		v6.98h-1.16v-6.893c-0.007-0.935-0.208-1.627-0.605-2.079s-1.042-0.676-1.938-0.676c-0.832,0.013-1.534,0.282-2.108,0.807
		c-0.573,0.526-0.893,1.165-0.957,1.919v6.921h-1.16v-6.979c-0.007-0.895-0.218-1.564-0.634-2.006
		c-0.416-0.442-1.055-0.662-1.918-0.662c-0.728,0-1.353,0.208-1.875,0.624s-0.909,1.033-1.16,1.851v7.173h-1.16v-10.46
		L457.227,232.308L457.227,232.308z"/>
	<path class="st1" d="M480.324,242.768c-0.116-0.329-0.19-0.815-0.222-1.46c-0.406,0.528-0.924,0.937-1.552,1.223
		s-1.294,0.43-1.995,0.43c-1.005,0-1.819-0.281-2.442-0.841s-0.933-1.269-0.933-2.127c0-1.019,0.424-1.824,1.271-2.417
		s2.03-0.89,3.544-0.89h2.098v-1.189c0-0.748-0.231-1.335-0.692-1.764s-1.132-0.642-2.015-0.642c-0.805,0-1.473,0.207-2.001,0.618
		s-0.793,0.909-0.793,1.489l-1.16-0.01c0-0.832,0.387-1.552,1.16-2.16s1.724-0.914,2.852-0.914c1.167,0,2.086,0.291,2.76,0.874
		s1.021,1.397,1.039,2.441v4.95c0,1.012,0.107,1.769,0.319,2.272v0.115h-1.238V242.768z M476.688,241.936
		c0.773,0,1.464-0.187,2.074-0.561c0.609-0.374,1.053-0.873,1.33-1.498v-2.301h-2.069c-1.154,0.013-2.056,0.224-2.707,0.634
		s-0.977,0.971-0.977,1.686c0,0.586,0.217,1.074,0.652,1.46C475.427,241.741,475.992,241.936,476.688,241.936z"/>
	<path class="st1" d="M486.123,229.629v2.678h2.166v0.947h-2.166v6.977c0,0.581,0.106,1.014,0.314,1.298
		c0.21,0.284,0.561,0.426,1.051,0.426c0.194,0,0.505-0.032,0.937-0.097l0.05,0.939c-0.302,0.109-0.715,0.162-1.237,0.162
		c-0.793,0-1.371-0.23-1.731-0.691s-0.54-1.14-0.54-2.036v-6.979h-1.924v-0.947h1.924v-2.678h1.158v0.001H486.123z"/>
	<path class="st1" d="M495.52,233.293c-0.245-0.045-0.506-0.068-0.783-0.068c-0.722,0-1.333,0.201-1.832,0.604
		c-0.5,0.403-0.856,0.988-1.069,1.755v7.183h-1.151v-10.46h1.131l0.02,1.663c0.613-1.238,1.595-1.857,2.949-1.857
		c0.322,0,0.576,0.042,0.763,0.125L495.52,233.293z"/>
	<path class="st1" d="M497.28,229.286c0-0.218,0.07-0.402,0.212-0.552c0.142-0.151,0.336-0.225,0.58-0.225s0.439,0.075,0.585,0.225
		c0.144,0.151,0.217,0.334,0.217,0.552s-0.073,0.4-0.217,0.548c-0.146,0.147-0.341,0.221-0.585,0.221s-0.438-0.074-0.58-0.221
		C497.351,229.686,497.28,229.504,497.28,229.286z M498.643,242.768h-1.16v-10.46h1.16V242.768z"/>
	<path class="st1" d="M505.073,236.552l2.823-4.244h1.373l-3.549,5.134l3.703,5.327h-1.363l-2.978-4.427l-2.978,4.427h-1.363
		l3.693-5.327l-3.549-5.134h1.363L505.073,236.552z"/>
	<path class="st1" d="M511.173,245.398l-0.686-0.503c0.586-0.786,0.89-1.602,0.909-2.446v-1.498h1.131v1.209
		C512.526,243.499,512.075,244.578,511.173,245.398z"/>
	<path class="st1" d="M521.315,242.768h-1.16v-14.85h1.16V242.768z"/>
	<path class="st1" d="M528.508,242.961c-0.89,0-1.694-0.219-2.411-0.658c-0.719-0.438-1.278-1.048-1.677-1.831
		c-0.399-0.783-0.6-1.662-0.6-2.636v-0.416c0-1.005,0.195-1.911,0.584-2.716s0.934-1.439,1.629-1.9s1.45-0.691,2.263-0.691
		c1.269,0,2.276,0.433,3.022,1.3c0.744,0.867,1.117,2.051,1.117,3.552v0.648h-7.464v0.222c0,1.186,0.34,2.175,1.02,2.963
		c0.68,0.789,1.536,1.184,2.567,1.184c0.618,0,1.165-0.113,1.639-0.339c0.473-0.226,0.903-0.586,1.29-1.082l0.725,0.551
		C531.359,242.345,530.125,242.961,528.508,242.961z M528.295,233.1c-0.87,0-1.604,0.319-2.199,0.957
		c-0.597,0.638-0.959,1.495-1.088,2.571h6.274v-0.125c-0.032-1.005-0.319-1.824-0.86-2.455S529.172,233.1,528.295,233.1z"/>
	<path class="st1" d="M540.95,240.109c0-0.573-0.231-1.034-0.692-1.383c-0.461-0.348-1.155-0.619-2.083-0.816
		c-0.928-0.197-1.649-0.422-2.16-0.676c-0.514-0.254-0.893-0.566-1.141-0.934c-0.25-0.366-0.373-0.812-0.373-1.333
		c0-0.825,0.344-1.507,1.034-2.045s1.573-0.807,2.649-0.807c1.167,0,2.103,0.288,2.808,0.866c0.707,0.576,1.059,1.329,1.059,2.257
		h-1.161c0-0.613-0.255-1.122-0.769-1.528c-0.511-0.406-1.158-0.609-1.938-0.609c-0.76,0-1.372,0.169-1.833,0.507
		s-0.691,0.779-0.691,1.32c0,0.523,0.191,0.926,0.574,1.213s1.082,0.549,2.099,0.788c1.014,0.239,1.774,0.493,2.281,0.763
		c0.505,0.271,0.881,0.596,1.125,0.977c0.244,0.381,0.367,0.841,0.367,1.383c0,0.883-0.356,1.588-1.068,2.118
		c-0.713,0.528-1.642,0.793-2.79,0.793c-1.218,0-2.207-0.295-2.963-0.884s-1.135-1.336-1.135-2.238h1.16
		c0.045,0.676,0.33,1.204,0.856,1.582c0.525,0.377,1.219,0.565,2.083,0.565c0.805,0,1.456-0.177,1.953-0.531
		C540.703,241.098,540.95,240.65,540.95,240.109z"/>
	<path class="st1" d="M550.976,240.109c0-0.573-0.231-1.034-0.692-1.383s-1.155-0.619-2.083-0.816s-1.649-0.422-2.16-0.676
		c-0.514-0.254-0.893-0.566-1.141-0.934c-0.25-0.366-0.373-0.812-0.373-1.333c0-0.825,0.344-1.507,1.034-2.045
		s1.573-0.807,2.649-0.807c1.167,0,2.103,0.288,2.808,0.866c0.707,0.576,1.059,1.329,1.059,2.257h-1.161
		c0-0.613-0.255-1.122-0.769-1.528c-0.512-0.406-1.158-0.609-1.938-0.609c-0.76,0-1.372,0.169-1.833,0.507s-0.691,0.779-0.691,1.32
		c0,0.523,0.191,0.926,0.574,1.213s1.082,0.549,2.099,0.788c1.014,0.239,1.774,0.493,2.281,0.763
		c0.505,0.271,0.881,0.596,1.125,0.977c0.244,0.381,0.367,0.841,0.367,1.383c0,0.883-0.356,1.588-1.068,2.118
		c-0.713,0.528-1.642,0.793-2.79,0.793c-1.218,0-2.207-0.295-2.963-0.884s-1.135-1.336-1.135-2.238h1.16
		c0.045,0.676,0.33,1.204,0.856,1.582c0.525,0.377,1.219,0.565,2.083,0.565c0.805,0,1.456-0.177,1.953-0.531
		S550.976,240.65,550.976,240.109z"/>
	<path class="st1" d="M554.099,237.382c0-1.005,0.195-1.911,0.584-2.716c0.389-0.805,0.94-1.432,1.654-1.88
		c0.711-0.448,1.519-0.672,2.421-0.672c1.393,0,2.52,0.488,3.384,1.465c0.863,0.977,1.296,2.27,1.296,3.881v0.242
		c0,1.012-0.196,1.923-0.584,2.731c-0.39,0.809-0.939,1.432-1.649,1.87c-0.709,0.438-1.518,0.658-2.427,0.658
		c-1.386,0-2.512-0.487-3.379-1.464s-1.3-2.27-1.3-3.882V237.382L554.099,237.382z M555.259,237.701c0,1.251,0.324,2.277,0.971,3.08
		c0.649,0.802,1.497,1.203,2.548,1.203c1.044,0,1.891-0.4,2.538-1.203c0.649-0.802,0.972-1.861,0.972-3.177v-0.222
		c0-0.8-0.148-1.53-0.444-2.194c-0.296-0.664-0.712-1.178-1.247-1.542s-1.147-0.547-1.837-0.547c-1.032,0-1.872,0.405-2.523,1.213
		c-0.651,0.809-0.977,1.867-0.977,3.176v0.213H555.259z"/>
	<path class="st1" d="M566.928,232.308l0.038,1.789c0.393-0.645,0.883-1.136,1.47-1.474s1.234-0.507,1.944-0.507
		c1.122,0,1.956,0.316,2.504,0.947c0.548,0.631,0.825,1.58,0.832,2.842v6.864h-1.151v-6.875c-0.007-0.935-0.206-1.63-0.594-2.088
		c-0.39-0.458-1.014-0.686-1.871-0.686c-0.715,0-1.35,0.224-1.9,0.672c-0.552,0.448-0.959,1.053-1.223,1.813v7.163h-1.151v-10.46
		L566.928,232.308L566.928,232.308z"/>
	<path class="st1" d="M171.229,269.168v-9.514h-1.73v-0.947h1.73v-1.266c0-1.07,0.272-1.892,0.816-2.465
		c0.545-0.573,1.305-0.86,2.277-0.86c0.438,0,0.848,0.055,1.228,0.163l-0.087,0.958c-0.322-0.077-0.673-0.115-1.054-0.115
		c-0.638,0-1.134,0.199-1.489,0.596c-0.355,0.397-0.531,0.961-0.531,1.692v1.299h2.495v0.947h-2.495v9.513L171.229,269.168
		L171.229,269.168z"/>
	<path class="st1" d="M181.786,259.693c-0.245-0.045-0.506-0.068-0.783-0.068c-0.722,0-1.333,0.202-1.833,0.605
		s-0.855,0.987-1.068,1.755v7.183h-1.151v-10.461h1.131l0.02,1.663c0.613-1.238,1.595-1.857,2.949-1.857
		c0.322,0,0.576,0.042,0.763,0.125L181.786,259.693z"/>
	<path class="st1" d="M189.83,269.168c-0.115-0.329-0.19-0.815-0.222-1.46c-0.406,0.528-0.924,0.937-1.552,1.223
		c-0.628,0.286-1.294,0.43-1.995,0.43c-1.005,0-1.819-0.28-2.442-0.841s-0.933-1.269-0.933-2.127c0-1.019,0.423-1.824,1.271-2.417
		c0.847-0.593,2.029-0.89,3.544-0.89h2.098v-1.189c0-0.748-0.231-1.335-0.692-1.764s-1.132-0.643-2.015-0.643
		c-0.805,0-1.473,0.207-2.001,0.618s-0.793,0.909-0.793,1.489l-1.16-0.01c0-0.832,0.387-1.551,1.16-2.161
		c0.773-0.608,1.724-0.913,2.852-0.913c1.167,0,2.086,0.293,2.76,0.874c0.673,0.584,1.021,1.398,1.04,2.442v4.95
		c0,1.012,0.107,1.769,0.319,2.272v0.116h-1.238L189.83,269.168L189.83,269.168z M186.195,268.336c0.773,0,1.464-0.187,2.074-0.561
		c0.609-0.374,1.053-0.873,1.33-1.498v-2.301h-2.069c-1.154,0.013-2.056,0.224-2.707,0.633c-0.651,0.41-0.977,0.972-0.977,1.687
		c0,0.586,0.217,1.074,0.652,1.46C184.933,268.141,185.498,268.336,186.195,268.336z"/>
	<path class="st1" d="M194.887,258.707l0.038,1.702c0.387-0.631,0.87-1.105,1.45-1.421c0.58-0.316,1.224-0.474,1.934-0.474
		c1.65,0,2.697,0.677,3.142,2.031c0.374-0.651,0.873-1.152,1.498-1.504c0.625-0.35,1.315-0.527,2.069-0.527
		c2.243,0,3.387,1.224,3.432,3.674v6.981h-1.16v-6.894c-0.007-0.935-0.208-1.627-0.605-2.079s-1.042-0.677-1.938-0.677
		c-0.832,0.013-1.535,0.283-2.108,0.807c-0.573,0.525-0.893,1.165-0.957,1.918v6.922h-1.16v-6.981
		c-0.007-0.895-0.218-1.564-0.634-2.006c-0.416-0.44-1.055-0.662-1.918-0.662c-0.728,0-1.353,0.208-1.876,0.623
		c-0.523,0.417-0.909,1.033-1.16,1.852v7.173h-1.16v-10.461h1.114L194.887,258.707L194.887,258.707z"/>
	<path class="st1" d="M215.431,269.361c-0.89,0-1.694-0.219-2.412-0.658s-1.277-1.048-1.676-1.833c-0.399-0.782-0.6-1.661-0.6-2.634
		v-0.416c0-1.005,0.195-1.911,0.584-2.717s0.934-1.439,1.629-1.9s1.45-0.692,2.263-0.692c1.269,0,2.276,0.435,3.021,1.3
		c0.745,0.868,1.118,2.052,1.118,3.553v0.648h-7.464v0.222c0,1.186,0.34,2.175,1.02,2.962c0.68,0.791,1.536,1.185,2.567,1.185
		c0.618,0,1.165-0.113,1.638-0.339s0.904-0.586,1.291-1.082l0.725,0.551C218.283,268.745,217.049,269.361,215.431,269.361z
		 M215.218,259.5c-0.87,0-1.604,0.319-2.2,0.957s-0.958,1.495-1.087,2.572h6.274v-0.125c-0.032-1.005-0.319-1.824-0.86-2.455
		C216.804,259.817,216.095,259.5,215.218,259.5z"/>
	<path class="st1" d="M224.113,266.76l0.174,0.899l0.232-0.947l2.514-8.005h0.986l2.485,7.938l0.271,1.102l0.222-1.015l2.146-8.025
		h1.199l-3.046,10.461h-0.986l-2.687-8.295l-0.125-0.571l-0.125,0.58l-2.639,8.285h-0.986l-3.036-10.461h1.189L224.113,266.76z"/>
	<path class="st1" d="M235.898,263.782c0-1.005,0.195-1.911,0.584-2.717s0.94-1.432,1.653-1.88s1.52-0.672,2.422-0.672
		c1.393,0,2.52,0.487,3.384,1.465c0.863,0.976,1.296,2.269,1.296,3.881v0.242c0,1.012-0.196,1.923-0.585,2.73
		c-0.389,0.81-0.939,1.433-1.648,1.871c-0.708,0.438-1.518,0.658-2.427,0.658c-1.386,0-2.512-0.487-3.379-1.465
		c-0.867-0.976-1.3-2.269-1.3-3.881V263.782z M237.059,264.101c0,1.251,0.323,2.277,0.971,3.079
		c0.648,0.803,1.497,1.204,2.548,1.204c1.044,0,1.89-0.4,2.538-1.204c0.648-0.802,0.972-1.86,0.972-3.176v-0.222
		c0-0.8-0.148-1.531-0.444-2.194s-0.712-1.177-1.247-1.542c-0.535-0.363-1.147-0.546-1.837-0.546c-1.032,0-1.872,0.405-2.523,1.214
		c-0.651,0.81-0.977,1.867-0.977,3.176L237.059,264.101L237.059,264.101z"/>
	<path class="st1" d="M252.459,259.693c-0.245-0.045-0.506-0.068-0.783-0.068c-0.722,0-1.333,0.202-1.833,0.605
		c-0.499,0.403-0.855,0.987-1.068,1.755v7.183h-1.151v-10.461h1.131l0.02,1.663c0.613-1.238,1.595-1.857,2.949-1.857
		c0.322,0,0.576,0.042,0.763,0.125L252.459,259.693z"/>
	<path class="st1" d="M256.771,263.899l-1.324,1.276v3.993h-1.16v-14.85h1.16v9.504l1.092-1.179l4.003-3.935h1.46l-4.437,4.409
		l4.825,6.052h-1.383L256.771,263.899z"/>
	<path class="st1" d="M263.741,271.798l-0.686-0.503c0.586-0.786,0.89-1.602,0.909-2.446v-1.498h1.131v1.209
		C265.096,269.899,264.645,270.978,263.741,271.798z"/>
	<path class="st1" d="M279.191,269.168c-0.116-0.329-0.19-0.815-0.222-1.46c-0.406,0.528-0.924,0.937-1.552,1.223
		c-0.628,0.286-1.294,0.43-1.995,0.43c-1.005,0-1.819-0.28-2.442-0.841s-0.933-1.269-0.933-2.127c0-1.019,0.424-1.824,1.271-2.417
		s2.029-0.89,3.544-0.89h2.098v-1.189c0-0.748-0.231-1.335-0.692-1.764s-1.132-0.643-2.015-0.643c-0.805,0-1.473,0.207-2.001,0.618
		s-0.793,0.909-0.793,1.489l-1.16-0.01c0-0.832,0.387-1.551,1.16-2.161c0.773-0.608,1.724-0.913,2.852-0.913
		c1.167,0,2.086,0.293,2.76,0.874c0.673,0.584,1.021,1.398,1.04,2.442v4.95c0,1.012,0.107,1.769,0.319,2.272v0.116h-1.237v0.001
		H279.191z M275.557,268.336c0.773,0,1.464-0.187,2.074-0.561s1.053-0.873,1.33-1.498v-2.301h-2.069
		c-1.154,0.013-2.056,0.224-2.707,0.633c-0.651,0.41-0.977,0.972-0.977,1.687c0,0.586,0.217,1.074,0.652,1.46
		C274.295,268.141,274.86,268.336,275.557,268.336z"/>
	<path class="st1" d="M284.296,258.707l0.039,1.789c0.393-0.645,0.883-1.135,1.47-1.475c0.586-0.338,1.234-0.507,1.944-0.507
		c1.122,0,1.956,0.316,2.504,0.947s0.825,1.58,0.832,2.842v6.864h-1.151v-6.873c-0.007-0.935-0.206-1.63-0.595-2.088
		s-1.013-0.686-1.87-0.686c-0.715,0-1.35,0.224-1.901,0.672s-0.958,1.052-1.222,1.812v7.164h-1.151v-10.461L284.296,258.707
		L284.296,258.707z"/>
	<path class="st1" d="M293.606,263.84c0-1.625,0.362-2.917,1.087-3.881c0.725-0.964,1.71-1.445,2.955-1.445
		c1.411,0,2.488,0.558,3.23,1.673v-5.868h1.151v14.85h-1.082l-0.048-1.393c-0.741,1.057-1.83,1.585-3.268,1.585
		c-1.206,0-2.177-0.484-2.915-1.454s-1.107-2.28-1.107-3.93v-0.136L293.606,263.84L293.606,263.84z M294.776,264.044
		c0,1.334,0.267,2.387,0.802,3.156c0.535,0.771,1.289,1.156,2.263,1.156c1.424,0,2.436-0.628,3.036-1.885v-4.911
		c-0.6-1.36-1.605-2.039-3.016-2.039c-0.974,0-1.73,0.383-2.272,1.145C295.046,261.429,294.776,262.554,294.776,264.044z"/>
	<path class="st1" d="M310.941,258.707l0.039,1.702c0.387-0.631,0.87-1.105,1.45-1.421s1.224-0.474,1.934-0.474
		c1.65,0,2.697,0.677,3.142,2.031c0.374-0.651,0.873-1.152,1.498-1.504c0.625-0.35,1.315-0.527,2.069-0.527
		c2.243,0,3.387,1.224,3.432,3.674v6.981h-1.16v-6.894c-0.007-0.935-0.208-1.627-0.605-2.079s-1.042-0.677-1.938-0.677
		c-0.832,0.013-1.534,0.283-2.108,0.807s-0.893,1.165-0.957,1.918v6.922h-1.16v-6.981c-0.007-0.895-0.218-1.564-0.634-2.006
		c-0.416-0.44-1.055-0.662-1.918-0.662c-0.728,0-1.353,0.208-1.875,0.623c-0.522,0.417-0.909,1.033-1.16,1.852v7.173h-1.16v-10.461
		h1.114v0.003H310.941z"/>
	<path class="st1" d="M326.797,263.782c0-1.005,0.195-1.911,0.584-2.717s0.941-1.432,1.653-1.88s1.52-0.672,2.422-0.672
		c1.393,0,2.52,0.487,3.384,1.465c0.863,0.976,1.296,2.269,1.296,3.881v0.242c0,1.012-0.196,1.923-0.585,2.73
		c-0.389,0.81-0.939,1.433-1.648,1.871c-0.708,0.438-1.518,0.658-2.427,0.658c-1.386,0-2.512-0.487-3.379-1.465
		c-0.867-0.976-1.3-2.269-1.3-3.881L326.797,263.782L326.797,263.782z M327.956,264.101c0,1.251,0.323,2.277,0.971,3.079
		c0.648,0.803,1.497,1.204,2.548,1.204c1.044,0,1.89-0.4,2.538-1.204c0.648-0.802,0.972-1.86,0.972-3.176v-0.222
		c0-0.8-0.149-1.531-0.444-2.194s-0.712-1.177-1.247-1.542c-0.535-0.363-1.147-0.546-1.837-0.546c-1.032,0-1.872,0.405-2.523,1.214
		c-0.651,0.81-0.977,1.867-0.977,3.176L327.956,264.101L327.956,264.101z"/>
	<path class="st1" d="M343.357,259.693c-0.245-0.045-0.506-0.068-0.783-0.068c-0.722,0-1.333,0.202-1.833,0.605
		c-0.499,0.403-0.855,0.987-1.068,1.755v7.183h-1.151v-10.461h1.131l0.02,1.663c0.613-1.238,1.595-1.857,2.949-1.857
		c0.322,0,0.576,0.042,0.763,0.125L343.357,259.693z"/>
	<path class="st1" d="M349.052,269.361c-0.89,0-1.694-0.219-2.412-0.658s-1.277-1.048-1.676-1.833c-0.399-0.782-0.6-1.661-0.6-2.634
		v-0.416c0-1.005,0.195-1.911,0.584-2.717s0.934-1.439,1.629-1.9s1.45-0.692,2.263-0.692c1.269,0,2.276,0.435,3.021,1.3
		c0.745,0.868,1.118,2.052,1.118,3.553v0.648h-7.464v0.222c0,1.186,0.34,2.175,1.02,2.962c0.68,0.791,1.536,1.185,2.567,1.185
		c0.618,0,1.165-0.113,1.638-0.339s0.904-0.586,1.291-1.082l0.725,0.551C351.904,268.745,350.67,269.361,349.052,269.361z
		 M348.84,259.5c-0.87,0-1.604,0.319-2.2,0.957s-0.958,1.495-1.087,2.572h6.274v-0.125c-0.032-1.005-0.319-1.824-0.86-2.455
		S349.716,259.5,348.84,259.5z"/>
	<path class="st1" d="M354.988,271.798l-0.686-0.503c0.586-0.786,0.89-1.602,0.909-2.446v-1.498h1.131v1.209
		C356.342,269.899,355.891,270.978,354.988,271.798z"/>
	<path class="st1" d="M365.632,256.029v2.678h2.166v0.947h-2.166v6.978c0,0.581,0.104,1.013,0.313,1.298
		c0.209,0.284,0.56,0.426,1.049,0.426c0.194,0,0.506-0.032,0.938-0.097l0.048,0.939c-0.302,0.109-0.715,0.163-1.238,0.163
		c-0.793,0-1.369-0.23-1.73-0.692c-0.361-0.46-0.541-1.139-0.541-2.035v-6.982h-1.924v-0.947h1.924v-2.678h1.159v0.002H365.632z"/>
	<path class="st1" d="M369.365,263.782c0-1.005,0.195-1.911,0.584-2.717s0.94-1.432,1.653-1.88s1.52-0.672,2.422-0.672
		c1.393,0,2.52,0.487,3.384,1.465c0.863,0.976,1.296,2.269,1.296,3.881v0.242c0,1.012-0.196,1.923-0.585,2.73
		c-0.389,0.81-0.939,1.433-1.648,1.871c-0.708,0.438-1.518,0.658-2.427,0.658c-1.386,0-2.512-0.487-3.379-1.465
		c-0.867-0.976-1.3-2.269-1.3-3.881L369.365,263.782L369.365,263.782z M370.524,264.101c0,1.251,0.323,2.277,0.971,3.079
		c0.648,0.803,1.497,1.204,2.548,1.204c1.044,0,1.89-0.4,2.538-1.204c0.648-0.802,0.972-1.86,0.972-3.176v-0.222
		c0-0.8-0.148-1.531-0.444-2.194s-0.712-1.177-1.247-1.542c-0.535-0.363-1.147-0.546-1.837-0.546c-1.032,0-1.872,0.405-2.523,1.214
		c-0.651,0.81-0.977,1.867-0.977,3.176L370.524,264.101L370.524,264.101z"/>
	<path class="st1" d="M387.057,260.477c0.381-0.625,0.867-1.109,1.46-1.45s1.241-0.513,1.944-0.513c1.122,0,1.956,0.316,2.504,0.947
		c0.548,0.631,0.825,1.58,0.832,2.842v6.864h-1.151v-6.874c-0.007-0.935-0.206-1.63-0.595-2.088s-1.013-0.686-1.87-0.686
		c-0.715,0-1.35,0.224-1.901,0.672s-0.958,1.052-1.222,1.812v7.164h-1.151v-14.85h1.151L387.057,260.477L387.057,260.477z"/>
	<path class="st1" d="M400.823,269.361c-0.89,0-1.694-0.219-2.412-0.658s-1.277-1.048-1.676-1.833c-0.399-0.782-0.6-1.661-0.6-2.634
		v-0.416c0-1.005,0.195-1.911,0.584-2.717s0.934-1.439,1.629-1.9s1.45-0.692,2.263-0.692c1.269,0,2.276,0.435,3.021,1.3
		c0.745,0.868,1.118,2.052,1.118,3.553v0.648h-7.464v0.222c0,1.186,0.34,2.175,1.02,2.962c0.68,0.791,1.536,1.185,2.567,1.185
		c0.618,0,1.165-0.113,1.638-0.339s0.904-0.586,1.291-1.082l0.725,0.551C403.676,268.745,402.442,269.361,400.823,269.361z
		 M400.611,259.5c-0.87,0-1.604,0.319-2.2,0.957s-0.958,1.495-1.087,2.572h6.274v-0.125c-0.032-1.005-0.319-1.824-0.86-2.455
		S401.488,259.5,400.611,259.5z"/>
	<path class="st1" d="M408.297,269.168h-1.16v-14.85h1.16V269.168z"/>
	<path class="st1" d="M419.85,264.044c0,1.63-0.361,2.924-1.082,3.882c-0.722,0.956-1.689,1.435-2.901,1.435
		c-1.431,0-2.527-0.503-3.287-1.508v5.337h-1.151v-14.483h1.074l0.058,1.479c0.755-1.115,1.847-1.673,3.277-1.673
		c1.251,0,2.231,0.474,2.944,1.421s1.069,2.263,1.069,3.945v0.164h-0.001V264.044z M418.691,263.84c0-1.334-0.274-2.388-0.822-3.161
		s-1.311-1.16-2.291-1.16c-0.71,0-1.318,0.17-1.827,0.513c-0.509,0.342-0.899,0.838-1.169,1.489v5.018
		c0.277,0.599,0.673,1.057,1.189,1.373s1.124,0.474,1.827,0.474c0.974,0,1.731-0.388,2.276-1.166
		C418.418,266.443,418.691,265.317,418.691,263.84z"/>
	<path class="st1" d="M430.543,267.504l3.055-8.798h1.247l-4.467,12.24l-0.232,0.541c-0.573,1.269-1.46,1.904-2.659,1.904
		c-0.277,0-0.573-0.045-0.89-0.135l-0.01-0.957l0.6,0.058c0.568,0,1.026-0.14,1.377-0.421c0.351-0.279,0.65-0.761,0.894-1.444
		l0.513-1.411l-3.945-10.374h1.266L430.543,267.504z"/>
	<path class="st1" d="M435.851,263.782c0-1.005,0.195-1.911,0.584-2.717s0.941-1.432,1.653-1.88s1.52-0.672,2.422-0.672
		c1.393,0,2.52,0.487,3.384,1.465c0.863,0.976,1.296,2.269,1.296,3.881v0.242c0,1.012-0.196,1.923-0.585,2.73
		c-0.389,0.81-0.939,1.433-1.648,1.871c-0.708,0.438-1.518,0.658-2.427,0.658c-1.386,0-2.512-0.487-3.379-1.465
		c-0.867-0.976-1.3-2.269-1.3-3.881L435.851,263.782L435.851,263.782z M437.011,264.101c0,1.251,0.323,2.277,0.971,3.079
		c0.648,0.803,1.497,1.204,2.548,1.204c1.044,0,1.89-0.4,2.538-1.204c0.648-0.802,0.972-1.86,0.972-3.176v-0.222
		c0-0.8-0.148-1.531-0.444-2.194s-0.712-1.177-1.247-1.542c-0.535-0.363-1.147-0.546-1.837-0.546c-1.032,0-1.872,0.405-2.523,1.214
		c-0.651,0.81-0.977,1.867-0.977,3.176L437.011,264.101L437.011,264.101z"/>
	<path class="st1" d="M454.308,267.843c-0.696,1.012-1.808,1.518-3.335,1.518c-1.115,0-1.962-0.324-2.543-0.971
		c-0.58-0.649-0.877-1.607-0.89-2.876v-6.807h1.151v6.662c0,1.992,0.805,2.988,2.417,2.988c1.675,0,2.736-0.693,3.181-2.079v-7.57
		h1.16v10.461h-1.122L454.308,267.843z"/>
	<path class="st1" d="M463.289,259.693c-0.245-0.045-0.506-0.068-0.783-0.068c-0.722,0-1.333,0.202-1.833,0.605
		c-0.499,0.403-0.855,0.987-1.068,1.755v7.183h-1.151v-10.461h1.131l0.02,1.663c0.613-1.238,1.595-1.857,2.949-1.857
		c0.322,0,0.576,0.042,0.763,0.125L463.289,259.693z"/>
	<path class="st1" d="M476.195,266.509c0-0.573-0.231-1.034-0.692-1.383s-1.155-0.619-2.083-0.816s-1.649-0.422-2.161-0.676
		c-0.513-0.254-0.893-0.567-1.141-0.934c-0.247-0.367-0.372-0.812-0.372-1.334c0-0.825,0.344-1.506,1.034-2.044
		s1.573-0.807,2.649-0.807c1.167,0,2.102,0.289,2.808,0.866c0.706,0.576,1.059,1.329,1.059,2.257h-1.16
		c0-0.613-0.256-1.122-0.769-1.528s-1.158-0.609-1.938-0.609c-0.76,0-1.372,0.169-1.833,0.507c-0.461,0.34-0.691,0.779-0.691,1.32
		c0,0.522,0.191,0.927,0.574,1.213c0.384,0.288,1.082,0.55,2.098,0.789c1.015,0.239,1.775,0.493,2.281,0.763
		s0.882,0.596,1.126,0.977c0.244,0.381,0.367,0.841,0.367,1.383c0,0.883-0.356,1.588-1.069,2.118
		c-0.713,0.529-1.641,0.793-2.789,0.793c-1.218,0-2.207-0.295-2.963-0.885c-0.757-0.589-1.135-1.335-1.135-2.237h1.16
		c0.045,0.677,0.33,1.204,0.855,1.581c0.526,0.378,1.22,0.566,2.084,0.566c0.805,0,1.456-0.177,1.953-0.531
		C475.945,267.501,476.195,267.05,476.195,266.509z"/>
	<path class="st1" d="M481.755,256.029v2.678h2.166v0.947h-2.166v6.978c0,0.581,0.105,1.013,0.314,1.298
		c0.209,0.284,0.56,0.426,1.049,0.426c0.194,0,0.506-0.032,0.938-0.097l0.048,0.939c-0.303,0.109-0.715,0.163-1.238,0.163
		c-0.793,0-1.369-0.23-1.73-0.692c-0.361-0.46-0.541-1.139-0.541-2.035v-6.982h-1.924v-0.947h1.924v-2.678h1.159v0.002H481.755z"/>
	<path class="st1" d="M493.045,267.843c-0.696,1.012-1.808,1.518-3.335,1.518c-1.115,0-1.962-0.324-2.543-0.971
		c-0.58-0.649-0.877-1.607-0.89-2.876v-6.807h1.151v6.662c0,1.992,0.805,2.988,2.417,2.988c1.675,0,2.736-0.693,3.181-2.079v-7.57
		h1.16v10.461h-1.122L493.045,267.843z"/>
	<path class="st1" d="M496.729,263.84c0-1.625,0.363-2.917,1.087-3.881c0.726-0.964,1.71-1.445,2.955-1.445
		c1.411,0,2.488,0.558,3.23,1.673v-5.868h1.151v14.85h-1.082l-0.048-1.393c-0.741,1.057-1.83,1.585-3.268,1.585
		c-1.206,0-2.177-0.484-2.915-1.454s-1.107-2.28-1.107-3.93v-0.136L496.729,263.84L496.729,263.84z M497.898,264.044
		c0,1.334,0.267,2.387,0.802,3.156c0.535,0.771,1.289,1.156,2.263,1.156c1.424,0,2.436-0.628,3.036-1.885v-4.911
		c-0.6-1.36-1.605-2.039-3.016-2.039c-0.974,0-1.73,0.383-2.272,1.145C498.17,261.429,497.898,262.554,497.898,264.044z"/>
	<path class="st1" d="M512.246,269.361c-0.89,0-1.694-0.219-2.411-0.658c-0.719-0.438-1.278-1.048-1.677-1.833
		c-0.399-0.782-0.6-1.661-0.6-2.634v-0.416c0-1.005,0.195-1.911,0.584-2.717s0.934-1.439,1.629-1.9s1.45-0.692,2.263-0.692
		c1.269,0,2.276,0.435,3.022,1.3c0.744,0.868,1.117,2.052,1.117,3.553v0.648h-7.464v0.222c0,1.186,0.34,2.175,1.02,2.962
		c0.68,0.791,1.536,1.185,2.567,1.185c0.618,0,1.165-0.113,1.639-0.339c0.473-0.225,0.903-0.586,1.29-1.082l0.725,0.551
		C515.098,268.745,513.864,269.361,512.246,269.361z M512.033,259.5c-0.87,0-1.604,0.319-2.199,0.957
		c-0.597,0.638-0.959,1.495-1.088,2.572h6.274v-0.125c-0.032-1.005-0.319-1.824-0.86-2.455S512.91,259.5,512.033,259.5z"/>
	<path class="st1" d="M519.527,258.707l0.039,1.789c0.393-0.645,0.883-1.135,1.47-1.475c0.586-0.338,1.234-0.507,1.944-0.507
		c1.122,0,1.956,0.316,2.504,0.947s0.825,1.58,0.832,2.842v6.864h-1.151v-6.873c-0.007-0.935-0.206-1.63-0.594-2.088
		c-0.391-0.458-1.014-0.686-1.871-0.686c-0.715,0-1.35,0.224-1.9,0.672c-0.552,0.448-0.959,1.052-1.223,1.812v7.164h-1.151v-10.461
		L519.527,258.707L519.527,258.707z"/>
	<path class="st1" d="M531.099,256.029v2.678h2.166v0.947h-2.166v6.978c0,0.581,0.105,1.013,0.314,1.298
		c0.209,0.284,0.56,0.426,1.049,0.426c0.194,0,0.506-0.032,0.938-0.097l0.048,0.939c-0.302,0.109-0.715,0.163-1.238,0.163
		c-0.793,0-1.369-0.23-1.73-0.692c-0.361-0.46-0.541-1.139-0.541-2.035v-6.982h-1.924v-0.947h1.924v-2.678h1.159L531.099,256.029
		L531.099,256.029z"/>
	<path class="st1" d="M541.927,266.509c0-0.573-0.231-1.034-0.692-1.383s-1.155-0.619-2.083-0.816
		c-0.928-0.197-1.649-0.422-2.16-0.676c-0.514-0.254-0.893-0.567-1.141-0.934c-0.25-0.367-0.373-0.812-0.373-1.334
		c0-0.825,0.344-1.506,1.034-2.044s1.573-0.807,2.649-0.807c1.167,0,2.103,0.289,2.808,0.866c0.707,0.576,1.059,1.329,1.059,2.257
		h-1.16c0-0.613-0.255-1.122-0.769-1.528c-0.512-0.406-1.158-0.609-1.938-0.609c-0.76,0-1.372,0.169-1.833,0.507
		c-0.461,0.34-0.691,0.779-0.691,1.32c0,0.522,0.191,0.927,0.574,1.213c0.384,0.288,1.082,0.55,2.099,0.789
		c1.014,0.239,1.774,0.493,2.281,0.763c0.505,0.271,0.881,0.596,1.125,0.977c0.244,0.381,0.367,0.841,0.367,1.383
		c0,0.883-0.356,1.588-1.068,2.118c-0.713,0.528-1.642,0.793-2.79,0.793c-1.218,0-2.207-0.295-2.963-0.885
		c-0.757-0.589-1.135-1.335-1.135-2.237h1.161c0.045,0.677,0.33,1.204,0.856,1.581c0.525,0.378,1.219,0.566,2.083,0.566
		c0.805,0,1.456-0.177,1.953-0.531C541.676,267.501,541.927,267.05,541.927,266.509z"/>
	<path class="st1" d="M176.662,292.909c0-0.573-0.231-1.034-0.692-1.383s-1.155-0.619-2.083-0.816
		c-0.928-0.197-1.649-0.422-2.161-0.676c-0.513-0.254-0.893-0.566-1.141-0.934s-0.372-0.812-0.372-1.334
		c0-0.825,0.344-1.506,1.034-2.044s1.573-0.807,2.649-0.807c1.167,0,2.102,0.289,2.808,0.866c0.706,0.576,1.059,1.329,1.059,2.257
		h-1.16c0-0.613-0.256-1.122-0.769-1.528s-1.158-0.609-1.938-0.609c-0.76,0-1.372,0.169-1.833,0.507
		c-0.461,0.34-0.691,0.779-0.691,1.32c0,0.522,0.191,0.927,0.574,1.213c0.384,0.288,1.082,0.55,2.098,0.789s1.775,0.493,2.281,0.763
		c0.506,0.271,0.882,0.596,1.126,0.977s0.367,0.841,0.367,1.383c0,0.883-0.356,1.588-1.069,2.118
		c-0.713,0.529-1.641,0.793-2.788,0.793c-1.218,0-2.207-0.295-2.963-0.885c-0.757-0.589-1.135-1.335-1.135-2.237h1.16
		c0.045,0.677,0.33,1.204,0.855,1.581c0.526,0.378,1.22,0.566,2.085,0.566c0.805,0,1.456-0.177,1.952-0.531
		C176.411,293.901,176.662,293.45,176.662,292.909z"/>
	<path class="st1" d="M182.222,282.429v2.678h2.166v0.947h-2.166v6.978c0,0.581,0.104,1.013,0.313,1.298
		c0.209,0.284,0.56,0.426,1.049,0.426c0.194,0,0.506-0.032,0.938-0.097l0.048,0.939c-0.302,0.109-0.715,0.163-1.238,0.163
		c-0.793,0-1.369-0.23-1.73-0.692c-0.361-0.46-0.541-1.138-0.541-2.035v-6.982h-1.924v-0.947h1.924v-2.678h1.159v0.002H182.222z"/>
	<path class="st1" d="M191.619,286.093c-0.245-0.045-0.506-0.068-0.783-0.068c-0.722,0-1.333,0.202-1.833,0.605
		c-0.499,0.403-0.855,0.987-1.068,1.755v7.183h-1.151v-10.461h1.131l0.02,1.663c0.613-1.237,1.595-1.857,2.949-1.857
		c0.322,0,0.576,0.042,0.763,0.125L191.619,286.093z"/>
	<path class="st1" d="M197.314,295.761c-0.89,0-1.694-0.219-2.412-0.658s-1.277-1.048-1.676-1.833
		c-0.399-0.782-0.599-1.661-0.599-2.634v-0.416c0-1.005,0.195-1.911,0.584-2.717s0.934-1.439,1.629-1.9
		c0.695-0.461,1.45-0.692,2.263-0.692c1.269,0,2.276,0.435,3.021,1.3c0.745,0.868,1.118,2.051,1.118,3.553v0.648h-7.464v0.222
		c0,1.186,0.34,2.175,1.02,2.962c0.68,0.791,1.536,1.185,2.567,1.185c0.618,0,1.165-0.113,1.638-0.339
		c0.473-0.225,0.904-0.586,1.291-1.082l0.725,0.551C200.165,295.145,198.931,295.761,197.314,295.761z M197.1,285.9
		c-0.87,0-1.604,0.319-2.2,0.957s-0.958,1.495-1.087,2.572h6.274v-0.125c-0.032-1.005-0.319-1.824-0.86-2.455
		C198.686,286.217,197.977,285.9,197.1,285.9z"/>
	<path class="st1" d="M204.593,285.107l0.038,1.789c0.393-0.645,0.883-1.135,1.47-1.475c0.586-0.338,1.234-0.507,1.944-0.507
		c1.122,0,1.956,0.316,2.504,0.947s0.825,1.58,0.832,2.842v6.864h-1.151v-6.873c-0.007-0.935-0.206-1.63-0.595-2.088
		s-1.013-0.686-1.87-0.686c-0.715,0-1.35,0.224-1.901,0.672s-0.958,1.052-1.222,1.812v7.164h-1.151v-10.461L204.593,285.107
		L204.593,285.107z"/>
	<path class="st1" d="M213.904,290.24c0-1.637,0.362-2.934,1.087-3.892c0.725-0.956,1.71-1.435,2.955-1.435
		c1.424,0,2.507,0.568,3.248,1.702l0.058-1.508h1.082v10.248c0,1.348-0.377,2.413-1.131,3.2s-1.775,1.179-3.065,1.179
		c-0.728,0-1.423-0.163-2.085-0.488c-0.661-0.326-1.18-0.758-1.561-1.3l0.648-0.696c0.818,1.005,1.792,1.508,2.919,1.508
		c0.967,0,1.72-0.286,2.263-0.855c0.541-0.572,0.822-1.362,0.842-2.374v-1.315c-0.741,1.032-1.82,1.547-3.238,1.547
		c-1.212,0-2.185-0.483-2.919-1.45c-0.735-0.967-1.102-2.271-1.102-3.916L213.904,290.24L213.904,290.24L213.904,290.24z
		 M215.073,290.444c0,1.334,0.267,2.387,0.802,3.156c0.535,0.771,1.289,1.156,2.263,1.156c1.424,0,2.433-0.638,3.026-1.914v-4.863
		c-0.271-0.67-0.661-1.18-1.169-1.533c-0.509-0.35-1.122-0.527-1.837-0.527c-0.973,0-1.73,0.383-2.271,1.145
		C215.344,287.829,215.073,288.954,215.073,290.444z"/>
	<path class="st1" d="M227.149,282.429v2.678h2.166v0.947h-2.166v6.978c0,0.581,0.105,1.013,0.314,1.298
		c0.209,0.284,0.56,0.426,1.049,0.426c0.194,0,0.506-0.032,0.938-0.097l0.048,0.939c-0.302,0.109-0.715,0.163-1.238,0.163
		c-0.793,0-1.369-0.23-1.73-0.692c-0.361-0.46-0.541-1.138-0.541-2.035v-6.982h-1.924v-0.947h1.924v-2.678h1.159v0.002H227.149z"/>
	<path class="st1" d="M232.862,286.877c0.381-0.625,0.867-1.109,1.46-1.45s1.241-0.513,1.944-0.513c1.122,0,1.956,0.316,2.504,0.947
		c0.548,0.631,0.825,1.58,0.832,2.842v6.864h-1.151v-6.874c-0.007-0.935-0.206-1.63-0.595-2.088s-1.013-0.686-1.87-0.686
		c-0.715,0-1.35,0.224-1.901,0.672s-0.958,1.052-1.222,1.812v7.164h-1.151v-14.85h1.151v6.16H232.862z"/>
	<path class="st1" d="M246.63,295.761c-0.89,0-1.694-0.219-2.412-0.658s-1.277-1.048-1.676-1.833c-0.399-0.782-0.6-1.661-0.6-2.634
		v-0.416c0-1.005,0.195-1.911,0.584-2.717s0.934-1.439,1.629-1.9s1.45-0.692,2.263-0.692c1.269,0,2.276,0.435,3.021,1.3
		c0.745,0.868,1.118,2.051,1.118,3.553v0.648h-7.464v0.222c0,1.186,0.34,2.175,1.02,2.962c0.68,0.791,1.536,1.185,2.567,1.185
		c0.618,0,1.165-0.113,1.638-0.339c0.473-0.225,0.904-0.586,1.291-1.082l0.725,0.551
		C249.481,295.145,248.247,295.761,246.63,295.761z M246.416,285.9c-0.87,0-1.604,0.319-2.2,0.957s-0.958,1.495-1.087,2.572h6.274
		v-0.125c-0.032-1.005-0.319-1.824-0.86-2.455C248.003,286.217,247.293,285.9,246.416,285.9z"/>
	<path class="st1" d="M253.91,285.107l0.039,1.789c0.393-0.645,0.883-1.135,1.47-1.475c0.586-0.338,1.234-0.507,1.944-0.507
		c1.122,0,1.956,0.316,2.504,0.947s0.825,1.58,0.832,2.842v6.864h-1.151v-6.873c-0.007-0.935-0.206-1.63-0.595-2.088
		s-1.013-0.686-1.87-0.686c-0.715,0-1.35,0.224-1.901,0.672s-0.958,1.052-1.222,1.812v7.164h-1.151v-10.461L253.91,285.107
		L253.91,285.107z"/>
	<path class="st1" d="M274.763,292.909c0-0.573-0.231-1.034-0.692-1.383s-1.155-0.619-2.083-0.816
		c-0.928-0.197-1.649-0.422-2.161-0.676c-0.513-0.254-0.893-0.566-1.141-0.934c-0.247-0.367-0.372-0.812-0.372-1.334
		c0-0.825,0.344-1.506,1.034-2.044s1.573-0.807,2.649-0.807c1.167,0,2.102,0.289,2.808,0.866c0.706,0.576,1.059,1.329,1.059,2.257
		h-1.16c0-0.613-0.256-1.122-0.769-1.528s-1.158-0.609-1.938-0.609c-0.76,0-1.372,0.169-1.833,0.507
		c-0.461,0.34-0.691,0.779-0.691,1.32c0,0.522,0.191,0.927,0.574,1.213c0.384,0.288,1.082,0.55,2.098,0.789
		c1.015,0.239,1.775,0.493,2.281,0.763c0.506,0.271,0.882,0.596,1.126,0.977c0.244,0.381,0.367,0.841,0.367,1.383
		c0,0.883-0.356,1.588-1.069,2.118c-0.713,0.529-1.641,0.793-2.789,0.793c-1.218,0-2.207-0.295-2.963-0.885
		c-0.757-0.589-1.135-1.335-1.135-2.237h1.16c0.045,0.677,0.33,1.204,0.855,1.581c0.526,0.378,1.22,0.566,2.085,0.566
		c0.805,0,1.456-0.177,1.952-0.531C274.513,293.901,274.763,293.45,274.763,292.909z"/>
	<path class="st1" d="M286.935,290.444c0,1.63-0.361,2.924-1.082,3.882c-0.722,0.956-1.689,1.435-2.901,1.435
		c-1.431,0-2.527-0.503-3.287-1.508v5.337h-1.151v-14.483h1.074l0.058,1.48c0.755-1.115,1.847-1.673,3.277-1.673
		c1.251,0,2.231,0.474,2.944,1.421s1.069,2.263,1.069,3.945v0.164H286.935z M285.776,290.24c0-1.334-0.274-2.388-0.822-3.161
		s-1.311-1.16-2.291-1.16c-0.709,0-1.318,0.171-1.827,0.513s-0.899,0.838-1.169,1.489v5.018c0.277,0.599,0.673,1.057,1.189,1.373
		c0.516,0.316,1.124,0.474,1.827,0.474c0.974,0,1.731-0.388,2.276-1.166C285.503,292.843,285.776,291.717,285.776,290.24z"/>
	<path class="st1" d="M293.548,295.761c-0.89,0-1.694-0.219-2.412-0.658s-1.277-1.048-1.676-1.833c-0.399-0.782-0.6-1.661-0.6-2.634
		v-0.416c0-1.005,0.195-1.911,0.584-2.717s0.934-1.439,1.629-1.9s1.45-0.692,2.263-0.692c1.269,0,2.276,0.435,3.021,1.3
		c0.745,0.868,1.118,2.051,1.118,3.553v0.648h-7.464v0.222c0,1.186,0.34,2.175,1.02,2.962c0.68,0.791,1.536,1.185,2.567,1.185
		c0.618,0,1.165-0.113,1.638-0.339c0.473-0.225,0.904-0.586,1.291-1.082l0.725,0.551C296.4,295.145,295.166,295.761,293.548,295.761
		z M293.336,285.9c-0.87,0-1.604,0.319-2.2,0.957s-0.958,1.495-1.087,2.572h6.274v-0.125c-0.032-1.005-0.319-1.824-0.86-2.455
		C294.922,286.217,294.211,285.9,293.336,285.9z"/>
	<path class="st1" d="M303.593,294.784c0.805,0,1.481-0.227,2.025-0.682c0.544-0.453,0.84-1.042,0.885-1.764h1.112
		c-0.032,0.638-0.232,1.22-0.6,1.745c-0.367,0.527-0.856,0.937-1.465,1.233s-1.261,0.444-1.957,0.444
		c-1.373,0-2.461-0.477-3.264-1.431s-1.203-2.236-1.203-3.848v-0.348c0-1.032,0.18-1.944,0.541-2.736s0.878-1.405,1.551-1.837
		s1.462-0.648,2.364-0.648c1.147,0,2.092,0.342,2.837,1.025c0.745,0.683,1.143,1.582,1.195,2.697h-1.112
		c-0.052-0.818-0.346-1.479-0.885-1.982s-1.216-0.755-2.035-0.755c-1.044,0-1.856,0.377-2.432,1.131
		c-0.576,0.753-0.865,1.811-0.865,3.171v0.339c0,1.334,0.288,2.375,0.865,3.123C301.727,294.41,302.543,294.784,303.593,294.784z"/>
	<path class="st1" d="M309.858,282.086c0-0.218,0.07-0.403,0.212-0.553c0.142-0.151,0.336-0.226,0.58-0.226s0.439,0.075,0.584,0.226
		c0.145,0.151,0.218,0.335,0.218,0.553c0,0.217-0.073,0.399-0.218,0.547s-0.34,0.221-0.584,0.221c-0.244,0-0.438-0.073-0.58-0.221
		C309.929,282.485,309.858,282.303,309.858,282.086z M311.221,295.568h-1.16v-10.461h1.16V295.568z"/>
	<path class="st1" d="M315.195,295.568v-9.514h-1.73v-0.947h1.73v-1.266c0-1.07,0.272-1.892,0.816-2.465s1.305-0.86,2.277-0.86
		c0.438,0,0.848,0.055,1.228,0.163l-0.087,0.958c-0.322-0.077-0.673-0.115-1.054-0.115c-0.638,0-1.134,0.199-1.489,0.596
		s-0.531,0.961-0.531,1.692v1.299h2.495v0.947h-2.495v9.513h-1.16V295.568z"/>
	<path class="st1" d="M320.85,282.086c0-0.218,0.07-0.403,0.212-0.553c0.142-0.151,0.336-0.226,0.58-0.226s0.439,0.075,0.584,0.226
		c0.145,0.151,0.218,0.335,0.218,0.553c0,0.217-0.073,0.399-0.218,0.547s-0.34,0.221-0.584,0.221c-0.244,0-0.438-0.073-0.58-0.221
		C320.922,282.485,320.85,282.303,320.85,282.086z M322.214,295.568h-1.16v-10.461h1.16V295.568z"/>
	<path class="st1" d="M329.223,294.784c0.805,0,1.481-0.227,2.025-0.682c0.544-0.453,0.84-1.042,0.885-1.764h1.112
		c-0.032,0.638-0.232,1.22-0.6,1.745c-0.367,0.527-0.856,0.937-1.465,1.233s-1.261,0.444-1.957,0.444
		c-1.373,0-2.461-0.477-3.264-1.431s-1.203-2.236-1.203-3.848v-0.348c0-1.032,0.18-1.944,0.541-2.736s0.878-1.405,1.551-1.837
		s1.462-0.648,2.364-0.648c1.147,0,2.092,0.342,2.837,1.025s1.143,1.582,1.195,2.697h-1.112c-0.052-0.818-0.346-1.479-0.885-1.982
		s-1.216-0.755-2.035-0.755c-1.044,0-1.856,0.377-2.432,1.131c-0.576,0.753-0.865,1.811-0.865,3.171v0.339
		c0,1.334,0.288,2.375,0.865,3.123S328.173,294.784,329.223,294.784z"/>
	<path class="st1" d="M346.635,292.909c0-0.573-0.231-1.034-0.692-1.383s-1.155-0.619-2.083-0.816
		c-0.928-0.197-1.649-0.422-2.161-0.676c-0.513-0.254-0.893-0.566-1.141-0.934s-0.372-0.812-0.372-1.334
		c0-0.825,0.344-1.506,1.034-2.044s1.573-0.807,2.649-0.807c1.167,0,2.102,0.289,2.808,0.866c0.706,0.576,1.059,1.329,1.059,2.257
		h-1.16c0-0.613-0.256-1.122-0.769-1.528s-1.158-0.609-1.938-0.609c-0.76,0-1.372,0.169-1.833,0.507
		c-0.461,0.34-0.691,0.779-0.691,1.32c0,0.522,0.191,0.927,0.574,1.213c0.384,0.288,1.082,0.55,2.098,0.789
		c1.015,0.239,1.775,0.493,2.281,0.763c0.506,0.271,0.882,0.596,1.126,0.977c0.244,0.381,0.367,0.841,0.367,1.383
		c0,0.883-0.356,1.588-1.069,2.118c-0.713,0.529-1.641,0.793-2.789,0.793c-1.218,0-2.207-0.295-2.963-0.885
		c-0.757-0.589-1.135-1.335-1.135-2.237h1.16c0.045,0.677,0.33,1.204,0.855,1.581c0.526,0.378,1.22,0.566,2.084,0.566
		c0.805,0,1.456-0.177,1.952-0.531C346.384,293.901,346.635,293.45,346.635,292.909z"/>
	<path class="st1" d="M352.88,290.299l-1.324,1.276v3.993h-1.16v-14.85h1.16v9.504l1.092-1.179l4.003-3.935h1.46l-4.437,4.409
		l4.825,6.052h-1.383L352.88,290.299z"/>
	<path class="st1" d="M360.026,282.086c0-0.218,0.07-0.403,0.212-0.553c0.142-0.151,0.336-0.226,0.58-0.226s0.439,0.075,0.584,0.226
		c0.145,0.151,0.218,0.335,0.218,0.553c0,0.217-0.073,0.399-0.218,0.547s-0.34,0.221-0.584,0.221c-0.244,0-0.438-0.073-0.58-0.221
		S360.026,282.303,360.026,282.086z M361.388,295.568h-1.16v-10.461h1.16V295.568z"/>
	<path class="st1" d="M365.826,295.568h-1.16v-14.85h1.16V295.568z"/>
	<path class="st1" d="M370.263,295.568h-1.16v-14.85h1.16V295.568z"/>
	<path class="st1" d="M384.485,292.909c0-0.573-0.231-1.034-0.692-1.383s-1.155-0.619-2.083-0.816
		c-0.928-0.197-1.649-0.422-2.161-0.676c-0.513-0.254-0.893-0.566-1.141-0.934c-0.247-0.367-0.372-0.812-0.372-1.334
		c0-0.825,0.344-1.506,1.034-2.044s1.573-0.807,2.649-0.807c1.167,0,2.102,0.289,2.808,0.866c0.706,0.576,1.059,1.329,1.059,2.257
		h-1.16c0-0.613-0.256-1.122-0.769-1.528s-1.158-0.609-1.938-0.609c-0.76,0-1.372,0.169-1.833,0.507
		c-0.461,0.34-0.691,0.779-0.691,1.32c0,0.522,0.191,0.927,0.574,1.213c0.384,0.288,1.082,0.55,2.098,0.789
		c1.015,0.239,1.775,0.493,2.281,0.763s0.882,0.596,1.126,0.977c0.244,0.381,0.367,0.841,0.367,1.383
		c0,0.883-0.356,1.588-1.069,2.118c-0.713,0.529-1.641,0.793-2.789,0.793c-1.218,0-2.207-0.295-2.963-0.885
		c-0.757-0.589-1.135-1.335-1.135-2.237h1.16c0.045,0.677,0.33,1.204,0.855,1.581c0.526,0.378,1.22,0.566,2.085,0.566
		c0.805,0,1.456-0.177,1.952-0.531C384.234,293.901,384.485,293.45,384.485,292.909z"/>
	<path class="st1" d="M392.296,295.761c-0.89,0-1.694-0.219-2.412-0.658s-1.277-1.048-1.676-1.833
		c-0.399-0.782-0.599-1.661-0.599-2.634v-0.416c0-1.005,0.195-1.911,0.584-2.717s0.934-1.439,1.629-1.9s1.45-0.692,2.263-0.692
		c1.269,0,2.276,0.435,3.021,1.3c0.745,0.868,1.118,2.051,1.118,3.553v0.648h-7.464v0.222c0,1.186,0.34,2.175,1.02,2.962
		c0.68,0.791,1.536,1.185,2.567,1.185c0.618,0,1.165-0.113,1.638-0.339c0.473-0.225,0.904-0.586,1.291-1.082l0.725,0.551
		C395.149,295.145,393.914,295.761,392.296,295.761z M392.084,285.9c-0.87,0-1.604,0.319-2.2,0.957s-0.958,1.495-1.087,2.572h6.274
		v-0.125c-0.032-1.005-0.319-1.824-0.86-2.455S392.961,285.9,392.084,285.9z"/>
	<path class="st1" d="M400.272,282.429v2.678h2.166v0.947h-2.166v6.978c0,0.581,0.105,1.013,0.314,1.298
		c0.209,0.284,0.56,0.426,1.049,0.426c0.194,0,0.506-0.032,0.938-0.097l0.048,0.939c-0.302,0.109-0.715,0.163-1.238,0.163
		c-0.793,0-1.369-0.23-1.73-0.692c-0.361-0.46-0.541-1.138-0.541-2.035v-6.982h-1.924v-0.947h1.924v-2.678h1.159v0.002H400.272z"/>
	<path class="st1" d="M411.101,292.909c0-0.573-0.231-1.034-0.692-1.383s-1.155-0.619-2.083-0.816
		c-0.928-0.197-1.649-0.422-2.161-0.676c-0.513-0.254-0.893-0.566-1.141-0.934s-0.372-0.812-0.372-1.334
		c0-0.825,0.344-1.506,1.034-2.044s1.573-0.807,2.649-0.807c1.167,0,2.102,0.289,2.808,0.866c0.706,0.576,1.059,1.329,1.059,2.257
		h-1.16c0-0.613-0.256-1.122-0.769-1.528s-1.158-0.609-1.938-0.609c-0.76,0-1.372,0.169-1.833,0.507
		c-0.461,0.34-0.691,0.779-0.691,1.32c0,0.522,0.191,0.927,0.574,1.213c0.384,0.288,1.082,0.55,2.098,0.789
		c1.015,0.239,1.775,0.493,2.281,0.763c0.506,0.271,0.882,0.596,1.126,0.977s0.367,0.841,0.367,1.383
		c0,0.883-0.356,1.588-1.069,2.118c-0.713,0.529-1.641,0.793-2.789,0.793c-1.218,0-2.207-0.295-2.963-0.885
		c-0.757-0.589-1.135-1.335-1.135-2.237h1.16c0.045,0.677,0.33,1.204,0.855,1.581c0.526,0.378,1.22,0.566,2.084,0.566
		c0.805,0,1.456-0.177,1.952-0.531C410.85,293.901,411.101,293.45,411.101,292.909z"/>
	<path class="st1" d="M414.755,294.871c0-0.225,0.072-0.417,0.217-0.575c0.145-0.157,0.346-0.237,0.605-0.237
		s0.461,0.079,0.609,0.237c0.148,0.16,0.222,0.35,0.222,0.575s-0.074,0.41-0.222,0.557c-0.149,0.144-0.351,0.217-0.609,0.217
		s-0.46-0.073-0.605-0.217C414.828,295.282,414.755,295.097,414.755,294.871z"/>
</g>
</svg>
