<?xml version="1.0" encoding="utf-8"?>
<!-- Generator: Adobe Illustrator 22.1.0, SVG Export Plug-In . SVG Version: 6.00 Build 0)  -->
<svg version="1.1" id="Layer_1" xmlns="http://www.w3.org/2000/svg" xmlns:xlink="http://www.w3.org/1999/xlink" x="0px" y="0px"
	 viewBox="0 0 500 350" style="enable-background:new 0 0 500 350;" xml:space="preserve">
<style type="text/css">
	.st0{opacity:0.8;}
	.st1{fill-rule:evenodd;clip-rule:evenodd;fill:#8FC990;}
	.st2{fill:#FFFFFF;}
</style>
<g class="st0">
	<path class="st1" d="M0,95.63v130.521c1.02,0.53,2.041,1.06,3.063,1.591c218.106,113.274,456.56,195.738,485.437-47.55
		C521.913-101.31,146.793,44.036,0,95.63z"/>
</g>
<g>
	<path class="st2" d="M178.182,122.562c1.336-0.765,2.371-1.841,3.104-3.23c0.734-1.389,1.101-2.975,1.101-4.759v-0.883
		c0-1.784-0.373-3.377-1.12-4.779s-1.786-2.483-3.118-3.243c-1.331-0.76-2.841-1.141-4.528-1.141h-5.906v19.195h5.946
		C175.338,123.714,176.846,123.327,178.182,122.562z M171.669,120.545v-12.814h1.951c1.556,0,2.737,0.503,3.546,1.509
		c0.809,1.007,1.213,2.485,1.213,4.437v1.015c-0.018,1.881-0.435,3.327-1.252,4.337s-2,1.516-3.547,1.516H171.669z"/>
	<path class="st2" d="M191.576,123.986c1.186,0,2.268-0.227,3.242-0.679c0.977-0.453,1.749-1.083,2.32-1.892l-1.871-2.096
		c-0.827,1.063-1.974,1.595-3.441,1.595c-0.949,0-1.733-0.281-2.354-0.844c-0.619-0.562-0.991-1.31-1.113-2.241h9.083v-1.556
		c0-2.259-0.561-4.003-1.681-5.234c-1.121-1.23-2.656-1.846-4.607-1.846c-1.302,0-2.459,0.306-3.475,0.916
		c-1.015,0.611-1.799,1.481-2.354,2.61c-0.553,1.13-0.83,2.411-0.83,3.843v0.369c0,2.136,0.657,3.845,1.971,5.128
		C187.781,123.345,189.483,123.986,191.576,123.986z M189.302,113.034c0.47-0.512,1.083-0.768,1.839-0.768
		c0.809,0,1.433,0.232,1.872,0.695s0.668,1.119,0.686,1.966v0.305h-5.3C188.53,114.279,188.831,113.546,189.302,113.034z"/>
	<path class="st2" d="M206.77,120.868c-0.374,0.277-0.926,0.416-1.654,0.416c-0.783,0-1.407-0.18-1.873-0.541
		s-0.716-0.879-0.751-1.556h-3.612c0,0.861,0.264,1.664,0.791,2.406s1.255,1.327,2.182,1.753c0.928,0.426,1.988,0.64,3.184,0.64
		c1.768,0,3.208-0.402,4.324-1.206c1.116-0.805,1.675-1.857,1.675-3.158c0-1.819-1.007-3.098-3.019-3.836
		c-0.651-0.237-1.451-0.45-2.4-0.64c-0.949-0.188-1.623-0.413-2.023-0.672c-0.399-0.259-0.6-0.6-0.6-1.022
		c0-0.448,0.176-0.817,0.527-1.107s0.848-0.435,1.49-0.435c0.746,0,1.296,0.178,1.647,0.534c0.352,0.355,0.527,0.806,0.527,1.351
		h3.81c0-1.362-0.542-2.47-1.628-3.322c-1.085-0.853-2.533-1.279-4.344-1.279c-1.696,0-3.069,0.424-4.12,1.272
		c-1.05,0.848-1.575,1.905-1.575,3.17c0,2.171,1.696,3.612,5.089,4.324c1.02,0.211,1.76,0.451,2.222,0.718
		c0.461,0.269,0.692,0.635,0.692,1.101C207.33,120.229,207.143,120.592,206.77,120.868z"/>
	<path class="st2" d="M215.596,107.744c0.642,0,1.158-0.185,1.55-0.554c0.391-0.369,0.587-0.844,0.587-1.424
		c0-0.571-0.194-1.042-0.58-1.411c-0.388-0.369-0.906-0.554-1.557-0.554c-0.658,0-1.18,0.185-1.562,0.554
		c-0.383,0.369-0.573,0.839-0.573,1.411c0,0.58,0.195,1.055,0.586,1.424C214.438,107.56,214.954,107.744,215.596,107.744z"/>
	<rect x="213.685" y="109.458" class="st2" width="3.823" height="14.265"/>
	<path class="st2" d="M225.84,123.986c1.432,0,2.588-0.497,3.467-1.49v0.765c0,0.993-0.281,1.76-0.844,2.3
		c-0.562,0.541-1.35,0.811-2.359,0.811c-1.354,0-2.506-0.532-3.455-1.595l-1.688,2.32c0.51,0.659,1.262,1.197,2.255,1.615
		c0.993,0.417,2.013,0.626,3.059,0.626c1.38,0,2.584-0.242,3.612-0.725s1.826-1.187,2.393-2.109
		c0.567-0.923,0.851-2.008,0.851-3.256v-13.79h-3.454l-0.158,1.345c-0.87-1.072-2.088-1.608-3.652-1.608
		c-1.766,0-3.17,0.668-4.212,2.004c-1.041,1.336-1.562,3.098-1.562,5.287v0.158c0,2.215,0.529,3.993,1.588,5.333
		C222.739,123.316,224.125,123.986,225.84,123.986z M224.686,113.392c0.523-0.75,1.241-1.126,2.156-1.126
		c1.133,0,1.955,0.437,2.465,1.311v6.026c-0.501,0.874-1.332,1.311-2.492,1.311c-0.905,0-1.617-0.369-2.135-1.106
		c-0.52-0.737-0.778-1.755-0.778-3.053C223.901,115.264,224.163,114.143,224.686,113.392z"/>
	<path class="st2" d="M239.788,113.64c0.536-0.916,1.34-1.374,2.413-1.374c0.816,0,1.401,0.183,1.753,0.548
		c0.352,0.366,0.527,0.954,0.527,1.764v9.144h3.81v-9.215c-0.018-1.767-0.395-3.094-1.133-3.981s-1.864-1.332-3.375-1.332
		c-1.715,0-3.081,0.637-4.101,1.912l-0.118-1.648h-3.586v14.265h3.81V113.64z"/>
	<path class="st2" d="M253.287,107.744c0.642,0,1.158-0.185,1.55-0.554c0.391-0.369,0.587-0.844,0.587-1.424
		c0-0.571-0.194-1.042-0.58-1.411c-0.388-0.369-0.906-0.554-1.557-0.554c-0.658,0-1.18,0.185-1.562,0.554
		c-0.383,0.369-0.573,0.839-0.573,1.411c0,0.58,0.195,1.055,0.586,1.424C252.13,107.56,252.646,107.744,253.287,107.744z"/>
	<rect x="251.376" y="109.458" class="st2" width="3.823" height="14.265"/>
	<path class="st2" d="M262.067,113.64c0.536-0.916,1.34-1.374,2.413-1.374c0.816,0,1.401,0.183,1.753,0.548
		c0.352,0.366,0.527,0.954,0.527,1.764v9.144h3.81v-9.215c-0.018-1.767-0.395-3.094-1.133-3.981s-1.864-1.332-3.375-1.332
		c-1.715,0-3.081,0.637-4.101,1.912l-0.118-1.648h-3.586v14.265h3.81V113.64z"/>
	<path class="st2" d="M278.652,123.986c1.432,0,2.588-0.497,3.467-1.49v0.765c0,0.993-0.281,1.76-0.844,2.3
		c-0.562,0.541-1.35,0.811-2.359,0.811c-1.354,0-2.506-0.532-3.455-1.595l-1.688,2.32c0.51,0.659,1.262,1.197,2.255,1.615
		c0.993,0.417,2.013,0.626,3.059,0.626c1.38,0,2.584-0.242,3.612-0.725s1.826-1.187,2.393-2.109
		c0.567-0.923,0.851-2.008,0.851-3.256v-13.79h-3.454l-0.158,1.345c-0.87-1.072-2.088-1.608-3.652-1.608
		c-1.766,0-3.17,0.668-4.212,2.004c-1.041,1.336-1.562,3.098-1.562,5.287v0.158c0,2.215,0.529,3.993,1.588,5.333
		C275.552,123.316,276.938,123.986,278.652,123.986z M277.498,113.392c0.523-0.75,1.241-1.126,2.156-1.126
		c1.133,0,1.955,0.437,2.465,1.311v6.026c-0.501,0.874-1.332,1.311-2.492,1.311c-0.905,0-1.617-0.369-2.135-1.106
		c-0.52-0.737-0.778-1.755-0.778-3.053C276.714,115.264,276.976,114.143,277.498,113.392z"/>
	<path class="st2" d="M301.565,115.008c-2.118,0.009-3.737,0.417-4.858,1.226c-1.12,0.809-1.681,1.969-1.681,3.48
		c0,1.23,0.459,2.25,1.378,3.059c0.918,0.809,2.076,1.213,3.474,1.213c1.477,0,2.676-0.514,3.6-1.542
		c0.078,0.51,0.206,0.936,0.382,1.279h3.85v-0.224c-0.369-0.694-0.559-1.718-0.567-3.072v-6.183c0-1.6-0.516-2.841-1.549-3.724
		c-1.032-0.884-2.428-1.325-4.186-1.325c-1.16,0-2.206,0.2-3.138,0.6c-0.932,0.4-1.652,0.952-2.162,1.655s-0.765,1.468-0.765,2.294
		h3.811c0-0.536,0.182-0.958,0.547-1.266c0.364-0.308,0.867-0.461,1.51-0.461c0.729,0,1.263,0.198,1.602,0.593
		c0.338,0.396,0.508,0.923,0.508,1.582v0.817H301.565z M303.319,119.688c-0.229,0.422-0.58,0.758-1.055,1.009
		c-0.475,0.25-0.994,0.375-1.557,0.375c-0.58,0-1.037-0.154-1.371-0.461s-0.5-0.699-0.5-1.173l0.013-0.224
		c0.123-1.318,1.138-1.978,3.046-1.978h1.424V119.688z"/>
	<polygon class="st2" points="180.066,150.545 171.669,150.545 171.669,134.527 167.714,134.527 167.714,153.723 180.066,153.723 	
		"/>
	<path class="st2" d="M181.57,146.933c0,2.136,0.657,3.845,1.971,5.128c1.314,1.283,3.017,1.925,5.109,1.925
		c1.186,0,2.268-0.227,3.242-0.679c0.977-0.453,1.749-1.083,2.32-1.892l-1.871-2.096c-0.827,1.063-1.974,1.595-3.441,1.595
		c-0.949,0-1.733-0.281-2.354-0.844c-0.619-0.562-0.991-1.31-1.113-2.241h9.083v-1.556c0-2.259-0.561-4.003-1.681-5.234
		c-1.121-1.23-2.656-1.846-4.607-1.846c-1.302,0-2.459,0.306-3.475,0.916c-1.015,0.611-1.799,1.481-2.354,2.61
		c-0.553,1.13-0.83,2.411-0.83,3.843V146.933z M186.376,143.034c0.47-0.512,1.083-0.768,1.839-0.768
		c0.809,0,1.433,0.232,1.872,0.695s0.668,1.119,0.686,1.966v0.305h-5.3C185.604,144.279,185.905,143.546,186.376,143.034z"/>
	<path class="st2" d="M196.428,143.743h3.811c0-0.536,0.182-0.958,0.547-1.266c0.364-0.308,0.867-0.461,1.51-0.461
		c0.729,0,1.263,0.198,1.602,0.593c0.338,0.396,0.508,0.923,0.508,1.582v0.817h-1.754c-2.118,0.009-3.737,0.417-4.858,1.226
		c-1.12,0.809-1.681,1.969-1.681,3.48c0,1.23,0.459,2.25,1.378,3.059c0.918,0.809,2.076,1.213,3.474,1.213
		c1.477,0,2.676-0.514,3.6-1.542c0.078,0.51,0.206,0.936,0.382,1.279h3.85v-0.224c-0.369-0.694-0.559-1.718-0.567-3.072v-6.183
		c0-1.6-0.516-2.841-1.549-3.724c-1.032-0.884-2.428-1.325-4.186-1.325c-1.16,0-2.206,0.2-3.138,0.6
		c-0.932,0.4-1.652,0.952-2.162,1.655S196.428,142.917,196.428,143.743z M204.404,149.688c-0.229,0.422-0.58,0.758-1.055,1.009
		c-0.475,0.25-0.994,0.375-1.557,0.375c-0.58,0-1.037-0.154-1.371-0.461s-0.5-0.699-0.5-1.173l0.013-0.224
		c0.123-1.318,1.138-1.978,3.046-1.978h1.424V149.688z"/>
	<path class="st2" d="M214.964,144.389c0.448-0.976,1.393-1.463,2.834-1.463c0.396,0,0.853,0.035,1.371,0.105l0.053-3.665
		c-0.369-0.114-0.764-0.171-1.186-0.171c-1.354,0-2.413,0.655-3.178,1.964l-0.105-1.701h-3.6v14.265h3.811V144.389z"/>
	<path class="st2" d="M228.729,139.194c-1.715,0-3.081,0.637-4.101,1.912l-0.118-1.648h-3.586v14.265h3.81V143.64
		c0.536-0.916,1.34-1.374,2.413-1.374c0.816,0,1.401,0.183,1.753,0.548c0.352,0.366,0.527,0.954,0.527,1.764v9.144h3.81v-9.215
		c-0.018-1.767-0.395-3.094-1.133-3.981S230.239,139.194,228.729,139.194z"/>
	<path class="st2" d="M238.232,137.744c0.642,0,1.158-0.185,1.55-0.554c0.391-0.369,0.587-0.844,0.587-1.424
		c0-0.571-0.194-1.042-0.58-1.411c-0.388-0.369-0.906-0.554-1.557-0.554c-0.658,0-1.18,0.185-1.562,0.554
		c-0.383,0.369-0.573,0.839-0.573,1.411c0,0.58,0.195,1.055,0.586,1.424C237.075,137.56,237.591,137.744,238.232,137.744z"/>
	<rect x="236.321" y="139.458" class="st2" width="3.823" height="14.265"/>
	<path class="st2" d="M246.907,141.106l-0.118-1.648h-3.586v14.265h3.81V143.64c0.536-0.916,1.34-1.374,2.413-1.374
		c0.816,0,1.401,0.183,1.753,0.548c0.352,0.366,0.527,0.954,0.527,1.764v9.144h3.81v-9.215c-0.018-1.767-0.395-3.094-1.133-3.981
		s-1.864-1.332-3.375-1.332C249.293,139.194,247.927,139.832,246.907,141.106z"/>
	<path class="st2" d="M263.598,153.986c1.432,0,2.588-0.497,3.467-1.49v0.765c0,0.993-0.281,1.76-0.844,2.3
		c-0.562,0.541-1.35,0.811-2.359,0.811c-1.354,0-2.506-0.532-3.455-1.595l-1.688,2.32c0.51,0.659,1.262,1.197,2.255,1.615
		c0.993,0.417,2.013,0.626,3.059,0.626c1.38,0,2.584-0.242,3.612-0.725s1.826-1.187,2.393-2.109
		c0.567-0.923,0.851-2.008,0.851-3.256v-13.79h-3.454l-0.158,1.345c-0.87-1.072-2.088-1.608-3.652-1.608
		c-1.766,0-3.17,0.668-4.212,2.004c-1.041,1.336-1.562,3.098-1.562,5.287v0.158c0,2.215,0.529,3.993,1.588,5.333
		C260.497,153.316,261.883,153.986,263.598,153.986z M262.443,143.392c0.523-0.75,1.241-1.126,2.156-1.126
		c1.133,0,1.955,0.437,2.465,1.311v6.026c-0.501,0.874-1.332,1.311-2.492,1.311c-0.905,0-1.617-0.369-2.135-1.106
		c-0.52-0.737-0.778-1.755-0.778-3.053C261.659,145.264,261.921,144.143,262.443,143.392z"/>
	<path class="st2" d="M280.789,153.723h3.955v-6.763h3.468c2.275,0,4.058-0.542,5.346-1.628c1.287-1.085,1.932-2.568,1.932-4.449
		c0-1.239-0.295-2.344-0.884-3.315s-1.431-1.721-2.524-2.248c-1.095-0.527-2.362-0.791-3.804-0.791h-7.488V153.723z
		 M284.744,137.731h3.626c0.975,0.018,1.74,0.316,2.293,0.896c0.555,0.58,0.831,1.34,0.831,2.281c0,0.914-0.274,1.617-0.824,2.109
		c-0.549,0.492-1.347,0.738-2.393,0.738h-3.533V137.731z"/>
	<path class="st2" d="M303.781,145.008c-2.118,0.009-3.737,0.417-4.858,1.226c-1.12,0.809-1.681,1.969-1.681,3.48
		c0,1.23,0.459,2.25,1.378,3.059c0.918,0.809,2.076,1.213,3.474,1.213c1.477,0,2.676-0.514,3.6-1.542
		c0.078,0.51,0.206,0.936,0.382,1.279h3.85v-0.224c-0.369-0.694-0.559-1.718-0.567-3.072v-6.183c0-1.6-0.516-2.841-1.549-3.724
		c-1.032-0.884-2.428-1.325-4.186-1.325c-1.16,0-2.206,0.2-3.138,0.6c-0.932,0.4-1.652,0.952-2.162,1.655s-0.765,1.468-0.765,2.294
		h3.811c0-0.536,0.182-0.958,0.547-1.266c0.364-0.308,0.867-0.461,1.51-0.461c0.729,0,1.263,0.198,1.602,0.593
		c0.338,0.396,0.508,0.923,0.508,1.582v0.817H303.781z M305.535,149.688c-0.229,0.422-0.58,0.758-1.055,1.009
		c-0.475,0.25-0.994,0.375-1.557,0.375c-0.58,0-1.037-0.154-1.371-0.461s-0.5-0.699-0.5-1.173l0.013-0.224
		c0.123-1.318,1.138-1.978,3.046-1.978h1.424V149.688z"/>
	<path class="st2" d="M313.035,149.939c0.053,2.698,1.415,4.047,4.087,4.047c0.791,0,1.56-0.114,2.308-0.343v-2.887
		c-0.326,0.062-0.699,0.092-1.121,0.092c-0.571,0-0.958-0.114-1.16-0.343s-0.303-0.606-0.303-1.134v-7.119h2.438v-2.795h-2.438
		v-3.507h-3.811v3.507h-2.083v2.795h2.083V149.939z"/>
	<path class="st2" d="M325.125,143.561c0.5-0.863,1.309-1.295,2.426-1.295c0.816,0,1.401,0.196,1.753,0.588
		c0.352,0.392,0.527,0.998,0.527,1.817v9.052h3.81v-9.136c-0.044-3.595-1.612-5.392-4.706-5.392c-1.529,0-2.8,0.606-3.81,1.819
		v-7.541h-3.811v20.25h3.811V143.561z"/>
	<polygon class="st2" points="342.238,153.723 344.94,144.745 347.643,153.723 350.834,153.723 354.473,139.458 350.794,139.458 
		348.922,148.542 346.324,139.458 343.569,139.458 340.959,148.528 339.1,139.458 335.422,139.458 339.061,153.723 	"/>
	<path class="st2" d="M362.33,145.008c-2.118,0.009-3.737,0.417-4.858,1.226c-1.12,0.809-1.681,1.969-1.681,3.48
		c0,1.23,0.459,2.25,1.378,3.059c0.918,0.809,2.076,1.213,3.474,1.213c1.477,0,2.676-0.514,3.6-1.542
		c0.078,0.51,0.206,0.936,0.382,1.279h3.85v-0.224c-0.369-0.694-0.559-1.718-0.567-3.072v-6.183c0-1.6-0.516-2.841-1.549-3.724
		c-1.032-0.884-2.428-1.325-4.186-1.325c-1.16,0-2.206,0.2-3.138,0.6c-0.932,0.4-1.652,0.952-2.162,1.655s-0.765,1.468-0.765,2.294
		h3.811c0-0.536,0.182-0.958,0.547-1.266c0.364-0.308,0.867-0.461,1.51-0.461c0.729,0,1.263,0.198,1.602,0.593
		c0.338,0.396,0.508,0.923,0.508,1.582v0.817H362.33z M364.084,149.688c-0.229,0.422-0.58,0.758-1.055,1.009
		c-0.475,0.25-0.994,0.375-1.557,0.375c-0.58,0-1.037-0.154-1.371-0.461s-0.5-0.699-0.5-1.173l0.013-0.224
		c0.123-1.318,1.138-1.978,3.046-1.978h1.424V149.688z"/>
	<path class="st2" d="M373.76,154.936c-0.202,0.51-0.481,0.875-0.837,1.094c-0.356,0.22-0.895,0.33-1.615,0.33l-0.58-0.013v2.887
		c0.571,0.167,1.134,0.25,1.688,0.25c1.96,0,3.366-0.932,4.219-2.795l0.316-0.751l5.735-16.479h-4.088l-2.637,8.873l-2.649-8.873
		h-4.101l4.997,14.304L373.76,154.936z"/>
	<polygon class="st2" points="169.76,183.5 170.601,183.5 170.601,174.258 174.012,174.258 174.012,173.547 166.356,173.547 
		166.356,174.258 169.76,174.258 	"/>
	<path class="st2" d="M177.245,175.967c-0.638,0-1.209,0.158-1.713,0.475c-0.503,0.317-0.893,0.76-1.168,1.33
		c-0.276,0.569-0.414,1.21-0.414,1.921v0.164c0,1.139,0.307,2.054,0.92,2.744c0.612,0.69,1.409,1.036,2.389,1.036
		c0.643,0,1.215-0.155,1.716-0.465c0.501-0.311,0.89-0.751,1.165-1.323c0.276-0.571,0.414-1.216,0.414-1.931v-0.171
		c0-1.14-0.306-2.055-0.916-2.745S178.229,175.967,177.245,175.967z M179.74,179.85c0,0.93-0.229,1.678-0.687,2.245
		c-0.459,0.567-1.057,0.852-1.795,0.852c-0.743,0-1.344-0.284-1.801-0.852c-0.459-0.567-0.688-1.293-0.688-2.177v-0.15
		c0-0.926,0.23-1.674,0.69-2.246c0.46-0.571,1.055-0.857,1.784-0.857c0.487,0,0.921,0.129,1.299,0.386
		c0.378,0.258,0.672,0.621,0.882,1.091c0.21,0.469,0.314,0.986,0.314,1.552V179.85z"/>
	<path class="st2" d="M186.717,177.17c-0.524-0.803-1.29-1.203-2.297-1.203c-0.88,0-1.576,0.338-2.088,1.015
		c-0.514,0.677-0.77,1.594-0.77,2.752v0.109c0,1.162,0.26,2.085,0.779,2.769s1.208,1.025,2.064,1.025
		c1.003,0,1.766-0.365,2.29-1.094v0.93c-0.014,0.715-0.212,1.274-0.595,1.678s-0.916,0.605-1.6,0.605
		c-0.798,0-1.485-0.355-2.064-1.066l-0.458,0.492c0.269,0.383,0.637,0.689,1.104,0.919c0.467,0.23,0.958,0.346,1.473,0.346
		c0.911,0,1.634-0.278,2.167-0.834c0.533-0.557,0.8-1.311,0.8-2.263v-7.246h-0.766L186.717,177.17z M186.697,181.572
		c-0.419,0.902-1.133,1.354-2.14,1.354c-0.688,0-1.222-0.272-1.6-0.817c-0.378-0.544-0.567-1.288-0.567-2.231
		c0-1.053,0.191-1.85,0.574-2.39s0.918-0.81,1.606-0.81c0.506,0,0.938,0.124,1.299,0.372c0.36,0.249,0.636,0.609,0.827,1.084
		V181.572z"/>
	<path class="st2" d="M194.947,179.856v-0.458c0-1.062-0.263-1.899-0.79-2.513c-0.525-0.612-1.238-0.919-2.136-0.919
		c-0.574,0-1.107,0.163-1.6,0.488c-0.492,0.326-0.876,0.773-1.151,1.344c-0.276,0.569-0.414,1.21-0.414,1.921v0.294
		c0,0.688,0.142,1.309,0.424,1.862s0.678,0.985,1.186,1.296c0.509,0.31,1.077,0.465,1.706,0.465c1.144,0,2.017-0.436,2.618-1.306
		l-0.513-0.39c-0.273,0.351-0.577,0.605-0.913,0.766c-0.334,0.159-0.721,0.239-1.158,0.239c-0.729,0-1.334-0.279-1.814-0.838
		c-0.481-0.558-0.722-1.257-0.722-2.095v-0.157H194.947z M190.465,177.341c0.422-0.451,0.94-0.677,1.556-0.677
		c0.62,0,1.121,0.223,1.504,0.67c0.383,0.446,0.586,1.025,0.608,1.736v0.089h-4.437
		C189.788,178.397,190.044,177.792,190.465,177.341z"/>
	<path class="st2" d="M199.122,183.521l-0.034-0.664c-0.306,0.045-0.526,0.068-0.663,0.068c-0.347,0-0.594-0.101-0.741-0.302
		c-0.148-0.2-0.223-0.506-0.223-0.917v-4.934h1.531v-0.67h-1.531v-1.894h-0.82v1.894h-1.36v0.67h1.36v4.936
		c0,0.633,0.128,1.113,0.383,1.438c0.255,0.326,0.663,0.489,1.224,0.489C198.616,183.637,198.908,183.598,199.122,183.521z"/>
	<path class="st2" d="M205.916,178.646c-0.005-0.894-0.2-1.563-0.588-2.01c-0.388-0.447-0.978-0.67-1.771-0.67
		c-0.497,0-0.955,0.12-1.374,0.362c-0.419,0.241-0.764,0.583-1.032,1.025V173h-0.813v10.5h0.813v-5.065
		c0.187-0.538,0.476-0.965,0.864-1.282c0.391-0.316,0.838-0.475,1.344-0.475c0.606,0,1.047,0.161,1.322,0.485
		c0.276,0.323,0.416,0.815,0.421,1.477v4.86h0.813V178.646z"/>
	<path class="st2" d="M213.311,179.856v-0.458c0-1.062-0.263-1.899-0.79-2.513c-0.525-0.612-1.238-0.919-2.136-0.919
		c-0.574,0-1.107,0.163-1.6,0.488c-0.492,0.326-0.876,0.773-1.151,1.344c-0.276,0.569-0.414,1.21-0.414,1.921v0.294
		c0,0.688,0.142,1.309,0.424,1.862s0.678,0.985,1.186,1.296c0.509,0.31,1.077,0.465,1.706,0.465c1.144,0,2.017-0.436,2.618-1.306
		l-0.513-0.39c-0.273,0.351-0.577,0.605-0.913,0.766c-0.334,0.159-0.721,0.239-1.158,0.239c-0.729,0-1.334-0.279-1.814-0.838
		c-0.481-0.558-0.722-1.257-0.722-2.095v-0.157H213.311z M208.83,177.341c0.422-0.451,0.94-0.677,1.556-0.677
		c0.62,0,1.121,0.223,1.504,0.67c0.383,0.446,0.586,1.025,0.608,1.736v0.089h-4.437C208.152,178.397,208.409,177.792,208.83,177.341
		z"/>
	<path class="st2" d="M217.992,176.056c-0.132-0.06-0.312-0.089-0.54-0.089c-0.957,0-1.652,0.438-2.085,1.312l-0.014-1.176h-0.8
		v7.396h0.813v-5.079c0.15-0.543,0.402-0.956,0.755-1.241c0.354-0.284,0.785-0.427,1.296-0.427c0.196,0,0.381,0.016,0.554,0.048
		L217.992,176.056z"/>
	<path class="st2" d="M218.859,183.069v-0.854h-0.8v1.06c-0.014,0.597-0.228,1.173-0.643,1.729l0.485,0.355
		C218.54,184.78,218.859,184.017,218.859,183.069z"/>
	<polygon class="st2" points="227.62,177.231 227.708,177.635 229.609,183.5 230.306,183.5 232.459,176.104 231.612,176.104 
		230.094,181.777 229.937,182.495 229.746,181.716 227.989,176.104 227.292,176.104 225.514,181.764 225.35,182.434 
		225.227,181.798 223.662,176.104 222.821,176.104 224.967,183.5 225.665,183.5 227.531,177.642 	"/>
	<path class="st2" d="M233.21,180.014c0,0.688,0.142,1.309,0.424,1.862s0.678,0.985,1.186,1.296c0.509,0.31,1.077,0.465,1.706,0.465
		c1.144,0,2.017-0.436,2.618-1.306l-0.513-0.39c-0.273,0.351-0.577,0.605-0.913,0.766c-0.334,0.159-0.721,0.239-1.158,0.239
		c-0.729,0-1.334-0.279-1.814-0.838c-0.481-0.558-0.722-1.257-0.722-2.095v-0.157h5.277v-0.458c0-1.062-0.263-1.899-0.79-2.513
		c-0.525-0.612-1.238-0.919-2.136-0.919c-0.574,0-1.107,0.163-1.6,0.488c-0.492,0.326-0.876,0.773-1.151,1.344
		c-0.276,0.569-0.414,1.21-0.414,1.921V180.014z M234.82,177.341c0.422-0.451,0.94-0.677,1.556-0.677c0.62,0,1.121,0.223,1.504,0.67
		c0.383,0.446,0.586,1.025,0.608,1.736v0.089h-4.437C234.142,178.397,234.399,177.792,234.82,177.341z"/>
	<path class="st2" d="M240.796,173.69V173h-0.807v0.896c-0.014,0.606-0.226,1.185-0.636,1.736l0.485,0.355
		C240.477,175.408,240.796,174.643,240.796,173.69z"/>
	<rect x="242.45" y="173" class="st2" width="0.82" height="10.5"/>
	<rect x="245.237" y="173" class="st2" width="0.82" height="10.5"/>
	<path class="st2" d="M253.718,183.637c0.492,0,0.953-0.105,1.385-0.314c0.43-0.21,0.775-0.5,1.035-0.872
		c0.26-0.371,0.401-0.782,0.424-1.233h-0.786c-0.032,0.51-0.24,0.926-0.626,1.247c-0.385,0.321-0.862,0.482-1.432,0.482
		c-0.743,0-1.318-0.265-1.727-0.793c-0.407-0.529-0.611-1.265-0.611-2.208v-0.239c0-0.962,0.204-1.709,0.611-2.242
		c0.408-0.533,0.981-0.8,1.72-0.8c0.579,0,1.059,0.178,1.438,0.533c0.381,0.355,0.59,0.822,0.626,1.401h0.786
		c-0.036-0.789-0.318-1.425-0.844-1.907c-0.527-0.483-1.195-0.725-2.007-0.725c-0.638,0-1.195,0.152-1.671,0.458
		c-0.477,0.305-0.843,0.738-1.098,1.299s-0.383,1.205-0.383,1.935v0.246c0,1.139,0.283,2.046,0.852,2.721
		C251.978,183.299,252.747,183.637,253.718,183.637z"/>
	<path class="st2" d="M260.244,183.637c1.08,0,1.866-0.358,2.358-1.073l0.014,0.937h0.793v-7.396h-0.82v5.353
		c-0.314,0.979-1.064,1.47-2.249,1.47c-1.14,0-1.709-0.704-1.709-2.112v-4.71h-0.813v4.812c0.009,0.897,0.219,1.575,0.629,2.033
		S259.456,183.637,260.244,183.637z"/>
	<path class="st2" d="M269.089,182.57c-0.351,0.25-0.812,0.376-1.381,0.376c-0.61,0-1.102-0.134-1.474-0.4
		c-0.371-0.267-0.572-0.639-0.604-1.117h-0.82c0,0.638,0.268,1.165,0.804,1.582c0.535,0.417,1.233,0.626,2.095,0.626
		c0.812,0,1.469-0.188,1.972-0.561c0.504-0.374,0.756-0.873,0.756-1.497c0-0.383-0.087-0.709-0.26-0.978
		c-0.173-0.27-0.438-0.499-0.797-0.69c-0.357-0.191-0.895-0.372-1.613-0.54c-0.717-0.169-1.212-0.354-1.482-0.558
		c-0.271-0.202-0.407-0.488-0.407-0.857c0-0.383,0.163-0.694,0.489-0.934c0.325-0.239,0.757-0.358,1.295-0.358
		c0.552,0,1.008,0.144,1.371,0.431c0.361,0.287,0.543,0.646,0.543,1.08h0.82c0-0.656-0.25-1.188-0.748-1.597
		c-0.5-0.407-1.161-0.611-1.986-0.611c-0.761,0-1.386,0.19-1.873,0.57c-0.487,0.381-0.731,0.862-0.731,1.446
		c0,0.369,0.088,0.684,0.263,0.943c0.176,0.26,0.445,0.479,0.807,0.659c0.363,0.181,0.872,0.34,1.528,0.479
		c0.656,0.14,1.147,0.332,1.474,0.578c0.325,0.246,0.488,0.571,0.488,0.978C269.615,182.003,269.439,182.319,269.089,182.57z"/>
	<path class="st2" d="M272.375,181.709c0,0.633,0.128,1.113,0.383,1.438c0.255,0.326,0.663,0.489,1.224,0.489
		c0.369,0,0.661-0.039,0.875-0.115l-0.034-0.664c-0.306,0.045-0.526,0.068-0.663,0.068c-0.347,0-0.594-0.101-0.741-0.302
		c-0.148-0.2-0.223-0.506-0.223-0.917v-4.934h1.531v-0.67h-1.531v-1.894h-0.82v1.894h-1.36v0.67h1.36V181.709z"/>
	<path class="st2" d="M281.674,181.849c0.276-0.571,0.414-1.216,0.414-1.931v-0.171c0-1.14-0.306-2.055-0.916-2.745
		s-1.408-1.035-2.393-1.035c-0.638,0-1.209,0.158-1.713,0.475c-0.503,0.317-0.893,0.76-1.168,1.33
		c-0.276,0.569-0.414,1.21-0.414,1.921v0.164c0,1.139,0.307,2.054,0.92,2.744c0.612,0.69,1.409,1.036,2.389,1.036
		c0.643,0,1.215-0.155,1.716-0.465C281.01,182.861,281.398,182.421,281.674,181.849z M278.793,182.946
		c-0.743,0-1.344-0.284-1.801-0.852c-0.459-0.567-0.688-1.293-0.688-2.177v-0.15c0-0.926,0.23-1.674,0.69-2.246
		c0.46-0.571,1.055-0.857,1.784-0.857c0.487,0,0.921,0.129,1.299,0.386c0.378,0.258,0.672,0.621,0.882,1.091
		c0.21,0.469,0.314,0.986,0.314,1.552v0.157c0,0.93-0.229,1.678-0.687,2.245C280.129,182.662,279.531,182.946,278.793,182.946z"/>
	<path class="st2" d="M293.763,183.5v-4.936c-0.032-1.732-0.841-2.598-2.427-2.598c-0.533,0-1.021,0.124-1.463,0.372
		c-0.442,0.249-0.795,0.603-1.06,1.063c-0.314-0.957-1.055-1.436-2.222-1.436c-0.501,0-0.957,0.111-1.367,0.335
		c-0.41,0.223-0.752,0.558-1.025,1.005l-0.027-1.203h-0.786v7.396h0.82v-5.072c0.178-0.579,0.451-1.016,0.82-1.31
		s0.812-0.44,1.326-0.44c0.61,0,1.062,0.156,1.357,0.468c0.293,0.312,0.442,0.785,0.447,1.419v4.936h0.82v-4.895
		c0.046-0.533,0.271-0.985,0.677-1.357c0.405-0.371,0.902-0.562,1.49-0.57c0.634,0,1.091,0.159,1.37,0.479
		c0.281,0.318,0.423,0.809,0.428,1.47v4.874H293.763z"/>
	<path class="st2" d="M301.067,175.967c-0.88,0-1.576,0.341-2.088,1.021c-0.514,0.682-0.77,1.597-0.77,2.745v0.096
		c0,1.166,0.261,2.093,0.783,2.778c0.521,0.687,1.208,1.029,2.061,1.029c1.017,0,1.786-0.374,2.311-1.121l0.034,0.984h0.766V173
		h-0.813v4.149C302.826,176.36,302.065,175.967,301.067,175.967z M303.351,181.593c-0.424,0.889-1.14,1.333-2.146,1.333
		c-0.688,0-1.222-0.272-1.6-0.817c-0.378-0.544-0.567-1.288-0.567-2.231c0-1.053,0.191-1.85,0.574-2.39s0.918-0.81,1.606-0.81
		c0.998,0,1.709,0.48,2.133,1.442V181.593z"/>
	<path class="st2" d="M307.081,176.455c-0.492,0.326-0.876,0.773-1.151,1.344c-0.276,0.569-0.414,1.21-0.414,1.921v0.294
		c0,0.688,0.142,1.309,0.424,1.862s0.678,0.985,1.186,1.296c0.509,0.31,1.077,0.465,1.706,0.465c1.144,0,2.017-0.436,2.618-1.306
		l-0.513-0.39c-0.273,0.351-0.577,0.605-0.913,0.766c-0.334,0.159-0.721,0.239-1.158,0.239c-0.729,0-1.334-0.279-1.814-0.838
		c-0.481-0.558-0.722-1.257-0.722-2.095v-0.157h5.277v-0.458c0-1.062-0.263-1.899-0.79-2.513c-0.525-0.612-1.238-0.919-2.136-0.919
		C308.106,175.967,307.573,176.13,307.081,176.455z M310.793,179.07v0.089h-4.437c0.091-0.762,0.348-1.367,0.769-1.818
		c0.422-0.451,0.94-0.677,1.556-0.677c0.62,0,1.121,0.223,1.504,0.67C310.567,177.78,310.771,178.359,310.793,179.07z"/>
	<path class="st2" d="M316.753,182.57c-0.351,0.25-0.812,0.376-1.381,0.376c-0.61,0-1.102-0.134-1.474-0.4
		c-0.371-0.267-0.572-0.639-0.604-1.117h-0.82c0,0.638,0.268,1.165,0.804,1.582c0.535,0.417,1.233,0.626,2.095,0.626
		c0.812,0,1.469-0.188,1.972-0.561c0.504-0.374,0.756-0.873,0.756-1.497c0-0.383-0.087-0.709-0.26-0.978
		c-0.173-0.27-0.438-0.499-0.797-0.69c-0.357-0.191-0.895-0.372-1.613-0.54c-0.717-0.169-1.212-0.354-1.482-0.558
		c-0.271-0.202-0.407-0.488-0.407-0.857c0-0.383,0.163-0.694,0.489-0.934c0.325-0.239,0.757-0.358,1.295-0.358
		c0.552,0,1.008,0.144,1.371,0.431c0.361,0.287,0.543,0.646,0.543,1.08h0.82c0-0.656-0.25-1.188-0.748-1.597
		c-0.5-0.407-1.161-0.611-1.986-0.611c-0.761,0-1.386,0.19-1.873,0.57c-0.487,0.381-0.731,0.862-0.731,1.446
		c0,0.369,0.088,0.684,0.263,0.943c0.176,0.26,0.445,0.479,0.807,0.659c0.363,0.181,0.872,0.34,1.528,0.479
		c0.656,0.14,1.147,0.332,1.474,0.578c0.325,0.246,0.488,0.571,0.488,0.978C317.279,182.003,317.104,182.319,316.753,182.57z"/>
	<path class="st2" d="M320.102,174.511c0.173,0,0.312-0.052,0.413-0.156c0.104-0.104,0.154-0.233,0.154-0.387
		s-0.051-0.284-0.154-0.391c-0.102-0.106-0.24-0.16-0.413-0.16s-0.31,0.053-0.41,0.16s-0.15,0.237-0.15,0.391s0.05,0.283,0.15,0.387
		S319.929,174.511,320.102,174.511z"/>
	<rect x="319.685" y="176.104" class="st2" width="0.82" height="7.396"/>
	<path class="st2" d="M328.009,183.35v-7.246h-0.766l-0.041,1.066c-0.524-0.803-1.29-1.203-2.297-1.203
		c-0.88,0-1.576,0.338-2.088,1.015c-0.514,0.677-0.77,1.594-0.77,2.752v0.109c0,1.162,0.26,2.085,0.779,2.769
		s1.208,1.025,2.064,1.025c1.003,0,1.766-0.365,2.29-1.094v0.93c-0.014,0.715-0.212,1.274-0.595,1.678s-0.916,0.605-1.6,0.605
		c-0.798,0-1.485-0.355-2.064-1.066l-0.458,0.492c0.269,0.383,0.637,0.689,1.104,0.919c0.467,0.23,0.958,0.346,1.473,0.346
		c0.911,0,1.634-0.278,2.167-0.834C327.742,185.056,328.009,184.302,328.009,183.35z M327.182,181.572
		c-0.419,0.902-1.133,1.354-2.14,1.354c-0.688,0-1.222-0.272-1.6-0.817c-0.378-0.544-0.567-1.288-0.567-2.231
		c0-1.053,0.191-1.85,0.574-2.39s0.918-0.81,1.606-0.81c0.506,0,0.938,0.124,1.299,0.372c0.36,0.249,0.636,0.609,0.827,1.084
		V181.572z"/>
	<path class="st2" d="M331.638,176.325c-0.415,0.239-0.761,0.587-1.039,1.043l-0.027-1.265h-0.779v7.396h0.813v-5.065
		c0.187-0.538,0.476-0.965,0.864-1.282c0.391-0.316,0.838-0.475,1.344-0.475c0.606,0,1.047,0.161,1.322,0.485
		c0.276,0.323,0.416,0.815,0.421,1.477v4.86h0.813v-4.854c-0.005-0.894-0.2-1.563-0.588-2.01c-0.388-0.447-0.978-0.67-1.771-0.67
		C332.511,175.967,332.053,176.086,331.638,176.325z"/>
	<path class="st2" d="M343.208,179.2c-1.071,0-1.906,0.209-2.506,0.629c-0.599,0.419-0.898,0.988-0.898,1.709
		c0,0.605,0.22,1.107,0.66,1.504c0.439,0.396,1.015,0.595,1.726,0.595c0.497,0,0.968-0.102,1.411-0.305
		c0.445-0.202,0.811-0.491,1.098-0.864c0.022,0.455,0.075,0.8,0.157,1.032h0.875v-0.082c-0.15-0.355-0.226-0.892-0.226-1.606v-3.5
		c-0.014-0.738-0.259-1.313-0.734-1.727c-0.477-0.412-1.127-0.618-1.952-0.618c-0.798,0-1.47,0.215-2.017,0.646
		s-0.82,0.94-0.82,1.528l0.82,0.007c0-0.41,0.187-0.762,0.561-1.053c0.374-0.292,0.846-0.438,1.415-0.438
		c0.624,0,1.1,0.151,1.425,0.454c0.326,0.304,0.489,0.719,0.489,1.248v0.841H343.208z M344.691,181.456
		c-0.196,0.441-0.509,0.795-0.94,1.06c-0.43,0.264-0.919,0.396-1.466,0.396c-0.492,0-0.892-0.137-1.2-0.41
		c-0.307-0.273-0.461-0.618-0.461-1.032c0-0.506,0.23-0.903,0.69-1.193c0.46-0.289,1.099-0.438,1.914-0.447h1.463V181.456z"/>
	<path class="st2" d="M350.556,175.967c-0.501,0-0.959,0.119-1.374,0.358s-0.761,0.587-1.039,1.043l-0.027-1.265h-0.779v7.396h0.813
		v-5.065c0.187-0.538,0.476-0.965,0.864-1.282c0.391-0.316,0.838-0.475,1.344-0.475c0.606,0,1.047,0.161,1.322,0.485
		c0.276,0.323,0.416,0.815,0.421,1.477v4.86h0.813v-4.854c-0.005-0.894-0.2-1.563-0.588-2.01
		C351.938,176.189,351.349,175.967,350.556,175.967z"/>
	<rect x="357.826" y="176.104" class="st2" width="0.82" height="7.396"/>
	<path class="st2" d="M358.811,173.967c0-0.154-0.051-0.284-0.154-0.391c-0.102-0.106-0.24-0.16-0.413-0.16s-0.31,0.053-0.41,0.16
		s-0.15,0.237-0.15,0.391s0.05,0.283,0.15,0.387s0.237,0.156,0.41,0.156s0.312-0.052,0.413-0.156
		C358.76,174.25,358.811,174.121,358.811,173.967z"/>
	<path class="st2" d="M365.33,178.314c0.487-0.164,0.871-0.437,1.152-0.817c0.279-0.381,0.42-0.829,0.42-1.345
		c0-0.856-0.275-1.505-0.827-1.945s-1.36-0.66-2.427-0.66h-2.939v9.953h3.329c1.012,0,1.802-0.247,2.368-0.741
		c0.568-0.494,0.852-1.181,0.852-2.061c0-0.578-0.177-1.088-0.529-1.53C366.375,178.727,365.909,178.441,365.33,178.314z
		 M361.55,174.258h2.099c0.807,0,1.409,0.152,1.809,0.456c0.398,0.303,0.598,0.775,0.598,1.414c0,0.607-0.192,1.069-0.578,1.387
		c-0.385,0.317-0.928,0.483-1.63,0.497h-2.297V174.258z M365.785,182.239c-0.422,0.366-0.993,0.55-1.713,0.55h-2.522v-4.067h2.591
		c0.711,0,1.268,0.179,1.672,0.535c0.402,0.357,0.604,0.843,0.604,1.457C366.417,181.365,366.206,181.873,365.785,182.239z"/>
	<rect x="368.843" y="173" class="st2" width="0.82" height="10.5"/>
	<path class="st2" d="M377.273,181.849c0.276-0.571,0.414-1.216,0.414-1.931v-0.171c0-1.14-0.306-2.055-0.916-2.745
		s-1.408-1.035-2.393-1.035c-0.638,0-1.209,0.158-1.713,0.475c-0.503,0.317-0.893,0.76-1.168,1.33
		c-0.276,0.569-0.414,1.21-0.414,1.921v0.164c0,1.139,0.307,2.054,0.92,2.744c0.612,0.69,1.409,1.036,2.389,1.036
		c0.643,0,1.215-0.155,1.716-0.465C376.609,182.861,376.998,182.421,377.273,181.849z M374.393,182.946
		c-0.743,0-1.344-0.284-1.801-0.852c-0.459-0.567-0.688-1.293-0.688-2.177v-0.15c0-0.926,0.23-1.674,0.69-2.246
		c0.46-0.571,1.055-0.857,1.784-0.857c0.487,0,0.921,0.129,1.299,0.386c0.378,0.258,0.672,0.621,0.882,1.091
		c0.21,0.469,0.314,0.986,0.314,1.552v0.157c0,0.93-0.229,1.678-0.687,2.245C375.729,182.662,375.131,182.946,374.393,182.946z"/>
	<path class="st2" d="M380.082,176.425c-0.477,0.305-0.843,0.738-1.098,1.299s-0.383,1.205-0.383,1.935v0.246
		c0,1.139,0.283,2.046,0.852,2.721c0.566,0.674,1.336,1.012,2.307,1.012c0.492,0,0.953-0.105,1.385-0.314
		c0.43-0.21,0.775-0.5,1.035-0.872c0.26-0.371,0.401-0.782,0.424-1.233h-0.786c-0.032,0.51-0.24,0.926-0.626,1.247
		c-0.385,0.321-0.862,0.482-1.432,0.482c-0.743,0-1.318-0.265-1.727-0.793c-0.407-0.529-0.611-1.265-0.611-2.208v-0.239
		c0-0.962,0.204-1.709,0.611-2.242c0.408-0.533,0.981-0.8,1.72-0.8c0.579,0,1.059,0.178,1.438,0.533
		c0.381,0.355,0.59,0.822,0.626,1.401h0.786c-0.036-0.789-0.318-1.425-0.844-1.907c-0.527-0.483-1.195-0.725-2.007-0.725
		C381.115,175.967,380.558,176.119,380.082,176.425z"/>
	<polygon class="st2" points="391.616,183.5 388.205,179.221 391.343,176.104 390.311,176.104 387.48,178.886 386.708,179.72 
		386.708,173 385.888,173 385.888,183.5 386.708,183.5 386.708,180.677 387.645,179.774 390.639,183.5 	"/>
	<path class="st2" d="M396.822,185.034c0.492,0.772,1.027,1.332,1.606,1.679l0.198-0.526c-0.456-0.338-0.873-0.842-1.251-1.515
		c-0.378-0.672-0.676-1.448-0.893-2.327c-0.216-0.88-0.324-1.796-0.324-2.748c0-0.894,0.072-1.692,0.215-2.396
		c0.145-0.704,0.332-1.339,0.564-1.903c0.232-0.565,0.497-1.053,0.793-1.463s0.595-0.722,0.896-0.937l-0.198-0.554
		c-0.565,0.337-1.094,0.895-1.586,1.671s-0.866,1.633-1.121,2.57s-0.383,1.901-0.383,2.896c0,1.075,0.124,2.077,0.373,3.004
		C395.96,183.412,396.33,184.262,396.822,185.034z"/>
	<path class="st2" d="M402.42,183.637c0.643,0,1.215-0.155,1.716-0.465c0.501-0.311,0.89-0.751,1.165-1.323
		c0.276-0.571,0.414-1.216,0.414-1.931v-0.171c0-1.14-0.306-2.055-0.916-2.745s-1.408-1.035-2.393-1.035
		c-0.638,0-1.209,0.158-1.713,0.475c-0.503,0.317-0.893,0.76-1.168,1.33c-0.276,0.569-0.414,1.21-0.414,1.921v0.164
		c0,1.139,0.307,2.054,0.92,2.744C400.644,183.291,401.44,183.637,402.42,183.637z M399.932,179.768c0-0.926,0.23-1.674,0.69-2.246
		c0.46-0.571,1.055-0.857,1.784-0.857c0.487,0,0.921,0.129,1.299,0.386c0.378,0.258,0.672,0.621,0.882,1.091
		c0.21,0.469,0.314,0.986,0.314,1.552v0.157c0,0.93-0.229,1.678-0.687,2.245c-0.459,0.567-1.057,0.852-1.795,0.852
		c-0.743,0-1.344-0.284-1.801-0.852c-0.459-0.567-0.688-1.293-0.688-2.177V179.768z"/>
	<path class="st2" d="M407.866,178.421c0.15-0.543,0.402-0.956,0.755-1.241c0.354-0.284,0.785-0.427,1.296-0.427
		c0.196,0,0.381,0.016,0.554,0.048l0.021-0.745c-0.132-0.06-0.312-0.089-0.54-0.089c-0.957,0-1.652,0.438-2.085,1.312l-0.014-1.176
		h-0.8v7.396h0.813V178.421z"/>
	<path class="st2" d="M168.147,193.967c0-0.153-0.051-0.284-0.154-0.391c-0.102-0.106-0.24-0.159-0.413-0.159
		s-0.31,0.053-0.41,0.159s-0.15,0.237-0.15,0.391c0,0.154,0.05,0.283,0.15,0.388c0.101,0.104,0.237,0.156,0.41,0.156
		s0.312-0.053,0.413-0.156C168.096,194.25,168.147,194.121,168.147,193.967z"/>
	<rect x="167.163" y="196.104" class="st2" width="0.82" height="7.396"/>
	<path class="st2" d="M174.62,198.64v4.86h0.813v-4.854c-0.005-0.894-0.2-1.563-0.588-2.01c-0.388-0.447-0.978-0.67-1.771-0.67
		c-0.501,0-0.959,0.119-1.374,0.358s-0.761,0.587-1.039,1.043l-0.027-1.265h-0.779v7.396h0.813v-5.065
		c0.187-0.538,0.476-0.965,0.864-1.282c0.391-0.316,0.838-0.475,1.344-0.475c0.606,0,1.047,0.161,1.322,0.485
		C174.475,197.486,174.615,197.979,174.62,198.64z"/>
	<path class="st2" d="M182.445,201.579c0-0.383-0.087-0.709-0.26-0.978c-0.173-0.27-0.438-0.499-0.797-0.69
		c-0.357-0.191-0.895-0.372-1.613-0.54c-0.717-0.169-1.212-0.354-1.482-0.558c-0.271-0.202-0.407-0.488-0.407-0.857
		c0-0.383,0.163-0.694,0.489-0.934c0.325-0.239,0.757-0.358,1.295-0.358c0.552,0,1.008,0.144,1.371,0.431
		c0.361,0.287,0.543,0.646,0.543,1.08h0.82c0-0.656-0.25-1.188-0.748-1.597c-0.5-0.407-1.161-0.611-1.986-0.611
		c-0.761,0-1.386,0.19-1.873,0.57c-0.487,0.381-0.731,0.862-0.731,1.446c0,0.369,0.088,0.684,0.263,0.943
		c0.176,0.26,0.445,0.479,0.807,0.659c0.363,0.181,0.872,0.34,1.528,0.479c0.656,0.14,1.147,0.332,1.474,0.578
		c0.325,0.246,0.488,0.571,0.488,0.978c0,0.383-0.176,0.699-0.526,0.95c-0.351,0.25-0.812,0.376-1.381,0.376
		c-0.61,0-1.102-0.134-1.474-0.4c-0.371-0.267-0.572-0.639-0.604-1.117h-0.82c0,0.638,0.268,1.165,0.804,1.582
		c0.535,0.417,1.233,0.626,2.095,0.626c0.812,0,1.469-0.188,1.972-0.561C182.193,202.702,182.445,202.203,182.445,201.579z"/>
	<path class="st2" d="M186.169,202.926c-0.347,0-0.594-0.101-0.741-0.302c-0.148-0.2-0.223-0.506-0.223-0.917v-4.934h1.531v-0.67
		h-1.531v-1.894h-0.82v1.894h-1.36v0.67h1.36v4.936c0,0.633,0.128,1.113,0.383,1.438c0.255,0.326,0.663,0.489,1.224,0.489
		c0.369,0,0.661-0.039,0.875-0.115l-0.034-0.664C186.527,202.902,186.306,202.926,186.169,202.926z"/>
	<path class="st2" d="M188.895,198.421c0.15-0.543,0.402-0.956,0.755-1.241c0.354-0.284,0.785-0.427,1.296-0.427
		c0.196,0,0.381,0.016,0.554,0.048l0.021-0.745c-0.132-0.06-0.312-0.089-0.54-0.089c-0.957,0-1.652,0.438-2.085,1.312l-0.014-1.176
		h-0.8v7.396h0.813V198.421z"/>
	<path class="st2" d="M197.2,202.563l0.014,0.937h0.793v-7.396h-0.82v5.353c-0.314,0.979-1.064,1.47-2.249,1.47
		c-1.14,0-1.709-0.704-1.709-2.112v-4.71h-0.813v4.812c0.009,0.897,0.219,1.575,0.629,2.033s1.01,0.688,1.798,0.688
		C195.921,203.637,196.708,203.278,197.2,202.563z"/>
	<path class="st2" d="M200.791,197.464c0.408-0.533,0.981-0.8,1.72-0.8c0.579,0,1.059,0.178,1.438,0.533
		c0.381,0.355,0.59,0.822,0.626,1.401h0.786c-0.036-0.789-0.318-1.425-0.844-1.907c-0.527-0.483-1.195-0.725-2.007-0.725
		c-0.638,0-1.195,0.152-1.671,0.458c-0.477,0.305-0.843,0.738-1.098,1.299s-0.383,1.205-0.383,1.935v0.246
		c0,1.139,0.283,2.046,0.852,2.721c0.566,0.674,1.336,1.012,2.307,1.012c0.492,0,0.953-0.105,1.385-0.314
		c0.43-0.21,0.775-0.5,1.035-0.872c0.26-0.371,0.401-0.782,0.424-1.233h-0.786c-0.032,0.51-0.24,0.926-0.626,1.247
		c-0.385,0.321-0.862,0.482-1.432,0.482c-0.743,0-1.318-0.265-1.727-0.793c-0.407-0.529-0.611-1.265-0.611-2.208v-0.239
		C200.179,198.744,200.383,197.997,200.791,197.464z"/>
	<path class="st2" d="M207.478,203.147c0.255,0.326,0.663,0.489,1.224,0.489c0.369,0,0.661-0.039,0.875-0.115l-0.034-0.664
		c-0.306,0.045-0.526,0.068-0.663,0.068c-0.347,0-0.594-0.101-0.741-0.302c-0.148-0.2-0.223-0.506-0.223-0.917v-4.934h1.531v-0.67
		h-1.531v-1.894h-0.82v1.894h-1.36v0.67h1.36v4.936C207.095,202.342,207.223,202.822,207.478,203.147z"/>
	<rect x="210.888" y="196.104" class="st2" width="0.82" height="7.396"/>
	<path class="st2" d="M211.873,193.967c0-0.153-0.051-0.284-0.154-0.391c-0.102-0.106-0.24-0.159-0.413-0.159
		s-0.31,0.053-0.41,0.159s-0.15,0.237-0.15,0.391c0,0.154,0.05,0.283,0.15,0.388c0.101,0.104,0.237,0.156,0.41,0.156
		s0.312-0.053,0.413-0.156C211.822,194.25,211.873,194.121,211.873,193.967z"/>
	<path class="st2" d="M218.153,203.172c0.501-0.311,0.89-0.751,1.165-1.323c0.276-0.571,0.414-1.216,0.414-1.931v-0.171
		c0-1.14-0.306-2.055-0.916-2.745s-1.408-1.035-2.393-1.035c-0.638,0-1.209,0.158-1.713,0.475c-0.503,0.317-0.893,0.76-1.168,1.33
		c-0.276,0.569-0.414,1.21-0.414,1.921v0.164c0,1.139,0.307,2.054,0.92,2.744c0.612,0.69,1.409,1.036,2.389,1.036
		C217.08,203.637,217.652,203.481,218.153,203.172z M214.636,202.095c-0.459-0.567-0.688-1.293-0.688-2.177v-0.15
		c0-0.926,0.23-1.674,0.69-2.246c0.46-0.571,1.055-0.857,1.784-0.857c0.487,0,0.921,0.129,1.299,0.386
		c0.378,0.258,0.672,0.621,0.882,1.091c0.21,0.469,0.314,0.986,0.314,1.552v0.157c0,0.93-0.229,1.678-0.687,2.245
		c-0.459,0.567-1.057,0.852-1.795,0.852C215.694,202.946,215.093,202.662,214.636,202.095z"/>
	<path class="st2" d="M226.649,203.5v-4.854c-0.005-0.894-0.2-1.563-0.588-2.01c-0.388-0.447-0.978-0.67-1.771-0.67
		c-0.501,0-0.959,0.119-1.374,0.358s-0.761,0.587-1.039,1.043l-0.027-1.265h-0.779v7.396h0.813v-5.065
		c0.187-0.538,0.476-0.965,0.864-1.282c0.391-0.316,0.838-0.475,1.344-0.475c0.606,0,1.047,0.161,1.322,0.485
		c0.276,0.323,0.416,0.815,0.421,1.477v4.86H226.649z"/>
	<path class="st2" d="M231.433,199.2c-1.071,0-1.906,0.209-2.506,0.629c-0.599,0.419-0.898,0.988-0.898,1.709
		c0,0.605,0.22,1.107,0.66,1.504c0.439,0.396,1.015,0.595,1.726,0.595c0.497,0,0.968-0.102,1.411-0.305
		c0.445-0.202,0.811-0.491,1.098-0.864c0.022,0.455,0.075,0.8,0.157,1.032h0.875v-0.082c-0.15-0.355-0.226-0.892-0.226-1.606v-3.5
		c-0.014-0.738-0.259-1.313-0.734-1.727c-0.477-0.412-1.127-0.618-1.952-0.618c-0.798,0-1.47,0.215-2.017,0.646
		s-0.82,0.94-0.82,1.528l0.82,0.007c0-0.41,0.187-0.762,0.561-1.053c0.374-0.292,0.846-0.438,1.415-0.438
		c0.624,0,1.1,0.151,1.425,0.454c0.326,0.304,0.489,0.719,0.489,1.248v0.841H231.433z M232.917,201.456
		c-0.196,0.441-0.509,0.795-0.94,1.06c-0.43,0.264-0.919,0.396-1.466,0.396c-0.492,0-0.892-0.137-1.2-0.41
		c-0.307-0.273-0.461-0.618-0.461-1.032c0-0.506,0.23-0.903,0.69-1.193c0.46-0.289,1.099-0.438,1.914-0.447h1.463V201.456z"/>
	<rect x="235.656" y="193" class="st2" width="0.82" height="10.5"/>
	<path class="st2" d="M241.395,193v10.5h0.766l0.034-1.012c0.528,0.766,1.308,1.148,2.338,1.148c0.861,0,1.547-0.339,2.058-1.016
		s0.766-1.592,0.766-2.744v-0.123c0-1.189-0.254-2.118-0.763-2.786c-0.508-0.667-1.199-1.001-2.074-1.001
		c-1.021,0-1.791,0.403-2.311,1.21V193H241.395z M243.036,197.063c0.364-0.257,0.809-0.386,1.333-0.386
		c0.688,0,1.222,0.266,1.6,0.796c0.378,0.531,0.567,1.284,0.567,2.26c0,1.062-0.19,1.859-0.571,2.393
		c-0.38,0.533-0.907,0.8-1.582,0.8c-1.039,0-1.764-0.465-2.174-1.395v-3.336C242.395,197.698,242.671,197.321,243.036,197.063z"/>
	<rect x="248.907" y="193" class="st2" width="0.82" height="10.5"/>
	<path class="st2" d="M256.172,203.172c0.501-0.311,0.89-0.751,1.165-1.323c0.276-0.571,0.414-1.216,0.414-1.931v-0.171
		c0-1.14-0.306-2.055-0.916-2.745s-1.408-1.035-2.393-1.035c-0.638,0-1.209,0.158-1.713,0.475c-0.503,0.317-0.893,0.76-1.168,1.33
		c-0.276,0.569-0.414,1.21-0.414,1.921v0.164c0,1.139,0.307,2.054,0.92,2.744c0.612,0.69,1.409,1.036,2.389,1.036
		C255.099,203.637,255.671,203.481,256.172,203.172z M252.655,202.095c-0.459-0.567-0.688-1.293-0.688-2.177v-0.15
		c0-0.926,0.23-1.674,0.69-2.246c0.46-0.571,1.055-0.857,1.784-0.857c0.487,0,0.921,0.129,1.299,0.386
		c0.378,0.258,0.672,0.621,0.882,1.091c0.21,0.469,0.314,0.986,0.314,1.552v0.157c0,0.93-0.229,1.678-0.687,2.245
		c-0.459,0.567-1.057,0.852-1.795,0.852C253.713,202.946,253.112,202.662,252.655,202.095z"/>
	<path class="st2" d="M264.243,202.45c0.26-0.371,0.401-0.782,0.424-1.233h-0.786c-0.032,0.51-0.24,0.926-0.626,1.247
		c-0.385,0.321-0.862,0.482-1.432,0.482c-0.743,0-1.318-0.265-1.727-0.793c-0.407-0.529-0.611-1.265-0.611-2.208v-0.239
		c0-0.962,0.204-1.709,0.611-2.242c0.408-0.533,0.981-0.8,1.72-0.8c0.579,0,1.059,0.178,1.438,0.533
		c0.381,0.355,0.59,0.822,0.626,1.401h0.786c-0.036-0.789-0.318-1.425-0.844-1.907c-0.527-0.483-1.195-0.725-2.007-0.725
		c-0.638,0-1.195,0.152-1.671,0.458c-0.477,0.305-0.843,0.738-1.098,1.299s-0.383,1.205-0.383,1.935v0.246
		c0,1.139,0.283,2.046,0.852,2.721c0.566,0.674,1.336,1.012,2.307,1.012c0.492,0,0.953-0.105,1.385-0.314
		C263.638,203.112,263.983,202.822,264.243,202.45z"/>
	<polygon class="st2" points="271.68,203.5 268.269,199.221 271.406,196.104 270.374,196.104 267.544,198.886 266.771,199.72 
		266.771,193 265.951,193 265.951,203.5 266.771,203.5 266.771,200.677 267.708,199.774 270.702,203.5 	"/>
	<path class="st2" d="M273.407,194.025c-0.487-0.771-1.019-1.331-1.593-1.682l-0.198,0.526c0.438,0.314,0.849,0.816,1.233,1.507
		c0.386,0.69,0.688,1.475,0.906,2.352c0.219,0.878,0.328,1.788,0.328,2.731c0,1.043-0.109,2.011-0.328,2.901
		c-0.219,0.892-0.519,1.672-0.898,2.342c-0.381,0.67-0.795,1.164-1.241,1.483l0.198,0.526c0.588-0.355,1.126-0.919,1.613-1.688
		c0.487-0.771,0.855-1.619,1.104-2.547c0.249-0.927,0.373-1.893,0.373-2.895c0-1.058-0.128-2.056-0.383-2.994
		C274.267,195.649,273.895,194.795,273.407,194.025z"/>
	<path class="st2" d="M280.173,201.709c0,0.633,0.128,1.113,0.383,1.438c0.255,0.326,0.663,0.489,1.224,0.489
		c0.369,0,0.661-0.039,0.875-0.115l-0.034-0.664c-0.306,0.045-0.526,0.068-0.663,0.068c-0.347,0-0.594-0.101-0.741-0.302
		c-0.148-0.2-0.223-0.506-0.223-0.917v-4.934h1.531v-0.67h-1.531v-1.894h-0.82v1.894h-1.36v0.67h1.36V201.709z"/>
	<path class="st2" d="M288.634,198.64v4.86h0.813v-4.854c-0.005-0.894-0.2-1.563-0.588-2.01c-0.388-0.447-0.978-0.67-1.771-0.67
		c-0.497,0-0.955,0.12-1.374,0.362c-0.419,0.241-0.764,0.583-1.032,1.025V193h-0.813v10.5h0.813v-5.065
		c0.187-0.538,0.476-0.965,0.864-1.282c0.391-0.316,0.838-0.475,1.344-0.475c0.606,0,1.047,0.161,1.322,0.485
		C288.489,197.486,288.629,197.979,288.634,198.64z"/>
	<path class="st2" d="M296.521,198.312c-0.014-0.738-0.259-1.313-0.734-1.727c-0.477-0.412-1.127-0.618-1.952-0.618
		c-0.798,0-1.47,0.215-2.017,0.646s-0.82,0.94-0.82,1.528l0.82,0.007c0-0.41,0.187-0.762,0.561-1.053
		c0.374-0.292,0.846-0.438,1.415-0.438c0.624,0,1.1,0.151,1.425,0.454c0.326,0.304,0.489,0.719,0.489,1.248v0.841h-1.483
		c-1.071,0-1.906,0.209-2.506,0.629c-0.599,0.419-0.898,0.988-0.898,1.709c0,0.605,0.22,1.107,0.66,1.504
		c0.439,0.396,1.015,0.595,1.726,0.595c0.497,0,0.968-0.102,1.411-0.305c0.445-0.202,0.811-0.491,1.098-0.864
		c0.022,0.455,0.075,0.8,0.157,1.032h0.875v-0.082c-0.15-0.355-0.226-0.892-0.226-1.606V198.312z M295.708,201.456
		c-0.196,0.441-0.509,0.795-0.94,1.06c-0.43,0.264-0.919,0.396-1.466,0.396c-0.492,0-0.892-0.137-1.2-0.41
		c-0.307-0.273-0.461-0.618-0.461-1.032c0-0.506,0.23-0.903,0.69-1.193c0.46-0.289,1.099-0.438,1.914-0.447h1.463V201.456z"/>
	<path class="st2" d="M301.284,203.521l-0.034-0.664c-0.306,0.045-0.526,0.068-0.663,0.068c-0.347,0-0.594-0.101-0.741-0.302
		c-0.148-0.2-0.223-0.506-0.223-0.917v-4.934h1.531v-0.67h-1.531v-1.894h-0.82v1.894h-1.36v0.67h1.36v4.936
		c0,0.633,0.128,1.113,0.383,1.438c0.255,0.326,0.663,0.489,1.224,0.489C300.778,203.637,301.07,203.598,301.284,203.521z"/>
	<path class="st2" d="M311.037,202.331l-0.513-0.39c-0.273,0.351-0.577,0.605-0.913,0.766c-0.334,0.159-0.721,0.239-1.158,0.239
		c-0.729,0-1.334-0.279-1.814-0.838c-0.481-0.558-0.722-1.257-0.722-2.095v-0.157h5.277v-0.458c0-1.062-0.263-1.899-0.79-2.513
		c-0.525-0.612-1.238-0.919-2.136-0.919c-0.574,0-1.107,0.163-1.6,0.488c-0.492,0.326-0.876,0.773-1.151,1.344
		c-0.276,0.569-0.414,1.21-0.414,1.921v0.294c0,0.688,0.142,1.309,0.424,1.862s0.678,0.985,1.186,1.296
		c0.509,0.31,1.077,0.465,1.706,0.465C309.562,203.637,310.436,203.201,311.037,202.331z M306.713,197.341
		c0.422-0.451,0.94-0.677,1.556-0.677c0.62,0,1.121,0.223,1.504,0.67c0.383,0.446,0.586,1.025,0.608,1.736v0.089h-4.437
		C306.035,198.397,306.292,197.792,306.713,197.341z"/>
	<path class="st2" d="M316.78,197.163c0.276,0.323,0.416,0.815,0.421,1.477v4.86h0.813v-4.854c-0.005-0.894-0.2-1.563-0.588-2.01
		c-0.388-0.447-0.978-0.67-1.771-0.67c-0.501,0-0.959,0.119-1.374,0.358s-0.761,0.587-1.039,1.043l-0.027-1.265h-0.779v7.396h0.813
		v-5.065c0.187-0.538,0.476-0.965,0.864-1.282c0.391-0.316,0.838-0.475,1.344-0.475C316.064,196.678,316.505,196.839,316.78,197.163
		z"/>
	<path class="st2" d="M322.799,199.2c-1.071,0-1.906,0.209-2.506,0.629c-0.599,0.419-0.898,0.988-0.898,1.709
		c0,0.605,0.22,1.107,0.66,1.504c0.439,0.396,1.015,0.595,1.726,0.595c0.497,0,0.968-0.102,1.411-0.305
		c0.445-0.202,0.811-0.491,1.098-0.864c0.022,0.455,0.075,0.8,0.157,1.032h0.875v-0.082c-0.15-0.355-0.226-0.892-0.226-1.606v-3.5
		c-0.014-0.738-0.259-1.313-0.734-1.727c-0.477-0.412-1.127-0.618-1.952-0.618c-0.798,0-1.47,0.215-2.017,0.646
		s-0.82,0.94-0.82,1.528l0.82,0.007c0-0.41,0.187-0.762,0.561-1.053c0.374-0.292,0.846-0.438,1.415-0.438
		c0.624,0,1.1,0.151,1.425,0.454c0.326,0.304,0.489,0.719,0.489,1.248v0.841H322.799z M324.282,201.456
		c-0.196,0.441-0.509,0.795-0.94,1.06c-0.43,0.264-0.919,0.396-1.466,0.396c-0.492,0-0.892-0.137-1.2-0.41
		c-0.307-0.273-0.461-0.618-0.461-1.032c0-0.506,0.23-0.903,0.69-1.193c0.46-0.289,1.099-0.438,1.914-0.447h1.463V201.456z"/>
	<path class="st2" d="M332.114,202.621c0.511-0.677,0.766-1.592,0.766-2.744v-0.123c0-1.189-0.254-2.118-0.763-2.786
		c-0.508-0.667-1.199-1.001-2.074-1.001c-1.021,0-1.791,0.403-2.311,1.21V193h-0.813v10.5h0.766l0.034-1.012
		c0.528,0.766,1.308,1.148,2.338,1.148C330.918,203.637,331.604,203.298,332.114,202.621z M329.906,202.926
		c-1.039,0-1.764-0.465-2.174-1.395v-3.336c0.187-0.497,0.463-0.874,0.827-1.132c0.364-0.257,0.809-0.386,1.333-0.386
		c0.688,0,1.222,0.266,1.6,0.796c0.378,0.531,0.567,1.284,0.567,2.26c0,1.062-0.19,1.859-0.571,2.393
		C331.108,202.659,330.581,202.926,329.906,202.926z"/>
	<rect x="334.431" y="193" class="st2" width="0.82" height="10.5"/>
	<path class="st2" d="M342.605,202.331l-0.513-0.39c-0.273,0.351-0.577,0.605-0.913,0.766c-0.334,0.159-0.721,0.239-1.158,0.239
		c-0.729,0-1.334-0.279-1.814-0.838c-0.481-0.558-0.722-1.257-0.722-2.095v-0.157h5.277v-0.458c0-1.062-0.263-1.899-0.79-2.513
		c-0.525-0.612-1.238-0.919-2.136-0.919c-0.574,0-1.107,0.163-1.6,0.488c-0.492,0.326-0.876,0.773-1.151,1.344
		c-0.276,0.569-0.414,1.21-0.414,1.921v0.294c0,0.688,0.142,1.309,0.424,1.862s0.678,0.985,1.186,1.296
		c0.509,0.31,1.077,0.465,1.706,0.465C341.131,203.637,342.004,203.201,342.605,202.331z M338.281,197.341
		c0.422-0.451,0.94-0.677,1.556-0.677c0.62,0,1.121,0.223,1.504,0.67c0.383,0.446,0.586,1.025,0.608,1.736v0.089h-4.437
		C337.604,198.397,337.86,197.792,338.281,197.341z"/>
	<path class="st2" d="M348.198,199.911c-0.357-0.191-0.895-0.372-1.613-0.54c-0.717-0.169-1.212-0.354-1.482-0.558
		c-0.271-0.202-0.407-0.488-0.407-0.857c0-0.383,0.163-0.694,0.489-0.934c0.325-0.239,0.757-0.358,1.295-0.358
		c0.552,0,1.008,0.144,1.371,0.431c0.361,0.287,0.543,0.646,0.543,1.08h0.82c0-0.656-0.25-1.188-0.748-1.597
		c-0.5-0.407-1.161-0.611-1.986-0.611c-0.761,0-1.386,0.19-1.873,0.57c-0.487,0.381-0.731,0.862-0.731,1.446
		c0,0.369,0.088,0.684,0.263,0.943c0.176,0.26,0.445,0.479,0.807,0.659c0.363,0.181,0.872,0.34,1.528,0.479
		c0.656,0.14,1.147,0.332,1.474,0.578c0.325,0.246,0.488,0.571,0.488,0.978c0,0.383-0.176,0.699-0.526,0.95
		c-0.351,0.25-0.812,0.376-1.381,0.376c-0.61,0-1.102-0.134-1.474-0.4c-0.371-0.267-0.572-0.639-0.604-1.117h-0.82
		c0,0.638,0.268,1.165,0.804,1.582c0.535,0.417,1.233,0.626,2.095,0.626c0.812,0,1.469-0.188,1.972-0.561
		c0.504-0.374,0.756-0.873,0.756-1.497c0-0.383-0.087-0.709-0.26-0.978C348.822,200.332,348.557,200.103,348.198,199.911z"/>
	<path class="st2" d="M356.143,202.324l-2.297-6.221h-0.896l2.789,7.335l-0.362,0.998c-0.173,0.482-0.384,0.823-0.632,1.021
		c-0.249,0.198-0.573,0.298-0.975,0.298l-0.424-0.041l0.007,0.677c0.224,0.063,0.433,0.096,0.629,0.096
		c0.848,0,1.475-0.449,1.88-1.347l0.164-0.383l3.158-8.654h-0.882L356.143,202.324z"/>
	<path class="st2" d="M364.57,203.172c0.501-0.311,0.89-0.751,1.165-1.323c0.276-0.571,0.414-1.216,0.414-1.931v-0.171
		c0-1.14-0.306-2.055-0.916-2.745s-1.408-1.035-2.393-1.035c-0.638,0-1.209,0.158-1.713,0.475c-0.503,0.317-0.893,0.76-1.168,1.33
		c-0.276,0.569-0.414,1.21-0.414,1.921v0.164c0,1.139,0.307,2.054,0.92,2.744c0.612,0.69,1.409,1.036,2.389,1.036
		C363.497,203.637,364.069,203.481,364.57,203.172z M361.054,202.095c-0.459-0.567-0.688-1.293-0.688-2.177v-0.15
		c0-0.926,0.23-1.674,0.69-2.246c0.46-0.571,1.055-0.857,1.784-0.857c0.487,0,0.921,0.129,1.299,0.386
		c0.378,0.258,0.672,0.621,0.882,1.091c0.21,0.469,0.314,0.986,0.314,1.552v0.157c0,0.93-0.229,1.678-0.687,2.245
		c-0.459,0.567-1.057,0.852-1.795,0.852C362.111,202.946,361.511,202.662,361.054,202.095z"/>
	<path class="st2" d="M369.888,203.637c1.08,0,1.866-0.358,2.358-1.073l0.014,0.937h0.793v-7.396h-0.82v5.353
		c-0.314,0.979-1.064,1.47-2.249,1.47c-1.14,0-1.709-0.704-1.709-2.112v-4.71h-0.813v4.812c0.009,0.897,0.219,1.575,0.629,2.033
		S369.1,203.637,369.888,203.637z"/>
	<path class="st2" d="M375.642,197.279l-0.014-1.176h-0.8v7.396h0.813v-5.079c0.15-0.543,0.402-0.956,0.755-1.241
		c0.354-0.284,0.785-0.427,1.296-0.427c0.196,0,0.381,0.016,0.554,0.048l0.021-0.745c-0.132-0.06-0.312-0.089-0.54-0.089
		C376.77,195.967,376.074,196.404,375.642,197.279z"/>
	<path class="st2" d="M386.436,199.911c-0.357-0.191-0.895-0.372-1.613-0.54c-0.717-0.169-1.212-0.354-1.482-0.558
		c-0.271-0.202-0.407-0.488-0.407-0.857c0-0.383,0.163-0.694,0.489-0.934c0.325-0.239,0.757-0.358,1.295-0.358
		c0.552,0,1.008,0.144,1.371,0.431c0.361,0.287,0.543,0.646,0.543,1.08h0.82c0-0.656-0.25-1.188-0.748-1.597
		c-0.5-0.407-1.161-0.611-1.986-0.611c-0.761,0-1.386,0.19-1.873,0.57c-0.487,0.381-0.731,0.862-0.731,1.446
		c0,0.369,0.088,0.684,0.263,0.943c0.176,0.26,0.445,0.479,0.807,0.659c0.363,0.181,0.872,0.34,1.528,0.479
		c0.656,0.14,1.147,0.332,1.474,0.578c0.325,0.246,0.488,0.571,0.488,0.978c0,0.383-0.176,0.699-0.526,0.95
		c-0.351,0.25-0.812,0.376-1.381,0.376c-0.61,0-1.102-0.134-1.474-0.4c-0.371-0.267-0.572-0.639-0.604-1.117h-0.82
		c0,0.638,0.268,1.165,0.804,1.582c0.535,0.417,1.233,0.626,2.095,0.626c0.812,0,1.469-0.188,1.972-0.561
		c0.504-0.374,0.756-0.873,0.756-1.497c0-0.383-0.087-0.709-0.26-0.978C387.06,200.332,386.794,200.103,386.436,199.911z"/>
	<path class="st2" d="M391.914,203.521l-0.034-0.664c-0.306,0.045-0.526,0.068-0.663,0.068c-0.347,0-0.594-0.101-0.741-0.302
		c-0.148-0.2-0.223-0.506-0.223-0.917v-4.934h1.531v-0.67h-1.531v-1.894h-0.82v1.894h-1.36v0.67h1.36v4.936
		c0,0.633,0.128,1.113,0.383,1.438c0.255,0.326,0.663,0.489,1.224,0.489C391.408,203.637,391.7,203.598,391.914,203.521z"/>
	<path class="st2" d="M398.694,203.5v-7.396h-0.82v5.353c-0.314,0.979-1.064,1.47-2.249,1.47c-1.14,0-1.709-0.704-1.709-2.112v-4.71
		h-0.813v4.812c0.009,0.897,0.219,1.575,0.629,2.033s1.01,0.688,1.798,0.688c1.08,0,1.866-0.358,2.358-1.073l0.014,0.937H398.694z"
		/>
	<path class="st2" d="M405.282,197.149c-0.524-0.789-1.285-1.183-2.283-1.183c-0.88,0-1.576,0.341-2.088,1.021
		c-0.514,0.682-0.77,1.597-0.77,2.745v0.096c0,1.166,0.261,2.093,0.783,2.778c0.521,0.687,1.208,1.029,2.061,1.029
		c1.017,0,1.786-0.374,2.311-1.121l0.034,0.984h0.766V193h-0.813V197.149z M405.282,201.593c-0.424,0.889-1.14,1.333-2.146,1.333
		c-0.688,0-1.222-0.272-1.6-0.817c-0.378-0.544-0.567-1.288-0.567-2.231c0-1.053,0.191-1.85,0.574-2.39s0.918-0.81,1.606-0.81
		c0.998,0,1.709,0.48,2.133,1.442V201.593z"/>
	<path class="st2" d="M407.862,197.799c-0.276,0.569-0.414,1.21-0.414,1.921v0.294c0,0.688,0.142,1.309,0.424,1.862
		s0.678,0.985,1.186,1.296c0.509,0.31,1.077,0.465,1.706,0.465c1.144,0,2.017-0.436,2.618-1.306l-0.513-0.39
		c-0.273,0.351-0.577,0.605-0.913,0.766c-0.334,0.159-0.721,0.239-1.158,0.239c-0.729,0-1.334-0.279-1.814-0.838
		c-0.481-0.558-0.722-1.257-0.722-2.095v-0.157h5.277v-0.458c0-1.062-0.263-1.899-0.79-2.513c-0.525-0.612-1.238-0.919-2.136-0.919
		c-0.574,0-1.107,0.163-1.6,0.488C408.521,196.781,408.138,197.229,407.862,197.799z M410.613,196.664
		c0.62,0,1.121,0.223,1.504,0.67c0.383,0.446,0.586,1.025,0.608,1.736v0.089h-4.437c0.091-0.762,0.348-1.367,0.769-1.818
		C409.479,196.89,409.998,196.664,410.613,196.664z"/>
	<path class="st2" d="M418.001,195.967c-0.501,0-0.959,0.119-1.374,0.358s-0.761,0.587-1.039,1.043l-0.027-1.265h-0.779v7.396h0.813
		v-5.065c0.187-0.538,0.476-0.965,0.864-1.282c0.391-0.316,0.838-0.475,1.344-0.475c0.606,0,1.047,0.161,1.322,0.485
		c0.276,0.323,0.416,0.815,0.421,1.477v4.86h0.813v-4.854c-0.005-0.894-0.2-1.563-0.588-2.01
		C419.384,196.189,418.794,195.967,418.001,195.967z"/>
	<path class="st2" d="M422.573,201.709c0,0.633,0.128,1.113,0.383,1.438c0.255,0.326,0.663,0.489,1.224,0.489
		c0.369,0,0.661-0.039,0.875-0.115l-0.034-0.664c-0.306,0.045-0.526,0.068-0.663,0.068c-0.347,0-0.594-0.101-0.741-0.302
		c-0.148-0.2-0.223-0.506-0.223-0.917v-4.934h1.531v-0.67h-1.531v-1.894h-0.82v1.894h-1.36v0.67h1.36V201.709z"/>
	<path class="st2" d="M430.174,202.57c-0.351,0.25-0.812,0.376-1.381,0.376c-0.61,0-1.102-0.134-1.474-0.4
		c-0.371-0.267-0.572-0.639-0.604-1.117h-0.82c0,0.638,0.268,1.165,0.804,1.582c0.535,0.417,1.233,0.626,2.095,0.626
		c0.812,0,1.469-0.188,1.972-0.561c0.504-0.374,0.756-0.873,0.756-1.497c0-0.383-0.087-0.709-0.26-0.978
		c-0.173-0.27-0.438-0.499-0.797-0.69c-0.357-0.191-0.895-0.372-1.613-0.54c-0.717-0.169-1.212-0.354-1.482-0.558
		c-0.271-0.202-0.407-0.488-0.407-0.857c0-0.383,0.163-0.694,0.489-0.934c0.325-0.239,0.757-0.358,1.295-0.358
		c0.552,0,1.008,0.144,1.371,0.431c0.361,0.287,0.543,0.646,0.543,1.08h0.82c0-0.656-0.25-1.188-0.748-1.597
		c-0.5-0.407-1.161-0.611-1.986-0.611c-0.761,0-1.386,0.19-1.873,0.57c-0.487,0.381-0.731,0.862-0.731,1.446
		c0,0.369,0.088,0.684,0.263,0.943c0.176,0.26,0.445,0.479,0.807,0.659c0.363,0.181,0.872,0.34,1.528,0.479
		c0.656,0.14,1.147,0.332,1.474,0.578c0.325,0.246,0.488,0.571,0.488,0.978C430.7,202.003,430.524,202.319,430.174,202.57z"/>
	<path class="st2" d="M438.996,203.521l-0.034-0.664c-0.306,0.045-0.526,0.068-0.663,0.068c-0.347,0-0.594-0.101-0.741-0.302
		c-0.148-0.2-0.223-0.506-0.223-0.917v-4.934h1.531v-0.67h-1.531v-1.894h-0.82v1.894h-1.36v0.67h1.36v4.936
		c0,0.633,0.128,1.113,0.383,1.438c0.255,0.326,0.663,0.489,1.224,0.489C438.49,203.637,438.782,203.598,438.996,203.521z"/>
	<path class="st2" d="M442.932,203.637c0.643,0,1.215-0.155,1.716-0.465c0.501-0.311,0.89-0.751,1.165-1.323
		c0.276-0.571,0.414-1.216,0.414-1.931v-0.171c0-1.14-0.306-2.055-0.916-2.745s-1.408-1.035-2.393-1.035
		c-0.638,0-1.209,0.158-1.713,0.475c-0.503,0.317-0.893,0.76-1.168,1.33c-0.276,0.569-0.414,1.21-0.414,1.921v0.164
		c0,1.139,0.307,2.054,0.92,2.744C441.155,203.291,441.952,203.637,442.932,203.637z M440.443,199.768
		c0-0.926,0.23-1.674,0.69-2.246c0.46-0.571,1.055-0.857,1.784-0.857c0.487,0,0.921,0.129,1.299,0.386
		c0.378,0.258,0.672,0.621,0.882,1.091c0.21,0.469,0.314,0.986,0.314,1.552v0.157c0,0.93-0.229,1.678-0.687,2.245
		c-0.459,0.567-1.057,0.852-1.795,0.852c-0.743,0-1.344-0.284-1.801-0.852c-0.459-0.567-0.688-1.293-0.688-2.177V199.768z"/>
	<path class="st2" d="M169.781,215.967c-0.574,0-1.107,0.163-1.6,0.488c-0.492,0.326-0.876,0.773-1.151,1.344
		c-0.276,0.569-0.414,1.21-0.414,1.921v0.294c0,0.688,0.142,1.309,0.424,1.862s0.678,0.985,1.186,1.296
		c0.509,0.31,1.077,0.465,1.706,0.465c1.144,0,2.017-0.436,2.618-1.306l-0.513-0.39c-0.273,0.351-0.577,0.605-0.913,0.766
		c-0.334,0.159-0.721,0.239-1.158,0.239c-0.729,0-1.334-0.279-1.814-0.838c-0.481-0.558-0.722-1.257-0.722-2.095v-0.157h5.277
		v-0.458c0-1.062-0.263-1.899-0.79-2.513C171.391,216.273,170.678,215.967,169.781,215.967z M171.893,219.159h-4.437
		c0.091-0.762,0.348-1.367,0.769-1.818c0.422-0.451,0.94-0.677,1.556-0.677c0.62,0,1.121,0.223,1.504,0.67
		c0.383,0.446,0.586,1.025,0.608,1.736V219.159z"/>
	<polygon class="st2" points="174.175,223.5 176.281,220.369 178.386,223.5 179.35,223.5 176.732,219.733 179.241,216.104 
		178.27,216.104 176.274,219.104 174.278,216.104 173.314,216.104 175.823,219.733 173.211,223.5 	"/>
	<path class="st2" d="M181.214,222.57c0.538,0.711,1.312,1.066,2.324,1.066c0.856,0,1.54-0.339,2.051-1.016s0.766-1.592,0.766-2.744
		v-0.116c0-1.189-0.252-2.119-0.756-2.789c-0.503-0.67-1.197-1.005-2.081-1.005c-1.012,0-1.784,0.394-2.317,1.183l-0.041-1.046
		h-0.759v10.24h0.813V222.57z M181.214,218.093c0.191-0.461,0.467-0.812,0.827-1.053c0.36-0.242,0.791-0.362,1.292-0.362
		c0.692,0,1.232,0.273,1.62,0.82s0.581,1.292,0.581,2.235c0,1.043-0.192,1.84-0.578,2.389c-0.385,0.55-0.921,0.824-1.609,0.824
		c-0.497,0-0.928-0.112-1.292-0.335c-0.364-0.224-0.645-0.547-0.841-0.971V218.093z"/>
	<rect x="187.913" y="213" class="st2" width="0.82" height="10.5"/>
	<path class="st2" d="M193.461,223.637c0.643,0,1.215-0.155,1.716-0.465c0.501-0.311,0.89-0.751,1.165-1.323
		c0.276-0.571,0.414-1.216,0.414-1.931v-0.171c0-1.14-0.306-2.055-0.916-2.745s-1.408-1.035-2.393-1.035
		c-0.638,0-1.209,0.158-1.713,0.475c-0.503,0.317-0.893,0.76-1.168,1.33c-0.276,0.569-0.414,1.21-0.414,1.921v0.164
		c0,1.139,0.307,2.054,0.92,2.744C191.685,223.291,192.482,223.637,193.461,223.637z M190.973,219.768
		c0-0.926,0.23-1.674,0.69-2.246c0.46-0.571,1.055-0.857,1.784-0.857c0.487,0,0.921,0.129,1.299,0.386
		c0.378,0.258,0.672,0.621,0.882,1.091c0.21,0.469,0.314,0.986,0.314,1.552v0.157c0,0.93-0.229,1.678-0.687,2.245
		c-0.459,0.567-1.057,0.852-1.795,0.852c-0.743,0-1.344-0.284-1.801-0.852c-0.459-0.567-0.688-1.293-0.688-2.177V219.768z"/>
	<path class="st2" d="M201.534,216.056c-0.132-0.06-0.312-0.089-0.54-0.089c-0.957,0-1.652,0.438-2.085,1.312l-0.014-1.176h-0.8
		v7.396h0.813v-5.079c0.15-0.543,0.402-0.956,0.755-1.241c0.354-0.284,0.785-0.427,1.296-0.427c0.196,0,0.381,0.016,0.554,0.048
		L201.534,216.056z"/>
	<path class="st2" d="M205.04,215.967c-0.574,0-1.107,0.163-1.6,0.488c-0.492,0.326-0.876,0.773-1.151,1.344
		c-0.276,0.569-0.414,1.21-0.414,1.921v0.294c0,0.688,0.142,1.309,0.424,1.862s0.678,0.985,1.186,1.296
		c0.509,0.31,1.077,0.465,1.706,0.465c1.144,0,2.017-0.436,2.618-1.306l-0.513-0.39c-0.273,0.351-0.577,0.605-0.913,0.766
		c-0.334,0.159-0.721,0.239-1.158,0.239c-0.729,0-1.334-0.279-1.814-0.838c-0.481-0.558-0.722-1.257-0.722-2.095v-0.157h5.277
		v-0.458c0-1.062-0.263-1.899-0.79-2.513C206.65,216.273,205.937,215.967,205.04,215.967z M207.152,219.159h-4.437
		c0.091-0.762,0.348-1.367,0.769-1.818c0.422-0.451,0.94-0.677,1.556-0.677c0.62,0,1.121,0.223,1.504,0.67
		c0.383,0.446,0.586,1.025,0.608,1.736V219.159z"/>
	<path class="st2" d="M209.994,223.069v-0.854h-0.8v1.06c-0.014,0.597-0.228,1.173-0.643,1.729l0.485,0.355
		C209.674,224.78,209.994,224.017,209.994,223.069z"/>
	<rect x="214.687" y="216.104" class="st2" width="0.82" height="7.396"/>
	<path class="st2" d="M215.104,214.511c0.173,0,0.312-0.053,0.413-0.156c0.104-0.104,0.154-0.233,0.154-0.388
		c0-0.153-0.051-0.284-0.154-0.391c-0.102-0.106-0.24-0.159-0.413-0.159s-0.31,0.053-0.41,0.159s-0.15,0.237-0.15,0.391
		c0,0.154,0.05,0.283,0.15,0.388C214.794,214.458,214.931,214.511,215.104,214.511z"/>
	<path class="st2" d="M221.723,217.163c0.276,0.323,0.416,0.815,0.421,1.477v4.86h0.813v-4.854c-0.005-0.894-0.2-1.563-0.588-2.01
		c-0.388-0.447-0.978-0.67-1.771-0.67c-0.501,0-0.959,0.119-1.374,0.358s-0.761,0.587-1.039,1.043l-0.027-1.265h-0.779v7.396h0.813
		v-5.065c0.187-0.538,0.476-0.965,0.864-1.282c0.391-0.316,0.838-0.475,1.344-0.475
		C221.007,216.678,221.448,216.839,221.723,217.163z"/>
	<polygon class="st2" points="230.114,216.104 229.273,216.104 227.024,222.372 224.754,216.104 223.914,216.104 226.689,223.5 
		227.352,223.5 	"/>
	<path class="st2" d="M233.728,215.967c-0.574,0-1.107,0.163-1.6,0.488c-0.492,0.326-0.876,0.773-1.151,1.344
		c-0.276,0.569-0.414,1.21-0.414,1.921v0.294c0,0.688,0.142,1.309,0.424,1.862s0.678,0.985,1.186,1.296
		c0.509,0.31,1.077,0.465,1.706,0.465c1.144,0,2.017-0.436,2.618-1.306l-0.513-0.39c-0.273,0.351-0.577,0.605-0.913,0.766
		c-0.334,0.159-0.721,0.239-1.158,0.239c-0.729,0-1.334-0.279-1.814-0.838c-0.481-0.558-0.722-1.257-0.722-2.095v-0.157h5.277
		v-0.458c0-1.062-0.263-1.899-0.79-2.513C235.338,216.273,234.625,215.967,233.728,215.967z M235.84,219.159h-4.437
		c0.091-0.762,0.348-1.367,0.769-1.818c0.422-0.451,0.94-0.677,1.556-0.677c0.62,0,1.121,0.223,1.504,0.67
		c0.383,0.446,0.586,1.025,0.608,1.736V219.159z"/>
	<path class="st2" d="M241.117,215.967c-0.501,0-0.959,0.119-1.374,0.358s-0.761,0.587-1.039,1.043l-0.027-1.265h-0.779v7.396h0.813
		v-5.065c0.187-0.538,0.476-0.965,0.864-1.282c0.391-0.316,0.838-0.475,1.344-0.475c0.606,0,1.047,0.161,1.322,0.485
		c0.276,0.323,0.416,0.815,0.421,1.477v4.86h0.813v-4.854c-0.005-0.894-0.2-1.563-0.588-2.01
		C242.5,216.189,241.91,215.967,241.117,215.967z"/>
	<path class="st2" d="M247.472,222.926c-0.347,0-0.594-0.101-0.741-0.302c-0.148-0.2-0.223-0.506-0.223-0.917v-4.934h1.531v-0.67
		h-1.531v-1.894h-0.82v1.894h-1.36v0.67h1.36v4.936c0,0.633,0.128,1.113,0.383,1.438c0.255,0.326,0.663,0.489,1.224,0.489
		c0.369,0,0.661-0.039,0.875-0.115l-0.034-0.664C247.83,222.902,247.609,222.926,247.472,222.926z"/>
	<path class="st2" d="M249.372,223.274c-0.014,0.597-0.228,1.173-0.643,1.729l0.485,0.355c0.638-0.579,0.957-1.343,0.957-2.29
		v-0.854h-0.799V223.274z"/>
	<path class="st2" d="M260.087,218.312c-0.014-0.738-0.259-1.313-0.734-1.727c-0.477-0.412-1.127-0.618-1.952-0.618
		c-0.798,0-1.47,0.215-2.017,0.646s-0.82,0.94-0.82,1.528l0.82,0.007c0-0.41,0.187-0.762,0.561-1.053
		c0.374-0.292,0.846-0.438,1.415-0.438c0.624,0,1.1,0.151,1.425,0.454c0.326,0.304,0.489,0.719,0.489,1.248v0.841h-1.483
		c-1.071,0-1.906,0.209-2.506,0.629c-0.599,0.419-0.898,0.988-0.898,1.709c0,0.605,0.22,1.107,0.66,1.504
		c0.439,0.396,1.015,0.595,1.726,0.595c0.497,0,0.968-0.102,1.411-0.305c0.445-0.202,0.811-0.491,1.098-0.864
		c0.022,0.455,0.075,0.8,0.157,1.032h0.875v-0.082c-0.15-0.355-0.226-0.892-0.226-1.606V218.312z M259.273,221.456
		c-0.196,0.441-0.509,0.795-0.94,1.06c-0.43,0.264-0.919,0.396-1.466,0.396c-0.492,0-0.892-0.137-1.2-0.41
		c-0.307-0.273-0.461-0.618-0.461-1.032c0-0.506,0.23-0.903,0.69-1.193c0.46-0.289,1.099-0.438,1.914-0.447h1.463V221.456z"/>
	<path class="st2" d="M265.138,215.967c-0.501,0-0.959,0.119-1.374,0.358s-0.761,0.587-1.039,1.043l-0.027-1.265h-0.779v7.396h0.813
		v-5.065c0.187-0.538,0.476-0.965,0.864-1.282c0.391-0.316,0.838-0.475,1.344-0.475c0.606,0,1.047,0.161,1.322,0.485
		c0.276,0.323,0.416,0.815,0.421,1.477v4.86h0.813v-4.854c-0.005-0.894-0.2-1.563-0.588-2.01
		C266.521,216.189,265.931,215.967,265.138,215.967z"/>
	<path class="st2" d="M274.07,217.149c-0.524-0.789-1.285-1.183-2.283-1.183c-0.88,0-1.576,0.341-2.088,1.021
		c-0.514,0.682-0.77,1.597-0.77,2.745v0.096c0,1.166,0.261,2.093,0.783,2.778c0.521,0.687,1.208,1.029,2.061,1.029
		c1.017,0,1.786-0.374,2.311-1.121l0.034,0.984h0.766V213h-0.813V217.149z M274.07,221.593c-0.424,0.889-1.14,1.333-2.146,1.333
		c-0.688,0-1.222-0.272-1.6-0.817c-0.378-0.544-0.567-1.288-0.567-2.231c0-1.053,0.191-1.85,0.574-2.39s0.918-0.81,1.606-0.81
		c0.998,0,1.709,0.48,2.133,1.442V221.593z"/>
	<path class="st2" d="M282.859,215.967c-1.021,0-1.791,0.403-2.311,1.21V213h-0.813v10.5h0.766l0.034-1.012
		c0.528,0.766,1.308,1.148,2.338,1.148c0.861,0,1.547-0.339,2.058-1.016s0.766-1.592,0.766-2.744v-0.123
		c0-1.189-0.254-2.118-0.763-2.786C284.426,216.301,283.734,215.967,282.859,215.967z M284.305,222.126
		c-0.38,0.533-0.907,0.8-1.582,0.8c-1.039,0-1.764-0.465-2.174-1.395v-3.336c0.187-0.497,0.463-0.874,0.827-1.132
		c0.364-0.257,0.809-0.386,1.333-0.386c0.688,0,1.222,0.266,1.6,0.796c0.378,0.531,0.567,1.284,0.567,2.26
		C284.876,220.795,284.686,221.593,284.305,222.126z"/>
	<path class="st2" d="M291.895,221.456c-0.314,0.979-1.064,1.47-2.249,1.47c-1.14,0-1.709-0.704-1.709-2.112v-4.71h-0.813v4.812
		c0.009,0.897,0.219,1.575,0.629,2.033s1.01,0.688,1.798,0.688c1.08,0,1.866-0.358,2.358-1.073l0.014,0.937h0.793v-7.396h-0.82
		V221.456z"/>
	<rect x="294.587" y="216.104" class="st2" width="0.82" height="7.396"/>
	<path class="st2" d="M295.004,213.417c-0.173,0-0.31,0.053-0.41,0.159s-0.15,0.237-0.15,0.391c0,0.154,0.05,0.283,0.15,0.388
		c0.101,0.104,0.237,0.156,0.41,0.156s0.312-0.053,0.413-0.156c0.104-0.104,0.154-0.233,0.154-0.388
		c0-0.153-0.051-0.284-0.154-0.391C295.315,213.47,295.177,213.417,295.004,213.417z"/>
	<rect x="297.374" y="213" class="st2" width="0.82" height="10.5"/>
	<path class="st2" d="M304.879,217.149c-0.524-0.789-1.285-1.183-2.283-1.183c-0.88,0-1.576,0.341-2.088,1.021
		c-0.514,0.682-0.77,1.597-0.77,2.745v0.096c0,1.166,0.261,2.093,0.783,2.778c0.521,0.687,1.208,1.029,2.061,1.029
		c1.017,0,1.786-0.374,2.311-1.121l0.034,0.984h0.766V213h-0.813V217.149z M304.879,221.593c-0.424,0.889-1.14,1.333-2.146,1.333
		c-0.688,0-1.222-0.272-1.6-0.817c-0.378-0.544-0.567-1.288-0.567-2.231c0-1.053,0.191-1.85,0.574-2.39s0.918-0.81,1.606-0.81
		c0.998,0,1.709,0.48,2.133,1.442V221.593z"/>
	<path class="st2" d="M312.785,222.926c-0.347,0-0.594-0.101-0.741-0.302c-0.148-0.2-0.223-0.506-0.223-0.917v-4.934h1.531v-0.67
		h-1.531v-1.894h-0.82v1.894h-1.36v0.67h1.36v4.936c0,0.633,0.128,1.113,0.383,1.438c0.255,0.326,0.663,0.489,1.224,0.489
		c0.369,0,0.661-0.039,0.875-0.115l-0.034-0.664C313.143,222.902,312.922,222.926,312.785,222.926z"/>
	<path class="st2" d="M317.918,215.967c-0.497,0-0.955,0.12-1.374,0.362c-0.419,0.241-0.764,0.583-1.032,1.025V213h-0.813v10.5
		h0.813v-5.065c0.187-0.538,0.476-0.965,0.864-1.282c0.391-0.316,0.838-0.475,1.344-0.475c0.606,0,1.047,0.161,1.322,0.485
		c0.276,0.323,0.416,0.815,0.421,1.477v4.86h0.813v-4.854c-0.005-0.894-0.2-1.563-0.588-2.01
		C319.301,216.189,318.711,215.967,317.918,215.967z"/>
	<path class="st2" d="M324.745,215.967c-0.574,0-1.107,0.163-1.6,0.488c-0.492,0.326-0.876,0.773-1.151,1.344
		c-0.276,0.569-0.414,1.21-0.414,1.921v0.294c0,0.688,0.142,1.309,0.424,1.862s0.678,0.985,1.186,1.296
		c0.509,0.31,1.077,0.465,1.706,0.465c1.144,0,2.017-0.436,2.618-1.306l-0.513-0.39c-0.273,0.351-0.577,0.605-0.913,0.766
		c-0.334,0.159-0.721,0.239-1.158,0.239c-0.729,0-1.334-0.279-1.814-0.838c-0.481-0.558-0.722-1.257-0.722-2.095v-0.157h5.277
		v-0.458c0-1.062-0.263-1.899-0.79-2.513C326.355,216.273,325.643,215.967,324.745,215.967z M326.857,219.159h-4.437
		c0.091-0.762,0.348-1.367,0.769-1.818c0.422-0.451,0.94-0.677,1.556-0.677c0.62,0,1.121,0.223,1.504,0.67
		c0.383,0.446,0.586,1.025,0.608,1.736V219.159z"/>
	<path class="st2" d="M336.162,219.911c-0.357-0.191-0.895-0.372-1.613-0.54c-0.717-0.169-1.212-0.354-1.482-0.558
		c-0.271-0.202-0.407-0.488-0.407-0.857c0-0.383,0.163-0.694,0.489-0.934c0.325-0.239,0.757-0.358,1.295-0.358
		c0.552,0,1.008,0.144,1.371,0.431c0.361,0.287,0.543,0.646,0.543,1.08h0.82c0-0.656-0.25-1.188-0.748-1.597
		c-0.5-0.407-1.161-0.611-1.986-0.611c-0.761,0-1.386,0.19-1.873,0.57c-0.487,0.381-0.731,0.862-0.731,1.446
		c0,0.369,0.088,0.684,0.263,0.943c0.176,0.26,0.445,0.479,0.807,0.659c0.363,0.181,0.872,0.34,1.528,0.479
		c0.656,0.14,1.147,0.332,1.474,0.578c0.325,0.246,0.488,0.571,0.488,0.978c0,0.383-0.176,0.699-0.526,0.95
		c-0.351,0.25-0.812,0.376-1.381,0.376c-0.61,0-1.102-0.134-1.474-0.4c-0.371-0.267-0.572-0.639-0.604-1.117h-0.82
		c0,0.638,0.268,1.165,0.804,1.582c0.535,0.417,1.233,0.626,2.095,0.626c0.812,0,1.469-0.188,1.972-0.561
		c0.504-0.374,0.756-0.873,0.756-1.497c0-0.383-0.087-0.709-0.26-0.978C336.786,220.332,336.521,220.103,336.162,219.911z"/>
	<polygon class="st2" points="344.162,216.104 343.13,216.104 340.3,218.886 339.527,219.72 339.527,213 338.707,213 338.707,223.5 
		339.527,223.5 339.527,220.677 340.464,219.774 343.458,223.5 344.436,223.5 341.024,219.221 	"/>
	<rect x="345.31" y="216.104" class="st2" width="0.82" height="7.396"/>
	<path class="st2" d="M345.727,213.417c-0.173,0-0.31,0.053-0.41,0.159s-0.15,0.237-0.15,0.391c0,0.154,0.05,0.283,0.15,0.388
		c0.101,0.104,0.237,0.156,0.41,0.156s0.312-0.053,0.413-0.156c0.104-0.104,0.154-0.233,0.154-0.388
		c0-0.153-0.051-0.284-0.154-0.391C346.038,213.47,345.899,213.417,345.727,213.417z"/>
	<rect x="348.097" y="213" class="st2" width="0.82" height="10.5"/>
	<rect x="350.885" y="213" class="st2" width="0.82" height="10.5"/>
	<path class="st2" d="M357.771,219.911c-0.357-0.191-0.895-0.372-1.613-0.54c-0.717-0.169-1.212-0.354-1.482-0.558
		c-0.271-0.202-0.407-0.488-0.407-0.857c0-0.383,0.163-0.694,0.489-0.934c0.325-0.239,0.757-0.358,1.295-0.358
		c0.552,0,1.008,0.144,1.371,0.431c0.361,0.287,0.543,0.646,0.543,1.08h0.82c0-0.656-0.25-1.188-0.748-1.597
		c-0.5-0.407-1.161-0.611-1.986-0.611c-0.761,0-1.386,0.19-1.873,0.57c-0.487,0.381-0.731,0.862-0.731,1.446
		c0,0.369,0.088,0.684,0.263,0.943c0.176,0.26,0.445,0.479,0.807,0.659c0.363,0.181,0.872,0.34,1.528,0.479
		c0.656,0.14,1.147,0.332,1.474,0.578c0.325,0.246,0.488,0.571,0.488,0.978c0,0.383-0.176,0.699-0.526,0.95
		c-0.351,0.25-0.812,0.376-1.381,0.376c-0.61,0-1.102-0.134-1.474-0.4c-0.371-0.267-0.572-0.639-0.604-1.117h-0.82
		c0,0.638,0.268,1.165,0.804,1.582c0.535,0.417,1.233,0.626,2.095,0.626c0.812,0,1.469-0.188,1.972-0.561
		c0.504-0.374,0.756-0.873,0.756-1.497c0-0.383-0.087-0.709-0.26-0.978C358.395,220.332,358.129,220.103,357.771,219.911z"/>
	<path class="st2" d="M365.605,222.926c-0.347,0-0.594-0.101-0.741-0.302c-0.148-0.2-0.223-0.506-0.223-0.917v-4.934h1.531v-0.67
		h-1.531v-1.894h-0.82v1.894h-1.36v0.67h1.36v4.936c0,0.633,0.128,1.113,0.383,1.438c0.255,0.326,0.663,0.489,1.224,0.489
		c0.369,0,0.661-0.039,0.875-0.115l-0.034-0.664C365.963,222.902,365.742,222.926,365.605,222.926z"/>
	<path class="st2" d="M370.737,215.967c-0.497,0-0.955,0.12-1.374,0.362c-0.419,0.241-0.764,0.583-1.032,1.025V213h-0.813v10.5
		h0.813v-5.065c0.187-0.538,0.476-0.965,0.864-1.282c0.391-0.316,0.838-0.475,1.344-0.475c0.606,0,1.047,0.161,1.322,0.485
		c0.276,0.323,0.416,0.815,0.421,1.477v4.86h0.813v-4.854c-0.005-0.894-0.2-1.563-0.588-2.01
		C372.12,216.189,371.53,215.967,370.737,215.967z"/>
	<path class="st2" d="M377.565,215.967c-0.574,0-1.107,0.163-1.6,0.488c-0.492,0.326-0.876,0.773-1.151,1.344
		c-0.276,0.569-0.414,1.21-0.414,1.921v0.294c0,0.688,0.142,1.309,0.424,1.862s0.678,0.985,1.186,1.296
		c0.509,0.31,1.077,0.465,1.706,0.465c1.144,0,2.017-0.436,2.618-1.306l-0.513-0.39c-0.273,0.351-0.577,0.605-0.913,0.766
		c-0.334,0.159-0.721,0.239-1.158,0.239c-0.729,0-1.334-0.279-1.814-0.838c-0.481-0.558-0.722-1.257-0.722-2.095v-0.157h5.277
		v-0.458c0-1.062-0.263-1.899-0.79-2.513C379.176,216.273,378.463,215.967,377.565,215.967z M379.678,219.159h-4.437
		c0.091-0.762,0.348-1.367,0.769-1.818c0.422-0.451,0.94-0.677,1.556-0.677c0.62,0,1.121,0.223,1.504,0.67
		c0.383,0.446,0.586,1.025,0.608,1.736V219.159z"/>
	<path class="st2" d="M383.99,222.324l-2.297-6.221h-0.896l2.789,7.335l-0.362,0.998c-0.173,0.482-0.384,0.823-0.632,1.021
		c-0.249,0.198-0.573,0.298-0.975,0.298l-0.424-0.041l0.007,0.677c0.224,0.063,0.433,0.096,0.629,0.096
		c0.848,0,1.475-0.449,1.88-1.347l0.164-0.383l3.158-8.654h-0.882L383.99,222.324z"/>
	<path class="st2" d="M394.221,215.967c-0.501,0-0.959,0.119-1.374,0.358s-0.761,0.587-1.039,1.043l-0.027-1.265h-0.779v7.396h0.813
		v-5.065c0.187-0.538,0.476-0.965,0.864-1.282c0.391-0.316,0.838-0.475,1.344-0.475c0.606,0,1.047,0.161,1.322,0.485
		c0.276,0.323,0.416,0.815,0.421,1.477v4.86h0.813v-4.854c-0.005-0.894-0.2-1.563-0.588-2.01
		C395.604,216.189,395.014,215.967,394.221,215.967z"/>
	<path class="st2" d="M401.055,215.967c-0.574,0-1.107,0.163-1.6,0.488c-0.492,0.326-0.876,0.773-1.151,1.344
		c-0.276,0.569-0.414,1.21-0.414,1.921v0.294c0,0.688,0.142,1.309,0.424,1.862s0.678,0.985,1.186,1.296
		c0.509,0.31,1.077,0.465,1.706,0.465c1.144,0,2.017-0.436,2.618-1.306l-0.513-0.39c-0.273,0.351-0.577,0.605-0.913,0.766
		c-0.334,0.159-0.721,0.239-1.158,0.239c-0.729,0-1.334-0.279-1.814-0.838c-0.481-0.558-0.722-1.257-0.722-2.095v-0.157h5.277
		v-0.458c0-1.062-0.263-1.899-0.79-2.513C402.665,216.273,401.952,215.967,401.055,215.967z M403.167,219.159h-4.437
		c0.091-0.762,0.348-1.367,0.769-1.818c0.422-0.451,0.94-0.677,1.556-0.677c0.62,0,1.121,0.223,1.504,0.67
		c0.383,0.446,0.586,1.025,0.608,1.736V219.159z"/>
	<path class="st2" d="M407.938,215.967c-0.574,0-1.107,0.163-1.6,0.488c-0.492,0.326-0.876,0.773-1.151,1.344
		c-0.276,0.569-0.414,1.21-0.414,1.921v0.294c0,0.688,0.142,1.309,0.424,1.862s0.678,0.985,1.186,1.296
		c0.509,0.31,1.077,0.465,1.706,0.465c1.144,0,2.017-0.436,2.618-1.306l-0.513-0.39c-0.273,0.351-0.577,0.605-0.913,0.766
		c-0.334,0.159-0.721,0.239-1.158,0.239c-0.729,0-1.334-0.279-1.814-0.838c-0.481-0.558-0.722-1.257-0.722-2.095v-0.157h5.277
		v-0.458c0-1.062-0.263-1.899-0.79-2.513C409.548,216.273,408.835,215.967,407.938,215.967z M410.05,219.159h-4.437
		c0.091-0.762,0.348-1.367,0.769-1.818c0.422-0.451,0.94-0.677,1.556-0.677c0.62,0,1.121,0.223,1.504,0.67
		c0.383,0.446,0.586,1.025,0.608,1.736V219.159z"/>
	<path class="st2" d="M416.919,217.149c-0.524-0.789-1.285-1.183-2.283-1.183c-0.88,0-1.576,0.341-2.088,1.021
		c-0.514,0.682-0.77,1.597-0.77,2.745v0.096c0,1.166,0.261,2.093,0.783,2.778c0.521,0.687,1.208,1.029,2.061,1.029
		c1.017,0,1.786-0.374,2.311-1.121l0.034,0.984h0.766V213h-0.813V217.149z M416.919,221.593c-0.424,0.889-1.14,1.333-2.146,1.333
		c-0.688,0-1.222-0.272-1.6-0.817c-0.378-0.544-0.567-1.288-0.567-2.231c0-1.053,0.191-1.85,0.574-2.39s0.918-0.81,1.606-0.81
		c0.998,0,1.709,0.48,2.133,1.442V221.593z"/>
	<path class="st2" d="M424.825,222.926c-0.347,0-0.594-0.101-0.741-0.302c-0.148-0.2-0.223-0.506-0.223-0.917v-4.934h1.531v-0.67
		h-1.531v-1.894h-0.82v1.894h-1.36v0.67h1.36v4.936c0,0.633,0.128,1.113,0.383,1.438c0.255,0.326,0.663,0.489,1.224,0.489
		c0.369,0,0.661-0.039,0.875-0.115l-0.034-0.664C425.183,222.902,424.962,222.926,424.825,222.926z"/>
	<path class="st2" d="M429.444,215.967c-0.638,0-1.209,0.158-1.713,0.475c-0.503,0.317-0.893,0.76-1.168,1.33
		c-0.276,0.569-0.414,1.21-0.414,1.921v0.164c0,1.139,0.307,2.054,0.92,2.744c0.612,0.69,1.409,1.036,2.389,1.036
		c0.643,0,1.215-0.155,1.716-0.465c0.501-0.311,0.89-0.751,1.165-1.323c0.276-0.571,0.414-1.216,0.414-1.931v-0.171
		c0-1.14-0.306-2.055-0.916-2.745S430.429,215.967,429.444,215.967z M431.939,219.85c0,0.93-0.229,1.678-0.687,2.245
		c-0.459,0.567-1.057,0.852-1.795,0.852c-0.743,0-1.344-0.284-1.801-0.852c-0.459-0.567-0.688-1.293-0.688-2.177v-0.15
		c0-0.926,0.23-1.674,0.69-2.246c0.46-0.571,1.055-0.857,1.784-0.857c0.487,0,0.921,0.129,1.299,0.386
		c0.378,0.258,0.672,0.621,0.882,1.091c0.21,0.469,0.314,0.986,0.314,1.552V219.85z"/>
	<path class="st2" d="M440.264,215.967c-1.021,0-1.791,0.403-2.311,1.21V213h-0.813v10.5h0.766l0.034-1.012
		c0.528,0.766,1.308,1.148,2.338,1.148c0.861,0,1.547-0.339,2.058-1.016s0.766-1.592,0.766-2.744v-0.123
		c0-1.189-0.254-2.118-0.763-2.786C441.83,216.301,441.139,215.967,440.264,215.967z M441.709,222.126
		c-0.38,0.533-0.907,0.8-1.582,0.8c-1.039,0-1.764-0.465-2.174-1.395v-3.336c0.187-0.497,0.463-0.874,0.827-1.132
		c0.364-0.257,0.809-0.386,1.333-0.386c0.688,0,1.222,0.266,1.6,0.796c0.378,0.531,0.567,1.284,0.567,2.26
		C442.28,220.795,442.09,221.593,441.709,222.126z"/>
	<path class="st2" d="M450.194,219.856v-0.458c0-1.062-0.263-1.899-0.79-2.513c-0.525-0.612-1.238-0.919-2.136-0.919
		c-0.574,0-1.107,0.163-1.6,0.488c-0.492,0.326-0.876,0.773-1.151,1.344c-0.276,0.569-0.414,1.21-0.414,1.921v0.294
		c0,0.688,0.142,1.309,0.424,1.862s0.678,0.985,1.186,1.296c0.509,0.31,1.077,0.465,1.706,0.465c1.144,0,2.017-0.436,2.618-1.306
		l-0.513-0.39c-0.273,0.351-0.577,0.605-0.913,0.766c-0.334,0.159-0.721,0.239-1.158,0.239c-0.729,0-1.334-0.279-1.814-0.838
		c-0.481-0.558-0.722-1.257-0.722-2.095v-0.157H450.194z M445.713,217.341c0.422-0.451,0.94-0.677,1.556-0.677
		c0.62,0,1.121,0.223,1.504,0.67c0.383,0.446,0.586,1.025,0.608,1.736v0.089h-4.437
		C445.035,218.397,445.292,217.792,445.713,217.341z"/>
	<path class="st2" d="M171.26,239.911c-0.357-0.191-0.895-0.372-1.613-0.54c-0.717-0.169-1.212-0.354-1.482-0.558
		c-0.271-0.202-0.407-0.488-0.407-0.857c0-0.383,0.163-0.694,0.489-0.934c0.325-0.239,0.757-0.358,1.295-0.358
		c0.552,0,1.008,0.144,1.371,0.431c0.361,0.287,0.543,0.646,0.543,1.08h0.82c0-0.656-0.25-1.188-0.748-1.597
		c-0.5-0.407-1.161-0.611-1.986-0.611c-0.761,0-1.386,0.19-1.873,0.57c-0.487,0.381-0.731,0.862-0.731,1.446
		c0,0.369,0.088,0.684,0.263,0.943c0.176,0.26,0.445,0.479,0.807,0.659c0.363,0.181,0.872,0.34,1.528,0.479
		c0.656,0.14,1.147,0.332,1.474,0.578c0.325,0.246,0.488,0.571,0.488,0.978c0,0.383-0.176,0.699-0.526,0.95
		c-0.351,0.25-0.812,0.376-1.381,0.376c-0.61,0-1.102-0.134-1.474-0.4c-0.371-0.267-0.572-0.639-0.604-1.117h-0.82
		c0,0.638,0.268,1.165,0.804,1.582c0.535,0.417,1.233,0.626,2.095,0.626c0.812,0,1.469-0.188,1.972-0.561
		c0.504-0.374,0.756-0.873,0.756-1.497c0-0.383-0.087-0.709-0.26-0.978C171.884,240.332,171.619,240.103,171.26,239.911z"/>
	<path class="st2" d="M178.55,241.456c-0.314,0.979-1.064,1.47-2.249,1.47c-1.14,0-1.709-0.704-1.709-2.112v-4.71h-0.813v4.812
		c0.009,0.897,0.219,1.575,0.629,2.033s1.01,0.688,1.798,0.688c1.08,0,1.866-0.358,2.358-1.073l0.014,0.937h0.793v-7.396h-0.82
		V241.456z"/>
	<path class="st2" d="M182.154,237.464c0.408-0.533,0.981-0.8,1.72-0.8c0.579,0,1.059,0.178,1.438,0.533
		c0.381,0.355,0.59,0.822,0.626,1.401h0.786c-0.036-0.789-0.318-1.425-0.844-1.907c-0.527-0.483-1.195-0.725-2.007-0.725
		c-0.638,0-1.195,0.152-1.671,0.458c-0.477,0.305-0.843,0.738-1.098,1.299s-0.383,1.205-0.383,1.935v0.246
		c0,1.139,0.283,2.046,0.852,2.721c0.566,0.674,1.336,1.012,2.307,1.012c0.492,0,0.953-0.105,1.385-0.314
		c0.43-0.21,0.775-0.5,1.035-0.872c0.26-0.371,0.401-0.782,0.424-1.233h-0.786c-0.032,0.51-0.24,0.926-0.626,1.247
		c-0.385,0.321-0.862,0.482-1.432,0.482c-0.743,0-1.318-0.265-1.727-0.793c-0.407-0.529-0.611-1.265-0.611-2.208v-0.239
		C181.542,238.744,181.747,237.997,182.154,237.464z"/>
	<path class="st2" d="M189.016,237.464c0.408-0.533,0.981-0.8,1.72-0.8c0.579,0,1.059,0.178,1.438,0.533
		c0.381,0.355,0.59,0.822,0.626,1.401h0.786c-0.036-0.789-0.318-1.425-0.844-1.907c-0.527-0.483-1.195-0.725-2.007-0.725
		c-0.638,0-1.195,0.152-1.671,0.458c-0.477,0.305-0.843,0.738-1.098,1.299s-0.383,1.205-0.383,1.935v0.246
		c0,1.139,0.283,2.046,0.852,2.721c0.566,0.674,1.336,1.012,2.307,1.012c0.492,0,0.953-0.105,1.385-0.314
		c0.43-0.21,0.775-0.5,1.035-0.872c0.26-0.371,0.401-0.782,0.424-1.233H192.8c-0.032,0.51-0.24,0.926-0.626,1.247
		c-0.385,0.321-0.862,0.482-1.432,0.482c-0.743,0-1.318-0.265-1.727-0.793c-0.407-0.529-0.611-1.265-0.611-2.208v-0.239
		C188.405,238.744,188.609,237.997,189.016,237.464z"/>
	<path class="st2" d="M197.583,235.967c-0.574,0-1.107,0.163-1.6,0.488c-0.492,0.326-0.876,0.773-1.151,1.344
		c-0.276,0.569-0.414,1.21-0.414,1.921v0.294c0,0.688,0.142,1.309,0.424,1.862s0.678,0.985,1.186,1.296
		c0.509,0.31,1.077,0.465,1.706,0.465c1.144,0,2.017-0.436,2.618-1.306l-0.513-0.39c-0.273,0.351-0.577,0.605-0.913,0.766
		c-0.334,0.159-0.721,0.239-1.158,0.239c-0.729,0-1.334-0.279-1.814-0.838c-0.481-0.558-0.722-1.257-0.722-2.095v-0.157h5.277
		v-0.458c0-1.062-0.263-1.899-0.79-2.513C199.194,236.273,198.481,235.967,197.583,235.967z M199.696,239.159h-4.437
		c0.091-0.762,0.348-1.367,0.769-1.818c0.422-0.451,0.94-0.677,1.556-0.677c0.62,0,1.121,0.223,1.504,0.67
		c0.383,0.446,0.586,1.025,0.608,1.736V239.159z"/>
	<path class="st2" d="M205.946,239.911c-0.357-0.191-0.895-0.372-1.613-0.54c-0.717-0.169-1.212-0.354-1.482-0.558
		c-0.271-0.202-0.407-0.488-0.407-0.857c0-0.383,0.163-0.694,0.489-0.934c0.325-0.239,0.757-0.358,1.295-0.358
		c0.552,0,1.008,0.144,1.371,0.431c0.361,0.287,0.543,0.646,0.543,1.08h0.82c0-0.656-0.25-1.188-0.748-1.597
		c-0.5-0.407-1.161-0.611-1.986-0.611c-0.761,0-1.386,0.19-1.873,0.57c-0.487,0.381-0.731,0.862-0.731,1.446
		c0,0.369,0.088,0.684,0.263,0.943c0.176,0.26,0.445,0.479,0.807,0.659c0.363,0.181,0.872,0.34,1.528,0.479
		c0.656,0.14,1.147,0.332,1.474,0.578c0.325,0.246,0.488,0.571,0.488,0.978c0,0.383-0.176,0.699-0.526,0.95
		c-0.351,0.25-0.812,0.376-1.381,0.376c-0.61,0-1.102-0.134-1.474-0.4c-0.371-0.267-0.572-0.639-0.604-1.117h-0.82
		c0,0.638,0.268,1.165,0.804,1.582c0.535,0.417,1.233,0.626,2.095,0.626c0.812,0,1.469-0.188,1.972-0.561
		c0.504-0.374,0.756-0.873,0.756-1.497c0-0.383-0.087-0.709-0.26-0.978C206.57,240.332,206.304,240.103,205.946,239.911z"/>
	<path class="st2" d="M212.685,239.911c-0.357-0.191-0.895-0.372-1.613-0.54c-0.717-0.169-1.212-0.354-1.482-0.558
		c-0.271-0.202-0.407-0.488-0.407-0.857c0-0.383,0.163-0.694,0.489-0.934c0.325-0.239,0.757-0.358,1.295-0.358
		c0.552,0,1.008,0.144,1.371,0.431c0.361,0.287,0.543,0.646,0.543,1.08h0.82c0-0.656-0.25-1.188-0.748-1.597
		c-0.5-0.407-1.161-0.611-1.986-0.611c-0.761,0-1.386,0.19-1.873,0.57c-0.487,0.381-0.731,0.862-0.731,1.446
		c0,0.369,0.088,0.684,0.263,0.943c0.176,0.26,0.445,0.479,0.807,0.659c0.363,0.181,0.872,0.34,1.528,0.479
		c0.656,0.14,1.147,0.332,1.474,0.578c0.325,0.246,0.488,0.571,0.488,0.978c0,0.383-0.176,0.699-0.526,0.95
		c-0.351,0.25-0.812,0.376-1.381,0.376c-0.61,0-1.102-0.134-1.474-0.4c-0.371-0.267-0.572-0.639-0.604-1.117h-0.82
		c0,0.638,0.268,1.165,0.804,1.582c0.535,0.417,1.233,0.626,2.095,0.626c0.812,0,1.469-0.188,1.972-0.561
		c0.504-0.374,0.756-0.873,0.756-1.497c0-0.383-0.087-0.709-0.26-0.978C213.309,240.332,213.043,240.103,212.685,239.911z"/>
	<path class="st2" d="M216.396,233.465c-0.386,0.405-0.578,0.986-0.578,1.743v0.896h-1.224v0.67h1.224v6.727h0.82v-6.727h1.764
		v-0.67h-1.764v-0.919c0-0.516,0.125-0.915,0.376-1.196c0.251-0.28,0.602-0.421,1.053-0.421c0.269,0,0.518,0.027,0.745,0.082
		l0.062-0.678c-0.269-0.077-0.559-0.115-0.868-0.115C217.317,232.856,216.781,233.059,216.396,233.465z"/>
	<path class="st2" d="M224.259,241.456c-0.314,0.979-1.064,1.47-2.249,1.47c-1.14,0-1.709-0.704-1.709-2.112v-4.71h-0.813v4.812
		c0.009,0.897,0.219,1.575,0.629,2.033s1.01,0.688,1.798,0.688c1.08,0,1.866-0.358,2.358-1.073l0.014,0.937h0.793v-7.396h-0.82
		V241.456z"/>
	<rect x="226.951" y="233" class="st2" width="0.82" height="10.5"/>
	<path class="st2" d="M230.149,242.434c-0.183,0-0.324,0.056-0.428,0.167c-0.102,0.112-0.153,0.247-0.153,0.407
		c0,0.159,0.052,0.29,0.153,0.393c0.104,0.103,0.245,0.154,0.428,0.154s0.326-0.052,0.431-0.154s0.157-0.233,0.157-0.393
		c0-0.16-0.053-0.295-0.157-0.407C230.475,242.489,230.332,242.434,230.149,242.434z"/>
</g>
</svg>
