<?xml version="1.0" encoding="utf-8"?>
<!-- Generator: Adobe Illustrator 22.1.0, SVG Export Plug-In . SVG Version: 6.00 Build 0)  -->
<svg version="1.1" id="Layer_1" xmlns="http://www.w3.org/2000/svg" xmlns:xlink="http://www.w3.org/1999/xlink" x="0px" y="0px"
	 viewBox="0 0 600 600" style="enable-background:new 0 0 600 600;" xml:space="preserve">
<style type="text/css">
	.st0{opacity:0.8;fill:#80A7D8;}
	.st1{fill:#FFFFFF;}
</style>
<path class="st0" d="M12.548,364.146c0,0,404.63-474.214,514.924-256.372C610,305.542,660.936,555.61,439.139,589
	C184.696,599.435-52.855,441.491,12.548,364.146z"/>
<g>
	<path class="st1" d="M146.931,268.535l5.207-11.275h5.638l-8.216,15.95v9.075h-5.243v-9.075l-8.216-15.95h5.655L146.931,268.535z"
		/>
	<path class="st1" d="M180.12,270.339c0,2.464-0.436,4.623-1.307,6.48c-0.871,1.857-2.118,3.289-3.738,4.297
		c-1.621,1.009-3.48,1.513-5.577,1.513c-2.075,0-3.925-0.498-5.552-1.495c-1.627-0.997-2.887-2.42-3.782-4.271
		c-0.893-1.85-1.346-3.979-1.357-6.385v-1.237c0-2.463,0.443-4.632,1.332-6.505c0.888-1.873,2.143-3.311,3.764-4.314
		c1.621-1.002,3.475-1.504,5.56-1.504s3.939,0.502,5.56,1.504c1.621,1.003,2.875,2.441,3.764,4.314
		c0.888,1.873,1.332,4.036,1.332,6.488v1.118H180.12z M174.895,269.205c0-2.624-0.47-4.618-1.409-5.982
		c-0.939-1.363-2.28-2.045-4.022-2.045c-1.73,0-3.066,0.673-4.005,2.02c-0.939,1.346-1.416,3.321-1.427,5.921v1.22
		c0,2.555,0.47,4.538,1.409,5.947c0.939,1.409,2.291,2.114,4.057,2.114c1.73,0,3.059-0.679,3.988-2.037s1.398-3.337,1.409-5.938
		V269.205z"/>
	<path class="st1" d="M202.808,257.26v16.482c0,2.739-0.857,4.904-2.57,6.497c-1.714,1.593-4.053,2.389-7.021,2.389
		c-2.922,0-5.243-0.773-6.961-2.32s-2.595-3.672-2.63-6.377V257.26h5.157v16.518c0,1.639,0.392,2.834,1.177,3.584
		c0.784,0.751,1.87,1.125,3.257,1.125c2.898,0,4.371-1.524,4.418-4.572V257.26H202.808z"/>
	<path class="st1" d="M216.3,273.123h-4.107v9.161h-5.157v-25.025h9.298c2.957,0,5.236,0.659,6.841,1.977
		c1.604,1.318,2.407,3.18,2.407,5.586c0,1.707-0.37,3.132-1.109,4.271c-0.739,1.141-1.859,2.048-3.361,2.725l5.414,10.227v0.241
		h-5.534L216.3,273.123z M212.192,268.947h4.159c1.295,0,2.297-0.329,3.007-0.988c0.711-0.659,1.066-1.566,1.066-2.725
		c0-1.18-0.335-2.109-1.005-2.784c-0.67-0.675-1.698-1.014-3.085-1.014h-4.143v7.511H212.192z"/>
	<path class="st1" d="M247.529,273.123h-4.107v9.161h-5.157v-25.025h9.298c2.957,0,5.236,0.659,6.841,1.977
		c1.604,1.318,2.407,3.18,2.407,5.586c0,1.707-0.37,3.132-1.109,4.271c-0.739,1.141-1.859,2.048-3.36,2.725l5.414,10.227v0.241
		h-5.534L247.529,273.123z M243.422,268.947h4.159c1.295,0,2.297-0.329,3.007-0.988c0.711-0.659,1.066-1.566,1.066-2.725
		c0-1.18-0.335-2.109-1.005-2.784s-1.698-1.014-3.085-1.014h-4.143v7.511H243.422z"/>
	<path class="st1" d="M281.285,270.339c0,2.464-0.436,4.623-1.307,6.48s-2.117,3.289-3.738,4.297
		c-1.621,1.009-3.48,1.513-5.577,1.513c-2.075,0-3.925-0.498-5.552-1.495c-1.627-0.997-2.888-2.42-3.782-4.271
		c-0.893-1.85-1.346-3.979-1.357-6.385v-1.237c0-2.463,0.443-4.632,1.332-6.505c0.888-1.873,2.143-3.311,3.764-4.314
		c1.621-1.002,3.475-1.504,5.56-1.504c2.085,0,3.939,0.502,5.559,1.504c1.621,1.003,2.875,2.441,3.764,4.314
		c0.889,1.873,1.332,4.036,1.332,6.488L281.285,270.339L281.285,270.339z M276.06,269.205c0-2.624-0.47-4.618-1.409-5.982
		c-0.939-1.363-2.28-2.045-4.022-2.045c-1.73,0-3.066,0.673-4.005,2.02c-0.939,1.346-1.416,3.321-1.427,5.921v1.22
		c0,2.555,0.47,4.538,1.409,5.947c0.939,1.409,2.291,2.114,4.057,2.114c1.73,0,3.059-0.679,3.987-2.037
		c0.928-1.358,1.398-3.337,1.409-5.938V269.205z"/>
	<path class="st1" d="M290.188,278.142h10.948v4.143h-16.104V257.26h5.157v20.882H290.188z"/>
	<path class="st1" d="M319.149,271.405h-9.9v6.737h11.618v4.143h-16.775V257.26h16.741v4.177h-11.584v5.964h9.9V271.405z"/>
	<path class="st1" d="M323.808,265.767c0-0.791,0.266-1.432,0.8-1.925c0.532-0.493,1.2-0.739,2.002-0.739
		c0.813,0,1.487,0.246,2.02,0.739s0.8,1.134,0.8,1.925c0,0.779-0.263,1.412-0.791,1.9c-0.527,0.487-1.203,0.73-2.028,0.73
		c-0.813,0-1.484-0.243-2.011-0.73C324.071,267.18,323.808,266.546,323.808,265.767z M323.808,279.844
		c0-0.791,0.266-1.432,0.8-1.925c0.532-0.493,1.2-0.739,2.002-0.739c0.813,0,1.487,0.246,2.02,0.739s0.8,1.134,0.8,1.925
		c0,0.779-0.263,1.412-0.791,1.9c-0.527,0.487-1.203,0.73-2.028,0.73c-0.813,0-1.484-0.243-2.011-0.73
		C324.071,281.256,323.808,280.623,323.808,279.844z"/>
	<path class="st1" d="M141.809,324.524h-2.114v-25.025h2.114V324.524z"/>
	<path class="st1" d="M147.292,315.054c0-2.887,0.645-5.188,1.934-6.9c1.289-1.713,3.039-2.57,5.25-2.57
		c2.509,0,4.423,0.991,5.741,2.973v-10.432h2.045v26.4h-1.925l-0.086-2.475c-1.318,1.88-3.254,2.818-5.809,2.818
		c-2.143,0-3.871-0.861-5.182-2.587c-1.312-1.724-1.968-4.053-1.968-6.987L147.292,315.054L147.292,315.054z M149.372,315.415
		c0,2.372,0.475,4.243,1.427,5.612c0.95,1.37,2.291,2.054,4.022,2.054c2.532,0,4.332-1.118,5.397-3.352v-8.732
		c-1.066-2.417-2.853-3.627-5.363-3.627c-1.73,0-3.077,0.679-4.039,2.037C149.853,310.766,149.372,312.768,149.372,315.415z"/>
	<path class="st1" d="M174.879,324.868c-1.582,0-3.011-0.389-4.288-1.168c-1.278-0.779-2.271-1.865-2.982-3.257
		c-0.711-1.393-1.066-2.953-1.066-4.684v-0.739c0-1.788,0.346-3.397,1.04-4.83c0.693-1.432,1.659-2.557,2.896-3.377
		c1.237-0.818,2.578-1.229,4.022-1.229c2.257,0,4.048,0.771,5.371,2.312s1.985,3.647,1.985,6.316v1.152h-13.268v0.395
		c0,2.109,0.604,3.865,1.813,5.268c1.209,1.404,2.729,2.105,4.563,2.105c1.1,0,2.071-0.2,2.913-0.602
		c0.843-0.4,1.607-1.042,2.295-1.925l1.289,0.98C179.949,323.775,177.754,324.868,174.879,324.868z M174.5,307.336
		c-1.547,0-2.85,0.568-3.91,1.702c-1.06,1.134-1.705,2.659-1.934,4.572h11.155v-0.223c-0.057-1.788-0.568-3.242-1.53-4.366
		C177.318,307.898,176.058,307.336,174.5,307.336z"/>
	<path class="st1" d="M187.82,305.927l0.068,3.18c0.699-1.145,1.57-2.02,2.613-2.621c1.043-0.602,2.195-0.902,3.455-0.902
		c1.993,0,3.477,0.562,4.452,1.684c0.973,1.123,1.466,2.808,1.478,5.053v12.203h-2.045v-12.22c-0.012-1.661-0.364-2.899-1.057-3.713
		c-0.693-0.813-1.802-1.22-3.325-1.22c-1.272,0-2.398,0.398-3.377,1.195c-0.98,0.798-1.705,1.871-2.175,3.223v12.736h-2.045v-18.597
		h1.958V305.927z"/>
	<path class="st1" d="M208.393,301.166v4.761h3.85v1.684h-3.85v12.406c0,1.032,0.186,1.802,0.559,2.306
		c0.372,0.505,0.993,0.757,1.865,0.757c0.343,0,0.899-0.057,1.668-0.172l0.086,1.671c-0.539,0.193-1.272,0.289-2.2,0.289
		c-1.409,0-2.435-0.409-3.077-1.229c-0.641-0.818-0.963-2.025-0.963-3.618v-12.409h-3.42v-1.684h3.42v-4.761h2.062V301.166z"/>
	<path class="st1" d="M216.386,300.556c0-0.387,0.125-0.714,0.378-0.982c0.252-0.267,0.596-0.401,1.032-0.401
		s0.782,0.134,1.04,0.401c0.257,0.267,0.387,0.595,0.387,0.982c0,0.388-0.129,0.712-0.387,0.974
		c-0.257,0.262-0.605,0.393-1.04,0.393c-0.436,0-0.779-0.131-1.032-0.393C216.512,301.268,216.386,300.944,216.386,300.556z
		 M218.809,324.524h-2.062v-18.597h2.062V324.524z"/>
	<path class="st1" d="M225.874,324.524v-16.912h-3.077v-1.684h3.077v-2.252c0-1.902,0.484-3.363,1.452-4.382
		c0.968-1.02,2.317-1.53,4.048-1.53c0.779,0,1.507,0.097,2.182,0.29l-0.155,1.704c-0.573-0.137-1.198-0.207-1.873-0.207
		c-1.134,0-2.016,0.353-2.647,1.06c-0.63,0.707-0.945,1.709-0.945,3.006v2.31h4.434v1.684h-4.434v16.912L225.874,324.524
		L225.874,324.524z"/>
	<path class="st1" d="M241.943,321.568l5.432-15.641h2.218l-7.941,21.759l-0.413,0.962c-1.02,2.257-2.595,3.386-4.727,3.386
		c-0.493,0-1.02-0.08-1.582-0.241l-0.018-1.702l1.066,0.103c1.009,0,1.825-0.25,2.45-0.748c0.624-0.498,1.154-1.354,1.59-2.57
		l0.911-2.509l-7.012-18.443h2.252L241.943,321.568z"/>
	<path class="st1" d="M273.001,313.198l-12.22-5.207v-2.114l14.523,6.497v1.668l-14.523,6.514v-2.132L273.001,313.198z"/>
	<path class="st1" d="M306.328,316.721c-0.287,2.636-1.229,4.652-2.827,6.05c-1.598,1.398-3.727,2.097-6.385,2.097
		c-1.857,0-3.498-0.464-4.925-1.393c-1.427-0.928-2.53-2.243-3.309-3.945s-1.174-3.645-1.186-5.835v-3.248
		c0-2.223,0.389-4.193,1.168-5.913c0.779-1.719,1.9-3.045,3.36-3.979c1.461-0.934,3.142-1.4,5.045-1.4
		c2.682,0,4.798,0.722,6.35,2.166c1.552,1.444,2.454,3.444,2.707,5.998h-2.132c-0.527-4.25-2.836-6.377-6.927-6.377
		c-2.268,0-4.077,0.848-5.423,2.545s-2.02,4.042-2.02,7.036v3.061c0,2.89,0.657,5.195,1.968,6.915
		c1.311,1.72,3.085,2.581,5.32,2.581c2.212,0,3.879-0.529,5.002-1.59c1.123-1.059,1.816-2.649,2.08-4.77H306.328z"/>
	<path class="st1" d="M309.851,314.95c0-1.787,0.346-3.397,1.039-4.83c0.693-1.432,1.673-2.545,2.939-3.343
		c1.266-0.796,2.702-1.195,4.305-1.195c2.475,0,4.48,0.868,6.016,2.604c1.536,1.736,2.303,4.037,2.303,6.9v0.43
		c0,1.8-0.346,3.418-1.04,4.855c-0.693,1.439-1.671,2.547-2.93,3.325c-1.261,0.78-2.698,1.168-4.314,1.168
		c-2.463,0-4.466-0.868-6.007-2.604c-1.541-1.736-2.312-4.036-2.312-6.9V314.95z M311.913,315.518c0,2.223,0.575,4.048,1.727,5.475
		c1.152,1.427,2.661,2.139,4.529,2.139c1.857,0,3.361-0.713,4.512-2.139c1.152-1.427,1.727-3.309,1.727-5.646v-0.395
		c0-1.42-0.263-2.721-0.791-3.902c-0.527-1.179-1.266-2.093-2.218-2.741c-0.95-0.647-2.039-0.971-3.266-0.971
		c-1.834,0-3.329,0.719-4.486,2.157c-1.157,1.439-1.736,3.321-1.736,5.646v0.377H311.913z"/>
	<path class="st1" d="M332.573,305.927l0.068,3.025c0.688-1.123,1.547-1.965,2.578-2.527c1.032-0.561,2.177-0.843,3.438-0.843
		c2.934,0,4.795,1.203,5.586,3.609c0.664-1.157,1.552-2.047,2.664-2.673c1.112-0.624,2.337-0.937,3.678-0.937
		c3.988,0,6.021,2.177,6.102,6.532v12.409h-2.062v-12.255c-0.012-1.661-0.37-2.893-1.075-3.695
		c-0.705-0.802-1.853-1.203-3.446-1.203c-1.478,0.023-2.727,0.502-3.747,1.435c-1.02,0.935-1.586,2.071-1.702,3.412v12.307h-2.062
		v-12.409c-0.012-1.592-0.387-2.781-1.125-3.566c-0.739-0.784-1.877-1.177-3.412-1.177c-1.295,0-2.407,0.37-3.334,1.109
		c-0.927,0.739-1.616,1.837-2.062,3.291v12.753h-2.062v-18.597h1.977V305.927z"/>
	<path class="st1" d="M363.768,305.927l0.068,3.025c0.688-1.123,1.547-1.965,2.578-2.527c1.032-0.561,2.177-0.843,3.438-0.843
		c2.934,0,4.795,1.203,5.586,3.609c0.664-1.157,1.552-2.047,2.664-2.673c1.112-0.624,2.337-0.937,3.678-0.937
		c3.988,0,6.021,2.177,6.102,6.532v12.409h-2.062v-12.255c-0.012-1.661-0.37-2.893-1.075-3.695
		c-0.705-0.802-1.853-1.203-3.446-1.203c-1.478,0.023-2.727,0.502-3.747,1.435c-1.02,0.935-1.586,2.071-1.702,3.412v12.307h-2.062
		v-12.409c-0.012-1.592-0.387-2.781-1.125-3.566c-0.739-0.784-1.877-1.177-3.412-1.177c-1.295,0-2.407,0.37-3.334,1.109
		c-0.927,0.739-1.616,1.837-2.062,3.291v12.753h-2.062v-18.597h1.977V305.927z"/>
	<path class="st1" d="M405.053,322.17c-1.237,1.8-3.214,2.698-5.93,2.698c-1.982,0-3.489-0.575-4.52-1.727
		c-1.031-1.152-1.559-2.856-1.582-5.113v-12.1h2.045v11.843c0,3.541,1.432,5.311,4.297,5.311c2.979,0,4.864-1.231,5.655-3.695
		v-13.457h2.062v18.597h-1.993L405.053,322.17z"/>
	<path class="st1" d="M414.385,305.927l0.068,3.18c0.7-1.145,1.57-2.02,2.612-2.621c1.043-0.602,2.194-0.902,3.455-0.902
		c1.993,0,3.477,0.562,4.452,1.684c0.975,1.123,1.466,2.808,1.478,5.053v12.203h-2.045v-12.22c-0.012-1.661-0.364-2.899-1.057-3.713
		c-0.693-0.813-1.802-1.22-3.325-1.22c-1.272,0-2.398,0.398-3.377,1.195c-0.98,0.798-1.705,1.871-2.175,3.223v12.736h-2.045v-18.597
		h1.958V305.927z"/>
	<path class="st1" d="M431.642,300.556c0-0.387,0.125-0.714,0.378-0.982c0.253-0.268,0.596-0.401,1.032-0.401
		c0.436,0,0.782,0.134,1.039,0.401s0.387,0.595,0.387,0.982c0,0.388-0.129,0.712-0.387,0.974c-0.257,0.262-0.605,0.393-1.039,0.393
		c-0.435,0-0.779-0.131-1.032-0.393C431.767,301.268,431.642,300.944,431.642,300.556z M434.065,324.524h-2.062v-18.597h2.062
		V324.524z"/>
	<path class="st1" d="M446.526,323.132c1.432,0,2.633-0.404,3.6-1.212c0.967-0.808,1.492-1.853,1.573-3.137h1.977
		c-0.058,1.134-0.413,2.169-1.066,3.102c-0.653,0.935-1.521,1.665-2.604,2.191c-1.082,0.527-2.243,0.791-3.48,0.791
		c-2.441,0-4.375-0.848-5.8-2.543c-1.427-1.695-2.14-3.975-2.14-6.841v-0.618c0-1.833,0.321-3.455,0.963-4.864
		c0.641-1.409,1.561-2.498,2.759-3.266c1.198-0.767,2.598-1.152,4.202-1.152c2.039,0,3.721,0.608,5.045,1.822
		c1.323,1.214,2.031,2.814,2.123,4.795H451.7c-0.091-1.454-0.616-2.63-1.573-3.523c-0.957-0.893-2.163-1.341-3.618-1.341
		c-1.857,0-3.297,0.67-4.323,2.011c-1.026,1.341-1.538,3.221-1.538,5.638v0.602c0,2.372,0.513,4.223,1.538,5.552
		C443.212,322.468,444.658,323.132,446.526,323.132z"/>
	<path class="st1" d="M469.522,324.524c-0.207-0.584-0.339-1.449-0.395-2.595c-0.722,0.939-1.641,1.665-2.759,2.175
		c-1.118,0.51-2.301,0.764-3.55,0.764c-1.787,0-3.234-0.498-4.34-1.495c-1.107-0.997-1.659-2.257-1.659-3.782
		c0-1.811,0.753-3.242,2.26-4.297c1.506-1.054,3.606-1.582,6.3-1.582h3.73v-2.114c0-1.329-0.41-2.374-1.229-3.137
		c-0.819-0.761-2.014-1.143-3.584-1.143c-1.433,0-2.619,0.367-3.557,1.1c-0.939,0.734-1.409,1.616-1.409,2.647l-2.062-0.018
		c0-1.478,0.688-2.759,2.062-3.841c1.375-1.082,3.065-1.625,5.07-1.625c2.073,0,3.709,0.519,4.907,1.555
		c1.197,1.037,1.813,2.484,1.848,4.34v8.8c0,1.8,0.189,3.145,0.568,4.039v0.207h-2.202V324.524z M463.06,323.046
		c1.375,0,2.604-0.332,3.687-0.997c1.082-0.664,1.87-1.552,2.363-2.664v-4.091h-3.678c-2.051,0.023-3.655,0.398-4.812,1.125
		c-1.158,0.728-1.736,1.727-1.736,3c0,1.043,0.387,1.907,1.16,2.595C460.817,322.702,461.823,323.046,463.06,323.046z"/>
	<path class="st1" d="M479.835,301.166v4.761h3.85v1.684h-3.85v12.406c0,1.032,0.186,1.802,0.559,2.306
		c0.372,0.505,0.993,0.757,1.865,0.757c0.343,0,0.899-0.057,1.668-0.172l0.086,1.671c-0.539,0.193-1.272,0.289-2.2,0.289
		c-1.409,0-2.435-0.409-3.077-1.229c-0.642-0.818-0.962-2.025-0.962-3.618v-12.409h-3.42v-1.684h3.42v-4.761h2.062V301.166z"/>
	<path class="st1" d="M495.149,324.868c-1.582,0-3.011-0.389-4.288-1.168c-1.278-0.779-2.272-1.865-2.982-3.257
		c-0.711-1.393-1.066-2.953-1.066-4.684v-0.739c0-1.788,0.345-3.397,1.04-4.83c0.693-1.432,1.659-2.557,2.896-3.377
		c1.237-0.818,2.578-1.229,4.022-1.229c2.257,0,4.048,0.771,5.371,2.312s1.986,3.647,1.986,6.316v1.152h-13.268v0.395
		c0,2.109,0.604,3.865,1.813,5.268c1.209,1.404,2.729,2.105,4.563,2.105c1.1,0,2.071-0.2,2.913-0.602
		c0.843-0.4,1.607-1.042,2.295-1.925l1.289,0.98C500.22,323.775,498.026,324.868,495.149,324.868z M494.772,307.336
		c-1.547,0-2.851,0.568-3.91,1.702c-1.06,1.134-1.705,2.659-1.934,4.572h11.155v-0.223c-0.058-1.788-0.568-3.242-1.53-4.366
		C497.59,307.898,496.329,307.336,494.772,307.336z"/>
	<path class="st1" d="M140.449,366.924l0.436,2.185l0.531-2.088l3.055-10.374h1.074l3.016,10.374l0.523,2.108l0.464-2.204
		l2.543-10.277h1.218l-3.606,14.077h-1.141l-3.19-11.012l-0.357-1.393l-0.348,1.393l-3.268,11.012h-1.141l-3.597-14.077h1.218
		L140.449,366.924z"/>
	<path class="st1" d="M156.478,362.033c0.381-0.625,0.867-1.109,1.46-1.45s1.241-0.513,1.944-0.513c1.122,0,1.956,0.316,2.504,0.947
		c0.548,0.631,0.825,1.58,0.832,2.842v6.864h-1.151v-6.874c-0.007-0.935-0.205-1.63-0.595-2.088
		c-0.39-0.458-1.013-0.686-1.871-0.686c-0.715,0-1.349,0.224-1.9,0.672c-0.551,0.448-0.959,1.052-1.223,1.812v7.164h-1.151v-14.85
		h1.151v6.159H156.478z"/>
	<path class="st1" d="M172.798,370.724c-0.116-0.329-0.19-0.815-0.222-1.46c-0.406,0.528-0.923,0.937-1.552,1.223
		c-0.629,0.286-1.294,0.43-1.997,0.43c-1.005,0-1.819-0.281-2.441-0.842c-0.621-0.561-0.933-1.269-0.933-2.127
		c0-1.019,0.423-1.824,1.272-2.417c0.848-0.593,2.028-0.89,3.543-0.89h2.098v-1.189c0-0.748-0.23-1.335-0.691-1.764
		s-1.133-0.643-2.016-0.643c-0.805,0-1.473,0.207-2.001,0.618c-0.528,0.411-0.793,0.909-0.793,1.489l-1.16-0.01
		c0-0.832,0.387-1.551,1.16-2.16c0.773-0.609,1.724-0.914,2.852-0.914c1.167,0,2.087,0.293,2.76,0.876s1.02,1.397,1.04,2.441v4.95
		c0,1.012,0.107,1.769,0.319,2.271v0.116h-1.238V370.724z M169.162,369.893c0.773,0,1.465-0.187,2.073-0.561
		s1.053-0.873,1.329-1.498v-2.301h-2.069c-1.154,0.013-2.056,0.224-2.707,0.634c-0.651,0.409-0.977,0.971-0.977,1.686
		c0,0.586,0.218,1.074,0.652,1.46S168.466,369.893,169.162,369.893z"/>
	<path class="st1" d="M178.598,357.585v2.678h2.166v0.947h-2.166v6.978c0,0.581,0.104,1.014,0.315,1.298
		c0.21,0.284,0.559,0.426,1.049,0.426c0.194,0,0.506-0.032,0.938-0.097l0.048,0.939c-0.303,0.109-0.715,0.162-1.238,0.162
		c-0.793,0-1.369-0.23-1.73-0.691s-0.541-1.14-0.541-2.036v-6.981h-1.924v-0.947h1.924v-2.678h1.158V357.585z"/>
	<path class="st1" d="M190.461,365.455l-1.324,1.276v3.993h-1.16v-14.85h1.16v9.504l1.092-1.179l4.003-3.935h1.46l-4.437,4.409
		l4.825,6.052h-1.383L190.461,365.455z"/>
	<path class="st1" d="M197.606,357.243c0-0.218,0.07-0.401,0.212-0.553c0.142-0.151,0.335-0.225,0.58-0.225s0.44,0.075,0.585,0.225
		c0.145,0.152,0.218,0.335,0.218,0.553s-0.073,0.399-0.218,0.548c-0.145,0.147-0.34,0.22-0.585,0.22c-0.245,0-0.438-0.073-0.58-0.22
		C197.676,357.642,197.606,357.461,197.606,357.243z M198.969,370.724h-1.16v-10.461h1.16V370.724z"/>
	<path class="st1" d="M203.212,360.264l0.038,1.789c0.393-0.645,0.883-1.135,1.47-1.474c0.586-0.339,1.234-0.508,1.944-0.508
		c1.122,0,1.956,0.316,2.504,0.947c0.548,0.631,0.825,1.58,0.832,2.842v6.864h-1.151v-6.874c-0.007-0.935-0.205-1.63-0.595-2.088
		c-0.391-0.458-1.013-0.686-1.871-0.686c-0.715,0-1.349,0.224-1.9,0.672c-0.551,0.448-0.959,1.052-1.223,1.812v7.164h-1.151v-10.461
		h1.103V360.264z"/>
	<path class="st1" d="M212.523,365.397c0-1.625,0.363-2.917,1.088-3.881c0.725-0.964,1.709-1.445,2.953-1.445
		c1.411,0,2.488,0.558,3.23,1.673v-5.868h1.151v14.85h-1.082l-0.048-1.393c-0.741,1.057-1.83,1.585-3.268,1.585
		c-1.206,0-2.177-0.484-2.915-1.454c-0.738-0.97-1.107-2.28-1.107-3.93v-0.136H212.523z M213.693,365.6
		c0,1.334,0.267,2.387,0.802,3.157s1.289,1.155,2.263,1.155c1.424,0,2.436-0.628,3.036-1.885v-4.911
		c-0.6-1.36-1.605-2.039-3.016-2.039c-0.973,0-1.73,0.383-2.272,1.146C213.965,362.985,213.693,364.112,213.693,365.6z"/>
	<path class="st1" d="M228.166,365.339c0-1.005,0.195-1.911,0.585-2.717c0.391-0.806,0.941-1.432,1.653-1.88
		c0.713-0.448,1.519-0.672,2.422-0.672c1.393,0,2.52,0.488,3.384,1.465c0.864,0.977,1.296,2.269,1.296,3.881v0.242
		c0,1.012-0.195,1.923-0.585,2.731c-0.391,0.809-0.939,1.432-1.649,1.87s-1.518,0.658-2.427,0.658c-1.386,0-2.512-0.487-3.379-1.464
		c-0.867-0.977-1.3-2.27-1.3-3.882V365.339z M229.326,365.658c0,1.251,0.323,2.277,0.971,3.08s1.497,1.203,2.548,1.203
		c1.044,0,1.89-0.4,2.538-1.203s0.971-1.861,0.971-3.177v-0.222c0-0.8-0.149-1.531-0.444-2.194
		c-0.296-0.663-0.712-1.177-1.247-1.541c-0.536-0.364-1.147-0.547-1.837-0.547c-1.032,0-1.872,0.405-2.523,1.214
		s-0.977,1.867-0.977,3.176v0.211H229.326z"/>
	<path class="st1" d="M240.725,370.724v-9.513h-1.73v-0.947h1.73v-1.266c0-1.07,0.273-1.892,0.817-2.465s1.303-0.86,2.277-0.86
		c0.438,0,0.848,0.055,1.228,0.163l-0.087,0.958c-0.322-0.077-0.673-0.116-1.054-0.116c-0.638,0-1.134,0.199-1.489,0.596
		c-0.355,0.397-0.531,0.961-0.531,1.692v1.299h2.495v0.947h-2.495v9.513h-1.16V370.724z"/>
	<path class="st1" d="M252.559,370.724h-1.16v-14.85h1.16V370.724z"/>
	<path class="st1" d="M259.751,370.917c-0.89,0-1.694-0.219-2.412-0.658c-0.718-0.439-1.278-1.048-1.677-1.832
		c-0.399-0.783-0.6-1.662-0.6-2.636v-0.416c0-1.005,0.195-1.911,0.585-2.717s0.933-1.439,1.629-1.9s1.45-0.692,2.263-0.692
		c1.269,0,2.277,0.434,3.022,1.301s1.117,2.05,1.117,3.552v0.648h-7.464v0.222c0,1.186,0.34,2.175,1.02,2.963
		c0.68,0.789,1.536,1.184,2.566,1.184c0.618,0,1.165-0.113,1.639-0.339c0.474-0.226,0.904-0.586,1.29-1.082l0.725,0.551
		C262.604,370.302,261.368,370.917,259.751,370.917z M259.538,361.056c-0.87,0-1.604,0.319-2.2,0.957
		c-0.596,0.638-0.959,1.495-1.088,2.572h6.274v-0.125c-0.032-1.005-0.319-1.824-0.86-2.455
		C261.123,361.373,260.415,361.056,259.538,361.056z"/>
	<path class="st1" d="M272.531,370.724c-0.116-0.329-0.19-0.815-0.222-1.46c-0.406,0.528-0.923,0.937-1.551,1.223
		s-1.294,0.43-1.997,0.43c-1.005,0-1.819-0.281-2.441-0.842s-0.933-1.269-0.933-2.127c0-1.019,0.424-1.824,1.272-2.417
		c0.848-0.593,2.028-0.89,3.543-0.89h2.098v-1.189c0-0.748-0.23-1.335-0.691-1.764s-1.133-0.643-2.016-0.643
		c-0.805,0-1.473,0.207-2.001,0.618s-0.793,0.909-0.793,1.489l-1.16-0.01c0-0.832,0.387-1.551,1.16-2.16
		c0.773-0.609,1.724-0.914,2.852-0.914c1.167,0,2.087,0.293,2.76,0.876c0.673,0.583,1.02,1.397,1.038,2.441v4.95
		c0,1.012,0.107,1.769,0.319,2.271v0.116h-1.238V370.724z M268.897,369.893c0.773,0,1.465-0.187,2.074-0.561
		s1.052-0.873,1.329-1.498v-2.301h-2.068c-1.154,0.013-2.056,0.224-2.707,0.634s-0.977,0.971-0.977,1.686
		c0,0.586,0.218,1.074,0.652,1.46C267.634,369.698,268.201,369.893,268.897,369.893z"/>
	<path class="st1" d="M281.369,361.249c-0.245-0.045-0.506-0.068-0.783-0.068c-0.722,0-1.332,0.202-1.832,0.605
		c-0.499,0.403-0.856,0.987-1.069,1.754v7.183h-1.151v-10.461h1.131l0.02,1.663c0.613-1.237,1.595-1.857,2.949-1.857
		c0.322,0,0.576,0.042,0.763,0.125L281.369,361.249z"/>
	<path class="st1" d="M284.298,360.264l0.038,1.789c0.393-0.645,0.883-1.135,1.47-1.474c0.586-0.339,1.234-0.508,1.944-0.508
		c1.122,0,1.956,0.316,2.504,0.947c0.548,0.631,0.825,1.58,0.832,2.842v6.864h-1.151v-6.874c-0.007-0.935-0.205-1.63-0.594-2.088
		s-1.014-0.686-1.871-0.686c-0.715,0-1.349,0.224-1.9,0.672c-0.551,0.448-0.959,1.052-1.223,1.812v7.164h-1.151v-10.461h1.102
		V360.264z"/>
	<path class="st1" d="M294.004,357.243c0-0.218,0.07-0.401,0.212-0.553c0.142-0.151,0.335-0.225,0.58-0.225
		c0.244,0,0.44,0.075,0.585,0.225c0.145,0.152,0.217,0.335,0.217,0.553s-0.072,0.399-0.217,0.548
		c-0.145,0.147-0.341,0.22-0.585,0.22c-0.244,0-0.438-0.073-0.58-0.22C294.075,357.642,294.004,357.461,294.004,357.243z
		 M295.367,370.724h-1.16v-10.461h1.16V370.724z"/>
	<path class="st1" d="M299.612,360.264l0.039,1.789c0.393-0.645,0.883-1.135,1.47-1.474s1.234-0.508,1.944-0.508
		c1.122,0,1.956,0.316,2.504,0.947c0.548,0.631,0.825,1.58,0.832,2.842v6.864h-1.151v-6.874c-0.007-0.935-0.205-1.63-0.594-2.088
		s-1.014-0.686-1.871-0.686c-0.715,0-1.349,0.224-1.9,0.672c-0.551,0.448-0.959,1.052-1.223,1.812v7.164h-1.151v-10.461h1.102
		V360.264z"/>
	<path class="st1" d="M308.921,365.397c0-1.637,0.363-2.934,1.088-3.891c0.725-0.957,1.709-1.437,2.953-1.437
		c1.425,0,2.507,0.568,3.248,1.702l0.058-1.508h1.082v10.248c0,1.348-0.377,2.413-1.131,3.2s-1.775,1.179-3.065,1.179
		c-0.728,0-1.422-0.162-2.083-0.487c-0.661-0.326-1.181-0.759-1.562-1.301l0.648-0.696c0.818,1.005,1.792,1.508,2.919,1.508
		c0.967,0,1.72-0.285,2.263-0.855c0.542-0.57,0.822-1.362,0.842-2.374v-1.315c-0.741,1.032-1.82,1.547-3.238,1.547
		c-1.212,0-2.185-0.483-2.919-1.45c-0.735-0.967-1.102-2.272-1.102-3.916v-0.154H308.921z M310.092,365.6
		c0,1.334,0.267,2.387,0.802,3.157c0.535,0.77,1.289,1.155,2.263,1.155c1.424,0,2.433-0.638,3.026-1.914v-4.863
		c-0.271-0.67-0.661-1.18-1.169-1.532c-0.508-0.352-1.122-0.527-1.837-0.527c-0.974,0-1.73,0.383-2.272,1.146
		C310.363,362.985,310.092,364.112,310.092,365.6z"/>
	<path class="st1" d="M329.234,370.917c-0.89,0-1.693-0.219-2.411-0.658c-0.718-0.439-1.278-1.048-1.677-1.832
		c-0.399-0.783-0.6-1.662-0.6-2.636v-0.416c0-1.005,0.196-1.911,0.585-2.717s0.933-1.439,1.628-1.9s1.45-0.692,2.263-0.692
		c1.269,0,2.277,0.434,3.022,1.301c0.745,0.867,1.117,2.05,1.117,3.552v0.648h-7.464v0.222c0,1.186,0.341,2.175,1.021,2.963
		c0.68,0.789,1.536,1.184,2.566,1.184c0.618,0,1.166-0.113,1.639-0.339c0.473-0.226,0.903-0.586,1.29-1.082l0.725,0.551
		C332.086,370.302,330.852,370.917,329.234,370.917z M329.022,361.056c-0.87,0-1.603,0.319-2.199,0.957
		c-0.596,0.638-0.959,1.495-1.088,2.572h6.274v-0.125c-0.032-1.005-0.319-1.824-0.86-2.455
		C330.608,361.373,329.898,361.056,329.022,361.056z"/>
	<path class="st1" d="M338.699,364.508l2.823-4.244h1.373l-3.549,5.134l3.703,5.327h-1.363l-2.978-4.427l-2.978,4.427h-1.363
		l3.693-5.327l-3.549-5.134h1.363L338.699,364.508z"/>
	<path class="st1" d="M353.453,365.6c0,1.63-0.361,2.925-1.082,3.882c-0.722,0.957-1.689,1.436-2.901,1.436
		c-1.431,0-2.527-0.503-3.287-1.508v5.337h-1.151v-14.483h1.074l0.058,1.479c0.755-1.115,1.847-1.673,3.277-1.673
		c1.251,0,2.232,0.474,2.945,1.421c0.713,0.947,1.068,2.263,1.068,3.945v0.164H353.453z M352.292,365.397
		c0-1.334-0.274-2.388-0.822-3.161c-0.548-0.773-1.311-1.16-2.291-1.16c-0.709,0-1.318,0.171-1.827,0.513
		c-0.509,0.342-0.899,0.838-1.169,1.489v5.018c0.277,0.6,0.673,1.057,1.189,1.373c0.516,0.316,1.124,0.474,1.827,0.474
		c0.974,0,1.733-0.388,2.277-1.165C352.02,368.001,352.292,366.873,352.292,365.397z"/>
	<path class="st1" d="M360.066,370.917c-0.89,0-1.693-0.219-2.411-0.658c-0.718-0.439-1.278-1.048-1.677-1.832s-0.6-1.662-0.6-2.636
		v-0.416c0-1.005,0.196-1.911,0.585-2.717s0.933-1.439,1.628-1.9s1.45-0.692,2.263-0.692c1.269,0,2.277,0.434,3.022,1.301
		c0.745,0.867,1.117,2.05,1.117,3.552v0.648h-7.464v0.222c0,1.186,0.341,2.175,1.021,2.963c0.68,0.789,1.536,1.184,2.566,1.184
		c0.618,0,1.166-0.113,1.639-0.339s0.903-0.586,1.29-1.082l0.725,0.551C362.917,370.302,361.683,370.917,360.066,370.917z
		 M359.852,361.056c-0.87,0-1.603,0.319-2.199,0.957c-0.596,0.638-0.959,1.495-1.088,2.572h6.274v-0.125
		c-0.032-1.005-0.319-1.824-0.86-2.455C361.439,361.373,360.729,361.056,359.852,361.056z"/>
	<path class="st1" d="M371.077,361.249c-0.245-0.045-0.506-0.068-0.783-0.068c-0.722,0-1.332,0.202-1.832,0.605
		c-0.499,0.403-0.856,0.987-1.069,1.754v7.183h-1.151v-10.461h1.131l0.02,1.663c0.613-1.237,1.595-1.857,2.949-1.857
		c0.322,0,0.576,0.042,0.763,0.125L371.077,361.249z"/>
	<path class="st1" d="M372.837,357.243c0-0.218,0.07-0.401,0.212-0.553c0.142-0.151,0.335-0.225,0.58-0.225
		c0.244,0,0.44,0.075,0.585,0.225c0.145,0.152,0.217,0.335,0.217,0.553s-0.072,0.399-0.217,0.548
		c-0.145,0.147-0.341,0.22-0.585,0.22c-0.244,0-0.438-0.073-0.58-0.22C372.907,357.642,372.837,357.461,372.837,357.243z
		 M374.2,370.724h-1.16v-10.461h1.16V370.724z"/>
	<path class="st1" d="M381.393,370.917c-0.89,0-1.693-0.219-2.411-0.658c-0.718-0.439-1.278-1.048-1.677-1.832
		c-0.399-0.783-0.6-1.662-0.6-2.636v-0.416c0-1.005,0.196-1.911,0.585-2.717s0.933-1.439,1.628-1.9s1.45-0.692,2.263-0.692
		c1.269,0,2.277,0.434,3.022,1.301c0.745,0.867,1.117,2.05,1.117,3.552v0.648h-7.464v0.222c0,1.186,0.341,2.175,1.021,2.963
		c0.68,0.789,1.536,1.184,2.566,1.184c0.618,0,1.166-0.113,1.639-0.339c0.473-0.226,0.903-0.586,1.29-1.082l0.725,0.551
		C384.245,370.302,383.011,370.917,381.393,370.917z M381.18,361.056c-0.87,0-1.603,0.319-2.199,0.957
		c-0.596,0.638-0.959,1.495-1.088,2.572h6.274v-0.125c-0.032-1.005-0.319-1.824-0.86-2.455
		C382.767,361.373,382.057,361.056,381.18,361.056z"/>
	<path class="st1" d="M388.672,360.264l0.039,1.789c0.393-0.645,0.883-1.135,1.47-1.474c0.586-0.339,1.234-0.508,1.944-0.508
		c1.122,0,1.956,0.316,2.504,0.947c0.548,0.631,0.825,1.58,0.832,2.842v6.864h-1.151v-6.874c-0.007-0.935-0.205-1.63-0.594-2.088
		s-1.014-0.686-1.871-0.686c-0.715,0-1.349,0.224-1.9,0.672c-0.551,0.448-0.959,1.052-1.223,1.812v7.164h-1.151v-10.461h1.102
		V360.264z"/>
	<path class="st1" d="M402.315,369.942c0.805,0,1.482-0.227,2.026-0.681s0.839-1.043,0.884-1.764h1.112
		c-0.032,0.638-0.232,1.22-0.6,1.746c-0.367,0.526-0.855,0.936-1.464,1.232c-0.609,0.296-1.262,0.444-1.958,0.444
		c-1.373,0-2.46-0.477-3.263-1.431c-0.803-0.954-1.204-2.236-1.204-3.848v-0.348c0-1.032,0.18-1.944,0.541-2.736
		c0.361-0.792,0.879-1.405,1.552-1.837c0.673-0.432,1.461-0.648,2.363-0.648c1.147,0,2.093,0.342,2.838,1.025
		c0.745,0.683,1.142,1.582,1.193,2.697h-1.112c-0.052-0.818-0.345-1.479-0.884-1.982c-0.539-0.503-1.217-0.755-2.036-0.755
		c-1.044,0-1.855,0.377-2.431,1.131s-0.866,1.811-0.866,3.171v0.339c0,1.334,0.289,2.375,0.866,3.123
		S401.264,369.942,402.315,369.942z"/>
	<path class="st1" d="M412.698,370.917c-0.89,0-1.693-0.219-2.411-0.658c-0.718-0.439-1.278-1.048-1.677-1.832
		c-0.399-0.783-0.6-1.662-0.6-2.636v-0.416c0-1.005,0.196-1.911,0.585-2.717s0.933-1.439,1.628-1.9s1.45-0.692,2.263-0.692
		c1.269,0,2.277,0.434,3.022,1.301s1.117,2.05,1.117,3.552v0.648h-7.464v0.222c0,1.186,0.341,2.175,1.021,2.963
		c0.68,0.789,1.536,1.184,2.566,1.184c0.618,0,1.166-0.113,1.639-0.339s0.903-0.586,1.29-1.082l0.725,0.551
		C415.55,370.302,414.316,370.917,412.698,370.917z M412.485,361.056c-0.87,0-1.603,0.319-2.199,0.957
		c-0.596,0.638-0.959,1.495-1.088,2.572h6.274v-0.125c-0.032-1.005-0.319-1.824-0.86-2.455S413.362,361.056,412.485,361.056z"/>
	<path class="st1" d="M426.195,368.317l0.174,0.899l0.232-0.947l2.514-8.005h0.986l2.485,7.938l0.271,1.102l0.222-1.015l2.146-8.025
		h1.199l-3.046,10.461h-0.986l-2.687-8.295l-0.125-0.571l-0.125,0.58l-2.639,8.285h-0.986l-3.036-10.461h1.189L426.195,368.317z"/>
	<path class="st1" d="M437.98,365.339c0-1.005,0.196-1.911,0.585-2.717s0.941-1.432,1.653-1.88s1.519-0.672,2.421-0.672
		c1.393,0,2.52,0.488,3.384,1.465c0.863,0.977,1.296,2.269,1.296,3.881v0.242c0,1.012-0.195,1.923-0.584,2.731
		c-0.389,0.809-0.939,1.432-1.649,1.87s-1.518,0.658-2.427,0.658c-1.386,0-2.511-0.487-3.378-1.464
		c-0.867-0.977-1.301-2.27-1.301-3.882L437.98,365.339L437.98,365.339z M439.139,365.658c0,1.251,0.324,2.277,0.972,3.08
		s1.496,1.203,2.547,1.203c1.044,0,1.891-0.4,2.539-1.203s0.971-1.861,0.971-3.177v-0.222c0-0.8-0.148-1.531-0.444-2.194
		c-0.296-0.663-0.712-1.177-1.247-1.541s-1.147-0.547-1.837-0.547c-1.032,0-1.872,0.405-2.523,1.214s-0.977,1.867-0.977,3.176
		V365.658z"/>
	<path class="st1" d="M456.436,369.399c-0.696,1.012-1.808,1.518-3.335,1.518c-1.115,0-1.962-0.323-2.543-0.971
		s-0.877-1.607-0.89-2.876v-6.807h1.151v6.662c0,1.992,0.805,2.988,2.417,2.988c1.675,0,2.736-0.693,3.181-2.079v-7.57h1.16v10.461
		h-1.122L456.436,369.399z"/>
	<path class="st1" d="M461.879,370.724h-1.16v-14.85h1.16V370.724z"/>
	<path class="st1" d="M464.557,365.397c0-1.625,0.363-2.917,1.087-3.881c0.726-0.964,1.71-1.445,2.955-1.445
		c1.411,0,2.488,0.558,3.23,1.673v-5.868h1.151v14.85h-1.082l-0.048-1.393c-0.741,1.057-1.83,1.585-3.268,1.585
		c-1.206,0-2.177-0.484-2.915-1.454c-0.738-0.97-1.107-2.28-1.107-3.93v-0.136H464.557z M465.726,365.6
		c0,1.334,0.267,2.387,0.802,3.157c0.535,0.77,1.289,1.155,2.263,1.155c1.425,0,2.436-0.628,3.036-1.885v-4.911
		c-0.6-1.36-1.605-2.039-3.016-2.039c-0.974,0-1.73,0.383-2.272,1.146C465.998,362.985,465.726,364.112,465.726,365.6z"/>
	<path class="st1" d="M484.154,369.062l3.055-8.798h1.247l-4.467,12.24l-0.232,0.541c-0.573,1.269-1.46,1.904-2.659,1.904
		c-0.277,0-0.573-0.045-0.89-0.135l-0.01-0.957l0.6,0.058c0.568,0,1.026-0.14,1.377-0.42c0.351-0.28,0.65-0.762,0.894-1.445
		l0.513-1.411l-3.945-10.374h1.266L484.154,369.062z"/>
	<path class="st1" d="M489.461,365.339c0-1.005,0.195-1.911,0.584-2.717s0.941-1.432,1.654-1.88
		c0.711-0.448,1.519-0.672,2.421-0.672c1.393,0,2.52,0.488,3.384,1.465c0.864,0.977,1.296,2.269,1.296,3.881v0.242
		c0,1.012-0.196,1.923-0.584,2.731c-0.391,0.808-0.939,1.432-1.649,1.87c-0.709,0.438-1.518,0.658-2.427,0.658
		c-1.386,0-2.512-0.487-3.379-1.464s-1.3-2.27-1.3-3.882V365.339z M490.622,365.658c0,1.251,0.325,2.277,0.971,3.08
		c0.649,0.802,1.497,1.203,2.548,1.203c1.044,0,1.891-0.4,2.538-1.203c0.649-0.802,0.972-1.861,0.972-3.177v-0.222
		c0-0.8-0.148-1.531-0.444-2.194c-0.296-0.663-0.712-1.177-1.247-1.541c-0.536-0.364-1.147-0.547-1.837-0.547
		c-1.032,0-1.872,0.405-2.523,1.214s-0.977,1.867-0.977,3.176V365.658z"/>
	<path class="st1" d="M507.918,369.399c-0.696,1.012-1.808,1.518-3.335,1.518c-1.115,0-1.962-0.323-2.543-0.971
		c-0.581-0.648-0.877-1.607-0.89-2.876v-6.807h1.151v6.662c0,1.992,0.805,2.988,2.417,2.988c1.675,0,2.736-0.693,3.181-2.079v-7.57
		h1.16v10.461h-1.122L507.918,369.399z"/>
	<path class="st1" d="M138.872,397.124h-1.16v-14.85h1.16V397.124z"/>
	<path class="st1" d="M141.947,383.643c0-0.218,0.07-0.401,0.212-0.553c0.142-0.151,0.335-0.225,0.58-0.225s0.44,0.075,0.585,0.225
		c0.145,0.152,0.218,0.335,0.218,0.553s-0.073,0.399-0.218,0.548c-0.145,0.147-0.34,0.22-0.585,0.22c-0.245,0-0.438-0.073-0.58-0.22
		C142.017,384.042,141.947,383.861,141.947,383.643z M143.31,397.124h-1.16v-10.461h1.16V397.124z"/>
	<path class="st1" d="M148.937,391.855l-1.324,1.276v3.993h-1.16v-14.85h1.16v9.504l1.092-1.179l4.003-3.935h1.46l-4.437,4.409
		l4.825,6.052h-1.383L148.937,391.855z"/>
	<path class="st1" d="M160.007,397.317c-0.89,0-1.694-0.219-2.412-0.658c-0.718-0.439-1.278-1.048-1.677-1.832
		c-0.399-0.783-0.6-1.662-0.6-2.636v-0.416c0-1.005,0.195-1.911,0.585-2.717c0.39-0.806,0.933-1.439,1.629-1.9
		c0.696-0.461,1.45-0.692,2.263-0.692c1.269,0,2.277,0.434,3.022,1.301c0.745,0.867,1.117,2.05,1.117,3.552v0.648h-7.464v0.222
		c0,1.186,0.34,2.175,1.02,2.963c0.68,0.789,1.536,1.184,2.566,1.184c0.618,0,1.165-0.113,1.639-0.339
		c0.474-0.226,0.904-0.586,1.29-1.082l0.725,0.551C162.859,396.702,161.625,397.317,160.007,397.317z M159.794,387.456
		c-0.87,0-1.604,0.319-2.2,0.957c-0.596,0.638-0.959,1.495-1.088,2.572h6.274v-0.125c-0.032-1.005-0.319-1.824-0.86-2.455
		C161.379,387.773,160.67,387.456,159.794,387.456z"/>
	<path class="st1" d="M172.798,383.985v2.678h2.166v0.947h-2.166v6.978c0,0.581,0.104,1.014,0.315,1.298s0.559,0.426,1.049,0.426
		c0.194,0,0.506-0.032,0.938-0.097l0.048,0.939c-0.303,0.109-0.715,0.162-1.238,0.162c-0.793,0-1.369-0.23-1.73-0.691
		s-0.541-1.14-0.541-2.036v-6.981h-1.924v-0.947h1.924v-2.678h1.158V383.985z"/>
	<path class="st1" d="M176.529,391.739c0-1.005,0.195-1.911,0.585-2.717c0.39-0.806,0.94-1.432,1.653-1.88
		c0.713-0.448,1.519-0.672,2.422-0.672c1.393,0,2.52,0.488,3.384,1.465c0.863,0.977,1.296,2.269,1.296,3.881v0.242
		c0,1.012-0.195,1.923-0.585,2.731c-0.39,0.809-0.939,1.432-1.649,1.87c-0.709,0.438-1.518,0.658-2.427,0.658
		c-1.386,0-2.512-0.487-3.379-1.464c-0.867-0.977-1.3-2.27-1.3-3.882V391.739z M177.689,392.058c0,1.251,0.323,2.277,0.971,3.08
		s1.497,1.203,2.548,1.203c1.044,0,1.89-0.4,2.538-1.203c0.648-0.803,0.971-1.861,0.971-3.177v-0.222c0-0.8-0.148-1.531-0.444-2.194
		s-0.712-1.177-1.247-1.541c-0.536-0.364-1.147-0.547-1.837-0.547c-1.032,0-1.872,0.405-2.523,1.214s-0.977,1.867-0.977,3.176v0.211
		H177.689z"/>
	<path class="st1" d="M196.938,396.342c0.805,0,1.481-0.227,2.025-0.681s0.839-1.043,0.884-1.764h1.112
		c-0.032,0.638-0.232,1.22-0.6,1.746c-0.367,0.526-0.856,0.936-1.465,1.232c-0.609,0.296-1.262,0.444-1.958,0.444
		c-1.373,0-2.461-0.477-3.263-1.431c-0.802-0.954-1.203-2.236-1.203-3.848v-0.348c0-1.032,0.18-1.944,0.541-2.736
		c0.361-0.792,0.878-1.405,1.552-1.837c0.674-0.432,1.462-0.648,2.364-0.648c1.147,0,2.093,0.342,2.838,1.025
		s1.143,1.582,1.194,2.697h-1.112c-0.052-0.818-0.346-1.479-0.884-1.982c-0.538-0.503-1.217-0.755-2.035-0.755
		c-1.044,0-1.855,0.377-2.431,1.131c-0.576,0.754-0.866,1.811-0.866,3.171v0.339c0,1.334,0.288,2.375,0.866,3.123
		C195.075,395.969,195.888,396.342,196.938,396.342z"/>
	<path class="st1" d="M208.105,387.649c-0.245-0.045-0.506-0.068-0.783-0.068c-0.722,0-1.332,0.202-1.833,0.605
		c-0.5,0.403-0.856,0.987-1.068,1.755v7.183h-1.151v-10.461h1.131l0.02,1.663c0.613-1.237,1.595-1.857,2.949-1.857
		c0.322,0,0.576,0.042,0.763,0.125L208.105,387.649z"/>
	<path class="st1" d="M213.799,397.317c-0.89,0-1.694-0.219-2.412-0.658c-0.718-0.439-1.278-1.048-1.677-1.832
		c-0.399-0.783-0.599-1.662-0.599-2.636v-0.416c0-1.005,0.195-1.911,0.585-2.717c0.391-0.806,0.933-1.439,1.629-1.9
		s1.45-0.692,2.263-0.692c1.269,0,2.277,0.434,3.022,1.301c0.745,0.867,1.117,2.05,1.117,3.552v0.648h-7.464v0.222
		c0,1.186,0.34,2.175,1.02,2.963c0.68,0.789,1.536,1.184,2.566,1.184c0.618,0,1.165-0.113,1.639-0.339
		c0.474-0.226,0.904-0.586,1.29-1.082l0.725,0.551C216.651,396.702,215.417,397.317,213.799,397.317z M213.587,387.456
		c-0.87,0-1.604,0.319-2.2,0.957c-0.596,0.638-0.959,1.495-1.088,2.572h6.274v-0.125c-0.032-1.005-0.319-1.824-0.86-2.455
		C215.172,387.773,214.463,387.456,213.587,387.456z"/>
	<path class="st1" d="M226.58,397.124c-0.116-0.329-0.19-0.815-0.222-1.46c-0.406,0.528-0.923,0.937-1.552,1.223
		s-1.294,0.43-1.997,0.43c-1.005,0-1.819-0.281-2.441-0.842c-0.621-0.561-0.933-1.269-0.933-2.127c0-1.019,0.423-1.824,1.272-2.417
		c0.848-0.593,2.028-0.89,3.543-0.89h2.098v-1.189c0-0.748-0.23-1.335-0.691-1.764c-0.461-0.429-1.133-0.643-2.016-0.643
		c-0.805,0-1.473,0.207-2.001,0.618c-0.528,0.411-0.793,0.909-0.793,1.489l-1.16-0.01c0-0.832,0.387-1.551,1.16-2.16
		c0.773-0.609,1.724-0.914,2.852-0.914c1.167,0,2.087,0.293,2.76,0.876c0.673,0.583,1.02,1.397,1.04,2.441v4.95
		c0,1.012,0.107,1.769,0.319,2.272v0.116h-1.238V397.124z M222.945,396.293c0.773,0,1.465-0.187,2.074-0.561
		s1.053-0.873,1.329-1.498v-2.301h-2.069c-1.154,0.013-2.056,0.224-2.707,0.634s-0.977,0.971-0.977,1.686
		c0,0.586,0.218,1.074,0.652,1.46S222.249,396.293,222.945,396.293z"/>
	<path class="st1" d="M232.381,383.985v2.678h2.166v0.947h-2.166v6.978c0,0.581,0.105,1.014,0.315,1.298s0.559,0.426,1.049,0.426
		c0.194,0,0.506-0.032,0.938-0.097l0.048,0.939c-0.303,0.109-0.715,0.162-1.238,0.162c-0.793,0-1.369-0.23-1.73-0.691
		s-0.541-1.14-0.541-2.036v-6.981h-1.924v-0.947h1.924v-2.678h1.158V383.985z"/>
	<path class="st1" d="M240.995,397.317c-0.89,0-1.694-0.219-2.412-0.658c-0.718-0.439-1.278-1.048-1.678-1.832
		c-0.399-0.783-0.6-1.662-0.6-2.636v-0.416c0-1.005,0.195-1.911,0.585-2.717c0.391-0.806,0.933-1.439,1.629-1.9
		s1.45-0.692,2.263-0.692c1.269,0,2.277,0.434,3.022,1.301c0.745,0.867,1.117,2.05,1.117,3.552v0.648h-7.464v0.222
		c0,1.186,0.34,2.175,1.02,2.963c0.68,0.789,1.536,1.184,2.566,1.184c0.618,0,1.165-0.113,1.639-0.339s0.904-0.586,1.29-1.082
		l0.725,0.551C243.848,396.702,242.613,397.317,240.995,397.317z M240.783,387.456c-0.87,0-1.604,0.319-2.2,0.957
		c-0.596,0.638-0.959,1.495-1.088,2.572h6.274v-0.125c-0.032-1.005-0.319-1.824-0.86-2.455
		C242.368,387.773,241.659,387.456,240.783,387.456z"/>
	<path class="st1" d="M249.3,393.209c0.013-0.759,0.116-1.371,0.309-1.835s0.609-1.009,1.247-1.637
		c0.638-0.627,1.049-1.073,1.233-1.333c0.184-0.26,0.326-0.547,0.426-0.859c0.1-0.311,0.15-0.668,0.15-1.067
		c0-0.804-0.215-1.438-0.642-1.899c-0.429-0.46-1.026-0.691-1.793-0.691c-0.773,0-1.397,0.221-1.871,0.663
		c-0.474,0.442-0.717,1.038-0.73,1.793h-1.151c0.013-1.057,0.371-1.902,1.074-2.538s1.595-0.953,2.678-0.953
		c1.109,0,1.983,0.323,2.625,0.971c0.641,0.647,0.962,1.525,0.962,2.632c0,0.696-0.158,1.349-0.474,1.956
		c-0.316,0.607-0.915,1.318-1.799,2.13c-0.728,0.613-1.092,1.5-1.092,2.666H249.3V393.209z M249.145,396.443
		c0-0.22,0.069-0.407,0.208-0.56c0.139-0.153,0.333-0.229,0.585-0.229c0.245,0,0.44,0.076,0.585,0.229
		c0.145,0.153,0.218,0.34,0.218,0.56c0,0.213-0.073,0.394-0.218,0.539c-0.145,0.146-0.34,0.219-0.585,0.219
		c-0.252,0-0.447-0.073-0.585-0.219C249.214,396.838,249.145,396.657,249.145,396.443z"/>
	<path class="st1" d="M140.449,419.724l0.436,2.185l0.531-2.088l3.055-10.374h1.074l3.016,10.374l0.523,2.108l0.464-2.204
		l2.543-10.277h1.218l-3.606,14.077h-1.141l-3.19-11.012l-0.357-1.393l-0.348,1.393l-3.268,11.012h-1.141l-3.597-14.077h1.218
		L140.449,419.724z"/>
	<path class="st1" d="M156.478,414.833c0.381-0.625,0.867-1.109,1.46-1.45c0.593-0.341,1.241-0.513,1.944-0.513
		c1.122,0,1.956,0.316,2.504,0.947s0.825,1.58,0.832,2.842v6.864h-1.151v-6.874c-0.007-0.935-0.205-1.63-0.595-2.088
		c-0.39-0.458-1.013-0.686-1.871-0.686c-0.715,0-1.349,0.224-1.9,0.672c-0.551,0.448-0.959,1.052-1.223,1.812v7.164h-1.151v-14.85
		h1.151v6.159H156.478z"/>
	<path class="st1" d="M172.798,423.524c-0.116-0.329-0.19-0.815-0.222-1.46c-0.406,0.528-0.923,0.937-1.552,1.223
		c-0.628,0.286-1.294,0.43-1.997,0.43c-1.005,0-1.819-0.281-2.441-0.842c-0.621-0.561-0.933-1.269-0.933-2.127
		c0-1.019,0.423-1.824,1.272-2.417s2.028-0.89,3.543-0.89h2.098v-1.189c0-0.748-0.23-1.335-0.691-1.764s-1.133-0.643-2.016-0.643
		c-0.805,0-1.473,0.207-2.001,0.618c-0.528,0.411-0.793,0.909-0.793,1.489l-1.16-0.01c0-0.832,0.387-1.551,1.16-2.161
		c0.773-0.608,1.724-0.913,2.852-0.913c1.167,0,2.087,0.293,2.76,0.875c0.673,0.584,1.02,1.398,1.04,2.442v4.95
		c0,1.012,0.107,1.769,0.319,2.272v0.116h-1.238V423.524z M169.162,422.693c0.773,0,1.465-0.187,2.073-0.561
		s1.053-0.873,1.329-1.498v-2.301h-2.069c-1.154,0.013-2.056,0.224-2.707,0.633c-0.651,0.41-0.977,0.972-0.977,1.687
		c0,0.586,0.218,1.074,0.652,1.46S168.466,422.693,169.162,422.693z"/>
	<path class="st1" d="M178.598,410.385v2.678h2.166v0.947h-2.166v6.978c0,0.581,0.104,1.013,0.315,1.298
		c0.209,0.284,0.559,0.426,1.049,0.426c0.194,0,0.506-0.032,0.938-0.097l0.048,0.939c-0.303,0.109-0.715,0.163-1.238,0.163
		c-0.793,0-1.369-0.23-1.73-0.692c-0.361-0.46-0.541-1.138-0.541-2.035v-6.981h-1.924v-0.947h1.924v-2.678L178.598,410.385
		L178.598,410.385z"/>
	<path class="st1" d="M194.58,423.524c-0.115-0.329-0.19-0.815-0.222-1.46c-0.406,0.528-0.923,0.937-1.552,1.223
		c-0.628,0.286-1.294,0.43-1.997,0.43c-1.005,0-1.819-0.281-2.441-0.842s-0.933-1.269-0.933-2.127c0-1.019,0.423-1.824,1.272-2.417
		s2.028-0.89,3.543-0.89h2.098v-1.189c0-0.748-0.23-1.335-0.691-1.764s-1.133-0.643-2.016-0.643c-0.805,0-1.473,0.207-2.001,0.618
		c-0.528,0.411-0.793,0.909-0.793,1.489l-1.16-0.01c0-0.832,0.387-1.551,1.16-2.161c0.773-0.608,1.724-0.913,2.852-0.913
		c1.167,0,2.087,0.293,2.76,0.875c0.673,0.584,1.02,1.398,1.04,2.442v4.95c0,1.012,0.107,1.769,0.319,2.272v0.116h-1.238V423.524z
		 M190.944,422.693c0.773,0,1.465-0.187,2.074-0.561s1.053-0.873,1.329-1.498v-2.301h-2.069c-1.154,0.013-2.056,0.224-2.707,0.633
		c-0.651,0.41-0.977,0.972-0.977,1.687c0,0.586,0.218,1.074,0.652,1.46C189.68,422.498,190.248,422.693,190.944,422.693z"/>
	<path class="st1" d="M203.416,414.049c-0.245-0.045-0.506-0.068-0.783-0.068c-0.722,0-1.332,0.202-1.833,0.605
		c-0.5,0.403-0.856,0.987-1.068,1.755v7.183h-1.151v-10.461h1.131l0.02,1.663c0.613-1.237,1.595-1.857,2.949-1.857
		c0.322,0,0.576,0.042,0.763,0.125L203.416,414.049z"/>
	<path class="st1" d="M209.111,423.717c-0.89,0-1.694-0.219-2.412-0.658c-0.718-0.439-1.278-1.048-1.677-1.833
		c-0.399-0.782-0.6-1.661-0.6-2.634v-0.416c0-1.005,0.195-1.911,0.585-2.717c0.39-0.806,0.933-1.439,1.629-1.9
		c0.696-0.461,1.45-0.692,2.263-0.692c1.269,0,2.277,0.434,3.022,1.3c0.745,0.868,1.117,2.052,1.117,3.553v0.648h-7.464v0.222
		c0,1.186,0.34,2.175,1.02,2.962c0.68,0.791,1.536,1.185,2.566,1.185c0.618,0,1.165-0.113,1.639-0.339
		c0.474-0.226,0.904-0.586,1.29-1.082l0.725,0.551C211.962,423.102,210.728,423.717,209.111,423.717z M208.897,413.856
		c-0.87,0-1.604,0.319-2.2,0.957c-0.596,0.638-0.959,1.495-1.088,2.572h6.274v-0.125c-0.032-1.005-0.319-1.824-0.86-2.455
		C210.482,414.173,209.774,413.856,208.897,413.856z"/>
	<path class="st1" d="M221.901,410.385v2.678h2.166v0.947h-2.166v6.978c0,0.581,0.105,1.013,0.315,1.298
		c0.209,0.284,0.559,0.426,1.049,0.426c0.194,0,0.506-0.032,0.938-0.097l0.048,0.939c-0.302,0.109-0.715,0.163-1.237,0.163
		c-0.793,0-1.37-0.23-1.73-0.692c-0.361-0.46-0.541-1.138-0.541-2.035v-6.981h-1.924v-0.947h1.924v-2.678L221.901,410.385
		L221.901,410.385z"/>
	<path class="st1" d="M227.615,414.833c0.381-0.625,0.867-1.109,1.46-1.45c0.593-0.341,1.241-0.513,1.944-0.513
		c1.122,0,1.956,0.316,2.504,0.947c0.548,0.631,0.825,1.58,0.832,2.842v6.864h-1.151v-6.874c-0.007-0.935-0.205-1.63-0.595-2.088
		c-0.39-0.458-1.013-0.686-1.871-0.686c-0.715,0-1.349,0.224-1.9,0.672c-0.551,0.448-0.959,1.052-1.223,1.812v7.164h-1.151v-14.85
		h1.151v6.159H227.615z"/>
	<path class="st1" d="M241.383,423.717c-0.89,0-1.694-0.219-2.412-0.658c-0.718-0.439-1.278-1.048-1.678-1.833
		c-0.399-0.782-0.6-1.661-0.6-2.634v-0.416c0-1.005,0.195-1.911,0.585-2.717c0.391-0.806,0.933-1.439,1.629-1.9
		s1.45-0.692,2.263-0.692c1.269,0,2.277,0.434,3.022,1.3c0.745,0.868,1.117,2.052,1.117,3.553v0.648h-7.464v0.222
		c0,1.186,0.34,2.175,1.02,2.962c0.68,0.791,1.536,1.185,2.566,1.185c0.618,0,1.165-0.113,1.639-0.339
		c0.474-0.226,0.904-0.586,1.29-1.082l0.725,0.551C244.234,423.102,242.999,423.717,241.383,423.717z M241.169,413.856
		c-0.87,0-1.604,0.319-2.2,0.957c-0.596,0.638-0.959,1.495-1.088,2.572h6.274v-0.125c-0.032-1.005-0.319-1.824-0.86-2.455
		C242.754,414.173,242.046,413.856,241.169,413.856z"/>
	<path class="st1" d="M251.737,418.139c0-1.005,0.195-1.911,0.585-2.717c0.391-0.806,0.941-1.432,1.653-1.88
		c0.713-0.448,1.519-0.672,2.422-0.672c1.393,0,2.52,0.487,3.384,1.465c0.864,0.976,1.296,2.269,1.296,3.881v0.242
		c0,1.012-0.195,1.923-0.585,2.73c-0.389,0.81-0.939,1.433-1.649,1.871c-0.709,0.438-1.518,0.658-2.427,0.658
		c-1.386,0-2.512-0.487-3.379-1.465c-0.867-0.976-1.3-2.269-1.3-3.881V418.139z M252.896,418.458c0,1.251,0.323,2.277,0.971,3.079
		c0.648,0.803,1.497,1.205,2.548,1.205c1.044,0,1.89-0.4,2.538-1.205c0.648-0.802,0.971-1.86,0.971-3.176v-0.222
		c0-0.8-0.148-1.531-0.444-2.194c-0.296-0.663-0.712-1.177-1.247-1.542c-0.535-0.363-1.147-0.546-1.837-0.546
		c-1.032,0-1.872,0.405-2.523,1.214c-0.651,0.81-0.977,1.867-0.977,3.176v0.211H252.896z"/>
	<path class="st1" d="M270.193,422.199c-0.696,1.012-1.808,1.518-3.335,1.518c-1.115,0-1.962-0.325-2.543-0.971
		c-0.58-0.649-0.877-1.607-0.89-2.876v-6.807h1.151v6.662c0,1.992,0.805,2.988,2.417,2.988c1.675,0,2.736-0.693,3.181-2.079v-7.57
		h1.159v10.461h-1.121L270.193,422.199z"/>
	<path class="st1" d="M276.138,410.385v2.678h2.166v0.947h-2.166v6.978c0,0.581,0.106,1.013,0.315,1.298
		c0.209,0.284,0.559,0.426,1.048,0.426c0.194,0,0.506-0.032,0.938-0.097l0.048,0.939c-0.302,0.109-0.715,0.163-1.238,0.163
		c-0.793,0-1.369-0.23-1.73-0.692c-0.361-0.46-0.541-1.138-0.541-2.035v-6.981h-1.925v-0.947h1.924v-2.678L276.138,410.385
		L276.138,410.385z"/>
	<path class="st1" d="M284.568,422.742c0.805,0,1.482-0.227,2.026-0.682c0.544-0.453,0.839-1.042,0.884-1.764h1.112
		c-0.032,0.638-0.232,1.22-0.6,1.745c-0.367,0.527-0.855,0.937-1.464,1.233c-0.609,0.296-1.262,0.444-1.958,0.444
		c-1.373,0-2.46-0.477-3.263-1.431s-1.204-2.236-1.204-3.848v-0.348c0-1.032,0.18-1.944,0.541-2.736s0.879-1.405,1.552-1.837
		c0.673-0.432,1.461-0.648,2.363-0.648c1.147,0,2.093,0.342,2.838,1.025c0.745,0.683,1.142,1.582,1.194,2.697h-1.112
		c-0.052-0.818-0.345-1.479-0.884-1.982c-0.539-0.503-1.217-0.755-2.036-0.755c-1.044,0-1.855,0.377-2.431,1.131
		s-0.866,1.811-0.866,3.171v0.339c0,1.334,0.289,2.375,0.866,3.123S283.518,422.742,284.568,422.742z"/>
	<path class="st1" d="M290.263,418.139c0-1.005,0.196-1.911,0.585-2.717s0.941-1.432,1.653-1.88
		c0.713-0.448,1.519-0.672,2.421-0.672c1.393,0,2.52,0.487,3.384,1.465c0.863,0.976,1.296,2.269,1.296,3.881v0.242
		c0,1.012-0.195,1.923-0.584,2.73c-0.389,0.81-0.939,1.433-1.649,1.871c-0.71,0.438-1.518,0.658-2.427,0.658
		c-1.386,0-2.511-0.487-3.378-1.465c-0.867-0.976-1.301-2.269-1.301-3.881L290.263,418.139L290.263,418.139z M291.423,418.458
		c0,1.251,0.324,2.277,0.972,3.079c0.648,0.803,1.496,1.205,2.547,1.205c1.044,0,1.891-0.4,2.539-1.205
		c0.648-0.802,0.971-1.86,0.971-3.176v-0.222c0-0.8-0.148-1.531-0.444-2.194c-0.296-0.663-0.712-1.177-1.247-1.542
		c-0.535-0.363-1.147-0.546-1.837-0.546c-1.032,0-1.872,0.405-2.523,1.214c-0.651,0.81-0.977,1.867-0.977,3.176V418.458z"/>
	<path class="st1" d="M303.044,413.064l0.039,1.702c0.387-0.631,0.87-1.105,1.45-1.421c0.58-0.316,1.224-0.474,1.934-0.474
		c1.65,0,2.697,0.676,3.142,2.031c0.374-0.651,0.873-1.152,1.498-1.504c0.625-0.35,1.314-0.527,2.069-0.527
		c2.243,0,3.387,1.224,3.432,3.674v6.981h-1.16v-6.894c-0.007-0.935-0.207-1.627-0.604-2.079s-1.043-0.676-1.939-0.676
		c-0.832,0.013-1.534,0.283-2.108,0.807s-0.893,1.165-0.957,1.918v6.922h-1.16v-6.981c-0.007-0.895-0.217-1.564-0.633-2.006
		c-0.416-0.44-1.056-0.662-1.919-0.662c-0.728,0-1.353,0.208-1.875,0.623c-0.523,0.417-0.909,1.033-1.16,1.852v7.173h-1.16v-10.461
		h1.114V413.064z"/>
	<path class="st1" d="M323.588,423.717c-0.89,0-1.693-0.219-2.411-0.658c-0.718-0.439-1.278-1.048-1.677-1.833
		c-0.399-0.782-0.6-1.661-0.6-2.634v-0.416c0-1.005,0.196-1.911,0.585-2.717s0.933-1.439,1.628-1.9s1.45-0.692,2.263-0.692
		c1.269,0,2.277,0.434,3.022,1.3c0.745,0.868,1.117,2.052,1.117,3.553v0.648h-7.464v0.222c0,1.186,0.341,2.175,1.021,2.962
		c0.68,0.791,1.536,1.185,2.566,1.185c0.618,0,1.166-0.113,1.639-0.339c0.473-0.226,0.903-0.586,1.29-1.082l0.725,0.551
		C326.44,423.102,325.206,423.717,323.588,423.717z M323.375,413.856c-0.87,0-1.603,0.319-2.199,0.957
		c-0.596,0.638-0.959,1.495-1.088,2.572h6.274v-0.125c-0.032-1.005-0.319-1.824-0.86-2.455
		C324.962,414.173,324.252,413.856,323.375,413.856z"/>
	<path class="st1" d="M336.031,420.865c0-0.573-0.23-1.034-0.691-1.383c-0.461-0.349-1.156-0.619-2.085-0.816
		c-0.928-0.197-1.648-0.422-2.16-0.676s-0.893-0.567-1.141-0.934c-0.247-0.367-0.373-0.812-0.373-1.334
		c0-0.825,0.344-1.506,1.034-2.044c0.69-0.538,1.573-0.807,2.649-0.807c1.167,0,2.103,0.289,2.809,0.866
		c0.706,0.576,1.058,1.329,1.058,2.257h-1.16c0-0.613-0.255-1.122-0.768-1.528s-1.159-0.609-1.939-0.609
		c-0.76,0-1.371,0.169-1.832,0.507c-0.461,0.34-0.692,0.779-0.692,1.32c0,0.523,0.192,0.927,0.575,1.213
		c0.384,0.288,1.082,0.55,2.098,0.789c1.015,0.239,1.775,0.493,2.281,0.763c0.506,0.271,0.881,0.596,1.125,0.977
		c0.244,0.381,0.367,0.842,0.367,1.383c0,0.883-0.355,1.588-1.068,2.117c-0.713,0.529-1.642,0.793-2.79,0.793
		c-1.218,0-2.206-0.295-2.962-0.885c-0.757-0.589-1.136-1.335-1.136-2.237h1.16c0.045,0.677,0.331,1.205,0.856,1.581
		c0.526,0.378,1.219,0.567,2.083,0.567c0.805,0,1.456-0.177,1.952-0.531S336.031,421.407,336.031,420.865z"/>
	<path class="st1" d="M347.922,421.862l3.055-8.798h1.247l-4.467,12.24l-0.232,0.541c-0.573,1.269-1.46,1.904-2.659,1.904
		c-0.277,0-0.573-0.045-0.89-0.135l-0.01-0.957l0.6,0.058c0.568,0,1.027-0.14,1.378-0.421c0.351-0.279,0.649-0.761,0.893-1.444
		l0.513-1.411l-3.945-10.374h1.266L347.922,421.862z"/>
	<path class="st1" d="M353.23,418.139c0-1.005,0.196-1.911,0.585-2.717s0.941-1.432,1.653-1.88c0.713-0.448,1.519-0.672,2.421-0.672
		c1.393,0,2.52,0.487,3.384,1.465c0.863,0.976,1.296,2.269,1.296,3.881v0.242c0,1.012-0.195,1.923-0.584,2.73
		c-0.389,0.81-0.939,1.433-1.649,1.871c-0.71,0.438-1.518,0.658-2.427,0.658c-1.386,0-2.511-0.487-3.378-1.465
		c-0.867-0.976-1.301-2.269-1.301-3.881L353.23,418.139L353.23,418.139z M354.39,418.458c0,1.251,0.324,2.277,0.972,3.079
		c0.648,0.803,1.496,1.205,2.547,1.205c1.044,0,1.891-0.4,2.539-1.205c0.648-0.802,0.971-1.86,0.971-3.176v-0.222
		c0-0.8-0.148-1.531-0.444-2.194c-0.296-0.663-0.712-1.177-1.247-1.542c-0.535-0.363-1.147-0.546-1.837-0.546
		c-1.032,0-1.872,0.405-2.523,1.214c-0.651,0.81-0.977,1.867-0.977,3.176V418.458z"/>
	<path class="st1" d="M371.686,422.199c-0.696,1.012-1.808,1.518-3.335,1.518c-1.115,0-1.962-0.325-2.543-0.971
		c-0.58-0.649-0.877-1.607-0.89-2.876v-6.807h1.151v6.662c0,1.992,0.805,2.988,2.417,2.988c1.675,0,2.736-0.693,3.181-2.079v-7.57
		h1.16v10.461h-1.122L371.686,422.199z"/>
	<path class="st1" d="M383.153,421.117l0.174,0.899l0.232-0.947l2.514-8.005h0.986l2.485,7.938l0.271,1.102l0.222-1.015l2.146-8.025
		h1.199l-3.046,10.461h-0.986l-2.687-8.295l-0.125-0.571l-0.125,0.58l-2.639,8.285h-0.986l-3.036-10.461h1.189L383.153,421.117z"/>
	<path class="st1" d="M402.179,423.524c-0.116-0.329-0.19-0.815-0.222-1.46c-0.406,0.528-0.923,0.937-1.551,1.223
		s-1.295,0.43-1.997,0.43c-1.005,0-1.818-0.281-2.441-0.842c-0.623-0.561-0.934-1.269-0.934-2.127c0-1.019,0.425-1.824,1.272-2.417
		s2.028-0.89,3.543-0.89h2.098v-1.189c0-0.748-0.23-1.335-0.691-1.764s-1.133-0.643-2.016-0.643c-0.805,0-1.473,0.207-2.001,0.618
		c-0.528,0.411-0.793,0.909-0.793,1.489l-1.161-0.01c0-0.832,0.387-1.551,1.161-2.161c0.773-0.608,1.724-0.913,2.852-0.913
		c1.167,0,2.087,0.293,2.761,0.875c0.673,0.584,1.02,1.398,1.038,2.442v4.95c0,1.012,0.107,1.769,0.319,2.272v0.116h-1.238V423.524z
		 M398.544,422.693c0.773,0,1.465-0.187,2.075-0.561c0.609-0.374,1.052-0.873,1.329-1.498v-2.301h-2.069
		c-1.154,0.013-2.056,0.224-2.707,0.633c-0.651,0.41-0.977,0.972-0.977,1.687c0,0.586,0.218,1.074,0.653,1.46
		C397.283,422.498,397.848,422.693,398.544,422.693z"/>
	<path class="st1" d="M407.283,413.064l0.039,1.789c0.393-0.645,0.883-1.135,1.47-1.475c0.586-0.338,1.234-0.507,1.944-0.507
		c1.122,0,1.956,0.316,2.504,0.947s0.825,1.58,0.832,2.842v6.864h-1.151v-6.874c-0.007-0.935-0.205-1.63-0.594-2.088
		s-1.014-0.686-1.871-0.686c-0.715,0-1.349,0.224-1.9,0.672c-0.551,0.448-0.959,1.052-1.223,1.812v7.164h-1.151v-10.461h1.102
		V413.064z"/>
	<path class="st1" d="M418.857,410.385v2.678h2.166v0.947h-2.166v6.978c0,0.581,0.106,1.013,0.315,1.298
		c0.209,0.284,0.559,0.426,1.048,0.426c0.194,0,0.506-0.032,0.938-0.097l0.048,0.939c-0.302,0.109-0.715,0.163-1.237,0.163
		c-0.793,0-1.37-0.23-1.73-0.692c-0.361-0.46-0.541-1.138-0.541-2.035v-6.981h-1.924v-0.947h1.924v-2.678L418.857,410.385
		L418.857,410.385z"/>
	<path class="st1" d="M430.033,410.385v2.678h2.166v0.947h-2.166v6.978c0,0.581,0.106,1.013,0.315,1.298
		c0.209,0.284,0.559,0.426,1.048,0.426c0.194,0,0.506-0.032,0.938-0.097l0.048,0.939c-0.302,0.109-0.715,0.163-1.237,0.163
		c-0.793,0-1.37-0.23-1.73-0.692c-0.361-0.46-0.541-1.138-0.541-2.035v-6.981h-1.924v-0.947h1.924v-2.678L430.033,410.385
		L430.033,410.385z"/>
	<path class="st1" d="M433.765,418.139c0-1.005,0.196-1.911,0.585-2.717s0.94-1.432,1.653-1.88c0.713-0.448,1.519-0.672,2.421-0.672
		c1.393,0,2.52,0.487,3.384,1.465c0.863,0.976,1.296,2.269,1.296,3.881v0.242c0,1.012-0.195,1.923-0.584,2.73
		c-0.389,0.81-0.939,1.433-1.649,1.871c-0.709,0.438-1.518,0.658-2.427,0.658c-1.386,0-2.511-0.487-3.378-1.465
		c-0.867-0.976-1.301-2.269-1.301-3.881L433.765,418.139L433.765,418.139z M434.924,418.458c0,1.251,0.325,2.277,0.972,3.079
		c0.648,0.803,1.496,1.205,2.546,1.205c1.044,0,1.891-0.4,2.539-1.205c0.648-0.802,0.971-1.86,0.971-3.176v-0.222
		c0-0.8-0.149-1.531-0.444-2.194s-0.712-1.177-1.247-1.542c-0.535-0.363-1.147-0.546-1.837-0.546c-1.032,0-1.872,0.405-2.523,1.214
		c-0.651,0.81-0.977,1.867-0.977,3.176V418.458z"/>
	<path class="st1" d="M455.14,414.049c-0.245-0.045-0.506-0.068-0.783-0.068c-0.722,0-1.333,0.202-1.832,0.605
		c-0.499,0.403-0.856,0.987-1.069,1.755v7.183h-1.151v-10.461h1.131l0.02,1.663c0.613-1.237,1.595-1.857,2.949-1.857
		c0.322,0,0.576,0.042,0.763,0.125L455.14,414.049z"/>
	<path class="st1" d="M460.835,423.717c-0.89,0-1.694-0.219-2.411-0.658c-0.719-0.438-1.278-1.048-1.677-1.833
		c-0.399-0.782-0.6-1.661-0.6-2.634v-0.416c0-1.005,0.195-1.911,0.584-2.717s0.934-1.439,1.629-1.9s1.45-0.692,2.263-0.692
		c1.269,0,2.276,0.434,3.022,1.3c0.744,0.868,1.117,2.052,1.117,3.553v0.648h-7.464v0.222c0,1.186,0.34,2.175,1.02,2.962
		c0.68,0.791,1.536,1.185,2.567,1.185c0.618,0,1.165-0.113,1.639-0.339c0.473-0.225,0.903-0.586,1.29-1.082l0.725,0.551
		C463.687,423.102,462.453,423.717,460.835,423.717z M460.622,413.856c-0.87,0-1.604,0.319-2.199,0.957
		c-0.597,0.638-0.959,1.495-1.088,2.572h6.274v-0.125c-0.032-1.005-0.319-1.824-0.86-2.455S461.498,413.856,460.622,413.856z"/>
	<path class="st1" d="M473.616,423.524c-0.116-0.329-0.19-0.815-0.222-1.46c-0.406,0.528-0.924,0.937-1.551,1.223
		c-0.629,0.286-1.295,0.43-1.997,0.43c-1.005,0-1.819-0.281-2.442-0.842s-0.933-1.269-0.933-2.127c0-1.019,0.424-1.824,1.272-2.417
		c0.847-0.593,2.028-0.89,3.543-0.89h2.098v-1.189c0-0.748-0.231-1.335-0.691-1.764c-0.462-0.429-1.133-0.643-2.016-0.643
		c-0.805,0-1.473,0.207-2.001,0.618c-0.528,0.411-0.793,0.909-0.793,1.489l-1.161-0.01c0-0.832,0.387-1.551,1.161-2.161
		c0.773-0.608,1.724-0.913,2.852-0.913c1.167,0,2.086,0.293,2.76,0.875c0.673,0.584,1.021,1.398,1.039,2.442v4.95
		c0,1.012,0.107,1.769,0.319,2.272v0.116h-1.238V423.524z M469.98,422.693c0.773,0,1.464-0.187,2.075-0.561
		c0.608-0.374,1.052-0.873,1.329-1.498v-2.301h-2.069c-1.154,0.013-2.056,0.224-2.707,0.633c-0.651,0.41-0.977,0.972-0.977,1.687
		c0,0.586,0.217,1.074,0.653,1.46C468.718,422.5,469.285,422.693,469.98,422.693z"/>
	<path class="st1" d="M478.914,423.524h-1.16v-14.85h1.16V423.524z"/>
	<path class="st1" d="M481.988,410.043c0-0.218,0.07-0.403,0.212-0.553c0.142-0.151,0.336-0.225,0.58-0.225
		c0.244,0,0.439,0.075,0.585,0.225c0.144,0.151,0.217,0.335,0.217,0.553c0,0.217-0.073,0.399-0.217,0.547
		c-0.146,0.148-0.341,0.221-0.585,0.221c-0.244,0-0.438-0.073-0.58-0.221C482.059,410.442,481.988,410.26,481.988,410.043z
		 M483.352,423.524h-1.16v-10.461h1.16V423.524z"/>
	<path class="st1" d="M487.257,422.548h6.797v0.977h-8.227v-0.85l6.343-8.604h-6.149v-1.005h7.609v0.869L487.257,422.548z"/>
	<path class="st1" d="M500.019,423.717c-0.89,0-1.694-0.219-2.411-0.658c-0.719-0.438-1.278-1.048-1.677-1.833
		c-0.399-0.782-0.6-1.661-0.6-2.634v-0.416c0-1.005,0.195-1.911,0.584-2.717s0.934-1.439,1.629-1.9s1.45-0.692,2.263-0.692
		c1.269,0,2.276,0.434,3.022,1.3c0.744,0.868,1.116,2.052,1.116,3.553v0.648h-7.464v0.222c0,1.186,0.34,2.175,1.02,2.962
		c0.68,0.791,1.536,1.185,2.567,1.185c0.618,0,1.165-0.113,1.639-0.339c0.473-0.225,0.903-0.586,1.29-1.082l0.725,0.551
		C502.871,423.102,501.637,423.717,500.019,423.717z M499.807,413.856c-0.87,0-1.604,0.319-2.199,0.957
		c-0.597,0.638-0.959,1.495-1.088,2.572h6.274v-0.125c-0.032-1.005-0.319-1.824-0.86-2.455S500.683,413.856,499.807,413.856z"/>
	<path class="st1" d="M508.324,419.609c0.013-0.759,0.115-1.372,0.309-1.835c0.194-0.464,0.609-1.01,1.247-1.637
		c0.638-0.628,1.049-1.073,1.232-1.333c0.185-0.261,0.326-0.547,0.426-0.859c0.1-0.312,0.151-0.668,0.151-1.068
		c0-0.804-0.215-1.437-0.642-1.897c-0.43-0.461-1.027-0.691-1.794-0.691c-0.773,0-1.397,0.221-1.871,0.663
		c-0.473,0.441-0.716,1.038-0.729,1.793h-1.151c0.013-1.057,0.371-1.902,1.074-2.539c0.703-0.634,1.595-0.951,2.678-0.951
		c1.109,0,1.983,0.323,2.626,0.971c0.64,0.647,0.961,1.525,0.961,2.632c0,0.695-0.158,1.348-0.474,1.956
		c-0.316,0.608-0.915,1.318-1.798,2.13c-0.728,0.613-1.092,1.5-1.092,2.666h-1.152V419.609z M508.169,422.843
		c0-0.221,0.068-0.407,0.208-0.56c0.138-0.153,0.333-0.229,0.584-0.229c0.245,0,0.44,0.076,0.584,0.229
		c0.146,0.153,0.218,0.339,0.218,0.56c0,0.213-0.072,0.393-0.218,0.539c-0.144,0.146-0.34,0.219-0.584,0.219
		c-0.252,0-0.447-0.073-0.584-0.219C508.238,423.237,508.169,423.057,508.169,422.843z"/>
	<path class="st1" d="M139.298,449.924h-1.189v-14.077h1.189V449.924z"/>
	<path class="st1" d="M143.677,449.924v-9.513h-1.73v-0.947h1.73v-1.266c0-1.07,0.273-1.892,0.817-2.465
		c0.544-0.573,1.303-0.86,2.277-0.86c0.438,0,0.848,0.055,1.228,0.163l-0.087,0.958c-0.322-0.077-0.673-0.116-1.054-0.116
		c-0.638,0-1.134,0.199-1.489,0.596c-0.355,0.397-0.531,0.961-0.531,1.692v1.299h2.495v0.947h-2.495v9.513h-1.161V449.924z"/>
	<path class="st1" d="M157.532,448.262l3.055-8.798h1.247l-4.467,12.24l-0.232,0.541c-0.573,1.269-1.46,1.904-2.659,1.904
		c-0.277,0-0.573-0.045-0.89-0.135l-0.01-0.957l0.599,0.058c0.568,0,1.026-0.14,1.377-0.421c0.351-0.279,0.649-0.761,0.894-1.444
		l0.513-1.411l-3.945-10.374h1.266L157.532,448.262z"/>
	<path class="st1" d="M162.839,444.539c0-1.005,0.195-1.911,0.585-2.717c0.391-0.806,0.941-1.432,1.653-1.88
		c0.713-0.448,1.519-0.672,2.422-0.672c1.393,0,2.52,0.487,3.384,1.465c0.864,0.976,1.296,2.269,1.296,3.881v0.242
		c0,1.012-0.195,1.923-0.585,2.73c-0.389,0.81-0.939,1.433-1.649,1.871s-1.518,0.658-2.427,0.658c-1.386,0-2.512-0.487-3.379-1.465
		c-0.867-0.976-1.3-2.269-1.3-3.881V444.539z M164,444.858c0,1.251,0.323,2.277,0.971,3.079c0.648,0.803,1.497,1.204,2.548,1.204
		c1.044,0,1.89-0.4,2.538-1.204c0.648-0.802,0.971-1.86,0.971-3.176v-0.222c0-0.8-0.148-1.531-0.444-2.195
		c-0.296-0.663-0.712-1.177-1.247-1.542c-0.535-0.363-1.147-0.546-1.837-0.546c-1.032,0-1.872,0.405-2.523,1.214
		c-0.651,0.81-0.977,1.867-0.977,3.176v0.211H164z"/>
	<path class="st1" d="M181.295,448.599c-0.696,1.012-1.808,1.518-3.335,1.518c-1.115,0-1.962-0.324-2.543-0.971
		c-0.58-0.649-0.877-1.607-0.89-2.876v-6.807h1.151v6.662c0,1.992,0.805,2.988,2.417,2.988c1.675,0,2.736-0.693,3.181-2.079v-7.57
		h1.16v10.461h-1.122L181.295,448.599z"/>
	<path class="st1" d="M194.125,449.142c0.805,0,1.481-0.227,2.025-0.682c0.544-0.453,0.839-1.042,0.884-1.764h1.112
		c-0.032,0.638-0.232,1.22-0.599,1.745c-0.367,0.527-0.856,0.937-1.465,1.233c-0.609,0.296-1.262,0.444-1.958,0.444
		c-1.373,0-2.461-0.477-3.263-1.431c-0.802-0.954-1.203-2.236-1.203-3.848v-0.348c0-1.032,0.18-1.944,0.541-2.736
		c0.361-0.792,0.878-1.405,1.552-1.837c0.674-0.432,1.462-0.648,2.364-0.648c1.147,0,2.093,0.342,2.838,1.025
		c0.745,0.683,1.143,1.582,1.193,2.697h-1.112c-0.052-0.818-0.347-1.479-0.884-1.982c-0.538-0.503-1.217-0.755-2.035-0.755
		c-1.044,0-1.855,0.377-2.431,1.131c-0.576,0.754-0.866,1.811-0.866,3.171v0.339c0,1.334,0.288,2.375,0.866,3.123
		C192.262,448.768,193.075,449.142,194.125,449.142z"/>
	<path class="st1" d="M199.819,444.539c0-1.005,0.195-1.911,0.585-2.717c0.391-0.806,0.941-1.432,1.653-1.88
		c0.713-0.448,1.519-0.672,2.422-0.672c1.393,0,2.52,0.487,3.384,1.465c0.864,0.976,1.296,2.269,1.296,3.881v0.242
		c0,1.012-0.195,1.923-0.585,2.73c-0.389,0.81-0.939,1.433-1.649,1.871s-1.518,0.658-2.427,0.658c-1.386,0-2.512-0.487-3.379-1.465
		c-0.867-0.976-1.3-2.269-1.3-3.881V444.539z M200.979,444.858c0,1.251,0.323,2.277,0.971,3.079
		c0.648,0.803,1.497,1.204,2.548,1.204c1.044,0,1.89-0.4,2.538-1.204c0.648-0.802,0.971-1.86,0.971-3.176v-0.222
		c0-0.8-0.148-1.531-0.444-2.195c-0.296-0.663-0.712-1.177-1.247-1.542c-0.535-0.363-1.147-0.546-1.837-0.546
		c-1.032,0-1.872,0.405-2.523,1.214c-0.651,0.81-0.977,1.867-0.977,3.176v0.211H200.979z"/>
	<path class="st1" d="M218.276,448.599c-0.696,1.012-1.808,1.518-3.335,1.518c-1.115,0-1.962-0.324-2.543-0.971
		c-0.58-0.649-0.877-1.607-0.89-2.876v-6.807h1.151v6.662c0,1.992,0.805,2.988,2.417,2.988c1.675,0,2.736-0.693,3.181-2.079v-7.57
		h1.16v10.461h-1.122L218.276,448.599z"/>
	<path class="st1" d="M223.719,449.924h-1.16v-14.85h1.16V449.924z"/>
	<path class="st1" d="M226.396,444.597c0-1.625,0.363-2.917,1.088-3.881c0.725-0.964,1.709-1.445,2.953-1.445
		c1.411,0,2.488,0.558,3.23,1.673v-5.868h1.151v14.85h-1.082l-0.048-1.393c-0.741,1.057-1.83,1.585-3.268,1.585
		c-1.206,0-2.177-0.484-2.915-1.454c-0.738-0.97-1.107-2.28-1.107-3.93v-0.136H226.396z M227.566,444.8
		c0,1.334,0.267,2.387,0.802,3.156c0.535,0.771,1.289,1.156,2.263,1.156c1.425,0,2.436-0.628,3.036-1.885v-4.911
		c-0.6-1.36-1.605-2.039-3.016-2.039c-0.974,0-1.73,0.383-2.271,1.145C227.837,442.185,227.566,443.312,227.566,444.8z"/>
	<path class="st1" d="M244.476,436.785v2.678h2.166v0.947h-2.166v6.978c0,0.581,0.105,1.013,0.315,1.298
		c0.209,0.284,0.559,0.426,1.049,0.426c0.194,0,0.506-0.032,0.938-0.097l0.048,0.939c-0.302,0.109-0.715,0.163-1.237,0.163
		c-0.793,0-1.37-0.23-1.73-0.692c-0.361-0.46-0.541-1.138-0.541-2.035v-6.981h-1.924v-0.947h1.924v-2.678L244.476,436.785
		L244.476,436.785z"/>
	<path class="st1" d="M253.873,440.449c-0.245-0.045-0.506-0.068-0.783-0.068c-0.722,0-1.332,0.202-1.833,0.605
		c-0.5,0.403-0.856,0.987-1.068,1.755v7.183h-1.151v-10.461h1.131l0.02,1.663c0.613-1.238,1.595-1.857,2.949-1.857
		c0.322,0,0.576,0.042,0.763,0.125L253.873,440.449z"/>
	<path class="st1" d="M261.916,449.924c-0.116-0.329-0.19-0.815-0.222-1.46c-0.406,0.528-0.923,0.937-1.552,1.223
		c-0.628,0.286-1.294,0.43-1.996,0.43c-1.005,0-1.819-0.28-2.441-0.842c-0.621-0.561-0.933-1.269-0.933-2.127
		c0-1.019,0.424-1.824,1.272-2.417c0.848-0.593,2.028-0.89,3.543-0.89h2.098v-1.189c0-0.748-0.23-1.335-0.691-1.764
		s-1.133-0.643-2.016-0.643c-0.805,0-1.473,0.207-2.001,0.618c-0.528,0.411-0.793,0.909-0.793,1.489l-1.16-0.01
		c0-0.832,0.387-1.551,1.16-2.161c0.773-0.608,1.724-0.913,2.852-0.913c1.167,0,2.087,0.293,2.76,0.875
		c0.673,0.584,1.02,1.398,1.04,2.442v4.95c0,1.012,0.107,1.769,0.319,2.271v0.116h-1.238V449.924z M258.282,449.093
		c0.773,0,1.465-0.187,2.074-0.561s1.053-0.873,1.329-1.498v-2.301h-2.069c-1.154,0.013-2.056,0.224-2.707,0.633
		c-0.651,0.41-0.977,0.972-0.977,1.687c0,0.586,0.218,1.074,0.652,1.46S257.585,449.093,258.282,449.093z"/>
	<path class="st1" d="M267.021,439.464l0.039,1.789c0.393-0.645,0.883-1.135,1.47-1.475c0.586-0.338,1.234-0.507,1.944-0.507
		c1.121,0,1.956,0.316,2.504,0.947s0.825,1.58,0.832,2.842v6.864h-1.151v-6.874c-0.007-0.935-0.205-1.63-0.594-2.088
		c-0.389-0.458-1.014-0.686-1.871-0.686c-0.715,0-1.349,0.224-1.9,0.672c-0.551,0.448-0.959,1.052-1.223,1.812v7.164h-1.151v-10.461
		h1.102V439.464z"/>
	<path class="st1" d="M283.06,447.265c0-0.573-0.23-1.034-0.691-1.383c-0.461-0.349-1.156-0.619-2.085-0.816
		c-0.928-0.197-1.648-0.422-2.16-0.676s-0.893-0.567-1.141-0.934c-0.247-0.367-0.373-0.812-0.373-1.334
		c0-0.825,0.344-1.506,1.034-2.044c0.69-0.538,1.573-0.807,2.649-0.807c1.167,0,2.103,0.289,2.809,0.866
		c0.706,0.576,1.058,1.329,1.058,2.257h-1.16c0-0.613-0.255-1.122-0.768-1.528s-1.159-0.609-1.939-0.609
		c-0.76,0-1.371,0.169-1.832,0.507c-0.461,0.34-0.692,0.779-0.692,1.32c0,0.523,0.193,0.927,0.575,1.213
		c0.384,0.288,1.082,0.55,2.098,0.789c1.015,0.239,1.775,0.493,2.281,0.763s0.881,0.596,1.125,0.977
		c0.244,0.381,0.367,0.842,0.367,1.383c0,0.883-0.355,1.588-1.068,2.117s-1.642,0.793-2.79,0.793c-1.218,0-2.206-0.295-2.962-0.885
		c-0.757-0.589-1.136-1.335-1.136-2.237h1.16c0.045,0.676,0.331,1.204,0.856,1.581c0.526,0.378,1.219,0.567,2.083,0.567
		c0.805,0,1.456-0.177,1.953-0.531S283.06,447.807,283.06,447.265z"/>
	<path class="st1" d="M287.652,449.924v-9.513h-1.73v-0.947h1.73v-1.266c0-1.07,0.273-1.892,0.817-2.465
		c0.545-0.573,1.303-0.86,2.276-0.86c0.438,0,0.848,0.055,1.228,0.163l-0.087,0.958c-0.322-0.077-0.673-0.116-1.054-0.116
		c-0.638,0-1.134,0.199-1.489,0.596c-0.355,0.397-0.531,0.961-0.531,1.692v1.299h2.495v0.947h-2.495v9.513h-1.159V449.924z"/>
	<path class="st1" d="M292.738,444.539c0-1.005,0.196-1.911,0.585-2.717s0.941-1.432,1.653-1.88
		c0.713-0.448,1.519-0.672,2.421-0.672c1.393,0,2.52,0.487,3.384,1.465c0.863,0.976,1.296,2.269,1.296,3.881v0.242
		c0,1.012-0.195,1.923-0.584,2.73c-0.389,0.81-0.939,1.433-1.649,1.871c-0.71,0.438-1.518,0.658-2.427,0.658
		c-1.386,0-2.511-0.487-3.378-1.465c-0.867-0.976-1.301-2.269-1.301-3.881L292.738,444.539L292.738,444.539z M293.898,444.858
		c0,1.251,0.325,2.277,0.972,3.079c0.648,0.803,1.496,1.204,2.547,1.204c1.044,0,1.891-0.4,2.539-1.204
		c0.648-0.802,0.971-1.86,0.971-3.176v-0.222c0-0.8-0.148-1.531-0.444-2.195c-0.296-0.663-0.712-1.177-1.247-1.542
		c-0.535-0.363-1.147-0.546-1.837-0.546c-1.032,0-1.872,0.405-2.523,1.214c-0.651,0.81-0.977,1.867-0.977,3.176V444.858z"/>
	<path class="st1" d="M309.299,440.449c-0.245-0.045-0.506-0.068-0.783-0.068c-0.722,0-1.332,0.202-1.832,0.605
		c-0.499,0.403-0.856,0.987-1.069,1.755v7.183h-1.151v-10.461h1.131l0.02,1.663c0.613-1.238,1.595-1.857,2.949-1.857
		c0.322,0,0.576,0.042,0.763,0.125L309.299,440.449z"/>
	<path class="st1" d="M312.18,439.464l0.039,1.702c0.387-0.631,0.87-1.106,1.45-1.421c0.58-0.316,1.224-0.474,1.934-0.474
		c1.65,0,2.697,0.676,3.142,2.031c0.374-0.651,0.873-1.152,1.498-1.504c0.625-0.35,1.315-0.527,2.069-0.527
		c2.243,0,3.387,1.224,3.432,3.674v6.981h-1.16v-6.894c-0.007-0.935-0.207-1.627-0.604-2.079s-1.043-0.676-1.939-0.676
		c-0.832,0.013-1.534,0.283-2.108,0.807c-0.573,0.525-0.893,1.165-0.957,1.918v6.922h-1.16v-6.981
		c-0.007-0.895-0.217-1.564-0.633-2.006c-0.416-0.44-1.056-0.662-1.919-0.662c-0.728,0-1.353,0.208-1.875,0.623
		c-0.523,0.417-0.909,1.033-1.16,1.852v7.173h-1.16v-10.461h1.114V439.464z"/>
	<path class="st1" d="M336.804,448.262l3.055-8.798h1.247l-4.467,12.24l-0.232,0.541c-0.573,1.269-1.46,1.904-2.659,1.904
		c-0.277,0-0.573-0.045-0.89-0.135l-0.01-0.957l0.6,0.058c0.568,0,1.027-0.14,1.378-0.421c0.351-0.279,0.649-0.761,0.893-1.444
		l0.513-1.411l-3.945-10.374h1.266L336.804,448.262z"/>
	<path class="st1" d="M342.112,444.539c0-1.005,0.196-1.911,0.585-2.717s0.941-1.432,1.653-1.88
		c0.713-0.448,1.519-0.672,2.421-0.672c1.393,0,2.52,0.487,3.384,1.465c0.863,0.976,1.296,2.269,1.296,3.881v0.242
		c0,1.012-0.195,1.923-0.584,2.73c-0.389,0.81-0.939,1.433-1.649,1.871s-1.518,0.658-2.427,0.658c-1.386,0-2.511-0.487-3.378-1.465
		c-0.867-0.976-1.301-2.269-1.301-3.881L342.112,444.539L342.112,444.539z M343.272,444.858c0,1.251,0.325,2.277,0.972,3.079
		c0.648,0.803,1.496,1.204,2.546,1.204c1.044,0,1.891-0.4,2.539-1.204c0.648-0.802,0.971-1.86,0.971-3.176v-0.222
		c0-0.8-0.149-1.531-0.444-2.195c-0.296-0.663-0.712-1.177-1.247-1.542c-0.535-0.363-1.147-0.546-1.837-0.546
		c-1.032,0-1.872,0.405-2.523,1.214c-0.651,0.81-0.977,1.867-0.977,3.176V444.858z"/>
	<path class="st1" d="M360.569,448.599c-0.696,1.012-1.808,1.518-3.335,1.518c-1.115,0-1.962-0.324-2.543-0.971
		c-0.58-0.649-0.877-1.607-0.89-2.876v-6.807h1.151v6.662c0,1.992,0.805,2.988,2.417,2.988c1.675,0,2.736-0.693,3.181-2.079v-7.57
		h1.16v10.461h-1.122L360.569,448.599z"/>
	<path class="st1" d="M369.55,440.449c-0.245-0.045-0.506-0.068-0.783-0.068c-0.722,0-1.332,0.202-1.832,0.605
		c-0.499,0.403-0.856,0.987-1.069,1.755v7.183h-1.151v-10.461h1.131l0.02,1.663c0.613-1.238,1.595-1.857,2.949-1.857
		c0.322,0,0.576,0.042,0.763,0.125L369.55,440.449z"/>
	<path class="st1" d="M380.058,449.142c0.805,0,1.482-0.227,2.026-0.682c0.544-0.453,0.839-1.042,0.884-1.764h1.112
		c-0.032,0.638-0.232,1.22-0.6,1.745c-0.367,0.527-0.855,0.937-1.464,1.233c-0.609,0.296-1.262,0.444-1.958,0.444
		c-1.373,0-2.46-0.477-3.263-1.431s-1.204-2.236-1.204-3.848v-0.348c0-1.032,0.18-1.944,0.541-2.736s0.879-1.405,1.552-1.837
		c0.673-0.432,1.461-0.648,2.363-0.648c1.147,0,2.093,0.342,2.838,1.025c0.745,0.683,1.142,1.582,1.194,2.697h-1.112
		c-0.052-0.818-0.345-1.479-0.884-1.982c-0.539-0.503-1.217-0.755-2.036-0.755c-1.044,0-1.855,0.377-2.431,1.131
		c-0.576,0.754-0.866,1.811-0.866,3.171v0.339c0,1.334,0.289,2.375,0.866,3.123C378.193,448.768,379.008,449.142,380.058,449.142z"
		/>
	<path class="st1" d="M393.12,448.599c-0.696,1.012-1.808,1.518-3.335,1.518c-1.115,0-1.962-0.324-2.543-0.971
		c-0.58-0.649-0.877-1.607-0.89-2.876v-6.807h1.151v6.662c0,1.992,0.805,2.988,2.417,2.988c1.675,0,2.736-0.693,3.181-2.079v-7.57
		h1.16v10.461h-1.122L393.12,448.599z"/>
	<path class="st1" d="M402.101,440.449c-0.245-0.045-0.506-0.068-0.783-0.068c-0.722,0-1.332,0.202-1.832,0.605
		c-0.499,0.403-0.856,0.987-1.069,1.755v7.183h-1.151v-10.461h1.131l0.02,1.663c0.613-1.238,1.595-1.857,2.949-1.857
		c0.322,0,0.576,0.042,0.763,0.125L402.101,440.449z"/>
	<path class="st1" d="M408.763,440.449c-0.245-0.045-0.506-0.068-0.783-0.068c-0.722,0-1.332,0.202-1.832,0.605
		c-0.499,0.403-0.856,0.987-1.069,1.755v7.183h-1.151v-10.461h1.131l0.02,1.663c0.613-1.238,1.595-1.857,2.949-1.857
		c0.322,0,0.576,0.042,0.763,0.125L408.763,440.449z"/>
	<path class="st1" d="M410.523,436.443c0-0.218,0.07-0.403,0.212-0.553s0.335-0.225,0.58-0.225c0.244,0,0.44,0.075,0.585,0.225
		c0.145,0.151,0.217,0.336,0.217,0.553c0,0.217-0.072,0.399-0.217,0.547c-0.145,0.148-0.341,0.221-0.585,0.221
		c-0.244,0-0.438-0.073-0.58-0.221C410.593,436.842,410.523,436.66,410.523,436.443z M411.886,449.924h-1.16v-10.461h1.16V449.924z"
		/>
	<path class="st1" d="M418.895,449.142c0.805,0,1.482-0.227,2.026-0.682c0.544-0.453,0.839-1.042,0.884-1.764h1.112
		c-0.032,0.638-0.232,1.22-0.6,1.745c-0.367,0.527-0.855,0.937-1.464,1.233c-0.609,0.296-1.262,0.444-1.958,0.444
		c-1.373,0-2.46-0.477-3.263-1.431c-0.803-0.954-1.205-2.236-1.205-3.848v-0.348c0-1.032,0.18-1.944,0.541-2.736
		s0.879-1.405,1.552-1.837c0.673-0.432,1.461-0.648,2.363-0.648c1.147,0,2.093,0.342,2.838,1.025s1.142,1.582,1.193,2.697h-1.112
		c-0.052-0.818-0.345-1.479-0.884-1.982c-0.539-0.503-1.217-0.755-2.036-0.755c-1.044,0-1.855,0.377-2.431,1.131
		c-0.576,0.754-0.866,1.811-0.866,3.171v0.339c0,1.334,0.289,2.375,0.866,3.123C417.029,448.768,417.844,449.142,418.895,449.142z"
		/>
	<path class="st1" d="M431.956,448.599c-0.696,1.012-1.808,1.518-3.335,1.518c-1.115,0-1.962-0.324-2.543-0.971
		c-0.58-0.649-0.877-1.607-0.89-2.876v-6.807h1.151v6.662c0,1.992,0.805,2.988,2.417,2.988c1.675,0,2.736-0.693,3.181-2.079v-7.57
		h1.16v10.461h-1.122L431.956,448.599z"/>
	<path class="st1" d="M437.399,449.924h-1.16v-14.85h1.16V449.924z"/>
	<path class="st1" d="M447.271,448.599c-0.696,1.012-1.808,1.518-3.335,1.518c-1.115,0-1.962-0.324-2.543-0.971
		c-0.58-0.649-0.877-1.607-0.89-2.876v-6.807h1.151v6.662c0,1.992,0.805,2.988,2.417,2.988c1.675,0,2.736-0.693,3.181-2.079v-7.57
		h1.16v10.461h-1.122L447.271,448.599z"/>
	<path class="st1" d="M452.471,439.464l0.039,1.702c0.387-0.631,0.87-1.106,1.45-1.421s1.224-0.474,1.934-0.474
		c1.65,0,2.697,0.676,3.142,2.031c0.374-0.651,0.873-1.152,1.498-1.504c0.625-0.35,1.315-0.527,2.069-0.527
		c2.243,0,3.387,1.224,3.432,3.674v6.981h-1.16v-6.894c-0.007-0.935-0.208-1.627-0.604-2.079c-0.397-0.451-1.043-0.676-1.939-0.676
		c-0.832,0.013-1.534,0.283-2.108,0.807s-0.893,1.165-0.957,1.918v6.922h-1.16v-6.981c-0.007-0.895-0.217-1.564-0.634-2.006
		c-0.415-0.44-1.055-0.662-1.918-0.662c-0.728,0-1.353,0.208-1.875,0.623c-0.522,0.417-0.909,1.033-1.16,1.852v7.173h-1.16v-10.461
		h1.114V439.464z"/>
	<path class="st1" d="M468.724,452.554l-0.686-0.503c0.586-0.786,0.89-1.602,0.909-2.446v-1.498h1.131v1.209
		C470.077,450.655,469.626,451.735,468.724,452.554z"/>
	<path class="st1" d="M480.074,447.517l0.174,0.899l0.232-0.947l2.514-8.005h0.986l2.485,7.938l0.271,1.102l0.222-1.015l2.146-8.025
		h1.199l-3.046,10.461h-0.986l-2.687-8.295l-0.125-0.571l-0.125,0.58l-2.639,8.285h-0.986l-3.036-10.461h1.189L480.074,447.517z"/>
	<path class="st1" d="M493.648,441.233c0.381-0.625,0.867-1.109,1.46-1.45s1.241-0.513,1.944-0.513c1.122,0,1.956,0.316,2.504,0.947
		s0.825,1.58,0.832,2.842v6.864h-1.151v-6.874c-0.007-0.935-0.206-1.63-0.594-2.088c-0.391-0.458-1.014-0.686-1.871-0.686
		c-0.715,0-1.35,0.224-1.9,0.672c-0.552,0.448-0.959,1.052-1.223,1.812v7.164h-1.151v-14.85h1.151L493.648,441.233L493.648,441.233z
		"/>
	<path class="st1" d="M509.967,449.924c-0.115-0.329-0.19-0.815-0.222-1.46c-0.406,0.528-0.924,0.937-1.551,1.223
		c-0.629,0.286-1.295,0.43-1.996,0.43c-1.005,0-1.819-0.28-2.442-0.842c-0.623-0.561-0.933-1.269-0.933-2.127
		c0-1.019,0.423-1.824,1.272-2.417c0.847-0.593,2.028-0.89,3.543-0.89h2.098v-1.189c0-0.748-0.231-1.335-0.691-1.764
		c-0.462-0.429-1.133-0.643-2.016-0.643c-0.805,0-1.473,0.207-2.001,0.618c-0.528,0.411-0.793,0.909-0.793,1.489l-1.16-0.01
		c0-0.832,0.387-1.551,1.16-2.161c0.773-0.608,1.724-0.913,2.852-0.913c1.167,0,2.086,0.293,2.76,0.875
		c0.673,0.584,1.021,1.398,1.04,2.442v4.95c0,1.012,0.107,1.769,0.319,2.271v0.116h-1.238V449.924z M506.332,449.093
		c0.773,0,1.464-0.187,2.075-0.561c0.608-0.374,1.052-0.873,1.329-1.498v-2.301h-2.069c-1.154,0.013-2.056,0.224-2.707,0.633
		c-0.651,0.41-0.977,0.972-0.977,1.687c0,0.586,0.217,1.074,0.653,1.46C505.07,448.9,505.635,449.093,506.332,449.093z"/>
	<path class="st1" d="M515.768,436.785v2.678h2.166v0.947h-2.166v6.978c0,0.581,0.104,1.013,0.313,1.298
		c0.209,0.284,0.56,0.426,1.049,0.426c0.194,0,0.506-0.032,0.938-0.097l0.048,0.939c-0.303,0.109-0.715,0.163-1.238,0.163
		c-0.793,0-1.369-0.23-1.73-0.692c-0.361-0.46-0.541-1.138-0.541-2.035v-6.981h-1.924v-0.947h1.924v-2.678L515.768,436.785
		L515.768,436.785z"/>
	<path class="st1" d="M140.081,473.917l0.174,0.899l0.232-0.947l2.514-8.005h0.986l2.485,7.938l0.271,1.102l0.222-1.015l2.146-8.025
		h1.199l-3.046,10.461h-0.986l-2.687-8.295l-0.125-0.571l-0.125,0.58l-2.639,8.285h-0.986l-3.036-10.461h1.189L140.081,473.917z"/>
	<path class="st1" d="M151.867,470.939c0-1.005,0.195-1.911,0.585-2.717c0.391-0.806,0.94-1.432,1.653-1.88s1.519-0.672,2.422-0.672
		c1.393,0,2.52,0.487,3.384,1.465c0.864,0.976,1.296,2.269,1.296,3.881v0.242c0,1.012-0.195,1.923-0.585,2.73
		c-0.389,0.81-0.939,1.433-1.649,1.871s-1.518,0.658-2.427,0.658c-1.386,0-2.512-0.487-3.379-1.465
		c-0.867-0.976-1.3-2.269-1.3-3.881V470.939z M153.026,471.258c0,1.251,0.323,2.277,0.971,3.079
		c0.648,0.803,1.497,1.204,2.548,1.204c1.044,0,1.89-0.4,2.538-1.204c0.648-0.802,0.971-1.86,0.971-3.176v-0.222
		c0-0.8-0.148-1.531-0.444-2.194s-0.712-1.177-1.247-1.542c-0.535-0.363-1.147-0.546-1.837-0.546c-1.032,0-1.872,0.405-2.523,1.214
		s-0.977,1.867-0.977,3.176v0.211H153.026z"/>
	<path class="st1" d="M170.322,474.999c-0.696,1.012-1.808,1.518-3.335,1.518c-1.115,0-1.962-0.324-2.543-0.971
		c-0.58-0.649-0.877-1.607-0.89-2.876v-6.807h1.151v6.662c0,1.992,0.805,2.988,2.417,2.988c1.675,0,2.736-0.693,3.181-2.079v-7.57
		h1.16v10.461h-1.122L170.322,474.999z"/>
	<path class="st1" d="M175.765,476.324h-1.16v-14.85h1.16V476.324z"/>
	<path class="st1" d="M178.444,470.997c0-1.625,0.363-2.917,1.088-3.881c0.725-0.964,1.709-1.445,2.953-1.445
		c1.411,0,2.488,0.558,3.23,1.673v-5.868h1.151v14.85h-1.082l-0.048-1.393c-0.741,1.057-1.83,1.585-3.268,1.585
		c-1.206,0-2.177-0.484-2.915-1.454c-0.738-0.97-1.107-2.28-1.107-3.93v-0.136H178.444z M179.613,471.2
		c0,1.334,0.267,2.387,0.802,3.156c0.535,0.771,1.289,1.156,2.263,1.156c1.424,0,2.436-0.628,3.036-1.885v-4.911
		c-0.6-1.36-1.605-2.039-3.016-2.039c-0.973,0-1.73,0.383-2.271,1.145C179.884,468.585,179.613,469.712,179.613,471.2z"/>
	<path class="st1" d="M194.657,462.843c0-0.218,0.07-0.403,0.212-0.553c0.142-0.151,0.335-0.225,0.58-0.225s0.44,0.075,0.585,0.225
		s0.218,0.336,0.218,0.553c0,0.217-0.073,0.399-0.218,0.547c-0.145,0.149-0.34,0.221-0.585,0.221c-0.245,0-0.438-0.073-0.58-0.221
		C194.727,463.242,194.657,463.06,194.657,462.843z M196.02,476.324h-1.16v-10.461h1.16V476.324z"/>
	<path class="st1" d="M200.96,463.185v2.678h2.166v0.947h-2.166v6.978c0,0.581,0.104,1.013,0.315,1.298
		c0.209,0.284,0.559,0.426,1.049,0.426c0.194,0,0.506-0.032,0.938-0.097l0.048,0.939c-0.302,0.109-0.715,0.163-1.238,0.163
		c-0.793,0-1.369-0.23-1.73-0.692c-0.361-0.46-0.541-1.139-0.541-2.035v-6.981h-1.924v-0.947h1.924v-2.678L200.96,463.185
		L200.96,463.185z"/>
	<path class="st1" d="M211.634,476.324h-1.16v-14.85h1.16V476.324z"/>
	<path class="st1" d="M214.138,470.939c0-1.005,0.195-1.911,0.585-2.717c0.391-0.806,0.941-1.432,1.653-1.88
		c0.713-0.448,1.519-0.672,2.422-0.672c1.393,0,2.52,0.487,3.384,1.465c0.864,0.976,1.296,2.269,1.296,3.881v0.242
		c0,1.012-0.195,1.923-0.585,2.73c-0.389,0.81-0.939,1.433-1.649,1.871s-1.518,0.658-2.427,0.658c-1.386,0-2.512-0.487-3.379-1.465
		c-0.867-0.976-1.3-2.269-1.3-3.881L214.138,470.939L214.138,470.939z M215.298,471.258c0,1.251,0.323,2.277,0.971,3.079
		c0.648,0.803,1.497,1.204,2.548,1.204c1.044,0,1.89-0.4,2.538-1.204c0.648-0.802,0.971-1.86,0.971-3.176v-0.222
		c0-0.8-0.149-1.531-0.444-2.194s-0.712-1.177-1.247-1.542c-0.535-0.363-1.147-0.546-1.837-0.546c-1.032,0-1.872,0.405-2.523,1.214
		s-0.977,1.867-0.977,3.176v0.211H215.298z"/>
	<path class="st1" d="M225.227,470.939c0-1.005,0.195-1.911,0.585-2.717c0.391-0.806,0.941-1.432,1.653-1.88
		c0.713-0.448,1.519-0.672,2.422-0.672c1.393,0,2.52,0.487,3.384,1.465c0.864,0.976,1.296,2.269,1.296,3.881v0.242
		c0,1.012-0.195,1.923-0.585,2.73c-0.389,0.81-0.939,1.433-1.649,1.871s-1.518,0.658-2.427,0.658c-1.386,0-2.512-0.487-3.379-1.465
		c-0.867-0.976-1.3-2.269-1.3-3.881V470.939z M226.387,471.258c0,1.251,0.323,2.277,0.971,3.079
		c0.648,0.803,1.497,1.204,2.548,1.204c1.044,0,1.89-0.4,2.538-1.204c0.648-0.802,0.971-1.86,0.971-3.176v-0.222
		c0-0.8-0.149-1.531-0.444-2.194s-0.712-1.177-1.247-1.542c-0.535-0.363-1.147-0.546-1.837-0.546c-1.032,0-1.872,0.405-2.523,1.214
		s-0.977,1.867-0.977,3.176v0.211H226.387z"/>
	<path class="st1" d="M239.439,471.055l-1.324,1.276v3.993h-1.16v-14.85h1.16v9.504l1.092-1.179l4.003-3.935h1.46l-4.437,4.409
		l4.825,6.052h-1.383L239.439,471.055z"/>
	<path class="st1" d="M252.761,476.324h-1.16v-14.85h1.16V476.324z"/>
	<path class="st1" d="M255.835,462.843c0-0.218,0.07-0.403,0.212-0.553c0.142-0.151,0.335-0.225,0.58-0.225
		c0.244,0,0.44,0.075,0.585,0.225c0.145,0.151,0.218,0.336,0.218,0.553c0,0.217-0.073,0.399-0.218,0.547
		c-0.145,0.149-0.34,0.221-0.585,0.221s-0.438-0.073-0.58-0.221C255.907,463.242,255.835,463.06,255.835,462.843z M257.198,476.324
		h-1.16v-10.461h1.16V476.324z"/>
	<path class="st1" d="M262.826,471.055l-1.324,1.276v3.993h-1.16v-14.85h1.16v9.504l1.092-1.179l4.003-3.935h1.46l-4.437,4.409
		l4.825,6.052h-1.383L262.826,471.055z"/>
	<path class="st1" d="M273.895,476.517c-0.89,0-1.693-0.219-2.411-0.658c-0.718-0.439-1.278-1.048-1.677-1.833
		c-0.399-0.782-0.6-1.661-0.6-2.634v-0.416c0-1.005,0.195-1.911,0.585-2.717c0.391-0.806,0.933-1.439,1.628-1.9
		c0.696-0.461,1.45-0.692,2.263-0.692c1.269,0,2.277,0.434,3.022,1.3c0.745,0.868,1.117,2.051,1.117,3.553v0.648h-7.464v0.222
		c0,1.186,0.34,2.175,1.02,2.962c0.68,0.791,1.536,1.185,2.566,1.185c0.618,0,1.166-0.113,1.639-0.339s0.903-0.586,1.29-1.082
		l0.725,0.551C276.746,475.902,275.512,476.517,273.895,476.517z M273.682,466.656c-0.87,0-1.603,0.319-2.199,0.957
		c-0.596,0.638-0.959,1.495-1.088,2.572h6.274v-0.125c-0.032-1.005-0.319-1.824-0.86-2.455
		C275.268,466.973,274.559,466.656,273.682,466.656z"/>
	<path class="st1" d="M282.199,472.409c0.013-0.759,0.116-1.372,0.309-1.835c0.194-0.464,0.609-1.01,1.247-1.637
		c0.638-0.628,1.049-1.073,1.233-1.333c0.184-0.261,0.326-0.547,0.426-0.859c0.1-0.312,0.15-0.668,0.15-1.068
		c0-0.804-0.213-1.437-0.642-1.897s-1.027-0.691-1.794-0.691c-0.773,0-1.397,0.221-1.87,0.663c-0.473,0.442-0.717,1.038-0.73,1.793
		h-1.151c0.013-1.057,0.371-1.902,1.074-2.539c0.703-0.634,1.595-0.951,2.678-0.951c1.109,0,1.984,0.323,2.626,0.971
		c0.641,0.647,0.961,1.525,0.961,2.632c0,0.695-0.158,1.348-0.474,1.956c-0.316,0.608-0.915,1.318-1.799,2.13
		c-0.728,0.613-1.092,1.5-1.092,2.666h-1.152V472.409z M282.045,475.643c0-0.221,0.069-0.407,0.208-0.56
		c0.139-0.153,0.333-0.229,0.584-0.229c0.245,0,0.44,0.076,0.585,0.229c0.145,0.153,0.217,0.339,0.217,0.56
		c0,0.213-0.072,0.393-0.217,0.539c-0.145,0.146-0.341,0.219-0.585,0.219c-0.252,0-0.445-0.073-0.584-0.219
		S282.045,475.857,282.045,475.643z"/>
</g>
</svg>
