<?xml version="1.0" encoding="utf-8"?>
<!-- Generator: Adobe Illustrator 22.1.0, SVG Export Plug-In . SVG Version: 6.00 Build 0)  -->
<svg version="1.1" id="Layer_1" xmlns="http://www.w3.org/2000/svg" xmlns:xlink="http://www.w3.org/1999/xlink" x="0px" y="0px"
	 viewBox="0 0 36 36" style="enable-background:new 0 0 36 36;" xml:space="preserve">
<g>
	<path d="M25.655,27.455c0.89,0.002,1.26-0.371,1.261-1.247c0.001-4.184,0.001-8.368,0.001-12.551c0-4.226,0.001-5.257-0.001-9.482
		c0-0.775-0.376-1.193-1.125-1.191C20.498,3.001,15.206,3.03,9.914,3.051C9.381,3.053,9.092,3.325,9.037,3.829
		C8.988,4.285,8.973,4.747,8.973,5.206c-0.004,7.74-0.003,12.285-0.002,20.025c0,0.376-0.006,0.754,0.017,1.129
		c0.047,0.761,0.346,1.043,1.103,1.046C15.279,27.425,20.467,27.442,25.655,27.455z M17.971,26.841
		c-0.533,0.024-1.038-0.484-1.035-1.04c0.002-0.543,0.459-0.992,1.004-0.988c0.556,0.004,0.998,0.441,1.002,0.989
		C18.945,26.343,18.5,26.818,17.971,26.841z M10.544,6.606c4.958,0,9.85,0,14.789,0c0,6.824,0,10.433,0,17.268
		c-4.941,0-9.846,0-14.789,0C10.544,17.046,10.544,13.453,10.544,6.606z"/>
	<path d="M21.489,28.207c0.007-0.068-0.021-0.095-0.091-0.092c-0.116,0.004-0.232,0.008-0.347-0.001
		c-0.104-0.008-0.139,0.022-0.138,0.133c0.006,0.544,0.003,1.088,0.003,1.631c0,0.041,0,0.082,0,0.126c-0.035,0-0.056,0.003-0.076,0
		c-0.252-0.045-0.504-0.068-0.762-0.04c-0.721,0.078-1.244,0.44-1.571,1.082c-0.218,0.429-0.266,0.89-0.198,1.361
		c0.072,0.499,0.288,0.921,0.708,1.219c0.311,0.22,0.662,0.325,1.041,0.354c0.451,0.034,0.885-0.028,1.305-0.198
		c0.095-0.038,0.129-0.091,0.128-0.196c-0.004-1.775-0.003-3.551-0.003-5.326C21.489,28.242,21.487,28.224,21.489,28.207z
		 M20.917,33.318c0,0.065-0.015,0.106-0.083,0.123c-0.521,0.129-1.017,0.094-1.461-0.234c-0.306-0.226-0.439-0.556-0.493-0.92
		c-0.054-0.365-0.019-0.724,0.155-1.053c0.273-0.517,0.705-0.786,1.294-0.778c0.166,0.002,0.331,0.04,0.497,0.063
		c0.072,0.01,0.092,0.053,0.092,0.126c-0.003,0.446-0.002,0.891-0.002,1.337S20.915,32.872,20.917,33.318z"/>
	<path d="M10.786,31.735c-0.095-0.114-0.098-0.115,0.01-0.215c0.457-0.425,0.916-0.849,1.373-1.274
		c0.063-0.058,0.124-0.117,0.206-0.195c-0.229,0-0.428,0.003-0.627-0.002c-0.077-0.002-0.131,0.022-0.185,0.075
		c-0.42,0.408-0.843,0.813-1.266,1.219c-0.027,0.026-0.062,0.046-0.114,0.084c0-0.071,0-0.113,0-0.154c0-0.403,0-0.807,0-1.21
		c0-0.614-0.001-1.228,0.002-1.841c0-0.083-0.024-0.113-0.108-0.108c-0.108,0.006-0.217,0.001-0.326,0.002
		c-0.14,0-0.14,0-0.14,0.136c0,1.842,0,3.683,0,5.524c0,0.018,0.001,0.035,0,0.053c-0.005,0.059,0.022,0.082,0.081,0.081
		c0.119-0.002,0.239-0.007,0.358,0.001c0.105,0.008,0.138-0.024,0.137-0.133c-0.005-0.582-0.003-1.164-0.003-1.747
		c0-0.041,0-0.082,0-0.122c0.011-0.004,0.022-0.008,0.034-0.013c0.032,0.035,0.066,0.068,0.096,0.104
		c0.433,0.524,0.866,1.049,1.299,1.574c0.091,0.111,0.166,0.26,0.285,0.316c0.118,0.056,0.282,0.017,0.425,0.019
		c0.088,0.001,0.176,0,0.282,0c-0.023-0.033-0.03-0.045-0.038-0.055C11.973,33.147,11.38,32.441,10.786,31.735z"/>
	<path d="M24.713,32.061c0.733,0,1.467,0,2.2,0c0.063,0,0.116,0.003,0.117-0.089c0.003-0.346-0.034-0.685-0.15-1.012
		c-0.234-0.656-0.735-1.025-1.405-1.009c-0.581,0.014-1.008,0.303-1.273,0.811c-0.346,0.664-0.352,1.359-0.114,2.057
		c0.149,0.438,0.422,0.782,0.845,0.99c0.346,0.171,0.715,0.219,1.094,0.158c0.296-0.047,0.576-0.146,0.836-0.299
		c0.039-0.023,0.083-0.041,0.053-0.103c-0.051-0.107-0.098-0.216-0.154-0.339c-0.253,0.142-0.507,0.237-0.783,0.266
		c-0.453,0.047-0.84-0.079-1.13-0.442c-0.185-0.231-0.263-0.505-0.301-0.795C24.525,32.077,24.533,32.061,24.713,32.061z
		 M24.919,30.651c0.357-0.323,0.983-0.315,1.292,0.187c0.116,0.189,0.179,0.395,0.197,0.614c0.011,0.133,0.004,0.137-0.127,0.137
		c-0.27,0-0.54,0-0.81,0c-0.27,0-0.54-0.002-0.81,0.001c-0.087,0.001-0.114-0.024-0.107-0.116
		C24.58,31.155,24.677,30.87,24.919,30.651z"/>
	<path d="M17.571,30.946c-0.099-0.712-0.675-1.11-1.379-0.968c-0.356,0.072-0.663,0.238-0.952,0.448
		c-0.039,0.028-0.079,0.055-0.135,0.094c-0.016-0.066-0.026-0.109-0.036-0.153c-0.022-0.101-0.012-0.242-0.075-0.294
		c-0.064-0.053-0.2-0.02-0.305-0.021c-0.135-0.002-0.135,0-0.135,0.14c0,0.779,0,1.557,0,2.336c0,0.424,0.002,0.849-0.001,1.273
		c-0.001,0.081,0.021,0.116,0.107,0.109c0.08-0.007,0.161,0,0.242-0.002c0.233-0.003,0.215,0.038,0.215-0.211
		c0-0.824-0.001-1.648,0.002-2.473c0-0.059,0.01-0.139,0.047-0.172c0.284-0.248,0.587-0.473,0.969-0.543
		c0.443-0.081,0.765,0.059,0.859,0.577c0.03,0.164,0.038,0.334,0.041,0.501c0.006,0.407,0.002,0.814,0.002,1.221
		c0,0.33,0.003,0.659-0.002,0.989c-0.001,0.088,0.028,0.118,0.115,0.113c0.105-0.006,0.211-0.009,0.315,0
		c0.11,0.01,0.135-0.033,0.135-0.137c-0.004-0.807-0.001-1.613-0.003-2.42C17.598,31.218,17.59,31.081,17.571,30.946z"/>
	<path d="M23.524,33.581c-0.008-0.093-0.039-0.122-0.147-0.109c-0.254,0.031-0.386-0.052-0.395-0.317
		c-0.005-0.133-0.014-0.266-0.014-0.399c-0.001-1.487-0.001-2.974-0.001-4.461c0-0.032-0.002-0.063,0-0.095
		c0.004-0.063-0.025-0.087-0.088-0.086c-0.112,0.003-0.224,0.001-0.337,0.001c-0.136,0-0.136,0-0.136,0.141c0,0.852,0,1.705,0,2.557
		c0,0.224,0,0.449,0,0.673c0.001,0.631-0.001,1.263,0.003,1.894c0.002,0.297,0.182,0.519,0.452,0.586
		c0.175,0.043,0.348,0.03,0.518-0.022c0.196-0.06,0.195-0.063,0.157-0.269C23.531,33.644,23.527,33.613,23.524,33.581z"/>
	<path d="M13.635,30.144c0.001-0.067-0.021-0.095-0.09-0.093c-0.123,0.004-0.246,0.007-0.368-0.001
		c-0.096-0.006-0.117,0.032-0.116,0.121c0.003,0.603,0.002,1.207,0.002,1.81c0,0.607,0.001,1.214-0.002,1.821
		c0,0.081,0.021,0.114,0.107,0.109c0.115-0.007,0.232-0.008,0.347,0c0.102,0.008,0.122-0.033,0.122-0.126
		c-0.003-0.996-0.002-1.992-0.002-2.989C13.634,30.579,13.632,30.361,13.635,30.144z"/>
	<path d="M13.351,28.403c-0.228-0.004-0.414,0.174-0.415,0.397c-0.001,0.217,0.18,0.398,0.401,0.4
		c0.227,0.002,0.402-0.167,0.404-0.392C13.743,28.579,13.577,28.407,13.351,28.403z"/>
</g>
</svg>
