<?xml version="1.0" encoding="utf-8"?>
<!-- Generator: Adobe Illustrator 22.1.0, SVG Export Plug-In . SVG Version: 6.00 Build 0)  -->
<svg version="1.1" id="Layer_1" xmlns="http://www.w3.org/2000/svg" xmlns:xlink="http://www.w3.org/1999/xlink" x="0px" y="0px"
	 viewBox="0 0 36 36" style="enable-background:new 0 0 36 36;" xml:space="preserve">
<g>
	<path d="M23.622,23.812c0.502-0.395,0.9-0.887,1.283-1.393c0.579-0.764,1.094-1.568,1.491-2.441
		c0.216-0.475,0.392-0.968,0.587-1.453c0.006-0.016,0.017-0.031,0.026-0.046c0-0.015,0-0.03,0-0.045
		c-0.465-0.181-0.872-0.459-1.254-0.774c-0.54-0.446-0.977-0.978-1.29-1.603c-0.284-0.568-0.437-1.174-0.484-1.809
		c-0.053-0.705-0.004-1.399,0.211-2.075c0.248-0.781,0.689-1.439,1.297-1.982c0.285-0.254,0.597-0.478,0.91-0.726
		c-0.064-0.089-0.136-0.196-0.216-0.296c-0.45-0.561-0.995-1.008-1.636-1.335c-0.511-0.261-1.054-0.427-1.618-0.517
		c-0.274-0.044-0.552-0.076-0.829-0.091c-0.652-0.035-1.281,0.102-1.894,0.304c-0.612,0.201-1.219,0.419-1.824,0.641
		c-0.333,0.122-0.659,0.13-0.992,0.01c-0.48-0.174-0.962-0.344-1.443-0.516c-0.467-0.167-0.942-0.305-1.436-0.363
		c-0.425-0.05-0.847-0.008-1.265,0.066c-0.864,0.152-1.632,0.521-2.324,1.05c-0.593,0.453-1.064,1.014-1.445,1.654
		c-0.278,0.466-0.493,0.959-0.647,1.477c-0.18,0.605-0.303,1.222-0.331,1.855c-0.002,0.051-0.013,0.102-0.02,0.154
		c0,0.343,0,0.686,0,1.03c0.014,0.148,0.023,0.296,0.043,0.443c0.058,0.418,0.114,0.837,0.182,1.253
		c0.132,0.812,0.366,1.598,0.652,2.367c0.384,1.033,0.863,2.021,1.494,2.928c0.401,0.577,0.803,1.154,1.288,1.666
		c0.303,0.321,0.625,0.62,1.002,0.852c0.421,0.258,0.874,0.417,1.379,0.383c0.387-0.027,0.757-0.13,1.121-0.26
		c0.426-0.153,0.847-0.322,1.279-0.456c0.484-0.15,0.983-0.238,1.493-0.2c0.445,0.034,0.88,0.133,1.3,0.283
		c0.356,0.127,0.705,0.276,1.064,0.395c0.359,0.119,0.726,0.21,1.108,0.215C22.542,24.462,23.111,24.214,23.622,23.812z"/>
	<path d="M19.39,6.715c0.595-0.26,1.094-0.651,1.526-1.129c0.363-0.402,0.664-0.848,0.899-1.335
		c0.219-0.455,0.365-0.932,0.427-1.435c0.044-0.36,0.055-0.718,0.02-1.078c-0.052,0-0.104,0-0.157,0
		c-0.061,0.011-0.122,0.025-0.184,0.033c-0.49,0.071-0.94,0.259-1.383,0.467c-1.005,0.473-1.743,1.23-2.285,2.186
		c-0.284,0.501-0.458,1.041-0.526,1.612c-0.037,0.309-0.05,0.621,0,0.941C18.307,7.023,18.861,6.946,19.39,6.715z"/>
	<path d="M26.148,27.545c-0.615-0.513-1.341-0.7-2.127-0.721c-0.234,0.025-0.47,0.037-0.702,0.078
		c-0.987,0.177-1.742,0.694-2.175,1.607c-0.533,1.125-0.549,2.294-0.153,3.463c0.284,0.837,0.842,1.442,1.669,1.775
		c0.626,0.252,1.278,0.305,1.942,0.206c1.103-0.164,1.911-0.737,2.361-1.766c0.401-0.917,0.43-1.874,0.227-2.842
		C27.041,28.635,26.714,28.018,26.148,27.545z M25.796,31.741c-0.328,0.772-0.969,1.202-1.783,1.195
		c-0.821-0.006-1.465-0.432-1.77-1.211c-0.339-0.868-0.339-1.752,0.003-2.618c0.273-0.693,0.791-1.113,1.544-1.196
		c0.945-0.105,1.712,0.383,2.048,1.288c0.146,0.394,0.204,0.803,0.198,1.191C26.041,30.876,25.976,31.319,25.796,31.741z"/>
	<path d="M9.592,29.138c-0.377-0.365-0.844-0.477-1.348-0.433c-0.625,0.055-1.101,0.352-1.382,0.929
		c-0.013,0.026-0.029,0.051-0.054,0.094C6.578,29.033,6.1,28.705,5.398,28.7c-0.698-0.005-1.187,0.325-1.493,0.951
		c0-0.282,0-0.564,0-0.848c-0.387,0-0.764,0-1.141,0c0,1.695,0,3.38,0,5.072c0.396,0,0.786,0,1.191,0c0-0.056,0-0.099,0-0.143
		c0-0.992-0.001-1.983,0.001-2.975c0-0.276,0.075-0.531,0.264-0.739c0.265-0.291,0.602-0.365,0.974-0.281
		c0.315,0.071,0.52,0.273,0.599,0.587c0.028,0.111,0.036,0.229,0.036,0.344c0.003,1.02,0.002,2.039,0.002,3.059
		c0,0.047,0,0.094,0,0.146c0.394,0,0.775,0,1.17,0c0-0.053,0-0.1,0-0.147c0-1.016-0.003-2.031,0.003-3.047
		c0.003-0.52,0.325-0.895,0.835-0.963c0.426-0.056,0.884,0.095,1.005,0.664c0.024,0.112,0.031,0.23,0.031,0.345
		c0.002,1.004,0.001,2.007,0.001,3.011c0,0.046,0,0.092,0,0.135c0.409,0,0.799,0,1.189,0c0.004-0.019,0.008-0.03,0.008-0.042
		c0-1.188,0.008-2.375-0.005-3.563C10.063,29.837,9.911,29.446,9.592,29.138z"/>
	<path d="M33.148,31.255c-0.154-0.544-0.568-0.85-1.063-1.066c-0.501-0.218-1.039-0.307-1.565-0.433
		c-0.322-0.077-0.645-0.155-0.929-0.337c-0.344-0.221-0.448-0.588-0.278-0.962c0.1-0.219,0.27-0.368,0.486-0.457
		c0.504-0.209,1.013-0.207,1.513,0.009c0.306,0.132,0.506,0.369,0.591,0.697c0.015,0.058,0.024,0.117,0.036,0.177
		c0.391,0,0.777,0,1.177,0c-0.007-0.09-0.007-0.173-0.02-0.255c-0.117-0.739-0.545-1.237-1.217-1.532
		c-0.626-0.275-1.283-0.311-1.95-0.204c-0.549,0.088-1.042,0.3-1.437,0.705c-0.627,0.644-0.699,1.724-0.159,2.395
		c0.246,0.305,0.57,0.508,0.936,0.622c0.479,0.148,0.969,0.262,1.455,0.387c0.314,0.08,0.628,0.158,0.901,0.343
		c0.291,0.197,0.408,0.472,0.336,0.819c-0.068,0.333-0.291,0.54-0.588,0.661c-0.584,0.239-1.17,0.222-1.74-0.052
		c-0.272-0.131-0.472-0.341-0.574-0.631c-0.073-0.208-0.071-0.209-0.292-0.209c-0.315,0-0.63,0-0.954,0
		c-0.002,0.036-0.003,0.052-0.003,0.068c0,0.02,0.001,0.04,0.003,0.06c0.083,0.727,0.453,1.257,1.1,1.595
		c0.415,0.216,0.862,0.31,1.325,0.334c0.68,0.036,1.341-0.042,1.952-0.37C33.137,33.108,33.395,32.124,33.148,31.255z"/>
	<path d="M14.035,28.869c-0.524-0.205-1.066-0.226-1.615-0.131c-0.442,0.077-0.841,0.25-1.155,0.583
		c-0.262,0.277-0.398,0.608-0.421,0.989c0.021,0.007,0.032,0.013,0.043,0.013c0.332,0.001,0.664,0.003,0.995-0.002
		c0.03-0.001,0.076-0.047,0.087-0.081c0.084-0.262,0.256-0.437,0.511-0.534c0.226-0.087,0.463-0.098,0.697-0.062
		c0.401,0.062,0.643,0.272,0.704,0.616c0.029,0.164,0.02,0.335,0.018,0.502c0,0.024-0.059,0.067-0.093,0.069
		c-0.327,0.022-0.654,0.037-0.981,0.055c-0.419,0.023-0.834,0.064-1.234,0.211c-1.26,0.462-1.16,1.903-0.448,2.472
		c0.321,0.257,0.689,0.381,1.096,0.389c0.697,0.014,1.26-0.241,1.647-0.839c0.009-0.013,0.024-0.022,0.053-0.047
		c0,0.281,0,0.539,0,0.802c0.386,0,0.763,0,1.15,0c0-0.047,0-0.086,0-0.125c0-1.111,0-2.223,0-3.334
		C15.088,29.682,14.718,29.136,14.035,28.869z M12.855,33.043c-0.212,0.028-0.423,0.014-0.623-0.073
		c-0.249-0.108-0.395-0.294-0.405-0.57c-0.01-0.278,0.121-0.483,0.372-0.587c0.17-0.07,0.357-0.116,0.541-0.134
		c0.377-0.037,0.757-0.048,1.145-0.07C14.014,32.41,13.617,32.941,12.855,33.043z"/>
	<path d="M19.333,32.086c-0.091-0.002-0.13,0.021-0.155,0.115c-0.113,0.434-0.386,0.714-0.834,0.79
		c-0.489,0.082-0.903-0.051-1.191-0.478c-0.401-0.596-0.399-1.762,0.002-2.357c0.368-0.546,1.148-0.667,1.656-0.257
		c0.201,0.162,0.31,0.381,0.376,0.625c0.009,0.033,0.046,0.084,0.071,0.085c0.351,0.006,0.702,0.004,1.053,0.004
		c0.01-0.022,0.013-0.026,0.013-0.03c0-0.016,0.002-0.032,0-0.047c-0.084-0.72-0.444-1.255-1.087-1.589
		c-0.445-0.231-0.925-0.292-1.42-0.247c-0.852,0.077-1.514,0.464-1.88,1.248c-0.422,0.905-0.414,1.836-0.019,2.75
		c0.249,0.576,0.697,0.958,1.294,1.15c0.554,0.178,1.116,0.182,1.675,0.021c0.413-0.119,0.765-0.338,1.034-0.68
		c0.251-0.319,0.382-0.683,0.416-1.101c-0.051,0-0.09,0-0.129,0C19.916,32.088,19.624,32.092,19.333,32.086z"/>
</g>
</svg>
