<?xml version="1.0" encoding="utf-8"?>
<!-- Generator: Adobe Illustrator 22.0.1, SVG Export Plug-In . SVG Version: 6.00 Build 0)  -->
<svg version="1.1" id="Layer_1" xmlns="http://www.w3.org/2000/svg" xmlns:xlink="http://www.w3.org/1999/xlink" x="0px" y="0px"
	 viewBox="0 0 25 5" style="enable-background:new 0 0 25 5;" xml:space="preserve">
<style type="text/css">
	.st0{fill:#4EA7B4;}
	.st1{fill:#626871;}
	.st2{fill:#FFFFFF;}
</style>
<g>
	<g>
		<g>
			<path class="st0" d="M18.581,4.923H6.37c-0.173,0-0.313-0.141-0.313-0.313V1.931c0-0.173,0.141-0.313,0.313-0.313h12.211
				c0.173,0,0.313,0.141,0.313,0.313V4.61C18.894,4.782,18.753,4.923,18.581,4.923z"/>
		</g>
	</g>
	<g>
		<g>
			<path class="st0" d="M17.954,0.171H6.997c-0.115,0-0.209,0.039-0.209,0.086L6.161,1.806c0,0.047,0.094,0.086,0.209,0.086h12.211
				c0.115,0,0.209-0.039,0.209-0.086l-0.627-1.549C18.163,0.209,18.069,0.171,17.954,0.171z"/>
			<path class="st1" d="M18.581,1.996H6.37c-0.187,0-0.313-0.076-0.313-0.19v-0.02l0.629-1.555c0.018-0.099,0.138-0.164,0.311-0.164
				h10.957c0.173,0,0.293,0.065,0.311,0.164l0.629,1.555v0.02C18.894,1.919,18.768,1.996,18.581,1.996z M6.285,1.777
				c0.021,0.005,0.049,0.01,0.085,0.01h12.211c0.035,0,0.064-0.004,0.085-0.01l-0.6-1.483c-0.018-0.008-0.057-0.019-0.111-0.019
				H6.997c-0.054,0-0.093,0.011-0.111,0.019L6.884,0.296L6.285,1.777z"/>
		</g>
		<g>
			<path class="st1" d="M18.581,4.923H6.37c-0.173,0-0.313-0.141-0.313-0.313V1.931c0-0.173,0.141-0.313,0.313-0.313h12.211
				c0.173,0,0.313,0.141,0.313,0.313V4.61C18.894,4.782,18.753,4.923,18.581,4.923z M6.37,1.827c-0.058,0-0.104,0.047-0.104,0.104
				V4.61c0,0.058,0.047,0.104,0.104,0.104h12.211c0.058,0,0.104-0.047,0.104-0.104V1.931c0-0.058-0.047-0.104-0.104-0.104H6.37z"/>
		</g>
		<g>
			<g>
				<path class="st2" d="M7.253,3.745c-0.262,0-0.475-0.213-0.475-0.475c0-0.262,0.213-0.475,0.475-0.475S7.728,3.009,7.728,3.27
					C7.728,3.532,7.515,3.745,7.253,3.745z M7.253,3.005c-0.146,0-0.266,0.119-0.266,0.266c0,0.146,0.119,0.266,0.266,0.266
					c0.146,0,0.266-0.119,0.266-0.266C7.519,3.124,7.4,3.005,7.253,3.005z"/>
			</g>
		</g>
		<path class="st2" d="M9.191,2.761H8.695c-0.144,0-0.261,0.117-0.261,0.261v0.496c0,0.144,0.117,0.261,0.261,0.261h0.496
			c0.144,0,0.261-0.117,0.261-0.261V3.022C9.452,2.878,9.335,2.761,9.191,2.761z"/>
		<path class="st2" d="M10.36,2.761H9.864c-0.144,0-0.261,0.117-0.261,0.261v0.496c0,0.144,0.117,0.261,0.261,0.261h0.496
			c0.144,0,0.261-0.117,0.261-0.261V3.022C10.621,2.878,10.504,2.761,10.36,2.761z"/>
		<path class="st2" d="M11.544,2.761h-0.496c-0.144,0-0.261,0.117-0.261,0.261v0.496c0,0.144,0.117,0.261,0.261,0.261h0.496
			c0.144,0,0.261-0.117,0.261-0.261V3.022C11.805,2.878,11.688,2.761,11.544,2.761z"/>
		<g>
			<path class="st2" d="M13.865,3.78h-1.613c-0.144,0-0.261-0.117-0.261-0.261V3.022c0-0.144,0.117-0.261,0.261-0.261h1.613
				c0.144,0,0.261,0.117,0.261,0.261v0.496C14.126,3.663,14.009,3.78,13.865,3.78z M12.252,2.865c-0.086,0-0.157,0.07-0.157,0.157
				v0.496c0,0.086,0.07,0.157,0.157,0.157h1.613c0.086,0,0.157-0.07,0.157-0.157V3.022c0-0.086-0.07-0.157-0.157-0.157H12.252z"/>
		</g>
		<g>
			<g>
				<path class="st1" d="M6.493,1.272h11.891c0.088,0,0.158-0.029,0.158-0.065c0-0.036-0.071-0.065-0.158-0.065H6.493
					c-0.088,0-0.159,0.029-0.159,0.065C6.335,1.243,6.406,1.272,6.493,1.272z"/>
			</g>
		</g>
		<g>
			<g>
				<polygon class="st2" points="15.792,3.94 15.815,2.596 15.558,2.624 15.527,2.457 16.35,2.494 16.316,2.573 16.037,2.585 
					15.895,3.963 				"/>
			</g>
			<g>
				<g>
					<path class="st2" d="M16.99,3.782c-0.045,0.031-0.133,0.057-0.22,0.069c-0.365,0.053-0.517-0.221-0.559-0.466
						c-0.053-0.307,0.04-0.576,0.292-0.613c0.009-0.001,0.022-0.001,0.031-0.002c0.256-0.017,0.358,0.171,0.397,0.394
						c0.008,0.045,0.01,0.073,0.015,0.13l-0.602,0.041c0.048,0.335,0.225,0.377,0.371,0.369c0.012-0.002,0.024-0.001,0.036-0.003
						c0.075-0.011,0.129-0.036,0.166-0.061L16.99,3.782z M16.756,3.173c-0.034-0.196-0.126-0.308-0.249-0.29
						c-0.139,0.02-0.173,0.188-0.156,0.338L16.756,3.173z"/>
				</g>
				<g>
					<path class="st2" d="M17.637,4.298l0.069-0.536l-0.007-0.001C17.65,3.833,17.537,3.898,17.41,3.88
						c-0.299-0.043-0.332-0.37-0.286-0.634c0.059-0.337,0.278-0.487,0.464-0.46c0.09,0.013,0.177,0.065,0.222,0.182l0.005,0.001
						l0.003-0.196l0.206,0.094l-0.055,0.316L17.766,4.28L17.637,4.298z M17.766,3.233c0.02-0.158-0.047-0.298-0.172-0.316
						c-0.153-0.022-0.254,0.126-0.289,0.328c-0.031,0.176-0.016,0.456,0.191,0.486c0.08,0.012,0.218-0.044,0.24-0.241L17.766,3.233z
						"/>
				</g>
			</g>
		</g>
	</g>
</g>
</svg>
