<?xml version="1.0" encoding="utf-8"?>
<!-- Generator: Adobe Illustrator 22.0.1, SVG Export Plug-In . SVG Version: 6.00 Build 0)  -->
<svg version="1.1" id="Layer_1" xmlns="http://www.w3.org/2000/svg" xmlns:xlink="http://www.w3.org/1999/xlink" x="0px" y="0px"
	 viewBox="0 0 500 275" style="enable-background:new 0 0 500 275;" xml:space="preserve">
<style type="text/css">
	.st0{fill:#626871;}
	.st1{fill:#4EA7B4;}
	.st2{fill:#EAEDF1;}
	.st3{fill:#FFFFFF;}
</style>
<path class="st0" d="M67.891,25.494h-2.697v-2.698c0-0.443-0.359-0.802-0.802-0.802c-0.444,0-0.802,0.359-0.802,0.802v2.698h-2.698
	c-0.443,0-0.802,0.359-0.802,0.802c0,0.443,0.359,0.802,0.802,0.802h2.698v2.698c0,0.443,0.359,0.802,0.802,0.802
	c0.443,0,0.802-0.359,0.802-0.802v-2.698h2.697c0.443,0,0.802-0.359,0.802-0.802C68.693,25.853,68.334,25.494,67.891,25.494z"/>
<path class="st0" d="M162.557,194.557h-2.697v-2.698c0-0.443-0.359-0.802-0.802-0.802c-0.444,0-0.802,0.359-0.802,0.802v2.698
	h-2.698c-0.443,0-0.802,0.359-0.802,0.802c0,0.443,0.359,0.802,0.802,0.802h2.698v2.698c0,0.443,0.359,0.802,0.802,0.802
	c0.443,0,0.802-0.359,0.802-0.802v-2.698h2.697c0.443,0,0.802-0.359,0.802-0.802C163.359,194.916,163.001,194.557,162.557,194.557z"
	/>
<path class="st0" d="M439.62,215.494h-2.697v-2.698c0-0.443-0.359-0.802-0.802-0.802c-0.444,0-0.802,0.359-0.802,0.802v2.698h-2.698
	c-0.443,0-0.802,0.359-0.802,0.802c0,0.443,0.359,0.802,0.802,0.802h2.698v2.698c0,0.443,0.359,0.802,0.802,0.802
	c0.443,0,0.802-0.359,0.802-0.802v-2.698h2.697c0.443,0,0.802-0.359,0.802-0.802C440.422,215.853,440.063,215.494,439.62,215.494z"
	/>
<g>
	<path class="st0" d="M345.34,117.515c-2.217,0-4.021-1.804-4.021-4.021c0-2.217,1.804-4.021,4.021-4.021
		c2.217,0,4.021,1.804,4.021,4.021C349.361,115.712,347.557,117.515,345.34,117.515z M345.34,111.245c-1.241,0-2.25,1.009-2.25,2.25
		c0,1.241,1.009,2.25,2.25,2.25c1.241,0,2.25-1.009,2.25-2.25C347.59,112.254,346.581,111.245,345.34,111.245z"/>
</g>
<g>
	<path class="st0" d="M126.923,91.494c-2.504,0-4.541-2.037-4.541-4.542c0-2.504,2.037-4.541,4.541-4.541s4.541,2.037,4.541,4.541
		C131.464,89.457,129.427,91.494,126.923,91.494z M126.923,84.412c-1.401,0-2.541,1.14-2.541,2.541c0,1.401,1.14,2.542,2.541,2.542
		s2.541-1.14,2.541-2.542C129.464,85.552,128.325,84.412,126.923,84.412z"/>
</g>
<g>
	<g>
		<path class="st0" d="M415.279,114.273c-0.384,0-0.694-0.31-0.694-0.694v-8.251c0-0.384,0.311-0.694,0.694-0.694
			c0.384,0,0.694,0.31,0.694,0.694v8.251C415.973,113.962,415.662,114.273,415.279,114.273z"/>
	</g>
	<g>
		<path class="st0" d="M408.938,110.314c-0.384,0-0.694-0.31-0.694-0.694V96.565c0-0.384,0.31-0.694,0.694-0.694
			c0.384,0,0.694,0.311,0.694,0.694v13.054C409.632,110.003,409.321,110.314,408.938,110.314z"/>
	</g>
	<g>
		<path class="st0" d="M427.896,112.603c-0.384,0-0.694-0.31-0.694-0.694v-5.956c0-0.384,0.311-0.694,0.694-0.694
			c0.384,0,0.694,0.31,0.694,0.694v5.956C428.59,112.292,428.28,112.603,427.896,112.603z"/>
	</g>
	<g>
		<path class="st0" d="M421.587,109.772c-0.384,0-0.694-0.31-0.694-0.694V98.31c0-0.384,0.31-0.694,0.694-0.694
			c0.384,0,0.694,0.31,0.694,0.694v10.767C422.281,109.462,421.971,109.772,421.587,109.772z"/>
	</g>
	<g>
		<path class="st0" d="M421.573,95.22c-0.384,0-0.694-0.31-0.694-0.694v-2.602c0-0.384,0.31-0.694,0.694-0.694
			c0.384,0,0.694,0.31,0.694,0.694v2.602C422.267,94.91,421.957,95.22,421.573,95.22z"/>
	</g>
	<g>
		<path class="st0" d="M427.896,104.353c-0.384,0-0.694-0.311-0.694-0.694v-1.789c0-0.384,0.311-0.694,0.694-0.694
			c0.384,0,0.694,0.31,0.694,0.694v1.789C428.59,104.042,428.28,104.353,427.896,104.353z"/>
	</g>
	<g>
		<path class="st0" d="M402.662,112.907c-0.384,0-0.694-0.31-0.694-0.694v-9.551c0-0.384,0.311-0.694,0.694-0.694
			c0.384,0,0.694,0.31,0.694,0.694v9.551C403.356,112.596,403.045,112.907,402.662,112.907z"/>
	</g>
	<g>
		<path class="st0" d="M402.663,99.036c-0.384,0-0.694-0.311-0.694-0.694v-4.857c0-0.384,0.31-0.694,0.694-0.694
			s0.694,0.311,0.694,0.694v4.857C403.357,98.725,403.047,99.036,402.663,99.036z"/>
	</g>
	<g>
		<g>
			<g>
				<path class="st0" d="M382.306,75.216h64.425c2.844,0,5.158-2.314,5.158-5.159V29.135c0-2.845-2.314-5.159-5.158-5.159h-64.425
					c-2.844,0-5.158,2.314-5.158,5.159v19.31c0,0.384,0.31,0.694,0.694,0.694c0.384,0,0.694-0.31,0.694-0.694v-19.31
					c0-2.079,1.692-3.771,3.77-3.771h64.425c2.078,0,3.77,1.692,3.77,3.771v40.922c0,2.079-1.692,3.771-3.77,3.771h-64.425
					c-2.078,0-3.77-1.692-3.77-3.771c0-0.384-0.31-0.694-0.694-0.694c-0.384,0-0.694,0.311-0.694,0.694
					C377.148,72.902,379.462,75.216,382.306,75.216z"/>
			</g>
			<g>
				<path class="st0" d="M377.842,68.277h73.353c0.384,0,0.694-0.31,0.694-0.694c0-0.384-0.311-0.694-0.694-0.694h-73.353
					c-0.384,0-0.694,0.311-0.694,0.694C377.148,67.967,377.458,68.277,377.842,68.277z"/>
			</g>
			<g>
				<path class="st1" d="M451.195,69.599c0,2.718-1.999,4.922-4.464,4.922h-64.425c-2.465,0-4.464-2.204-4.464-4.922v-2.727h73.353
					V69.599z"/>
				<path class="st0" d="M377.148,69.599v-2.728c0-0.384,0.31-0.694,0.694-0.694h73.353c0.384,0,0.694,0.311,0.694,0.694v2.728
					c0,3.097-2.314,5.617-5.158,5.617h-64.425C379.462,75.216,377.148,72.696,377.148,69.599z M378.536,67.566v2.033
					c0,2.332,1.692,4.229,3.77,4.229h64.425c2.078,0,3.77-1.897,3.77-4.229v-2.033H378.536z"/>
			</g>
		</g>
		<g>
			<g>
				<path class="st0" d="M419.174,82.199c0.384,0,0.694-0.31,0.694-0.694v-6.983c0-0.384-0.311-0.694-0.694-0.694
					c-0.384,0-0.694,0.31-0.694,0.694v6.983C418.48,81.888,418.79,82.199,419.174,82.199z"/>
			</g>
			<g>
				<path class="st0" d="M409.863,82.199c0.384,0,0.694-0.31,0.694-0.694v-6.983c0-0.384-0.311-0.694-0.694-0.694
					c-0.384,0-0.694,0.31-0.694,0.694v6.983C409.169,81.888,409.479,82.199,409.863,82.199z"/>
			</g>
		</g>
		<g>
			<path class="st0" d="M404.474,82.199h20.089c0.384,0,0.694-0.31,0.694-0.694c0-0.384-0.31-0.694-0.694-0.694h-20.089
				c-0.384,0-0.694,0.311-0.694,0.694C403.78,81.888,404.09,82.199,404.474,82.199z"/>
		</g>
		<g>
			<path class="st0" d="M413.925,71.746h1.186c0.384,0,0.694-0.31,0.694-0.694c0-0.384-0.31-0.694-0.694-0.694h-1.186
				c-0.384,0-0.694,0.311-0.694,0.694C413.231,71.436,413.542,71.746,413.925,71.746z"/>
		</g>
	</g>
	<g>
		<path class="st0" d="M419.299,49.14h20.544c0.384,0,0.694-0.31,0.694-0.694c0-0.384-0.31-0.694-0.694-0.694h-20.544
			c-0.384,0-0.694,0.31-0.694,0.694C418.605,48.829,418.915,49.14,419.299,49.14z"/>
	</g>
	<g>
		<path class="st0" d="M419.299,54.702h20.544c0.384,0,0.694-0.31,0.694-0.694c0-0.384-0.31-0.694-0.694-0.694h-20.544
			c-0.384,0-0.694,0.311-0.694,0.694C418.605,54.391,418.915,54.702,419.299,54.702z"/>
	</g>
	<g>
		<path class="st0" d="M388.008,49.14h20.544c0.384,0,0.694-0.31,0.694-0.694c0-0.384-0.31-0.694-0.694-0.694h-20.544
			c-0.384,0-0.694,0.31-0.694,0.694C387.313,48.829,387.624,49.14,388.008,49.14z"/>
	</g>
	<g>
		<path class="st0" d="M388.008,54.702h20.544c0.384,0,0.694-0.31,0.694-0.694c0-0.384-0.31-0.694-0.694-0.694h-20.544
			c-0.384,0-0.694,0.311-0.694,0.694C387.313,54.391,387.624,54.702,388.008,54.702z"/>
	</g>
	<g>
		<path class="st0" d="M419.299,60.264h20.544c0.384,0,0.694-0.311,0.694-0.694c0-0.384-0.31-0.694-0.694-0.694h-20.544
			c-0.384,0-0.694,0.31-0.694,0.694C418.605,59.953,418.915,60.264,419.299,60.264z"/>
	</g>
	<g>
		<path class="st0" d="M388.008,60.264h20.544c0.384,0,0.694-0.311,0.694-0.694c0-0.384-0.31-0.694-0.694-0.694h-20.544
			c-0.384,0-0.694,0.31-0.694,0.694C387.313,59.953,387.624,60.264,388.008,60.264z"/>
	</g>
	<g>
		
			<rect x="388.015" y="33.083" transform="matrix(-1 -4.488910e-11 4.488910e-11 -1 827.8582 74.5338)" class="st2" width="51.828" height="8.367"/>
		<path class="st0" d="M387.322,41.451v-8.367c0-0.384,0.31-0.694,0.694-0.694h51.827c0.384,0,0.694,0.31,0.694,0.694v8.367
			c0,0.384-0.31,0.694-0.694,0.694h-51.827C387.632,42.145,387.322,41.834,387.322,41.451z M439.149,33.777H388.71v6.979h50.439
			V33.777z"/>
	</g>
	<g>
		<g>
			<g>
				<path class="st0" d="M365.198,80.892V50.562c0-1.55,1.261-2.811,2.81-2.811h14.818c1.549,0,2.81,1.261,2.81,2.811v30.329
					c0,1.549-1.261,2.81-2.81,2.81h-14.818C366.459,83.702,365.198,82.441,365.198,80.892z M368.008,49.14
					c-0.784,0-1.422,0.639-1.422,1.423v30.329c0,0.784,0.638,1.422,1.422,1.422h14.818c0.784,0,1.422-0.638,1.422-1.422V50.562
					c0-0.784-0.638-1.423-1.422-1.423H368.008z"/>
			</g>
		</g>
	</g>
	<g>
		<rect x="365.892" y="51.025" class="st2" width="19.05" height="26.707"/>
		<path class="st0" d="M365.198,77.732V51.025c0-0.384,0.31-0.694,0.694-0.694h19.05c0.384,0,0.694,0.31,0.694,0.694v26.707
			c0,0.384-0.31,0.694-0.694,0.694h-19.05C365.509,78.426,365.198,78.115,365.198,77.732z M384.248,51.719h-17.662v25.319h17.662
			V51.719z"/>
	</g>
	<g>
		<path class="st0" d="M374.075,81.176h2.685c0.384,0,0.694-0.31,0.694-0.694c0-0.384-0.31-0.694-0.694-0.694h-2.685
			c-0.384,0-0.694,0.31-0.694,0.694C373.381,80.866,373.691,81.176,374.075,81.176z"/>
	</g>
	<g>
		<path class="st0" d="M370.247,57.253h10.342c0.384,0,0.694-0.31,0.694-0.694c0-0.384-0.31-0.694-0.694-0.694h-10.342
			c-0.384,0-0.694,0.311-0.694,0.694C369.552,56.942,369.863,57.253,370.247,57.253z"/>
	</g>
	<g>
		<path class="st0" d="M370.247,62.923h10.342c0.384,0,0.694-0.31,0.694-0.694c0-0.384-0.31-0.694-0.694-0.694h-10.342
			c-0.384,0-0.694,0.31-0.694,0.694C369.552,62.613,369.863,62.923,370.247,62.923z"/>
	</g>
	<g>
		<path class="st0" d="M370.247,68.594h10.342c0.384,0,0.694-0.31,0.694-0.694c0-0.384-0.31-0.694-0.694-0.694h-10.342
			c-0.384,0-0.694,0.311-0.694,0.694C369.552,68.283,369.863,68.594,370.247,68.594z"/>
	</g>
	<g>
		<path class="st0" d="M370.247,74.264h10.342c0.384,0,0.694-0.31,0.694-0.694s-0.31-0.694-0.694-0.694h-10.342
			c-0.384,0-0.694,0.31-0.694,0.694S369.863,74.264,370.247,74.264z"/>
	</g>
</g>
<g>
	<path class="st0" d="M66.949,153.266h-6.06c-0.384,0-0.694-0.31-0.694-0.694c0-0.384,0.31-0.694,0.694-0.694h6.06
		c0.384,0,0.694,0.311,0.694,0.694C67.643,152.956,67.333,153.266,66.949,153.266z"/>
</g>
<g>
	<path class="st0" d="M37.11,139.223c-0.384,0-0.694-0.31-0.694-0.694V106.28c0-0.384,0.31-0.694,0.694-0.694
		s0.694,0.31,0.694,0.694v32.249C37.804,138.913,37.493,139.223,37.11,139.223z"/>
</g>
<g>
	<path class="st0" d="M37.11,149.769c-0.384,0-0.694-0.31-0.694-0.694v-6.348c0-0.384,0.31-0.694,0.694-0.694
		s0.694,0.311,0.694,0.694v6.348C37.804,149.458,37.493,149.769,37.11,149.769z"/>
</g>
<path class="st0" d="M201.979,149.241H81.229c-0.935,0,0.152,0.76,0.152,1.694s-1.087,1.694-0.152,1.694h120.75
	c0.935,0,1.694-0.76,1.694-1.694S202.914,149.241,201.979,149.241z"/>
<g>
	<g>
		<path class="st0" d="M389.363,151.522h-97.712c-0.356,0-0.644-0.311-0.644-0.694c0-0.384,0.288-0.694,0.644-0.694h97.712
			c0.356,0,0.644,0.31,0.644,0.694C390.007,151.211,389.719,151.522,389.363,151.522z"/>
		<path class="st0" d="M389.363,152.522H291.65c-0.906,0-1.644-0.76-1.644-1.694s0.737-1.694,1.644-1.694h97.713
			c0.906,0,1.644,0.76,1.644,1.694S390.269,152.522,389.363,152.522z"/>
	</g>
</g>
<g>
	<g>
		<g>
			<path class="st0" d="M112.447,258.022c-0.384,0-0.694-0.31-0.694-0.694v-47.377c0-0.47-0.382-0.853-0.853-0.853H91.98
				c-0.384,0-0.694-0.31-0.694-0.694c0-0.384,0.31-0.694,0.694-0.694h18.92c1.235,0,2.241,1.006,2.241,2.241v47.377
				C113.141,257.711,112.831,258.022,112.447,258.022z"/>
		</g>
		<g>
			<path class="st0" d="M41.864,258.022c-0.384,0-0.694-0.31-0.694-0.694v-47.377c0-1.235,1.006-2.241,2.241-2.241h21.913
				c0.384,0,0.694,0.31,0.694,0.694c0,0.384-0.311,0.694-0.694,0.694H43.411c-0.47,0-0.853,0.382-0.853,0.853v47.377
				C42.558,257.711,42.248,258.022,41.864,258.022z"/>
		</g>
		<g>
			<g>
				<path class="st2" d="M107.128,212.449H93.045c-0.045,0.552-0.113,1.106-0.224,1.662c-1.543,7.768-9.102,12.804-16.869,11.253
					c-6.431-1.284-10.981-6.687-11.482-12.916H47.183c-0.759,0-1.374,0.616-1.374,1.375v38.074c0,0.759,0.613,1.375,1.374,1.375
					h59.945c0.759,0,1.374-0.615,1.374-1.375v-38.074C108.502,213.064,107.89,212.449,107.128,212.449z"/>
				<path class="st0" d="M107.128,253.967H47.183c-1.14,0-2.069-0.929-2.069-2.07v-38.073c0-1.14,0.929-2.069,2.069-2.069H64.47
					c0.362,0,0.663,0.278,0.691,0.639c0.487,6.049,4.979,11.102,10.926,12.29c3.571,0.71,7.214-0.005,10.248-2.029
					c3.033-2.023,5.094-5.104,5.805-8.678c0.095-0.479,0.165-0.996,0.213-1.582c0.029-0.361,0.329-0.639,0.691-0.639h14.083
					c1.14,0,2.069,0.929,2.069,2.069v38.073C109.196,253.039,108.268,253.967,107.128,253.967z M47.183,213.143
					c-0.375,0-0.68,0.305-0.68,0.681v38.073c0,0.375,0.305,0.682,0.68,0.682h59.945c0.375,0,0.68-0.306,0.68-0.682v-38.073
					c0-0.375-0.305-0.681-0.68-0.681H93.674c-0.046,0.39-0.103,0.755-0.172,1.104c-0.782,3.938-3.054,7.334-6.396,9.562
					c-3.343,2.229-7.353,3.019-11.289,2.235c-6.343-1.266-11.184-6.522-11.973-12.901H47.183z"/>
			</g>
		</g>
		<g>
			<g>
				<path class="st0" d="M120.54,263.147H33.771c-1.468,0-2.809-0.743-3.59-1.986l-2.035-3.484c-0.126-0.214-0.126-0.48-0.003-0.695
					c0.123-0.216,0.354-0.348,0.602-0.348H64.33c0.218,0,0.423,0.103,0.555,0.276c0.647,0.86,1.666,1.372,2.727,1.372h19.087
					c1.061,0,2.081-0.512,2.727-1.372c0.132-0.173,0.336-0.276,0.555-0.276h35.584c0.248,0,0.479,0.133,0.602,0.348
					c0.123,0.216,0.123,0.481-0.003,0.695l-2.024,3.465C123.349,262.404,122.008,263.147,120.54,263.147z M29.955,258.022
					l1.414,2.421c0.514,0.817,1.415,1.316,2.402,1.316h86.769c0.987,0,1.888-0.499,2.413-1.335l1.403-2.402H90.31
					c-0.91,1.038-2.234,1.648-3.611,1.648H67.612c-1.377,0-2.702-0.61-3.611-1.648H29.955z"/>
			</g>
		</g>
	</g>
	<g>
		<g>
			<g>
				<path class="st1" d="M96.07,209.414c0.032-0.719,0.033-1.438-0.012-2.15l5.239-3.66c-0.409-1.991-1.07-3.903-1.939-5.716
					l-6.354,0.239c-0.392-0.601-0.839-1.182-1.304-1.734l2.08-6.028c-1.46-1.344-3.104-2.533-4.9-3.51l-5.035,3.952
					c-0.336-0.127-0.664-0.262-1.002-0.374c-0.346-0.106-0.695-0.182-1.051-0.266l-1.857-6.125c-2.036-0.231-4.056-0.19-6.039,0.072
					l-1.741,6.129c-0.698,0.195-1.383,0.41-2.051,0.684l-5.079-3.829c-1.749,0.983-3.383,2.175-4.85,3.573l2.197,6.006
					c-0.447,0.553-0.86,1.139-1.253,1.751l-6.377-0.117c-0.41,0.914-0.791,1.839-1.102,2.821c-0.303,0.975-0.531,1.958-0.705,2.94
					l5.297,3.56c-0.032,0.719-0.033,1.434,0.012,2.15l-5.239,3.66c0.41,1.984,1.078,3.904,1.947,5.717l6.346-0.24
					c0.391,0.601,0.838,1.182,1.296,1.733l-2.072,6.025c1.467,1.348,3.104,2.536,4.907,3.514l5.027-3.953
					c0.337,0.123,0.664,0.262,1.009,0.375c0.347,0.102,0.68,0.18,1.036,0.264l1.865,6.126c2.036,0.231,4.064,0.191,6.039-0.072
					l1.733-6.13c0.705-0.194,1.398-0.409,2.059-0.684l5.079,3.83c1.75-0.99,3.391-2.175,4.857-3.572l-2.197-6.006
					c0.433-0.558,0.86-1.139,1.246-1.752l6.377,0.117c0.418-0.913,0.8-1.845,1.102-2.821c0.311-0.978,0.531-1.958,0.713-2.939
					L96.07,209.414z M87.559,211.795c-1.8,5.749-7.926,8.941-13.674,7.135c-5.748-1.806-8.945-7.932-7.14-13.68
					c1.806-5.748,7.932-8.94,13.68-7.137C86.172,199.922,89.364,206.047,87.559,211.795z"/>
				<path class="st0" d="M77.072,233.847c-0.937,0-1.865-0.051-2.782-0.154c-0.274-0.031-0.504-0.224-0.586-0.488l-1.749-5.745
					c-0.234-0.057-0.457-0.115-0.683-0.182c-0.249-0.08-0.472-0.165-0.694-0.252l-4.719,3.71c-0.217,0.175-0.518,0.198-0.759,0.065
					c-1.806-0.979-3.503-2.195-5.047-3.614c-0.202-0.187-0.275-0.476-0.186-0.736l1.945-5.66c-0.332-0.411-0.621-0.796-0.874-1.166
					l-5.961,0.226c-0.264-0.008-0.531-0.146-0.652-0.395c-0.918-1.914-1.591-3.892-1.999-5.877c-0.057-0.271,0.054-0.55,0.282-0.709
					l4.924-3.439c-0.019-0.46-0.02-0.935-0.007-1.441l-4.978-3.344c-0.228-0.153-0.344-0.427-0.296-0.698
					c0.192-1.08,0.43-2.07,0.725-3.023c0.282-0.891,0.632-1.783,1.133-2.901c0.114-0.252,0.401-0.389,0.645-0.409l5.992,0.111
					c0.282-0.424,0.56-0.813,0.841-1.177l-2.065-5.641c-0.095-0.259-0.027-0.55,0.174-0.741c1.48-1.41,3.158-2.648,4.989-3.675
					c0.241-0.134,0.541-0.114,0.758,0.05l4.768,3.597c0.415-0.157,0.861-0.305,1.381-0.458l1.635-5.757
					c0.076-0.266,0.304-0.462,0.577-0.499c2.101-0.277,4.192-0.302,6.21-0.073c0.275,0.031,0.506,0.224,0.586,0.488l1.741,5.744
					c0.237,0.056,0.473,0.115,0.706,0.186c0.237,0.079,0.458,0.163,0.681,0.249l4.726-3.71c0.22-0.171,0.518-0.193,0.76-0.064
					c1.814,0.988,3.508,2.201,5.037,3.609c0.202,0.187,0.275,0.477,0.186,0.738l-1.952,5.66c0.329,0.404,0.621,0.79,0.881,1.169
					l5.967-0.226c0.281,0,0.531,0.146,0.652,0.395c0.914,1.907,1.583,3.885,1.993,5.877c0.056,0.271-0.056,0.55-0.283,0.709
					l-4.922,3.439c0.019,0.461,0.02,0.937,0.005,1.441l4.985,3.346c0.23,0.154,0.347,0.43,0.296,0.702
					c-0.216,1.163-0.449,2.123-0.734,3.023c-0.278,0.896-0.638,1.818-1.132,2.898c-0.115,0.251-0.39,0.396-0.644,0.405l-5.99-0.11
					c-0.24,0.362-0.511,0.74-0.838,1.171l2.067,5.647c0.095,0.259,0.027,0.55-0.174,0.742c-1.453,1.384-3.133,2.62-4.994,3.674
					c-0.237,0.135-0.537,0.116-0.759-0.05l-4.768-3.595c-0.409,0.156-0.858,0.304-1.389,0.457l-1.628,5.756
					c-0.076,0.267-0.302,0.464-0.576,0.5C79.353,233.771,78.206,233.847,77.072,233.847z M74.898,232.36
					c1.627,0.15,3.294,0.131,4.967-0.061l1.608-5.687c0.066-0.235,0.249-0.416,0.484-0.481c0.822-0.225,1.431-0.427,1.975-0.655
					c0.225-0.092,0.488-0.062,0.685,0.087l4.713,3.553c1.467-0.864,2.807-1.849,3.996-2.935l-2.04-5.573
					c-0.081-0.224-0.043-0.474,0.103-0.663c0.517-0.667,0.888-1.19,1.206-1.697c0.129-0.207,0.323-0.332,0.601-0.325l5.92,0.108
					c0.374-0.85,0.659-1.597,0.884-2.323c0.232-0.729,0.427-1.505,0.607-2.413l-4.923-3.305c-0.202-0.136-0.319-0.365-0.306-0.607
					c0.032-0.75,0.03-1.428-0.011-2.076c-0.015-0.241,0.096-0.473,0.296-0.613l4.86-3.396c-0.359-1.589-0.895-3.165-1.597-4.701
					l-5.894,0.224c-0.239,0.001-0.474-0.111-0.607-0.316c-0.343-0.526-0.752-1.071-1.254-1.665
					c-0.157-0.187-0.205-0.443-0.125-0.674l1.93-5.595c-1.243-1.101-2.595-2.069-4.029-2.886l-4.673,3.668
					c-0.19,0.15-0.449,0.188-0.674,0.103l-0.294-0.114c-0.225-0.087-0.45-0.175-0.679-0.251c-0.253-0.077-0.523-0.14-0.797-0.203
					l-0.197-0.046c-0.24-0.057-0.432-0.237-0.504-0.473l-1.723-5.685c-1.624-0.149-3.289-0.13-4.968,0.062l-1.615,5.685
					c-0.066,0.232-0.248,0.413-0.481,0.479c-0.805,0.225-1.414,0.428-1.975,0.659c-0.224,0.091-0.485,0.06-0.681-0.088l-4.712-3.554
					c-1.445,0.847-2.783,1.833-3.989,2.938l2.04,5.573c0.084,0.229,0.041,0.485-0.112,0.675c-0.403,0.499-0.798,1.052-1.209,1.69
					c-0.132,0.203-0.369,0.312-0.596,0.319l-5.915-0.11c-0.382,0.877-0.661,1.608-0.891,2.329c-0.236,0.763-0.434,1.556-0.6,2.409
					l4.92,3.305c0.201,0.136,0.316,0.365,0.306,0.606c-0.034,0.752-0.03,1.432,0.011,2.077c0.015,0.241-0.096,0.473-0.296,0.613
					l-4.86,3.396c0.359,1.583,0.897,3.16,1.604,4.701l5.887-0.224c0.237,0.011,0.476,0.111,0.609,0.316
					c0.329,0.51,0.737,1.056,1.247,1.669c0.154,0.186,0.201,0.439,0.122,0.668l-1.922,5.592c1.253,1.109,2.607,2.079,4.036,2.891
					l4.665-3.667c0.187-0.149,0.441-0.19,0.667-0.107l0.38,0.144c0.199,0.077,0.4,0.155,0.606,0.222
					c0.305,0.089,0.62,0.164,0.95,0.241c0.24,0.057,0.464,0.245,0.536,0.481L74.898,232.36z M77.169,220.131
					c-1.169,0-2.345-0.179-3.492-0.539c-6.106-1.918-9.512-8.447-7.594-14.55c1.917-6.102,8.44-9.504,14.55-7.593
					c6.102,1.922,9.505,8.451,7.587,14.552c-0.926,2.958-2.948,5.375-5.698,6.809C80.841,219.688,79.013,220.131,77.169,220.131z
					 M77.164,198.305c-4.346,0-8.387,2.795-9.758,7.153c-1.688,5.374,1.312,11.12,6.687,12.81c2.604,0.819,5.371,0.571,7.788-0.689
					c2.418-1.262,4.2-3.39,5.014-5.993h0.001c1.688-5.374-1.308-11.121-6.68-12.813C79.202,198.457,78.175,198.305,77.164,198.305z"
					/>
			</g>
		</g>
		<g>
			<path class="st0" d="M77.152,212.246c-0.384,0-0.694-0.311-0.694-0.694v-6.057c0-0.384,0.31-0.694,0.694-0.694
				c0.384,0,0.694,0.31,0.694,0.694v6.057C77.846,211.935,77.535,212.246,77.152,212.246z"/>
		</g>
		<g>
			<path class="st0" d="M80.18,209.217h-6.057c-0.384,0-0.694-0.31-0.694-0.694c0-0.384,0.311-0.694,0.694-0.694h6.057
				c0.384,0,0.694,0.311,0.694,0.694C80.874,208.907,80.564,209.217,80.18,209.217z"/>
		</g>
		<g>
			<path class="st0" d="M77.189,223.564c-0.99,0-1.985-0.098-2.977-0.296c-3.939-0.786-7.337-3.06-9.568-6.402
				c-2.23-3.342-3.024-7.351-2.238-11.289c1.621-8.128,9.565-13.42,17.692-11.802c8.128,1.625,13.422,9.564,11.799,17.696l0,0
				c-0.782,3.938-3.054,7.334-6.396,9.562C83.002,222.7,80.127,223.564,77.189,223.564z M77.154,194.871
				c-6.375,0-12.092,4.496-13.386,10.976c-0.713,3.575,0.008,7.215,2.032,10.248c2.025,3.034,5.109,5.097,8.684,5.811
				c3.572,0.712,7.215-0.007,10.248-2.029c3.033-2.023,5.094-5.104,5.805-8.678l0,0c1.472-7.383-3.332-14.588-10.709-16.064
				C78.93,194.957,78.035,194.871,77.154,194.871z"/>
		</g>
	</g>
</g>
<g>
	<g>
		<path class="st0" d="M417.391,154.379h-13.32c-0.53,0-0.958-0.429-0.958-0.958c0-0.53,0.428-0.958,0.958-0.958h13.32
			c0.53,0,0.958,0.428,0.958,0.958C418.349,153.95,417.92,154.379,417.391,154.379z"/>
	</g>
	<g>
		<path class="st0" d="M429.299,154.379h-6.418c-0.53,0-0.958-0.429-0.958-0.958c0-0.53,0.428-0.958,0.958-0.958h6.418
			c0.53,0,0.958,0.428,0.958,0.958C430.257,153.95,429.828,154.379,429.299,154.379z"/>
	</g>
</g>
<g>
	<g>
		<g>
			<path class="st2" d="M441.063,127.039v47.17c0,4.799-11.269,8.689-25.169,8.689c-13.901,0-25.169-3.89-25.169-8.689v-47.17"/>
			<path class="st0" d="M415.893,183.592c-14.503,0-25.863-4.122-25.863-9.383v-47.17c0-0.384,0.31-0.694,0.694-0.694
				c0.384,0,0.694,0.31,0.694,0.694v47.17c0,3.861,9.835,7.995,24.475,7.995s24.475-4.134,24.475-7.995v-47.17
				c0-0.384,0.311-0.694,0.694-0.694c0.384,0,0.694,0.31,0.694,0.694v47.17C441.757,179.47,430.396,183.592,415.893,183.592z"/>
		</g>
		<g>
			<path class="st2" d="M441.063,158.411c0,4.799-11.269,8.689-25.169,8.689c-13.901,0-25.169-3.89-25.169-8.689"/>
			<path class="st0" d="M415.893,167.794c-14.503,0-25.863-4.122-25.863-9.383c0-0.384,0.31-0.694,0.694-0.694
				c0.384,0,0.694,0.31,0.694,0.694c0,3.861,9.835,7.995,24.475,7.995s24.475-4.134,24.475-7.995c0-0.384,0.311-0.694,0.694-0.694
				c0.384,0,0.694,0.31,0.694,0.694C441.757,163.672,430.396,167.794,415.893,167.794z"/>
		</g>
		<g>
			<path class="st2" d="M441.063,142.614c0,4.799-11.269,8.689-25.169,8.689c-13.901,0-25.169-3.89-25.169-8.689"/>
			<path class="st0" d="M415.893,151.996c-14.503,0-25.863-4.122-25.863-9.383c0-0.384,0.31-0.694,0.694-0.694
				c0.384,0,0.694,0.311,0.694,0.694c0,3.861,9.835,7.995,24.475,7.995s24.475-4.134,24.475-7.995c0-0.384,0.311-0.694,0.694-0.694
				c0.384,0,0.694,0.311,0.694,0.694C441.757,147.875,430.396,151.996,415.893,151.996z"/>
		</g>
		<g>
			<path class="st2" d="M441.063,127.609c0,4.799-11.269,8.689-25.169,8.689c-13.901,0-25.169-3.89-25.169-8.689
				c0-4.799,11.269-8.689,25.169-8.689C429.794,118.92,441.063,122.81,441.063,127.609z"/>
			<path class="st0" d="M415.893,136.991c-14.503,0-25.863-4.122-25.863-9.383c0-5.261,11.361-9.383,25.863-9.383
				c14.503,0,25.863,4.122,25.863,9.383C441.757,132.87,430.396,136.991,415.893,136.991z M415.893,119.614
				c-14.641,0-24.475,4.134-24.475,7.995c0,3.861,9.835,7.995,24.475,7.995s24.475-4.134,24.475-7.995
				C440.369,123.748,430.534,119.614,415.893,119.614z"/>
		</g>
	</g>
	<g>
		<polygon class="st1" points="469.699,182.212 412.427,182.212 412.427,140.381 431.377,140.381 434.483,144.013 469.699,144.013 
					"/>
		<path class="st0" d="M469.699,182.906h-57.273c-0.384,0-0.694-0.31-0.694-0.694v-41.831c0-0.384,0.311-0.694,0.694-0.694h18.951
			c0.203,0,0.396,0.089,0.527,0.243l2.898,3.389h34.896c0.384,0,0.694,0.311,0.694,0.694v38.199
			C470.393,182.596,470.083,182.906,469.699,182.906z M413.12,181.518h55.885v-36.811h-34.522c-0.203,0-0.396-0.089-0.527-0.243
			l-2.898-3.389H413.12V181.518z"/>
	</g>
	<g>
		<path class="st0" d="M469.699,185.152h-57.273c-0.384,0-0.694-0.311-0.694-0.694v-33.55c0-0.384,0.311-0.694,0.694-0.694h57.273
			c0.384,0,0.694,0.311,0.694,0.694v33.55C470.393,184.842,470.083,185.152,469.699,185.152z M413.12,183.764h55.885v-32.162H413.12
			V183.764z"/>
	</g>
	<g>
		<rect x="412.427" y="150.909" class="st3" width="57.272" height="33.549"/>
		<path class="st0" d="M469.699,185.152h-57.273c-0.384,0-0.694-0.311-0.694-0.694v-33.55c0-0.384,0.311-0.694,0.694-0.694h57.273
			c0.384,0,0.694,0.311,0.694,0.694v33.55C470.393,184.842,470.083,185.152,469.699,185.152z M413.12,183.764h55.885v-32.162H413.12
			V183.764z"/>
	</g>
	<g>
		<path class="st0" d="M462.75,160.166h-15.16c-0.384,0-0.694-0.311-0.694-0.694c0-0.384,0.31-0.694,0.694-0.694h15.16
			c0.384,0,0.694,0.31,0.694,0.694C463.444,159.855,463.134,160.166,462.75,160.166z"/>
	</g>
	<g>
		<path class="st0" d="M462.75,180.134h-33.163c-0.384,0-0.694-0.31-0.694-0.694c0-0.384,0.311-0.694,0.694-0.694h33.163
			c0.384,0,0.694,0.311,0.694,0.694C463.444,179.824,463.134,180.134,462.75,180.134z"/>
	</g>
	<g>
		<path class="st0" d="M426.154,180.134h-6.06c-0.384,0-0.694-0.31-0.694-0.694c0-0.384,0.31-0.694,0.694-0.694h6.06
			c0.384,0,0.694,0.311,0.694,0.694C426.848,179.824,426.537,180.134,426.154,180.134z"/>
	</g>
	<g>
		<path class="st0" d="M396.314,166.091c-0.384,0-0.694-0.31-0.694-0.694v-32.249c0-0.384,0.31-0.694,0.694-0.694
			c0.384,0,0.694,0.31,0.694,0.694v32.249C397.008,165.781,396.698,166.091,396.314,166.091z"/>
	</g>
	<g>
		<path class="st0" d="M396.314,176.636c-0.384,0-0.694-0.31-0.694-0.694v-6.348c0-0.384,0.31-0.694,0.694-0.694
			c0.384,0,0.694,0.311,0.694,0.694v6.348C397.008,176.326,396.698,176.636,396.314,176.636z"/>
	</g>
	<g>
		<path class="st0" d="M421.462,162.832h-1.368c-0.384,0-0.694-0.311-0.694-0.694c0-0.384,0.31-0.694,0.694-0.694h1.368
			c0.384,0,0.694,0.31,0.694,0.694C422.156,162.521,421.846,162.832,421.462,162.832z"/>
	</g>
	<g>
		<path class="st0" d="M426.154,162.832h-1.368c-0.384,0-0.694-0.311-0.694-0.694c0-0.384,0.31-0.694,0.694-0.694h1.368
			c0.384,0,0.694,0.31,0.694,0.694C426.848,162.521,426.537,162.832,426.154,162.832z"/>
	</g>
	<g>
		<path class="st0" d="M430.846,162.832h-1.368c-0.384,0-0.694-0.311-0.694-0.694c0-0.384,0.31-0.694,0.694-0.694h1.368
			c0.384,0,0.694,0.31,0.694,0.694C431.54,162.521,431.229,162.832,430.846,162.832z"/>
	</g>
	<g>
		<path class="st0" d="M462.75,165.219h-15.16c-0.384,0-0.694-0.31-0.694-0.694s0.31-0.694,0.694-0.694h15.16
			c0.384,0,0.694,0.31,0.694,0.694S463.134,165.219,462.75,165.219z"/>
	</g>
</g>
<g>
	<g>
		<path class="st2" d="M206.505,128.053h70.629c2.292,0,4.15,1.858,4.15,4.15v65.507h-78.93v-65.507
			C202.355,129.911,204.213,128.053,206.505,128.053z"/>
		<path class="st0" d="M281.285,198.723h-78.93c-0.56,0-1.013-0.453-1.013-1.013v-61.252c0-5.193,4.225-9.418,9.419-9.418h62.118
			c5.193,0,9.418,4.225,9.418,9.418v61.252C282.297,198.27,281.844,198.723,281.285,198.723z M203.368,196.697h76.904v-60.239
			c0-4.077-3.316-7.393-7.393-7.393h-62.118c-4.077,0-7.394,3.316-7.394,7.393V196.697z"/>
	</g>
	<g>
		<g>
			<rect x="193.547" y="131.836" class="st3" width="96.946" height="25.694"/>
			<path class="st0" d="M290.494,158.543h-96.947c-0.56,0-1.013-0.453-1.013-1.013v-25.694c0-0.56,0.453-1.013,1.013-1.013h96.947
				c0.56,0,1.013,0.453,1.013,1.013v25.694C291.507,158.09,291.054,158.543,290.494,158.543z M194.56,156.517h94.921v-23.669H194.56
				V156.517z"/>
		</g>
		<g>
			<path class="st0" d="M206.086,149.909c-0.56,0-1.013-0.453-1.013-1.013v-8.427c0-0.56,0.453-1.013,1.013-1.013
				c0.56,0,1.013,0.453,1.013,1.013v8.427C207.099,149.456,206.646,149.909,206.086,149.909z"/>
		</g>
		<g>
			<path class="st0" d="M212.952,149.909c-0.56,0-1.013-0.453-1.013-1.013v-8.427c0-0.56,0.453-1.013,1.013-1.013
				s1.013,0.453,1.013,1.013v8.427C213.965,149.456,213.512,149.909,212.952,149.909z"/>
		</g>
		<g>
			<path class="st0" d="M219.818,149.909c-0.56,0-1.013-0.453-1.013-1.013v-8.427c0-0.56,0.453-1.013,1.013-1.013
				c0.56,0,1.013,0.453,1.013,1.013v8.427C220.831,149.456,220.378,149.909,219.818,149.909z"/>
		</g>
		<g>
			<path class="st0" d="M226.684,149.909c-0.56,0-1.013-0.453-1.013-1.013v-8.427c0-0.56,0.453-1.013,1.013-1.013
				c0.56,0,1.013,0.453,1.013,1.013v8.427C227.696,149.456,227.243,149.909,226.684,149.909z"/>
		</g>
		<g>
			<path class="st0" d="M233.55,149.909c-0.56,0-1.013-0.453-1.013-1.013v-8.427c0-0.56,0.453-1.013,1.013-1.013
				c0.56,0,1.013,0.453,1.013,1.013v8.427C234.563,149.456,234.11,149.909,233.55,149.909z"/>
		</g>
		<g>
			<g>
				<path class="st0" d="M243.902,145.696h-1.924c-0.56,0-1.013-0.453-1.013-1.013c0-0.56,0.453-1.013,1.013-1.013h1.924
					c0.56,0,1.013,0.453,1.013,1.013C244.914,145.243,244.461,145.696,243.902,145.696z"/>
			</g>
			<g>
				<path class="st0" d="M250.495,145.696h-1.924c-0.56,0-1.013-0.453-1.013-1.013c0-0.56,0.453-1.013,1.013-1.013h1.924
					c0.56,0,1.013,0.453,1.013,1.013C251.508,145.243,251.055,145.696,250.495,145.696z"/>
			</g>
			<g>
				<path class="st0" d="M257.09,145.696h-1.924c-0.56,0-1.013-0.453-1.013-1.013c0-0.56,0.453-1.013,1.013-1.013h1.924
					c0.56,0,1.013,0.453,1.013,1.013C258.102,145.243,257.649,145.696,257.09,145.696z"/>
			</g>
		</g>
		<g>
			<circle class="st1" cx="271.653" cy="144.683" r="6.59"/>
			<path class="st0" d="M271.653,152.286c-4.192,0-7.603-3.41-7.603-7.602c0-4.192,3.411-7.603,7.603-7.603
				c4.192,0,7.603,3.411,7.603,7.603C279.256,148.876,275.845,152.286,271.653,152.286z M271.653,139.106
				c-3.076,0-5.578,2.502-5.578,5.578c0,3.075,2.502,5.577,5.578,5.577c3.076,0,5.578-2.502,5.578-5.577
				C277.231,141.608,274.729,139.106,271.653,139.106z"/>
		</g>
	</g>
	<g>
		<g>
			<rect x="193.547" y="163.053" class="st3" width="96.946" height="25.694"/>
			<path class="st0" d="M290.494,189.76h-96.947c-0.56,0-1.013-0.453-1.013-1.013v-25.693c0-0.56,0.453-1.013,1.013-1.013h96.947
				c0.56,0,1.013,0.453,1.013,1.013v25.693C291.507,189.307,291.054,189.76,290.494,189.76z M194.56,187.734h94.921v-23.668H194.56
				V187.734z"/>
		</g>
		<g>
			<path class="st0" d="M206.086,181.126c-0.56,0-1.013-0.453-1.013-1.013v-8.426c0-0.56,0.453-1.013,1.013-1.013
				c0.56,0,1.013,0.453,1.013,1.013v8.426C207.099,180.673,206.646,181.126,206.086,181.126z"/>
		</g>
		<g>
			<path class="st0" d="M212.952,181.126c-0.56,0-1.013-0.453-1.013-1.013v-8.426c0-0.56,0.453-1.013,1.013-1.013
				s1.013,0.453,1.013,1.013v8.426C213.965,180.673,213.512,181.126,212.952,181.126z"/>
		</g>
		<g>
			<path class="st0" d="M219.818,181.126c-0.56,0-1.013-0.453-1.013-1.013v-8.426c0-0.56,0.453-1.013,1.013-1.013
				c0.56,0,1.013,0.453,1.013,1.013v8.426C220.831,180.673,220.378,181.126,219.818,181.126z"/>
		</g>
		<g>
			<path class="st0" d="M226.684,181.126c-0.56,0-1.013-0.453-1.013-1.013v-8.426c0-0.56,0.453-1.013,1.013-1.013
				c0.56,0,1.013,0.453,1.013,1.013v8.426C227.696,180.673,227.243,181.126,226.684,181.126z"/>
		</g>
		<g>
			<path class="st0" d="M233.55,181.126c-0.56,0-1.013-0.453-1.013-1.013v-8.426c0-0.56,0.453-1.013,1.013-1.013
				c0.56,0,1.013,0.453,1.013,1.013v8.426C234.563,180.673,234.11,181.126,233.55,181.126z"/>
		</g>
		<g>
			<g>
				<path class="st0" d="M243.902,176.913h-1.924c-0.56,0-1.013-0.453-1.013-1.013c0-0.56,0.453-1.013,1.013-1.013h1.924
					c0.56,0,1.013,0.453,1.013,1.013C244.914,176.46,244.461,176.913,243.902,176.913z"/>
			</g>
			<g>
				<path class="st0" d="M250.495,176.913h-1.924c-0.56,0-1.013-0.453-1.013-1.013c0-0.56,0.453-1.013,1.013-1.013h1.924
					c0.56,0,1.013,0.453,1.013,1.013C251.508,176.46,251.055,176.913,250.495,176.913z"/>
			</g>
			<g>
				<path class="st0" d="M257.09,176.913h-1.924c-0.56,0-1.013-0.453-1.013-1.013c0-0.56,0.453-1.013,1.013-1.013h1.924
					c0.56,0,1.013,0.453,1.013,1.013C258.102,176.46,257.649,176.913,257.09,176.913z"/>
			</g>
		</g>
		<g>
			<circle class="st1" cx="271.653" cy="175.9" r="6.59"/>
			<path class="st0" d="M271.653,183.503c-4.192,0-7.603-3.411-7.603-7.603c0-4.192,3.411-7.603,7.603-7.603
				c4.192,0,7.603,3.411,7.603,7.603C279.256,180.093,275.845,183.503,271.653,183.503z M271.653,170.322
				c-3.076,0-5.578,2.502-5.578,5.578c0,3.076,2.502,5.578,5.578,5.578c3.076,0,5.578-2.502,5.578-5.578
				C277.231,172.825,274.729,170.322,271.653,170.322z"/>
		</g>
	</g>
	<g>
		<path class="st0" d="M212.555,127.743c-0.56,0-1.013-0.453-1.013-1.013v-10.214c0-0.56,0.453-1.013,1.013-1.013
			c0.56,0,1.013,0.453,1.013,1.013v10.214C213.567,127.291,213.114,127.743,212.555,127.743z"/>
	</g>
	<g>
		<path class="st0" d="M221.76,127.743c-0.56,0-1.013-0.453-1.013-1.013v-10.214c0-0.56,0.453-1.013,1.013-1.013
			c0.56,0,1.013,0.453,1.013,1.013v10.214C222.773,127.291,222.32,127.743,221.76,127.743z"/>
	</g>
	<g>
		<path class="st0" d="M230.964,127.743c-0.56,0-1.013-0.453-1.013-1.013v-10.214c0-0.56,0.453-1.013,1.013-1.013
			c0.56,0,1.013,0.453,1.013,1.013v10.214C231.977,127.291,231.524,127.743,230.964,127.743z"/>
	</g>
	<g>
		<path class="st0" d="M240.169,127.743c-0.56,0-1.013-0.453-1.013-1.013v-10.214c0-0.56,0.453-1.013,1.013-1.013
			c0.56,0,1.013,0.453,1.013,1.013v10.214C241.181,127.291,240.728,127.743,240.169,127.743z"/>
	</g>
	<g>
		<path class="st0" d="M249.374,127.743c-0.56,0-1.013-0.453-1.013-1.013v-10.214c0-0.56,0.453-1.013,1.013-1.013
			c0.56,0,1.013,0.453,1.013,1.013v10.214C250.387,127.291,249.933,127.743,249.374,127.743z"/>
	</g>
</g>
<g>
	<g>
		<path class="st0" d="M76.779,179.273c-0.384,0-0.694-0.31-0.694-0.694v-4.251c0-0.384,0.311-0.694,0.694-0.694
			c0.384,0,0.694,0.31,0.694,0.694v4.251C77.473,178.962,77.162,179.273,76.779,179.273z"/>
	</g>
	<g>
		<path class="st0" d="M70.438,175.314c-0.384,0-0.694-0.31-0.694-0.694v-9.054c0-0.384,0.31-0.694,0.694-0.694
			c0.384,0,0.694,0.311,0.694,0.694v9.054C71.132,175.003,70.821,175.314,70.438,175.314z"/>
	</g>
	<g>
		<path class="st0" d="M89.396,177.603c-0.384,0-0.694-0.31-0.694-0.694v-1.956c0-0.384,0.311-0.694,0.694-0.694
			c0.384,0,0.694,0.31,0.694,0.694v1.956C90.09,177.292,89.78,177.603,89.396,177.603z"/>
	</g>
	<g>
		<path class="st0" d="M83.087,174.772c-0.384,0-0.694-0.31-0.694-0.694v-6.767c0-0.384,0.31-0.694,0.694-0.694
			c0.384,0,0.694,0.31,0.694,0.694v6.767C83.781,174.462,83.471,174.772,83.087,174.772z"/>
	</g>
	<g>
		<path class="st0" d="M83.073,164.22c-0.384,0-0.694-0.31-0.694-0.694v-2.602c0-0.384,0.31-0.694,0.694-0.694
			c0.384,0,0.694,0.31,0.694,0.694v2.602C83.767,163.91,83.457,164.22,83.073,164.22z"/>
	</g>
	<g>
		<path class="st0" d="M64.163,168.036c-0.384,0-0.694-0.311-0.694-0.694v-4.857c0-0.384,0.31-0.694,0.694-0.694
			c0.384,0,0.694,0.311,0.694,0.694v4.857C64.857,167.725,64.547,168.036,64.163,168.036z"/>
	</g>
</g>
<g>
	<g>
		<g>
			<path class="st2" d="M84.282,100.171v47.17c0,4.799-11.269,8.689-25.169,8.689c-13.901,0-25.169-3.89-25.169-8.689v-47.17"/>
			<path class="st0" d="M59.113,156.724c-14.503,0-25.863-4.122-25.863-9.383v-47.17c0-0.384,0.31-0.694,0.694-0.694
				c0.384,0,0.694,0.31,0.694,0.694v47.17c0,3.861,9.835,7.995,24.475,7.995s24.475-4.134,24.475-7.995v-47.17
				c0-0.384,0.311-0.694,0.694-0.694c0.384,0,0.694,0.31,0.694,0.694v47.17C84.976,152.602,73.616,156.724,59.113,156.724z"/>
		</g>
		<g>
			<path class="st2" d="M84.282,131.543c0,4.799-11.269,8.689-25.169,8.689c-13.901,0-25.169-3.89-25.169-8.689"/>
			<path class="st0" d="M59.113,140.926c-14.503,0-25.863-4.122-25.863-9.383c0-0.384,0.31-0.694,0.694-0.694
				c0.384,0,0.694,0.31,0.694,0.694c0,3.861,9.835,7.995,24.475,7.995s24.475-4.134,24.475-7.995c0-0.384,0.311-0.694,0.694-0.694
				c0.384,0,0.694,0.31,0.694,0.694C84.976,136.804,73.616,140.926,59.113,140.926z"/>
		</g>
		<g>
			<path class="st2" d="M84.282,115.746c0,4.799-11.269,8.689-25.169,8.689c-13.901,0-25.169-3.89-25.169-8.689"/>
			<path class="st0" d="M59.113,125.129c-14.503,0-25.863-4.122-25.863-9.383c0-0.384,0.31-0.694,0.694-0.694
				c0.384,0,0.694,0.311,0.694,0.694c0,3.861,9.835,7.995,24.475,7.995s24.475-4.134,24.475-7.995c0-0.384,0.311-0.694,0.694-0.694
				c0.384,0,0.694,0.311,0.694,0.694C84.976,121.007,73.616,125.129,59.113,125.129z"/>
		</g>
		<g>
			<path class="st2" d="M84.282,100.741c0,4.799-11.269,8.689-25.169,8.689c-13.901,0-25.169-3.89-25.169-8.689
				c0-4.799,11.269-8.689,25.169-8.689C73.013,92.052,84.282,95.942,84.282,100.741z"/>
			<path class="st0" d="M59.113,110.123c-14.503,0-25.863-4.122-25.863-9.383c0-5.261,11.361-9.383,25.863-9.383
				c14.503,0,25.863,4.122,25.863,9.383C84.976,106.002,73.616,110.123,59.113,110.123z M59.113,92.746
				c-14.64,0-24.475,4.134-24.475,7.995c0,3.861,9.835,7.995,24.475,7.995s24.475-4.134,24.475-7.995
				C83.588,96.88,73.753,92.746,59.113,92.746z"/>
		</g>
	</g>
	<g>
		<g>
			<polygon class="st1" points="116.453,154.844 70.179,154.844 70.179,121.046 85.491,121.046 88,123.981 116.453,123.981 			"/>
			<path class="st0" d="M116.453,155.405H70.179c-0.31,0-0.561-0.251-0.561-0.561v-33.798c0-0.31,0.251-0.561,0.561-0.561h15.311
				c0.164,0,0.32,0.072,0.426,0.196l2.342,2.738h28.195c0.31,0,0.561,0.251,0.561,0.561v30.864
				C117.014,155.154,116.763,155.405,116.453,155.405z M70.74,154.284h45.153v-29.742H88c-0.164,0-0.32-0.072-0.426-0.196
				l-2.342-2.738H70.74V154.284z"/>
		</g>
		<g>
			<path class="st0" d="M116.453,157.22H70.179c-0.31,0-0.561-0.251-0.561-0.561v-27.107c0-0.31,0.251-0.561,0.561-0.561h46.274
				c0.31,0,0.561,0.251,0.561,0.561v27.107C117.014,156.969,116.763,157.22,116.453,157.22z M70.74,156.099h45.153v-25.985H70.74
				V156.099z"/>
		</g>
		<g>
			<rect x="70.179" y="129.553" class="st3" width="46.274" height="27.107"/>
			<path class="st0" d="M116.453,157.22H70.179c-0.31,0-0.561-0.251-0.561-0.561v-27.107c0-0.31,0.251-0.561,0.561-0.561h46.274
				c0.31,0,0.561,0.251,0.561,0.561v27.107C117.014,156.969,116.763,157.22,116.453,157.22z M70.74,156.099h45.153v-25.985H70.74
				V156.099z"/>
		</g>
		<g>
			<path class="st0" d="M110.839,137.032H98.59c-0.31,0-0.561-0.251-0.561-0.561c0-0.31,0.251-0.561,0.561-0.561h12.249
				c0.31,0,0.561,0.251,0.561,0.561C111.4,136.781,111.149,137.032,110.839,137.032z"/>
		</g>
		<g>
			<path class="st0" d="M110.839,153.165H84.045c-0.31,0-0.561-0.251-0.561-0.561c0-0.31,0.251-0.561,0.561-0.561h26.794
				c0.31,0,0.561,0.251,0.561,0.561C111.4,152.915,111.149,153.165,110.839,153.165z"/>
		</g>
		<g>
			<path class="st0" d="M77.48,139.186h-1.106c-0.31,0-0.561-0.251-0.561-0.561c0-0.31,0.251-0.561,0.561-0.561h1.106
				c0.31,0,0.561,0.251,0.561,0.561C78.04,138.935,77.79,139.186,77.48,139.186z"/>
		</g>
		<g>
			<path class="st0" d="M81.27,139.186h-1.106c-0.31,0-0.561-0.251-0.561-0.561c0-0.31,0.251-0.561,0.561-0.561h1.106
				c0.31,0,0.561,0.251,0.561,0.561C81.831,138.935,81.58,139.186,81.27,139.186z"/>
		</g>
		<g>
			<path class="st0" d="M85.061,139.186h-1.106c-0.31,0-0.561-0.251-0.561-0.561c0-0.31,0.251-0.561,0.561-0.561h1.106
				c0.31,0,0.561,0.251,0.561,0.561C85.622,138.935,85.371,139.186,85.061,139.186z"/>
		</g>
		<g>
			<path class="st0" d="M110.839,141.115H98.59c-0.31,0-0.561-0.251-0.561-0.561s0.251-0.561,0.561-0.561h12.249
				c0.31,0,0.561,0.251,0.561,0.561S111.149,141.115,110.839,141.115z"/>
		</g>
	</g>
</g>
</svg>
