<?xml version="1.0" encoding="utf-8"?>
<!-- Generator: Adobe Illustrator 22.0.1, SVG Export Plug-In . SVG Version: 6.00 Build 0)  -->
<svg version="1.1" id="Layer_1" xmlns="http://www.w3.org/2000/svg" xmlns:xlink="http://www.w3.org/1999/xlink" x="0px" y="0px"
	 viewBox="0 0 500 275" style="enable-background:new 0 0 500 275;" xml:space="preserve">
<style type="text/css">
	.st0{fill:#626971;}
	.st1{fill:#4FA8B6;}
	.st2{fill:#FFFFFF;}
	.st3{fill:#4EA7B4;}
	.st4{fill:#626871;}
	.st5{fill:#EAEDF1;}
	.st6{display:none;}
	.st7{display:inline;}
	.st8{display:inline;fill:#FFFFFF;}
</style>
<g>
	<g>
		<g>
			<path class="st0" d="M304.229,102.765H194.627c-4.84,0-8.773-3.937-8.773-8.773V16.773c0-4.836,3.937-8.773,8.773-8.773h109.598
				c4.836,0,8.773,3.937,8.773,8.773v77.218C313.002,98.828,309.065,102.765,304.229,102.765z"/>
		</g>
		<g>
			<path class="st0" d="M311.82,90.962H187.036c-0.652,0-1.183-0.527-1.183-1.183s0.527-1.183,1.183-1.183h124.787
				c0.652,0,1.183,0.527,1.183,1.183C313.002,90.435,312.472,90.962,311.82,90.962z"/>
		</g>
		<g>
			<path class="st1" d="M187.036,93.21c0,4.626,3.402,8.372,7.595,8.372h109.598c4.196,0,7.595-3.751,7.595-8.372v-4.638H187.036
				V93.21z"/>
			<path class="st0" d="M304.229,102.765H194.627c-4.84,0-8.773-4.285-8.773-9.551v-4.638c0-0.652,0.527-1.183,1.183-1.183h124.787
				c0.652,0,1.183,0.527,1.183,1.183v4.638C313.002,98.48,309.065,102.765,304.229,102.765z M188.215,89.751v3.459
				c0,3.965,2.876,7.19,6.412,7.19h109.598c3.536,0,6.412-3.228,6.412-7.19v-3.459H188.215z"/>
		</g>
	</g>
	<g>
		<g>
			<path class="st0" d="M245.448,96.985h-15.886c-1.142,0-2.066-0.924-2.066-2.066s0.924-2.066,2.066-2.066h15.886
				c1.142,0,2.066,0.924,2.066,2.066S246.591,96.985,245.448,96.985z"/>
		</g>
		<g>
			<path class="st2" d="M194.392,96.215h-0.271c-0.717,0-1.296-0.579-1.296-1.296s0.579-1.296,1.296-1.296h0.271
				c0.717,0,1.296,0.579,1.296,1.296S195.105,96.215,194.392,96.215z"/>
		</g>
		<g>
			<path class="st2" d="M201.148,96.215h-2.045c-0.717,0-1.296-0.579-1.296-1.296s0.579-1.296,1.296-1.296h2.045
				c0.717,0,1.296,0.579,1.296,1.296S201.865,96.215,201.148,96.215z"/>
		</g>
		<g>
			<path class="st0" d="M269.294,96.985h-15.886c-1.142,0-2.066-0.924-2.066-2.066s0.924-2.066,2.066-2.066h15.886
				c1.142,0,2.066,0.924,2.066,2.066S270.436,96.985,269.294,96.985z"/>
		</g>
	</g>
	<path class="st2" d="M245.602,83.712h-53.705V16.773c0-1.507,1.227-2.734,2.734-2.734h109.598 M304.229,14.039
		c1.507,0,2.734,1.227,2.734,2.734v66.938h-61.361"/>
	<g>
		<path class="st1" d="M222.656,19.406c-0.316-0.166-0.672-0.113-0.798,0.117l-23.302,44.308c-0.122,0.231,0.036,0.555,0.356,0.721
			c0.316,0.166,0.672,0.113,0.798-0.117l23.302-44.308C223.134,19.896,222.976,19.572,222.656,19.406z"/>
		<path class="st1" d="M200.213,51.417c0.316,0.166,0.636,0.19,0.705,0.053l13.893-26.413c0.073-0.138-0.126-0.385-0.446-0.551
			c-0.316-0.17-0.636-0.194-0.705-0.057l-13.893,26.413C199.694,51.004,199.893,51.247,200.213,51.417z"/>
		<path class="st1" d="M221.482,32.846c-0.316-0.166-0.636-0.19-0.705-0.053l-13.893,26.413c-0.073,0.138,0.126,0.385,0.446,0.551
			c0.316,0.166,0.636,0.19,0.705,0.053l13.893-26.413C221.996,33.259,221.798,33.012,221.482,32.846z"/>
	</g>
	<g>
		<path class="st1" d="M301.26,50.757c-0.207-0.109-0.433-0.073-0.514,0.077l-15.064,28.641c-0.081,0.15,0.024,0.36,0.231,0.466
			c0.207,0.109,0.433,0.073,0.514-0.077l15.064-28.641C301.568,51.073,301.467,50.866,301.26,50.757z"/>
		<path class="st1" d="M286.751,71.447c0.207,0.109,0.409,0.126,0.458,0.032l8.98-17.073c0.049-0.089-0.081-0.247-0.288-0.356
			c-0.207-0.109-0.409-0.126-0.458-0.032l-8.98,17.073C286.419,71.179,286.545,71.341,286.751,71.447z"/>
	</g>
</g>
<g>
	<g>
		<g>
			<g>
				<path class="st3" d="M276.23,190.056c0,14.333-11.619,25.952-25.952,25.952c-14.332,0-25.952-11.619-25.952-25.952
					s11.619-25.952,25.952-25.952C264.611,164.105,276.23,175.724,276.23,190.056z"/>
				<path class="st4" d="M250.277,218.28c-15.561,0-28.221-12.66-28.221-28.221c0-15.564,12.66-28.225,28.221-28.225
					c15.563,0,28.223,12.66,28.223,28.225C278.5,205.619,265.84,218.28,250.277,218.28z M250.277,166.374
					c-13.057,0-23.68,10.625-23.68,23.685c0,13.055,10.622,23.68,23.68,23.68c13.06,0,23.682-10.626,23.682-23.68
					C273.958,176.999,263.336,166.374,250.277,166.374z"/>
			</g>
		</g>
	</g>
	<polygon class="st2" points="264.137,181.844 258.491,176.197 250.278,184.41 242.065,176.197 236.419,181.844 244.631,190.056 
		236.419,198.27 242.065,203.916 250.278,195.703 258.491,203.916 264.137,198.27 255.925,190.056 	"/>
</g>
<g>
	<g>
		<g>
			<path class="st5" d="M438.312,216.326c11.038,0,19.986-8.948,19.986-19.986c0-11.033-8.946-19.983-19.986-19.983
				c-2.5,0-4.883,0.475-7.083,1.313c-2.333-10.891-12.002-19.06-23.587-19.06c-11.128,0-20.473,7.547-23.259,17.793
				c-10.599,0.493-19.047,9.216-19.047,19.936c0,10.725,8.453,19.446,19.054,19.939L438.312,216.326z"/>
			<path class="st4" d="M438.312,217.251L438.312,217.251l-53.922-0.047c-11.22-0.52-19.976-9.683-19.976-20.862
				c0-10.954,8.407-19.973,19.261-20.819c3.166-10.534,12.927-17.833,23.967-17.833c11.382,0,21.417,7.832,24.248,18.77
				c2.087-0.679,4.243-1.024,6.422-1.024c11.529,0,20.907,9.378,20.907,20.904C459.22,207.87,449.842,217.251,438.312,217.251z
				 M407.643,159.536c-10.43,0-19.629,7.037-22.368,17.11c-0.104,0.387-0.447,0.662-0.847,0.679
				c-10.188,0.476-18.167,8.828-18.167,19.016c0,10.191,7.983,18.544,18.174,19.018l53.879,0.046
				c10.51,0,19.061-8.551,19.061-19.062c0-10.51-8.551-19.059-19.061-19.059c-2.302,0-4.574,0.422-6.755,1.251
				c-0.251,0.097-0.53,0.077-0.77-0.05c-0.236-0.13-0.404-0.355-0.461-0.618C428.052,167.244,418.511,159.536,407.643,159.536z"/>
		</g>
		<g>
			<path class="st4" d="M392.738,178.822c-0.08,0-0.161-0.011-0.242-0.033c-0.492-0.134-0.782-0.639-0.649-1.132
				c1.912-7.035,8.335-11.948,15.617-11.948c0.51,0,0.923,0.413,0.923,0.923c0,0.51-0.413,0.923-0.923,0.923
				c-6.451,0-12.142,4.352-13.836,10.585C393.517,178.551,393.145,178.822,392.738,178.822z"/>
		</g>
	</g>
	<g>
		<g>
			<path class="st4" d="M450.619,196.276c0.08,0,0.161,0.011,0.242,0.033c0.492,0.134,0.782,0.639,0.649,1.132
				c-1.912,7.035-8.335,11.948-15.617,11.948c-0.51,0-0.923-0.413-0.923-0.923s0.413-0.923,0.923-0.923
				c6.451,0,12.142-4.352,13.836-10.585C449.84,196.547,450.21,196.276,450.619,196.276z"/>
		</g>
	</g>
</g>
<g>
	<g>
		<path class="st2" d="M461.615,226.999c-8.943,8.941-23.435,8.943-32.378,0.002c-8.939-8.941-8.939-23.437,0-32.378
			c8.943-8.939,23.441-8.939,32.381,0C470.557,203.564,470.556,218.059,461.615,226.999z"/>
	</g>
	<g>
		<g>
			<path class="st3" d="M465.938,230.354l22.25,15.626c0.797,0.564,1.905,0.371,2.465-0.431l2.365-3.367
				c0.563-0.797,0.37-1.904-0.433-2.465l-22.245-15.63L465.938,230.354z"/>
			<path class="st4" d="M489.2,247.061c-0.516,0-1.019-0.158-1.45-0.463l-22.246-15.623c-0.344-0.242-0.426-0.713-0.185-1.055
				c0.242-0.344,0.714-0.426,1.055-0.185l22.249,15.625c0.221,0.157,0.481,0.217,0.755,0.171c0.266-0.047,0.499-0.194,0.652-0.415
				l2.367-3.368c0.155-0.222,0.216-0.49,0.169-0.756c-0.047-0.266-0.194-0.499-0.415-0.652l-22.246-15.632
				c-0.344-0.242-0.425-0.713-0.185-1.055c0.242-0.344,0.717-0.425,1.055-0.185l22.245,15.631c0.553,0.385,0.922,0.964,1.041,1.632
				c0.117,0.668-0.034,1.337-0.423,1.89l-2.365,3.365c-0.386,0.554-0.967,0.923-1.633,1.038
				C489.493,247.049,489.346,247.061,489.2,247.061z"/>
		</g>
		<g>
			<g>
				<path class="st3" d="M461.058,187.635c-12.797-8.992-30.463-5.904-39.456,6.897c-8.987,12.8-5.901,30.464,6.897,39.458
					c12.801,8.99,30.467,5.902,39.455-6.899C476.946,214.291,473.862,196.626,461.058,187.635z M463.512,223.97
					c-7.27,10.347-21.545,12.844-31.893,5.576c-10.345-7.269-12.841-21.547-5.575-31.894c7.27-10.345,21.551-12.841,31.898-5.575
					C468.286,199.345,470.78,213.625,463.512,223.97z"/>
				<path class="st4" d="M444.716,239.9c-5.926,0-11.701-1.814-16.652-5.291c-13.118-9.217-16.295-27.393-7.083-40.512
					c4.465-6.356,11.14-10.595,18.791-11.932c7.657-1.339,15.367,0.384,21.721,4.85c6.358,4.464,10.596,11.137,11.932,18.788
					s-0.386,15.366-4.852,21.721c-4.464,6.357-11.135,10.596-18.787,11.933C448.095,239.754,446.4,239.9,444.716,239.9z
					 M444.838,183.239c-1.595,0-3.2,0.137-4.804,0.419c-7.255,1.268-13.58,5.284-17.813,11.309
					c-8.733,12.437-5.721,29.663,6.713,38.402c6.025,4.23,13.336,5.866,20.592,4.595c7.251-1.268,13.576-5.285,17.807-11.31
					c4.233-6.025,5.867-13.338,4.599-20.59c-1.267-7.254-5.284-13.577-11.309-17.808l0,0
					C455.932,184.959,450.456,183.239,444.838,183.239z M444.741,234.454c-4.695,0-9.432-1.391-13.558-4.288
					c-10.671-7.498-13.253-22.277-5.759-32.949c7.5-10.671,22.28-13.254,32.951-5.76c5.17,3.631,8.614,9.058,9.702,15.281
					c1.086,6.224-0.316,12.498-3.946,17.665l0,0C459.533,230.95,452.193,234.454,444.741,234.454z M444.814,188.682
					c-6.976,0-13.843,3.278-18.149,9.404c-7.015,9.987-4.598,23.822,5.388,30.838c9.987,7.013,23.822,4.598,30.838-5.392l0,0
					c3.399-4.838,4.711-10.71,3.693-16.534c-1.016-5.824-4.242-10.903-9.079-14.302
					C453.644,189.985,449.208,188.682,444.814,188.682z"/>
			</g>
		</g>
	</g>
	<g>
		<g>
			<path class="st4" d="M444.184,215.021h-11.923c-0.419,0-0.758-0.339-0.758-0.758s0.339-0.758,0.758-0.758h11.923
				c0.419,0,0.758,0.339,0.758,0.758C444.94,214.682,444.602,215.021,444.184,215.021z"/>
		</g>
		<g>
			<path class="st4" d="M451.125,207.222H432.26c-0.419,0-0.758-0.339-0.758-0.758s0.339-0.758,0.758-0.758h18.865
				c0.419,0,0.758,0.339,0.758,0.758S451.544,207.222,451.125,207.222z"/>
		</g>
		<g>
			<path class="st4" d="M447.82,222.817h-15.559c-0.419,0-0.758-0.339-0.758-0.758s0.339-0.758,0.758-0.758h15.559
				c0.419,0,0.758,0.339,0.758,0.758C448.578,222.48,448.239,222.817,447.82,222.817z"/>
		</g>
		<g>
			<path class="st4" d="M457.048,222.809h-3.76c-0.419,0-0.758-0.339-0.758-0.758s0.339-0.758,0.758-0.758h3.76
				c0.419,0,0.758,0.339,0.758,0.758S457.467,222.809,457.048,222.809z"/>
		</g>
		<g>
			<path class="st4" d="M446.062,199.421H432.26c-0.419,0-0.758-0.339-0.758-0.758s0.339-0.758,0.758-0.758h13.802
				c0.419,0,0.758,0.339,0.758,0.758S446.481,199.421,446.062,199.421z"/>
		</g>
		<g>
			<path class="st4" d="M456.718,199.424h-7.019c-0.419,0-0.758-0.339-0.758-0.758s0.339-0.758,0.758-0.758h7.019
				c0.419,0,0.758,0.339,0.758,0.758C457.475,199.085,457.136,199.424,456.718,199.424z"/>
		</g>
	</g>
</g>
<g>
	<g>
		<g>
			<path class="st2" d="M135.484,219.057h-14.166v-53.224c0-1.409-1.147-2.556-2.555-2.556H41.817c-1.409,0-2.555,1.147-2.555,2.556
				v53.224H25.097c-0.284,0-0.546,0.151-0.686,0.398c-0.141,0.245-0.14,0.549,0.004,0.793l2.32,3.972
				c0.888,1.417,2.419,2.264,4.092,2.264h98.929c1.673,0,3.203-0.847,4.105-2.285l2.308-3.95c0.143-0.244,0.144-0.547,0.004-0.793
				C136.03,219.21,135.768,219.057,135.484,219.057z"/>
		</g>
		<g>
			<g>
				<g>
					<path class="st4" d="M120.55,220.68c-0.438,0-0.792-0.354-0.792-0.792v-54.016c0-0.536-0.436-0.974-0.973-0.974H41.839
						c-0.536,0-0.973,0.438-0.973,0.974v54.018c0,0.438-0.354,0.792-0.792,0.792s-0.792-0.354-0.792-0.792v-54.016
						c0-1.409,1.146-2.556,2.555-2.556h76.947c1.409,0,2.555,1.147,2.555,2.556v54.016
						C121.341,220.327,120.987,220.68,120.55,220.68z"/>
				</g>
				<g>
					<path class="st5" d="M116.052,170.287c0-0.866-0.699-1.567-1.566-1.567H46.14c-0.866,0-1.566,0.702-1.566,1.567v43.41
						c0,0.866,0.699,1.567,1.566,1.567h68.345c0.866,0,1.566-0.702,1.566-1.567L116.052,170.287L116.052,170.287z"/>
					<path class="st4" d="M114.485,216.055H46.14c-1.3,0-2.358-1.058-2.358-2.358v-43.41c0-1.3,1.058-2.358,2.358-2.358h68.345
						c1.3,0,2.358,1.058,2.358,2.358v43.41C116.843,214.997,115.785,216.055,114.485,216.055z M46.14,169.512
						c-0.427,0-0.775,0.347-0.775,0.775v43.41c0,0.428,0.347,0.775,0.775,0.775h68.345c0.427,0,0.775-0.347,0.775-0.775v-43.41
						c0-0.428-0.347-0.775-0.775-0.775L46.14,169.512L46.14,169.512z"/>
				</g>
				<g>
					<g>
						<path class="st4" d="M129.777,226.524H30.848c-1.673,0-3.203-0.847-4.092-2.264l-2.32-3.972
							c-0.143-0.244-0.144-0.547-0.004-0.793c0.141-0.246,0.402-0.398,0.686-0.398h40.571c0.249,0,0.483,0.117,0.632,0.316
							c0.737,0.98,1.899,1.564,3.11,1.564h21.761c1.211,0,2.373-0.584,3.11-1.564c0.149-0.198,0.384-0.316,0.632-0.316h40.571
							c0.284,0,0.546,0.151,0.686,0.398s0.14,0.549-0.004,0.793l-2.308,3.95C132.981,225.677,131.45,226.524,129.777,226.524z
							 M26.498,220.68l1.612,2.76c0.585,0.931,1.613,1.5,2.739,1.5h98.929c1.125,0,2.154-0.569,2.752-1.523l1.599-2.739H95.312
							c-1.037,1.184-2.548,1.879-4.119,1.879H69.432c-1.571,0-3.082-0.696-4.119-1.879H26.498V220.68z"/>
					</g>
				</g>
			</g>
		</g>
	</g>
	<g>
		<g>
			<path class="st4" d="M65.96,146.091h-8.196c-0.357,0-0.645-0.289-0.645-0.645s0.289-0.645,0.645-0.645h8.196
				c0.357,0,0.645,0.289,0.645,0.645S66.317,146.091,65.96,146.091z"/>
		</g>
		<g>
			<path class="st4" d="M80.681,146.091H70.269c-0.357,0-0.645-0.289-0.645-0.645s0.289-0.645,0.645-0.645h10.412
				c0.357,0,0.645,0.289,0.645,0.645S81.037,146.091,80.681,146.091z"/>
		</g>
		<g>
			<path class="st4" d="M88.281,146.091H86.23c-0.357,0-0.645-0.289-0.645-0.645s0.289-0.645,0.645-0.645h2.052
				c0.357,0,0.645,0.289,0.645,0.645S88.638,146.091,88.281,146.091z"/>
		</g>
		<g>
			<g>
				<g>
					<g>
						<path class="st3" d="M52.01,156.783H26.974c-2.408,0-4.355,1.774-4.355,3.962v20.028c0,2.188,1.945,3.963,4.355,3.963H52.01
							c2.403,0,4.351-1.775,4.351-3.963v-20.028C56.361,158.557,54.411,156.783,52.01,156.783z"/>
						<path class="st4" d="M52.01,185.381H26.974c-2.757,0-5-2.067-5-4.608v-20.028c0-2.54,2.243-4.607,5-4.607H52.01
							c2.755,0,4.996,2.067,4.996,4.607v20.028C57.005,183.314,54.765,185.381,52.01,185.381z M26.974,157.428
							c-2.045,0-3.709,1.488-3.709,3.316v20.028c0,1.829,1.664,3.318,3.709,3.318H52.01c2.044,0,3.705-1.489,3.705-3.318v-20.028
							c0-1.829-1.662-3.316-3.705-3.316H26.974z"/>
					</g>
				</g>
				<g>
					<path class="st5" d="M43.115,177.147l-2.306-6.858c0.894-0.502,1.492-1.384,1.492-2.396c0-1.57-1.423-2.838-3.179-2.838
						s-3.184,1.268-3.184,2.838c0,1.01,0.599,1.891,1.493,2.394l-2.312,6.861h7.996C43.115,177.148,43.115,177.147,43.115,177.147z"
						/>
					<path class="st4" d="M43.114,177.793h-7.997c-0.208,0-0.402-0.1-0.524-0.269c-0.121-0.169-0.154-0.386-0.087-0.584l2.154-6.389
						c-0.866-0.658-1.368-1.62-1.368-2.658c0-1.922,1.719-3.484,3.829-3.484c2.109,0,3.824,1.563,3.824,3.484
						c0,1.041-0.502,2.003-1.367,2.66l2.148,6.389c0.066,0.197,0.033,0.413-0.088,0.582
						C43.518,177.693,43.323,177.793,43.114,177.793z M36.017,176.501h6.2l-2.02-6.008c-0.099-0.293,0.025-0.616,0.296-0.767
						c0.729-0.409,1.163-1.096,1.163-1.832c0-1.208-1.137-2.194-2.534-2.194c-1.4,0-2.539,0.984-2.539,2.194
						c0,0.737,0.435,1.421,1.164,1.831c0.27,0.151,0.394,0.474,0.294,0.768L36.017,176.501z"/>
				</g>
			</g>
			<g>
				<path class="st5" d="M46.201,156.783v-11.378c0-3.973-3.22-7.194-7.194-7.194s-7.194,3.22-7.194,7.194v11.378H27.27v-11.956
					c0-6.483,5.255-11.737,11.737-11.737s11.737,5.255,11.737,11.737v11.957L46.201,156.783L46.201,156.783z"/>
				<path class="st4" d="M50.743,157.428h-4.544c-0.357,0-0.645-0.289-0.645-0.645v-11.38c0-3.61-2.938-6.547-6.549-6.547
					s-6.549,2.938-6.549,6.547v11.38c0,0.357-0.289,0.645-0.645,0.645h-4.544c-0.357,0-0.645-0.289-0.645-0.645v-11.956
					c0-6.828,5.555-12.383,12.383-12.383s12.383,5.555,12.383,12.383v11.957C51.388,157.14,51.1,157.428,50.743,157.428z
					 M46.846,156.138h3.252v-11.311c0-6.117-4.975-11.092-11.092-11.092s-11.092,4.975-11.092,11.092v11.311h3.253v-10.733
					c0-4.323,3.516-7.838,7.839-7.838c4.322,0,7.839,3.516,7.839,7.838L46.846,156.138L46.846,156.138z"/>
			</g>
		</g>
	</g>
</g>
<g class="st6">
	<g class="st7">
		<g>
			<path class="st4" d="M304.45,102.523H195.357c-4.816,0-8.734-3.918-8.734-8.734V16.927c0-4.816,3.918-8.734,8.734-8.734H304.45
				c4.816,0,8.734,3.918,8.734,8.734v76.862C313.184,98.605,309.266,102.523,304.45,102.523z"/>
		</g>
		<g>
			<path class="st4" d="M312.008,90.775h-124.21c-0.65,0-1.175-0.526-1.175-1.175c0-0.65,0.526-1.175,1.175-1.175h124.21
				c0.65,0,1.176,0.526,1.176,1.175C313.184,90.25,312.658,90.775,312.008,90.775z"/>
		</g>
		<g>
			<path class="st3" d="M187.799,93.014c0,4.602,3.385,8.334,7.56,8.334H304.45c4.175,0,7.56-3.732,7.56-8.334v-4.619H187.8v4.619
				H187.799z"/>
			<path class="st4" d="M304.45,102.523H195.357c-4.816,0-8.734-4.266-8.734-9.508v-4.619c0-0.65,0.526-1.175,1.175-1.175h124.21
				c0.65,0,1.176,0.526,1.176,1.175v4.619C313.184,98.257,309.266,102.523,304.45,102.523z M188.974,89.571v3.443
				c0,3.946,2.865,7.159,6.383,7.159H304.45c3.519,0,6.383-3.211,6.383-7.159v-3.443H188.974z"/>
		</g>
	</g>
	<g class="st7">
		<g>
			<path class="st4" d="M245.941,96.773h-15.813c-1.137,0-2.057-0.92-2.057-2.057c0-1.136,0.92-2.057,2.057-2.057h15.813
				c1.137,0,2.057,0.92,2.057,2.057C247.997,95.853,247.078,96.773,245.941,96.773z"/>
		</g>
		<g>
			<path class="st2" d="M195.12,96.005h-0.269c-0.713,0-1.289-0.577-1.289-1.289s0.577-1.289,1.289-1.289h0.269
				c0.713,0,1.289,0.577,1.289,1.289C196.409,95.429,195.833,96.005,195.12,96.005z"/>
		</g>
		<g>
			<path class="st2" d="M201.848,96.005h-2.035c-0.713,0-1.289-0.577-1.289-1.289s0.577-1.289,1.289-1.289h2.035
				c0.713,0,1.289,0.577,1.289,1.289C203.138,95.429,202.561,96.005,201.848,96.005z"/>
		</g>
		<g>
			<path class="st4" d="M269.679,96.773h-15.813c-1.137,0-2.057-0.92-2.057-2.057c0-1.136,0.92-2.057,2.057-2.057h15.813
				c1.137,0,2.057,0.92,2.057,2.057C271.734,95.853,270.816,96.773,269.679,96.773z"/>
		</g>
	</g>
	<path class="st8" d="M246.096,83.557h-53.459v-66.63c0-1.5,1.22-2.721,2.721-2.721h109.093 M304.45,14.207
		c1.5,0,2.721,1.22,2.721,2.721v66.63h-61.075"/>
	<g class="st7">
		<path class="st3" d="M223.256,19.55c-0.317-0.167-0.671-0.115-0.793,0.116l-23.195,44.102c-0.121,0.231,0.036,0.553,0.353,0.719
			c0.317,0.167,0.671,0.115,0.793-0.116l23.195-44.103C223.73,20.038,223.573,19.717,223.256,19.55z"/>
		<path class="st3" d="M200.914,51.412c0.317,0.167,0.631,0.19,0.704,0.053l13.828-26.291c0.073-0.137-0.126-0.384-0.442-0.55
			c-0.317-0.167-0.631-0.19-0.704-0.053l-13.828,26.293C200.4,50.999,200.597,51.245,200.914,51.412z"/>
		<path class="st3" d="M222.086,32.924c-0.317-0.167-0.631-0.19-0.704-0.053l-13.828,26.291c-0.073,0.137,0.126,0.384,0.441,0.55
			c0.317,0.167,0.631,0.19,0.704,0.053l13.828-26.291C222.599,33.337,222.401,33.091,222.086,32.924z"/>
	</g>
	<g class="st7">
		<path class="st3" d="M301.497,50.756c-0.205-0.108-0.434-0.074-0.513,0.075L285.99,79.338c-0.079,0.149,0.023,0.357,0.229,0.465
			c0.205,0.108,0.434,0.074,0.513-0.075l14.994-28.507C301.804,51.071,301.702,50.864,301.497,50.756z"/>
		<path class="st3" d="M287.056,71.35c0.204,0.108,0.408,0.123,0.455,0.034l8.938-16.995c0.047-0.089-0.081-0.248-0.285-0.355
			c-0.204-0.108-0.408-0.123-0.455-0.034l-8.938,16.995C286.724,71.084,286.85,71.244,287.056,71.35z"/>
	</g>
</g>
</svg>
