<?xml version="1.0" encoding="utf-8"?>
<!-- Generator: Adobe Illustrator 22.0.1, SVG Export Plug-In . SVG Version: 6.00 Build 0)  -->
<svg version="1.1" id="Layer_1" xmlns="http://www.w3.org/2000/svg" xmlns:xlink="http://www.w3.org/1999/xlink" x="0px" y="0px"
	 viewBox="0 0 500 275" style="enable-background:new 0 0 500 275;" xml:space="preserve">
<style type="text/css">
	.st0{fill:#FFFFFF;}
	.st1{fill:#626971;}
	.st2{fill:#ECEFF2;}
	.st3{fill:#4FA8B6;}
</style>
<g>
	<g>
		<path class="st0" d="M132.387,184.602h-11.508v-43.24c0-1.145-0.932-2.077-2.076-2.077H56.29c-1.145,0-2.076,0.932-2.076,2.077
			v43.24H42.707c-0.23,0-0.443,0.123-0.558,0.323c-0.115,0.2-0.114,0.446,0.003,0.644l1.885,3.227
			c0.722,1.151,1.965,1.84,3.324,1.84h80.371c1.359,0,2.602-0.688,3.335-1.857l1.875-3.209c0.116-0.198,0.117-0.445,0.002-0.644
			C132.83,184.725,132.618,184.602,132.387,184.602z"/>
		<path class="st0" d="M456.278,184.925c-0.114-0.2-0.327-0.323-0.557-0.323h-11.508v-43.24c0-1.145-0.932-2.077-2.076-2.077
			h-62.513c-1.145,0-2.075,0.932-2.075,2.077v43.24H366.04c-0.23,0-0.443,0.123-0.557,0.323c-0.115,0.2-0.114,0.446,0.002,0.644
			l1.885,3.227c0.722,1.151,1.965,1.84,3.324,1.84h80.371c1.359,0,2.602-0.688,3.335-1.857l1.875-3.209
			C456.391,185.371,456.393,185.125,456.278,184.925z"/>
	</g>
	<g>
		<g>
			<g>
				<path class="st1" d="M120.254,185.92c-0.355,0-0.643-0.288-0.643-0.643v-43.883c0-0.436-0.355-0.791-0.79-0.791H56.308
					c-0.436,0-0.79,0.355-0.79,0.791v43.883c0,0.355-0.288,0.643-0.643,0.643c-0.355,0-0.643-0.288-0.643-0.643v-43.883
					c0-1.145,0.931-2.077,2.076-2.077h62.513c1.145,0,2.076,0.932,2.076,2.077v43.883
					C120.897,185.633,120.609,185.92,120.254,185.92z"/>
			</g>
			<g>
				<path class="st2" d="M116.6,144.981c0-0.703-0.568-1.273-1.273-1.273H59.802c-0.703,0-1.273,0.57-1.273,1.273v35.267
					c0,0.703,0.568,1.273,1.273,1.273h55.525c0.703,0,1.273-0.57,1.273-1.273V144.981z"/>
				<path class="st1" d="M115.327,182.163H59.802c-1.056,0-1.915-0.86-1.915-1.916V144.98c0-1.056,0.859-1.916,1.915-1.916h55.525
					c1.056,0,1.916,0.86,1.916,1.916v35.267C117.243,181.303,116.383,182.163,115.327,182.163z M59.802,144.35
					c-0.347,0-0.63,0.282-0.63,0.63v35.267c0,0.348,0.283,0.63,0.63,0.63h55.525c0.347,0,0.63-0.282,0.63-0.63V144.98
					c0-0.348-0.282-0.63-0.63-0.63L59.802,144.35L59.802,144.35z"/>
			</g>
			<g>
				<g>
					<path class="st1" d="M127.75,190.668H47.379c-1.359,0-2.602-0.688-3.324-1.84l-1.885-3.227
						c-0.116-0.198-0.117-0.444-0.003-0.644c0.114-0.2,0.327-0.323,0.558-0.323h32.96c0.202,0,0.392,0.095,0.514,0.256
						c0.599,0.796,1.543,1.271,2.527,1.271h17.679c0.984,0,1.928-0.475,2.527-1.271c0.121-0.161,0.311-0.256,0.514-0.256h32.96
						c0.23,0,0.443,0.123,0.558,0.323s0.114,0.446-0.003,0.644l-1.875,3.209C130.353,189.98,129.11,190.668,127.75,190.668z
						 M43.844,185.92l1.31,2.243c0.475,0.757,1.311,1.219,2.225,1.219h80.371c0.914,0,1.75-0.462,2.236-1.237l1.299-2.225H99.75
						c-0.843,0.962-2.07,1.527-3.346,1.527H78.725c-1.276,0-2.504-0.565-3.346-1.527L43.844,185.92L43.844,185.92z"/>
				</g>
			</g>
		</g>
		<g>
			<g>
				<path class="st1" d="M443.588,185.92c-0.355,0-0.643-0.288-0.643-0.643v-43.883c0-0.436-0.355-0.791-0.79-0.791h-62.513
					c-0.436,0-0.79,0.355-0.79,0.791v43.883c0,0.355-0.288,0.643-0.643,0.643s-0.643-0.288-0.643-0.643v-43.883
					c0-1.145,0.931-2.077,2.076-2.077h62.513c1.145,0,2.076,0.932,2.076,2.077v43.883C444.23,185.633,443.943,185.92,443.588,185.92
					z"/>
			</g>
			<g>
				<path class="st2" d="M439.933,144.981c0-0.703-0.568-1.273-1.273-1.273h-55.525c-0.703,0-1.273,0.57-1.273,1.273v35.267
					c0,0.703,0.568,1.273,1.273,1.273h55.525c0.703,0,1.273-0.57,1.273-1.273V144.981z"/>
				<path class="st1" d="M438.66,182.163h-55.525c-1.056,0-1.915-0.86-1.915-1.916V144.98c0-1.056,0.859-1.916,1.915-1.916h55.525
					c1.056,0,1.916,0.86,1.916,1.916v35.267C440.576,181.303,439.716,182.163,438.66,182.163z M383.136,144.35
					c-0.347,0-0.63,0.282-0.63,0.63v35.267c0,0.348,0.283,0.63,0.63,0.63h55.525c0.347,0,0.63-0.282,0.63-0.63V144.98
					c0-0.348-0.283-0.63-0.63-0.63L383.136,144.35L383.136,144.35z"/>
			</g>
			<g>
				<g>
					<path class="st1" d="M451.084,190.668h-80.371c-1.359,0-2.602-0.688-3.324-1.84l-1.885-3.227
						c-0.116-0.198-0.117-0.444-0.003-0.644s0.327-0.323,0.558-0.323h32.96c0.202,0,0.392,0.095,0.514,0.256
						c0.599,0.796,1.543,1.271,2.527,1.271h17.679c0.984,0,1.928-0.475,2.527-1.271c0.121-0.161,0.311-0.256,0.514-0.256h32.96
						c0.23,0,0.443,0.123,0.557,0.323c0.115,0.2,0.114,0.446-0.003,0.644l-1.875,3.209
						C453.686,189.98,452.443,190.668,451.084,190.668z M367.178,185.92l1.31,2.243c0.475,0.757,1.311,1.219,2.225,1.219h80.371
						c0.914,0,1.75-0.462,2.236-1.237l1.299-2.225h-31.535c-0.843,0.962-2.07,1.527-3.346,1.527h-17.679
						c-1.276,0-2.504-0.565-3.346-1.527L367.178,185.92L367.178,185.92z"/>
				</g>
			</g>
		</g>
	</g>
</g>
<g>
	<g>
		<g>
			<path class="st1" d="M304.229,102.765H194.627c-4.84,0-8.773-3.937-8.773-8.773V16.773c0-4.836,3.937-8.773,8.773-8.773h109.598
				c4.836,0,8.773,3.937,8.773,8.773v77.218C313.002,98.828,309.065,102.765,304.229,102.765z"/>
		</g>
		<g>
			<path class="st1" d="M311.82,90.962H187.036c-0.652,0-1.183-0.527-1.183-1.183s0.527-1.183,1.183-1.183h124.787
				c0.652,0,1.183,0.527,1.183,1.183C313.002,90.435,312.472,90.962,311.82,90.962z"/>
		</g>
		<g>
			<path class="st3" d="M187.036,93.21c0,4.626,3.402,8.372,7.595,8.372h109.598c4.196,0,7.595-3.751,7.595-8.372v-4.638H187.036
				V93.21z"/>
			<path class="st1" d="M304.229,102.765H194.627c-4.84,0-8.773-4.285-8.773-9.551v-4.638c0-0.652,0.527-1.183,1.183-1.183h124.787
				c0.652,0,1.183,0.527,1.183,1.183v4.638C313.002,98.48,309.065,102.765,304.229,102.765z M188.215,89.751v3.459
				c0,3.965,2.876,7.19,6.412,7.19h109.598c3.536,0,6.412-3.228,6.412-7.19v-3.459H188.215z"/>
		</g>
	</g>
	<g>
		<g>
			<path class="st1" d="M245.448,96.985h-15.886c-1.142,0-2.066-0.924-2.066-2.066s0.924-2.066,2.066-2.066h15.886
				c1.142,0,2.066,0.924,2.066,2.066S246.591,96.985,245.448,96.985z"/>
		</g>
		<g>
			<path class="st0" d="M194.392,96.215h-0.271c-0.717,0-1.296-0.579-1.296-1.296s0.579-1.296,1.296-1.296h0.271
				c0.717,0,1.296,0.579,1.296,1.296S195.105,96.215,194.392,96.215z"/>
		</g>
		<g>
			<path class="st0" d="M201.148,96.215h-2.045c-0.717,0-1.296-0.579-1.296-1.296s0.579-1.296,1.296-1.296h2.045
				c0.717,0,1.296,0.579,1.296,1.296S201.865,96.215,201.148,96.215z"/>
		</g>
		<g>
			<path class="st1" d="M269.294,96.985h-15.886c-1.142,0-2.066-0.924-2.066-2.066s0.924-2.066,2.066-2.066h15.886
				c1.142,0,2.066,0.924,2.066,2.066S270.436,96.985,269.294,96.985z"/>
		</g>
	</g>
	<path class="st0" d="M245.602,83.712h-53.705V16.773c0-1.507,1.227-2.734,2.734-2.734h109.598 M304.229,14.039
		c1.507,0,2.734,1.227,2.734,2.734v66.938h-61.361"/>
	<g>
		<path class="st3" d="M222.656,19.406c-0.316-0.166-0.672-0.113-0.798,0.117l-23.302,44.308c-0.122,0.231,0.036,0.555,0.356,0.721
			c0.316,0.166,0.672,0.113,0.798-0.117l23.302-44.308C223.134,19.896,222.976,19.572,222.656,19.406z"/>
		<path class="st3" d="M200.213,51.417c0.316,0.166,0.636,0.19,0.705,0.053l13.893-26.413c0.073-0.138-0.126-0.385-0.446-0.551
			c-0.316-0.17-0.636-0.194-0.705-0.057l-13.893,26.413C199.694,51.004,199.893,51.247,200.213,51.417z"/>
		<path class="st3" d="M221.482,32.846c-0.316-0.166-0.636-0.19-0.705-0.053l-13.893,26.413c-0.073,0.138,0.126,0.385,0.446,0.551
			c0.316,0.166,0.636,0.19,0.705,0.053l13.893-26.413C221.996,33.259,221.798,33.012,221.482,32.846z"/>
	</g>
	<g>
		<path class="st3" d="M301.26,50.757c-0.207-0.109-0.433-0.073-0.514,0.077l-15.064,28.641c-0.081,0.15,0.024,0.36,0.231,0.466
			c0.207,0.109,0.433,0.073,0.514-0.077l15.064-28.641C301.568,51.073,301.467,50.866,301.26,50.757z"/>
		<path class="st3" d="M286.751,71.447c0.207,0.109,0.409,0.126,0.458,0.032l8.98-17.073c0.049-0.089-0.081-0.247-0.288-0.356
			c-0.207-0.109-0.409-0.126-0.458-0.032l-8.98,17.073C286.419,71.179,286.545,71.341,286.751,71.447z"/>
	</g>
</g>
<g>
	<g>
		<g>
			<path class="st2" d="M274.349,268.853c9.75,0,17.652-7.902,17.652-17.652c0-9.745-7.902-17.652-17.652-17.652
				c-2.208,0-4.314,0.421-6.258,1.158c-2.062-9.62-10.6-16.834-20.832-16.834c-9.831,0-18.081,6.667-20.544,15.716
				c-9.361,0.433-16.822,8.141-16.822,17.607c0,9.474,7.465,17.174,16.83,17.611L274.349,268.853z"/>
			<path class="st1" d="M274.349,269.667L274.349,269.667l-47.63-0.04c-9.912-0.458-17.644-8.555-17.644-18.426
				c0-9.677,7.425-17.64,17.012-18.389c2.799-9.304,11.418-15.752,21.168-15.752c10.053,0,18.916,6.918,21.419,16.579
				c1.843-0.599,3.747-0.903,5.671-0.903c10.183,0,18.466,8.283,18.466,18.466C292.815,261.384,284.531,269.667,274.349,269.667z
				 M247.259,218.688c-9.215,0-17.336,6.213-19.758,15.112c-0.093,0.34-0.397,0.583-0.749,0.599
				c-8.996,0.425-16.044,7.801-16.044,16.797c0,9,7.052,16.38,16.052,16.797l47.589,0.04c9.284,0,16.838-7.554,16.838-16.838
				s-7.554-16.834-16.838-16.834c-2.033,0-4.042,0.373-5.966,1.106c-0.223,0.085-0.47,0.069-0.68-0.045
				c-0.207-0.113-0.356-0.312-0.409-0.547C265.284,225.496,256.859,218.688,247.259,218.688z"/>
		</g>
		<g>
			<path class="st1" d="M234.095,235.724c-0.069,0-0.142-0.008-0.215-0.028c-0.433-0.117-0.693-0.567-0.571-1
				c1.689-6.213,7.364-10.556,13.796-10.556c0.45,0,0.814,0.365,0.814,0.814c0,0.45-0.365,0.814-0.814,0.814
				c-5.699,0-10.726,3.844-12.22,9.349C234.779,235.485,234.451,235.724,234.095,235.724z"/>
		</g>
	</g>
	<g>
		<g>
			<path class="st1" d="M285.216,251.14c0.069,0,0.142,0.008,0.215,0.028c0.433,0.117,0.693,0.567,0.571,1
				c-1.689,6.213-7.364,10.556-13.796,10.556c-0.45,0-0.814-0.365-0.814-0.814c0-0.45,0.365-0.814,0.814-0.814
				c5.699,0,10.726-3.844,12.22-9.349C284.531,251.379,284.856,251.14,285.216,251.14z"/>
		</g>
	</g>
</g>
</svg>
