<?xml version="1.0" encoding="utf-8"?>
<!-- Generator: Adobe Illustrator 22.0.1, SVG Export Plug-In . SVG Version: 6.00 Build 0)  -->
<svg version="1.1" id="Layer_1" xmlns="http://www.w3.org/2000/svg" xmlns:xlink="http://www.w3.org/1999/xlink" x="0px" y="0px"
	 viewBox="0 0 500 100" style="enable-background:new 0 0 500 100;" xml:space="preserve">
<style type="text/css">
	.st0{fill:#FFFFFF;}
	.st1{fill:#ECEFF2;}
	.st2{fill:#626971;}
	.st3{fill:#4FA8B6;}
</style>
<g>
	<path class="st0" d="M489.554,20.708c-1.227-4.646-11.723-8.164-24.904-8.164s-23.677,3.519-24.904,8.164
		c-0.07,0.106-0.122,0.226-0.122,0.364v15.752h-27.037c-0.371,0-0.672,0.3-0.672,0.672v6.673v30.29v2.174
		c0,0.371,0.3,0.672,0.672,0.672h26.705v6.78c-2.378,0.331-4.22,2.357-4.22,4.824c0,2.698,2.194,4.893,4.892,4.893
		s4.893-2.195,4.893-4.893c0-2.468-1.843-4.493-4.221-4.824v-6.78h27.369c0.371,0,0.672-0.3,0.672-0.672v-0.952
		c12.053-0.68,20.999-4.373,20.999-8.965V21.072C489.676,20.934,489.624,20.814,489.554,20.708z"/>
	<g>
		<g>
			<g>
				<path class="st1" d="M440.247,21.118V66.76c0,4.643,10.904,8.407,24.354,8.407c13.451,0,24.354-3.764,24.354-8.407V21.118"/>
				<path class="st2" d="M464.601,75.839c14.033,0,25.026-3.988,25.026-9.079V21.118c0-0.371-0.3-0.672-0.672-0.672
					c-0.371,0-0.672,0.3-0.672,0.672V66.76c0,3.736-9.516,7.736-23.682,7.736s-23.683-4-23.683-7.736V21.118
					c0-0.371-0.3-0.672-0.672-0.672c-0.371,0-0.672,0.3-0.672,0.672V66.76C439.576,71.851,450.568,75.839,464.601,75.839z"/>
			</g>
			<g>
				<path class="st1" d="M440.247,51.474c0,4.643,10.904,8.407,24.354,8.407c13.451,0,24.354-3.764,24.354-8.407"/>
				<path class="st2" d="M464.601,60.553c14.033,0,25.026-3.988,25.026-9.079c0-0.371-0.3-0.672-0.672-0.672
					c-0.371,0-0.672,0.3-0.672,0.672c0,3.736-9.516,7.736-23.682,7.736s-23.683-4-23.683-7.736c0-0.371-0.3-0.672-0.672-0.672
					c-0.371,0-0.672,0.3-0.672,0.672C439.576,56.564,450.568,60.553,464.601,60.553z"/>
			</g>
			<g>
				<path class="st1" d="M440.247,36.188c0,4.643,10.904,8.407,24.354,8.407c13.451,0,24.354-3.764,24.354-8.407"/>
				<path class="st2" d="M464.601,45.267c14.033,0,25.026-3.988,25.026-9.079c0-0.371-0.3-0.672-0.672-0.672
					c-0.371,0-0.672,0.3-0.672,0.672c0,3.736-9.516,7.736-23.682,7.736s-23.683-4-23.683-7.736c0-0.371-0.3-0.672-0.672-0.672
					c-0.371,0-0.672,0.3-0.672,0.672C439.576,41.279,450.568,45.267,464.601,45.267z"/>
			</g>
			<g>
				<path class="st1" d="M440.247,21.669c0,4.643,10.904,8.407,24.354,8.407c13.451,0,24.354-3.764,24.354-8.407
					s-10.904-8.407-24.354-8.407C451.151,13.261,440.247,17.025,440.247,21.669z"/>
				<path class="st2" d="M439.576,21.669c0-5.091,10.993-9.079,25.026-9.079s25.026,3.988,25.026,9.079s-10.993,9.079-25.026,9.079
					C450.568,30.748,439.576,26.759,439.576,21.669z M440.919,21.669c0,3.736,9.516,7.736,23.683,7.736
					c14.166,0,23.682-4,23.682-7.736s-9.516-7.736-23.682-7.736C450.435,13.933,440.919,17.933,440.919,21.669z"/>
			</g>
		</g>
		<g>
			<polygon class="st3" points="412.539,74.504 467.956,74.504 467.956,34.027 449.619,34.027 446.614,37.542 412.539,37.542 			"/>
			<path class="st2" d="M411.867,74.504V37.541c0-0.371,0.3-0.672,0.672-0.672h33.766l2.804-3.279
				c0.127-0.149,0.314-0.235,0.51-0.235h18.337c0.371,0,0.672,0.3,0.672,0.672v40.476c0,0.371-0.3,0.672-0.672,0.672h-55.418
				C412.167,75.175,411.867,74.875,411.867,74.504z M467.285,34.699h-17.356l-2.804,3.279c-0.127,0.149-0.314,0.235-0.51,0.235
				H413.21v35.619h54.074V34.699H467.285z"/>
		</g>
		<g>
			<path class="st2" d="M411.867,76.677V44.214c0-0.371,0.3-0.672,0.672-0.672h55.418c0.371,0,0.672,0.3,0.672,0.672v32.463
				c0,0.371-0.3,0.672-0.672,0.672h-55.418C412.167,77.349,411.867,77.048,411.867,76.677z M467.285,44.886H413.21v31.12h54.074
				v-31.12H467.285z"/>
		</g>
		<g>
			<rect x="412.538" y="44.214" class="st0" width="55.417" height="32.463"/>
			<path class="st2" d="M411.867,76.677V44.214c0-0.371,0.3-0.672,0.672-0.672h55.418c0.371,0,0.672,0.3,0.672,0.672v32.463
				c0,0.371-0.3,0.672-0.672,0.672h-55.418C412.167,77.349,411.867,77.048,411.867,76.677z M467.285,44.886H413.21v31.12h54.074
				v-31.12H467.285z"/>
		</g>
		<g>
			<path class="st2" d="M419.262,53.172h14.669c0.371,0,0.672-0.3,0.672-0.672c0-0.371-0.3-0.672-0.672-0.672h-14.669
				c-0.371,0-0.672,0.3-0.672,0.672C418.591,52.871,418.891,53.172,419.262,53.172z"/>
		</g>
		<g>
			<path class="st2" d="M419.262,72.493h32.089c0.371,0,0.672-0.3,0.672-0.672c0-0.371-0.3-0.672-0.672-0.672h-32.089
				c-0.371,0-0.672,0.3-0.672,0.672C418.591,72.192,418.891,72.493,419.262,72.493z"/>
		</g>
		<g>
			<path class="st2" d="M454.673,72.493h5.864c0.371,0,0.672-0.3,0.672-0.672c0-0.371-0.3-0.672-0.672-0.672h-5.864
				c-0.371,0-0.672,0.3-0.672,0.672C454.002,72.192,454.302,72.493,454.673,72.493z"/>
		</g>
		<g>
			<path class="st2" d="M483.546,58.905c0.371,0,0.672-0.3,0.672-0.672V27.029c0-0.371-0.3-0.672-0.672-0.672
				s-0.672,0.3-0.672,0.672v31.204C482.875,58.605,483.175,58.905,483.546,58.905z"/>
		</g>
		<g>
			<path class="st2" d="M483.546,69.109c0.371,0,0.672-0.3,0.672-0.672v-6.142c0-0.371-0.3-0.672-0.672-0.672
				s-0.672,0.3-0.672,0.672v6.142C482.875,68.808,483.175,69.109,483.546,69.109z"/>
		</g>
		<g>
			<path class="st2" d="M459.213,55.751h1.324c0.371,0,0.672-0.3,0.672-0.672c0-0.371-0.3-0.672-0.672-0.672h-1.324
				c-0.371,0-0.672,0.3-0.672,0.672C458.541,55.451,458.842,55.751,459.213,55.751z"/>
		</g>
		<g>
			<path class="st2" d="M454.673,55.751h1.324c0.371,0,0.672-0.3,0.672-0.672c0-0.371-0.3-0.672-0.672-0.672h-1.324
				c-0.371,0-0.672,0.3-0.672,0.672C454.002,55.451,454.302,55.751,454.673,55.751z"/>
		</g>
		<g>
			<path class="st2" d="M450.133,55.751h1.324c0.371,0,0.672-0.3,0.672-0.672c0-0.371-0.3-0.672-0.672-0.672h-1.324
				c-0.371,0-0.672,0.3-0.672,0.672C449.462,55.451,449.762,55.751,450.133,55.751z"/>
		</g>
		<g>
			<path class="st2" d="M419.262,58.061h14.669c0.371,0,0.672-0.3,0.672-0.672c0-0.371-0.3-0.672-0.672-0.672h-14.669
				c-0.371,0-0.672,0.3-0.672,0.672C418.591,57.761,418.891,58.061,419.262,58.061z"/>
		</g>
		<g>
			<path class="st2" d="M435.023,88.953c0-2.697,2.194-4.892,4.892-4.892s4.893,2.194,4.893,4.892c0,2.697-2.195,4.893-4.893,4.893
				C437.218,93.846,435.023,91.651,435.023,88.953z M436.367,88.953c0,1.957,1.592,3.549,3.549,3.549s3.549-1.592,3.549-3.549
				s-1.592-3.549-3.549-3.549S436.367,86.996,436.367,88.953z"/>
		</g>
		<g>
			<path class="st2" d="M439.915,85.404c0.371,0,0.672-0.3,0.672-0.672v-7.725c0-0.371-0.3-0.672-0.672-0.672
				s-0.672,0.3-0.672,0.672v7.725C439.244,85.104,439.544,85.404,439.915,85.404z"/>
		</g>
	</g>
</g>
<g>
	<path class="st0" d="M281.17,35.138h-14.032c1.16-4.421,0.661-9.047-1.473-13.123c-2.269-4.338-6.092-7.532-10.764-8.994
		c-5.16-1.616-10.498-0.806-14.818,1.758c-0.014,0.007-0.031,0.007-0.044,0.016c-0.047,0.028-0.089,0.061-0.136,0.09
		c-0.369,0.224-0.727,0.463-1.08,0.713c-0.115,0.082-0.23,0.163-0.343,0.247c-0.335,0.25-0.661,0.511-0.98,0.784
		c-0.118,0.101-0.234,0.203-0.349,0.306c-0.299,0.27-0.591,0.548-0.873,0.839c-0.12,0.123-0.236,0.249-0.352,0.376
		c-0.262,0.285-0.517,0.575-0.761,0.877c-0.123,0.152-0.239,0.309-0.357,0.465c-0.22,0.291-0.436,0.583-0.64,0.889
		c-0.13,0.195-0.248,0.397-0.371,0.597c-0.172,0.282-0.346,0.562-0.504,0.855c-0.147,0.272-0.275,0.554-0.408,0.834
		c-0.113,0.239-0.235,0.471-0.338,0.716c-0.229,0.54-0.435,1.091-0.612,1.655c-0.026,0.083-0.046,0.168-0.066,0.253
		c0,0.001,0,0.002,0,0.003c-0.013,0.044-0.021,0.087-0.034,0.131c0,0.001-0.001,0.002-0.001,0.002
		c-0.008,0.027-0.013,0.054-0.02,0.081c-0.22,0.776-0.383,1.554-0.498,2.333c-0.01,0.071-0.023,0.141-0.032,0.212
		c-0.328,2.415-0.163,4.815,0.434,7.087H218.83c-2.752,0-4.991,2.239-4.991,4.991v36.515v2.639v0.443
		c0,2.209,1.453,4.066,3.446,4.721c0.08,0.029,0.163,0.052,0.245,0.076c0.144,0.039,0.285,0.08,0.434,0.106
		c0.282,0.054,0.571,0.088,0.867,0.088h25.992v5.415h-4.542c-0.371,0-0.672,0.3-0.672,0.672c0,0.371,0.3,0.672,0.672,0.672h19.439
		c0.371,0,0.672-0.3,0.672-0.672c0-0.371-0.3-0.672-0.672-0.672h-4.542v-5.415h25.992c0.296,0,0.585-0.034,0.867-0.088
		c0.149-0.026,0.29-0.067,0.434-0.106c0.082-0.024,0.164-0.048,0.245-0.076c1.993-0.655,3.445-2.512,3.445-4.721v-0.443v-2.639
		V40.129C286.161,37.378,283.922,35.138,281.17,35.138z"/>
	<g>
		<g>
			<path class="st2" d="M240.28,91.475h19.439c0.371,0,0.672-0.3,0.672-0.672c0-0.371-0.3-0.672-0.672-0.672H240.28
				c-0.371,0-0.672,0.3-0.672,0.672C239.609,91.175,239.909,91.475,240.28,91.475z"/>
		</g>
		<g>
			<g>
				<g>
					<path class="st2" d="M213.839,79.726V40.129c0-2.752,2.239-4.991,4.991-4.991h62.339c2.752,0,4.991,2.239,4.991,4.991v39.597
						c0,2.752-2.239,4.991-4.991,4.991H218.83C216.078,84.717,213.839,82.478,213.839,79.726z M218.83,36.482
						c-2.011,0-3.648,1.636-3.648,3.648v39.597c0,2.012,1.637,3.648,3.648,3.648h62.339c2.011,0,3.648-1.636,3.648-3.648V40.129
						c0-2.011-1.637-3.648-3.648-3.648L218.83,36.482L218.83,36.482z"/>
				</g>
				<g>
					<path class="st2" d="M214.511,78.004h70.978c0.371,0,0.672-0.3,0.672-0.672s-0.3-0.672-0.672-0.672h-70.978
						c-0.371,0-0.672,0.3-0.672,0.672S214.14,78.004,214.511,78.004z"/>
				</g>
				<g>
					<path class="st3" d="M285.489,79.283c0,2.63-1.934,4.763-4.32,4.763h-62.338c-2.386,0-4.32-2.132-4.32-4.763v-2.639h70.978
						V79.283z"/>
					<path class="st2" d="M213.839,79.283v-2.639c0-0.371,0.3-0.672,0.672-0.672h70.978c0.371,0,0.672,0.3,0.672,0.672v2.639
						c0,2.996-2.239,5.434-4.991,5.434h-62.34C216.078,84.717,213.839,82.279,213.839,79.283z M215.183,77.316v1.967
						c0,2.255,1.637,4.09,3.648,4.09h62.339c2.011,0,3.648-1.835,3.648-4.09v-1.967H215.183z"/>
				</g>
			</g>
			<g>
				<g>
					<path class="st2" d="M254.506,91.475c0.371,0,0.672-0.3,0.672-0.672v-6.758c0-0.371-0.3-0.672-0.672-0.672
						c-0.371,0-0.672,0.3-0.672,0.672v6.758C253.834,91.175,254.134,91.475,254.506,91.475z"/>
				</g>
				<g>
					<path class="st2" d="M245.494,91.475c0.371,0,0.672-0.3,0.672-0.672v-6.758c0-0.371-0.3-0.672-0.672-0.672
						c-0.371,0-0.672,0.3-0.672,0.672v6.758C244.823,91.175,245.123,91.475,245.494,91.475z"/>
				</g>
			</g>
			<g>
				<path class="st2" d="M249.427,81.36h1.146c0.371,0,0.672-0.3,0.672-0.672c0-0.371-0.3-0.672-0.672-0.672h-1.146
					c-0.371,0-0.672,0.3-0.672,0.672S249.056,81.36,249.427,81.36z"/>
			</g>
			<g>
				<g>
					<ellipse class="st1" cx="249.438" cy="30.509" rx="17.656" ry="17.656"/>
					<path class="st2" d="M243.953,48.002c-9.644-3.018-15.035-13.32-12.018-22.964l0,0c3.021-9.645,13.323-15.037,22.965-12.016
						c4.672,1.462,8.494,4.656,10.764,8.994c2.27,4.337,2.715,9.299,1.253,13.97s-4.656,8.494-8.993,10.764
						c-2.661,1.392-5.556,2.097-8.476,2.097C247.609,48.847,245.759,48.567,243.953,48.002z M233.218,25.439L233.218,25.439
						c-2.798,8.937,2.198,18.484,11.136,21.282c4.331,1.352,8.927,0.942,12.946-1.161s6.979-5.646,8.333-9.975
						c1.356-4.329,0.944-8.927-1.16-12.946s-5.645-6.98-9.975-8.335c-1.683-0.527-3.385-0.776-5.062-0.776
						C242.209,13.526,235.489,18.184,233.218,25.439z"/>
				</g>
			</g>
			<g>
				<path class="st2" d="M223.137,71.278h53.669c0.371,0,0.672-0.3,0.672-0.672c0-0.371-0.3-0.672-0.672-0.672h-53.669
					c-0.371,0-0.672,0.3-0.672,0.672S222.765,71.278,223.137,71.278z"/>
			</g>
			<g>
				<rect x="223.137" y="48.172" class="st1" width="7.271" height="19.307"/>
				<path class="st2" d="M222.465,67.478V48.171c0-0.371,0.3-0.672,0.672-0.672h7.271c0.371,0,0.672,0.3,0.672,0.672v19.307
					c0,0.371-0.3,0.672-0.672,0.672h-7.271C222.765,68.15,222.465,67.849,222.465,67.478z M229.736,48.843h-5.928v17.964h5.928
					V48.843z"/>
			</g>
			<g>
				<path class="st2" d="M234.064,67.478V51.802c0-0.371,0.3-0.672,0.672-0.672h7.272c0.371,0,0.672,0.3,0.672,0.672v15.676
					c0,0.371-0.3,0.672-0.672,0.672h-7.272C234.365,68.15,234.064,67.849,234.064,67.478z M241.336,52.474h-5.929v14.333h5.929
					V52.474z"/>
			</g>
			<g>
				<path class="st2" d="M268.863,67.478v-7.55c0-0.371,0.3-0.672,0.672-0.672h7.271c0.371,0,0.672,0.3,0.672,0.672v7.55
					c0,0.371-0.3,0.672-0.672,0.672h-7.271C269.164,68.15,268.863,67.849,268.863,67.478z M276.134,60.6h-5.928v6.207h5.928V60.6z"
					/>
			</g>
			<g>
				<path class="st2" d="M245.664,67.478v-6.751c0-0.371,0.3-0.672,0.672-0.672h7.272c0.371,0,0.672,0.3,0.672,0.672v6.751
					c0,0.371-0.3,0.672-0.672,0.672h-7.272C245.964,68.15,245.664,67.849,245.664,67.478z M252.936,61.399h-5.929v5.408h5.929
					V61.399z"/>
			</g>
			<g>
				<path class="st2" d="M257.264,67.478V56.503c0-0.371,0.3-0.672,0.672-0.672h7.271c0.371,0,0.672,0.3,0.672,0.672v10.975
					c0,0.371-0.3,0.672-0.672,0.672h-7.271C257.565,68.15,257.264,67.849,257.264,67.478z M264.535,57.175h-5.928v9.632h5.928
					V57.175z"/>
			</g>
		</g>
	</g>
</g>
<g>
	<path class="st0" d="M84.666,34.637h-2.41c0.235-0.401,0.379-0.861,0.379-1.359v-0.672c0-3.367-2.729-6.096-6.096-6.096h-2.306
		c0.211-0.385,0.342-0.821,0.342-1.291v-0.672c0-3.367-2.729-6.096-6.096-6.096H17.268c-3.367,0-6.096,2.729-6.096,6.096v34.419
		c0,3.366,2.729,6.094,6.094,6.094h0.674c0.47,0,0.906-0.131,1.291-0.342v2.307c0,3.367,2.729,6.096,6.096,6.096H26
		c0.498,0,0.959-0.144,1.359-0.379v2.411c0,3.367,2.729,6.096,6.096,6.096h51.212c3.367,0,6.096-2.729,6.096-6.096V40.734
		C90.763,37.367,88.033,34.637,84.666,34.637z"/>
	<g>
		<g>
			<g>
				<g>
					<path class="st2" d="M27.359,75.152V40.733c0-3.367,2.729-6.096,6.096-6.096h51.211c3.367,0,6.097,2.73,6.097,6.097v34.417
						c0,3.367-2.729,6.096-6.096,6.096H33.454C30.088,81.248,27.359,78.519,27.359,75.152z M33.456,35.98
						c-2.625,0-4.754,2.128-4.754,4.754v34.418c0,2.625,2.128,4.752,4.752,4.752h51.212c2.625,0,4.753-2.128,4.753-4.753V40.734
						c0-2.625-2.128-4.753-4.753-4.753h-51.21V35.98z"/>
				</g>
				<g>
					<g>
						<path class="st2" d="M59.061,64.822c1.039,0,2.077-0.384,2.868-1.153l26.848-26.093c0.266-0.258,0.272-0.683,0.013-0.95
							c-0.258-0.265-0.684-0.273-0.95-0.013L60.992,62.707c-1.064,1.034-2.798,1.034-3.864,0L30.284,36.613
							c-0.266-0.26-0.693-0.252-0.95,0.013c-0.258,0.266-0.253,0.691,0.013,0.95l26.845,26.093
							C56.984,64.438,58.023,64.822,59.061,64.822z"/>
					</g>
				</g>
				<g>
					<g>
						<path class="st2" d="M88.308,78.796c0.192,0,0.382-0.081,0.515-0.24c0.239-0.283,0.202-0.707-0.083-0.946L67.629,59.89
							c-0.285-0.239-0.709-0.201-0.946,0.083c-0.239,0.283-0.202,0.707,0.083,0.946l21.112,17.72
							C88.003,78.744,88.156,78.796,88.308,78.796z"/>
					</g>
					<g>
						<path class="st2" d="M29.816,78.796c0.152,0,0.305-0.051,0.431-0.157l21.106-17.717c0.285-0.239,0.321-0.662,0.083-0.946
							c-0.237-0.283-0.661-0.323-0.946-0.083L29.384,77.61c-0.285,0.239-0.321,0.662-0.083,0.946
							C29.434,78.714,29.624,78.796,29.816,78.796z"/>
					</g>
				</g>
			</g>
		</g>
		<g>
			<path class="st1" d="M28.03,40.734c0-2.996,2.429-5.425,5.425-5.425h46.477c1.122,0,2.031-0.909,2.031-2.031v-0.672
				c0-2.996-2.429-5.425-5.425-5.425H25.327c-2.996,0-5.425,2.429-5.425,5.425v34.419c0,2.995,2.428,5.424,5.424,5.424h0.673
				c1.122,0,2.031-0.909,2.031-2.031V40.734z"/>
			<path class="st2" d="M19.231,67.025V32.606c0-3.367,2.729-6.096,6.096-6.096h51.212c3.367,0,6.096,2.729,6.096,6.096v0.672
				c0,1.492-1.21,2.702-2.702,2.702H33.456c-2.625,0-4.754,2.128-4.754,4.754v29.684c0,1.492-1.21,2.702-2.702,2.702h-0.673
				C21.96,73.121,19.231,70.392,19.231,67.025z M27.359,69.747V40.733c0-3.367,2.729-6.096,6.096-6.096h45.806
				c1.122,0,2.031-0.909,2.031-2.031l0,0c0-2.625-2.128-4.753-4.753-4.753H25.326c-2.625,0-4.752,2.128-4.752,4.752v34.419
				c0,2.625,2.128,4.753,4.753,4.753h0.001C26.449,71.778,27.359,70.868,27.359,69.747z"/>
		</g>
		<g>
			<path class="st3" d="M19.97,32.675c0-2.996,2.429-5.425,5.425-5.425h46.477c1.122,0,2.031-0.909,2.031-2.031v-0.672
				c0-2.996-2.429-5.425-5.425-5.425H17.267c-2.996,0-5.425,2.429-5.425,5.425v34.419c0,2.995,2.428,5.424,5.424,5.424h0.673
				c1.122,0,2.031-0.909,2.031-2.031V32.675z"/>
			<path class="st2" d="M11.171,58.966V24.547c0-3.367,2.729-6.096,6.096-6.096h51.212c3.367,0,6.096,2.729,6.096,6.096v0.672
				c0,1.492-1.21,2.702-2.702,2.702H25.395c-2.625,0-4.752,2.128-4.752,4.752v29.684c0,1.492-1.21,2.702-2.702,2.702h-0.674
				C13.9,65.061,11.171,62.332,11.171,58.966z M19.299,61.687V32.675c0-3.367,2.729-6.096,6.096-6.096h45.806
				c1.122,0,2.031-0.909,2.031-2.031v-0.001c0-2.625-2.128-4.753-4.753-4.753H17.267c-2.625,0-4.752,2.128-4.752,4.752v34.418
				c0,2.625,2.128,4.753,4.753,4.753h0.001C18.39,63.717,19.299,62.808,19.299,61.687z"/>
		</g>
	</g>
</g>
<polygon class="st3" points="256.979,20.912 247.276,30.615 243.022,26.361 238.27,31.113 247.276,40.119 252.028,35.367 
	261.731,25.664 "/>
</svg>
