<?xml version="1.0" encoding="utf-8"?>
<!-- Generator: Adobe Illustrator 22.0.1, SVG Export Plug-In . SVG Version: 6.00 Build 0)  -->
<svg version="1.1" id="Layer_1" xmlns="http://www.w3.org/2000/svg" xmlns:xlink="http://www.w3.org/1999/xlink" x="0px" y="0px"
	 viewBox="0 0 800 66" style="enable-background:new 0 0 800 66;" xml:space="preserve">
<style type="text/css">
	.st0{fill:#626971;}
</style>
<g>
	<path class="st0" d="M696,16.923V2.52c0-1.189-0.957-2.151-2.139-2.151c-1.183,0-2.139,0.962-2.139,2.151v14.403
		c0,1.189,0.957,2.151,2.139,2.151C695.042,19.074,695.999,18.112,696,16.923z"/>
	<path class="st0" d="M696-29.711V-56.79c0-1.189-0.957-2.151-2.139-2.151s-2.138,0.962-2.139,2.151v27.079
		c0,1.189,0.957,2.151,2.139,2.151S695.999-28.522,696-29.711z"/>
	<path class="st0" d="M696-9.948v-0.466v-4.869c0-1.189-0.957-2.151-2.139-2.151c-0.123,0-0.242,0.012-0.359,0.032
		c-0.025,0.005-0.049,0.007-0.073,0.012c-0.348,0.072-0.664,0.227-0.928,0.446c-0.001,0.001-0.001,0.001-0.002,0.002
		c-0.035,0.03-0.068,0.062-0.101,0.093c-0.017,0.016-0.035,0.031-0.051,0.047c-0.031,0.03-0.059,0.064-0.088,0.097
		c-0.017,0.018-0.034,0.036-0.05,0.055c-0.02,0.024-0.036,0.049-0.054,0.073c-0.023,0.031-0.048,0.061-0.069,0.093
		c-0.005,0.008-0.01,0.017-0.015,0.025c-0.032,0.049-0.064,0.1-0.092,0.152c-0.002,0.005-0.005,0.009-0.007,0.014
		c-0.062,0.118-0.115,0.242-0.155,0.372c-0.008,0.028-0.013,0.058-0.021,0.086c-0.011,0.039-0.023,0.079-0.031,0.12
		c-0.005,0.024-0.007,0.048-0.011,0.073c-0.02,0.117-0.032,0.237-0.032,0.36v4.869v0.466c0,1.189,0.957,2.151,2.139,2.151
		S695.999-8.759,696-9.948z"/>
	<path class="st0" d="M618.414,36.463c0,1.189,0.957,2.151,2.139,2.151h14.317c1.183,0,2.139-0.962,2.139-2.151
		s-0.957-2.151-2.139-2.151h-14.317C619.371,34.312,618.414,35.274,618.414,36.463z"/>
	<path class="st0" d="M664.775,36.463c0,1.189,0.957,2.151,2.139,2.151h26.918c0.604,0,1.147-0.254,1.536-0.659
		c0.39-0.39,0.633-0.93,0.633-1.528v-4.869c0-1.189-0.957-2.151-2.139-2.151c-1.183,0-2.139,0.962-2.139,2.151v2.754h-24.811
		C665.729,34.312,664.773,35.275,664.775,36.463z"/>
	<path class="st0" d="M645.125,36.463c0,1.189,0.957,2.151,2.139,2.151h0.464h4.841c1.183,0,2.139-0.962,2.139-2.151
		c0-0.122-0.012-0.243-0.032-0.36c-0.004-0.024-0.006-0.049-0.011-0.073c-0.071-0.349-0.226-0.668-0.443-0.933
		c-0.001-0.001-0.002-0.001-0.002-0.002c-0.029-0.035-0.061-0.068-0.092-0.102c-0.015-0.016-0.03-0.035-0.046-0.051
		c-0.031-0.031-0.064-0.06-0.097-0.089c-0.018-0.016-0.035-0.034-0.054-0.05c-0.023-0.019-0.048-0.036-0.072-0.054
		c-0.032-0.024-0.061-0.049-0.093-0.07c-0.008-0.005-0.017-0.01-0.025-0.015c-0.049-0.033-0.099-0.065-0.151-0.093
		c-0.005-0.002-0.009-0.005-0.014-0.007c-0.118-0.063-0.241-0.115-0.37-0.156c-0.028-0.009-0.057-0.014-0.085-0.022
		c-0.04-0.011-0.079-0.023-0.12-0.031c-0.024-0.005-0.049-0.007-0.073-0.011c-0.117-0.019-0.236-0.032-0.359-0.032h-4.841h-0.464
		C646.083,34.312,645.126,35.275,645.125,36.463z"/>
	<path class="st0" d="M599.024,36.463c0,1.189,0.957,2.151,2.139,2.151h4.841c1.182,0,2.139-0.962,2.139-2.151
		s-0.957-2.151-2.139-2.151h-4.841C599.981,34.312,599.024,35.274,599.024,36.463z"/>
	<path class="st0" d="M564.534,36.592c0,1.189,0.957,2.151,2.139,2.151h21.188c1.182,0,2.139-0.962,2.139-2.151
		s-0.957-2.151-2.139-2.151h-0.628c-0.227-0.082-0.47-0.129-0.725-0.129h-14.317c-0.255,0-0.498,0.047-0.725,0.129h-4.793
		C565.491,34.441,564.534,35.404,564.534,36.592z"/>
	<path class="st0" d="M478.58,36.592c0,1.189,0.957,2.151,2.139,2.151h14.317c1.183,0,2.139-0.962,2.139-2.151
		s-0.957-2.151-2.139-2.151h-14.317C479.536,34.441,478.58,35.404,478.58,36.592z"/>
	<path class="st0" d="M525.425,35.223c-0.305,0.372-0.488,0.849-0.488,1.369c0,1.189,0.957,2.151,2.139,2.151h26.921l0,0
		c0.516,0,0.99-0.184,1.36-0.491c0.053-0.044,0.104-0.091,0.152-0.139c0.097-0.097,0.184-0.204,0.261-0.318
		c0.231-0.343,0.365-0.757,0.365-1.203c0-0.445-0.134-0.859-0.365-1.203c-0.06-0.086-0.125-0.168-0.196-0.245
		c-0.068-0.076-0.14-0.148-0.218-0.212c-0.106-0.088-0.22-0.166-0.341-0.232c-0.303-0.165-0.65-0.259-1.02-0.259h-26.918
		c-0.37,0-0.717,0.093-1.02,0.259c-0.121,0.066-0.235,0.145-0.341,0.232C525.61,35.02,525.514,35.118,525.425,35.223z"/>
	<path class="st0" d="M505.289,36.592c0,1.189,0.957,2.151,2.139,2.151h0.464h4.841c1.183,0,2.139-0.962,2.139-2.151
		c0-0.122-0.012-0.243-0.032-0.36c-0.004-0.024-0.006-0.049-0.011-0.073c-0.07-0.349-0.226-0.668-0.443-0.933
		c0-0.001-0.001-0.001-0.001-0.002c-0.029-0.035-0.061-0.068-0.092-0.102c-0.015-0.016-0.03-0.035-0.046-0.051
		c-0.031-0.031-0.064-0.06-0.097-0.089c-0.018-0.016-0.035-0.034-0.054-0.05c-0.023-0.019-0.048-0.036-0.072-0.054
		c-0.032-0.024-0.061-0.049-0.093-0.07c-0.008-0.005-0.017-0.01-0.025-0.015c-0.049-0.033-0.099-0.065-0.151-0.093
		c-0.005-0.002-0.009-0.005-0.014-0.007c-0.118-0.062-0.241-0.115-0.37-0.156c-0.028-0.009-0.057-0.014-0.085-0.022
		c-0.04-0.011-0.079-0.023-0.12-0.031c-0.024-0.005-0.049-0.007-0.073-0.011c-0.117-0.019-0.236-0.032-0.359-0.032h-4.841h-0.464
		C506.248,34.441,505.291,35.404,505.289,36.592z"/>
	<path class="st0" d="M459.19,36.592c0,1.189,0.957,2.151,2.139,2.151h4.841c1.182,0,2.139-0.962,2.139-2.151
		s-0.957-2.151-2.139-2.151h-4.841C460.147,34.441,459.19,35.404,459.19,36.592z"/>
	<path class="st0" d="M424.7,36.722c0,1.189,0.957,2.151,2.139,2.151h21.188c1.182,0,2.139-0.962,2.139-2.151
		s-0.957-2.151-2.139-2.151h-0.629c-0.227-0.082-0.47-0.129-0.725-0.129h-14.317c-0.255,0-0.498,0.047-0.725,0.129h-4.793
		C425.656,34.571,424.7,35.533,424.7,36.722z"/>
	<path class="st0" d="M385.103,36.721c0,1.189,0.957,2.151,2.139,2.151h26.918c0.658,0,1.246-0.299,1.638-0.768
		c0.016-0.018,0.029-0.038,0.044-0.056c0.285-0.365,0.457-0.825,0.457-1.327c0-1.189-0.957-2.151-2.139-2.151h-26.918
		c-0.147,0-0.291,0.016-0.431,0.044C385.836,34.815,385.104,35.681,385.103,36.721z"/>
	<path class="st0" d="M338.745,36.722c0,1.189,0.957,2.151,2.139,2.151h14.317c1.183,0,2.139-0.962,2.139-2.151
		s-0.957-2.151-2.139-2.151h-14.317C339.702,34.571,338.746,35.532,338.745,36.722z"/>
	<path class="st0" d="M365.456,36.722c0,1.189,0.957,2.151,2.139,2.151h0.464h4.841c1.183,0,2.139-0.962,2.139-2.151
		c0-0.122-0.012-0.243-0.032-0.36c-0.005-0.024-0.007-0.049-0.012-0.073c-0.07-0.349-0.226-0.668-0.443-0.933
		c-0.001-0.001-0.001-0.001-0.002-0.002c-0.029-0.036-0.061-0.068-0.092-0.102c-0.015-0.016-0.03-0.035-0.046-0.051
		c-0.031-0.031-0.064-0.06-0.097-0.089c-0.018-0.016-0.035-0.034-0.054-0.05c-0.023-0.019-0.048-0.036-0.072-0.054
		c-0.031-0.024-0.061-0.049-0.093-0.07c-0.008-0.005-0.017-0.01-0.025-0.015c-0.049-0.033-0.099-0.065-0.151-0.093
		c-0.005-0.002-0.009-0.005-0.014-0.007c-0.118-0.063-0.241-0.115-0.37-0.156c-0.027-0.009-0.057-0.014-0.085-0.022
		c-0.04-0.011-0.079-0.023-0.12-0.031c-0.024-0.005-0.049-0.007-0.073-0.011c-0.116-0.019-0.235-0.032-0.358-0.032h-4.841h-0.464
		C366.413,34.571,365.457,35.533,365.456,36.722z"/>
	<path class="st0" d="M319.355,36.722c0,1.189,0.957,2.151,2.139,2.151h4.841c1.182,0,2.139-0.962,2.139-2.151
		s-0.957-2.151-2.139-2.151h-4.841C320.312,34.571,319.356,35.532,319.355,36.722z"/>
	<path class="st0" d="M284.866,36.851c0,1.189,0.957,2.151,2.139,2.151h21.188c1.182,0,2.139-0.962,2.139-2.151
		s-0.957-2.151-2.139-2.151h-0.629c-0.227-0.082-0.47-0.129-0.725-0.129h-14.317c-0.255,0-0.498,0.047-0.725,0.129h-4.793
		C285.822,34.7,284.865,35.662,284.866,36.851z"/>
	<path class="st0" d="M198.911,36.851c0,1.189,0.957,2.151,2.139,2.151h14.317c1.183,0,2.139-0.962,2.139-2.151
		s-0.957-2.151-2.139-2.151H201.05C199.868,34.7,198.912,35.662,198.911,36.851z"/>
	<path class="st0" d="M245.759,35.481c-0.305,0.372-0.488,0.849-0.488,1.369c0,1.189,0.957,2.151,2.139,2.151h26.918
		c0.516,0,0.99-0.184,1.36-0.491c0.053-0.044,0.104-0.091,0.152-0.139c0.097-0.097,0.184-0.204,0.261-0.318
		c0.231-0.343,0.365-0.757,0.365-1.203s-0.134-0.859-0.365-1.203c-0.06-0.086-0.125-0.168-0.196-0.245
		c-0.068-0.076-0.14-0.148-0.218-0.212c-0.106-0.088-0.22-0.166-0.341-0.232c-0.303-0.165-0.65-0.259-1.02-0.259h-26.918
		c-0.37,0-0.717,0.093-1.02,0.259c-0.121,0.066-0.235,0.145-0.341,0.232C245.942,35.279,245.844,35.376,245.759,35.481z"/>
	<path class="st0" d="M225.622,36.852c0,1.189,0.957,2.151,2.139,2.151h0.464h4.841c1.182,0,2.138-0.962,2.138-2.151
		c0-0.122-0.012-0.243-0.032-0.36c-0.004-0.024-0.006-0.049-0.011-0.073c-0.07-0.349-0.226-0.668-0.443-0.933
		c-0.001-0.001-0.001-0.001-0.002-0.002c-0.029-0.035-0.061-0.068-0.092-0.102c-0.015-0.016-0.03-0.035-0.046-0.051
		c-0.031-0.031-0.064-0.06-0.097-0.089c-0.018-0.016-0.035-0.034-0.054-0.05c-0.023-0.019-0.048-0.036-0.072-0.054
		c-0.031-0.024-0.061-0.049-0.093-0.07c-0.008-0.005-0.017-0.01-0.025-0.015c-0.049-0.033-0.099-0.065-0.151-0.093
		c-0.005-0.002-0.009-0.005-0.014-0.007c-0.118-0.062-0.241-0.115-0.37-0.156c-0.027-0.009-0.057-0.014-0.085-0.022
		c-0.04-0.011-0.079-0.023-0.12-0.031c-0.024-0.006-0.049-0.008-0.073-0.012c-0.116-0.019-0.235-0.032-0.358-0.032h-4.841h-0.464
		C226.579,34.7,225.622,35.662,225.622,36.852z"/>
	<path class="st0" d="M179.52,36.851c0,1.189,0.957,2.151,2.139,2.151h4.841c1.182,0,2.139-0.962,2.139-2.151
		S187.682,34.7,186.5,34.7h-4.841C180.478,34.7,179.521,35.662,179.52,36.851z"/>
	<path class="st0" d="M145.031,36.98c0,1.189,0.957,2.151,2.139,2.151h21.188c1.181,0,2.138-0.962,2.138-2.151
		s-0.956-2.151-2.138-2.151h-0.629c-0.227-0.082-0.47-0.129-0.725-0.129h-14.317c-0.255,0-0.499,0.047-0.725,0.129h-4.793
		C145.988,34.829,145.031,35.792,145.031,36.98z"/>
	<path class="st0" d="M105.402,54.867v25.258c0,1.189,0.957,2.151,2.139,2.151s2.139-0.962,2.139-2.151V54.867
		c0-1.189-0.957-2.151-2.139-2.151S105.403,53.677,105.402,54.867z"/>
	<path class="st0" d="M105.402,37.063v4.869v0.466c0,1.189,0.957,2.151,2.139,2.151c1.183,0,2.139-0.962,2.139-2.151v-0.466v-2.801
		h24.812c1.182,0,2.138-0.962,2.138-2.151s-0.956-2.151-2.138-2.151h-26.918c-0.93,0-1.713,0.599-2.007,1.432
		c-0.022,0.055-0.049,0.105-0.067,0.162c-0.009,0.028-0.014,0.058-0.022,0.086c-0.011,0.039-0.023,0.079-0.031,0.12
		c-0.006,0.024-0.008,0.048-0.012,0.073C105.415,36.82,105.403,36.94,105.402,37.063z"/>
	<path class="st0" d="M105.402,90.405v4.869c0,1.189,0.957,2.151,2.139,2.151s2.139-0.962,2.139-2.151v-4.869
		c0-1.189-0.957-2.151-2.139-2.151S105.403,89.216,105.402,90.405z"/>
	<path class="st0" d="M105.531,102.788c-0.082,0.227-0.129,0.473-0.129,0.729v14.402c0,0.256,0.048,0.501,0.129,0.729v4.821
		c0,1.189,0.956,2.151,2.138,2.151c1.183,0,2.139-0.962,2.139-2.151v-21.314c0-1.189-0.957-2.151-2.139-2.151
		c-1.181,0-2.138,0.962-2.138,2.151V102.788z"/>
</g>
</svg>
