<?xml version="1.0" encoding="utf-8"?>
<!-- Generator: Adobe Illustrator 22.0.1, SVG Export Plug-In . SVG Version: 6.00 Build 0)  -->
<svg version="1.1" id="Layer_1" xmlns="http://www.w3.org/2000/svg" xmlns:xlink="http://www.w3.org/1999/xlink" x="0px" y="0px"
	 viewBox="0 0 500 275" style="enable-background:new 0 0 500 275;" xml:space="preserve">
<style type="text/css">
	.st0{fill:#626871;}
</style>
<path class="st0" d="M250.42,199.859c1.662-0.651,2.969-2.006,3.556-3.699h144.217c2.655,0,5.102-0.85,5.328-2.029
	c0.253-1.318-2.069-2.421-4.976-2.421H253.803c-0.65-1.482-1.871-2.656-3.383-3.248V79.869c0-1.23-0.995-0.476-2.225-0.476
	c-1.229,0-2.225-0.754-2.225,0.476v108.593c-1.512,0.592-2.733,1.766-3.383,3.248h-141.86c-0.022,0-0.045,0.004-0.062,0.011
	c-4.955,1.965-1.913,4.438,2.44,4.438h139.31c0.587,1.693,1.894,3.048,3.556,3.699L250.42,199.859z"/>
<path class="st0" d="M343.087,241.598h-2.829v-2.831c0-0.465-0.376-0.842-0.841-0.842s-0.842,0.376-0.842,0.842v2.831h-2.831
	c-0.465,0-0.842,0.377-0.842,0.842s0.376,0.842,0.842,0.842h2.831v2.831c0,0.465,0.376,0.842,0.842,0.842
	c0.465,0,0.841-0.377,0.841-0.842v-2.831h2.829c0.465,0,0.841-0.376,0.841-0.842C343.929,241.975,343.552,241.598,343.087,241.598z"
	/>
<path class="st0" d="M30.352,76.902h-2.829v-2.831c0-0.465-0.376-0.842-0.841-0.842s-0.842,0.376-0.842,0.842v2.831h-2.831
	c-0.465,0-0.842,0.377-0.842,0.842c0,0.465,0.376,0.842,0.842,0.842h2.831v2.831c0,0.465,0.376,0.842,0.842,0.842
	c0.465,0,0.841-0.377,0.841-0.842v-2.831h2.829c0.465,0,0.841-0.376,0.841-0.842C31.193,77.279,30.817,76.902,30.352,76.902z"/>
<path class="st0" d="M174.162,224.811h-2.829v-2.831c0-0.465-0.376-0.842-0.841-0.842s-0.842,0.376-0.842,0.842v2.831h-2.831
	c-0.465,0-0.842,0.377-0.842,0.842s0.376,0.842,0.842,0.842h2.831v2.831c0,0.465,0.376,0.842,0.842,0.842
	c0.465,0,0.841-0.377,0.841-0.842v-2.831h2.829c0.465,0,0.841-0.376,0.841-0.842S174.626,224.811,174.162,224.811z"/>
<g>
	<path class="st0" d="M374.883,90.061c-2.326,0-4.218-1.892-4.218-4.219c0-2.326,1.892-4.218,4.218-4.218s4.218,1.892,4.218,4.218
		C379.101,88.169,377.209,90.061,374.883,90.061z M374.883,83.482c-1.302,0-2.361,1.059-2.361,2.361s1.059,2.361,2.361,2.361
		s2.361-1.059,2.361-2.361C377.243,84.541,376.185,83.482,374.883,83.482z"/>
</g>
<g>
	<path class="st0" d="M137.757,85.667c-2.627,0-4.765-2.137-4.765-4.765c0-2.627,2.137-4.765,4.765-4.765
		c2.627,0,4.765,2.137,4.765,4.765C142.521,83.529,140.384,85.667,137.757,85.667z M137.757,78.236c-1.47,0-2.666,1.196-2.666,2.666
		s1.196,2.667,2.666,2.667s2.666-1.196,2.666-2.667C140.423,79.432,139.227,78.236,137.757,78.236z"/>
</g>
<g>
	<g>
		<g>
			<path class="st0" d="M331.976,214H328c-0.328,0-0.594-0.266-0.594-0.594c0-0.328,0.266-0.594,0.594-0.594h3.976
				c0.328,0,0.594,0.266,0.594,0.594S332.304,214,331.976,214z"/>
		</g>
		<g>
			<path class="st0" d="M336.605,214h-1.344c-0.328,0-0.594-0.266-0.594-0.594c0-0.328,0.266-0.594,0.594-0.594h1.344
				c0.328,0,0.594,0.266,0.594,0.594S336.933,214,336.605,214z"/>
		</g>
	</g>
</g>
<g>
	<g>
		<path class="st0" d="M440.25,125.451h-8.255c-0.328,0-0.594-0.266-0.594-0.594s0.266-0.594,0.594-0.594h8.255
			c0.328,0,0.594,0.266,0.594,0.594C440.843,125.185,440.578,125.451,440.25,125.451z"/>
	</g>
	<g>
		<path class="st0" d="M447.629,125.451h-3.977c-0.328,0-0.594-0.266-0.594-0.594s0.266-0.594,0.594-0.594h3.977
			c0.328,0,0.594,0.266,0.594,0.594S447.958,125.451,447.629,125.451z"/>
	</g>
</g>
</svg>
