<?xml version="1.0" encoding="utf-8"?>
<!-- Generator: Adobe Illustrator 22.0.1, SVG Export Plug-In . SVG Version: 6.00 Build 0)  -->
<svg version="1.1" id="Layer_1" xmlns="http://www.w3.org/2000/svg" xmlns:xlink="http://www.w3.org/1999/xlink" x="0px" y="0px"
	 viewBox="0 0 5 5" style="enable-background:new 0 0 5 5;" xml:space="preserve">
<style type="text/css">
	.st0{fill:#51A8B6;}
	.st1{fill:#636A72;}
	.st2{fill:#FFFFFF;}
</style>
<g>
	<g>
		<g>
			<path class="st0" d="M4.728,2.496c0,1.234-0.999,2.234-2.234,2.234S0.26,3.73,0.26,2.496S1.26,0.262,2.494,0.262
				S4.728,1.262,4.728,2.496z"/>
			<path class="st1" d="M2.494,4.922c-1.337,0-2.429-1.088-2.429-2.429s1.088-2.429,2.429-2.429s2.429,1.088,2.429,2.429
				S3.831,4.922,2.494,4.922z M2.494,0.457c-1.123,0-2.036,0.914-2.036,2.036s0.914,2.036,2.036,2.036S4.53,3.616,4.53,2.493
				S3.617,0.457,2.494,0.457z"/>
		</g>
	</g>
	<polygon class="st2" points="3.256,1.473 2.193,2.536 1.732,2.075 1.137,2.671 1.598,3.132 2.162,3.696 2.757,3.1 3.82,2.038 	"/>
</g>
</svg>
