<?xml version="1.0" encoding="utf-8"?>
<!-- Generator: Adobe Illustrator 22.0.1, SVG Export Plug-In . SVG Version: 6.00 Build 0)  -->
<svg version="1.1" id="Layer_1" xmlns="http://www.w3.org/2000/svg" xmlns:xlink="http://www.w3.org/1999/xlink" x="0px" y="0px"
	 viewBox="0 0 500 275" style="enable-background:new 0 0 500 275;" xml:space="preserve">
<style type="text/css">
	.st0{fill:#626971;}
</style>
<path class="st0" d="M403.288,158.703H254.149c-0.62-1.413-1.783-2.531-3.224-3.096v-53.123c0-1.172-0.948-2.12-2.12-2.12
	s-2.12,0.948-2.12,2.12v53.123c-1.441,0.565-2.605,1.683-3.224,3.096H97.068c-0.021,0-0.043,0.004-0.059,0.01
	c-4.722,1.872-1.823,4.23,2.325,4.23h143.961c0.56,1.613,1.805,2.905,3.389,3.525v72.399c0,1.172,0.949,2.12,2.12,2.12
	c1.172,0,2.12-0.948,2.12-2.12v-72.399c1.584-0.621,2.829-1.912,3.389-3.525h148.638c2.53,0,4.863-0.811,5.078-1.933
	C408.271,159.754,406.058,158.703,403.288,158.703z"/>
<path class="st0" d="M140.244,7.205h-2.697V4.507c0-0.443-0.359-0.802-0.802-0.802c-0.444,0-0.802,0.359-0.802,0.802v2.698h-2.698
	c-0.443,0-0.802,0.359-0.802,0.802s0.359,0.802,0.802,0.802h2.698v2.698c0,0.443,0.359,0.802,0.802,0.802
	c0.443,0,0.802-0.359,0.802-0.802V8.809h2.697c0.443,0,0.802-0.359,0.802-0.802S140.687,7.205,140.244,7.205z"/>
<path class="st0" d="M183.182,228.902h-2.697v-2.698c0-0.443-0.359-0.802-0.802-0.802c-0.444,0-0.802,0.359-0.802,0.802v2.698
	h-2.698c-0.443,0-0.802,0.359-0.802,0.802c0,0.443,0.359,0.802,0.802,0.802h2.698v2.698c0,0.443,0.359,0.802,0.802,0.802
	c0.443,0,0.802-0.359,0.802-0.802v-2.698h2.697c0.443,0,0.802-0.359,0.802-0.802C183.984,229.261,183.625,228.902,183.182,228.902z"
	/>
<path class="st0" d="M386.515,44.538h-2.697V41.84c0-0.443-0.359-0.802-0.802-0.802c-0.444,0-0.802,0.359-0.802,0.802v2.698h-2.698
	c-0.443,0-0.802,0.359-0.802,0.802c0,0.443,0.359,0.802,0.802,0.802h2.698v2.698c0,0.443,0.359,0.802,0.802,0.802
	s0.802-0.359,0.802-0.802v-2.698h2.697c0.443,0,0.802-0.359,0.802-0.802C387.317,44.897,386.958,44.538,386.515,44.538z"/>
<g>
	<path class="st0" d="M391.298,265.226c-2.217,0-4.021-1.804-4.021-4.021s1.804-4.021,4.021-4.021s4.021,1.804,4.021,4.021
		C395.319,263.422,393.515,265.226,391.298,265.226z M391.298,258.955c-1.241,0-2.25,1.009-2.25,2.25s1.009,2.25,2.25,2.25
		s2.25-1.009,2.25-2.25S392.539,258.955,391.298,258.955z"/>
</g>
<g>
	<path class="st0" d="M58.755,96.413c-2.504,0-4.541-2.037-4.541-4.542c0-2.504,2.037-4.541,4.541-4.541s4.541,2.037,4.541,4.541
		C63.296,94.376,61.259,96.413,58.755,96.413z M58.755,89.33c-1.401,0-2.541,1.14-2.541,2.541s1.14,2.542,2.541,2.542
		s2.541-1.14,2.541-2.542C61.296,90.47,60.157,89.33,58.755,89.33z"/>
</g>
</svg>
