<?xml version="1.0" encoding="utf-8"?>
<!-- Generator: Adobe Illustrator 22.0.1, SVG Export Plug-In . SVG Version: 6.00 Build 0)  -->
<svg version="1.1" id="Layer_1" xmlns="http://www.w3.org/2000/svg" xmlns:xlink="http://www.w3.org/1999/xlink" x="0px" y="0px"
	 viewBox="0 0 799.2 175" style="enable-background:new 0 0 799.2 175;" xml:space="preserve">
<style type="text/css">
	.st0{fill:#626971;}
</style>
<g>
	<path class="st0" d="M107.141,73.573c1.182,0,2.139-0.962,2.139-2.151V57.019c0-1.189-0.956-2.151-2.139-2.151
		c-1.182,0-2.139,0.962-2.139,2.151v14.403C105.003,72.611,105.96,73.573,107.141,73.573z"/>
	<path class="st0" d="M107.141,26.939c1.182,0,2.139-0.962,2.139-2.151V-2.29c-0.001-1.189-0.957-2.151-2.139-2.151
		s-2.139,0.962-2.139,2.151v27.079C105.003,25.977,105.959,26.939,107.141,26.939z"/>
	<path class="st0" d="M107.141,46.703c1.182,0,2.139-0.962,2.139-2.151v-0.466v-4.869c0-0.123-0.012-0.243-0.032-0.36
		c-0.004-0.025-0.006-0.049-0.011-0.073c-0.008-0.041-0.02-0.081-0.031-0.12c-0.008-0.028-0.013-0.058-0.021-0.086
		c-0.04-0.13-0.093-0.254-0.155-0.372c-0.002-0.005-0.005-0.009-0.007-0.014c-0.028-0.052-0.06-0.103-0.092-0.152
		c-0.005-0.008-0.01-0.017-0.015-0.025c-0.021-0.032-0.046-0.062-0.069-0.093c-0.018-0.024-0.035-0.049-0.054-0.073
		c-0.016-0.019-0.033-0.037-0.05-0.055c-0.029-0.033-0.058-0.067-0.088-0.097c-0.016-0.016-0.034-0.031-0.051-0.047
		c-0.033-0.031-0.066-0.063-0.101-0.093c-0.001-0.001-0.001-0.001-0.002-0.002c-0.264-0.219-0.58-0.374-0.928-0.446
		c-0.024-0.005-0.048-0.007-0.073-0.012c-0.117-0.02-0.236-0.032-0.359-0.032c-1.182,0-2.139,0.962-2.139,2.151v4.869v0.466
		C105.003,45.74,105.959,46.703,107.141,46.703z"/>
	<path class="st0" d="M180.449,88.811h-14.317c-1.182,0-2.139,0.962-2.139,2.151s0.956,2.151,2.139,2.151h14.317
		c1.182,0,2.139-0.962,2.139-2.151C182.588,89.773,181.631,88.811,180.449,88.811z"/>
	<path class="st0" d="M134.09,88.811h-24.811v-2.754c0-1.189-0.956-2.151-2.139-2.151c-1.182,0-2.139,0.962-2.139,2.151v4.869
		c0,0.598,0.243,1.138,0.633,1.528c0.389,0.405,0.932,0.659,1.536,0.659h26.918c1.182,0,2.139-0.962,2.139-2.151
		C136.229,89.774,135.273,88.811,134.09,88.811z"/>
	<path class="st0" d="M153.738,88.811h-0.464h-4.841c-0.123,0-0.242,0.013-0.359,0.032c-0.024,0.004-0.049,0.006-0.073,0.011
		c-0.041,0.008-0.08,0.02-0.12,0.031c-0.028,0.008-0.058,0.013-0.085,0.022c-0.129,0.041-0.252,0.093-0.37,0.156
		c-0.005,0.002-0.009,0.005-0.014,0.007c-0.052,0.028-0.102,0.06-0.151,0.093c-0.008,0.005-0.017,0.01-0.025,0.015
		c-0.032,0.021-0.061,0.046-0.093,0.07c-0.024,0.018-0.049,0.035-0.072,0.054c-0.019,0.016-0.036,0.034-0.054,0.05
		c-0.033,0.029-0.066,0.058-0.097,0.089c-0.016,0.016-0.031,0.035-0.046,0.051c-0.031,0.034-0.063,0.067-0.092,0.102
		c0,0.001-0.001,0.001-0.002,0.002c-0.217,0.265-0.372,0.584-0.443,0.933c-0.005,0.024-0.007,0.049-0.011,0.073
		c-0.02,0.117-0.032,0.238-0.032,0.36c0,1.189,0.956,2.151,2.139,2.151h4.841h0.464c1.182,0,2.139-0.962,2.139-2.151
		C155.876,89.774,154.919,88.811,153.738,88.811z"/>
	<path class="st0" d="M199.839,88.811h-4.841c-1.182,0-2.139,0.962-2.139,2.151s0.957,2.151,2.139,2.151h4.841
		c1.182,0,2.139-0.962,2.139-2.151C201.978,89.773,201.021,88.811,199.839,88.811z"/>
	<path class="st0" d="M234.329,88.94h-4.793c-0.227-0.082-0.47-0.129-0.725-0.129h-14.317c-0.255,0-0.498,0.047-0.725,0.129h-0.628
		c-1.182,0-2.139,0.962-2.139,2.151s0.957,2.151,2.139,2.151h21.188c1.182,0,2.139-0.962,2.139-2.151
		C236.468,89.903,235.511,88.94,234.329,88.94z"/>
	<path class="st0" d="M320.283,88.94h-14.317c-1.182,0-2.139,0.962-2.139,2.151s0.956,2.151,2.139,2.151h14.317
		c1.182,0,2.139-0.962,2.139-2.151C322.422,89.903,321.466,88.94,320.283,88.94z"/>
	<path class="st0" d="M275.286,89.431c-0.106-0.087-0.22-0.166-0.341-0.232c-0.303-0.166-0.65-0.259-1.02-0.259h-26.918
		c-0.37,0-0.717,0.094-1.02,0.259c-0.121,0.066-0.235,0.144-0.341,0.232c-0.078,0.064-0.15,0.136-0.218,0.212
		c-0.071,0.077-0.136,0.159-0.196,0.245c-0.231,0.344-0.365,0.758-0.365,1.203c0,0.446,0.134,0.86,0.365,1.203
		c0.077,0.114,0.164,0.221,0.261,0.318c0.048,0.048,0.099,0.095,0.152,0.139c0.37,0.307,0.844,0.491,1.36,0.491l0,0h26.921
		c1.182,0,2.139-0.962,2.139-2.151c0-0.52-0.183-0.997-0.488-1.369C275.488,89.617,275.392,89.519,275.286,89.431z"/>
	<path class="st0" d="M293.573,88.94h-0.464h-4.841c-0.123,0-0.242,0.013-0.359,0.032c-0.024,0.004-0.049,0.006-0.073,0.011
		c-0.041,0.008-0.08,0.02-0.12,0.031c-0.028,0.008-0.058,0.013-0.085,0.022c-0.129,0.041-0.252,0.094-0.37,0.156
		c-0.005,0.002-0.009,0.005-0.014,0.007c-0.052,0.028-0.102,0.06-0.151,0.093c-0.008,0.005-0.017,0.01-0.025,0.015
		c-0.032,0.021-0.061,0.046-0.093,0.07c-0.024,0.018-0.049,0.035-0.072,0.054c-0.019,0.016-0.036,0.034-0.054,0.05
		c-0.033,0.029-0.066,0.058-0.097,0.089c-0.016,0.016-0.031,0.035-0.046,0.051c-0.031,0.034-0.063,0.067-0.092,0.102
		c0,0.001-0.001,0.001-0.001,0.002c-0.217,0.265-0.373,0.584-0.443,0.933c-0.005,0.024-0.007,0.049-0.012,0.073
		c-0.02,0.117-0.032,0.238-0.032,0.36c0,1.189,0.956,2.151,2.139,2.151h4.841h0.464c1.182,0,2.139-0.962,2.139-2.151
		C295.711,89.903,294.754,88.94,293.573,88.94z"/>
	<path class="st0" d="M339.673,88.94h-4.841c-1.182,0-2.139,0.962-2.139,2.151s0.957,2.151,2.139,2.151h4.841
		c1.182,0,2.139-0.962,2.139-2.151C341.812,89.903,340.855,88.94,339.673,88.94z"/>
	<path class="st0" d="M374.164,89.07h-4.793c-0.227-0.082-0.47-0.129-0.725-0.129H354.33c-0.255,0-0.498,0.047-0.725,0.129h-0.629
		c-1.182,0-2.139,0.962-2.139,2.151s0.957,2.151,2.139,2.151h21.188c1.182,0,2.139-0.962,2.139-2.151
		C376.302,90.032,375.346,89.07,374.164,89.07z"/>
	<path class="st0" d="M414.191,89.113c-0.14-0.028-0.284-0.044-0.431-0.044h-26.918c-1.182,0-2.139,0.962-2.139,2.151
		c0,0.502,0.172,0.962,0.457,1.327c0.015,0.018,0.028,0.038,0.044,0.056c0.392,0.469,0.98,0.768,1.638,0.768h26.918
		c1.182,0,2.139-0.962,2.139-2.151C415.898,90.18,415.166,89.314,414.191,89.113z"/>
	<path class="st0" d="M460.118,89.07h-14.317c-1.182,0-2.139,0.962-2.139,2.151s0.956,2.151,2.139,2.151h14.317
		c1.182,0,2.139-0.962,2.139-2.151C462.256,90.031,461.3,89.07,460.118,89.07z"/>
	<path class="st0" d="M433.407,89.07h-0.464h-4.841c-0.123,0-0.242,0.013-0.358,0.032c-0.024,0.004-0.049,0.006-0.073,0.011
		c-0.041,0.008-0.08,0.02-0.12,0.031c-0.028,0.008-0.058,0.013-0.085,0.022c-0.129,0.041-0.252,0.093-0.37,0.156
		c-0.005,0.002-0.009,0.005-0.014,0.007c-0.052,0.028-0.102,0.06-0.151,0.093c-0.008,0.005-0.017,0.01-0.025,0.015
		c-0.032,0.021-0.062,0.046-0.093,0.07c-0.024,0.018-0.049,0.035-0.072,0.054c-0.019,0.016-0.036,0.034-0.054,0.05
		c-0.033,0.029-0.066,0.058-0.097,0.089c-0.016,0.016-0.031,0.035-0.046,0.051c-0.031,0.034-0.063,0.066-0.092,0.102
		c-0.001,0.001-0.001,0.001-0.002,0.002c-0.217,0.265-0.373,0.584-0.443,0.933c-0.005,0.024-0.007,0.049-0.012,0.073
		c-0.02,0.117-0.032,0.238-0.032,0.36c0,1.189,0.956,2.151,2.139,2.151h4.841h0.464c1.182,0,2.139-0.962,2.139-2.151
		C435.545,90.032,434.589,89.07,433.407,89.07z"/>
	<path class="st0" d="M479.508,89.07h-4.841c-1.182,0-2.139,0.962-2.139,2.151s0.957,2.151,2.139,2.151h4.841
		c1.182,0,2.139-0.962,2.139-2.151C481.646,90.031,480.69,89.07,479.508,89.07z"/>
	<path class="st0" d="M513.998,89.199h-4.793c-0.227-0.082-0.47-0.129-0.725-0.129h-14.317c-0.255,0-0.498,0.047-0.725,0.129h-0.629
		c-1.182,0-2.139,0.962-2.139,2.151s0.957,2.151,2.139,2.151h21.188c1.182,0,2.139-0.962,2.139-2.151
		C516.137,90.161,515.18,89.199,513.998,89.199z"/>
	<path class="st0" d="M599.952,89.199h-14.317c-1.182,0-2.139,0.962-2.139,2.151s0.956,2.151,2.139,2.151h14.317
		c1.182,0,2.139-0.962,2.139-2.151C602.09,90.161,601.134,89.199,599.952,89.199z"/>
	<path class="st0" d="M554.955,89.689c-0.106-0.087-0.22-0.166-0.341-0.232c-0.303-0.166-0.65-0.259-1.02-0.259h-26.918
		c-0.37,0-0.717,0.094-1.02,0.259c-0.121,0.066-0.235,0.144-0.341,0.232c-0.078,0.064-0.15,0.136-0.218,0.212
		c-0.071,0.077-0.137,0.159-0.196,0.245c-0.231,0.344-0.365,0.757-0.365,1.203s0.134,0.86,0.365,1.203
		c0.077,0.114,0.164,0.221,0.261,0.318c0.048,0.048,0.099,0.095,0.152,0.139c0.37,0.307,0.844,0.491,1.36,0.491h26.918
		c1.182,0,2.139-0.962,2.139-2.151c0-0.52-0.183-0.997-0.488-1.369C555.158,89.875,555.06,89.778,554.955,89.689z"/>
	<path class="st0" d="M573.241,89.199h-0.464h-4.841c-0.123,0-0.242,0.013-0.358,0.032c-0.024,0.004-0.049,0.006-0.073,0.012
		c-0.041,0.008-0.08,0.02-0.12,0.031c-0.028,0.008-0.058,0.013-0.085,0.022c-0.129,0.041-0.252,0.094-0.37,0.156
		c-0.005,0.002-0.009,0.005-0.014,0.007c-0.052,0.028-0.102,0.06-0.151,0.093c-0.008,0.005-0.017,0.01-0.025,0.015
		c-0.032,0.021-0.062,0.046-0.093,0.07c-0.024,0.018-0.049,0.035-0.072,0.054c-0.019,0.016-0.036,0.034-0.054,0.05
		c-0.033,0.029-0.066,0.058-0.097,0.089c-0.016,0.016-0.031,0.035-0.046,0.051c-0.031,0.034-0.063,0.067-0.092,0.102
		c-0.001,0.001-0.001,0.001-0.002,0.002c-0.217,0.265-0.373,0.584-0.443,0.933c-0.005,0.024-0.007,0.049-0.011,0.073
		c-0.02,0.117-0.032,0.238-0.032,0.36c0,1.189,0.956,2.151,2.138,2.151h4.841h0.464c1.182,0,2.139-0.962,2.139-2.151
		C575.38,90.161,574.423,89.199,573.241,89.199z"/>
	<path class="st0" d="M619.343,89.199h-4.841c-1.182,0-2.139,0.962-2.139,2.151s0.957,2.151,2.139,2.151h4.841
		c1.182,0,2.139-0.962,2.139-2.151C621.481,90.161,620.524,89.199,619.343,89.199z"/>
	<path class="st0" d="M653.833,89.328h-4.793c-0.226-0.082-0.47-0.129-0.725-0.129h-14.317c-0.255,0-0.498,0.047-0.725,0.129h-0.629
		c-1.182,0-2.138,0.962-2.138,2.151s0.957,2.151,2.138,2.151h21.188c1.182,0,2.139-0.962,2.139-2.151
		C655.971,90.291,655.014,89.328,653.833,89.328z"/>
	<path class="st0" d="M693.461,107.215c-1.182,0-2.139,0.962-2.139,2.151v23.884c0,1.189,0.957,2.151,2.139,2.151
		s2.139-0.962,2.139-2.151v-23.884C695.599,108.176,694.643,107.215,693.461,107.215z"/>
	<path class="st0" d="M695.567,91.201c-0.004-0.025-0.006-0.049-0.011-0.073c-0.008-0.041-0.02-0.081-0.031-0.12
		c-0.008-0.028-0.013-0.058-0.022-0.086c-0.018-0.057-0.045-0.107-0.068-0.162c-0.294-0.833-1.077-1.432-2.007-1.432H666.51
		c-1.182,0-2.138,0.962-2.138,2.151s0.956,2.151,2.138,2.151h24.812v2.801v0.466c0,1.189,0.956,2.151,2.139,2.151
		c1.182,0,2.139-0.962,2.139-2.151v-0.466v-4.869C695.599,91.439,695.587,91.319,695.567,91.201z"/>
	<path class="st0" d="M693.461,140.253c-1.182,0-2.139,0.962-2.139,2.151v4.869c0,1.189,0.957,2.151,2.139,2.151
		s2.139-0.962,2.139-2.151v-4.869C695.599,141.215,694.643,140.253,693.461,140.253z"/>
	<path class="st0" d="M695.471,156.654c0-1.189-0.957-2.151-2.138-2.151c-1.182,0-2.139,0.962-2.139,2.151v21.314
		c0,1.189,0.956,2.151,2.139,2.151c1.182,0,2.138-0.962,2.138-2.151v-4.821c0.081-0.228,0.129-0.473,0.129-0.729v-14.402
		c0-0.256-0.047-0.502-0.129-0.729V156.654z"/>
</g>
</svg>
