<?xml version="1.0" encoding="utf-8"?>
<!-- Generator: Adobe Illustrator 22.0.1, SVG Export Plug-In . SVG Version: 6.00 Build 0)  -->
<svg version="1.1" id="Layer_1" xmlns="http://www.w3.org/2000/svg" xmlns:xlink="http://www.w3.org/1999/xlink" x="0px" y="0px"
	 viewBox="0 0 500 275" style="enable-background:new 0 0 500 275;" xml:space="preserve">
<style type="text/css">
	.st0{fill:#ECEFF2;}
	.st1{fill:#626971;}
	.st2{fill:#FFFFFF;}
	.st3{fill:#4FA8B6;}
	.st4{fill:none;}
</style>
<g>
	<g>
		<path class="st0" d="M150.625,26.055c1.525,0,2.761,1.238,2.761,2.759v88.978c0,1.521-1.242,2.759-2.766,2.759H78.167
			c-1.525,0-2.761-1.238-2.761-2.759V28.814c0-1.521,1.241-2.759,2.766-2.759H96.16C96.16,26.055,150.625,26.055,150.625,26.055z"/>
		<path class="st1" d="M150.622,121.517H78.166c-2.056,0-3.726-1.671-3.726-3.724V28.814c0-2.054,1.675-3.724,3.732-3.724h72.453
			c2.055,0,3.726,1.671,3.726,3.724v88.979C154.352,119.846,152.679,121.517,150.622,121.517z M78.172,27.02
			c-0.994,0-1.801,0.805-1.801,1.793v88.979c0,0.988,0.805,1.793,1.795,1.793h72.455c0.992,0,1.799-0.805,1.799-1.793V28.814
			c0-0.988-0.805-1.793-1.795-1.793L78.172,27.02L78.172,27.02z"/>
	</g>
	<g>
		<g>
			<path class="st2" d="M144.627,96.29V33.703c0-1.599-1.302-2.903-2.905-2.903H93.603H90.92h-3.855c-1.603,0-2.9,1.304-2.9,2.903
				v75.263c0,1.599,1.297,2.9,2.9,2.9h41.233L144.627,96.29z"/>
			<path class="st1" d="M128.297,112.831H87.066c-2.131,0-3.866-1.735-3.866-3.866V33.702c0-2.133,1.735-3.868,3.866-3.868h54.657
				c2.133,0,3.87,1.735,3.87,3.868V96.29c0,0.264-0.108,0.517-0.3,0.698l-16.329,15.575
				C128.784,112.735,128.546,112.831,128.297,112.831z M87.066,31.765c-1.067,0-1.935,0.869-1.935,1.937v75.263
				c0,1.067,0.868,1.935,1.935,1.935h40.845l15.75-15.022V33.702c0-1.068-0.869-1.937-1.939-1.937H87.066z"/>
		</g>
		<g>
			<path class="st1" d="M132.303,50.601H97.128c-0.534,0-0.966-0.432-0.966-0.966s0.432-0.966,0.966-0.966h35.174
				c0.534,0,0.966,0.432,0.966,0.966C133.268,50.169,132.836,50.601,132.303,50.601z"/>
		</g>
		<g>
			<path class="st1" d="M132.303,62.574H97.128c-0.534,0-0.966-0.432-0.966-0.966s0.432-0.966,0.966-0.966h35.174
				c0.534,0,0.966,0.432,0.966,0.966C133.268,62.142,132.836,62.574,132.303,62.574z"/>
		</g>
		<g>
			<path class="st1" d="M132.303,74.549H97.128c-0.534,0-0.966-0.432-0.966-0.966c0-0.534,0.432-0.966,0.966-0.966h35.174
				c0.534,0,0.966,0.432,0.966,0.966C133.268,74.117,132.836,74.549,132.303,74.549z"/>
		</g>
		<g>
			<path class="st1" d="M132.303,86.524H97.128c-0.534,0-0.966-0.432-0.966-0.966c0-0.534,0.432-0.966,0.966-0.966h35.174
				c0.534,0,0.966,0.432,0.966,0.966S132.836,86.524,132.303,86.524z"/>
		</g>
		<g>
			<g>
				<path class="st1" d="M127.59,112.831c-0.534,0-0.966-0.432-0.966-0.966v-12.54c-0.017-2.029,1.648-3.766,3.638-3.785h13.927
					c0.534,0,0.966,0.432,0.966,0.966c0,0.534-0.432,0.966-0.966,0.966h-13.917c-0.918,0.008-1.725,0.871-1.716,1.846v12.548
					C128.555,112.399,128.124,112.831,127.59,112.831z"/>
			</g>
		</g>
	</g>
	<g>
		<path class="st3" d="M125.752,19.575h-3.382v-2.26c0-1.6-1.297-2.897-2.897-2.897h-10.154c-1.6,0-2.897,1.297-2.897,2.897v2.26
			h-3.382c-3.579,0-6.481,2.901-6.481,6.48v10.216h35.674V26.055C132.233,22.476,129.331,19.575,125.752,19.575z"/>
		<path class="st1" d="M132.233,37.236H96.559c-0.534,0-0.966-0.432-0.966-0.966V26.055c0-4.105,3.342-7.445,7.447-7.445h2.416
			v-1.294c0-2.131,1.733-3.864,3.862-3.864h10.155c2.129,0,3.862,1.733,3.862,3.864v1.294h2.416c4.105,0,7.447,3.34,7.447,7.445
			v10.216C133.198,36.804,132.767,37.236,132.233,37.236z M97.524,35.305h33.743v-9.25c0-3.04-2.474-5.514-5.516-5.514h-3.381
			c-0.534,0-0.966-0.432-0.966-0.966v-2.259c0-1.065-0.865-1.933-1.931-1.933h-10.155c-1.065,0-1.931,0.867-1.931,1.933v2.259
			c0,0.534-0.432,0.966-0.966,0.966h-3.381c-3.042,0-5.516,2.474-5.516,5.514V35.305z"/>
	</g>
</g>
<g>
	<g>
		<rect x="321.934" y="188.237" class="st3" width="83.703" height="73.113"/>
		<path class="st1" d="M405.638,262.329h-83.705c-0.541,0-0.98-0.438-0.98-0.98v-73.113c0-0.542,0.438-0.98,0.98-0.98h83.705
			c0.541,0,0.98,0.438,0.98,0.98v73.113C406.618,261.891,406.18,262.329,405.638,262.329z M322.913,260.37h81.745v-71.153h-81.745
			V260.37z"/>
	</g>
	<g>
		<rect x="329.351" y="180.632" class="st0" width="83.703" height="73.113"/>
		<path class="st1" d="M413.054,254.725h-83.703c-0.542,0-0.98-0.438-0.98-0.98v-73.113c0-0.541,0.438-0.98,0.98-0.98h83.703
			c0.542,0,0.98,0.438,0.98,0.98v73.113C414.034,254.286,413.596,254.725,413.054,254.725z M330.33,252.765h81.744v-71.154H330.33
			V252.765z"/>
	</g>
	<g>
		<g>
			<g>
				<path class="st1" d="M338.64,201.523c-0.089,0-0.18-0.018-0.266-0.058c-0.324-0.147-0.467-0.529-0.32-0.853
					c1.852-4.069,4.458-7.682,7.746-10.738c0.26-0.242,0.668-0.227,0.91,0.033c0.242,0.261,0.227,0.668-0.033,0.91
					c-3.163,2.939-5.669,6.414-7.45,10.328C339.119,201.383,338.885,201.523,338.64,201.523z"/>
			</g>
		</g>
		<g>
			<g>
				<g>
					<g>
						<polygon class="st2" points="354.188,198.533 355.241,197.48 349.448,192.902 346.312,196.038 350.89,201.831 
							351.943,200.778 372.791,221.626 375.036,219.381 						"/>
					</g>
				</g>
				<g>
					<g>
						<path class="st1" d="M372.791,222.27c-0.165,0-0.33-0.063-0.456-0.189l-20.393-20.393l-0.597,0.597
							c-0.13,0.131-0.308,0.201-0.493,0.188c-0.183-0.011-0.354-0.099-0.467-0.244l-4.579-5.792
							c-0.203-0.256-0.181-0.624,0.05-0.855l3.137-3.137c0.232-0.232,0.6-0.253,0.855-0.05l5.792,4.579
							c0.144,0.114,0.233,0.284,0.243,0.467c0.011,0.184-0.057,0.363-0.187,0.493l-0.597,0.597l20.393,20.393
							c0.252,0.252,0.252,0.659,0,0.911l-2.245,2.245C373.121,222.207,372.956,222.27,372.791,222.27z M351.943,200.133
							c0.165,0,0.33,0.063,0.456,0.189l20.393,20.393l1.334-1.334l-20.393-20.393c-0.252-0.252-0.252-0.659,0-0.911l0.541-0.54
							l-4.774-3.775l-2.327,2.327l3.775,4.774l0.54-0.541C351.613,200.196,351.778,200.133,351.943,200.133z"/>
					</g>
				</g>
			</g>
			<g>
				<g>
					<path class="st3" d="M373.042,223.513l-5.573-5.573l3.882-3.882l5.553,5.594c0.751,0.751-0.046,2.764-0.955,3.674l0,0
						C375.093,224.18,373.792,224.264,373.042,223.513z"/>
				</g>
				<g>
					<path class="st1" d="M374.323,224.668c-0.644,0-1.268-0.231-1.736-0.699l-5.574-5.574c-0.252-0.252-0.252-0.659,0-0.911
						l3.882-3.882c0.121-0.122,0.286-0.191,0.457-0.189c0.171,0.001,0.335,0.069,0.456,0.191l5.552,5.594
						c0.516,0.516,0.625,1.377,0.304,2.42c-0.248,0.805-0.731,1.633-1.261,2.163C375.816,224.37,375.056,224.668,374.323,224.668z
						 M368.379,217.94l5.118,5.118c0.23,0.23,0.554,0.342,0.917,0.321c0.393-0.025,0.775-0.206,1.077-0.508
						c0.384-0.384,0.754-1.025,0.94-1.631c0.187-0.606,0.142-1.005,0.015-1.132l-5.099-5.137L368.379,217.94z"/>
				</g>
			</g>
			<g>
				<g>
					<path class="st3" d="M385.528,238.303l-17.649-17.649l6.186-6.186l17.649,17.649c0.67,0.67,0.67,1.756,0,2.426l-3.759,3.759
						C387.284,238.973,386.198,238.973,385.528,238.303z"/>
				</g>
				<g>
					<path class="st1" d="M386.741,239.243c-0.731,0-1.462-0.278-2.019-0.834l0,0l-17.299-17.299c-0.252-0.252-0.252-0.659,0-0.911
						l6.186-6.186c0.252-0.252,0.659-0.252,0.911,0l17.299,17.299c1.112,1.114,1.112,2.924,0,4.038l-3.059,3.059
						C388.203,238.965,387.472,239.243,386.741,239.243z M385.633,237.498c0.61,0.61,1.606,0.61,2.216,0l3.059-3.059
						c0.61-0.611,0.61-1.605,0-2.216l-16.844-16.844l-5.275,5.275L385.633,237.498z"/>
				</g>
			</g>
			<g>
				<g>
					<g>
						<g>
							<line class="st4" x1="387.146" y1="231.934" x2="375.461" y2="220.249"/>
						</g>
					</g>
					<g>
						<g>
							<path class="st1" d="M387.146,232.578c-0.165,0-0.33-0.063-0.455-0.189l-11.685-11.685c-0.252-0.252-0.252-0.659,0-0.911
								s0.659-0.252,0.911,0l11.685,11.685c0.252,0.252,0.252,0.659,0,0.911C387.476,232.515,387.311,232.578,387.146,232.578z"/>
						</g>
					</g>
				</g>
				<g>
					<g>
						<g>
							<line class="st4" x1="385.344" y1="233.736" x2="373.659" y2="222.051"/>
						</g>
					</g>
					<g>
						<g>
							<path class="st1" d="M385.344,234.38c-0.165,0-0.33-0.063-0.456-0.189l-11.685-11.685c-0.252-0.252-0.252-0.659,0-0.911
								s0.659-0.252,0.911,0l11.685,11.685c0.252,0.252,0.252,0.659,0,0.911C385.673,234.317,385.508,234.38,385.344,234.38z"/>
						</g>
					</g>
				</g>
			</g>
		</g>
		<g>
			<g>
				<g>
					<path class="st0" d="M362.167,226.204l17.447-17.447c2.989,1.272,6.791,0.52,9.193-1.897c2.428-2.443,3.028-5.98,1.711-9.007
						l-5.076,5.101c-0.605,0.609-1.577,0.607-2.193-0.013l-2.181-2.181c-0.616-0.62-0.606-1.572,0-2.181l5.089-5.089
						c-3.046-1.434-6.579-0.906-9.059,1.588c-2.402,2.417-3.109,6.308-1.845,9.316l-17.447,17.447
						c-2.989-1.272-6.791-0.52-9.193,1.897c-2.428,2.443-3.028,5.98-1.711,9.007l5.076-5.101c0.606-0.609,1.577-0.71,2.193-0.09
						l2.181,2.283c0.616,0.62,0.573,1.572-0.032,2.181l-5.056,5.089c3.046,1.434,6.579,0.906,9.059-1.588
						C362.724,233.103,363.432,229.211,362.167,226.204z"/>
				</g>
			</g>
			<g>
				<g>
					<path class="st1" d="M354.703,238.532c-1.249,0-2.514-0.275-3.714-0.842c-0.19-0.089-0.324-0.265-0.361-0.471
						c-0.036-0.206,0.03-0.417,0.178-0.566l5.057-5.088c0.369-0.372,0.383-0.919,0.032-1.273l-2.19-2.293
						c-0.179-0.179-0.395-0.219-0.544-0.219c-0.26,0-0.526,0.116-0.727,0.318l-5.076,5.101c-0.15,0.152-0.365,0.222-0.576,0.179
						c-0.21-0.04-0.386-0.18-0.471-0.376c-1.445-3.322-0.721-7.137,1.845-9.719c2.464-2.479,6.307-3.35,9.493-2.196l16.851-16.851
						c-1.168-3.245-0.318-7.138,2.142-9.612c2.601-2.619,6.444-3.293,9.79-1.717c0.19,0.089,0.325,0.266,0.361,0.472
						c0.036,0.207-0.031,0.418-0.179,0.566l-5.089,5.089c-0.359,0.362-0.359,0.909,0.001,1.271l2.179,2.179
						c0.179,0.18,0.41,0.278,0.652,0.278h0.001c0.236,0,0.459-0.094,0.629-0.264l5.075-5.101c0.151-0.151,0.364-0.218,0.576-0.179
						c0.209,0.039,0.386,0.18,0.471,0.376c1.446,3.322,0.722,7.137-1.845,9.719c-2.463,2.479-6.309,3.35-9.493,2.196L362.92,226.36
						c1.168,3.245,0.318,7.138-2.142,9.612C359.11,237.652,356.932,238.532,354.703,238.532z M352.405,236.873
						c2.645,0.886,5.436,0.229,7.461-1.808c2.169-2.183,2.888-5.805,1.708-8.612c-0.101-0.242-0.047-0.52,0.138-0.705l17.447-17.446
						c0.186-0.186,0.467-0.24,0.708-0.137c2.788,1.187,6.276,0.464,8.484-1.758c1.959-1.971,2.661-4.781,1.908-7.379l-4.359,4.381
						c-0.413,0.416-0.961,0.644-1.543,0.644h-0.001c-0.588,0-1.143-0.233-1.564-0.657l-2.179-2.179
						c-0.862-0.867-0.862-2.224-0.002-3.09l4.402-4.402c-2.647-0.883-5.433-0.227-7.457,1.809c-2.17,2.183-2.888,5.805-1.708,8.612
						c0.101,0.242,0.047,0.52-0.138,0.705l-17.446,17.446c-0.186,0.186-0.467,0.239-0.708,0.137
						c-2.788-1.187-6.277-0.464-8.485,1.758c-1.958,1.971-2.661,4.78-1.908,7.379l4.359-4.381c0.85-0.855,2.295-0.907,3.107-0.09
						l2.19,2.293c0.842,0.847,0.828,2.205-0.041,3.08L352.405,236.873z"/>
				</g>
			</g>
		</g>
		<path class="st1" d="M402.192,234.035c-0.107,0-0.216-0.026-0.316-0.083c-0.31-0.175-0.42-0.568-0.245-0.878
			c0.685-1.214,1.311-2.482,1.858-3.769c0.139-0.327,0.518-0.479,0.845-0.34s0.48,0.517,0.34,0.845
			c-0.566,1.331-1.212,2.642-1.921,3.898C402.635,233.918,402.417,234.035,402.192,234.035z"/>
	</g>
</g>
</svg>
