<?xml version="1.0" encoding="utf-8"?>
<!-- Generator: Adobe Illustrator 22.0.1, SVG Export Plug-In . SVG Version: 6.00 Build 0)  -->
<svg version="1.1" id="Layer_1" xmlns="http://www.w3.org/2000/svg" xmlns:xlink="http://www.w3.org/1999/xlink" x="0px" y="0px"
	 viewBox="0 0 7 5" style="enable-background:new 0 0 7 5;" xml:space="preserve">
<style type="text/css">
	.st0{fill:#FFFFFF;}
	.st1{fill:#616870;}
	.st2{fill:#EBEFF2;}
	.st3{fill:#4DA8B6;}
</style>
<g>
	<path class="st0" d="M0.423,0.421v2.958c0,0.172,0.14,0.312,0.312,0.312h0.307v0.307c0,0.172,0.14,0.312,0.312,0.312h0.312v0.312
		c0,0.172,0.14,0.312,0.312,0.312h4.248c0.172,0,0.312-0.14,0.312-0.312V1.665c0-0.172-0.14-0.312-0.312-0.312H5.915V1.041
		c0-0.172-0.14-0.312-0.312-0.312H5.296V0.421c0-0.172-0.14-0.312-0.312-0.312H0.736C0.563,0.109,0.423,0.249,0.423,0.421z"/>
	<g>
		<g>
			<g>
				<g>
					<path class="st1" d="M1.719,4.57V1.614c0-0.172,0.14-0.312,0.312-0.312h4.248c0.172,0,0.312,0.14,0.312,0.312V4.57
						c0,0.172-0.14,0.312-0.312,0.312H2.031C1.859,4.882,1.719,4.742,1.719,4.57z M2.031,1.404c-0.116,0-0.209,0.094-0.209,0.209
						v2.957c0,0.116,0.094,0.209,0.209,0.209h4.248c0.116,0,0.209-0.094,0.209-0.209V1.614c0-0.116-0.094-0.209-0.209-0.209H2.031
						V1.404z"/>
				</g>
				<g>
					<g>
						<path class="st1" d="M4.155,3.544c0.08,0,0.159-0.029,0.22-0.089l2.063-2.006C6.46,1.43,6.46,1.397,6.44,1.377
							c-0.019-0.02-0.052-0.02-0.073-0.001L4.304,3.381c-0.081,0.079-0.215,0.079-0.297,0L1.945,1.376
							C1.923,1.356,1.89,1.356,1.871,1.377C1.85,1.397,1.852,1.43,1.872,1.449l2.063,2.006C3.996,3.515,4.075,3.544,4.155,3.544z"/>
					</g>
				</g>
				<g>
					<g>
						<path class="st1" d="M6.403,4.848c0.015,0,0.029-0.006,0.039-0.018C6.46,4.809,6.457,4.776,6.436,4.758L4.813,3.395
							C4.792,3.377,4.759,3.38,4.741,3.402C4.723,3.423,4.726,3.456,4.747,3.474L6.37,4.835C6.38,4.844,6.391,4.848,6.403,4.848z"/>
					</g>
					<g>
						<path class="st1" d="M1.908,4.848c0.011,0,0.023-0.004,0.033-0.013l1.622-1.361c0.022-0.018,0.024-0.051,0.006-0.073
							C3.552,3.38,3.518,3.377,3.497,3.395L1.875,4.758C1.853,4.776,1.85,4.809,1.868,4.83C1.878,4.842,1.892,4.848,1.908,4.848z"/>
					</g>
				</g>
			</g>
		</g>
		<g>
			<path class="st2" d="M1.77,1.614c0-0.144,0.117-0.261,0.261-0.261h3.884V0.988c0-0.144-0.117-0.261-0.261-0.261H1.406
				c-0.144,0-0.261,0.117-0.261,0.261v2.957c0,0.144,0.117,0.261,0.261,0.261H1.77V1.614z"/>
			<path class="st1" d="M1.094,3.947V0.988c0-0.172,0.14-0.312,0.312-0.312h4.248c0.172,0,0.312,0.14,0.312,0.312v0.364
				c0,0.028-0.023,0.052-0.052,0.052H2.03c-0.116,0-0.209,0.094-0.209,0.209v2.594c0,0.028-0.023,0.052-0.052,0.052H1.407
				C1.234,4.259,1.094,4.118,1.094,3.947z M1.719,1.614c0-0.172,0.14-0.312,0.312-0.312h3.833V0.988
				c0-0.116-0.094-0.209-0.209-0.209H1.407c-0.116,0-0.209,0.094-0.209,0.209v2.958c0,0.116,0.094,0.209,0.209,0.209h0.312V1.614z"
				/>
		</g>
		<g>
			<path class="st3" d="M1.151,0.994c0-0.144,0.117-0.261,0.261-0.261h3.884V0.37c0-0.144-0.117-0.261-0.261-0.261H0.787
				c-0.144,0-0.261,0.117-0.261,0.261v2.957c0,0.144,0.117,0.261,0.261,0.261h0.364V0.994z"/>
			<path class="st1" d="M0.475,3.326V0.37c0-0.172,0.14-0.312,0.312-0.312h4.248c0.172,0,0.312,0.14,0.312,0.312v0.364
				c0,0.028-0.023,0.052-0.052,0.052H1.411c-0.116,0-0.209,0.094-0.209,0.209v2.594c0,0.028-0.023,0.052-0.052,0.052H0.787
				C0.615,3.64,0.475,3.498,0.475,3.326z M1.099,0.994c0-0.172,0.14-0.312,0.312-0.312h3.833V0.37c0-0.116-0.094-0.209-0.209-0.209
				H0.787c-0.116,0-0.209,0.094-0.209,0.209v2.958c0,0.116,0.094,0.209,0.209,0.209h0.312V0.994z"/>
		</g>
	</g>
</g>
</svg>
