<?xml version="1.0" encoding="utf-8"?>
<!-- Generator: Adobe Illustrator 22.0.1, SVG Export Plug-In . SVG Version: 6.00 Build 0)  -->
<svg version="1.1" id="Layer_1" xmlns="http://www.w3.org/2000/svg" xmlns:xlink="http://www.w3.org/1999/xlink" x="0px" y="0px"
	 viewBox="0 0 500 275" style="enable-background:new 0 0 500 275;" xml:space="preserve">
<style type="text/css">
	.st0{fill:#FFFFFF;}
	.st1{fill:#EAEDF1;}
	.st2{fill:#626871;}
	.st3{fill:#4EA7B4;}
	.st4{fill:#ECEFF2;}
	.st5{fill:#626971;}
	.st6{fill:#4FA8B6;}
</style>
<g>
	<g>
		<g>
			<g>
				<path class="st0" d="M486.228,183.697h-78.765c-3.477,0-6.306-2.829-6.306-6.306v-50.03c0-3.477,2.829-6.306,6.306-6.306h78.766
					c3.477,0,6.306,2.829,6.306,6.306v50.03C492.535,180.868,489.706,183.697,486.228,183.697z"/>
			</g>
		</g>
	</g>
</g>
<g>
	<g>
		<g>
			<path class="st1" d="M212.637,180.707h69.716c2.292,0,4.15,1.858,4.15,4.15v64.701h-78.016v-64.701
				C208.486,182.565,210.344,180.707,212.637,180.707z"/>
			<path class="st2" d="M286.503,250.559h-78.016c-0.553,0-1.001-0.448-1.001-1.001v-60.543c0-5.133,4.176-9.309,9.31-9.309h61.399
				c5.133,0,9.309,4.176,9.309,9.309v60.543C287.504,250.111,287.056,250.559,286.503,250.559z M209.487,248.557h76.014v-59.542
				c0-4.029-3.278-7.307-7.307-7.307h-61.399c-4.029,0-7.308,3.278-7.308,7.307V248.557z"/>
		</g>
		<g>
			<g>
				<rect x="199.78" y="184.446" class="st0" width="95.824" height="25.397"/>
				<path class="st2" d="M295.605,210.844H199.78c-0.553,0-1.001-0.448-1.001-1.001v-25.397c0-0.553,0.448-1.001,1.001-1.001h95.825
					c0.553,0,1.001,0.448,1.001,1.001v25.397C296.606,210.396,296.158,210.844,295.605,210.844z M200.781,208.842h93.823v-23.395
					h-93.823V208.842z"/>
			</g>
			<g>
				<path class="st2" d="M212.174,202.31c-0.553,0-1.001-0.448-1.001-1.001v-8.329c0-0.553,0.448-1.001,1.001-1.001
					c0.553,0,1.001,0.448,1.001,1.001v8.329C213.175,201.863,212.728,202.31,212.174,202.31z"/>
			</g>
			<g>
				<path class="st2" d="M218.96,202.31c-0.553,0-1.001-0.448-1.001-1.001v-8.329c0-0.553,0.448-1.001,1.001-1.001
					s1.001,0.448,1.001,1.001v8.329C219.961,201.863,219.514,202.31,218.96,202.31z"/>
			</g>
			<g>
				<path class="st2" d="M225.747,202.31c-0.553,0-1.001-0.448-1.001-1.001v-8.329c0-0.553,0.448-1.001,1.001-1.001
					c0.553,0,1.001,0.448,1.001,1.001v8.329C226.748,201.863,226.301,202.31,225.747,202.31z"/>
			</g>
			<g>
				<path class="st2" d="M232.533,202.31c-0.553,0-1.001-0.448-1.001-1.001v-8.329c0-0.553,0.448-1.001,1.001-1.001
					c0.553,0,1.001,0.448,1.001,1.001v8.329C233.534,201.863,233.086,202.31,232.533,202.31z"/>
			</g>
			<g>
				<path class="st2" d="M239.32,202.31c-0.553,0-1.001-0.448-1.001-1.001v-8.329c0-0.553,0.448-1.001,1.001-1.001
					c0.553,0,1.001,0.448,1.001,1.001v8.329C240.321,201.863,239.874,202.31,239.32,202.31z"/>
			</g>
			<g>
				<g>
					<path class="st2" d="M249.552,198.146h-1.901c-0.553,0-1.001-0.448-1.001-1.001c0-0.553,0.448-1.001,1.001-1.001h1.901
						c0.553,0,1.001,0.448,1.001,1.001C250.553,197.698,250.105,198.146,249.552,198.146z"/>
				</g>
				<g>
					<path class="st2" d="M256.069,198.146h-1.901c-0.553,0-1.001-0.448-1.001-1.001c0-0.553,0.448-1.001,1.001-1.001h1.901
						c0.553,0,1.001,0.448,1.001,1.001C257.07,197.698,256.622,198.146,256.069,198.146z"/>
				</g>
				<g>
					<path class="st2" d="M262.587,198.146h-1.901c-0.553,0-1.001-0.448-1.001-1.001c0-0.553,0.448-1.001,1.001-1.001h1.901
						c0.553,0,1.001,0.448,1.001,1.001C263.588,197.698,263.141,198.146,262.587,198.146z"/>
				</g>
			</g>
			<g>
				<circle class="st3" cx="276.983" cy="197.145" r="6.514"/>
				<path class="st2" d="M276.982,204.659c-4.144,0-7.515-3.37-7.515-7.514s3.372-7.515,7.515-7.515s7.515,3.372,7.515,7.515
					C284.498,201.289,281.126,204.659,276.982,204.659z M276.982,191.632c-3.04,0-5.513,2.473-5.513,5.513
					c0,3.039,2.473,5.512,5.513,5.512s5.513-2.473,5.513-5.512C282.496,194.105,280.023,191.632,276.982,191.632z"/>
			</g>
		</g>
		<g>
			<g>
				<rect x="199.78" y="215.302" class="st0" width="95.824" height="25.397"/>
				<path class="st2" d="M295.605,241.7H199.78c-0.553,0-1.001-0.448-1.001-1.001v-25.396c0-0.553,0.448-1.001,1.001-1.001h95.825
					c0.553,0,1.001,0.448,1.001,1.001v25.396C296.606,241.252,296.158,241.7,295.605,241.7z M200.781,239.698h93.823v-23.394
					h-93.823V239.698z"/>
			</g>
			<g>
				<path class="st2" d="M212.174,233.166c-0.553,0-1.001-0.448-1.001-1.001v-8.329c0-0.553,0.448-1.001,1.001-1.001
					c0.553,0,1.001,0.448,1.001,1.001v8.329C213.175,232.718,212.728,233.166,212.174,233.166z"/>
			</g>
			<g>
				<path class="st2" d="M218.96,233.166c-0.553,0-1.001-0.448-1.001-1.001v-8.329c0-0.553,0.448-1.001,1.001-1.001
					s1.001,0.448,1.001,1.001v8.329C219.961,232.718,219.514,233.166,218.96,233.166z"/>
			</g>
			<g>
				<path class="st2" d="M225.747,233.166c-0.553,0-1.001-0.448-1.001-1.001v-8.329c0-0.553,0.448-1.001,1.001-1.001
					c0.553,0,1.001,0.448,1.001,1.001v8.329C226.748,232.718,226.301,233.166,225.747,233.166z"/>
			</g>
			<g>
				<path class="st2" d="M232.533,233.166c-0.553,0-1.001-0.448-1.001-1.001v-8.329c0-0.553,0.448-1.001,1.001-1.001
					c0.553,0,1.001,0.448,1.001,1.001v8.329C233.534,232.718,233.086,233.166,232.533,233.166z"/>
			</g>
			<g>
				<path class="st2" d="M239.32,233.166c-0.553,0-1.001-0.448-1.001-1.001v-8.329c0-0.553,0.448-1.001,1.001-1.001
					c0.553,0,1.001,0.448,1.001,1.001v8.329C240.321,232.718,239.874,233.166,239.32,233.166z"/>
			</g>
			<g>
				<g>
					<path class="st2" d="M249.552,229.002h-1.901c-0.553,0-1.001-0.448-1.001-1.001c0-0.553,0.448-1.001,1.001-1.001h1.901
						c0.553,0,1.001,0.448,1.001,1.001C250.553,228.554,250.105,229.002,249.552,229.002z"/>
				</g>
				<g>
					<path class="st2" d="M256.069,229.002h-1.901c-0.553,0-1.001-0.448-1.001-1.001c0-0.553,0.448-1.001,1.001-1.001h1.901
						c0.553,0,1.001,0.448,1.001,1.001S256.622,229.002,256.069,229.002z"/>
				</g>
				<g>
					<path class="st2" d="M262.587,229.002h-1.901c-0.553,0-1.001-0.448-1.001-1.001c0-0.553,0.448-1.001,1.001-1.001h1.901
						c0.553,0,1.001,0.448,1.001,1.001S263.141,229.002,262.587,229.002z"/>
				</g>
			</g>
			<g>
				<circle class="st3" cx="276.983" cy="228.001" r="6.514"/>
				<path class="st2" d="M276.982,235.516c-4.144,0-7.515-3.371-7.515-7.515s3.372-7.515,7.515-7.515s7.515,3.372,7.515,7.515
					C284.498,232.145,281.126,235.516,276.982,235.516z M276.982,222.487c-3.04,0-5.513,2.473-5.513,5.513s2.473,5.513,5.513,5.513
					s5.513-2.473,5.513-5.513C282.496,224.961,280.023,222.487,276.982,222.487z"/>
			</g>
		</g>
		<g>
			<path class="st2" d="M218.568,180.401c-0.553,0-1.001-0.448-1.001-1.001v-10.095c0-0.553,0.448-1.001,1.001-1.001
				c0.553,0,1.001,0.448,1.001,1.001V179.4C219.569,179.954,219.121,180.401,218.568,180.401z"/>
		</g>
		<g>
			<path class="st2" d="M227.666,180.401c-0.553,0-1.001-0.448-1.001-1.001v-10.095c0-0.553,0.448-1.001,1.001-1.001
				s1.001,0.448,1.001,1.001V179.4C228.667,179.954,228.22,180.401,227.666,180.401z"/>
		</g>
		<g>
			<path class="st2" d="M236.764,180.401c-0.553,0-1.001-0.448-1.001-1.001v-10.095c0-0.553,0.448-1.001,1.001-1.001
				c0.553,0,1.001,0.448,1.001,1.001V179.4C237.765,179.954,237.318,180.401,236.764,180.401z"/>
		</g>
		<g>
			<path class="st2" d="M245.862,180.401c-0.553,0-1.001-0.448-1.001-1.001v-10.095c0-0.553,0.448-1.001,1.001-1.001
				c0.553,0,1.001,0.448,1.001,1.001V179.4C246.863,179.954,246.415,180.401,245.862,180.401z"/>
		</g>
		<g>
			<path class="st2" d="M254.961,180.401c-0.553,0-1.001-0.448-1.001-1.001v-10.095c0-0.553,0.448-1.001,1.001-1.001
				c0.553,0,1.001,0.448,1.001,1.001V179.4C255.962,179.954,255.514,180.401,254.961,180.401z"/>
		</g>
	</g>
	<g>
		<g>
			<path class="st3" d="M293.286,136.588h-89.909c-0.943,0-1.715,0.317-1.715,0.704l-5.145,12.711c0,0.387,0.772,0.704,1.715,0.704
				H298.43c0.943,0,1.715-0.317,1.715-0.704L295,137.292C295.001,136.905,294.23,136.588,293.286,136.588z"/>
			<path class="st2" d="M298.431,151.564H198.233c-1.538,0-2.572-0.628-2.572-1.561v-0.167l5.163-12.757
				c0.147-0.815,1.135-1.348,2.554-1.348h89.909c1.418,0,2.407,0.533,2.554,1.348l5.163,12.757v0.167
				C301.004,150.937,299.97,151.564,298.431,151.564z M197.538,149.769c0.171,0.044,0.406,0.081,0.695,0.081h100.198
				c0.289,0,0.524-0.037,0.695-0.081l-4.925-12.169c-0.149-0.067-0.468-0.154-0.914-0.154h-89.909c-0.446,0-0.765,0.088-0.914,0.154
				l-0.006,0.014L197.538,149.769z"/>
		</g>
		<g>
			<path class="st3" d="M298.146,174.726h-99.628c-1.1,0-2-0.9-2-2v-21.409c0-1.1,0.9-2,2-2h99.628c1.1,0,2,0.9,2,2v21.409
				C300.146,173.826,299.246,174.726,298.146,174.726z"/>
			<path class="st2" d="M298.431,175.583H198.233c-1.418,0-2.572-1.154-2.572-2.572v-21.979c0-1.418,1.154-2.572,2.572-2.572
				h100.198c1.418,0,2.572,1.154,2.572,2.572v21.979C301.004,174.43,299.85,175.583,298.431,175.583z M198.233,150.174
				c-0.473,0-0.857,0.385-0.857,0.857v21.979c0,0.473,0.384,0.857,0.857,0.857h100.198c0.473,0,0.857-0.385,0.857-0.857v-21.979
				c0-0.473-0.384-0.857-0.857-0.857H198.233z"/>
		</g>
		<g>
			<g>
				<path class="st0" d="M205.486,165.915c-2.147,0-3.894-1.747-3.894-3.894s1.747-3.894,3.894-3.894s3.894,1.747,3.894,3.894
					C209.38,164.169,207.633,165.915,205.486,165.915z M205.486,159.843c-1.202,0-2.179,0.978-2.179,2.179
					c0,1.202,0.977,2.179,2.179,2.179s2.179-0.978,2.179-2.179C207.665,160.82,206.688,159.843,205.486,159.843z"/>
			</g>
		</g>
		<g>
			<path class="st0" d="M221.099,165.773h-3.503c-1.1,0-2-0.9-2-2v-3.503c0-1.1,0.9-2,2-2h3.503c1.1,0,2,0.9,2,2v3.503
				C223.099,164.873,222.199,165.773,221.099,165.773z"/>
			<path class="st0" d="M221.384,166.202h-4.073c-1.182,0-2.144-0.962-2.144-2.144v-4.073c0-1.182,0.961-2.144,2.144-2.144h4.073
				c1.182,0,2.144,0.962,2.144,2.144v4.073C223.527,165.24,222.566,166.202,221.384,166.202z M217.311,158.699
				c-0.709,0-1.286,0.577-1.286,1.286v4.073c0,0.709,0.577,1.286,1.286,1.286h4.073c0.709,0,1.286-0.577,1.286-1.286v-4.073
				c0-0.709-0.577-1.286-1.286-1.286H217.311z"/>
		</g>
		<g>
			<path class="st0" d="M230.692,165.773h-3.503c-1.1,0-2-0.9-2-2v-3.503c0-1.1,0.9-2,2-2h3.503c1.1,0,2,0.9,2,2v3.503
				C232.692,164.873,231.792,165.773,230.692,165.773z"/>
			<path class="st0" d="M230.977,166.202h-4.073c-1.182,0-2.144-0.962-2.144-2.144v-4.073c0-1.182,0.961-2.144,2.144-2.144h4.073
				c1.182,0,2.144,0.962,2.144,2.144v4.073C233.121,165.24,232.16,166.202,230.977,166.202z M226.904,158.699
				c-0.709,0-1.286,0.577-1.286,1.286v4.073c0,0.709,0.577,1.286,1.286,1.286h4.073c0.709,0,1.286-0.577,1.286-1.286v-4.073
				c0-0.709-0.577-1.286-1.286-1.286H226.904z"/>
		</g>
		<g>
			<path class="st0" d="M240.408,165.773h-3.503c-1.1,0-2-0.9-2-2v-3.503c0-1.1,0.9-2,2-2h3.503c1.1,0,2,0.9,2,2v3.503
				C242.408,164.873,241.508,165.773,240.408,165.773z"/>
			<path class="st0" d="M240.694,166.202h-4.073c-1.182,0-2.144-0.962-2.144-2.144v-4.073c0-1.182,0.961-2.144,2.144-2.144h4.073
				c1.182,0,2.144,0.962,2.144,2.144v4.073C242.837,165.24,241.876,166.202,240.694,166.202z M236.621,158.699
				c-0.709,0-1.286,0.577-1.286,1.286v4.073c0,0.709,0.577,1.286,1.286,1.286h4.073c0.709,0,1.286-0.577,1.286-1.286v-4.073
				c0-0.709-0.577-1.286-1.286-1.286H236.621z"/>
		</g>
		<g>
			<path class="st0" d="M259.738,166.202H246.5c-1.182,0-2.144-0.962-2.144-2.144v-4.073c0-1.182,0.961-2.144,2.144-2.144h13.238
				c1.182,0,2.144,0.962,2.144,2.144v4.073C261.882,165.24,260.92,166.202,259.738,166.202z M246.5,158.699
				c-0.709,0-1.286,0.577-1.286,1.286v4.073c0,0.709,0.577,1.286,1.286,1.286h13.238c0.709,0,1.286-0.577,1.286-1.286v-4.073
				c0-0.709-0.577-1.286-1.286-1.286H246.5z"/>
		</g>
		<g>
			<g>
				<path class="st2" d="M199.248,145.627h97.575c0.719,0,1.301-0.24,1.301-0.537s-0.582-0.537-1.301-0.537h-97.575
					c-0.719,0-1.301,0.24-1.301,0.537C197.947,145.387,198.529,145.627,199.248,145.627z"/>
			</g>
		</g>
		<g>
			<g>
				<polygon class="st0" points="275.545,167.516 275.738,156.488 273.633,156.714 273.371,155.349 280.124,155.655 
					279.846,156.296 277.556,156.4 276.392,167.709 				"/>
			</g>
			<g>
				<g>
					<path class="st0" d="M285.379,166.223c-0.373,0.253-1.089,0.465-1.805,0.568c-2.998,0.433-4.241-1.81-4.59-3.821
						c-0.438-2.522,0.329-4.73,2.398-5.029c0.078-0.011,0.177-0.007,0.254-0.018c2.098-0.141,2.941,1.401,3.259,3.236
						c0.064,0.37,0.085,0.603,0.126,1.067l-4.939,0.334c0.397,2.745,1.847,3.096,3.045,3.032c0.097-0.014,0.196-0.01,0.293-0.024
						c0.619-0.09,1.059-0.298,1.36-0.504L285.379,166.223z M283.459,161.221c-0.279-1.605-1.034-2.527-2.04-2.381
						c-1.142,0.165-1.418,1.543-1.283,2.771L283.459,161.221z"/>
				</g>
				<g>
					<path class="st0" d="M290.688,170.457l0.567-4.402l-0.058-0.008c-0.4,0.593-1.326,1.128-2.371,0.978
						c-2.456-0.355-2.725-3.034-2.348-5.203c0.481-2.769,2.28-3.992,3.808-3.772c0.735,0.106,1.454,0.535,1.823,1.493l0.038,0.006
						l0.022-1.606l1.69,0.769l-0.45,2.593l-1.662,9L290.688,170.457z M291.75,161.715c0.166-1.296-0.389-2.443-1.414-2.591
						c-1.257-0.182-2.084,1.037-2.372,2.695c-0.251,1.446-0.134,3.742,1.568,3.987c0.658,0.095,1.787-0.357,1.969-1.976
						L291.75,161.715z"/>
				</g>
			</g>
		</g>
	</g>
</g>
<g>
	<g>
		<path class="st4" d="M82.22,103.017c1.44,0,2.607,1.17,2.607,2.605v84.023c0,1.437-1.173,2.605-2.612,2.605H13.796
			c-1.44,0-2.607-1.17-2.607-2.605v-84.023c0-1.436,1.172-2.605,2.612-2.605h16.987H82.22z"/>
		<path class="st5" d="M82.217,193.164H13.795c-1.941,0-3.518-1.579-3.518-3.517v-84.024c0-1.94,1.582-3.517,3.524-3.517H82.22
			c1.941,0,3.518,1.579,3.518,3.517v84.024C85.74,191.586,84.16,193.164,82.217,193.164z M13.801,103.929
			c-0.938,0-1.701,0.76-1.701,1.694v84.024c0,0.933,0.76,1.694,1.695,1.694h68.42c0.937,0,1.699-0.76,1.699-1.694v-84.023
			c0-0.933-0.76-1.694-1.695-1.694L13.801,103.929L13.801,103.929z"/>
	</g>
	<g>
		<g>
			<path class="st0" d="M76.556,169.342V110.24c0-1.51-1.23-2.742-2.743-2.742h-45.44h-2.534h-3.641
				c-1.514,0-2.738,1.232-2.738,2.742v71.073c0,1.51,1.225,2.738,2.738,2.738h38.937L76.556,169.342z"/>
			<path class="st5" d="M61.135,184.961H22.2c-2.012,0-3.651-1.639-3.651-3.651v-71.073c0-2.015,1.639-3.653,3.651-3.653h51.613
				c2.015,0,3.654,1.639,3.654,3.653v59.103c0,0.25-0.102,0.489-0.283,0.659l-15.419,14.708
				C61.595,184.871,61.37,184.961,61.135,184.961z M22.2,108.409c-1.008,0-1.827,0.821-1.827,1.83v71.073
				c0,1.008,0.819,1.827,1.827,1.827h38.571l14.873-14.186v-58.714c0-1.009-0.82-1.83-1.831-1.83
				C73.813,108.409,22.2,108.409,22.2,108.409z"/>
		</g>
		<g>
			<path class="st5" d="M64.917,124.373c0.505,0,0.912,0.408,0.912,0.912c0,0.505-0.408,0.912-0.911,0.912H31.702
				c-0.505,0-0.912-0.408-0.912-0.912c0-0.505,0.408-0.912,0.912-0.912"/>
		</g>
		<g>
			<g>
				<path class="st5" d="M60.467,184.961c-0.505,0-0.912-0.408-0.912-0.912v-11.842c-0.016-1.917,1.557-3.556,3.435-3.575h13.151
					c0.505,0,0.912,0.408,0.912,0.912c0,0.505-0.408,0.912-0.912,0.912H63c-0.867,0.007-1.629,0.823-1.62,1.743v11.85
					C61.378,184.553,60.972,184.961,60.467,184.961z"/>
			</g>
		</g>
	</g>
	<g>
		<path class="st6" d="M58.732,96.898h-3.194v-2.135c0-1.511-1.225-2.736-2.736-2.736h-9.589c-1.511,0-2.736,1.225-2.736,2.736
			v2.135h-3.194c-3.38,0-6.121,2.739-6.121,6.119v9.648H64.85v-9.648C64.853,99.637,62.112,96.898,58.732,96.898z"/>
		<path class="st5" d="M64.853,113.576H31.164c-0.505,0-0.912-0.408-0.912-0.912v-9.646c0-3.876,3.156-7.031,7.032-7.031h2.283
			v-1.222c0-2.012,1.636-3.649,3.647-3.649h9.59c2.011,0,3.647,1.636,3.647,3.649v1.222h2.281c3.876,0,7.032,3.153,7.032,7.031
			v9.648C65.764,113.168,65.356,113.576,64.853,113.576z M32.075,111.753h31.864v-8.735c0-2.871-2.337-5.207-5.208-5.207h-3.193
			c-0.505,0-0.912-0.408-0.912-0.912v-2.133c0-1.005-0.817-1.826-1.823-1.826h-9.59c-1.005,0-1.823,0.819-1.823,1.826v2.133
			c0,0.505-0.408,0.912-0.912,0.912h-3.193c-2.873,0-5.208,2.337-5.208,5.207L32.075,111.753L32.075,111.753z"/>
	</g>
</g>
<g>
	<g>
		<g>
			<g>
				<g>
					<g>
						<path class="st1" d="M39.053,163.915c0,0.213-0.129,0.388-0.287,0.388h-7.132c-0.158,0-0.287-0.175-0.287-0.388V143.63
							c0-0.213,0.129-0.388,0.287-0.388h7.132c0.158,0,0.287,0.175,0.287,0.388V163.915z"/>
						<path class="st2" d="M38.767,164.816h-7.132c-0.441,0-0.801-0.405-0.801-0.903v-20.285c0-0.506,0.351-0.903,0.801-0.903h7.132
							c0.449,0,0.801,0.397,0.801,0.903v20.285C39.566,164.42,39.216,164.816,38.767,164.816z M31.862,163.787h6.677v-20.031h-6.677
							V163.787z"/>
					</g>
				</g>
			</g>
			<g>
				<g>
					<g>
						<path class="st3" d="M52.784,163.915c0,0.213-0.129,0.388-0.284,0.388h-7.13c-0.16,0-0.289-0.175-0.289-0.388v-32.912
							c0-0.213,0.129-0.388,0.289-0.388h7.13c0.154,0,0.284,0.175,0.284,0.388V163.915z"/>
						<path class="st2" d="M52.5,164.816h-7.129c-0.451,0-0.803-0.397-0.803-0.903V131c0-0.506,0.353-0.903,0.803-0.903h7.13
							c0.44,0,0.797,0.405,0.797,0.903v32.913C53.298,164.412,52.941,164.816,52.5,164.816z M45.595,163.787h6.674v-32.66h-6.674
							V163.787z"/>
					</g>
				</g>
			</g>
			<g>
				<g>
					<g>
						<path class="st1" d="M66.516,163.915c0,0.213-0.129,0.388-0.287,0.388h-7.13c-0.158,0-0.287-0.175-0.287-0.388v-17.226
							c0-0.214,0.129-0.389,0.287-0.389h7.13c0.158,0,0.287,0.175,0.287,0.389V163.915z"/>
						<path class="st2" d="M66.229,164.816h-7.13c-0.448,0-0.8-0.397-0.8-0.903v-17.226c0-0.507,0.351-0.904,0.8-0.904h7.13
							c0.448,0,0.801,0.397,0.801,0.904v17.226C67.029,164.42,66.678,164.816,66.229,164.816z M59.328,163.787H66v-16.975h-6.672
							C59.328,146.813,59.328,163.787,59.328,163.787z"/>
					</g>
				</g>
			</g>
		</g>
	</g>
</g>
<g>
	<g>
		<path class="st2" d="M459.127,192.235h-24.562c-0.469,0-0.849-0.38-0.849-0.849c0-0.469,0.38-0.849,0.849-0.849h24.561
			c0.469,0,0.849,0.38,0.849,0.849C459.974,191.856,459.594,192.235,459.127,192.235z"/>
	</g>
	<g>
		<g>
			<g>
				<path class="st2" d="M486.228,183.697h-78.765c-3.477,0-6.306-2.829-6.306-6.306v-50.03c0-3.477,2.829-6.306,6.306-6.306h78.766
					c3.477,0,6.306,2.829,6.306,6.306v50.03C492.535,180.868,489.706,183.697,486.228,183.697z M407.463,122.752
					c-2.541,0-4.61,2.067-4.61,4.61v50.03c0,2.541,2.068,4.61,4.61,4.61h78.766c2.541,0,4.61-2.067,4.61-4.61v-50.03
					c0-2.541-2.068-4.61-4.61-4.61L407.463,122.752L407.463,122.752z"/>
			</g>
			<g>
				<path class="st2" d="M491.686,175.216h-89.681c-0.469,0-0.849-0.38-0.849-0.849c0-0.469,0.38-0.849,0.849-0.849h89.681
					c0.469,0,0.849,0.38,0.849,0.849C492.535,174.836,492.155,175.216,491.686,175.216z"/>
			</g>
			<g>
				<path class="st3" d="M402.005,176.831c0,3.324,2.444,6.018,5.458,6.018h78.763c3.014,0,5.458-2.694,5.458-6.018v-3.335h-89.68
					V176.831z"/>
				<path class="st2" d="M486.228,183.697h-78.765c-3.477,0-6.306-3.08-6.306-6.865v-3.335c0-0.469,0.38-0.849,0.849-0.849h89.681
					c0.469,0,0.849,0.38,0.849,0.849v3.335C492.535,180.617,489.706,183.697,486.228,183.697z M402.854,174.346v2.486
					c0,2.85,2.068,5.168,4.61,5.168h78.766c2.541,0,4.61-2.318,4.61-5.168v-2.486H402.854z"/>
			</g>
		</g>
		<g>
			<g>
				<path class="st2" d="M441.153,192.235c-0.469,0-0.849-0.38-0.849-0.849v-8.538c0-0.469,0.38-0.849,0.849-0.849
					s0.849,0.38,0.849,0.849v8.538C442.001,191.856,441.622,192.235,441.153,192.235z"/>
			</g>
			<g>
				<path class="st2" d="M452.538,192.235c-0.469,0-0.849-0.38-0.849-0.849v-8.538c0-0.469,0.38-0.849,0.849-0.849
					s0.849,0.38,0.849,0.849v8.538C453.387,191.856,453.007,192.235,452.538,192.235z"/>
			</g>
		</g>
		<g>
			<path class="st2" d="M447.57,179.456h-1.449c-0.469,0-0.849-0.38-0.849-0.849c0-0.469,0.38-0.849,0.849-0.849h1.449
				c0.469,0,0.849,0.38,0.849,0.849C448.418,179.077,448.039,179.456,447.57,179.456z"/>
		</g>
		<g>
			<g>
				<ellipse class="st1" cx="447.586" cy="115.187" rx="22.308" ry="22.308"/>
				<path class="st2" d="M447.543,138.375c-3.69,0-7.347-0.89-10.709-2.65c-5.479-2.868-9.514-7.698-11.362-13.601
					c-1.848-5.903-1.286-12.172,1.582-17.652c2.867-5.48,7.697-9.517,13.6-11.363c12.183-3.817,25.199,2.995,29.016,15.182l0,0
					c3.812,12.185-2.999,25.202-15.184,29.015C452.204,138.021,449.867,138.375,447.543,138.375z M447.556,93.748
					c-2.119,0-4.269,0.316-6.396,0.981c-5.47,1.712-9.945,5.452-12.604,10.531s-3.179,10.888-1.465,16.357
					c1.711,5.47,5.451,9.946,10.529,12.604c5.079,2.657,10.885,3.175,16.357,1.467c11.292-3.534,17.605-15.597,14.071-26.889l0,0
					C465.18,99.634,456.69,93.748,447.556,93.748z"/>
			</g>
			<g>
				<g>
					<path class="st3" d="M468.981,109.019l-21.411,6.701l14.743,16.214C468.596,126.389,471.448,117.545,468.981,109.019z"/>
					<path class="st2" d="M462.313,132.782c-0.23,0-0.46-0.093-0.628-0.278l-14.743-16.213c-0.193-0.214-0.267-0.513-0.191-0.794
						c0.076-0.279,0.288-0.501,0.565-0.588l21.413-6.7c0.219-0.071,0.454-0.045,0.654,0.062c0.202,0.108,0.351,0.293,0.414,0.512
						c2.475,8.555-0.244,17.892-6.923,23.786C462.714,132.711,462.514,132.782,462.313,132.782z M449.092,116.132l13.275,14.599
						c5.53-5.283,7.844-13.215,6.023-20.639L449.092,116.132z"/>
				</g>
			</g>
			<g>
				<g>
					<path class="st0" d="M468.978,109.005c-0.044-0.153-0.071-0.306-0.119-0.459c-1.705-5.447-5.319-9.754-9.861-12.467
						l-11.477,19.641L468.978,109.005z"/>
					<path class="st2" d="M447.52,116.568c-0.254,0-0.501-0.114-0.663-0.32c-0.219-0.274-0.247-0.655-0.07-0.958l11.478-19.641
						c0.114-0.196,0.301-0.337,0.52-0.393c0.219-0.055,0.451-0.024,0.647,0.093c4.906,2.928,8.541,7.524,10.237,12.941
						c0.033,0.105,0.058,0.212,0.083,0.32c0.126,0.442-0.085,1.067-0.522,1.204l-21.457,6.716
						C447.691,116.556,447.604,116.568,447.52,116.568z M459.29,97.262l-9.931,16.994l18.575-5.813
						C466.407,103.846,463.363,99.915,459.29,97.262z"/>
				</g>
			</g>
		</g>
		<g>
			<path class="st2" d="M480.787,166.718h-67.81c-0.469,0-0.849-0.38-0.849-0.849c0-0.469,0.38-0.849,0.849-0.849h67.81
				c0.469,0,0.849,0.38,0.849,0.849C481.635,166.338,481.256,166.718,480.787,166.718z"/>
		</g>
		<g>
			<rect x="471.6" y="137.521" class="st1" width="9.187" height="24.395"/>
			<path class="st2" d="M480.787,162.765h-9.186c-0.469,0-0.849-0.38-0.849-0.849v-24.395c0-0.469,0.38-0.849,0.849-0.849h9.186
				c0.469,0,0.849,0.38,0.849,0.849v24.395C481.635,162.385,481.256,162.765,480.787,162.765z M472.449,161.067h7.49V138.37h-7.49
				V161.067z"/>
		</g>
		<g>
			<path class="st2" d="M466.132,162.765h-9.188c-0.469,0-0.849-0.38-0.849-0.849V142.11c0-0.469,0.38-0.849,0.849-0.849h9.188
				c0.469,0,0.849,0.38,0.849,0.849v19.806C466.98,162.385,466.601,162.765,466.132,162.765z M457.792,161.067h7.491v-18.11h-7.491
				V161.067z"/>
		</g>
		<g>
			<path class="st2" d="M422.162,162.765h-9.186c-0.469,0-0.849-0.38-0.849-0.849v-9.54c0-0.469,0.38-0.849,0.849-0.849h9.186
				c0.469,0,0.849,0.38,0.849,0.849v9.54C423.011,162.385,422.633,162.765,422.162,162.765z M413.825,161.067h7.49v-7.843h-7.49
				V161.067z"/>
		</g>
		<g>
			<path class="st2" d="M451.476,162.765h-9.188c-0.469,0-0.849-0.38-0.849-0.849v-8.531c0-0.469,0.38-0.849,0.849-0.849h9.188
				c0.469,0,0.849,0.38,0.849,0.849v8.531C452.324,162.385,451.945,162.765,451.476,162.765z M443.137,161.067h7.491v-6.833h-7.491
				V161.067z"/>
		</g>
		<g>
			<path class="st2" d="M436.819,162.765h-9.186c-0.469,0-0.849-0.38-0.849-0.849V148.05c0-0.469,0.38-0.849,0.849-0.849h9.186
				c0.469,0,0.849,0.38,0.849,0.849v13.867C437.667,162.385,437.288,162.765,436.819,162.765z M428.48,161.067h7.49v-12.169h-7.49
				V161.067z"/>
		</g>
	</g>
</g>
<g>
	<circle class="st0" cx="402.305" cy="149.235" r="6.961"/>
	<path class="st2" d="M403.804,155.222c0.233-0.059,0.46-0.127,0.681-0.212c0.146-0.055,0.288-0.114,0.429-0.18
		c0.176-0.083,0.343-0.178,0.509-0.277c0.156-0.092,0.312-0.178,0.458-0.282c0.065-0.047,0.121-0.103,0.184-0.152
		c0.42-0.325,0.795-0.699,1.121-1.119c0.016-0.021,0.033-0.038,0.049-0.059c0.174-0.23,0.323-0.473,0.464-0.725
		c0.02-0.034,0.038-0.069,0.056-0.104c0.458-0.865,0.743-1.833,0.743-2.878c0-0.735-0.151-1.43-0.387-2.084v-0.001
		c0-0.001-0.001-0.001-0.001-0.002c-0.098-0.272-0.218-0.53-0.351-0.784c-0.026-0.049-0.051-0.097-0.08-0.146
		c-0.135-0.239-0.278-0.468-0.442-0.686c-0.034-0.045-0.073-0.087-0.109-0.131c-0.295-0.37-0.628-0.703-0.999-0.997
		c-0.087-0.07-0.168-0.148-0.258-0.213c-0.138-0.098-0.287-0.179-0.432-0.265c-0.174-0.104-0.349-0.203-0.534-0.29
		c-0.136-0.064-0.273-0.12-0.415-0.174c-0.224-0.086-0.456-0.156-0.692-0.216c-0.121-0.031-0.238-0.065-0.361-0.088
		c-0.367-0.069-0.742-0.114-1.13-0.114c-0.388,0-0.763,0.045-1.13,0.114c-0.124,0.023-0.24,0.058-0.361,0.088
		c-0.236,0.06-0.467,0.129-0.692,0.216c-0.141,0.054-0.279,0.11-0.415,0.174c-0.185,0.087-0.36,0.186-0.534,0.29
		c-0.147,0.087-0.295,0.168-0.434,0.266c-0.091,0.065-0.169,0.142-0.256,0.211c-0.372,0.295-0.705,0.628-1.002,0.999
		c-0.035,0.044-0.075,0.086-0.109,0.131c-0.164,0.218-0.307,0.448-0.442,0.686c-0.027,0.048-0.053,0.096-0.078,0.145
		c-0.135,0.253-0.254,0.512-0.353,0.785c0,0.001-0.001,0.001-0.001,0.002v0.001c-0.236,0.654-0.387,1.35-0.387,2.084
		c0,1.045,0.284,2.013,0.743,2.878c0.018,0.036,0.037,0.07,0.056,0.104c0.141,0.253,0.291,0.496,0.464,0.725
		c0.016,0.021,0.033,0.039,0.049,0.059c0.325,0.42,0.699,0.795,1.121,1.119c0.062,0.049,0.119,0.105,0.184,0.152
		c0.147,0.104,0.303,0.191,0.458,0.282c0.167,0.099,0.333,0.193,0.509,0.277c0.141,0.066,0.282,0.125,0.429,0.18
		c0.222,0.085,0.448,0.153,0.681,0.212c0.122,0.031,0.242,0.067,0.369,0.091c0.367,0.069,0.742,0.114,1.129,0.114l0,0l0,0l0,0l0,0
		c0.387,0,0.763-0.045,1.129-0.114C403.56,155.288,403.68,155.253,403.804,155.222z M402.305,153.727
		c-0.006,0-0.011-0.001-0.017-0.001c-2.469-0.01-4.475-2.018-4.475-4.491c0-0.31,0.032-0.612,0.092-0.904
		c0.42-2.045,2.234-3.588,4.4-3.588c2.166,0,3.981,1.542,4.4,3.588c0.06,0.293,0.092,0.595,0.092,0.904
		c0,2.471-2.007,4.481-4.475,4.491C402.316,153.724,402.311,153.727,402.305,153.727z"/>
</g>
<circle class="st5" cx="85.871" cy="149.235" r="6.961"/>
<path class="st0" d="M87.186,154.491c0.205-0.051,0.404-0.111,0.598-0.186c0.129-0.049,0.252-0.1,0.376-0.158
	c0.154-0.073,0.301-0.157,0.447-0.244c0.136-0.081,0.274-0.156,0.403-0.247c0.056-0.04,0.107-0.091,0.162-0.133
	c0.369-0.285,0.698-0.614,0.983-0.982c0.013-0.018,0.029-0.034,0.043-0.051c0.152-0.202,0.284-0.415,0.408-0.637
	c0.017-0.031,0.033-0.06,0.049-0.092c0.403-0.758,0.653-1.609,0.653-2.526c0-0.645-0.132-1.255-0.339-1.83v-0.001
	c0-0.001-0.001-0.001-0.001-0.002c-0.087-0.239-0.191-0.465-0.309-0.688c-0.022-0.043-0.045-0.086-0.07-0.127
	c-0.119-0.209-0.244-0.411-0.388-0.603c-0.029-0.04-0.064-0.076-0.096-0.115c-0.26-0.325-0.551-0.617-0.877-0.876
	c-0.077-0.061-0.147-0.13-0.227-0.187c-0.121-0.086-0.251-0.157-0.38-0.233c-0.153-0.092-0.307-0.179-0.469-0.255
	c-0.12-0.055-0.24-0.105-0.364-0.152c-0.197-0.076-0.399-0.137-0.607-0.189c-0.105-0.027-0.209-0.058-0.317-0.077
	c-0.322-0.06-0.651-0.1-0.992-0.1c-0.34,0-0.67,0.04-0.992,0.1c-0.108,0.02-0.211,0.051-0.317,0.077
	c-0.207,0.053-0.41,0.114-0.607,0.189c-0.124,0.047-0.245,0.097-0.364,0.152c-0.162,0.076-0.316,0.163-0.468,0.255
	c-0.129,0.076-0.258,0.147-0.381,0.233c-0.08,0.056-0.148,0.125-0.224,0.185c-0.327,0.258-0.62,0.551-0.879,0.877
	c-0.031,0.039-0.065,0.075-0.096,0.115c-0.145,0.191-0.269,0.393-0.388,0.603c-0.023,0.042-0.047,0.085-0.069,0.127
	c-0.118,0.223-0.223,0.449-0.31,0.689c0,0.001,0,0.001-0.001,0.002v0.001c-0.207,0.574-0.339,1.185-0.339,1.83
	c0,0.916,0.25,1.768,0.653,2.526c0.016,0.031,0.033,0.061,0.049,0.092c0.124,0.222,0.256,0.435,0.408,0.637
	c0.013,0.018,0.029,0.034,0.043,0.051c0.285,0.369,0.615,0.697,0.983,0.982c0.055,0.043,0.104,0.092,0.162,0.133
	c0.129,0.092,0.266,0.168,0.403,0.247c0.146,0.087,0.293,0.17,0.447,0.244c0.124,0.058,0.247,0.109,0.376,0.158
	c0.195,0.075,0.394,0.135,0.598,0.186c0.108,0.027,0.213,0.059,0.323,0.08c0.322,0.06,0.652,0.1,0.992,0.1l0,0l0,0l0,0l0,0
	c0.34,0,0.67-0.04,0.992-0.1C86.974,154.55,87.078,154.518,87.186,154.491z M85.871,153.178c-0.005,0-0.01-0.001-0.015-0.001
	c-2.168-0.009-3.929-1.772-3.929-3.942c0-0.272,0.028-0.538,0.081-0.794c0.369-1.795,1.961-3.15,3.864-3.15
	c1.902,0,3.495,1.354,3.864,3.15c0.053,0.256,0.081,0.522,0.081,0.794c0,2.17-1.762,3.934-3.929,3.942
	C85.881,153.177,85.876,153.178,85.871,153.178z"/>
</svg>
