<?xml version="1.0" encoding="utf-8"?>
<!-- Generator: Adobe Illustrator 22.0.1, SVG Export Plug-In . SVG Version: 6.00 Build 0)  -->
<svg version="1.1" id="Layer_1" xmlns="http://www.w3.org/2000/svg" xmlns:xlink="http://www.w3.org/1999/xlink" x="0px" y="0px"
	 viewBox="0 0 500 275" style="enable-background:new 0 0 500 275;" xml:space="preserve">
<style type="text/css">
	.st0{fill:#626871;}
</style>
<path class="st0" d="M70.659,36.402h-2.697v-2.698c0-0.443-0.359-0.802-0.802-0.802c-0.444,0-0.802,0.359-0.802,0.802v2.698H63.66
	c-0.443,0-0.802,0.359-0.802,0.802c0,0.443,0.359,0.802,0.802,0.802h2.698v2.698c0,0.443,0.359,0.802,0.802,0.802
	s0.802-0.359,0.802-0.802v-2.698h2.697c0.443,0,0.802-0.359,0.802-0.802C71.461,36.761,71.102,36.402,70.659,36.402z"/>
<path class="st0" d="M232.358,66.309h-2.697v-2.698c0-0.443-0.359-0.802-0.802-0.802c-0.444,0-0.802,0.359-0.802,0.802v2.698h-2.698
	c-0.443,0-0.802,0.359-0.802,0.802s0.359,0.802,0.802,0.802h2.698v2.698c0,0.443,0.359,0.802,0.802,0.802
	c0.443,0,0.802-0.359,0.802-0.802v-2.698h2.697c0.443,0,0.802-0.359,0.802-0.802S232.801,66.309,232.358,66.309z"/>
<path class="st0" d="M340.352,214.697h-2.697v-2.698c0-0.443-0.359-0.802-0.802-0.802c-0.444,0-0.802,0.359-0.802,0.802v2.698
	h-2.698c-0.443,0-0.802,0.359-0.802,0.802c0,0.443,0.359,0.802,0.802,0.802h2.698V219c0,0.443,0.359,0.802,0.802,0.802
	s0.802-0.359,0.802-0.802v-2.698h2.697c0.443,0,0.802-0.359,0.802-0.802C341.154,215.056,340.795,214.697,340.352,214.697z"/>
<g>
	<path class="st0" d="M341.322,62.783c-2.217,0-4.021-1.804-4.021-4.021s1.804-4.021,4.021-4.021s4.021,1.804,4.021,4.021
		C345.343,60.98,343.539,62.783,341.322,62.783z M341.322,56.513c-1.241,0-2.25,1.009-2.25,2.25s1.009,2.25,2.25,2.25
		s2.25-1.009,2.25-2.25S342.563,56.513,341.322,56.513z"/>
</g>
<g>
	<path class="st0" d="M112.406,211.844c-2.504,0-4.541-2.037-4.541-4.542c0-2.504,2.037-4.541,4.541-4.541s4.541,2.037,4.541,4.541
		S114.91,211.844,112.406,211.844z M112.406,204.761c-1.401,0-2.541,1.14-2.541,2.541s1.14,2.542,2.541,2.542
		s2.541-1.14,2.541-2.542C114.947,205.901,113.807,204.761,112.406,204.761z"/>
</g>
<path class="st0" d="M425.088,150.566h-40.337H95.412H55.075c-0.918,0-1.663,0.76-1.663,1.694c0,0.934,0.746,1.694,1.664,1.694
	h40.341h289.329h40.341c0.918,0,1.664-0.76,1.664-1.694S426.006,150.566,425.088,150.566z"/>
</svg>
