<?xml version="1.0" encoding="utf-8"?>
<!-- Generator: Adobe Illustrator 22.0.1, SVG Export Plug-In . SVG Version: 6.00 Build 0)  -->
<svg version="1.1" id="Layer_1" xmlns="http://www.w3.org/2000/svg" xmlns:xlink="http://www.w3.org/1999/xlink" x="0px" y="0px"
	 viewBox="0 0 35 65" style="enable-background:new 0 0 35 65;" xml:space="preserve">
<style type="text/css">
	.st0{fill:#626971;}
	.st1{fill:#4FA8B6;}
	.st2{fill:#FFFFFF;}
	.st3{fill:#ECEFF2;}
</style>
<g>
	<g>
		<g>
			<path class="st0" d="M30.959,24.95H3.9c-1.195,0-2.166-0.972-2.166-2.166V3.72c0-1.194,0.972-2.166,2.166-2.166h27.058
				c1.194,0,2.166,0.972,2.166,2.166v19.064C33.125,23.978,32.153,24.95,30.959,24.95z"/>
		</g>
		<g>
			<path class="st0" d="M32.833,22.036H2.026c-0.161,0-0.292-0.13-0.292-0.292s0.13-0.292,0.292-0.292h30.808
				c0.161,0,0.292,0.13,0.292,0.292C33.125,21.906,32.994,22.036,32.833,22.036z"/>
		</g>
		<g>
			<path class="st1" d="M2.026,22.591c0,1.142,0.84,2.067,1.875,2.067h27.058c1.036,0,1.875-0.926,1.875-2.067v-1.145H2.026V22.591z
				"/>
			<path class="st0" d="M30.959,24.95H3.9c-1.195,0-2.166-1.058-2.166-2.358v-1.145c0-0.161,0.13-0.292,0.292-0.292h30.808
				c0.161,0,0.292,0.13,0.292,0.292v1.145C33.125,23.892,32.153,24.95,30.959,24.95z M2.317,21.737v0.854
				c0,0.979,0.71,1.775,1.583,1.775h27.058c0.873,0,1.583-0.797,1.583-1.775v-0.854H2.317z"/>
		</g>
	</g>
	<g>
		<g>
			<path class="st0" d="M16.447,23.523h-3.922c-0.282,0-0.51-0.228-0.51-0.51s0.228-0.51,0.51-0.51h3.922
				c0.282,0,0.51,0.228,0.51,0.51S16.729,23.523,16.447,23.523z"/>
		</g>
		<g>
			<path class="st2" d="M3.842,23.333H3.775c-0.177,0-0.32-0.143-0.32-0.32s0.143-0.32,0.32-0.32h0.067
				c0.177,0,0.32,0.143,0.32,0.32S4.018,23.333,3.842,23.333z"/>
		</g>
		<g>
			<path class="st2" d="M5.51,23.333H5.005c-0.177,0-0.32-0.143-0.32-0.32s0.143-0.32,0.32-0.32H5.51c0.177,0,0.32,0.143,0.32,0.32
				S5.687,23.333,5.51,23.333z"/>
		</g>
		<g>
			<path class="st0" d="M22.334,23.523h-3.922c-0.282,0-0.51-0.228-0.51-0.51s0.228-0.51,0.51-0.51h3.922
				c0.282,0,0.51,0.228,0.51,0.51S22.616,23.523,22.334,23.523z"/>
		</g>
	</g>
	<path class="st2" d="M16.485,20.246H3.226V3.72c0-0.372,0.303-0.675,0.675-0.675h27.058 M30.959,3.045
		c0.372,0,0.675,0.303,0.675,0.675v16.526H16.485"/>
	<g>
		<path class="st1" d="M10.82,4.37c-0.078-0.041-0.166-0.028-0.197,0.029L4.87,15.338c-0.03,0.057,0.009,0.137,0.088,0.178
			c0.078,0.041,0.166,0.028,0.197-0.029l5.753-10.939C10.938,4.491,10.899,4.411,10.82,4.37z"/>
		<path class="st1" d="M5.279,12.273c0.078,0.041,0.157,0.047,0.174,0.013l3.43-6.521c0.018-0.034-0.031-0.095-0.11-0.136
			C8.695,5.587,8.616,5.581,8.599,5.615l-3.43,6.521C5.151,12.171,5.2,12.231,5.279,12.273z"/>
		<path class="st1" d="M10.53,7.688c-0.078-0.041-0.157-0.047-0.174-0.013l-3.43,6.521c-0.018,0.034,0.031,0.095,0.11,0.136
			c0.078,0.041,0.157,0.047,0.174,0.013l3.43-6.521C10.657,7.79,10.608,7.729,10.53,7.688z"/>
	</g>
	<g>
		<path class="st1" d="M30.226,12.11c-0.051-0.027-0.107-0.018-0.127,0.019L26.38,19.2c-0.02,0.037,0.006,0.089,0.057,0.115
			c0.051,0.027,0.107,0.018,0.127-0.019l3.719-7.071C30.302,12.188,30.277,12.137,30.226,12.11z"/>
		<path class="st1" d="M26.644,17.218c0.051,0.027,0.101,0.031,0.113,0.008l2.217-4.215c0.012-0.022-0.02-0.061-0.071-0.088
			c-0.051-0.027-0.101-0.031-0.113-0.008l-2.217,4.215C26.562,17.152,26.593,17.192,26.644,17.218z"/>
	</g>
</g>
<g>
	<g>
		<g>
			<path class="st3" d="M23.582,59.412c2.407,0,4.358-1.951,4.358-4.358c0-2.406-1.951-4.358-4.358-4.358
				c-0.545,0-1.065,0.104-1.545,0.286c-0.509-2.375-2.617-4.156-5.143-4.156c-2.427,0-4.464,1.646-5.072,3.88
				c-2.311,0.107-4.153,2.01-4.153,4.347c0,2.339,1.843,4.24,4.155,4.348L23.582,59.412z"/>
			<path class="st0" d="M23.582,59.613L23.582,59.613l-11.759-0.01c-2.447-0.113-4.356-2.112-4.356-4.549
				c0-2.389,1.833-4.355,4.2-4.54c0.691-2.297,2.819-3.889,5.226-3.889c2.482,0,4.67,1.708,5.288,4.093
				c0.455-0.148,0.925-0.223,1.4-0.223c2.514,0,4.559,2.045,4.559,4.559C28.141,57.568,26.096,59.613,23.582,59.613z M16.894,47.027
				c-2.275,0-4.28,1.534-4.878,3.731c-0.023,0.084-0.098,0.144-0.185,0.148C9.61,51.011,7.87,52.832,7.87,55.053
				c0,2.222,1.741,4.044,3.963,4.147l11.749,0.01c2.292,0,4.157-1.865,4.157-4.157c0-2.292-1.865-4.156-4.157-4.156
				c-0.502,0-0.998,0.092-1.473,0.273c-0.055,0.021-0.116,0.017-0.168-0.011c-0.051-0.028-0.088-0.077-0.101-0.135
				C21.344,48.708,19.264,47.027,16.894,47.027z"/>
		</g>
		<g>
			<path class="st0" d="M13.644,51.233c-0.017,0-0.035-0.002-0.053-0.007c-0.107-0.029-0.171-0.14-0.141-0.247
				c0.417-1.534,1.818-2.606,3.406-2.606c0.111,0,0.201,0.09,0.201,0.201c0,0.111-0.09,0.201-0.201,0.201
				c-1.407,0-2.648,0.949-3.017,2.308C13.813,51.174,13.732,51.233,13.644,51.233z"/>
		</g>
	</g>
	<g>
		<g>
			<path class="st0" d="M26.265,55.039c0.017,0,0.035,0.002,0.053,0.007c0.107,0.029,0.171,0.14,0.141,0.247
				c-0.417,1.534-1.818,2.606-3.406,2.606c-0.111,0-0.201-0.09-0.201-0.201c0-0.111,0.09-0.201,0.201-0.201
				c1.407,0,2.648-0.949,3.017-2.308C26.096,55.098,26.176,55.039,26.265,55.039z"/>
		</g>
	</g>
</g>
</svg>
