<?xml version="1.0" encoding="utf-8"?>
<!-- Generator: Adobe Illustrator 22.0.1, SVG Export Plug-In . SVG Version: 6.00 Build 0)  -->
<svg version="1.1" id="Layer_1" xmlns="http://www.w3.org/2000/svg" xmlns:xlink="http://www.w3.org/1999/xlink" x="0px" y="0px"
	 viewBox="0 0 500 275" style="enable-background:new 0 0 500 275;" xml:space="preserve">
<style type="text/css">
	.st0{fill:#626971;}
	.st1{fill:#4FA8B6;}
	.st2{fill:#FFFFFF;}
</style>
<path class="st0" d="M423.325,85.299h-2.697v-2.698c0-0.443-0.359-0.802-0.802-0.802c-0.444,0-0.802,0.359-0.802,0.802v2.698h-2.698
	c-0.443,0-0.802,0.359-0.802,0.802s0.359,0.802,0.802,0.802h2.698v2.698c0,0.443,0.359,0.802,0.802,0.802s0.802-0.359,0.802-0.802
	v-2.698h2.697c0.443,0,0.802-0.359,0.802-0.802C424.127,85.657,423.768,85.299,423.325,85.299z"/>
<path class="st0" d="M112.325,257.118h-2.697v-2.698c0-0.443-0.359-0.802-0.802-0.802c-0.444,0-0.802,0.359-0.802,0.802v2.698
	h-2.698c-0.443,0-0.802,0.359-0.802,0.802s0.359,0.802,0.802,0.802h2.698v2.698c0,0.443,0.359,0.802,0.802,0.802
	s0.802-0.359,0.802-0.802v-2.698h2.697c0.443,0,0.802-0.359,0.802-0.802C113.127,257.477,112.768,257.118,112.325,257.118z"/>
<path class="st0" d="M273.826,39.299h-2.697v-2.698c0-0.443-0.359-0.802-0.802-0.802c-0.444,0-0.802,0.359-0.802,0.802v2.698h-2.698
	c-0.443,0-0.802,0.359-0.802,0.802c0,0.443,0.359,0.802,0.802,0.802h2.698v2.698c0,0.443,0.359,0.802,0.802,0.802
	s0.802-0.359,0.802-0.802v-2.698h2.697c0.443,0,0.802-0.359,0.802-0.802C274.628,39.658,274.269,39.299,273.826,39.299z"/>
<g>
	<g>
		<g>
			<path class="st0" d="M331.949,235.934H142.821c-8.349,0-15.142-6.793-15.142-15.142V87.541c0-8.349,6.793-15.142,15.142-15.142
				h189.128c8.349,0,15.142,6.793,15.142,15.142v133.251C347.091,229.142,340.298,235.934,331.949,235.934z"/>
		</g>
		<g>
			<path class="st0" d="M345.054,215.567H129.717c-1.126,0-2.037-0.911-2.037-2.037s0.911-2.037,2.037-2.037h215.337
				c1.126,0,2.037,0.911,2.037,2.037S346.18,215.567,345.054,215.567z"/>
		</g>
		<g>
			<path class="st1" d="M129.717,219.448c0,7.98,5.868,14.449,13.105,14.449h189.125c7.238,0,13.106-6.469,13.106-14.449v-8.007
				H129.717V219.448z"/>
			<path class="st0" d="M331.949,235.934H142.821c-8.349,0-15.142-7.396-15.142-16.485v-8.007c0-1.126,0.911-2.037,2.037-2.037
				h215.337c1.126,0,2.037,0.911,2.037,2.037v8.007C347.091,228.539,340.298,235.934,331.949,235.934z M131.754,213.48v5.969
				c0,6.843,4.966,12.41,11.067,12.41h189.128c6.101,0,11.067-5.567,11.067-12.41v-5.969H131.754z"/>
		</g>
	</g>
	<g>
		<g>
			<path class="st0" d="M230.516,225.964h-27.414c-1.97,0-3.564-1.594-3.564-3.564s1.594-3.564,3.564-3.564h27.414
				c1.97,0,3.564,1.595,3.564,3.564C234.081,224.37,232.487,225.964,230.516,225.964z"/>
		</g>
		<g>
			<path class="st2" d="M142.409,224.635h-0.466c-1.236,0-2.236-1-2.236-2.236c0-1.235,1-2.236,2.236-2.236h0.466
				c1.236,0,2.236,1,2.236,2.236C144.644,223.636,143.645,224.635,142.409,224.635z"/>
		</g>
		<g>
			<path class="st2" d="M154.074,224.635h-3.529c-1.236,0-2.236-1-2.236-2.236c0-1.235,1-2.236,2.236-2.236h3.529
				c1.236,0,2.236,1,2.236,2.236C156.309,223.636,155.31,224.635,154.074,224.635z"/>
		</g>
		<g>
			<path class="st0" d="M271.668,225.964h-27.414c-1.97,0-3.564-1.594-3.564-3.564s1.594-3.564,3.564-3.564h27.414
				c1.97,0,3.564,1.595,3.564,3.564C275.233,224.37,273.639,225.964,271.668,225.964z"/>
		</g>
	</g>
	<path class="st2" d="M331.949,82.825c2.601,0,4.717,2.116,4.717,4.717v115.514H138.104V87.541c0-2.601,2.116-4.717,4.716-4.717
		L331.949,82.825"/>
	<g>
		<path class="st1" d="M191.187,92.088c-0.549-0.289-1.164-0.199-1.374,0.201L149.6,168.748c-0.21,0.4,0.064,0.957,0.613,1.246
			c0.549,0.289,1.164,0.199,1.374-0.201L191.8,93.334C192.011,92.934,191.737,92.377,191.187,92.088z"/>
		<path class="st1" d="M152.454,147.325c0.549,0.289,1.094,0.329,1.219,0.091l23.973-45.581c0.125-0.238-0.217-0.665-0.766-0.953
			c-0.549-0.289-1.094-0.329-1.219-0.091l-23.973,45.581C151.563,146.61,151.905,147.036,152.454,147.325z"/>
		<path class="st1" d="M189.158,115.275c-0.549-0.289-1.094-0.329-1.219-0.091l-23.973,45.581c-0.125,0.238,0.217,0.665,0.766,0.953
			c0.549,0.289,1.094,0.329,1.219,0.091l23.973-45.581C190.049,115.99,189.706,115.564,189.158,115.275z"/>
	</g>
	<g>
		<path class="st1" d="M326.83,146.189c-0.355-0.187-0.752-0.129-0.888,0.13l-25.993,49.422c-0.136,0.258,0.041,0.619,0.396,0.805
			c0.355,0.187,0.752,0.129,0.888-0.13l25.993-49.422C327.362,146.735,327.185,146.375,326.83,146.189z"/>
		<path class="st1" d="M301.793,181.893c0.355,0.187,0.707,0.213,0.788,0.059l15.496-29.463c0.081-0.154-0.14-0.43-0.495-0.616
			c-0.355-0.186-0.707-0.213-0.788-0.059l-15.496,29.463C301.217,181.431,301.439,181.707,301.793,181.893z"/>
	</g>
</g>
<g>
	<path class="st0" d="M434.378,175.622c-2.217,0-4.021-1.804-4.021-4.021s1.804-4.021,4.021-4.021s4.021,1.804,4.021,4.021
		S436.595,175.622,434.378,175.622z M434.378,169.351c-1.241,0-2.25,1.009-2.25,2.25s1.009,2.25,2.25,2.25s2.25-1.009,2.25-2.25
		C436.628,170.361,435.619,169.351,434.378,169.351z"/>
</g>
<g>
	<path class="st0" d="M64.587,182.142c-2.504,0-4.541-2.037-4.541-4.542c0-2.504,2.037-4.541,4.541-4.541
		c2.504,0,4.541,2.037,4.541,4.541C69.128,180.105,67.091,182.142,64.587,182.142z M64.587,175.06c-1.401,0-2.541,1.14-2.541,2.541
		s1.14,2.542,2.541,2.542s2.541-1.14,2.541-2.542C67.128,176.2,65.989,175.06,64.587,175.06z"/>
</g>
</svg>
