<?xml version="1.0" encoding="utf-8"?>
<!-- Generator: Adobe Illustrator 22.0.1, SVG Export Plug-In . SVG Version: 6.00 Build 0)  -->
<svg version="1.1" id="Layer_1" xmlns="http://www.w3.org/2000/svg" xmlns:xlink="http://www.w3.org/1999/xlink" x="0px" y="0px"
	 viewBox="0 0 25 5" style="enable-background:new 0 0 25 5;" xml:space="preserve">
<style type="text/css">
	.st0{fill:#FFFFFF;}
	.st1{fill:#616870;}
	.st2{fill:#4DA8B6;}
</style>
<g>
	<g>
		<path class="st0" d="M14.628,0.288h-3.864c-0.117,0-0.213,0.095-0.213,0.213v0.68H9.796c-0.121,0-0.22,0.099-0.22,0.22v2.394
			c0,0.121,0.099,0.22,0.22,0.22h0.273v0.671c0,0.028,0.016,0.053,0.041,0.065c0.01,0.004,0.02,0.007,0.03,0.007
			c0.016,0,0.033-0.006,0.046-0.017l0.865-0.726h2.655c0.121,0,0.22-0.099,0.22-0.22V3.132h0.702c0.117,0,0.213-0.095,0.213-0.213
			V0.501C14.841,0.384,14.745,0.288,14.628,0.288z"/>
	</g>
	<g>
		<g>
			<g>
				<path class="st1" d="M10.14,4.758c-0.01,0-0.021-0.002-0.03-0.007c-0.025-0.012-0.041-0.037-0.041-0.065V4.015H9.796
					c-0.121,0-0.22-0.099-0.22-0.22V1.401c0-0.121,0.099-0.22,0.22-0.22h3.91c0.121,0,0.22,0.099,0.22,0.22v2.394
					c0,0.121-0.099,0.22-0.22,0.22h-2.655l-0.865,0.726C10.173,4.752,10.157,4.758,10.14,4.758z M9.796,1.324
					c-0.043,0-0.077,0.035-0.077,0.077v2.394c0,0.043,0.035,0.077,0.077,0.077h0.345c0.039,0,0.071,0.032,0.071,0.071v0.59
					l0.768-0.644c0.013-0.011,0.029-0.017,0.046-0.017h2.681c0.043,0,0.077-0.035,0.077-0.077V1.401
					c0-0.043-0.035-0.077-0.077-0.077H9.796z"/>
			</g>
			<g>
				<path class="st2" d="M13.855,3.061h0.773c0.078,0,0.142-0.063,0.142-0.141V0.501c0-0.078-0.064-0.142-0.142-0.142h-3.864
					c-0.078,0-0.142,0.063-0.142,0.142v0.752h3.083c0.082,0,0.149,0.067,0.149,0.149V3.061z"/>
				<path class="st1" d="M14.628,3.132h-0.773c-0.039,0-0.071-0.032-0.071-0.071V1.401c0-0.043-0.035-0.077-0.077-0.077h-3.083
					c-0.039,0-0.071-0.032-0.071-0.071V0.501c0-0.117,0.096-0.213,0.213-0.213h3.864c0.117,0,0.213,0.095,0.213,0.213V2.92
					C14.841,3.037,14.745,3.132,14.628,3.132z M13.926,2.99h0.702c0.039,0,0.07-0.031,0.07-0.07V0.501c0-0.039-0.032-0.07-0.07-0.07
					h-3.864c-0.039,0-0.07,0.031-0.07,0.07v0.68h3.012c0.121,0,0.22,0.099,0.22,0.22V2.99z"/>
			</g>
		</g>
		<g>
			<path class="st1" d="M12.878,2.3h-2.296c-0.039,0-0.071-0.032-0.071-0.071c0-0.039,0.032-0.071,0.071-0.071h2.296
				c0.039,0,0.071,0.032,0.071,0.071C12.95,2.268,12.918,2.3,12.878,2.3z"/>
		</g>
		<g>
			<path class="st1" d="M12.878,3.084h-2.296c-0.039,0-0.071-0.032-0.071-0.071s0.032-0.071,0.071-0.071h2.296
				c0.039,0,0.071,0.032,0.071,0.071S12.918,3.084,12.878,3.084z"/>
		</g>
	</g>
</g>
</svg>
