<?xml version="1.0" encoding="utf-8"?>
<!-- Generator: Adobe Illustrator 22.0.1, SVG Export Plug-In . SVG Version: 6.00 Build 0)  -->
<svg version="1.1" id="Layer_1" xmlns="http://www.w3.org/2000/svg" xmlns:xlink="http://www.w3.org/1999/xlink" x="0px" y="0px"
	 viewBox="0 0 30 5" style="enable-background:new 0 0 30 5;" xml:space="preserve">
<style type="text/css">
	.st0{fill:#4EA8B5;}
</style>
<g>
	<g>
		<path d="M6.99,3.822H6.63v-1.75h0.36C6.99,2.072,6.99,3.822,6.99,3.822z"/>
		<path d="M8.545,3.822c-0.016-0.031-0.028-0.07-0.034-0.117C8.426,3.799,8.318,3.847,8.183,3.847c-0.127,0-0.233-0.037-0.317-0.11
			C7.783,3.662,7.74,3.569,7.74,3.457c0-0.139,0.051-0.243,0.153-0.317c0.102-0.074,0.25-0.111,0.443-0.112h0.159V2.953
			c0-0.061-0.016-0.108-0.047-0.144C8.419,2.773,8.37,2.755,8.304,2.755c-0.059,0-0.104,0.014-0.138,0.042
			C8.132,2.826,8.117,2.863,8.117,2.912H7.77c0-0.076,0.023-0.145,0.07-0.209c0.047-0.064,0.112-0.114,0.197-0.151
			c0.085-0.037,0.18-0.055,0.286-0.055c0.16,0,0.287,0.041,0.382,0.121c0.094,0.08,0.141,0.194,0.141,0.34v0.564
			c0.001,0.123,0.018,0.216,0.051,0.28v0.021H8.545z M8.259,3.581c0.051,0,0.098-0.011,0.142-0.034
			c0.043-0.022,0.075-0.053,0.096-0.091V3.231h-0.13c-0.174,0-0.267,0.06-0.277,0.18l-0.002,0.02c0,0.044,0.015,0.079,0.046,0.107
			C8.164,3.567,8.205,3.581,8.259,3.581z"/>
		<path d="M9,3.163c0-0.2,0.048-0.361,0.143-0.482c0.095-0.122,0.223-0.183,0.384-0.183c0.143,0,0.254,0.049,0.333,0.146
			l0.015-0.123h0.315v1.257c0,0.113-0.026,0.212-0.077,0.297C10.061,4.16,9.988,4.224,9.894,4.268C9.8,4.313,9.69,4.334,9.564,4.334
			c-0.096,0-0.189-0.018-0.279-0.057C9.195,4.239,9.126,4.19,9.08,4.13l0.154-0.212C9.32,4.016,9.425,4.064,9.549,4.064
			c0.093,0,0.164-0.025,0.215-0.074c0.051-0.05,0.077-0.119,0.077-0.209v-0.07c-0.08,0.09-0.186,0.136-0.317,0.136
			c-0.156,0-0.283-0.061-0.379-0.183C9.049,3.542,9.001,3.379,9.001,3.177L9,3.163L9,3.163z M9.347,3.187
			c0,0.118,0.024,0.211,0.071,0.278C9.465,3.533,9.53,3.566,9.612,3.566c0.106,0,0.182-0.04,0.227-0.12v-0.55
			c-0.047-0.08-0.122-0.12-0.225-0.12c-0.084,0-0.149,0.034-0.196,0.103C9.371,2.949,9.347,3.051,9.347,3.187z"/>
		<path d="M11.125,2.847c-0.048-0.006-0.089-0.01-0.125-0.01c-0.131,0-0.218,0.044-0.258,0.133v0.851h-0.347v-1.3h0.328l0.01,0.155
			c0.07-0.12,0.166-0.179,0.29-0.179c0.038,0,0.074,0.005,0.108,0.016L11.125,2.847z"/>
		<path d="M11.806,3.846c-0.191,0-0.346-0.058-0.466-0.176c-0.12-0.117-0.179-0.272-0.179-0.467V3.17c0-0.13,0.025-0.248,0.076-0.35
			c0.051-0.103,0.122-0.182,0.215-0.238c0.093-0.056,0.198-0.084,0.317-0.084c0.178,0,0.318,0.056,0.42,0.169
			c0.102,0.113,0.153,0.271,0.153,0.478v0.142h-0.829c0.011,0.084,0.045,0.153,0.102,0.205c0.057,0.051,0.128,0.077,0.215,0.077
			c0.134,0,0.238-0.048,0.314-0.146l0.171,0.192c-0.052,0.074-0.123,0.132-0.212,0.172C12.013,3.826,11.914,3.846,11.806,3.846z
			 M11.766,2.777c-0.069,0-0.125,0.023-0.168,0.07c-0.043,0.047-0.071,0.113-0.082,0.2h0.483V3.02
			c-0.002-0.077-0.022-0.137-0.063-0.179C11.896,2.799,11.841,2.777,11.766,2.777z"/>
		<path d="M13.075,3.846c-0.191,0-0.346-0.058-0.466-0.176c-0.12-0.117-0.179-0.272-0.179-0.467V3.17c0-0.13,0.025-0.248,0.076-0.35
			c0.051-0.103,0.122-0.182,0.215-0.238c0.093-0.056,0.198-0.084,0.317-0.084c0.178,0,0.318,0.056,0.421,0.169
			c0.102,0.112,0.153,0.271,0.153,0.478v0.142h-0.829c0.011,0.084,0.045,0.153,0.102,0.205c0.057,0.051,0.128,0.077,0.214,0.077
			c0.134,0,0.239-0.048,0.314-0.146l0.171,0.192c-0.052,0.074-0.123,0.132-0.212,0.172C13.282,3.826,13.184,3.846,13.075,3.846z
			 M13.036,2.777c-0.069,0-0.125,0.023-0.168,0.07c-0.043,0.047-0.071,0.113-0.082,0.2h0.484V3.02
			c-0.002-0.077-0.022-0.137-0.063-0.179C13.167,2.799,13.11,2.777,13.036,2.777z"/>
	</g>
	<rect x="-0.017" y="0.028" width="4.959" height="4.959"/>
	<polygon class="st0" points="3.447,1.268 2.139,2.576 1.571,2.007 0.944,2.634 1.512,3.202 1.512,3.202 2.139,3.829 2.766,3.202 
		4.073,1.894 	"/>
</g>
</svg>
