<?xml version="1.0" encoding="utf-8"?>
<!-- Generator: Adobe Illustrator 22.0.1, SVG Export Plug-In . SVG Version: 6.00 Build 0)  -->
<svg version="1.1" id="Layer_1" xmlns="http://www.w3.org/2000/svg" xmlns:xlink="http://www.w3.org/1999/xlink" x="0px" y="0px"
	 viewBox="0 0 25 5" style="enable-background:new 0 0 25 5;" xml:space="preserve">
<style type="text/css">
	.st0{fill:#51A8B6;}
	.st1{fill:#636A72;}
	.st2{fill:#FFFFFF;}
</style>
<g>
	<g>
		<g>
			<path class="st0" d="M14.645,2.494c0,1.188-0.963,2.151-2.151,2.151s-2.151-0.963-2.151-2.151s0.963-2.151,2.151-2.151
				C13.682,0.342,14.645,1.306,14.645,2.494z"/>
			<path class="st1" d="M12.494,4.833c-1.29,0-2.339-1.049-2.339-2.339s1.049-2.339,2.339-2.339s2.339,1.049,2.339,2.339
				S13.784,4.833,12.494,4.833z M12.494,0.53c-1.083,0-1.963,0.881-1.963,1.963c0,1.082,0.881,1.963,1.963,1.963
				c1.083,0,1.963-0.881,1.963-1.963C14.457,1.411,13.577,0.53,12.494,0.53z"/>
		</g>
	</g>
	<polygon class="st2" points="13.228,1.51 12.205,2.533 11.76,2.089 11.185,2.664 11.63,3.108 12.173,3.651 12.748,3.076 
		13.771,2.054 	"/>
</g>
</svg>
