<?xml version="1.0" encoding="utf-8"?>
<!-- Generator: Adobe Illustrator 22.1.0, SVG Export Plug-In . SVG Version: 6.00 Build 0)  -->
<svg version="1.1" id="Layer_1" xmlns="http://www.w3.org/2000/svg" xmlns:xlink="http://www.w3.org/1999/xlink" x="0px" y="0px"
	 viewBox="0 0 45 45" style="enable-background:new 0 0 45 45;" xml:space="preserve">
<style type="text/css">
	.st0{fill:#616870;}
	.st1{fill:#EBEFF2;}
	.st2{fill:#4DA8B6;}
</style>
<g>
	<path class="st0" d="M1003.735,141.346v1.665c0,0.143-0.116,0.259-0.259,0.259c-0.143,0-0.259-0.116-0.259-0.259v-1.665
		c0-0.143,0.116-0.259,0.259-0.259C1003.619,141.087,1003.735,141.202,1003.735,141.346z"/>
</g>
<g>
	<path class="st0" d="M999.994,137.632v1.233c0,0.143-0.116,0.259-0.259,0.259c-0.143,0-0.259-0.116-0.259-0.259v-1.233
		c0-0.143,0.116-0.259,0.259-0.259C999.879,137.373,999.994,137.489,999.994,137.632z"/>
</g>
<g>
	<g>
		<path class="st0" d="M35.227,18.441h-5.764h-1.242H10.238c-0.457,0-0.83,0.372-0.83,0.83v17.542c0,0.142,0.115,0.257,0.257,0.257
			c0.142,0,0.257-0.115,0.257-0.257V19.271c0-0.174,0.142-0.316,0.316-0.316h17.984h1.242h5.764c0.174,0,0.316,0.142,0.316,0.316
			v17.542c0,0.142,0.115,0.257,0.257,0.257c0.142,0,0.257-0.115,0.257-0.257V19.271C36.057,18.814,35.684,18.441,35.227,18.441z"/>
		<g>
			<g>
				<path class="st1" d="M33.83,20.196H11.634c-0.281,0-0.509,0.228-0.509,0.509v14.098c0,0.281,0.227,0.509,0.509,0.509H33.83
					c0.281,0,0.509-0.228,0.509-0.509V20.705C34.339,20.424,34.112,20.196,33.83,20.196z"/>
				<path class="st0" d="M33.83,19.939H11.635c-0.422,0-0.766,0.344-0.766,0.766v14.097c0,0.423,0.344,0.766,0.766,0.766H33.83
					c0.422,0,0.766-0.344,0.766-0.766V20.705C34.596,20.283,34.252,19.939,33.83,19.939z M34.082,34.802
					c0,0.139-0.113,0.252-0.252,0.252H11.635c-0.139,0-0.252-0.113-0.252-0.252V20.705c0-0.139,0.113-0.252,0.252-0.252h17.214
					h4.982c0.139,0,0.252,0.113,0.252,0.252V34.802z"/>
			</g>
		</g>
		<g>
			<g>
				<path class="st0" d="M38.796,38.967H6.669c-0.544,0-1.04-0.275-1.329-0.735l-0.753-1.29c-0.047-0.079-0.047-0.178-0.001-0.258
					c0.046-0.08,0.131-0.129,0.223-0.129h13.176c0.081,0,0.157,0.038,0.205,0.102c0.239,0.318,0.617,0.508,1.01,0.508h7.067
					c0.393,0,0.77-0.19,1.01-0.508c0.049-0.064,0.124-0.102,0.205-0.102h13.176c0.092,0,0.177,0.049,0.223,0.129
					c0.046,0.08,0.046,0.178-0.001,0.258l-0.749,1.283C39.836,38.692,39.34,38.967,38.796,38.967z M5.256,37.07l0.523,0.896
					c0.19,0.303,0.524,0.487,0.889,0.487h32.127c0.365,0,0.699-0.185,0.893-0.494l0.519-0.889H27.603
					c-0.337,0.385-0.827,0.61-1.337,0.61h-7.067c-0.51,0-1-0.226-1.337-0.61H5.256z"/>
			</g>
		</g>
	</g>
	<g>
		<g>
			<g>
				<path class="st2" d="M26.217,27.805c0.006-0.133,0.006-0.265-0.002-0.396l0.965-0.674c-0.075-0.367-0.197-0.719-0.357-1.053
					l-1.17,0.044c-0.072-0.111-0.155-0.218-0.24-0.319l0.383-1.11c-0.269-0.247-0.572-0.467-0.903-0.646l-0.928,0.728
					c-0.062-0.023-0.122-0.048-0.185-0.069c-0.064-0.02-0.128-0.033-0.194-0.049l-0.342-1.128c-0.375-0.043-0.747-0.035-1.112,0.013
					l-0.321,1.129c-0.129,0.036-0.255,0.076-0.378,0.126l-0.936-0.705c-0.322,0.181-0.623,0.401-0.893,0.658l0.405,1.106
					c-0.082,0.102-0.158,0.21-0.231,0.323l-1.175-0.022c-0.076,0.168-0.146,0.339-0.203,0.52c-0.056,0.18-0.098,0.361-0.13,0.542
					l0.976,0.656c-0.006,0.133-0.006,0.264,0.002,0.396l-0.965,0.674c0.076,0.365,0.199,0.719,0.359,1.053l1.169-0.044
					c0.072,0.111,0.154,0.218,0.239,0.319l-0.382,1.11c0.27,0.248,0.572,0.467,0.904,0.647l0.926-0.728
					c0.062,0.023,0.122,0.048,0.186,0.069c0.064,0.019,0.125,0.033,0.191,0.049l0.343,1.128c0.375,0.043,0.749,0.035,1.112-0.013
					l0.319-1.129c0.13-0.036,0.257-0.075,0.379-0.126l0.936,0.705c0.322-0.182,0.625-0.401,0.895-0.658l-0.405-1.106
					c0.08-0.103,0.158-0.21,0.229-0.323l1.175,0.022c0.077-0.168,0.147-0.34,0.203-0.52c0.057-0.18,0.098-0.361,0.131-0.541
					L26.217,27.805z M24.649,28.243c-0.332,1.059-1.46,1.647-2.519,1.314c-1.059-0.333-1.648-1.461-1.315-2.52
					c0.333-1.059,1.461-1.647,2.52-1.315C24.393,26.056,24.981,27.185,24.649,28.243z"/>
				<path class="st0" d="M22.717,32.305c-0.173,0-0.344-0.009-0.512-0.028c-0.05-0.006-0.093-0.041-0.108-0.09l-0.322-1.058
					c-0.043-0.01-0.084-0.021-0.126-0.033c-0.046-0.015-0.087-0.03-0.128-0.046l-0.869,0.683c-0.04,0.032-0.095,0.036-0.14,0.012
					c-0.333-0.18-0.645-0.404-0.93-0.666c-0.037-0.034-0.051-0.088-0.034-0.136l0.358-1.043c-0.061-0.076-0.114-0.147-0.161-0.215
					l-1.098,0.042c-0.049-0.002-0.098-0.027-0.12-0.073c-0.169-0.353-0.293-0.717-0.368-1.082c-0.01-0.05,0.01-0.101,0.052-0.131
					l0.907-0.634c-0.004-0.085-0.004-0.172-0.001-0.265l-0.917-0.616c-0.042-0.028-0.063-0.079-0.054-0.129
					c0.035-0.199,0.079-0.381,0.134-0.557c0.052-0.164,0.116-0.328,0.209-0.534c0.021-0.046,0.074-0.072,0.119-0.075l1.104,0.02
					c0.052-0.078,0.103-0.15,0.155-0.217l-0.38-1.039c-0.017-0.048-0.005-0.101,0.032-0.137c0.273-0.26,0.582-0.488,0.919-0.677
					c0.044-0.025,0.1-0.021,0.14,0.009l0.878,0.663c0.076-0.029,0.159-0.056,0.254-0.084l0.301-1.061
					c0.014-0.049,0.056-0.085,0.106-0.092c0.387-0.051,0.772-0.056,1.144-0.013c0.051,0.006,0.093,0.041,0.108,0.09l0.321,1.058
					c0.044,0.01,0.087,0.021,0.13,0.034c0.044,0.014,0.084,0.03,0.125,0.046l0.87-0.683c0.04-0.031,0.095-0.035,0.14-0.012
					c0.334,0.182,0.646,0.406,0.928,0.665c0.037,0.034,0.051,0.088,0.034,0.136l-0.36,1.043c0.061,0.074,0.114,0.146,0.162,0.215
					l1.099-0.042c0.052,0,0.098,0.027,0.12,0.073c0.168,0.351,0.292,0.716,0.367,1.082c0.01,0.05-0.01,0.101-0.052,0.131
					l-0.907,0.634c0.004,0.085,0.004,0.173,0.001,0.265l0.918,0.616c0.042,0.028,0.064,0.079,0.054,0.129
					c-0.04,0.214-0.083,0.391-0.135,0.557c-0.051,0.165-0.118,0.335-0.209,0.534c-0.021,0.046-0.072,0.073-0.119,0.075l-1.103-0.02
					c-0.044,0.067-0.094,0.136-0.154,0.216l0.381,1.04c0.017,0.048,0.005,0.101-0.032,0.137c-0.268,0.255-0.577,0.483-0.92,0.677
					c-0.044,0.025-0.099,0.021-0.14-0.009l-0.878-0.662c-0.075,0.029-0.158,0.056-0.256,0.084l-0.3,1.06
					c-0.014,0.049-0.056,0.085-0.106,0.092C23.137,32.291,22.926,32.305,22.717,32.305z M22.317,32.032
					c0.3,0.028,0.607,0.024,0.915-0.011l0.296-1.048c0.012-0.043,0.046-0.077,0.089-0.089c0.151-0.041,0.264-0.079,0.364-0.121
					c0.041-0.017,0.09-0.011,0.126,0.016l0.868,0.654c0.27-0.159,0.517-0.341,0.736-0.541l-0.376-1.027
					c-0.015-0.041-0.008-0.087,0.019-0.122c0.095-0.123,0.164-0.219,0.222-0.313c0.024-0.038,0.059-0.061,0.111-0.06l1.09,0.02
					c0.069-0.157,0.121-0.294,0.163-0.428c0.043-0.134,0.079-0.277,0.112-0.444l-0.907-0.609c-0.037-0.025-0.059-0.067-0.056-0.112
					c0.006-0.138,0.005-0.263-0.002-0.382c-0.003-0.044,0.018-0.087,0.054-0.113l0.895-0.626c-0.066-0.293-0.165-0.583-0.294-0.866
					l-1.086,0.041c-0.044,0-0.087-0.02-0.112-0.058c-0.063-0.097-0.139-0.197-0.231-0.307c-0.029-0.034-0.038-0.082-0.023-0.124
					l0.356-1.031c-0.229-0.203-0.478-0.381-0.742-0.532l-0.861,0.676c-0.035,0.028-0.083,0.035-0.124,0.019l-0.054-0.021
					c-0.041-0.016-0.083-0.032-0.125-0.046c-0.047-0.014-0.096-0.026-0.147-0.037l-0.036-0.008c-0.044-0.01-0.08-0.044-0.093-0.087
					l-0.317-1.047c-0.299-0.027-0.606-0.024-0.915,0.011l-0.297,1.047c-0.012,0.043-0.046,0.076-0.089,0.088
					c-0.148,0.041-0.26,0.079-0.364,0.121c-0.041,0.017-0.089,0.011-0.125-0.016l-0.868-0.655c-0.266,0.156-0.513,0.338-0.735,0.541
					l0.376,1.027c0.015,0.042,0.007,0.089-0.021,0.124c-0.074,0.092-0.147,0.194-0.223,0.311c-0.024,0.037-0.068,0.057-0.11,0.059
					l-1.09-0.02c-0.07,0.162-0.122,0.296-0.164,0.429c-0.043,0.141-0.08,0.287-0.111,0.444l0.906,0.609
					c0.037,0.025,0.058,0.067,0.056,0.112c-0.006,0.139-0.005,0.264,0.002,0.383c0.003,0.044-0.018,0.087-0.054,0.113l-0.895,0.626
					c0.066,0.292,0.165,0.582,0.295,0.866l1.084-0.041c0.044,0.002,0.088,0.02,0.112,0.058c0.061,0.094,0.136,0.195,0.23,0.307
					c0.028,0.034,0.037,0.081,0.022,0.123l-0.354,1.03c0.231,0.204,0.48,0.383,0.743,0.533l0.859-0.675
					c0.034-0.027,0.081-0.035,0.123-0.02l0.07,0.026c0.037,0.014,0.074,0.028,0.112,0.041c0.056,0.016,0.114,0.03,0.175,0.044
					c0.044,0.01,0.085,0.045,0.099,0.089L22.317,32.032z M22.735,29.779c-0.215,0-0.432-0.033-0.643-0.099
					c-1.125-0.353-1.752-1.556-1.399-2.68c0.353-1.124,1.555-1.751,2.68-1.399c1.124,0.354,1.751,1.557,1.398,2.681
					c-0.171,0.545-0.543,0.99-1.05,1.254C23.411,29.697,23.074,29.779,22.735,29.779z M22.734,25.758
					c-0.801,0-1.545,0.515-1.797,1.318c-0.311,0.99,0.242,2.048,1.232,2.36c0.48,0.151,0.989,0.105,1.435-0.127
					c0.445-0.232,0.774-0.625,0.924-1.104h0c0.311-0.99-0.241-2.049-1.231-2.36C23.109,25.786,22.92,25.758,22.734,25.758z"/>
			</g>
		</g>
		<g>
			<path class="st0" d="M22.732,28.326c-0.071,0-0.128-0.057-0.128-0.128v-1.116c0-0.071,0.057-0.128,0.128-0.128
				c0.071,0,0.128,0.057,0.128,0.128v1.116C22.859,28.269,22.802,28.326,22.732,28.326z"/>
		</g>
		<g>
			<path class="st0" d="M23.289,27.768h-1.116c-0.071,0-0.128-0.057-0.128-0.128c0-0.071,0.057-0.128,0.128-0.128h1.116
				c0.071,0,0.128,0.057,0.128,0.128C23.417,27.711,23.36,27.768,23.289,27.768z"/>
		</g>
		<g>
			<path class="st0" d="M22.739,30.411c-0.182,0-0.366-0.018-0.548-0.054c-0.726-0.145-1.351-0.564-1.762-1.179
				c-0.411-0.616-0.557-1.354-0.412-2.08c0.299-1.497,1.762-2.472,3.259-2.174c1.497,0.299,2.472,1.762,2.173,3.26l0,0
				c-0.144,0.725-0.563,1.351-1.178,1.761C23.809,30.252,23.28,30.411,22.739,30.411z M22.732,25.126
				c-1.174,0-2.227,0.828-2.466,2.022c-0.131,0.658,0.001,1.329,0.374,1.888c0.373,0.559,0.941,0.939,1.6,1.071
				c0.658,0.131,1.329-0.001,1.888-0.374c0.559-0.373,0.938-0.94,1.069-1.599l0,0c0.271-1.36-0.614-2.687-1.973-2.959
				C23.059,25.142,22.894,25.126,22.732,25.126z"/>
		</g>
	</g>
	<g>
		<g>
			<path class="st0" d="M28.421,14.358v2.008c0,0.166-0.134,0.3-0.3,0.3c-0.166,0-0.3-0.134-0.3-0.3v-2.008
				c0-0.166,0.134-0.3,0.3-0.3C28.287,14.058,28.421,14.192,28.421,14.358z"/>
		</g>
		<g>
			<path class="st0" d="M28.421,12.019v0.679c0,0.166-0.134,0.3-0.3,0.3c-0.166,0-0.3-0.134-0.3-0.3v-0.679
				c0-0.166,0.134-0.3,0.3-0.3C28.287,11.719,28.421,11.853,28.421,12.019z"/>
		</g>
		<g>
			<path class="st0" d="M23.159,12.196v4.17c0,0.166-0.134,0.3-0.3,0.3c-0.166,0-0.3-0.134-0.3-0.3v-4.17c0-0.166,0.134-0.3,0.3-0.3
				C23.025,11.896,23.159,12.03,23.159,12.196z"/>
		</g>
		<g>
			<path class="st0" d="M23.159,8.468v2.009c0,0.166-0.134,0.3-0.3,0.3c-0.166,0-0.3-0.134-0.3-0.3V8.468c0-0.166,0.134-0.3,0.3-0.3
				C23.025,8.169,23.159,8.303,23.159,8.468z"/>
		</g>
		<g>
			<path class="st0" d="M17.896,13.394v2.972c0,0.166-0.134,0.3-0.3,0.3c-0.166,0-0.3-0.134-0.3-0.3v-2.972
				c0-0.166,0.134-0.3,0.3-0.3C17.762,13.094,17.896,13.228,17.896,13.394z"/>
		</g>
		<g>
			<path class="st0" d="M17.896,8.056v3.776c0,0.166-0.134,0.3-0.3,0.3c-0.166,0-0.3-0.134-0.3-0.3V8.056c0-0.166,0.134-0.3,0.3-0.3
				C17.762,7.756,17.896,7.89,17.896,8.056z"/>
		</g>
		<g>
			<path class="st0" d="M17.896,5.3v0.744c0,0.166-0.134,0.3-0.3,0.3c-0.166,0-0.3-0.134-0.3-0.3V5.3c0-0.166,0.134-0.3,0.3-0.3
				C17.762,5,17.896,5.134,17.896,5.3z"/>
		</g>
	</g>
</g>
</svg>
