<?xml version="1.0" encoding="utf-8"?>
<!-- Generator: Adobe Illustrator 22.1.0, SVG Export Plug-In . SVG Version: 6.00 Build 0)  -->
<svg version="1.1" id="Layer_1" xmlns="http://www.w3.org/2000/svg" xmlns:xlink="http://www.w3.org/1999/xlink" x="0px" y="0px"
	 viewBox="0 0 45 45" style="enable-background:new 0 0 45 45;" xml:space="preserve">
<style type="text/css">
	.st0{fill:#616870;}
	.st1{fill:#4DA8B6;}
	.st2{fill:#EBEFF2;}
</style>
<g>
	<path class="st0" d="M1003.735,141.346v1.665c0,0.143-0.116,0.259-0.259,0.259c-0.143,0-0.259-0.116-0.259-0.259v-1.665
		c0-0.143,0.116-0.259,0.259-0.259C1003.619,141.087,1003.735,141.202,1003.735,141.346z"/>
</g>
<g>
	<path class="st0" d="M999.994,137.632v1.233c0,0.143-0.116,0.259-0.259,0.259c-0.143,0-0.259-0.116-0.259-0.259v-1.233
		c0-0.143,0.116-0.259,0.259-0.259C999.879,137.373,999.994,137.489,999.994,137.632z"/>
</g>
<g>
	<path class="st1" d="M23.719,22.507c1.237-0.002,2.239-1.007,2.236-2.243c-0.002-1.242-1.007-2.236-2.261-2.235
		c-1.215,0-2.22,1.01-2.218,2.23C21.477,21.511,22.472,22.509,23.719,22.507z"/>
	<g>
		<g>
			<path class="st0" d="M33.969,30.989H7.87c-0.57,0-1.034-0.464-1.034-1.034V11.7c0-0.569,0.464-1.033,1.034-1.033h26.099
				c0.569,0,1.033,0.464,1.033,1.033v18.255C35.001,30.525,34.538,30.989,33.969,30.989z M7.87,11.168
				c-0.293,0-0.532,0.238-0.532,0.531v18.255c0,0.293,0.238,0.532,0.532,0.532h26.099c0.293,0,0.531-0.239,0.531-0.532V11.7
				c0-0.293-0.238-0.531-0.531-0.531H7.87z"/>
		</g>
		<g>
			<path class="st1" d="M7.088,11.7c0-0.432,0.351-0.782,0.783-0.782h26.099c0.432,0,0.782,0.35,0.782,0.782v3.507H7.088V11.7z"/>
			<path class="st0" d="M34.75,15.458H7.087c-0.139,0-0.251-0.112-0.251-0.251V11.7c0-0.569,0.464-1.033,1.034-1.033h26.099
				c0.569,0,1.033,0.464,1.033,1.033v3.507C35.001,15.345,34.889,15.458,34.75,15.458z M7.338,14.956H34.5V11.7
				c0-0.293-0.238-0.531-0.531-0.531H7.87c-0.293,0-0.532,0.238-0.532,0.531V14.956z"/>
		</g>
		<g>
			<path class="st2" d="M9.434,30.738v2.256c0,0.432,0.351,0.783,0.783,0.783h26.49c0.432,0,0.782-0.35,0.782-0.783V14.738
				c0-0.432-0.35-0.782-0.782-0.782h-1.956v15.999c0,0.432-0.35,0.783-0.782,0.783H9.434z"/>
			<path class="st0" d="M36.707,34.027h-26.49c-0.57,0-1.034-0.464-1.034-1.034v-2.256c0-0.139,0.112-0.251,0.251-0.251h24.534
				c0.293,0,0.531-0.239,0.531-0.532V13.956c0-0.139,0.112-0.251,0.251-0.251h1.956c0.569,0,1.033,0.464,1.033,1.033v18.255
				C37.739,33.564,37.276,34.027,36.707,34.027z M9.685,30.989v2.005c0,0.293,0.238,0.532,0.532,0.532h26.49
				c0.293,0,0.531-0.239,0.531-0.532V14.738c0-0.293-0.238-0.531-0.531-0.531h-1.705v15.748c0,0.57-0.463,1.034-1.033,1.034H9.685z"
				/>
		</g>
	</g>
	<g id="EhNRnP_1_">
		<g>
			<path class="st0" d="M16.157,26.333c0.041,0.196,0.078,0.372,0.113,0.548c0.023,0.115,0.11,0.11,0.197,0.11
				c0.635-0.001,1.269-0.001,1.904-0.001c1.974,0,3.948,0,5.921,0.001c0.239,0,0.373,0.113,0.374,0.311
				c0.002,0.2-0.142,0.321-0.384,0.321c-2.608,0-5.217,0-7.825,0c-0.466,0-0.721-0.212-0.818-0.666
				c-0.581-2.718-1.163-5.435-1.744-8.153c-0.031-0.146-0.111-0.235-0.255-0.282c-0.498-0.161-0.995-0.329-1.491-0.496
				c-0.222-0.075-0.317-0.252-0.24-0.438c0.063-0.153,0.224-0.233,0.398-0.177c0.555,0.181,1.111,0.36,1.659,0.56
				c0.284,0.104,0.461,0.331,0.53,0.627c0.096,0.413,0.182,0.828,0.268,1.244c0.016,0.076,0.039,0.11,0.124,0.11
				c1.979-0.003,3.958-0.003,5.936-0.005c0.005,0,0.009-0.004,0.023-0.009c0.032-0.143,0.06-0.294,0.1-0.441
				c0.365-1.33,1.601-2.187,3.017-2.095c1.293,0.085,2.408,1.135,2.592,2.45c0.127,0.912-0.133,1.707-0.751,2.388
				c-0.052,0.058-0.096,0.127-0.127,0.198c-0.233,0.546-0.474,1.089-0.69,1.642c-0.247,0.631-0.701,0.953-1.366,1.055
				c-1.796,0.274-3.588,0.571-5.382,0.859c-0.646,0.104-1.291,0.206-1.937,0.309C16.259,26.311,16.216,26.321,16.157,26.333z
				 M16.02,25.706c0.912-0.145,1.803-0.287,2.695-0.43c1.651-0.265,3.301-0.53,4.952-0.796c0.319-0.051,0.552-0.216,0.678-0.52
				c0.123-0.295,0.249-0.588,0.373-0.882c0.015-0.034,0.023-0.071,0.041-0.127c-0.893,0.314-1.74,0.257-2.534-0.227
				c-0.795-0.485-1.239-1.21-1.373-2.132c-1.972,0-3.939,0-5.926,0C15.29,22.299,15.653,23.994,16.02,25.706z M23.719,22.507
				c1.237-0.002,2.239-1.007,2.236-2.243c-0.002-1.242-1.007-2.236-2.261-2.235c-1.215,0-2.22,1.01-2.218,2.23
				C21.477,21.511,22.472,22.509,23.719,22.507z"/>
			<path class="st0" d="M16.669,32.096c-0.878-0.003-1.588-0.716-1.589-1.594c-0.001-0.881,0.721-1.596,1.607-1.591
				c0.886,0.005,1.593,0.722,1.588,1.609C18.269,31.394,17.55,32.099,16.669,32.096z M15.719,30.506
				c0.002,0.533,0.43,0.959,0.962,0.958c0.527-0.001,0.964-0.44,0.961-0.965c-0.002-0.527-0.439-0.959-0.968-0.958
				C16.144,29.543,15.718,29.973,15.719,30.506z"/>
			<path class="st0" d="M23.714,28.909c0.878-0.001,1.591,0.708,1.597,1.587c0.006,0.881-0.714,1.601-1.598,1.6
				c-0.88-0.001-1.595-0.711-1.596-1.586C22.115,29.624,22.827,28.91,23.714,28.909z M24.673,30.498
				c-0.004-0.534-0.434-0.96-0.964-0.956c-0.531,0.004-0.959,0.435-0.959,0.966c0.001,0.526,0.438,0.958,0.968,0.957
				C24.247,31.464,24.677,31.029,24.673,30.498z"/>
			<path class="st0" d="M23.366,20.617c0.419-0.408,0.804-0.786,1.193-1.16c0.056-0.054,0.123-0.109,0.195-0.13
				c0.135-0.039,0.257,0.003,0.341,0.124c0.078,0.113,0.07,0.264-0.018,0.377c-0.025,0.031-0.054,0.059-0.082,0.088
				c-0.436,0.44-0.872,0.88-1.308,1.32c-0.203,0.205-0.353,0.205-0.562,0c-0.232-0.227-0.463-0.455-0.694-0.684
				c-0.183-0.182-0.204-0.366-0.059-0.509c0.143-0.141,0.327-0.121,0.509,0.064C23.049,20.276,23.211,20.453,23.366,20.617z"/>
		</g>
	</g>
	<path class="st2" d="M15.719,30.506c0.002,0.533,0.43,0.959,0.962,0.958c0.527-0.001,0.964-0.44,0.961-0.965
		c-0.002-0.527-0.439-0.959-0.968-0.958C16.144,29.543,15.718,29.973,15.719,30.506z"/>
	<path class="st2" d="M24.673,30.498c-0.004-0.534-0.434-0.96-0.964-0.956c-0.531,0.004-0.959,0.435-0.959,0.966
		c0.001,0.526,0.438,0.958,0.968,0.957C24.247,31.464,24.677,31.029,24.673,30.498z"/>
</g>
</svg>
