<?xml version="1.0" encoding="utf-8"?>
<!-- Generator: Adobe Illustrator 22.1.0, SVG Export Plug-In . SVG Version: 6.00 Build 0)  -->
<svg version="1.1" id="Layer_1" xmlns="http://www.w3.org/2000/svg" xmlns:xlink="http://www.w3.org/1999/xlink" x="0px" y="0px"
	 viewBox="0 0 45 45" style="enable-background:new 0 0 45 45;" xml:space="preserve">
<style type="text/css">
	.st0{fill:#616870;}
	.st1{fill:#EBEFF2;}
	.st2{fill:#FFFFFF;}
	.st3{fill:#4DA8B6;}
</style>
<g>
	<path class="st0" d="M1003.735,141.346v1.665c0,0.143-0.116,0.259-0.259,0.259c-0.143,0-0.259-0.116-0.259-0.259v-1.665
		c0-0.143,0.116-0.259,0.259-0.259C1003.619,141.087,1003.735,141.202,1003.735,141.346z"/>
</g>
<g>
	<path class="st0" d="M999.994,137.632v1.233c0,0.143-0.116,0.259-0.259,0.259c-0.143,0-0.259-0.116-0.259-0.259v-1.233
		c0-0.143,0.116-0.259,0.259-0.259C999.879,137.373,999.994,137.489,999.994,137.632z"/>
</g>
<g>
	<g>
		<path class="st1" d="M30.63,12.434c0.351,0,0.635,0.285,0.635,0.634v20.455c0,0.35-0.285,0.634-0.636,0.634H13.972
			c-0.351,0-0.635-0.285-0.635-0.634V13.069c0-0.35,0.285-0.634,0.636-0.634h4.135H30.63z"/>
		<path class="st0" d="M30.629,34.38H13.972c-0.473,0-0.857-0.384-0.857-0.856V13.069c0-0.472,0.385-0.856,0.858-0.856H30.63
			c0.473,0,0.857,0.384,0.857,0.856v20.455C31.486,33.996,31.102,34.38,30.629,34.38z M13.973,12.656
			c-0.228,0-0.414,0.185-0.414,0.412v20.455c0,0.227,0.185,0.412,0.413,0.412h16.657c0.228,0,0.414-0.185,0.414-0.412V13.069
			c0-0.227-0.185-0.412-0.413-0.412H13.973z"/>
	</g>
	<g>
		<g>
			<path class="st2" d="M29.251,28.581V14.192c0-0.368-0.299-0.667-0.668-0.667H17.521h-0.617h-0.886
				c-0.368,0-0.667,0.3-0.667,0.667v17.302c0,0.368,0.298,0.667,0.667,0.667h9.479L29.251,28.581z"/>
			<path class="st0" d="M25.497,32.383h-9.479c-0.49,0-0.889-0.399-0.889-0.889V14.192c0-0.49,0.399-0.889,0.889-0.889h12.565
				c0.49,0,0.89,0.399,0.89,0.889v14.388c0,0.061-0.025,0.119-0.069,0.16l-3.754,3.581C25.608,32.361,25.554,32.383,25.497,32.383z
				 M16.018,13.747c-0.245,0-0.445,0.2-0.445,0.445v17.302c0,0.245,0.199,0.445,0.445,0.445h9.39l3.621-3.454V14.192
				c0-0.245-0.2-0.445-0.446-0.445H16.018z"/>
		</g>
		<g>
			<path class="st0" d="M26.417,18.077h-8.086c-0.123,0-0.222-0.099-0.222-0.222c0-0.123,0.099-0.222,0.222-0.222h8.086
				c0.123,0,0.222,0.099,0.222,0.222C26.639,17.978,26.54,18.077,26.417,18.077z"/>
		</g>
		<g>
			<path class="st0" d="M26.417,20.83h-8.086c-0.123,0-0.222-0.099-0.222-0.222c0-0.123,0.099-0.222,0.222-0.222h8.086
				c0.123,0,0.222,0.099,0.222,0.222C26.639,20.73,26.54,20.83,26.417,20.83z"/>
		</g>
		<g>
			<path class="st0" d="M26.417,23.583h-8.086c-0.123,0-0.222-0.099-0.222-0.222c0-0.123,0.099-0.222,0.222-0.222h8.086
				c0.123,0,0.222,0.099,0.222,0.222C26.639,23.483,26.54,23.583,26.417,23.583z"/>
		</g>
		<g>
			<path class="st0" d="M26.417,26.335h-8.086c-0.123,0-0.222-0.099-0.222-0.222s0.099-0.222,0.222-0.222h8.086
				c0.123,0,0.222,0.099,0.222,0.222S26.54,26.335,26.417,26.335z"/>
		</g>
		<g>
			<g>
				<path class="st0" d="M25.334,32.383c-0.123,0-0.222-0.099-0.222-0.222v-2.883c-0.004-0.466,0.379-0.866,0.836-0.87h3.202
					c0.123,0,0.222,0.099,0.222,0.222c0,0.123-0.099,0.222-0.222,0.222H25.95c-0.211,0.002-0.397,0.2-0.395,0.424v2.885
					C25.556,32.284,25.457,32.383,25.334,32.383z"/>
			</g>
		</g>
	</g>
	<g>
		<path class="st3" d="M24.911,10.945h-0.778v-0.52c0-0.368-0.298-0.666-0.666-0.666h-2.334c-0.368,0-0.666,0.298-0.666,0.666v0.52
			H19.69c-0.823,0-1.49,0.667-1.49,1.49v2.348h8.201v-2.348C26.401,11.612,25.734,10.945,24.911,10.945z"/>
		<path class="st0" d="M26.401,15.005H18.2c-0.123,0-0.222-0.099-0.222-0.222v-2.348c0-0.944,0.768-1.712,1.712-1.712h0.555v-0.297
			c0-0.49,0.398-0.888,0.888-0.888h2.335c0.489,0,0.888,0.398,0.888,0.888v0.297h0.555c0.944,0,1.712,0.768,1.712,1.712v2.348
			C26.623,14.905,26.524,15.005,26.401,15.005z M18.422,14.561h7.757v-2.127c0-0.699-0.569-1.268-1.268-1.268h-0.777
			c-0.123,0-0.222-0.099-0.222-0.222v-0.519c0-0.245-0.199-0.444-0.444-0.444h-2.335c-0.245,0-0.444,0.199-0.444,0.444v0.519
			c0,0.123-0.099,0.222-0.222,0.222H19.69c-0.699,0-1.268,0.569-1.268,1.268V14.561z"/>
	</g>
</g>
</svg>
