<?xml version="1.0" encoding="utf-8"?>
<!-- Generator: Adobe Illustrator 22.0.1, SVG Export Plug-In . SVG Version: 6.00 Build 0)  -->
<svg version="1.1" id="Layer_1" xmlns="http://www.w3.org/2000/svg" xmlns:xlink="http://www.w3.org/1999/xlink" x="0px" y="0px"
	 viewBox="0 0 50 24" style="enable-background:new 0 0 50 24;" xml:space="preserve">
<style type="text/css">
	.st0{fill:#295C64;}
</style>
<g>
	<g>
		<g>
			<path class="st0" d="M0.185,9.577V3.179h2.061c0.565,0,1.074,0.128,1.525,0.385s0.803,0.618,1.057,1.085
				C5.081,5.117,5.21,5.64,5.213,6.22v0.294c0,0.586-0.124,1.111-0.371,1.576C4.593,8.554,4.244,8.917,3.795,9.18
				C3.345,9.442,2.844,9.574,2.29,9.577H0.185z M1.727,4.37v4.021h0.536c0.442,0,0.782-0.157,1.02-0.473
				C3.52,7.604,3.639,7.135,3.639,6.514V6.237c0-0.618-0.119-1.084-0.356-1.397S2.7,4.37,2.246,4.37H1.727z"/>
			<path class="st0" d="M7.197,9.577H5.659V3.179h1.538V9.577z"/>
			<path class="st0" d="M10.198,7.314H9.363v2.263H7.82V3.179h2.518c0.759,0,1.352,0.168,1.78,0.505s0.642,0.812,0.642,1.427
				c0,0.445-0.09,0.813-0.271,1.106c-0.18,0.293-0.462,0.53-0.846,0.711l1.336,2.583v0.066h-1.652L10.198,7.314z M9.363,6.127h0.976
				c0.293,0,0.513-0.077,0.662-0.231c0.147-0.154,0.222-0.369,0.222-0.645s-0.075-0.493-0.224-0.65S10.63,4.365,10.34,4.365H9.363
				V6.127L9.363,6.127z"/>
			<path class="st0" d="M17.208,6.861h-2.426V8.39h2.865v1.187H13.24V3.179h4.417V4.37h-2.874v1.349h2.426L17.208,6.861
				L17.208,6.861z"/>
			<path class="st0" d="M23.003,7.411c-0.021,0.445-0.141,0.839-0.36,1.18s-0.528,0.605-0.925,0.793
				c-0.397,0.188-0.851,0.281-1.36,0.281c-0.841,0-1.503-0.274-1.986-0.822s-0.725-1.321-0.725-2.32V6.207
				c0-0.627,0.108-1.175,0.327-1.646c0.218-0.47,0.532-0.833,0.942-1.09c0.41-0.256,0.885-0.384,1.424-0.384
				c0.776,0,1.4,0.205,1.872,0.613c0.472,0.409,0.739,0.972,0.805,1.69h-1.539c-0.012-0.39-0.11-0.67-0.294-0.84
				s-0.466-0.255-0.844-0.255c-0.384,0-0.665,0.144-0.844,0.431s-0.272,0.746-0.281,1.375v0.453c0,0.683,0.086,1.17,0.257,1.463
				c0.172,0.293,0.467,0.439,0.886,0.439c0.354,0,0.625-0.083,0.812-0.25s0.287-0.432,0.3-0.795
				C21.47,7.411,23.003,7.411,23.003,7.411z"/>
			<path class="st0" d="M28.179,4.37h-1.92v5.208h-1.543V4.37H22.83V3.179h5.348V4.37H28.179z"/>
		</g>
	</g>
	<g>
		<g>
			<path class="st0" d="M2.372,10.567H1.398v2.641h-0.24v-2.641H0.185v-0.203h2.188L2.372,10.567L2.372,10.567z"/>
			<path class="st0" d="M4.102,11.845h-1.33v1.16h1.529v0.203h-1.77v-2.844h1.76v0.203h-1.52v1.074h1.33L4.102,11.845L4.102,11.845z
				"/>
			<path class="st0" d="M6.601,11.94c0,0.271-0.048,0.507-0.144,0.708s-0.232,0.354-0.409,0.456l0.518,0.451L6.4,13.703l-0.58-0.502
				c-0.107,0.03-0.216,0.045-0.326,0.045c-0.217,0-0.409-0.053-0.577-0.16c-0.169-0.106-0.3-0.258-0.392-0.454
				c-0.093-0.195-0.14-0.422-0.141-0.679v-0.318c0-0.259,0.046-0.488,0.138-0.688s0.222-0.354,0.39-0.461s0.36-0.161,0.578-0.161
				c0.221,0,0.416,0.053,0.584,0.16s0.298,0.26,0.39,0.459s0.138,0.43,0.138,0.689L6.601,11.94L6.601,11.94z M6.361,11.632
				c0-0.342-0.078-0.61-0.232-0.805c-0.155-0.194-0.368-0.291-0.639-0.291c-0.264,0-0.474,0.097-0.63,0.292
				c-0.157,0.195-0.235,0.467-0.235,0.815v0.297c0,0.338,0.077,0.604,0.233,0.802c0.155,0.197,0.367,0.296,0.636,0.296
				c0.271,0,0.482-0.097,0.637-0.291c0.153-0.193,0.23-0.465,0.23-0.812C6.361,11.935,6.361,11.632,6.361,11.632z"/>
		</g>
	</g>
	<g>
		<g>
			<path class="st0" d="M5.534,20.424H3.999v-2.672H1.728v2.672H0.185v-6.398h1.543v2.54h2.271v-2.54h1.534L5.534,20.424
				L5.534,20.424z"/>
			<path class="st0" d="M10.028,17.708H7.601v1.529h2.865v1.187H6.059v-6.398h4.416v1.191H7.601v1.349h2.426L10.028,17.708
				L10.028,17.708z"/>
			<path class="st0" d="M12.188,19.237h2.685v1.187h-4.228v-6.398h1.543C12.188,14.026,12.188,19.237,12.188,19.237z"/>
			<path class="st0" d="M16.617,18.253v2.171h-1.543v-6.398h2.554c0.489,0,0.922,0.09,1.298,0.271
				c0.377,0.18,0.668,0.437,0.875,0.769c0.206,0.333,0.31,0.71,0.31,1.132c0,0.624-0.224,1.123-0.67,1.496
				c-0.447,0.374-1.06,0.561-1.839,0.561h-0.985C16.617,18.255,16.617,18.253,16.617,18.253z M16.617,17.062h1.011
				c0.299,0,0.526-0.075,0.683-0.225c0.157-0.149,0.235-0.36,0.235-0.633c0-0.299-0.08-0.537-0.241-0.716s-0.381-0.27-0.659-0.272
				h-1.028v1.846H16.617z"/>
		</g>
	</g>
</g>
</svg>
