<?xml version="1.0" encoding="utf-8"?>
<!-- Generator: Adobe Illustrator 22.1.0, SVG Export Plug-In . SVG Version: 6.00 Build 0)  -->
<svg version="1.1" id="Layer_1" xmlns="http://www.w3.org/2000/svg" xmlns:xlink="http://www.w3.org/1999/xlink" x="0px" y="0px"
	 viewBox="0 0 45 45" style="enable-background:new 0 0 45 45;" xml:space="preserve">
<style type="text/css">
	.st0{fill:#616870;}
	.st1{fill:#EBEFF2;}
	.st2{fill:#4DA8B6;}
</style>
<g>
	<path class="st0" d="M1003.735,141.346v1.665c0,0.143-0.116,0.259-0.259,0.259c-0.143,0-0.259-0.116-0.259-0.259v-1.665
		c0-0.143,0.116-0.259,0.259-0.259C1003.619,141.087,1003.735,141.202,1003.735,141.346z"/>
</g>
<g>
	<path class="st0" d="M999.994,137.632v1.233c0,0.143-0.116,0.259-0.259,0.259c-0.143,0-0.259-0.116-0.259-0.259v-1.233
		c0-0.143,0.116-0.259,0.259-0.259C999.879,137.373,999.994,137.489,999.994,137.632z"/>
</g>
<g>
	<g>
		<path class="st0" d="M28.983,23.328c-0.084,0-0.164-0.047-0.204-0.127c-0.056-0.113-0.009-0.249,0.103-0.305
			c0.037-0.018,3.691-1.867,3.691-5.193c0-2.057-1.407-2.787-2.612-2.787h-2.608c-0.126,0-0.228-0.102-0.228-0.228
			c0-0.126,0.102-0.228,0.228-0.228h2.608c1.526,0,3.067,1.003,3.067,3.242c0,3.612-3.783,5.522-3.944,5.601
			C29.052,23.32,29.018,23.328,28.983,23.328z"/>
	</g>
	<g>
		<path class="st0" d="M16.208,23.328c-0.034,0-0.068-0.008-0.101-0.024c-0.161-0.08-3.945-1.989-3.945-5.601
			c0-2.24,1.541-3.242,3.067-3.242h2.608c0.126,0,0.228,0.102,0.228,0.228c0,0.126-0.102,0.228-0.228,0.228H15.23
			c-1.205,0-2.612,0.73-2.612,2.787c0,3.332,3.654,5.175,3.691,5.193c0.113,0.056,0.159,0.192,0.103,0.305
			C16.372,23.281,16.292,23.328,16.208,23.328z"/>
	</g>
	<g>
		<path class="st1" d="M28.781,35.37c0,0.406-0.329,0.735-0.735,0.735H17.05c-0.406,0-0.735-0.329-0.735-0.735v-0.276
			c0-0.406,0.329-0.735,0.735-0.735h10.996c0.406,0,0.735,0.329,0.735,0.735V35.37z"/>
		<path class="st0" d="M28.046,36.333H17.05c-0.531,0-0.963-0.432-0.963-0.963v-0.276c0-0.531,0.432-0.963,0.963-0.963h10.996
			c0.531,0,0.963,0.432,0.963,0.963v0.276C29.009,35.901,28.577,36.333,28.046,36.333z M17.05,34.587
			c-0.28,0-0.508,0.228-0.508,0.507v0.276c0,0.28,0.228,0.508,0.508,0.508h10.996c0.28,0,0.507-0.228,0.507-0.508v-0.276
			c0-0.28-0.228-0.507-0.507-0.507H17.05z"/>
	</g>
	<g>
		<path class="st1" d="M16.249,14.689v7.7c0,1.662,0.644,2.851,1.696,3.975c1.407,1.504,2.865,2.844,2.865,4.904v3.091h3.477v-3.091
			c0-2.06,1.457-3.4,2.865-4.904c1.052-1.124,1.696-2.314,1.696-3.975v-7.7H16.249z"/>
		<path class="st0" d="M24.286,34.587h-3.477c-0.126,0-0.228-0.102-0.228-0.228v-3.091c0-1.789-1.182-3.036-2.433-4.357l-0.37-0.391
			c-1.216-1.299-1.758-2.573-1.758-4.131v-7.7c0-0.126,0.102-0.228,0.228-0.228h12.599c0.126,0,0.228,0.102,0.228,0.228v7.7
			c0,1.558-0.542,2.832-1.758,4.131l-0.37,0.391c-1.252,1.321-2.433,2.568-2.433,4.357v3.091
			C24.514,34.485,24.412,34.587,24.286,34.587z M21.037,34.132h3.022v-2.864c0-1.971,1.243-3.282,2.558-4.67l0.367-0.39
			c1.146-1.224,1.635-2.366,1.635-3.82v-7.473H16.477v7.473c0,1.453,0.489,2.595,1.635,3.82l0.367,0.39
			c1.316,1.388,2.558,2.699,2.558,4.67V34.132z"/>
	</g>
	<g>
		<polygon class="st2" points="22.548,23.415 20.31,24.592 20.737,22.099 18.926,20.334 21.429,19.97 22.548,17.703 23.667,19.97 
			26.17,20.334 24.359,22.099 24.786,24.592 		"/>
		<path class="st0" d="M24.786,24.819c-0.036,0-0.072-0.008-0.106-0.026l-2.132-1.121l-2.132,1.121
			c-0.076,0.04-0.169,0.034-0.24-0.017c-0.07-0.051-0.105-0.137-0.091-0.223l0.407-2.374l-1.725-1.682
			c-0.062-0.06-0.084-0.151-0.058-0.233c0.027-0.083,0.098-0.143,0.184-0.155l2.384-0.346l1.066-2.16
			c0.076-0.155,0.332-0.155,0.408,0l1.066,2.16l2.385,0.346c0.085,0.012,0.157,0.072,0.184,0.155
			c0.027,0.082,0.004,0.173-0.058,0.233l-1.725,1.682l0.407,2.374c0.015,0.086-0.02,0.172-0.091,0.223
			C24.88,24.805,24.833,24.819,24.786,24.819z M22.548,23.187c0.036,0,0.073,0.009,0.106,0.026l1.83,0.962l-0.349-2.037
			c-0.012-0.074,0.012-0.149,0.066-0.202l1.481-1.443l-2.047-0.297c-0.074-0.011-0.138-0.057-0.171-0.124l-0.915-1.854l-0.915,1.854
			c-0.033,0.067-0.097,0.113-0.171,0.124l-2.046,0.297l1.48,1.443c0.054,0.052,0.078,0.128,0.066,0.202l-0.349,2.037l1.83-0.962
			C22.475,23.196,22.511,23.187,22.548,23.187z"/>
	</g>
	<g>
		<path class="st0" d="M33.174,29.045c-0.126,0-0.228-0.102-0.228-0.228v-1.986c0-0.126,0.102-0.228,0.228-0.228
			c0.126,0,0.228,0.102,0.228,0.228v1.986C33.402,28.943,33.3,29.045,33.174,29.045z"/>
	</g>
	<g>
		<path class="st0" d="M34.167,28.052h-1.987c-0.126,0-0.228-0.102-0.228-0.228c0-0.126,0.102-0.228,0.228-0.228h1.987
			c0.126,0,0.228,0.102,0.228,0.228C34.395,27.95,34.293,28.052,34.167,28.052z"/>
	</g>
	<g>
		<path class="st0" d="M29.34,13.109c-0.126,0-0.228-0.102-0.228-0.228v-1.986c0-0.126,0.102-0.228,0.228-0.228
			s0.228,0.102,0.228,0.228v1.986C29.568,13.008,29.466,13.109,29.34,13.109z"/>
	</g>
	<g>
		<path class="st0" d="M30.333,12.116h-1.986c-0.126,0-0.228-0.102-0.228-0.228c0-0.126,0.102-0.228,0.228-0.228h1.986
			c0.126,0,0.228,0.102,0.228,0.228C30.561,12.014,30.459,12.116,30.333,12.116z"/>
	</g>
	<g>
		<path class="st0" d="M16.038,11.364c-0.126,0-0.228-0.102-0.228-0.228V9.15c0-0.126,0.102-0.228,0.228-0.228
			c0.126,0,0.228,0.102,0.228,0.228v1.987C16.265,11.262,16.163,11.364,16.038,11.364z"/>
	</g>
	<g>
		<path class="st0" d="M17.031,10.371h-1.986c-0.126,0-0.228-0.102-0.228-0.228c0-0.126,0.102-0.228,0.228-0.228h1.986
			c0.126,0,0.228,0.102,0.228,0.228C17.258,10.269,17.156,10.371,17.031,10.371z"/>
	</g>
	<g>
		<path class="st0" d="M17.242,32.391c-0.126,0-0.228-0.102-0.228-0.228v-1.987c0-0.126,0.102-0.228,0.228-0.228
			c0.126,0,0.228,0.102,0.228,0.228v1.987C17.47,32.289,17.368,32.391,17.242,32.391z"/>
	</g>
	<g>
		<path class="st0" d="M18.235,31.398h-1.986c-0.126,0-0.228-0.102-0.228-0.228c0-0.126,0.102-0.228,0.228-0.228h1.986
			c0.126,0,0.228,0.102,0.228,0.228C18.463,31.296,18.361,31.398,18.235,31.398z"/>
	</g>
	<g>
		<path class="st0" d="M8.8,23.361c-0.126,0-0.228-0.102-0.228-0.228v-1.987c0-0.126,0.102-0.228,0.228-0.228
			c0.126,0,0.228,0.102,0.228,0.228v1.987C9.027,23.259,8.925,23.361,8.8,23.361z"/>
	</g>
	<g>
		<path class="st0" d="M9.793,22.368H7.806c-0.126,0-0.228-0.102-0.228-0.228c0-0.126,0.102-0.228,0.228-0.228h1.987
			c0.126,0,0.228,0.102,0.228,0.228C10.021,22.266,9.919,22.368,9.793,22.368z"/>
	</g>
</g>
</svg>
