<?xml version="1.0" encoding="utf-8"?>
<!-- Generator: Adobe Illustrator 22.1.0, SVG Export Plug-In . SVG Version: 6.00 Build 0)  -->
<svg version="1.1" id="Layer_1" xmlns="http://www.w3.org/2000/svg" xmlns:xlink="http://www.w3.org/1999/xlink" x="0px" y="0px"
	 viewBox="0 0 45 45" style="enable-background:new 0 0 45 45;" xml:space="preserve">
<style type="text/css">
	.st0{fill:#616870;}
	.st1{fill:#EBEFF2;}
	.st2{fill:#4DA8B6;}
</style>
<g>
	<path class="st0" d="M1003.735,141.346v1.665c0,0.143-0.116,0.259-0.259,0.259c-0.143,0-0.259-0.116-0.259-0.259v-1.665
		c0-0.143,0.116-0.259,0.259-0.259C1003.619,141.087,1003.735,141.202,1003.735,141.346z"/>
</g>
<g>
	<path class="st0" d="M999.994,137.632v1.233c0,0.143-0.116,0.259-0.259,0.259c-0.143,0-0.259-0.116-0.259-0.259v-1.233
		c0-0.143,0.116-0.259,0.259-0.259C999.879,137.373,999.994,137.489,999.994,137.632z"/>
</g>
<g>
	<g>
		<g>
			<path class="st1" d="M20.88,32.007c0-1.305,1.058-2.363,2.363-2.363s2.363,1.058,2.363,2.363H20.88z"/>
			<path class="st0" d="M25.607,32.258c-0.139,0-0.251-0.112-0.251-0.251c0-1.165-0.947-2.113-2.113-2.113s-2.113,0.948-2.113,2.113
				c0,0.139-0.112,0.251-0.251,0.251c-0.139,0-0.251-0.112-0.251-0.251c0-1.442,1.173-2.614,2.614-2.614s2.614,1.173,2.614,2.614
				C25.858,32.146,25.746,32.258,25.607,32.258z"/>
		</g>
		<g>
			<path class="st1" d="M12.374,32.007c0-2.349,1.904-4.253,4.253-4.253c2.349,0,4.253,1.904,4.253,4.253H12.374z"/>
			<path class="st0" d="M20.88,32.258c-0.139,0-0.251-0.112-0.251-0.251c0-2.207-1.796-4.002-4.002-4.002
				c-2.207,0-4.002,1.795-4.002,4.002c0,0.139-0.112,0.251-0.251,0.251s-0.251-0.112-0.251-0.251c0-2.483,2.02-4.504,4.504-4.504
				c2.483,0,4.504,2.021,4.504,4.504C21.131,32.146,21.019,32.258,20.88,32.258z"/>
		</g>
		<g>
			<path class="st1" d="M25.607,32.007c0-2.349,1.904-4.253,4.253-4.253s4.253,1.904,4.253,4.253H25.607z"/>
			<path class="st0" d="M34.114,32.258c-0.139,0-0.251-0.112-0.251-0.251c0-2.207-1.796-4.002-4.003-4.002
				c-2.207,0-4.002,1.795-4.002,4.002c0,0.139-0.112,0.251-0.251,0.251c-0.139,0-0.251-0.112-0.251-0.251
				c0-2.483,2.021-4.504,4.504-4.504c2.484,0,4.504,2.021,4.504,4.504C34.365,32.146,34.252,32.258,34.114,32.258z"/>
		</g>
	</g>
	<g>
		<g>
			<path class="st0" d="M34.886,34.844H11.601c-1.028,0-1.864-0.836-1.864-1.864V18.19c0-1.028,0.836-1.864,1.864-1.864h6.927
				c0.139,0,0.251,0.112,0.251,0.251c0,0.139-0.112,0.251-0.251,0.251h-6.927c-0.751,0-1.362,0.611-1.362,1.362v14.79
				c0,0.751,0.611,1.362,1.362,1.362h23.285c0.751,0,1.362-0.611,1.362-1.362V18.19c0-0.751-0.611-1.362-1.362-1.362h-6.927
				c-0.139,0-0.251-0.112-0.251-0.251c0-0.139,0.112-0.251,0.251-0.251h6.927c1.028,0,1.864,0.836,1.864,1.864v14.79
				C36.75,34.008,35.914,34.844,34.886,34.844z"/>
		</g>
		<g>
			<path class="st0" d="M36.499,32.337H9.988c-0.139,0-0.251-0.112-0.251-0.251s0.112-0.251,0.251-0.251h26.511
				c0.139,0,0.251,0.112,0.251,0.251S36.638,32.337,36.499,32.337z"/>
		</g>
		<g>
			<path class="st2" d="M9.988,32.814c0,0.982,0.722,1.779,1.613,1.779h23.284c0.891,0,1.613-0.796,1.613-1.779v-0.986H9.988V32.814
				z"/>
			<path class="st0" d="M34.886,34.844H11.601c-1.028,0-1.864-0.911-1.864-2.03v-0.986c0-0.139,0.112-0.251,0.251-0.251h26.511
				c0.139,0,0.251,0.112,0.251,0.251v0.986C36.75,33.933,35.914,34.844,34.886,34.844z M10.239,32.08v0.735
				c0,0.842,0.611,1.528,1.362,1.528h23.285c0.751,0,1.362-0.685,1.362-1.528V32.08H10.239z"/>
		</g>
		<g>
			<g>
				<path class="st0" d="M21.775,37.368c-0.139,0-0.251-0.112-0.251-0.251v-2.524c0-0.139,0.112-0.251,0.251-0.251
					c0.139,0,0.251,0.112,0.251,0.251v2.524C22.026,37.256,21.914,37.368,21.775,37.368z"/>
			</g>
			<g>
				<path class="st0" d="M25.141,37.368c-0.139,0-0.251-0.112-0.251-0.251v-2.524c0-0.139,0.112-0.251,0.251-0.251
					c0.139,0,0.251,0.112,0.251,0.251v2.524C25.391,37.256,25.279,37.368,25.141,37.368z"/>
			</g>
		</g>
		<g>
			<path class="st0" d="M27.088,37.368h-7.26c-0.139,0-0.251-0.112-0.251-0.251c0-0.139,0.112-0.251,0.251-0.251h7.26
				c0.139,0,0.251,0.112,0.251,0.251C27.339,37.256,27.227,37.368,27.088,37.368z"/>
		</g>
	</g>
	<g>
		<g>
			<path class="st0" d="M26.487,23.548h-6.49c-0.139,0-0.251-0.112-0.251-0.251V12.17c0-1.885,3.195-4.682,3.331-4.8
				c0.095-0.082,0.234-0.082,0.329,0c0.136,0.118,3.332,2.916,3.332,4.8v11.127C26.738,23.436,26.626,23.548,26.487,23.548z
				 M20.248,23.046h5.988V12.17c0-1.296-2.026-3.399-2.994-4.276c-0.968,0.877-2.994,2.979-2.994,4.276V23.046z"/>
		</g>
		<g>
			<path class="st0" d="M17.06,25.618c-0.039,0-0.078-0.009-0.114-0.027c-0.084-0.043-0.137-0.129-0.137-0.224v-4.14
				c0-0.08,0.038-0.156,0.103-0.203l2.937-2.136c0.076-0.055,0.177-0.063,0.261-0.021c0.084,0.043,0.137,0.129,0.137,0.224v4.14
				c0,0.08-0.038,0.156-0.103,0.203l-2.937,2.136C17.163,25.602,17.111,25.618,17.06,25.618z M17.31,21.355v3.52l2.435-1.771v-3.52
				L17.31,21.355z"/>
		</g>
		<g>
			<path class="st0" d="M29.427,25.618c-0.052,0-0.104-0.016-0.147-0.048l-2.937-2.136c-0.065-0.047-0.103-0.122-0.103-0.203v-4.14
				c0-0.094,0.053-0.181,0.137-0.224c0.084-0.042,0.185-0.034,0.261,0.021l2.937,2.136c0.065,0.047,0.103,0.122,0.103,0.203v4.14
				c0,0.094-0.053,0.181-0.137,0.224C29.505,25.609,29.466,25.618,29.427,25.618z M26.741,23.103l2.435,1.771v-3.52l-2.435-1.771
				V23.103z"/>
		</g>
	</g>
	<g>
		<path class="st0" d="M23.458,33.59h-0.428c-0.139,0-0.251-0.112-0.251-0.251c0-0.139,0.112-0.251,0.251-0.251h0.428
			c0.139,0,0.251,0.112,0.251,0.251C23.708,33.478,23.596,33.59,23.458,33.59z"/>
	</g>
	<g>
		<g>
			<path class="st0" d="M21.162,26.863c-0.139,0-0.251-0.112-0.251-0.251v-2.959c0-0.139,0.112-0.251,0.251-0.251
				c0.139,0,0.251,0.112,0.251,0.251v2.959C21.413,26.751,21.301,26.863,21.162,26.863z"/>
		</g>
		<g>
			<path class="st0" d="M23.244,26.863c-0.139,0-0.251-0.112-0.251-0.251v-2.959c0-0.139,0.112-0.251,0.251-0.251
				s0.251,0.112,0.251,0.251v2.959C23.494,26.751,23.382,26.863,23.244,26.863z"/>
		</g>
		<g>
			<path class="st0" d="M25.325,26.863c-0.139,0-0.251-0.112-0.251-0.251v-2.959c0-0.139,0.112-0.251,0.251-0.251
				c0.139,0,0.251,0.112,0.251,0.251v2.959C25.576,26.751,25.463,26.863,25.325,26.863z"/>
		</g>
		<g>
			<path class="st0" d="M21.162,28.579c-0.139,0-0.251-0.112-0.251-0.251v-0.844c0-0.139,0.112-0.251,0.251-0.251
				c0.139,0,0.251,0.112,0.251,0.251v0.844C21.413,28.467,21.301,28.579,21.162,28.579z"/>
		</g>
		<g>
			<path class="st0" d="M23.244,28.579c-0.139,0-0.251-0.112-0.251-0.251v-0.844c0-0.139,0.112-0.251,0.251-0.251
				s0.251,0.112,0.251,0.251v0.844C23.494,28.467,23.382,28.579,23.244,28.579z"/>
		</g>
		<g>
			<path class="st0" d="M25.325,28.579c-0.139,0-0.251-0.112-0.251-0.251v-0.844c0-0.139,0.112-0.251,0.251-0.251
				c0.139,0,0.251,0.112,0.251,0.251v0.844C25.576,28.467,25.463,28.579,25.325,28.579z"/>
		</g>
	</g>
	<g>
		<circle class="st2" cx="23.244" cy="14.067" r="1.658"/>
		<path class="st0" d="M23.244,15.976c-1.053,0-1.909-0.856-1.909-1.909c0-1.053,0.856-1.909,1.909-1.909s1.909,0.856,1.909,1.909
			C25.153,15.12,24.296,15.976,23.244,15.976z M23.244,12.659c-0.776,0-1.408,0.632-1.408,1.408c0,0.776,0.632,1.407,1.408,1.407
			s1.408-0.631,1.408-1.407C24.651,13.291,24.02,12.659,23.244,12.659z"/>
	</g>
</g>
</svg>
