<?xml version="1.0" encoding="utf-8"?>
<!-- Generator: Adobe Illustrator 22.1.0, SVG Export Plug-In . SVG Version: 6.00 Build 0)  -->
<svg version="1.1" id="Layer_1" xmlns="http://www.w3.org/2000/svg" xmlns:xlink="http://www.w3.org/1999/xlink" x="0px" y="0px"
	 viewBox="0 0 45 45" style="enable-background:new 0 0 45 45;" xml:space="preserve">
<style type="text/css">
	.st0{fill:#616870;}
	.st1{fill:#EBEFF2;}
	.st2{fill:#4DA8B6;}
</style>
<g>
	<path class="st0" d="M1003.735,141.346v1.665c0,0.143-0.116,0.259-0.259,0.259c-0.143,0-0.259-0.116-0.259-0.259v-1.665
		c0-0.143,0.116-0.259,0.259-0.259C1003.619,141.087,1003.735,141.202,1003.735,141.346z"/>
</g>
<g>
	<path class="st0" d="M999.994,137.632v1.233c0,0.143-0.116,0.259-0.259,0.259c-0.143,0-0.259-0.116-0.259-0.259v-1.233
		c0-0.143,0.116-0.259,0.259-0.259C999.879,137.373,999.994,137.489,999.994,137.632z"/>
</g>
<g>
	<g>
		<g>
			<path class="st1" d="M18.977,36.632c0-1.621,1.461-2.934,3.264-2.934s3.264,1.314,3.264,2.934H18.977z"/>
			<path class="st0" d="M25.505,36.879c-0.136,0-0.247-0.11-0.247-0.247c0-1.482-1.354-2.688-3.018-2.688
				c-1.664,0-3.018,1.206-3.018,2.688c0,0.136-0.11,0.247-0.247,0.247c-0.136,0-0.247-0.11-0.247-0.247
				c0-1.754,1.575-3.181,3.511-3.181c1.936,0,3.511,1.427,3.511,3.181C25.752,36.768,25.641,36.879,25.505,36.879z"/>
		</g>
		<g>
			<path class="st1" d="M25.505,36.632c0-2.916,2.63-5.28,5.874-5.28c3.244,0,5.874,2.364,5.874,5.28H7.228
				c0-2.916,2.63-5.28,5.874-5.28c3.244,0,5.874,2.364,5.874,5.28H25.505z"/>
			<path class="st0" d="M37.253,36.879H7.228c-0.136,0-0.247-0.11-0.247-0.247c0-3.048,2.746-5.527,6.121-5.527
				c3.283,0,5.972,2.346,6.115,5.28h6.047c0.143-2.934,2.831-5.28,6.115-5.28c3.375,0,6.121,2.479,6.121,5.527
				C37.5,36.768,37.39,36.879,37.253,36.879z M25.758,36.385H37c-0.144-2.662-2.61-4.787-5.621-4.787
				C28.369,31.598,25.902,33.724,25.758,36.385z M7.482,36.385h11.241c-0.144-2.662-2.61-4.787-5.621-4.787
				S7.626,33.724,7.482,36.385z"/>
		</g>
	</g>
	<g>
		<g>
			<path class="st0" d="M26.267,26.065H18.21c-0.136,0-0.247-0.11-0.247-0.247V13.612c0-2.311,3.945-5.765,4.113-5.911
				c0.093-0.08,0.231-0.081,0.324,0c0.168,0.146,4.113,3.6,4.113,5.911v12.207C26.514,25.955,26.403,26.065,26.267,26.065z
				 M18.457,25.572h7.564v-11.96c0-1.842-3.04-4.719-3.782-5.393c-0.742,0.675-3.782,3.552-3.782,5.393V25.572z"/>
		</g>
		<g>
			<polygon class="st2" points="18.21,25.736 14.563,28.388 14.563,23.249 18.21,20.596 			"/>
			<path class="st0" d="M14.563,28.635c-0.038,0-0.077-0.009-0.112-0.027c-0.083-0.042-0.135-0.127-0.135-0.22v-5.14
				c0-0.079,0.038-0.153,0.102-0.199l3.647-2.652c0.075-0.054,0.175-0.062,0.257-0.02c0.083,0.042,0.135,0.127,0.135,0.22v5.14
				c0,0.079-0.038,0.153-0.102,0.199l-3.647,2.652C14.666,28.619,14.615,28.635,14.563,28.635z M14.81,23.374v4.53l3.153-2.293
				v-4.53L14.81,23.374z"/>
		</g>
		<g>
			<polygon class="st2" points="26.271,25.736 29.918,28.388 29.918,23.249 26.271,20.596 			"/>
			<path class="st0" d="M29.918,28.635c-0.051,0-0.102-0.016-0.145-0.047l-3.647-2.652c-0.064-0.046-0.102-0.12-0.102-0.199v-5.14
				c0-0.093,0.052-0.178,0.135-0.22c0.083-0.042,0.182-0.034,0.257,0.02l3.647,2.652c0.064,0.047,0.102,0.12,0.102,0.199v5.14
				c0,0.093-0.052,0.178-0.135,0.22C29.995,28.626,29.956,28.635,29.918,28.635z M26.518,25.611l3.153,2.293v-4.53l-3.153-2.293
				V25.611z"/>
		</g>
	</g>
	<g>
		<g>
			<path class="st0" d="M19.657,29.759c-0.136,0-0.247-0.11-0.247-0.247v-3.252c0-0.136,0.11-0.247,0.247-0.247
				c0.136,0,0.247,0.11,0.247,0.247v3.252C19.904,29.649,19.793,29.759,19.657,29.759z"/>
		</g>
		<g>
			<path class="st0" d="M22.241,29.759c-0.136,0-0.247-0.11-0.247-0.247v-3.252c0-0.136,0.11-0.247,0.247-0.247
				c0.136,0,0.247,0.11,0.247,0.247v3.252C22.487,29.649,22.377,29.759,22.241,29.759z"/>
		</g>
		<g>
			<path class="st0" d="M24.824,29.759c-0.136,0-0.247-0.11-0.247-0.247v-3.252c0-0.136,0.11-0.247,0.247-0.247
				c0.136,0,0.247,0.11,0.247,0.247v3.252C25.071,29.649,24.961,29.759,24.824,29.759z"/>
		</g>
		<g>
			<path class="st0" d="M19.657,32.311c-0.136,0-0.247-0.11-0.247-0.247v-1.048c0-0.136,0.11-0.247,0.247-0.247
				c0.136,0,0.247,0.11,0.247,0.247v1.048C19.904,32.201,19.793,32.311,19.657,32.311z"/>
		</g>
		<g>
			<path class="st0" d="M22.241,32.311c-0.136,0-0.247-0.11-0.247-0.247v-1.048c0-0.136,0.11-0.247,0.247-0.247
				c0.136,0,0.247,0.11,0.247,0.247v1.048C22.487,32.201,22.377,32.311,22.241,32.311z"/>
		</g>
		<g>
			<path class="st0" d="M24.824,32.311c-0.136,0-0.247-0.11-0.247-0.247v-1.048c0-0.136,0.11-0.247,0.247-0.247
				c0.136,0,0.247,0.11,0.247,0.247v1.048C25.071,32.201,24.961,32.311,24.824,32.311z"/>
		</g>
	</g>
	<g>
		<path class="st2" d="M24.299,15.182c0,1.137-0.922,2.059-2.059,2.059s-2.059-0.922-2.059-2.059s0.922-2.059,2.059-2.059
			S24.299,14.045,24.299,15.182z"/>
		<path class="st0" d="M22.241,17.488c-1.271,0-2.305-1.034-2.305-2.306c0-1.271,1.034-2.305,2.305-2.305
			c1.271,0,2.305,1.034,2.305,2.305C24.546,16.453,23.512,17.488,22.241,17.488z M22.241,13.37c-0.999,0-1.812,0.813-1.812,1.812
			c0,0.999,0.813,1.812,1.812,1.812c0.999,0,1.812-0.813,1.812-1.812C24.053,14.183,23.24,13.37,22.241,13.37z"/>
	</g>
	<g>
		<path class="st0" d="M35.015,25.952c-0.136,0-0.247-0.11-0.247-0.247v-2.152c0-0.136,0.11-0.247,0.247-0.247
			s0.247,0.11,0.247,0.247v2.152C35.261,25.842,35.151,25.952,35.015,25.952z"/>
	</g>
	<g>
		<path class="st0" d="M36.091,24.876h-2.152c-0.136,0-0.247-0.11-0.247-0.247c0-0.136,0.11-0.247,0.247-0.247h2.152
			c0.136,0,0.247,0.11,0.247,0.247C36.338,24.766,36.227,24.876,36.091,24.876z"/>
	</g>
	<g>
		<path class="st0" d="M30.387,13.099c-0.136,0-0.247-0.11-0.247-0.247V10.7c0-0.136,0.11-0.247,0.247-0.247
			c0.136,0,0.247,0.11,0.247,0.247v2.152C30.634,12.988,30.524,13.099,30.387,13.099z"/>
	</g>
	<g>
		<path class="st0" d="M31.464,12.022h-2.152c-0.136,0-0.247-0.11-0.247-0.247c0-0.136,0.11-0.247,0.247-0.247h2.152
			c0.136,0,0.247,0.11,0.247,0.247C31.71,11.912,31.6,12.022,31.464,12.022z"/>
	</g>
	<g>
		<path class="st0" d="M13.188,18.436c-0.136,0-0.247-0.11-0.247-0.247v-2.153c0-0.136,0.11-0.247,0.247-0.247
			c0.136,0,0.247,0.11,0.247,0.247v2.153C13.434,18.326,13.324,18.436,13.188,18.436z"/>
	</g>
	<g>
		<path class="st0" d="M14.264,17.36h-2.152c-0.136,0-0.247-0.11-0.247-0.247c0-0.136,0.11-0.247,0.247-0.247h2.152
			c0.136,0,0.247,0.11,0.247,0.247C14.51,17.25,14.4,17.36,14.264,17.36z"/>
	</g>
	<g>
		<path class="st0" d="M7.491,28.732c-0.136,0-0.247-0.11-0.247-0.247v-2.153c0-0.136,0.11-0.247,0.247-0.247
			c0.136,0,0.247,0.11,0.247,0.247v2.153C7.738,28.621,7.627,28.732,7.491,28.732z"/>
	</g>
	<g>
		<path class="st0" d="M8.567,27.655H6.415c-0.136,0-0.247-0.11-0.247-0.247c0-0.136,0.11-0.247,0.247-0.247h2.153
			c0.136,0,0.247,0.11,0.247,0.247C8.814,27.545,8.704,27.655,8.567,27.655z"/>
	</g>
</g>
</svg>
