<?xml version="1.0" encoding="utf-8"?>
<!-- Generator: Adobe Illustrator 22.1.0, SVG Export Plug-In . SVG Version: 6.00 Build 0)  -->
<svg version="1.1" id="Layer_1" xmlns="http://www.w3.org/2000/svg" xmlns:xlink="http://www.w3.org/1999/xlink" x="0px" y="0px"
	 viewBox="0 0 45 45" style="enable-background:new 0 0 45 45;" xml:space="preserve">
<style type="text/css">
	.st0{fill:#616870;}
	.st1{fill:#4DA8B6;}
	.st2{fill:#EBEFF2;}
</style>
<g>
	<path class="st0" d="M1003.735,141.346v1.665c0,0.143-0.116,0.259-0.259,0.259c-0.143,0-0.259-0.116-0.259-0.259v-1.665
		c0-0.143,0.116-0.259,0.259-0.259C1003.619,141.087,1003.735,141.202,1003.735,141.346z"/>
</g>
<g>
	<path class="st0" d="M999.994,137.632v1.233c0,0.143-0.116,0.259-0.259,0.259c-0.143,0-0.259-0.116-0.259-0.259v-1.233
		c0-0.143,0.116-0.259,0.259-0.259C999.879,137.373,999.994,137.489,999.994,137.632z"/>
</g>
<g>
	<g>
		<g>
			<g>
				<path class="st0" d="M12.352,30.522c-1.784,0-3.235-1.451-3.235-3.235c0-1.783,1.451-3.235,3.235-3.235
					c1.784,0,3.235,1.451,3.235,3.235C15.587,29.071,14.136,30.522,12.352,30.522z M12.352,24.528c-1.522,0-2.759,1.238-2.759,2.759
					c0,1.522,1.238,2.759,2.759,2.759c1.522,0,2.76-1.238,2.76-2.759C15.112,25.766,13.874,24.528,12.352,24.528z"/>
			</g>
			<g>
				<path class="st0" d="M17.624,36.971H7.081c-0.131,0-0.238-0.106-0.238-0.238v-3.165c0-1.414,1.15-2.564,2.564-2.564h5.891
					c1.414,0,2.564,1.15,2.564,2.564v3.165C17.862,36.865,17.756,36.971,17.624,36.971z M7.318,36.496h10.068v-2.927
					c0-1.152-0.937-2.089-2.089-2.089H9.407c-1.152,0-2.089,0.937-2.089,2.089V36.496z"/>
			</g>
			<g>
				<g>
					<path class="st0" d="M15.437,36.971c-0.131,0-0.238-0.106-0.238-0.238v-2.026c0-0.131,0.106-0.238,0.238-0.238
						c0.131,0,0.238,0.106,0.238,0.238v2.026C15.675,36.865,15.568,36.971,15.437,36.971z"/>
				</g>
				<g>
					<path class="st0" d="M9.268,36.971c-0.131,0-0.238-0.106-0.238-0.238v-2.026c0-0.131,0.106-0.238,0.238-0.238
						c0.131,0,0.238,0.106,0.238,0.238v2.026C9.506,36.865,9.399,36.971,9.268,36.971z"/>
				</g>
			</g>
		</g>
		<g>
			<g>
				<path class="st0" d="M33.049,30.522c-1.784,0-3.235-1.451-3.235-3.235c0-1.783,1.451-3.235,3.235-3.235
					c1.784,0,3.235,1.451,3.235,3.235C36.284,29.071,34.833,30.522,33.049,30.522z M33.049,24.528c-1.521,0-2.759,1.238-2.759,2.759
					c0,1.522,1.238,2.759,2.759,2.759c1.522,0,2.759-1.238,2.759-2.759C35.809,25.766,34.571,24.528,33.049,24.528z"/>
			</g>
			<g>
				<path class="st0" d="M38.321,36.971H27.777c-0.131,0-0.238-0.106-0.238-0.238v-3.165c0-1.414,1.15-2.564,2.564-2.564h5.891
					c1.414,0,2.564,1.15,2.564,2.564v3.165C38.559,36.865,38.453,36.971,38.321,36.971z M28.015,36.496h10.069v-2.927
					c0-1.152-0.937-2.089-2.089-2.089h-5.891c-1.152,0-2.089,0.937-2.089,2.089V36.496z"/>
			</g>
			<g>
				<g>
					<path class="st0" d="M36.134,36.971c-0.131,0-0.238-0.106-0.238-0.238v-2.026c0-0.131,0.106-0.238,0.238-0.238
						c0.131,0,0.238,0.106,0.238,0.238v2.026C36.371,36.865,36.265,36.971,36.134,36.971z"/>
				</g>
				<g>
					<path class="st0" d="M29.965,36.971c-0.131,0-0.238-0.106-0.238-0.238v-2.026c0-0.131,0.106-0.238,0.238-0.238
						c0.131,0,0.238,0.106,0.238,0.238v2.026C30.202,36.865,30.096,36.971,29.965,36.971z"/>
				</g>
			</g>
		</g>
	</g>
	<g>
		<path class="st0" d="M31.169,22.966c-0.065,0-0.129-0.027-0.175-0.077l-1.834-1.995h-5.472l-0.864,1.874
			c-0.078,0.169-0.354,0.169-0.432,0l-0.864-1.874h-5.471l-1.834,1.995c-0.066,0.072-0.17,0.097-0.261,0.061
			c-0.091-0.036-0.151-0.123-0.151-0.221v-1.835c-0.991-0.032-1.788-0.848-1.788-1.848v-8.5c0-1.019,0.829-1.848,1.848-1.848h17.475
			c1.019,0,1.848,0.829,1.848,1.848v8.5c0,0.999-0.797,1.815-1.788,1.848v1.835c0,0.098-0.06,0.186-0.151,0.221
			C31.228,22.961,31.198,22.966,31.169,22.966z M23.537,20.418h5.728c0.067,0,0.13,0.028,0.175,0.077l1.492,1.623v-1.462
			c0-0.131,0.106-0.238,0.238-0.238h0.177c0.757,0,1.373-0.616,1.373-1.373v-8.5c0-0.757-0.616-1.373-1.373-1.373H13.871
			c-0.757,0-1.373,0.616-1.373,1.373v8.5c0,0.757,0.616,1.373,1.373,1.373h0.178c0.131,0,0.238,0.106,0.238,0.238v1.462l1.492-1.623
			c0.045-0.049,0.108-0.077,0.175-0.077h5.728c0.093,0,0.177,0.054,0.216,0.138l0.712,1.544l0.712-1.544
			C23.36,20.472,23.444,20.418,23.537,20.418z"/>
	</g>
	<g>
		<circle class="st1" cx="17.556" cy="16.716" r="1.383"/>
		<path class="st0" d="M17.556,18.336c-0.893,0-1.62-0.727-1.62-1.62c0-0.893,0.727-1.621,1.62-1.621c0.893,0,1.62,0.727,1.62,1.621
			C19.176,17.609,18.45,18.336,17.556,18.336z M17.556,15.571c-0.631,0-1.145,0.514-1.145,1.145c0,0.631,0.514,1.145,1.145,1.145
			c0.631,0,1.145-0.514,1.145-1.145C18.701,16.084,18.188,15.571,17.556,15.571z"/>
	</g>
	<g>
		<circle class="st1" cx="28.686" cy="15.957" r="1.383"/>
		<path class="st0" d="M28.686,17.577c-0.893,0-1.62-0.727-1.62-1.62c0-0.893,0.727-1.62,1.62-1.62c0.893,0,1.62,0.727,1.62,1.62
			C30.306,16.851,29.579,17.577,28.686,17.577z M28.686,14.812c-0.631,0-1.145,0.514-1.145,1.145c0,0.631,0.514,1.145,1.145,1.145
			c0.631,0,1.145-0.514,1.145-1.145C29.831,15.326,29.317,14.812,28.686,14.812z"/>
	</g>
	<g>
		<path class="st1" d="M24.346,12.286c0,0.764-0.619,1.383-1.383,1.383c-0.764,0-1.383-0.619-1.383-1.383
			c0-0.764,0.619-1.383,1.383-1.383C23.727,10.903,24.346,11.522,24.346,12.286z"/>
		<path class="st0" d="M22.964,13.906c-0.893,0-1.62-0.727-1.62-1.62c0-0.893,0.727-1.62,1.62-1.62c0.893,0,1.62,0.727,1.62,1.62
			C24.584,13.179,23.857,13.906,22.964,13.906z M22.964,11.141c-0.631,0-1.145,0.514-1.145,1.145c0,0.631,0.514,1.145,1.145,1.145
			c0.631,0,1.145-0.514,1.145-1.145C24.109,11.655,23.595,11.141,22.964,11.141z"/>
	</g>
	<g>
		<path class="st0" d="M18.458,15.924c-0.072,0-0.142-0.032-0.189-0.094c-0.08-0.104-0.06-0.253,0.045-0.333l3.393-2.586
			c0.105-0.08,0.254-0.06,0.333,0.045c0.08,0.104,0.06,0.253-0.045,0.333l-3.393,2.586C18.559,15.908,18.508,15.924,18.458,15.924z"
			/>
	</g>
	<g>
		<path class="st0" d="M27.629,15.31c-0.042,0-0.084-0.011-0.122-0.033l-3.48-2.079c-0.113-0.067-0.149-0.213-0.082-0.326
			c0.068-0.112,0.213-0.149,0.326-0.082l3.48,2.079c0.113,0.067,0.149,0.214,0.082,0.326C27.788,15.269,27.71,15.31,27.629,15.31z"
			/>
	</g>
	<g>
		<g>
			<circle class="st2" cx="22.701" cy="27.287" r="2.997"/>
			<path class="st0" d="M22.701,30.522c-1.784,0-3.235-1.451-3.235-3.235c0-1.783,1.451-3.235,3.235-3.235
				c1.784,0,3.235,1.451,3.235,3.235C25.936,29.071,24.485,30.522,22.701,30.522z M22.701,24.528c-1.521,0-2.759,1.238-2.759,2.759
				c0,1.522,1.238,2.759,2.759,2.759c1.522,0,2.759-1.238,2.759-2.759C25.46,25.766,24.222,24.528,22.701,24.528z"/>
		</g>
		<g>
			<path class="st2" d="M27.973,36.733H17.429v-3.165c0-1.285,1.042-2.327,2.327-2.327h5.891c1.285,0,2.327,1.042,2.327,2.327
				V36.733z"/>
			<path class="st0" d="M27.973,36.971H17.429c-0.131,0-0.238-0.106-0.238-0.238v-3.165c0-1.414,1.15-2.564,2.564-2.564h5.891
				c1.414,0,2.564,1.15,2.564,2.564v3.165C28.21,36.865,28.104,36.971,27.973,36.971z M17.667,36.496h10.068v-2.927
				c0-1.152-0.937-2.089-2.089-2.089h-5.891c-1.152,0-2.089,0.937-2.089,2.089V36.496z"/>
		</g>
		<g>
			<g>
				<path class="st0" d="M25.785,36.971c-0.131,0-0.238-0.106-0.238-0.238v-2.026c0-0.131,0.106-0.238,0.238-0.238
					c0.131,0,0.238,0.106,0.238,0.238v2.026C26.023,36.865,25.917,36.971,25.785,36.971z"/>
			</g>
			<g>
				<path class="st0" d="M19.616,36.971c-0.131,0-0.238-0.106-0.238-0.238v-2.026c0-0.131,0.106-0.238,0.238-0.238
					c0.131,0,0.238,0.106,0.238,0.238v2.026C19.854,36.865,19.748,36.971,19.616,36.971z"/>
			</g>
		</g>
	</g>
</g>
</svg>
