<?xml version="1.0" encoding="utf-8"?>
<!-- Generator: Adobe Illustrator 22.0.1, SVG Export Plug-In . SVG Version: 6.00 Build 0)  -->
<svg version="1.1" id="Layer_1" xmlns="http://www.w3.org/2000/svg" xmlns:xlink="http://www.w3.org/1999/xlink" x="0px" y="0px"
	 viewBox="0 0 50 24" style="enable-background:new 0 0 50 24;" xml:space="preserve">
<style type="text/css">
	.st0{fill:#295C64;}
</style>
<g>
	<polygon class="st0" points="1.638,6.94 4.126,6.94 4.126,5.754 1.638,5.754 1.638,4.282 4.376,4.282 4.376,3.091 0.096,3.091 
		0.096,9.489 1.638,9.489 	"/>
	<path class="st0" d="M6.11,7.226h0.835l1.129,2.263h1.652V9.423L8.391,6.84c0.384-0.182,0.666-0.418,0.846-0.711
		c0.181-0.292,0.271-0.661,0.271-1.106c0-0.615-0.214-1.09-0.642-1.427s-1.021-0.505-1.78-0.505H4.568v6.398H6.11V7.226z
		 M6.11,4.277h0.976c0.29,0,0.51,0.079,0.659,0.236s0.224,0.374,0.224,0.65S7.895,5.654,7.747,5.808S7.378,6.039,7.085,6.039H6.109
		L6.11,4.277L6.11,4.277z"/>
	<polygon class="st0" points="14.397,8.303 11.531,8.303 11.531,6.773 13.957,6.773 13.957,5.631 11.531,5.631 11.531,4.282 
		14.405,4.282 14.405,3.091 9.989,3.091 9.989,9.489 14.397,9.489 	"/>
	<polygon class="st0" points="18.983,8.303 16.117,8.303 16.117,6.773 18.543,6.773 18.543,5.631 16.117,5.631 16.117,4.282 
		18.991,4.282 18.991,3.091 14.575,3.091 14.575,9.489 18.983,9.489 	"/>
	<path class="st0" d="M2.804,15.104c0.272,0,0.488,0.071,0.648,0.215c0.159,0.144,0.239,0.346,0.239,0.606h1.538
		c0-0.39-0.101-0.736-0.303-1.039c-0.202-0.304-0.486-0.537-0.85-0.701c-0.365-0.164-0.777-0.246-1.237-0.246
		c-0.472,0-0.896,0.076-1.274,0.227s-0.67,0.362-0.877,0.633c-0.206,0.271-0.31,0.584-0.31,0.938c0,0.712,0.415,1.271,1.244,1.679
		c0.255,0.126,0.583,0.256,0.984,0.391s0.682,0.266,0.841,0.392c0.159,0.126,0.24,0.302,0.24,0.527c0,0.199-0.074,0.354-0.222,0.463
		c-0.148,0.11-0.349,0.165-0.604,0.165c-0.398,0-0.687-0.081-0.864-0.244c-0.177-0.162-0.266-0.415-0.266-0.758H0.185
		c0,0.422,0.106,0.795,0.318,1.118c0.212,0.324,0.529,0.579,0.949,0.765c0.42,0.187,0.89,0.279,1.409,0.279
		c0.735,0,1.314-0.159,1.736-0.479s0.633-0.759,0.633-1.318c0-0.7-0.346-1.25-1.037-1.648c-0.284-0.164-0.647-0.316-1.09-0.459
		c-0.442-0.142-0.751-0.279-0.927-0.413C2,16.064,1.912,15.915,1.912,15.751c0-0.188,0.08-0.342,0.24-0.464
		C2.311,15.164,2.529,15.104,2.804,15.104z"/>
	<path class="st0" d="M9.047,18.206c0,0.396-0.082,0.681-0.246,0.856s-0.406,0.264-0.725,0.264c-0.633,0-0.958-0.35-0.976-1.05
		v-4.25H5.549v4.219c0.009,0.703,0.237,1.257,0.686,1.661s1.062,0.606,1.841,0.606c0.516,0,0.962-0.091,1.34-0.272
		s0.668-0.446,0.87-0.793c0.202-0.348,0.303-0.758,0.303-1.232v-4.188H9.047V18.206z"/>
	<path class="st0" d="M14.954,14.297c-0.376-0.181-0.81-0.271-1.298-0.271h-2.554v6.398h1.542v-2.171h0.984
		c0.779,0,1.392-0.187,1.839-0.561c0.446-0.373,0.67-0.872,0.67-1.496c0-0.422-0.104-0.799-0.31-1.132
		C15.622,14.733,15.331,14.477,14.954,14.297z M14.339,16.839c-0.157,0.149-0.384,0.225-0.683,0.225h-1.011v-1.846h1.029
		c0.277,0.003,0.498,0.094,0.658,0.272c0.162,0.179,0.242,0.417,0.242,0.716C14.574,16.479,14.496,16.689,14.339,16.839z"/>
	<path class="st0" d="M20.362,14.297c-0.376-0.181-0.81-0.271-1.298-0.271H16.51v6.398h1.542v-2.171h0.984
		c0.779,0,1.393-0.187,1.84-0.561c0.446-0.373,0.67-0.872,0.67-1.496c0-0.422-0.104-0.799-0.31-1.132
		C21.03,14.733,20.739,14.477,20.362,14.297z M19.747,16.839c-0.156,0.149-0.384,0.225-0.683,0.225h-1.012v-1.846h1.029
		c0.277,0.003,0.497,0.094,0.658,0.272s0.242,0.417,0.242,0.716C19.982,16.479,19.904,16.689,19.747,16.839z"/>
	<path class="st0" d="M25.987,14.325c-0.425-0.258-0.908-0.387-1.45-0.387c-0.548,0-1.036,0.131-1.466,0.392
		c-0.429,0.261-0.759,0.63-0.988,1.109c-0.23,0.479-0.346,1.032-0.346,1.659v0.36c0.012,0.604,0.136,1.138,0.372,1.604
		c0.235,0.466,0.564,0.824,0.986,1.074c0.422,0.251,0.905,0.376,1.45,0.376s1.03-0.13,1.457-0.389
		c0.426-0.26,0.755-0.629,0.986-1.109s0.348-1.033,0.348-1.657v-0.294c-0.004-0.615-0.123-1.161-0.358-1.638
		C26.742,14.95,26.412,14.583,25.987,14.325z M25.767,17.384c-0.003,0.621-0.11,1.098-0.321,1.429s-0.511,0.496-0.9,0.496
		c-0.41,0-0.72-0.168-0.928-0.505s-0.312-0.819-0.312-1.446l0.005-0.47c0.043-1.16,0.452-1.74,1.226-1.74
		c0.396,0,0.699,0.164,0.912,0.494c0.212,0.329,0.318,0.812,0.318,1.448C25.767,17.09,25.767,17.384,25.767,17.384z"/>
	<path class="st0" d="M32.351,17.064c0.181-0.293,0.271-0.661,0.271-1.106c0-0.614-0.214-1.09-0.642-1.427
		c-0.428-0.336-1.021-0.505-1.779-0.505h-2.519v6.398h1.542v-2.263h0.836l1.129,2.263h1.652v-0.065l-1.336-2.584
		C31.889,17.594,32.172,17.357,32.351,17.064z M30.862,16.744c-0.148,0.154-0.369,0.231-0.661,0.231h-0.977v-1.763h0.977
		c0.289,0,0.51,0.079,0.658,0.236c0.15,0.157,0.225,0.373,0.225,0.649C31.084,16.373,31.009,16.59,30.862,16.744z"/>
	<polygon class="st0" points="32.558,14.026 32.558,15.218 34.443,15.218 34.443,20.425 35.986,20.425 35.986,15.218 37.906,15.218 
		37.906,14.026 	"/>
	<polygon class="st0" points="1.531,13.208 1.531,10.567 2.506,10.567 2.506,10.364 0.318,10.364 0.318,10.567 1.291,10.567 
		1.291,13.208 	"/>
	<polygon class="st0" points="4.425,10.567 4.425,10.364 2.665,10.364 2.665,13.208 4.434,13.208 4.434,13.005 2.905,13.005 
		2.905,11.845 4.235,11.845 4.235,11.642 2.905,11.642 2.905,10.567 	"/>
	<path class="st0" d="M5.047,13.089c0.162,0.105,0.349,0.158,0.56,0.158c0.302,0,0.544-0.079,0.726-0.238
		c0.182-0.158,0.289-0.388,0.321-0.688H6.412c-0.03,0.241-0.109,0.422-0.236,0.542c-0.127,0.121-0.317,0.181-0.568,0.181
		c-0.254,0-0.456-0.098-0.604-0.293S4.78,12.294,4.78,11.965v-0.348c0-0.34,0.077-0.606,0.229-0.8
		c0.153-0.192,0.358-0.289,0.616-0.289c0.465,0,0.727,0.242,0.787,0.725h0.242c-0.029-0.291-0.131-0.518-0.308-0.682
		s-0.417-0.246-0.722-0.246c-0.216,0-0.407,0.053-0.573,0.159s-0.293,0.257-0.382,0.452s-0.133,0.42-0.133,0.672v0.369
		c0.001,0.249,0.046,0.47,0.135,0.663S4.885,12.983,5.047,13.089z"/>
	<polygon class="st0" points="9.045,13.208 9.045,10.364 8.803,10.364 8.803,11.642 7.178,11.642 7.178,10.364 6.938,10.364 
		6.938,13.208 7.178,13.208 7.178,11.845 8.803,11.845 8.803,13.208 	"/>
	<polygon class="st0" points="9.71,10.364 9.467,10.364 9.467,13.208 9.71,13.208 9.71,10.774 11.344,13.208 11.585,13.208 
		11.585,10.364 11.346,10.364 11.346,12.8 	"/>
	<rect x="12.06" y="10.364" class="st0" width="0.24" height="2.844"/>
	<path class="st0" d="M13.183,10.484c-0.166,0.106-0.293,0.257-0.382,0.452s-0.133,0.42-0.133,0.672v0.369
		c0.001,0.249,0.046,0.47,0.135,0.663s0.214,0.343,0.376,0.448s0.349,0.158,0.56,0.158c0.302,0,0.544-0.079,0.726-0.238
		c0.182-0.158,0.289-0.388,0.321-0.688h-0.242c-0.03,0.241-0.108,0.422-0.236,0.542c-0.128,0.121-0.317,0.181-0.568,0.181
		c-0.254,0-0.456-0.098-0.604-0.293s-0.224-0.457-0.224-0.786v-0.348c0-0.34,0.077-0.606,0.229-0.8
		c0.153-0.192,0.358-0.289,0.616-0.289c0.465,0,0.728,0.242,0.787,0.725h0.242c-0.028-0.291-0.131-0.518-0.308-0.682
		c-0.176-0.164-0.417-0.246-0.722-0.246C13.54,10.325,13.349,10.378,13.183,10.484z"/>
	<path class="st0" d="M14.769,13.208h0.252l0.293-0.799h1.291l0.295,0.799h0.25l-1.076-2.844h-0.229L14.769,13.208z M16.529,12.206
		h-1.141l0.57-1.549L16.529,12.206z"/>
	<polygon class="st0" points="17.267,10.364 17.267,13.208 18.914,13.208 18.914,13.005 17.509,13.005 17.509,10.364 	"/>
</g>
</svg>
