<?xml version="1.0" encoding="utf-8"?>
<!-- Generator: Adobe Illustrator 22.1.0, SVG Export Plug-In . SVG Version: 6.00 Build 0)  -->
<svg version="1.1" id="Layer_1" xmlns="http://www.w3.org/2000/svg" xmlns:xlink="http://www.w3.org/1999/xlink" x="0px" y="0px"
	 viewBox="0 0 45 45" style="enable-background:new 0 0 45 45;" xml:space="preserve">
<style type="text/css">
	.st0{fill:#616870;}
	.st1{fill:#4DA8B6;}
	.st2{fill:#EBEFF2;}
</style>
<g>
	<path class="st0" d="M1003.735,141.346v1.665c0,0.143-0.116,0.259-0.259,0.259c-0.143,0-0.259-0.116-0.259-0.259v-1.665
		c0-0.143,0.116-0.259,0.259-0.259C1003.619,141.087,1003.735,141.202,1003.735,141.346z"/>
</g>
<g>
	<path class="st0" d="M999.994,137.632v1.233c0,0.143-0.116,0.259-0.259,0.259c-0.143,0-0.259-0.116-0.259-0.259v-1.233
		c0-0.143,0.116-0.259,0.259-0.259C999.879,137.373,999.994,137.489,999.994,137.632z"/>
</g>
<g>
	<g>
		<g>
			<g>
				<path class="st0" d="M34.333,31.154H8.235c-0.57,0-1.034-0.464-1.034-1.034V11.865c0-0.569,0.464-1.033,1.034-1.033h26.099
					c0.569,0,1.033,0.464,1.033,1.033V30.12C35.366,30.69,34.903,31.154,34.333,31.154z M8.235,11.333
					c-0.293,0-0.532,0.238-0.532,0.531V30.12c0,0.293,0.238,0.532,0.532,0.532h26.099c0.293,0,0.531-0.239,0.531-0.532V11.865
					c0-0.293-0.238-0.531-0.531-0.531H8.235z"/>
			</g>
			<g>
				<path class="st1" d="M7.452,11.865c0-0.432,0.351-0.782,0.783-0.782h26.099c0.432,0,0.782,0.35,0.782,0.782v3.507H7.452V11.865z
					"/>
				<path class="st0" d="M35.115,15.622H7.452c-0.139,0-0.251-0.112-0.251-0.251v-3.507c0-0.569,0.464-1.033,1.034-1.033h26.099
					c0.569,0,1.033,0.464,1.033,1.033v3.507C35.366,15.51,35.254,15.622,35.115,15.622z M7.703,15.121h27.161v-3.256
					c0-0.293-0.238-0.531-0.531-0.531H8.235c-0.293,0-0.532,0.238-0.532,0.531V15.121z"/>
			</g>
			<g>
				<path class="st2" d="M9.799,30.903v2.256c0,0.432,0.351,0.783,0.783,0.783h26.49c0.432,0,0.782-0.35,0.782-0.783V14.903
					c0-0.432-0.35-0.782-0.782-0.782h-1.956V30.12c0,0.432-0.35,0.783-0.782,0.783H9.799z"/>
				<path class="st0" d="M37.071,34.192h-26.49c-0.57,0-1.034-0.464-1.034-1.034v-2.256c0-0.139,0.112-0.251,0.251-0.251h24.534
					c0.293,0,0.531-0.239,0.531-0.532V14.121c0-0.139,0.112-0.251,0.251-0.251h1.956c0.569,0,1.033,0.464,1.033,1.033v18.255
					C38.104,33.728,37.641,34.192,37.071,34.192z M10.05,31.154v2.005c0,0.293,0.238,0.532,0.532,0.532h26.49
					c0.293,0,0.531-0.239,0.531-0.532V14.903c0-0.293-0.238-0.531-0.531-0.531h-1.705V30.12c0,0.57-0.463,1.034-1.033,1.034H10.05z"
					/>
			</g>
		</g>
		<g>
			<g>
				<g>
					<circle class="st2" cx="21.112" cy="20.651" r="3.082"/>
					<path class="st0" d="M21.112,23.929c-1.808,0-3.279-1.471-3.279-3.279c0-1.808,1.471-3.279,3.279-3.279
						c1.808,0,3.279,1.471,3.279,3.279C24.391,22.459,22.92,23.929,21.112,23.929z M21.112,17.766c-1.591,0-2.885,1.294-2.885,2.885
						c0,1.591,1.294,2.885,2.885,2.885c1.591,0,2.885-1.294,2.885-2.885C23.997,19.06,22.703,17.766,21.112,17.766z"/>
				</g>
				<g>
					<path class="st2" d="M26.533,30.555h-5.421h-5.421v-3.445c0-1.321,1.071-2.392,2.392-2.392h6.057
						c1.321,0,2.392,1.071,2.392,2.392V30.555z"/>
					<path class="st0" d="M26.533,30.752H15.691c-0.109,0-0.197-0.088-0.197-0.197v-3.446c0-1.428,1.161-2.589,2.589-2.589h6.057
						c1.428,0,2.589,1.161,2.589,2.589v3.446C26.73,30.664,26.642,30.752,26.533,30.752z M15.888,30.358h10.448v-3.249
						c0-1.21-0.985-2.195-2.195-2.195h-6.057c-1.21,0-2.195,0.985-2.195,2.195V30.358z"/>
				</g>
				<g>
					<g>
						<path class="st0" d="M24.284,30.752c-0.109,0-0.197-0.088-0.197-0.197v-2.274c0-0.109,0.088-0.197,0.197-0.197
							c0.109,0,0.197,0.088,0.197,0.197v2.274C24.481,30.664,24.393,30.752,24.284,30.752z"/>
					</g>
					<g>
						<path class="st0" d="M17.941,30.752c-0.109,0-0.197-0.088-0.197-0.197v-2.274c0-0.109,0.088-0.197,0.197-0.197
							s0.197,0.088,0.197,0.197v2.274C18.138,30.664,18.05,30.752,17.941,30.752z"/>
					</g>
				</g>
			</g>
		</g>
	</g>
	<g>
		<g>
			<path class="st0" d="M14.568,19.896h-3.576c-0.126,0-0.227-0.107-0.227-0.24c0-0.132,0.102-0.24,0.227-0.24h3.576
				c0.126,0,0.227,0.107,0.227,0.24C14.795,19.789,14.694,19.896,14.568,19.896z"/>
		</g>
		<g>
			<path class="st0" d="M32.193,20.772h-5.658c-0.126,0-0.227-0.107-0.227-0.24c0-0.132,0.102-0.24,0.227-0.24h5.658
				c0.126,0,0.227,0.107,0.227,0.24C32.42,20.664,32.319,20.772,32.193,20.772z"/>
		</g>
		<g>
			<path class="st0" d="M29.623,18.298h-4.667c-0.126,0-0.227-0.107-0.227-0.24c0-0.132,0.102-0.24,0.227-0.24h4.667
				c0.126,0,0.227,0.107,0.227,0.24C29.85,18.191,29.748,18.298,29.623,18.298z"/>
		</g>
		<g>
			<path class="st0" d="M32.391,18.296h-1.128c-0.126,0-0.227-0.107-0.227-0.24c0-0.132,0.102-0.24,0.227-0.24h1.128
				c0.126,0,0.227,0.107,0.227,0.24C32.618,18.188,32.516,18.296,32.391,18.296z"/>
		</g>
		<g>
			<path class="st0" d="M13.161,22.332h-4.14c-0.126,0-0.227-0.107-0.227-0.24c0-0.132,0.102-0.24,0.227-0.24h4.14
				c0.126,0,0.227,0.107,0.227,0.24C13.388,22.225,13.287,22.332,13.161,22.332z"/>
		</g>
		<g>
			<path class="st0" d="M16.357,22.333h-2.105c-0.126,0-0.227-0.107-0.227-0.24c0-0.132,0.102-0.24,0.227-0.24h2.105
				c0.126,0,0.227,0.107,0.227,0.24C16.584,22.226,16.482,22.333,16.357,22.333z"/>
		</g>
	</g>
</g>
</svg>
