<?xml version="1.0" encoding="utf-8"?>
<!-- Generator: Adobe Illustrator 22.0.1, SVG Export Plug-In . SVG Version: 6.00 Build 0)  -->
<svg version="1.1" id="Layer_1" xmlns="http://www.w3.org/2000/svg" xmlns:xlink="http://www.w3.org/1999/xlink" x="0px" y="0px"
	 viewBox="0 0 45 45" style="enable-background:new 0 0 45 45;" xml:space="preserve">
<style type="text/css">
	.st0{fill:#B52025;}
</style>
<g id="GZ5IYQ_1_">
	<g>
		<path class="st0" d="M17.625,1.751c3.558,0,7.117-0.001,10.675,0c2.832,0.001,5.185,1.811,5.892,4.552
			c0.108,0.419,0.175,0.861,0.176,1.293c0.01,7.24,0.009,14.48,0.007,21.721c-0.001,2.979-2.312,5.549-5.282,5.879
			c-0.289,0.032-0.581,0.053-0.871,0.053c-7.162,0.003-14.323,0.002-21.485,0.002c-2.906,0-5.529-2.357-5.797-5.244
			c-0.071-0.768-0.06-1.545-0.061-2.319c-0.004-6.69-0.002-13.38-0.002-20.071c0-2.909,2.346-5.515,5.237-5.81
			c0.334-0.034,0.67-0.053,1.006-0.054C10.62,1.749,14.123,1.751,17.625,1.751z M17.596,14.273
			c-2.104-2.109-4.183-4.193-6.217-6.232c-1.421,1.419-2.821,2.819-4.272,4.268c2.046,2.04,4.125,4.113,6.256,6.238
			c-2.091,2.09-4.172,4.171-6.218,6.217c1.41,1.412,2.803,2.808,4.229,4.237c2.063-2.063,4.145-4.146,6.302-6.303
			c2.099,2.103,4.179,4.187,6.212,6.224c1.385-1.386,2.777-2.78,4.222-4.227c-2.056-2.045-4.144-4.121-6.28-6.245
			c2.1-2.1,4.178-4.176,6.208-6.207c-1.39-1.392-2.787-2.793-4.204-4.212C21.787,10.08,19.711,12.157,17.596,14.273z"/>
	</g>
</g>
</svg>
