<?xml version="1.0" encoding="utf-8"?>
<!-- Generator: Adobe Illustrator 22.0.1, SVG Export Plug-In . SVG Version: 6.00 Build 0)  -->
<svg version="1.1" id="Layer_1" xmlns="http://www.w3.org/2000/svg" xmlns:xlink="http://www.w3.org/1999/xlink" x="0px" y="0px"
	 viewBox="0 0 45 45" style="enable-background:new 0 0 45 45;" xml:space="preserve">
<style type="text/css">
	.st0{fill:#4DA8B6;}
	.st1{fill:#616870;}
	.st2{fill:#EBEFF2;}
	.st3{fill:#FFFFFF;}
</style>
<g>
	<g>
		<rect x="8.263" y="18.742" class="st0" width="25.512" height="16.838"/>
		<path class="st1" d="M33.775,35.878H8.263c-0.165,0-0.299-0.134-0.299-0.299V18.741c0-0.165,0.134-0.299,0.299-0.299h25.512
			c0.165,0,0.299,0.134,0.299,0.299V35.58C34.073,35.745,33.94,35.878,33.775,35.878z M8.561,35.281h24.915V19.04H8.561V35.281z"/>
	</g>
	<g>
		<path class="st1" d="M21.483,9.563c-0.913,0-1.656-0.743-1.656-1.656s0.743-1.656,1.656-1.656c0.913,0,1.656,0.743,1.656,1.656
			S22.397,9.563,21.483,9.563z M21.483,6.848c-0.584,0-1.059,0.475-1.059,1.059s0.475,1.059,1.059,1.059
			c0.584,0,1.059-0.475,1.059-1.059S22.067,6.848,21.483,6.848z"/>
	</g>
	<g>
		<path class="st1" d="M15.356,8.206c-0.913,0-1.656-0.743-1.656-1.656s0.743-1.656,1.656-1.656s1.656,0.743,1.656,1.656
			S16.269,8.206,15.356,8.206z M15.356,5.491c-0.584,0-1.059,0.475-1.059,1.059s0.475,1.059,1.059,1.059
			c0.584,0,1.059-0.475,1.059-1.059S15.94,5.491,15.356,5.491z"/>
	</g>
	<g>
		<path class="st1" d="M27.611,6.481c-0.913,0-1.656-0.743-1.656-1.656s0.743-1.656,1.656-1.656c0.913,0,1.656,0.743,1.656,1.656
			S28.525,6.481,27.611,6.481z M27.611,3.766c-0.584,0-1.059,0.475-1.059,1.059s0.475,1.059,1.059,1.059
			c0.584,0,1.059-0.475,1.059-1.059S28.195,3.766,27.611,3.766z"/>
	</g>
	<g>
		<path class="st1" d="M31.354,9.733c-0.914,0-1.657-0.743-1.657-1.656s0.743-1.656,1.657-1.656c0.913,0,1.656,0.743,1.656,1.656
			S32.267,9.733,31.354,9.733z M31.354,7.018c-0.584,0-1.06,0.475-1.06,1.059c0,0.584,0.475,1.059,1.06,1.059
			c0.584,0,1.059-0.475,1.059-1.059C32.413,7.493,31.938,7.018,31.354,7.018z"/>
	</g>
	<g>
		<path class="st1" d="M27.611,7.615c-0.165,0-0.299-0.134-0.299-0.299V6.3c0-0.165,0.134-0.299,0.299-0.299
			c0.165,0,0.299,0.134,0.299,0.299v1.016C27.91,7.481,27.776,7.615,27.611,7.615z"/>
	</g>
	<g>
		<path class="st1" d="M15.356,11.524c-0.165,0-0.299-0.134-0.299-0.299V8.017c0-0.165,0.134-0.299,0.299-0.299
			c0.165,0,0.299,0.134,0.299,0.299v3.209C15.654,11.391,15.521,11.524,15.356,11.524z"/>
	</g>
	<g>
		<rect x="10.523" y="16.424" class="st2" width="25.512" height="16.838"/>
		<path class="st1" d="M36.035,33.56H10.523c-0.165,0-0.299-0.134-0.299-0.299V16.424c0-0.165,0.134-0.299,0.299-0.299h25.512
			c0.165,0,0.299,0.134,0.299,0.299v16.838C36.333,33.427,36.2,33.56,36.035,33.56z M10.822,32.963h24.915V16.722H10.822V32.963z"/>
	</g>
	<g>
		<g>
			<path class="st3" d="M30.657,35.628v-9.621c0-0.795-0.644-1.439-1.439-1.439c-0.795,0-1.439,0.644-1.439,1.439l0,0v-0.489
				c0-0.795-0.644-1.439-1.439-1.439c-0.795,0-1.439,0.644-1.439,1.439v0.489v-0.353v-0.685c0-0.795-0.644-1.439-1.439-1.439
				c-0.795,0-1.439,0.644-1.439,1.439v1.038v-0.315v-5.561c0-0.795-0.644-1.439-1.439-1.439c-0.795,0-1.439,0.644-1.439,1.439v7.573
				l0.684,1.483l-1.266-1.962c-0.431-0.668-1.322-0.86-1.99-0.429c-0.668,0.431-0.86,1.322-0.429,1.99l2.854,4.421v2.421"/>
			<path class="st1" d="M30.657,35.926c-0.165,0-0.299-0.134-0.299-0.299v-9.621c0-0.629-0.511-1.141-1.141-1.141
				c-0.629,0-1.141,0.512-1.141,1.141c0,0.165-0.134,0.299-0.299,0.299c-0.165,0-0.299-0.134-0.299-0.299v-0.489
				c0-0.629-0.512-1.141-1.141-1.141c-0.629,0-1.141,0.512-1.141,1.141v0.489c0,0.165-0.134,0.299-0.299,0.299
				c-0.165,0-0.299-0.134-0.299-0.299v-1.038c0-0.629-0.512-1.141-1.141-1.141c-0.629,0-1.141,0.512-1.141,1.141v1.038
				c0,0.165-0.134,0.299-0.299,0.299c-0.165,0-0.299-0.134-0.299-0.299v-5.875c0-0.629-0.512-1.141-1.141-1.141
				c-0.629,0-1.141,0.512-1.141,1.141v7.507l0.657,1.423c0.066,0.142,0.01,0.311-0.127,0.387c-0.138,0.076-0.31,0.032-0.395-0.1
				l-1.267-1.962c-0.341-0.528-1.048-0.68-1.577-0.34c-0.528,0.341-0.68,1.049-0.339,1.577l2.854,4.421
				c0.031,0.048,0.048,0.104,0.048,0.162v2.421c0,0.165-0.134,0.299-0.299,0.299c-0.165,0-0.299-0.134-0.299-0.299v-2.333
				l-2.806-4.347c-0.52-0.805-0.288-1.883,0.517-2.403c0.39-0.252,0.855-0.336,1.309-0.239c0.454,0.098,0.842,0.367,1.094,0.757
				l0.033,0.051v-6.983c0-0.958,0.78-1.738,1.738-1.738c0.958,0,1.738,0.78,1.738,1.738v3.527c0.306-0.267,0.705-0.428,1.141-0.428
				c0.731,0,1.358,0.454,1.614,1.095c0.317-0.336,0.767-0.546,1.264-0.546c0.716,0,1.332,0.435,1.598,1.054
				c0.318-0.347,0.775-0.564,1.281-0.564c0.958,0,1.738,0.78,1.738,1.738v9.621C30.956,35.793,30.822,35.926,30.657,35.926z"/>
		</g>
		<g>
			<rect x="18.106" y="35.628" class="st3" width="13.248" height="5.202"/>
			<path class="st1" d="M31.354,41.128H18.106c-0.165,0-0.299-0.134-0.299-0.299v-5.202c0-0.165,0.134-0.299,0.299-0.299h13.248
				c0.165,0,0.299,0.134,0.299,0.299v5.202C31.653,40.995,31.519,41.128,31.354,41.128z M18.404,40.531h12.651v-4.605H18.404V40.531
				z"/>
		</g>
		<g>
			<circle class="st0" cx="28.965" cy="38.229" r="1.107"/>
			<path class="st1" d="M28.965,39.634c-0.775,0-1.405-0.63-1.405-1.405c0-0.775,0.63-1.405,1.405-1.405
				c0.774,0,1.405,0.63,1.405,1.405C30.37,39.003,29.74,39.634,28.965,39.634z M28.965,37.421c-0.446,0-0.808,0.362-0.808,0.808
				c0,0.446,0.363,0.808,0.808,0.808c0.445,0,0.808-0.362,0.808-0.808C29.773,37.783,29.411,37.421,28.965,37.421z"/>
		</g>
	</g>
	<g>
		<path class="st1" d="M17.744,20.792c-0.165,0-0.299-0.134-0.299-0.299v-1.791c0-0.165,0.134-0.299,0.299-0.299
			c0.165,0,0.299,0.134,0.299,0.299v1.791C18.043,20.659,17.909,20.792,17.744,20.792z M17.744,17.807
			c-0.165,0-0.299-0.134-0.299-0.299v-2.51l-2.322-2.882c-0.043-0.053-0.066-0.119-0.066-0.187v-0.744
			c0-0.165,0.134-0.299,0.299-0.299c0.165,0,0.299,0.134,0.299,0.299v0.639l2.322,2.882c0.043,0.053,0.066,0.119,0.066,0.187v2.615
			C18.043,17.673,17.909,17.807,17.744,17.807z M15.356,9.692c-0.165,0-0.299-0.134-0.299-0.299V8.2
			c0-0.165,0.134-0.299,0.299-0.299c0.165,0,0.299,0.134,0.299,0.299v1.194C15.654,9.559,15.521,9.692,15.356,9.692z"/>
	</g>
	<g>
		<path class="st1" d="M28.965,20.792c-0.165,0-0.299-0.134-0.299-0.299v-1.791c0-0.165,0.134-0.299,0.299-0.299
			c0.165,0,0.299,0.134,0.299,0.299v1.791C29.264,20.659,29.13,20.792,28.965,20.792z M28.965,17.807
			c-0.165,0-0.299-0.134-0.299-0.299V16.61c0-0.068,0.023-0.134,0.066-0.187l2.323-2.882v-2.355c0-0.165,0.134-0.299,0.299-0.299
			c0.165,0,0.299,0.134,0.299,0.299v2.461c0,0.068-0.023,0.134-0.066,0.187l-2.323,2.882v0.793
			C29.264,17.673,29.13,17.807,28.965,17.807z"/>
	</g>
	<g>
		<path class="st1" d="M25.223,21.429c-0.165,0-0.299-0.134-0.299-0.299v-1.791c0-0.165,0.134-0.299,0.299-0.299
			c0.165,0,0.298,0.134,0.298,0.299v1.791C25.521,21.295,25.387,21.429,25.223,21.429z M25.223,18.443
			c-0.165,0-0.299-0.134-0.299-0.299v-4.446c0-0.068,0.023-0.134,0.066-0.187l1.706-2.118c0.103-0.129,0.293-0.148,0.42-0.045
			c0.128,0.103,0.149,0.291,0.045,0.42l-1.641,2.036v4.34C25.521,18.309,25.387,18.443,25.223,18.443z M27.611,10.329
			c-0.165,0-0.299-0.134-0.299-0.299V8.836c0-0.165,0.134-0.299,0.299-0.299c0.165,0,0.299,0.134,0.299,0.299v1.194
			C27.91,10.195,27.776,10.329,27.611,10.329z"/>
	</g>
	<g>
		<path class="st1" d="M21.483,18.024c-0.165,0-0.299-0.134-0.299-0.299v-5.475c0-0.165,0.134-0.299,0.299-0.299
			c0.165,0,0.299,0.134,0.299,0.299v5.475C21.782,17.891,21.648,18.024,21.483,18.024z M21.483,11.355
			c-0.165,0-0.299-0.134-0.299-0.299V9.265c0-0.165,0.134-0.299,0.299-0.299c0.165,0,0.299,0.134,0.299,0.299v1.791
			C21.782,11.221,21.648,11.355,21.483,11.355z"/>
	</g>
</g>
</svg>
