<?xml version="1.0" encoding="utf-8"?>
<!-- Generator: Adobe Illustrator 22.1.0, SVG Export Plug-In . SVG Version: 6.00 Build 0)  -->
<svg version="1.1" id="Layer_1" xmlns="http://www.w3.org/2000/svg" xmlns:xlink="http://www.w3.org/1999/xlink" x="0px" y="0px"
	 viewBox="0 0 45 45" style="enable-background:new 0 0 45 45;" xml:space="preserve">
<style type="text/css">
	.st0{fill:#616870;}
	.st1{fill:#EBEFF2;}
	.st2{fill:#4DA8B6;}
	.st3{fill:#FFFFFF;}
</style>
<g>
	<path class="st0" d="M1003.735,141.346v1.665c0,0.143-0.116,0.259-0.259,0.259c-0.143,0-0.259-0.116-0.259-0.259v-1.665
		c0-0.143,0.116-0.259,0.259-0.259C1003.619,141.087,1003.735,141.202,1003.735,141.346z"/>
</g>
<g>
	<path class="st0" d="M999.994,137.632v1.233c0,0.143-0.116,0.259-0.259,0.259c-0.143,0-0.259-0.116-0.259-0.259v-1.233
		c0-0.143,0.116-0.259,0.259-0.259C999.879,137.373,999.994,137.489,999.994,137.632z"/>
</g>
<g>
	<path class="st1" d="M31.121,20.429c0-0.705-0.573-1.278-1.278-1.278h-19.03v-1.783c0-0.705,0.572-1.278,1.278-1.278h20.812
		c0.705,0,1.278,0.573,1.278,1.278v14.489c0,0.705-0.573,1.278-1.278,1.278h-1.783V20.429z"/>
	<path class="st2" d="M34.153,17.369c0-0.705-0.573-1.278-1.278-1.278h-19.03v-1.782c0-0.705,0.572-1.278,1.278-1.278h20.812
		c0.705,0,1.278,0.573,1.278,1.278v14.489c0,0.705-0.573,1.278-1.278,1.278h-1.783V17.369z"/>
	<g>
		<path class="st0" d="M35.969,12.804h-9.235c0.053,0.165,0.095,0.336,0.136,0.506h9.099c0.565,0,1.025,0.46,1.025,1.025v14.489
			c0,0.565-0.46,1.024-1.025,1.024h-1.504V17.369c0-0.844-0.687-1.531-1.531-1.531h-5.883c-0.018,0.18-0.05,0.356-0.081,0.531h5.938
			c0.565,0,1.025,0.46,1.025,1.025v12.706c0,0.024,0.019,0.04,0.026,0.062v1.695c0,0.565-0.46,1.025-1.025,1.025h-1.53V20.429
			c0-0.844-0.686-1.531-1.531-1.531h-3.848c-0.104,0.173-0.212,0.342-0.329,0.506h4.178c0.087,0,0.17,0.014,0.251,0.035c0,0,0,0,0,0
			l-9.93,9.652c-0.402,0.389-1.054,0.389-1.455,0L8.81,19.439c0.081-0.021,0.165-0.035,0.252-0.035h1.782h2.702
			c-0.117-0.164-0.226-0.333-0.329-0.506h-2.12v-1.53c0-0.565,0.46-1.025,1.025-1.025h0.147c-0.029-0.168-0.06-0.335-0.077-0.506
			h-0.069c-0.844,0-1.531,0.687-1.531,1.531v1.53h-1.53c-0.844,0-1.531,0.687-1.531,1.531v14.489c0,0.844,0.687,1.531,1.531,1.531
			h20.812c0.844,0,1.531-0.687,1.531-1.531v-1.53h1.53c0.844,0,1.531-0.686,1.531-1.531v-1.504h1.504
			c0.844,0,1.531-0.687,1.531-1.53V14.334C37.5,13.49,36.813,12.804,35.969,12.804z M30.899,33.136v1.782
			c0,0.325-0.155,0.612-0.392,0.8l-7.812-6.557c-0.107-0.09-0.267-0.076-0.356,0.031c-0.09,0.107-0.076,0.266,0.031,0.356
			l7.606,6.385c-0.034,0.003-0.067,0.01-0.102,0.01H9.062c-0.035,0-0.069-0.007-0.103-0.01l7.608-6.385
			c0.107-0.09,0.121-0.249,0.031-0.356c-0.089-0.107-0.249-0.121-0.356-0.031l-7.813,6.558c-0.237-0.188-0.392-0.475-0.392-0.799
			V20.429c0-0.288,0.12-0.547,0.311-0.734l10.04,9.758c0.298,0.289,0.689,0.434,1.08,0.434c0.391,0,0.782-0.145,1.08-0.434
			l10.039-9.758c0.095,0.092,0.171,0.202,0.225,0.324c0.001,0.002,0.002,0.003,0.003,0.005c0.024,0.055,0.041,0.112,0.055,0.171
			c0.002,0.008,0.006,0.016,0.008,0.025c0.014,0.067,0.022,0.137,0.022,0.209V33.136z"/>
	</g>
	<path class="st3" d="M19.489,22.73c-4.204,0-7.625-3.421-7.625-7.625c0-4.204,3.42-7.625,7.625-7.625s7.625,3.421,7.625,7.625
		C27.114,19.31,23.694,22.73,19.489,22.73z"/>
	<path class="st2" d="M23.252,15.012l0.774-0.774c0.171-0.171,0.171-0.45,0-0.621c-0.172-0.172-0.451-0.171-0.622,0L22.63,14.39
		l-0.774-0.774c-0.171-0.171-0.45-0.172-0.622,0c-0.171,0.171-0.171,0.45,0,0.621l0.774,0.774l-0.774,0.774
		c-0.171,0.171-0.171,0.45,0,0.622c0.086,0.086,0.198,0.129,0.311,0.129c0.113,0,0.225-0.043,0.311-0.129l0.774-0.774l0.774,0.774
		c0.086,0.086,0.198,0.129,0.311,0.129c0.112,0,0.225-0.043,0.311-0.129c0.171-0.171,0.171-0.45,0-0.622L23.252,15.012z"/>
	<path class="st0" d="M19.489,22.73c-4.204,0-7.625-3.421-7.625-7.625c0-4.204,3.42-7.625,7.625-7.625s7.625,3.421,7.625,7.625
		C27.114,19.31,23.694,22.73,19.489,22.73z M19.489,8.601c-3.586,0-6.504,2.918-6.504,6.504c0,3.587,2.918,6.505,6.504,6.505
		c3.586,0,6.505-2.918,6.505-6.505C25.994,11.519,23.076,8.601,19.489,8.601z"/>
	<g>
		<g>
			<path class="st0" d="M18.29,16.471h-3.276c-0.115,0-0.208-0.098-0.208-0.22c0-0.121,0.093-0.22,0.208-0.22h3.276
				c0.115,0,0.208,0.098,0.208,0.22C18.498,16.372,18.405,16.471,18.29,16.471z"/>
		</g>
		<g>
			<path class="st0" d="M20.197,14.21h-5.184c-0.115,0-0.208-0.098-0.208-0.22c0-0.121,0.093-0.22,0.208-0.22h5.184
				c0.115,0,0.208,0.098,0.208,0.22C20.406,14.112,20.312,14.21,20.197,14.21z"/>
		</g>
		<g>
			<path class="st0" d="M19.289,18.731h-4.276c-0.115,0-0.208-0.098-0.208-0.22c0-0.121,0.093-0.22,0.208-0.22h4.276
				c0.115,0,0.208,0.098,0.208,0.22C19.497,18.632,19.404,18.731,19.289,18.731z"/>
		</g>
		<g>
			<path class="st0" d="M21.825,18.728h-1.033c-0.115,0-0.208-0.098-0.208-0.22c0-0.121,0.093-0.22,0.208-0.22h1.033
				c0.115,0,0.208,0.098,0.208,0.22C22.033,18.63,21.94,18.728,21.825,18.728z"/>
		</g>
		<g>
			<path class="st0" d="M18.806,11.949h-3.793c-0.115,0-0.208-0.098-0.208-0.22c0-0.121,0.093-0.22,0.208-0.22h3.793
				c0.115,0,0.208,0.098,0.208,0.22C19.014,11.851,18.921,11.949,18.806,11.949z"/>
		</g>
		<g>
			<path class="st0" d="M21.734,11.95h-1.929c-0.115,0-0.208-0.098-0.208-0.22c0-0.121,0.093-0.22,0.208-0.22h1.929
				c0.115,0,0.208,0.098,0.208,0.22C21.942,11.852,21.849,11.95,21.734,11.95z"/>
		</g>
	</g>
</g>
</svg>
