<?xml version="1.0" encoding="utf-8"?>
<!-- Generator: Adobe Illustrator 22.1.0, SVG Export Plug-In . SVG Version: 6.00 Build 0)  -->
<svg version="1.1" id="Layer_1" xmlns="http://www.w3.org/2000/svg" xmlns:xlink="http://www.w3.org/1999/xlink" x="0px" y="0px"
	 viewBox="0 0 45 45" style="enable-background:new 0 0 45 45;" xml:space="preserve">
<style type="text/css">
	.st0{fill:#616870;}
	.st1{fill:#EBEFF2;}
	.st2{fill:#FFFFFF;}
	.st3{fill:#4DA8B6;}
</style>
<g>
	<path class="st0" d="M1003.735,141.346v1.665c0,0.143-0.116,0.259-0.259,0.259c-0.143,0-0.259-0.116-0.259-0.259v-1.665
		c0-0.143,0.116-0.259,0.259-0.259C1003.619,141.087,1003.735,141.202,1003.735,141.346z"/>
</g>
<g>
	<path class="st0" d="M999.994,137.632v1.233c0,0.143-0.116,0.259-0.259,0.259c-0.143,0-0.259-0.116-0.259-0.259v-1.233
		c0-0.143,0.116-0.259,0.259-0.259C999.879,137.373,999.994,137.489,999.994,137.632z"/>
</g>
<g>
	<g>
		<path class="st1" d="M15.354,14.686h12.768c2.292,0,4.15,1.858,4.15,4.15v19.506H11.204V18.836
			C11.204,16.544,13.062,14.686,15.354,14.686z"/>
		<path class="st0" d="M32.272,38.613H11.204c-0.149,0-0.27-0.121-0.27-0.27V16.93c0-1.386,1.128-2.514,2.514-2.514h16.581
			c1.386,0,2.514,1.128,2.514,2.514v21.412C32.542,38.492,32.421,38.613,32.272,38.613z M11.474,38.072h20.527V16.93
			c0-1.088-0.885-1.973-1.973-1.973H13.447c-1.088,0-1.973,0.885-1.973,1.973V38.072z"/>
	</g>
	<g>
		<g>
			<rect x="8.853" y="12.427" class="st2" width="25.877" height="6.858"/>
			<path class="st0" d="M34.73,19.555H8.853c-0.149,0-0.27-0.121-0.27-0.27v-6.858c0-0.149,0.121-0.27,0.27-0.27H34.73
				c0.149,0,0.27,0.121,0.27,0.27v6.858C35,19.434,34.879,19.555,34.73,19.555z M9.123,19.015h25.337v-6.318H9.123V19.015z"/>
		</g>
		<g>
			<path class="st0" d="M12.2,17.251c-0.149,0-0.27-0.121-0.27-0.27v-2.249c0-0.149,0.121-0.27,0.27-0.27
				c0.149,0,0.27,0.121,0.27,0.27v2.249C12.47,17.13,12.349,17.251,12.2,17.251z"/>
		</g>
		<g>
			<path class="st0" d="M14.032,17.251c-0.149,0-0.27-0.121-0.27-0.27v-2.249c0-0.149,0.121-0.27,0.27-0.27s0.27,0.121,0.27,0.27
				v2.249C14.302,17.13,14.181,17.251,14.032,17.251z"/>
		</g>
		<g>
			<path class="st0" d="M15.865,17.251c-0.149,0-0.27-0.121-0.27-0.27v-2.249c0-0.149,0.121-0.27,0.27-0.27
				c0.149,0,0.27,0.121,0.27,0.27v2.249C16.135,17.13,16.014,17.251,15.865,17.251z"/>
		</g>
		<g>
			<path class="st0" d="M17.697,17.251c-0.149,0-0.27-0.121-0.27-0.27v-2.249c0-0.149,0.121-0.27,0.27-0.27
				c0.149,0,0.27,0.121,0.27,0.27v2.249C17.968,17.13,17.847,17.251,17.697,17.251z"/>
		</g>
		<g>
			<path class="st0" d="M19.53,17.251c-0.149,0-0.27-0.121-0.27-0.27v-2.249c0-0.149,0.121-0.27,0.27-0.27
				c0.149,0,0.27,0.121,0.27,0.27v2.249C19.8,17.13,19.68,17.251,19.53,17.251z"/>
		</g>
		<g>
			<g>
				<path class="st0" d="M22.293,16.126H21.78c-0.149,0-0.27-0.121-0.27-0.27c0-0.149,0.121-0.27,0.27-0.27h0.513
					c0.149,0,0.27,0.121,0.27,0.27C22.564,16.005,22.443,16.126,22.293,16.126z"/>
			</g>
			<g>
				<path class="st0" d="M24.053,16.126H23.54c-0.149,0-0.27-0.121-0.27-0.27c0-0.149,0.121-0.27,0.27-0.27h0.513
					c0.149,0,0.27,0.121,0.27,0.27C24.323,16.005,24.203,16.126,24.053,16.126z"/>
			</g>
			<g>
				<path class="st0" d="M25.813,16.126H25.3c-0.149,0-0.27-0.121-0.27-0.27c0-0.149,0.121-0.27,0.27-0.27h0.513
					c0.149,0,0.27,0.121,0.27,0.27C26.084,16.005,25.963,16.126,25.813,16.126z"/>
			</g>
		</g>
		<g>
			<circle class="st3" cx="29.701" cy="15.856" r="1.759"/>
			<path class="st0" d="M29.701,17.885c-1.119,0-2.029-0.91-2.029-2.03c0-1.119,0.91-2.029,2.029-2.029s2.029,0.91,2.029,2.029
				C31.73,16.975,30.82,17.885,29.701,17.885z M29.701,14.367c-0.821,0-1.489,0.668-1.489,1.489c0,0.821,0.668,1.489,1.489,1.489
				c0.821,0,1.489-0.668,1.489-1.489C31.189,15.035,30.522,14.367,29.701,14.367z"/>
		</g>
	</g>
	<g>
		<g>
			<rect x="8.853" y="20.759" class="st2" width="25.877" height="6.858"/>
			<path class="st0" d="M34.73,27.888H8.853c-0.149,0-0.27-0.121-0.27-0.27v-6.858c0-0.149,0.121-0.27,0.27-0.27H34.73
				c0.149,0,0.27,0.121,0.27,0.27v6.858C35,27.767,34.879,27.888,34.73,27.888z M9.123,27.347h25.337v-6.318H9.123V27.347z"/>
		</g>
		<g>
			<path class="st0" d="M12.2,25.583c-0.149,0-0.27-0.121-0.27-0.27v-2.249c0-0.149,0.121-0.27,0.27-0.27
				c0.149,0,0.27,0.121,0.27,0.27v2.249C12.47,25.462,12.349,25.583,12.2,25.583z"/>
		</g>
		<g>
			<path class="st0" d="M14.032,25.583c-0.149,0-0.27-0.121-0.27-0.27v-2.249c0-0.149,0.121-0.27,0.27-0.27s0.27,0.121,0.27,0.27
				v2.249C14.302,25.462,14.181,25.583,14.032,25.583z"/>
		</g>
		<g>
			<path class="st0" d="M15.865,25.583c-0.149,0-0.27-0.121-0.27-0.27v-2.249c0-0.149,0.121-0.27,0.27-0.27
				c0.149,0,0.27,0.121,0.27,0.27v2.249C16.135,25.462,16.014,25.583,15.865,25.583z"/>
		</g>
		<g>
			<path class="st0" d="M17.697,25.583c-0.149,0-0.27-0.121-0.27-0.27v-2.249c0-0.149,0.121-0.27,0.27-0.27
				c0.149,0,0.27,0.121,0.27,0.27v2.249C17.968,25.462,17.847,25.583,17.697,25.583z"/>
		</g>
		<g>
			<path class="st0" d="M19.53,25.583c-0.149,0-0.27-0.121-0.27-0.27v-2.249c0-0.149,0.121-0.27,0.27-0.27
				c0.149,0,0.27,0.121,0.27,0.27v2.249C19.8,25.462,19.68,25.583,19.53,25.583z"/>
		</g>
		<g>
			<g>
				<path class="st0" d="M22.293,24.459H21.78c-0.149,0-0.27-0.121-0.27-0.27c0-0.149,0.121-0.27,0.27-0.27h0.513
					c0.149,0,0.27,0.121,0.27,0.27C22.564,24.338,22.443,24.459,22.293,24.459z"/>
			</g>
			<g>
				<path class="st0" d="M24.053,24.459H23.54c-0.149,0-0.27-0.121-0.27-0.27c0-0.149,0.121-0.27,0.27-0.27h0.513
					c0.149,0,0.27,0.121,0.27,0.27C24.323,24.338,24.203,24.459,24.053,24.459z"/>
			</g>
			<g>
				<path class="st0" d="M25.813,24.459H25.3c-0.149,0-0.27-0.121-0.27-0.27c0-0.149,0.121-0.27,0.27-0.27h0.513
					c0.149,0,0.27,0.121,0.27,0.27C26.084,24.338,25.963,24.459,25.813,24.459z"/>
			</g>
		</g>
		<g>
			<circle class="st3" cx="29.701" cy="24.188" r="1.759"/>
			<path class="st0" d="M29.701,26.218c-1.119,0-2.029-0.91-2.029-2.029c0-1.119,0.91-2.029,2.029-2.029s2.029,0.91,2.029,2.029
				C31.73,25.307,30.82,26.218,29.701,26.218z M29.701,22.7c-0.821,0-1.489,0.668-1.489,1.489c0,0.821,0.668,1.489,1.489,1.489
				c0.821,0,1.489-0.668,1.489-1.489C31.189,23.367,30.522,22.7,29.701,22.7z"/>
		</g>
	</g>
	<g>
		<g>
			<rect x="8.853" y="29.092" class="st2" width="25.877" height="6.858"/>
			<path class="st0" d="M34.73,36.22H8.853c-0.149,0-0.27-0.121-0.27-0.27v-6.858c0-0.149,0.121-0.27,0.27-0.27H34.73
				c0.149,0,0.27,0.121,0.27,0.27v6.858C35,36.099,34.879,36.22,34.73,36.22z M9.123,35.68h25.337v-6.317H9.123V35.68z"/>
		</g>
		<g>
			<path class="st0" d="M12.2,33.916c-0.149,0-0.27-0.121-0.27-0.27v-2.249c0-0.149,0.121-0.27,0.27-0.27
				c0.149,0,0.27,0.121,0.27,0.27v2.249C12.47,33.795,12.349,33.916,12.2,33.916z"/>
		</g>
		<g>
			<path class="st0" d="M14.032,33.916c-0.149,0-0.27-0.121-0.27-0.27v-2.249c0-0.149,0.121-0.27,0.27-0.27s0.27,0.121,0.27,0.27
				v2.249C14.302,33.795,14.181,33.916,14.032,33.916z"/>
		</g>
		<g>
			<path class="st0" d="M15.865,33.916c-0.149,0-0.27-0.121-0.27-0.27v-2.249c0-0.149,0.121-0.27,0.27-0.27
				c0.149,0,0.27,0.121,0.27,0.27v2.249C16.135,33.795,16.014,33.916,15.865,33.916z"/>
		</g>
		<g>
			<path class="st0" d="M17.697,33.916c-0.149,0-0.27-0.121-0.27-0.27v-2.249c0-0.149,0.121-0.27,0.27-0.27
				c0.149,0,0.27,0.121,0.27,0.27v2.249C17.968,33.795,17.847,33.916,17.697,33.916z"/>
		</g>
		<g>
			<path class="st0" d="M19.53,33.916c-0.149,0-0.27-0.121-0.27-0.27v-2.249c0-0.149,0.121-0.27,0.27-0.27
				c0.149,0,0.27,0.121,0.27,0.27v2.249C19.8,33.795,19.68,33.916,19.53,33.916z"/>
		</g>
		<g>
			<g>
				<path class="st0" d="M22.293,32.791H21.78c-0.149,0-0.27-0.121-0.27-0.27c0-0.149,0.121-0.27,0.27-0.27h0.513
					c0.149,0,0.27,0.121,0.27,0.27C22.564,32.67,22.443,32.791,22.293,32.791z"/>
			</g>
			<g>
				<path class="st0" d="M24.053,32.791H23.54c-0.149,0-0.27-0.121-0.27-0.27c0-0.149,0.121-0.27,0.27-0.27h0.513
					c0.149,0,0.27,0.121,0.27,0.27C24.323,32.67,24.203,32.791,24.053,32.791z"/>
			</g>
			<g>
				<path class="st0" d="M25.813,32.791H25.3c-0.149,0-0.27-0.121-0.27-0.27c0-0.149,0.121-0.27,0.27-0.27h0.513
					c0.149,0,0.27,0.121,0.27,0.27C26.084,32.67,25.963,32.791,25.813,32.791z"/>
			</g>
		</g>
		<g>
			<circle class="st3" cx="29.701" cy="32.521" r="1.759"/>
			<path class="st0" d="M29.701,34.55c-1.119,0-2.029-0.91-2.029-2.029c0-1.119,0.91-2.029,2.029-2.029s2.029,0.91,2.029,2.029
				C31.73,33.64,30.82,34.55,29.701,34.55z M29.701,31.032c-0.821,0-1.489,0.668-1.489,1.489c0,0.821,0.668,1.489,1.489,1.489
				c0.821,0,1.489-0.668,1.489-1.489C31.189,31.7,30.522,31.032,29.701,31.032z"/>
		</g>
	</g>
	<g>
		<path class="st0" d="M11.204,12.385c-0.149,0-0.27-0.121-0.27-0.27V6.04c0-0.149,0.121-0.27,0.27-0.27
			c0.149,0,0.27,0.121,0.27,0.27v6.075C11.474,12.264,11.353,12.385,11.204,12.385z"/>
	</g>
	<g>
		<path class="st0" d="M13.661,12.385c-0.149,0-0.27-0.121-0.27-0.27V6.04c0-0.149,0.121-0.27,0.27-0.27
			c0.149,0,0.27,0.121,0.27,0.27v6.075C13.931,12.264,13.81,12.385,13.661,12.385z"/>
	</g>
	<g>
		<path class="st0" d="M16.117,12.385c-0.149,0-0.27-0.121-0.27-0.27V6.04c0-0.149,0.121-0.27,0.27-0.27
			c0.149,0,0.27,0.121,0.27,0.27v6.075C16.388,12.264,16.267,12.385,16.117,12.385z"/>
	</g>
	<g>
		<path class="st0" d="M18.574,12.385c-0.149,0-0.27-0.121-0.27-0.27V6.04c0-0.149,0.121-0.27,0.27-0.27
			c0.149,0,0.27,0.121,0.27,0.27v6.075C18.845,12.264,18.724,12.385,18.574,12.385z"/>
	</g>
	<g>
		<path class="st0" d="M21.031,12.385c-0.149,0-0.27-0.121-0.27-0.27V6.04c0-0.149,0.121-0.27,0.27-0.27
			c0.149,0,0.27,0.121,0.27,0.27v6.075C21.302,12.264,21.181,12.385,21.031,12.385z"/>
	</g>
</g>
</svg>
