<?xml version="1.0" encoding="utf-8"?>
<!-- Generator: Adobe Illustrator 22.1.0, SVG Export Plug-In . SVG Version: 6.00 Build 0)  -->
<svg version="1.1" id="Layer_1" xmlns="http://www.w3.org/2000/svg" xmlns:xlink="http://www.w3.org/1999/xlink" x="0px" y="0px"
	 viewBox="0 0 45 45" style="enable-background:new 0 0 45 45;" xml:space="preserve">
<style type="text/css">
	.st0{fill:#616870;}
	.st1{fill:#4DA8B6;}
	.st2{fill:#EBEFF2;}
</style>
<g>
	<path class="st0" d="M1003.735,141.346v1.665c0,0.143-0.116,0.259-0.259,0.259c-0.143,0-0.259-0.116-0.259-0.259v-1.665
		c0-0.143,0.116-0.259,0.259-0.259C1003.619,141.087,1003.735,141.202,1003.735,141.346z"/>
</g>
<g>
	<path class="st0" d="M999.994,137.632v1.233c0,0.143-0.116,0.259-0.259,0.259c-0.143,0-0.259-0.116-0.259-0.259v-1.233
		c0-0.143,0.116-0.259,0.259-0.259C999.879,137.373,999.994,137.489,999.994,137.632z"/>
</g>
<g>
	<g>
		<path class="st0" d="M20.4,14.595c-0.141,0-0.255-0.114-0.255-0.255v-3.028c0-0.141,0.114-0.255,0.255-0.255
			c0.141,0,0.255,0.114,0.255,0.255v3.028C20.655,14.481,20.541,14.595,20.4,14.595z"/>
	</g>
	<g>
		<path class="st0" d="M16.724,14.595c-0.141,0-0.255-0.114-0.255-0.255V9.549c0-0.141,0.114-0.255,0.255-0.255
			c0.141,0,0.255,0.114,0.255,0.255v4.791C16.979,14.481,16.865,14.595,16.724,14.595z"/>
	</g>
	<g>
		<path class="st0" d="M27.75,14.595c-0.141,0-0.255-0.114-0.255-0.255v-2.186c0-0.141,0.114-0.255,0.255-0.255
			c0.141,0,0.255,0.114,0.255,0.255v2.186C28.005,14.481,27.891,14.595,27.75,14.595z"/>
	</g>
	<g>
		<path class="st0" d="M24.075,14.595c-0.141,0-0.255-0.114-0.255-0.255v-3.952c0-0.141,0.114-0.255,0.255-0.255
			c0.141,0,0.255,0.114,0.255,0.255v3.952C24.33,14.481,24.216,14.595,24.075,14.595z"/>
	</g>
	<g>
		<path class="st0" d="M24.07,9.255c-0.141,0-0.255-0.114-0.255-0.255V8.045c0-0.141,0.114-0.255,0.255-0.255
			s0.255,0.114,0.255,0.255V9C24.325,9.141,24.211,9.255,24.07,9.255z"/>
	</g>
	<g>
		<path class="st0" d="M27.75,11.567c-0.141,0-0.255-0.114-0.255-0.255v-0.657c0-0.141,0.114-0.255,0.255-0.255
			c0.141,0,0.255,0.114,0.255,0.255v0.657C28.005,11.453,27.891,11.567,27.75,11.567z"/>
	</g>
	<g>
		<path class="st0" d="M13.049,14.595c-0.141,0-0.255-0.114-0.255-0.255v-3.505c0-0.141,0.114-0.255,0.255-0.255
			c0.141,0,0.255,0.114,0.255,0.255v3.505C13.304,14.481,13.19,14.595,13.049,14.595z"/>
	</g>
	<g>
		<path class="st0" d="M13.049,9.504c-0.141,0-0.255-0.114-0.255-0.255V7.467c0-0.141,0.114-0.255,0.255-0.255
			c0.141,0,0.255,0.114,0.255,0.255V9.25C13.304,9.39,13.19,9.504,13.049,9.504z"/>
	</g>
	<g>
		<g>
			<g>
				<path class="st0" d="M32.222,35.751H8.578c-1.044,0-1.893-0.849-1.893-1.893V18.84c0-1.044,0.849-1.893,1.893-1.893h23.644
					c1.044,0,1.893,0.849,1.893,1.893v7.087c0,0.141-0.114,0.255-0.255,0.255c-0.141,0-0.255-0.114-0.255-0.255V18.84
					c0-0.763-0.621-1.384-1.384-1.384H8.578c-0.763,0-1.384,0.621-1.384,1.384v15.018c0,0.763,0.621,1.384,1.384,1.384h23.644
					c0.763,0,1.384-0.621,1.384-1.384c0-0.141,0.114-0.255,0.255-0.255c0.141,0,0.255,0.114,0.255,0.255
					C34.115,34.902,33.265,35.751,32.222,35.751z"/>
			</g>
			<g>
				<path class="st0" d="M33.86,33.205H6.939c-0.141,0-0.255-0.114-0.255-0.255c0-0.141,0.114-0.255,0.255-0.255h26.92
					c0.141,0,0.255,0.114,0.255,0.255C34.115,33.091,34.001,33.205,33.86,33.205z"/>
			</g>
			<g>
				<path class="st1" d="M6.939,33.69c0,0.998,0.734,1.806,1.638,1.806h23.644c0.905,0,1.638-0.809,1.638-1.806v-1.001H6.939V33.69z
					"/>
				<path class="st0" d="M32.222,35.751H8.578c-1.044,0-1.893-0.925-1.893-2.061v-1.001c0-0.141,0.114-0.255,0.255-0.255h26.92
					c0.141,0,0.255,0.114,0.255,0.255v1.001C34.115,34.826,33.265,35.751,32.222,35.751z M7.194,32.944v0.746
					c0,0.856,0.621,1.552,1.384,1.552h23.644c0.763,0,1.384-0.696,1.384-1.552v-0.746H7.194z"/>
			</g>
		</g>
		<g>
			<g>
				<path class="st0" d="M18.691,38.314c-0.141,0-0.255-0.114-0.255-0.255v-2.563c0-0.141,0.114-0.255,0.255-0.255
					c0.141,0,0.255,0.114,0.255,0.255v2.563C18.946,38.2,18.832,38.314,18.691,38.314z"/>
			</g>
			<g>
				<path class="st0" d="M22.108,38.314c-0.141,0-0.255-0.114-0.255-0.255v-2.563c0-0.141,0.114-0.255,0.255-0.255
					c0.141,0,0.255,0.114,0.255,0.255v2.563C22.363,38.2,22.249,38.314,22.108,38.314z"/>
			</g>
		</g>
		<g>
			<path class="st0" d="M24.086,38.314h-7.372c-0.141,0-0.255-0.114-0.255-0.255c0-0.141,0.114-0.255,0.255-0.255h7.372
				c0.141,0,0.255,0.114,0.255,0.255C24.341,38.2,24.227,38.314,24.086,38.314z"/>
		</g>
		<g>
			<path class="st0" d="M20.617,34.478h-0.435c-0.141,0-0.255-0.114-0.255-0.255c0-0.141,0.114-0.255,0.255-0.255h0.435
				c0.141,0,0.255,0.114,0.255,0.255C20.872,34.364,20.758,34.478,20.617,34.478z"/>
		</g>
	</g>
	<g>
		<path class="st0" d="M18.645,26.181h-7.54c-0.141,0-0.255-0.114-0.255-0.255c0-0.141,0.114-0.255,0.255-0.255h7.54
			c0.141,0,0.255,0.114,0.255,0.255C18.9,26.067,18.786,26.181,18.645,26.181z"/>
	</g>
	<g>
		<path class="st0" d="M18.645,28.223h-7.54c-0.141,0-0.255-0.114-0.255-0.255c0-0.141,0.114-0.255,0.255-0.255h7.54
			c0.141,0,0.255,0.114,0.255,0.255C18.9,28.109,18.786,28.223,18.645,28.223z"/>
	</g>
	<g>
		<path class="st0" d="M30.129,26.181h-7.54c-0.141,0-0.255-0.114-0.255-0.255c0-0.141,0.114-0.255,0.255-0.255h7.54
			c0.141,0,0.255,0.114,0.255,0.255C30.384,26.067,30.27,26.181,30.129,26.181z"/>
	</g>
	<g>
		<path class="st0" d="M30.129,28.223h-7.54c-0.141,0-0.255-0.114-0.255-0.255c0-0.141,0.114-0.255,0.255-0.255h7.54
			c0.141,0,0.255,0.114,0.255,0.255C30.384,28.109,30.27,28.223,30.129,28.223z"/>
	</g>
	<g>
		<path class="st0" d="M18.645,30.264h-7.54c-0.141,0-0.255-0.114-0.255-0.255c0-0.141,0.114-0.255,0.255-0.255h7.54
			c0.141,0,0.255,0.114,0.255,0.255C18.9,30.15,18.786,30.264,18.645,30.264z"/>
	</g>
	<g>
		<path class="st0" d="M30.129,30.264h-7.54c-0.141,0-0.255-0.114-0.255-0.255c0-0.141,0.114-0.255,0.255-0.255h7.54
			c0.141,0,0.255,0.114,0.255,0.255C30.384,30.15,30.27,30.264,30.129,30.264z"/>
	</g>
	<g>
		<rect x="11.106" y="20.289" class="st2" width="19.021" height="3.071"/>
		<path class="st0" d="M30.126,23.614h-19.02c-0.141,0-0.255-0.114-0.255-0.255v-3.071c0-0.141,0.114-0.255,0.255-0.255h19.02
			c0.141,0,0.255,0.114,0.255,0.255v3.071C30.381,23.5,30.267,23.614,30.126,23.614z M11.36,23.105h18.511v-2.561H11.36V23.105z"/>
	</g>
	<g>
		<g>
			<g>
				<path class="st0" d="M37.469,38.866H32.03c-0.569,0-1.031-0.463-1.031-1.031V26.704c0-0.569,0.463-1.032,1.031-1.032h5.438
					c0.569,0,1.031,0.463,1.031,1.032v11.131C38.5,38.403,38.037,38.866,37.469,38.866z M32.03,26.181
					c-0.288,0-0.522,0.234-0.522,0.522v11.131c0,0.288,0.234,0.522,0.522,0.522h5.438c0.288,0,0.522-0.234,0.522-0.522V26.704
					c0-0.288-0.234-0.522-0.522-0.522H32.03z"/>
			</g>
		</g>
	</g>
	<g>
		<rect x="31.254" y="26.873" class="st2" width="6.991" height="9.801"/>
		<path class="st0" d="M38.245,36.929h-6.991c-0.141,0-0.255-0.114-0.255-0.255v-9.801c0-0.141,0.114-0.255,0.255-0.255h6.991
			c0.141,0,0.255,0.114,0.255,0.255v9.801C38.5,36.815,38.386,36.929,38.245,36.929z M31.509,36.42h6.482v-9.292h-6.482V36.42z"/>
	</g>
	<g>
		<path class="st0" d="M35.242,37.939h-0.986c-0.141,0-0.255-0.114-0.255-0.255c0-0.141,0.114-0.255,0.255-0.255h0.986
			c0.141,0,0.255,0.114,0.255,0.255C35.497,37.825,35.383,37.939,35.242,37.939z"/>
	</g>
	<g>
		<path class="st0" d="M36.647,29.159h-3.795c-0.141,0-0.255-0.114-0.255-0.255c0-0.141,0.114-0.255,0.255-0.255h3.795
			c0.141,0,0.255,0.114,0.255,0.255C36.902,29.045,36.788,29.159,36.647,29.159z"/>
	</g>
	<g>
		<path class="st0" d="M36.647,31.24h-3.795c-0.141,0-0.255-0.114-0.255-0.255c0-0.141,0.114-0.255,0.255-0.255h3.795
			c0.141,0,0.255,0.114,0.255,0.255C36.902,31.126,36.788,31.24,36.647,31.24z"/>
	</g>
	<g>
		<path class="st0" d="M36.647,33.321h-3.795c-0.141,0-0.255-0.114-0.255-0.255c0-0.141,0.114-0.255,0.255-0.255h3.795
			c0.141,0,0.255,0.114,0.255,0.255C36.902,33.207,36.788,33.321,36.647,33.321z"/>
	</g>
	<g>
		<path class="st0" d="M36.647,35.402h-3.795c-0.141,0-0.255-0.114-0.255-0.255s0.114-0.255,0.255-0.255h3.795
			c0.141,0,0.255,0.114,0.255,0.255S36.788,35.402,36.647,35.402z"/>
	</g>
</g>
</svg>
