<?xml version="1.0" encoding="utf-8"?>
<!-- Generator: Adobe Illustrator 22.0.1, SVG Export Plug-In . SVG Version: 6.00 Build 0)  -->
<svg version="1.1" id="Layer_1" xmlns="http://www.w3.org/2000/svg" xmlns:xlink="http://www.w3.org/1999/xlink" x="0px" y="0px"
	 viewBox="0 0 45 45" style="enable-background:new 0 0 45 45;" xml:space="preserve">
<style type="text/css">
	.st0{fill:#616870;}
	.st1{fill:#EBEFF2;}
	.st2{fill:#4DA8B6;}
</style>
<g>
	<g>
		<path class="st0" d="M35.628,32.309c-0.066,0-0.132-0.021-0.187-0.065c-0.131-0.104-0.153-0.294-0.05-0.425
			c2.218-2.809,3.39-6.189,3.39-9.776c0-0.167,0.135-0.303,0.303-0.303s0.303,0.135,0.303,0.303c0,3.724-1.217,7.234-3.52,10.151
			C35.806,32.269,35.718,32.309,35.628,32.309z"/>
	</g>
	<g>
		<path class="st0" d="M40.904,20.226c-0.151,0-0.282-0.113-0.3-0.267c-0.469-3.992-2.224-7.609-5.073-10.458
			c-0.118-0.118-0.118-0.31,0-0.428c0.118-0.118,0.31-0.118,0.428,0c2.946,2.946,4.761,6.686,5.246,10.815
			c0.02,0.166-0.099,0.317-0.265,0.336C40.927,20.225,40.916,20.226,40.904,20.226z"/>
	</g>
	<g>
		<path class="st0" d="M6.093,28.682c-0.123,0-0.238-0.075-0.284-0.197c-0.853-2.279-1.241-4.674-1.152-7.116
			c0.006-0.168,0.163-0.302,0.313-0.292c0.167,0.006,0.298,0.146,0.292,0.313c-0.086,2.362,0.289,4.678,1.114,6.882
			c0.059,0.157-0.021,0.331-0.177,0.39C6.165,28.676,6.128,28.682,6.093,28.682z"/>
	</g>
	<g>
		<g>
			<path class="st0" d="M25.051,40.267c-0.152,0-0.283-0.114-0.3-0.268c-0.019-0.166,0.1-0.316,0.266-0.335
				c0.296-0.034,0.59-0.075,0.884-0.124c0.166-0.028,0.321,0.085,0.348,0.249c0.028,0.165-0.084,0.321-0.249,0.348
				c-0.304,0.051-0.609,0.093-0.915,0.128C25.074,40.267,25.062,40.267,25.051,40.267z"/>
		</g>
		<g>
			<path class="st0" d="M22.991,40.385c-1.587,0-3.168-0.205-4.7-0.609c-0.162-0.043-0.258-0.208-0.216-0.37
				c0.043-0.161,0.211-0.259,0.37-0.215c1.748,0.461,3.563,0.653,5.372,0.57c0.171-0.022,0.309,0.121,0.317,0.288
				c0.008,0.167-0.121,0.309-0.288,0.316C23.56,40.379,23.275,40.385,22.991,40.385z M16.617,39.227
				c-0.035,0-0.072-0.006-0.107-0.019c-0.389-0.147-0.776-0.307-1.15-0.478c-0.152-0.07-0.219-0.25-0.15-0.402
				c0.069-0.151,0.25-0.218,0.401-0.15c0.362,0.166,0.736,0.321,1.112,0.463c0.156,0.059,0.236,0.234,0.177,0.39
				C16.855,39.153,16.74,39.227,16.617,39.227z"/>
		</g>
		<g>
			<path class="st0" d="M10.891,35.728c-0.072,0-0.145-0.026-0.203-0.078c-0.227-0.206-0.45-0.418-0.669-0.637
				c-0.118-0.118-0.118-0.31,0-0.428c0.118-0.118,0.31-0.118,0.428,0c0.212,0.212,0.428,0.417,0.647,0.616
				c0.124,0.112,0.134,0.304,0.021,0.428C11.055,35.694,10.973,35.728,10.891,35.728z"/>
		</g>
	</g>
	<g>
		<path class="st0" d="M40.904,20.226c-0.151,0-0.282-0.113-0.3-0.267c-0.469-3.992-2.224-7.609-5.073-10.458
			c-0.118-0.118-0.118-0.31,0-0.428c0.118-0.118,0.31-0.118,0.428,0c2.946,2.946,4.761,6.686,5.246,10.815
			c0.02,0.166-0.099,0.317-0.265,0.336C40.927,20.225,40.916,20.226,40.904,20.226z"/>
	</g>
	<g>
		<path class="st0" d="M6.093,28.682c-0.123,0-0.238-0.075-0.284-0.197c-0.853-2.279-1.241-4.674-1.152-7.116
			c0.006-0.168,0.163-0.302,0.313-0.292c0.167,0.006,0.298,0.146,0.292,0.313c-0.086,2.362,0.289,4.678,1.114,6.882
			c0.059,0.157-0.021,0.331-0.177,0.39C6.165,28.676,6.128,28.682,6.093,28.682z"/>
	</g>
	<g>
		<g>
			<path class="st0" d="M25.051,40.267c-0.152,0-0.283-0.114-0.3-0.268c-0.019-0.166,0.1-0.316,0.266-0.335
				c0.296-0.034,0.59-0.075,0.884-0.124c0.166-0.028,0.321,0.085,0.348,0.249c0.028,0.165-0.084,0.321-0.249,0.348
				c-0.304,0.051-0.609,0.093-0.915,0.128C25.074,40.267,25.062,40.267,25.051,40.267z"/>
		</g>
		<g>
			<path class="st0" d="M22.991,40.385c-1.587,0-3.168-0.205-4.7-0.609c-0.162-0.043-0.258-0.208-0.216-0.37
				c0.043-0.161,0.211-0.259,0.37-0.215c1.748,0.461,3.563,0.653,5.372,0.57c0.171-0.022,0.309,0.121,0.317,0.288
				c0.008,0.167-0.121,0.309-0.288,0.316C23.56,40.379,23.275,40.385,22.991,40.385z M16.617,39.227
				c-0.035,0-0.072-0.006-0.107-0.019c-0.389-0.147-0.776-0.307-1.15-0.478c-0.152-0.07-0.219-0.25-0.15-0.402
				c0.069-0.151,0.25-0.218,0.401-0.15c0.362,0.166,0.736,0.321,1.112,0.463c0.156,0.059,0.236,0.234,0.177,0.39
				C16.855,39.153,16.74,39.227,16.617,39.227z"/>
		</g>
		<g>
			<path class="st0" d="M10.891,35.728c-0.072,0-0.145-0.026-0.203-0.078c-0.227-0.206-0.45-0.418-0.669-0.637
				c-0.118-0.118-0.118-0.31,0-0.428c0.118-0.118,0.31-0.118,0.428,0c0.212,0.212,0.428,0.417,0.647,0.616
				c0.124,0.112,0.134,0.304,0.021,0.428C11.055,35.694,10.973,35.728,10.891,35.728z"/>
		</g>
	</g>
	<g>
		<path class="st0" d="M40.904,20.226c-0.151,0-0.282-0.113-0.3-0.267c-0.469-3.992-2.224-7.609-5.073-10.458
			c-0.118-0.118-0.118-0.31,0-0.428c0.118-0.118,0.31-0.118,0.428,0c2.946,2.946,4.761,6.686,5.246,10.815
			c0.02,0.166-0.099,0.317-0.265,0.336C40.927,20.225,40.916,20.226,40.904,20.226z"/>
	</g>
	<g>
		<path class="st0" d="M6.093,28.682c-0.123,0-0.238-0.075-0.284-0.197c-0.853-2.279-1.241-4.674-1.152-7.116
			c0.006-0.168,0.163-0.302,0.313-0.292c0.167,0.006,0.298,0.146,0.292,0.313c-0.086,2.362,0.289,4.678,1.114,6.882
			c0.059,0.157-0.021,0.331-0.177,0.39C6.165,28.676,6.128,28.682,6.093,28.682z"/>
	</g>
	<g>
		<g>
			<path class="st0" d="M25.051,40.267c-0.152,0-0.283-0.114-0.3-0.268c-0.019-0.166,0.1-0.316,0.266-0.335
				c0.296-0.034,0.59-0.075,0.884-0.124c0.166-0.028,0.321,0.085,0.348,0.249c0.028,0.165-0.084,0.321-0.249,0.348
				c-0.304,0.051-0.609,0.093-0.915,0.128C25.074,40.267,25.062,40.267,25.051,40.267z"/>
		</g>
		<g>
			<path class="st0" d="M22.991,40.385c-1.587,0-3.168-0.205-4.7-0.609c-0.162-0.043-0.258-0.208-0.216-0.37
				c0.043-0.161,0.211-0.259,0.37-0.215c1.748,0.461,3.563,0.653,5.372,0.57c0.171-0.022,0.309,0.121,0.317,0.288
				c0.008,0.167-0.121,0.309-0.288,0.316C23.56,40.379,23.275,40.385,22.991,40.385z M16.617,39.227
				c-0.035,0-0.072-0.006-0.107-0.019c-0.389-0.147-0.776-0.307-1.15-0.478c-0.152-0.07-0.219-0.25-0.15-0.402
				c0.069-0.151,0.25-0.218,0.401-0.15c0.362,0.166,0.736,0.321,1.112,0.463c0.156,0.059,0.236,0.234,0.177,0.39
				C16.855,39.153,16.74,39.227,16.617,39.227z"/>
		</g>
		<g>
			<path class="st0" d="M10.891,35.728c-0.072,0-0.145-0.026-0.203-0.078c-0.227-0.206-0.45-0.418-0.669-0.637
				c-0.118-0.118-0.118-0.31,0-0.428c0.118-0.118,0.31-0.118,0.428,0c0.212,0.212,0.428,0.417,0.647,0.616
				c0.124,0.112,0.134,0.304,0.021,0.428C11.055,35.694,10.973,35.728,10.891,35.728z"/>
		</g>
	</g>
	<g>
		<path class="st0" d="M6.881,30.473c-0.111,0-0.217-0.061-0.271-0.166c-0.277-0.549-0.529-1.117-0.748-1.688
			c-0.06-0.156,0.018-0.331,0.174-0.391c0.156-0.059,0.331,0.018,0.391,0.174c0.212,0.552,0.455,1.101,0.724,1.632
			c0.075,0.149,0.016,0.331-0.134,0.407C6.974,30.462,6.927,30.473,6.881,30.473z M5.749,27.669c-0.13,0-0.249-0.083-0.29-0.213
			c-0.538-1.747-0.812-3.568-0.812-5.413c0-0.167,0.135-0.303,0.303-0.303s0.303,0.135,0.303,0.303c0,1.784,0.264,3.545,0.785,5.234
			c0.049,0.16-0.041,0.329-0.2,0.379C5.809,27.664,5.779,27.669,5.749,27.669z"/>
	</g>
	<g>
		<path class="st0" d="M33.025,37.339c-0.098,0-0.193-0.047-0.252-0.134c-0.093-0.139-0.056-0.327,0.083-0.42
			c1.996-1.338,3.674-3.036,4.989-5.047c0.092-0.139,0.28-0.178,0.419-0.088c0.14,0.092,0.179,0.279,0.088,0.419
			c-1.36,2.079-3.095,3.835-5.159,5.218C33.142,37.322,33.083,37.339,33.025,37.339z M38.727,31.172
			c-0.05,0-0.101-0.012-0.148-0.039c-0.146-0.082-0.198-0.267-0.116-0.412c0.291-0.518,0.559-1.056,0.795-1.598
			c0.067-0.153,0.244-0.225,0.399-0.157c0.153,0.067,0.224,0.245,0.157,0.399c-0.245,0.561-0.521,1.118-0.822,1.653
			C38.936,31.116,38.833,31.172,38.727,31.172z M41.03,22.485c-0.001,0-0.001,0-0.002,0c-0.167-0.001-0.302-0.138-0.301-0.305
			l0.001-0.138c0-0.354-0.01-0.705-0.03-1.053c-0.01-0.167,0.118-0.31,0.284-0.32c0.17-0.007,0.31,0.118,0.32,0.284
			c0.021,0.36,0.032,0.723,0.032,1.089l-0.001,0.142C41.332,22.351,41.196,22.485,41.03,22.485z M40.802,19.47
			c-0.146,0-0.275-0.106-0.299-0.255c-0.38-2.37-1.224-4.603-2.509-6.636c-0.089-0.141-0.047-0.328,0.094-0.418
			c0.142-0.089,0.329-0.047,0.418,0.094c1.329,2.103,2.202,4.412,2.595,6.864c0.027,0.165-0.086,0.321-0.251,0.347
			C40.834,19.469,40.818,19.47,40.802,19.47z M37.571,11.719c-0.093,0-0.185-0.043-0.245-0.124c-0.35-0.48-0.729-0.946-1.124-1.388
			c-0.111-0.124-0.101-0.316,0.024-0.428c0.124-0.111,0.315-0.101,0.428,0.024c0.409,0.456,0.8,0.938,1.162,1.434
			c0.098,0.135,0.069,0.324-0.066,0.423C37.695,11.7,37.632,11.719,37.571,11.719z"/>
	</g>
	<g>
		<g>
			<path class="st1" d="M30.902,38.259c-2.389,1.168-5.074,1.823-7.912,1.823c-6.132,0-11.55-3.06-14.81-7.736l9.863-14.283
				L30.902,38.259z"/>
			<path class="st0" d="M22.991,40.385c-5.996,0-11.625-2.94-15.058-7.865c-0.072-0.104-0.072-0.241-0.001-0.345l9.863-14.284
				c0.058-0.083,0.147-0.127,0.255-0.131c0.101,0.002,0.195,0.055,0.25,0.14l12.859,20.196c0.046,0.073,0.059,0.161,0.036,0.245
				c-0.023,0.083-0.081,0.152-0.158,0.19C28.519,39.761,25.813,40.385,22.991,40.385z M8.551,32.345
				c3.33,4.66,8.712,7.435,14.44,7.435c2.615,0,5.127-0.553,7.473-1.646l-12.43-19.523L8.551,32.345z"/>
		</g>
		<g>
			<path class="st0" d="M38.122,32.171c-0.094,0-0.187-0.043-0.246-0.126l-9.415-13.041l-5.23,7.029
				c-0.099,0.135-0.289,0.162-0.424,0.062c-0.134-0.1-0.162-0.29-0.062-0.424l5.476-7.361c0.058-0.077,0.149-0.105,0.245-0.122
				c0.097,0.001,0.187,0.047,0.243,0.126l9.657,13.376c0.098,0.135,0.067,0.325-0.068,0.423
				C38.245,32.152,38.183,32.171,38.122,32.171z"/>
		</g>
		<g>
			<path class="st0" d="M8.104,12.325c-0.059,0-0.119-0.017-0.171-0.053c-0.138-0.095-0.173-0.283-0.078-0.421
				c0.383-0.558,0.801-1.101,1.243-1.612c0.109-0.127,0.3-0.141,0.427-0.031c0.127,0.109,0.141,0.3,0.031,0.427
				c-0.427,0.495-0.831,1.019-1.202,1.559C8.295,12.279,8.2,12.325,8.104,12.325z"/>
		</g>
		<g>
			<path class="st0" d="M4.951,22.517c-0.167,0-0.303-0.135-0.303-0.303c0-2.908,0.661-5.688,1.963-8.265
				c0.076-0.149,0.258-0.208,0.407-0.134c0.149,0.075,0.209,0.258,0.134,0.407c-1.26,2.491-1.898,5.18-1.898,7.992
				C5.254,22.381,5.118,22.517,4.951,22.517z"/>
		</g>
	</g>
	<g>
		<polyline class="st2" points="23.162,6.333 28.759,6.333 26.668,9.929 28.759,13.525 21.379,13.525 21.379,11.588 		"/>
		<path class="st0" d="M28.759,13.827h-7.38c-0.167,0-0.303-0.135-0.303-0.303v-1.937c0-0.167,0.135-0.303,0.303-0.303
			c0.167,0,0.303,0.135,0.303,0.303v1.634h6.551l-1.826-3.141c-0.055-0.094-0.055-0.21,0-0.305l1.826-3.141h-5.071
			c-0.167,0-0.303-0.135-0.303-0.303c0-0.167,0.135-0.303,0.303-0.303h5.597c0.108,0,0.208,0.058,0.263,0.152
			c0.054,0.094,0.054,0.21-0.001,0.303l-2.002,3.444l2.002,3.444c0.054,0.094,0.055,0.209,0.001,0.303
			C28.968,13.77,28.867,13.827,28.759,13.827z"/>
	</g>
	<g>
		<g>
			<g>
				<path class="st0" d="M18.091,18.289c-0.167,0-0.303-0.135-0.303-0.303V3.756c0-0.167,0.135-0.303,0.303-0.303
					c0.167,0,0.303,0.135,0.303,0.303v14.23C18.394,18.154,18.259,18.289,18.091,18.289z"/>
			</g>
		</g>
	</g>
	<g>
		<path class="st0" d="M22.991,38.437c-9.04,0-16.395-7.355-16.395-16.395c0-0.167,0.135-0.303,0.303-0.303s0.303,0.135,0.303,0.303
			c0,8.706,7.083,15.789,15.79,15.789c0.167,0,0.303,0.135,0.303,0.303C23.294,38.302,23.158,38.437,22.991,38.437z"/>
	</g>
	<g>
		<rect x="18.092" y="4.515" class="st2" width="4.939" height="6.791"/>
		<path class="st0" d="M23.031,11.609h-4.939c-0.167,0-0.303-0.135-0.303-0.303V4.515c0-0.167,0.135-0.303,0.303-0.303h4.939
			c0.167,0,0.303,0.135,0.303,0.303v6.791C23.333,11.473,23.198,11.609,23.031,11.609z M18.394,11.003h4.334V4.818h-4.334V11.003z"
			/>
	</g>
</g>
</svg>
