<?xml version="1.0" encoding="utf-8"?>
<!-- Generator: Adobe Illustrator 22.0.1, SVG Export Plug-In . SVG Version: 6.00 Build 0)  -->
<svg version="1.1" id="Layer_1" xmlns="http://www.w3.org/2000/svg" xmlns:xlink="http://www.w3.org/1999/xlink" x="0px" y="0px"
	 viewBox="0 0 45 45" style="enable-background:new 0 0 45 45;" xml:space="preserve">
<style type="text/css">
	.st0{fill:#616870;}
	.st1{fill:#EBEFF2;}
	.st2{fill:#4DA8B6;}
</style>
<g>
	<g>
		<path class="st0" d="M21.911,12.681h-2.93c-0.128,0-0.231-0.103-0.231-0.231c0-0.128,0.103-0.231,0.231-0.231h2.93
			c0.127,0,0.231,0.103,0.231,0.231C22.142,12.577,22.038,12.681,21.911,12.681z"/>
	</g>
	<g>
		<path class="st0" d="M27.172,12.681h-3.722c-0.128,0-0.231-0.103-0.231-0.231c0-0.128,0.103-0.231,0.231-0.231h3.722
			c0.127,0,0.231,0.103,0.231,0.231C27.403,12.577,27.3,12.681,27.172,12.681z"/>
	</g>
	<g>
		<path class="st0" d="M29.889,12.681h-0.734c-0.128,0-0.231-0.103-0.231-0.231c0-0.128,0.103-0.231,0.231-0.231h0.734
			c0.127,0,0.231,0.103,0.231,0.231C30.12,12.577,30.017,12.681,29.889,12.681z"/>
	</g>
	<g>
		<g>
			<path class="st0" d="M35.243,33.902c-0.128,0-0.231-0.103-0.231-0.231V17.924c0-0.156-0.127-0.284-0.284-0.284H12.296
				c-0.156,0-0.283,0.128-0.283,0.284v15.747c0,0.128-0.103,0.231-0.231,0.231c-0.128,0-0.231-0.103-0.231-0.231V17.924
				c0-0.411,0.334-0.745,0.745-0.745h22.432c0.411,0,0.745,0.334,0.745,0.745v15.747C35.473,33.799,35.37,33.902,35.243,33.902z"/>
		</g>
		<g>
			<path class="st1" d="M33.931,19.211c0-0.252-0.204-0.457-0.457-0.457H13.55c-0.252,0-0.457,0.205-0.457,0.457v12.655
				c0,0.252,0.204,0.457,0.457,0.457h19.924c0.252,0,0.457-0.205,0.457-0.457V19.211z"/>
			<path class="st0" d="M33.474,32.554H13.55c-0.379,0-0.687-0.309-0.687-0.688V19.211c0-0.379,0.308-0.688,0.687-0.688h19.924
				c0.379,0,0.687,0.309,0.687,0.688v12.655C34.162,32.245,33.853,32.554,33.474,32.554z M13.55,18.985
				c-0.125,0-0.226,0.101-0.226,0.226v12.655c0,0.125,0.101,0.226,0.226,0.226h19.924c0.125,0,0.226-0.101,0.226-0.226V19.211
				c0-0.125-0.101-0.226-0.226-0.226H13.55z"/>
		</g>
		<g>
			<g>
				<path class="st0" d="M37.932,35.606H9.092c-0.488,0-0.934-0.247-1.193-0.66l-0.677-1.158c-0.042-0.071-0.042-0.16-0.001-0.231
					c0.041-0.072,0.117-0.116,0.2-0.116h11.827c0.073,0,0.141,0.034,0.184,0.092c0.215,0.286,0.554,0.456,0.907,0.456h6.344
					c0.353,0,0.692-0.17,0.907-0.456c0.043-0.058,0.112-0.092,0.184-0.092h11.827c0.083,0,0.159,0.044,0.2,0.116
					c0.041,0.072,0.041,0.16-0.001,0.231l-0.673,1.152C38.866,35.359,38.42,35.606,37.932,35.606z M7.824,33.902l0.47,0.805
					c0.171,0.272,0.47,0.438,0.798,0.438h28.84c0.328,0,0.628-0.166,0.802-0.444l0.466-0.798H27.885
					c-0.302,0.345-0.743,0.548-1.201,0.548H20.34c-0.458,0-0.898-0.203-1.201-0.548H7.824z"/>
			</g>
		</g>
	</g>
	<g>
		<g>
			<g>
				<g>
					<path class="st2" d="M16.924,16.502H7.976c-0.861,0-1.556,0.634-1.556,1.416v7.159c0,0.782,0.695,1.417,1.556,1.417h8.949
						c0.859,0,1.555-0.634,1.555-1.417v-7.159C18.48,17.136,17.783,16.502,16.924,16.502z"/>
					<path class="st0" d="M16.924,26.724H7.976c-0.985,0-1.787-0.739-1.787-1.647v-7.159c0-0.908,0.802-1.647,1.787-1.647h8.949
						c0.985,0,1.786,0.739,1.786,1.647v7.159C18.71,25.985,17.909,26.724,16.924,26.724z M7.976,16.733
						c-0.731,0-1.326,0.532-1.326,1.185v7.159c0,0.654,0.595,1.186,1.326,1.186h8.949c0.73,0,1.324-0.532,1.324-1.186v-7.159
						c0-0.654-0.594-1.185-1.324-1.185H7.976z"/>
				</g>
			</g>
			<g>
				<path class="st1" d="M13.745,23.781l-0.824-2.452c0.319-0.18,0.533-0.495,0.533-0.856c0-0.561-0.509-1.014-1.136-1.014
					c-0.628,0-1.138,0.453-1.138,1.014c0,0.361,0.214,0.676,0.534,0.856l-0.827,2.452H13.745z"/>
				<path class="st0" d="M13.745,24.012h-2.858c-0.074,0-0.144-0.036-0.187-0.096c-0.043-0.06-0.055-0.138-0.031-0.209l0.77-2.283
					c-0.309-0.235-0.489-0.579-0.489-0.95c0-0.687,0.614-1.245,1.369-1.245c0.754,0,1.367,0.559,1.367,1.245
					c0,0.372-0.18,0.716-0.489,0.951l0.768,2.283c0.024,0.07,0.012,0.148-0.032,0.208C13.889,23.976,13.819,24.012,13.745,24.012z
					 M11.208,23.551h2.216l-0.722-2.147c-0.035-0.105,0.009-0.22,0.106-0.274c0.26-0.146,0.416-0.392,0.416-0.655
					c0-0.432-0.406-0.784-0.906-0.784c-0.5,0-0.907,0.352-0.907,0.784c0,0.263,0.156,0.508,0.416,0.655
					c0.097,0.054,0.141,0.169,0.105,0.275L11.208,23.551z"/>
			</g>
		</g>
		<g>
			<path class="st1" d="M14.848,16.502v-4.067c0-1.42-1.151-2.571-2.571-2.571c-1.42,0-2.571,1.151-2.571,2.571v4.067H8.081v-4.274
				c0-2.317,1.878-4.195,4.195-4.195c2.317,0,4.195,1.878,4.195,4.195v4.274H14.848z"/>
			<path class="st0" d="M16.472,16.733h-1.624c-0.128,0-0.231-0.103-0.231-0.231v-4.067c0-1.29-1.05-2.34-2.341-2.34
				c-1.291,0-2.34,1.05-2.34,2.34v4.067c0,0.128-0.103,0.231-0.231,0.231H8.081c-0.127,0-0.231-0.103-0.231-0.231v-4.274
				c0-2.44,1.985-4.426,4.426-4.426s4.426,1.986,4.426,4.426v4.274C16.702,16.63,16.599,16.733,16.472,16.733z M15.079,16.272h1.162
				v-4.043c0-2.186-1.778-3.965-3.965-3.965s-3.965,1.778-3.965,3.965v4.043h1.163v-3.837c0-1.545,1.257-2.802,2.802-2.802
				c1.545,0,2.802,1.257,2.802,2.802V16.272z"/>
		</g>
	</g>
</g>
</svg>
