<?xml version="1.0" encoding="utf-8"?>
<!-- Generator: Adobe Illustrator 22.1.0, SVG Export Plug-In . SVG Version: 6.00 Build 0)  -->
<svg version="1.1" id="Layer_1" xmlns="http://www.w3.org/2000/svg" xmlns:xlink="http://www.w3.org/1999/xlink" x="0px" y="0px"
	 viewBox="0 0 45 45" style="enable-background:new 0 0 45 45;" xml:space="preserve">
<style type="text/css">
	.st0{fill:#616870;}
	.st1{fill:#EBEFF2;}
	.st2{fill:#4DA8B6;}
</style>
<g>
	<path class="st0" d="M1003.735,141.346v1.665c0,0.143-0.116,0.259-0.259,0.259c-0.143,0-0.259-0.116-0.259-0.259v-1.665
		c0-0.143,0.116-0.259,0.259-0.259C1003.619,141.087,1003.735,141.202,1003.735,141.346z"/>
</g>
<g>
	<path class="st0" d="M999.994,137.632v1.233c0,0.143-0.116,0.259-0.259,0.259c-0.143,0-0.259-0.116-0.259-0.259v-1.233
		c0-0.143,0.116-0.259,0.259-0.259C999.879,137.373,999.994,137.489,999.994,137.632z"/>
</g>
<g>
	<g>
		<g>
			<path class="st0" d="M20.328,36.493c-0.109,0-0.207-0.068-0.243-0.172l-0.643-1.829c-0.536,0.003-1.064-0.032-1.596-0.098
				l-0.903,1.734c-0.052,0.1-0.165,0.155-0.276,0.134c-0.686-0.13-1.386-0.319-2.078-0.563c-0.11-0.039-0.181-0.147-0.171-0.264
				l0.153-1.92c-0.522-0.22-1.024-0.471-1.497-0.75l-1.542,1.223c-0.088,0.07-0.212,0.074-0.305,0.011
				c-0.57-0.388-1.122-0.826-1.641-1.3c-0.088-0.08-0.109-0.209-0.053-0.314l0.915-1.681c-0.42-0.432-0.813-0.899-1.172-1.391
				l-1.909,0.492c-0.107,0.029-0.223-0.017-0.282-0.112c-0.356-0.567-0.675-1.165-0.948-1.776c-0.049-0.109-0.016-0.237,0.079-0.309
				l1.509-1.155c-0.239-0.626-0.428-1.271-0.563-1.921l-1.945-0.329c-0.124-0.021-0.215-0.128-0.215-0.254
				c-0.084-0.588-0.13-1.23-0.134-1.878c-0.001-0.12,0.081-0.224,0.198-0.252l1.846-0.44c0.034-0.728,0.133-1.458,0.295-2.176
				L5.57,18.118c-0.094-0.062-0.137-0.179-0.105-0.287c0.164-0.56,0.374-1.136,0.624-1.713c0.048-0.11,0.164-0.172,0.284-0.151
				l1.87,0.35c0.353-0.695,0.777-1.366,1.264-1.999l-1.045-1.645C8.4,12.576,8.41,12.451,8.485,12.365
				c0.39-0.445,0.804-0.864,1.229-1.245c0.088-0.079,0.22-0.088,0.318-0.02l1.571,1.082c0.645-0.516,1.346-0.969,2.086-1.35
				L13.406,8.92c-0.017-0.115,0.045-0.227,0.151-0.273c0.522-0.23,1.06-0.431,1.599-0.597c0.112-0.035,0.234,0.012,0.296,0.112
				l1.002,1.64c0.42-0.103,0.837-0.183,1.24-0.239c0.402-0.057,0.815-0.093,1.257-0.109l0.516-1.852
				c0.031-0.113,0.117-0.195,0.254-0.188c0.563,0.012,1.135,0.058,1.699,0.137c0.115,0.016,0.205,0.107,0.22,0.221l0.253,1.918
				c0.878,0.177,1.736,0.448,2.552,0.806c0.13,0.057,0.189,0.209,0.132,0.34c-0.057,0.13-0.209,0.189-0.34,0.132
				c-0.837-0.367-1.719-0.639-2.623-0.807c-0.11-0.02-0.194-0.109-0.208-0.22l-0.251-1.906c-0.414-0.052-0.832-0.086-1.245-0.1
				l-0.513,1.841c-0.03,0.109-0.129,0.186-0.242,0.188c-0.495,0.012-0.949,0.047-1.389,0.109c-0.444,0.062-0.904,0.154-1.368,0.275
				c-0.112,0.028-0.226-0.019-0.285-0.115l-0.996-1.63c-0.395,0.128-0.788,0.275-1.173,0.438l0.281,1.9
				c0.016,0.11-0.04,0.219-0.14,0.268c-0.826,0.41-1.602,0.912-2.306,1.493c-0.09,0.073-0.216,0.078-0.31,0.013L9.908,11.64
				c-0.311,0.288-0.615,0.596-0.907,0.921l1.039,1.634c0.059,0.093,0.053,0.212-0.015,0.298c-0.553,0.698-1.026,1.447-1.406,2.226
				c-0.05,0.104-0.165,0.161-0.279,0.14l-1.858-0.347c-0.181,0.431-0.337,0.861-0.467,1.282l1.624,1.078
				c0.09,0.06,0.133,0.17,0.108,0.275c-0.193,0.805-0.304,1.627-0.329,2.445c-0.004,0.116-0.085,0.216-0.198,0.243l-1.835,0.438
				c0.01,0.493,0.045,0.981,0.105,1.454l1.932,0.326c0.106,0.018,0.189,0.1,0.21,0.205c0.143,0.741,0.359,1.476,0.642,2.185
				c0.043,0.107,0.009,0.23-0.083,0.3l-1.5,1.149c0.217,0.468,0.462,0.927,0.731,1.367l1.896-0.488
				c0.103-0.025,0.213,0.013,0.274,0.101c0.406,0.575,0.862,1.115,1.355,1.606c0.081,0.081,0.099,0.205,0.044,0.306l-0.91,1.67
				c0.409,0.363,0.838,0.702,1.279,1.012l1.532-1.215c0.084-0.067,0.202-0.074,0.294-0.018c0.545,0.333,1.135,0.628,1.751,0.877
				c0.104,0.042,0.169,0.147,0.16,0.26l-0.152,1.908c0.543,0.183,1.089,0.331,1.628,0.441l0.897-1.723
				c0.05-0.096,0.158-0.149,0.264-0.136c0.628,0.088,1.261,0.125,1.883,0.116c0.094-0.011,0.211,0.067,0.247,0.172l0.639,1.818
				c0.309-0.024,0.588-0.052,0.848-0.089c0.263-0.037,0.535-0.084,0.843-0.146l0.122-1.925c0.007-0.111,0.084-0.204,0.191-0.233
				c0.61-0.162,1.208-0.372,1.778-0.623c0.1-0.044,0.216-0.02,0.291,0.058l1.334,1.412c0.51-0.267,0.995-0.559,1.446-0.869
				l-0.667-1.793c-0.039-0.105-0.006-0.224,0.083-0.293c0.527-0.411,1.013-0.856,1.445-1.323c0.073-0.079,0.189-0.104,0.288-0.063
				l1.805,0.75c0.345-0.425,0.666-0.869,0.956-1.324l-1.33-1.358c-0.08-0.082-0.097-0.206-0.041-0.306
				c0.34-0.609,0.63-1.253,0.863-1.914c0.047-0.134,0.194-0.206,0.328-0.158c0.134,0.047,0.205,0.194,0.158,0.328
				c-0.22,0.628-0.491,1.242-0.806,1.826l1.339,1.367c0.083,0.085,0.098,0.215,0.035,0.316c-0.362,0.588-0.775,1.16-1.226,1.7
				c-0.072,0.087-0.193,0.116-0.297,0.073l-1.817-0.755c-0.377,0.395-0.791,0.774-1.234,1.131l0.671,1.805
				c0.041,0.109,0.003,0.232-0.092,0.299c-0.566,0.403-1.186,0.776-1.844,1.11c-0.101,0.05-0.225,0.03-0.304-0.053l-1.344-1.422
				c-0.487,0.206-0.992,0.383-1.506,0.528l-0.123,1.938c-0.007,0.116-0.091,0.212-0.204,0.236c-0.401,0.085-0.741,0.146-1.07,0.192
				c-0.328,0.045-0.681,0.08-1.081,0.106C20.339,36.493,20.333,36.493,20.328,36.493z"/>
		</g>
	</g>
	<g>
		<path class="st1" d="M28.536,23.447c-0.679,4.387-4.472,7.746-9.049,7.746c-5.057,0-9.157-4.1-9.157-9.157s4.1-9.157,9.157-9.157
			c1.263,0,2.466,0.256,3.561,0.718l-1.588,1.612c-0.957-0.288-1.991-0.38-3.046-0.233c-3.912,0.544-6.642,4.157-6.099,8.068
			c0.546,3.912,4.158,6.641,8.071,6.097c2.666-0.371,4.784-2.17,5.689-4.517"/>
		<path class="st0" d="M19.487,31.45c-5.191,0-9.415-4.223-9.415-9.415c0-5.191,4.223-9.415,9.415-9.415
			c1.269,0,2.501,0.249,3.661,0.739c0.079,0.033,0.136,0.103,0.152,0.187c0.017,0.084-0.009,0.17-0.069,0.231l-1.588,1.612
			c-0.067,0.068-0.167,0.094-0.258,0.066c-0.954-0.287-1.941-0.362-2.936-0.224c-3.765,0.524-6.402,4.013-5.879,7.777
			c0.525,3.764,4.013,6.399,7.78,5.878c2.48-0.345,4.582-2.014,5.485-4.354c0.051-0.133,0.2-0.199,0.333-0.147
			c0.133,0.051,0.199,0.2,0.147,0.333c-0.97,2.515-3.229,4.308-5.894,4.679c-4.047,0.56-7.797-2.272-8.361-6.317
			c-0.562-4.046,2.272-7.796,6.318-8.359c1.016-0.141,2.027-0.075,3.006,0.198l1.208-1.226c-0.991-0.37-2.034-0.557-3.105-0.557
			c-4.907,0-8.899,3.992-8.899,8.9c0,4.907,3.992,8.899,8.899,8.899c4.35,0,8.13-3.236,8.794-7.528
			c0.022-0.14,0.153-0.235,0.294-0.215c0.14,0.022,0.237,0.154,0.215,0.294C28.077,28.101,24.164,31.45,19.487,31.45z"/>
	</g>
	<g>
		<g>
			<path class="st2" d="M37.643,16.147c-0.017-0.267-0.045-0.532-0.09-0.793l1.788-1.559c-0.23-0.719-0.55-1.398-0.943-2.032
				l-2.336,0.341c-0.168-0.206-0.357-0.403-0.55-0.588l0.528-2.307c-0.592-0.438-1.246-0.811-1.948-1.1l-1.701,1.659
				c-0.129-0.034-0.256-0.07-0.385-0.098c-0.132-0.025-0.264-0.039-0.399-0.056l-0.929-2.187c-0.761-0.004-1.505,0.091-2.226,0.267
				l-0.399,2.331c-0.25,0.1-0.494,0.206-0.73,0.334l-2.027-1.211c-0.606,0.432-1.162,0.938-1.648,1.512l1.05,2.129
				c-0.143,0.222-0.272,0.455-0.393,0.696l-2.358,0.21c-0.115,0.354-0.219,0.71-0.295,1.085c-0.073,0.372-0.118,0.744-0.143,1.113
				l2.097,1.103c0.017,0.267,0.045,0.531,0.09,0.793l-1.788,1.559c0.23,0.716,0.553,1.398,0.946,2.032l2.333-0.341
				c0.168,0.206,0.356,0.403,0.547,0.588l-0.525,2.306c0.595,0.439,1.246,0.813,1.951,1.102l1.698-1.659
				c0.129,0.032,0.256,0.07,0.387,0.098c0.132,0.024,0.258,0.039,0.393,0.056l0.932,2.187c0.761,0.004,1.508-0.091,2.226-0.267
				l0.396-2.331c0.252-0.1,0.5-0.206,0.733-0.334l2.027,1.211c0.606-0.435,1.165-0.938,1.651-1.512l-1.05-2.129
				c0.138-0.223,0.272-0.455,0.39-0.696l2.358-0.211c0.118-0.354,0.222-0.713,0.295-1.085c0.076-0.373,0.118-0.744,0.146-1.113
				L37.643,16.147z M34.905,17.426c-0.47,2.364-2.769,3.896-5.133,3.424c-2.364-0.472-3.898-2.772-3.426-5.135
				c0.472-2.364,2.772-3.896,5.135-3.425C33.844,12.763,35.376,15.063,34.905,17.426z"/>
			<path class="st0" d="M30.62,25.974c-0.118-0.001-0.239-0.047-0.286-0.157l-0.874-2.051c-0.091-0.012-0.174-0.024-0.26-0.04
				c-0.094-0.02-0.179-0.043-0.263-0.065l-0.003-0.001l-1.594,1.557c-0.074,0.072-0.183,0.093-0.278,0.054
				c-0.704-0.289-1.379-0.67-2.006-1.133c-0.082-0.061-0.121-0.165-0.098-0.264l0.493-2.166c-0.137-0.137-0.259-0.268-0.369-0.395
				l-2.191,0.32c-0.101,0.013-0.202-0.032-0.256-0.119c-0.414-0.669-0.741-1.372-0.972-2.089c-0.031-0.098-0.001-0.206,0.076-0.273
				l1.68-1.465c-0.025-0.17-0.045-0.346-0.06-0.531l-1.97-1.037c-0.09-0.048-0.144-0.144-0.137-0.246
				c0.028-0.406,0.076-0.781,0.147-1.145c0.068-0.339,0.162-0.682,0.302-1.115c0.032-0.098,0.119-0.168,0.222-0.177l2.216-0.198
				c0.087-0.168,0.174-0.322,0.263-0.467l-0.986-2c-0.046-0.092-0.032-0.202,0.034-0.28c0.49-0.58,1.061-1.103,1.695-1.555
				c0.083-0.059,0.194-0.064,0.282-0.011l1.903,1.137c0.146-0.074,0.305-0.146,0.492-0.224l0.374-2.19
				c0.017-0.101,0.093-0.183,0.193-0.207c0.765-0.186,1.532-0.282,2.289-0.274c0.103,0.001,0.196,0.062,0.235,0.157l0.871,2.05
				c0.09,0.011,0.179,0.024,0.268,0.041c0.091,0.02,0.176,0.042,0.261,0.065l1.596-1.557c0.074-0.072,0.184-0.093,0.278-0.054
				c0.708,0.292,1.382,0.673,2.003,1.131c0.082,0.061,0.121,0.165,0.098,0.264l-0.495,2.166c0.138,0.136,0.261,0.267,0.372,0.396
				l2.193-0.32c0.102-0.014,0.202,0.032,0.256,0.119c0.412,0.666,0.739,1.369,0.969,2.09c0.031,0.098,0.002,0.205-0.076,0.273
				l-1.681,1.465c0.025,0.169,0.045,0.345,0.06,0.531l1.973,1.037c0.091,0.048,0.145,0.145,0.137,0.247
				c-0.033,0.439-0.081,0.803-0.15,1.145c-0.067,0.342-0.163,0.696-0.303,1.115c-0.032,0.097-0.119,0.166-0.222,0.175l-2.215,0.198
				c-0.075,0.144-0.161,0.296-0.262,0.466l0.987,2.002c0.046,0.092,0.032,0.202-0.034,0.28c-0.481,0.569-1.052,1.092-1.697,1.555
				c-0.084,0.06-0.194,0.064-0.282,0.012l-1.902-1.137c-0.173,0.088-0.344,0.162-0.495,0.224l-0.372,2.189
				c-0.017,0.101-0.093,0.183-0.193,0.207C32.113,25.882,31.36,25.974,30.62,25.974z M28.859,23.118
				c0.021,0,0.041,0.003,0.062,0.008l0.15,0.039c0.076,0.02,0.151,0.041,0.229,0.057c0.112,0.02,0.227,0.034,0.348,0.05
				c0.091,0.011,0.192,0.073,0.228,0.158l0.865,2.029c0.606-0.009,1.22-0.083,1.831-0.22l0.367-2.163
				c0.015-0.089,0.075-0.163,0.159-0.196c0.199-0.079,0.459-0.187,0.703-0.321c0.081-0.044,0.178-0.042,0.256,0.005l1.88,1.124
				c0.507-0.377,0.963-0.794,1.358-1.242l-0.974-1.976c-0.039-0.08-0.035-0.174,0.012-0.249c0.16-0.259,0.28-0.473,0.378-0.674
				c0.04-0.081,0.119-0.136,0.209-0.144l2.189-0.196c0.104-0.329,0.18-0.616,0.234-0.893c0.056-0.278,0.098-0.571,0.128-0.915
				l-1.949-1.024c-0.08-0.042-0.132-0.122-0.137-0.212c-0.018-0.278-0.046-0.528-0.087-0.766c-0.015-0.089,0.017-0.179,0.085-0.238
				l1.659-1.446c-0.196-0.573-0.457-1.134-0.776-1.671L36.1,12.358c-0.089,0.012-0.18-0.022-0.237-0.092
				c-0.148-0.181-0.321-0.366-0.529-0.565c-0.065-0.063-0.093-0.155-0.073-0.244l0.49-2.141c-0.503-0.357-1.04-0.661-1.601-0.905
				l-1.579,1.54c-0.065,0.063-0.159,0.087-0.245,0.065l-0.111-0.03c-0.088-0.023-0.175-0.047-0.263-0.066
				c-0.096-0.018-0.198-0.03-0.302-0.043l-0.074-0.009c-0.091-0.011-0.169-0.07-0.205-0.155l-0.862-2.029
				c-0.603,0.009-1.218,0.083-1.831,0.22l-0.37,2.163c-0.015,0.088-0.075,0.162-0.158,0.196c-0.288,0.115-0.505,0.214-0.703,0.322
				c-0.08,0.043-0.177,0.041-0.255-0.006l-1.881-1.124c-0.499,0.37-0.954,0.787-1.355,1.242l0.974,1.976
				c0.04,0.081,0.035,0.178-0.015,0.254c-0.129,0.199-0.253,0.419-0.379,0.672c-0.04,0.08-0.119,0.133-0.208,0.141l-2.188,0.195
				c-0.106,0.339-0.18,0.62-0.235,0.895c-0.057,0.291-0.099,0.592-0.126,0.913l1.947,1.025c0.08,0.042,0.131,0.122,0.137,0.212
				c0.017,0.276,0.046,0.527,0.087,0.766c0.015,0.089-0.017,0.178-0.085,0.237l-1.659,1.446C22.404,20,22.665,20.56,22.986,21.1
				l2.164-0.316c0.088-0.013,0.179,0.022,0.237,0.092c0.145,0.178,0.318,0.363,0.527,0.566c0.065,0.063,0.092,0.154,0.072,0.242
				l-0.487,2.14c0.507,0.36,1.045,0.664,1.604,0.907l1.576-1.539C28.728,23.144,28.793,23.118,28.859,23.118z M30.637,21.194
				c-0.304,0-0.61-0.03-0.916-0.091c-1.21-0.242-2.255-0.941-2.94-1.968c-0.685-1.027-0.93-2.26-0.688-3.47
				c0.498-2.498,2.937-4.127,5.438-3.628c2.499,0.5,4.125,2.94,3.626,5.439c-0.24,1.209-0.937,2.253-1.963,2.938
				C32.425,20.928,31.541,21.194,30.637,21.194z M30.626,12.463c-1.919,0-3.639,1.353-4.028,3.303
				c-0.215,1.076,0.003,2.171,0.612,3.084c0.609,0.913,1.537,1.534,2.612,1.748c1.077,0.214,2.173-0.003,3.086-0.612
				c0.911-0.609,1.531-1.535,1.744-2.61c0,0,0,0,0,0c0.443-2.221-1.002-4.389-3.222-4.833C31.16,12.489,30.891,12.463,30.626,12.463
				z"/>
		</g>
	</g>
	<g>
		<path class="st0" d="M30.625,17.953c-0.142,0-0.258-0.115-0.258-0.258v-2.248c0-0.142,0.115-0.258,0.258-0.258
			c0.142,0,0.258,0.115,0.258,0.258v2.248C30.883,17.837,30.767,17.953,30.625,17.953z"/>
	</g>
	<g>
		<path class="st0" d="M31.749,16.829h-2.248c-0.142,0-0.258-0.115-0.258-0.258c0-0.142,0.115-0.258,0.258-0.258h2.248
			c0.142,0,0.258,0.115,0.258,0.258C32.007,16.714,31.891,16.829,31.749,16.829z"/>
	</g>
</g>
</svg>
