<?xml version="1.0" encoding="utf-8"?>
<!-- Generator: Adobe Illustrator 22.1.0, SVG Export Plug-In . SVG Version: 6.00 Build 0)  -->
<svg version="1.1" id="Layer_1" xmlns="http://www.w3.org/2000/svg" xmlns:xlink="http://www.w3.org/1999/xlink" x="0px" y="0px"
	 viewBox="0 0 45 45" style="enable-background:new 0 0 45 45;" xml:space="preserve">
<style type="text/css">
	.st0{fill:#616870;}
	.st1{fill:#EBEFF2;}
	.st2{fill:#4DA8B6;}
</style>
<g>
	<path class="st0" d="M1003.735,141.346v1.665c0,0.143-0.116,0.259-0.259,0.259c-0.143,0-0.259-0.116-0.259-0.259v-1.665
		c0-0.143,0.116-0.259,0.259-0.259C1003.619,141.087,1003.735,141.202,1003.735,141.346z"/>
</g>
<g>
	<path class="st0" d="M999.994,137.632v1.233c0,0.143-0.116,0.259-0.259,0.259c-0.143,0-0.259-0.116-0.259-0.259v-1.233
		c0-0.143,0.116-0.259,0.259-0.259C999.879,137.373,999.994,137.489,999.994,137.632z"/>
</g>
<g>
	<g>
		<g>
			<g>
				<g>
					<g>
						<path class="st1" d="M13.282,33.831c0,0.108-0.065,0.197-0.146,0.197H9.511c-0.08,0-0.146-0.089-0.146-0.197v-10.31
							c0-0.108,0.066-0.197,0.146-0.197h3.625c0.08,0,0.146,0.089,0.146,0.197V33.831z"/>
						<path class="st0" d="M13.136,34.29H9.511c-0.224,0-0.407-0.206-0.407-0.459v-10.31c0-0.257,0.179-0.459,0.407-0.459h3.625
							c0.228,0,0.407,0.201,0.407,0.459v10.31C13.543,34.089,13.365,34.29,13.136,34.29z M9.627,33.767h3.394V23.586H9.627V33.767z"
							/>
					</g>
				</g>
			</g>
			<g>
				<g>
					<g>
						<path class="st2" d="M20.261,33.831c0,0.108-0.065,0.197-0.144,0.197h-3.624c-0.081,0-0.147-0.089-0.147-0.197V17.102
							c0-0.108,0.065-0.197,0.147-0.197h3.624c0.079,0,0.144,0.089,0.144,0.197V33.831z"/>
						<path class="st0" d="M20.117,34.29h-3.624c-0.229,0-0.409-0.201-0.409-0.459V17.102c0-0.257,0.179-0.459,0.409-0.459h3.624
							c0.224,0,0.405,0.206,0.405,0.459v16.729C20.522,34.084,20.341,34.29,20.117,34.29z M16.607,33.767h3.392v-16.6h-3.392V33.767
							z"/>
					</g>
				</g>
			</g>
			<g>
				<g>
					<g>
						<path class="st1" d="M34.221,33.831c0,0.108-0.066,0.197-0.144,0.197h-3.624c-0.081,0-0.147-0.089-0.147-0.197V21.829
							c0-0.108,0.065-0.197,0.147-0.197h3.624c0.079,0,0.144,0.089,0.144,0.197V33.831z"/>
						<path class="st0" d="M34.077,34.29h-3.624c-0.229,0-0.409-0.201-0.409-0.459V21.829c0-0.257,0.179-0.459,0.409-0.459h3.624
							c0.227,0,0.405,0.201,0.405,0.459v12.003C34.482,34.084,34.3,34.29,34.077,34.29z M30.567,33.767h3.392V21.893h-3.392V33.767z
							"/>
					</g>
				</g>
			</g>
			<g>
				<g>
					<g>
						<path class="st1" d="M27.241,33.831c0,0.108-0.066,0.197-0.146,0.197h-3.624c-0.08,0-0.146-0.089-0.146-0.197v-8.756
							c0-0.109,0.066-0.198,0.146-0.198h3.624c0.08,0,0.146,0.089,0.146,0.198V33.831z"/>
						<path class="st0" d="M27.095,34.29h-3.624c-0.228,0-0.406-0.201-0.406-0.459v-8.756c0-0.258,0.179-0.459,0.406-0.459h3.624
							c0.228,0,0.407,0.202,0.407,0.459v8.756C27.502,34.089,27.323,34.29,27.095,34.29z M23.588,33.767h3.391v-8.628h-3.391V33.767
							z"/>
					</g>
				</g>
			</g>
		</g>
	</g>
	<g>
		<path class="st0" d="M11.324,19.67c-1.142,0-2.072-0.929-2.072-2.072c0-1.142,0.929-2.072,2.072-2.072
			c1.142,0,2.071,0.929,2.071,2.072C13.395,18.741,12.466,19.67,11.324,19.67z M11.324,16.05c-0.854,0-1.549,0.695-1.549,1.549
			c0,0.854,0.695,1.549,1.549,1.549s1.548-0.695,1.548-1.549C12.872,16.744,12.178,16.05,11.324,16.05z"/>
	</g>
	<g>
		<path class="st0" d="M18.303,12.425c-1.142,0-2.072-0.929-2.072-2.072c0-1.142,0.929-2.072,2.072-2.072
			c1.142,0,2.072,0.929,2.072,2.072C20.375,11.495,19.446,12.425,18.303,12.425z M18.303,8.804c-0.854,0-1.549,0.695-1.549,1.549
			c0,0.854,0.695,1.549,1.549,1.549s1.549-0.695,1.549-1.549C19.852,9.499,19.157,8.804,18.303,8.804z"/>
	</g>
	<g>
		<path class="st0" d="M25.283,19.925c-1.142,0-2.071-0.929-2.071-2.072c0-1.142,0.929-2.072,2.071-2.072
			c1.142,0,2.072,0.929,2.072,2.072C27.355,18.996,26.425,19.925,25.283,19.925z M25.283,16.305c-0.854,0-1.548,0.695-1.548,1.549
			c0,0.854,0.695,1.549,1.548,1.549c0.854,0,1.549-0.695,1.549-1.549C26.832,17,26.137,16.305,25.283,16.305z"/>
	</g>
	<g>
		<path class="st0" d="M32.263,15.007c-1.142,0-2.072-0.929-2.072-2.072c0-1.142,0.929-2.072,2.072-2.072
			c1.142,0,2.072,0.929,2.072,2.072C34.335,14.077,33.406,15.007,32.263,15.007z M32.263,11.386c-0.854,0-1.549,0.695-1.549,1.549
			c0,0.854,0.695,1.549,1.549,1.549c0.854,0,1.549-0.695,1.549-1.549C33.812,12.081,33.117,11.386,32.263,11.386z"/>
	</g>
	<g>
		<path class="st0" d="M12.236,16.305c-0.068,0-0.137-0.027-0.188-0.08c-0.1-0.104-0.097-0.269,0.007-0.37l4.688-4.522
			c0.104-0.1,0.27-0.097,0.37,0.007c0.1,0.104,0.097,0.269-0.007,0.37l-4.688,4.522C12.367,16.281,12.302,16.305,12.236,16.305z"/>
	</g>
	<g>
		<path class="st0" d="M24.063,16.786c-0.075,0-0.15-0.032-0.202-0.095l-4.127-5.003c-0.092-0.112-0.076-0.276,0.035-0.368
			c0.111-0.092,0.276-0.077,0.368,0.035l4.127,5.003c0.092,0.112,0.076,0.276-0.035,0.368C24.18,16.766,24.121,16.786,24.063,16.786
			z"/>
	</g>
	<g>
		<path class="st0" d="M26.839,17.202c-0.08,0-0.16-0.037-0.211-0.107c-0.085-0.117-0.06-0.28,0.057-0.365l3.986-2.918
			c0.116-0.086,0.279-0.061,0.365,0.056c0.085,0.117,0.06,0.28-0.057,0.365l-3.986,2.918C26.946,17.186,26.892,17.202,26.839,17.202
			z"/>
	</g>
	<g>
		<path class="st0" d="M38.571,36.851H6.785c-0.145,0-0.261-0.117-0.261-0.261c0-0.144,0.117-0.261,0.261-0.261h31.786
			c0.145,0,0.261,0.117,0.261,0.261C38.833,36.734,38.716,36.851,38.571,36.851z"/>
	</g>
</g>
</svg>
