<?xml version="1.0" encoding="utf-8"?>
<!-- Generator: Adobe Illustrator 22.1.0, SVG Export Plug-In . SVG Version: 6.00 Build 0)  -->
<svg version="1.1" id="Layer_1" xmlns="http://www.w3.org/2000/svg" xmlns:xlink="http://www.w3.org/1999/xlink" x="0px" y="0px"
	 viewBox="0 0 45 45" style="enable-background:new 0 0 45 45;" xml:space="preserve">
<style type="text/css">
	.st0{fill:#616870;}
	.st1{fill:#EBEFF2;}
</style>
<g>
	<path class="st0" d="M1003.735,141.346v1.665c0,0.143-0.116,0.259-0.259,0.259c-0.143,0-0.259-0.116-0.259-0.259v-1.665
		c0-0.143,0.116-0.259,0.259-0.259C1003.619,141.087,1003.735,141.202,1003.735,141.346z"/>
</g>
<g>
	<path class="st0" d="M999.994,137.632v1.233c0,0.143-0.116,0.259-0.259,0.259c-0.143,0-0.259-0.116-0.259-0.259v-1.233
		c0-0.143,0.116-0.259,0.259-0.259C999.879,137.373,999.994,137.489,999.994,137.632z"/>
</g>
<g>
	<g>
		<g>
			<g>
				<g>
					<path class="st0" d="M27.609,14.712c-0.006,0.022-0.014,0.043-0.027,0.064c-0.071,0.121-0.226,0.161-0.347,0.09
						c-1.79-1.05-3.875-1.536-6.03-1.407c-4.461,0.268-8.25,3.205-9.176,7.126c-0.038,0.162-0.17,0.219-0.305,0.187
						c-0.136-0.033-0.22-0.17-0.188-0.306c1.008-4.146,4.957-7.233,9.638-7.514c2.255-0.135,4.44,0.375,6.317,1.476
						C27.592,14.488,27.637,14.605,27.609,14.712z"/>
				</g>
			</g>
			<g>
				<g>
					<path class="st0" d="M31.649,19.415c-0.02,0.077-0.077,0.143-0.157,0.173c-0.132,0.049-0.277-0.018-0.326-0.149
						c-0.17-0.458-0.383-0.905-0.634-1.329c-0.07-0.121-0.032-0.276,0.09-0.347c0.12-0.071,0.276-0.031,0.347,0.089
						c0.266,0.45,0.492,0.925,0.673,1.411C31.661,19.313,31.662,19.366,31.649,19.415z M30.432,17.204
						c-0.014,0.053-0.045,0.102-0.092,0.137c-0.112,0.084-0.271,0.062-0.355-0.049c-0.311-0.411-0.664-0.802-1.047-1.16
						c-0.102-0.096-0.107-0.256-0.012-0.358c0.096-0.102,0.256-0.108,0.358-0.012c0.406,0.378,0.778,0.79,1.106,1.225
						C30.438,17.051,30.451,17.131,30.432,17.204z"/>
				</g>
			</g>
		</g>
		<g>
			<g>
				<g>
					<path class="st0" d="M15.202,21.16c-0.003,0.012-0.007,0.023-0.012,0.035c-0.15,0.352-0.268,0.718-0.352,1.085
						c-0.037,0.138-0.167,0.222-0.303,0.191c-0.137-0.031-0.222-0.167-0.191-0.303c0.092-0.398,0.218-0.792,0.38-1.172
						c0.055-0.129,0.204-0.189,0.333-0.134C15.174,20.913,15.234,21.041,15.202,21.16z"/>
				</g>
			</g>
			<g>
				<g>
					<path class="st0" d="M29.064,21.436c-0.021,0.078-0.078,0.145-0.16,0.174c-0.132,0.047-0.277-0.021-0.324-0.153
						c-1.017-2.844-3.964-4.696-7.166-4.504c-2.087,0.125-4.01,1.098-5.277,2.669c-0.088,0.109-0.247,0.126-0.356,0.038
						c-0.108-0.087-0.128-0.247-0.038-0.356c1.356-1.682,3.412-2.723,5.641-2.857c3.425-0.205,6.58,1.785,7.673,4.84
						C29.075,21.336,29.077,21.388,29.064,21.436z"/>
				</g>
			</g>
		</g>
	</g>
	<g>
		<g>
			<g>
				<path class="st1" d="M24.048,32.215h4.199c2.284,0,4.135-1.851,4.135-4.135c0-2.283-1.851-4.134-4.135-4.134
					c-0.517,0-1.01,0.098-1.466,0.272c-0.483-2.253-2.483-3.943-4.88-3.943c-2.302,0-4.236,1.561-4.812,3.681
					c-2.193,0.102-3.941,1.907-3.941,4.125c0,2.219,1.749,4.023,3.942,4.125h4.228L24.048,32.215z"/>
				<path class="st0" d="M28.247,32.383h-4.199c-0.093,0-2.636-0.01-2.729-0.01h-4.228c-2.308-0.107-4.11-1.992-4.11-4.293
					c0-2.259,1.738-4.119,3.98-4.285c0.647-2.178,2.662-3.689,4.941-3.689c2.353,0,4.426,1.625,5,3.89
					c0.437-0.145,0.889-0.218,1.345-0.218c2.372,0,4.302,1.93,4.302,4.302C32.549,30.453,30.619,32.383,28.247,32.383z
					 M24.215,32.048h4.032c2.188,0,3.967-1.78,3.967-3.967c0-2.187-1.78-3.967-3.967-3.967c-0.478,0-0.951,0.088-1.406,0.261
					c-0.045,0.017-0.096,0.014-0.14-0.009c-0.043-0.023-0.073-0.064-0.084-0.112c-0.473-2.208-2.457-3.811-4.716-3.811
					c-2.168,0-4.081,1.463-4.651,3.558c-0.019,0.07-0.081,0.12-0.154,0.123c-2.12,0.098-3.781,1.837-3.781,3.957
					c0,2.121,1.662,3.86,3.783,3.958l4.053,0L24.215,32.048z"/>
			</g>
			<g>
				<path class="st0" d="M18.818,24.432c-0.015,0-0.029-0.002-0.044-0.006c-0.089-0.024-0.142-0.116-0.118-0.206
					c0.393-1.445,1.712-2.454,3.208-2.454c0.093,0,0.167,0.075,0.167,0.167c0,0.093-0.075,0.167-0.167,0.167
					c-1.345,0-2.532,0.908-2.885,2.207C18.959,24.383,18.892,24.432,18.818,24.432z"/>
			</g>
		</g>
	</g>
	<g>
		<g>
			<g>
				<g>
					<path class="st0" d="M37.318,31.384c-0.015-0.003-0.03-0.008-0.044-0.016c-0.085-0.044-0.118-0.148-0.074-0.233
						c0.65-1.257,0.905-2.694,0.739-4.157c-0.344-3.027-2.482-5.5-5.185-5.988c-0.111-0.02-0.156-0.108-0.139-0.201
						c0.017-0.094,0.107-0.156,0.201-0.139c2.859,0.536,5.104,3.112,5.465,6.289c0.174,1.531-0.094,3.036-0.775,4.354
						C37.47,31.364,37.392,31.399,37.318,31.384z"/>
				</g>
			</g>
			<g>
				<g>
					<path class="st0" d="M35.724,33.396c-0.036-0.008-0.071-0.027-0.097-0.058c-0.061-0.073-0.052-0.182,0.021-0.243
						c0.269-0.227,0.522-0.481,0.752-0.755c0.061-0.073,0.17-0.082,0.243-0.021c0.073,0.061,0.083,0.17,0.021,0.243
						c-0.243,0.29-0.51,0.558-0.794,0.798C35.829,33.395,35.774,33.407,35.724,33.396z"/>
				</g>
			</g>
		</g>
		<g>
			<g>
				<g>
					<path class="st0" d="M32.478,23.171c-0.008-0.002-0.016-0.004-0.024-0.007c-0.245-0.09-0.499-0.157-0.751-0.2
						c-0.095-0.02-0.157-0.105-0.141-0.199c0.016-0.094,0.105-0.157,0.199-0.141c0.274,0.048,0.547,0.12,0.811,0.216
						c0.09,0.033,0.136,0.132,0.103,0.222C32.645,23.143,32.561,23.188,32.478,23.171z"/>
				</g>
			</g>
			<g>
				<g>
					<path class="st0" d="M32.793,32.618c-0.054-0.011-0.101-0.048-0.124-0.102c-0.037-0.088,0.004-0.189,0.093-0.226
						c1.899-0.796,3.053-2.869,2.807-5.042c-0.161-1.416-0.893-2.69-2.008-3.496c-0.077-0.056-0.095-0.164-0.039-0.241
						c0.056-0.077,0.163-0.096,0.241-0.039c1.194,0.862,1.978,2.224,2.149,3.737c0.264,2.324-0.977,4.544-3.017,5.399
						C32.862,32.623,32.827,32.625,32.793,32.618z"/>
				</g>
			</g>
		</g>
	</g>
	<g>
		<g>
			<g>
				<g>
					<path class="st0" d="M9.399,33.762c0.014-0.008,0.026-0.017,0.038-0.028c0.068-0.067,0.069-0.176,0.002-0.244
						c-0.991-1.009-1.659-2.307-1.932-3.754c-0.564-2.994,0.749-5.987,3.188-7.251c0.101-0.052,0.117-0.149,0.073-0.233
						c-0.044-0.085-0.149-0.117-0.233-0.073c-2.574,1.355-3.96,4.479-3.368,7.621c0.285,1.514,0.985,2.874,2.025,3.932
						C9.248,33.788,9.333,33.798,9.399,33.762z"/>
				</g>
			</g>
		</g>
		<g>
			<g>
				<g>
					<path class="st0" d="M14.086,33.608c0.048-0.027,0.083-0.076,0.089-0.134c0.009-0.095-0.06-0.18-0.155-0.189
						c-2.049-0.2-3.764-1.841-4.169-3.99c-0.264-1.401,0.06-2.834,0.888-3.932c0.057-0.076,0.042-0.184-0.034-0.242
						c-0.076-0.057-0.184-0.044-0.242,0.034c-0.887,1.176-1.234,2.708-0.952,4.204c0.433,2.299,2.273,4.054,4.475,4.27
						C14.022,33.632,14.056,33.624,14.086,33.608z"/>
				</g>
			</g>
		</g>
	</g>
</g>
</svg>
