<?xml version="1.0" encoding="utf-8"?>
<!-- Generator: Adobe Illustrator 22.1.0, SVG Export Plug-In . SVG Version: 6.00 Build 0)  -->
<svg version="1.1" id="Layer_1" xmlns="http://www.w3.org/2000/svg" xmlns:xlink="http://www.w3.org/1999/xlink" x="0px" y="0px"
	 viewBox="0 0 45 45" style="enable-background:new 0 0 45 45;" xml:space="preserve">
<style type="text/css">
	.st0{fill:#616870;}
	.st1{fill:#4DA8B6;}
</style>
<g>
	<path class="st0" d="M1003.735,141.346v1.665c0,0.143-0.116,0.259-0.259,0.259c-0.143,0-0.259-0.116-0.259-0.259v-1.665
		c0-0.143,0.116-0.259,0.259-0.259C1003.619,141.087,1003.735,141.202,1003.735,141.346z"/>
</g>
<g>
	<path class="st0" d="M999.994,137.632v1.233c0,0.143-0.116,0.259-0.259,0.259c-0.143,0-0.259-0.116-0.259-0.259v-1.233
		c0-0.143,0.116-0.259,0.259-0.259C999.879,137.373,999.994,137.489,999.994,137.632z"/>
</g>
<g>
	<g>
		<g>
			<path class="st0" d="M38.334,18c-0.118,0-0.226-0.077-0.261-0.195c-0.749-2.529-2.137-4.858-4.014-6.735
				c-3.85-3.85-9.331-5.461-14.658-4.31c-0.144,0.032-0.292-0.061-0.323-0.208c-0.032-0.147,0.061-0.292,0.208-0.323
				c5.509-1.189,11.177,0.476,15.158,4.457c1.942,1.942,3.377,4.35,4.151,6.966c0.043,0.144-0.04,0.296-0.184,0.338
				C38.386,17.996,38.36,18,38.334,18z"/>
		</g>
		<g>
			<path class="st0" d="M8.647,30.578c-0.095,0-0.187-0.05-0.237-0.138c-0.272-0.483-0.522-0.983-0.741-1.486
				c-0.06-0.138,0.003-0.298,0.14-0.358c0.137-0.059,0.298,0.003,0.358,0.14c0.212,0.487,0.453,0.97,0.716,1.436
				c0.074,0.131,0.028,0.297-0.103,0.371C8.738,30.567,8.692,30.578,8.647,30.578z M7.342,27.59c-0.115,0-0.222-0.073-0.259-0.189
				c-0.525-1.633-0.791-3.335-0.791-5.057c0-0.132,0.002-0.265,0.005-0.398c0.004-0.148,0.125-0.265,0.272-0.265
				c0.002,0,0.004,0,0.007,0c0.15,0.004,0.269,0.129,0.265,0.279c-0.003,0.128-0.005,0.256-0.005,0.384
				c0,1.666,0.257,3.311,0.764,4.89c0.046,0.144-0.032,0.297-0.175,0.342C7.397,27.586,7.369,27.59,7.342,27.59z M6.69,20.598
				c-0.012,0-0.023,0-0.035-0.002c-0.149-0.019-0.255-0.155-0.236-0.304c0.068-0.545,0.165-1.095,0.288-1.634
				c0.034-0.146,0.173-0.24,0.326-0.205c0.146,0.033,0.238,0.179,0.205,0.326C7.12,19.301,7.026,19.833,6.96,20.36
				C6.943,20.498,6.825,20.598,6.69,20.598z M9.048,13.986c-0.05,0-0.1-0.013-0.145-0.042c-0.127-0.08-0.165-0.248-0.085-0.375
				c0.295-0.468,0.616-0.926,0.954-1.358c0.093-0.12,0.264-0.14,0.382-0.047c0.119,0.093,0.139,0.264,0.047,0.382
				c-0.327,0.418-0.637,0.86-0.922,1.313C9.227,13.941,9.139,13.986,9.048,13.986z M11.054,11.415c-0.068,0-0.136-0.025-0.188-0.075
				c-0.108-0.104-0.112-0.276-0.008-0.385c0.087-0.091,0.175-0.181,0.264-0.27c1.225-1.225,2.622-2.243,4.151-3.026
				c0.132-0.068,0.298-0.015,0.366,0.119c0.069,0.133,0.015,0.298-0.119,0.366c-1.479,0.757-2.829,1.742-4.014,2.926
				c-0.086,0.086-0.172,0.174-0.256,0.262C11.197,11.387,11.126,11.415,11.054,11.415z"/>
		</g>
		<g>
			<path class="st0" d="M12.939,35.51c-0.058,0-0.116-0.018-0.165-0.056c-0.578-0.443-1.134-0.93-1.652-1.448
				c-0.599-0.599-1.154-1.246-1.651-1.923c-0.089-0.121-0.063-0.292,0.058-0.381c0.122-0.089,0.292-0.063,0.381,0.058
				c0.48,0.655,1.018,1.281,1.597,1.86c0.501,0.501,1.038,0.972,1.598,1.4c0.12,0.091,0.142,0.263,0.051,0.382
				C13.102,35.474,13.021,35.51,12.939,35.51z"/>
		</g>
		<g>
			<path class="st0" d="M22.784,38.825c-2.446,0-4.892-0.533-7.121-1.599c-0.136-0.065-0.193-0.228-0.128-0.363
				c0.065-0.136,0.228-0.193,0.363-0.128c4.297,2.056,9.43,2.062,13.732,0.018c0.135-0.065,0.298-0.007,0.363,0.129
				c0.065,0.136,0.007,0.298-0.129,0.363C27.647,38.299,25.215,38.825,22.784,38.825z"/>
		</g>
		<g>
			<path class="st0" d="M34.163,34.175c-0.071,0-0.141-0.027-0.194-0.081c-0.105-0.107-0.104-0.28,0.003-0.385l0.087-0.087
				c0.225-0.225,0.441-0.455,0.65-0.689c0.099-0.112,0.271-0.122,0.384-0.022c0.112,0.1,0.122,0.272,0.022,0.384
				c-0.215,0.242-0.439,0.479-0.671,0.711l-0.09,0.09C34.3,34.149,34.231,34.175,34.163,34.175z M35.935,32.114
				c-0.055,0-0.112-0.017-0.159-0.052c-0.122-0.088-0.149-0.258-0.061-0.38c1.266-1.749,2.149-3.705,2.625-5.814
				c0.033-0.147,0.178-0.24,0.325-0.205c0.146,0.033,0.239,0.179,0.205,0.325c-0.492,2.181-1.405,4.204-2.714,6.013
				C36.102,32.075,36.019,32.114,35.935,32.114z M38.808,25.131c-0.014,0-0.028-0.001-0.042-0.003
				c-0.149-0.023-0.25-0.162-0.228-0.31c0.082-0.529,0.138-1.066,0.167-1.597c0.009-0.15,0.128-0.274,0.287-0.257
				c0.15,0.008,0.265,0.137,0.257,0.287c-0.03,0.549-0.088,1.104-0.173,1.65C39.056,25.035,38.94,25.131,38.808,25.131z"/>
		</g>
	</g>
	<g>
		<g>
			<g>
				<path class="st0" d="M22.783,35.04c-6.999,0-12.694-5.695-12.694-12.694c0-6.999,5.695-12.694,12.694-12.694
					s12.694,5.695,12.694,12.694C35.477,29.345,29.782,35.04,22.783,35.04z M22.783,10.196c-6.7,0-12.15,5.45-12.15,12.15
					s5.45,12.15,12.15,12.15s12.15-5.45,12.15-12.15S29.482,10.196,22.783,10.196z"/>
			</g>
			<g>
				<path class="st0" d="M22.783,35.04c-3.071,0-5.844-2.989-7.065-7.613c-0.038-0.146,0.048-0.295,0.194-0.333
					c0.147-0.039,0.295,0.049,0.333,0.194c1.156,4.379,3.722,7.208,6.538,7.208c3.948,0,7.159-5.45,7.159-12.15
					c0-0.51-0.019-1.025-0.057-1.531c-0.011-0.15,0.102-0.281,0.251-0.292c0.148-0.01,0.281,0.102,0.292,0.251
					c0.038,0.52,0.058,1.048,0.058,1.572C30.487,29.345,27.031,35.04,22.783,35.04z"/>
			</g>
			<g>
				<path class="st0" d="M15.4,24.042c-0.141,0-0.261-0.11-0.271-0.254c-0.032-0.476-0.049-0.962-0.049-1.443
					c0-6.999,3.456-12.694,7.703-12.694c3.079,0,5.856,3.001,7.073,7.644c0.038,0.146-0.049,0.295-0.194,0.332
					c-0.147,0.04-0.295-0.049-0.332-0.194c-1.153-4.397-3.723-7.238-6.547-7.238c-3.948,0-7.159,5.45-7.159,12.15
					c0,0.468,0.016,0.942,0.048,1.406c0.01,0.15-0.103,0.28-0.253,0.29C15.412,24.042,15.406,24.042,15.4,24.042z"/>
			</g>
			<g>
				<path class="st0" d="M22.783,35.04c-0.15,0-0.272-0.122-0.272-0.272v-2.844c0-0.15,0.122-0.272,0.272-0.272
					c0.15,0,0.272,0.122,0.272,0.272v2.844C23.055,34.918,22.933,35.04,22.783,35.04z"/>
			</g>
			<g>
				<path class="st0" d="M22.783,28.736c-0.15,0-0.272-0.122-0.272-0.272V9.924c0-0.15,0.122-0.272,0.272-0.272
					c0.15,0,0.272,0.122,0.272,0.272v18.54C23.055,28.614,22.933,28.736,22.783,28.736z"/>
			</g>
			<g>
				<g>
					<path class="st0" d="M34.591,19.337h-2.952c-0.15,0-0.272-0.122-0.272-0.272c0-0.15,0.122-0.272,0.272-0.272h2.952
						c0.15,0,0.272,0.122,0.272,0.272C34.863,19.215,34.741,19.337,34.591,19.337z"/>
				</g>
				<g>
					<path class="st0" d="M28.18,19.337H10.978c-0.15,0-0.272-0.122-0.272-0.272c0-0.15,0.122-0.272,0.272-0.272H28.18
						c0.15,0,0.272,0.122,0.272,0.272C28.452,19.215,28.33,19.337,28.18,19.337z"/>
				</g>
				<g>
					<path class="st0" d="M34.591,25.898H17.333c-0.15,0-0.272-0.122-0.272-0.272c0-0.15,0.122-0.272,0.272-0.272h17.258
						c0.15,0,0.272,0.122,0.272,0.272C34.863,25.777,34.741,25.898,34.591,25.898z"/>
				</g>
				<g>
					<path class="st0" d="M13.874,25.898h-2.896c-0.15,0-0.272-0.122-0.272-0.272c0-0.15,0.122-0.272,0.272-0.272h2.896
						c0.15,0,0.272,0.122,0.272,0.272C14.146,25.777,14.024,25.898,13.874,25.898z"/>
				</g>
			</g>
		</g>
		<g>
			<circle class="st1" cx="29.909" cy="19.065" r="1.73"/>
			<path class="st0" d="M29.909,21.067c-1.104,0-2.002-0.898-2.002-2.002c0-1.104,0.898-2.002,2.002-2.002
				c1.104,0,2.002,0.898,2.002,2.002C31.911,20.169,31.013,21.067,29.909,21.067z M29.909,17.608c-0.803,0-1.457,0.654-1.457,1.457
				c0,0.804,0.654,1.458,1.457,1.458c0.803,0,1.457-0.654,1.457-1.458C31.367,18.262,30.713,17.608,29.909,17.608z"/>
		</g>
		<g>
			<circle class="st1" cx="15.603" cy="25.626" r="1.73"/>
			<path class="st0" d="M15.603,27.628c-1.104,0-2.002-0.898-2.002-2.002c0-1.104,0.898-2.002,2.002-2.002
				c1.104,0,2.002,0.898,2.002,2.002C17.605,26.731,16.707,27.628,15.603,27.628z M15.603,24.169c-0.803,0-1.457,0.654-1.457,1.457
				c0,0.804,0.654,1.458,1.457,1.458s1.457-0.654,1.457-1.458C17.06,24.823,16.406,24.169,15.603,24.169z"/>
		</g>
		<g>
			<circle class="st1" cx="22.783" cy="30.194" r="1.73"/>
			<path class="st0" d="M22.783,32.196c-1.104,0-2.002-0.898-2.002-2.002c0-1.104,0.898-2.002,2.002-2.002
				c1.104,0,2.002,0.898,2.002,2.002C24.785,31.298,23.887,32.196,22.783,32.196z M22.783,28.736c-0.803,0-1.457,0.654-1.457,1.458
				c0,0.803,0.654,1.457,1.457,1.457c0.804,0,1.458-0.654,1.458-1.457C24.241,29.39,23.587,28.736,22.783,28.736z"/>
		</g>
	</g>
</g>
</svg>
