<?xml version="1.0" encoding="utf-8"?>
<!-- Generator: Adobe Illustrator 22.1.0, SVG Export Plug-In . SVG Version: 6.00 Build 0)  -->
<svg version="1.1" id="Layer_1" xmlns="http://www.w3.org/2000/svg" xmlns:xlink="http://www.w3.org/1999/xlink" x="0px" y="0px"
	 viewBox="0 0 45 45" style="enable-background:new 0 0 45 45;" xml:space="preserve">
<style type="text/css">
	.st0{fill:#616870;}
	.st1{fill:#4DA8B6;}
	.st2{fill:#EBEFF2;}
</style>
<g>
	<g>
		<path class="st0" d="M20.945,28.88c-2.999,0-5.438-2.439-5.438-5.438c0-2.999,2.439-5.438,5.438-5.438s5.438,2.44,5.438,5.438
			C26.383,26.441,23.944,28.88,20.945,28.88z M20.945,18.49c-2.73,0-4.951,2.221-4.951,4.952c0,2.73,2.221,4.951,4.951,4.951
			c2.73,0,4.952-2.221,4.952-4.951C25.897,20.711,23.675,18.49,20.945,18.49z"/>
	</g>
	<g>
		<path class="st1" d="M23.727,23.442c0,1.536-1.245,2.782-2.782,2.782c-1.536,0-2.782-1.245-2.782-2.782
			c0-1.536,1.245-2.782,2.782-2.782C22.482,20.66,23.727,21.906,23.727,23.442z"/>
		<path class="st0" d="M20.945,26.467c-1.668,0-3.025-1.357-3.025-3.025c0-1.668,1.357-3.025,3.025-3.025
			c1.668,0,3.025,1.357,3.025,3.025C23.97,25.11,22.613,26.467,20.945,26.467z M20.945,20.903c-1.4,0-2.538,1.139-2.538,2.539
			c0,1.399,1.139,2.538,2.538,2.538c1.4,0,2.538-1.139,2.538-2.538C23.483,22.042,22.345,20.903,20.945,20.903z"/>
	</g>
	<g>
		<path class="st2" d="M25.363,10.625c0,1.561-1.265,2.826-2.826,2.826c-1.561,0-2.826-1.265-2.826-2.826
			c0-1.561,1.265-2.826,2.826-2.826C24.097,7.799,25.363,9.065,25.363,10.625z"/>
		<path class="st0" d="M22.537,13.695c-1.693,0-3.07-1.377-3.07-3.069c0-1.693,1.377-3.069,3.07-3.069
			c1.693,0,3.069,1.377,3.069,3.069C25.606,12.318,24.229,13.695,22.537,13.695z M22.537,8.043c-1.424,0-2.583,1.159-2.583,2.583
			s1.159,2.583,2.583,2.583c1.424,0,2.583-1.159,2.583-2.583S23.961,8.043,22.537,8.043z"/>
	</g>
	<g>
		<path class="st2" d="M39.257,16.802c0,1.561-1.265,2.826-2.826,2.826c-1.561,0-2.826-1.265-2.826-2.826
			c0-1.561,1.265-2.826,2.826-2.826C37.991,13.976,39.257,15.241,39.257,16.802z"/>
		<path class="st0" d="M36.431,19.871c-1.693,0-3.07-1.377-3.07-3.069c0-1.693,1.377-3.069,3.07-3.069
			c1.693,0,3.069,1.377,3.069,3.069C39.5,18.494,38.123,19.871,36.431,19.871z M36.431,14.219c-1.424,0-2.583,1.159-2.583,2.583
			c0,1.424,1.159,2.583,2.583,2.583c1.424,0,2.583-1.159,2.583-2.583C39.013,15.378,37.855,14.219,36.431,14.219z"/>
	</g>
	<g>
		<path class="st2" d="M35.333,34.17c0,1.561-1.265,2.826-2.826,2.826c-1.561,0-2.826-1.265-2.826-2.826
			c0-1.561,1.265-2.826,2.826-2.826C34.067,31.344,35.333,32.609,35.333,34.17z"/>
		<path class="st0" d="M32.506,37.24c-1.693,0-3.069-1.377-3.069-3.069c0-1.693,1.377-3.07,3.069-3.07
			c1.693,0,3.069,1.377,3.069,3.07C35.576,35.863,34.199,37.24,32.506,37.24z M32.506,31.587c-1.424,0-2.583,1.159-2.583,2.583
			c0,1.424,1.159,2.583,2.583,2.583c1.424,0,2.583-1.159,2.583-2.583C35.089,32.746,33.931,31.587,32.506,31.587z"/>
	</g>
	<g>
		<path class="st2" d="M10.888,32.813c0,1.561-1.265,2.826-2.826,2.826c-1.561,0-2.826-1.265-2.826-2.826
			c0-1.561,1.265-2.826,2.826-2.826C9.623,29.987,10.888,31.252,10.888,32.813z"/>
		<path class="st0" d="M8.062,35.883c-1.693,0-3.069-1.377-3.069-3.069c0-1.693,1.377-3.07,3.069-3.07s3.069,1.377,3.069,3.07
			C11.131,34.506,9.754,35.883,8.062,35.883z M8.062,30.23c-1.424,0-2.583,1.159-2.583,2.583c0,1.424,1.159,2.583,2.583,2.583
			s2.583-1.159,2.583-2.583C10.645,31.389,9.486,30.23,8.062,30.23z"/>
	</g>
	<g>
		<path class="st2" d="M13.714,19.628c0,1.561-1.265,2.826-2.826,2.826c-1.561,0-2.826-1.265-2.826-2.826
			c0-1.561,1.265-2.826,2.826-2.826C12.449,16.802,13.714,18.067,13.714,19.628z"/>
		<path class="st0" d="M10.888,22.698c-1.693,0-3.069-1.377-3.069-3.07c0-1.693,1.377-3.069,3.069-3.069
			c1.693,0,3.069,1.377,3.069,3.069C13.958,21.321,12.581,22.698,10.888,22.698z M10.888,17.045c-1.424,0-2.583,1.159-2.583,2.583
			c0,1.424,1.159,2.583,2.583,2.583c1.424,0,2.583-1.159,2.583-2.583C13.471,18.204,12.312,17.045,10.888,17.045z"/>
	</g>
	<g>
		<path class="st0" d="M21.588,18.303c-0.009,0-0.019,0-0.029-0.002c-0.134-0.016-0.229-0.137-0.213-0.27l0.551-4.608
			c0.016-0.133,0.137-0.231,0.27-0.212c0.134,0.016,0.229,0.137,0.213,0.27l-0.551,4.608C21.815,18.212,21.71,18.303,21.588,18.303z
			"/>
	</g>
	<g>
		<path class="st0" d="M25.736,21.674c-0.095,0-0.185-0.056-0.224-0.149c-0.052-0.124,0.006-0.267,0.13-0.318l8.144-3.417
			c0.124-0.051,0.267,0.007,0.318,0.13c0.052,0.124-0.006,0.267-0.13,0.318l-8.144,3.417C25.8,21.668,25.768,21.674,25.736,21.674z"
			/>
	</g>
	<g>
		<path class="st0" d="M30.423,32.508c-0.058,0-0.117-0.021-0.163-0.063l-5.752-5.204c-0.1-0.09-0.107-0.244-0.017-0.344
			c0.09-0.099,0.244-0.106,0.344-0.017l5.752,5.205c0.1,0.09,0.107,0.244,0.017,0.344C30.556,32.481,30.49,32.508,30.423,32.508z"/>
	</g>
	<g>
		<path class="st0" d="M16.012,22.056c-0.029,0-0.059-0.005-0.088-0.017l-2.562-0.996c-0.125-0.048-0.187-0.19-0.139-0.315
			c0.048-0.125,0.19-0.188,0.315-0.138l2.562,0.996c0.125,0.048,0.187,0.19,0.139,0.315C16.201,21.997,16.109,22.056,16.012,22.056z
			"/>
	</g>
	<g>
		<path class="st0" d="M10.473,31.587c-0.073,0-0.146-0.033-0.194-0.096c-0.081-0.107-0.061-0.26,0.046-0.341l6.305-4.805
			c0.107-0.082,0.26-0.061,0.341,0.046c0.081,0.107,0.061,0.26-0.046,0.341l-6.305,4.805C10.576,31.571,10.524,31.587,10.473,31.587
			z"/>
	</g>
	<g>
		<path class="st0" d="M19.714,37.622c-1.093,0-1.982-0.889-1.982-1.982c0-1.093,0.889-1.982,1.982-1.982
			c1.093,0,1.982,0.889,1.982,1.982C21.697,36.732,20.807,37.622,19.714,37.622z M19.714,34.144c-0.824,0-1.495,0.671-1.495,1.496
			c0,0.825,0.671,1.495,1.495,1.495c0.825,0,1.496-0.671,1.496-1.495C21.21,34.815,20.539,34.144,19.714,34.144z"/>
	</g>
	<g>
		<path class="st0" d="M19.874,34.144c-0.007,0-0.014,0-0.021-0.001c-0.134-0.011-0.233-0.129-0.221-0.263l0.248-2.878
			c0.011-0.134,0.126-0.233,0.263-0.221c0.134,0.011,0.233,0.129,0.221,0.263l-0.248,2.878
			C20.105,34.048,19.999,34.144,19.874,34.144z M20.247,29.811c-0.007,0-0.014,0-0.021-0.001c-0.134-0.011-0.233-0.129-0.221-0.263
			l0.083-0.97c0.011-0.134,0.127-0.232,0.263-0.222c0.134,0.011,0.233,0.129,0.221,0.263l-0.083,0.97
			C20.478,29.715,20.372,29.811,20.247,29.811z"/>
	</g>
	<g>
		<path class="st0" d="M31.016,28.36c-0.237,0-0.478-0.043-0.712-0.133c-1.019-0.395-1.528-1.545-1.135-2.564
			c0.191-0.494,0.563-0.884,1.047-1.098c0.485-0.214,1.023-0.226,1.517-0.036c1.019,0.394,1.528,1.544,1.135,2.563
			C32.564,27.877,31.812,28.36,31.016,28.36z M31.018,24.881c-0.206,0-0.411,0.043-0.605,0.129c-0.365,0.162-0.646,0.456-0.79,0.828
			c-0.297,0.769,0.087,1.637,0.856,1.934c0.768,0.298,1.637-0.087,1.934-0.856c0.297-0.769-0.087-1.636-0.856-1.934l0,0
			C31.382,24.915,31.2,24.881,31.018,24.881z"/>
	</g>
	<g>
		<path class="st0" d="M29.279,26.114c-0.022,0-0.045-0.003-0.068-0.01l-3.346-0.975c-0.129-0.038-0.203-0.173-0.165-0.302
			c0.037-0.129,0.17-0.202,0.302-0.166l3.346,0.975c0.129,0.038,0.203,0.173,0.165,0.302C29.482,26.045,29.385,26.114,29.279,26.114
			z"/>
	</g>
	<g>
		<path class="st0" d="M9.551,12.053c-0.529,0-1.027-0.206-1.402-0.581c-0.773-0.773-0.773-2.03,0-2.803
			c0.773-0.773,2.03-0.773,2.803,0c0.773,0.773,0.773,2.03,0,2.803C10.578,11.847,10.08,12.053,9.551,12.053z M9.551,8.576
			c-0.383,0-0.766,0.146-1.058,0.437c-0.583,0.583-0.583,1.532,0,2.115c0.565,0.565,1.55,0.565,2.115,0
			c0.583-0.583,0.583-1.532,0-2.115C10.317,8.722,9.933,8.576,9.551,8.576z"/>
	</g>
	<g>
		<path class="st0" d="M17.713,19.622c-0.068,0-0.136-0.029-0.185-0.085l-0.634-0.739c-0.087-0.102-0.076-0.255,0.026-0.343
			c0.102-0.087,0.256-0.076,0.343,0.026l0.634,0.739c0.087,0.102,0.076,0.255-0.026,0.343C17.826,19.603,17.77,19.622,17.713,19.622
			z M16.128,17.776c-0.068,0-0.137-0.029-0.185-0.085l-3.804-4.432c-0.087-0.102-0.076-0.255,0.026-0.343
			c0.102-0.086,0.256-0.075,0.343,0.027l3.804,4.432c0.087,0.102,0.076,0.255-0.026,0.343
			C16.241,17.756,16.185,17.776,16.128,17.776z M11.691,12.605c-0.068,0-0.137-0.029-0.185-0.085l-0.634-0.739
			c-0.087-0.102-0.076-0.255,0.026-0.343c0.102-0.087,0.256-0.075,0.343,0.027l0.634,0.739c0.087,0.102,0.076,0.255-0.026,0.343
			C11.803,12.585,11.747,12.605,11.691,12.605z"/>
	</g>
</g>
<g>
	<path class="st0" d="M1003.735,141.346v1.665c0,0.143-0.116,0.259-0.259,0.259c-0.143,0-0.259-0.116-0.259-0.259v-1.665
		c0-0.143,0.116-0.259,0.259-0.259C1003.619,141.087,1003.735,141.202,1003.735,141.346z"/>
</g>
<g>
	<path class="st0" d="M999.994,137.632v1.233c0,0.143-0.116,0.259-0.259,0.259c-0.143,0-0.259-0.116-0.259-0.259v-1.233
		c0-0.143,0.116-0.259,0.259-0.259C999.879,137.373,999.994,137.489,999.994,137.632z"/>
</g>
</svg>
