<?xml version="1.0" encoding="utf-8"?>
<!-- Generator: Adobe Illustrator 22.0.1, SVG Export Plug-In . SVG Version: 6.00 Build 0)  -->
<svg version="1.1" id="Layer_1" xmlns="http://www.w3.org/2000/svg" xmlns:xlink="http://www.w3.org/1999/xlink" x="0px" y="0px"
	 viewBox="0 0 50 30" style="enable-background:new 0 0 50 30;" xml:space="preserve">
<style type="text/css">
	.st0{fill:#C5C9CB;}
	.st1{fill:#E3E4E4;}
	.st2{fill:#EBECEC;}
	.st3{fill:#00B3E3;}
	.st4{fill:#8CD5EC;}
	.st5{fill:#52C7E8;}
</style>
<g>
	<g>
		<polygon class="st0" points="24.804,12.467 21.227,14.36 24.804,16.251 28.381,14.36 		"/>
		<polygon class="st1" points="28.381,14.36 24.804,16.251 24.804,19.221 28.381,17.329 		"/>
		<polygon class="st2" points="21.227,14.36 24.804,16.251 24.804,19.221 21.227,17.329 		"/>
	</g>
	<g>
		<polygon class="st0" points="20.267,14.797 16.69,16.69 20.267,18.582 23.844,16.69 		"/>
		<polygon class="st1" points="23.844,16.69 20.267,18.582 20.267,21.551 23.844,19.659 		"/>
		<polygon class="st2" points="16.69,16.69 20.267,18.582 20.267,21.551 16.69,19.659 		"/>
	</g>
	<g>
		<polygon class="st0" points="15.968,17.224 12.391,19.116 15.968,21.009 19.545,19.116 		"/>
		<polygon class="st1" points="19.545,19.116 15.968,21.009 15.968,23.978 19.545,22.085 		"/>
		<polygon class="st2" points="12.391,19.116 15.968,21.009 15.968,23.978 12.391,22.085 		"/>
	</g>
	<g>
		<polygon class="st0" points="29.345,14.734 25.768,16.626 29.345,18.518 32.922,16.626 		"/>
		<polygon class="st1" points="32.922,16.626 29.345,18.518 29.345,21.488 32.922,19.595 		"/>
		<polygon class="st2" points="25.768,16.626 29.345,18.518 29.345,21.488 25.768,19.595 		"/>
	</g>
	<g>
		<polygon class="st3" points="24.921,16.769 21.187,18.743 24.921,20.719 28.654,18.743 		"/>
		<polygon class="st4" points="28.654,18.743 24.921,20.719 24.921,23.818 28.654,21.842 		"/>
		<polygon class="st5" points="21.187,18.743 24.921,20.719 24.921,23.818 21.187,21.842 		"/>
	</g>
	<g>
		<polygon class="st0" points="20.386,19.751 16.81,21.642 20.386,23.535 23.964,21.642 		"/>
		<polygon class="st1" points="23.964,21.642 20.386,23.535 20.386,26.503 23.964,24.611 		"/>
		<polygon class="st2" points="16.81,21.642 20.386,23.535 20.386,26.503 16.81,24.611 		"/>
	</g>
	<g>
		<polygon class="st0" points="33.84,17.307 30.264,19.199 33.84,21.092 37.417,19.199 		"/>
		<polygon class="st1" points="37.417,19.199 33.84,21.092 33.84,24.06 37.417,22.168 		"/>
		<polygon class="st2" points="30.264,19.199 33.84,21.092 33.84,24.06 30.264,22.168 		"/>
	</g>
	<g>
		<polygon class="st0" points="29.303,19.637 25.727,21.529 29.303,23.422 32.881,21.529 		"/>
		<polygon class="st1" points="32.881,21.529 29.303,23.422 29.303,26.391 32.881,24.498 		"/>
		<polygon class="st2" points="25.727,21.529 29.303,23.422 29.303,26.391 25.727,24.498 		"/>
	</g>
	<g>
		<polygon class="st0" points="25.004,22.063 21.427,23.955 25.004,25.848 28.581,23.955 		"/>
		<polygon class="st1" points="28.581,23.955 25.004,25.848 25.004,28.817 28.581,26.924 		"/>
		<polygon class="st2" points="21.427,23.955 25.004,25.848 25.004,28.817 21.427,26.924 		"/>
	</g>
</g>
</svg>
