<?xml version="1.0" encoding="utf-8"?>
<!-- Generator: Adobe Illustrator 22.0.1, SVG Export Plug-In . SVG Version: 6.00 Build 0)  -->
<svg version="1.1" id="Layer_1" xmlns="http://www.w3.org/2000/svg" xmlns:xlink="http://www.w3.org/1999/xlink" x="0px" y="0px"
	 viewBox="0 0 45 45" style="enable-background:new 0 0 45 45;" xml:space="preserve">
<style type="text/css">
	.st0{fill:#ECEFF2;}
	.st1{fill:#626971;}
	.st2{fill:#4FA8B6;}
	.st3{fill:#FFFFFF;}
</style>
<g>
	<g>
		<g>
			<path class="st0" d="M27.304,7.819v21.021c0,2.138-5.022,3.872-11.216,3.872c-6.195,0-11.217-1.734-11.217-3.872V7.819"/>
			<path class="st1" d="M16.088,33.021c-6.463,0-11.526-1.837-11.526-4.181V7.819c0-0.171,0.138-0.309,0.309-0.309
				c0.171,0,0.309,0.138,0.309,0.309V28.84c0,1.72,4.383,3.563,10.907,3.563s10.907-1.842,10.907-3.563V7.819
				c0-0.171,0.138-0.309,0.309-0.309c0.171,0,0.309,0.138,0.309,0.309V28.84C27.614,31.184,22.551,33.021,16.088,33.021z"/>
		</g>
		<g>
			<path class="st0" d="M27.304,21.799c0,2.138-5.022,3.872-11.216,3.872c-6.195,0-11.217-1.734-11.217-3.872"/>
			<path class="st1" d="M16.088,25.981c-6.463,0-11.526-1.837-11.526-4.181c0-0.171,0.138-0.309,0.309-0.309
				c0.171,0,0.309,0.138,0.309,0.309c0,1.721,4.383,3.563,10.907,3.563s10.907-1.842,10.907-3.563c0-0.171,0.138-0.309,0.309-0.309
				c0.171,0,0.309,0.138,0.309,0.309C27.614,24.144,22.551,25.981,16.088,25.981z"/>
		</g>
		<g>
			<path class="st0" d="M27.304,14.759c0,2.139-5.022,3.872-11.216,3.872c-6.195,0-11.217-1.734-11.217-3.872"/>
			<path class="st1" d="M16.088,18.941c-6.463,0-11.526-1.837-11.526-4.181c0-0.171,0.138-0.309,0.309-0.309
				c0.171,0,0.309,0.138,0.309,0.309c0,1.721,4.383,3.563,10.907,3.563s10.907-1.842,10.907-3.563c0-0.171,0.138-0.309,0.309-0.309
				c0.171,0,0.309,0.138,0.309,0.309C27.614,17.104,22.551,18.941,16.088,18.941z"/>
		</g>
		<g>
			<path class="st0" d="M27.304,8.072c0,2.138-5.022,3.872-11.216,3.872c-6.195,0-11.217-1.734-11.217-3.872
				c0-2.139,5.022-3.872,11.217-3.872C22.282,4.2,27.304,5.934,27.304,8.072z"/>
			<path class="st1" d="M16.088,12.254c-6.463,0-11.526-1.837-11.526-4.181c0-2.345,5.063-4.181,11.526-4.181
				c6.463,0,11.526,1.837,11.526,4.181C27.614,10.417,22.551,12.254,16.088,12.254z M16.088,4.51
				c-6.524,0-10.907,1.842-10.907,3.563c0,1.72,4.383,3.563,10.907,3.563s10.907-1.842,10.907-3.563
				C26.995,6.352,22.612,4.51,16.088,4.51z"/>
		</g>
	</g>
	<g>
		<polygon class="st2" points="40.066,32.406 14.543,32.406 14.543,13.764 22.988,13.764 24.372,15.383 40.066,15.383 		"/>
		<path class="st1" d="M40.066,32.715H14.543c-0.171,0-0.309-0.138-0.309-0.309V13.764c0-0.171,0.138-0.309,0.309-0.309h8.445
			c0.09,0,0.176,0.04,0.235,0.108l1.292,1.51h15.551c0.171,0,0.309,0.138,0.309,0.309v17.023
			C40.375,32.577,40.237,32.715,40.066,32.715z M14.852,32.097h24.904V15.692H24.372c-0.09,0-0.176-0.04-0.235-0.108l-1.292-1.51
			h-7.993V32.097z"/>
	</g>
	<g>
		<path class="st1" d="M40.066,33.716H14.543c-0.171,0-0.309-0.138-0.309-0.309V18.456c0-0.171,0.138-0.309,0.309-0.309h25.523
			c0.171,0,0.309,0.138,0.309,0.309v14.951C40.375,33.578,40.237,33.716,40.066,33.716z M14.852,33.098h24.904V18.765H14.852V33.098
			z"/>
	</g>
	<g>
		<rect x="14.543" y="18.456" class="st3" width="25.523" height="14.951"/>
		<path class="st1" d="M40.066,33.716H14.543c-0.171,0-0.309-0.138-0.309-0.309V18.456c0-0.171,0.138-0.309,0.309-0.309h25.523
			c0.171,0,0.309,0.138,0.309,0.309v14.951C40.375,33.578,40.237,33.716,40.066,33.716z M14.852,33.098h24.904V18.765H14.852V33.098
			z"/>
	</g>
	<g>
		<path class="st1" d="M36.969,22.581h-6.756c-0.171,0-0.309-0.138-0.309-0.309c0-0.171,0.138-0.309,0.309-0.309h6.756
			c0.171,0,0.309,0.138,0.309,0.309C37.278,22.443,37.14,22.581,36.969,22.581z"/>
	</g>
	<g>
		<path class="st1" d="M36.969,31.48H22.19c-0.171,0-0.309-0.138-0.309-0.309c0-0.171,0.138-0.309,0.309-0.309h14.779
			c0.171,0,0.309,0.138,0.309,0.309C37.278,31.341,37.14,31.48,36.969,31.48z"/>
	</g>
	<g>
		<path class="st1" d="M20.66,31.48H17.96c-0.171,0-0.309-0.138-0.309-0.309c0-0.171,0.138-0.309,0.309-0.309h2.701
			c0.171,0,0.309,0.138,0.309,0.309C20.97,31.341,20.831,31.48,20.66,31.48z"/>
	</g>
	<g>
		<path class="st1" d="M7.363,25.222c-0.171,0-0.309-0.138-0.309-0.309V10.541c0-0.171,0.138-0.309,0.309-0.309
			s0.309,0.138,0.309,0.309v14.371C7.672,25.083,7.534,25.222,7.363,25.222z"/>
	</g>
	<g>
		<path class="st1" d="M7.363,29.921c-0.171,0-0.309-0.138-0.309-0.309v-2.829c0-0.171,0.138-0.309,0.309-0.309
			s0.309,0.138,0.309,0.309v2.829C7.672,29.783,7.534,29.921,7.363,29.921z"/>
	</g>
	<g>
		<path class="st1" d="M18.569,23.769h-0.61c-0.171,0-0.309-0.138-0.309-0.309c0-0.171,0.138-0.309,0.309-0.309h0.61
			c0.171,0,0.309,0.138,0.309,0.309C18.879,23.631,18.74,23.769,18.569,23.769z"/>
	</g>
	<g>
		<path class="st1" d="M20.66,23.769h-0.61c-0.171,0-0.309-0.138-0.309-0.309c0-0.171,0.138-0.309,0.309-0.309h0.61
			c0.171,0,0.309,0.138,0.309,0.309C20.97,23.631,20.831,23.769,20.66,23.769z"/>
	</g>
	<g>
		<path class="st1" d="M22.751,23.769h-0.61c-0.171,0-0.309-0.138-0.309-0.309c0-0.171,0.138-0.309,0.309-0.309h0.61
			c0.171,0,0.309,0.138,0.309,0.309C23.06,23.631,22.922,23.769,22.751,23.769z"/>
	</g>
	<g>
		<path class="st1" d="M36.969,24.833h-6.756c-0.171,0-0.309-0.138-0.309-0.309c0-0.171,0.138-0.309,0.309-0.309h6.756
			c0.171,0,0.309,0.138,0.309,0.309C37.278,24.695,37.14,24.833,36.969,24.833z"/>
	</g>
	<g>
		<path class="st1" d="M39.224,39.366h-9.823c-0.171,0-0.309-0.138-0.309-0.309c0-0.171,0.138-0.309,0.309-0.309h9.823
			c0.171,0,0.309,0.138,0.309,0.309C39.534,39.228,39.395,39.366,39.224,39.366z"/>
	</g>
	<g>
		<path class="st1" d="M25.513,39.366H10.244c-0.171,0-0.309-0.138-0.309-0.309c0-0.171,0.138-0.309,0.309-0.309h15.269
			c0.171,0,0.309,0.138,0.309,0.309C25.822,39.228,25.684,39.366,25.513,39.366z"/>
	</g>
	<g>
		<path class="st1" d="M27.457,41.314c-1.242,0-2.253-1.011-2.253-2.253s1.011-2.253,2.253-2.253c1.242,0,2.253,1.011,2.253,2.253
			S28.699,41.314,27.457,41.314z M27.457,37.426c-0.901,0-1.635,0.733-1.635,1.634s0.733,1.635,1.635,1.635
			c0.901,0,1.634-0.733,1.634-1.635S28.358,37.426,27.457,37.426z"/>
	</g>
	<g>
		<path class="st1" d="M27.457,37.426c-0.171,0-0.309-0.138-0.309-0.309v-3.558c0-0.171,0.138-0.309,0.309-0.309
			c0.171,0,0.309,0.138,0.309,0.309v3.558C27.766,37.288,27.628,37.426,27.457,37.426z"/>
	</g>
</g>
</svg>
