<?xml version="1.0" encoding="utf-8"?>
<!-- Generator: Adobe Illustrator 22.0.1, SVG Export Plug-In . SVG Version: 6.00 Build 0)  -->
<svg version="1.1" id="Layer_1" xmlns="http://www.w3.org/2000/svg" xmlns:xlink="http://www.w3.org/1999/xlink" x="0px" y="0px"
	 viewBox="0 0 50 30" style="enable-background:new 0 0 50 30;" xml:space="preserve">
<style type="text/css">
	.st0{fill:#C5C9CB;}
	.st1{fill:#E3E4E4;}
	.st2{fill:#EBECEC;}
	.st3{fill:#00B3E3;}
	.st4{fill:#8CD5EC;}
	.st5{fill:#52C7E8;}
</style>
<g>
	<g>
		<g>
			<polygon class="st0" points="24.757,12.467 21.18,14.359 24.757,16.251 28.333,14.359 			"/>
			<polygon class="st1" points="28.333,14.359 24.757,16.251 24.757,19.22 28.333,17.329 			"/>
			<polygon class="st2" points="21.18,14.359 24.757,16.251 24.757,19.22 21.18,17.329 			"/>
		</g>
		<g>
			<polygon class="st0" points="20.22,14.797 16.644,16.69 20.22,18.581 23.797,16.69 			"/>
			<polygon class="st1" points="23.797,16.69 20.22,18.581 20.22,21.551 23.797,19.659 			"/>
			<polygon class="st2" points="16.644,16.69 20.22,18.581 20.22,21.551 16.644,19.659 			"/>
		</g>
		<g>
			<polygon class="st0" points="15.921,17.223 12.344,19.116 15.921,21.008 19.497,19.116 			"/>
			<polygon class="st1" points="19.497,19.116 15.921,21.008 15.921,23.977 19.497,22.085 			"/>
			<polygon class="st2" points="12.344,19.116 15.921,21.008 15.921,23.977 12.344,22.085 			"/>
		</g>
		<g>
			<polygon class="st0" points="29.298,14.733 25.721,16.626 29.298,18.518 32.875,16.626 			"/>
			<polygon class="st1" points="32.875,16.626 29.298,18.518 29.298,21.487 32.875,19.595 			"/>
			<polygon class="st2" points="25.721,16.626 29.298,18.518 29.298,21.487 25.721,19.595 			"/>
		</g>
		<g>
			<polygon class="st0" points="33.792,17.306 30.216,19.199 33.792,21.091 37.37,19.199 			"/>
			<polygon class="st1" points="37.37,19.199 33.792,21.091 33.792,24.06 37.37,22.167 			"/>
			<polygon class="st2" points="30.216,19.199 33.792,21.091 33.792,24.06 30.216,22.167 			"/>
		</g>
		<g>
			<polygon class="st0" points="20.34,19.75 16.763,21.642 20.34,23.534 23.916,21.642 			"/>
			<polygon class="st1" points="23.916,21.642 20.34,23.534 20.34,26.503 23.916,24.61 			"/>
			<polygon class="st2" points="16.763,21.642 20.34,23.534 20.34,26.503 16.763,24.61 			"/>
		</g>
		<g>
			<polygon class="st0" points="29.257,19.636 25.68,21.529 29.257,23.421 32.833,21.529 			"/>
			<polygon class="st1" points="32.833,21.529 29.257,23.421 29.257,26.391 32.833,24.498 			"/>
			<polygon class="st2" points="25.68,21.529 29.257,23.421 29.257,26.391 25.68,24.498 			"/>
		</g>
		<g>
			<polygon class="st0" points="24.957,22.063 21.38,23.955 24.957,25.848 28.534,23.955 			"/>
			<polygon class="st1" points="28.534,23.955 24.957,25.848 24.957,28.816 28.534,26.923 			"/>
			<polygon class="st2" points="21.38,23.955 24.957,25.848 24.957,28.816 21.38,26.923 			"/>
		</g>
	</g>
	<g>
		<polygon class="st0" points="24.757,8.558 21.18,10.45 24.757,12.343 28.333,10.45 		"/>
		<polygon class="st1" points="28.333,10.45 24.757,12.343 24.757,15.312 28.333,13.42 		"/>
		<polygon class="st2" points="21.18,10.45 24.757,12.343 24.757,15.312 21.18,13.42 		"/>
	</g>
	<g>
		<polygon class="st0" points="20.22,10.889 16.644,12.781 20.22,14.673 23.797,12.781 		"/>
		<polygon class="st1" points="23.797,12.781 20.22,14.673 20.22,17.642 23.797,15.75 		"/>
		<polygon class="st2" points="16.644,12.781 20.22,14.673 20.22,17.642 16.644,15.75 		"/>
	</g>
	<g>
		<polygon class="st0" points="15.921,13.315 12.344,15.207 15.921,17.099 19.497,15.207 		"/>
		<polygon class="st1" points="19.497,15.207 15.921,17.099 15.921,20.069 19.497,18.177 		"/>
		<polygon class="st2" points="12.344,15.207 15.921,17.099 15.921,20.069 12.344,18.177 		"/>
	</g>
	<g>
		<polygon class="st0" points="29.298,10.825 25.721,12.717 29.298,14.609 32.875,12.717 		"/>
		<polygon class="st1" points="32.875,12.717 29.298,14.609 29.298,17.579 32.875,15.686 		"/>
		<polygon class="st2" points="25.721,12.717 29.298,14.609 29.298,17.579 25.721,15.686 		"/>
	</g>
	<g>
		<polygon class="st0" points="20.34,15.841 16.763,17.734 20.34,19.625 23.916,17.734 		"/>
		<polygon class="st1" points="23.916,17.734 20.34,19.625 20.34,22.594 23.916,20.702 		"/>
		<polygon class="st2" points="16.763,17.734 20.34,19.625 20.34,22.594 16.763,20.702 		"/>
	</g>
	<g>
		<polygon class="st0" points="33.792,13.398 30.216,15.29 33.792,17.182 37.37,15.29 		"/>
		<polygon class="st1" points="37.37,15.29 33.792,17.182 33.792,20.151 37.37,18.258 		"/>
		<polygon class="st2" points="30.216,15.29 33.792,17.182 33.792,20.151 30.216,18.258 		"/>
	</g>
	<g>
		<polygon class="st0" points="29.257,15.728 25.68,17.62 29.257,19.513 32.833,17.62 		"/>
		<polygon class="st1" points="32.833,17.62 29.257,19.513 29.257,22.482 32.833,20.589 		"/>
		<polygon class="st2" points="25.68,17.62 29.257,19.513 29.257,22.482 25.68,20.589 		"/>
	</g>
	<g>
		<polygon class="st0" points="24.957,18.155 21.38,20.047 24.957,21.939 28.534,20.047 		"/>
		<polygon class="st1" points="28.534,20.047 24.957,21.939 24.957,24.907 28.534,23.015 		"/>
		<polygon class="st2" points="21.38,20.047 24.957,21.939 24.957,24.907 21.38,23.015 		"/>
	</g>
	<g>
		<polygon class="st0" points="24.757,4.708 21.18,6.6 24.757,8.492 28.333,6.6 		"/>
		<polygon class="st1" points="28.333,6.6 24.757,8.492 24.757,11.462 28.333,9.569 		"/>
		<polygon class="st2" points="21.18,6.6 24.757,8.492 24.757,11.462 21.18,9.569 		"/>
	</g>
	<g>
		<polygon class="st0" points="20.22,7.038 16.644,8.93 20.22,10.823 23.797,8.93 		"/>
		<polygon class="st1" points="23.797,8.93 20.22,10.823 20.22,13.792 23.797,11.899 		"/>
		<polygon class="st2" points="16.644,8.93 20.22,10.823 20.22,13.792 16.644,11.899 		"/>
	</g>
	<g>
		<polygon class="st0" points="15.921,9.465 12.344,11.357 15.921,13.249 19.497,11.357 		"/>
		<polygon class="st1" points="19.497,11.357 15.921,13.249 15.921,16.218 19.497,14.326 		"/>
		<polygon class="st2" points="12.344,11.357 15.921,13.249 15.921,16.218 12.344,14.326 		"/>
	</g>
	<g>
		<polygon class="st0" points="29.298,6.975 25.721,8.866 29.298,10.759 32.875,8.866 		"/>
		<polygon class="st1" points="32.875,8.866 29.298,10.759 29.298,13.728 32.875,11.835 		"/>
		<polygon class="st2" points="25.721,8.866 29.298,10.759 29.298,13.728 25.721,11.835 		"/>
	</g>
	<g>
		<polygon class="st0" points="33.792,9.547 30.216,11.439 33.792,13.332 37.37,11.439 		"/>
		<polygon class="st1" points="37.37,11.439 33.792,13.332 33.792,16.3 37.37,14.408 		"/>
		<polygon class="st2" points="30.216,11.439 33.792,13.332 33.792,16.3 30.216,14.408 		"/>
	</g>
	<g>
		<polygon class="st3" points="24.874,12.949 21.141,14.923 24.874,16.898 28.607,14.923 		"/>
		<polygon class="st4" points="28.607,14.923 24.874,16.898 24.874,19.997 28.607,18.022 		"/>
		<polygon class="st5" points="21.141,14.923 24.874,16.898 24.874,19.997 21.141,18.022 		"/>
	</g>
	<g>
		<polygon class="st3" points="24.874,9.222 21.141,11.197 24.874,13.173 28.607,11.197 		"/>
		<polygon class="st4" points="28.607,11.197 24.874,13.173 24.874,16.271 28.607,14.296 		"/>
		<polygon class="st5" points="21.141,11.197 24.874,13.173 24.874,16.271 21.141,14.296 		"/>
	</g>
	<g>
		<polygon class="st0" points="20.34,11.991 16.763,13.883 20.34,15.775 23.916,13.883 		"/>
		<polygon class="st1" points="23.916,13.883 20.34,15.775 20.34,18.743 23.916,16.852 		"/>
		<polygon class="st2" points="16.763,13.883 20.34,15.775 20.34,18.743 16.763,16.852 		"/>
	</g>
	<g>
		<polygon class="st0" points="29.257,11.878 25.68,13.77 29.257,15.662 32.833,13.77 		"/>
		<polygon class="st1" points="32.833,13.77 29.257,15.662 29.257,18.63 32.833,16.738 		"/>
		<polygon class="st2" points="25.68,13.77 29.257,15.662 29.257,18.63 25.68,16.738 		"/>
	</g>
	<g>
		<polygon class="st0" points="24.957,14.304 21.38,16.196 24.957,18.088 28.534,16.196 		"/>
		<polygon class="st1" points="28.534,16.196 24.957,18.088 24.957,21.057 28.534,19.165 		"/>
		<polygon class="st2" points="21.38,16.196 24.957,18.088 24.957,21.057 21.38,19.165 		"/>
	</g>
</g>
</svg>
