<?xml version="1.0" encoding="utf-8"?>
<!-- Generator: Adobe Illustrator 22.1.0, SVG Export Plug-In . SVG Version: 6.00 Build 0)  -->
<svg version="1.1" id="Layer_1" xmlns="http://www.w3.org/2000/svg" xmlns:xlink="http://www.w3.org/1999/xlink" x="0px" y="0px"
	 viewBox="0 0 45 45" style="enable-background:new 0 0 45 45;" xml:space="preserve">
<style type="text/css">
	.st0{fill:#616870;}
	.st1{fill:#EBEFF2;}
	.st2{fill:#4DA8B6;}
</style>
<g>
	<path class="st0" d="M1003.735,141.346v1.665c0,0.143-0.116,0.259-0.259,0.259c-0.143,0-0.259-0.116-0.259-0.259v-1.665
		c0-0.143,0.116-0.259,0.259-0.259C1003.619,141.087,1003.735,141.202,1003.735,141.346z"/>
</g>
<g>
	<path class="st0" d="M999.994,137.632v1.233c0,0.143-0.116,0.259-0.259,0.259c-0.143,0-0.259-0.116-0.259-0.259v-1.233
		c0-0.143,0.116-0.259,0.259-0.259C999.879,137.373,999.994,137.489,999.994,137.632z"/>
</g>
<g>
	<g>
		<g>
			<path class="st0" d="M34.605,34.113c-0.134,0-0.242-0.108-0.242-0.242V17.337c0-0.164-0.133-0.298-0.298-0.298h-6.603
				c-0.134,0-0.242-0.108-0.242-0.242c0-0.134,0.108-0.242,0.242-0.242h6.603c0.431,0,0.782,0.351,0.782,0.782v16.534
				C34.847,34.005,34.739,34.113,34.605,34.113z"/>
		</g>
		<g>
			<path class="st0" d="M9.972,34.113c-0.134,0-0.242-0.108-0.242-0.242V17.337c0-0.431,0.351-0.782,0.782-0.782h7.648
				c0.134,0,0.242,0.108,0.242,0.242c0,0.134-0.108,0.242-0.242,0.242h-7.648c-0.164,0-0.298,0.133-0.298,0.298v16.534
				C10.214,34.005,10.105,34.113,9.972,34.113z"/>
		</g>
		<g>
			<g>
				<path class="st1" d="M32.749,18.208h-4.915c-0.016,0.193-0.039,0.386-0.078,0.58c-0.539,2.711-3.176,4.469-5.887,3.927
					c-2.244-0.448-3.832-2.334-4.007-4.508h-6.033c-0.265,0-0.479,0.215-0.479,0.48v13.288c0,0.265,0.214,0.48,0.48,0.48h20.921
					c0.265,0,0.48-0.215,0.48-0.48V18.688C33.228,18.423,33.014,18.208,32.749,18.208z"/>
				<path class="st0" d="M32.748,32.698h-20.92c-0.398,0-0.722-0.324-0.722-0.722V18.688c0-0.398,0.324-0.722,0.722-0.722h6.033
					c0.126,0,0.231,0.097,0.241,0.223c0.17,2.111,1.738,3.875,3.813,4.289c1.246,0.248,2.518-0.002,3.577-0.708
					c1.058-0.706,1.778-1.781,2.026-3.029c0.033-0.167,0.058-0.348,0.074-0.552c0.01-0.126,0.115-0.223,0.241-0.223h4.915
					c0.398,0,0.722,0.324,0.722,0.722v13.287C33.47,32.374,33.146,32.698,32.748,32.698z M11.828,18.451
					c-0.131,0-0.237,0.106-0.237,0.238v13.287c0,0.131,0.106,0.238,0.237,0.238h20.92c0.131,0,0.237-0.107,0.237-0.238V18.688
					c0-0.131-0.106-0.238-0.237-0.238h-4.696c-0.016,0.136-0.036,0.264-0.06,0.385c-0.273,1.374-1.066,2.559-2.232,3.337
					c-1.167,0.778-2.566,1.054-3.94,0.78c-2.214-0.442-3.903-2.276-4.178-4.503H11.828z"/>
			</g>
		</g>
		<g>
			<g>
				<path class="st0" d="M37.429,35.902H7.147c-0.512,0-0.98-0.259-1.253-0.693l-0.71-1.216C5.14,33.918,5.14,33.826,5.183,33.75
					c0.043-0.075,0.123-0.122,0.21-0.122h12.419c0.076,0,0.148,0.036,0.194,0.097c0.226,0.3,0.581,0.479,0.952,0.479h6.661
					c0.37,0,0.726-0.179,0.952-0.479c0.046-0.061,0.117-0.097,0.194-0.097h12.419c0.087,0,0.167,0.046,0.21,0.122
					c0.043,0.075,0.043,0.168-0.001,0.243l-0.706,1.209C38.41,35.643,37.942,35.902,37.429,35.902z M5.815,34.113l0.493,0.845
					c0.179,0.285,0.494,0.459,0.838,0.459h30.282c0.344,0,0.659-0.174,0.842-0.466l0.49-0.838H26.879
					c-0.317,0.362-0.78,0.575-1.26,0.575h-6.661c-0.481,0-0.943-0.213-1.26-0.575H5.815z"/>
			</g>
		</g>
	</g>
	<g>
		<g>
			<g>
				<path class="st2" d="M28.889,17.149c0.011-0.251,0.012-0.502-0.004-0.75l1.828-1.277c-0.143-0.695-0.373-1.362-0.677-1.995
					L27.82,13.21c-0.137-0.21-0.293-0.413-0.455-0.605l0.726-2.104c-0.509-0.469-1.083-0.884-1.71-1.225l-1.757,1.379
					c-0.117-0.044-0.232-0.091-0.35-0.131c-0.121-0.037-0.243-0.063-0.367-0.093l-0.648-2.138c-0.711-0.081-1.416-0.066-2.108,0.025
					l-0.607,2.139c-0.244,0.068-0.483,0.143-0.716,0.239l-1.772-1.336c-0.61,0.343-1.181,0.759-1.693,1.247l0.767,2.096
					c-0.156,0.193-0.3,0.398-0.437,0.611l-2.225-0.041c-0.143,0.319-0.276,0.642-0.385,0.984c-0.106,0.34-0.185,0.683-0.246,1.026
					l1.849,1.243c-0.011,0.251-0.011,0.501,0.004,0.75l-1.829,1.277c0.143,0.692,0.376,1.363,0.679,1.995l2.215-0.084
					c0.137,0.21,0.293,0.412,0.452,0.605l-0.723,2.103c0.512,0.471,1.083,0.885,1.713,1.226l1.755-1.38
					c0.118,0.043,0.232,0.091,0.352,0.131c0.121,0.036,0.237,0.063,0.362,0.092l0.651,2.138c0.711,0.081,1.418,0.067,2.108-0.025
					l0.605-2.139c0.246-0.068,0.488-0.143,0.718-0.239l1.772,1.337c0.611-0.346,1.183-0.759,1.695-1.247l-0.767-2.096
					c0.151-0.195,0.3-0.398,0.435-0.611l2.225,0.041c0.146-0.319,0.279-0.644,0.385-0.984c0.109-0.341,0.185-0.683,0.249-1.026
					L28.889,17.149z M25.919,17.98c-0.628,2.006-2.766,3.12-4.772,2.49c-2.006-0.63-3.122-2.768-2.492-4.774
					c0.63-2.006,2.768-3.12,4.774-2.491C25.435,13.837,26.549,15.974,25.919,17.98z"/>
				<path class="st0" d="M22.259,25.676c-0.327,0-0.651-0.018-0.971-0.054c-0.096-0.011-0.176-0.078-0.204-0.17l-0.61-2.005
					c-0.082-0.02-0.159-0.04-0.238-0.063c-0.087-0.028-0.165-0.058-0.242-0.088l-1.647,1.295c-0.076,0.061-0.181,0.069-0.265,0.023
					c-0.63-0.342-1.222-0.766-1.761-1.261c-0.07-0.065-0.096-0.166-0.065-0.257l0.679-1.975c-0.116-0.143-0.217-0.278-0.305-0.407
					l-2.08,0.079c-0.092-0.003-0.185-0.051-0.228-0.138c-0.32-0.668-0.555-1.358-0.698-2.051c-0.02-0.095,0.019-0.192,0.098-0.247
					l1.718-1.2c-0.007-0.16-0.007-0.326-0.002-0.503L13.7,15.486c-0.08-0.053-0.12-0.149-0.103-0.244
					c0.067-0.377,0.15-0.722,0.253-1.055c0.098-0.311,0.22-0.622,0.396-1.012c0.04-0.088,0.14-0.136,0.225-0.143l2.091,0.039
					c0.098-0.148,0.195-0.284,0.293-0.411l-0.721-1.969c-0.033-0.09-0.009-0.192,0.061-0.259c0.517-0.492,1.102-0.924,1.741-1.283
					c0.084-0.047,0.189-0.04,0.264,0.017l1.664,1.255c0.145-0.055,0.3-0.106,0.482-0.16l0.571-2.009
					c0.026-0.093,0.106-0.161,0.202-0.174c0.733-0.097,1.463-0.105,2.167-0.026c0.096,0.011,0.176,0.078,0.204,0.17l0.608,2.005
					c0.083,0.019,0.165,0.04,0.246,0.065c0.083,0.027,0.16,0.057,0.238,0.087l1.649-1.295c0.077-0.06,0.181-0.067,0.265-0.022
					c0.633,0.345,1.224,0.768,1.758,1.259c0.07,0.065,0.096,0.167,0.065,0.257l-0.681,1.975c0.115,0.141,0.217,0.276,0.307,0.408
					l2.083-0.079c0.098,0,0.185,0.051,0.228,0.138c0.319,0.666,0.553,1.356,0.695,2.051c0.019,0.095-0.019,0.192-0.099,0.247
					l-1.718,1.2c0.007,0.161,0.007,0.327,0.002,0.503l1.74,1.168c0.08,0.054,0.121,0.15,0.103,0.245
					c-0.075,0.406-0.157,0.741-0.256,1.055c-0.097,0.313-0.223,0.634-0.395,1.011c-0.04,0.088-0.136,0.138-0.225,0.141l-2.091-0.038
					c-0.084,0.126-0.178,0.258-0.292,0.409l0.721,1.971c0.033,0.09,0.009,0.192-0.061,0.259c-0.507,0.483-1.093,0.915-1.743,1.282
					c-0.083,0.047-0.187,0.041-0.265-0.018l-1.664-1.255c-0.143,0.054-0.299,0.106-0.485,0.159l-0.568,2.009
					c-0.026,0.093-0.106,0.162-0.201,0.175C23.055,25.65,22.655,25.676,22.259,25.676z M21.501,25.157
					c0.568,0.053,1.15,0.046,1.733-0.021l0.561-1.985c0.023-0.082,0.087-0.145,0.169-0.168c0.287-0.079,0.5-0.149,0.689-0.229
					c0.079-0.032,0.17-0.022,0.239,0.03l1.645,1.24c0.512-0.301,0.98-0.645,1.395-1.024l-0.712-1.945
					c-0.028-0.078-0.015-0.166,0.036-0.231c0.18-0.233,0.31-0.415,0.421-0.592c0.045-0.072,0.113-0.116,0.21-0.114l2.066,0.038
					c0.131-0.297,0.23-0.557,0.308-0.811c0.081-0.255,0.149-0.525,0.212-0.842l-1.718-1.153c-0.071-0.047-0.111-0.127-0.107-0.212
					c0.011-0.262,0.01-0.498-0.004-0.724c-0.005-0.084,0.034-0.165,0.103-0.214l1.696-1.185c-0.125-0.555-0.312-1.105-0.557-1.641
					l-2.057,0.078c-0.083,0-0.166-0.039-0.212-0.11c-0.12-0.184-0.263-0.374-0.438-0.581c-0.055-0.065-0.071-0.155-0.044-0.235
					l0.674-1.952c-0.434-0.384-0.906-0.722-1.406-1.007l-1.631,1.28c-0.066,0.053-0.157,0.066-0.235,0.036l-0.103-0.04
					c-0.079-0.03-0.157-0.061-0.237-0.087c-0.088-0.027-0.183-0.049-0.278-0.071l-0.069-0.016c-0.084-0.02-0.151-0.083-0.176-0.165
					l-0.601-1.984c-0.567-0.052-1.148-0.045-1.734,0.022l-0.563,1.984c-0.023,0.081-0.087,0.144-0.168,0.167
					c-0.281,0.079-0.493,0.15-0.689,0.23c-0.078,0.032-0.169,0.021-0.238-0.031l-1.644-1.24c-0.504,0.296-0.971,0.64-1.392,1.025
					l0.712,1.945c0.029,0.08,0.014,0.169-0.039,0.236c-0.141,0.174-0.279,0.367-0.422,0.59c-0.046,0.071-0.129,0.109-0.208,0.111
					l-2.064-0.038c-0.133,0.306-0.231,0.561-0.311,0.813c-0.082,0.266-0.151,0.543-0.21,0.841l1.717,1.153
					c0.07,0.047,0.11,0.127,0.107,0.211c-0.012,0.263-0.01,0.5,0.004,0.725c0.005,0.084-0.034,0.165-0.103,0.214l-1.696,1.185
					c0.125,0.553,0.313,1.103,0.56,1.641l2.055-0.078c0.083,0.004,0.166,0.039,0.212,0.11c0.115,0.178,0.257,0.369,0.435,0.582
					c0.054,0.065,0.07,0.153,0.043,0.233l-0.671,1.952c0.437,0.387,0.91,0.726,1.408,1.009l1.628-1.28
					c0.065-0.052,0.154-0.066,0.233-0.037l0.132,0.05c0.07,0.027,0.14,0.054,0.211,0.078c0.106,0.031,0.216,0.057,0.332,0.084
					c0.084,0.02,0.162,0.086,0.187,0.168L21.501,25.157z M22.293,20.89c-0.408,0-0.818-0.062-1.219-0.188
					c-2.131-0.669-3.32-2.948-2.65-5.078c0.669-2.129,2.946-3.317,5.078-2.65c2.129,0.671,3.317,2.949,2.648,5.079
					c-0.323,1.032-1.029,1.876-1.988,2.376C23.575,20.735,22.936,20.89,22.293,20.89z M22.291,13.272
					c-1.517,0-2.927,0.976-3.405,2.497c-0.589,1.875,0.458,3.881,2.334,4.471c0.909,0.286,1.874,0.199,2.718-0.24
					c0.844-0.44,1.466-1.183,1.75-2.092h0c0.589-1.875-0.457-3.881-2.331-4.472C23.003,13.325,22.644,13.272,22.291,13.272z"/>
			</g>
		</g>
		<g>
			<path class="st0" d="M22.287,18.138c-0.134,0-0.242-0.108-0.242-0.242v-2.114c0-0.134,0.108-0.242,0.242-0.242
				c0.134,0,0.242,0.108,0.242,0.242v2.114C22.529,18.029,22.421,18.138,22.287,18.138z"/>
		</g>
		<g>
			<path class="st0" d="M23.344,17.081H21.23c-0.134,0-0.242-0.108-0.242-0.242c0-0.134,0.108-0.242,0.242-0.242h2.114
				c0.134,0,0.242,0.108,0.242,0.242C23.586,16.972,23.478,17.081,23.344,17.081z"/>
		</g>
		<g>
			<path class="st0" d="M22.3,22.088c-0.345,0-0.693-0.034-1.039-0.103c-1.375-0.274-2.56-1.068-3.339-2.234
				c-0.778-1.166-1.055-2.566-0.781-3.94c0.566-2.837,3.338-4.684,6.174-4.119c2.837,0.567,4.684,3.338,4.118,6.176l0,0
				c-0.273,1.374-1.066,2.559-2.232,3.337C24.329,21.786,23.325,22.088,22.3,22.088z M22.288,12.074
				c-2.225,0-4.22,1.569-4.672,3.831c-0.249,1.248,0.003,2.518,0.709,3.577c0.707,1.059,1.783,1.779,3.031,2.028
				c1.247,0.248,2.518-0.002,3.577-0.708c1.058-0.706,1.778-1.781,2.026-3.029l0,0c0.514-2.577-1.163-5.091-3.737-5.606
				C22.908,12.104,22.595,12.074,22.288,12.074z"/>
		</g>
	</g>
</g>
</svg>
