<?xml version="1.0" encoding="utf-8"?>
<!-- Generator: Adobe Illustrator 22.0.1, SVG Export Plug-In . SVG Version: 6.00 Build 0)  -->
<svg version="1.1" id="Layer_1" xmlns="http://www.w3.org/2000/svg" xmlns:xlink="http://www.w3.org/1999/xlink" x="0px" y="0px"
	 viewBox="0 0 45 45" style="enable-background:new 0 0 45 45;" xml:space="preserve">
<style type="text/css">
	.st0{fill:#616870;}
	.st1{fill:#FFFFFF;}
	.st2{fill:#4DA8B6;}
	.st3{fill:#EBEFF2;}
</style>
<g>
	<g>
		<g>
			<g>
				<path class="st0" d="M33.984,31.676c-0.059,0-0.12-0.018-0.17-0.058c-0.119-0.093-0.141-0.266-0.048-0.385
					c1.991-2.561,3.03-5.633,3.005-8.883c-0.001-0.152,0.121-0.275,0.272-0.276c0.152-0.001,0.275,0.121,0.276,0.272
					c0.026,3.375-1.053,6.565-3.121,9.224C34.146,31.639,34.065,31.676,33.984,31.676z"/>
			</g>
		</g>
		<g>
			<g>
				<path class="st0" d="M33.128,12.784c-0.074,0.001-0.148-0.029-0.203-0.087c-0.244-0.262-0.501-0.517-0.764-0.759
					c-0.111-0.103-0.118-0.276-0.015-0.388c0.103-0.112,0.276-0.118,0.388-0.016c0.273,0.252,0.539,0.517,0.793,0.788
					c0.103,0.111,0.097,0.284-0.013,0.388C33.261,12.76,33.195,12.784,33.128,12.784z M31.079,10.964
					c-0.057,0-0.115-0.017-0.164-0.053c-0.268-0.197-0.544-0.384-0.826-0.563c-1.553-0.98-3.255-1.643-5.057-1.971
					c-0.149-0.027-0.248-0.17-0.221-0.319c0.027-0.149,0.17-0.249,0.319-0.221c1.872,0.34,3.64,1.028,5.253,2.046
					c0.293,0.185,0.579,0.38,0.858,0.584c0.122,0.09,0.149,0.261,0.059,0.384C31.246,10.925,31.163,10.964,31.079,10.964z
					 M23.997,8.227c-0.01,0-0.02,0-0.031-0.001c-0.532-0.056-1.075-0.082-1.613-0.078c-0.152,0.001-0.275-0.121-0.276-0.272
					s0.121-0.275,0.272-0.276c0.559-0.004,1.122,0.023,1.675,0.081c0.151,0.016,0.26,0.151,0.245,0.302
					C24.252,8.121,24.134,8.226,23.997,8.227z"/>
			</g>
		</g>
		<g>
			<g>
				<path class="st0" d="M9.599,17.004c-0.038,0-0.077-0.007-0.114-0.024c-0.138-0.062-0.201-0.224-0.139-0.362
					c0.776-1.739,1.874-3.286,3.265-4.599c0.11-0.104,0.284-0.099,0.388,0.011c0.104,0.11,0.099,0.284-0.011,0.388
					c-1.338,1.262-2.394,2.75-3.14,4.423C9.802,16.943,9.703,17.003,9.599,17.004z"/>
			</g>
		</g>
		<g>
			<g>
				<path class="st0" d="M22.573,37.318c-8.193,0.062-14.91-6.553-14.972-14.747c-0.001-0.152,0.121-0.275,0.272-0.276
					c0.152-0.001,0.275,0.121,0.276,0.272c0.06,7.891,6.528,14.262,14.419,14.202c0.152-0.001,0.275,0.121,0.276,0.272
					S22.724,37.317,22.573,37.318z"/>
			</g>
		</g>
		<g>
			<g>
				<path class="st0" d="M38.683,20.689c-0.137,0.001-0.257-0.101-0.274-0.24c-0.453-3.615-2.068-6.881-4.669-9.444
					c-0.108-0.106-0.109-0.28-0.003-0.388c0.106-0.108,0.28-0.109,0.388-0.003c2.691,2.65,4.361,6.027,4.829,9.766
					c0.019,0.15-0.088,0.288-0.238,0.307C38.704,20.688,38.694,20.689,38.683,20.689z"/>
			</g>
		</g>
		<g>
			<g>
				<g>
					<g>
						<polygon class="st1" points="16.211,15.68 16.656,15.229 14.174,13.297 12.849,14.643 14.817,17.096 15.262,16.644 
							24.209,25.457 25.158,24.493 						"/>
					</g>
				</g>
				<g>
					<g>
						<path class="st0" d="M24.212,25.731c-0.07,0.001-0.141-0.026-0.195-0.079l-8.752-8.62l-0.252,0.256
							c-0.055,0.056-0.131,0.087-0.209,0.081c-0.078-0.004-0.151-0.041-0.2-0.102l-1.969-2.452
							c-0.087-0.108-0.079-0.265,0.018-0.364l1.326-1.346c0.098-0.1,0.255-0.11,0.364-0.024l2.482,1.932
							c0.062,0.048,0.1,0.12,0.105,0.198c0.005,0.078-0.023,0.155-0.078,0.211l-0.252,0.256l8.752,8.62
							c0.108,0.106,0.109,0.28,0.003,0.388l-0.949,0.963C24.352,25.703,24.282,25.731,24.212,25.731z M15.26,16.369
							c0.07-0.001,0.141,0.026,0.195,0.079l8.752,8.62l0.564-0.572l-8.752-8.62c-0.108-0.106-0.109-0.28-0.003-0.388l0.228-0.232
							l-2.046-1.593l-0.983,0.998l1.623,2.021l0.228-0.232C15.12,16.397,15.19,16.37,15.26,16.369z"/>
					</g>
				</g>
			</g>
			<g>
				<g>
					<path class="st2" d="M24.322,26.26l-2.392-2.356l1.641-1.666l2.383,2.365c0.322,0.317-0.011,1.178-0.395,1.568l0,0
						C25.198,26.537,24.644,26.577,24.322,26.26z"/>
				</g>
				<g>
					<path class="st0" d="M24.872,26.747c-0.274,0.002-0.541-0.094-0.742-0.292l-2.392-2.356c-0.108-0.106-0.109-0.28-0.003-0.388
						l1.641-1.666c0.051-0.052,0.121-0.082,0.194-0.082c0.073,0,0.143,0.028,0.195,0.08l2.383,2.365
						c0.222,0.218,0.271,0.584,0.137,1.03c-0.103,0.344-0.306,0.698-0.53,0.925C25.507,26.616,25.184,26.745,24.872,26.747z
						 M22.318,23.901l2.197,2.164c0.099,0.097,0.237,0.144,0.392,0.134c0.167-0.012,0.33-0.09,0.457-0.22
						c0.162-0.165,0.318-0.439,0.395-0.698c0.078-0.259,0.057-0.429,0.003-0.482l-2.188-2.172L22.318,23.901z"/>
				</g>
			</g>
			<g>
				<g>
					<path class="st2" d="M29.051,31.892l-6.937-6.833l2.615-2.655l6.937,6.833c0.639,0.63,0.647,1.658,0.017,2.298l-0.335,0.34
						C30.719,32.514,29.691,32.522,29.051,31.892z"/>
				</g>
				<g>
					<path class="st0" d="M30.208,32.916c-0.311,0.002-0.624-0.114-0.863-0.349l0,0l-7.424-7.313
						c-0.108-0.106-0.109-0.28-0.003-0.388l2.615-2.655c0.106-0.108,0.28-0.109,0.388-0.003l7.424,7.313
						c0.477,0.471,0.483,1.242,0.013,1.72l-1.293,1.313C30.83,32.792,30.519,32.913,30.208,32.916z M29.73,32.176
						c0.262,0.258,0.686,0.255,0.944-0.007l1.293-1.313c0.258-0.262,0.255-0.686-0.007-0.944l-7.229-7.12l-2.23,2.264L29.73,32.176z
						"/>
				</g>
			</g>
			<g>
				<g>
					<g>
						<g>
							<line class="st1" x1="30.357" y1="29.801" x2="25.342" y2="24.862"/>
						</g>
					</g>
					<g>
						<g>
							<path class="st0" d="M30.359,30.075c-0.07,0.001-0.141-0.026-0.195-0.079l-5.015-4.939c-0.108-0.106-0.109-0.28-0.003-0.388
								c0.106-0.108,0.28-0.109,0.388-0.003l5.015,4.939c0.108,0.106,0.109,0.28,0.003,0.388
								C30.499,30.047,30.429,30.075,30.359,30.075z"/>
						</g>
					</g>
				</g>
				<g>
					<g>
						<g>
							<line class="st1" x1="29.595" y1="30.574" x2="24.58" y2="25.635"/>
						</g>
					</g>
					<g>
						<g>
							<path class="st0" d="M29.597,30.849c-0.07,0.001-0.141-0.026-0.195-0.079l-5.015-4.939c-0.108-0.106-0.109-0.28-0.003-0.388
								c0.106-0.108,0.28-0.109,0.388-0.003l5.015,4.939c0.108,0.106,0.109,0.28,0.003,0.388
								C29.737,30.821,29.667,30.848,29.597,30.849z"/>
						</g>
					</g>
				</g>
			</g>
		</g>
		<g>
			<g>
				<path class="st0" d="M8.644,13.989c-0.051,0-0.102-0.013-0.149-0.043c-0.128-0.081-0.166-0.251-0.085-0.379
					c3.043-4.799,8.249-7.691,13.924-7.733c2.767-0.021,5.513,0.652,7.94,1.947c0.134,0.071,0.184,0.238,0.113,0.371
					c-0.072,0.133-0.237,0.184-0.371,0.113c-2.346-1.252-5.001-1.902-7.677-1.882C16.85,6.424,11.817,9.22,8.874,13.861
					C8.822,13.943,8.734,13.988,8.644,13.989z"/>
			</g>
		</g>
		<g>
			<g>
				<path class="st0" d="M38.813,22.609c-0.152,0.001-0.275-0.121-0.276-0.272c-0.003-0.341-0.016-0.679-0.039-1.015
					c-0.01-0.151,0.103-0.282,0.255-0.293c0.15-0.01,0.282,0.103,0.293,0.255c0.024,0.347,0.038,0.696,0.041,1.049
					C39.086,22.485,38.964,22.608,38.813,22.609z"/>
			</g>
		</g>
		<g>
			<g>
				<g>
					<path class="st3" d="M19.699,27.441l7.375-7.487c1.277,0.532,2.894,0.2,3.91-0.837c1.026-1.048,1.27-2.557,0.7-3.842
						l-2.146,2.189c-0.256,0.261-0.67,0.264-0.934,0.002l-0.936-0.922c-0.264-0.262-0.263-0.668-0.007-0.929l2.151-2.184
						c-1.302-0.601-2.805-0.365-3.853,0.706c-1.015,1.037-1.304,2.697-0.756,3.974l-7.375,7.487c-1.277-0.532-2.894-0.2-3.91,0.837
						c-1.026,1.048-1.27,2.557-0.7,3.842l2.146-2.189c0.256-0.261,0.67-0.307,0.934-0.045l0.936,0.966
						c0.264,0.262,0.249,0.668-0.007,0.929L15.09,32.12c1.302,0.601,2.805,0.365,3.853-0.706
						C19.959,30.378,20.247,28.718,19.699,27.441z"/>
				</g>
			</g>
			<g>
				<g>
					<path class="st0" d="M16.56,32.716c-0.532,0.004-1.071-0.109-1.585-0.347c-0.081-0.037-0.139-0.112-0.155-0.2
						c-0.016-0.088,0.012-0.178,0.074-0.242l2.137-2.183c0.156-0.16,0.16-0.393,0.01-0.542l-0.94-0.969
						c-0.077-0.076-0.169-0.092-0.232-0.091c-0.111,0.001-0.224,0.051-0.309,0.138l-2.146,2.189
						c-0.064,0.065-0.155,0.096-0.245,0.078c-0.089-0.016-0.165-0.075-0.202-0.159c-0.626-1.41-0.33-3.037,0.754-4.145
						c1.041-1.064,2.675-1.447,4.036-0.966l7.123-7.232c-0.508-1.378-0.158-3.039,0.881-4.101c1.099-1.124,2.734-1.423,4.164-0.763
						c0.081,0.037,0.139,0.112,0.155,0.2c0.016,0.088-0.012,0.178-0.075,0.242l-2.151,2.184c-0.152,0.155-0.15,0.388,0.005,0.542
						l0.935,0.921c0.077,0.076,0.176,0.117,0.279,0.116l0,0c0.1-0.001,0.195-0.041,0.267-0.115l2.145-2.189
						c0.064-0.065,0.154-0.094,0.245-0.078c0.089,0.016,0.165,0.075,0.202,0.158c0.626,1.41,0.33,3.038-0.754,4.146
						c-1.041,1.064-2.676,1.447-4.036,0.966l-7.123,7.232c0.508,1.378,0.158,3.039-0.881,4.101
						C18.434,32.327,17.509,32.709,16.56,32.716z M15.575,32.017c1.129,0.369,2.316,0.08,3.172-0.794
						c0.917-0.937,1.211-2.482,0.7-3.674c-0.044-0.103-0.021-0.221,0.057-0.301l7.375-7.487c0.078-0.08,0.198-0.104,0.301-0.061
						c1.191,0.496,2.675,0.177,3.608-0.776c0.828-0.846,1.118-2.045,0.789-3.149l-1.842,1.88c-0.175,0.178-0.407,0.278-0.655,0.279
						l0,0c-0.25,0.002-0.488-0.096-0.668-0.275l-0.935-0.921c-0.37-0.367-0.374-0.945-0.011-1.316l1.861-1.889
						c-1.131-0.368-2.315-0.079-3.171,0.795c-0.917,0.937-1.212,2.482-0.7,3.674c0.044,0.103,0.022,0.221-0.057,0.301l-7.375,7.487
						c-0.078,0.08-0.198,0.103-0.301,0.061c-1.192-0.497-2.675-0.177-3.608,0.776c-0.828,0.846-1.118,2.045-0.789,3.149l1.843-1.88
						c0.359-0.367,0.974-0.394,1.323-0.048l0.94,0.969c0.362,0.358,0.36,0.936-0.008,1.312L15.575,32.017z"/>
				</g>
			</g>
		</g>
	</g>
	<g>
		<path class="st0" d="M6.466,19.332c-0.02,0-0.039-0.002-0.059-0.006c-0.148-0.031-0.243-0.177-0.212-0.325
			c0.123-0.581,0.28-1.164,0.466-1.732c0.047-0.143,0.201-0.222,0.346-0.175c0.144,0.047,0.222,0.202,0.175,0.346
			c-0.18,0.549-0.332,1.112-0.45,1.674C6.705,19.243,6.592,19.331,6.466,19.332z"/>
	</g>
	<g>
		<path class="st0" d="M7.835,30.046c-0.101,0.001-0.199-0.055-0.248-0.151c-1.143-2.282-1.732-4.741-1.751-7.311
			c-0.005-0.702,0.034-1.408,0.115-2.101c0.018-0.15,0.152-0.257,0.305-0.24c0.15,0.018,0.258,0.154,0.24,0.305
			c-0.079,0.67-0.117,1.353-0.112,2.032c0.019,2.485,0.589,4.863,1.693,7.069c0.068,0.136,0.013,0.301-0.122,0.368
			C7.917,30.037,7.875,30.046,7.835,30.046z"/>
	</g>
	<g>
		<path class="st0" d="M12.786,35.914c-0.057,0-0.115-0.017-0.164-0.053c-0.737-0.542-1.436-1.15-2.075-1.807
			c-0.106-0.109-0.103-0.282,0.005-0.388c0.109-0.106,0.282-0.104,0.388,0.005c0.619,0.635,1.294,1.224,2.007,1.748
			c0.122,0.09,0.148,0.262,0.058,0.384C12.952,35.874,12.869,35.913,12.786,35.914z"/>
	</g>
	<g>
		<path class="st0" d="M22.586,39.083c-3.122,0.024-6.172-0.824-8.819-2.451c-0.129-0.079-0.169-0.248-0.09-0.377
			c0.079-0.129,0.248-0.169,0.377-0.09c2.559,1.573,5.508,2.392,8.527,2.37c0.269-0.002,0.536-0.011,0.801-0.026
			c0.144-0.01,0.281,0.107,0.29,0.258s-0.107,0.281-0.258,0.29C23.14,39.072,22.864,39.081,22.586,39.083z"/>
	</g>
	<g>
		<path class="st0" d="M24.362,38.974c-0.138,0.001-0.258-0.102-0.274-0.243c-0.017-0.15,0.09-0.287,0.241-0.304
			c0.356-0.041,0.715-0.095,1.067-0.16c0.149-0.028,0.292,0.071,0.32,0.22c0.028,0.149-0.071,0.292-0.22,0.32
			c-0.364,0.067-0.736,0.123-1.104,0.166C24.382,38.973,24.372,38.974,24.362,38.974z"/>
	</g>
	<g>
		<path class="st0" d="M27.166,38.396c-0.119,0.001-0.229-0.076-0.265-0.196c-0.043-0.145,0.039-0.298,0.184-0.342
			c0.347-0.104,0.695-0.221,1.034-0.349c0.143-0.054,0.3,0.019,0.353,0.16c0.053,0.142-0.018,0.3-0.16,0.353
			c-0.351,0.132-0.711,0.253-1.069,0.361C27.217,38.393,27.191,38.396,27.166,38.396z"/>
	</g>
	<g>
		<path class="st0" d="M29.224,37.624c-0.105,0.001-0.206-0.059-0.252-0.161c-0.063-0.138-0.002-0.301,0.136-0.363
			c2.889-1.314,5.307-3.435,6.994-6.132c0.08-0.128,0.25-0.167,0.378-0.087c0.129,0.08,0.168,0.25,0.087,0.378
			c-1.744,2.79-4.245,4.983-7.232,6.341C29.299,37.616,29.261,37.624,29.224,37.624z"/>
	</g>
	<g>
		<path class="st0" d="M36.772,30.648c-0.046,0-0.092-0.011-0.135-0.034c-0.133-0.073-0.181-0.241-0.107-0.373
			c0.288-0.519,0.55-1.061,0.779-1.611c0.058-0.14,0.219-0.206,0.359-0.148c0.14,0.058,0.206,0.219,0.148,0.359
			c-0.237,0.569-0.508,1.129-0.806,1.666C36.961,30.596,36.868,30.647,36.772,30.648z"/>
	</g>
</g>
</svg>
