<?xml version="1.0" encoding="utf-8"?>
<!-- Generator: Adobe Illustrator 22.0.1, SVG Export Plug-In . SVG Version: 6.00 Build 0)  -->
<svg version="1.1" id="Layer_1" xmlns="http://www.w3.org/2000/svg" xmlns:xlink="http://www.w3.org/1999/xlink" x="0px" y="0px"
	 viewBox="0 0 50 24" style="enable-background:new 0 0 50 24;" xml:space="preserve">
<style type="text/css">
	.st0{fill:#295C64;}
</style>
<g>
	<polygon class="st0" points="1.699,7.464 3.966,11.446 5.5,11.446 5.5,5.047 3.962,5.047 3.962,9.029 1.699,5.047 0.156,5.047 
		0.156,11.446 1.699,11.446 	"/>
	<polygon class="st0" points="17.865,9.059 17.131,5.047 15.723,5.047 15.598,5.047 10.442,5.047 10.375,5.047 6.025,5.047 
		6.025,11.446 10.433,11.446 10.433,10.259 7.568,10.259 7.568,8.73 9.994,8.73 9.994,7.587 7.568,7.587 7.568,6.238 10.375,6.238 
		10.442,6.238 12.26,6.238 12.26,11.446 13.802,11.446 13.802,6.238 15.723,6.238 15.723,5.634 16.96,11.446 18.555,11.446 
		19.395,7.798 20.252,11.446 21.85,11.446 23.208,5.047 21.678,5.047 20.946,9.059 20.054,5.047 18.744,5.047 	"/>
	<path class="st0" d="M23.18,8.479c0.012,0.604,0.136,1.138,0.372,1.604c0.235,0.466,0.564,0.824,0.986,1.074
		c0.422,0.251,0.905,0.376,1.45,0.376s1.03-0.13,1.457-0.389c0.426-0.26,0.755-0.629,0.986-1.11s0.348-1.033,0.348-1.657V8.084
		c-0.004-0.615-0.123-1.161-0.358-1.637c-0.236-0.476-0.566-0.843-0.991-1.101s-0.908-0.387-1.45-0.387
		c-0.548,0-1.036,0.13-1.466,0.391c-0.429,0.261-0.759,0.63-0.988,1.11c-0.23,0.479-0.346,1.032-0.346,1.659
		C23.18,8.119,23.18,8.479,23.18,8.479z M24.754,7.908c0.043-1.16,0.452-1.74,1.226-1.74c0.396,0,0.699,0.165,0.912,0.495
		c0.212,0.329,0.318,0.812,0.318,1.448v0.294c-0.003,0.621-0.11,1.097-0.321,1.428s-0.511,0.497-0.9,0.497
		c-0.41,0-0.72-0.168-0.928-0.505s-0.312-0.819-0.312-1.446L24.754,7.908z"/>
	<path class="st0" d="M33.794,8.085c0.181-0.292,0.271-0.661,0.271-1.106c0-0.615-0.214-1.09-0.642-1.427s-1.021-0.505-1.779-0.505
		h-2.519v6.398h1.542V9.182h0.836l1.129,2.263h1.652V11.38l-1.336-2.583C33.332,8.615,33.614,8.378,33.794,8.085z M32.304,7.764
		c-0.148,0.154-0.369,0.231-0.661,0.231h-0.977V6.234h0.977c0.289,0,0.51,0.079,0.658,0.236c0.15,0.157,0.225,0.374,0.225,0.65
		C32.526,7.395,32.452,7.611,32.304,7.764z"/>
	<polygon class="st0" points="39.912,5.047 38.003,5.047 36.625,7.056 36.087,7.868 36.087,5.047 34.545,5.047 34.545,11.446 
		36.087,11.446 36.087,9.758 36.72,9.064 38.084,11.446 39.912,11.446 37.75,7.877 	"/>
	<rect x="0.445" y="12.321" class="st0" width="0.24" height="2.844"/>
	<polygon class="st0" points="1.599,12.321 1.357,12.321 1.357,15.164 1.599,15.164 1.599,12.731 3.233,15.164 3.474,15.164 
		3.474,12.321 3.235,12.321 3.235,14.756 	"/>
	<polygon class="st0" points="5.858,12.524 5.858,12.321 4.096,12.321 4.096,15.164 4.336,15.164 4.336,13.834 5.663,13.834 
		5.663,13.631 4.336,13.631 4.336,12.524 	"/>
	<path class="st0" d="M8.131,13.158c0-0.264-0.085-0.47-0.256-0.616c-0.17-0.147-0.408-0.221-0.711-0.221H6.24v2.844h0.242v-1.186
		h0.826l0.688,1.186h0.256V15.14l-0.711-1.211c0.18-0.053,0.323-0.149,0.43-0.288C8.078,13.5,8.131,13.34,8.131,13.158z
		 M7.706,13.604c-0.123,0.114-0.285,0.172-0.486,0.172H6.484v-1.252h0.678c0.23,0,0.41,0.056,0.537,0.167s0.191,0.267,0.191,0.467
		C7.889,13.34,7.828,13.489,7.706,13.604z"/>
	<path class="st0" d="M9.461,12.321l-1.076,2.844h0.252l0.293-0.799h1.291l0.295,0.799h0.25L9.69,12.321H9.461z M9.004,14.162
		l0.57-1.549l0.57,1.549H9.004z"/>
	<path class="st0" d="M11.959,15.203c0.293,0,0.529-0.067,0.708-0.203s0.269-0.315,0.269-0.539c0-0.142-0.033-0.265-0.1-0.369
		c-0.066-0.104-0.166-0.193-0.297-0.269c-0.131-0.074-0.325-0.146-0.58-0.217c-0.255-0.069-0.441-0.15-0.557-0.241
		c-0.116-0.092-0.174-0.21-0.174-0.354c0-0.157,0.064-0.283,0.193-0.381c0.129-0.097,0.302-0.146,0.52-0.146
		c0.224,0,0.402,0.059,0.535,0.177s0.199,0.275,0.199,0.469h0.242c0-0.16-0.041-0.305-0.123-0.436s-0.198-0.232-0.347-0.305
		s-0.318-0.109-0.507-0.109c-0.279,0-0.507,0.068-0.687,0.204s-0.269,0.313-0.269,0.53c0,0.225,0.096,0.405,0.289,0.543
		c0.135,0.098,0.35,0.188,0.645,0.271c0.294,0.083,0.497,0.17,0.607,0.262s0.166,0.217,0.166,0.374c0,0.161-0.067,0.291-0.201,0.389
		S12.18,15,11.959,15c-0.249,0-0.448-0.058-0.598-0.174s-0.225-0.274-0.225-0.475h-0.24c0,0.167,0.043,0.314,0.13,0.443
		s0.213,0.229,0.381,0.301S11.758,15.203,11.959,15.203z"/>
	<polygon class="st0" points="14.308,15.164 14.308,12.524 15.282,12.524 15.282,12.321 13.095,12.321 13.095,12.524 14.067,12.524 
		14.067,15.164 	"/>
	<path class="st0" d="M15.878,13.979h0.826l0.688,1.186h0.256V15.14l-0.711-1.211c0.18-0.053,0.323-0.149,0.43-0.288
		c0.107-0.14,0.16-0.3,0.16-0.482c0-0.264-0.085-0.47-0.256-0.616c-0.17-0.147-0.407-0.221-0.711-0.221h-0.923v2.844h0.242
		L15.878,13.979L15.878,13.979z M15.878,12.524h0.677c0.23,0,0.41,0.056,0.537,0.167c0.128,0.111,0.191,0.267,0.191,0.467
		c0,0.183-0.061,0.331-0.184,0.446c-0.122,0.114-0.284,0.172-0.486,0.172h-0.736L15.878,12.524L15.878,12.524z"/>
	<path class="st0" d="M18.037,12.321v1.959c0.007,0.289,0.101,0.516,0.28,0.679c0.181,0.163,0.421,0.245,0.72,0.245
		c0.197,0,0.371-0.038,0.522-0.114c0.152-0.076,0.27-0.186,0.353-0.327c0.084-0.142,0.126-0.309,0.127-0.5v-1.941h-0.242v1.926
		c0,0.237-0.067,0.422-0.204,0.555C19.457,14.934,19.272,15,19.037,15s-0.42-0.066-0.557-0.198s-0.205-0.318-0.205-0.558V12.32
		L18.037,12.321L18.037,12.321z"/>
	<path class="st0" d="M21.575,15.203c0.303,0,0.545-0.079,0.727-0.238s0.289-0.388,0.32-0.688H22.38
		c-0.029,0.241-0.107,0.422-0.236,0.542C22.017,14.94,21.827,15,21.575,15c-0.254,0-0.455-0.098-0.604-0.293
		c-0.149-0.195-0.224-0.458-0.224-0.786v-0.348c0-0.34,0.076-0.606,0.229-0.8c0.152-0.192,0.357-0.289,0.615-0.289
		c0.465,0,0.729,0.242,0.787,0.725h0.242c-0.027-0.291-0.131-0.518-0.307-0.682c-0.178-0.164-0.418-0.246-0.723-0.246
		c-0.215,0-0.406,0.053-0.572,0.159s-0.294,0.257-0.382,0.452c-0.089,0.195-0.133,0.42-0.133,0.672v0.369
		c0.001,0.249,0.046,0.47,0.135,0.663c0.088,0.193,0.214,0.343,0.376,0.448S21.364,15.203,21.575,15.203z"/>
	<polygon class="st0" points="24.005,15.164 24.005,12.524 24.98,12.524 24.98,12.321 22.792,12.321 22.792,12.524 23.765,12.524 
		23.765,15.164 	"/>
	<path class="st0" d="M27.171,14.762c0.083-0.142,0.126-0.309,0.127-0.5v-1.941h-0.242v1.926c0,0.237-0.068,0.422-0.204,0.555
		S26.53,15,26.296,15s-0.42-0.066-0.557-0.198s-0.205-0.318-0.205-0.558V12.32h-0.238v1.959c0.007,0.289,0.1,0.516,0.28,0.679
		s0.42,0.245,0.72,0.245c0.196,0,0.371-0.038,0.522-0.114S27.088,14.904,27.171,14.762z"/>
	<path class="st0" d="M29.752,13.158c0-0.264-0.085-0.47-0.256-0.616c-0.171-0.147-0.407-0.221-0.711-0.221h-0.924v2.844h0.242
		v-1.186h0.826l0.688,1.186h0.256V15.14l-0.711-1.211c0.18-0.053,0.323-0.149,0.43-0.288C29.698,13.5,29.752,13.34,29.752,13.158z
		 M29.326,13.604c-0.122,0.114-0.284,0.172-0.486,0.172h-0.736v-1.252h0.678c0.23,0,0.409,0.056,0.537,0.167
		s0.191,0.267,0.191,0.467C29.51,13.34,29.448,13.489,29.326,13.604z"/>
	<polygon class="st0" points="32.066,12.524 32.066,12.321 30.307,12.321 30.307,15.164 32.076,15.164 32.076,14.961 30.547,14.961 
		30.547,13.801 31.877,13.801 31.877,13.598 30.547,13.598 30.547,12.524 	"/>
	<path class="st0" d="M2.853,17.06c0.272,0,0.488,0.071,0.648,0.215c0.159,0.144,0.239,0.346,0.239,0.606h1.538
		c0-0.39-0.101-0.736-0.303-1.039c-0.202-0.304-0.486-0.537-0.85-0.701c-0.365-0.164-0.777-0.246-1.237-0.246
		c-0.472,0-0.896,0.076-1.274,0.227s-0.67,0.362-0.877,0.633c-0.206,0.271-0.31,0.584-0.31,0.938c0,0.712,0.415,1.271,1.244,1.679
		c0.255,0.126,0.583,0.256,0.984,0.391s0.682,0.266,0.841,0.392s0.24,0.302,0.24,0.527c0,0.199-0.074,0.354-0.222,0.463
		c-0.148,0.11-0.349,0.165-0.604,0.165c-0.398,0-0.687-0.081-0.864-0.244c-0.177-0.162-0.266-0.415-0.266-0.758H0.234
		c0,0.422,0.106,0.795,0.318,1.118c0.212,0.324,0.529,0.579,0.949,0.765c0.42,0.187,0.89,0.279,1.409,0.279
		c0.735,0,1.314-0.159,1.736-0.479s0.633-0.759,0.633-1.318c0-0.7-0.346-1.25-1.037-1.648c-0.284-0.164-0.647-0.316-1.09-0.459
		c-0.442-0.142-0.751-0.279-0.927-0.413c-0.176-0.133-0.264-0.282-0.264-0.446c0-0.188,0.08-0.342,0.24-0.464
		C2.36,17.121,2.578,17.06,2.853,17.06z"/>
	<path class="st0" d="M9.689,16.282c-0.425-0.258-0.908-0.387-1.45-0.387c-0.548,0-1.037,0.131-1.466,0.392s-0.759,0.63-0.988,1.109
		c-0.23,0.479-0.345,1.032-0.345,1.659v0.36c0.012,0.604,0.135,1.138,0.372,1.604c0.235,0.466,0.564,0.824,0.986,1.074
		c0.422,0.251,0.905,0.376,1.45,0.376s1.03-0.13,1.457-0.389c0.426-0.26,0.755-0.629,0.986-1.109s0.347-1.033,0.347-1.657V19.02
		c-0.003-0.615-0.123-1.161-0.358-1.638C10.444,16.907,10.114,16.54,9.689,16.282z M9.47,19.34c-0.003,0.621-0.11,1.098-0.321,1.429
		s-0.511,0.496-0.901,0.496c-0.41,0-0.719-0.168-0.927-0.505s-0.312-0.819-0.312-1.446l0.004-0.47c0.044-1.16,0.453-1.74,1.226-1.74
		c0.396,0,0.699,0.164,0.912,0.494c0.212,0.329,0.318,0.812,0.318,1.448v0.294C9.469,19.34,9.47,19.34,9.47,19.34z"/>
	<polygon class="st0" points="12.927,15.983 11.384,15.983 11.384,22.382 15.612,22.382 15.612,21.195 12.927,21.195 	"/>
	<path class="st0" d="M19.182,20.163c0,0.396-0.082,0.681-0.246,0.856s-0.406,0.264-0.725,0.264c-0.633,0-0.958-0.35-0.976-1.05
		v-4.25h-1.551v4.219c0.009,0.703,0.237,1.257,0.686,1.661s1.062,0.606,1.841,0.606c0.516,0,0.962-0.091,1.34-0.272
		s0.668-0.446,0.87-0.793c0.202-0.348,0.303-0.758,0.303-1.232v-4.188h-1.542V20.163z"/>
	<polygon class="st0" points="20.912,17.174 22.797,17.174 22.797,22.382 24.34,22.382 24.34,17.174 26.26,17.174 26.26,15.983 
		20.912,15.983 	"/>
	<rect x="26.566" y="15.983" class="st0" width="1.538" height="6.398"/>
	<path class="st0" d="M32.796,16.282c-0.425-0.258-0.908-0.387-1.45-0.387c-0.548,0-1.036,0.131-1.466,0.392
		c-0.429,0.261-0.759,0.63-0.988,1.109c-0.23,0.479-0.346,1.032-0.346,1.659v0.36c0.012,0.604,0.136,1.138,0.372,1.604
		c0.235,0.466,0.564,0.824,0.986,1.074c0.422,0.251,0.905,0.376,1.45,0.376s1.03-0.13,1.457-0.389
		c0.426-0.26,0.755-0.629,0.986-1.109s0.348-1.033,0.348-1.657V19.02c-0.004-0.615-0.123-1.161-0.358-1.638
		C33.551,16.907,33.221,16.54,32.796,16.282z M32.576,19.34c-0.003,0.621-0.11,1.098-0.321,1.429s-0.511,0.496-0.9,0.496
		c-0.41,0-0.72-0.168-0.928-0.505s-0.312-0.819-0.312-1.446l0.005-0.47c0.043-1.16,0.452-1.74,1.226-1.74
		c0.396,0,0.699,0.164,0.912,0.494c0.212,0.329,0.318,0.812,0.318,1.448V19.34z"/>
	<polygon class="st0" points="38.296,19.965 36.032,15.983 34.49,15.983 34.49,22.382 36.032,22.382 36.032,18.4 38.3,22.382 
		39.834,22.382 39.834,15.983 38.296,15.983 	"/>
	<path class="st0" d="M0.683,4.294C0.845,4.4,1.032,4.452,1.243,4.452c0.302,0,0.544-0.079,0.726-0.238S2.258,3.826,2.29,3.526
		H2.047c-0.03,0.241-0.109,0.422-0.236,0.542S1.494,4.249,1.243,4.249c-0.254,0-0.456-0.098-0.604-0.293S0.415,3.498,0.415,3.17
		V2.823c0-0.34,0.077-0.606,0.229-0.8C0.797,1.83,1.003,1.734,1.26,1.734c0.465,0,0.727,0.242,0.787,0.725h0.242
		C2.261,2.168,2.158,1.941,1.982,1.777S1.565,1.531,1.26,1.531c-0.216,0-0.407,0.053-0.573,0.159S0.394,1.947,0.305,2.142
		S0.172,2.561,0.172,2.814v0.369c0.001,0.249,0.046,0.47,0.135,0.663S0.521,4.189,0.683,4.294z"/>
	<path class="st0" d="M3.77,4.452c0.22,0,0.414-0.054,0.582-0.16S4.649,4.033,4.74,3.835s0.136-0.428,0.136-0.689v-0.34
		c-0.005-0.254-0.052-0.477-0.144-0.67s-0.22-0.342-0.388-0.447s-0.36-0.158-0.578-0.158s-0.412,0.053-0.58,0.161
		s-0.298,0.261-0.39,0.461S2.658,2.582,2.658,2.841v0.293c0,0.403,0.102,0.725,0.307,0.962S3.438,4.452,3.77,4.452z M2.899,2.849
		c0-0.349,0.079-0.621,0.235-0.815C3.29,1.84,3.502,1.742,3.766,1.742c0.27,0,0.482,0.097,0.637,0.291s0.232,0.462,0.232,0.805
		v0.301c0,0.348-0.076,0.619-0.229,0.813S4.042,4.243,3.77,4.243c-0.268,0-0.48-0.099-0.637-0.296S2.899,3.483,2.899,3.146V2.849z"
		/>
	<polygon class="st0" points="5.621,3.167 5.601,1.915 6.656,4.413 6.841,4.413 7.9,1.906 7.88,3.175 7.88,4.413 8.121,4.413 
		8.121,1.57 7.8,1.57 6.748,4.079 5.699,1.57 5.38,1.57 5.38,4.413 5.621,4.413 	"/>
	<path class="st0" d="M8.982,3.255h0.723c0.312,0,0.551-0.073,0.716-0.218c0.164-0.145,0.247-0.351,0.247-0.618
		c0-0.264-0.086-0.472-0.257-0.623c-0.172-0.151-0.405-0.227-0.701-0.227H8.741v2.844h0.24V3.255H8.982z M8.982,1.773h0.744
		c0.224,0.002,0.397,0.062,0.519,0.179c0.121,0.117,0.183,0.273,0.183,0.47c0,0.198-0.062,0.353-0.184,0.464
		c-0.123,0.11-0.301,0.166-0.534,0.166H8.981V1.773H8.982z"/>
	<polygon class="st0" points="12.751,4.21 11.347,4.21 11.347,1.57 11.105,1.57 11.105,4.413 12.751,4.413 	"/>
	<polygon class="st0" points="14.882,4.21 13.353,4.21 13.353,3.05 14.683,3.05 14.683,2.847 13.353,2.847 13.353,1.773 
		14.872,1.773 14.872,1.57 13.112,1.57 13.112,4.413 14.882,4.413 	"/>
	<polygon class="st0" points="16.041,4.413 16.281,4.413 16.281,1.773 17.256,1.773 17.256,1.57 15.068,1.57 15.068,1.773 
		16.041,1.773 	"/>
	<polygon class="st0" points="19.385,4.21 17.856,4.21 17.856,3.05 19.186,3.05 19.186,2.847 17.856,2.847 17.856,1.773 
		19.375,1.773 19.375,1.57 17.615,1.57 17.615,4.413 19.385,4.413 	"/>
</g>
</svg>
