<?xml version="1.0" encoding="utf-8"?>
<!-- Generator: Adobe Illustrator 22.1.0, SVG Export Plug-In . SVG Version: 6.00 Build 0)  -->
<svg version="1.1" id="Layer_1" xmlns="http://www.w3.org/2000/svg" xmlns:xlink="http://www.w3.org/1999/xlink" x="0px" y="0px"
	 viewBox="0 0 45 45" style="enable-background:new 0 0 45 45;" xml:space="preserve">
<style type="text/css">
	.st0{fill:#616870;}
	.st1{fill:#4DA8B6;}
	.st2{fill:#EBEFF2;}
</style>
<g>
	<path class="st0" d="M1003.735,141.346v1.665c0,0.143-0.116,0.259-0.259,0.259c-0.143,0-0.259-0.116-0.259-0.259v-1.665
		c0-0.143,0.116-0.259,0.259-0.259C1003.619,141.087,1003.735,141.202,1003.735,141.346z"/>
</g>
<g>
	<path class="st0" d="M999.994,137.632v1.233c0,0.143-0.116,0.259-0.259,0.259c-0.143,0-0.259-0.116-0.259-0.259v-1.233
		c0-0.143,0.116-0.259,0.259-0.259C999.879,137.373,999.994,137.489,999.994,137.632z"/>
</g>
<g>
	<g>
		<g>
			<g>
				<path class="st0" d="M17.712,23.373c-0.033,0-0.067-0.007-0.098-0.022c-0.081-0.038-0.134-0.12-0.134-0.21v-2.181h-0.888
					c-0.394,0-0.715-0.321-0.715-0.715v-7.777c0-0.394,0.321-0.715,0.715-0.715h12.703c0.394,0,0.715,0.321,0.715,0.715v7.777
					c0,0.394-0.321,0.715-0.715,0.715h-8.625l-2.81,2.358C17.819,23.355,17.766,23.373,17.712,23.373z M16.593,12.217
					c-0.139,0-0.252,0.113-0.252,0.252v7.777c0,0.139,0.113,0.252,0.252,0.252h1.119c0.128,0,0.232,0.104,0.232,0.232v1.915
					l2.494-2.093c0.042-0.035,0.094-0.054,0.149-0.054h8.709c0.139,0,0.252-0.113,0.252-0.252v-7.777
					c0-0.139-0.113-0.252-0.252-0.252H16.593z"/>
			</g>
			<g>
				<path class="st1" d="M29.78,17.86h2.511c0.254,0,0.46-0.205,0.46-0.459V9.544c0-0.255-0.206-0.46-0.46-0.46H19.739
					c-0.253,0-0.46,0.205-0.46,0.46v2.442h10.018c0.267,0,0.483,0.217,0.483,0.483V17.86z"/>
				<path class="st0" d="M32.291,18.092H29.78c-0.128,0-0.232-0.104-0.232-0.232v-5.391c0-0.139-0.113-0.252-0.252-0.252H19.279
					c-0.128,0-0.232-0.104-0.232-0.232V9.544c0-0.382,0.31-0.692,0.692-0.692h12.552c0.382,0,0.692,0.31,0.692,0.692v7.857
					C32.983,17.782,32.672,18.092,32.291,18.092z M30.011,17.629h2.279c0.126,0,0.229-0.102,0.229-0.228V9.544
					c0-0.126-0.103-0.228-0.229-0.228H19.739c-0.126,0-0.228,0.102-0.228,0.228v2.21h9.786c0.394,0,0.715,0.321,0.715,0.715V17.629z
					"/>
			</g>
		</g>
		<g>
			<path class="st0" d="M26.608,15.388H19.15c-0.128,0-0.232-0.104-0.232-0.232s0.104-0.232,0.232-0.232h7.458
				c0.128,0,0.232,0.104,0.232,0.232S26.736,15.388,26.608,15.388z"/>
		</g>
		<g>
			<path class="st0" d="M26.608,17.935H19.15c-0.128,0-0.232-0.104-0.232-0.232s0.104-0.232,0.232-0.232h7.458
				c0.128,0,0.232,0.104,0.232,0.232S26.736,17.935,26.608,17.935z"/>
		</g>
	</g>
	<g>
		<g>
			<circle class="st2" cx="12.19" cy="24.256" r="3.627"/>
			<path class="st0" d="M12.19,28.114c-2.127,0-3.858-1.731-3.858-3.858c0-2.128,1.731-3.859,3.858-3.859
				c2.128,0,3.859,1.731,3.859,3.859C16.048,26.384,14.317,28.114,12.19,28.114z M12.19,20.861c-1.872,0-3.395,1.523-3.395,3.395
				c0,1.872,1.523,3.395,3.395,3.395c1.872,0,3.395-1.523,3.395-3.395C15.585,22.384,14.062,20.861,12.19,20.861z"/>
		</g>
		<g>
			<path class="st2" d="M18.569,35.911h-6.38H5.81v-4.055c0-1.555,1.26-2.815,2.815-2.815h7.129c1.555,0,2.815,1.261,2.815,2.815
				V35.911z"/>
			<path class="st0" d="M18.569,36.143H5.81c-0.128,0-0.232-0.104-0.232-0.232v-4.055c0-1.68,1.367-3.047,3.047-3.047h7.129
				c1.68,0,3.047,1.367,3.047,3.047v4.055C18.801,36.04,18.698,36.143,18.569,36.143z M6.042,35.68h12.296v-3.823
				c0-1.424-1.159-2.583-2.584-2.583H8.625c-1.425,0-2.584,1.159-2.584,2.583V35.68z"/>
		</g>
		<g>
			<g>
				<path class="st0" d="M15.922,36.143c-0.128,0-0.232-0.104-0.232-0.232v-2.676c0-0.128,0.104-0.232,0.232-0.232
					c0.128,0,0.232,0.104,0.232,0.232v2.676C16.154,36.04,16.05,36.143,15.922,36.143z"/>
			</g>
			<g>
				<path class="st0" d="M8.457,36.143c-0.128,0-0.232-0.104-0.232-0.232v-2.676c0-0.128,0.104-0.232,0.232-0.232
					s0.232,0.104,0.232,0.232v2.676C8.689,36.04,8.585,36.143,8.457,36.143z"/>
			</g>
		</g>
	</g>
	<g>
		<g>
			<ellipse transform="matrix(0.0019 -1 1 0.0019 11.1626 57.4216)" class="st2" cx="34.347" cy="23.119" rx="2.558" ry="2.558"/>
			<path class="st0" d="M34.342,25.84c-1.501-0.003-2.719-1.226-2.716-2.727c0.003-1.501,1.226-2.719,2.727-2.717
				c1.501,0.003,2.719,1.226,2.716,2.727C37.066,24.625,35.842,25.843,34.342,25.84z M34.352,20.724
				c-1.32-0.003-2.397,1.07-2.399,2.39c-0.003,1.32,1.07,2.397,2.39,2.399c1.321,0.003,2.397-1.07,2.399-2.39
				C36.744,21.803,35.672,20.727,34.352,20.724z"/>
		</g>
		<g>
			<path class="st2" d="M38.831,31.348l-4.5-0.009l-4.5-0.009l0.005-2.86c0.002-1.097,0.893-1.984,1.99-1.982l5.028,0.01
				c1.097,0.002,1.984,0.893,1.982,1.99L38.831,31.348z"/>
			<path class="st0" d="M38.831,31.512l-9-0.017c-0.09,0-0.163-0.073-0.163-0.164l0.005-2.86c0.002-1.185,0.968-2.147,2.153-2.145
				l5.028,0.01c1.185,0.002,2.147,0.968,2.145,2.153l-0.005,2.86C38.994,31.439,38.921,31.512,38.831,31.512z M29.995,31.168
				l8.673,0.017l0.005-2.697c0.002-1.005-0.814-1.824-1.819-1.826l-5.028-0.01c-1.005-0.002-1.824,0.814-1.826,1.819L29.995,31.168z
				"/>
		</g>
		<g>
			<g>
				<path class="st0" d="M36.964,31.508c-0.09,0-0.163-0.073-0.163-0.164l0.004-1.888c0-0.09,0.073-0.163,0.164-0.163
					c0.09,0,0.163,0.073,0.163,0.164l-0.004,1.888C37.127,31.435,37.054,31.508,36.964,31.508z"/>
			</g>
			<g>
				<path class="st0" d="M31.698,31.498c-0.09,0-0.163-0.073-0.163-0.164l0.004-1.888c0-0.09,0.073-0.163,0.164-0.163
					c0.09,0,0.163,0.073,0.163,0.164l-0.004,1.888C31.862,31.425,31.789,31.498,31.698,31.498z"/>
			</g>
		</g>
	</g>
</g>
</svg>
