<?xml version="1.0" encoding="utf-8"?>
<!-- Generator: Adobe Illustrator 22.1.0, SVG Export Plug-In . SVG Version: 6.00 Build 0)  -->
<svg version="1.1" id="Layer_1" xmlns="http://www.w3.org/2000/svg" xmlns:xlink="http://www.w3.org/1999/xlink" x="0px" y="0px"
	 viewBox="0 0 45 45" style="enable-background:new 0 0 45 45;" xml:space="preserve">
<style type="text/css">
	.st0{fill:#EBEFF2;}
	.st1{fill:#616870;}
	.st2{fill:#4DA8B6;}
</style>
<g>
	<g>
		<g id="zo5OSs_3_">
			<g>
				<g>
					<path class="st0" d="M23.132,28.94c-0.118,0-0.235-0.031-0.354-0.093c-3.185-1.668-5.093-4.294-5.673-7.806
						c-0.07-0.425-0.104-0.883-0.111-1.483c-0.011-0.907-0.008-1.813-0.007-2.72l0.002-1.006c0-0.279,0.083-0.483,0.247-0.607
						c0.166-0.126,0.39-0.15,0.668-0.071c1.796,0.507,3.343,0.16,4.735-1.064c0.341-0.3,0.647-0.301,0.991,0.002
						c1.379,1.213,2.92,1.564,4.706,1.073c0.176-0.049,0.326-0.062,0.458-0.041c0.285,0.045,0.485,0.309,0.485,0.644l0.024,2.276
						c-0.008,0.259-0.013,0.518-0.017,0.776c-0.009,0.564-0.019,1.147-0.073,1.721c-0.221,2.359-1.174,4.439-2.832,6.182
						c-0.814,0.856-1.79,1.572-2.9,2.128C23.363,28.91,23.247,28.94,23.132,28.94z"/>
				</g>
			</g>
		</g>
		<g id="zo5OSs_1_">
			<g>
				<g>
					<path class="st1" d="M23.132,28.94c-0.118,0-0.235-0.031-0.354-0.093c-3.185-1.668-5.093-4.294-5.673-7.806
						c-0.07-0.425-0.104-0.883-0.111-1.483c-0.011-0.907-0.008-1.813-0.007-2.72l0.002-1.006c0-0.279,0.083-0.483,0.247-0.607
						c0.166-0.126,0.39-0.15,0.668-0.071c1.796,0.507,3.343,0.16,4.735-1.064c0.341-0.3,0.647-0.301,0.991,0.002
						c1.379,1.213,2.92,1.564,4.706,1.073c0.176-0.049,0.326-0.062,0.458-0.041c0.285,0.045,0.485,0.309,0.485,0.644l0.024,2.276
						c-0.008,0.259-0.013,0.518-0.017,0.776c-0.009,0.564-0.019,1.147-0.073,1.721c-0.221,2.359-1.174,4.439-2.832,6.182
						c-0.814,0.856-1.79,1.572-2.9,2.128C23.363,28.91,23.247,28.94,23.132,28.94z M17.609,15.561c-0.044,0-0.079,0.008-0.1,0.025
						c-0.043,0.032-0.067,0.122-0.067,0.246l-0.002,1.007c-0.002,0.905-0.004,1.809,0.007,2.714
						c0.007,0.577,0.039,1.013,0.105,1.415c0.555,3.364,2.384,5.88,5.436,7.478c0.106,0.055,0.182,0.055,0.29,0.001
						c1.063-0.532,1.996-1.217,2.774-2.035c1.587-1.668,2.498-3.657,2.709-5.912c0.052-0.557,0.061-1.131,0.071-1.687
						c0.003-0.185,0.006-0.371,0.011-0.556h-0.005l-0.012-0.22l0-2.268c0-0.09-0.035-0.186-0.103-0.197
						c-0.065-0.01-0.156,0-0.266,0.031c-1.922,0.527-3.644,0.134-5.125-1.169c-0.175-0.153-0.222-0.153-0.393-0.002
						c-1.495,1.315-3.23,1.706-5.157,1.159C17.715,15.57,17.657,15.561,17.609,15.561z"/>
				</g>
				<path class="st2" d="M19.73,23.025c-0.167-0.512-0.345-0.992-0.479-1.484c-0.182-0.666-0.256-1.35-0.252-2.042
					C19.003,18.857,19,18.214,19,17.571c0-0.061,0-0.122,0-0.193c0.202,0,0.391,0.005,0.58-0.001
					c1.237-0.039,2.369-0.415,3.407-1.077c0.115-0.073,0.186-0.067,0.296,0.004c0.64,0.413,1.332,0.707,2.072,0.89
					c0.044,0.011,0.087,0.022,0.13,0.035c0.009,0.003,0.016,0.013,0.011,0.009C23.588,19.154,21.678,21.07,19.73,23.025z"/>
				<path class="st2" d="M27.221,20.541c-0.071,0.348-0.124,0.686-0.209,1.015c-0.568,2.193-1.832,3.877-3.742,5.085
					c-0.099,0.063-0.174,0.071-0.27,0c-0.309-0.226-0.624-0.444-0.935-0.668c-0.059-0.042-0.111-0.093-0.15-0.126
					C23.681,24.081,25.44,22.322,27.221,20.541z"/>
				<path class="st2" d="M27.264,17.478c0,0.317,0.006,0.638-0.005,0.959c-0.002,0.066-0.056,0.143-0.107,0.194
					c-1.872,1.876-3.747,3.75-5.621,5.625c-0.195,0.195-0.386,0.394-0.595,0.607c-0.167-0.215-0.32-0.414-0.461-0.596
					C22.745,21.998,25.003,19.74,27.264,17.478z"/>
			</g>
		</g>
	</g>
	<g>
		<path class="st1" d="M11.702,25.805H6.528c-0.152,0-0.276-0.123-0.276-0.276c0-0.152,0.123-0.276,0.276-0.276h5.175
			c0.152,0,0.276,0.123,0.276,0.276C11.978,25.682,11.855,25.805,11.702,25.805z"/>
	</g>
	<g>
		<path class="st1" d="M35.866,24.06h-1.424c-0.152,0-0.276-0.123-0.276-0.276c0-0.152,0.123-0.276,0.276-0.276h1.424
			c0.152,0,0.276,0.123,0.276,0.276C36.142,23.936,36.018,24.06,35.866,24.06z"/>
	</g>
	<g>
		<path class="st1" d="M9.957,21.211H5.281c-0.152,0-0.276-0.123-0.276-0.276c0-0.152,0.123-0.276,0.276-0.276h4.676
			c0.152,0,0.276,0.123,0.276,0.276C10.232,21.088,10.109,21.211,9.957,21.211z"/>
	</g>
	<g>
		<path class="st1" d="M38.557,17.812h-1.772c-0.152,0-0.276-0.123-0.276-0.276c0-0.152,0.123-0.276,0.276-0.276h1.772
			c0.152,0,0.276,0.123,0.276,0.276C38.833,17.689,38.709,17.812,38.557,17.812z"/>
	</g>
	<g>
		<path class="st1" d="M39.357,13.12h-3.619c-0.152,0-0.276-0.123-0.276-0.276c0-0.152,0.123-0.276,0.276-0.276h3.619
			c0.152,0,0.276,0.123,0.276,0.276C39.633,12.997,39.51,13.12,39.357,13.12z"/>
	</g>
	<g>
		<path class="st1" d="M10.6,17.812H9.287c-0.152,0-0.276-0.123-0.276-0.276s0.123-0.276,0.276-0.276H10.6
			c0.152,0,0.276,0.123,0.276,0.276S10.752,17.812,10.6,17.812z"/>
	</g>
	<g>
		<path class="st2" d="M18.331,36.707v-2.398c0-0.617,0.469-1.117,1.048-1.117h10.227c0.579,0,1.048,0.5,1.048,1.117v2.266"/>
		<path class="st1" d="M18.331,36.982c-0.152,0-0.276-0.123-0.276-0.276v-2.398c0-0.768,0.594-1.393,1.323-1.393h10.227
			c0.729,0,1.323,0.625,1.323,1.393v2.266c0,0.152-0.123,0.276-0.276,0.276c-0.152,0-0.276-0.123-0.276-0.276v-2.266
			c0-0.464-0.346-0.842-0.772-0.842H19.379c-0.426,0-0.772,0.378-0.772,0.842v2.398C18.607,36.859,18.484,36.982,18.331,36.982z"/>
	</g>
	<g>
		<g>
			<path class="st1" d="M30.301,37.107H15.914c-2.332,0-4.229-1.897-4.229-4.229V12.299c0-2.332,1.897-4.229,4.229-4.229h14.388
				c2.332,0,4.229,1.897,4.229,4.229v20.579C34.53,35.21,32.633,37.107,30.301,37.107z M15.914,8.622
				c-2.028,0-3.677,1.65-3.677,3.677v20.579c0,2.028,1.649,3.678,3.677,3.678h14.388c2.028,0,3.677-1.65,3.677-3.678V12.299
				c0-2.028-1.649-3.677-3.677-3.677H15.914z"/>
		</g>
		<g>
			<g>
				<path class="st0" d="M14.473,30.687c0,0.343-0.278,0.621-0.621,0.621c-0.343,0-0.621-0.278-0.621-0.621
					c0-0.343,0.278-0.621,0.621-0.621C14.195,30.066,14.473,30.344,14.473,30.687z"/>
				<path class="st1" d="M13.852,31.583c-0.494,0-0.896-0.402-0.896-0.897c0-0.494,0.402-0.897,0.896-0.897
					c0.495,0,0.897,0.402,0.897,0.897C14.749,31.181,14.347,31.583,13.852,31.583z M13.852,30.341c-0.19,0-0.345,0.155-0.345,0.345
					s0.155,0.345,0.345,0.345c0.191,0,0.346-0.155,0.346-0.345S14.042,30.341,13.852,30.341z"/>
			</g>
			<g>
				<path class="st0" d="M32.984,30.687c0,0.343-0.278,0.621-0.621,0.621c-0.343,0-0.621-0.278-0.621-0.621
					c0-0.343,0.278-0.621,0.621-0.621C32.706,30.066,32.984,30.344,32.984,30.687z"/>
				<path class="st1" d="M32.363,31.583c-0.494,0-0.896-0.402-0.896-0.897c0-0.494,0.402-0.897,0.896-0.897
					c0.495,0,0.897,0.402,0.897,0.897C33.26,31.181,32.857,31.583,32.363,31.583z M32.363,30.341c-0.19,0-0.345,0.155-0.345,0.345
					s0.155,0.345,0.345,0.345c0.191,0,0.346-0.155,0.346-0.345S32.553,30.341,32.363,30.341z"/>
			</g>
			<g>
				<path class="st0" d="M32.984,11.565c0,0.343-0.278,0.621-0.621,0.621c-0.343,0-0.621-0.278-0.621-0.621
					c0-0.343,0.278-0.621,0.621-0.621C32.706,10.944,32.984,11.222,32.984,11.565z"/>
				<path class="st1" d="M32.363,12.461c-0.494,0-0.896-0.402-0.896-0.897s0.402-0.897,0.896-0.897c0.495,0,0.897,0.402,0.897,0.897
					S32.857,12.461,32.363,12.461z M32.363,11.219c-0.19,0-0.345,0.155-0.345,0.345s0.155,0.345,0.345,0.345
					c0.191,0,0.346-0.155,0.346-0.345S32.553,11.219,32.363,11.219z"/>
			</g>
			<g>
				<circle class="st0" cx="13.852" cy="11.565" r="0.621"/>
				<path class="st1" d="M13.852,12.461c-0.494,0-0.896-0.402-0.896-0.897s0.402-0.897,0.896-0.897c0.495,0,0.897,0.402,0.897,0.897
					S14.347,12.461,13.852,12.461z M13.852,11.219c-0.19,0-0.345,0.155-0.345,0.345s0.155,0.345,0.345,0.345
					c0.191,0,0.346-0.155,0.346-0.345S14.042,11.219,13.852,11.219z"/>
			</g>
			<g>
				<path class="st0" d="M32.984,13.719c0,0.343-0.278,0.621-0.621,0.621c-0.343,0-0.621-0.278-0.621-0.621
					c0-0.343,0.278-0.621,0.621-0.621C32.706,13.098,32.984,13.376,32.984,13.719z"/>
				<path class="st1" d="M32.363,14.615c-0.494,0-0.896-0.402-0.896-0.897c0-0.494,0.402-0.897,0.896-0.897
					c0.495,0,0.897,0.402,0.897,0.897C33.26,14.213,32.857,14.615,32.363,14.615z M32.363,13.373c-0.19,0-0.345,0.155-0.345,0.345
					s0.155,0.345,0.345,0.345c0.191,0,0.346-0.155,0.346-0.345S32.553,13.373,32.363,13.373z"/>
			</g>
			<g>
				<path class="st0" d="M14.473,13.719c0,0.343-0.278,0.621-0.621,0.621c-0.343,0-0.621-0.278-0.621-0.621
					c0-0.343,0.278-0.621,0.621-0.621C14.195,13.098,14.473,13.376,14.473,13.719z"/>
				<path class="st1" d="M13.852,14.615c-0.494,0-0.896-0.402-0.896-0.897c0-0.494,0.402-0.897,0.896-0.897
					c0.495,0,0.897,0.402,0.897,0.897C14.749,14.213,14.347,14.615,13.852,14.615z M13.852,13.373c-0.19,0-0.345,0.155-0.345,0.345
					s0.155,0.345,0.345,0.345c0.191,0,0.346-0.155,0.346-0.345S14.042,13.373,13.852,13.373z"/>
			</g>
		</g>
	</g>
	<g>
		<path class="st1" d="M19.302,35.499c-0.152,0-0.276-0.123-0.276-0.276v-1.936c0-0.152,0.123-0.276,0.276-0.276
			c0.152,0,0.276,0.123,0.276,0.276v1.936C19.578,35.376,19.454,35.499,19.302,35.499z"/>
	</g>
	<g>
		<path class="st1" d="M20.339,35.499c-0.152,0-0.276-0.123-0.276-0.276v-1.936c0-0.152,0.123-0.276,0.276-0.276
			c0.152,0,0.276,0.123,0.276,0.276v1.936C20.614,35.376,20.491,35.499,20.339,35.499z"/>
	</g>
	<g>
		<path class="st1" d="M21.376,35.499c-0.152,0-0.276-0.123-0.276-0.276v-1.936c0-0.152,0.123-0.276,0.276-0.276
			c0.152,0,0.276,0.123,0.276,0.276v1.936C21.651,35.376,21.528,35.499,21.376,35.499z"/>
	</g>
	<g>
		<path class="st1" d="M22.412,35.985c-0.152,0-0.276-0.123-0.276-0.276v-2.421c0-0.152,0.123-0.276,0.276-0.276
			c0.152,0,0.276,0.123,0.276,0.276v2.421C22.688,35.861,22.564,35.985,22.412,35.985z"/>
	</g>
	<g>
		<path class="st1" d="M25.523,35.985c-0.152,0-0.276-0.123-0.276-0.276v-2.421c0-0.152,0.123-0.276,0.276-0.276
			c0.152,0,0.276,0.123,0.276,0.276v2.421C25.798,35.861,25.675,35.985,25.523,35.985z"/>
	</g>
	<g>
		<path class="st1" d="M24.493,35.985c-0.152,0-0.276-0.123-0.276-0.276v-2.421c0-0.152,0.123-0.276,0.276-0.276
			c0.152,0,0.276,0.123,0.276,0.276v2.421C24.768,35.861,24.645,35.985,24.493,35.985z"/>
	</g>
	<g>
		<path class="st1" d="M26.559,35.985c-0.152,0-0.276-0.123-0.276-0.276v-2.421c0-0.152,0.123-0.276,0.276-0.276
			c0.152,0,0.276,0.123,0.276,0.276v2.421C26.835,35.861,26.712,35.985,26.559,35.985z"/>
	</g>
	<g>
		<path class="st1" d="M27.596,35.985c-0.152,0-0.276-0.123-0.276-0.276v-2.421c0-0.152,0.123-0.276,0.276-0.276
			c0.152,0,0.276,0.123,0.276,0.276v2.421C27.872,35.861,27.749,35.985,27.596,35.985z"/>
	</g>
	<g>
		<path class="st1" d="M28.633,35.499c-0.152,0-0.276-0.123-0.276-0.276v-1.936c0-0.152,0.123-0.276,0.276-0.276
			c0.152,0,0.276,0.123,0.276,0.276v1.936C28.909,35.376,28.785,35.499,28.633,35.499z"/>
	</g>
	<g>
		<path class="st1" d="M29.67,35.499c-0.152,0-0.276-0.123-0.276-0.276v-1.936c0-0.152,0.123-0.276,0.276-0.276
			c0.152,0,0.276,0.123,0.276,0.276v1.936C29.946,35.376,29.822,35.499,29.67,35.499z"/>
	</g>
</g>
<g>
	<path class="st1" d="M1003.735,141.346v1.665c0,0.143-0.116,0.259-0.259,0.259c-0.143,0-0.259-0.116-0.259-0.259v-1.665
		c0-0.143,0.116-0.259,0.259-0.259C1003.619,141.087,1003.735,141.202,1003.735,141.346z"/>
</g>
<g>
	<path class="st1" d="M999.994,137.632v1.233c0,0.143-0.116,0.259-0.259,0.259c-0.143,0-0.259-0.116-0.259-0.259v-1.233
		c0-0.143,0.116-0.259,0.259-0.259C999.879,137.373,999.994,137.489,999.994,137.632z"/>
</g>
</svg>
