<?xml version="1.0" encoding="utf-8"?>
<!-- Generator: Adobe Illustrator 22.1.0, SVG Export Plug-In . SVG Version: 6.00 Build 0)  -->
<svg version="1.1" id="Layer_1" xmlns="http://www.w3.org/2000/svg" xmlns:xlink="http://www.w3.org/1999/xlink" x="0px" y="0px"
	 viewBox="0 0 45 45" style="enable-background:new 0 0 45 45;" xml:space="preserve">
<style type="text/css">
	.st0{fill:#616870;}
	.st1{fill:#EBEFF2;}
	.st2{fill:#FFFFFF;}
	.st3{fill:#4DA8B6;}
</style>
<g>
	<path class="st0" d="M1003.735,141.346v1.665c0,0.143-0.116,0.259-0.259,0.259c-0.143,0-0.259-0.116-0.259-0.259v-1.665
		c0-0.143,0.116-0.259,0.259-0.259C1003.619,141.087,1003.735,141.202,1003.735,141.346z"/>
</g>
<g>
	<path class="st0" d="M999.994,137.632v1.233c0,0.143-0.116,0.259-0.259,0.259c-0.143,0-0.259-0.116-0.259-0.259v-1.233
		c0-0.143,0.116-0.259,0.259-0.259C999.879,137.373,999.994,137.489,999.994,137.632z"/>
</g>
<g>
	<g>
		<g>
			<g>
				<g>
					<path class="st0" d="M15.213,29.091h-2.712c-0.127,0-0.229-0.103-0.229-0.229s0.103-0.229,0.229-0.229h2.712
						c0.127,0,0.229,0.103,0.229,0.229S15.34,29.091,15.213,29.091z"/>
				</g>
				<g>
					<path class="st0" d="M20.18,29.091h-2.085c-0.127,0-0.229-0.103-0.229-0.229s0.103-0.229,0.229-0.229h2.085
						c0.219,0,0.398-0.178,0.398-0.398v-6.468c0-0.127,0.103-0.229,0.229-0.229c0.127,0,0.229,0.103,0.229,0.229v6.468
						C21.036,28.707,20.652,29.091,20.18,29.091z"/>
				</g>
			</g>
		</g>
		<g>
			<path class="st1" d="M24.544,25.25h5.752c3.128,0,5.663-2.535,5.663-5.663c0-3.126-2.535-5.662-5.663-5.662
				c-0.708,0-1.383,0.135-2.007,0.372c-0.661-3.086-3.401-5.401-6.684-5.401c-3.153,0-5.801,2.138-6.591,5.042
				c-3.004,0.139-5.397,2.612-5.397,5.649c0,3.039,2.395,5.51,5.399,5.65h5.791v-3.47h3.737V25.25z"/>
			<path class="st0" d="M30.296,25.48h-5.752c-0.127,0-0.229-0.103-0.229-0.229v-3.254h-3.279v3.241
				c0,0.127-0.103,0.229-0.229,0.229h-5.79c-3.161-0.146-5.629-2.729-5.629-5.879c0-3.095,2.381-5.641,5.451-5.868
				c0.886-2.983,3.645-5.052,6.767-5.052c3.222,0,6.061,2.225,6.849,5.328c0.599-0.199,1.217-0.299,1.842-0.299
				c3.249,0,5.892,2.643,5.892,5.892C36.188,22.836,33.545,25.48,30.296,25.48z M24.774,25.021h5.522
				c2.996,0,5.434-2.438,5.434-5.434c0-2.996-2.437-5.433-5.434-5.433c-0.655,0-1.303,0.12-1.926,0.357
				c-0.062,0.024-0.132,0.019-0.191-0.013c-0.059-0.032-0.1-0.088-0.115-0.153c-0.648-3.025-3.365-5.22-6.46-5.22
				c-2.97,0-5.589,2.004-6.369,4.873c-0.026,0.096-0.111,0.164-0.21,0.169c-2.904,0.135-5.179,2.516-5.179,5.42
				c0,2.905,2.276,5.286,5.181,5.421l5.551,0v-3.241c0-0.127,0.103-0.229,0.229-0.229h3.737c0.127,0,0.229,0.103,0.229,0.229V25.021
				z"/>
		</g>
		<g>
			<path class="st0" d="M17.382,14.59c-0.02,0-0.04-0.002-0.06-0.008c-0.122-0.033-0.194-0.159-0.161-0.281
				c0.538-1.979,2.345-3.361,4.394-3.361c0.127,0,0.229,0.103,0.229,0.229c0,0.127-0.103,0.229-0.229,0.229
				c-1.843,0-3.467,1.243-3.952,3.023C17.575,14.523,17.483,14.59,17.382,14.59z"/>
		</g>
		<g>
			<path class="st0" d="M27.256,21.996H18.32c-0.127,0-0.229-0.103-0.229-0.229c0-0.127,0.103-0.229,0.229-0.229h8.936
				c0.127,0,0.229,0.103,0.229,0.229C27.485,21.894,27.383,21.996,27.256,21.996z"/>
		</g>
		<g>
			<path class="st2" d="M12.501,28.862c0,0.796-0.645,1.441-1.441,1.441c-0.796,0-1.441-0.645-1.441-1.441
				c0-0.796,0.645-1.441,1.441-1.441C11.856,27.421,12.501,28.066,12.501,28.862z"/>
			<path class="st0" d="M11.06,30.532c-0.921,0-1.67-0.749-1.67-1.67s0.749-1.67,1.67-1.67s1.67,0.749,1.67,1.67
				S11.981,30.532,11.06,30.532z M11.06,27.65c-0.668,0-1.212,0.543-1.212,1.212s0.543,1.212,1.212,1.212
				c0.668,0,1.212-0.543,1.212-1.212S11.729,27.65,11.06,27.65z"/>
		</g>
		<g>
			<path class="st2" d="M18.095,28.862c0,0.796-0.645,1.441-1.441,1.441c-0.796,0-1.441-0.645-1.441-1.441
				c0-0.796,0.645-1.441,1.441-1.441C17.45,27.421,18.095,28.066,18.095,28.862z"/>
			<path class="st0" d="M16.654,30.532c-0.921,0-1.67-0.749-1.67-1.67s0.749-1.67,1.67-1.67c0.921,0,1.67,0.749,1.67,1.67
				S17.575,30.532,16.654,30.532z M16.654,27.65c-0.668,0-1.212,0.543-1.212,1.212s0.543,1.212,1.212,1.212
				c0.668,0,1.212-0.543,1.212-1.212S17.322,27.65,16.654,27.65z"/>
		</g>
		<g>
			<g>
				<g>
					<path class="st0" d="M32.85,32.348h-2.712c-0.127,0-0.229-0.103-0.229-0.229c0-0.127,0.103-0.229,0.229-0.229h2.712
						c0.127,0,0.229,0.103,0.229,0.229C33.079,32.245,32.977,32.348,32.85,32.348z"/>
				</g>
				<g>
					<path class="st0" d="M27.257,32.348h-2.085c-0.472,0-0.856-0.384-0.856-0.857v-9.724c0-0.127,0.103-0.229,0.229-0.229
						c0.127,0,0.229,0.103,0.229,0.229v9.724c0,0.219,0.178,0.398,0.397,0.398h2.085c0.127,0,0.229,0.103,0.229,0.229
						C27.486,32.245,27.383,32.348,27.257,32.348z"/>
				</g>
			</g>
		</g>
		<g>
			<path class="st3" d="M32.85,32.118c0,0.796,0.645,1.441,1.441,1.441c0.796,0,1.441-0.645,1.441-1.441
				c0-0.796-0.645-1.441-1.441-1.441C33.495,30.677,32.85,31.322,32.85,32.118z"/>
			<path class="st0" d="M34.291,33.788c-0.921,0-1.67-0.749-1.67-1.67c0-0.921,0.749-1.67,1.67-1.67c0.921,0,1.67,0.749,1.67,1.67
				C35.961,33.039,35.212,33.788,34.291,33.788z M34.291,30.907c-0.668,0-1.212,0.543-1.212,1.212c0,0.668,0.544,1.211,1.212,1.211
				s1.211-0.543,1.211-1.211C35.502,31.45,34.959,30.907,34.291,30.907z"/>
		</g>
		<g>
			<path class="st3" d="M27.256,32.118c0,0.796,0.645,1.441,1.441,1.441c0.796,0,1.441-0.645,1.441-1.441
				c0-0.796-0.645-1.441-1.441-1.441C27.901,30.677,27.256,31.322,27.256,32.118z"/>
			<path class="st0" d="M28.697,33.788c-0.921,0-1.67-0.749-1.67-1.67c0-0.921,0.749-1.67,1.67-1.67c0.921,0,1.67,0.749,1.67,1.67
				C30.367,33.039,29.618,33.788,28.697,33.788z M28.697,30.907c-0.668,0-1.212,0.543-1.212,1.212c0,0.668,0.544,1.211,1.212,1.211
				c0.668,0,1.211-0.543,1.211-1.211C29.909,31.45,29.365,30.907,28.697,30.907z"/>
		</g>
	</g>
	<g>
		<path class="st0" d="M21.91,33.854h-2.086c-0.127,0-0.229-0.103-0.229-0.229c0-0.127,0.103-0.229,0.229-0.229h2.086
			c0.219,0,0.397-0.178,0.397-0.398V21.767c0-0.127,0.103-0.229,0.229-0.229c0.127,0,0.229,0.103,0.229,0.229v11.231
			C22.766,33.469,22.382,33.854,21.91,33.854z"/>
	</g>
	<g>
		<path class="st3" d="M19.788,33.624c0,0.796-0.645,1.441-1.441,1.441c-0.796,0-1.441-0.645-1.441-1.441s0.645-1.441,1.441-1.441
			C19.143,32.184,19.788,32.829,19.788,33.624z"/>
		<path class="st0" d="M18.348,35.295c-0.921,0-1.67-0.749-1.67-1.67c0-0.921,0.749-1.67,1.67-1.67c0.921,0,1.67,0.749,1.67,1.67
			C20.018,34.545,19.268,35.295,18.348,35.295z M18.348,32.413c-0.668,0-1.212,0.543-1.212,1.211c0,0.668,0.543,1.212,1.212,1.212
			c0.668,0,1.212-0.544,1.212-1.212C19.559,32.956,19.016,32.413,18.348,32.413z"/>
	</g>
</g>
</svg>
