<?xml version="1.0" encoding="utf-8"?>
<!-- Generator: Adobe Illustrator 22.1.0, SVG Export Plug-In . SVG Version: 6.00 Build 0)  -->
<svg version="1.1" id="Layer_1" xmlns="http://www.w3.org/2000/svg" xmlns:xlink="http://www.w3.org/1999/xlink" x="0px" y="0px"
	 viewBox="0 0 45 45" style="enable-background:new 0 0 45 45;" xml:space="preserve">
<style type="text/css">
	.st0{fill:#616870;}
	.st1{fill:#EBEFF2;}
	.st2{fill:#4DA8B6;}
</style>
<g>
	<path class="st0" d="M1003.735,141.346v1.665c0,0.143-0.116,0.259-0.259,0.259c-0.143,0-0.259-0.116-0.259-0.259v-1.665
		c0-0.143,0.116-0.259,0.259-0.259C1003.619,141.087,1003.735,141.202,1003.735,141.346z"/>
</g>
<g>
	<path class="st0" d="M999.994,137.632v1.233c0,0.143-0.116,0.259-0.259,0.259c-0.143,0-0.259-0.116-0.259-0.259v-1.233
		c0-0.143,0.116-0.259,0.259-0.259C999.879,137.373,999.994,137.489,999.994,137.632z"/>
</g>
<g>
	<g>
		<g>
			<g>
				<path class="st1" d="M29.251,17.18c0,0.435-0.353,0.788-0.788,0.788H17.088c-0.435,0-0.788-0.353-0.788-0.788V9.955
					c0-0.435,0.353-0.788,0.788-0.788h11.374c0.435,0,0.788,0.353,0.788,0.788V17.18z"/>
				<path class="st0" d="M28.462,18.197H17.088c-0.561,0-1.017-0.456-1.017-1.017V9.955c0-0.561,0.456-1.017,1.017-1.017h11.374
					c0.561,0,1.017,0.457,1.017,1.017v7.225C29.48,17.74,29.023,18.197,28.462,18.197z M17.088,9.396
					c-0.309,0-0.559,0.251-0.559,0.559v7.225c0,0.308,0.251,0.559,0.559,0.559h11.374c0.308,0,0.559-0.251,0.559-0.559V9.955
					c0-0.308-0.251-0.559-0.559-0.559H17.088z"/>
			</g>
			<g>
				<line class="st1" x1="16.3" y1="16.835" x2="29.251" y2="16.835"/>
				<path class="st0" d="M29.251,17.064H16.3c-0.127,0-0.229-0.102-0.229-0.229c0-0.127,0.102-0.229,0.229-0.229h12.951
					c0.127,0,0.229,0.102,0.229,0.229C29.48,16.962,29.377,17.064,29.251,17.064z"/>
			</g>
			<g>
				<g>
					<line class="st1" x1="21.587" y1="17.968" x2="21.587" y2="19.446"/>
					<path class="st0" d="M21.587,19.675c-0.127,0-0.229-0.102-0.229-0.229v-1.478c0-0.127,0.102-0.229,0.229-0.229
						c0.127,0,0.229,0.102,0.229,0.229v1.478C21.816,19.572,21.713,19.675,21.587,19.675z"/>
				</g>
				<g>
					<line class="st1" x1="23.805" y1="17.968" x2="23.805" y2="19.446"/>
					<path class="st0" d="M23.805,19.675c-0.127,0-0.229-0.102-0.229-0.229v-1.478c0-0.127,0.102-0.229,0.229-0.229
						c0.127,0,0.229,0.102,0.229,0.229v1.478C24.034,19.572,23.932,19.675,23.805,19.675z"/>
				</g>
			</g>
			<g>
				<line class="st1" x1="20.827" y1="19.446" x2="24.723" y2="19.446"/>
				<path class="st0" d="M24.723,19.675h-3.896c-0.127,0-0.229-0.102-0.229-0.229c0-0.127,0.102-0.229,0.229-0.229h3.896
					c0.127,0,0.229,0.102,0.229,0.229C24.952,19.572,24.85,19.675,24.723,19.675z"/>
			</g>
		</g>
	</g>
	<g>
		<g>
			<g>
				<g>
					<path class="st1" d="M18.064,32.82c0,0.435-0.353,0.788-0.788,0.788H5.901c-0.435,0-0.788-0.353-0.788-0.788v-7.225
						c0-0.435,0.353-0.788,0.788-0.788h11.374c0.435,0,0.788,0.353,0.788,0.788V32.82z"/>
					<path class="st0" d="M17.275,33.837H5.901c-0.561,0-1.017-0.456-1.017-1.017v-7.225c0-0.561,0.456-1.017,1.017-1.017h11.374
						c0.561,0,1.017,0.457,1.017,1.017v7.225C18.292,33.381,17.836,33.837,17.275,33.837z M5.901,25.036
						c-0.309,0-0.559,0.251-0.559,0.559v7.225c0,0.308,0.251,0.559,0.559,0.559h11.374c0.308,0,0.559-0.251,0.559-0.559v-7.225
						c0-0.308-0.251-0.559-0.559-0.559H5.901z"/>
				</g>
				<g>
					<line class="st1" x1="5.113" y1="32.475" x2="18.064" y2="32.475"/>
					<path class="st0" d="M18.063,32.704H5.113c-0.127,0-0.229-0.102-0.229-0.229c0-0.127,0.102-0.229,0.229-0.229h12.95
						c0.127,0,0.229,0.102,0.229,0.229C18.292,32.601,18.19,32.704,18.063,32.704z"/>
				</g>
				<g>
					<g>
						<line class="st1" x1="10.4" y1="33.608" x2="10.4" y2="35.086"/>
						<path class="st0" d="M10.4,35.315c-0.127,0-0.229-0.102-0.229-0.229v-1.478c0-0.127,0.102-0.229,0.229-0.229
							c0.127,0,0.229,0.102,0.229,0.229v1.478C10.629,35.213,10.526,35.315,10.4,35.315z"/>
					</g>
					<g>
						<line class="st1" x1="12.618" y1="33.608" x2="12.618" y2="35.086"/>
						<path class="st0" d="M12.618,35.315c-0.127,0-0.229-0.102-0.229-0.229v-1.478c0-0.127,0.102-0.229,0.229-0.229
							c0.127,0,0.229,0.102,0.229,0.229v1.478C12.847,35.213,12.745,35.315,12.618,35.315z"/>
					</g>
				</g>
				<g>
					<line class="st1" x1="9.64" y1="35.086" x2="13.536" y2="35.086"/>
					<path class="st0" d="M13.536,35.315H9.64c-0.127,0-0.229-0.102-0.229-0.229c0-0.127,0.102-0.229,0.229-0.229h3.896
						c0.127,0,0.229,0.102,0.229,0.229C13.765,35.213,13.663,35.315,13.536,35.315z"/>
				</g>
			</g>
		</g>
		<g>
			<g>
				<g>
					<path class="st1" d="M40.438,32.82c0,0.435-0.353,0.788-0.788,0.788H28.275c-0.435,0-0.788-0.353-0.788-0.788v-7.225
						c0-0.435,0.353-0.788,0.788-0.788h11.374c0.435,0,0.788,0.353,0.788,0.788V32.82z"/>
					<path class="st0" d="M39.649,33.837H28.275c-0.561,0-1.017-0.456-1.017-1.017v-7.225c0-0.561,0.456-1.017,1.017-1.017h11.374
						c0.561,0,1.017,0.457,1.017,1.017v7.225C40.667,33.381,40.21,33.837,39.649,33.837z M28.275,25.036
						c-0.308,0-0.559,0.251-0.559,0.559v7.225c0,0.308,0.251,0.559,0.559,0.559h11.374c0.308,0,0.559-0.251,0.559-0.559v-7.225
						c0-0.308-0.251-0.559-0.559-0.559H28.275z"/>
				</g>
				<g>
					<line class="st1" x1="27.487" y1="32.475" x2="40.438" y2="32.475"/>
					<path class="st0" d="M40.438,32.704H27.487c-0.127,0-0.229-0.102-0.229-0.229c0-0.127,0.102-0.229,0.229-0.229h12.951
						c0.126,0,0.229,0.102,0.229,0.229C40.667,32.601,40.564,32.704,40.438,32.704z"/>
				</g>
				<g>
					<g>
						<line class="st1" x1="32.774" y1="33.608" x2="32.774" y2="35.086"/>
						<path class="st0" d="M32.774,35.315c-0.127,0-0.229-0.102-0.229-0.229v-1.478c0-0.127,0.102-0.229,0.229-0.229
							c0.127,0,0.229,0.102,0.229,0.229v1.478C33.003,35.213,32.9,35.315,32.774,35.315z"/>
					</g>
					<g>
						<line class="st1" x1="34.992" y1="33.608" x2="34.992" y2="35.086"/>
						<path class="st0" d="M34.992,35.315c-0.127,0-0.229-0.102-0.229-0.229v-1.478c0-0.127,0.102-0.229,0.229-0.229
							c0.127,0,0.229,0.102,0.229,0.229v1.478C35.221,35.213,35.119,35.315,34.992,35.315z"/>
					</g>
				</g>
				<g>
					<line class="st1" x1="32.014" y1="35.086" x2="35.91" y2="35.086"/>
					<path class="st0" d="M35.91,35.315h-3.896c-0.127,0-0.229-0.102-0.229-0.229c0-0.127,0.102-0.229,0.229-0.229h3.896
						c0.127,0,0.229,0.102,0.229,0.229C36.139,35.213,36.037,35.315,35.91,35.315z"/>
				</g>
			</g>
		</g>
	</g>
	<g>
		<path class="st2" d="M21.337,28.816c0,0.794,0.644,1.439,1.439,1.439s1.439-0.644,1.439-1.439c0-0.795-0.644-1.439-1.439-1.439
			S21.337,28.022,21.337,28.816z"/>
		<path class="st0" d="M22.775,30.484c-0.919,0-1.667-0.748-1.667-1.668c0-0.919,0.748-1.667,1.667-1.667s1.668,0.748,1.668,1.667
			C24.443,29.736,23.695,30.484,22.775,30.484z M22.775,27.607c-0.667,0-1.21,0.542-1.21,1.209c0,0.667,0.543,1.21,1.21,1.21
			c0.667,0,1.21-0.543,1.21-1.21C23.985,28.149,23.442,27.607,22.775,27.607z"/>
	</g>
	<g>
		<line class="st2" x1="22.775" y1="19.446" x2="22.775" y2="27.355"/>
		<path class="st0" d="M22.775,27.584c-0.127,0-0.229-0.102-0.229-0.229v-7.91c0-0.127,0.102-0.229,0.229-0.229
			c0.127,0,0.229,0.102,0.229,0.229v7.91C23.004,27.482,22.902,27.584,22.775,27.584z"/>
	</g>
	<g>
		<line class="st2" x1="18.209" y1="28.816" x2="21.337" y2="28.816"/>
		<path class="st0" d="M21.337,29.045h-3.127c-0.127,0-0.229-0.102-0.229-0.229c0-0.127,0.102-0.229,0.229-0.229h3.127
			c0.127,0,0.229,0.102,0.229,0.229C21.566,28.943,21.463,29.045,21.337,29.045z"/>
	</g>
	<g>
		<line class="st2" x1="24.214" y1="28.816" x2="27.341" y2="28.816"/>
		<path class="st0" d="M27.341,29.045h-3.127c-0.127,0-0.229-0.102-0.229-0.229c0-0.127,0.102-0.229,0.229-0.229h3.127
			c0.127,0,0.229,0.102,0.229,0.229C27.57,28.943,27.468,29.045,27.341,29.045z"/>
	</g>
</g>
</svg>
