<?xml version="1.0" encoding="utf-8"?>
<!-- Generator: Adobe Illustrator 22.1.0, SVG Export Plug-In . SVG Version: 6.00 Build 0)  -->
<svg version="1.1" id="Layer_1" xmlns="http://www.w3.org/2000/svg" xmlns:xlink="http://www.w3.org/1999/xlink" x="0px" y="0px"
	 viewBox="0 0 45 45" style="enable-background:new 0 0 45 45;" xml:space="preserve">
<style type="text/css">
	.st0{fill:#616870;}
	.st1{fill:#4DA8B6;}
	.st2{fill:#EBEFF2;}
</style>
<g>
	<path class="st0" d="M1003.735,141.346v1.665c0,0.143-0.116,0.259-0.259,0.259c-0.143,0-0.259-0.116-0.259-0.259v-1.665
		c0-0.143,0.116-0.259,0.259-0.259C1003.619,141.087,1003.735,141.202,1003.735,141.346z"/>
</g>
<g>
	<path class="st0" d="M999.994,137.632v1.233c0,0.143-0.116,0.259-0.259,0.259c-0.143,0-0.259-0.116-0.259-0.259v-1.233
		c0-0.143,0.116-0.259,0.259-0.259C999.879,137.373,999.994,137.489,999.994,137.632z"/>
</g>
<g>
	<g>
		<path class="st0" d="M26.177,38.647h-7.524c-0.144,0-0.26-0.116-0.26-0.26c0-0.144,0.116-0.26,0.26-0.26h7.524
			c0.144,0,0.26,0.116,0.26,0.26C26.437,38.531,26.321,38.647,26.177,38.647z"/>
	</g>
	<g>
		<g>
			<path class="st0" d="M34.48,36.032H10.35c-1.065,0-1.932-0.867-1.932-1.932V18.774c0-1.065,0.867-1.932,1.932-1.932H34.48
				c1.065,0,1.932,0.867,1.932,1.932V34.1C36.411,35.165,35.545,36.032,34.48,36.032z M10.35,17.362
				c-0.778,0-1.412,0.633-1.412,1.412V34.1c0,0.779,0.634,1.412,1.412,1.412H34.48c0.778,0,1.412-0.633,1.412-1.412V18.774
				c0-0.779-0.634-1.412-1.412-1.412H10.35z"/>
		</g>
		<g>
			<path class="st0" d="M36.151,33.433H8.678c-0.144,0-0.26-0.116-0.26-0.26c0-0.144,0.116-0.26,0.26-0.26h27.473
				c0.144,0,0.26,0.116,0.26,0.26C36.411,33.317,36.295,33.433,36.151,33.433z"/>
		</g>
		<g>
			<path class="st1" d="M8.679,33.928c0,1.018,0.749,1.843,1.672,1.843h24.129c0.923,0,1.672-0.825,1.672-1.843v-1.021H8.679V33.928
				z"/>
			<path class="st0" d="M34.48,36.032H10.35c-1.065,0-1.932-0.944-1.932-2.103v-1.021c0-0.144,0.116-0.26,0.26-0.26h27.473
				c0.144,0,0.26,0.116,0.26,0.26v1.021C36.411,35.088,35.545,36.032,34.48,36.032z M8.938,33.167v0.762
				c0,0.873,0.634,1.583,1.412,1.583H34.48c0.778,0,1.412-0.71,1.412-1.583v-0.762H8.938z"/>
		</g>
	</g>
	<g>
		<g>
			<path class="st0" d="M20.671,38.647c-0.144,0-0.26-0.116-0.26-0.26v-2.616c0-0.144,0.116-0.26,0.26-0.26
				c0.144,0,0.26,0.116,0.26,0.26v2.616C20.931,38.531,20.815,38.647,20.671,38.647z"/>
		</g>
		<g>
			<path class="st0" d="M24.159,38.647c-0.144,0-0.26-0.116-0.26-0.26v-2.616c0-0.144,0.116-0.26,0.26-0.26
				c0.144,0,0.26,0.116,0.26,0.26v2.616C24.419,38.531,24.303,38.647,24.159,38.647z"/>
		</g>
	</g>
	<g>
		<path class="st0" d="M22.637,34.733h-0.444c-0.144,0-0.26-0.116-0.26-0.26c0-0.144,0.116-0.26,0.26-0.26h0.444
			c0.144,0,0.26,0.116,0.26,0.26C22.897,34.616,22.781,34.733,22.637,34.733z"/>
	</g>
	<g>
		<path class="st0" d="M32.813,30.83H12.039c-0.144,0-0.26-0.116-0.26-0.26c0-0.144,0.116-0.26,0.26-0.26h20.773
			c0.144,0,0.26,0.116,0.26,0.26C33.073,30.714,32.956,30.83,32.813,30.83z"/>
	</g>
	<g>
		<rect x="29.998" y="21.886" class="st2" width="2.814" height="7.473"/>
		<path class="st0" d="M32.813,29.619h-2.814c-0.144,0-0.26-0.116-0.26-0.26v-7.473c0-0.144,0.116-0.26,0.26-0.26h2.814
			c0.144,0,0.26,0.116,0.26,0.26v7.473C33.073,29.503,32.956,29.619,32.813,29.619z M30.259,29.099h2.294v-6.953h-2.294V29.099z"/>
	</g>
	<g>
		<path class="st0" d="M28.323,29.619h-2.815c-0.144,0-0.26-0.116-0.26-0.26v-6.068c0-0.144,0.116-0.26,0.26-0.26h2.815
			c0.144,0,0.26,0.116,0.26,0.26v6.068C28.583,29.503,28.467,29.619,28.323,29.619z M25.768,29.099h2.295v-5.548h-2.295V29.099z"/>
	</g>
	<g>
		<path class="st0" d="M14.854,29.619h-2.814c-0.144,0-0.26-0.116-0.26-0.26v-2.922c0-0.144,0.116-0.26,0.26-0.26h2.814
			c0.144,0,0.26,0.116,0.26,0.26v2.922C15.114,29.503,14.997,29.619,14.854,29.619z M12.299,29.099h2.294v-2.402h-2.294V29.099z"/>
	</g>
	<g>
		<path class="st0" d="M23.833,29.619h-2.815c-0.144,0-0.26-0.116-0.26-0.26v-2.613c0-0.144,0.116-0.26,0.26-0.26h2.815
			c0.144,0,0.26,0.116,0.26,0.26v2.613C24.093,29.503,23.977,29.619,23.833,29.619z M21.279,29.099h2.295v-2.093h-2.295V29.099z"/>
	</g>
	<g>
		<path class="st0" d="M19.343,29.619h-2.814c-0.144,0-0.26-0.116-0.26-0.26v-4.248c0-0.144,0.116-0.26,0.26-0.26h2.814
			c0.144,0,0.26,0.116,0.26,0.26v4.248C19.603,29.503,19.487,29.619,19.343,29.619z M16.789,29.099h2.294v-3.728h-2.294V29.099z"/>
	</g>
	<g>
		<path class="st0" d="M26.526,16.313v0.569c0,0.144-0.116,0.26-0.26,0.26c-0.144,0-0.26-0.116-0.26-0.26v-0.569
			c0-0.144,0.116-0.26,0.26-0.26C26.409,16.053,26.526,16.17,26.526,16.313z"/>
	</g>
	<g>
		<path class="st0" d="M26.526,13.367v1.343c0,0.144-0.116,0.26-0.26,0.26c-0.144,0-0.26-0.116-0.26-0.26v-1.343
			c0-0.144,0.116-0.26,0.26-0.26C26.409,13.107,26.526,13.223,26.526,13.367z"/>
	</g>
	<g>
		<path class="st0" d="M22.77,12.371v4.511c0,0.144-0.116,0.26-0.26,0.26c-0.144,0-0.26-0.116-0.26-0.26v-4.511
			c0-0.144,0.116-0.26,0.26-0.26C22.654,12.111,22.77,12.227,22.77,12.371z"/>
	</g>
	<g>
		<path class="st0" d="M19.014,13.367v3.515c0,0.144-0.116,0.26-0.26,0.26s-0.26-0.116-0.26-0.26v-3.515
			c0-0.144,0.116-0.26,0.26-0.26S19.014,13.223,19.014,13.367z"/>
	</g>
	<g>
		<path class="st0" d="M19.014,8.927v3.141c0,0.144-0.116,0.26-0.26,0.26s-0.26-0.116-0.26-0.26V8.927c0-0.144,0.116-0.26,0.26-0.26
			S19.014,8.783,19.014,8.927z"/>
	</g>
</g>
</svg>
