<?xml version="1.0" encoding="utf-8"?>
<!-- Generator: Adobe Illustrator 22.0.1, SVG Export Plug-In . SVG Version: 6.00 Build 0)  -->
<svg version="1.1" id="Layer_1" xmlns="http://www.w3.org/2000/svg" xmlns:xlink="http://www.w3.org/1999/xlink" x="0px" y="0px"
	 viewBox="0 0 85 15" style="enable-background:new 0 0 85 15;" xml:space="preserve">
<style type="text/css">
	.st0{opacity:0.46;}
	.st1{opacity:0.33;fill:#5C6A75;enable-background:new    ;}
	.st2{fill:url(#SVGID_1_);}
	.st3{fill:url(#SVGID_2_);}
	.st4{fill:url(#SVGID_3_);}
	.st5{opacity:0.44;fill:#FFFFFF;enable-background:new    ;}
	.st6{fill:#50C5DD;}
	.st7{fill:#2EA8D6;}
	.st8{opacity:0.33;fill:#FFFFFF;enable-background:new    ;}
	.st9{fill:#FFFFFF;}
</style>
<g class="st0">
	<path class="st1" d="M21.574,3.221v2.57c-0.465-0.249-0.994-0.39-1.558-0.39c-1.837,0-3.326,1.502-3.326,3.356
		s1.489,3.356,3.326,3.356c0.563,0,1.094-0.142,1.558-0.39v0.39h1.768V3.221H21.574z M20.053,10.335
		c-0.84,0-1.521-0.687-1.521-1.536c0.001-0.848,0.682-1.536,1.521-1.536c0.84,0,1.521,0.687,1.521,1.536
		C21.574,9.646,20.893,10.335,20.053,10.335z"/>
	<path class="st1" d="M13.287,5.643c-0.563,0-1.093,0.142-1.558,0.39v-0.39H9.961v8.891h1.768v-2.57
		c0.465,0.249,0.994,0.39,1.558,0.39c1.837,0,3.326-1.502,3.326-3.356C16.613,7.145,15.124,5.643,13.287,5.643z M13.251,10.491
		c-0.84,0-1.521-0.687-1.521-1.535c0-0.847,0.682-1.535,1.521-1.535c0.84,0,1.521,0.687,1.521,1.535S14.091,10.491,13.251,10.491z"
		/>
	<path class="st1" d="M9.484,6.849C9.482,6.845,9.48,6.841,9.479,6.837C9.462,6.798,9.443,6.759,9.426,6.72
		c-0.039-0.088-0.08-0.175-0.124-0.261C9.277,6.411,9.252,6.364,9.225,6.316C9.181,6.238,9.135,6.16,9.087,6.084
		C9.061,6.043,9.036,6.002,9.009,5.961C8.935,5.852,8.858,5.746,8.775,5.644C8.753,5.616,8.729,5.59,8.706,5.564
		C8.64,5.485,8.573,5.409,8.502,5.336C8.467,5.299,8.432,5.265,8.397,5.23C8.33,5.165,8.262,5.101,8.192,5.041
		c-0.035-0.03-0.068-0.061-0.103-0.09C7.986,4.866,7.88,4.784,7.771,4.709C7.751,4.695,7.73,4.684,7.711,4.67
		C7.617,4.608,7.52,4.547,7.421,4.492c-0.039-0.022-0.08-0.043-0.12-0.065C7.214,4.38,7.127,4.338,7.036,4.297
		C6.997,4.279,6.959,4.261,6.919,4.245C6.792,4.192,6.664,4.143,6.532,4.101C6.52,4.098,6.509,4.096,6.498,4.092
		C6.375,4.054,6.25,4.022,6.124,3.994C6.082,3.984,6.039,3.977,5.997,3.969c-0.102-0.019-0.205-0.036-0.31-0.048
		C5.644,3.916,5.602,3.91,5.559,3.906C5.415,3.893,5.271,3.883,5.124,3.883c-0.148,0-0.295,0.009-0.44,0.023
		C4.639,3.91,4.595,3.917,4.551,3.922C4.45,3.935,4.35,3.949,4.251,3.968C4.203,3.977,4.155,3.987,4.108,3.997
		c-0.102,0.024-0.202,0.05-0.301,0.079C3.77,4.088,3.731,4.097,3.694,4.11C3.56,4.153,3.429,4.201,3.302,4.255
		C3.277,4.266,3.253,4.279,3.228,4.289C3.125,4.336,3.025,4.385,2.926,4.438C2.883,4.461,2.842,4.486,2.8,4.509
		c-0.08,0.046-0.16,0.095-0.237,0.146C2.521,4.683,2.48,4.711,2.438,4.74C2.356,4.798,2.277,4.858,2.2,4.921
		C2.17,4.946,2.138,4.969,2.108,4.995c-0.102,0.086-0.2,0.177-0.294,0.272C1.78,5.299,1.75,5.334,1.718,5.369
		C1.656,5.435,1.594,5.503,1.536,5.572C1.499,5.616,1.465,5.661,1.429,5.706c-0.051,0.066-0.1,0.134-0.148,0.202
		C1.248,5.955,1.215,6.001,1.184,6.05C1.131,6.131,1.082,6.216,1.034,6.3C1.008,6.346,0.982,6.392,0.957,6.439
		C0.901,6.545,0.849,6.656,0.801,6.768C0.779,6.82,0.759,6.875,0.738,6.929C0.719,6.979,0.697,7.028,0.68,7.078
		C0.681,7.079,0.682,7.08,0.683,7.08C0.509,7.581,0.409,8.118,0.409,8.68c0,2.649,2.111,4.797,4.715,4.797S9.839,11.33,9.839,8.68
		C9.84,8.031,9.712,7.413,9.484,6.849C9.483,6.85,9.484,6.85,9.484,6.849z"/>
</g>
<g>
	
		<linearGradient id="SVGID_1_" gradientUnits="userSpaceOnUse" x1="5.0489" y1="943.9258" x2="5.0489" y2="953.5201" gradientTransform="matrix(1 0 0 1 0 -940.1943)">
		<stop  offset="0" style="stop-color:#FFFFFF"/>
		<stop  offset="0.3126" style="stop-color:#E2E1E0"/>
		<stop  offset="0.4767" style="stop-color:#E0E0DF"/>
		<stop  offset="0.7198" style="stop-color:#C8C8C8"/>
	</linearGradient>
	<path class="st2" d="M4.023,5.939c0.345,0,3.765,1.976,3.765,2.602c0,0.625-3.328,2.602-3.765,2.602
		C3.586,11.143,3.679,5.939,4.023,5.939z M5.049,3.732c2.604,0,4.715,2.149,4.715,4.797c0,2.649-2.111,4.797-4.715,4.797
		s-4.716-2.149-4.716-4.798S2.445,3.732,5.049,3.732z"/>
	
		<linearGradient id="SVGID_2_" gradientUnits="userSpaceOnUse" x1="19.9408" y1="809.2632" x2="19.9408" y2="825.9069" gradientTransform="matrix(1 0 0 1 0 -806.1943)">
		<stop  offset="0" style="stop-color:#FFFFFF"/>
		<stop  offset="0.1656" style="stop-color:#EAEAEA"/>
		<stop  offset="0.6628" style="stop-color:#B6B8B8"/>
	</linearGradient>
	<path class="st3" d="M19.977,7.111c0.84,0,1.521,0.687,1.521,1.536s-0.681,1.536-1.521,1.536s-1.521-0.687-1.521-1.536
		C18.457,7.798,19.138,7.111,19.977,7.111z M21.499,3.069v2.57c-0.465-0.249-0.994-0.39-1.558-0.39
		c-1.837,0-3.326,1.502-3.326,3.356s1.489,3.356,3.326,3.356c0.563,0,1.093-0.142,1.558-0.39v0.39h1.768V3.069H21.499z"/>
	
		<linearGradient id="SVGID_3_" gradientUnits="userSpaceOnUse" x1="13.2117" y1="811.6861" x2="13.2117" y2="826.3622" gradientTransform="matrix(1 0 0 1 0 -806.1943)">
		<stop  offset="0" style="stop-color:#FFFFFF"/>
		<stop  offset="0.2611" style="stop-color:#D4D5D5"/>
		<stop  offset="0.6575" style="stop-color:#B9BBBB"/>
		<stop  offset="0.8092" style="stop-color:#B6B8B8"/>
	</linearGradient>
	<path class="st4" d="M13.175,7.27c0.84,0,1.521,0.687,1.521,1.535c0,0.848-0.681,1.535-1.521,1.535
		c-0.84,0-1.521-0.687-1.521-1.535C11.654,7.957,12.335,7.27,13.175,7.27z M13.212,5.492c-0.563,0-1.094,0.142-1.558,0.39v-0.39
		H9.886v8.892h1.768v-2.57c0.465,0.249,0.994,0.39,1.558,0.39c1.837,0,3.326-1.502,3.326-3.356S15.049,5.492,13.212,5.492z"/>
	<path class="st5" d="M5.049,3.732c-2.052,0-3.797,1.334-4.445,3.196c0.814,0.588,1.903,1.006,3.134,1.167
		c0.031-1.136,0.133-2.155,0.285-2.155c0.255,0,2.192,1.082,3.184,1.897C8.075,7.58,8.83,7.187,9.408,6.698
		C8.701,4.957,7.016,3.732,5.049,3.732z"/>
	<path class="st6" d="M4.023,5.939c0.345,0,3.765,1.976,3.765,2.602c0,0.625-3.328,2.602-3.765,2.602
		C3.586,11.143,3.679,5.939,4.023,5.939z"/>
	<g>
		<path class="st7" d="M4.023,5.939c-0.043,0-0.083,0.084-0.118,0.232c0.438,0.064,3.743,1.983,3.743,2.599
			c0,0.024-0.006,0.049-0.015,0.077c0.099-0.12,0.156-0.224,0.156-0.305C7.788,7.915,4.367,5.939,4.023,5.939z"/>
	</g>
	<path class="st8" d="M3.738,8.094C4.101,8.142,4.476,8.167,4.86,8.167c0.836,0,1.63-0.118,2.347-0.33
		C6.215,7.021,4.278,5.941,4.023,5.941C3.871,5.939,3.768,6.959,3.738,8.094z"/>
</g>
<g>
	<path class="st9" d="M26.242,6.045c0,0.21-0.037,0.394-0.111,0.552s-0.18,0.28-0.318,0.366c-0.138,0.085-0.296,0.129-0.475,0.129
		c-0.177,0-0.334-0.042-0.472-0.127c-0.138-0.085-0.246-0.206-0.322-0.364c-0.076-0.157-0.115-0.339-0.115-0.544V5.951
		c0-0.209,0.038-0.394,0.114-0.554c0.076-0.16,0.182-0.282,0.321-0.368s0.296-0.128,0.474-0.128c0.177,0,0.336,0.043,0.474,0.128
		c0.138,0.085,0.245,0.208,0.321,0.368s0.113,0.343,0.113,0.553L26.242,6.045L26.242,6.045z M25.797,5.948
		c0-0.224-0.04-0.393-0.12-0.509c-0.08-0.116-0.194-0.174-0.343-0.174c-0.147,0-0.261,0.057-0.341,0.172
		c-0.08,0.115-0.12,0.283-0.121,0.504v0.104c0,0.217,0.04,0.387,0.12,0.507c0.08,0.12,0.195,0.18,0.346,0.18
		c0.147,0,0.261-0.058,0.339-0.173c0.079-0.115,0.119-0.284,0.12-0.506C25.797,6.052,25.797,5.948,25.797,5.948z"/>
	<path class="st9" d="M26.847,5.478l0.014,0.183c0.113-0.142,0.265-0.212,0.455-0.212c0.168,0,0.293,0.049,0.375,0.148
		c0.082,0.098,0.124,0.246,0.125,0.442v1.023h-0.422V6.047c0-0.09-0.019-0.155-0.058-0.196S27.231,5.79,27.141,5.79
		c-0.119,0-0.209,0.051-0.268,0.152v1.119h-0.422V5.478H26.847z"/>
	<path class="st9" d="M28.509,7.062h-0.425V4.814h0.425V7.062z"/>
	<path class="st9" d="M28.779,5.068c0-0.063,0.021-0.115,0.063-0.157c0.042-0.041,0.1-0.061,0.173-0.061
		c0.073,0,0.13,0.021,0.172,0.061c0.043,0.041,0.064,0.093,0.064,0.157c0,0.064-0.022,0.117-0.065,0.158s-0.1,0.061-0.171,0.061
		c-0.071,0-0.128-0.021-0.172-0.061S28.779,5.133,28.779,5.068z M29.229,7.062h-0.425V5.478h0.425V7.062z"/>
	<path class="st9" d="M29.891,5.478l0.014,0.183c0.113-0.142,0.265-0.212,0.455-0.212c0.167,0,0.293,0.049,0.375,0.148
		c0.082,0.098,0.124,0.246,0.125,0.442v1.023h-0.422V6.047c0-0.09-0.019-0.155-0.058-0.196S30.275,5.79,30.185,5.79
		c-0.119,0-0.209,0.051-0.268,0.152v1.119h-0.424V5.478H29.891z"/>
	<path class="st9" d="M31.834,7.091c-0.232,0-0.421-0.071-0.567-0.214c-0.146-0.142-0.219-0.332-0.219-0.57V6.267
		c0-0.16,0.031-0.301,0.093-0.427c0.061-0.125,0.148-0.222,0.261-0.29c0.113-0.068,0.241-0.102,0.386-0.102
		c0.217,0,0.388,0.068,0.511,0.205c0.125,0.137,0.187,0.331,0.187,0.581v0.172h-1.009c0.014,0.103,0.055,0.186,0.124,0.249
		c0.068,0.063,0.156,0.094,0.261,0.094c0.163,0,0.29-0.058,0.382-0.177l0.208,0.233c-0.063,0.09-0.15,0.16-0.258,0.21
		C32.086,7.066,31.966,7.091,31.834,7.091z M31.786,5.79c-0.084,0-0.152,0.028-0.204,0.085c-0.052,0.057-0.085,0.138-0.1,0.244
		h0.588V6.085c-0.002-0.094-0.027-0.167-0.076-0.219C31.945,5.816,31.876,5.79,31.786,5.79z"/>
	<path class="st9" d="M33.789,6.311v0.751h-0.44V4.931h0.831c0.16,0,0.301,0.029,0.422,0.088c0.121,0.058,0.215,0.142,0.281,0.25
		c0.066,0.108,0.098,0.23,0.098,0.368c0,0.209-0.071,0.373-0.214,0.494s-0.341,0.18-0.593,0.18
		C34.174,6.311,33.789,6.311,33.789,6.311z M33.789,5.956h0.393c0.116,0,0.204-0.028,0.266-0.082
		c0.061-0.055,0.091-0.133,0.091-0.234c0-0.104-0.031-0.189-0.093-0.253c-0.061-0.064-0.147-0.098-0.254-0.1h-0.402V5.956z"/>
	<path class="st9" d="M36.07,5.874c-0.058-0.008-0.109-0.012-0.152-0.012c-0.16,0-0.265,0.054-0.315,0.162V7.06h-0.422V5.478h0.4
		l0.012,0.189c0.085-0.145,0.202-0.218,0.353-0.218c0.047,0,0.091,0.006,0.132,0.019L36.07,5.874z"/>
	<path class="st9" d="M36.08,6.255c0-0.157,0.031-0.297,0.09-0.42c0.061-0.123,0.147-0.218,0.261-0.285
		c0.114-0.067,0.246-0.101,0.395-0.101c0.214,0,0.388,0.066,0.523,0.196c0.135,0.131,0.21,0.308,0.226,0.533l0.003,0.108
		c0,0.243-0.068,0.438-0.203,0.585c-0.135,0.147-0.318,0.22-0.546,0.22c-0.228,0-0.41-0.073-0.547-0.219
		c-0.136-0.147-0.204-0.346-0.204-0.597v-0.02H36.08z M36.504,6.285c0,0.15,0.028,0.266,0.085,0.345
		c0.057,0.08,0.137,0.12,0.243,0.12c0.103,0,0.182-0.039,0.24-0.118s0.086-0.204,0.086-0.378c0-0.147-0.029-0.262-0.086-0.343
		c-0.057-0.081-0.138-0.122-0.243-0.122c-0.103,0-0.183,0.041-0.24,0.121C36.531,5.991,36.504,6.116,36.504,6.285z"/>
	<path class="st9" d="M37.881,7.062V5.788h-0.236v-0.31h0.236V5.343c0-0.177,0.051-0.316,0.153-0.414
		c0.102-0.098,0.244-0.147,0.428-0.147c0.058,0,0.13,0.009,0.215,0.029l-0.004,0.325c-0.035-0.009-0.078-0.013-0.129-0.013
		c-0.16,0-0.239,0.076-0.239,0.226v0.128h0.315v0.31h-0.315v1.274L37.881,7.062L37.881,7.062z"/>
	<path class="st9" d="M39.459,7.091c-0.232,0-0.421-0.071-0.567-0.214c-0.146-0.142-0.219-0.332-0.219-0.57V6.267
		c0-0.16,0.031-0.301,0.093-0.427c0.061-0.125,0.148-0.222,0.261-0.29c0.113-0.068,0.241-0.102,0.386-0.102
		c0.217,0,0.388,0.068,0.511,0.205c0.125,0.137,0.187,0.331,0.187,0.581v0.172h-1.009c0.014,0.103,0.055,0.186,0.124,0.249
		c0.068,0.063,0.156,0.094,0.261,0.094c0.163,0,0.29-0.058,0.382-0.177l0.208,0.233c-0.063,0.09-0.15,0.16-0.258,0.21
		C39.711,7.066,39.59,7.091,39.459,7.091z M39.411,5.79c-0.084,0-0.152,0.028-0.204,0.085c-0.052,0.057-0.085,0.138-0.1,0.244h0.588
		V6.085c-0.002-0.094-0.027-0.167-0.076-0.219C39.57,5.816,39.501,5.79,39.411,5.79z"/>
	<path class="st9" d="M41.133,6.624c0-0.052-0.026-0.093-0.077-0.123c-0.051-0.03-0.134-0.056-0.247-0.08
		c-0.377-0.078-0.565-0.239-0.565-0.48c0-0.141,0.058-0.258,0.175-0.352c0.117-0.094,0.269-0.141,0.457-0.141
		c0.201,0,0.362,0.048,0.482,0.142c0.12,0.095,0.181,0.217,0.181,0.369h-0.422c0-0.061-0.019-0.11-0.058-0.15
		c-0.04-0.041-0.1-0.061-0.183-0.061c-0.071,0-0.127,0.016-0.165,0.048c-0.038,0.032-0.058,0.073-0.058,0.123
		c0,0.047,0.022,0.084,0.067,0.113c0.045,0.029,0.12,0.053,0.224,0.075c0.105,0.021,0.194,0.045,0.266,0.071
		c0.224,0.082,0.335,0.224,0.335,0.426c0,0.145-0.062,0.261-0.186,0.35c-0.124,0.089-0.284,0.134-0.48,0.134
		c-0.133,0-0.251-0.024-0.353-0.071c-0.103-0.047-0.183-0.113-0.242-0.194c-0.058-0.083-0.088-0.172-0.088-0.267h0.401
		c0.004,0.076,0.032,0.133,0.083,0.172s0.121,0.06,0.208,0.06c0.081,0,0.142-0.015,0.184-0.046
		C41.112,6.714,41.133,6.674,41.133,6.624z"/>
	<path class="st9" d="M42.599,6.624c0-0.052-0.026-0.093-0.077-0.123s-0.134-0.056-0.247-0.08c-0.377-0.078-0.565-0.239-0.565-0.48
		c0-0.141,0.058-0.258,0.175-0.352c0.117-0.094,0.269-0.141,0.457-0.141c0.201,0,0.362,0.048,0.482,0.142
		c0.121,0.095,0.18,0.217,0.18,0.369h-0.422c0-0.061-0.019-0.11-0.058-0.15c-0.039-0.041-0.1-0.061-0.183-0.061
		c-0.071,0-0.127,0.016-0.165,0.048c-0.039,0.032-0.058,0.073-0.058,0.123c0,0.047,0.022,0.084,0.067,0.113
		c0.045,0.029,0.12,0.053,0.224,0.075c0.105,0.021,0.194,0.045,0.266,0.071c0.223,0.082,0.336,0.224,0.336,0.426
		c0,0.145-0.062,0.261-0.186,0.35c-0.124,0.089-0.284,0.134-0.48,0.134c-0.133,0-0.251-0.024-0.353-0.071
		c-0.103-0.047-0.183-0.113-0.242-0.194C41.69,6.743,41.66,6.654,41.66,6.558h0.401c0.004,0.076,0.032,0.133,0.083,0.172
		s0.121,0.06,0.208,0.06c0.081,0,0.142-0.015,0.184-0.046C42.579,6.714,42.599,6.674,42.599,6.624z"/>
	<path class="st9" d="M43.205,5.068c0-0.063,0.021-0.115,0.063-0.157c0.043-0.041,0.1-0.061,0.173-0.061
		c0.072,0,0.13,0.021,0.172,0.061c0.043,0.041,0.064,0.093,0.064,0.157c0,0.064-0.022,0.117-0.065,0.158
		c-0.043,0.041-0.101,0.061-0.172,0.061c-0.071,0-0.128-0.021-0.172-0.061C43.227,5.185,43.205,5.133,43.205,5.068z M43.654,7.062
		h-0.424V5.478h0.424V7.062z"/>
	<path class="st9" d="M43.862,6.255c0-0.157,0.031-0.297,0.09-0.42c0.06-0.123,0.147-0.218,0.261-0.285
		c0.114-0.067,0.246-0.101,0.395-0.101c0.214,0,0.388,0.066,0.523,0.196c0.135,0.131,0.21,0.308,0.227,0.533l0.003,0.108
		c0,0.243-0.068,0.438-0.203,0.585s-0.318,0.22-0.546,0.22c-0.229,0-0.41-0.073-0.546-0.219c-0.136-0.147-0.204-0.346-0.204-0.597
		C43.862,6.275,43.862,6.255,43.862,6.255z M44.285,6.285c0,0.15,0.028,0.266,0.085,0.345c0.056,0.08,0.137,0.12,0.243,0.12
		c0.103,0,0.182-0.039,0.24-0.118c0.057-0.078,0.086-0.204,0.086-0.378c0-0.147-0.029-0.262-0.086-0.343
		c-0.057-0.081-0.138-0.122-0.243-0.122c-0.103,0-0.183,0.041-0.24,0.121C44.313,5.991,44.285,6.116,44.285,6.285z"/>
	<path class="st9" d="M45.937,5.478l0.014,0.183c0.113-0.142,0.264-0.212,0.455-0.212c0.167,0,0.292,0.049,0.375,0.148
		c0.082,0.098,0.124,0.246,0.125,0.442v1.023h-0.423V6.047c0-0.09-0.019-0.155-0.058-0.196S46.32,5.79,46.23,5.79
		c-0.119,0-0.208,0.051-0.268,0.152v1.119h-0.422V5.478H45.937z"/>
	<path class="st9" d="M48.069,7.062c-0.02-0.038-0.033-0.085-0.043-0.142c-0.103,0.114-0.236,0.171-0.4,0.171
		c-0.155,0-0.284-0.045-0.386-0.135c-0.102-0.09-0.153-0.203-0.153-0.339c0-0.167,0.062-0.296,0.187-0.387
		c0.124-0.09,0.304-0.135,0.539-0.136h0.194v-0.09c0-0.073-0.019-0.132-0.056-0.176c-0.038-0.044-0.097-0.066-0.177-0.066
		c-0.071,0-0.127,0.017-0.167,0.051c-0.041,0.034-0.061,0.081-0.061,0.14h-0.423c0-0.091,0.028-0.176,0.085-0.254
		c0.056-0.078,0.137-0.14,0.24-0.184c0.104-0.045,0.22-0.067,0.349-0.067c0.194,0,0.35,0.049,0.464,0.147
		c0.115,0.098,0.172,0.236,0.172,0.414v0.686c0.001,0.15,0.022,0.264,0.063,0.341V7.06h-0.427
		C48.069,7.06,48.069,7.062,48.069,7.062z M47.719,6.767c0.062,0,0.12-0.014,0.172-0.042c0.053-0.028,0.091-0.066,0.117-0.112V6.341
		H47.85c-0.212,0-0.325,0.073-0.338,0.22l-0.001,0.025c0,0.053,0.019,0.096,0.056,0.13C47.604,6.751,47.655,6.767,47.719,6.767z"/>
	<path class="st9" d="M49.13,7.062h-0.424V4.814h0.424V7.062z"/>
	<path class="st9" d="M50.102,7.062V4.931h0.656c0.187,0,0.355,0.042,0.503,0.127c0.148,0.085,0.263,0.204,0.346,0.36
		c0.083,0.155,0.124,0.333,0.124,0.531v0.098c0,0.198-0.041,0.375-0.123,0.529c-0.081,0.154-0.196,0.274-0.345,0.359
		c-0.148,0.085-0.316,0.128-0.502,0.129h-0.66V7.062z M50.542,5.287v1.423h0.212c0.172,0,0.303-0.056,0.393-0.168
		c0.09-0.113,0.137-0.273,0.14-0.482V5.946c0-0.217-0.045-0.38-0.135-0.492c-0.09-0.111-0.221-0.167-0.393-0.167H50.542
		L50.542,5.287z"/>
	<path class="st9" d="M52.677,7.091c-0.232,0-0.421-0.071-0.567-0.214c-0.146-0.142-0.219-0.332-0.219-0.57V6.267
		c0-0.16,0.031-0.301,0.093-0.427c0.061-0.125,0.149-0.222,0.261-0.29c0.113-0.068,0.241-0.102,0.386-0.102
		c0.217,0,0.388,0.068,0.511,0.205c0.125,0.137,0.187,0.331,0.187,0.581v0.172h-1.009c0.014,0.103,0.055,0.186,0.123,0.249
		C52.513,6.719,52.6,6.75,52.705,6.75c0.163,0,0.29-0.058,0.382-0.177l0.208,0.233c-0.063,0.09-0.15,0.16-0.257,0.21
		C52.928,7.066,52.808,7.091,52.677,7.091z M52.629,5.79c-0.084,0-0.152,0.028-0.204,0.085c-0.052,0.057-0.085,0.138-0.1,0.244
		h0.588V6.085c-0.002-0.094-0.028-0.167-0.076-0.219C52.788,5.816,52.718,5.79,52.629,5.79z"/>
	<path class="st9" d="M54.067,6.545l0.294-1.066h0.442L54.27,7.062h-0.404l-0.534-1.584h0.442L54.067,6.545z"/>
	<path class="st9" d="M55.624,7.091c-0.232,0-0.421-0.071-0.567-0.214c-0.146-0.142-0.219-0.332-0.219-0.57V6.267
		c0-0.16,0.031-0.301,0.093-0.427c0.061-0.125,0.149-0.222,0.261-0.29c0.113-0.068,0.241-0.102,0.386-0.102
		c0.217,0,0.388,0.068,0.511,0.205c0.125,0.137,0.187,0.331,0.187,0.581v0.172h-1.009c0.014,0.103,0.055,0.186,0.123,0.249
		c0.069,0.063,0.156,0.094,0.261,0.094c0.163,0,0.29-0.058,0.382-0.177l0.208,0.233c-0.063,0.09-0.15,0.16-0.257,0.21
		C55.875,7.066,55.756,7.091,55.624,7.091z M55.575,5.79c-0.084,0-0.152,0.028-0.204,0.085c-0.052,0.057-0.085,0.138-0.1,0.244
		h0.588V6.085c-0.002-0.094-0.028-0.167-0.076-0.219C55.735,5.816,55.665,5.79,55.575,5.79z"/>
	<path class="st9" d="M56.886,7.062h-0.424V4.814h0.424V7.062z"/>
	<path class="st9" d="M57.094,6.255c0-0.157,0.031-0.297,0.09-0.42c0.06-0.123,0.147-0.218,0.261-0.285
		c0.114-0.067,0.246-0.101,0.395-0.101c0.214,0,0.388,0.066,0.523,0.196c0.135,0.131,0.21,0.308,0.227,0.533l0.003,0.108
		c0,0.243-0.068,0.438-0.203,0.585s-0.318,0.22-0.546,0.22c-0.229,0-0.41-0.073-0.546-0.219c-0.136-0.147-0.204-0.346-0.204-0.597
		V6.255z M57.517,6.285c0,0.15,0.028,0.266,0.085,0.345c0.056,0.08,0.137,0.12,0.243,0.12c0.103,0,0.182-0.039,0.24-0.118
		c0.057-0.078,0.086-0.204,0.086-0.378c0-0.147-0.029-0.262-0.086-0.343s-0.138-0.122-0.243-0.122c-0.103,0-0.183,0.041-0.24,0.121
		C57.545,5.991,57.517,6.116,57.517,6.285z"/>
	<path class="st9" d="M60.206,6.285c0,0.244-0.056,0.44-0.167,0.586c-0.11,0.147-0.26,0.22-0.448,0.22
		c-0.16,0-0.289-0.056-0.388-0.167v0.747H58.78V5.478h0.393l0.015,0.155c0.103-0.123,0.236-0.185,0.401-0.185
		c0.194,0,0.346,0.073,0.455,0.217c0.108,0.145,0.162,0.343,0.162,0.597C60.206,6.263,60.206,6.285,60.206,6.285z M59.783,6.252
		c0-0.148-0.026-0.262-0.078-0.342c-0.053-0.08-0.128-0.12-0.228-0.12c-0.132,0-0.224,0.051-0.274,0.152v0.65
		c0.052,0.105,0.144,0.157,0.277,0.157C59.682,6.75,59.783,6.584,59.783,6.252z"/>
	<path class="st9" d="M60.789,5.478l0.013,0.177c0.113-0.137,0.264-0.207,0.455-0.207c0.204,0,0.344,0.08,0.42,0.241
		c0.111-0.161,0.27-0.241,0.476-0.241c0.172,0,0.299,0.051,0.383,0.15c0.084,0.1,0.125,0.25,0.125,0.452v1.012h-0.424V6.05
		c0-0.09-0.018-0.156-0.053-0.197c-0.036-0.041-0.097-0.062-0.186-0.062c-0.127,0-0.214,0.061-0.264,0.182l0.001,1.09h-0.423V6.05
		c0-0.092-0.018-0.158-0.054-0.199C61.222,5.81,61.161,5.79,61.074,5.79c-0.12,0-0.207,0.05-0.261,0.15v1.122h-0.422V5.478H60.789z"
		/>
	<path class="st9" d="M63.641,7.091c-0.232,0-0.421-0.071-0.567-0.214c-0.146-0.142-0.219-0.332-0.219-0.57V6.267
		c0-0.16,0.031-0.301,0.093-0.427c0.061-0.125,0.149-0.222,0.261-0.29c0.113-0.068,0.241-0.102,0.386-0.102
		c0.217,0,0.388,0.068,0.511,0.205c0.125,0.137,0.187,0.331,0.187,0.581v0.172h-1.009c0.014,0.103,0.055,0.186,0.123,0.249
		c0.069,0.063,0.156,0.094,0.261,0.094c0.163,0,0.29-0.058,0.382-0.177l0.208,0.233c-0.063,0.09-0.15,0.16-0.257,0.21
		C63.892,7.066,63.773,7.091,63.641,7.091z M63.593,5.79c-0.084,0-0.152,0.028-0.204,0.085c-0.052,0.057-0.085,0.138-0.1,0.244
		h0.588V6.085c-0.002-0.094-0.028-0.167-0.076-0.219C63.752,5.816,63.683,5.79,63.593,5.79z"/>
	<path class="st9" d="M64.847,5.478l0.014,0.183c0.113-0.142,0.264-0.212,0.455-0.212c0.168,0,0.292,0.049,0.375,0.148
		c0.082,0.098,0.124,0.246,0.125,0.442v1.023h-0.423V6.047c0-0.09-0.019-0.155-0.058-0.196C65.295,5.81,65.23,5.79,65.14,5.79
		c-0.119,0-0.208,0.051-0.268,0.152v1.119h-0.422V5.478H64.847z"/>
	<path class="st9" d="M66.568,5.089v0.389h0.271v0.31h-0.271v0.791c0,0.058,0.011,0.1,0.033,0.125
		c0.022,0.026,0.066,0.038,0.129,0.038c0.047,0,0.088-0.004,0.124-0.011v0.321c-0.083,0.026-0.167,0.038-0.256,0.038
		c-0.296,0-0.448-0.15-0.454-0.45V5.788h-0.232v-0.31h0.232v-0.39H66.568z"/>
</g>
<g>
	<path class="st9" d="M26.454,8.972h-0.903v2.445h-0.222V8.972h-0.9V8.784h2.025V8.972z"/>
	<path class="st9" d="M26.951,9.791c0.071-0.117,0.162-0.207,0.273-0.271c0.111-0.064,0.232-0.095,0.363-0.095
		c0.21,0,0.366,0.059,0.468,0.177c0.103,0.118,0.155,0.295,0.155,0.531v1.284h-0.215v-1.286c-0.001-0.175-0.038-0.305-0.111-0.391
		c-0.073-0.085-0.189-0.128-0.35-0.128c-0.134,0-0.252,0.042-0.355,0.125c-0.103,0.083-0.179,0.197-0.229,0.339v1.34h-0.215V8.638
		h0.215V9.79L26.951,9.791L26.951,9.791z"/>
	<path class="st9" d="M29.433,11.453c-0.167,0-0.316-0.041-0.451-0.123c-0.135-0.082-0.239-0.196-0.313-0.343
		c-0.075-0.147-0.113-0.311-0.113-0.492v-0.078c0-0.188,0.036-0.358,0.11-0.508c0.073-0.151,0.175-0.269,0.305-0.355
		c0.13-0.086,0.271-0.13,0.423-0.13c0.237,0,0.426,0.081,0.565,0.243c0.139,0.162,0.209,0.384,0.209,0.665v0.121h-1.396v0.042
		c0,0.222,0.063,0.406,0.19,0.554c0.127,0.147,0.287,0.222,0.48,0.222c0.115,0,0.218-0.021,0.306-0.063
		c0.088-0.042,0.169-0.11,0.241-0.202l0.135,0.103C29.967,11.338,29.736,11.453,29.433,11.453z M29.393,9.609
		c-0.162,0-0.3,0.06-0.411,0.179c-0.111,0.119-0.179,0.279-0.203,0.481h1.173v-0.024c-0.006-0.188-0.06-0.341-0.161-0.459
		C29.69,9.668,29.557,9.609,29.393,9.609z"/>
	<path class="st9" d="M32.805,10.186h-1.228v1.232h-0.222V8.784h1.631v0.188h-1.408v1.026h1.228L32.805,10.186L32.805,10.186z"/>
	<path class="st9" d="M34.513,11.169c-0.13,0.189-0.338,0.284-0.623,0.284c-0.209,0-0.367-0.061-0.475-0.182
		c-0.108-0.121-0.164-0.301-0.167-0.538V9.46h0.215v1.246c0,0.373,0.151,0.559,0.452,0.559c0.313,0,0.511-0.13,0.595-0.389V9.461
		h0.217v1.956h-0.209L34.513,11.169z"/>
	<path class="st9" d="M36.368,10.919c0-0.107-0.043-0.194-0.13-0.259s-0.216-0.116-0.39-0.152c-0.173-0.036-0.308-0.078-0.404-0.127
		c-0.095-0.048-0.167-0.105-0.214-0.175c-0.046-0.068-0.07-0.152-0.07-0.249c0-0.155,0.064-0.282,0.194-0.383
		c0.129-0.1,0.293-0.151,0.495-0.151c0.219,0,0.393,0.054,0.525,0.162c0.132,0.108,0.198,0.249,0.198,0.422h-0.217
		c0-0.114-0.048-0.21-0.144-0.285c-0.095-0.076-0.217-0.114-0.363-0.114c-0.142,0-0.256,0.032-0.343,0.095
		c-0.086,0.063-0.13,0.146-0.13,0.247c0,0.098,0.036,0.173,0.108,0.227c0.071,0.054,0.203,0.103,0.393,0.147
		c0.189,0.045,0.332,0.093,0.427,0.143c0.095,0.051,0.165,0.111,0.21,0.182c0.046,0.071,0.068,0.157,0.068,0.259
		c0,0.165-0.067,0.297-0.2,0.395c-0.133,0.098-0.307,0.148-0.521,0.148c-0.228,0-0.412-0.056-0.554-0.166
		c-0.142-0.11-0.213-0.25-0.213-0.418h0.217c0.008,0.127,0.061,0.225,0.16,0.295c0.098,0.071,0.228,0.106,0.39,0.106
		c0.151,0,0.273-0.033,0.365-0.1C36.322,11.105,36.368,11.021,36.368,10.919z"/>
	<path class="st9" d="M36.967,8.896c0-0.041,0.014-0.076,0.04-0.103c0.026-0.028,0.063-0.042,0.108-0.042
		c0.046,0,0.083,0.014,0.11,0.042c0.027,0.028,0.041,0.063,0.041,0.103s-0.014,0.075-0.041,0.103
		c-0.027,0.028-0.063,0.041-0.11,0.041s-0.082-0.014-0.108-0.041C36.98,8.97,36.967,8.936,36.967,8.896z M37.222,11.417h-0.217V9.46
		h0.217V11.417z"/>
	<path class="st9" d="M37.597,10.41c0-0.188,0.036-0.358,0.11-0.508c0.073-0.151,0.176-0.269,0.309-0.352
		c0.133-0.084,0.284-0.125,0.453-0.125c0.26,0,0.471,0.091,0.633,0.274c0.162,0.182,0.242,0.425,0.242,0.726v0.045
		c0,0.189-0.036,0.36-0.11,0.511c-0.073,0.151-0.176,0.268-0.308,0.35c-0.132,0.082-0.284,0.123-0.454,0.123
		c-0.259,0-0.47-0.091-0.632-0.274c-0.162-0.182-0.243-0.425-0.243-0.726L37.597,10.41L37.597,10.41z M37.814,10.469
		c0,0.234,0.061,0.426,0.182,0.576c0.121,0.15,0.28,0.225,0.477,0.225c0.195,0,0.353-0.076,0.474-0.225
		c0.121-0.15,0.182-0.348,0.182-0.594v-0.042c0-0.15-0.028-0.286-0.083-0.41c-0.056-0.124-0.133-0.22-0.233-0.288
		c-0.1-0.068-0.214-0.103-0.343-0.103c-0.193,0-0.35,0.076-0.472,0.227c-0.122,0.152-0.182,0.349-0.182,0.594
		C37.814,10.429,37.814,10.469,37.814,10.469z"/>
	<path class="st9" d="M39.904,9.46l0.007,0.335c0.073-0.121,0.165-0.213,0.275-0.276c0.11-0.063,0.231-0.095,0.363-0.095
		c0.21,0,0.366,0.059,0.468,0.177c0.103,0.118,0.155,0.295,0.155,0.531v1.284h-0.215v-1.286c-0.001-0.175-0.038-0.305-0.111-0.391
		c-0.073-0.085-0.189-0.128-0.35-0.128c-0.134,0-0.252,0.042-0.355,0.125c-0.103,0.083-0.179,0.197-0.229,0.339v1.34h-0.215V9.46
		C39.697,9.46,39.904,9.46,39.904,9.46z"/>
	<path class="st9" d="M42.328,10.41c0-0.188,0.036-0.358,0.11-0.508c0.073-0.151,0.176-0.269,0.309-0.352
		c0.133-0.084,0.284-0.125,0.453-0.125c0.26,0,0.471,0.091,0.633,0.274c0.161,0.182,0.242,0.425,0.242,0.726v0.045
		c0,0.189-0.036,0.36-0.109,0.511s-0.176,0.268-0.308,0.35c-0.132,0.082-0.284,0.123-0.454,0.123c-0.259,0-0.47-0.091-0.632-0.274
		c-0.162-0.182-0.243-0.425-0.243-0.726V10.41H42.328z M42.545,10.469c0,0.234,0.061,0.426,0.182,0.576
		c0.121,0.15,0.28,0.225,0.477,0.225c0.195,0,0.353-0.076,0.475-0.225c0.121-0.15,0.182-0.348,0.182-0.594v-0.042
		c0-0.15-0.028-0.286-0.083-0.41c-0.056-0.124-0.133-0.22-0.233-0.288c-0.1-0.068-0.214-0.103-0.343-0.103
		c-0.193,0-0.35,0.076-0.472,0.227c-0.122,0.152-0.182,0.349-0.182,0.594L42.545,10.469C42.546,10.469,42.545,10.469,42.545,10.469z
		"/>
	<path class="st9" d="M44.585,11.417v-1.78h-0.323V9.46h0.323V9.223c0-0.2,0.051-0.353,0.152-0.461s0.244-0.161,0.426-0.161
		c0.082,0,0.159,0.011,0.229,0.031L45.376,8.81c-0.06-0.014-0.125-0.022-0.197-0.022c-0.119,0-0.212,0.038-0.278,0.111
		c-0.066,0.074-0.1,0.18-0.1,0.316v0.243h0.467v0.177h-0.466v1.78h-0.217V11.417z"/>
	<path class="st9" d="M48.135,8.972h-0.903v2.445H47.01V8.972h-0.901V8.784h2.025L48.135,8.972L48.135,8.972z"/>
	<path class="st9" d="M48.997,11.453c-0.167,0-0.317-0.041-0.451-0.123c-0.135-0.082-0.239-0.196-0.313-0.343
		c-0.075-0.147-0.112-0.311-0.112-0.492v-0.078c0-0.188,0.036-0.358,0.11-0.508c0.073-0.15,0.175-0.269,0.305-0.355
		c0.13-0.086,0.271-0.13,0.423-0.13c0.237,0,0.426,0.081,0.565,0.243c0.139,0.162,0.209,0.384,0.209,0.665v0.121h-1.396v0.042
		c0,0.222,0.064,0.406,0.191,0.554c0.128,0.147,0.287,0.222,0.48,0.222c0.116,0,0.218-0.021,0.306-0.063
		c0.088-0.042,0.169-0.11,0.241-0.202l0.135,0.103C49.529,11.338,49.299,11.453,48.997,11.453z M48.957,9.609
		c-0.163,0-0.3,0.06-0.411,0.179c-0.111,0.119-0.18,0.279-0.203,0.481h1.173v-0.024c-0.006-0.188-0.06-0.341-0.161-0.459
		C49.254,9.667,49.12,9.609,48.957,9.609z"/>
	<path class="st9" d="M50.782,11.271c0.151,0,0.277-0.043,0.379-0.128c0.102-0.085,0.157-0.194,0.166-0.33h0.208
		c-0.006,0.119-0.043,0.228-0.112,0.326c-0.069,0.098-0.16,0.175-0.274,0.231c-0.114,0.056-0.236,0.083-0.366,0.083
		c-0.257,0-0.46-0.089-0.61-0.268c-0.15-0.178-0.225-0.418-0.225-0.72V10.4c0-0.193,0.034-0.363,0.101-0.511
		c0.067-0.148,0.164-0.263,0.29-0.343c0.125-0.081,0.274-0.121,0.442-0.121c0.214,0,0.391,0.064,0.531,0.192
		c0.14,0.128,0.213,0.296,0.223,0.504h-0.208c-0.01-0.153-0.065-0.276-0.166-0.37c-0.1-0.094-0.227-0.141-0.38-0.141
		c-0.195,0-0.347,0.071-0.454,0.212c-0.108,0.141-0.162,0.339-0.162,0.593v0.063c0,0.249,0.054,0.444,0.162,0.584
		C50.433,11.201,50.586,11.271,50.782,11.271z"/>
	<path class="st9" d="M52.089,9.791c0.071-0.117,0.162-0.207,0.273-0.271c0.111-0.064,0.232-0.095,0.363-0.095
		c0.21,0,0.366,0.059,0.469,0.177s0.154,0.295,0.155,0.531v1.284h-0.216v-1.286c-0.001-0.175-0.038-0.305-0.111-0.391
		c-0.073-0.085-0.189-0.128-0.35-0.128c-0.134,0-0.253,0.042-0.355,0.125c-0.103,0.083-0.18,0.197-0.229,0.339v1.34h-0.215V8.638
		h0.215L52.089,9.791L52.089,9.791z"/>
	<path class="st9" d="M54.02,9.46l0.007,0.335c0.074-0.121,0.165-0.213,0.275-0.276c0.11-0.063,0.232-0.095,0.363-0.095
		c0.21,0,0.366,0.059,0.469,0.177c0.103,0.118,0.154,0.295,0.155,0.531v1.284h-0.215v-1.286c-0.001-0.175-0.038-0.305-0.111-0.391
		c-0.073-0.085-0.189-0.128-0.35-0.128c-0.134,0-0.253,0.042-0.355,0.125c-0.103,0.083-0.18,0.197-0.229,0.339v1.34h-0.215V9.46
		C53.814,9.46,54.02,9.46,54.02,9.46z"/>
	<path class="st9" d="M55.636,10.41c0-0.188,0.036-0.358,0.11-0.508c0.073-0.151,0.176-0.269,0.309-0.352
		c0.133-0.084,0.284-0.125,0.453-0.125c0.26,0,0.471,0.091,0.633,0.274c0.161,0.182,0.242,0.425,0.242,0.726v0.045
		c0,0.189-0.036,0.36-0.11,0.511c-0.073,0.151-0.176,0.268-0.308,0.35c-0.133,0.082-0.284,0.123-0.454,0.123
		c-0.259,0-0.47-0.091-0.632-0.274c-0.162-0.183-0.243-0.425-0.243-0.726L55.636,10.41L55.636,10.41z M55.853,10.469
		c0,0.234,0.061,0.426,0.182,0.576c0.121,0.15,0.28,0.225,0.477,0.225c0.195,0,0.353-0.076,0.475-0.225
		c0.121-0.15,0.182-0.348,0.182-0.594v-0.042c0-0.15-0.028-0.286-0.083-0.41c-0.056-0.124-0.132-0.22-0.233-0.288
		c-0.1-0.068-0.214-0.103-0.343-0.103c-0.193,0-0.35,0.076-0.472,0.227c-0.122,0.152-0.182,0.349-0.182,0.594L55.853,10.469
		L55.853,10.469z"/>
	<path class="st9" d="M57.98,11.417h-0.217V8.639h0.217V11.417z"/>
	<path class="st9" d="M58.356,10.41c0-0.188,0.036-0.358,0.11-0.508c0.073-0.151,0.176-0.269,0.309-0.352
		c0.133-0.084,0.284-0.125,0.453-0.125c0.26,0,0.471,0.091,0.633,0.274c0.161,0.182,0.242,0.425,0.242,0.726v0.045
		c0,0.189-0.036,0.36-0.11,0.511c-0.073,0.151-0.176,0.268-0.308,0.35c-0.132,0.082-0.284,0.123-0.454,0.123
		c-0.259,0-0.47-0.091-0.632-0.274c-0.162-0.182-0.243-0.425-0.243-0.726L58.356,10.41L58.356,10.41z M58.572,10.469
		c0,0.234,0.061,0.426,0.182,0.576c0.121,0.15,0.28,0.225,0.477,0.225c0.195,0,0.353-0.076,0.475-0.225
		c0.121-0.15,0.182-0.348,0.182-0.594v-0.042c0-0.15-0.028-0.286-0.083-0.41c-0.056-0.124-0.132-0.22-0.233-0.288
		c-0.1-0.068-0.214-0.103-0.343-0.103c-0.193,0-0.35,0.076-0.472,0.227c-0.122,0.152-0.182,0.349-0.182,0.594L58.572,10.469
		L58.572,10.469z"/>
	<path class="st9" d="M60.369,10.421c0-0.306,0.068-0.549,0.203-0.728c0.135-0.179,0.32-0.269,0.553-0.269
		c0.266,0,0.469,0.106,0.608,0.318l0.011-0.282h0.203v1.916c0,0.252-0.071,0.452-0.212,0.598s-0.332,0.22-0.573,0.22
		c-0.137,0-0.266-0.031-0.39-0.091c-0.123-0.061-0.221-0.142-0.292-0.243l0.121-0.13c0.153,0.188,0.335,0.282,0.546,0.282
		c0.18,0,0.322-0.053,0.423-0.16c0.101-0.107,0.154-0.254,0.157-0.444v-0.245c-0.139,0.193-0.341,0.289-0.606,0.289
		c-0.227,0-0.409-0.09-0.546-0.271c-0.137-0.181-0.206-0.425-0.206-0.732L60.369,10.421L60.369,10.421z M60.588,10.458
		c0,0.25,0.051,0.447,0.15,0.591c0.1,0.144,0.241,0.216,0.423,0.216c0.266,0,0.454-0.12,0.566-0.358v-0.91
		c-0.051-0.125-0.124-0.222-0.219-0.286c-0.095-0.066-0.21-0.098-0.343-0.098c-0.182,0-0.323,0.071-0.425,0.214
		C60.638,9.97,60.588,10.181,60.588,10.458z"/>
	<path class="st9" d="M63.038,11.106l0.571-1.646h0.234l-0.836,2.29l-0.043,0.101c-0.107,0.238-0.273,0.356-0.497,0.356
		c-0.052,0-0.107-0.009-0.167-0.025l-0.001-0.179l0.112,0.011c0.106,0,0.192-0.026,0.257-0.078c0.066-0.053,0.121-0.142,0.168-0.271
		l0.095-0.264L62.193,9.46h0.237L63.038,11.106z"/>
	<path class="st9" d="M66.128,11.417c-0.022-0.061-0.036-0.152-0.041-0.273c-0.076,0.098-0.172,0.175-0.29,0.229
		c-0.118,0.053-0.242,0.08-0.373,0.08c-0.188,0-0.341-0.053-0.457-0.157c-0.116-0.105-0.175-0.237-0.175-0.398
		c0-0.19,0.078-0.341,0.237-0.452s0.38-0.167,0.663-0.167h0.393v-0.222c0-0.14-0.043-0.25-0.13-0.331
		c-0.085-0.08-0.212-0.12-0.378-0.12c-0.151,0-0.276,0.039-0.375,0.116c-0.099,0.077-0.148,0.17-0.148,0.279l-0.217-0.002
		c0-0.155,0.072-0.29,0.217-0.404c0.145-0.114,0.323-0.17,0.534-0.17c0.218,0,0.39,0.055,0.516,0.164
		c0.125,0.11,0.19,0.261,0.194,0.457v0.925c0,0.189,0.02,0.331,0.06,0.425v0.022C66.359,11.417,66.128,11.417,66.128,11.417z
		 M65.447,11.262c0.145,0,0.274-0.035,0.388-0.105s0.197-0.164,0.249-0.281v-0.43h-0.387c-0.216,0.002-0.385,0.042-0.506,0.118
		c-0.122,0.076-0.182,0.182-0.182,0.316c0,0.11,0.041,0.201,0.122,0.274C65.212,11.225,65.318,11.262,65.447,11.262z"/>
	<path class="st9" d="M66.99,9.46l0.007,0.335c0.074-0.121,0.165-0.213,0.275-0.276c0.11-0.063,0.232-0.095,0.363-0.095
		c0.21,0,0.366,0.059,0.469,0.177c0.103,0.118,0.154,0.295,0.155,0.531v1.284h-0.215v-1.286c-0.001-0.175-0.038-0.305-0.111-0.391
		c-0.073-0.085-0.189-0.128-0.35-0.128c-0.134,0-0.253,0.042-0.355,0.125c-0.103,0.083-0.18,0.197-0.229,0.339v1.34h-0.215V9.46
		C66.784,9.46,66.99,9.46,66.99,9.46z"/>
	<path class="st9" d="M68.638,10.421c0-0.304,0.068-0.546,0.203-0.726c0.135-0.18,0.32-0.271,0.553-0.271
		c0.264,0,0.465,0.104,0.604,0.313V8.639h0.215v2.778H70.01l-0.009-0.26c-0.139,0.197-0.343,0.296-0.611,0.296
		c-0.226,0-0.407-0.09-0.546-0.272c-0.138-0.182-0.207-0.427-0.207-0.735L68.638,10.421L68.638,10.421z M68.858,10.458
		c0,0.25,0.051,0.447,0.15,0.591c0.1,0.144,0.241,0.216,0.423,0.216c0.266,0,0.455-0.118,0.567-0.353V9.993
		c-0.112-0.254-0.3-0.382-0.564-0.382c-0.182,0-0.323,0.071-0.425,0.214C68.908,9.97,68.858,10.181,68.858,10.458z"/>
	<path class="st9" d="M71.773,11.229h1.3v0.188H71.55V8.784h0.224L71.773,11.229L71.773,11.229z"/>
	<path class="st9" d="M74.115,11.453c-0.166,0-0.317-0.041-0.451-0.123c-0.135-0.082-0.239-0.196-0.313-0.343
		c-0.075-0.147-0.112-0.311-0.112-0.492v-0.078c0-0.188,0.036-0.358,0.109-0.508c0.073-0.15,0.175-0.269,0.305-0.355
		c0.13-0.086,0.271-0.13,0.423-0.13c0.237,0,0.426,0.081,0.565,0.243c0.139,0.162,0.209,0.384,0.209,0.665v0.121h-1.396v0.042
		c0,0.222,0.064,0.406,0.191,0.554c0.128,0.147,0.287,0.222,0.48,0.222c0.116,0,0.218-0.021,0.306-0.063s0.169-0.11,0.241-0.202
		l0.135,0.103C74.648,11.338,74.417,11.453,74.115,11.453z M74.075,9.609c-0.163,0-0.3,0.06-0.411,0.179
		c-0.112,0.119-0.18,0.279-0.203,0.481h1.173v-0.024c-0.006-0.188-0.06-0.341-0.161-0.459C74.371,9.668,74.239,9.609,74.075,9.609z"
		/>
	<path class="st9" d="M76.412,11.417c-0.022-0.061-0.036-0.152-0.041-0.273c-0.076,0.098-0.172,0.175-0.29,0.229
		c-0.118,0.053-0.242,0.08-0.373,0.08c-0.188,0-0.341-0.053-0.457-0.157c-0.116-0.105-0.175-0.237-0.175-0.398
		c0-0.19,0.078-0.341,0.237-0.452s0.38-0.167,0.663-0.167h0.393v-0.222c0-0.14-0.043-0.25-0.13-0.331
		c-0.085-0.08-0.212-0.12-0.378-0.12c-0.151,0-0.276,0.039-0.375,0.116S75.34,9.891,75.34,10l-0.217-0.002
		c0-0.155,0.072-0.29,0.217-0.404c0.145-0.114,0.323-0.17,0.534-0.17c0.218,0,0.39,0.055,0.516,0.164
		c0.125,0.11,0.19,0.261,0.194,0.457v0.925c0,0.189,0.02,0.331,0.06,0.425v0.022C76.644,11.417,76.412,11.417,76.412,11.417z
		 M75.733,11.262c0.145,0,0.274-0.035,0.388-0.105c0.114-0.07,0.197-0.164,0.249-0.281v-0.43h-0.387
		c-0.216,0.002-0.385,0.042-0.506,0.118c-0.122,0.076-0.182,0.182-0.182,0.316c0,0.11,0.041,0.201,0.122,0.274
		C75.497,11.225,75.602,11.262,75.733,11.262z"/>
	<path class="st9" d="M77.973,9.645c-0.046-0.008-0.095-0.013-0.147-0.013c-0.135,0-0.25,0.038-0.343,0.113
		c-0.093,0.076-0.16,0.185-0.2,0.328v1.344h-0.215V9.46h0.212l0.004,0.311c0.114-0.232,0.298-0.347,0.551-0.347
		c0.06,0,0.108,0.008,0.143,0.024L77.973,9.645z"/>
	<path class="st9" d="M78.428,9.46l0.007,0.335c0.074-0.121,0.165-0.213,0.275-0.276c0.11-0.063,0.232-0.095,0.363-0.095
		c0.21,0,0.366,0.059,0.469,0.177c0.103,0.118,0.154,0.295,0.155,0.531v1.284h-0.215v-1.286c-0.001-0.175-0.038-0.305-0.111-0.391
		c-0.073-0.085-0.189-0.128-0.35-0.128c-0.134,0-0.253,0.042-0.355,0.125c-0.103,0.083-0.18,0.197-0.229,0.339v1.34h-0.215V9.46
		C78.223,9.46,78.428,9.46,78.428,9.46z"/>
	<path class="st9" d="M80.151,8.896c0-0.041,0.014-0.076,0.04-0.103c0.026-0.028,0.063-0.042,0.108-0.042
		c0.046,0,0.083,0.014,0.11,0.042c0.027,0.028,0.041,0.063,0.041,0.103s-0.014,0.075-0.041,0.103
		c-0.027,0.028-0.064,0.041-0.11,0.041c-0.046,0-0.082-0.014-0.108-0.041C80.164,8.97,80.151,8.936,80.151,8.896z M80.406,11.417
		h-0.217V9.46h0.217V11.417z"/>
	<path class="st9" d="M81.107,9.46l0.007,0.335c0.074-0.121,0.165-0.213,0.275-0.276c0.11-0.063,0.232-0.095,0.363-0.095
		c0.21,0,0.366,0.059,0.469,0.177c0.103,0.118,0.154,0.295,0.155,0.531v1.284h-0.215v-1.286C82.16,9.956,82.123,9.826,82.05,9.74
		c-0.073-0.085-0.189-0.128-0.35-0.128c-0.134,0-0.253,0.042-0.355,0.125c-0.103,0.083-0.18,0.197-0.229,0.339v1.34h-0.215V9.46
		C80.901,9.46,81.107,9.46,81.107,9.46z"/>
	<path class="st9" d="M82.756,10.421c0-0.306,0.068-0.549,0.203-0.728c0.135-0.179,0.32-0.269,0.553-0.269
		c0.266,0,0.469,0.106,0.608,0.318L84.13,9.46h0.203v1.916c0,0.252-0.071,0.452-0.212,0.598c-0.141,0.147-0.332,0.22-0.573,0.22
		c-0.137,0-0.266-0.031-0.39-0.091c-0.123-0.061-0.221-0.142-0.292-0.243l0.121-0.13c0.153,0.188,0.335,0.282,0.546,0.282
		c0.18,0,0.322-0.053,0.423-0.16s0.154-0.254,0.157-0.444v-0.245c-0.139,0.193-0.341,0.289-0.606,0.289
		c-0.227,0-0.409-0.09-0.546-0.271c-0.137-0.181-0.206-0.425-0.206-0.732L82.756,10.421L82.756,10.421z M82.975,10.458
		c0,0.25,0.051,0.447,0.15,0.591c0.1,0.144,0.241,0.216,0.423,0.216c0.266,0,0.454-0.12,0.566-0.358v-0.91
		c-0.051-0.125-0.124-0.222-0.219-0.286c-0.095-0.066-0.21-0.098-0.343-0.098c-0.182,0-0.323,0.071-0.425,0.214
		C83.025,9.97,82.975,10.181,82.975,10.458z"/>
</g>
</svg>
