<?xml version="1.0" encoding="utf-8"?>
<!-- Generator: Adobe Illustrator 23.0.1, SVG Export Plug-In . SVG Version: 6.00 Build 0)  -->
<svg version="1.1" id="Layer_1" xmlns="http://www.w3.org/2000/svg" xmlns:xlink="http://www.w3.org/1999/xlink" x="0px" y="0px"
	 viewBox="0 0 181 42" style="enable-background:new 0 0 181 42;" xml:space="preserve">
<style type="text/css">
	.st0{fill:#BE2328;}
</style>
<g>
	<path class="st0" d="M174.472,1.043v9.067c-1.641-0.877-3.508-1.377-5.496-1.377c-6.481,0-11.733,5.3-11.733,11.839
		c0,6.539,5.252,11.839,11.733,11.839c1.988,0,3.855-0.5,5.496-1.377v1.377h6.237V1.043H174.472z M169.104,26.138
		c-2.963,0-5.365-2.425-5.365-5.418c0.002-2.993,2.405-5.418,5.365-5.418c2.963,0,5.365,2.425,5.365,5.418
		S172.067,26.138,169.104,26.138z"/>
	<path class="st0" d="M145.238,9.589c-1.988,0-3.858,0.5-5.496,1.377V9.589h-6.237v31.368h6.237V31.89
		c1.641,0.877,3.508,1.377,5.496,1.377c6.481,0,11.733-5.3,11.733-11.839C156.971,14.89,151.719,9.589,145.238,9.589z
		 M145.107,26.693c-2.963,0-5.365-2.425-5.365-5.415s2.405-5.415,5.365-5.415c2.963,0,5.365,2.425,5.365,5.415
		S148.07,26.693,145.107,26.693z"/>
	<path class="st0" d="M116.444,3.38c-9.188,0-16.636,7.574-16.636,16.92s7.451,16.925,16.636,16.925s16.634-7.577,16.634-16.923
		C133.077,10.959,125.631,3.38,116.444,3.38z M112.822,29.522c-1.54,0.003-1.214-18.355,0-18.355c1.216,0,13.281,6.971,13.281,9.177
		C126.104,22.549,114.365,29.522,112.822,29.522z"/>
</g>
<g>
	<path class="st0" d="M4.189,22.439v5.42H1.019V12.478h6c1.155,0,2.171,0.211,3.048,0.634c0.876,0.423,1.551,1.023,2.023,1.801
		c0.472,0.778,0.708,1.664,0.708,2.657c0,1.507-0.516,2.696-1.548,3.565s-2.46,1.304-4.284,1.304H4.189z M4.189,19.873H7.02
		c0.838,0,1.478-0.197,1.917-0.592c0.44-0.395,0.661-0.958,0.661-1.69c0-0.753-0.222-1.363-0.666-1.828
		c-0.444-0.465-1.057-0.704-1.838-0.718H4.189V19.873z"/>
	<path class="st0" d="M19.657,19.292c-0.416-0.057-0.782-0.084-1.099-0.084c-1.155,0-1.913,0.391-2.271,1.172v7.479h-3.053V16.429
		h2.884l0.085,1.363c0.612-1.049,1.461-1.574,2.546-1.574c0.338,0,0.655,0.046,0.951,0.138L19.657,19.292z"/>
	<path class="st0" d="M20.563,13.471c0-0.458,0.153-0.834,0.46-1.13c0.306-0.296,0.724-0.444,1.252-0.444
		c0.521,0,0.937,0.148,1.247,0.444c0.31,0.296,0.465,0.672,0.465,1.13c0,0.465-0.157,0.845-0.47,1.141
		c-0.313,0.296-0.728,0.443-1.241,0.443c-0.515,0-0.928-0.147-1.242-0.443S20.563,13.936,20.563,13.471z M23.807,27.859h-3.064
		V16.429h3.064V27.859z"/>
	<path class="st0" d="M29.869,25.609c0.563,0,1.021-0.155,1.374-0.465c0.352-0.311,0.535-0.722,0.549-1.236h2.863
		c-0.007,0.775-0.219,1.484-0.634,2.129s-0.984,1.145-1.706,1.5c-0.722,0.355-1.52,0.533-2.393,0.533
		c-1.634,0-2.923-0.519-3.867-1.558s-1.416-2.474-1.416-4.306v-0.2c0-1.761,0.468-3.166,1.405-4.215
		c0.937-1.049,2.222-1.574,3.856-1.574c1.43,0,2.576,0.407,3.439,1.22c0.863,0.814,1.301,1.896,1.315,3.249h-2.863
		c-0.014-0.595-0.197-1.078-0.549-1.45c-0.353-0.372-0.817-0.558-1.395-0.558c-0.711,0-1.249,0.259-1.611,0.777
		c-0.363,0.519-0.544,1.36-0.544,2.524v0.317c0,1.178,0.18,2.024,0.539,2.539C28.591,25.352,29.137,25.609,29.869,25.609z"/>
	<path class="st0" d="M40.897,28.07c-1.676,0-3.041-0.514-4.094-1.542c-1.053-1.028-1.58-2.398-1.58-4.109v-0.296
		c0-1.148,0.222-2.174,0.666-3.08c0.444-0.905,1.072-1.602,1.886-2.092c0.813-0.489,1.741-0.734,2.784-0.734
		c1.564,0,2.794,0.493,3.692,1.479c0.898,0.986,1.347,2.384,1.347,4.194v1.246h-7.279c0.099,0.747,0.396,1.346,0.893,1.796
		c0.497,0.451,1.125,0.677,1.886,0.677c1.176,0,2.095-0.427,2.757-1.278l1.5,1.68c-0.458,0.647-1.078,1.153-1.859,1.516
		C42.714,27.89,41.848,28.07,40.897,28.07z M40.548,18.679c-0.606,0-1.097,0.205-1.474,0.615c-0.376,0.411-0.618,0.998-0.724,1.762
		h4.247v-0.244c-0.014-0.679-0.197-1.205-0.549-1.576C41.696,18.865,41.196,18.679,40.548,18.679z"/>
</g>
<g>
	<path class="st0" d="M64.096,23.734l1.664-8.074h3.27l-3.234,12.679H62.96l-2.402-7.98l-2.402,7.98h-2.824L52.096,15.66h3.269
		l1.652,8.062l2.32-8.062h2.449L64.096,23.734z"/>
	<path class="st0" d="M69.582,12.379c0-0.508,0.17-0.926,0.51-1.254c0.34-0.328,0.803-0.492,1.389-0.492
		c0.578,0,1.039,0.164,1.383,0.492c0.343,0.328,0.516,0.746,0.516,1.254c0,0.516-0.174,0.937-0.522,1.266
		c-0.348,0.328-0.807,0.492-1.377,0.492c-0.571,0-1.03-0.164-1.377-0.492C69.756,13.316,69.582,12.895,69.582,12.379z M73.18,28.339
		h-3.398V15.66h3.398V28.339z"/>
	<path class="st0" d="M79.257,12.543v3.117h2.168v2.484h-2.168v6.327c0,0.468,0.09,0.805,0.27,1.007
		c0.179,0.204,0.523,0.305,1.031,0.305c0.375,0,0.707-0.028,0.996-0.082v2.566c-0.664,0.204-1.348,0.304-2.051,0.304
		c-2.375,0-3.586-1.199-3.632-3.597v-6.831h-1.852V15.66h1.852v-3.117C75.871,12.543,79.257,12.543,79.257,12.543z"/>
	<path class="st0" d="M85.905,17.043c0.898-1.078,2.027-1.617,3.387-1.617c2.75,0,4.144,1.598,4.183,4.793v8.12h-3.387v-8.045
		c0-0.728-0.156-1.267-0.468-1.615c-0.312-0.348-0.832-0.523-1.559-0.523c-0.992,0-1.711,0.383-2.156,1.151v9.032h-3.387V10.34
		h3.387V17.043z"/>
</g>
</svg>
