<?xml version="1.0" encoding="utf-8"?>
<!-- Generator: Adobe Illustrator 23.0.1, SVG Export Plug-In . SVG Version: 6.00 Build 0)  -->
<svg version="1.1" id="Layer_1" xmlns="http://www.w3.org/2000/svg" xmlns:xlink="http://www.w3.org/1999/xlink" x="0px" y="0px"
	 viewBox="0 0 6 6" style="enable-background:new 0 0 6 6;" xml:space="preserve">
<style type="text/css">
	.st0{fill:#3C4852;}
</style>
<g>
	<polygon class="st0" points="2.589,2.184 2.588,2.183 2.587,2.184 2.588,2.185 	"/>
	<path class="st0" d="M5.679,2.452C5.677,2.434,5.668,2.421,5.652,2.409C5.539,2.324,5.427,2.238,5.314,2.153
		C5.285,2.132,5.258,2.107,5.223,2.092c-0.011-0.005-0.02-0.006-0.024,0.004C5.188,2.123,5.166,2.149,5.188,2.18
		c0.005,0.007,0.009,0.02,0.002,0.023C5.165,2.213,5.173,2.225,5.182,2.241c0.005,0.008,0.003,0.02-0.007,0.026
		c-0.01,0.006-0.019-0.002-0.026-0.008c-0.012-0.011-0.027-0.02-0.033-0.036h0C5.104,2.217,5.096,2.21,5.092,2.198
		c-0.02-0.013-0.028-0.032-0.036-0.051C5.047,2.125,5.039,2.102,5.03,2.08C5.025,2.067,5.018,2.056,5.005,2.049
		c-0.012-0.006-0.01-0.014,0.002-0.017C5.026,2.027,5.025,2.017,5.02,2.003C5.01,1.979,4.993,1.958,4.976,1.938
		C4.962,1.921,4.939,1.924,4.917,1.93C4.917,1.936,4.912,1.941,4.92,1.948c0.018,0.015,0.014,0.036-0.007,0.047
		C4.903,2.001,4.891,2.003,4.878,2.003c-0.025,0-0.048-0.004-0.072-0.01C4.789,1.99,4.779,1.981,4.789,1.963
		c0.006-0.01,0.001-0.016-0.008-0.017C4.762,1.944,4.745,1.936,4.728,1.929C4.714,1.924,4.702,1.924,4.692,1.937
		C4.685,1.944,4.674,1.953,4.671,1.934C4.669,1.926,4.665,1.925,4.658,1.93c-0.011,0.008-0.02,0.004-0.025-0.007
		c-0.005-0.009-0.01-0.011-0.019-0.004L4.613,1.92c-0.022,0.008-0.022-0.01-0.029-0.02C4.581,1.9,4.578,1.899,4.576,1.898
		c-0.033-0.021-0.033-0.021-0.06,0.003C4.503,1.913,4.489,1.915,4.473,1.913C4.472,1.914,4.47,1.916,4.469,1.917
		C4.455,1.926,4.447,1.933,4.467,1.946c0.012,0.008-0.001,0.026-0.026,0.037C4.438,1.986,4.435,1.989,4.432,1.991
		c-0.003,0.01-0.004,0.021-0.015,0.027L4.416,2.019c-0.018,0.008-0.03,0.002-0.044-0.023c-0.008-0.015,0.003-0.017,0.015-0.02l0,0
		c-0.002-0.02-0.023-0.033-0.028-0.052C4.357,1.916,4.347,1.918,4.343,1.925C4.338,1.931,4.334,1.937,4.33,1.944L4.329,1.945
		C4.325,1.952,4.318,1.953,4.314,1.95c-0.01-0.009-0.014,0-0.02,0.003L4.292,1.953C4.276,1.966,4.259,1.968,4.241,1.958
		C4.233,1.955,4.227,1.946,4.217,1.956c-0.009,0.01-0.003,0.017,0.003,0.026C4.23,1.993,4.244,2.003,4.229,2.018L4.228,2.02
		C4.215,2.032,4.199,2.04,4.182,2.045C4.162,2.05,4.164,2.058,4.175,2.07C4.19,2.084,4.204,2.094,4.228,2.087
		C4.256,2.08,4.266,2.089,4.26,2.114C4.258,2.123,4.258,2.13,4.267,2.136c0.016,0.01,0.015,0.022,0.006,0.036
		C4.269,2.177,4.266,2.183,4.263,2.189c-0.013,0.022-0.01,0.046,0.011,0.062C4.287,2.263,4.303,2.27,4.32,2.276
		c0.008,0.002,0.018,0,0.02,0.01c0.001,0.009-0.004,0.016-0.013,0.019C4.325,2.307,4.324,2.308,4.322,2.31
		c-0.025,0.022-0.057,0.035-0.09,0.044C4.214,2.36,4.195,2.346,4.18,2.336C4.169,2.328,4.155,2.322,4.149,2.31
		C4.146,2.307,4.143,2.304,4.14,2.301c-0.022-0.014-0.025-0.04-0.041-0.058C4.093,2.236,4.092,2.224,4.076,2.235
		C4.068,2.242,4.057,2.234,4.05,2.229C4.028,2.213,4.007,2.214,3.984,2.228C3.962,2.242,3.938,2.254,3.916,2.269
		C3.897,2.282,3.887,2.278,3.88,2.259c-0.006-0.016-0.013-0.032-0.011-0.05C3.87,2.198,3.867,2.192,3.852,2.196
		C3.836,2.2,3.793,2.176,3.792,2.161c0-0.015,0.018-0.021,0.027-0.031c0.007-0.007,0.01,0.001,0.014,0.004
		c0.004,0.003,0.006,0.013,0.016,0.007C3.857,2.137,3.853,2.13,3.851,2.124C3.835,2.121,3.825,2.11,3.814,2.101
		C3.795,2.085,3.758,2.094,3.75,2.117C3.747,2.127,3.746,2.14,3.73,2.136C3.714,2.131,3.719,2.118,3.724,2.108
		c0.004-0.01,0.009-0.02,0.022-0.025C3.753,2.072,3.768,2.074,3.78,2.07C3.79,2.067,3.803,2.064,3.805,2.052
		c0.003-0.013-0.01-0.016-0.019-0.02C3.77,2.025,3.758,2.011,3.737,2.014C3.737,2.025,3.758,2.035,3.74,2.043
		c-0.014,0.006-0.02-0.011-0.027-0.02C3.71,2.019,3.707,2.014,3.703,2.009c-0.02-0.021-0.032-0.02-0.05,0.001
		C3.65,2.013,3.647,2.014,3.644,2.016l0,0c0,0.005-0.004,0.007-0.008,0.009C3.616,2.034,3.603,2.047,3.597,2.066
		c-0.003,0.01-0.01,0.02-0.022,0.024l0,0C3.571,2.101,3.559,2.105,3.55,2.111C3.529,2.124,3.508,2.136,3.486,2.148
		C3.471,2.156,3.456,2.159,3.447,2.14C3.443,2.136,3.438,2.132,3.434,2.128C3.421,2.126,3.414,2.13,3.415,2.142
		C3.416,2.153,3.41,2.161,3.402,2.169C3.386,2.185,3.388,2.193,3.407,2.206c0.027,0.019,0.027,0.029-0.005,0.04
		C3.365,2.26,3.346,2.286,3.326,2.314c-0.035,0.05-0.067,0.101-0.1,0.152C3.223,2.472,3.22,2.478,3.213,2.479
		C3.205,2.486,3.198,2.493,3.19,2.5C3.18,2.522,3.163,2.542,3.157,2.567C3.154,2.581,3.154,2.594,3.154,2.609
		c0.02-0.005,0.037-0.012,0.053-0.022C3.234,2.572,3.261,2.571,3.29,2.585c0.014,0.007,0.021,0.021,0.034,0.029
		C3.307,2.604,3.289,2.596,3.27,2.588C3.253,2.581,3.233,2.585,3.215,2.594c-0.01,0.005-0.02,0.01-0.03,0.014
		C3.151,2.622,3.148,2.627,3.156,2.66c0.001,0.007,0.003,0.014,0.005,0.02c0.016,0.036,0.007,0.067-0.014,0.1
		C3.125,2.815,3.108,2.852,3.09,2.889C3.08,2.91,3.084,2.931,3.097,2.95c0.008,0.012,0.015,0.024,0.019,0.037
		c0.002,0.007,0,0.013-0.007,0.016C3.102,3.008,3.096,3.006,3.094,2.998c-0.001,0-0.002-0.001-0.002-0.001
		c-0.013-0.004-0.01-0.015-0.014-0.024c-0.002-0.004-0.001-0.01-0.003-0.014C3.073,2.949,3.07,2.935,3.06,2.932
		C3.05,2.929,3.05,2.945,3.042,2.95C3.04,2.952,3.037,2.953,3.035,2.954l0,0C3.027,2.967,3.014,2.973,3,2.977
		c-0.038,0.01-0.076,0.015-0.114,0.002C2.872,2.973,2.861,2.972,2.854,2.989C2.849,3.001,2.836,3.009,2.828,3.019
		C2.819,3.03,2.817,3.042,2.815,3.054C2.808,3.109,2.773,3.15,2.736,3.19C2.734,3.192,2.731,3.193,2.728,3.194l0,0
		c-0.02,0.022-0.049,0.032-0.073,0.049C2.641,3.252,2.626,3.259,2.614,3.27C2.59,3.291,2.595,3.32,2.622,3.337
		c0.025,0.015,0.055,0.026,0.062,0.057c0.003,0.012,0.003,0.023-0.008,0.032c0,0.001-0.001,0.002-0.002,0.002
		c-0.023,0.011-0.041,0.003-0.042-0.02C2.631,3.399,2.634,3.389,2.621,3.38c0.005,0.018,0.005,0.034,0.007,0.05
		C2.63,3.45,2.653,3.46,2.671,3.447c0.021-0.015,0.046-0.027,0.06-0.05c0.005-0.009,0.011-0.023,0.023-0.019
		c0.014,0.004,0.003,0.018,0.002,0.029C2.769,3.403,2.78,3.4,2.792,3.397l0,0c0-0.006,0.005-0.01,0.008-0.014
		c0.003-0.005,0.006-0.011,0.013-0.009c0.009,0.003,0.002,0.009,0.002,0.014c0,0.006-0.004,0.013,0.003,0.017
		c0.007,0.005,0.01,0.01,0.006,0.018C2.82,3.431,2.812,3.43,2.803,3.43c-0.006,0-0.012,0-0.018,0
		C2.782,3.437,2.789,3.438,2.793,3.44c0.009,0.005,0.015,0.01,0.009,0.02C2.795,3.468,2.788,3.473,2.776,3.467
		c-0.004-0.002-0.007-0.01-0.012,0.001c-0.007,0.018-0.02,0.015-0.032,0.002l0,0C2.711,3.457,2.692,3.459,2.673,3.475
		C2.663,3.484,2.66,3.49,2.675,3.497c0.005,0.002,0.009,0.005,0.014,0.008c0.007,0.005,0.01,0.013,0.006,0.02
		c-0.006,0.008-0.016,0.005-0.022,0C2.663,3.518,2.657,3.515,2.647,3.523C2.634,3.532,2.633,3.512,2.622,3.512
		C2.62,3.513,2.619,3.515,2.617,3.516C2.612,3.53,2.6,3.539,2.586,3.545C2.584,3.546,2.582,3.548,2.581,3.549
		C2.58,3.552,2.579,3.555,2.577,3.557C2.562,3.57,2.556,3.581,2.58,3.592C2.585,3.595,2.59,3.601,2.586,3.608
		C2.582,3.614,2.577,3.614,2.57,3.612C2.553,3.608,2.552,3.617,2.555,3.628c0.002,0.007,0.006,0.014-0.003,0.018
		C2.543,3.651,2.535,3.649,2.527,3.642C2.519,3.636,2.511,3.624,2.5,3.638C2.488,3.651,2.495,3.66,2.509,3.668
		C2.512,3.67,2.516,3.671,2.518,3.674c0.004,0.003,0.007,0.008,0.005,0.013C2.52,3.692,2.513,3.691,2.508,3.689
		C2.496,3.684,2.484,3.682,2.471,3.685C2.47,3.687,2.468,3.688,2.466,3.69C2.45,3.724,2.437,3.759,2.418,3.792
		C2.373,3.869,2.379,3.946,2.415,4.024c0.013,0.028,0.032,0.054,0.037,0.084c0,0.003,0.001,0.006,0.005,0.005
		c0.018-0.001,0.03,0.01,0.042,0.018c0.037,0.024,0.082,0.026,0.124,0.033c0.054,0.01,0.1,0.028,0.129,0.073
		C2.757,4.245,2.762,4.26,2.779,4.25c0-0.001,0.001-0.001,0.002-0.001c0.011-0.01,0.021-0.006,0.029,0.002
		C2.823,4.263,2.81,4.271,2.8,4.279C2.805,4.28,2.808,4.28,2.81,4.28c0.007,0,0.016-0.008,0.021,0
		C2.836,4.287,2.828,4.294,2.823,4.3C2.822,4.301,2.82,4.302,2.82,4.303c0.005,0.02-0.002,0.034-0.026,0.041
		C2.788,4.346,2.793,4.357,2.798,4.362c0.016,0.02,0.04,0.023,0.064,0.017c0.015-0.004,0.022,0,0.026,0.012
		C2.89,4.402,2.898,4.41,2.909,4.416c0.008,0.004,0.013,0.011,0.01,0.019c-0.005,0.01-0.013,0.002-0.019,0
		C2.895,4.432,2.89,4.434,2.885,4.436C2.875,4.44,2.864,4.439,2.854,4.435C2.828,4.422,2.799,4.419,2.77,4.417
		c-0.005,0-0.011,0.001-0.015-0.003c-0.008-0.008-0.014-0.006-0.02,0.002C2.729,4.423,2.719,4.421,2.71,4.424
		c-0.031,0.009-0.034,0.02-0.031,0.049C2.682,4.498,2.696,4.5,2.717,4.501C2.73,4.502,2.744,4.505,2.753,4.514
		C2.779,4.543,2.815,4.54,2.851,4.54c0.065,0,0.125-0.023,0.188-0.032c0.085-0.013,0.17-0.031,0.257-0.033
		c0.031-0.001,0.063-0.01,0.094-0.014c0.017-0.002,0.035-0.007,0.051,0.003c0.004,0.003,0.007,0.001,0.01-0.002
		c0.013-0.011,0.011-0.024,0.007-0.038c-0.004-0.012-0.01-0.02-0.025-0.019C3.42,4.406,3.406,4.406,3.392,4.406
		c-0.006,0-0.016,0.002-0.017-0.006C3.374,4.39,3.385,4.392,3.391,4.392C3.409,4.39,3.427,4.39,3.445,4.387
		C3.457,4.386,3.468,4.38,3.479,4.376l0,0c0.011-0.015,0.026-0.014,0.042-0.009c0.03,0.01,0.058,0.024,0.086,0.037
		c0.007,0.003,0.014,0.01,0.019-0.003C3.63,4.393,3.638,4.396,3.644,4.398C3.667,4.406,3.671,4.402,3.667,4.38
		C3.666,4.379,3.664,4.377,3.663,4.376C3.655,4.374,3.652,4.369,3.65,4.363C3.647,4.355,3.643,4.345,3.654,4.342
		c0.011-0.003,0.015,0.006,0.016,0.014l0,0c0.015,0.002,0.022-0.011,0.033-0.017c0.006-0.003,0.003-0.007,0-0.01
		C3.701,4.325,3.696,4.321,3.703,4.317c0.005-0.003,0.011,0,0.014,0.004c0.012,0.016,0.024,0.017,0.041,0.004
		c0.013-0.01,0.023-0.002,0.026,0.011C3.786,4.347,3.79,4.358,3.8,4.366C3.81,4.375,3.818,4.386,3.811,4.399
		C3.803,4.414,3.789,4.414,3.774,4.412c0,0,0,0,0,0C3.771,4.41,3.769,4.408,3.766,4.406C3.76,4.398,3.754,4.39,3.741,4.392
		c-0.003,0-0.006,0.004-0.004,0.006C3.742,4.406,3.752,4.409,3.762,4.41c0.003,0.001,0.006,0.002,0.01,0.003c0,0,0,0,0,0
		c0.014,0.008,0.028,0.016,0.037,0.03c0.007,0.01,0.018,0.014,0.03,0.007C3.88,4.427,3.93,4.422,3.975,4.406
		c0.028-0.01,0.033-0.017,0.023-0.042C3.976,4.31,3.958,4.254,3.933,4.2C3.924,4.181,3.92,4.16,3.915,4.141l0,0
		C3.889,4.139,3.863,4.138,3.837,4.138c-0.011,0-0.023,0.003-0.033,0.008C3.796,4.151,3.788,4.149,3.782,4.142
		c-0.006-0.008-0.003-0.017,0.003-0.02c0.028-0.013,0.049-0.041,0.086-0.039c0.021,0.001,0.02-0.007,0.011-0.019
		C3.857,4.028,3.833,3.994,3.81,3.958c-0.006-0.01-0.02-0.022-0.003-0.032c0.017-0.011,0.03-0.003,0.04,0.011
		c0.003,0.004,0.005,0.01,0.012,0.007c0.006-0.002,0.01-0.007,0.01-0.013c0-0.009,0-0.018,0-0.027c0-0.008,0.004-0.018,0.013-0.015
		c0.019,0.006,0.022-0.004,0.029-0.015C3.915,3.869,3.92,3.863,3.928,3.86l0,0c0.02-0.01,0.021-0.03,0.032-0.044
		c0.009-0.011,0.017-0.022,0.034-0.012c0.003,0.002,0.008,0.003,0.01-0.001C4.009,3.796,4.006,3.79,4,3.786
		c-0.016-0.01-0.025-0.023-0.031-0.042c0.023,0.012,0.04,0.027,0.057,0.041c0.006,0.005,0.011,0.009,0.016-0.001
		C4.049,3.77,4.064,3.765,4.08,3.76c0.002-0.001,0.003-0.003,0.005-0.004C4.087,3.744,4.079,3.735,4.07,3.728
		C4.048,3.712,4.034,3.691,4.025,3.667C4.023,3.663,4.019,3.656,4.026,3.652c0.006-0.004,0.012,0,0.017,0.003
		c0.005,0.003,0.011,0.006,0.014,0.01c0.01,0.019,0.025,0.019,0.042,0.009C4.1,3.672,4.101,3.671,4.103,3.669
		C4.106,3.653,4.096,3.64,4.088,3.622C4.113,3.63,4.118,3.647,4.124,3.663c0.003,0.007-0.004,0.023,0.01,0.02
		c0.014-0.003,0.037-0.001,0.039-0.019c0.003-0.023,0.007-0.046-0.001-0.069C4.168,3.584,4.161,3.575,4.15,3.57
		c-0.013-0.006-0.027-0.011-0.02-0.029c0-0.001,0-0.003-0.001-0.004C4.094,3.516,4.126,3.515,4.139,3.508
		c0.01-0.006,0.018-0.013,0.032-0.014c0.009,0,0.006-0.008,0.001-0.012C4.165,3.476,4.158,3.471,4.165,3.462
		c0.006-0.008,0.012-0.007,0.022-0.005c0.015,0.004,0.01-0.005,0.008-0.013C4.19,3.421,4.177,3.399,4.174,3.374
		C4.157,3.382,4.15,3.376,4.148,3.36C4.146,3.338,4.139,3.315,4.132,3.294C4.128,3.282,4.123,3.26,4.101,3.255
		C4.096,3.253,4.094,3.248,4.094,3.243C4.089,3.198,4.071,3.156,4.068,3.111c-0.001-0.01-0.004-0.012-0.016-0.009
		C4.016,3.112,3.988,3.13,3.962,3.155C3.929,3.186,3.889,3.21,3.851,3.236c-0.015,0.01-0.016-0.007-0.023-0.011
		c-0.001,0-0.003,0-0.004,0.001C3.819,3.235,3.814,3.224,3.812,3.227c0.004-0.008,0.007-0.018,0.017-0.02
		C3.84,3.206,3.836,3.221,3.846,3.227C3.888,3.198,3.933,3.17,3.969,3.133c0.024-0.024,0.056-0.034,0.09-0.042
		c0.012-0.003,0.02,0.002,0.02,0.013C4.077,3.149,4.101,3.191,4.103,3.236c0,0.003,0.002,0.008,0.004,0.009
		C4.15,3.27,4.145,3.313,4.157,3.35c0.002,0.007-0.001,0.017,0.014,0.008C4.182,3.351,4.19,3.361,4.188,3.369
		C4.182,3.395,4.202,3.416,4.205,3.44c0.001,0.008,0.011,0.016,0.002,0.025c-0.008,0.008-0.019,0.007-0.03,0.002
		c-0.002,0.009,0.008,0.011,0.01,0.016c0.003,0.009,0.004,0.02-0.006,0.02c-0.02,0.001-0.032,0.016-0.048,0.019
		C4.139,3.55,4.17,3.558,4.186,3.578c0.007,0.008,0.014,0.016,0.021,0.025c0.01,0.013,0.021,0.018,0.034,0.004l0.001-0.001
		c0.005-0.007,0.012-0.007,0.017-0.001C4.265,3.612,4.264,3.62,4.256,3.627c-0.008,0.007-0.025,0.01-0.02,0.024
		c0.005,0.015,0.018,0.026,0.032,0.034c0.013,0.007,0.026-0.003,0.039-0.008c0.026-0.008,0.034-0.006,0.047,0.013l0,0
		c0.015,0,0.01-0.019,0.024-0.021h0c0.002-0.01,0.003-0.02,0-0.031C4.372,3.613,4.366,3.586,4.361,3.559
		C4.357,3.536,4.353,3.513,4.35,3.49c-0.001-0.007,0.002-0.016,0.01-0.016c0.009,0,0.009,0.008,0.008,0.014
		c-0.011,0.05,0.029,0.091,0.026,0.142c0.04-0.026,0.04-0.026,0.028-0.065C4.419,3.556,4.416,3.547,4.415,3.539
		C4.413,3.531,4.413,3.52,4.422,3.519c0.012-0.002,0.011,0.01,0.011,0.017C4.434,3.556,4.441,3.575,4.45,3.593
		c0.002,0.004,0.003,0.01,0.009,0.01c0.007,0,0.009-0.007,0.01-0.012C4.47,3.58,4.466,3.57,4.462,3.561
		C4.45,3.526,4.437,3.492,4.425,3.457c-0.002-0.006-0.004-0.013,0-0.018C4.43,3.434,4.437,3.438,4.442,3.44
		C4.495,3.467,4.555,3.453,4.61,3.46c0.012,0.001,0.021,0.001,0.025,0.013c0.003,0.008,0.011,0.015,0.021,0.013
		c0.009-0.002,0.009-0.012,0.009-0.019c0-0.019,0.012-0.027,0.031-0.034C4.728,3.422,4.759,3.43,4.79,3.434
		c0.041,0.006,0.083,0.009,0.12,0.028c0.03,0.016,0.058,0.036,0.092,0.044c0.012,0.003,0.02,0.012,0.028,0.021
		C5.038,3.535,5.046,3.54,5.057,3.542C5.1,3.551,5.134,3.573,5.16,3.604C5.174,3.62,5.186,3.637,5.202,3.652
		c0.025,0.023,0.062,0.041,0.061,0.081c0,0.007,0.006,0.008,0.014,0.004c0.019-0.009,0.025-0.024,0.026-0.043
		c0-0.018-0.007-0.039,0.014-0.053C5.315,3.619,5.333,3.61,5.352,3.604C5.374,3.597,5.398,3.596,5.42,3.588
		c0.011-0.005,0.024-0.004,0.034-0.011c0.014-0.01-0.004-0.019-0.001-0.03c0.006-0.022-0.005-0.041-0.019-0.059
		c-0.01-0.012-0.018-0.026-0.004-0.041c0.004-0.004-0.001-0.009-0.001-0.014c0-0.046-0.016-0.093,0.014-0.136
		c0.006-0.009,0.006-0.018,0.006-0.028C5.447,3.175,5.444,3.08,5.445,2.985c0-0.049-0.006-0.096-0.02-0.142
		C5.419,2.826,5.416,2.809,5.41,2.793C5.405,2.778,5.409,2.772,5.425,2.767c0.057-0.018,0.114-0.038,0.171-0.056
		c0.018-0.006,0.031-0.015,0.04-0.031C5.65,2.653,5.665,2.627,5.682,2.602c0.014-0.019,0.017-0.038,0.011-0.06
		C5.686,2.512,5.682,2.482,5.679,2.452z M3.659,3.027C3.644,3.023,3.628,3.022,3.636,3c0.002-0.006-0.013-0.024-0.027-0.028
		C3.587,2.967,3.574,2.951,3.555,2.941C3.551,2.939,3.546,2.934,3.55,2.929C3.565,2.912,3.553,2.9,3.54,2.887
		c-0.005-0.005-0.01-0.009-0.015-0.013C3.519,2.869,3.517,2.858,3.522,2.856c0.024-0.011,0.009-0.027,0.007-0.04
		C3.526,2.794,3.518,2.773,3.508,2.753C3.497,2.732,3.479,2.718,3.452,2.715C3.416,2.712,3.391,2.696,3.377,2.666
		C3.37,2.65,3.357,2.64,3.344,2.63c0.017,0.013,0.04,0.02,0.048,0.041c0.01,0.024,0.034,0.033,0.06,0.035
		c0.031,0.002,0.05,0.018,0.063,0.041c0.012,0.022,0.02,0.044,0.023,0.069c0,0.003-0.001,0.008,0.001,0.01
		c0.014,0.013,0.018,0.024-0.006,0.032C3.528,2.86,3.53,2.864,3.536,2.869c0.016,0.012,0.03,0.026,0.035,0.046
		C3.571,2.917,3.575,2.92,3.574,2.921C3.563,2.95,3.591,2.954,3.608,2.961C3.629,2.97,3.637,2.994,3.661,2.999
		C3.649,3.012,3.672,3.024,3.662,3.037C3.664,3.034,3.653,3.034,3.659,3.027z M3.787,3.23c-0.014-0.013-0.021-0.029-0.03-0.043
		c-0.005-0.009-0.01-0.024-0.01-0.034c0-0.021-0.014-0.024-0.028-0.029C3.705,3.118,3.695,3.112,3.712,3.099
		c0.004-0.003,0.005-0.007,0.001-0.01C3.698,3.079,3.685,3.067,3.669,3.06c-0.009-0.004,0-0.008-0.003-0.01
		c0.021,0.008,0.036,0.022,0.054,0.031c0.011,0.005,0.018,0.014,0.004,0.024C3.716,3.11,3.719,3.113,3.726,3.116
		c0.006,0.003,0.012,0.006,0.018,0.009c0.013,0.007,0.013,0.017,0.017,0.028C3.77,3.179,3.775,3.21,3.804,3.228
		C3.799,3.228,3.798,3.24,3.787,3.23z"/>
	<polygon class="st0" points="1.51,4.917 1.51,4.917 1.51,4.917 	"/>
	<polygon class="st0" points="0.905,4.459 0.905,4.459 0.905,4.459 	"/>
	<path class="st0" d="M2.197,4.034C2.195,4.027,2.19,4.02,2.183,4.016c-0.01-0.006-0.018-0.012-0.007-0.025
		C2.184,3.982,2.173,3.98,2.166,3.979C2.152,3.976,2.146,3.97,2.158,3.959c0.007-0.006,0.005-0.013,0-0.019
		c-0.005-0.007-0.011-0.013-0.017-0.02C2.125,3.905,2.118,3.887,2.119,3.865c0.002-0.053,0.002-0.106-0.002-0.159
		C2.114,3.685,2.109,3.667,2.08,3.667c-0.007,0-0.012-0.004-0.011-0.01c0.001-0.01-0.008-0.012-0.015-0.017
		C2.037,3.627,2.022,3.623,2.005,3.638C1.999,3.643,1.99,3.64,1.984,3.634c-0.009-0.01-0.017-0.007-0.028-0.001
		C1.935,3.645,1.912,3.655,1.89,3.666C1.865,3.677,1.84,3.681,1.813,3.67c-0.022-0.009-0.047-0.01-0.07-0.002
		C1.71,3.681,1.672,3.685,1.642,3.704C1.641,3.705,1.64,3.705,1.64,3.706c-0.013,0.023-0.04,0.025-0.064,0.032
		c-0.011,0.003-0.022-0.003-0.03-0.011C1.522,3.704,1.489,3.704,1.462,3.721C1.45,3.729,1.438,3.748,1.416,3.735
		C1.41,3.731,1.404,3.739,1.402,3.745C1.397,3.759,1.389,3.76,1.376,3.754C1.365,3.749,1.355,3.746,1.352,3.763
		c-0.002,0.011-0.012,0.011-0.02,0.002C1.328,3.76,1.328,3.753,1.32,3.749C1.313,3.753,1.313,3.766,1.3,3.764
		c-0.011-0.001-0.014-0.01-0.019-0.016C1.27,3.734,1.25,3.733,1.238,3.745C1.234,3.749,1.23,3.752,1.224,3.751
		C1.218,3.749,1.217,3.744,1.218,3.739c0.005-0.023-0.024-0.014-0.031-0.026C1.186,3.712,1.169,3.711,1.165,3.721
		C1.162,3.729,1.156,3.728,1.152,3.722C1.148,3.717,1.144,3.716,1.137,3.72C1.13,3.724,1.125,3.72,1.125,3.713
		C1.127,3.7,1.117,3.694,1.109,3.686C1.107,3.684,1.104,3.682,1.102,3.68C1.087,3.672,1.085,3.686,1.078,3.692
		C1.072,3.698,1.068,3.709,1.056,3.705c-0.012-0.004-0.003-0.013-0.004-0.02c0-0.008-0.003-0.016-0.012-0.007
		C1.029,3.687,1.005,3.68,1.007,3.703c0,0.004-0.006,0.003-0.009,0.001C0.981,3.696,0.969,3.692,0.976,3.717
		c0.003,0.01-0.004,0.017-0.016,0.011C0.953,3.724,0.946,3.716,0.937,3.723C0.924,3.734,0.902,3.738,0.9,3.758
		c-0.002,0.018-0.012,0.03-0.028,0.04C0.833,3.841,0.832,3.891,0.839,3.943c0.001,0.005,0,0.009-0.002,0.014
		C0.831,3.974,0.835,3.987,0.855,3.994C0.872,4,0.883,4.014,0.897,4.024c0.006,0.005,0.007,0.012,0.005,0.019
		C0.9,4.048,0.898,4.053,0.896,4.059c-0.009,0.023-0.012,0.065-0.007,0.09c0,0.001,0.001,0.003,0.001,0.004
		C0.874,4.201,0.876,4.256,0.827,4.291C0.809,4.304,0.802,4.32,0.81,4.34c0.006,0.018,0.005,0.035-0.003,0.052
		C0.799,4.408,0.804,4.418,0.823,4.42C0.836,4.421,0.848,4.422,0.86,4.422C0.879,4.423,0.896,4.427,0.91,4.438
		c0.009,0.007,0.02,0.01,0.031,0.012C0.95,4.453,0.959,4.456,0.958,4.465C0.956,4.475,0.946,4.478,0.936,4.478
		C0.922,4.477,0.91,4.472,0.905,4.459c-0.03-0.006-0.03-0.006-0.036,0.023C0.862,4.51,0.838,4.529,0.805,4.527
		C0.78,4.526,0.769,4.535,0.766,4.557C0.765,4.568,0.758,4.577,0.753,4.587C0.745,4.6,0.742,4.613,0.747,4.629
		c0.008,0.024-0.01,0.041-0.024,0.057c-0.032,0.036-0.061,0.04-0.108,0.021C0.57,4.688,0.566,4.69,0.536,4.725
		C0.528,4.734,0.522,4.744,0.508,4.744c-0.005,0-0.01,0.002-0.01,0.006C0.494,4.773,0.471,4.782,0.46,4.799
		C0.457,4.804,0.45,4.81,0.443,4.808C0.417,4.801,0.408,4.821,0.396,4.832c-0.014,0.015,0.002,0.03,0.009,0.043
		c0.006,0.011,0.016,0.018,0.002,0.032C0.398,4.916,0.409,4.925,0.418,4.931c0.028,0.018,0.039,0.056,0.023,0.083
		C0.436,5.021,0.432,5.029,0.427,5.035c-0.008,0.009-0.01,0.016,0,0.025C0.437,5.069,0.441,5.078,0.43,5.091
		C0.423,5.1,0.433,5.107,0.439,5.114c0.004,0.004,0.012,0.008,0.007,0.015C0.443,5.135,0.437,5.14,0.43,5.138
		c-0.015-0.003-0.018,0.004-0.02,0.015C0.407,5.163,0.402,5.172,0.391,5.16C0.382,5.151,0.377,5.155,0.37,5.161
		c-0.01,0.008-0.02,0.016-0.029,0.023c-0.001,0-0.002,0.001-0.002,0.002C0.332,5.194,0.331,5.203,0.33,5.213
		C0.329,5.225,0.327,5.237,0.315,5.246C0.302,5.254,0.302,5.267,0.306,5.278C0.319,5.31,0.329,5.344,0.36,5.367
		c0.005,0.003,0.009,0.008,0.012,0.012C0.382,5.39,0.39,5.41,0.402,5.381C0.405,5.376,0.41,5.375,0.416,5.379
		c0.022,0.016,0.036,0.016,0.051-0.003C0.484,5.355,0.508,5.343,0.531,5.33c0.027-0.016,0.036-0.014,0.061,0.004
		c0.011,0.008,0.017,0.007,0.022-0.005c0.004-0.011,0.013-0.014,0.025-0.012c0.034,0.004,0.07-0.014,0.084-0.043
		c0.02-0.04,0.05-0.068,0.103-0.071c0.015-0.001,0.031-0.022,0.04,0.009c0.002,0.007,0.024,0.012,0.037,0.018
		C0.909,5.231,0.916,5.225,0.921,5.22c0.018-0.017,0.032-0.035,0.042-0.056c0.013-0.027,0.041-0.04,0.066-0.055
		c0.009-0.006,0.018-0.002,0.023,0.007C1.06,5.126,1.067,5.126,1.077,5.118C1.09,5.107,1.111,5.101,1.116,5.083
		C1.118,5.074,1.127,5.075,1.13,5.08c0.01,0.014,0.019,0.006,0.029,0.002c0.038-0.016,0.065-0.046,0.101-0.063
		c0.016-0.008,0.031-0.02,0.048-0.024c0.05-0.012,0.077-0.047,0.108-0.079c0.007-0.007,0.006-0.014,0.002-0.022
		C1.412,4.879,1.407,4.863,1.429,4.855c0.006-0.002,0.007-0.007,0.008-0.012c0-0.004,0.001-0.01,0.005-0.011
		c0.023-0.002,0.036-0.019,0.054-0.026C1.512,4.8,1.543,4.817,1.557,4.837c0.012,0.016,0.005,0.03-0.007,0.041
		C1.536,4.89,1.529,4.909,1.51,4.918c-0.006,0.018-0.023,0.019-0.04,0.02C1.458,4.939,1.444,4.933,1.436,4.947
		c-0.008,0.015,0.002,0.024,0.01,0.035C1.45,4.988,1.455,4.995,1.459,5.001C1.47,5.004,1.478,4.999,1.486,4.993
		C1.508,4.974,1.524,4.95,1.541,4.927c0.021-0.028,0.044-0.052,0.082-0.066c0.028-0.01,0.053-0.029,0.07-0.052
		c0.019-0.025,0.042-0.047,0.06-0.072c0.01-0.014,0.018-0.009,0.025,0.003c0.014-0.021,0.031-0.039,0.037-0.063
		c0.002-0.009,0.009-0.019,0.02-0.016c0.017,0.004,0.023-0.005,0.03-0.015c0.037-0.051,0.077-0.1,0.126-0.143
		c0.002-0.002,0.004-0.004,0.007-0.006c0.023-0.024,0.046-0.048,0.075-0.066c0.013-0.015,0.031-0.024,0.046-0.037
		c0.017-0.022,0.03-0.047,0.051-0.066c0.003-0.004,0.006-0.008,0.011-0.01c0.056-0.024,0.074-0.072,0.095-0.119
		c0.006-0.013,0.009-0.028,0.019-0.04c0.008-0.011,0.004-0.018-0.008-0.024C2.245,4.109,2.211,4.079,2.197,4.034z"/>
	<path class="st0" d="M3.559,0.989c0.019,0.019,0.032,0.02,0.053,0.003l0,0c0,0,0,0,0,0c0.001,0.004,0.001,0.01,0.004,0.011
		c0.019,0.007,0.036,0.017,0.05,0.031c0.008,0.007,0.008-0.002,0.01-0.007c0.007-0.017-0.01-0.029-0.014-0.043c0,0,0,0,0,0
		c0,0,0,0,0,0C3.68,0.992,3.688,1.006,3.685,1.023c-0.004,0.024-0.008,0.048-0.017,0.07c-0.026,0.06-0.064,0.114-0.114,0.16
		C3.515,1.293,3.491,1.342,3.471,1.39c-0.024,0.058-0.055,0.12-0.025,0.187c0.017,0.039,0.011,0.081,0,0.12
		c-0.013,0.045-0.01,0.084,0.026,0.119c0.006,0.006,0.01,0.012,0.014,0.019C3.496,1.851,3.508,1.859,3.53,1.852
		c0.013-0.004,0.023,0.001,0.032,0.01c0.01,0.01,0.023,0.019,0.032,0.029C3.608,1.909,3.628,1.91,3.648,1.911
		C3.665,1.912,3.672,1.9,3.678,1.889C3.69,1.865,3.707,1.845,3.726,1.827C3.774,1.78,3.845,1.786,3.884,1.838
		c0.003,0.005,0.007,0.009,0.01,0.014C3.902,1.863,3.91,1.862,3.92,1.854c0.028-0.022,0.058-0.019,0.078,0.01
		c0.009,0.014,0.02,0.01,0.031,0.006c0.039-0.014,0.049-0.05,0.033-0.084C4.043,1.746,4.015,1.72,3.971,1.706
		c-0.014-0.005-0.026-0.014-0.03-0.029c-0.001-0.005-0.001-0.01,0.003-0.013c0.005-0.004,0.01-0.001,0.014,0.002
		C3.962,1.668,3.965,1.67,3.967,1.673C3.98,1.694,4,1.704,4.026,1.707C4.043,1.708,4.051,1.72,4.059,1.732
		C4.08,1.764,4.092,1.768,4.131,1.756c0.032-0.01,0.039-0.005,0.032,0.024C4.158,1.804,4.17,1.822,4.183,1.841
		C4.185,1.846,4.19,1.849,4.196,1.848c0.023-0.004,0.047-0.007,0.068-0.017c0.01-0.005,0.01-0.013,0.005-0.021
		S4.255,1.796,4.246,1.79C4.234,1.783,4.228,1.775,4.237,1.761c0.01-0.014-0.005-0.02-0.015-0.025
		C4.209,1.729,4.194,1.725,4.186,1.712c-0.004-0.006-0.01-0.014,0.001-0.02c0.009-0.004,0.014,0.003,0.017,0.01
		C4.209,1.713,4.218,1.718,4.231,1.72c0.015,0.002,0.021,0.014,0.03,0.024c0.009,0.01,0.017,0.01,0.02-0.003
		c0.007-0.03,0.018-0.056,0.047-0.075c0.01-0.007,0.008-0.018,0.003-0.028C4.319,1.612,4.314,1.586,4.31,1.559
		C4.309,1.552,4.306,1.54,4.323,1.547l0,0C4.35,1.581,4.362,1.618,4.351,1.66C4.339,1.706,4.339,1.752,4.365,1.794
		c0.004,0.007,0.008,0.013,0.016,0.017c0.01,0.005,0.021,0.006,0.031,0.002C4.421,1.809,4.419,1.8,4.419,1.792
		C4.417,1.748,4.421,1.744,4.471,1.751c0.016,0.002,0.03-0.001,0.042-0.01C4.529,1.73,4.547,1.722,4.567,1.719
		c0.022-0.003,0.042,0,0.06,0.014c0.014,0.011,0.03,0.021,0.045,0.032C4.686,1.776,4.701,1.784,4.72,1.786
		c0.019,0.002,0.033,0.013,0.048,0.022C4.78,1.816,4.791,1.824,4.805,1.826C4.813,1.827,4.823,1.829,4.827,1.82
		C4.831,1.811,4.825,1.803,4.816,1.8C4.783,1.793,4.758,1.772,4.726,1.764c-0.028-0.007-0.05-0.019-0.056-0.048
		c-0.001-0.007-0.008-0.013-0.012-0.02c-0.002-0.004-0.006-0.01-0.001-0.013c0.004-0.003,0.01-0.001,0.015,0.002
		C4.683,1.691,4.685,1.7,4.688,1.709C4.697,1.73,4.703,1.733,4.722,1.72c0.01-0.007,0.028-0.01,0.026-0.023
		c-0.002-0.011-0.019-0.013-0.03-0.016c-0.032-0.009-0.05-0.027-0.053-0.058c0-0.007-0.002-0.014-0.005-0.02
		C4.657,1.594,4.654,1.583,4.643,1.58C4.632,1.577,4.63,1.589,4.624,1.595C4.615,1.602,4.606,1.612,4.593,1.603
		c-0.01-0.006-0.009-0.031,0.002-0.037c0.017-0.009,0.01-0.014,0-0.022C4.562,1.516,4.566,1.479,4.566,1.443
		c0-0.003,0.002-0.005,0.004-0.007c0.019-0.022,0.017-0.031-0.009-0.052c-0.005-0.004-0.02-0.005-0.012-0.015
		C4.557,1.36,4.567,1.367,4.575,1.374c0.001,0.001,0.002,0.002,0.003,0.003c0.004,0.003,0.008,0.01,0.015,0.006
		C4.6,1.378,4.595,1.372,4.592,1.368C4.59,1.365,4.589,1.362,4.587,1.359C4.586,1.358,4.584,1.357,4.583,1.356
		C4.559,1.351,4.562,1.327,4.549,1.314C4.542,1.307,4.562,1.309,4.57,1.302c-0.017-0.01-0.028-0.022-0.013-0.04
		C4.561,1.258,4.558,1.254,4.554,1.25c-0.02-0.018-0.018-0.032,0.01-0.043c0.011-0.005,0.018-0.01,0.013-0.022
		c-0.005-0.01-0.015-0.01-0.026-0.009C4.544,1.177,4.542,1.182,4.54,1.188C4.538,1.194,4.535,1.2,4.527,1.199
		c-0.005,0-0.009-0.002-0.011-0.006C4.512,1.186,4.518,1.181,4.523,1.177c0.014-0.011,0.02-0.022,0.002-0.035
		C4.524,1.141,4.523,1.139,4.523,1.138C4.528,1.103,4.5,1.077,4.49,1.046c-0.006-0.02-0.006-0.041,0.007-0.059
		C4.512,0.966,4.523,0.944,4.52,0.918c0-0.004,0.001-0.008,0.002-0.012C4.523,0.9,4.524,0.894,4.531,0.893
		C4.54,0.891,4.542,0.899,4.544,0.905c0.009,0.019,0.001,0.036-0.007,0.054C4.53,0.974,4.517,0.99,4.528,1.009
		c0.019,0.016,0.019,0.017-0.005,0.026C4.506,1.041,4.51,1.052,4.516,1.062c0.005,0.008,0.007,0.025,0.025,0.013
		c0.009-0.006,0.021,0,0.031-0.007C4.58,1.062,4.585,1.073,4.582,1.079C4.576,1.092,4.583,1.107,4.571,1.118
		c-0.004,0.003-0.002,0.01,0.002,0.01c0.015,0,0.001,0.025,0.021,0.018c0.013-0.004,0.02,0.004,0.025,0.013
		C4.628,1.174,4.637,1.188,4.65,1.201c0.001-0.002,0.003-0.003,0.003-0.004c-0.002-0.011,0-0.021,0.012-0.026
		C4.67,1.169,4.676,1.169,4.68,1.173c0.01,0.009,0.005,0.019,0,0.028c-0.017,0.035,0,0.064,0.019,0.093
		c0.008,0.012,0.02,0.022,0.031,0.035C4.735,1.315,4.739,1.301,4.75,1.29c0.004-0.004,0.003-0.01,0-0.015
		C4.73,1.244,4.732,1.24,4.771,1.223c0.019-0.034,0.04-0.067,0.038-0.107C4.807,1.096,4.82,1.083,4.842,1.077
		c0.012-0.003,0.025-0.006,0.034-0.016C4.883,1.055,4.884,1.047,4.88,1.038c-0.01,0.002-0.014,0.02-0.028,0.009
		C4.841,1.038,4.843,1.013,4.854,1.005c0.01-0.007,0.021-0.015,0.018-0.028C4.87,0.963,4.856,0.963,4.844,0.962
		c-0.005,0-0.01-0.002-0.012-0.005C4.824,0.948,4.816,0.943,4.806,0.953C4.797,0.961,4.785,0.966,4.793,0.985
		c0.006,0.013,0,0.038-0.015,0.047C4.756,1.046,4.746,1.066,4.735,1.086c-0.006,0.01-0.012,0.021-0.019,0.03
		c-0.009,0.011-0.021,0.013-0.031,0C4.67,1.101,4.656,1.085,4.643,1.07C4.638,1.065,4.635,1.057,4.64,1.053
		C4.648,1.048,4.654,1.055,4.659,1.06c0.004,0.003,0.007,0.008,0.01,0.011c0.004,0.004,0.007,0.011,0.014,0.008
		C4.689,1.076,4.685,1.07,4.685,1.065c0-0.009-0.003-0.021,0.014-0.01c0.01,0.006,0.013-0.001,0.015-0.007
		C4.722,1.019,4.755,1.004,4.76,0.972C4.762,0.96,4.763,0.945,4.774,0.934C4.787,0.923,4.78,0.917,4.766,0.913
		C4.715,0.896,4.664,0.88,4.612,0.863c-0.03-0.01-0.06-0.021-0.089-0.031C4.51,0.828,4.502,0.83,4.503,0.835
		c0.004,0.02-0.01,0.012-0.018,0.01C4.445,0.832,4.406,0.82,4.367,0.806C4.334,0.795,4.32,0.769,4.33,0.738
		c0.002-0.006-0.001-0.009-0.005-0.012C4.315,0.72,4.312,0.712,4.313,0.702c0.001-0.014-0.001-0.024-0.021-0.017
		C4.284,0.688,4.275,0.684,4.274,0.677C4.272,0.664,4.259,0.663,4.25,0.657C4.24,0.649,4.232,0.646,4.225,0.66
		C4.223,0.664,4.216,0.659,4.212,0.656C4.205,0.65,4.195,0.64,4.19,0.645c-0.008,0.01-0.029,0.01-0.026,0.028
		c0.001,0.007-0.002,0.014-0.008,0.018c-0.01,0.006-0.014,0.014-0.015,0.024C4.14,0.729,4.131,0.731,4.119,0.727
		C4.093,0.718,4.066,0.71,4.04,0.7C3.915,0.654,3.79,0.606,3.665,0.56C3.641,0.55,3.641,0.551,3.639,0.574
		C3.637,0.601,3.632,0.627,3.625,0.653C3.6,0.742,3.558,0.826,3.53,0.913C3.522,0.939,3.517,0.959,3.546,0.975
		C3.552,0.978,3.555,0.984,3.559,0.989z M3.612,0.992c0.01-0.013,0.022-0.007,0.033-0.005C3.634,0.987,3.623,0.986,3.612,0.992
		L3.612,0.992z"/>
	<polygon class="st0" points="4.771,1.223 4.771,1.223 4.771,1.223 	"/>
	<path class="st0" d="M5.266,4.055C5.259,4.043,5.25,4.039,5.235,4.048c-0.014,0.009-0.03,0.017-0.044,0.025
		C5.182,4.078,5.175,4.077,5.167,4.07C5.151,4.054,5.145,4.055,5.131,4.072c-0.006,0.007-0.01,0.017-0.023,0.016
		C5.109,4.075,5.12,4.068,5.12,4.057l0,0C5.1,4.052,5.078,4.05,5.07,4.029C5.067,4.023,5.06,4.023,5.054,4.025
		C5.042,4.029,5.03,4.028,5.018,4.028C5.012,4.028,5.003,4.026,5,4.034C4.998,4.041,4.999,4.049,5.006,4.055
		c0.008,0.007,0.021,0.009,0.026,0.019C5.046,4.08,5.042,4.089,5.038,4.098C5.03,4.117,5.029,4.136,5.037,4.155
		C5.039,4.16,5.041,4.167,5.04,4.173C5.038,4.185,5.037,4.196,5.051,4.203c0.004,0.002,0.008,0.008,0.005,0.013
		c-0.003,0.005-0.009,0.003-0.014,0C5.037,4.213,5.033,4.208,5.028,4.211c-0.025,0.017-0.03-0.004-0.039-0.017
		C4.985,4.189,4.985,4.181,4.975,4.182C4.968,4.183,4.966,4.19,4.963,4.196c-0.01,0.019-0.019,0.022-0.038,0.013L4.924,4.207
		C4.909,4.196,4.92,4.186,4.931,4.183c0.045-0.011,0.051-0.047,0.067-0.077c0.008-0.015-0.002-0.025-0.016-0.031
		C4.969,4.069,4.955,4.065,4.94,4.066C4.926,4.08,4.927,4.103,4.908,4.115C4.906,4.121,4.901,4.124,4.894,4.124
		C4.893,4.127,4.891,4.129,4.889,4.132c0.015,0.007,0.013,0.017,0.005,0.027c-0.008,0.01-0.016,0.019-0.027,0.026
		C4.864,4.191,4.861,4.197,4.858,4.202C4.858,4.207,4.856,4.21,4.85,4.212l0,0C4.843,4.222,4.844,4.234,4.84,4.246
		C4.839,4.249,4.84,4.255,4.834,4.254c-0.005,0-0.007-0.005-0.007-0.009c0.002-0.021,0.005-0.041,0.017-0.059
		C4.847,4.175,4.858,4.17,4.864,4.161C4.869,4.155,4.87,4.147,4.862,4.143C4.854,4.139,4.854,4.148,4.852,4.152
		c-0.02,0.032-0.076,0.053-0.117,0.043C4.722,4.193,4.71,4.19,4.697,4.194C4.691,4.218,4.7,4.238,4.716,4.257
		C4.719,4.262,4.724,4.27,4.717,4.273C4.71,4.277,4.705,4.269,4.701,4.265c-0.004-0.005-0.006-0.011-0.01-0.016
		C4.688,4.244,4.685,4.239,4.677,4.24c-0.007,0.001-0.01,0.006-0.012,0.011c-0.002,0.006,0.002,0.01,0.008,0.013
		C4.68,4.268,4.687,4.271,4.692,4.275c0.004,0.003,0.006,0.007,0.003,0.011c-0.003,0.004-0.008,0.003-0.012,0
		C4.682,4.285,4.679,4.285,4.678,4.283C4.659,4.264,4.641,4.266,4.624,4.285c-0.013,0.014-0.033,0.02-0.05,0.029
		C4.558,4.337,4.529,4.34,4.504,4.347c-0.036,0.01-0.068,0.027-0.103,0.039C4.357,4.4,4.313,4.411,4.267,4.394
		C4.254,4.389,4.243,4.395,4.232,4.401C4.225,4.405,4.221,4.412,4.212,4.413C4.208,4.42,4.202,4.424,4.193,4.425
		c-0.017,0.016-0.037,0.028-0.06,0.037l0,0C4.085,4.499,4.034,4.531,3.975,4.553c-0.008,0.003-0.017,0.004-0.024,0
		C3.943,4.549,3.936,4.549,3.93,4.555c-0.007,0.007-0.014,0.008-0.02-0.002C3.907,4.549,3.903,4.549,3.899,4.552
		C3.88,4.567,3.861,4.567,3.842,4.551C3.84,4.55,3.835,4.55,3.831,4.549C3.828,4.552,3.825,4.554,3.822,4.557
		C3.818,4.568,3.81,4.576,3.799,4.582c-0.01,0.019-0.025,0.03-0.05,0.025c-0.004-0.001-0.009,0-0.013,0.001
		C3.714,4.618,3.695,4.613,3.677,4.6C3.664,4.591,3.652,4.59,3.638,4.599C3.626,4.608,3.612,4.613,3.599,4.621
		c-0.018,0.012-0.039,0.013-0.059,0.01C3.525,4.628,3.515,4.633,3.503,4.639C3.472,4.653,3.437,4.653,3.405,4.665
		C3.404,4.666,3.402,4.667,3.401,4.669C3.393,4.702,3.388,4.735,3.408,4.767c0.004,0.007,0.008,0.012,0.019,0.008
		c0.084-0.035,0.172-0.062,0.264-0.075c0.02-0.003,0.039-0.007,0.057-0.014C3.756,4.682,3.764,4.678,3.767,4.69
		c0.008,0.005,0.016,0.004,0.025,0c0.023-0.01,0.045-0.02,0.069-0.027C3.91,4.648,3.959,4.638,4.008,4.624
		C4.056,4.61,4.09,4.567,4.146,4.571C4.171,4.554,4.202,4.547,4.23,4.533c0.09-0.044,0.178-0.092,0.278-0.119
		c0.166-0.046,0.333-0.09,0.502-0.13c0.011-0.003,0.022-0.003,0.034,0.001c0.068,0.024,0.132,0.021,0.19-0.024
		c0.02-0.016,0.043-0.032,0.073-0.016c0.005,0.003,0.012,0.002,0.018,0.003C5.33,4.248,5.336,4.246,5.335,4.24
		C5.329,4.202,5.353,4.159,5.311,4.126C5.288,4.108,5.281,4.079,5.266,4.055z"/>
	<path class="st0" d="M3.435,2.08C3.45,2.088,3.469,2.088,3.479,2.103l0,0c0.014,0.008,0.025,0.002,0.036-0.005
		c0.006-0.005,0.011-0.01,0.017-0.015c0.007-0.009,0.011-0.019,0.012-0.03c0.001-0.022,0.014-0.039,0.031-0.054
		c0.001-0.001,0.002-0.002,0.003-0.003c0.003-0.004,0.005-0.008,0.011-0.008l0,0c0.005-0.01,0.017-0.014,0.024-0.022
		C3.618,1.96,3.62,1.956,3.618,1.947C3.607,1.913,3.578,1.89,3.55,1.867C3.539,1.859,3.513,1.862,3.511,1.87
		C3.507,1.89,3.495,1.907,3.498,1.928c0.004,0.028-0.01,0.05-0.033,0.069C3.464,1.999,3.464,2,3.462,2
		c-0.011,0.01-0.021,0.02-0.038,0.02l0,0l0,0h0C3.426,2.028,3.423,2.034,3.419,2.04C3.405,2.06,3.417,2.07,3.435,2.08z"/>
	<path class="st0" d="M4.818,4.108c0.005,0.001,0.008-0.003,0.011-0.006c0.01-0.014,0.026-0.023,0.04-0.033
		C4.888,4.056,4.907,4.043,4.925,4.03c0.005-0.003,0.01-0.006,0.011-0.012C4.935,4.011,4.931,4.007,4.926,4.002
		C4.909,3.99,4.897,3.974,4.888,3.956C4.877,3.937,4.863,3.922,4.84,3.913C4.818,3.904,4.811,3.904,4.8,3.924
		C4.778,3.958,4.757,3.993,4.736,4.027c-0.012,0.02-0.008,0.027,0.018,0.028c0.039,0.001,0.049,0.008,0.058,0.044
		C4.812,4.103,4.813,4.107,4.818,4.108z M4.814,3.922c0.003,0,0.006,0.001,0.007,0.004C4.822,3.929,4.82,3.93,4.818,3.931
		c-0.003,0-0.006-0.001-0.006-0.004C4.811,3.925,4.813,3.922,4.814,3.922z"/>
	<path class="st0" d="M4.045,2.022C4.052,2.013,4.035,2,4.023,1.992C4.014,1.986,4.009,1.975,3.994,1.981
		C3.99,1.982,3.987,1.978,3.986,1.975c-0.007-0.023-0.029-0.03-0.051-0.037C3.911,1.929,3.887,1.918,3.874,1.895
		C3.851,1.919,3.854,1.92,3.842,1.952C3.833,1.977,3.839,1.993,3.858,2.009c0.007,0.006,0.007,0.018,0.017,0.02
		c0.042,0.01,0.083,0.024,0.127,0.02C4.023,2.048,4.036,2.033,4.045,2.022z"/>
	<path class="st0" d="M4.829,1.235C4.821,1.203,4.821,1.203,4.792,1.211l0,0C4.8,1.224,4.797,1.239,4.808,1.252
		C4.837,1.286,4.836,1.287,4.81,1.322C4.806,1.328,4.801,1.332,4.805,1.339c0.024,0.039,0.045,0.08,0.072,0.117
		c0.003,0.004,0.006,0.01,0.014,0.005C4.917,1.445,4.921,1.412,4.9,1.39C4.875,1.364,4.877,1.36,4.92,1.346
		C4.882,1.339,4.881,1.318,4.88,1.295c0-0.006-0.006-0.011-0.013-0.013C4.842,1.275,4.833,1.256,4.829,1.235z"/>
	<path class="st0" d="M4.708,4.033c0.014,0.001,0.013-0.015,0.017-0.024C4.728,4,4.729,3.991,4.732,3.982
		C4.74,3.957,4.75,3.933,4.764,3.909C4.76,3.906,4.747,3.911,4.748,3.902c0-0.008,0.011-0.006,0.016-0.008
		c0.009-0.005,0.024-0.01,0.013-0.022C4.76,3.852,4.724,3.854,4.707,3.873C4.699,3.883,4.692,3.892,4.681,3.899
		C4.654,3.915,4.654,3.923,4.669,3.95C4.681,3.97,4.69,3.99,4.7,4.011C4.704,4.018,4.694,4.032,4.708,4.033z"/>
	<path class="st0" d="M4.072,4.335c0.006,0,0.012-0.002,0.014,0.003c0.002,0.005-0.002,0.01-0.005,0.013
		C4.06,4.371,4.049,4.391,4.07,4.415C4.072,4.417,4.072,4.42,4.073,4.423c0.001,0.004-0.002,0.011,0.006,0.012
		C4.085,4.435,4.087,4.429,4.09,4.425c0.016-0.024,0.032-0.048,0.048-0.072c0.004-0.006,0.008-0.012,0.006-0.019
		C4.135,4.303,4.113,4.283,4.081,4.271C4.075,4.269,4.071,4.27,4.066,4.274c-0.008,0.007-0.017,0.013-0.026,0.02
		C4.035,4.298,4.03,4.304,4.036,4.31C4.047,4.32,4.038,4.355,4.072,4.335z"/>
	<path class="st0" d="M4.38,4.322c0.017,0.006,0.034-0.001,0.047-0.014C4.43,4.305,4.434,4.303,4.436,4.299
		c0.012-0.014,0.009-0.027-0.009-0.032c-0.02-0.006-0.035-0.016-0.046-0.032C4.376,4.229,4.368,4.22,4.359,4.225
		c-0.021,0.012-0.047,0.02-0.061,0.042C4.292,4.276,4.294,4.282,4.301,4.289c0.015,0.015,0.038,0.008,0.045-0.015
		c0.002-0.006,0.002-0.011,0.01-0.011c0.009,0,0.01,0.007,0.01,0.013c0,0.003,0,0.007,0,0.01C4.367,4.3,4.365,4.316,4.38,4.322z"/>
	<polygon class="st0" points="3.25,2.388 3.25,2.388 3.25,2.389 	"/>
	<polygon class="st0" points="3.255,2.384 3.255,2.384 3.255,2.384 	"/>
	<polygon class="st0" points="3.204,2.438 3.204,2.438 3.204,2.438 	"/>
	<path class="st0" d="M3.331,2.268C3.336,2.253,3.344,2.239,3.358,2.23c0.001-0.005,0.003-0.01,0.01-0.013
		C3.37,2.21,3.371,2.203,3.373,2.196c0.002-0.008-0.001-0.014-0.011-0.014c-0.007,0.005-0.013,0.01-0.02,0.015
		C3.33,2.228,3.313,2.257,3.287,2.281c0,0.005-0.002,0.009-0.009,0.008v0c0,0,0,0,0,0C3.277,2.304,3.267,2.314,3.255,2.322
		C3.254,2.33,3.249,2.335,3.241,2.339l0,0C3.239,2.346,3.237,2.351,3.227,2.351C3.228,2.36,3.224,2.367,3.214,2.368
		c0,0.009-0.003,0.015-0.014,0.017C3.201,2.392,3.198,2.397,3.19,2.401C3.186,2.417,3.177,2.432,3.169,2.447
		c-0.002,0.004-0.004,0.01,0,0.013c0.004,0.003,0.008-0.001,0.012-0.003c0.001-0.001,0.003-0.002,0.004-0.004
		C3.19,2.448,3.192,2.438,3.204,2.438C3.203,2.427,3.207,2.421,3.22,2.421c0-0.001,0-0.002,0.002-0.002
		C3.222,2.402,3.234,2.394,3.25,2.388c0-0.003,0.001-0.004,0.005-0.004C3.257,2.368,3.268,2.357,3.28,2.346
		C3.293,2.318,3.309,2.291,3.331,2.268z"/>
	<path class="st0" d="M5.043,1.359C5.027,1.357,5.029,1.344,5.023,1.335c0.001,0.002,0,0.004,0.001,0.006
		C5.029,1.347,5.036,1.352,5.043,1.359z"/>
	<path class="st0" d="M5.007,1.314c-0.003,0.01,0.011,0.013,0.016,0.02C5.019,1.329,5.014,1.323,5.02,1.318
		C5.034,1.306,5.028,1.293,5.028,1.28C5.026,1.248,5.03,1.245,5.065,1.244c0.002,0,0.004-0.001,0.014-0.003
		C5.045,1.23,5.033,1.208,5.021,1.186C5.018,1.181,5.013,1.175,5.005,1.182C4.988,1.197,4.984,1.23,4.995,1.25
		c0.011,0.019-0.004,0.044,0.012,0.062C5.008,1.313,5.007,1.314,5.007,1.314z"/>
	<path class="st0" d="M4.122,4.179C4.113,4.185,4.115,4.192,4.125,4.196c0.022,0.009,0.04,0.022,0.054,0.039
		c0.008,0.01,0.018,0.011,0.029,0.004c0.01-0.006,0.021-0.011,0.03-0.019c0.01-0.008,0.02-0.021,0.005-0.029
		C4.218,4.178,4.19,4.169,4.165,4.159C4.145,4.158,4.135,4.17,4.122,4.179z"/>
	<path class="st0" d="M4.8,4.115c0-0.019-0.033-0.045-0.056-0.045c-0.019,0-0.049,0.027-0.048,0.043
		c0.001,0.018,0.028,0.039,0.049,0.039C4.776,4.151,4.801,4.135,4.8,4.115z"/>
	<path class="st0" d="M4.469,4.132c0.006,0.005,0.02-0.003,0.029-0.009C4.507,4.117,4.5,4.11,4.497,4.103
		C4.491,4.09,4.484,4.078,4.471,4.066c-0.005,0.01-0.002,0.019-0.003,0.028c-0.001,0.005-0.001,0.01-0.007,0.012
		c-0.006,0.001-0.01-0.002-0.012-0.007c-0.003-0.007-0.007-0.014-0.01-0.021c-0.004-0.01-0.009-0.015-0.017-0.003
		c-0.007,0.01-0.013,0.021-0.022,0.028c-0.013,0.01-0.004,0.021-0.003,0.03c0.002,0.011,0.013,0,0.021,0.001
		c0.006,0.001,0.012-0.001,0.018-0.002C4.446,4.129,4.455,4.121,4.469,4.132z"/>
	<path class="st0" d="M4.265,4.053c0.006-0.025-0.002-0.031-0.03-0.024l0,0C4.232,4.038,4.252,4.043,4.241,4.052
		C4.233,4.058,4.222,4.053,4.213,4.049C4.206,4.046,4.198,4.035,4.192,4.045C4.186,4.057,4.17,4.069,4.184,4.084
		c0.011,0.011,0.019,0.023,0.022,0.038c0.001,0.005,0.003,0.01,0.01,0.01c0.007,0,0.007-0.006,0.01-0.01
		C4.23,4.115,4.23,4.107,4.24,4.104c0.006-0.006,0.012-0.011,0.019-0.017C4.26,4.075,4.262,4.064,4.265,4.053z"/>
	<path class="st0" d="M4.09,4.077C4.08,4.073,4.063,4.065,4.068,4.054C4.075,4.035,4.061,4.03,4.051,4.019
		C4.032,4.057,4.06,4.082,4.074,4.114C4.077,4.11,4.079,4.108,4.079,4.106c0.005-0.01,0.006-0.026,0.023-0.008
		c0.001,0.001,0.004,0.001,0.004,0.001c0.003-0.009,0.018-0.013,0.018-0.023c0-0.009-0.006-0.015-0.015-0.018
		C4.101,4.064,4.105,4.082,4.09,4.077z"/>
	<polygon class="st0" points="4.615,4.203 4.615,4.203 4.615,4.203 	"/>
	<path class="st0" d="M4.637,4.209c0.008-0.004,0.006-0.012,0.006-0.019c0-0.01,0.008-0.023-0.009-0.029
		C4.632,4.161,4.63,4.157,4.631,4.154c0.004-0.028-0.01-0.026-0.029-0.014C4.598,4.143,4.595,4.146,4.592,4.148
		C4.587,4.171,4.61,4.184,4.615,4.202C4.623,4.205,4.627,4.215,4.637,4.209z"/>
	<path class="st0" d="M3.774,1.847c-0.012,0.011-0.031,0.018-0.02,0.037c0.002,0.003-0.013,0.005-0.001,0.008
		C3.76,1.895,3.767,1.903,3.773,1.894C3.779,1.884,3.79,1.879,3.8,1.87C3.784,1.868,3.781,1.857,3.774,1.847z"/>
	<path class="st0" d="M4.056,4.156C4.053,4.177,4.052,4.197,4.06,4.216c0.003,0.007,0.009,0.018,0.019,0.013
		c0.01-0.005,0.008-0.016,0-0.023c-0.011-0.01-0.013-0.021-0.013-0.034C4.066,4.167,4.067,4.16,4.056,4.156z"/>
	<path class="st0" d="M3.767,1.926c0.01,0.007,0.02,0.015,0.032,0.002C3.793,1.924,3.786,1.921,3.781,1.917
		C3.774,1.911,3.771,1.916,3.766,1.92C3.761,1.923,3.763,1.924,3.767,1.926z"/>
	<path class="st0" d="M4.651,4.118c0.007,0.003,0.012-0.006,0.018-0.01c0.002-0.002,0.004-0.003,0.007-0.005
		c0-0.003,0.001-0.005,0.001-0.008c-0.01-0.008-0.017,0.001-0.024,0.004C4.654,4.106,4.64,4.114,4.651,4.118z"/>
	<path class="st0" d="M5.083,3.859c0.039-0.033,0.086-0.052,0.134-0.068c0.024-0.008,0.039-0.027,0.035-0.05
		C5.247,3.713,5.234,3.691,5.208,3.675C5.193,3.667,5.179,3.657,5.172,3.642C5.159,3.614,5.141,3.592,5.113,3.576
		c-0.038-0.023-0.088-0.03-0.12-0.063C4.988,3.509,4.979,3.508,4.972,3.506c-0.01-0.003-0.02-0.007-0.028-0.013
		C4.878,3.447,4.8,3.442,4.723,3.438C4.689,3.437,4.679,3.448,4.675,3.474C4.674,3.483,4.673,3.492,4.661,3.495
		c-0.012,0.003-0.025-0.001-0.03-0.01c-0.007-0.015-0.02-0.013-0.033-0.014C4.574,3.469,4.559,3.47,4.543,3.493
		C4.519,3.529,4.511,3.562,4.53,3.6C4.544,3.626,4.57,3.643,4.594,3.66c0.082,0.056,0.173,0.097,0.26,0.146
		c0.047,0.026,0.096,0.048,0.14,0.078c0.016,0.011,0.023,0.022,0.013,0.042C4.996,3.948,5,3.975,4.973,3.993
		c0.015,0.004,0.021-0.002,0.026-0.008c0.017-0.02,0.034-0.041,0.05-0.061C5.055,3.918,5.061,3.91,5.058,3.901
		C5.048,3.879,5.062,3.868,5.082,3.86L5.083,3.859z"/>
	<path class="st0" d="M4.479,3.627c0.004,0.005,0.009,0.006,0.015,0c0.009-0.01,0.016,0,0.024,0.003
		C4.519,3.626,4.52,3.623,4.519,3.622C4.517,3.615,4.514,3.608,4.511,3.6C4.493,3.558,4.504,3.502,4.535,3.48
		c0.004-0.003,0.011-0.004,0.008-0.01C4.541,3.464,4.534,3.467,4.529,3.467c-0.031,0-0.062,0.001-0.09-0.016
		c-0.006,0.011,0,0.019,0.004,0.026c0.012,0.025,0.02,0.052,0.029,0.078C4.478,3.573,4.485,3.591,4.471,3.61
		C4.466,3.618,4.474,3.622,4.479,3.627z"/>
	<path class="st0" d="M5.028,3.975c-0.001,0-0.003,0.002-0.003,0.003c-0.002,0.009-0.02,0.015-0.011,0.023
		c0.007,0.007,0.021,0.01,0.034,0.004c0,0,0.001,0,0.002,0c0.002-0.002,0.004-0.004,0.006-0.006
		c0.001-0.004,0.004-0.008,0.003-0.012c-0.002-0.012,0.01-0.028-0.004-0.034C5.045,3.95,5.039,3.969,5.028,3.975z"/>
	<path class="st0" d="M2.626,2.998C2.617,3.012,2.63,3.022,2.64,3.031c0.009,0.008,0.02,0.01,0.03,0
		C2.682,3.02,2.692,3.024,2.705,3.034c0-0.011-0.01-0.021,0.003-0.026c0.01-0.004,0.015,0.004,0.019,0.01
		c0.003,0.003,0.005,0.004,0.01,0.003C2.756,3.018,2.784,2.98,2.78,2.962C2.779,2.955,2.779,2.948,2.786,2.944
		c0.027-0.016,0.056-0.028,0.089-0.028c0.005,0,0.013,0.001,0.013,0.006c0.002,0.024,0.016,0.014,0.029,0.01
		c0.01-0.003,0.021-0.003,0.031-0.005C2.985,2.921,3.014,2.91,3.03,2.875c0.023-0.049,0.027-0.101,0.038-0.152
		c0.003-0.014,0-0.027-0.011-0.039C3.048,2.673,3.023,2.665,3.046,2.646c0,0-0.003-0.004-0.004-0.007
		C3.039,2.635,3.04,2.628,3.046,2.627c0.025-0.005,0.019-0.017,0.01-0.031C3.052,2.589,3.053,2.581,3.057,2.574
		c0.004-0.006,0.006-0.013,0.005-0.02C3.059,2.53,3.069,2.509,3.084,2.491c0.041-0.05,0.074-0.106,0.12-0.153
		c0.047-0.047,0.071-0.109,0.122-0.151C3.352,2.165,3.353,2.144,3.34,2.117c-0.015-0.031-0.01-0.042,0.019-0.064
		c0.011-0.008,0.022-0.016,0.026-0.028c0.011-0.033,0.036-0.053,0.066-0.071c0.013-0.008,0.022-0.018,0.024-0.034
		C3.48,1.877,3.466,1.839,3.43,1.809C3.422,1.802,3.416,1.796,3.416,1.786c0.001-0.037,0-0.074,0.002-0.112
		C3.42,1.647,3.422,1.62,3.417,1.592C3.412,1.562,3.403,1.531,3.41,1.5c0.013-0.055,0.032-0.108,0.058-0.16
		c0.023-0.046,0.06-0.087,0.072-0.137c0.001-0.005,0.004-0.01,0.01-0.01C3.572,1.189,3.579,1.17,3.594,1.159
		C3.598,1.156,3.6,1.151,3.596,1.148C3.581,1.137,3.594,1.134,3.602,1.132c0.034-0.008,0.045-0.041,0.044-0.066
		c0-0.011-0.005-0.019-0.016-0.023c-0.015-0.006-0.03-0.011-0.045-0.016C3.579,1.025,3.573,1.025,3.571,1.032
		C3.569,1.041,3.563,1.046,3.553,1.044c-0.011-0.002-0.02-0.008-0.022-0.018C3.529,1.017,3.528,1.009,3.525,1.001
		C3.52,0.991,3.509,0.982,3.498,0.99C3.476,1.008,3.451,1.025,3.452,1.056c0.001,0.029-0.007,0.056-0.023,0.081
		C3.404,1.178,3.378,1.22,3.352,1.261c-0.009,0.014-0.02,0.027-0.036,0.036C3.301,1.306,3.295,1.32,3.306,1.335
		c0.018,0.024,0.015,0.048,0.001,0.072C3.302,1.415,3.298,1.423,3.296,1.432C3.279,1.499,3.247,1.561,3.2,1.615
		C3.193,1.623,3.188,1.633,3.18,1.64C3.166,1.652,3.146,1.661,3.149,1.683C3.149,1.688,3.143,1.694,3.14,1.699
		c-0.007,0.01-0.015,0.019-0.02,0.03C3.094,1.794,3.045,1.847,3.018,1.911C2.992,1.97,2.948,2.021,2.915,2.077
		c-0.009,0.016-0.013,0.04-0.04,0.044c-0.001,0-0.003,0.002-0.002,0.003c0.01,0.017-0.009,0.02-0.016,0.029
		C2.85,2.162,2.842,2.17,2.848,2.183c0.003,0.006-0.003,0.014-0.009,0.011C2.818,2.183,2.817,2.2,2.814,2.209
		C2.809,2.226,2.805,2.243,2.803,2.26C2.802,2.264,2.805,2.268,2.799,2.272c-0.013,0.009-0.028,0.03-0.033,0.043
		C2.766,2.317,2.764,2.319,2.763,2.32C2.741,2.328,2.733,2.347,2.721,2.362C2.714,2.37,2.712,2.379,2.719,2.39
		c0.008,0.013,0.001,0.023-0.016,0.027C2.684,2.421,2.677,2.438,2.69,2.452C2.7,2.462,2.701,2.471,2.688,2.48
		C2.659,2.5,2.668,2.53,2.666,2.556c-0.001,0.01,0.005,0.029,0.013,0.035C2.696,2.607,2.691,2.61,2.673,2.616
		C2.659,2.62,2.659,2.633,2.656,2.643C2.653,2.652,2.664,2.651,2.67,2.653c0.005,0.002,0.01,0.004,0.01,0.01
		c0,0.007-0.006,0.006-0.011,0.008C2.654,2.676,2.66,2.691,2.652,2.701c-0.004,0.004,0.01,0.008,0.016,0.011
		C2.673,2.715,2.68,2.716,2.679,2.723C2.677,2.729,2.67,2.73,2.664,2.73C2.644,2.731,2.639,2.741,2.64,2.757
		c0,0.007-0.001,0.014-0.003,0.02C2.621,2.839,2.62,2.903,2.599,2.964C2.596,2.973,2.597,2.981,2.613,2.979
		C2.631,2.977,2.635,2.983,2.626,2.998z"/>
	<path class="st0" d="M0.855,4.167C0.86,4.175,0.864,4.175,0.869,4.166c0.009-0.015,0-0.027-0.008-0.038
		C0.844,4.104,0.846,4.081,0.865,4.059c0.006-0.006,0.012-0.013,0.008-0.022l0,0l0,0v0c-0.005-0.002-0.01-0.004-0.014-0.005
		c-0.025-0.007-0.034,0-0.036,0.024c-0.001,0.015,0.001,0.03-0.005,0.045C0.815,4.106,0.816,4.112,0.819,4.117
		C0.831,4.134,0.843,4.151,0.855,4.167z"/>
	<path class="st0" d="M0.798,4.5c0.008-0.005,0.016-0.007,0.027-0.005C0.839,4.499,0.842,4.492,0.843,4.48
		c0.001-0.011,0.003-0.022,0.005-0.032c0.002-0.007,0.001-0.01-0.007-0.011C0.807,4.433,0.796,4.439,0.788,4.469
		C0.786,4.476,0.784,4.483,0.782,4.491c-0.001,0.005-0.001,0.01,0.003,0.013C0.791,4.51,0.794,4.503,0.798,4.5z"/>
	<path class="st0" d="M4.412,3.89C4.394,3.909,4.395,3.934,4.383,3.955C4.381,3.959,4.384,3.962,4.387,3.966
		c0.013,0.018,0.01,0.023-0.013,0.026c-0.005,0.001-0.011,0-0.013,0.006C4.357,4.005,4.366,4.006,4.37,4.008
		C4.385,4.015,4.392,4.025,4.391,4.04c0,0.007,0.003,0.015,0.004,0.022C4.41,4.058,4.413,4.046,4.418,4.035
		c0.014-0.031,0.027-0.033,0.049-0.007c0.009,0.011,0.015,0.01,0.02-0.002C4.488,4.023,4.49,4.02,4.495,4.019
		c0.01,0.007,0.004,0.019,0.011,0.028c0.007,0.009,0.011,0.019,0.016,0.029c0.003,0.006,0.004,0.013,0.015,0.012
		c0.006,0,0.013,0.001,0.014,0.008c0.001,0.005-0.005,0.008-0.01,0.01C4.528,4.112,4.524,4.119,4.531,4.13
		c0.006,0.012,0.003,0.023-0.006,0.033C4.519,4.168,4.514,4.174,4.523,4.18C4.538,4.189,4.531,4.194,4.52,4.2
		C4.509,4.206,4.5,4.216,4.487,4.202C4.484,4.199,4.472,4.201,4.465,4.203C4.449,4.208,4.433,4.214,4.42,4.222
		C4.406,4.23,4.414,4.236,4.424,4.243C4.45,4.263,4.482,4.231,4.508,4.252c0,0,0.001,0,0.002,0C4.53,4.244,4.545,4.228,4.562,4.215
		c0.009-0.007,0.003-0.021,0.003-0.032C4.567,4.161,4.566,4.138,4.582,4.12C4.585,4.117,4.587,4.114,4.59,4.112
		c0.02-0.017,0.02-0.017-0.003-0.028C4.577,4.078,4.575,4.069,4.58,4.063C4.59,4.051,4.584,4.032,4.606,4.027
		c-0.022,0-0.03-0.013-0.039-0.027C4.559,3.988,4.556,3.978,4.579,3.976c0.014-0.001,0.021-0.012,0.017-0.022
		C4.591,3.942,4.579,3.942,4.569,3.949C4.557,3.956,4.552,3.951,4.551,3.94C4.551,3.936,4.549,3.931,4.548,3.927
		C4.546,3.921,4.539,3.916,4.544,3.91C4.551,3.902,4.558,3.909,4.565,3.91c0.004,0.001,0.009,0.005,0.012,0.001
		C4.582,3.907,4.58,3.902,4.577,3.898C4.573,3.893,4.568,3.888,4.563,3.884C4.56,3.881,4.555,3.878,4.56,3.874
		C4.581,3.854,4.557,3.847,4.547,3.84C4.519,3.82,4.518,3.816,4.545,3.798c-0.009-0.01-0.017-0.019-0.026-0.029
		C4.51,3.759,4.519,3.743,4.507,3.733c-0.004,0.006-0.002,0.01-0.001,0.015c0.003,0.016-0.008,0.024-0.022,0.029
		C4.469,3.783,4.459,3.777,4.453,3.764C4.448,3.755,4.44,3.747,4.431,3.741c-0.006-0.004-0.011-0.004-0.016,0
		C4.41,3.745,4.407,3.749,4.412,3.755C4.415,3.759,4.417,3.763,4.42,3.767C4.434,3.794,4.444,3.82,4.424,3.849
		C4.418,3.857,4.406,3.867,4.417,3.88C4.419,3.881,4.415,3.888,4.412,3.89z"/>
	<path class="st0" d="M4.295,4.015c0,0.013-0.003,0.024-0.007,0.036c-0.003,0.01-0.005,0.02-0.001,0.028
		C4.292,4.09,4.288,4.095,4.279,4.101C4.254,4.117,4.254,4.118,4.274,4.138c0.007,0.005,0.013,0.01,0.017,0.018
		c0.014,0.01,0.021-0.003,0.03-0.008c0.006-0.008,0.016-0.01,0.024-0.015c0.009-0.005,0.015-0.01,0.014-0.02
		c-0.003-0.02,0.002-0.04,0.011-0.058c0.002-0.004,0.004-0.008,0-0.012C4.365,4.039,4.36,4.043,4.356,4.045
		C4.346,4.051,4.338,4.051,4.33,4.042C4.322,4.036,4.314,4.03,4.313,4.019C4.311,4.007,4.324,4.003,4.33,3.995
		C4.302,3.989,4.295,3.993,4.295,4.015z"/>
	<path class="st0" d="M3.917,2.256c0.029-0.02,0.06-0.037,0.093-0.051c0.002-0.001,0.005-0.001,0.007-0.002
		c0.016,0.004,0.028,0.014,0.042,0.02C4.065,2.224,4.07,2.231,4.076,2.221C4.085,2.206,4.093,2.212,4.1,2.223
		c0.004,0.006,0.007,0.012,0.01,0.018c0.005,0.012,0.011,0.018,0.025,0.007C4.148,2.238,4.163,2.235,4.18,2.24
		c0.001,0.002,0.002,0.004,0.004,0.001c0,0-0.002-0.002-0.003-0.002c0-0.006-0.009-0.012-0.002-0.019
		c0.018-0.017,0.003-0.025-0.012-0.032C4.149,2.178,4.129,2.171,4.117,2.154L4.115,2.152C4.09,2.14,4.067,2.123,4.038,2.115
		C4.025,2.106,4.01,2.101,3.994,2.105C3.97,2.112,3.945,2.117,3.92,2.119C3.908,2.12,3.906,2.127,3.908,2.137
		C3.91,2.144,3.913,2.151,3.916,2.158c0.007,0.016,0,0.027-0.017,0.03C3.876,2.192,3.875,2.205,3.88,2.221
		C3.882,2.23,3.884,2.238,3.887,2.247C3.895,2.269,3.898,2.269,3.917,2.256z"/>
	<path class="st0" d="M3.806,2.158C3.805,2.162,3.831,2.186,3.835,2.186C3.846,2.185,3.84,2.177,3.841,2.174
		c0.001-0.014-0.005-0.025-0.019-0.029C3.816,2.144,3.809,2.152,3.806,2.158z"/>
	<path class="st0" d="M4.157,3.983c0.007-0.007,0.017-0.012,0.026-0.016C4.218,3.951,4.255,3.94,4.294,3.937
		c0.01-0.001,0.023,0,0.027-0.011c0.003-0.01-0.029-0.035-0.04-0.033C4.275,3.895,4.269,3.901,4.264,3.894
		C4.26,3.889,4.266,3.883,4.269,3.877C4.272,3.873,4.278,3.87,4.28,3.865c0.002-0.004,0.001-0.008-0.003-0.011
		c-0.003-0.002-0.006,0-0.008,0.002C4.252,3.877,4.228,3.873,4.205,3.868c-0.003-0.001-0.006,0-0.008,0.003
		c-0.006,0.009-0.02,0.013-0.024,0.024C4.169,3.907,4.161,3.91,4.149,3.902C4.143,3.898,4.135,3.893,4.131,3.903
		C4.127,3.91,4.125,3.919,4.138,3.923C4.163,3.93,4.157,3.95,4.154,3.964C4.152,3.978,4.138,3.983,4.117,3.982
		C4.134,3.994,4.146,3.994,4.157,3.983z"/>
	<path class="st0" d="M4.302,3.798c0.001-0.002,0.004-0.004,0.006-0.006c0.009-0.009,0.014-0.02,0.006-0.032
		C4.306,3.749,4.295,3.739,4.279,3.744C4.237,3.757,4.2,3.778,4.184,3.818C4.176,3.836,4.181,3.84,4.202,3.839
		C4.241,3.838,4.282,3.839,4.302,3.798z"/>
	<polygon class="st0" points="2.619,3.376 2.616,3.374 2.615,3.377 2.617,3.379 	"/>
	<path class="st0" d="M4.072,3.875C4.061,3.881,4.052,3.889,4.04,3.895C3.997,3.919,3.99,3.96,3.978,3.999
		C3.975,4.009,3.982,4.016,3.994,4.01c0.029-0.016,0.062-0.023,0.092-0.037c0.009-0.004,0.016-0.008,0.016-0.018
		c0-0.021,0-0.043,0.006-0.06c0-0.013,0.001-0.024-0.01-0.029C4.086,3.86,4.079,3.87,4.072,3.875z"/>
	<path class="st0" d="M4.596,3.897C4.6,3.899,4.6,3.902,4.601,3.905C4.602,3.923,4.61,3.938,4.623,3.951
		C4.625,3.955,4.622,3.96,4.629,3.963c0-0.005,0.001-0.009-0.003-0.013l0,0C4.624,3.934,4.624,3.92,4.634,3.906
		c0.003-0.004,0.003-0.009,0.001-0.014C4.629,3.875,4.624,3.857,4.619,3.839C4.613,3.833,4.608,3.827,4.602,3.82
		C4.598,3.816,4.593,3.812,4.586,3.814C4.579,3.816,4.579,3.822,4.578,3.827c-0.004,0.017,0.004,0.03,0.019,0.039
		C4.608,3.873,4.62,3.878,4.596,3.885C4.588,3.887,4.598,3.893,4.596,3.897z"/>
	<polygon class="st0" points="2.761,3.455 2.758,3.456 2.76,3.459 2.763,3.458 	"/>
	<path class="st0" d="M4.318,3.837C4.313,3.84,4.312,3.844,4.316,3.847C4.331,3.861,4.337,3.88,4.351,3.901
		C4.362,3.87,4.373,3.846,4.395,3.827c0.005-0.004,0.006-0.011,0-0.017C4.39,3.805,4.384,3.803,4.377,3.807
		C4.357,3.817,4.338,3.827,4.318,3.837z"/>
	<path class="st0" d="M3.384,2.13C3.392,2.127,3.4,2.12,3.402,2.111C3.403,2.103,3.396,2.099,3.388,2.1
		C3.377,2.101,3.378,2.11,3.377,2.117C3.379,2.122,3.377,2.132,3.384,2.13z"/>
</g>
</svg>
