<?xml version="1.0" encoding="utf-8"?>
<!-- Generator: Adobe Illustrator 22.0.1, SVG Export Plug-In . SVG Version: 6.00 Build 0)  -->
<svg version="1.1" id="Layer_1" xmlns="http://www.w3.org/2000/svg" xmlns:xlink="http://www.w3.org/1999/xlink" x="0px" y="0px"
	 viewBox="0 0 10 15" style="enable-background:new 0 0 10 15;" xml:space="preserve">
<style type="text/css">
	.st0{fill:#4EA8B5;}
</style>
<g>
	<path class="st0" d="M3.946,10.966c-0.692,0.002-1.383,0.001-2.075,0.001c-0.02,0-0.04,0.001-0.06-0.001
		c-0.099-0.008-0.151-0.064-0.151-0.165c0-1.947,0-3.894,0-5.841c0-0.105,0.059-0.163,0.164-0.163c0.306,0,0.611,0,0.917,0.001
		c0.016,0,0.035-0.01,0.048,0.007c0,0.004,0.001,0.006-0.001,0.007C2.777,4.828,2.763,4.843,2.75,4.858
		C2.636,4.987,2.551,5.13,2.531,5.307C2.526,5.36,2.542,5.37,2.591,5.37C3.71,5.369,4.829,5.369,5.948,5.371
		c0.06,0,0.065-0.025,0.058-0.07C5.987,5.164,5.934,5.042,5.85,4.935C5.816,4.893,5.78,4.852,5.739,4.802
		C5.77,4.801,5.791,4.799,5.812,4.799c0.29,0,0.58,0,0.871,0c0.151,0,0.194,0.045,0.194,0.199c0,0.522,0.001,1.044-0.001,1.566
		c0,0.052,0.013,0.067,0.066,0.067c0.198-0.003,0.396-0.003,0.595,0c0.055,0.001,0.07-0.015,0.07-0.07
		C7.605,6.027,7.606,5.495,7.605,4.961c0-0.115-0.018-0.228-0.063-0.335C7.399,4.281,7.091,4.076,6.71,4.075
		c-0.467-0.001-0.934-0.001-1.4,0c-0.039,0-0.061-0.001-0.067-0.053C5.194,3.6,4.969,3.313,4.568,3.177
		C3.986,2.979,3.353,3.393,3.297,4C3.293,4.06,3.275,4.076,3.215,4.076c-0.465-0.002-0.93-0.005-1.394,0
		C1.455,4.079,1.184,4.248,1.017,4.577C0.974,4.661,0.959,4.752,0.935,4.84c0,2.044,0,4.088,0,6.132
		c0.018,0.007,0.019,0.024,0.022,0.038c0.067,0.339,0.377,0.642,0.784,0.677c0,0.004,0,0.008,0.001,0.011c0.757,0,1.515,0,2.273,0
		c0-0.004,0.001-0.008,0.001-0.013c0.001-0.216,0.001-0.432,0.005-0.647C4.021,10.98,4.004,10.966,3.946,10.966z M4.269,3.705
		c0.219-0.001,0.396,0.178,0.396,0.4c0,0.222-0.175,0.395-0.399,0.394C4.049,4.499,3.868,4.318,3.869,4.105
		C3.871,3.887,4.051,3.706,4.269,3.705z"/>
	<path class="st0" d="M8.496,6.418c-0.038-0.039-0.059-0.041-0.1-0.006C8.203,6.575,8.007,6.736,7.812,6.897
		C6.988,7.578,6.164,8.258,5.341,8.94C5.298,8.975,5.278,8.972,5.243,8.933C4.887,8.546,4.529,8.16,4.172,7.775
		c-0.057-0.061-0.057-0.061-0.119,0C3.658,8.167,3.264,8.56,2.866,8.952c-0.041,0.04-0.043,0.06-0.001,0.102
		c0.515,0.509,1.028,1.021,1.542,1.531c0.269,0.267,0.538,0.533,0.804,0.802c0.043,0.043,0.064,0.037,0.103-0.002
		c0.486-0.485,0.974-0.969,1.461-1.453c0.749-0.745,1.497-1.493,2.247-2.237c0.121-0.12,0.239-0.245,0.37-0.356
		c0-0.004,0-0.009,0-0.013C9.094,7.023,8.793,6.722,8.496,6.418z"/>
</g>
</svg>
