<?xml version="1.0" encoding="utf-8"?>
<!-- Generator: Adobe Illustrator 23.0.1, SVG Export Plug-In . SVG Version: 6.00 Build 0)  -->
<svg version="1.1" id="Layer_1" xmlns="http://www.w3.org/2000/svg" xmlns:xlink="http://www.w3.org/1999/xlink" x="0px" y="0px"
	 viewBox="0 0 387 95.5" style="enable-background:new 0 0 387 95.5;" xml:space="preserve">
<style type="text/css">
	.st0{fill:#00B2E3;}
</style>
<g>
	<polygon class="st0" points="39.777,20.974 7.371,19.505 8.629,26.058 18.734,24.971 17.808,77.886 21.868,78.813 27.453,24.549 
		38.444,24.049 	"/>
	<path class="st0" d="M55.595,68.532c-0.465,0.066-0.943,0.048-1.406,0.115c-5.751,0.309-12.705-1.376-14.612-14.547l23.701-1.6
		c-0.195-2.226-0.295-3.34-0.602-5.118c-1.528-8.804-5.572-16.201-15.639-15.527c-0.369,0.052-0.848,0.034-1.221,0.089
		c-9.932,1.435-13.611,12.029-11.51,24.133c1.677,9.649,7.638,20.415,22.027,18.337c3.434-0.496,6.873-1.513,8.662-2.727
		l-2.871-5.571C60.677,67.104,58.565,68.101,55.595,68.532z M45.993,36.255c4.826-0.698,8.451,3.723,9.787,11.426l-15.948,1.869
		C39.188,43.656,40.515,37.046,45.993,36.255z"/>
	<path class="st0" d="M97.465,39.654l-0.185-0.028c-1.773-4.594-5.22-6.654-8.748-7.162C81.2,31.404,72.567,37.272,70.26,50.562
		c-1.807,10.407-0.519,23.264,11.266,24.966c5.015,0.722,9.456-1.845,11.378-4.691l0.28,0.039L90.465,92l5.077-0.739l7.978-43.183
		l2.161-12.441l-8.111-3.689L97.465,39.654z M95.565,50.05l-1.192,10.153c-0.875,7.768-6.293,9.938-9.451,9.48
		c-8.169-1.179-8.73-12.194-7.524-19.133c1.381-7.957,5.348-13.804,11.381-12.932C93.7,38.329,96.36,43.832,95.565,50.05z"/>
	<polygon class="st0" points="112.468,25.87 113.597,25.87 113.597,28.893 114.052,28.893 114.052,25.87 115.185,25.87 
		115.185,25.464 112.468,25.464 	"/>
	<path class="st0" d="M117.476,27.851c-0.083,0.242-0.143,0.424-0.182,0.549c-0.035-0.113-0.089-0.281-0.163-0.508l-0.812-2.426
		h-0.682v3.428h0.437v-2.919l0.991,2.919h0.409l0.995-2.869v2.869h0.437v-3.428h-0.61L117.476,27.851z"/>
</g>
<g>
	<path class="st0" d="M128.603,66.382h-1.822V44.823h1.822V66.382z"/>
	<path class="st0" d="M136.034,46.26v4.101h3.316v1.451h-3.316v10.687c0,0.89,0.16,1.552,0.481,1.987
		c0.32,0.435,0.857,0.652,1.607,0.652c0.296,0,0.775-0.049,1.436-0.148l0.074,1.438c-0.464,0.166-1.095,0.25-1.895,0.25
		c-1.214,0-2.097-0.353-2.65-1.059c-0.553-0.706-0.829-1.744-0.829-3.117V51.813h-2.946v-1.451h2.946v-4.101h1.777V46.26z"/>
	<path class="st0" d="M141.924,50.11l-1.051-0.77c0.888-1.194,1.347-2.448,1.378-3.76v-1.941h1.747v1.496
		C143.998,47.198,143.306,48.856,141.924,50.11z"/>
	<path class="st0" d="M154.832,62.31c0-0.879-0.353-1.584-1.058-2.118c-0.706-0.533-1.769-0.95-3.19-1.252
		c-1.422-0.301-2.525-0.646-3.31-1.037c-0.785-0.391-1.368-0.866-1.747-1.429c-0.38-0.562-0.57-1.244-0.57-2.043
		c0-1.264,0.528-2.307,1.584-3.132c1.056-0.825,2.409-1.236,4.058-1.236c1.787,0,3.22,0.442,4.301,1.325s1.622,2.036,1.622,3.457
		h-1.777c0-0.938-0.392-1.717-1.177-2.339c-0.785-0.622-1.775-0.932-2.969-0.932c-1.165,0-2.101,0.258-2.806,0.777
		c-0.706,0.519-1.059,1.192-1.059,2.021c0,0.8,0.294,1.42,0.881,1.858c0.587,0.44,1.658,0.841,3.213,1.207
		c1.555,0.365,2.719,0.756,3.494,1.17c0.775,0.415,1.35,0.913,1.725,1.495c0.375,0.583,0.562,1.289,0.562,2.118
		c0,1.353-0.545,2.434-1.636,3.243c-1.091,0.809-2.514,1.215-4.272,1.215c-1.866,0-3.378-0.452-4.539-1.355
		c-1.16-0.903-1.74-2.046-1.74-3.428h1.777c0.068,1.037,0.506,1.843,1.31,2.421c0.804,0.578,1.868,0.866,3.19,0.866
		c1.234,0,2.231-0.271,2.991-0.814C154.451,63.827,154.832,63.14,154.832,62.31z"/>
	<path class="st0" d="M176.565,66.382c-0.178-0.504-0.292-1.248-0.34-2.236c-0.622,0.81-1.414,1.434-2.376,1.874
		c-0.963,0.439-1.982,0.659-3.058,0.659c-1.539,0-2.785-0.43-3.738-1.289c-0.953-0.859-1.429-1.944-1.429-3.257
		c0-1.56,0.649-2.794,1.947-3.702c1.297-0.909,3.106-1.362,5.427-1.362h3.213v-1.822c0-1.145-0.353-2.046-1.059-2.703
		c-0.706-0.656-1.736-0.985-3.087-0.985c-1.234,0-2.256,0.316-3.066,0.948c-0.809,0.632-1.214,1.392-1.214,2.281l-1.777-0.015
		c0-1.273,0.593-2.376,1.777-3.31s2.641-1.399,4.368-1.399c1.787,0,3.195,0.447,4.227,1.34c1.031,0.893,1.562,2.14,1.592,3.739
		v7.581c0,1.55,0.162,2.71,0.488,3.48v0.178C178.462,66.382,176.565,66.382,176.565,66.382z M170.997,65.11
		c1.184,0,2.243-0.287,3.176-0.86c0.932-0.572,1.611-1.337,2.036-2.295v-3.524h-3.169c-1.767,0.02-3.149,0.343-4.146,0.969
		c-0.998,0.627-1.496,1.488-1.496,2.584c0,0.899,0.333,1.644,1,2.236C169.064,64.814,169.93,65.11,170.997,65.11z"/>
	<path class="st0" d="M183.921,66.382h-1.777V43.639h1.777V66.382z"/>
	<path class="st0" d="M189.958,66.382h-1.777V43.639h1.777V66.382z"/>
	<path class="st0" d="M210.742,66.382c-0.178-0.504-0.292-1.248-0.34-2.236c-0.622,0.81-1.414,1.434-2.376,1.874
		c-0.963,0.439-1.982,0.659-3.058,0.659c-1.539,0-2.785-0.43-3.738-1.289c-0.953-0.859-1.429-1.944-1.429-3.257
		c0-1.56,0.649-2.794,1.947-3.702c1.297-0.909,3.106-1.362,5.427-1.362h3.213v-1.822c0-1.145-0.353-2.046-1.059-2.703
		c-0.706-0.656-1.736-0.985-3.087-0.985c-1.234,0-2.256,0.316-3.066,0.948c-0.809,0.632-1.214,1.392-1.214,2.281l-1.777-0.015
		c0-1.273,0.593-2.376,1.777-3.31s2.641-1.399,4.368-1.399c1.787,0,3.195,0.447,4.227,1.34c1.031,0.893,1.562,2.14,1.592,3.739
		v7.581c0,1.55,0.162,2.71,0.488,3.48v0.178C212.64,66.382,210.742,66.382,210.742,66.382z M205.174,65.11
		c1.184,0,2.243-0.287,3.176-0.86c0.932-0.572,1.611-1.337,2.036-2.295v-3.524h-3.169c-1.767,0.02-3.149,0.343-4.146,0.969
		c-0.998,0.627-1.496,1.488-1.496,2.584c0,0.899,0.333,1.644,1,2.236C203.242,64.814,204.108,65.11,205.174,65.11z"/>
	<path class="st0" d="M229.011,58.535c0,2.498-0.554,4.479-1.659,5.946c-1.106,1.467-2.591,2.199-4.456,2.199
		c-2.231,0-3.919-0.829-5.064-2.488l-0.074,2.192H216.1V43.639h1.762v9.047c1.126-1.748,2.793-2.622,5.004-2.622
		c1.895,0,3.393,0.724,4.494,2.17c1.102,1.446,1.651,3.457,1.651,6.033v0.267H229.011z M227.234,58.224
		c0-2.112-0.41-3.744-1.23-4.894c-0.82-1.15-1.974-1.725-3.464-1.725c-1.135,0-2.098,0.279-2.888,0.837
		c-0.789,0.558-1.386,1.374-1.791,2.45v7.226c0.888,2.014,2.459,3.02,4.709,3.02c1.461,0,2.603-0.578,3.427-1.733
		C226.821,62.252,227.234,60.524,227.234,58.224z"/>
	<path class="st0" d="M231.185,58.135c0-1.539,0.299-2.927,0.896-4.161c0.597-1.234,1.442-2.194,2.533-2.88
		c1.09-0.686,2.327-1.029,3.709-1.029c2.132,0,3.859,0.748,5.181,2.243c1.323,1.496,1.984,3.478,1.984,5.946v0.37
		c0,1.55-0.299,2.944-0.896,4.184c-0.598,1.239-1.438,2.194-2.525,2.865c-1.086,0.672-2.325,1.007-3.717,1.007
		c-2.122,0-3.847-0.748-5.175-2.244c-1.329-1.495-1.992-3.477-1.992-5.946v-0.355H231.185z M232.962,58.624
		c0,1.915,0.496,3.487,1.488,4.716c0.992,1.229,2.293,1.843,3.901,1.843c1.6,0,2.895-0.614,3.887-1.843
		c0.992-1.229,1.488-2.85,1.488-4.864v-0.34c0-1.223-0.228-2.345-0.682-3.361c-0.454-1.016-1.091-1.804-1.911-2.362
		c-0.82-0.558-1.756-0.837-2.813-0.837c-1.579,0-2.869,0.62-3.866,1.857c-0.998,1.24-1.496,2.86-1.496,4.864v0.327H232.962z"/>
	<path class="st0" d="M258.693,64.354c-1.065,1.55-2.768,2.325-5.107,2.325c-1.708,0-3.007-0.496-3.895-1.488
		c-0.888-0.992-1.342-2.46-1.362-4.405V50.362h1.762v10.202c0,3.05,1.234,4.576,3.702,4.576c2.566,0,4.19-1.061,4.872-3.184V50.362
		h1.777v16.022h-1.718L258.693,64.354z"/>
	<path class="st0" d="M267.042,46.26v4.101h3.317v1.451h-3.317v10.687c0,0.89,0.16,1.552,0.481,1.987
		c0.32,0.435,0.857,0.652,1.606,0.652c0.296,0,0.775-0.049,1.436-0.148l0.074,1.438c-0.465,0.166-1.096,0.25-1.895,0.25
		c-1.214,0-2.098-0.353-2.65-1.059c-0.554-0.706-0.829-1.744-0.829-3.117V51.813h-2.947v-1.451h2.947v-4.101h1.778V46.26z"/>
	<path class="st0" d="M281.872,66.382h-1.777V43.639h1.777V66.382z"/>
	<path class="st0" d="M292.13,66.679c-1.362,0-2.593-0.335-3.694-1.007c-1.101-0.671-1.957-1.607-2.568-2.806
		c-0.611-1.198-0.918-2.545-0.918-4.035v-0.636c0-1.54,0.298-2.927,0.896-4.161c0.597-1.234,1.429-2.204,2.496-2.909
		c1.065-0.706,2.221-1.059,3.464-1.059c1.944,0,3.488,0.664,4.628,1.991c1.141,1.329,1.71,3.143,1.71,5.442v0.992h-11.431v0.341
		c0,1.816,0.52,3.329,1.562,4.539c1.041,1.209,2.351,1.814,3.931,1.814c0.948,0,1.785-0.173,2.51-0.519
		c0.725-0.345,1.384-0.898,1.976-1.658l1.111,0.843C296.499,65.736,294.609,66.679,292.13,66.679z M291.805,51.576
		c-1.333,0-2.456,0.488-3.37,1.465c-0.913,0.977-1.469,2.29-1.665,3.938h9.61v-0.192c-0.05-1.539-0.488-2.793-1.318-3.761
		C294.233,52.06,293.147,51.576,291.805,51.576z"/>
	<path class="st0" d="M310.947,66.382c-0.178-0.504-0.292-1.248-0.34-2.236c-0.622,0.81-1.414,1.434-2.376,1.874
		c-0.963,0.439-1.982,0.659-3.058,0.659c-1.539,0-2.786-0.43-3.738-1.289c-0.953-0.859-1.429-1.944-1.429-3.257
		c0-1.56,0.649-2.794,1.947-3.702c1.297-0.909,3.106-1.362,5.427-1.362h3.213v-1.822c0-1.145-0.353-2.046-1.059-2.703
		c-0.706-0.656-1.736-0.985-3.087-0.985c-1.234,0-2.256,0.316-3.066,0.948c-0.809,0.632-1.214,1.392-1.214,2.281l-1.777-0.015
		c0-1.273,0.593-2.376,1.777-3.31s2.641-1.399,4.368-1.399c1.787,0,3.195,0.447,4.227,1.34c1.031,0.893,1.562,2.14,1.592,3.739
		v7.581c0,1.55,0.162,2.71,0.488,3.48v0.178C312.845,66.382,310.947,66.382,310.947,66.382z M305.381,65.11
		c1.184,0,2.243-0.287,3.176-0.86c0.932-0.572,1.611-1.337,2.036-2.295v-3.524h-3.169c-1.767,0.02-3.149,0.343-4.146,0.969
		c-0.998,0.627-1.496,1.488-1.496,2.584c0,0.899,0.333,1.644,1,2.236C303.447,64.814,304.314,65.11,305.381,65.11z"/>
	<path class="st0" d="M323.723,51.872c-0.376-0.068-0.775-0.103-1.2-0.103c-1.106,0-2.041,0.308-2.805,0.926
		c-0.765,0.617-1.311,1.513-1.637,2.688v11.002h-1.762V50.362h1.733l0.029,2.547c0.938-1.895,2.444-2.843,4.516-2.843
		c0.494,0,0.884,0.065,1.17,0.192L323.723,51.872z"/>
	<path class="st0" d="M327.452,50.362l0.06,2.739c0.602-0.987,1.353-1.74,2.25-2.258c0.898-0.518,1.89-0.777,2.977-0.777
		c1.717,0,2.996,0.484,3.834,1.451c0.839,0.967,1.264,2.419,1.274,4.353v10.513h-1.763V55.856c-0.01-1.431-0.313-2.498-0.911-3.198
		c-0.597-0.701-1.552-1.052-2.865-1.052c-1.096,0-2.066,0.343-2.91,1.029c-0.843,0.686-1.469,1.612-1.874,2.777v10.972h-1.762
		V50.362H327.452z"/>
	<path class="st0" d="M341.56,45.734c0-0.333,0.11-0.616,0.326-0.846c0.217-0.23,0.515-0.346,0.889-0.346s0.673,0.115,0.896,0.346
		c0.221,0.23,0.333,0.512,0.333,0.846c0,0.333-0.112,0.613-0.333,0.838c-0.223,0.226-0.521,0.339-0.896,0.339
		c-0.376,0-0.672-0.113-0.889-0.339C341.668,46.348,341.56,46.067,341.56,45.734z M343.648,66.382h-1.777v-16.02h1.777V66.382z"/>
	<path class="st0" d="M349.39,50.362l0.06,2.739c0.602-0.987,1.353-1.74,2.25-2.258c0.898-0.518,1.89-0.777,2.977-0.777
		c1.717,0,2.996,0.484,3.834,1.451c0.839,0.967,1.264,2.419,1.274,4.353v10.513h-1.763V55.856c-0.01-1.431-0.313-2.498-0.911-3.198
		c-0.597-0.701-1.552-1.052-2.865-1.052c-1.096,0-2.066,0.343-2.91,1.029c-0.843,0.686-1.469,1.612-1.874,2.777v10.972h-1.762
		V50.362H349.39z"/>
	<path class="st0" d="M362.892,58.224c0-2.508,0.555-4.494,1.665-5.96c1.109-1.467,2.618-2.199,4.523-2.199
		c2.182,0,3.84,0.868,4.975,2.606l0.089-2.31h1.658v15.695c0,2.064-0.576,3.697-1.733,4.901c-1.154,1.204-2.719,1.806-4.694,1.806
		c-1.115,0-2.179-0.249-3.19-0.748c-1.012-0.498-1.809-1.163-2.39-1.991l0.991-1.066c1.254,1.539,2.744,2.31,4.472,2.31
		c1.48,0,2.636-0.436,3.464-1.311c0.829-0.874,1.258-2.085,1.289-3.635v-2.014c-1.135,1.579-2.788,2.37-4.96,2.37
		c-1.856,0-3.347-0.74-4.471-2.221c-1.126-1.481-1.688-3.479-1.688-5.997L362.892,58.224L362.892,58.224z M364.683,58.535
		c0,2.043,0.409,3.655,1.229,4.835s1.974,1.769,3.464,1.769c2.182,0,3.727-0.977,4.635-2.932v-7.448
		c-0.415-1.027-1.012-1.81-1.791-2.347c-0.779-0.537-1.717-0.808-2.814-0.808c-1.49,0-2.65,0.585-3.479,1.755
		C365.098,54.53,364.683,56.254,364.683,58.535z"/>
	<path class="st0" d="M379.502,65.316c0-0.345,0.112-0.639,0.334-0.881c0.221-0.242,0.53-0.363,0.926-0.363
		c0.394,0,0.705,0.12,0.932,0.363c0.227,0.242,0.34,0.536,0.34,0.881c0,0.345-0.113,0.63-0.34,0.851
		c-0.228,0.223-0.538,0.333-0.932,0.333c-0.395,0-0.703-0.111-0.926-0.333C379.612,65.946,379.502,65.663,379.502,65.316z"/>
</g>
</svg>
