<?xml version="1.0" encoding="utf-8"?>
<!-- Generator: Adobe Illustrator 22.1.0, SVG Export Plug-In . SVG Version: 6.00 Build 0)  -->
<svg version="1.1" id="Layer_1" xmlns="http://www.w3.org/2000/svg" xmlns:xlink="http://www.w3.org/1999/xlink" x="0px" y="0px"
	 viewBox="0 0 387 95.5" style="enable-background:new 0 0 387 95.5;" xml:space="preserve">
<style type="text/css">
	.st0{fill:#00B2E3;}
</style>
<g>
	<polygon class="st0" points="60.603,26.571 30.751,25.218 31.91,31.254 41.218,30.253 40.365,78.998 44.105,79.852 49.25,29.864 
		59.375,29.404 	"/>
	<path class="st0" d="M75.175,70.381c-0.428,0.061-0.869,0.044-1.295,0.106c-5.298,0.285-11.704-1.268-13.461-13.401l21.833-1.474
		c-0.18-2.051-0.272-3.077-0.555-4.715c-1.408-8.11-5.133-14.924-14.407-14.303c-0.34,0.048-0.781,0.031-1.125,0.082
		c-9.149,1.322-12.538,11.081-10.603,22.231c1.545,8.889,7.036,18.806,20.291,16.892c3.163-0.457,6.331-1.394,7.979-2.512
		l-2.645-5.132C79.856,69.066,77.911,69.984,75.175,70.381z M66.329,40.648c4.446-0.643,7.785,3.43,9.016,10.526l-14.691,1.722
		C60.061,47.466,61.283,41.376,66.329,40.648z"/>
	<path class="st0" d="M113.745,43.779l-0.17-0.026c-1.633-4.232-4.809-6.13-8.059-6.598c-6.754-0.976-14.707,4.43-16.832,16.672
		c-1.665,9.587-0.478,21.431,10.378,22.999c4.62,0.665,8.711-1.7,10.481-4.321l0.258,0.036L107.297,92l4.677-0.681l7.349-39.78
		l1.991-11.461l-7.472-3.398L113.745,43.779z M111.995,53.356l-1.098,9.353c-0.806,7.156-5.797,9.155-8.706,8.733
		c-7.525-1.086-8.042-11.233-6.931-17.625c1.272-7.33,4.927-12.716,10.484-11.913C110.277,42.558,112.727,47.628,111.995,53.356z"/>
	<polygon class="st0" points="127.566,31.081 128.606,31.081 128.606,33.866 129.025,33.866 129.025,31.081 130.069,31.081 
		130.069,30.707 127.566,30.707 	"/>
	<path class="st0" d="M132.179,32.906c-0.076,0.223-0.132,0.391-0.168,0.506c-0.032-0.104-0.082-0.259-0.15-0.468l-0.748-2.235
		h-0.628v3.158h0.403v-2.689l0.913,2.689h0.377l0.917-2.643v2.643h0.403v-3.158h-0.562L132.179,32.906z"/>
</g>
<g>
	<rect x="2" y="23.724" width="0.8" height="67.965"/>
</g>
<g>
	<path class="st0" d="M142.43,68.401h-1.678v-19.86h1.678V68.401z"/>
	<path class="st0" d="M149.275,49.864v3.778h3.055v1.337h-3.055v9.845c0,0.82,0.147,1.43,0.443,1.83
		c0.295,0.401,0.789,0.601,1.48,0.601c0.273,0,0.714-0.045,1.323-0.136l0.068,1.325c-0.427,0.153-1.009,0.23-1.746,0.23
		c-1.118,0-1.932-0.325-2.441-0.976c-0.509-0.65-0.764-1.607-0.764-2.871V54.98h-2.714v-1.337h2.714v-3.778H149.275z"/>
	<path class="st0" d="M154.701,53.411l-0.968-0.709c0.818-1.1,1.241-2.255,1.269-3.464V47.45h1.609v1.378
		C156.611,50.728,155.974,52.256,154.701,53.411z"/>
	<path class="st0" d="M166.592,64.65c0-0.81-0.325-1.459-0.975-1.951c-0.65-0.491-1.63-0.875-2.939-1.153
		c-1.31-0.277-2.326-0.595-3.049-0.955s-1.26-0.798-1.609-1.316c-0.35-0.518-0.525-1.146-0.525-1.882
		c0-1.164,0.486-2.125,1.459-2.885s2.219-1.139,3.738-1.139c1.646,0,2.966,0.407,3.962,1.221c0.996,0.814,1.494,1.876,1.494,3.185
		h-1.637c0-0.864-0.361-1.582-1.084-2.155c-0.723-0.573-1.635-0.859-2.735-0.859c-1.073,0-1.935,0.238-2.585,0.716
		c-0.65,0.478-0.976,1.098-0.976,1.862c0,0.737,0.271,1.308,0.812,1.712c0.541,0.405,1.527,0.775,2.96,1.112
		c1.432,0.336,2.505,0.696,3.219,1.078s1.244,0.841,1.589,1.377c0.345,0.537,0.518,1.187,0.518,1.951
		c0,1.246-0.502,2.242-1.507,2.987s-2.316,1.119-3.935,1.119c-1.719,0-3.112-0.416-4.181-1.248
		c-1.069-0.832-1.603-1.885-1.603-3.158h1.637c0.063,0.955,0.466,1.698,1.207,2.23s1.721,0.798,2.939,0.798
		c1.137,0,2.055-0.25,2.755-0.75S166.592,65.414,166.592,64.65z"/>
	<path class="st0" d="M186.612,68.401c-0.164-0.464-0.269-1.15-0.313-2.06c-0.573,0.746-1.303,1.321-2.189,1.726
		c-0.887,0.404-1.826,0.607-2.817,0.607c-1.418,0-2.566-0.396-3.443-1.187c-0.878-0.791-1.316-1.791-1.316-3
		c0-1.437,0.598-2.574,1.794-3.41c1.195-0.837,2.861-1.255,4.999-1.255h2.96v-1.678c0-1.055-0.325-1.885-0.976-2.49
		c-0.65-0.604-1.599-0.907-2.844-0.907c-1.137,0-2.078,0.291-2.824,0.873c-0.745,0.582-1.118,1.282-1.118,2.101l-1.637-0.014
		c0-1.173,0.546-2.189,1.637-3.049s2.433-1.289,4.024-1.289c1.646,0,2.943,0.412,3.894,1.234c0.95,0.823,1.439,1.971,1.467,3.444
		v6.984c0,1.428,0.149,2.496,0.45,3.206v0.164H186.612z M181.483,67.229c1.091,0,2.066-0.264,2.926-0.792
		c0.859-0.527,1.484-1.232,1.876-2.114v-3.246h-2.919c-1.628,0.018-2.901,0.316-3.819,0.893c-0.919,0.578-1.378,1.371-1.378,2.38
		c0,0.828,0.307,1.514,0.921,2.06C179.702,66.956,180.5,67.229,181.483,67.229z"/>
	<path class="st0" d="M193.388,68.401h-1.637V47.45h1.637V68.401z"/>
	<path class="st0" d="M198.95,68.401h-1.637V47.45h1.637V68.401z"/>
	<path class="st0" d="M218.096,68.401c-0.164-0.464-0.269-1.15-0.313-2.06c-0.573,0.746-1.303,1.321-2.189,1.726
		c-0.887,0.404-1.826,0.607-2.817,0.607c-1.418,0-2.566-0.396-3.443-1.187c-0.878-0.791-1.316-1.791-1.316-3
		c0-1.437,0.598-2.574,1.794-3.41c1.195-0.837,2.861-1.255,4.999-1.255h2.96v-1.678c0-1.055-0.325-1.885-0.976-2.49
		c-0.65-0.604-1.599-0.907-2.844-0.907c-1.137,0-2.078,0.291-2.824,0.873c-0.745,0.582-1.118,1.282-1.118,2.101l-1.637-0.014
		c0-1.173,0.546-2.189,1.637-3.049s2.433-1.289,4.024-1.289c1.646,0,2.943,0.412,3.894,1.234c0.95,0.823,1.439,1.971,1.467,3.444
		v6.984c0,1.428,0.149,2.496,0.45,3.206v0.164H218.096z M212.967,67.229c1.091,0,2.066-0.264,2.926-0.792
		c0.859-0.527,1.484-1.232,1.876-2.114v-3.246h-2.919c-1.628,0.018-2.901,0.316-3.819,0.893c-0.919,0.578-1.378,1.371-1.378,2.38
		c0,0.828,0.307,1.514,0.921,2.06C211.187,66.956,211.985,67.229,212.967,67.229z"/>
	<path class="st0" d="M234.925,61.172c0,2.301-0.51,4.126-1.528,5.477c-1.019,1.351-2.387,2.026-4.105,2.026
		c-2.055,0-3.61-0.764-4.665-2.292l-0.068,2.019h-1.527V47.45h1.623v8.334c1.037-1.61,2.573-2.415,4.61-2.415
		c1.746,0,3.126,0.667,4.14,1.999c1.015,1.332,1.521,3.185,1.521,5.558V61.172z M233.288,60.886c0-1.946-0.378-3.449-1.133-4.508
		c-0.755-1.059-1.818-1.589-3.191-1.589c-1.046,0-1.933,0.257-2.66,0.771s-1.277,1.266-1.65,2.257v6.657
		c0.818,1.855,2.265,2.782,4.338,2.782c1.346,0,2.398-0.532,3.157-1.596C232.908,64.596,233.288,63.004,233.288,60.886z"/>
	<path class="st0" d="M236.928,60.804c0-1.418,0.275-2.696,0.825-3.833s1.328-2.021,2.333-2.653
		c1.004-0.632,2.144-0.948,3.417-0.948c1.964,0,3.555,0.689,4.773,2.066c1.219,1.378,1.828,3.204,1.828,5.477v0.341
		c0,1.428-0.275,2.712-0.825,3.854c-0.551,1.141-1.325,2.021-2.326,2.639c-1,0.619-2.142,0.928-3.424,0.928
		c-1.955,0-3.544-0.689-4.767-2.067c-1.224-1.377-1.835-3.203-1.835-5.477V60.804z M238.565,61.254c0,1.764,0.457,3.212,1.371,4.344
		c0.914,1.132,2.112,1.698,3.594,1.698c1.474,0,2.667-0.566,3.581-1.698c0.914-1.132,1.371-2.625,1.371-4.481v-0.313
		c0-1.127-0.21-2.16-0.628-3.096s-1.005-1.662-1.76-2.176s-1.618-0.771-2.591-0.771c-1.455,0-2.643,0.571-3.561,1.711
		c-0.919,1.142-1.378,2.635-1.378,4.481V61.254z"/>
	<path class="st0" d="M262.268,66.533c-0.981,1.428-2.55,2.142-4.705,2.142c-1.573,0-2.77-0.457-3.588-1.371
		c-0.818-0.914-1.236-2.266-1.255-4.058v-9.603h1.623v9.398c0,2.81,1.137,4.215,3.41,4.215c2.364,0,3.86-0.977,4.488-2.933v-10.68
		h1.637v14.759h-1.583L262.268,66.533z"/>
	<path class="st0" d="M269.959,49.864v3.778h3.056v1.337h-3.056v9.845c0,0.82,0.147,1.43,0.443,1.83
		c0.295,0.401,0.789,0.601,1.479,0.601c0.273,0,0.714-0.045,1.323-0.136l0.068,1.325c-0.428,0.153-1.01,0.23-1.746,0.23
		c-1.118,0-1.933-0.325-2.441-0.976c-0.51-0.65-0.764-1.607-0.764-2.871V54.98h-2.715v-1.337h2.715v-3.778H269.959z"/>
	<path class="st0" d="M283.621,68.401h-1.637V47.45h1.637V68.401z"/>
	<path class="st0" d="M293.07,68.674c-1.255,0-2.389-0.309-3.403-0.928c-1.014-0.618-1.803-1.48-2.366-2.585
		c-0.563-1.104-0.846-2.344-0.846-3.717v-0.586c0-1.419,0.275-2.696,0.825-3.833s1.316-2.03,2.299-2.68
		c0.981-0.65,2.046-0.976,3.191-0.976c1.791,0,3.213,0.612,4.263,1.834c1.051,1.224,1.575,2.895,1.575,5.013v0.914h-10.53v0.314
		c0,1.673,0.479,3.067,1.439,4.181c0.959,1.114,2.166,1.671,3.621,1.671c0.873,0,1.644-0.159,2.312-0.478
		c0.668-0.318,1.275-0.827,1.82-1.527l1.023,0.777C297.095,67.806,295.354,68.674,293.07,68.674z M292.771,54.761
		c-1.228,0-2.262,0.45-3.104,1.35c-0.841,0.9-1.353,2.11-1.534,3.628h8.853v-0.177c-0.046-1.418-0.45-2.573-1.214-3.465
		C295.008,55.207,294.007,54.761,292.771,54.761z"/>
	<path class="st0" d="M310.405,68.401c-0.164-0.464-0.269-1.15-0.313-2.06c-0.573,0.746-1.303,1.321-2.189,1.726
		c-0.887,0.404-1.826,0.607-2.817,0.607c-1.418,0-2.566-0.396-3.443-1.187c-0.878-0.791-1.316-1.791-1.316-3
		c0-1.437,0.598-2.574,1.794-3.41c1.195-0.837,2.861-1.255,4.999-1.255h2.96v-1.678c0-1.055-0.325-1.885-0.976-2.49
		c-0.65-0.604-1.599-0.907-2.844-0.907c-1.137,0-2.078,0.291-2.824,0.873c-0.745,0.582-1.118,1.282-1.118,2.101l-1.637-0.014
		c0-1.173,0.546-2.189,1.637-3.049s2.433-1.289,4.024-1.289c1.646,0,2.943,0.412,3.894,1.234c0.95,0.823,1.439,1.971,1.467,3.444
		v6.984c0,1.428,0.149,2.496,0.45,3.206v0.164H310.405z M305.277,67.229c1.091,0,2.066-0.264,2.926-0.792
		c0.859-0.527,1.484-1.232,1.876-2.114v-3.246h-2.919c-1.628,0.018-2.901,0.316-3.819,0.893c-0.919,0.578-1.378,1.371-1.378,2.38
		c0,0.828,0.307,1.514,0.921,2.06C303.496,66.956,304.294,67.229,305.277,67.229z"/>
	<path class="st0" d="M322.174,55.034c-0.346-0.063-0.714-0.095-1.105-0.095c-1.019,0-1.88,0.284-2.584,0.853
		c-0.705,0.568-1.208,1.394-1.508,2.476v10.135h-1.623V53.643h1.596l0.027,2.346c0.864-1.746,2.251-2.619,4.16-2.619
		c0.455,0,0.814,0.06,1.078,0.177L322.174,55.034z"/>
	<path class="st0" d="M325.609,53.643l0.055,2.523c0.555-0.909,1.246-1.603,2.073-2.08s1.741-0.716,2.742-0.716
		c1.582,0,2.76,0.446,3.532,1.337c0.773,0.891,1.164,2.228,1.174,4.01v9.685h-1.624v-9.698c-0.009-1.318-0.288-2.301-0.839-2.946
		c-0.55-0.646-1.43-0.969-2.639-0.969c-1.01,0-1.903,0.316-2.681,0.948c-0.777,0.632-1.353,1.485-1.726,2.558v10.107h-1.623V53.643
		H325.609z"/>
	<path class="st0" d="M338.605,49.38c0-0.307,0.101-0.567,0.3-0.779c0.2-0.212,0.474-0.319,0.819-0.319
		c0.345,0,0.62,0.106,0.825,0.319c0.204,0.212,0.307,0.472,0.307,0.779s-0.103,0.565-0.307,0.772
		c-0.205,0.208-0.48,0.312-0.825,0.312c-0.346,0-0.619-0.104-0.819-0.312C338.705,49.945,338.605,49.687,338.605,49.38z
		 M340.529,68.401h-1.637V53.643h1.637V68.401z"/>
	<path class="st0" d="M345.818,53.643l0.055,2.523c0.555-0.909,1.246-1.603,2.073-2.08s1.741-0.716,2.742-0.716
		c1.582,0,2.76,0.446,3.532,1.337c0.773,0.891,1.164,2.228,1.174,4.01v9.685h-1.624v-9.698c-0.009-1.318-0.288-2.301-0.839-2.946
		c-0.55-0.646-1.43-0.969-2.639-0.969c-1.01,0-1.903,0.316-2.681,0.948c-0.777,0.632-1.353,1.485-1.726,2.558v10.107h-1.623V53.643
		H345.818z"/>
	<path class="st0" d="M358.256,60.886c0-2.31,0.511-4.14,1.534-5.49c1.022-1.351,2.412-2.026,4.167-2.026
		c2.01,0,3.537,0.8,4.583,2.401l0.082-2.128h1.527v14.458c0,1.901-0.531,3.406-1.596,4.515c-1.063,1.109-2.505,1.664-4.324,1.664
		c-1.027,0-2.007-0.229-2.939-0.689c-0.932-0.459-1.666-1.071-2.202-1.834l0.913-0.982c1.155,1.418,2.528,2.128,4.12,2.128
		c1.363,0,2.428-0.402,3.191-1.208c0.764-0.805,1.159-1.921,1.187-3.349v-1.855c-1.046,1.455-2.568,2.183-4.569,2.183
		c-1.71,0-3.083-0.682-4.119-2.046c-1.037-1.364-1.555-3.205-1.555-5.524V60.886z M359.906,61.172c0,1.882,0.377,3.367,1.132,4.454
		c0.755,1.087,1.818,1.63,3.191,1.63c2.01,0,3.433-0.9,4.27-2.701v-6.861c-0.382-0.946-0.932-1.667-1.65-2.162
		s-1.582-0.744-2.592-0.744c-1.373,0-2.441,0.539-3.205,1.617S359.906,59.071,359.906,61.172z"/>
	<path class="st0" d="M373.557,67.419c0-0.318,0.103-0.589,0.308-0.812c0.204-0.223,0.488-0.334,0.853-0.334
		c0.363,0,0.649,0.111,0.859,0.334c0.209,0.223,0.313,0.494,0.313,0.812s-0.104,0.58-0.313,0.784
		c-0.21,0.205-0.496,0.307-0.859,0.307c-0.364,0-0.648-0.102-0.853-0.307C373.659,67.999,373.557,67.738,373.557,67.419z"/>
</g>
</svg>
