<?xml version="1.0" encoding="utf-8"?>
<!-- Generator: Adobe Illustrator 22.1.0, SVG Export Plug-In . SVG Version: 6.00 Build 0)  -->
<svg version="1.1" id="Layer_1" xmlns="http://www.w3.org/2000/svg" xmlns:xlink="http://www.w3.org/1999/xlink" x="0px" y="0px"
	 viewBox="0 0 387 95.5" style="enable-background:new 0 0 387 95.5;" xml:space="preserve">
<style type="text/css">
	.st0{fill:#00B2E3;}
</style>
<g>
	<polygon class="st0" points="34.796,21.215 2.5,19.752 3.754,26.282 13.824,25.199 12.901,77.934 16.947,78.858 22.513,24.778 
		33.467,24.28 	"/>
	<path class="st0" d="M50.56,68.611c-0.463,0.066-0.94,0.048-1.401,0.115c-5.732,0.308-12.662-1.372-14.563-14.498l23.62-1.595
		c-0.195-2.219-0.294-3.329-0.6-5.101c-1.523-8.774-5.553-16.146-15.586-15.474c-0.368,0.052-0.845,0.034-1.217,0.089
		c-9.898,1.43-13.564,11.988-11.471,24.051c1.671,9.617,7.612,20.345,21.952,18.275c3.422-0.494,6.849-1.508,8.632-2.718
		l-2.861-5.552C55.624,67.189,53.52,68.182,50.56,68.611z M40.99,36.445c4.81-0.696,8.422,3.711,9.754,11.388l-15.894,1.863
		C34.209,43.821,35.531,37.232,40.99,36.445z"/>
	<path class="st0" d="M92.287,39.832l-0.184-0.028c-1.767-4.578-5.203-6.632-8.719-7.138c-7.307-1.056-15.911,4.793-18.21,18.037
		c-1.801,10.372-0.517,23.185,11.227,24.882c4.998,0.719,9.424-1.839,11.339-4.675l0.279,0.039L85.312,92l5.06-0.737l7.951-43.036
		l2.154-12.399l-8.084-3.676L92.287,39.832z M90.394,50.193l-1.188,10.119c-0.872,7.742-6.272,9.904-9.419,9.448
		c-8.141-1.175-8.7-12.152-7.498-19.068c1.376-7.93,5.33-13.757,11.342-12.888C88.536,38.511,91.186,43.996,90.394,50.193z"/>
	<polygon class="st0" points="107.24,26.095 108.365,26.095 108.365,29.108 108.818,29.108 108.818,26.095 109.948,26.095 
		109.948,25.69 107.24,25.69 	"/>
	<path class="st0" d="M112.23,28.069c-0.082,0.241-0.143,0.423-0.182,0.547c-0.035-0.113-0.089-0.28-0.162-0.506l-0.809-2.418
		h-0.679v3.416h0.436v-2.909l0.988,2.909h0.408l0.992-2.859v2.859h0.436v-3.416h-0.608L112.23,28.069z"/>
</g>
<g>
	<path class="st0" d="M123.32,66.469h-1.815V44.984h1.815V66.469z"/>
	<path class="st0" d="M130.726,46.415v4.087h3.305v1.446h-3.305V62.6c0,0.887,0.159,1.547,0.479,1.98
		c0.319,0.434,0.854,0.65,1.601,0.65c0.295,0,0.772-0.049,1.431-0.147l0.074,1.433c-0.462,0.166-1.092,0.249-1.889,0.249
		c-1.21,0-2.09-0.352-2.641-1.056c-0.551-0.703-0.827-1.739-0.827-3.106V51.95h-2.936v-1.446h2.936v-4.087h1.771V46.415z"/>
	<path class="st0" d="M136.596,50.252l-1.047-0.767c0.885-1.19,1.343-2.44,1.373-3.748v-1.934h1.741v1.491
		C138.662,47.35,137.973,49.003,136.596,50.252z"/>
	<path class="st0" d="M149.46,62.411c0-0.876-0.352-1.578-1.055-2.111c-0.703-0.531-1.763-0.947-3.18-1.247
		c-1.417-0.3-2.516-0.644-3.299-1.033c-0.782-0.389-1.363-0.863-1.741-1.424c-0.379-0.56-0.568-1.24-0.568-2.036
		c0-1.259,0.526-2.299,1.578-3.121c1.053-0.822,2.401-1.232,4.044-1.232c1.781,0,3.209,0.44,4.286,1.321s1.616,2.03,1.616,3.446
		h-1.771c0-0.935-0.391-1.711-1.173-2.331c-0.782-0.62-1.769-0.929-2.959-0.929c-1.161,0-2.093,0.257-2.797,0.775
		c-0.703,0.517-1.056,1.188-1.056,2.014c0,0.797,0.293,1.415,0.878,1.852c0.585,0.438,1.652,0.838,3.202,1.203
		c1.549,0.364,2.71,0.753,3.482,1.166s1.346,0.91,1.719,1.49c0.373,0.581,0.56,1.284,0.56,2.111c0,1.348-0.543,2.426-1.63,3.231
		s-2.506,1.211-4.257,1.211c-1.86,0-3.367-0.45-4.523-1.35c-1.157-0.9-1.734-2.039-1.734-3.416h1.771
		c0.068,1.033,0.504,1.837,1.306,2.413s1.862,0.863,3.18,0.863c1.23,0,2.223-0.27,2.981-0.811
		C149.08,63.923,149.46,63.238,149.46,62.411z"/>
	<path class="st0" d="M171.119,66.469c-0.177-0.502-0.291-1.244-0.339-2.229c-0.62,0.807-1.41,1.429-2.368,1.867
		c-0.96,0.437-1.975,0.657-3.048,0.657c-1.534,0-2.776-0.428-3.725-1.284c-0.95-0.856-1.424-1.938-1.424-3.246
		c0-1.555,0.647-2.785,1.941-3.689c1.293-0.906,3.095-1.358,5.408-1.358h3.202v-1.815c0-1.141-0.352-2.039-1.056-2.694
		c-0.703-0.653-1.73-0.981-3.077-0.981c-1.23,0-2.248,0.315-3.055,0.944c-0.806,0.63-1.21,1.387-1.21,2.273l-1.771-0.015
		c0-1.269,0.591-2.368,1.771-3.299c1.18-0.93,2.632-1.395,4.353-1.395c1.781,0,3.184,0.446,4.213,1.335
		c1.028,0.89,1.557,2.132,1.587,3.726v7.556c0,1.545,0.161,2.7,0.487,3.468v0.177C173.01,66.469,171.119,66.469,171.119,66.469z
		 M165.57,65.201c1.18,0,2.235-0.286,3.165-0.857c0.929-0.57,1.605-1.333,2.03-2.287v-3.512h-3.158
		c-1.761,0.019-3.138,0.342-4.132,0.966c-0.994,0.625-1.491,1.483-1.491,2.575c0,0.896,0.332,1.638,0.996,2.229
		C163.643,64.906,164.507,65.201,165.57,65.201z"/>
	<path class="st0" d="M178.449,66.469h-1.771V43.803h1.771V66.469z"/>
	<path class="st0" d="M184.467,66.469h-1.771V43.803h1.771V66.469z"/>
	<path class="st0" d="M205.18,66.469c-0.177-0.502-0.291-1.244-0.339-2.229c-0.62,0.807-1.41,1.429-2.368,1.867
		c-0.96,0.437-1.975,0.657-3.048,0.657c-1.534,0-2.776-0.428-3.725-1.284c-0.95-0.856-1.424-1.938-1.424-3.246
		c0-1.555,0.647-2.785,1.941-3.689c1.293-0.906,3.095-1.358,5.408-1.358h3.202v-1.815c0-1.141-0.352-2.039-1.056-2.694
		c-0.703-0.653-1.73-0.981-3.077-0.981c-1.23,0-2.248,0.315-3.055,0.944c-0.806,0.63-1.21,1.387-1.21,2.273L194.66,54.9
		c0-1.269,0.591-2.368,1.771-3.299c1.18-0.93,2.632-1.395,4.353-1.395c1.781,0,3.184,0.446,4.213,1.335
		c1.028,0.89,1.557,2.132,1.587,3.726v7.556c0,1.545,0.161,2.7,0.487,3.468v0.177C207.071,66.469,205.18,66.469,205.18,66.469z
		 M199.631,65.201c1.18,0,2.235-0.286,3.165-0.857c0.929-0.57,1.605-1.333,2.03-2.287v-3.512h-3.158
		c-1.761,0.019-3.138,0.342-4.132,0.966c-0.994,0.625-1.491,1.483-1.491,2.575c0,0.896,0.332,1.638,0.996,2.229
		C197.705,64.906,198.569,65.201,199.631,65.201z"/>
	<path class="st0" d="M223.386,58.649c0,2.489-0.552,4.464-1.653,5.925c-1.102,1.462-2.582,2.192-4.441,2.192
		c-2.223,0-3.905-0.827-5.047-2.48l-0.074,2.184h-1.652V43.803h1.756v9.016c1.122-1.742,2.784-2.613,4.987-2.613
		c1.889,0,3.382,0.722,4.479,2.163c1.098,1.441,1.645,3.446,1.645,6.013v0.266H223.386z M221.615,58.339
		c0-2.105-0.409-3.731-1.226-4.877c-0.817-1.146-1.967-1.719-3.452-1.719c-1.132,0-2.091,0.278-2.878,0.834
		c-0.786,0.556-1.382,1.37-1.785,2.442v7.202c0.885,2.007,2.45,3.01,4.693,3.01c1.456,0,2.594-0.576,3.415-1.727
		C221.204,62.353,221.615,60.631,221.615,58.339z"/>
	<path class="st0" d="M225.553,58.25c0-1.534,0.298-2.917,0.893-4.147c0.595-1.23,1.437-2.186,2.524-2.87
		c1.086-0.684,2.32-1.026,3.697-1.026c2.125,0,3.846,0.745,5.164,2.235c1.319,1.491,1.978,3.466,1.978,5.925v0.369
		c0,1.545-0.298,2.934-0.893,4.169c-0.596,1.234-1.433,2.186-2.516,2.855c-1.082,0.67-2.317,1.004-3.704,1.004
		c-2.115,0-3.834-0.745-5.157-2.236c-1.324-1.49-1.985-3.465-1.985-5.925V58.25H225.553z M227.324,58.737
		c0,1.908,0.494,3.475,1.483,4.7c0.989,1.225,2.285,1.837,3.888,1.837c1.595,0,2.885-0.612,3.874-1.837
		c0.989-1.225,1.483-2.84,1.483-4.848V58.25c0-1.219-0.227-2.337-0.679-3.349c-0.452-1.013-1.087-1.798-1.904-2.354
		s-1.75-0.834-2.803-0.834c-1.574,0-2.859,0.618-3.852,1.851c-0.994,1.235-1.491,2.851-1.491,4.848v0.326H227.324z"/>
	<path class="st0" d="M252.968,64.448c-1.061,1.545-2.759,2.317-5.09,2.317c-1.702,0-2.997-0.494-3.882-1.483
		s-1.337-2.451-1.358-4.39V50.503h1.756v10.167c0,3.04,1.23,4.56,3.689,4.56c2.558,0,4.176-1.057,4.855-3.173V50.503h1.771V66.47
		h-1.713L252.968,64.448z"/>
	<path class="st0" d="M261.288,46.415v4.087h3.306v1.446h-3.306V62.6c0,0.887,0.159,1.547,0.479,1.98
		c0.319,0.434,0.854,0.65,1.6,0.65c0.295,0,0.772-0.049,1.431-0.147l0.074,1.433c-0.463,0.166-1.093,0.249-1.889,0.249
		c-1.21,0-2.091-0.352-2.641-1.056c-0.552-0.703-0.827-1.739-0.827-3.106V51.95h-2.937v-1.446h2.937v-4.087h1.772V46.415z"/>
	<path class="st0" d="M276.068,66.469h-1.771V43.803h1.771V66.469z"/>
	<path class="st0" d="M286.291,66.765c-1.358,0-2.585-0.334-3.682-1.004c-1.097-0.669-1.951-1.601-2.56-2.797
		c-0.609-1.194-0.915-2.536-0.915-4.021v-0.634c0-1.535,0.298-2.917,0.893-4.147s1.424-2.196,2.487-2.899
		c1.061-0.703,2.213-1.056,3.452-1.056c1.938,0,3.476,0.662,4.612,1.984c1.137,1.324,1.704,3.132,1.704,5.423v0.989H280.89v0.34
		c0,1.81,0.518,3.318,1.557,4.523c1.038,1.205,2.343,1.808,3.917,1.808c0.944,0,1.779-0.172,2.501-0.517
		c0.723-0.344,1.379-0.895,1.969-1.652l1.107,0.841C290.645,65.826,288.762,66.765,286.291,66.765z M285.967,51.713
		c-1.329,0-2.447,0.487-3.358,1.461c-0.91,0.974-1.464,2.283-1.66,3.925h9.578v-0.191c-0.05-1.534-0.487-2.784-1.313-3.749
		C288.387,52.195,287.305,51.713,285.967,51.713z"/>
	<path class="st0" d="M305.045,66.469c-0.177-0.502-0.291-1.244-0.339-2.229c-0.62,0.807-1.41,1.429-2.368,1.867
		c-0.96,0.437-1.975,0.657-3.048,0.657c-1.534,0-2.776-0.428-3.725-1.284c-0.95-0.856-1.424-1.938-1.424-3.246
		c0-1.555,0.647-2.785,1.941-3.689c1.293-0.906,3.095-1.358,5.408-1.358h3.202v-1.815c0-1.141-0.352-2.039-1.056-2.694
		c-0.703-0.653-1.73-0.981-3.077-0.981c-1.23,0-2.248,0.315-3.055,0.944c-0.806,0.63-1.21,1.387-1.21,2.273l-1.771-0.015
		c0-1.269,0.591-2.368,1.771-3.299c1.18-0.93,2.632-1.395,4.353-1.395c1.781,0,3.184,0.446,4.213,1.335
		c1.028,0.89,1.557,2.132,1.587,3.726v7.556c0,1.545,0.161,2.7,0.487,3.468v0.177C306.936,66.469,305.045,66.469,305.045,66.469z
		 M299.497,65.201c1.18,0,2.235-0.286,3.166-0.857c0.929-0.57,1.605-1.333,2.03-2.287v-3.512h-3.158
		c-1.761,0.019-3.138,0.342-4.132,0.966c-0.994,0.625-1.491,1.483-1.491,2.575c0,0.896,0.332,1.638,0.996,2.229
		C297.57,64.906,298.434,65.201,299.497,65.201z"/>
	<path class="st0" d="M317.777,52.008c-0.374-0.068-0.772-0.103-1.195-0.103c-1.102,0-2.034,0.307-2.796,0.923
		c-0.763,0.614-1.307,1.508-1.631,2.679v10.965h-1.756V50.503h1.727l0.029,2.538c0.935-1.889,2.435-2.833,4.501-2.833
		c0.492,0,0.881,0.065,1.166,0.191L317.777,52.008z"/>
	<path class="st0" d="M321.493,50.503l0.059,2.73c0.6-0.983,1.348-1.734,2.243-2.25c0.895-0.516,1.884-0.775,2.966-0.775
		c1.711,0,2.986,0.483,3.821,1.446c0.836,0.964,1.259,2.41,1.27,4.338V66.47h-1.757V55.979c-0.01-1.426-0.312-2.489-0.908-3.187
		c-0.595-0.699-1.547-1.048-2.855-1.048c-1.093,0-2.059,0.342-2.9,1.026c-0.841,0.684-1.464,1.607-1.867,2.767V66.47h-1.756V50.503
		H321.493z"/>
	<path class="st0" d="M335.553,45.891c0-0.332,0.109-0.613,0.325-0.843c0.216-0.229,0.513-0.345,0.886-0.345
		c0.373,0,0.671,0.115,0.893,0.345c0.221,0.229,0.332,0.511,0.332,0.843c0,0.332-0.111,0.611-0.332,0.835
		c-0.222,0.225-0.519,0.338-0.893,0.338c-0.374,0-0.67-0.113-0.886-0.338C335.661,46.503,335.553,46.224,335.553,45.891z
		 M337.635,66.469h-1.771V50.503h1.771V66.469z"/>
	<path class="st0" d="M343.356,50.503l0.06,2.73c0.6-0.983,1.348-1.734,2.243-2.25c0.895-0.516,1.883-0.775,2.966-0.775
		c1.712,0,2.986,0.483,3.821,1.446c0.836,0.964,1.259,2.41,1.27,4.338V66.47h-1.757V55.979c-0.01-1.426-0.312-2.489-0.908-3.187
		c-0.595-0.699-1.547-1.048-2.855-1.048c-1.093,0-2.059,0.342-2.9,1.026c-0.841,0.684-1.464,1.607-1.867,2.767V66.47h-1.756V50.503
		H343.356z"/>
	<path class="st0" d="M356.813,58.339c0-2.499,0.553-4.479,1.66-5.939c1.106-1.462,2.609-2.192,4.508-2.192
		c2.175,0,3.827,0.865,4.958,2.598l0.089-2.302h1.652v15.641c0,2.057-0.574,3.685-1.727,4.885c-1.15,1.2-2.71,1.8-4.678,1.8
		c-1.111,0-2.171-0.248-3.18-0.745c-1.008-0.497-1.802-1.159-2.382-1.984l0.988-1.062c1.25,1.534,2.735,2.302,4.457,2.302
		c1.475,0,2.627-0.435,3.452-1.307c0.827-0.871,1.254-2.078,1.284-3.623v-2.007c-1.132,1.574-2.778,2.362-4.943,2.362
		c-1.85,0-3.335-0.738-4.456-2.213c-1.122-1.476-1.682-3.467-1.682-5.976L356.813,58.339L356.813,58.339z M358.598,58.649
		c0,2.036,0.408,3.643,1.225,4.819c0.817,1.176,1.967,1.763,3.452,1.763c2.175,0,3.714-0.974,4.62-2.922v-7.423
		c-0.413-1.023-1.008-1.803-1.785-2.339c-0.777-0.536-1.711-0.805-2.804-0.805c-1.485,0-2.641,0.583-3.467,1.749
		C359.011,54.658,358.598,56.376,358.598,58.649z"/>
	<path class="st0" d="M373.366,65.407c0-0.344,0.111-0.637,0.333-0.878c0.221-0.241,0.528-0.361,0.923-0.361
		c0.393,0,0.702,0.12,0.929,0.361c0.226,0.241,0.339,0.534,0.339,0.878c0,0.344-0.113,0.627-0.339,0.848
		c-0.227,0.222-0.537,0.332-0.929,0.332c-0.394,0-0.701-0.11-0.923-0.332C373.476,66.034,373.366,65.752,373.366,65.407z"/>
</g>
</svg>
