<?xml version="1.0" encoding="utf-8"?>
<!-- Generator: Adobe Illustrator 21.1.0, SVG Export Plug-In . SVG Version: 6.00 Build 0)  -->
<svg version="1.1" id="Layer_1" xmlns="http://www.w3.org/2000/svg" xmlns:xlink="http://www.w3.org/1999/xlink" x="0px" y="0px"
	 viewBox="0 0 11.7 7.7" style="enable-background:new 0 0 11.7 7.7;" xml:space="preserve">
<style type="text/css">
	.st0{fill:#00B3E3;}
	.st1{fill:#0075C9;}
	.st2{fill:#FFFFFF;}
</style>
<g>
	<rect x="0.4" y="0.1" class="st0" width="7.9" height="6.2"/>
	<polygon class="st1" points="8.3,0.1 8.3,6.3 0.4,6.3 1.8,7.3 9.8,7.3 9.8,1.5 	"/>
	<polygon class="st2" points="1.7,5 1.8,1.3 1.1,1.4 1,1 3.2,1.1 3.1,1.3 2.4,1.3 2,5 	"/>
	<g>
		<path class="st2" d="M5,4.6c-0.2,0-0.4,0.1-0.6,0.1C3.4,4.9,3,4.1,2.8,3.5C2.7,2.6,2.9,1.9,3.6,1.8h0.1c0.7,0,1,0.5,1.1,1.1
			c0,0.1,0,0.2,0,0.4H3.2c0.1,0.9,0.6,1,1,1h0.1c0.2,0,0.4-0.1,0.5-0.2L5,4.6z M4.3,2.9C4.2,2.4,4,2.1,3.6,2.1
			C3.3,2.2,3.2,2.6,3.2,3L4.3,2.9z"/>
		<path class="st2" d="M6.7,6l0.2-1.5l0,0C6.8,4.7,6.4,4.9,6.1,4.8c-0.8-0.1-0.9-1-0.8-1.7c0.2-0.9,0.8-1.3,1.3-1.3
			c0.2,0,0.5,0.2,0.6,0.5l0,0V1.8l0.6,0.3L7.6,2.9L7,5.9L6.7,6z M7.1,3.1C7.2,2.7,7,2.3,6.6,2.2C6.2,2.1,5.9,2.5,5.8,3.1
			c-0.1,0.5,0,1.2,0.5,1.3c0.3,0,0.6-0.1,0.7-0.6L7.1,3.1z"/>
	</g>
</g>
</svg>
