<?xml version="1.0" encoding="utf-8"?>
<!-- Generator: Adobe Illustrator 22.1.0, SVG Export Plug-In . SVG Version: 6.00 Build 0)  -->
<svg version="1.1" id="Layer_1" xmlns="http://www.w3.org/2000/svg" xmlns:xlink="http://www.w3.org/1999/xlink" x="0px" y="0px"
	 viewBox="0 0 1600 650" style="enable-background:new 0 0 1600 650;" xml:space="preserve">
<style type="text/css">
	.st0{opacity:0.8;fill:#50A8B4;enable-background:new    ;}
	.st1{fill:#FFFFFF;}
</style>
<rect y="-0.4" class="st0" width="1600" height="721.5"/>
<g>
	<path class="st1" d="M885.5,286.6c5.1,0,9.3-2.2,12.6-6.5l0.8,5.6h14.5v-73.5h-16.2v26.2c-3.2-3.6-7.1-5.5-11.7-5.5
		c-6.3,0-11.3,2.4-14.8,7.1s-5.3,11.2-5.3,19.4c0,8.7,1.8,15.4,5.4,20.1C874.4,284.3,879.3,286.6,885.5,286.6z M881.6,257.5
		c0.4-8,3.1-12.1,8.1-12.1c3.6,0,6.1,1.5,7.6,4.6v19.7c-1.5,3-4.1,4.5-7.7,4.5c-5.4,0-8-4.6-8-13.8L881.6,257.5L881.6,257.5z"/>
	<rect x="794.7" y="212.2" class="st1" width="16.2" height="73.5"/>
	<path class="st1" d="M757.2,280.4c3.2,4.2,7.5,6.3,12.7,6.3c6.4,0,11.3-2.3,14.8-6.8c3.5-4.6,5.3-11.1,5.3-19.6v-0.8
		c0-8.4-1.8-14.9-5.3-19.5s-8.5-6.9-14.9-6.9c-4.8,0-8.6,1.7-11.6,5.1v-25.9h-16.1v73.5h14.5L757.2,280.4z M758.2,249.5
		c1.4-2.8,3.9-4.2,7.6-4.2c2.7,0,4.8,1.1,6.1,3.2c1.3,2.1,2,5.7,2,10.6c0,4.5-0.3,7.6-0.8,9.5c-1,3.7-3.4,5.5-7.2,5.5
		c-3.7,0-6.3-1.4-7.7-4.1L758.2,249.5L758.2,249.5z"/>
	<path class="st1" d="M715.2,254L715.2,254c-7.9,0.1-13.9,1.5-18.1,4.4c-4.1,2.9-6.2,7.1-6.2,12.7c0,4.5,1.7,8.2,5.1,11.1
		c3.4,3,7.6,4.4,12.4,4.4c5.3,0,9.5-1.9,12.4-5.6c0.4,2,1,3.6,1.5,4.6h16.1v-0.8c-1.4-2.5-2.1-6.2-2.2-10.9V251
		c-0.1-5.6-2.1-10-5.9-13.3c-3.8-3.2-9-4.8-15.6-4.8s-12,1.6-16.3,4.7c-4.3,3.1-6.4,7.2-6.4,12.2h16.1c0-3.8,1.9-5.7,5.7-5.7
		c4.1,0,6.2,2.4,6.2,7.2v2.7L715.2,254L715.2,254z M720.2,262.6L720.2,262.6v8.4c-0.6,1.1-1.5,2.1-2.8,2.9c-1.3,0.9-3,1.3-5,1.3
		c-1.5,0-2.8-0.5-3.8-1.4s-1.5-2.1-1.5-3.6c0-5,2.8-7.6,8.4-7.6L720.2,262.6L720.2,262.6z"/>
	<path class="st1" d="M657.1,249.1L657.1,249.1c1.6-2.5,4-3.7,7.1-3.7c2.8,0,4.7,0.6,5.7,1.8c1.1,1.2,1.6,3.2,1.6,5.8v32.7h16.2
		v-33.4c-0.1-6.5-1.5-11.3-4.1-14.5c-2.7-3.2-6.7-4.8-12.1-4.8c-6.3,0-11.2,2.3-14.8,7l-0.5-6.1H641v51.8h16.1V249.1z"/>
	<polygon class="st1" points="638.6,272.8 607.4,272.8 607.4,256.1 633.8,256.1 633.8,243.7 607.4,243.7 607.4,229 638.7,229 
		638.7,216 590.6,216 590.6,285.7 638.6,285.7 	"/>
	<rect x="551.9" y="249.4" class="st1" width="28.8" height="12.4"/>
	<path class="st1" d="M436.4,286.6c7.7,0,13.7-2.4,18.2-7.1s6.7-11.1,6.7-19.2v-0.6c0-8.3-2.2-14.8-6.7-19.6s-10.6-7.2-18.3-7.2
		c-5.1,0-9.5,1.1-13.3,3.3s-6.7,5.3-8.7,9.3s-3,8.6-3,13.8v2.7c0.4,7.6,2.8,13.6,7.3,18S429,286.6,436.4,286.6z M427.5,257.4
		c0.4-8,3.4-12,8.8-12c5.9,0,8.9,4.6,8.9,13.9v1.6c-0.1,8.8-3.1,13.3-8.8,13.3c-2.9,0-5.2-1.1-6.7-3.4c-1.5-2.2-2.2-5.7-2.2-10.5
		L427.5,257.4L427.5,257.4z"/>
	<path class="st1" d="M290.2,286.6c4.2,0,8.2-0.8,11.9-2.5c3.7-1.6,6.5-3.9,8.5-6.6l-7.4-8.7c-2.9,3.6-6.9,5.4-12,5.4
		c-3.1,0-5.6-0.8-7.6-2.5c-1.9-1.7-3.2-3.9-3.8-6.8h32.1v-6.3c0-8.1-2.1-14.4-6.3-18.9s-10-6.8-17.2-6.8c-5.2,0-9.6,1.1-13.4,3.3
		s-6.6,5.4-8.6,9.4c-2,4.1-2.9,8.7-2.9,14v1.3c0,7.6,2.5,13.8,7.4,18.5C275.9,284.3,282.3,286.6,290.2,286.6z M288.4,245.4
		c2.6,0,4.5,0.7,5.9,2.1c1.4,1.4,2,3.4,2,6v1.2H280C280.9,248.5,283.7,245.4,288.4,245.4z"/>
	<polygon class="st1" points="217.3,242.3 241.9,285.7 258.6,285.7 258.6,216 241.9,216 241.9,259.4 217.3,216 200.5,216 
		200.5,285.7 217.3,285.7 	"/>
	<path class="st1" d="M239.5,304.2c-4.9-2.8-10.4-4.2-16.6-4.2h-22.4v69.7h22.9c6,0,11.5-1.5,16.4-4.3c4.9-2.9,8.7-6.8,11.4-11.9
		s4-10.8,4-17.2v-3.2c0-6.3-1.4-12-4.2-17.1C248.3,310.9,244.4,307,239.5,304.2z M238.1,336.3c0,6.8-1.3,11.9-3.9,15.3
		c-2.6,3.4-6.3,5.1-11.1,5.1h-5.8V313h5.6c4.9,0,8.7,1.7,11.3,5.1s3.9,8.5,3.9,15.2V336.3z"/>
	<path class="st1" d="M283.1,317c-5.2,0-9.6,1.1-13.4,3.3c-3.8,2.2-6.6,5.4-8.6,9.4c-2,4.1-2.9,8.7-2.9,14v1.3
		c0,7.6,2.5,13.8,7.4,18.5s11.3,7.1,19.3,7.1c4.2,0,8.2-0.8,11.9-2.5c3.7-1.6,6.5-3.9,8.5-6.6l-7.4-8.7c-2.9,3.6-6.9,5.4-12,5.4
		c-3.1,0-5.6-0.8-7.6-2.5c-1.9-1.7-3.2-3.9-3.8-6.8h32.1v-6.3c0-8.1-2.1-14.4-6.3-18.9S290.3,317,283.1,317z M290.8,338.8h-16.3
		c0.9-6.3,3.7-9.4,8.4-9.4c2.6,0,4.5,0.7,5.9,2.1s2,3.4,2,6V338.8z"/>
	<polygon class="st1" points="329.8,350.5 321.7,317.9 304.7,317.9 321.6,369.7 338.1,369.7 355,317.9 338,317.9 	"/>
	<rect x="357.3" y="317.9" class="st1" width="16.2" height="51.8"/>
	<path class="st1" d="M371.7,298.8c-1.7-1.5-3.8-2.2-6.5-2.2s-4.8,0.7-6.5,2.2s-2.5,3.4-2.5,5.7s0.8,4.2,2.5,5.7s3.8,2.2,6.5,2.2
		c2.6,0,4.8-0.7,6.5-2.2s2.5-3.4,2.5-5.7C374.2,302.2,373.4,300.3,371.7,298.8z"/>
	<path class="st1" d="M398.7,285.7l12.2-51.8h-15.5l-5.2,30.5l-8.1-30.5h-11.2l-8.2,31.2l-5.1-31.2h-15h-0.5H334V221h-16.1v12.9
		h-6.6v11.2h6.6v25.7c0,5.3,1.3,9.3,4,11.9c2.6,2.6,6.7,3.9,12.3,3.9c3.2,0,6.2-0.5,9.1-1.4v-11.5c-1.1,0.2-2.4,0.3-4,0.3
		c-2.1,0-3.5-0.4-4.2-1.1c-0.7-0.8-1.1-2.1-1.1-4.1v-23.7h8.5v-9.2l11.7,49.8h13.6l8.6-30.7l8.6,30.7L398.7,285.7L398.7,285.7z"/>
	<path class="st1" d="M407.2,356.3c-1.2,1.2-3,1.8-5.3,1.8c-2.7,0-4.7-1-5.9-3s-1.9-5.6-1.9-10.8c0-3,0.1-5.3,0.3-7
		c0.8-5.2,3.2-7.9,7.4-7.9c2.2,0,4,0.7,5.3,2.2c1.3,1.4,2,3.5,2,6.2h15.1c0-6.4-2-11.4-5.9-15.2c-4-3.7-9.3-5.6-16-5.6
		c-5,0-9.3,1.1-12.9,3.2s-6.4,5.2-8.4,9.2c-1.9,4-2.9,8.6-2.9,13.9v0.7c0,8.4,2.2,14.9,6.5,19.6s10.3,7.1,17.8,7.1
		c6.4,0,11.7-1.8,15.7-5.5c4.1-3.6,6.1-8.3,6.1-14H409C409,353.4,408.4,355.1,407.2,356.3z"/>
	<path class="st1" d="M451,317c-5.2,0-9.6,1.1-13.4,3.3c-3.8,2.2-6.6,5.4-8.6,9.4c-2,4.1-2.9,8.7-2.9,14v1.3
		c0,7.6,2.5,13.8,7.4,18.5s11.3,7.1,19.3,7.1c4.2,0,8.2-0.8,11.9-2.5c3.7-1.6,6.5-3.9,8.5-6.6l-7.4-8.7c-2.9,3.6-6.9,5.4-12,5.4
		c-3.1,0-5.6-0.8-7.6-2.5c-1.9-1.7-3.2-3.9-3.8-6.8h32.1v-6.3c0-8.1-2.1-14.4-6.3-18.9S458.2,317,451,317z M458.7,338.8h-16.3
		c0.9-6.3,3.7-9.4,8.4-9.4c2.6,0,4.5,0.7,5.9,2.1s2,3.4,2,6V338.8z"/>
	<path class="st1" d="M480.8,240.6l-0.5-6.7h-15.1v51.8h16.1v-32.8c1.4-3.2,4.7-4.8,9.8-4.8l5.3,0.4l0.3-15
		c-1.3-0.4-2.8-0.6-4.5-0.6C487.3,233,483.5,235.5,480.8,240.6z"/>
	<polygon class="st1" points="549.4,285.7 530.1,255.2 548.2,233.9 528.9,233.9 516.7,249 515.1,251.2 515.1,212.1 499,212.1 
		499,285.7 515.1,285.7 515.1,270.9 519.6,266.4 530.9,285.7 	"/>
	<polygon class="st1" points="573.7,300 558.1,348.5 542.6,300 520.5,300 520.5,369.7 537.3,369.7 537.3,353.4 535.7,320.1 
		552.6,369.7 563.7,369.7 580.5,320.1 578.9,353.4 578.9,369.7 595.8,369.7 595.8,300 	"/>
	<path class="st1" d="M645.2,335h0.2c-0.1-5.6-2.1-10-5.9-13.3c-3.8-3.2-9-4.8-15.6-4.8s-12,1.6-16.3,4.7s-6.4,7.2-6.4,12.2h16.1
		c0-3.8,1.9-5.7,5.7-5.7c4.1,0,6.2,2.4,6.2,7.2v2.7h-5c-7.9,0-13.9,1.4-18.1,4.3c-4.1,2.9-6.2,7.1-6.2,12.7c0,4.5,1.7,8.2,5.1,11.1
		c3.4,3,7.6,4.4,12.4,4.4c5.3,0,9.5-1.9,12.4-5.6c0.4,2,1,3.6,1.5,4.6h16.1v-0.8c-1.4-2.5-2.1-6.2-2.2-10.9V335z M629.3,354.9
		c-0.6,1.1-1.5,2.1-2.8,2.9c-1.3,0.9-3,1.3-5,1.3c-1.5,0-2.8-0.5-3.8-1.4s-1.5-2.1-1.5-3.6c0-5,2.8-7.6,8.4-7.6h4.7L629.3,354.9
		L629.3,354.9z"/>
	<path class="st1" d="M693.3,321.8c-2.7-3.2-6.8-4.8-12.1-4.8c-6.3,0-11.2,2.3-14.8,7l-0.5-6.1h-15.1v51.8h16.1v-36.6
		c1.5-2.5,3.9-3.7,7-3.7c2.8,0,4.7,0.6,5.7,1.8c1.1,1.2,1.6,3.2,1.6,5.8v32.7h16.2v-33.4C697.3,329.8,695.9,325,693.3,321.8z"/>
	<path class="st1" d="M745.9,335h0.2c-0.1-5.6-2.1-10-5.9-13.3c-3.8-3.2-9-4.8-15.6-4.8s-12,1.6-16.3,4.7s-6.4,7.2-6.4,12.2H718
		c0-3.8,1.9-5.7,5.7-5.7c4.1,0,6.2,2.4,6.2,7.2v2.7h-5c-7.9,0-13.9,1.4-18.1,4.3c-4.1,2.9-6.2,7.1-6.2,12.7c0,4.5,1.7,8.2,5.1,11.1
		c3.4,3,7.6,4.4,12.4,4.4c5.3,0,9.5-1.9,12.4-5.6c0.4,2,1,3.6,1.5,4.6h16.1v-0.8c-1.4-2.5-2.1-6.2-2.2-10.9V335z M729.9,354.9
		c-0.6,1.1-1.5,2.1-2.8,2.9c-1.3,0.9-3,1.3-5,1.3c-1.5,0-2.8-0.5-3.8-1.4s-1.5-2.1-1.5-3.6c0-5,2.8-7.6,8.4-7.6h4.7L729.9,354.9
		L729.9,354.9z"/>
	<path class="st1" d="M783.6,322.4c-3-3.6-7.2-5.5-12.6-5.5c-4.3,0-8,1.1-11.2,3.3s-5.7,5.3-7.4,9.3s-2.6,8.6-2.6,13.9v0.6
		c0,8.1,1.9,14.6,5.8,19.4c3.9,4.8,9,7.2,15.3,7.2c4.7,0,8.6-1.7,11.7-5.1v1.6c0,7.3-3.6,11-10.7,11c-4.9,0-8.9-1.8-11.9-5.3
		l-6.7,9.5c1.9,2.3,4.6,4.2,8.2,5.6c3.6,1.4,7.2,2.2,11,2.2c5.3,0,10-0.9,14-2.7s7.1-4.4,9.2-7.8c2.1-3.4,3.2-7.3,3.2-11.9v-49.8
		h-14.6L783.6,322.4z M775,358.2c-2.9,0-5.1-1.2-6.7-3.7c-1.6-2.5-2.4-5.8-2.4-10.1c0-4.9,0.8-8.6,2.4-11.2c1.6-2.6,3.9-3.9,6.7-3.9
		c3.4,0,5.9,1.2,7.5,3.5l0.1,21.9C781,357,778.5,358.2,775,358.2z"/>
	<path class="st1" d="M828,317c-5.2,0-9.6,1.1-13.4,3.3s-6.6,5.4-8.6,9.4c-2,4.1-2.9,8.7-2.9,14v1.3c0,7.6,2.5,13.8,7.4,18.5
		s11.3,7.1,19.3,7.1c4.2,0,8.2-0.8,11.9-2.5c3.7-1.6,6.5-3.9,8.5-6.6l-7.4-8.7c-2.9,3.6-6.9,5.4-12,5.4c-3.1,0-5.6-0.8-7.6-2.5
		c-1.9-1.7-3.2-3.9-3.8-6.8h32.1v-6.3c0-8.1-2.1-14.4-6.3-18.9S835.3,317,828,317z M835.8,338.7l-16.3,0.1c0.9-6.3,3.7-9.4,8.4-9.4
		c2.6,0,4.5,0.7,5.9,2.1s2,3.4,2,6L835.8,338.7L835.8,338.7z"/>
	<path class="st1" d="M862.9,277.5l-7.4-8.7c-2.9,3.6-6.9,5.4-12,5.4c-3.1,0-5.6-0.8-7.6-2.5c-1.9-1.7-3.2-3.9-3.8-6.8h32.1v-6.3
		c0-8.1-2.1-14.4-6.3-18.9s-10-6.8-17.2-6.8c-5.2,0-9.6,1.1-13.4,3.3s-6.6,5.4-8.6,9.4c-2,4.1-2.9,8.7-2.9,14v1.3
		c0,7.6,2.5,13.8,7.4,18.5s11.3,7.1,19.3,7.1c4.2,0,8.2-0.8,11.9-2.5C858,282.5,860.9,280.3,862.9,277.5z M840.7,245.4
		c2.6,0,4.5,0.7,5.9,2.1c1.4,1.4,2,3.4,2,6v1.2h-16.3C833.1,248.5,835.9,245.4,840.7,245.4z"/>
	<path class="st1" d="M913.7,317c-6.6,0-11.7,2.6-15.2,7.8c-2.3-5.2-6.7-7.8-13.3-7.8c-6.2,0-11.1,2.3-14.8,7l-0.5-6.1h-15.1v51.8
		H871v-36c1.6-2.8,4-4.3,7.1-4.3c2.4,0,4.1,0.6,4.9,1.8c0.9,1.2,1.3,3.2,1.3,5.9v32.6h16.2v-35.4v-0.7c1.6-2.8,3.9-4.3,7.1-4.3
		c2.4,0,4,0.6,4.9,1.8c0.9,1.2,1.3,3.1,1.3,5.8v32.7H930V336C929.6,323.3,924.2,317,913.7,317z"/>
	<path class="st1" d="M959.1,317c-5.2,0-9.6,1.1-13.4,3.3s-6.6,5.4-8.6,9.4c-2,4.1-2.9,8.7-2.9,14v1.3c0,7.6,2.5,13.8,7.4,18.5
		s11.3,7.1,19.3,7.1c4.2,0,8.2-0.8,11.9-2.5c3.7-1.6,6.5-3.9,8.5-6.6l-7.4-8.7c-2.9,3.6-6.9,5.4-12,5.4c-3.1,0-5.6-0.8-7.6-2.5
		c-1.9-1.7-3.2-3.9-3.8-6.8h32.1v-6.3c0-8.1-2.1-14.4-6.3-18.9S966.4,317,959.1,317z M966.9,338.7l-16.3,0.1
		c0.9-6.3,3.7-9.4,8.4-9.4c2.6,0,4.5,0.7,5.9,2.1s2,3.4,2,6L966.9,338.7L966.9,338.7z"/>
	<path class="st1" d="M1015.9,317c-6.3,0-11.2,2.3-14.8,7l-0.5-6.1h-15.1v51.8h16.1v-36.6c1.5-2.5,3.9-3.7,7-3.7
		c2.8,0,4.7,0.6,5.7,1.8c1.1,1.2,1.6,3.2,1.6,5.8v32.7h16.2v-33.4c-0.1-6.5-1.5-11.3-4.1-14.5C1025.4,318.6,1021.3,317,1015.9,317z"
		/>
	<path class="st1" d="M1065.7,357.7c-1,0.2-2.4,0.3-4,0.3c-2.1,0-3.5-0.4-4.2-1.1c-0.7-0.8-1.1-2.1-1.1-4.1v-23.7h8.5v-11.2h-8.5
		V305h-16.1v12.9h-6.6v11.2h6.6v25.7c0,5.3,1.3,9.3,4,11.9c2.6,2.6,6.7,3.9,12.3,3.9c3.2,0,6.2-0.5,9.1-1.4L1065.7,357.7z"/>
</g>
<path class="st1" d="M209.8,426.3v14.6c0,1.4-0.3,2.7-1,3.8s-1.5,1.9-2.6,2.5s-2.4,0.9-3.9,0.9c-2.2,0-4-0.6-5.4-1.8
	s-2.1-2.9-2.1-5.1v-14.7h1.8v14.4c0,1.8,0.5,3.2,1.5,4.2s2.4,1.5,4.2,1.5s3.1-0.5,4.2-1.5s1.5-2.4,1.5-4.2v-14.4h1.8V426.3z"/>
<path class="st1" d="M215.3,431.8l0.1,2.7c0.6-1,1.3-1.7,2.2-2.2s1.9-0.8,2.9-0.8c1.7,0,3,0.5,3.8,1.4s1.2,2.4,1.3,4.3v10.4h-1.7
	v-10.4c0-1.4-0.3-2.5-0.9-3.2s-1.5-1-2.8-1c-1.1,0-2,0.3-2.9,1s-1.5,1.6-1.9,2.7v10.9h-1.7v-15.9h1.6L215.3,431.8L215.3,431.8z"/>
<path class="st1" d="M228.7,439.5c0-2.5,0.5-4.4,1.6-5.9s2.6-2.2,4.5-2.2c2.1,0,3.8,0.8,4.9,2.5V425h1.7v22.5h-1.6l-0.1-2.1
	c-1.1,1.6-2.8,2.4-5,2.4c-1.8,0-3.3-0.7-4.4-2.2s-1.7-3.5-1.7-6v-0.1L228.7,439.5L228.7,439.5z M230.4,439.8c0,2,0.4,3.6,1.2,4.8
	s2,1.8,3.4,1.8c2.2,0,3.7-1,4.6-2.9v-7.4c-0.9-2.1-2.4-3.1-4.6-3.1c-1.5,0-2.6,0.6-3.4,1.7S230.4,437.6,230.4,439.8z"/>
<path class="st1" d="M251.4,447.9c-1.3,0-2.6-0.3-3.7-1s-1.9-1.6-2.5-2.8s-0.9-2.5-0.9-4v-0.6c0-1.5,0.3-2.9,0.9-4.1
	s1.4-2.2,2.5-2.9s2.2-1,3.4-1c1.9,0,3.4,0.7,4.6,2c1.1,1.3,1.7,3.1,1.7,5.4v1h-11.3v0.3c0,1.8,0.5,3.3,1.5,4.5s2.3,1.8,3.9,1.8
	c0.9,0,1.8-0.2,2.5-0.5s1.4-0.9,2-1.6l1.1,0.8C255.8,447,253.9,447.9,251.4,447.9z M251.1,433c-1.3,0-2.4,0.5-3.3,1.5
	s-1.5,2.3-1.6,3.9h9.5v-0.2c0-1.5-0.5-2.8-1.3-3.7S252.4,433,251.1,433z"/>
<path class="st1" d="M267.4,433.3c-0.4-0.1-0.8-0.1-1.2-0.1c-1.1,0-2,0.3-2.8,0.9s-1.3,1.5-1.6,2.7v10.9H260v-15.9h1.7v2.5
	c0.9-1.9,2.4-2.8,4.5-2.8c0.5,0,0.9,0.1,1.2,0.2L267.4,433.3z"/>
<path class="st1" d="M278.9,443.6c0-0.9-0.3-1.6-1-2.1s-1.8-0.9-3.2-1.2s-2.5-0.6-3.3-1s-1.4-0.9-1.7-1.4s-0.6-1.2-0.6-2
	c0-1.2,0.5-2.3,1.6-3.1s2.4-1.2,4-1.2c1.8,0,3.2,0.4,4.3,1.3s1.6,2,1.6,3.4h-1.8c0-0.9-0.4-1.7-1.2-2.3s-1.8-0.9-2.9-0.9
	c-1.2,0-2.1,0.3-2.8,0.8s-1,1.2-1,2s0.3,1.4,0.9,1.8s1.6,0.8,3.2,1.2s2.7,0.7,3.5,1.2s1.3,0.9,1.7,1.5s0.6,1.3,0.6,2.1
	c0,1.3-0.5,2.4-1.6,3.2s-2.5,1.2-4.2,1.2c-1.8,0-3.3-0.4-4.5-1.3s-1.7-2-1.7-3.4h1.8c0.1,1,0.5,1.8,1.3,2.4s1.8,0.9,3.2,0.9
	c1.2,0,2.2-0.3,3-0.8S278.9,444.4,278.9,443.6z"/>
<path class="st1" d="M286.6,427.7v4.1h3.3v1.4h-3.3v10.6c0,0.9,0.2,1.5,0.5,2c0.3,0.4,0.8,0.6,1.6,0.6c0.3,0,0.8,0,1.4-0.1l0.1,1.4
	c-0.5,0.2-1.1,0.2-1.9,0.2c-1.2,0-2.1-0.3-2.6-1s-0.8-1.7-0.8-3.1v-10.6H282v-1.4h2.9v-4.1H286.6L286.6,427.7L286.6,427.7z"/>
<path class="st1" d="M302.7,447.6c-0.2-0.5-0.3-1.2-0.3-2.2c-0.6,0.8-1.4,1.4-2.4,1.9s-2,0.7-3,0.7c-1.5,0-2.8-0.4-3.7-1.3
	s-1.4-1.9-1.4-3.2c0-1.5,0.6-2.8,1.9-3.7s3.1-1.3,5.4-1.3h3.2v-1.8c0-1.1-0.3-2-1-2.7s-1.7-1-3.1-1c-1.2,0-2.2,0.3-3,0.9
	s-1.2,1.4-1.2,2.3h-1.8c0-1.3,0.6-2.4,1.8-3.3s2.6-1.4,4.3-1.4c1.8,0,3.2,0.4,4.2,1.3s1.5,2.1,1.6,3.7v7.5c0,1.5,0.2,2.7,0.5,3.4
	v0.2H302.7L302.7,447.6z M297.2,446.3c1.2,0,2.2-0.3,3.1-0.9s1.6-1.3,2-2.3v-3.5h-3.1c-1.7,0-3.1,0.3-4.1,1s-1.5,1.5-1.5,2.6
	c0,0.9,0.3,1.6,1,2.2S296.2,446.3,297.2,446.3z"/>
<path class="st1" d="M309.7,431.8l0.1,2.7c0.6-1,1.3-1.7,2.2-2.2s1.9-0.8,2.9-0.8c1.7,0,3,0.5,3.8,1.4s1.2,2.4,1.3,4.3v10.4h-1.7
	v-10.4c0-1.4-0.3-2.5-0.9-3.2s-1.5-1-2.8-1c-1.1,0-2,0.3-2.9,1s-1.5,1.6-1.9,2.7v10.9H308v-15.9h1.7V431.8z"/>
<path class="st1" d="M323.1,439.5c0-2.5,0.5-4.4,1.6-5.9s2.6-2.2,4.5-2.2c2.1,0,3.8,0.8,4.9,2.5V425h1.7v22.5h-1.6l-0.1-2.1
	c-1.1,1.6-2.8,2.4-5,2.4c-1.8,0-3.3-0.7-4.4-2.2s-1.7-3.5-1.7-6L323.1,439.5L323.1,439.5z M324.8,439.8c0,2,0.4,3.6,1.2,4.8
	s2,1.8,3.4,1.8c2.2,0,3.7-1,4.6-2.9v-7.4c-0.9-2.1-2.4-3.1-4.6-3.1c-1.5,0-2.6,0.6-3.4,1.7S324.8,437.6,324.8,439.8z"/>
<path class="st1" d="M339.6,427.2c0-0.3,0.1-0.6,0.3-0.8c0.2-0.2,0.5-0.3,0.9-0.3s0.7,0.1,0.9,0.3c0.2,0.2,0.3,0.5,0.3,0.8
	s-0.1,0.6-0.3,0.8c-0.2,0.2-0.5,0.3-0.9,0.3s-0.7-0.1-0.9-0.3C339.7,427.8,339.6,427.5,339.6,427.2z M341.7,447.6h-1.8v-15.9h1.8
	V447.6z"/>
<path class="st1" d="M347.3,431.8l0.1,2.7c0.6-1,1.3-1.7,2.2-2.2s1.9-0.8,2.9-0.8c1.7,0,3,0.5,3.8,1.4s1.2,2.4,1.3,4.3v10.4h-1.7
	v-10.4c0-1.4-0.3-2.5-0.9-3.2s-1.5-1-2.8-1c-1.1,0-2,0.3-2.9,1s-1.5,1.6-1.9,2.7v10.9h-1.7v-15.9h1.6V431.8z"/>
<path class="st1" d="M360.7,439.5c0-2.5,0.5-4.4,1.6-5.9s2.6-2.2,4.5-2.2c2.2,0,3.8,0.9,4.9,2.6l0.1-2.3h1.6v15.5
	c0,2-0.6,3.7-1.7,4.8s-2.7,1.8-4.6,1.8c-1.1,0-2.2-0.2-3.2-0.7s-1.8-1.1-2.4-2l1-1.1c1.2,1.5,2.7,2.3,4.4,2.3c1.5,0,2.6-0.4,3.4-1.3
	s1.2-2.1,1.3-3.6v-2c-1.1,1.6-2.8,2.3-4.9,2.3c-1.8,0-3.3-0.7-4.4-2.2s-1.7-3.4-1.7-5.9L360.7,439.5L360.7,439.5z M362.5,439.8
	c0,2,0.4,3.6,1.2,4.8s2,1.8,3.4,1.8c2.2,0,3.7-1,4.6-2.9v-7.4c-0.4-1-1-1.8-1.8-2.3s-1.7-0.8-2.8-0.8c-1.5,0-2.6,0.6-3.4,1.7
	S362.5,437.6,362.5,439.8z"/>
<path class="st1" d="M386.6,427.7v4.1h3.3v1.4h-3.3v10.6c0,0.9,0.2,1.5,0.5,2c0.3,0.4,0.8,0.6,1.6,0.6c0.3,0,0.8,0,1.4-0.1l0.1,1.4
	c-0.5,0.2-1.1,0.2-1.9,0.2c-1.2,0-2.1-0.3-2.6-1s-0.8-1.7-0.8-3.1v-10.6H382v-1.4h2.9v-4.1H386.6L386.6,427.7L386.6,427.7z"/>
<path class="st1" d="M394.5,434.4c0.6-0.9,1.3-1.7,2.2-2.2s1.9-0.8,2.9-0.8c1.7,0,3,0.5,3.8,1.4s1.2,2.4,1.3,4.3v10.4H403v-10.4
	c0-1.4-0.3-2.5-0.9-3.2s-1.5-1-2.8-1c-1.1,0-2,0.3-2.9,1s-1.5,1.6-1.9,2.7v10.9h-1.7V425h1.7L394.5,434.4L394.5,434.4z"/>
<path class="st1" d="M414.6,447.9c-1.3,0-2.6-0.3-3.7-1s-1.9-1.6-2.5-2.8s-0.9-2.5-0.9-4v-0.6c0-1.5,0.3-2.9,0.9-4.1
	s1.4-2.2,2.5-2.9s2.2-1,3.4-1c1.9,0,3.5,0.7,4.6,2s1.7,3.1,1.7,5.4v1h-11.3v0.3c0,1.8,0.5,3.3,1.5,4.5s2.3,1.8,3.9,1.8
	c0.9,0,1.8-0.2,2.5-0.5s1.4-0.9,2-1.6l1.1,0.8C418.9,447,417,447.9,414.6,447.9z M414.2,433c-1.3,0-2.4,0.5-3.3,1.5
	s-1.5,2.3-1.6,3.9h9.5v-0.2c0-1.5-0.5-2.8-1.3-3.7S415.6,433,414.2,433z"/>
<path class="st1" d="M429.6,427.2c0-0.3,0.1-0.6,0.3-0.8c0.2-0.2,0.5-0.3,0.9-0.3s0.7,0.1,0.9,0.3c0.2,0.2,0.3,0.5,0.3,0.8
	s-0.1,0.6-0.3,0.8c-0.2,0.2-0.5,0.3-0.9,0.3s-0.7-0.1-0.9-0.3C429.7,427.8,429.6,427.5,429.6,427.2z M431.7,447.6h-1.8v-15.9h1.8
	V447.6z"/>
<path class="st1" d="M437.3,431.8l0.1,2.6c0.6-1,1.3-1.7,2.2-2.2s1.9-0.7,2.9-0.7c2.5,0,4.1,1,4.8,3.1c0.6-1,1.3-1.7,2.3-2.3
	s2-0.8,3.1-0.8c3.4,0,5.1,1.9,5.2,5.6v10.6h-1.8v-10.4c0-1.4-0.3-2.5-0.9-3.1s-1.6-1-2.9-1s-2.3,0.4-3.2,1.2s-1.4,1.8-1.5,2.9v10.5
	h-1.8V437c0-1.4-0.3-2.4-1-3s-1.6-1-2.9-1c-1.1,0-2.1,0.3-2.8,0.9s-1.4,1.6-1.8,2.8v10.9h-1.8v-15.9h1.8L437.3,431.8L437.3,431.8z"
	/>
<path class="st1" d="M474.3,439.8c0,2.5-0.5,4.4-1.6,5.9s-2.6,2.2-4.4,2.2c-2.2,0-3.8-0.8-5-2.3v8.1h-1.7v-21.9h1.6l0.1,2.2
	c1.1-1.7,2.8-2.5,5-2.5c1.9,0,3.4,0.7,4.5,2.2s1.6,3.4,1.6,6v0.1L474.3,439.8L474.3,439.8z M472.5,439.5c0-2-0.4-3.6-1.2-4.8
	s-2-1.8-3.5-1.8c-1.1,0-2,0.3-2.8,0.8s-1.4,1.3-1.8,2.3v7.6c0.4,0.9,1,1.6,1.8,2.1s1.7,0.7,2.8,0.7c1.5,0,2.6-0.6,3.5-1.8
	S472.5,441.8,472.5,439.5z"/>
<path class="st1" d="M487.4,447.6c-0.2-0.5-0.3-1.2-0.3-2.2c-0.6,0.8-1.4,1.4-2.4,1.9s-2,0.7-3,0.7c-1.5,0-2.8-0.4-3.7-1.3
	s-1.4-1.9-1.4-3.2c0-1.5,0.6-2.8,1.9-3.7s3.1-1.3,5.4-1.3h3.2v-1.8c0-1.1-0.3-2-1-2.7s-1.7-1-3.1-1c-1.2,0-2.2,0.3-3,0.9
	s-1.2,1.4-1.2,2.3H477c0-1.3,0.6-2.4,1.8-3.3s2.6-1.4,4.3-1.4c1.8,0,3.2,0.4,4.2,1.3s1.5,2.1,1.6,3.7v7.5c0,1.5,0.2,2.7,0.5,3.4v0.2
	H487.4L487.4,447.6z M481.9,446.3c1.2,0,2.2-0.3,3.1-0.9s1.6-1.3,2-2.3v-3.5h-3.1c-1.7,0-3.1,0.3-4.1,1s-1.5,1.5-1.5,2.6
	c0,0.9,0.3,1.6,1,2.2S480.9,446.3,481.9,446.3z"/>
<path class="st1" d="M498.6,446.4c1.2,0,2.2-0.3,3.1-1s1.3-1.6,1.3-2.7h1.7c0,1-0.4,1.8-0.9,2.6s-1.3,1.4-2.2,1.9s-1.9,0.7-3,0.7
	c-2.1,0-3.7-0.7-4.9-2.2s-1.8-3.4-1.8-5.8v-0.5c0-1.6,0.3-2.9,0.8-4.1s1.3-2.1,2.4-2.8s2.2-1,3.6-1c1.7,0,3.2,0.5,4.3,1.6
	s1.7,2.4,1.8,4.1H503c-0.1-1.2-0.5-2.2-1.3-3s-1.8-1.1-3.1-1.1c-1.6,0-2.8,0.6-3.7,1.7s-1.3,2.7-1.3,4.8v0.5c0,2,0.4,3.6,1.3,4.7
	S497,446.4,498.6,446.4z"/>
<path class="st1" d="M510.2,427.7v4.1h3.3v1.4h-3.3v10.6c0,0.9,0.2,1.5,0.5,2c0.3,0.4,0.8,0.6,1.6,0.6c0.3,0,0.8,0,1.4-0.1l0.1,1.4
	c-0.5,0.2-1.1,0.2-1.9,0.2c-1.2,0-2.1-0.3-2.6-1s-0.8-1.7-0.8-3.1v-10.6h-2.9v-1.4h2.9v-4.1H510.2L510.2,427.7L510.2,427.7z"/>
<path class="st1" d="M525.6,427.7v4.1h3.3v1.4h-3.3v10.6c0,0.9,0.2,1.5,0.5,2c0.3,0.4,0.8,0.6,1.6,0.6c0.3,0,0.8,0,1.4-0.1l0.1,1.4
	c-0.5,0.2-1.1,0.2-1.9,0.2c-1.2,0-2.1-0.3-2.6-1s-0.8-1.7-0.8-3.1v-10.6H521v-1.4h2.9v-4.1H525.6L525.6,427.7z"/>
<path class="st1" d="M533.5,434.4c0.6-0.9,1.3-1.7,2.2-2.2s1.9-0.8,2.9-0.8c1.7,0,3,0.5,3.8,1.4s1.2,2.4,1.3,4.3v10.4H542v-10.4
	c0-1.4-0.3-2.5-0.9-3.2s-1.5-1-2.8-1c-1.1,0-2,0.3-2.9,1s-1.5,1.6-1.9,2.7v10.9h-1.7V425h1.7L533.5,434.4L533.5,434.4z"/>
<path class="st1" d="M557.5,447.6c-0.2-0.5-0.3-1.2-0.3-2.2c-0.6,0.8-1.4,1.4-2.4,1.9s-2,0.7-3,0.7c-1.5,0-2.8-0.4-3.7-1.3
	s-1.4-1.9-1.4-3.2c0-1.5,0.6-2.8,1.9-3.7s3.1-1.3,5.4-1.3h3.2v-1.8c0-1.1-0.3-2-1-2.7s-1.7-1-3.1-1c-1.2,0-2.2,0.3-3,0.9
	s-1.2,1.4-1.2,2.3h-1.8c0-1.3,0.6-2.4,1.8-3.3s2.6-1.4,4.3-1.4c1.8,0,3.2,0.4,4.2,1.3s1.5,2.1,1.6,3.7v7.5c0,1.5,0.2,2.7,0.5,3.4
	v0.2H557.5L557.5,447.6L557.5,447.6z M552,446.3c1.2,0,2.2-0.3,3.1-0.9s1.6-1.3,2-2.3v-3.5H554c-1.7,0-3.1,0.3-4.1,1
	s-1.5,1.5-1.5,2.6c0,0.9,0.3,1.6,1,2.2S550.9,446.3,552,446.3z"/>
<path class="st1" d="M565.5,427.7v4.1h3.3v1.4h-3.3v10.6c0,0.9,0.2,1.5,0.5,2c0.3,0.4,0.8,0.6,1.6,0.6c0.3,0,0.8,0,1.4-0.1l0.1,1.4
	c-0.5,0.2-1.1,0.2-1.9,0.2c-1.2,0-2.1-0.3-2.6-1s-0.8-1.7-0.8-3.1v-10.6h-2.9v-1.4h2.9v-4.1H565.5L565.5,427.7z"/>
<path class="st1" d="M588.2,447.6c-0.2-0.5-0.3-1.2-0.3-2.2c-0.6,0.8-1.4,1.4-2.4,1.9s-2,0.7-3,0.7c-1.5,0-2.8-0.4-3.7-1.3
	s-1.4-1.9-1.4-3.2c0-1.5,0.6-2.8,1.9-3.7s3.1-1.3,5.4-1.3h3.2v-1.8c0-1.1-0.3-2-1-2.7s-1.7-1-3.1-1c-1.2,0-2.2,0.3-3,0.9
	s-1.2,1.4-1.2,2.3h-1.8c0-1.3,0.6-2.4,1.8-3.3s2.6-1.4,4.3-1.4c1.8,0,3.2,0.4,4.2,1.3s1.5,2.1,1.6,3.7v7.5c0,1.5,0.2,2.7,0.5,3.4
	v0.2H588.2L588.2,447.6L588.2,447.6z M582.7,446.3c1.2,0,2.2-0.3,3.1-0.9s1.6-1.3,2-2.3v-3.5h-3.1c-1.7,0-3.1,0.3-4.1,1
	s-1.5,1.5-1.5,2.6c0,0.9,0.3,1.6,1,2.2S581.7,446.3,582.7,446.3z"/>
<path class="st1" d="M592.8,439.5c0-2.5,0.5-4.4,1.6-5.9s2.6-2.2,4.5-2.2c2.1,0,3.8,0.8,4.9,2.5V425h1.7v22.5H604l-0.1-2.1
	c-1.1,1.6-2.8,2.4-5,2.4c-1.8,0-3.3-0.7-4.4-2.2S592.8,442.1,592.8,439.5L592.8,439.5z M594.6,439.8c0,2,0.4,3.6,1.2,4.8
	s2,1.8,3.4,1.8c2.2,0,3.7-1,4.6-2.9v-7.4c-0.9-2.1-2.4-3.1-4.6-3.1c-1.5,0-2.6,0.6-3.4,1.7S594.6,437.6,594.6,439.8z"/>
<path class="st1" d="M608.8,439.5c0-2.5,0.5-4.4,1.6-5.9s2.6-2.2,4.5-2.2c2.1,0,3.8,0.8,4.9,2.5V425h1.7v22.5h-1.6l-0.1-2.1
	c-1.1,1.6-2.8,2.4-5,2.4c-1.8,0-3.3-0.7-4.4-2.2S608.7,442.1,608.8,439.5L608.8,439.5L608.8,439.5z M610.5,439.8
	c0,2,0.4,3.6,1.2,4.8s2,1.8,3.4,1.8c2.2,0,3.7-1,4.6-2.9v-7.4c-0.9-2.1-2.4-3.1-4.6-3.1c-1.5,0-2.6,0.6-3.4,1.7
	S610.5,437.6,610.5,439.8z"/>
<path class="st1" d="M625.3,427.2c0-0.3,0.1-0.6,0.3-0.8c0.2-0.2,0.5-0.3,0.9-0.3s0.7,0.1,0.9,0.3c0.2,0.2,0.3,0.5,0.3,0.8
	s-0.1,0.6-0.3,0.8c-0.2,0.2-0.5,0.3-0.9,0.3s-0.7-0.1-0.9-0.3C625.4,427.8,625.3,427.5,625.3,427.2z M627.3,447.6h-1.8v-15.9h1.8
	V447.6z"/>
<path class="st1" d="M633,431.8l0.1,2.7c0.6-1,1.3-1.7,2.2-2.2s1.9-0.8,2.9-0.8c1.7,0,3,0.5,3.8,1.4s1.2,2.4,1.3,4.3v10.4h-1.7
	v-10.4c0-1.4-0.3-2.5-0.9-3.2s-1.5-1-2.8-1c-1.1,0-2,0.3-2.9,1s-1.5,1.6-1.9,2.7v10.9h-1.7v-15.9h1.6L633,431.8L633,431.8z"/>
<path class="st1" d="M646.4,439.5c0-2.5,0.5-4.4,1.6-5.9s2.6-2.2,4.5-2.2c2.2,0,3.8,0.9,4.9,2.6l0.1-2.3h1.6v15.5
	c0,2-0.6,3.7-1.7,4.8s-2.7,1.8-4.6,1.8c-1.1,0-2.2-0.2-3.2-0.7s-1.8-1.1-2.4-2l1-1.1c1.2,1.5,2.7,2.3,4.4,2.3c1.5,0,2.6-0.4,3.4-1.3
	s1.2-2.1,1.3-3.6v-2c-1.1,1.6-2.8,2.3-4.9,2.3c-1.8,0-3.3-0.7-4.4-2.2s-1.7-3.4-1.7-5.9L646.4,439.5L646.4,439.5z M648.2,439.8
	c0,2,0.4,3.6,1.2,4.8s2,1.8,3.4,1.8c2.2,0,3.7-1,4.6-2.9v-7.4c-0.4-1-1-1.8-1.8-2.3s-1.7-0.8-2.8-0.8c-1.5,0-2.6,0.6-3.4,1.7
	S648.2,437.6,648.2,439.8z"/>
<path class="st1" d="M671.3,434.4c0.6-0.9,1.3-1.7,2.2-2.2s1.9-0.8,2.9-0.8c1.7,0,3,0.5,3.8,1.4s1.2,2.4,1.3,4.3v10.4h-1.7v-10.4
	c0-1.4-0.3-2.5-0.9-3.2s-1.5-1-2.8-1c-1.1,0-2,0.3-2.9,1s-1.5,1.6-1.9,2.7v10.9h-1.7V425h1.7L671.3,434.4L671.3,434.4z"/>
<path class="st1" d="M695.4,445.6c-1.1,1.5-2.7,2.3-5.1,2.3c-1.7,0-3-0.5-3.9-1.5s-1.3-2.4-1.3-4.4v-10.3h1.7v10.1
	c0,3,1.2,4.5,3.7,4.5s4.1-1,4.8-3.1v-11.5h1.8v15.9h-1.7V445.6z"/>
<path class="st1" d="M702.6,431.8l0.1,2.7c0.6-1,1.3-1.7,2.2-2.2s1.9-0.8,2.9-0.8c1.7,0,3,0.5,3.8,1.4s1.2,2.4,1.3,4.3v10.4h-1.7
	v-10.4c0-1.4-0.3-2.5-0.9-3.2s-1.5-1-2.8-1c-1.1,0-2,0.3-2.9,1s-1.5,1.6-1.9,2.7v10.9H701v-15.9h1.6V431.8z"/>
<path class="st1" d="M716,439.5c0-2.5,0.5-4.4,1.6-5.9s2.6-2.2,4.5-2.2c2.1,0,3.8,0.8,4.9,2.5V425h1.7v22.5h-1.6l-0.1-2.1
	c-1.1,1.6-2.8,2.4-5,2.4c-1.8,0-3.3-0.7-4.4-2.2S715.9,442.1,716,439.5L716,439.5L716,439.5z M717.8,439.8c0,2,0.4,3.6,1.2,4.8
	s2,1.8,3.4,1.8c2.2,0,3.7-1,4.6-2.9v-7.4c-0.9-2.1-2.4-3.1-4.6-3.1c-1.5,0-2.6,0.6-3.4,1.7S717.8,437.6,717.8,439.8z"/>
<path class="st1" d="M739.9,433.3c-0.4-0.1-0.8-0.1-1.2-0.1c-1.1,0-2,0.3-2.8,0.9s-1.3,1.5-1.6,2.7v10.9h-1.7v-15.9h1.7v2.5
	c0.9-1.9,2.4-2.8,4.5-2.8c0.5,0,0.9,0.1,1.2,0.2L739.9,433.3z"/>
<path class="st1" d="M747.8,447.9c-1.3,0-2.6-0.3-3.7-1s-1.9-1.6-2.5-2.8s-0.9-2.5-0.9-4v-0.6c0-1.5,0.3-2.9,0.9-4.1
	s1.4-2.2,2.5-2.9s2.2-1,3.4-1c1.9,0,3.5,0.7,4.6,2s1.7,3.1,1.7,5.4v1h-11.3v0.3c0,1.8,0.5,3.3,1.5,4.5s2.3,1.8,3.9,1.8
	c0.9,0,1.8-0.2,2.5-0.5s1.4-0.9,2-1.6l1.1,0.8C752.1,447,750.3,447.9,747.8,447.9z M747.5,433c-1.3,0-2.4,0.5-3.3,1.5
	s-1.5,2.3-1.6,3.9h9.5v-0.2c0-1.5-0.5-2.8-1.3-3.7S748.8,433,747.5,433z"/>
<path class="st1" d="M755.7,439.5c0-2.5,0.5-4.4,1.6-5.9s2.6-2.2,4.5-2.2c2.1,0,3.8,0.8,4.9,2.5V425h1.7v22.5h-1.6l-0.1-2.1
	c-1.1,1.6-2.8,2.4-5,2.4c-1.8,0-3.3-0.7-4.4-2.2S755.6,442.1,755.7,439.5L755.7,439.5L755.7,439.5z M757.5,439.8
	c0,2,0.4,3.6,1.2,4.8s2,1.8,3.4,1.8c2.2,0,3.7-1,4.6-2.9v-7.4c-0.9-2.1-2.4-3.1-4.6-3.1c-1.5,0-2.6,0.6-3.4,1.7
	S757.5,437.6,757.5,439.8z"/>
<path class="st1" d="M781.8,443.6c0-0.9-0.3-1.6-1-2.1s-1.8-0.9-3.2-1.2s-2.5-0.6-3.3-1s-1.4-0.9-1.7-1.4s-0.6-1.2-0.6-2
	c0-1.2,0.5-2.3,1.6-3.1s2.4-1.2,4-1.2c1.8,0,3.2,0.4,4.3,1.3s1.6,2,1.6,3.4h-1.8c0-0.9-0.4-1.7-1.2-2.3s-1.8-0.9-2.9-0.9
	c-1.2,0-2.1,0.3-2.8,0.8s-1,1.2-1,2s0.3,1.4,0.9,1.8s1.6,0.8,3.2,1.2s2.7,0.7,3.5,1.2s1.3,0.9,1.7,1.5s0.6,1.3,0.6,2.1
	c0,1.3-0.5,2.4-1.6,3.2s-2.5,1.2-4.2,1.2c-1.8,0-3.3-0.4-4.5-1.3s-1.7-2-1.7-3.4h1.8c0.1,1,0.5,1.8,1.3,2.4s1.8,0.9,3.2,0.9
	c1.2,0,2.2-0.3,3-0.8S781.8,444.4,781.8,443.6z"/>
<path class="st1" d="M792.4,439.4c0-1.5,0.3-2.9,0.9-4.1s1.4-2.2,2.5-2.8s2.3-1,3.7-1c2.1,0,3.8,0.7,5.1,2.2s2,3.4,2,5.9v0.4
	c0,1.5-0.3,2.9-0.9,4.1s-1.4,2.2-2.5,2.8s-2.3,1-3.7,1c-2.1,0-3.8-0.7-5.1-2.2s-2-3.4-2-5.9V439.4L792.4,439.4z M794.1,439.9
	c0,1.9,0.5,3.5,1.5,4.7s2.3,1.8,3.9,1.8c1.6,0,2.9-0.6,3.8-1.8s1.5-2.8,1.5-4.8v-0.3c0-1.2-0.2-2.3-0.7-3.3s-1.1-1.8-1.9-2.3
	s-1.7-0.8-2.8-0.8c-1.6,0-2.8,0.6-3.8,1.8s-1.5,2.8-1.5,4.8V439.9L794.1,439.9z"/>
<path class="st1" d="M810.6,447.6v-14.4H808v-1.4h2.6v-1.9c0-1.6,0.4-2.9,1.2-3.7s2-1.3,3.4-1.3c0.7,0,1.3,0.1,1.9,0.2l-0.1,1.5
	c-0.5-0.1-1-0.2-1.6-0.2c-1,0-1.7,0.3-2.3,0.9c-0.5,0.6-0.8,1.5-0.8,2.6v2h3.8v1.4h-3.8v14.4L810.6,447.6L810.6,447.6z"/>
<path class="st1" d="M824.4,439.5c0-2.5,0.5-4.4,1.6-5.9s2.6-2.2,4.5-2.2c2.1,0,3.8,0.8,4.9,2.5V425h1.7v22.5h-1.6l-0.1-2.1
	c-1.1,1.6-2.8,2.4-5,2.4c-1.8,0-3.3-0.7-4.4-2.2S824.3,442.1,824.4,439.5L824.4,439.5L824.4,439.5z M826.2,439.8
	c0,2,0.4,3.6,1.2,4.8s2,1.8,3.4,1.8c2.2,0,3.7-1,4.6-2.9v-7.4c-0.9-2.1-2.4-3.1-4.6-3.1c-1.5,0-2.6,0.6-3.4,1.7
	S826.2,437.6,826.2,439.8z"/>
<path class="st1" d="M847.2,447.9c-1.3,0-2.6-0.3-3.7-1s-1.9-1.6-2.5-2.8s-0.9-2.5-0.9-4v-0.6c0-1.5,0.3-2.9,0.9-4.1
	c0.6-1.2,1.4-2.2,2.5-2.9s2.2-1,3.4-1c1.9,0,3.5,0.7,4.6,2s1.7,3.1,1.7,5.4v1h-11.3v0.3c0,1.8,0.5,3.3,1.5,4.5s2.3,1.8,3.9,1.8
	c0.9,0,1.8-0.2,2.5-0.5s1.4-0.9,2-1.6l1.1,0.8C851.5,447,849.6,447.9,847.2,447.9z M846.8,433c-1.3,0-2.4,0.5-3.3,1.5
	s-1.5,2.3-1.6,3.9h9.5v-0.2c0-1.5-0.5-2.8-1.3-3.7S848.2,433,846.8,433z"/>
<path class="st1" d="M860.5,445.2l4.8-13.4h1.8l-5.9,15.9h-1.4l-5.9-15.9h1.8L860.5,445.2z"/>
<path class="st1" d="M869.2,427.2c0-0.3,0.1-0.6,0.3-0.8c0.2-0.2,0.5-0.3,0.9-0.3s0.7,0.1,0.9,0.3c0.2,0.2,0.3,0.5,0.3,0.8
	s-0.1,0.6-0.3,0.8c-0.2,0.2-0.5,0.3-0.9,0.3s-0.7-0.1-0.9-0.3C869.3,427.8,869.2,427.5,869.2,427.2z M871.2,447.6h-1.8v-15.9h1.8
	V447.6z"/>
<path class="st1" d="M881.1,446.4c1.2,0,2.2-0.3,3.1-1s1.3-1.6,1.3-2.7h1.7c0,1-0.4,1.8-0.9,2.6s-1.3,1.4-2.2,1.9
	c-0.9,0.4-1.9,0.7-3,0.7c-2.1,0-3.7-0.7-4.9-2.2c-1.2-1.4-1.8-3.4-1.8-5.8v-0.5c0-1.6,0.3-2.9,0.8-4.1s1.3-2.1,2.4-2.8
	c1-0.7,2.2-1,3.6-1c1.7,0,3.2,0.5,4.3,1.6c1.1,1,1.7,2.4,1.8,4.1h-1.7c-0.1-1.2-0.5-2.2-1.3-3s-1.8-1.1-3.1-1.1
	c-1.6,0-2.8,0.6-3.7,1.7s-1.3,2.7-1.3,4.8v0.5c0,2,0.4,3.6,1.3,4.7S879.5,446.4,881.1,446.4z"/>
<path class="st1" d="M896.1,447.9c-1.3,0-2.6-0.3-3.7-1s-1.9-1.6-2.5-2.8s-0.9-2.5-0.9-4v-0.6c0-1.5,0.3-2.9,0.9-4.1
	c0.6-1.2,1.4-2.2,2.5-2.9s2.2-1,3.4-1c1.9,0,3.5,0.7,4.6,2s1.7,3.1,1.7,5.4v1h-11.3v0.3c0,1.8,0.5,3.3,1.5,4.5s2.3,1.8,3.9,1.8
	c0.9,0,1.8-0.2,2.5-0.5s1.4-0.9,2-1.6l1.1,0.8C900.4,447,898.5,447.9,896.1,447.9z M895.8,433c-1.3,0-2.4,0.5-3.3,1.5
	s-1.5,2.3-1.6,3.9h9.5v-0.2c0-1.5-0.5-2.8-1.3-3.7S897.1,433,895.8,433z"/>
<path class="st1" d="M914.2,443.6c0-0.9-0.3-1.6-1-2.1s-1.8-0.9-3.2-1.2s-2.5-0.6-3.3-1s-1.4-0.9-1.7-1.4s-0.6-1.2-0.6-2
	c0-1.2,0.5-2.3,1.6-3.1s2.4-1.2,4-1.2c1.8,0,3.2,0.4,4.3,1.3s1.6,2,1.6,3.4h-1.8c0-0.9-0.4-1.7-1.2-2.3c-0.8-0.6-1.8-0.9-2.9-0.9
	c-1.2,0-2.1,0.3-2.8,0.8s-1,1.2-1,2s0.3,1.4,0.9,1.8c0.6,0.4,1.6,0.8,3.2,1.2c1.5,0.4,2.7,0.7,3.5,1.2s1.3,0.9,1.7,1.5
	s0.6,1.3,0.6,2.1c0,1.3-0.5,2.4-1.6,3.2s-2.5,1.2-4.2,1.2c-1.8,0-3.3-0.4-4.5-1.3c-1.1-0.9-1.7-2-1.7-3.4h1.8c0.1,1,0.5,1.8,1.3,2.4
	s1.8,0.9,3.2,0.9c1.2,0,2.2-0.3,3-0.8S914.2,444.4,914.2,443.6z"/>
<path class="st1" d="M198.7,480l0.3,1.4l0.4-1.4l3.8-12.1h1.5l3.8,12l0.4,1.7l0.3-1.5l3.3-12.2h1.8l-4.6,15.9h-1.5l-4.1-12.6
	l-0.2-0.9l-0.2,0.9l-4,12.6h-1.5l-4.6-15.9h1.8L198.7,480z"/>
<path class="st1" d="M216.6,463.2c0-0.3,0.1-0.6,0.3-0.8c0.2-0.2,0.5-0.3,0.9-0.3s0.7,0.1,0.9,0.3c0.2,0.2,0.3,0.5,0.3,0.8
	s-0.1,0.6-0.3,0.8c-0.2,0.2-0.5,0.3-0.9,0.3s-0.7-0.1-0.9-0.3C216.7,463.8,216.6,463.5,216.6,463.2z M218.7,483.6h-1.8v-15.9h1.8
	V483.6z"/>
<path class="st1" d="M224.7,483.6h-1.8v-22.5h1.8V483.6z"/>
<path class="st1" d="M230.7,483.6h-1.8v-22.5h1.8V483.6z"/>
<path class="st1" d="M242.9,470.4c0.6-0.9,1.3-1.7,2.2-2.2s1.9-0.8,2.9-0.8c1.7,0,3,0.5,3.8,1.4s1.2,2.4,1.3,4.3v10.4h-1.7v-10.4
	c0-1.4-0.3-2.5-0.9-3.2s-1.5-1-2.8-1c-1.1,0-2,0.3-2.9,1c-0.8,0.7-1.5,1.6-1.9,2.7v10.9h-1.7V461h1.7L242.9,470.4L242.9,470.4z"/>
<path class="st1" d="M266.9,483.6c-0.2-0.5-0.3-1.2-0.3-2.2c-0.6,0.8-1.4,1.4-2.4,1.9c-1,0.4-2,0.7-3,0.7c-1.5,0-2.8-0.4-3.7-1.3
	s-1.4-1.9-1.4-3.2c0-1.5,0.6-2.8,1.9-3.7s3.1-1.3,5.4-1.3h3.2v-1.8c0-1.1-0.3-2-1-2.7s-1.7-1-3.1-1c-1.2,0-2.2,0.3-3,0.9
	s-1.2,1.4-1.2,2.3h-1.8c0-1.3,0.6-2.4,1.8-3.3s2.6-1.4,4.3-1.4c1.8,0,3.2,0.4,4.2,1.3s1.5,2.1,1.6,3.7v7.5c0,1.5,0.2,2.7,0.5,3.4
	v0.2H266.9L266.9,483.6L266.9,483.6z M261.4,482.3c1.2,0,2.2-0.3,3.1-0.9s1.6-1.3,2-2.3v-3.5h-3.1c-1.7,0-3.1,0.3-4.1,1
	s-1.5,1.5-1.5,2.6c0,0.9,0.3,1.6,1,2.2C259.5,482.1,260.4,482.3,261.4,482.3z"/>
<path class="st1" d="M277,481.2l4.8-13.4h1.8l-5.9,15.9h-1.4l-5.9-15.9h1.8L277,481.2z"/>
<path class="st1" d="M291.6,483.9c-1.3,0-2.6-0.3-3.7-1s-1.9-1.6-2.5-2.8s-0.9-2.5-0.9-4v-0.6c0-1.5,0.3-2.9,0.9-4.1
	s1.4-2.2,2.5-2.9s2.2-1,3.4-1c1.9,0,3.5,0.7,4.6,2s1.7,3.1,1.7,5.4v1h-11.3v0.3c0,1.8,0.5,3.3,1.5,4.5s2.3,1.8,3.9,1.8
	c0.9,0,1.8-0.2,2.5-0.5s1.4-0.9,2-1.6l1.1,0.8C296,483,294.1,483.9,291.6,483.9z M291.3,469c-1.3,0-2.4,0.5-3.3,1.5
	s-1.5,2.3-1.6,3.9h9.5v-0.2c0-1.5-0.5-2.8-1.3-3.7S292.7,469,291.3,469z"/>
<path class="st1" d="M305.8,475.4c0-1.5,0.3-2.9,0.9-4.1s1.4-2.2,2.5-2.8s2.3-1,3.7-1c2.1,0,3.8,0.7,5.1,2.2s2,3.4,2,5.9v0.4
	c0,1.5-0.3,2.9-0.9,4.1s-1.4,2.2-2.5,2.8s-2.3,1-3.7,1c-2.1,0-3.8-0.7-5.1-2.2s-2-3.4-2-5.9V475.4z M307.6,475.9
	c0,1.9,0.5,3.5,1.5,4.7s2.3,1.8,3.9,1.8s2.9-0.6,3.8-1.8c1-1.2,1.5-2.8,1.5-4.8v-0.3c0-1.2-0.2-2.3-0.7-3.3s-1.1-1.8-1.9-2.3
	s-1.7-0.8-2.8-0.8c-1.6,0-2.8,0.6-3.8,1.8s-1.5,2.8-1.5,4.8V475.9L307.6,475.9z"/>
<path class="st1" d="M324.5,467.8l0.1,2.7c0.6-1,1.3-1.7,2.2-2.2s1.9-0.8,2.9-0.8c1.7,0,3,0.5,3.8,1.4s1.2,2.4,1.3,4.3v10.4h-1.7
	v-10.4c0-1.4-0.3-2.5-0.9-3.2s-1.5-1-2.8-1c-1.1,0-2,0.3-2.9,1c-0.8,0.7-1.5,1.6-1.9,2.7v10.9h-1.7v-15.9h1.6V467.8L324.5,467.8z"/>
<path class="st1" d="M355.7,482.3l4.6-13.3h1.9l-6.8,18.5l-0.4,0.8c-0.9,1.9-2.2,2.9-4,2.9c-0.4,0-0.9-0.1-1.3-0.2v-1.5l0.9,0.1
	c0.9,0,1.6-0.2,2.1-0.6s1-1.2,1.4-2.2l0.8-2.1l-6-15.7h1.9L355.7,482.3z"/>
<path class="st1" d="M363,476.6c0-1.5,0.3-2.9,0.9-4.1s1.4-2.2,2.5-2.8s2.3-1,3.7-1c2.1,0,3.8,0.7,5.1,2.2c1.3,1.5,2,3.4,2,5.9v0.4
	c0,1.5-0.3,2.9-0.9,4.1s-1.4,2.2-2.5,2.8s-2.3,1-3.7,1c-2.1,0-3.8-0.7-5.1-2.2c-1.3-1.5-2-3.4-2-5.9V476.6L363,476.6z M364.8,477.1
	c0,1.9,0.5,3.4,1.5,4.7s2.3,1.8,3.9,1.8s2.9-0.6,3.8-1.8c0.9-1.2,1.5-2.8,1.5-4.8v-0.3c0-1.2-0.2-2.3-0.7-3.3s-1.1-1.8-1.9-2.3
	s-1.7-0.8-2.8-0.8c-1.6,0-2.8,0.6-3.8,1.8s-1.5,2.8-1.5,4.8V477.1z"/>
<path class="st1" d="M390.2,482.8c-1.1,1.5-2.7,2.3-5.1,2.3c-1.7,0-3-0.5-3.9-1.5s-1.3-2.4-1.3-4.4v-10.3h1.7V479
	c0,3,1.2,4.5,3.7,4.5s4.1-1,4.8-3.1v-11.5h1.8v15.9h-1.7V482.8z"/>
<path class="st1" d="M403.1,470.5c-0.4-0.1-0.8-0.1-1.2-0.1c-1.1,0-2,0.3-2.8,0.9s-1.3,1.5-1.6,2.7v10.9h-1.7V469h1.7v2.5
	c0.9-1.9,2.4-2.8,4.5-2.8c0.5,0,0.9,0.1,1.2,0.2L403.1,470.5z"/>
<path class="st1" d="M417.9,469l0.1,2.7c0.6-1,1.3-1.7,2.2-2.2s1.9-0.8,2.9-0.8c1.7,0,3,0.5,3.8,1.4s1.2,2.4,1.3,4.3v10.4h-1.7
	v-10.4c0-1.4-0.3-2.5-0.9-3.2s-1.5-1-2.8-1c-1.1,0-2,0.3-2.9,1s-1.5,1.6-1.9,2.7v10.9h-1.7v-15.9h1.6V469z"/>
<path class="st1" d="M438.1,485.1c-1.3,0-2.6-0.3-3.7-1s-1.9-1.6-2.5-2.8s-0.9-2.5-0.9-4v-0.6c0-1.5,0.3-2.9,0.9-4.1
	s1.4-2.2,2.5-2.9s2.2-1,3.4-1c1.9,0,3.5,0.7,4.6,2s1.7,3.1,1.7,5.4v1h-11.3v0.3c0,1.8,0.5,3.3,1.5,4.5s2.3,1.8,3.9,1.8
	c0.9,0,1.8-0.2,2.5-0.5s1.4-0.9,2-1.6l1.1,0.8C442.5,484.2,440.6,485.1,438.1,485.1z M437.8,470.2c-1.3,0-2.4,0.5-3.3,1.5
	s-1.5,2.3-1.6,3.9h9.5v-0.2c0-1.5-0.5-2.8-1.3-3.7S439.1,470.2,437.8,470.2z"/>
<path class="st1" d="M449.5,464.9v4.1h3.3v1.4h-3.3V481c0,0.9,0.2,1.5,0.5,2c0.3,0.4,0.8,0.6,1.6,0.6c0.3,0,0.8,0,1.4-0.1l0.1,1.4
	c-0.5,0.2-1.1,0.2-1.9,0.2c-1.2,0-2.1-0.3-2.6-1s-0.8-1.7-0.8-3.1v-10.6h-2.9V469h2.9v-4.1H449.5L449.5,464.9L449.5,464.9z"/>
<path class="st1" d="M459.4,481.2l0.3,1.4l0.4-1.4l3.8-12.1h1.5l3.8,12l0.4,1.7l0.3-1.5l3.3-12.2h1.8l-4.6,15.9h-1.5l-4.1-12.6
	l-0.2-0.9l-0.2,0.9l-4,12.6h-1.5l-4.6-15.9h1.8L459.4,481.2z"/>
<path class="st1" d="M476.5,476.6c0-1.5,0.3-2.9,0.9-4.1s1.4-2.2,2.5-2.8s2.3-1,3.7-1c2.1,0,3.8,0.7,5.1,2.2s2,3.4,2,5.9v0.4
	c0,1.5-0.3,2.9-0.9,4.1s-1.4,2.2-2.5,2.8s-2.3,1-3.7,1c-2.1,0-3.8-0.7-5.1-2.2s-2-3.4-2-5.9V476.6L476.5,476.6z M478.3,477.1
	c0,1.9,0.5,3.4,1.5,4.7s2.3,1.8,3.9,1.8s2.9-0.6,3.8-1.8s1.5-2.8,1.5-4.8v-0.3c0-1.2-0.2-2.3-0.7-3.3s-1.1-1.8-1.9-2.3
	s-1.8-0.9-2.8-0.9c-1.6,0-2.8,0.6-3.8,1.8s-1.5,2.8-1.5,4.8V477.1L478.3,477.1z"/>
<path class="st1" d="M500.9,470.5c-0.4-0.1-0.8-0.1-1.2-0.1c-1.1,0-2,0.3-2.8,0.9s-1.3,1.5-1.6,2.7v10.9h-1.7V469h1.7v2.5
	c0.9-1.9,2.4-2.8,4.5-2.8c0.5,0,0.9,0.1,1.2,0.2L500.9,470.5z"/>
<path class="st1" d="M506.7,476.8l-2,1.9v6h-1.8v-22.5h1.8v14.4l1.7-1.8l6.1-6h2.2l-6.7,6.7l7.3,9.2h-2.1L506.7,476.8z"/>
<path class="st1" d="M523.3,464.4c0-0.3,0.1-0.6,0.3-0.8c0.2-0.2,0.5-0.3,0.9-0.3s0.7,0.1,0.9,0.3c0.2,0.2,0.3,0.5,0.3,0.8
	s-0.1,0.6-0.3,0.8c-0.2,0.2-0.5,0.3-0.9,0.3s-0.7-0.1-0.9-0.3C523.4,465,523.3,464.7,523.3,464.4z M525.3,484.8h-1.7v-15.9h1.8
	L525.3,484.8L525.3,484.8z"/>
<path class="st1" d="M531,469l0.1,2.7c0.6-1,1.3-1.7,2.2-2.2s1.9-0.8,2.9-0.8c1.7,0,3,0.5,3.8,1.4s1.2,2.4,1.3,4.3v10.4h-1.7v-10.4
	c0-1.4-0.3-2.5-0.9-3.2c-0.6-0.7-1.5-1-2.8-1c-1.1,0-2,0.3-2.9,1s-1.5,1.6-1.9,2.7v10.9h-1.7v-15.9h1.6L531,469L531,469z"/>
<path class="st1" d="M546.3,484.8v-14.4h-2.6V469h2.6v-1.9c0-1.6,0.4-2.9,1.2-3.7c0.8-0.8,2-1.3,3.5-1.3c0.7,0,1.3,0.1,1.9,0.2
	l-0.1,1.5c-0.5-0.1-1-0.2-1.6-0.2c-1,0-1.7,0.3-2.3,0.9c-0.5,0.6-0.8,1.5-0.8,2.6v2h3.8v1.4h-3.8v14.4L546.3,484.8L546.3,484.8z"/>
<path class="st1" d="M561.6,470.5c-0.4-0.1-0.8-0.1-1.2-0.1c-1.1,0-2,0.3-2.8,0.9s-1.3,1.5-1.6,2.7v10.9h-1.7V469h1.7v2.5
	c0.9-1.9,2.4-2.8,4.5-2.8c0.5,0,0.9,0.1,1.2,0.2L561.6,470.5z"/>
<path class="st1" d="M573,484.8c-0.2-0.5-0.3-1.2-0.3-2.2c-0.6,0.8-1.4,1.4-2.4,1.9s-2,0.7-3,0.7c-1.5,0-2.8-0.4-3.7-1.3
	s-1.4-1.9-1.4-3.2c0-1.5,0.6-2.8,1.9-3.7s3.1-1.3,5.4-1.3h3.2v-1.8c0-1.1-0.3-2-1-2.7s-1.7-1-3.1-1c-1.2,0-2.2,0.3-3,0.9
	s-1.2,1.4-1.2,2.3h-1.8c0-1.3,0.6-2.4,1.8-3.3s2.6-1.4,4.3-1.4c1.8,0,3.2,0.4,4.2,1.3s1.5,2.1,1.6,3.7v7.5c0,1.5,0.2,2.7,0.5,3.4
	v0.2H573L573,484.8z M567.5,483.5c1.2,0,2.2-0.3,3.1-0.8c0.9-0.5,1.6-1.3,2-2.3v-3.5h-3.1c-1.7,0-3.1,0.3-4.1,1s-1.5,1.5-1.5,2.6
	c0,0.9,0.3,1.6,1,2.2S566.5,483.5,567.5,483.5z"/>
<path class="st1" d="M587.8,480.8c0-0.9-0.3-1.6-1-2.1s-1.8-0.9-3.2-1.2s-2.5-0.6-3.3-1s-1.4-0.9-1.7-1.4s-0.6-1.2-0.6-2
	c0-1.2,0.5-2.3,1.6-3.1s2.4-1.2,4-1.2c1.8,0,3.2,0.4,4.3,1.3s1.6,2,1.6,3.4h-1.8c0-0.9-0.4-1.7-1.2-2.3s-1.8-0.9-2.9-0.9
	c-1.2,0-2.1,0.3-2.8,0.8s-1,1.2-1,2s0.3,1.4,0.9,1.8s1.6,0.8,3.2,1.2s2.7,0.7,3.5,1.2c0.8,0.4,1.3,0.9,1.7,1.5s0.6,1.3,0.6,2.1
	c0,1.3-0.5,2.4-1.6,3.2s-2.5,1.2-4.2,1.2c-1.8,0-3.3-0.4-4.5-1.3s-1.7-2-1.7-3.4h1.8c0.1,1,0.5,1.8,1.3,2.4s1.8,0.9,3.2,0.9
	c1.2,0,2.2-0.3,3-0.8S587.8,481.6,587.8,480.8z"/>
<path class="st1" d="M595.5,464.9v4.1h3.3v1.4h-3.3V481c0,0.9,0.2,1.5,0.5,2c0.3,0.4,0.8,0.6,1.6,0.6c0.3,0,0.8,0,1.4-0.1l0.1,1.4
	c-0.5,0.2-1.1,0.2-1.9,0.2c-1.2,0-2.1-0.3-2.6-1s-0.8-1.7-0.8-3.1v-10.6h-2.9V469h2.9v-4.1H595.5L595.5,464.9z"/>
<path class="st1" d="M609,470.5c-0.4-0.1-0.8-0.1-1.2-0.1c-1.1,0-2,0.3-2.8,0.9s-1.3,1.5-1.6,2.7v10.9h-1.7V469h1.7v2.5
	c0.9-1.9,2.4-2.8,4.5-2.8c0.5,0,0.9,0.1,1.2,0.2L609,470.5z"/>
<path class="st1" d="M621.2,482.8c-1.1,1.5-2.7,2.3-5.1,2.3c-1.7,0-3-0.5-3.9-1.5s-1.3-2.4-1.3-4.4v-10.3h1.7V479
	c0,3,1.2,4.5,3.7,4.5s4.1-1,4.8-3.1v-11.5h1.8v15.9h-1.7V482.8z"/>
<path class="st1" d="M632.6,483.6c1.2,0,2.2-0.3,3.1-1s1.3-1.6,1.3-2.7h1.7c0,1-0.4,1.8-0.9,2.6s-1.3,1.4-2.2,1.9s-1.9,0.7-3,0.7
	c-2.1,0-3.7-0.7-4.9-2.2s-1.8-3.4-1.8-5.8v-0.5c0-1.6,0.3-2.9,0.8-4.1s1.3-2.1,2.4-2.8s2.2-1,3.6-1c1.7,0,3.2,0.5,4.3,1.6
	s1.7,2.4,1.8,4.1h-1.7c-0.1-1.2-0.5-2.2-1.3-3s-1.8-1.1-3.1-1.1c-1.6,0-2.8,0.6-3.7,1.7s-1.3,2.7-1.3,4.8v0.5c0,2,0.4,3.6,1.3,4.7
	S631,483.6,632.6,483.6z"/>
<path class="st1" d="M644.2,464.9v4.1h3.3v1.4h-3.3V481c0,0.9,0.2,1.5,0.5,2c0.3,0.4,0.8,0.6,1.6,0.6c0.3,0,0.8,0,1.4-0.1l0.1,1.4
	c-0.5,0.2-1.1,0.2-1.9,0.2c-1.2,0-2.1-0.3-2.6-1s-0.8-1.7-0.8-3.1v-10.6h-2.9V469h2.9v-4.1H644.2L644.2,464.9z"/>
<path class="st1" d="M660.5,482.8c-1.1,1.5-2.7,2.3-5.1,2.3c-1.7,0-3-0.5-3.9-1.5s-1.3-2.4-1.3-4.4v-10.3h1.7V479
	c0,3,1.2,4.5,3.7,4.5s4.1-1,4.8-3.1v-11.5h1.8v15.9h-1.6L660.5,482.8z"/>
<path class="st1" d="M673.4,470.5c-0.4-0.1-0.8-0.1-1.2-0.1c-1.1,0-2,0.3-2.8,0.9s-1.3,1.5-1.6,2.7v10.9h-1.7V469h1.7v2.5
	c0.9-1.9,2.4-2.8,4.5-2.8c0.5,0,0.9,0.1,1.2,0.2L673.4,470.5z"/>
<path class="st1" d="M681.3,485.1c-1.3,0-2.6-0.3-3.7-1s-1.9-1.6-2.5-2.8s-0.9-2.5-0.9-4v-0.6c0-1.5,0.3-2.9,0.9-4.1
	s1.4-2.2,2.5-2.9s2.2-1,3.4-1c1.9,0,3.5,0.7,4.6,2s1.7,3.1,1.7,5.4v1H676v0.3c0,1.8,0.5,3.3,1.5,4.5s2.3,1.8,3.9,1.8
	c0.9,0,1.8-0.2,2.5-0.5s1.4-0.9,2-1.6l1.1,0.8C685.6,484.2,683.7,485.1,681.3,485.1z M680.9,470.2c-1.3,0-2.4,0.5-3.3,1.5
	s-1.5,2.3-1.6,3.9h9.5v-0.2c0-1.5-0.5-2.8-1.3-3.7S682.3,470.2,680.9,470.2z"/>
<path class="st1" d="M689.7,483.8c0-0.3,0.1-0.6,0.3-0.9s0.5-0.4,0.9-0.4s0.7,0.1,0.9,0.4s0.3,0.5,0.3,0.9s-0.1,0.6-0.3,0.8
	s-0.5,0.3-0.9,0.3s-0.7-0.1-0.9-0.3S689.7,484.1,689.7,483.8z"/>
</svg>
