<?xml version="1.0" encoding="utf-8"?>
<!-- Generator: Adobe Illustrator 22.0.1, SVG Export Plug-In . SVG Version: 6.00 Build 0)  -->
<svg version="1.1" id="Layer_1" xmlns="http://www.w3.org/2000/svg" xmlns:xlink="http://www.w3.org/1999/xlink" x="0px" y="0px"
	 viewBox="0 0 1600 800" style="enable-background:new 0 0 1600 800;" xml:space="preserve">
<style type="text/css">
	.st0{fill:#FFFFFF;}
	.st1{opacity:0.5;}
	.st2{fill:#00B4E4;}
</style>
<path class="st0" d="M1600,866.078H0V-11.889h1600V866.078z M209.822,450.738l18.504-80.409l18.891,80.409h35.263l29.935-141.055
	h-33.713l-16.179,88.449l-19.667-88.449h-28.869l-19.375,88.449l-16.179-88.449h-33.811l30.033,141.055H209.822z M351.149,375.56
	c2.776-4.262,7.522-6.394,14.241-6.394c5.425,0,9.267,1.307,11.529,3.923c2.261,2.616,3.391,6.701,3.391,12.255v65.392h32.745
	V384.57c-0.131-13.368-3.134-23.476-9.01-30.322c-5.878-6.845-14.597-10.269-26.157-10.269c-10.85,0-19.762,4.393-26.738,13.175
	v-55.22h-32.647v148.804h32.647V375.56z M470.676,386.704c-16.018,0-28.226,2.907-36.62,8.719
	c-8.397,5.812-12.594,14.402-12.594,25.769c0,9.043,3.453,16.551,10.365,22.524c6.911,5.974,15.308,8.961,25.189,8.961
	c10.786,0,19.182-3.779,25.189-11.335c0.904,4.133,1.938,7.265,3.1,9.397v0.003h32.649v-1.647
	c-2.843-5.102-4.328-12.464-4.457-22.089v-46.405c-0.193-11.367-4.165-20.311-11.916-26.835c-7.751-6.523-18.309-9.785-31.679-9.785
	c-13.369,0-24.366,3.161-32.987,9.483c-8.622,6.321-12.933,14.546-12.933,24.673h32.647c0-7.658,3.875-11.487,11.626-11.487
	c8.331,0,12.497,4.835,12.497,14.504v5.55H470.676z M480.752,420.899c-1.162,2.196-3.085,4.166-5.764,5.91
	c-2.68,1.744-6.055,2.616-10.124,2.616c-3.1,0-5.653-0.92-7.653-2.761c-2.002-1.841-3.003-4.246-3.003-7.217
	c0-10.204,5.682-15.307,17.05-15.307h9.494V420.899z M566.76,424.775c-1.421-1.55-2.132-4.295-2.132-8.235v-47.955h17.245v-22.669
	h-17.245v-26.06H531.98v26.06h-13.37v22.669h13.37v52.024c0,10.787,2.679,18.829,8.041,24.123c5.361,5.296,13.66,7.944,24.898,7.944
	c6.394,0,12.529-0.937,18.407-2.809v-23.348c-2.196,0.388-4.908,0.582-8.138,0.582C570.989,427.1,568.18,426.325,566.76,424.775z
	 M638.992,330.292c3.357,2.99,7.717,4.484,13.079,4.484c5.361,0,9.72-1.494,13.079-4.484c3.357-2.988,5.037-6.822,5.037-11.501
	c0-4.678-1.68-8.512-5.037-11.501c-3.359-2.989-7.719-4.484-13.079-4.484c-5.362,0-9.722,1.496-13.079,4.484
	c-3.358,2.99-5.037,6.824-5.037,11.501C633.955,323.47,635.633,327.303,638.992,330.292z M635.892,450.738h32.745V345.917h-32.745
	V450.738z M724.418,452.673c13.498,0,24.495-3.003,32.987-9.01c8.492-6.007,12.74-13.789,12.74-23.348
	c0-14.013-7.881-23.735-23.639-29.16c-4.715-1.614-10.188-3.004-16.42-4.166c-6.233-1.163-10.77-2.649-13.611-4.457
	c-2.842-1.807-4.262-4.165-4.262-7.072c0-2.842,1.162-5.216,3.487-7.121c2.325-1.903,5.198-2.858,8.622-2.858
	c8.848,0,13.272,4.2,13.272,12.594h32.745c0-10.204-4.2-18.438-12.594-24.703c-8.397-6.263-19.506-9.397-33.326-9.397
	c-12.852,0-23.251,3.117-31.195,9.349c-7.944,6.234-11.916,14.161-11.916,23.784c0,5.425,1.388,10.237,4.166,14.435
	c2.777,4.2,6.814,7.767,12.11,10.705c5.294,2.941,12.013,5.314,20.15,7.121c8.138,1.809,13.659,3.553,16.566,5.232
	c2.907,1.68,4.359,3.909,4.359,6.685c0,2.906-1.114,5.265-3.344,7.07c-2.228,1.808-5.57,2.712-10.027,2.712
	c-4.844,0-8.815-1.114-11.916-3.342c-3.1-2.228-4.715-5.764-4.844-10.608h-30.517c0,6.136,1.97,11.98,5.91,17.534
	c3.939,5.557,9.43,9.947,16.47,13.176C707.431,451.059,715.441,452.673,724.418,452.673z M190.058,515.357
	c3.939-6.329,10.138-9.494,18.6-9.494c8.331,0,14.531,1.874,18.6,5.619c4.069,3.746,6.232,9.915,6.491,18.504h33.907
	c-1.421-15.824-7.331-28.24-17.729-37.25c-10.399-9.01-24.157-13.515-41.27-13.515c-11.884,0-22.346,2.826-31.388,8.476
	c-9.043,5.653-15.97,13.66-20.78,24.026c-4.811,10.367-7.217,22.461-7.217,36.281v6.975c0,22.025,5.329,39.075,15.985,51.153
	c10.657,12.076,25.252,18.116,43.789,18.116c11.238,0,21.23-2.067,29.983-6.2c8.751-4.133,15.549-9.962,20.393-17.487
	c4.844-7.523,7.491-16.194,7.944-26.012l-33.812,0.001c-0.258,8.009-2.455,13.853-6.587,17.534
	c-4.133,3.681-10.109,5.522-17.922,5.522c-9.237,0-15.743-3.229-19.521-9.688c-3.778-6.457-5.667-17.211-5.667-32.261v-9.978
	C184.052,531.793,186.119,521.687,190.058,515.357z M323.343,515.55c-10.269,0-19.216,2.196-26.835,6.587
	c-7.62,4.393-13.466,10.673-17.534,18.843c-4.069,8.171-6.103,17.486-6.103,27.949l0.096,5.522
	c0.711,15.307,5.586,27.433,14.629,36.377c9.043,8.948,21.023,13.419,35.942,13.419c15.5,0,27.787-4.797,36.862-14.387
	c9.072-9.59,13.611-22.555,13.611-38.896v-1.162c0-16.726-4.521-29.95-13.563-39.671C351.405,520.41,339.038,515.55,323.343,515.55z
	 M341.363,572.223c-0.258,17.891-6.199,26.835-17.825,26.835c-5.942,0-10.43-2.26-13.466-6.781
	c-3.037-4.52-4.553-11.626-4.553-21.313l0.095-5.91c0.904-16.211,6.814-24.316,17.729-24.316c12.013,0,18.02,9.397,18.02,28.192
	V572.223z M382.809,622.31h32.647v-74.015c3.1-5.037,7.847-7.556,14.241-7.556c5.619,0,9.494,1.245,11.626,3.73
	c2.131,2.487,3.196,6.379,3.196,11.674v66.168h32.745v-67.525c-0.195-13.11-2.989-22.927-8.38-29.451
	c-5.394-6.523-13.548-9.785-24.462-9.785c-12.724,0-22.703,4.747-29.935,14.241l-1.066-12.304h-30.612V622.31z M522.293,539.91
	c2.325-1.903,5.198-2.858,8.622-2.858c8.848,0,13.272,4.2,13.272,12.594h32.745c0-10.204-4.2-18.438-12.594-24.703
	c-8.397-6.263-19.507-9.397-33.326-9.397c-12.852,0-23.251,3.117-31.195,9.349c-7.944,6.234-11.916,14.161-11.916,23.784
	c0,5.425,1.388,10.237,4.166,14.435c2.777,4.2,6.814,7.767,12.11,10.705c5.294,2.941,12.013,5.314,20.15,7.121
	c8.138,1.809,13.659,3.553,16.566,5.232c2.907,1.68,4.36,3.909,4.36,6.685c0,2.907-1.114,5.266-3.344,7.069
	c-2.228,1.808-5.57,2.712-10.027,2.712c-4.844,0-8.815-1.114-11.915-3.342c-3.1-2.228-4.715-5.764-4.844-10.608h-30.517
	c0,6.137,1.97,11.981,5.91,17.536c3.939,5.554,9.43,9.946,16.47,13.175c7.039,3.228,15.049,4.844,24.026,4.844
	c13.498,0,24.495-3.003,32.987-9.01c8.492-6.006,12.74-13.789,12.74-23.348c0-14.013-7.881-23.735-23.639-29.16
	c-4.715-1.614-10.188-3.004-16.421-4.166c-6.233-1.163-10.77-2.649-13.611-4.457c-2.842-1.807-4.262-4.165-4.262-7.072
	C518.806,544.189,519.968,541.816,522.293,539.91z M621.476,624.247c11.755,0,21.086-4.424,27.998-13.272l0.969,11.333h30.613
	V517.485h-32.842v73.531c-3.165,5.362-8.493,8.041-15.984,8.041c-8.719,0-13.079-4.489-13.079-13.466v-68.105h-32.647v67.912
	c0,12.531,2.955,22.137,8.865,28.821C601.277,620.904,609.979,624.247,621.476,624.247z M695.665,622.31h32.745V473.505h-32.745
	V622.31z M748.929,491.427v26.06h-13.369v22.669h13.369v52.024c0,10.786,2.679,18.828,8.041,24.123
	c5.361,5.295,13.66,7.944,24.898,7.944c6.394,0,12.529-0.938,18.407-2.809V598.09c-2.196,0.388-4.908,0.582-8.138,0.582
	c-4.199,0-7.008-0.775-8.428-2.325c-1.421-1.55-2.132-4.295-2.132-8.235v-47.955h17.245v-22.669h-17.245v-26.06H748.929z
	 M808.393,622.31h32.745V517.487h-32.745V622.31z M811.493,501.863c3.357,2.99,7.717,4.484,13.079,4.484
	c5.361,0,9.72-1.494,13.079-4.484c3.357-2.988,5.037-6.823,5.037-11.501c0-4.678-1.68-8.512-5.037-11.501
	c-3.359-2.989-7.718-4.484-13.079-4.484c-5.362,0-9.722,1.495-13.079,4.484c-3.358,2.99-5.037,6.824-5.037,11.501
	C806.456,495.04,808.134,498.875,811.493,501.863z M950.107,622.311v-67.525c-0.195-13.11-2.989-22.927-8.38-29.451
	c-5.394-6.523-13.548-9.785-24.462-9.785c-12.724,0-22.703,4.747-29.935,14.241l-1.066-12.304h-30.612V622.31h32.647v-74.015
	c3.1-5.037,7.847-7.556,14.241-7.556c5.619,0,9.494,1.245,11.626,3.73c2.131,2.487,3.196,6.379,3.196,11.674v66.168H950.107z
	 M1027.976,526.593c-6.137-7.362-14.662-11.044-25.576-11.044c-8.656,0-16.243,2.214-22.766,6.637
	c-6.524,4.424-11.529,10.705-15.016,18.843c-3.488,8.138-5.232,17.503-5.232,28.094l0,1.162c0,16.406,3.939,29.499,11.819,39.284
	c7.88,9.785,18.213,14.678,31.001,14.678c9.558,0,17.47-3.454,23.735-10.365v3.294c0,14.854-7.234,22.282-21.701,22.282
	c-9.947,0-17.956-3.584-24.026-10.753l-13.66,19.182c3.811,4.65,9.315,8.428,16.518,11.335c7.201,2.907,14.643,4.36,22.33,4.36
	c10.72,0,20.15-1.826,28.288-5.475c8.139-3.649,14.353-8.88,18.649-15.695c4.294-6.815,6.442-14.839,6.442-24.074v-100.85h-29.645
	L1027.976,526.593z M1025.942,591.987c-3.23,4.715-8.365,7.072-15.404,7.072c-5.812,0-10.334-2.502-13.563-7.508
	c-3.23-5.005-4.844-11.803-4.844-20.393c0-9.881,1.647-17.422,4.94-22.621c3.295-5.198,7.848-7.799,13.66-7.799
	c6.975,0,12.046,2.39,15.21,7.169V591.987z M192.142,683.589c3.519-2.678,8.315-4.02,14.386-4.02c6.007,0,10.769,1.582,14.29,4.747
	c3.52,3.165,5.28,7.62,5.28,13.369h33.907c0-8.59-2.229-16.229-6.685-22.913c-4.456-6.684-10.704-11.833-18.746-15.451
	s-17.132-5.425-27.271-5.425c-10.399,0-19.763,1.663-28.094,4.988c-8.331,3.328-14.774,7.978-19.327,13.95
	c-4.553,5.975-6.83,12.87-6.83,20.684c0,15.694,9.139,28.03,27.417,37.007c5.619,2.777,12.851,5.652,21.701,8.622
	c8.848,2.97,15.031,5.845,18.552,8.622c3.52,2.779,5.28,6.654,5.28,11.626c0,4.392-1.632,7.8-4.891,10.221
	c-3.261,2.424-7.701,3.634-13.32,3.634c-8.784,0-15.129-1.792-19.036-5.377c-3.909-3.582-5.862-9.154-5.862-16.71H148.79
	c0,9.299,2.339,17.519,7.024,24.654c4.682,7.137,11.658,12.756,20.925,16.857c9.267,4.103,19.618,6.152,31.049,6.152
	c16.211,0,28.966-3.519,38.266-10.56c9.3-7.039,13.95-16.727,13.95-29.063c0-15.437-7.622-27.546-22.864-36.329
	c-6.265-3.617-14.275-6.991-24.026-10.125c-9.752-3.131-16.566-6.166-20.441-9.106c-3.875-2.937-5.812-6.215-5.812-9.832
	C186.862,689.678,188.621,686.27,192.142,683.589z M318.21,690.126c-10.463,0-19.506,2.245-27.126,6.733
	c-7.622,4.491-13.419,10.836-17.39,19.038c-3.972,8.202-5.958,17.664-5.958,28.385v2.712c0,15.372,4.973,27.852,14.92,37.444
	c9.945,9.59,22.96,14.386,39.041,14.386c8.589,0,16.615-1.664,24.074-4.993c7.46-3.324,13.224-7.798,17.293-13.416l-14.92-17.632
	c-5.812,7.235-13.887,10.851-24.219,10.851c-6.265,0-11.368-1.678-15.307-5.037c-3.94-3.358-6.491-7.976-7.653-13.854h64.909
	v-12.691c0-16.34-4.262-29.078-12.788-38.219C344.56,694.695,332.934,690.126,318.21,690.126z M333.904,734.303h-32.938
	c1.807-12.659,7.492-18.988,17.05-18.988c5.166,0,9.138,1.439,11.917,4.31c2.776,2.875,4.1,6.927,3.971,12.159V734.303z
	 M487.804,758.038l-16.275-65.974h-33.516l0.015-0.775c-2.583-0.775-5.619-1.162-9.106-1.162c-9.818,0-17.471,5.135-22.96,15.404
	l-1.066-13.466h-30.613v104.822h32.647v-66.362c2.907-6.457,9.494-9.688,19.763-9.688l10.753,0.775l0.512-26.733l33.279,102.007
	h33.326l34.198-104.822h-34.392L487.804,758.038z M545.233,796.886h32.745V692.064h-32.745V796.886z M574.491,653.437
	c-3.359-2.989-7.718-4.483-13.079-4.483c-5.362,0-9.722,1.494-13.079,4.483c-3.358,2.99-5.037,6.822-5.037,11.501
	s1.679,8.514,5.037,11.5c3.357,2.99,7.717,4.484,13.079,4.484c5.361,0,9.72-1.494,13.079-4.484c3.357-2.987,5.037-6.823,5.037-11.5
	C579.528,660.261,577.848,656.427,574.491,653.437z M637.153,715.315c4.456,0,8.007,1.453,10.656,4.359
	c2.648,2.907,3.971,7.072,3.971,12.497h30.613c0-12.918-4.005-23.154-12.013-30.71c-8.009-7.557-18.828-11.335-32.454-11.335
	c-10.076,0-18.795,2.179-26.157,6.538c-7.362,4.359-12.998,10.594-16.905,18.698c-3.909,8.107-5.862,17.455-5.862,28.047v1.357
	c0,16.922,4.391,30.162,13.175,39.72c8.783,9.56,20.795,14.338,36.038,14.338c12.981,0,23.589-3.682,31.824-11.044
	s12.352-16.791,12.352-28.288H651.78c0.063,4.456-1.163,7.929-3.682,10.415s-6.07,3.729-10.656,3.729
	c-5.49,0-9.494-2.034-12.011-6.103c-2.519-4.069-3.778-11.366-3.778-21.894c0-6.007,0.225-10.721,0.678-14.145
	C623.751,720.707,628.691,715.315,637.153,715.315z M738.467,690.126c-10.463,0-19.507,2.245-27.126,6.733
	c-7.622,4.491-13.419,10.836-17.39,19.038c-3.971,8.202-5.958,17.664-5.958,28.385v2.712c0,15.372,4.973,27.852,14.92,37.444
	c9.945,9.59,22.96,14.386,39.041,14.386c8.588,0,16.614-1.664,24.074-4.993c7.46-3.324,13.224-7.798,17.293-13.416l-14.92-17.632
	c-5.812,7.235-13.887,10.851-24.219,10.851c-6.265,0-11.368-1.678-15.307-5.037c-3.94-3.358-6.491-7.976-7.653-13.854h64.909
	v-12.691c0-16.34-4.262-29.078-12.788-38.219C764.818,694.695,753.192,690.126,738.467,690.126z M754.161,734.303h-32.938
	c1.807-12.659,7.491-18.988,17.05-18.988c5.166,0,9.139,1.439,11.917,4.31c2.776,2.875,4.1,6.927,3.971,12.159V734.303z
	 M826.219,714.489c2.325-1.903,5.198-2.858,8.622-2.858c8.848,0,13.272,4.199,13.272,12.594h32.745
	c0-10.205-4.2-18.44-12.594-24.703c-8.397-6.264-19.507-9.397-33.326-9.397c-12.852,0-23.251,3.117-31.195,9.348
	c-7.944,6.234-11.916,14.16-11.916,23.784c0,5.425,1.388,10.236,4.166,14.435c2.777,4.199,6.814,7.767,12.11,10.704
	c5.294,2.941,12.013,5.313,20.15,7.121c8.138,1.81,13.659,3.554,16.566,5.232c2.907,1.68,4.359,3.908,4.359,6.685
	c0,2.907-1.114,5.265-3.344,7.073c-2.228,1.809-5.57,2.712-10.027,2.712c-4.844,0-8.815-1.113-11.916-3.343
	c-3.1-2.227-4.715-5.763-4.844-10.607h-30.517c0,6.136,1.97,11.981,5.91,17.534c3.939,5.554,9.43,9.947,16.47,13.175
	c7.039,3.228,15.049,4.844,24.026,4.844c13.498,0,24.495-3.003,32.987-9.01c8.492-6.007,12.74-13.788,12.74-23.348
	c0-14.014-7.881-23.735-23.639-29.16c-4.715-1.615-10.188-3.004-16.42-4.166c-6.233-1.163-10.77-2.649-13.611-4.457
	c-2.842-1.807-4.262-4.165-4.262-7.072C822.732,718.768,823.894,716.396,826.219,714.489z M964.201,663.872
	c-7.912-6.652-19.07-9.978-33.472-9.978c-14.468,0-25.706,3.601-33.713,10.802c-8.009,7.203-12.077,17.26-12.206,30.178h32.745
	c0.129-4.844,1.388-8.686,3.778-11.529c2.389-2.842,5.522-4.262,9.397-4.262c8.396,0,12.594,4.877,12.594,14.629
	c0,4.005-1.245,7.67-3.73,10.995c-2.487,3.328-6.12,6.992-10.899,10.996c-4.78,4.004-8.234,8.735-10.365,14.191
	c-2.131,5.459-3.196,12.902-3.196,22.331l27.708-0.001c0.129-4.908,0.807-8.963,2.034-12.159c1.225-3.196,3.423-6.312,6.587-9.348
	l11.14-10.365c4.714-4.586,8.138-9.073,10.269-13.466c2.131-4.392,3.196-9.268,3.196-14.629
	C976.068,679.987,972.111,670.524,964.201,663.872z M942.211,769.906c-3.456-3.067-7.767-4.602-12.933-4.602
	c-5.168,0-9.479,1.535-12.933,4.602c-3.456,3.067-5.183,6.992-5.183,11.77c0,4.779,1.727,8.704,5.183,11.77
	c3.454,3.069,7.765,4.602,12.933,4.602c5.166,0,9.478-1.534,12.933-4.602c3.453-3.066,5.183-6.991,5.183-11.77
	C947.393,776.898,945.665,772.974,942.211,769.906z"/>
<g class="st1">
	<polygon points="209.822,450.738 228.326,370.329 247.217,450.738 282.48,450.738 312.416,309.684 278.702,309.684 
		262.524,398.133 242.856,309.684 213.987,309.684 194.612,398.133 178.433,309.684 144.622,309.684 174.655,450.738 	"/>
	<path d="M351.149,375.56c2.776-4.262,7.522-6.394,14.241-6.394c5.425,0,9.267,1.307,11.529,3.923
		c2.261,2.616,3.391,6.701,3.391,12.255v65.392h32.745V384.57c-0.131-13.368-3.134-23.476-9.01-30.322
		c-5.878-6.845-14.597-10.269-26.157-10.269c-10.85,0-19.762,4.393-26.738,13.175v-55.22h-32.647v148.804h32.647V375.56z"/>
	<path d="M470.676,386.704c-16.018,0-28.226,2.907-36.62,8.719c-8.397,5.812-12.594,14.402-12.594,25.769
		c0,9.043,3.453,16.551,10.365,22.524c6.911,5.974,15.308,8.961,25.189,8.961c10.786,0,19.182-3.779,25.189-11.335
		c0.904,4.133,1.938,7.265,3.1,9.397v0.003h32.649v-1.647c-2.843-5.102-4.328-12.464-4.457-22.089v-46.405
		c-0.193-11.367-4.165-20.311-11.916-26.835c-7.751-6.523-18.309-9.785-31.679-9.785c-13.369,0-24.366,3.161-32.987,9.483
		c-8.622,6.321-12.933,14.546-12.933,24.673h32.647c0-7.658,3.875-11.487,11.626-11.487c8.331,0,12.497,4.835,12.497,14.504v5.55
		H470.676z M480.752,420.899c-1.162,2.196-3.085,4.166-5.764,5.91c-2.68,1.744-6.055,2.616-10.124,2.616
		c-3.1,0-5.653-0.92-7.653-2.761c-2.002-1.841-3.003-4.246-3.003-7.217c0-10.204,5.682-15.307,17.05-15.307h9.494V420.899z"/>
	<path d="M566.76,424.775c-1.421-1.55-2.132-4.295-2.132-8.235v-47.955h17.245v-22.669h-17.245v-26.06H531.98v26.06h-13.37v22.669
		h13.37v52.024c0,10.787,2.679,18.829,8.041,24.123c5.361,5.296,13.66,7.944,24.898,7.944c6.394,0,12.529-0.937,18.407-2.809
		v-23.348c-2.196,0.388-4.908,0.582-8.138,0.582C570.989,427.1,568.18,426.325,566.76,424.775z"/>
	<path d="M638.992,330.292c3.357,2.99,7.717,4.484,13.079,4.484c5.361,0,9.72-1.494,13.079-4.484
		c3.357-2.988,5.037-6.822,5.037-11.501c0-4.678-1.68-8.512-5.037-11.501c-3.359-2.989-7.719-4.484-13.079-4.484
		c-5.362,0-9.722,1.496-13.079,4.484c-3.358,2.99-5.037,6.824-5.037,11.501C633.955,323.47,635.633,327.303,638.992,330.292z"/>
	<rect x="635.892" y="345.917" width="32.745" height="104.822"/>
	<path d="M724.418,452.673c13.498,0,24.495-3.003,32.987-9.01c8.492-6.007,12.74-13.789,12.74-23.348
		c0-14.013-7.881-23.735-23.639-29.16c-4.715-1.614-10.188-3.004-16.42-4.166c-6.233-1.163-10.77-2.649-13.611-4.457
		c-2.842-1.807-4.262-4.165-4.262-7.072c0-2.842,1.162-5.216,3.487-7.121c2.325-1.903,5.198-2.858,8.622-2.858
		c8.848,0,13.272,4.2,13.272,12.594h32.745c0-10.204-4.2-18.438-12.594-24.703c-8.397-6.263-19.506-9.397-33.326-9.397
		c-12.852,0-23.251,3.117-31.195,9.349c-7.944,6.234-11.916,14.161-11.916,23.784c0,5.425,1.388,10.237,4.166,14.435
		c2.777,4.2,6.814,7.767,12.11,10.705c5.294,2.941,12.013,5.314,20.15,7.121c8.138,1.809,13.659,3.553,16.566,5.232
		c2.907,1.68,4.359,3.909,4.359,6.685c0,2.906-1.114,5.265-3.344,7.07c-2.228,1.808-5.57,2.712-10.027,2.712
		c-4.844,0-8.815-1.114-11.916-3.342c-3.1-2.228-4.715-5.764-4.844-10.608h-30.517c0,6.136,1.97,11.98,5.91,17.534
		c3.939,5.557,9.43,9.947,16.47,13.176C707.431,451.059,715.441,452.673,724.418,452.673z"/>
	<path d="M190.058,515.357c3.939-6.329,10.138-9.494,18.6-9.494c8.331,0,14.531,1.874,18.6,5.619
		c4.069,3.746,6.232,9.915,6.491,18.504h33.907c-1.421-15.824-7.331-28.24-17.729-37.25c-10.399-9.01-24.157-13.515-41.27-13.515
		c-11.884,0-22.346,2.826-31.388,8.476c-9.043,5.653-15.97,13.66-20.78,24.026c-4.811,10.367-7.217,22.461-7.217,36.281v6.975
		c0,22.025,5.329,39.075,15.985,51.153c10.657,12.076,25.252,18.116,43.789,18.116c11.238,0,21.23-2.067,29.983-6.2
		c8.751-4.133,15.549-9.962,20.393-17.487c4.844-7.523,7.491-16.194,7.944-26.012l-33.812,0.001
		c-0.258,8.009-2.455,13.853-6.587,17.534c-4.133,3.681-10.109,5.522-17.922,5.522c-9.237,0-15.743-3.229-19.521-9.688
		c-3.778-6.457-5.667-17.211-5.667-32.261v-9.978C184.052,531.793,186.119,521.687,190.058,515.357z"/>
	<path d="M323.343,515.55c-10.269,0-19.216,2.196-26.835,6.587c-7.62,4.393-13.466,10.673-17.534,18.843
		c-4.069,8.171-6.103,17.486-6.103,27.949l0.096,5.522c0.711,15.307,5.586,27.433,14.629,36.377
		c9.043,8.948,21.023,13.419,35.942,13.419c15.5,0,27.787-4.797,36.862-14.387c9.072-9.59,13.611-22.555,13.611-38.896v-1.162
		c0-16.726-4.521-29.95-13.563-39.671C351.405,520.41,339.038,515.55,323.343,515.55z M341.363,572.223
		c-0.258,17.891-6.199,26.835-17.825,26.835c-5.942,0-10.43-2.26-13.466-6.781c-3.037-4.52-4.553-11.626-4.553-21.313l0.095-5.91
		c0.904-16.211,6.814-24.316,17.729-24.316c12.013,0,18.02,9.397,18.02,28.192V572.223z"/>
	<path d="M382.809,622.31h32.647v-74.015c3.1-5.037,7.847-7.556,14.241-7.556c5.619,0,9.494,1.245,11.626,3.73
		c2.131,2.487,3.196,6.379,3.196,11.674v66.168h32.745v-67.525c-0.195-13.11-2.989-22.927-8.38-29.451
		c-5.394-6.523-13.548-9.785-24.462-9.785c-12.724,0-22.703,4.747-29.935,14.241l-1.066-12.304h-30.612V622.31z"/>
	<path d="M522.293,539.91c2.325-1.903,5.198-2.858,8.622-2.858c8.848,0,13.272,4.2,13.272,12.594h32.745
		c0-10.204-4.2-18.438-12.594-24.703c-8.397-6.263-19.507-9.397-33.326-9.397c-12.852,0-23.251,3.117-31.195,9.349
		c-7.944,6.234-11.916,14.161-11.916,23.784c0,5.425,1.388,10.237,4.166,14.435c2.777,4.2,6.814,7.767,12.11,10.705
		c5.294,2.941,12.013,5.314,20.15,7.121c8.138,1.809,13.659,3.553,16.566,5.232c2.907,1.68,4.36,3.909,4.36,6.685
		c0,2.907-1.114,5.266-3.344,7.069c-2.228,1.808-5.57,2.712-10.027,2.712c-4.844,0-8.815-1.114-11.915-3.342
		c-3.1-2.228-4.715-5.764-4.844-10.608h-30.517c0,6.137,1.97,11.981,5.91,17.536c3.939,5.554,9.43,9.946,16.47,13.175
		c7.039,3.228,15.049,4.844,24.026,4.844c13.498,0,24.495-3.003,32.987-9.01c8.492-6.006,12.74-13.789,12.74-23.348
		c0-14.013-7.881-23.735-23.639-29.16c-4.715-1.614-10.188-3.004-16.421-4.166c-6.233-1.163-10.77-2.649-13.611-4.457
		c-2.842-1.807-4.262-4.165-4.262-7.072C518.806,544.189,519.968,541.816,522.293,539.91z"/>
	<path d="M621.476,624.247c11.755,0,21.086-4.424,27.998-13.272l0.969,11.333h30.613V517.485h-32.842v73.531
		c-3.165,5.362-8.493,8.041-15.984,8.041c-8.719,0-13.079-4.489-13.079-13.466v-68.105h-32.647v67.912
		c0,12.531,2.955,22.137,8.865,28.821C601.277,620.904,609.979,624.247,621.476,624.247z"/>
	<rect x="695.665" y="473.505" width="32.745" height="148.805"/>
	<path d="M748.929,491.427v26.06h-13.369v22.669h13.369v52.024c0,10.786,2.679,18.828,8.041,24.123
		c5.361,5.295,13.66,7.944,24.898,7.944c6.394,0,12.529-0.938,18.407-2.809V598.09c-2.196,0.388-4.908,0.582-8.138,0.582
		c-4.199,0-7.008-0.775-8.428-2.325c-1.421-1.55-2.132-4.295-2.132-8.235v-47.955h17.245v-22.669h-17.245v-26.06H748.929z"/>
	<rect x="808.393" y="517.487" width="32.745" height="104.823"/>
	<path d="M811.493,501.863c3.357,2.99,7.717,4.484,13.079,4.484c5.361,0,9.72-1.494,13.079-4.484
		c3.357-2.988,5.037-6.823,5.037-11.501c0-4.678-1.68-8.512-5.037-11.501c-3.359-2.989-7.718-4.484-13.079-4.484
		c-5.362,0-9.722,1.495-13.079,4.484c-3.358,2.99-5.037,6.824-5.037,11.501C806.456,495.04,808.134,498.875,811.493,501.863z"/>
	<path d="M950.107,622.311v-67.525c-0.195-13.11-2.989-22.927-8.38-29.451c-5.394-6.523-13.548-9.785-24.462-9.785
		c-12.724,0-22.703,4.747-29.935,14.241l-1.066-12.304h-30.612V622.31h32.647v-74.015c3.1-5.037,7.847-7.556,14.241-7.556
		c5.619,0,9.494,1.245,11.626,3.73c2.131,2.487,3.196,6.379,3.196,11.674v66.168H950.107z"/>
	<path d="M1027.976,526.593c-6.137-7.362-14.662-11.044-25.576-11.044c-8.656,0-16.243,2.214-22.766,6.637
		c-6.524,4.424-11.529,10.705-15.016,18.843c-3.488,8.138-5.232,17.503-5.232,28.094l0,1.162c0,16.406,3.939,29.499,11.819,39.284
		c7.88,9.785,18.213,14.678,31.001,14.678c9.558,0,17.47-3.454,23.735-10.365v3.294c0,14.854-7.234,22.282-21.701,22.282
		c-9.947,0-17.956-3.584-24.026-10.753l-13.66,19.182c3.811,4.65,9.315,8.428,16.518,11.335c7.201,2.907,14.643,4.36,22.33,4.36
		c10.72,0,20.15-1.826,28.288-5.475c8.139-3.649,14.353-8.88,18.649-15.695c4.294-6.815,6.442-14.839,6.442-24.074v-100.85h-29.645
		L1027.976,526.593z M1025.942,591.987c-3.23,4.715-8.365,7.072-15.404,7.072c-5.812,0-10.334-2.502-13.563-7.508
		c-3.23-5.005-4.844-11.803-4.844-20.393c0-9.881,1.647-17.422,4.94-22.621c3.295-5.198,7.848-7.799,13.66-7.799
		c6.975,0,12.046,2.39,15.21,7.169V591.987z"/>
	<path d="M192.142,683.589c3.519-2.678,8.315-4.02,14.386-4.02c6.007,0,10.769,1.582,14.29,4.747c3.52,3.165,5.28,7.62,5.28,13.369
		h33.907c0-8.59-2.229-16.229-6.685-22.913c-4.456-6.684-10.704-11.833-18.746-15.451s-17.132-5.425-27.271-5.425
		c-10.399,0-19.763,1.663-28.094,4.988c-8.331,3.328-14.774,7.978-19.327,13.95c-4.553,5.975-6.83,12.87-6.83,20.684
		c0,15.694,9.139,28.03,27.417,37.007c5.619,2.777,12.851,5.652,21.701,8.622c8.848,2.97,15.031,5.845,18.552,8.622
		c3.52,2.779,5.28,6.654,5.28,11.626c0,4.392-1.632,7.8-4.891,10.221c-3.261,2.424-7.701,3.634-13.32,3.634
		c-8.784,0-15.129-1.792-19.036-5.377c-3.909-3.582-5.862-9.154-5.862-16.71H148.79c0,9.299,2.339,17.519,7.024,24.654
		c4.682,7.137,11.658,12.756,20.925,16.857c9.267,4.103,19.618,6.152,31.049,6.152c16.211,0,28.966-3.519,38.266-10.56
		c9.3-7.039,13.95-16.727,13.95-29.063c0-15.437-7.622-27.546-22.864-36.329c-6.265-3.617-14.275-6.991-24.026-10.125
		c-9.752-3.131-16.566-6.166-20.441-9.106c-3.875-2.937-5.812-6.215-5.812-9.832C186.862,689.678,188.621,686.27,192.142,683.589z"
		/>
	<path d="M318.21,690.126c-10.463,0-19.506,2.245-27.126,6.733c-7.622,4.491-13.419,10.836-17.39,19.038
		c-3.972,8.202-5.958,17.664-5.958,28.385v2.712c0,15.372,4.973,27.852,14.92,37.444c9.945,9.59,22.96,14.386,39.041,14.386
		c8.589,0,16.615-1.664,24.074-4.993c7.46-3.324,13.224-7.798,17.293-13.416l-14.92-17.632
		c-5.812,7.235-13.887,10.851-24.219,10.851c-6.265,0-11.368-1.678-15.307-5.037c-3.94-3.358-6.491-7.976-7.653-13.854h64.909
		v-12.691c0-16.34-4.262-29.078-12.788-38.219C344.56,694.695,332.934,690.126,318.21,690.126z M333.904,734.303h-32.938
		c1.807-12.659,7.492-18.988,17.05-18.988c5.166,0,9.138,1.439,11.917,4.31c2.776,2.875,4.1,6.927,3.971,12.159V734.303z"/>
	<path d="M487.804,758.038l-16.275-65.974h-33.516l0.015-0.775c-2.583-0.775-5.619-1.162-9.106-1.162
		c-9.818,0-17.471,5.135-22.96,15.404l-1.066-13.466h-30.613v104.822h32.647v-66.362c2.907-6.457,9.494-9.688,19.763-9.688
		l10.753,0.775l0.512-26.733l33.279,102.007h33.326l34.198-104.822h-34.392L487.804,758.038z"/>
	<rect x="545.233" y="692.064" width="32.745" height="104.822"/>
	<path d="M574.491,653.437c-3.359-2.989-7.718-4.483-13.079-4.483c-5.362,0-9.722,1.494-13.079,4.483
		c-3.358,2.99-5.037,6.822-5.037,11.501s1.679,8.514,5.037,11.5c3.357,2.99,7.717,4.484,13.079,4.484
		c5.361,0,9.72-1.494,13.079-4.484c3.357-2.987,5.037-6.823,5.037-11.5C579.528,660.261,577.848,656.427,574.491,653.437z"/>
	<path d="M637.153,715.315c4.456,0,8.007,1.453,10.656,4.359c2.648,2.907,3.971,7.072,3.971,12.497h30.613
		c0-12.918-4.005-23.154-12.013-30.71c-8.009-7.557-18.828-11.335-32.454-11.335c-10.076,0-18.795,2.179-26.157,6.538
		c-7.362,4.359-12.998,10.594-16.905,18.698c-3.909,8.107-5.862,17.455-5.862,28.047v1.357c0,16.922,4.391,30.162,13.175,39.72
		c8.783,9.56,20.795,14.338,36.038,14.338c12.981,0,23.589-3.682,31.824-11.044s12.352-16.791,12.352-28.288H651.78
		c0.063,4.456-1.163,7.929-3.682,10.415s-6.07,3.729-10.656,3.729c-5.49,0-9.494-2.034-12.011-6.103
		c-2.519-4.069-3.778-11.366-3.778-21.894c0-6.007,0.225-10.721,0.678-14.145C623.751,720.707,628.691,715.315,637.153,715.315z"/>
	<path d="M738.467,690.126c-10.463,0-19.507,2.245-27.126,6.733c-7.622,4.491-13.419,10.836-17.39,19.038
		c-3.971,8.202-5.958,17.664-5.958,28.385v2.712c0,15.372,4.973,27.852,14.92,37.444c9.945,9.59,22.96,14.386,39.041,14.386
		c8.588,0,16.614-1.664,24.074-4.993c7.46-3.324,13.224-7.798,17.293-13.416l-14.92-17.632
		c-5.812,7.235-13.887,10.851-24.219,10.851c-6.265,0-11.368-1.678-15.307-5.037c-3.94-3.358-6.491-7.976-7.653-13.854h64.909
		v-12.691c0-16.34-4.262-29.078-12.788-38.219C764.818,694.695,753.192,690.126,738.467,690.126z M754.161,734.303h-32.938
		c1.807-12.659,7.491-18.988,17.05-18.988c5.166,0,9.139,1.439,11.917,4.31c2.776,2.875,4.1,6.927,3.971,12.159V734.303z"/>
	<path d="M826.219,714.489c2.325-1.903,5.198-2.858,8.622-2.858c8.848,0,13.272,4.199,13.272,12.594h32.745
		c0-10.205-4.2-18.44-12.594-24.703c-8.397-6.264-19.507-9.397-33.326-9.397c-12.852,0-23.251,3.117-31.195,9.348
		c-7.944,6.234-11.916,14.16-11.916,23.784c0,5.425,1.388,10.236,4.166,14.435c2.777,4.199,6.814,7.767,12.11,10.704
		c5.294,2.941,12.013,5.313,20.15,7.121c8.138,1.81,13.659,3.554,16.566,5.232c2.907,1.68,4.359,3.908,4.359,6.685
		c0,2.907-1.114,5.265-3.344,7.073c-2.228,1.809-5.57,2.712-10.027,2.712c-4.844,0-8.815-1.113-11.916-3.343
		c-3.1-2.227-4.715-5.763-4.844-10.607h-30.517c0,6.136,1.97,11.981,5.91,17.534c3.939,5.554,9.43,9.947,16.47,13.175
		c7.039,3.228,15.049,4.844,24.026,4.844c13.498,0,24.495-3.003,32.987-9.01c8.492-6.007,12.74-13.788,12.74-23.348
		c0-14.014-7.881-23.735-23.639-29.16c-4.715-1.615-10.188-3.004-16.42-4.166c-6.233-1.163-10.77-2.649-13.611-4.457
		c-2.842-1.807-4.262-4.165-4.262-7.072C822.732,718.768,823.894,716.396,826.219,714.489z"/>
	<path d="M964.201,663.872c-7.912-6.652-19.07-9.978-33.472-9.978c-14.468,0-25.706,3.601-33.713,10.802
		c-8.009,7.203-12.077,17.26-12.206,30.178h32.745c0.129-4.844,1.388-8.686,3.778-11.529c2.389-2.842,5.522-4.262,9.397-4.262
		c8.396,0,12.594,4.877,12.594,14.629c0,4.005-1.245,7.67-3.73,10.995c-2.487,3.328-6.12,6.992-10.899,10.996
		c-4.78,4.004-8.234,8.735-10.365,14.191c-2.131,5.459-3.196,12.902-3.196,22.331l27.708-0.001
		c0.129-4.908,0.807-8.963,2.034-12.159c1.225-3.196,3.423-6.312,6.587-9.348l11.14-10.365c4.714-4.586,8.138-9.073,10.269-13.466
		c2.131-4.392,3.196-9.268,3.196-14.629C976.068,679.987,972.111,670.524,964.201,663.872z"/>
	<path d="M942.211,769.906c-3.456-3.067-7.767-4.602-12.933-4.602c-5.168,0-9.479,1.535-12.933,4.602
		c-3.456,3.067-5.183,6.992-5.183,11.77c0,4.779,1.727,8.704,5.183,11.77c3.454,3.069,7.765,4.602,12.933,4.602
		c5.166,0,9.478-1.534,12.933-4.602c3.453-3.066,5.183-6.991,5.183-11.77C947.393,776.898,945.665,772.974,942.211,769.906z"/>
</g>
<g>
	<polygon class="st2" points="878.522,294.304 787.811,290.196 791.333,308.536 819.616,305.496 817.023,453.615 828.391,456.208 
		844.024,304.314 874.79,302.912 	"/>
	<path class="st2" d="M922.8,427.432c-1.301,0.186-2.641,0.133-3.937,0.324c-16.1,0.867-35.566-3.851-40.904-40.723l66.341-4.48
		c-0.548-6.234-0.825-9.352-1.687-14.327c-4.28-24.642-15.6-45.351-43.778-43.463c-1.034,0.148-2.374,0.095-3.417,0.248
		c-27.801,4.018-38.096,33.673-32.215,67.552c4.695,27.01,21.381,57.147,61.656,51.328c9.614-1.387,19.241-4.237,24.246-7.631
		l-8.036-15.595C937.022,423.433,931.112,426.226,922.8,427.432z M895.918,337.083c13.512-1.954,23.655,10.424,27.396,31.986
		l-44.636,5.233C876.877,357.802,880.585,339.295,895.918,337.083z"/>
	<path class="st2" d="M1040.294,325.022l-0.291,21.572l-0.515-0.076c-4.962-12.859-14.613-18.626-24.489-20.052
		c-20.523-2.965-44.688,13.465-51.146,50.66c-5.062,29.136-1.454,65.121,31.538,69.887c14.037,2.021,26.472-5.167,31.848-13.131
		l0.782,0.11l-7.612,59.13l14.213-2.069l22.33-120.881l6.048-34.827L1040.294,325.022z M1034.684,375.697l-3.336,28.421
		c-2.45,21.744-17.616,27.816-26.453,26.538c-22.868-3.303-24.436-34.136-21.062-53.558c3.865-22.272,14.971-38.64,31.858-36.199
		C1029.465,342.886,1036.91,358.291,1034.684,375.697z"/>
</g>
</svg>
