<?xml version="1.0" encoding="utf-8"?>
<!-- Generator: Adobe Illustrator 22.1.0, SVG Export Plug-In . SVG Version: 6.00 Build 0)  -->
<svg version="1.1" id="Layer_1" xmlns="http://www.w3.org/2000/svg" xmlns:xlink="http://www.w3.org/1999/xlink" x="0px" y="0px"
	 viewBox="0 0 1600 650" style="enable-background:new 0 0 1600 650;" xml:space="preserve">
<style type="text/css">
	.st0{opacity:0.8;fill:#7BC35F;enable-background:new    ;}
	.st1{fill:#FFFFFF;}
</style>
<rect y="-0.4" class="st0" width="1600" height="721.5"/>
<g>
	<rect x="477.6" y="216" class="st1" width="16.7" height="69.7"/>
	<polygon class="st1" points="387.9,285.7 387.9,269.4 386.2,236.1 403.1,285.7 414.2,285.7 431.1,236.1 429.4,269.4 429.4,285.7 
		446.3,285.7 446.3,216 424.2,216 408.7,264.5 393.1,216 371.1,216 371.1,285.7 	"/>
	<polygon class="st1" points="366.7,285.7 366.7,272.8 335.5,272.8 335.5,256.1 361.9,256.1 361.9,243.7 335.5,243.7 335.5,229 
		366.8,229 366.8,216 318.7,216 318.7,285.7 	"/>
	<polygon class="st1" points="276.3,229 276.3,285.7 293.1,285.7 293.1,229 314,229 314,216 255.8,216 255.8,229 	"/>
	<path class="st1" d="M241.9,249c-3.1-1.8-7.1-3.5-11.9-5c-4.8-1.5-8.2-3-10.1-4.5c-1.9-1.5-2.9-3.1-2.9-4.9c0-2,0.9-3.7,2.6-5
		c1.7-1.3,4.1-2,7.1-2s5.3,0.8,7.1,2.3c1.7,1.6,2.6,3.8,2.6,6.6h16.7c0-4.2-1.1-8-3.3-11.3s-5.3-5.8-9.3-7.6s-8.5-2.7-13.5-2.7
		c-5.1,0-9.8,0.8-13.9,2.5c-4.1,1.6-7.3,3.9-9.5,6.9s-3.4,6.4-3.4,10.2c0,7.8,4.5,13.8,13.5,18.3c2.8,1.4,6.3,2.8,10.7,4.3
		s7.4,2.9,9.2,4.3c1.7,1.4,2.6,3.3,2.6,5.7c0.2,2.2-0.6,3.9-2.2,5.1c-1.6,1.2-3.8,1.8-6.6,1.8c-4.3,0-7.5-0.9-9.4-2.7
		c-1.9-1.8-2.9-4.5-2.9-8.3h-16.8c0,4.6,1.2,8.7,3.5,12.2s5.8,6.3,10.3,8.3c4.6,2,9.7,3,15.3,3c8,0,14.3-1.7,18.9-5.2
		c4.6-3.5,6.9-8.3,6.9-14.4C253.2,259.3,249.4,253.3,241.9,249z"/>
	<path class="st1" d="M545.1,237.8c-2.7-3.2-6.7-4.8-12.1-4.8c-6.3,0-11.2,2.3-14.8,7l-0.5-6.1h-15.1v51.8h16.1v-36.6
		c1.5-2.5,3.9-3.7,7-3.7c2.8,0,4.7,0.6,5.7,1.8c1.1,1.2,1.6,3.2,1.6,5.8v32.7h16.2v-33.4C549.1,245.8,547.7,241,545.1,237.8z"/>
	<rect x="556.5" y="233.9" class="st1" width="16.2" height="51.8"/>
	<path class="st1" d="M571,214.8c-1.7-1.5-3.8-2.2-6.5-2.2c-2.6,0-4.8,0.7-6.5,2.2s-2.5,3.4-2.5,5.7s0.9,4.2,2.5,5.7
		c1.7,1.5,3.8,2.2,6.5,2.2s4.8-0.7,6.5-2.2s2.5-3.4,2.5-5.7S572.7,216.3,571,214.8z"/>
	<path class="st1" d="M600,272.9c-0.7-0.8-1.1-2.1-1.1-4.1v-23.7h8.5v-11.2h-8.5V221h-16.1v12.9h-6.6v11.2h6.6v25.7
		c0,5.3,1.3,9.3,4,11.9c2.6,2.6,6.7,3.9,12.3,3.9c3.2,0,6.2-0.5,9.1-1.4v-11.5c-1.1,0.2-2.4,0.3-4,0.3
		C602.1,274,600.7,273.6,600,272.9z"/>
	<rect x="612.2" y="233.9" class="st1" width="16.2" height="51.8"/>
	<path class="st1" d="M626.7,214.8c-1.7-1.5-3.8-2.2-6.5-2.2c-2.6,0-4.8,0.7-6.5,2.2s-2.5,3.4-2.5,5.7s0.9,4.2,2.5,5.7
		c1.7,1.5,3.8,2.2,6.5,2.2s4.8-0.7,6.5-2.2s2.5-3.4,2.5-5.7S628.4,216.3,626.7,214.8z"/>
	<path class="st1" d="M678.8,251c-0.1-5.6-2.1-10-5.9-13.3c-3.8-3.2-9-4.8-15.6-4.8s-12,1.6-16.3,4.7c-4.3,3.1-6.4,7.2-6.4,12.2
		h16.1c0-3.8,1.9-5.7,5.7-5.7c4.1,0,6.2,2.4,6.2,7.2v2.7h-4.8v0.1c-7.9,0-13.9,1.4-18.1,4.3c-4.1,2.9-6.2,7.1-6.2,12.7
		c0,4.5,1.7,8.2,5.1,11.1c3.4,3,7.6,4.4,12.4,4.4c5.3,0,9.5-1.9,12.4-5.6c0.4,2,1,3.6,1.5,4.6H681v-0.8c-1.4-2.5-2.1-6.2-2.2-10.9
		V251z M662.8,270.9c-0.6,1.1-1.5,2.1-2.8,2.9c-1.3,0.9-3,1.3-5,1.3c-1.5,0-2.8-0.5-3.8-1.4s-1.5-2.1-1.5-3.6c0-5,2.8-7.6,8.4-7.6
		h4.7L662.8,270.9L662.8,270.9z"/>
	<path class="st1" d="M705.3,272.9c-0.7-0.8-1.1-2.1-1.1-4.1v-23.7h8.5v-11.2h-8.5V221h-16.1v12.9h-6.6v11.2h6.6v25.7
		c0,5.3,1.3,9.3,4,11.9c2.6,2.6,6.7,3.9,12.3,3.9c3.2,0,6.2-0.5,9.1-1.4v-11.5c-1.1,0.2-2.4,0.3-4,0.3
		C707.4,274,706,273.6,705.3,272.9z"/>
	<rect x="717.4" y="233.9" class="st1" width="16.2" height="51.8"/>
	<path class="st1" d="M732,214.8c-1.7-1.5-3.8-2.2-6.5-2.2c-2.6,0-4.8,0.7-6.5,2.2s-2.5,3.4-2.5,5.7s0.8,4.2,2.5,5.7
		s3.8,2.2,6.5,2.2s4.8-0.7,6.5-2.2s2.5-3.4,2.5-5.7S733.7,216.3,732,214.8z"/>
	<polygon class="st1" points="761.7,266.5 753.7,233.9 736.7,233.9 753.5,285.7 770,285.7 786.9,233.9 769.9,233.9 	"/>
	<path class="st1" d="M811.9,232.9c-5.2,0-9.6,1.1-13.4,3.3s-6.6,5.4-8.6,9.4c-2,4.1-2.9,8.7-2.9,14v1.3c0,7.6,2.5,13.8,7.4,18.5
		c4.9,4.9,11.3,7.2,19.3,7.2c4.2,0,8.2-0.8,11.9-2.5s6.5-3.9,8.5-6.6l-7.4-8.7c-2.9,3.6-6.9,5.4-12,5.4c-3.1,0-5.6-0.8-7.6-2.5
		c-1.9-1.7-3.2-3.9-3.8-6.8h32.1v-6.3c0-8.1-2.1-14.4-6.3-18.9S819.1,232.9,811.9,232.9z M819.8,254.7h-16.3
		c0.8-6.2,3.6-9.3,8.4-9.3c2.6,0,4.5,0.7,5.9,2.1c1.4,1.4,2,3.4,2,6L819.8,254.7L819.8,254.7z"/>
	<path class="st1" d="M870.4,256.2c-2.3-0.8-5-1.5-8.1-2.1s-5.3-1.3-6.7-2.2s-2.1-2.1-2.1-3.5s0.6-2.6,1.7-3.5
		c1.1-0.9,2.6-1.4,4.3-1.4c4.4,0,6.6,2.1,6.6,6.2h16.2c0-5-2.1-9.1-6.2-12.2c-4.1-3.1-9.6-4.6-16.5-4.6c-6.3,0-11.5,1.5-15.4,4.6
		s-5.9,7-5.9,11.7c0,2.7,0.7,5.1,2.1,7.1c1.4,2.1,3.4,3.8,6,5.3s5.9,2.6,10,3.5c4,0.9,6.7,1.8,8.2,2.6c1.4,0.8,2.2,1.9,2.2,3.3
		c-0.2,1.6-0.7,2.7-1.8,3.6s-2.8,1.3-5,1.3c-2.4,0-4.4-0.5-5.9-1.7c-1.5-1.1-2.3-2.8-2.4-5.2h-15.1c0,3,1,5.9,2.9,8.7
		c1.9,2.7,4.7,4.9,8.1,6.5c3.5,1.6,7.4,2.4,11.9,2.4c6.7,0,12.1-1.5,16.3-4.5s6.3-6.8,6.3-11.5C882.1,263.7,878.2,258.9,870.4,256.2
		z"/>
</g>
<g>
	<path class="st1" d="M201.5,345l0.7,3.3l0.8-3.2l4.6-15.7h1.6l4.6,15.7l0.8,3.2l0.7-3.3l3.9-15.6h1.8l-5.5,21.3h-1.7L209,334
		l-0.5-2.1L208,334l-5,16.7h-1.7l-5.4-21.3h1.8L201.5,345z"/>
	<path class="st1" d="M225.1,337.5c0.6-0.9,1.3-1.7,2.2-2.2s1.9-0.8,2.9-0.8c1.7,0,3,0.5,3.8,1.4c0.8,1,1.2,2.4,1.3,4.3v10.4h-1.7
		v-10.4c0-1.4-0.3-2.5-0.9-3.2s-1.5-1-2.8-1c-1.1,0-2,0.3-2.9,1s-1.5,1.6-1.9,2.7v10.9h-1.7v-22.5h1.7L225.1,337.5L225.1,337.5z"/>
	<path class="st1" d="M238.9,330.3c0-0.3,0.1-0.6,0.3-0.8s0.5-0.3,0.9-0.3s0.7,0.1,0.9,0.3s0.3,0.5,0.3,0.8s-0.1,0.6-0.3,0.8
		c-0.2,0.2-0.5,0.3-0.9,0.3s-0.7-0.1-0.9-0.3S238.9,330.6,238.9,330.3z M241,350.7h-1.8v-15.9h1.8V350.7z"/>
	<path class="st1" d="M247,350.7h-1.8v-22.5h1.8V350.7z"/>
	<path class="st1" d="M257.1,351c-1.3,0-2.6-0.3-3.7-1s-1.9-1.6-2.5-2.8s-0.9-2.5-0.9-4v-0.6c0-1.5,0.3-2.9,0.9-4.1s1.4-2.2,2.5-2.9
		s2.2-1,3.4-1c1.9,0,3.4,0.7,4.6,2s1.7,3.1,1.7,5.4v1h-11.3v0.3c0,1.8,0.5,3.3,1.5,4.5s2.3,1.8,3.9,1.8c0.9,0,1.8-0.2,2.5-0.5
		s1.4-0.9,2-1.6l1.1,0.8C261.4,350.1,259.6,351,257.1,351z M256.8,336.1c-1.3,0-2.4,0.5-3.3,1.5s-1.5,2.3-1.6,3.9h9.5v-0.2
		c0-1.5-0.5-2.8-1.3-3.7S258.1,336.1,256.8,336.1z"/>
	<path class="st1" d="M281.8,346.7c0-0.9-0.3-1.6-1-2.1s-1.8-0.9-3.2-1.2s-2.5-0.6-3.3-1s-1.4-0.9-1.7-1.4s-0.6-1.2-0.6-2
		c0-1.2,0.5-2.3,1.6-3.1s2.4-1.2,4-1.2c1.8,0,3.2,0.4,4.3,1.3s1.6,2,1.6,3.4h-1.8c0-0.9-0.4-1.7-1.2-2.3s-1.8-0.9-2.9-0.9
		c-1.2,0-2.1,0.3-2.8,0.8s-1,1.2-1,2s0.3,1.4,0.9,1.8s1.6,0.8,3.2,1.2s2.7,0.7,3.5,1.2s1.3,0.9,1.7,1.5s0.6,1.3,0.6,2.1
		c0,1.3-0.5,2.4-1.6,3.2s-2.5,1.2-4.2,1.2c-1.8,0-3.3-0.4-4.5-1.3s-1.7-2-1.7-3.4h1.8c0.1,1,0.5,1.8,1.3,2.4s1.8,0.9,3.2,0.9
		c1.2,0,2.2-0.3,3-0.8S281.8,347.5,281.8,346.7z"/>
	<path class="st1" d="M285.8,342.5c0-1.5,0.3-2.9,0.9-4.1s1.4-2.2,2.5-2.8s2.3-1,3.7-1c2.1,0,3.8,0.7,5.1,2.2s2,3.4,2,5.9v0.4
		c0,1.5-0.3,2.9-0.9,4.1s-1.4,2.2-2.5,2.8s-2.3,1-3.7,1c-2.1,0-3.8-0.7-5.1-2.2s-2-3.4-2-5.9V342.5z M287.5,343
		c0,1.9,0.5,3.4,1.5,4.7s2.3,1.8,3.9,1.8s2.9-0.6,3.8-1.8s1.5-2.8,1.5-4.8v-0.3c0-1.2-0.2-2.3-0.7-3.3s-1.1-1.8-1.9-2.3
		s-1.7-0.8-2.8-0.8c-1.6,0-2.8,0.6-3.8,1.8s-1.5,2.8-1.5,4.8V343z"/>
	<path class="st1" d="M304.4,334.9l0.1,2.6c0.6-1,1.3-1.7,2.2-2.2s1.9-0.7,2.9-0.7c2.5,0,4.1,1,4.8,3.1c0.6-1,1.3-1.7,2.3-2.3
		s2-0.8,3.1-0.8c3.4,0,5.1,1.9,5.2,5.6v10.6h-1.8v-10.4c0-1.4-0.3-2.5-0.9-3.1s-1.6-1-2.9-1s-2.3,0.4-3.2,1.2s-1.4,1.8-1.5,2.9v10.5
		h-1.8v-10.8c0-1.4-0.3-2.4-1-3s-1.6-1-2.9-1c-1.1,0-2.1,0.3-2.8,0.9s-1.4,1.6-1.8,2.8v10.9h-1.8v-15.9h1.8L304.4,334.9L304.4,334.9
		z"/>
	<path class="st1" d="M334.8,351c-1.3,0-2.6-0.3-3.7-1s-1.9-1.6-2.5-2.8s-0.9-2.5-0.9-4v-0.6c0-1.5,0.3-2.9,0.9-4.1s1.4-2.2,2.5-2.9
		s2.2-1,3.4-1c1.9,0,3.4,0.7,4.6,2s1.7,3.1,1.7,5.4v1h-11.3v0.3c0,1.8,0.5,3.3,1.5,4.5s2.3,1.8,3.9,1.8c0.9,0,1.8-0.2,2.5-0.5
		s1.4-0.9,2-1.6l1.1,0.8C339.1,350.1,337.2,351,334.8,351z M334.4,336.1c-1.3,0-2.4,0.5-3.3,1.5s-1.5,2.3-1.6,3.9h9.5v-0.2
		c0-1.5-0.5-2.8-1.3-3.7S335.8,336.1,334.4,336.1z"/>
	<path class="st1" d="M359.4,346.7c0-0.9-0.3-1.6-1-2.1s-1.8-0.9-3.2-1.2s-2.5-0.6-3.3-1s-1.4-0.9-1.7-1.4s-0.6-1.2-0.6-2
		c0-1.2,0.5-2.3,1.6-3.1s2.4-1.2,4-1.2c1.8,0,3.2,0.4,4.3,1.3s1.6,2,1.6,3.4h-1.8c0-0.9-0.4-1.7-1.2-2.3s-1.8-0.9-2.9-0.9
		c-1.2,0-2.1,0.3-2.8,0.8s-1,1.2-1,2s0.3,1.4,0.9,1.8s1.6,0.8,3.2,1.2s2.7,0.7,3.5,1.2s1.3,0.9,1.7,1.5s0.6,1.3,0.6,2.1
		c0,1.3-0.5,2.4-1.6,3.2s-2.5,1.2-4.2,1.2c-1.8,0-3.3-0.4-4.5-1.3s-1.7-2-1.7-3.4h1.8c0.1,1,0.5,1.8,1.3,2.4s1.8,0.9,3.2,0.9
		c1.2,0,2.2-0.3,3-0.8S359.4,347.5,359.4,346.7z"/>
	<path class="st1" d="M370.2,349.5c1.2,0,2.2-0.3,3.1-1s1.3-1.6,1.3-2.7h1.7c0,1-0.4,1.8-0.9,2.6s-1.3,1.4-2.2,1.9s-1.9,0.7-3,0.7
		c-2.1,0-3.7-0.7-4.9-2.2s-1.8-3.4-1.8-5.8v-0.5c0-1.6,0.3-2.9,0.8-4.1s1.3-2.1,2.4-2.8c1-0.7,2.2-1,3.6-1c1.7,0,3.2,0.5,4.3,1.6
		c1.1,1,1.7,2.4,1.8,4.1h-1.7c-0.1-1.2-0.5-2.2-1.3-3s-1.8-1.1-3.1-1.1c-1.6,0-2.8,0.6-3.7,1.7s-1.3,2.7-1.3,4.8v0.5
		c0,2,0.4,3.6,1.3,4.7S368.6,349.5,370.2,349.5z"/>
	<path class="st1" d="M380.8,337.5c0.6-0.9,1.3-1.7,2.2-2.2s1.9-0.8,2.9-0.8c1.7,0,3,0.5,3.8,1.4c0.8,1,1.2,2.4,1.3,4.3v10.4h-1.7
		v-10.4c0-1.4-0.3-2.5-0.9-3.2s-1.5-1-2.8-1c-1.1,0-2,0.3-2.9,1s-1.5,1.6-1.9,2.7v10.9H379v-22.5h1.7L380.8,337.5L380.8,337.5z"/>
	<path class="st1" d="M393.8,342.5c0-1.5,0.3-2.9,0.9-4.1s1.4-2.2,2.5-2.8s2.3-1,3.7-1c2.1,0,3.8,0.7,5.1,2.2s2,3.4,2,5.9v0.4
		c0,1.5-0.3,2.9-0.9,4.1s-1.4,2.2-2.5,2.8s-2.3,1-3.7,1c-2.1,0-3.8-0.7-5.1-2.2s-2-3.4-2-5.9V342.5z M395.6,343
		c0,1.9,0.5,3.4,1.5,4.7s2.3,1.8,3.9,1.8s2.9-0.6,3.8-1.8s1.5-2.8,1.5-4.8v-0.3c0-1.2-0.2-2.3-0.7-3.3s-1.1-1.8-1.9-2.3
		s-1.7-0.8-2.8-0.8c-1.6,0-2.8,0.6-3.8,1.8s-1.5,2.8-1.5,4.8V343z"/>
	<path class="st1" d="M409.8,342.5c0-1.5,0.3-2.9,0.9-4.1s1.4-2.2,2.5-2.8s2.3-1,3.7-1c2.1,0,3.8,0.7,5.1,2.2s2,3.4,2,5.9v0.4
		c0,1.5-0.3,2.9-0.9,4.1s-1.4,2.2-2.5,2.8s-2.3,1-3.7,1c-2.1,0-3.8-0.7-5.1-2.2s-2-3.4-2-5.9V342.5z M411.6,343
		c0,1.9,0.5,3.4,1.5,4.7s2.3,1.8,3.9,1.8s2.9-0.6,3.8-1.8s1.5-2.8,1.5-4.8v-0.3c0-1.2-0.2-2.3-0.7-3.3s-1.1-1.8-1.9-2.3
		s-1.7-0.8-2.8-0.8c-1.6,0-2.8,0.6-3.8,1.8s-1.5,2.8-1.5,4.8V343z"/>
	<path class="st1" d="M428.8,350.7H427v-22.5h1.8V350.7z"/>
	<path class="st1" d="M442.3,346.7c0-0.9-0.3-1.6-1-2.1s-1.8-0.9-3.2-1.2s-2.5-0.6-3.3-1s-1.4-0.9-1.7-1.4s-0.6-1.2-0.6-2
		c0-1.2,0.5-2.3,1.6-3.1s2.4-1.2,4-1.2c1.8,0,3.2,0.4,4.3,1.3s1.6,2,1.6,3.4h-1.8c0-0.9-0.4-1.7-1.2-2.3s-1.8-0.9-2.9-0.9
		c-1.2,0-2.1,0.3-2.8,0.8s-1,1.2-1,2s0.3,1.4,0.9,1.8s1.6,0.8,3.2,1.2s2.7,0.7,3.5,1.2s1.3,0.9,1.7,1.5s0.6,1.3,0.6,2.1
		c0,1.3-0.5,2.4-1.6,3.2s-2.5,1.2-4.2,1.2c-1.8,0-3.3-0.4-4.5-1.3s-1.7-2-1.7-3.4h1.8c0.1,1,0.5,1.8,1.3,2.4s1.8,0.9,3.2,0.9
		c1.2,0,2.2-0.3,3-0.8S442.3,347.5,442.3,346.7z"/>
	<path class="st1" d="M463.8,350.7c-0.2-0.5-0.3-1.2-0.3-2.2c-0.6,0.8-1.4,1.4-2.4,1.9s-2,0.7-3,0.7c-1.5,0-2.8-0.4-3.7-1.3
		s-1.4-1.9-1.4-3.2c0-1.5,0.6-2.8,1.9-3.7s3.1-1.3,5.4-1.3h3.2v-1.8c0-1.1-0.3-2-1-2.7s-1.7-1-3.1-1c-1.2,0-2.2,0.3-3,0.9
		s-1.2,1.4-1.2,2.3h-1.8c0-1.3,0.6-2.4,1.8-3.3s2.6-1.4,4.3-1.4c1.8,0,3.2,0.4,4.2,1.3s1.5,2.1,1.6,3.7v7.5c0,1.5,0.2,2.7,0.5,3.4
		v0.2H463.8z M458.3,349.4c1.2,0,2.2-0.3,3.1-0.8s1.6-1.3,2-2.3v-3.5h-3.1c-1.7,0-3.1,0.3-4.1,1s-1.5,1.5-1.5,2.6
		c0,0.9,0.3,1.6,1,2.2S457.3,349.4,458.3,349.4z"/>
	<path class="st1" d="M471.1,350.7h-1.8v-22.5h1.8V350.7z"/>
	<path class="st1" d="M482.4,336.4c-0.4-0.1-0.8-0.1-1.2-0.1c-1.1,0-2,0.3-2.8,0.9s-1.3,1.5-1.6,2.7v10.9h-1.7v-15.9h1.7v2.5
		c0.9-1.9,2.4-2.8,4.5-2.8c0.5,0,0.9,0.1,1.2,0.2L482.4,336.4z"/>
	<path class="st1" d="M490.3,351c-1.3,0-2.6-0.3-3.7-1s-1.9-1.6-2.5-2.8s-0.9-2.5-0.9-4v-0.6c0-1.5,0.3-2.9,0.9-4.1s1.4-2.2,2.5-2.9
		s2.2-1,3.4-1c1.9,0,3.4,0.7,4.6,2s1.7,3.1,1.7,5.4v1H485v0.3c0,1.8,0.5,3.3,1.5,4.5s2.3,1.8,3.9,1.8c0.9,0,1.8-0.2,2.5-0.5
		s1.4-0.9,2-1.6l1.1,0.8C494.6,350.1,492.8,351,490.3,351z M490,336.1c-1.3,0-2.4,0.5-3.3,1.5s-1.5,2.3-1.6,3.9h9.5v-0.2
		c0-1.5-0.5-2.8-1.3-3.7S491.3,336.1,490,336.1z"/>
	<path class="st1" d="M508.9,350.7c-0.2-0.5-0.3-1.2-0.3-2.2c-0.6,0.8-1.4,1.4-2.4,1.9s-2,0.7-3,0.7c-1.5,0-2.8-0.4-3.7-1.3
		s-1.4-1.9-1.4-3.2c0-1.5,0.6-2.8,1.9-3.7s3.1-1.3,5.4-1.3h3.2v-1.8c0-1.1-0.3-2-1-2.7s-1.7-1-3.1-1c-1.2,0-2.2,0.3-3,0.9
		s-1.2,1.4-1.2,2.3h-1.8c0-1.3,0.6-2.4,1.8-3.3s2.6-1.4,4.3-1.4c1.8,0,3.2,0.4,4.2,1.3s1.5,2.1,1.6,3.7v7.5c0,1.5,0.2,2.7,0.5,3.4
		v0.2H508.9z M503.4,349.4c1.2,0,2.2-0.3,3.1-0.8s1.6-1.3,2-2.3v-3.5h-3.1c-1.7,0-3.1,0.3-4.1,1s-1.5,1.5-1.5,2.6
		c0,0.9,0.3,1.6,1,2.2S502.4,349.4,503.4,349.4z"/>
	<path class="st1" d="M513.5,342.6c0-2.5,0.5-4.4,1.6-5.9s2.6-2.2,4.5-2.2c2.1,0,3.8,0.8,4.9,2.5v-8.9h1.7v22.5h-1.6l-0.1-2.1
		c-1.1,1.6-2.8,2.4-5,2.4c-1.8,0-3.3-0.7-4.4-2.2S513.4,345.2,513.5,342.6L513.5,342.6L513.5,342.6z M515.3,342.9
		c0,2,0.4,3.6,1.2,4.8s2,1.8,3.4,1.8c2.2,0,3.7-1,4.6-2.9v-7.4c-0.9-2.1-2.4-3.1-4.6-3.1c-1.5,0-2.6,0.6-3.4,1.7
		S515.3,340.7,515.3,342.9z"/>
	<path class="st1" d="M535.2,348.2l4.6-13.3h1.9l-6.8,18.5l-0.4,0.8c-0.9,1.9-2.2,2.9-4,2.9c-0.4,0-0.9-0.1-1.3-0.2v-1.5l0.9,0.1
		c0.9,0,1.6-0.2,2.1-0.6s1-1.2,1.4-2.2l0.8-2.1l-6-15.7h1.9L535.2,348.2z"/>
	<path class="st1" d="M552,337.5c0.6-0.9,1.3-1.7,2.2-2.2s1.9-0.8,2.9-0.8c1.7,0,3,0.5,3.8,1.4c0.8,1,1.2,2.4,1.3,4.3v10.4h-1.7
		v-10.4c0-1.4-0.3-2.5-0.9-3.2s-1.5-1-2.8-1c-1.1,0-2,0.3-2.9,1s-1.5,1.6-1.9,2.7v10.9h-1.7v-22.5h1.7L552,337.5L552,337.5z"/>
	<path class="st1" d="M575.9,350.7c-0.2-0.5-0.3-1.2-0.3-2.2c-0.6,0.8-1.4,1.4-2.4,1.9s-2,0.7-3,0.7c-1.5,0-2.8-0.4-3.7-1.3
		s-1.4-1.9-1.4-3.2c0-1.5,0.6-2.8,1.9-3.7s3.1-1.3,5.4-1.3h3.2v-1.8c0-1.1-0.3-2-1-2.7s-1.7-1-3.1-1c-1.2,0-2.2,0.3-3,0.9
		s-1.2,1.4-1.2,2.3h-1.8c0-1.3,0.6-2.4,1.8-3.3s2.6-1.4,4.3-1.4c1.8,0,3.2,0.4,4.2,1.3s1.5,2.1,1.6,3.7v7.5c0,1.5,0.2,2.7,0.5,3.4
		v0.2H575.9z M570.4,349.4c1.2,0,2.2-0.3,3.1-0.8s1.6-1.3,2-2.3v-3.5h-3.1c-1.7,0-3.1,0.3-4.1,1s-1.5,1.5-1.5,2.6
		c0,0.9,0.3,1.6,1,2.2S569.4,349.4,570.4,349.4z"/>
	<path class="st1" d="M586,348.3l4.8-13.4h1.8l-5.9,15.9h-1.4l-5.9-15.9h1.8L586,348.3z"/>
	<path class="st1" d="M600.7,351c-1.3,0-2.6-0.3-3.7-1s-1.9-1.6-2.5-2.8s-0.9-2.5-0.9-4v-0.6c0-1.5,0.3-2.9,0.9-4.1s1.4-2.2,2.5-2.9
		s2.2-1,3.4-1c1.9,0,3.4,0.7,4.6,2s1.7,3.1,1.7,5.4v1h-11.3v0.3c0,1.8,0.5,3.3,1.5,4.5s2.3,1.8,3.9,1.8c0.9,0,1.8-0.2,2.5-0.5
		s1.4-0.9,2-1.6l1.1,0.8C605,350.1,603.1,351,600.7,351z M600.3,336.1c-1.3,0-2.4,0.5-3.3,1.5s-1.5,2.3-1.6,3.9h9.5v-0.2
		c0-1.5-0.5-2.8-1.3-3.7S601.7,336.1,600.3,336.1z"/>
	<path class="st1" d="M621.7,349.5c1.2,0,2.2-0.3,3.1-1s1.3-1.6,1.3-2.7h1.7c0,1-0.4,1.8-0.9,2.6s-1.3,1.4-2.2,1.9s-1.9,0.7-3,0.7
		c-2.1,0-3.7-0.7-4.9-2.2s-1.8-3.4-1.8-5.8v-0.5c0-1.6,0.3-2.9,0.8-4.1s1.3-2.1,2.4-2.8c1-0.7,2.2-1,3.6-1c1.7,0,3.2,0.5,4.3,1.6
		c1.1,1,1.7,2.4,1.8,4.1h-1.7c-0.1-1.2-0.5-2.2-1.3-3s-1.8-1.1-3.1-1.1c-1.6,0-2.8,0.6-3.7,1.7s-1.3,2.7-1.3,4.8v0.5
		c0,2,0.4,3.6,1.3,4.7S620.1,349.5,621.7,349.5z"/>
	<path class="st1" d="M632.5,350.7h-1.8v-22.5h1.8V350.7z"/>
	<path class="st1" d="M642.6,351c-1.3,0-2.6-0.3-3.7-1s-1.9-1.6-2.5-2.8s-0.9-2.5-0.9-4v-0.6c0-1.5,0.3-2.9,0.9-4.1s1.4-2.2,2.5-2.9
		s2.2-1,3.4-1c1.9,0,3.4,0.7,4.6,2s1.7,3.1,1.7,5.4v1h-11.3v0.3c0,1.8,0.5,3.3,1.5,4.5s2.3,1.8,3.9,1.8c0.9,0,1.8-0.2,2.5-0.5
		s1.4-0.9,2-1.6l1.1,0.8C647,350.1,645.1,351,642.6,351z M642.3,336.1c-1.3,0-2.4,0.5-3.3,1.5s-1.5,2.3-1.6,3.9h9.5v-0.2
		c0-1.5-0.5-2.8-1.3-3.7S643.6,336.1,642.3,336.1z"/>
	<path class="st1" d="M661.2,350.7c-0.2-0.5-0.3-1.2-0.3-2.2c-0.6,0.8-1.4,1.4-2.4,1.9s-2,0.7-3,0.7c-1.5,0-2.8-0.4-3.7-1.3
		s-1.4-1.9-1.4-3.2c0-1.5,0.6-2.8,1.9-3.7s3.1-1.3,5.4-1.3h3.2v-1.8c0-1.1-0.3-2-1-2.7s-1.7-1-3.1-1c-1.2,0-2.2,0.3-3,0.9
		s-1.2,1.4-1.2,2.3h-1.8c0-1.3,0.6-2.4,1.8-3.3s2.6-1.4,4.3-1.4c1.8,0,3.2,0.4,4.2,1.3s1.5,2.1,1.6,3.7v7.5c0,1.5,0.2,2.7,0.5,3.4
		v0.2H661.2z M655.7,349.4c1.2,0,2.2-0.3,3.1-0.8s1.6-1.3,2-2.3v-3.5h-3.1c-1.7,0-3.1,0.3-4.1,1s-1.5,1.5-1.5,2.6
		c0,0.9,0.3,1.6,1,2.2S654.7,349.4,655.7,349.4z"/>
	<path class="st1" d="M673.9,336.4c-0.4-0.1-0.8-0.1-1.2-0.1c-1.1,0-2,0.3-2.8,0.9s-1.3,1.5-1.6,2.7v10.9h-1.7v-15.9h1.7v2.5
		c0.9-1.9,2.4-2.8,4.5-2.8c0.5,0,0.9,0.1,1.2,0.2L673.9,336.4z"/>
	<path class="st1" d="M681.7,342.6c0-2.5,0.5-4.4,1.6-5.9s2.6-2.2,4.5-2.2c2.2,0,3.8,0.9,4.9,2.6l0.1-2.3h1.6v15.5
		c0,2-0.6,3.7-1.7,4.8s-2.7,1.8-4.6,1.8c-1.1,0-2.2-0.2-3.2-0.7s-1.8-1.1-2.4-2l1-1.1c1.2,1.5,2.7,2.3,4.4,2.3
		c1.5,0,2.6-0.4,3.4-1.3s1.2-2.1,1.3-3.6v-2c-1.1,1.6-2.8,2.3-4.9,2.3c-1.8,0-3.3-0.7-4.4-2.2s-1.7-3.4-1.7-5.9v-0.1L681.7,342.6
		L681.7,342.6z M683.5,342.9c0,2,0.4,3.6,1.2,4.8s2,1.8,3.4,1.8c2.2,0,3.7-1,4.6-2.9v-7.4c-0.4-1-1-1.8-1.8-2.3s-1.7-0.8-2.8-0.8
		c-1.5,0-2.6,0.6-3.4,1.7S683.5,340.7,683.5,342.9z"/>
	<path class="st1" d="M697.4,342.5c0-1.5,0.3-2.9,0.9-4.1s1.4-2.2,2.5-2.8s2.3-1,3.7-1c2.1,0,3.8,0.7,5.1,2.2s2,3.4,2,5.9v0.4
		c0,1.5-0.3,2.9-0.9,4.1s-1.4,2.2-2.5,2.8s-2.3,1-3.7,1c-2.1,0-3.8-0.7-5.1-2.2s-2-3.4-2-5.9V342.5z M699.1,343
		c0,1.9,0.5,3.4,1.5,4.7s2.3,1.8,3.9,1.8c1.6,0,2.9-0.6,3.8-1.8s1.5-2.8,1.5-4.8v-0.3c0-1.2-0.2-2.3-0.7-3.3s-1.1-1.8-1.9-2.3
		s-1.7-0.8-2.8-0.8c-1.6,0-2.8,0.6-3.8,1.8s-1.5,2.8-1.5,4.8V343z"/>
	<path class="st1" d="M724.4,350.7c-0.2-0.5-0.3-1.2-0.3-2.2c-0.6,0.8-1.4,1.4-2.4,1.9s-2,0.7-3,0.7c-1.5,0-2.8-0.4-3.7-1.3
		s-1.4-1.9-1.4-3.2c0-1.5,0.6-2.8,1.9-3.7s3.1-1.3,5.4-1.3h3.2v-1.8c0-1.1-0.3-2-1-2.7s-1.7-1-3.1-1c-1.2,0-2.2,0.3-3,0.9
		s-1.2,1.4-1.2,2.3H714c0-1.3,0.6-2.4,1.8-3.3s2.6-1.4,4.3-1.4c1.8,0,3.2,0.4,4.2,1.3s1.5,2.1,1.6,3.7v7.5c0,1.5,0.2,2.7,0.5,3.4
		v0.2H724.4z M718.9,349.4c1.2,0,2.2-0.3,3.1-0.8s1.6-1.3,2-2.3v-3.5h-3.1c-1.7,0-3.1,0.3-4.1,1s-1.5,1.5-1.5,2.6
		c0,0.9,0.3,1.6,1,2.2S717.8,349.4,718.9,349.4z"/>
	<path class="st1" d="M731.7,350.7h-1.8v-22.5h1.8V350.7z"/>
	<path class="st1" d="M745.2,346.7c0-0.9-0.3-1.6-1-2.1s-1.8-0.9-3.2-1.2s-2.5-0.6-3.3-1s-1.4-0.9-1.7-1.4s-0.6-1.2-0.6-2
		c0-1.2,0.5-2.3,1.6-3.1s2.4-1.2,4-1.2c1.8,0,3.2,0.4,4.3,1.3s1.6,2,1.6,3.4h-1.8c0-0.9-0.4-1.7-1.2-2.3s-1.8-0.9-2.9-0.9
		c-1.2,0-2.1,0.3-2.8,0.8s-1,1.2-1,2s0.3,1.4,0.9,1.8s1.6,0.8,3.2,1.2s2.7,0.7,3.5,1.2s1.3,0.9,1.7,1.5s0.6,1.3,0.6,2.1
		c0,1.3-0.5,2.4-1.6,3.2s-2.5,1.2-4.2,1.2c-1.8,0-3.3-0.4-4.5-1.3s-1.7-2-1.7-3.4h1.8c0.1,1,0.5,1.8,1.3,2.4s1.8,0.9,3.2,0.9
		c1.2,0,2.2-0.3,3-0.8S745.2,347.5,745.2,346.7z"/>
	<path class="st1" d="M757.9,350.7v-14.4h-2.6v-1.4h2.6V333c0-1.6,0.4-2.9,1.2-3.7s2-1.3,3.4-1.3c0.7,0,1.3,0.1,1.9,0.2l-0.1,1.5
		c-0.5-0.1-1-0.2-1.6-0.2c-1,0-1.7,0.3-2.3,0.9s-0.8,1.5-0.8,2.6v2h3.8v1.4h-3.8v14.4h-1.7L757.9,350.7L757.9,350.7z"/>
	<path class="st1" d="M764.9,342.5c0-1.5,0.3-2.9,0.9-4.1s1.4-2.2,2.5-2.8s2.3-1,3.7-1c2.1,0,3.8,0.7,5.1,2.2s2,3.4,2,5.9v0.4
		c0,1.5-0.3,2.9-0.9,4.1s-1.4,2.2-2.5,2.8s-2.3,1-3.7,1c-2.1,0-3.8-0.7-5.1-2.2s-2-3.4-2-5.9V342.5z M766.6,343
		c0,1.9,0.5,3.4,1.5,4.7s2.3,1.8,3.9,1.8c1.6,0,2.9-0.6,3.8-1.8s1.5-2.8,1.5-4.8v-0.3c0-1.2-0.2-2.3-0.7-3.3s-1.1-1.8-1.9-2.3
		s-1.7-0.8-2.8-0.8c-1.6,0-2.8,0.6-3.8,1.8s-1.5,2.8-1.5,4.8V343z"/>
	<path class="st1" d="M789.2,336.4c-0.4-0.1-0.8-0.1-1.2-0.1c-1.1,0-2,0.3-2.8,0.9s-1.3,1.5-1.6,2.7v10.9h-1.7v-15.9h1.7v2.5
		c0.9-1.9,2.4-2.8,4.5-2.8c0.5,0,0.9,0.1,1.2,0.2L789.2,336.4z"/>
	<path class="st1" d="M800.5,330.8v4.1h3.3v1.4h-3.3v10.6c0,0.9,0.2,1.5,0.5,2c0.3,0.4,0.8,0.6,1.6,0.6c0.3,0,0.8,0,1.4-0.1l0.1,1.4
		c-0.5,0.2-1.1,0.2-1.9,0.2c-1.2,0-2.1-0.3-2.6-1s-0.8-1.7-0.8-3.1v-10.6h-2.9v-1.4h2.9v-4.1H800.5z"/>
	<path class="st1" d="M808.4,337.5c0.6-0.9,1.3-1.7,2.2-2.2s1.9-0.8,2.9-0.8c1.7,0,3,0.5,3.8,1.4c0.8,1,1.2,2.4,1.3,4.3v10.4h-1.7
		v-10.4c0-1.4-0.3-2.5-0.9-3.2s-1.5-1-2.8-1c-1.1,0-2,0.3-2.9,1s-1.5,1.6-1.9,2.7v10.9h-1.7v-22.5h1.7L808.4,337.5L808.4,337.5z"/>
	<path class="st1" d="M828.5,351c-1.3,0-2.6-0.3-3.7-1s-1.9-1.6-2.5-2.8s-0.9-2.5-0.9-4v-0.6c0-1.5,0.3-2.9,0.9-4.1s1.4-2.2,2.5-2.9
		s2.2-1,3.4-1c1.9,0,3.5,0.7,4.6,2s1.7,3.1,1.7,5.4v1h-11.3v0.3c0,1.8,0.5,3.3,1.5,4.5s2.3,1.8,3.9,1.8c0.9,0,1.8-0.2,2.5-0.5
		s1.4-0.9,2-1.6l1.1,0.8C832.9,350.1,831,351,828.5,351z M828.2,336.1c-1.3,0-2.4,0.5-3.3,1.5s-1.5,2.3-1.6,3.9h9.5v-0.2
		c0-1.5-0.5-2.8-1.3-3.7S829.5,336.1,828.2,336.1z"/>
	<path class="st1" d="M837,330.3c0-0.3,0.1-0.6,0.3-0.8s0.5-0.3,0.9-0.3s0.7,0.1,0.9,0.3c0.2,0.2,0.3,0.5,0.3,0.8s-0.1,0.6-0.3,0.8
		c-0.2,0.2-0.5,0.3-0.9,0.3s-0.7-0.1-0.9-0.3S837,330.6,837,330.3z M839.1,350.7h-1.8v-15.9h1.8V350.7z"/>
	<path class="st1" d="M850.4,336.4c-0.4-0.1-0.8-0.1-1.2-0.1c-1.1,0-2,0.3-2.8,0.9s-1.3,1.5-1.6,2.7v10.9h-1.7v-15.9h1.7v2.5
		c0.9-1.9,2.4-2.8,4.5-2.8c0.5,0,0.9,0.1,1.2,0.2L850.4,336.4z"/>
	<path class="st1" d="M871.5,345.5c0-1.2-0.4-2.1-1.2-2.8s-2.3-1.3-4.6-2s-3.8-1.3-4.8-2c-1.4-1-2.2-2.4-2.2-4.1c0-1.6,0.7-3,2-4
		s3.1-1.5,5.1-1.5c1.4,0,2.7,0.3,3.8,0.8s2,1.3,2.6,2.3s0.9,2.1,0.9,3.3h-1.8c0-1.5-0.5-2.6-1.5-3.5s-2.3-1.3-4-1.3
		c-1.6,0-2.9,0.4-3.9,1.1s-1.5,1.7-1.5,2.9c0,1.1,0.4,2,1.3,2.7s2.3,1.3,4.2,1.8s3.4,1.1,4.4,1.6s1.7,1.2,2.2,2s0.7,1.7,0.7,2.8
		c0,1.7-0.7,3-2,4s-3.1,1.5-5.3,1.5c-1.5,0-2.9-0.3-4.1-0.8s-2.2-1.3-2.9-2.3s-1-2.1-1-3.3h1.8c0,1.5,0.6,2.7,1.7,3.6
		s2.6,1.3,4.5,1.3c1.7,0,3-0.4,4-1.1S871.5,346.7,871.5,345.5z"/>
	<path class="st1" d="M890.9,330.9h-7.3v19.8h-1.8v-19.8h-7.3v-1.5h16.4L890.9,330.9L890.9,330.9z"/>
	<path class="st1" d="M905.4,340.5h-10v8.7h11.5v1.5h-13.3v-21.3h13.2v1.5h-11.4v8.1h10V340.5z"/>
	<path class="st1" d="M912.3,329.4l7.9,18.8l7.9-18.8h2.4v21.3h-1.8v-9.3l0.1-9.5l-7.9,18.8h-1.4l-7.9-18.7l0.1,9.4v9.3h-1.8v-21.3
		H912.3L912.3,329.4z"/>
	<path class="st1" d="M209.9,378.9c0,2.5-0.5,4.4-1.6,5.9s-2.6,2.2-4.4,2.2c-2.2,0-3.8-0.8-5-2.3v8.1h-1.7v-21.9h1.6l0.1,2.2
		c1.1-1.7,2.8-2.5,5-2.5c1.9,0,3.4,0.7,4.5,2.2s1.6,3.4,1.6,6v0.1L209.9,378.9L209.9,378.9z M208.2,378.6c0-2-0.4-3.6-1.2-4.8
		s-2-1.8-3.5-1.8c-1.1,0-2,0.3-2.8,0.8s-1.4,1.3-1.8,2.3v7.6c0.4,0.9,1,1.6,1.8,2.1s1.7,0.7,2.8,0.7c1.5,0,2.6-0.6,3.4-1.8
		S208.2,380.9,208.2,378.6z"/>
	<path class="st1" d="M220.4,372.4c-0.4-0.1-0.8-0.1-1.2-0.1c-1.1,0-2,0.3-2.8,0.9s-1.3,1.5-1.6,2.7v10.9h-1.7V371h1.7v2.5
		c0.9-1.9,2.4-2.8,4.5-2.8c0.5,0,0.9,0.1,1.2,0.2L220.4,372.4z"/>
	<path class="st1" d="M221.1,378.5c0-1.5,0.3-2.9,0.9-4.1s1.4-2.2,2.5-2.8s2.3-1,3.7-1c2.1,0,3.8,0.7,5.1,2.2s2,3.4,2,5.9v0.4
		c0,1.5-0.3,2.9-0.9,4.1s-1.4,2.2-2.5,2.8s-2.3,1-3.7,1c-2.1,0-3.8-0.7-5.1-2.2s-2-3.4-2-5.9V378.5z M222.9,379
		c0,1.9,0.5,3.4,1.5,4.7s2.3,1.8,3.9,1.8c1.6,0,2.9-0.6,3.8-1.8s1.5-2.8,1.5-4.8v-0.3c0-1.2-0.2-2.3-0.7-3.3s-1.1-1.8-1.9-2.3
		s-1.7-0.8-2.8-0.8c-1.6,0-2.8,0.6-3.8,1.8s-1.5,2.8-1.5,4.8V379z"/>
	<path class="st1" d="M237.5,378.6c0-2.5,0.5-4.4,1.6-5.9s2.6-2.2,4.5-2.2c2.2,0,3.8,0.9,4.9,2.6l0.1-2.3h1.6v15.5
		c0,2-0.6,3.7-1.7,4.8s-2.7,1.8-4.6,1.8c-1.1,0-2.2-0.2-3.2-0.7s-1.8-1.1-2.4-2l1-1.1c1.2,1.5,2.7,2.3,4.4,2.3
		c1.5,0,2.6-0.4,3.4-1.3s1.2-2.1,1.3-3.6v-2c-1.1,1.6-2.8,2.3-4.9,2.3c-1.8,0-3.3-0.7-4.4-2.2S237.4,381.2,237.5,378.6L237.5,378.6
		L237.5,378.6z M239.2,378.9c0,2,0.4,3.6,1.2,4.8s2,1.8,3.4,1.8c2.2,0,3.7-1,4.6-2.9v-7.4c-0.4-1-1-1.8-1.8-2.3s-1.7-0.8-2.8-0.8
		c-1.5,0-2.6,0.6-3.4,1.7S239.2,376.7,239.2,378.9z"/>
	<path class="st1" d="M261.4,372.4c-0.4-0.1-0.8-0.1-1.2-0.1c-1.1,0-2,0.3-2.8,0.9s-1.3,1.5-1.6,2.7v10.9h-1.7V371h1.7v2.5
		c0.9-1.9,2.4-2.8,4.5-2.8c0.5,0,0.9,0.1,1.2,0.2L261.4,372.4z"/>
	<path class="st1" d="M272.8,386.7c-0.2-0.5-0.3-1.2-0.3-2.2c-0.6,0.8-1.4,1.4-2.4,1.9s-2,0.7-3,0.7c-1.5,0-2.8-0.4-3.7-1.3
		s-1.4-1.9-1.4-3.2c0-1.5,0.6-2.8,1.9-3.7s3.1-1.3,5.4-1.3h3.2v-1.8c0-1.1-0.3-2-1-2.7s-1.7-1-3.1-1c-1.2,0-2.2,0.3-3,0.9
		s-1.2,1.4-1.2,2.3h-1.8c0-1.3,0.6-2.4,1.8-3.3s2.6-1.4,4.3-1.4c1.8,0,3.2,0.4,4.2,1.3s1.5,2.1,1.6,3.7v7.5c0,1.5,0.2,2.7,0.5,3.4
		v0.2H272.8z M267.3,385.4c1.2,0,2.2-0.3,3.1-0.8s1.6-1.3,2-2.3v-3.5h-3.1c-1.7,0-3.1,0.3-4.1,1s-1.5,1.5-1.5,2.6
		c0,0.9,0.3,1.6,1,2.2S266.3,385.4,267.3,385.4z"/>
	<path class="st1" d="M279.7,370.9l0.1,2.6c0.6-1,1.3-1.7,2.2-2.2s1.9-0.7,2.9-0.7c2.5,0,4.1,1,4.8,3.1c0.6-1,1.3-1.7,2.3-2.3
		s2-0.8,3.1-0.8c3.4,0,5.1,1.9,5.2,5.6v10.6h-1.8v-10.4c0-1.4-0.3-2.5-0.9-3.1s-1.6-1-2.9-1s-2.3,0.4-3.2,1.2s-1.4,1.8-1.5,2.9v10.5
		h-1.8v-10.8c0-1.4-0.3-2.4-1-3s-1.6-1-2.9-1c-1.1,0-2.1,0.3-2.8,0.9s-1.4,1.6-1.8,2.8v10.9H278v-15.8H279.7z"/>
	<path class="st1" d="M313.5,382.7c0-0.9-0.3-1.6-1-2.1s-1.8-0.9-3.2-1.2s-2.5-0.6-3.3-1s-1.4-0.9-1.7-1.4s-0.6-1.2-0.6-2
		c0-1.2,0.5-2.3,1.6-3.1s2.4-1.2,4-1.2c1.8,0,3.2,0.4,4.3,1.3s1.6,2,1.6,3.4h-1.8c0-0.9-0.4-1.7-1.2-2.3s-1.8-0.9-2.9-0.9
		c-1.2,0-2.1,0.3-2.8,0.8s-1,1.2-1,2s0.3,1.4,0.9,1.8s1.6,0.8,3.2,1.2s2.7,0.7,3.5,1.2s1.3,0.9,1.7,1.5s0.6,1.3,0.6,2.1
		c0,1.3-0.5,2.4-1.6,3.2s-2.5,1.2-4.2,1.2c-1.8,0-3.3-0.4-4.5-1.3s-1.7-2-1.7-3.4h1.8c0.1,1,0.5,1.8,1.3,2.4s1.8,0.9,3.2,0.9
		c1.2,0,2.2-0.3,3-0.8S313.5,383.5,313.5,382.7z"/>
	<path class="st1" d="M318,390.7l-1-0.8c0.9-1.2,1.3-2.4,1.4-3.7v-2.3h1.7v1.8C320.1,387.8,319.4,389.5,318,390.7z"/>
	<path class="st1" d="M329,378.5c0-1.5,0.3-2.9,0.9-4.1s1.4-2.2,2.5-2.8s2.3-1,3.7-1c2.1,0,3.8,0.7,5.1,2.2s2,3.4,2,5.9v0.4
		c0,1.5-0.3,2.9-0.9,4.1s-1.4,2.2-2.5,2.8s-2.3,1-3.7,1c-2.1,0-3.8-0.7-5.1-2.2s-2-3.4-2-5.9V378.5z M330.7,379
		c0,1.9,0.5,3.4,1.5,4.7s2.3,1.8,3.9,1.8s2.9-0.6,3.8-1.8s1.5-2.8,1.5-4.8v-0.3c0-1.2-0.2-2.3-0.7-3.3s-1.1-1.8-1.9-2.3
		s-1.7-0.8-2.8-0.8c-1.6,0-2.8,0.6-3.8,1.8s-1.5,2.8-1.5,4.8V379z"/>
	<path class="st1" d="M348.7,366.8v4.1h3.3v1.4h-3.3v10.6c0,0.9,0.2,1.5,0.5,2c0.3,0.4,0.8,0.6,1.6,0.6c0.3,0,0.8,0,1.4-0.1l0.1,1.4
		c-0.5,0.2-1.1,0.2-1.9,0.2c-1.2,0-2.1-0.3-2.6-1s-0.8-1.7-0.8-3.1v-10.6h-3v-1.4h2.9v-4.1H348.7z"/>
	<path class="st1" d="M356.6,373.5c0.6-0.9,1.3-1.7,2.2-2.2s1.9-0.8,2.9-0.8c1.7,0,3,0.5,3.8,1.4s1.2,2.4,1.3,4.3v10.4h-1.7v-10.4
		c0-1.4-0.3-2.5-0.9-3.2s-1.5-1-2.8-1c-1.1,0-2,0.3-2.9,1s-1.5,1.6-1.9,2.7v10.9h-1.7v-22.5h1.7V373.5z"/>
	<path class="st1" d="M376.7,387c-1.3,0-2.6-0.3-3.7-1s-1.9-1.6-2.5-2.8s-0.9-2.5-0.9-4v-0.6c0-1.5,0.3-2.9,0.9-4.1s1.4-2.2,2.5-2.9
		s2.2-1,3.4-1c1.9,0,3.4,0.7,4.6,2s1.7,3.1,1.7,5.4v1h-11.3v0.3c0,1.8,0.5,3.3,1.5,4.5s2.3,1.8,3.9,1.8c0.9,0,1.8-0.2,2.5-0.5
		s1.4-0.9,2-1.6l1.1,0.8C381.1,386.1,379.2,387,376.7,387z M376.4,372.1c-1.3,0-2.4,0.5-3.3,1.5s-1.5,2.3-1.6,3.9h9.5v-0.2
		c0-1.5-0.5-2.8-1.3-3.7S377.7,372.1,376.4,372.1z"/>
	<path class="st1" d="M392.7,372.4c-0.4-0.1-0.8-0.1-1.2-0.1c-1.1,0-2,0.3-2.8,0.9s-1.3,1.5-1.6,2.7v10.9h-1.7V371h1.7v2.5
		c0.9-1.9,2.4-2.8,4.5-2.8c0.5,0,0.9,0.1,1.2,0.2L392.7,372.4z"/>
	<path class="st1" d="M404.2,382.7c0-0.9-0.3-1.6-1-2.1s-1.8-0.9-3.2-1.2s-2.5-0.6-3.3-1s-1.4-0.9-1.7-1.4s-0.6-1.2-0.6-2
		c0-1.2,0.5-2.3,1.6-3.1s2.4-1.2,4-1.2c1.8,0,3.2,0.4,4.3,1.3s1.6,2,1.6,3.4h-1.8c0-0.9-0.4-1.7-1.2-2.3s-1.8-0.9-2.9-0.9
		c-1.2,0-2.1,0.3-2.8,0.8s-1,1.2-1,2s0.3,1.4,0.9,1.8s1.6,0.8,3.2,1.2s2.7,0.7,3.5,1.2s1.3,0.9,1.7,1.5s0.6,1.3,0.6,2.1
		c0,1.3-0.5,2.4-1.6,3.2s-2.5,1.2-4.2,1.2c-1.8,0-3.3-0.4-4.5-1.3s-1.7-2-1.7-3.4h1.8c0.1,1,0.5,1.8,1.3,2.4s1.8,0.9,3.2,0.9
		c1.2,0,2.2-0.3,3-0.8S404.2,383.5,404.2,382.7z"/>
	<path class="st1" d="M425.7,386.7c-0.2-0.5-0.3-1.2-0.3-2.2c-0.6,0.8-1.4,1.4-2.4,1.9s-2,0.7-3,0.7c-1.5,0-2.8-0.4-3.7-1.3
		s-1.4-1.9-1.4-3.2c0-1.5,0.6-2.8,1.9-3.7s3.1-1.3,5.4-1.3h3.2v-1.8c0-1.1-0.3-2-1-2.7s-1.7-1-3.1-1c-1.2,0-2.2,0.3-3,0.9
		s-1.2,1.4-1.2,2.3h-1.8c0-1.3,0.6-2.4,1.8-3.3s2.6-1.4,4.3-1.4c1.8,0,3.2,0.4,4.2,1.3s1.5,2.1,1.6,3.7v7.5c0,1.5,0.2,2.7,0.5,3.4
		v0.2H425.7z M420.2,385.4c1.2,0,2.2-0.3,3.1-0.8s1.6-1.3,2-2.3v-3.5h-3.1c-1.7,0-3.1,0.3-4.1,1s-1.5,1.5-1.5,2.6
		c0,0.9,0.3,1.6,1,2.2S419.1,385.4,420.2,385.4z"/>
	<path class="st1" d="M438.3,372.4c-0.4-0.1-0.8-0.1-1.2-0.1c-1.1,0-2,0.3-2.8,0.9s-1.3,1.5-1.6,2.7v10.9H431V371h1.7v2.5
		c0.9-1.9,2.4-2.8,4.5-2.8c0.5,0,0.9,0.1,1.2,0.2L438.3,372.4z"/>
	<path class="st1" d="M446.2,387c-1.3,0-2.6-0.3-3.7-1s-1.9-1.6-2.5-2.8s-0.9-2.5-0.9-4v-0.6c0-1.5,0.3-2.9,0.9-4.1s1.4-2.2,2.5-2.9
		s2.2-1,3.4-1c1.9,0,3.4,0.7,4.6,2s1.7,3.1,1.7,5.4v1h-11.3v0.3c0,1.8,0.5,3.3,1.5,4.5s2.3,1.8,3.9,1.8c0.9,0,1.8-0.2,2.5-0.5
		s1.4-0.9,2-1.6l1.1,0.8C450.5,386.1,448.6,387,446.2,387z M445.9,372.1c-1.3,0-2.4,0.5-3.3,1.5s-1.5,2.3-1.6,3.9h9.5v-0.2
		c0-1.5-0.5-2.8-1.3-3.7S447.2,372.1,445.9,372.1z"/>
	<path class="st1" d="M470.8,382.7c0-0.9-0.3-1.6-1-2.1s-1.8-0.9-3.2-1.2s-2.5-0.6-3.3-1s-1.4-0.9-1.7-1.4s-0.6-1.2-0.6-2
		c0-1.2,0.5-2.3,1.6-3.1s2.4-1.2,4-1.2c1.8,0,3.2,0.4,4.3,1.3s1.6,2,1.6,3.4h-1.8c0-0.9-0.4-1.7-1.2-2.3s-1.8-0.9-2.9-0.9
		c-1.2,0-2.1,0.3-2.8,0.8s-1,1.2-1,2s0.3,1.4,0.9,1.8s1.6,0.8,3.2,1.2s2.7,0.7,3.5,1.2s1.3,0.9,1.7,1.5s0.6,1.3,0.6,2.1
		c0,1.3-0.5,2.4-1.6,3.2s-2.5,1.2-4.2,1.2c-1.8,0-3.3-0.4-4.5-1.3s-1.7-2-1.7-3.4h1.8c0.1,1,0.5,1.8,1.3,2.4s1.8,0.9,3.2,0.9
		c1.2,0,2.2-0.3,3-0.8S470.8,383.5,470.8,382.7z"/>
	<path class="st1" d="M478.5,366.8v4.1h3.3v1.4h-3.3v10.6c0,0.9,0.2,1.5,0.5,2c0.3,0.4,0.8,0.6,1.6,0.6c0.3,0,0.8,0,1.4-0.1l0.1,1.4
		c-0.5,0.2-1.1,0.2-1.9,0.2c-1.2,0-2.1-0.3-2.6-1s-0.8-1.7-0.8-3.1v-10.6h-2.9v-1.4h2.9v-4.1H478.5z"/>
	<path class="st1" d="M484.6,366.3c0-0.3,0.1-0.6,0.3-0.8c0.2-0.2,0.5-0.3,0.9-0.3s0.7,0.1,0.9,0.3c0.2,0.2,0.3,0.5,0.3,0.8
		s-0.1,0.6-0.3,0.8s-0.5,0.3-0.9,0.3s-0.7-0.1-0.9-0.3S484.6,366.6,484.6,366.3z M486.6,386.7h-1.8v-15.8h1.8V386.7z"/>
	<path class="st1" d="M492.6,386.7h-1.8v-22.5h1.8V386.7z"/>
	<path class="st1" d="M498.6,386.7h-1.8v-22.5h1.8V386.7z"/>
	<path class="st1" d="M515.3,387c-1.3,0-2.6-0.3-3.7-1s-1.9-1.6-2.5-2.8s-0.9-2.5-0.9-4v-0.6c0-1.5,0.3-2.9,0.9-4.1s1.4-2.2,2.5-2.9
		c1.1-0.7,2.2-1,3.4-1c1.9,0,3.4,0.7,4.6,2s1.7,3.1,1.7,5.4v1H510v0.3c0,1.8,0.5,3.3,1.5,4.5s2.3,1.8,3.9,1.8c0.9,0,1.8-0.2,2.5-0.5
		s1.4-0.9,2-1.6l1.1,0.8C519.6,386.1,517.7,387,515.3,387z M515,372.1c-1.3,0-2.4,0.5-3.3,1.5s-1.5,2.3-1.6,3.9h9.5v-0.2
		c0-1.5-0.5-2.8-1.3-3.7S516.3,372.1,515,372.1z"/>
	<path class="st1" d="M528.9,377.3l4.3-6.4h2.1l-5.4,7.8l5.6,8.1h-2.1l-4.5-6.7l-4.5,6.7h-2.1l5.6-8.1l-5.4-7.8h2.1L528.9,377.3z"/>
	<path class="st1" d="M550.5,378.9c0,2.5-0.5,4.4-1.6,5.9s-2.6,2.2-4.4,2.2c-2.2,0-3.8-0.8-5-2.3v8.1h-1.7v-21.9h1.6l0.1,2.2
		c1.1-1.7,2.8-2.5,5-2.5c1.9,0,3.4,0.7,4.5,2.2S550.6,376.2,550.5,378.9L550.5,378.9L550.5,378.9z M548.7,378.6c0-2-0.4-3.6-1.2-4.8
		s-2-1.8-3.5-1.8c-1.1,0-2,0.3-2.8,0.8s-1.4,1.3-1.8,2.3v7.6c0.4,0.9,1,1.6,1.8,2.1s1.7,0.7,2.8,0.7c1.5,0,2.6-0.6,3.4-1.8
		S548.7,380.9,548.7,378.6z"/>
	<path class="st1" d="M555.6,386.7h-1.8v-22.5h1.8V386.7z"/>
	<path class="st1" d="M558.6,378.5c0-1.5,0.3-2.9,0.9-4.1s1.4-2.2,2.5-2.8s2.3-1,3.7-1c2.1,0,3.8,0.7,5.1,2.2s2,3.4,2,5.9v0.4
		c0,1.5-0.3,2.9-0.9,4.1s-1.4,2.2-2.5,2.8s-2.3,1-3.7,1c-2.1,0-3.8-0.7-5.1-2.2s-2-3.4-2-5.9V378.5z M560.4,379
		c0,1.9,0.5,3.4,1.5,4.7s2.3,1.8,3.9,1.8c1.6,0,2.9-0.6,3.8-1.8s1.5-2.8,1.5-4.8v-0.3c0-1.2-0.2-2.3-0.7-3.3s-1.1-1.8-1.9-2.3
		s-1.7-0.8-2.8-0.8c-1.6,0-2.8,0.6-3.8,1.8s-1.5,2.8-1.5,4.8V379z"/>
	<path class="st1" d="M583,372.4c-0.4-0.1-0.8-0.1-1.2-0.1c-1.1,0-2,0.3-2.8,0.9s-1.3,1.5-1.6,2.7v10.9h-1.7V371h1.7v2.5
		c0.9-1.9,2.4-2.8,4.5-2.8c0.5,0,0.9,0.1,1.2,0.2L583,372.4z"/>
	<path class="st1" d="M584.9,366.3c0-0.3,0.1-0.6,0.3-0.8c0.2-0.2,0.5-0.3,0.9-0.3s0.7,0.1,0.9,0.3c0.2,0.2,0.3,0.5,0.3,0.8
		s-0.1,0.6-0.3,0.8s-0.5,0.3-0.9,0.3s-0.7-0.1-0.9-0.3S584.9,366.6,584.9,366.3z M586.9,386.7h-1.8v-15.8h1.8V386.7z"/>
	<path class="st1" d="M592.6,370.9l0.1,2.7c0.6-1,1.3-1.7,2.2-2.2s1.9-0.8,2.9-0.8c1.7,0,3,0.5,3.8,1.4s1.2,2.4,1.3,4.3v10.4h-1.7
		v-10.4c0-1.4-0.3-2.5-0.9-3.2s-1.5-1-2.8-1c-1.1,0-2,0.3-2.9,1s-1.5,1.6-1.9,2.7v10.9H591v-15.8H592.6z"/>
	<path class="st1" d="M606,378.6c0-2.5,0.5-4.4,1.6-5.9s2.6-2.2,4.5-2.2c2.2,0,3.8,0.9,4.9,2.6l0.1-2.3h1.6v15.5
		c0,2-0.6,3.7-1.7,4.8s-2.7,1.8-4.6,1.8c-1.1,0-2.2-0.2-3.2-0.7s-1.8-1.1-2.4-2l1-1.1c1.2,1.5,2.7,2.3,4.4,2.3
		c1.5,0,2.6-0.4,3.4-1.3s1.2-2.1,1.3-3.6v-2c-1.1,1.6-2.8,2.3-4.9,2.3c-1.8,0-3.3-0.7-4.4-2.2s-1.7-3.4-1.7-5.9v-0.1L606,378.6
		L606,378.6z M607.8,378.9c0,2,0.4,3.6,1.2,4.8s2,1.8,3.4,1.8c2.2,0,3.7-1,4.6-2.9v-7.4c-0.4-1-1-1.8-1.8-2.3s-1.7-0.8-2.8-0.8
		c-1.5,0-2.6,0.6-3.4,1.7S607.8,376.7,607.8,378.9z"/>
	<path class="st1" d="M631.8,366.8v4.1h3.3v1.4h-3.3v10.6c0,0.9,0.2,1.5,0.5,2c0.3,0.4,0.8,0.6,1.6,0.6c0.3,0,0.8,0,1.4-0.1l0.1,1.4
		c-0.5,0.2-1.1,0.2-1.9,0.2c-1.2,0-2.1-0.3-2.6-1s-0.8-1.7-0.8-3.1v-10.6h-2.9v-1.4h2.9v-4.1H631.8z"/>
	<path class="st1" d="M639.7,373.5c0.6-0.9,1.3-1.7,2.2-2.2s1.9-0.8,2.9-0.8c1.7,0,3,0.5,3.8,1.4s1.2,2.4,1.3,4.3v10.4h-1.7v-10.4
		c0-1.4-0.3-2.5-0.9-3.2s-1.5-1-2.8-1c-1.1,0-2,0.3-2.9,1s-1.5,1.6-1.9,2.7v10.9H638v-22.5h1.7V373.5z"/>
	<path class="st1" d="M659.9,387c-1.3,0-2.6-0.3-3.7-1s-1.9-1.6-2.5-2.8s-0.9-2.5-0.9-4v-0.6c0-1.5,0.3-2.9,0.9-4.1s1.4-2.2,2.5-2.9
		s2.2-1,3.4-1c1.9,0,3.4,0.7,4.6,2s1.7,3.1,1.7,5.4v1h-11.3v0.3c0,1.8,0.5,3.3,1.5,4.5s2.3,1.8,3.9,1.8c0.9,0,1.8-0.2,2.5-0.5
		s1.4-0.9,2-1.6l1.1,0.8C664.2,386.1,662.3,387,659.9,387z M659.5,372.1c-1.3,0-2.4,0.5-3.3,1.5s-1.5,2.3-1.6,3.9h9.5v-0.2
		c0-1.5-0.5-2.8-1.3-3.7S660.9,372.1,659.5,372.1z"/>
	<path class="st1" d="M668.4,366.3c0-0.3,0.1-0.6,0.3-0.8c0.2-0.2,0.5-0.3,0.9-0.3s0.7,0.1,0.9,0.3c0.2,0.2,0.3,0.5,0.3,0.8
		s-0.1,0.6-0.3,0.8s-0.5,0.3-0.9,0.3s-0.7-0.1-0.9-0.3S668.4,366.6,668.4,366.3z M670.4,386.7h-1.8v-15.8h1.8V386.7z"/>
	<path class="st1" d="M681.8,372.4c-0.4-0.1-0.8-0.1-1.2-0.1c-1.1,0-2,0.3-2.8,0.9s-1.3,1.5-1.6,2.7v10.9h-1.7V371h1.7v2.5
		c0.9-1.9,2.4-2.8,4.5-2.8c0.5,0,0.9,0.1,1.2,0.2L681.8,372.4z"/>
	<path class="st1" d="M689.4,378.5c0-1.5,0.3-2.9,0.9-4.1s1.4-2.2,2.5-2.8s2.3-1,3.7-1c2.1,0,3.8,0.7,5.1,2.2s2,3.4,2,5.9v0.4
		c0,1.5-0.3,2.9-0.9,4.1s-1.4,2.2-2.5,2.8s-2.3,1-3.7,1c-2.1,0-3.8-0.7-5.1-2.2s-2-3.4-2-5.9V378.5z M691.1,379
		c0,1.9,0.5,3.4,1.5,4.7s2.3,1.8,3.9,1.8c1.6,0,2.9-0.6,3.8-1.8s1.5-2.8,1.5-4.8v-0.3c0-1.2-0.2-2.3-0.7-3.3s-1.1-1.8-1.9-2.3
		s-1.7-0.8-2.8-0.8c-1.6,0-2.8,0.6-3.8,1.8s-1.5,2.8-1.5,4.8V379z"/>
	<path class="st1" d="M719.1,378.9c0,2.5-0.5,4.4-1.6,5.9s-2.6,2.2-4.4,2.2c-2.2,0-3.8-0.8-5-2.3v8.1h-1.7v-21.9h1.6l0.1,2.2
		c1.1-1.7,2.8-2.5,5-2.5c1.9,0,3.4,0.7,4.5,2.2S719.2,376.2,719.1,378.9L719.1,378.9L719.1,378.9z M717.4,378.6c0-2-0.4-3.6-1.2-4.8
		s-2-1.8-3.5-1.8c-1.1,0-2,0.3-2.8,0.8s-1.4,1.3-1.8,2.3v7.6c0.4,0.9,1,1.6,1.8,2.1s1.7,0.7,2.8,0.7c1.5,0,2.6-0.6,3.4-1.8
		S717.4,380.9,717.4,378.6z"/>
	<path class="st1" d="M725,366.8v4.1h3.3v1.4H725v10.6c0,0.9,0.2,1.5,0.5,2c0.3,0.4,0.8,0.6,1.6,0.6c0.3,0,0.8,0,1.4-0.1l0.1,1.4
		c-0.5,0.2-1.1,0.2-1.9,0.2c-1.2,0-2.1-0.3-2.6-1s-0.8-1.7-0.8-3.1v-10.6h-2.9v-1.4h2.9v-4.1H725z"/>
	<path class="st1" d="M731,366.3c0-0.3,0.1-0.6,0.3-0.8c0.2-0.2,0.5-0.3,0.9-0.3s0.7,0.1,0.9,0.3c0.2,0.2,0.3,0.5,0.3,0.8
		s-0.1,0.6-0.3,0.8s-0.5,0.3-0.9,0.3s-0.7-0.1-0.9-0.3S731,366.6,731,366.3z M733.1,386.7h-1.8v-15.8h1.8V386.7z"/>
	<path class="st1" d="M736.2,378.5c0-1.5,0.3-2.9,0.9-4.1s1.4-2.2,2.5-2.8s2.3-1,3.7-1c2.1,0,3.8,0.7,5.1,2.2s2,3.4,2,5.9v0.4
		c0,1.5-0.3,2.9-0.9,4.1s-1.4,2.2-2.5,2.8s-2.3,1-3.7,1c-2.1,0-3.8-0.7-5.1-2.2s-2-3.4-2-5.9V378.5z M737.9,379
		c0,1.9,0.5,3.4,1.5,4.7s2.3,1.8,3.9,1.8c1.6,0,2.9-0.6,3.8-1.8s1.5-2.8,1.5-4.8v-0.3c0-1.2-0.2-2.3-0.7-3.3s-1.1-1.8-1.9-2.3
		s-1.7-0.8-2.8-0.8c-1.6,0-2.8,0.6-3.8,1.8s-1.5,2.8-1.5,4.8V379z"/>
	<path class="st1" d="M754.8,370.9l0.1,2.7c0.6-1,1.3-1.7,2.2-2.2s1.9-0.8,2.9-0.8c1.7,0,3,0.5,3.8,1.4s1.2,2.4,1.3,4.3v10.4h-1.7
		v-10.4c0-1.4-0.3-2.5-0.9-3.2s-1.5-1-2.8-1c-1.1,0-2,0.3-2.9,1s-1.5,1.6-1.9,2.7v10.9h-1.7v-15.8H754.8z"/>
	<path class="st1" d="M778.4,382.7c0-0.9-0.3-1.6-1-2.1s-1.8-0.9-3.2-1.2s-2.5-0.6-3.3-1s-1.4-0.9-1.7-1.4s-0.6-1.2-0.6-2
		c0-1.2,0.5-2.3,1.6-3.1s2.4-1.2,4-1.2c1.8,0,3.2,0.4,4.3,1.3s1.6,2,1.6,3.4h-1.8c0-0.9-0.4-1.7-1.2-2.3s-1.8-0.9-2.9-0.9
		c-1.2,0-2.1,0.3-2.8,0.8s-1,1.2-1,2s0.3,1.4,0.9,1.8s1.6,0.8,3.2,1.2s2.7,0.7,3.5,1.2s1.3,0.9,1.7,1.5s0.6,1.3,0.6,2.1
		c0,1.3-0.5,2.4-1.6,3.2s-2.5,1.2-4.2,1.2c-1.8,0-3.3-0.4-4.5-1.3s-1.7-2-1.7-3.4h1.8c0.1,1,0.5,1.8,1.3,2.4s1.8,0.9,3.2,0.9
		c1.2,0,2.2-0.3,3-0.8S778.4,383.5,778.4,382.7z"/>
	<path class="st1" d="M783,390.7l-1-0.8c0.9-1.2,1.3-2.4,1.4-3.7v-2.3h1.7v1.8C785,387.8,784.3,389.5,783,390.7z"/>
	<path class="st1" d="M804.9,386.7c-0.2-0.5-0.3-1.2-0.3-2.2c-0.6,0.8-1.4,1.4-2.4,1.9s-2,0.7-3,0.7c-1.5,0-2.8-0.4-3.7-1.3
		s-1.4-1.9-1.4-3.2c0-1.5,0.6-2.8,1.9-3.7s3.1-1.3,5.4-1.3h3.2v-1.8c0-1.1-0.3-2-1-2.7s-1.7-1-3.1-1c-1.2,0-2.2,0.3-3,0.9
		s-1.2,1.4-1.2,2.3h-1.8c0-1.3,0.6-2.4,1.8-3.3s2.6-1.4,4.3-1.4c1.8,0,3.2,0.4,4.2,1.3s1.5,2.1,1.6,3.7v7.5c0,1.5,0.2,2.7,0.5,3.4
		v0.2H804.9z M799.4,385.4c1.2,0,2.2-0.3,3.1-0.8s1.6-1.3,2-2.3v-3.5h-3.1c-1.7,0-3.1,0.3-4.1,1s-1.5,1.5-1.5,2.6
		c0,0.9,0.3,1.6,1,2.2S798.3,385.4,799.4,385.4z"/>
	<path class="st1" d="M811.9,370.9l0.1,2.7c0.6-1,1.3-1.7,2.2-2.2s1.9-0.8,2.9-0.8c1.7,0,3,0.5,3.8,1.4s1.2,2.4,1.3,4.3v10.4h-1.7
		v-10.4c0-1.4-0.3-2.5-0.9-3.2s-1.5-1-2.8-1c-1.1,0-2,0.3-2.9,1s-1.5,1.6-1.9,2.7v10.9h-1.7v-15.8H811.9z"/>
	<path class="st1" d="M825.2,378.6c0-2.5,0.5-4.4,1.6-5.9s2.6-2.2,4.5-2.2c2.1,0,3.8,0.8,4.9,2.5v-8.9h1.7v22.5h-1.6l-0.1-2.1
		c-1.1,1.6-2.8,2.4-5,2.4c-1.8,0-3.3-0.7-4.4-2.2S825.1,381.2,825.2,378.6L825.2,378.6L825.2,378.6z M827,378.9c0,2,0.4,3.6,1.2,4.8
		s2,1.8,3.4,1.8c2.2,0,3.7-1,4.6-2.9v-7.4c-0.9-2.1-2.4-3.1-4.6-3.1c-1.5,0-2.6,0.6-3.4,1.7S827,376.7,827,378.9z"/>
	<path class="st1" d="M850,370.9l0.1,2.6c0.6-1,1.3-1.7,2.2-2.2s1.9-0.7,2.9-0.7c2.5,0,4.1,1,4.8,3.1c0.6-1,1.3-1.7,2.3-2.3
		s2-0.8,3.1-0.8c3.4,0,5.1,1.9,5.2,5.6v10.6h-1.8v-10.4c0-1.4-0.3-2.5-0.9-3.1c-0.6-0.7-1.6-1-2.9-1c-1.3,0-2.3,0.4-3.2,1.2
		s-1.4,1.8-1.5,2.9v10.5h-1.8v-10.8c0-1.4-0.3-2.4-1-3c-0.6-0.7-1.6-1-2.9-1c-1.1,0-2.1,0.3-2.8,0.9s-1.4,1.6-1.8,2.8v10.9h-1.8
		v-15.8H850z"/>
	<path class="st1" d="M884.2,386.7c-0.2-0.5-0.3-1.2-0.3-2.2c-0.6,0.8-1.4,1.4-2.4,1.9c-1,0.4-2,0.7-3,0.7c-1.5,0-2.8-0.4-3.7-1.3
		c-0.9-0.8-1.4-1.9-1.4-3.2c0-1.5,0.6-2.8,1.9-3.7s3.1-1.3,5.4-1.3h3.2v-1.8c0-1.1-0.3-2-1-2.7s-1.7-1-3.1-1c-1.2,0-2.2,0.3-3,0.9
		s-1.2,1.4-1.2,2.3h-1.8c0-1.3,0.6-2.4,1.8-3.3s2.6-1.4,4.3-1.4c1.8,0,3.2,0.4,4.2,1.3s1.5,2.1,1.6,3.7v7.5c0,1.5,0.2,2.7,0.5,3.4
		v0.2H884.2z M878.7,385.4c1.2,0,2.2-0.3,3.1-0.8c0.9-0.6,1.6-1.3,2-2.3v-3.5h-3.1c-1.7,0-3.1,0.3-4.1,1s-1.5,1.5-1.5,2.6
		c0,0.9,0.3,1.6,1,2.2C876.8,385.2,877.7,385.4,878.7,385.4z"/>
	<path class="st1" d="M894.4,384.2l4.6-13.3h1.9l-6.8,18.5l-0.4,0.8c-0.9,1.9-2.2,2.9-4,2.9c-0.4,0-0.9-0.1-1.3-0.2v-1.5l0.9,0.1
		c0.9,0,1.6-0.2,2.1-0.6s1-1.2,1.4-2.2l0.8-2.1l-6-15.7h1.9L894.4,384.2z"/>
	<path class="st1" d="M911,370.9l0.1,2.7c0.6-1,1.3-1.7,2.2-2.2s1.9-0.8,2.9-0.8c1.7,0,3,0.5,3.8,1.4s1.2,2.4,1.3,4.3v10.4h-1.7
		v-10.4c0-1.4-0.3-2.5-0.9-3.2s-1.5-1-2.8-1c-1.1,0-2,0.3-2.9,1c-0.8,0.7-1.5,1.6-1.9,2.7v10.9h-1.7v-15.8H911z"/>
	<path class="st1" d="M931.2,387c-1.3,0-2.6-0.3-3.7-1s-1.9-1.6-2.5-2.8s-0.9-2.5-0.9-4v-0.6c0-1.5,0.3-2.9,0.9-4.1
		c0.6-1.2,1.4-2.2,2.5-2.9s2.2-1,3.4-1c1.9,0,3.5,0.7,4.6,2s1.7,3.1,1.7,5.4v1h-11.3v0.3c0,1.8,0.5,3.3,1.5,4.5s2.3,1.8,3.9,1.8
		c0.9,0,1.8-0.2,2.5-0.5s1.4-0.9,2-1.6l1.1,0.8C935.6,386.1,933.7,387,931.2,387z M930.9,372.1c-1.3,0-2.4,0.5-3.3,1.5
		s-1.5,2.3-1.6,3.9h9.5v-0.2c0-1.5-0.5-2.8-1.3-3.7S932.2,372.1,930.9,372.1z"/>
	<path class="st1" d="M946,387c-1.3,0-2.6-0.3-3.7-1s-1.9-1.6-2.5-2.8s-0.9-2.5-0.9-4v-0.6c0-1.5,0.3-2.9,0.9-4.1
		c0.6-1.2,1.4-2.2,2.5-2.9s2.2-1,3.4-1c1.9,0,3.5,0.7,4.6,2s1.7,3.1,1.7,5.4v1h-11.3v0.3c0,1.8,0.5,3.3,1.5,4.5s2.3,1.8,3.9,1.8
		c0.9,0,1.8-0.2,2.5-0.5s1.4-0.9,2-1.6l1.1,0.8C950.3,386.1,948.4,387,946,387z M945.7,372.1c-1.3,0-2.4,0.5-3.3,1.5
		s-1.5,2.3-1.6,3.9h9.5v-0.2c0-1.5-0.5-2.8-1.3-3.7S947,372.1,945.7,372.1z"/>
	<path class="st1" d="M953.9,378.6c0-2.5,0.5-4.4,1.6-5.9s2.6-2.2,4.5-2.2c2.1,0,3.8,0.8,4.9,2.5v-8.9h1.7v22.5H965l-0.1-2.1
		c-1.1,1.6-2.8,2.4-5,2.4c-1.8,0-3.3-0.7-4.4-2.2c-1.1-1.5-1.7-3.5-1.7-6v-0.1L953.9,378.6L953.9,378.6z M955.7,378.9
		c0,2,0.4,3.6,1.2,4.8s2,1.8,3.4,1.8c2.2,0,3.7-1,4.6-2.9v-7.4c-0.9-2.1-2.4-3.1-4.6-3.1c-1.5,0-2.6,0.6-3.4,1.7
		S955.7,376.7,955.7,378.9z"/>
	<path class="st1" d="M196.5,414.6c0-2.5,0.5-4.4,1.6-5.9s2.6-2.2,4.5-2.2c2.2,0,3.8,0.9,4.9,2.6l0.1-2.3h1.6v15.5
		c0,2-0.6,3.7-1.7,4.8s-2.7,1.8-4.6,1.8c-1.1,0-2.2-0.2-3.2-0.7s-1.8-1.1-2.4-2l1-1.1c1.2,1.5,2.7,2.3,4.4,2.3
		c1.5,0,2.6-0.4,3.4-1.3s1.2-2.1,1.3-3.6v-2c-1.1,1.6-2.8,2.3-4.9,2.3c-1.8,0-3.3-0.7-4.4-2.2S196.4,417.2,196.5,414.6L196.5,414.6
		L196.5,414.6z M198.3,414.9c0,2,0.4,3.6,1.2,4.8s2,1.8,3.4,1.8c2.2,0,3.7-1,4.6-2.9v-7.4c-0.4-1-1-1.8-1.8-2.3s-1.7-0.8-2.8-0.8
		c-1.5,0-2.6,0.6-3.4,1.7S198.3,412.7,198.3,414.9z"/>
	<path class="st1" d="M223.3,420.7c-1.1,1.5-2.7,2.3-5.1,2.3c-1.7,0-3-0.5-3.9-1.5s-1.3-2.4-1.3-4.4v-10.3h1.7v10.1
		c0,3,1.2,4.5,3.7,4.5s4.1-1,4.8-3.1v-11.5h1.8v15.8h-1.7V420.7z"/>
	<path class="st1" d="M228.7,402.3c0-0.3,0.1-0.6,0.3-0.8c0.2-0.2,0.5-0.3,0.9-0.3s0.7,0.1,0.9,0.3c0.2,0.2,0.3,0.5,0.3,0.8
		s-0.1,0.6-0.3,0.8s-0.5,0.3-0.9,0.3s-0.7-0.1-0.9-0.3S228.7,402.6,228.7,402.3z M230.8,422.7H229v-15.8h1.8V422.7z"/>
	<path class="st1" d="M234.1,414.6c0-2.5,0.5-4.4,1.6-5.9s2.6-2.2,4.5-2.2c2.1,0,3.8,0.8,4.9,2.5v-8.9h1.7v22.5h-1.6l-0.1-2.1
		c-1.1,1.6-2.8,2.4-5,2.4c-1.8,0-3.3-0.7-4.4-2.2s-1.7-3.5-1.7-6v-0.1L234.1,414.6L234.1,414.6z M235.8,414.9c0,2,0.4,3.6,1.2,4.8
		s2,1.8,3.4,1.8c2.2,0,3.7-1,4.6-2.9v-7.4c-0.9-2.1-2.4-3.1-4.6-3.1c-1.5,0-2.6,0.6-3.4,1.7S235.8,412.7,235.8,414.9z"/>
	<path class="st1" d="M260.7,422.7c-0.2-0.5-0.3-1.2-0.3-2.2c-0.6,0.8-1.4,1.4-2.4,1.9s-2,0.7-3,0.7c-1.5,0-2.8-0.4-3.7-1.3
		s-1.4-1.9-1.4-3.2c0-1.5,0.6-2.8,1.9-3.7s3.1-1.3,5.4-1.3h3.2v-1.8c0-1.1-0.3-2-1-2.7s-1.7-1-3.1-1c-1.2,0-2.2,0.3-3,0.9
		s-1.2,1.4-1.2,2.3h-1.8c0-1.3,0.6-2.4,1.8-3.3s2.6-1.4,4.3-1.4c1.8,0,3.2,0.4,4.2,1.3s1.5,2.1,1.6,3.7v7.5c0,1.5,0.2,2.7,0.5,3.4
		v0.2H260.7z M255.2,421.4c1.2,0,2.2-0.3,3.1-0.8s1.6-1.3,2-2.3v-3.5h-3.1c-1.7,0-3.1,0.3-4.1,1s-1.5,1.5-1.5,2.6
		c0,0.9,0.3,1.6,1,2.2S254.1,421.4,255.2,421.4z"/>
	<path class="st1" d="M267.7,406.9l0.1,2.7c0.6-1,1.3-1.7,2.2-2.2s1.9-0.8,2.9-0.8c1.7,0,3,0.5,3.8,1.4s1.2,2.4,1.3,4.3v10.4h-1.7
		v-10.4c0-1.4-0.3-2.5-0.9-3.2s-1.5-1-2.8-1c-1.1,0-2,0.3-2.9,1s-1.5,1.6-1.9,2.7v10.9H266v-15.8H267.7z"/>
	<path class="st1" d="M287.6,421.5c1.2,0,2.2-0.3,3.1-1s1.3-1.6,1.3-2.7h1.7c0,1-0.4,1.8-0.9,2.6s-1.3,1.4-2.2,1.9s-1.9,0.7-3,0.7
		c-2.1,0-3.7-0.7-4.9-2.2s-1.8-3.4-1.8-5.8v-0.5c0-1.6,0.3-2.9,0.8-4.1s1.3-2.1,2.4-2.8s2.2-1,3.6-1c1.7,0,3.2,0.5,4.3,1.6
		s1.7,2.4,1.8,4.1H292c-0.1-1.2-0.5-2.2-1.3-3s-1.8-1.1-3.1-1.1c-1.6,0-2.8,0.6-3.7,1.7s-1.3,2.7-1.3,4.8v0.5c0,2,0.4,3.6,1.3,4.7
		S286,421.5,287.6,421.5z"/>
	<path class="st1" d="M302.6,423c-1.3,0-2.6-0.3-3.7-1s-1.9-1.6-2.5-2.8s-0.9-2.5-0.9-4v-0.6c0-1.5,0.3-2.9,0.9-4.1s1.4-2.2,2.5-2.9
		s2.2-1,3.4-1c1.9,0,3.4,0.7,4.6,2s1.7,3.1,1.7,5.4v1h-11.3v0.3c0,1.8,0.5,3.3,1.5,4.5s2.3,1.8,3.9,1.8c0.9,0,1.8-0.2,2.5-0.5
		s1.4-0.9,2-1.6l1.1,0.8C306.9,422.1,305,423,302.6,423z M302.3,408.1c-1.3,0-2.4,0.5-3.3,1.5s-1.5,2.3-1.6,3.9h9.5v-0.2
		c0-1.5-0.5-2.8-1.3-3.7S303.6,408.1,302.3,408.1z"/>
	<path class="st1" d="M317.6,402.3c0-0.3,0.1-0.6,0.3-0.8c0.2-0.2,0.5-0.3,0.9-0.3s0.7,0.1,0.9,0.3c0.2,0.2,0.3,0.5,0.3,0.8
		s-0.1,0.6-0.3,0.8s-0.5,0.3-0.9,0.3s-0.7-0.1-0.9-0.3S317.6,402.6,317.6,402.3z M319.7,422.7h-1.8v-15.8h1.8V422.7z"/>
	<path class="st1" d="M325.4,406.9l0.1,2.7c0.6-1,1.3-1.7,2.2-2.2s1.9-0.8,2.9-0.8c1.7,0,3,0.5,3.8,1.4s1.2,2.4,1.3,4.3v10.4H334
		v-10.4c0-1.4-0.3-2.5-0.9-3.2s-1.5-1-2.8-1c-1.1,0-2,0.3-2.9,1s-1.5,1.6-1.9,2.7v10.9h-1.7v-15.8H325.4z"/>
	<path class="st1" d="M347.7,409.5c0.6-0.9,1.3-1.7,2.2-2.2s1.9-0.8,2.9-0.8c1.7,0,3,0.5,3.8,1.4s1.2,2.4,1.3,4.3v10.4h-1.7v-10.4
		c0-1.4-0.3-2.5-0.9-3.2s-1.5-1-2.8-1c-1.1,0-2,0.3-2.9,1s-1.5,1.6-1.9,2.7v10.9H346v-22.5h1.7V409.5z"/>
	<path class="st1" d="M360.7,414.5c0-1.5,0.3-2.9,0.9-4.1s1.4-2.2,2.5-2.8s2.3-1,3.7-1c2.1,0,3.8,0.7,5.1,2.2s2,3.4,2,5.9v0.4
		c0,1.5-0.3,2.9-0.9,4.1s-1.4,2.2-2.5,2.8s-2.3,1-3.7,1c-2.1,0-3.8-0.7-5.1-2.2s-2-3.4-2-5.9V414.5z M362.5,415
		c0,1.9,0.5,3.4,1.5,4.7s2.3,1.8,3.9,1.8s2.9-0.6,3.8-1.8s1.5-2.8,1.5-4.8v-0.3c0-1.2-0.2-2.3-0.7-3.3s-1.1-1.8-1.9-2.3
		s-1.7-0.8-2.8-0.8c-1.6,0-2.8,0.6-3.8,1.8s-1.5,2.8-1.5,4.8V415z"/>
	<path class="st1" d="M381.6,419.1l0.3,1.4l0.4-1.4l3.8-12.1h1.5l3.8,12l0.4,1.7l0.3-1.5l3.3-12.2h1.8l-4.6,15.8h-1.5l-4.1-12.6
		l-0.2-0.9l-0.2,0.9l-4,12.6H381l-4.6-15.8h1.8L381.6,419.1z"/>
	<path class="st1" d="M408.9,402.8v4.1h3.3v1.4h-3.3v10.6c0,0.9,0.2,1.5,0.5,2c0.3,0.4,0.8,0.6,1.6,0.6c0.3,0,0.8,0,1.4-0.1l0.1,1.4
		c-0.5,0.2-1.1,0.2-1.9,0.2c-1.2,0-2.1-0.3-2.6-1s-0.8-1.7-0.8-3.1v-10.6h-2.9v-1.4h2.9v-4.1H408.9z"/>
	<path class="st1" d="M413.8,414.5c0-1.5,0.3-2.9,0.9-4.1s1.4-2.2,2.5-2.8s2.3-1,3.7-1c2.1,0,3.8,0.7,5.1,2.2s2,3.4,2,5.9v0.4
		c0,1.5-0.3,2.9-0.9,4.1s-1.4,2.2-2.5,2.8s-2.3,1-3.7,1c-2.1,0-3.8-0.7-5.1-2.2s-2-3.4-2-5.9V414.5z M415.6,415
		c0,1.9,0.5,3.4,1.5,4.7s2.3,1.8,3.9,1.8s2.9-0.6,3.8-1.8s1.5-2.8,1.5-4.8v-0.3c0-1.2-0.2-2.3-0.7-3.3s-1.1-1.8-1.9-2.3
		s-1.7-0.8-2.8-0.8c-1.6,0-2.8,0.6-3.8,1.8s-1.5,2.8-1.5,4.8V415z"/>
	<path class="st1" d="M436.7,414.6c0-2.5,0.5-4.4,1.6-5.9s2.6-2.2,4.5-2.2c2.1,0,3.8,0.8,4.9,2.5v-8.9h1.7v22.5h-1.6l-0.1-2.1
		c-1.1,1.6-2.8,2.4-5,2.4c-1.8,0-3.3-0.7-4.4-2.2s-1.7-3.5-1.7-6v-0.1L436.7,414.6L436.7,414.6z M438.4,414.9c0,2,0.4,3.6,1.2,4.8
		s2,1.8,3.4,1.8c2.2,0,3.7-1,4.6-2.9v-7.4c-0.9-2.1-2.4-3.1-4.6-3.1c-1.5,0-2.6,0.6-3.4,1.7S438.4,412.7,438.4,414.9z"/>
	<path class="st1" d="M459.4,423c-1.3,0-2.6-0.3-3.7-1s-1.9-1.6-2.5-2.8s-0.9-2.5-0.9-4v-0.6c0-1.5,0.3-2.9,0.9-4.1s1.4-2.2,2.5-2.9
		s2.2-1,3.4-1c1.9,0,3.4,0.7,4.6,2s1.7,3.1,1.7,5.4v1h-11.3v0.3c0,1.8,0.5,3.3,1.5,4.5s2.3,1.8,3.9,1.8c0.9,0,1.8-0.2,2.5-0.5
		s1.4-0.9,2-1.6l1.1,0.8C463.7,422.1,461.9,423,459.4,423z M459.1,408.1c-1.3,0-2.4,0.5-3.3,1.5s-1.5,2.3-1.6,3.9h9.5v-0.2
		c0-1.5-0.5-2.8-1.3-3.7S460.4,408.1,459.1,408.1z"/>
	<path class="st1" d="M477.5,418.7c0-0.9-0.3-1.6-1-2.1s-1.8-0.9-3.2-1.2s-2.5-0.6-3.3-1s-1.4-0.9-1.7-1.4s-0.6-1.2-0.6-2
		c0-1.2,0.5-2.3,1.6-3.1s2.4-1.2,4-1.2c1.8,0,3.2,0.4,4.3,1.3s1.6,2,1.6,3.4h-1.8c0-0.9-0.4-1.7-1.2-2.3s-1.8-0.9-2.9-0.9
		c-1.2,0-2.1,0.3-2.8,0.8s-1,1.2-1,2s0.3,1.4,0.9,1.8s1.6,0.8,3.2,1.2s2.7,0.7,3.5,1.2s1.3,0.9,1.7,1.5s0.6,1.3,0.6,2.1
		c0,1.3-0.5,2.4-1.6,3.2s-2.5,1.2-4.2,1.2c-1.8,0-3.3-0.4-4.5-1.3s-1.7-2-1.7-3.4h1.8c0.1,1,0.5,1.8,1.3,2.4s1.8,0.9,3.2,0.9
		c1.2,0,2.2-0.3,3-0.8S477.5,419.5,477.5,418.7z"/>
	<path class="st1" d="M482.4,402.3c0-0.3,0.1-0.6,0.3-0.8c0.2-0.2,0.5-0.3,0.9-0.3s0.7,0.1,0.9,0.3c0.2,0.2,0.3,0.5,0.3,0.8
		s-0.1,0.6-0.3,0.8s-0.5,0.3-0.9,0.3s-0.7-0.1-0.9-0.3S482.4,402.6,482.4,402.3z M484.4,422.7h-1.8v-15.8h1.8V422.7z"/>
	<path class="st1" d="M487.7,414.6c0-2.5,0.5-4.4,1.6-5.9s2.6-2.2,4.5-2.2c2.2,0,3.8,0.9,4.9,2.6l0.1-2.3h1.6v15.5
		c0,2-0.6,3.7-1.7,4.8s-2.7,1.8-4.6,1.8c-1.1,0-2.2-0.2-3.2-0.7s-1.8-1.1-2.4-2l1-1.1c1.2,1.5,2.7,2.3,4.4,2.3
		c1.5,0,2.6-0.4,3.4-1.3s1.2-2.1,1.3-3.6v-2c-1.1,1.6-2.8,2.3-4.9,2.3c-1.8,0-3.3-0.7-4.4-2.2s-1.7-3.4-1.7-5.9v-0.1L487.7,414.6
		L487.7,414.6z M489.5,414.9c0,2,0.4,3.6,1.2,4.8s2,1.8,3.4,1.8c2.2,0,3.7-1,4.6-2.9v-7.4c-0.4-1-1-1.8-1.8-2.3s-1.7-0.8-2.8-0.8
		c-1.5,0-2.6,0.6-3.4,1.7S489.5,412.7,489.5,414.9z"/>
	<path class="st1" d="M506,406.9l0.1,2.7c0.6-1,1.3-1.7,2.2-2.2s1.9-0.8,2.9-0.8c1.7,0,3,0.5,3.8,1.4s1.2,2.4,1.3,4.3v10.4h-1.7
		v-10.4c0-1.4-0.3-2.5-0.9-3.2s-1.5-1-2.8-1c-1.1,0-2,0.3-2.9,1s-1.5,1.6-1.9,2.7v10.9h-1.7v-15.8H506z"/>
	<path class="st1" d="M536.6,422.7c-0.2-0.5-0.3-1.2-0.3-2.2c-0.6,0.8-1.4,1.4-2.4,1.9s-2,0.7-3,0.7c-1.5,0-2.8-0.4-3.7-1.3
		s-1.4-1.9-1.4-3.2c0-1.5,0.6-2.8,1.9-3.7s3.1-1.3,5.4-1.3h3.2v-1.8c0-1.1-0.3-2-1-2.7s-1.7-1-3.1-1c-1.2,0-2.2,0.3-3,0.9
		s-1.2,1.4-1.2,2.3h-1.8c0-1.3,0.6-2.4,1.8-3.3s2.6-1.4,4.3-1.4c1.8,0,3.2,0.4,4.2,1.3s1.5,2.1,1.6,3.7v7.5c0,1.5,0.2,2.7,0.5,3.4
		v0.2H536.6z M531.1,421.4c1.2,0,2.2-0.3,3.1-0.8s1.6-1.3,2-2.3v-3.5h-3.1c-1.7,0-3.1,0.3-4.1,1s-1.5,1.5-1.5,2.6
		c0,0.9,0.3,1.6,1,2.2S530.1,421.4,531.1,421.4z"/>
	<path class="st1" d="M561.2,414.9c0,2.5-0.5,4.4-1.6,5.9s-2.6,2.2-4.4,2.2c-2.2,0-3.8-0.8-5-2.3v8.1h-1.7v-21.9h1.6l0.1,2.2
		c1.1-1.7,2.8-2.5,5-2.5c1.9,0,3.4,0.7,4.5,2.2S561.3,412.2,561.2,414.9L561.2,414.9L561.2,414.9z M559.5,414.6c0-2-0.4-3.6-1.2-4.8
		s-2-1.8-3.5-1.8c-1.1,0-2,0.3-2.8,0.8s-1.4,1.3-1.8,2.3v7.6c0.4,0.9,1,1.6,1.8,2.1s1.7,0.7,2.8,0.7c1.5,0,2.6-0.6,3.4-1.8
		S559.5,416.9,559.5,414.6z"/>
	<path class="st1" d="M571.7,408.4c-0.4-0.1-0.8-0.1-1.2-0.1c-1.1,0-2,0.3-2.8,0.9s-1.3,1.5-1.6,2.7v10.9h-1.7V407h1.7v2.5
		c0.9-1.9,2.4-2.8,4.5-2.8c0.5,0,0.9,0.1,1.2,0.2L571.7,408.4z"/>
	<path class="st1" d="M572.4,414.5c0-1.5,0.3-2.9,0.9-4.1s1.4-2.2,2.5-2.8s2.3-1,3.7-1c2.1,0,3.8,0.7,5.1,2.2s2,3.4,2,5.9v0.4
		c0,1.5-0.3,2.9-0.9,4.1s-1.4,2.2-2.5,2.8s-2.3,1-3.7,1c-2.1,0-3.8-0.7-5.1-2.2s-2-3.4-2-5.9V414.5z M574.2,415
		c0,1.9,0.5,3.4,1.5,4.7s2.3,1.8,3.9,1.8c1.6,0,2.9-0.6,3.8-1.8s1.5-2.8,1.5-4.8v-0.3c0-1.2-0.2-2.3-0.7-3.3s-1.1-1.8-1.9-2.3
		s-1.7-0.8-2.8-0.8c-1.6,0-2.8,0.6-3.8,1.8s-1.5,2.8-1.5,4.8V415z"/>
	<path class="st1" d="M588.7,414.6c0-2.5,0.5-4.4,1.6-5.9s2.6-2.2,4.5-2.2c2.2,0,3.8,0.9,4.9,2.6l0.1-2.3h1.6v15.5
		c0,2-0.6,3.7-1.7,4.8s-2.7,1.8-4.6,1.8c-1.1,0-2.2-0.2-3.2-0.7s-1.8-1.1-2.4-2l1-1.1c1.2,1.5,2.7,2.3,4.4,2.3
		c1.5,0,2.6-0.4,3.4-1.3s1.2-2.1,1.3-3.6v-2c-1.1,1.6-2.8,2.3-4.9,2.3c-1.8,0-3.3-0.7-4.4-2.2s-1.7-3.4-1.7-5.9v-0.1L588.7,414.6
		L588.7,414.6z M590.5,414.9c0,2,0.4,3.6,1.2,4.8s2,1.8,3.4,1.8c2.2,0,3.7-1,4.6-2.9v-7.4c-0.4-1-1-1.8-1.8-2.3s-1.7-0.8-2.8-0.8
		c-1.5,0-2.6,0.6-3.4,1.7S590.5,412.7,590.5,414.9z"/>
	<path class="st1" d="M612.7,408.4c-0.4-0.1-0.8-0.1-1.2-0.1c-1.1,0-2,0.3-2.8,0.9s-1.3,1.5-1.6,2.7v10.9h-1.7V407h1.7v2.5
		c0.9-1.9,2.4-2.8,4.5-2.8c0.5,0,0.9,0.1,1.2,0.2L612.7,408.4z"/>
	<path class="st1" d="M624.1,422.7c-0.2-0.5-0.3-1.2-0.3-2.2c-0.6,0.8-1.4,1.4-2.4,1.9s-2,0.7-3,0.7c-1.5,0-2.8-0.4-3.7-1.3
		s-1.4-1.9-1.4-3.2c0-1.5,0.6-2.8,1.9-3.7s3.1-1.3,5.4-1.3h3.2v-1.8c0-1.1-0.3-2-1-2.7s-1.7-1-3.1-1c-1.2,0-2.2,0.3-3,0.9
		s-1.2,1.4-1.2,2.3h-1.8c0-1.3,0.6-2.4,1.8-3.3s2.6-1.4,4.3-1.4c1.8,0,3.2,0.4,4.2,1.3s1.5,2.1,1.6,3.7v7.5c0,1.5,0.2,2.7,0.5,3.4
		v0.2H624.1z M618.6,421.4c1.2,0,2.2-0.3,3.1-0.8s1.6-1.3,2-2.3v-3.5h-3.1c-1.7,0-3.1,0.3-4.1,1s-1.5,1.5-1.5,2.6
		c0,0.9,0.3,1.6,1,2.2S617.5,421.4,618.6,421.4z"/>
	<path class="st1" d="M631,406.9l0.1,2.6c0.6-1,1.3-1.7,2.2-2.2s1.9-0.7,2.9-0.7c2.5,0,4.1,1,4.8,3.1c0.6-1,1.3-1.7,2.3-2.3
		s2-0.8,3.1-0.8c3.4,0,5.1,1.9,5.2,5.6v10.6h-1.8v-10.4c0-1.4-0.3-2.5-0.9-3.1s-1.6-1-2.9-1c-1.3,0-2.3,0.4-3.2,1.2
		s-1.4,1.8-1.5,2.9v10.5h-1.8v-10.8c0-1.4-0.3-2.4-1-3s-1.6-1-2.9-1c-1.1,0-2.1,0.3-2.8,0.9s-1.4,1.6-1.8,2.8v10.9h-1.8v-15.8H631z"
		/>
	<path class="st1" d="M664.5,402.8v4.1h3.3v1.4h-3.3v10.6c0,0.9,0.2,1.5,0.5,2c0.3,0.4,0.8,0.6,1.6,0.6c0.3,0,0.8,0,1.4-0.1l0.1,1.4
		c-0.5,0.2-1.1,0.2-1.9,0.2c-1.2,0-2.1-0.3-2.6-1s-0.8-1.7-0.8-3.1v-10.6h-2.9v-1.4h2.9v-4.1H664.5z"/>
	<path class="st1" d="M672.4,409.5c0.6-0.9,1.3-1.7,2.2-2.2s1.9-0.8,2.9-0.8c1.7,0,3,0.5,3.8,1.4s1.2,2.4,1.3,4.3v10.4h-1.7v-10.4
		c0-1.4-0.3-2.5-0.9-3.2s-1.5-1-2.8-1c-1.1,0-2,0.3-2.9,1s-1.5,1.6-1.9,2.7v10.9h-1.7v-22.5h1.7L672.4,409.5L672.4,409.5z"/>
	<path class="st1" d="M696.4,422.7c-0.2-0.5-0.3-1.2-0.3-2.2c-0.6,0.8-1.4,1.4-2.4,1.9s-2,0.7-3,0.7c-1.5,0-2.8-0.4-3.7-1.3
		s-1.4-1.9-1.4-3.2c0-1.5,0.6-2.8,1.9-3.7s3.1-1.3,5.4-1.3h3.2v-1.8c0-1.1-0.3-2-1-2.7s-1.7-1-3.1-1c-1.2,0-2.2,0.3-3,0.9
		s-1.2,1.4-1.2,2.3H686c0-1.3,0.6-2.4,1.8-3.3s2.6-1.4,4.3-1.4c1.8,0,3.2,0.4,4.2,1.3s1.5,2.1,1.6,3.7v7.5c0,1.5,0.2,2.7,0.5,3.4
		v0.2H696.4z M690.9,421.4c1.2,0,2.2-0.3,3.1-0.8s1.6-1.3,2-2.3v-3.5h-3.1c-1.7,0-3.1,0.3-4.1,1s-1.5,1.5-1.5,2.6
		c0,0.9,0.3,1.6,1,2.2S689.8,421.4,690.9,421.4z"/>
	<path class="st1" d="M704.4,402.8v4.1h3.3v1.4h-3.3v10.6c0,0.9,0.2,1.5,0.5,2c0.3,0.4,0.8,0.6,1.6,0.6c0.3,0,0.8,0,1.4-0.1l0.1,1.4
		c-0.5,0.2-1.1,0.2-1.9,0.2c-1.2,0-2.1-0.3-2.6-1s-0.8-1.7-0.8-3.1v-10.6h-2.9v-1.4h2.9v-4.1H704.4z"/>
	<path class="st1" d="M721,419.1l0.3,1.4l0.4-1.4l3.8-12.1h1.5l3.8,12l0.4,1.7l0.3-1.5l3.3-12.2h1.8l-4.6,15.8h-1.5l-4.1-12.6
		l-0.2-0.9l-0.2,0.9l-4,12.6h-1.5l-4.6-15.8h1.8L721,419.1z"/>
	<path class="st1" d="M738.9,402.3c0-0.3,0.1-0.6,0.3-0.8c0.2-0.2,0.5-0.3,0.9-0.3s0.7,0.1,0.9,0.3c0.2,0.2,0.3,0.5,0.3,0.8
		s-0.1,0.6-0.3,0.8s-0.5,0.3-0.9,0.3s-0.7-0.1-0.9-0.3S738.9,402.6,738.9,402.3z M741,422.7h-1.8v-15.8h1.8V422.7z"/>
	<path class="st1" d="M747,422.7h-1.8v-22.5h1.8V422.7z"/>
	<path class="st1" d="M752.9,422.7h-1.8v-22.5h1.8V422.7z"/>
	<path class="st1" d="M776.2,414.9c0,2.5-0.5,4.4-1.6,5.9s-2.6,2.2-4.4,2.2c-2.2,0-3.8-0.8-5-2.3v8.1h-1.7v-21.9h1.6l0.1,2.2
		c1.1-1.7,2.8-2.5,5-2.5c1.9,0,3.4,0.7,4.5,2.2S776.3,412.2,776.2,414.9L776.2,414.9L776.2,414.9z M774.5,414.6c0-2-0.4-3.6-1.2-4.8
		s-2-1.8-3.5-1.8c-1.1,0-2,0.3-2.8,0.8s-1.4,1.3-1.8,2.3v7.6c0.4,0.9,1,1.6,1.8,2.1s1.7,0.7,2.8,0.7c1.5,0,2.6-0.6,3.4-1.8
		S774.5,416.9,774.5,414.6z"/>
	<path class="st1" d="M786.7,408.4c-0.4-0.1-0.8-0.1-1.2-0.1c-1.1,0-2,0.3-2.8,0.9s-1.3,1.5-1.6,2.7v10.9h-1.7V407h1.7v2.5
		c0.9-1.9,2.4-2.8,4.5-2.8c0.5,0,0.9,0.1,1.2,0.2L786.7,408.4z"/>
	<path class="st1" d="M787.4,414.5c0-1.5,0.3-2.9,0.9-4.1s1.4-2.2,2.5-2.8s2.3-1,3.7-1c2.1,0,3.8,0.7,5.1,2.2s2,3.4,2,5.9v0.4
		c0,1.5-0.3,2.9-0.9,4.1s-1.4,2.2-2.5,2.8s-2.3,1-3.7,1c-2.1,0-3.8-0.7-5.1-2.2s-2-3.4-2-5.9V414.5z M789.2,415
		c0,1.9,0.5,3.4,1.5,4.7s2.3,1.8,3.9,1.8c1.6,0,2.9-0.6,3.8-1.8s1.5-2.8,1.5-4.8v-0.3c0-1.2-0.2-2.3-0.7-3.3s-1.1-1.8-1.9-2.3
		s-1.7-0.8-2.8-0.8c-1.6,0-2.8,0.6-3.8,1.8s-1.5,2.8-1.5,4.8V415z"/>
	<path class="st1" d="M809.2,420.3l4.8-13.4h1.8l-5.9,15.8h-1.4l-5.9-15.8h1.8L809.2,420.3z"/>
	<path class="st1" d="M817.8,402.3c0-0.3,0.1-0.6,0.3-0.8c0.2-0.2,0.5-0.3,0.9-0.3s0.7,0.1,0.9,0.3c0.2,0.2,0.3,0.5,0.3,0.8
		s-0.1,0.6-0.3,0.8s-0.5,0.3-0.9,0.3s-0.7-0.1-0.9-0.3S817.8,402.6,817.8,402.3z M819.9,422.7h-1.8v-15.8h1.8V422.7z"/>
	<path class="st1" d="M823.2,414.6c0-2.5,0.5-4.4,1.6-5.9s2.6-2.2,4.5-2.2c2.1,0,3.8,0.8,4.9,2.5v-8.9h1.7v22.5h-1.6l-0.1-2.1
		c-1.1,1.6-2.8,2.4-5,2.4c-1.8,0-3.3-0.7-4.4-2.2S823.1,417.2,823.2,414.6L823.2,414.6L823.2,414.6z M825,414.9c0,2,0.4,3.6,1.2,4.8
		s2,1.8,3.4,1.8c2.2,0,3.7-1,4.6-2.9v-7.4c-0.9-2.1-2.4-3.1-4.6-3.1c-1.5,0-2.6,0.6-3.4,1.7S825,412.7,825,414.9z"/>
	<path class="st1" d="M846,423c-1.3,0-2.6-0.3-3.7-1s-1.9-1.6-2.5-2.8s-0.9-2.5-0.9-4v-0.6c0-1.5,0.3-2.9,0.9-4.1
		c0.6-1.2,1.4-2.2,2.5-2.9s2.2-1,3.4-1c1.9,0,3.5,0.7,4.6,2s1.7,3.1,1.7,5.4v1h-11.3v0.3c0,1.8,0.5,3.3,1.5,4.5s2.3,1.8,3.9,1.8
		c0.9,0,1.8-0.2,2.5-0.5s1.4-0.9,2-1.6l1.1,0.8C850.3,422.1,848.4,423,846,423z M845.6,408.1c-1.3,0-2.4,0.5-3.3,1.5
		s-1.5,2.3-1.6,3.9h9.5v-0.2c0-1.5-0.5-2.8-1.3-3.7S847,408.1,845.6,408.1z"/>
	<path class="st1" d="M863.8,402.8v4.1h3.3v1.4h-3.3v10.6c0,0.9,0.2,1.5,0.5,2c0.3,0.4,0.8,0.6,1.6,0.6c0.3,0,0.8,0,1.4-0.1l0.1,1.4
		c-0.5,0.2-1.1,0.2-1.9,0.2c-1.2,0-2.1-0.3-2.6-1s-0.8-1.7-0.8-3.1v-10.6h-2.9v-1.4h2.9v-4.1H863.8z"/>
	<path class="st1" d="M871.7,409.5c0.6-0.9,1.3-1.7,2.2-2.2s1.9-0.8,2.9-0.8c1.7,0,3,0.5,3.8,1.4s1.2,2.4,1.3,4.3v10.4h-1.7v-10.4
		c0-1.4-0.3-2.5-0.9-3.2s-1.5-1-2.8-1c-1.1,0-2,0.3-2.9,1c-0.8,0.7-1.5,1.6-1.9,2.7v10.9H870v-22.5h1.7V409.5z"/>
	<path class="st1" d="M891.9,423c-1.3,0-2.6-0.3-3.7-1s-1.9-1.6-2.5-2.8s-0.9-2.5-0.9-4v-0.6c0-1.5,0.3-2.9,0.9-4.1
		c0.6-1.2,1.4-2.2,2.5-2.9s2.2-1,3.4-1c1.9,0,3.5,0.7,4.6,2s1.7,3.1,1.7,5.4v1h-11.3v0.3c0,1.8,0.5,3.3,1.5,4.5s2.3,1.8,3.9,1.8
		c0.9,0,1.8-0.2,2.5-0.5s1.4-0.9,2-1.6l1.1,0.8C896.2,422.1,894.3,423,891.9,423z M891.5,408.1c-1.3,0-2.4,0.5-3.3,1.5
		s-1.5,2.3-1.6,3.9h9.5v-0.2c0-1.5-0.5-2.8-1.3-3.7S892.9,408.1,891.5,408.1z"/>
	<path class="st1" d="M900.4,402.3c0-0.3,0.1-0.6,0.3-0.8c0.2-0.2,0.5-0.3,0.9-0.3s0.7,0.1,0.9,0.3c0.2,0.2,0.3,0.5,0.3,0.8
		s-0.1,0.6-0.3,0.8c-0.2,0.2-0.5,0.3-0.9,0.3s-0.7-0.1-0.9-0.3S900.4,402.6,900.4,402.3z M902.4,422.7h-1.8v-15.8h1.8V422.7z"/>
	<path class="st1" d="M913.8,408.4c-0.4-0.1-0.8-0.1-1.2-0.1c-1.1,0-2,0.3-2.8,0.9s-1.3,1.5-1.6,2.7v10.9h-1.7V407h1.7v2.5
		c0.9-1.9,2.4-2.8,4.5-2.8c0.5,0,0.9,0.1,1.2,0.2L913.8,408.4z"/>
	<path class="st1" d="M931.8,418.7c0-0.9-0.3-1.6-1-2.1s-1.8-0.9-3.2-1.2s-2.5-0.6-3.3-1s-1.4-0.9-1.7-1.4s-0.6-1.2-0.6-2
		c0-1.2,0.5-2.3,1.6-3.1s2.4-1.2,4-1.2c1.8,0,3.2,0.4,4.3,1.3s1.6,2,1.6,3.4h-1.8c0-0.9-0.4-1.7-1.2-2.3c-0.8-0.6-1.8-0.9-2.9-0.9
		c-1.2,0-2.1,0.3-2.8,0.8s-1,1.2-1,2s0.3,1.4,0.9,1.8c0.6,0.4,1.6,0.8,3.2,1.2c1.5,0.4,2.7,0.7,3.5,1.2s1.3,0.9,1.7,1.5
		s0.6,1.3,0.6,2.1c0,1.3-0.5,2.4-1.6,3.2s-2.5,1.2-4.2,1.2c-1.8,0-3.3-0.4-4.5-1.3c-1.1-0.9-1.7-2-1.7-3.4h1.8
		c0.1,1,0.5,1.8,1.3,2.4s1.8,0.9,3.2,0.9c1.2,0,2.2-0.3,3-0.8S931.8,419.5,931.8,418.7z"/>
	<path class="st1" d="M939.5,402.8v4.1h3.3v1.4h-3.3v10.6c0,0.9,0.2,1.5,0.5,2c0.3,0.4,0.8,0.6,1.6,0.6c0.3,0,0.8,0,1.4-0.1l0.1,1.4
		c-0.5,0.2-1.1,0.2-1.9,0.2c-1.2,0-2.1-0.3-2.6-1s-0.8-1.7-0.8-3.1v-10.6h-2.9v-1.4h2.9v-4.1H939.5z"/>
	<path class="st1" d="M955.8,420.7c-1.1,1.5-2.7,2.3-5.1,2.3c-1.7,0-3-0.5-3.9-1.5s-1.3-2.4-1.3-4.4v-10.3h1.7v10.1
		c0,3,1.2,4.5,3.7,4.5s4.1-1,4.8-3.1v-11.5h1.8v15.8h-1.7V420.7z"/>
	<path class="st1" d="M960.7,414.6c0-2.5,0.5-4.4,1.6-5.9s2.6-2.2,4.5-2.2c2.1,0,3.8,0.8,4.9,2.5v-8.9h1.7v22.5h-1.6l-0.1-2.1
		c-1.1,1.6-2.8,2.4-5,2.4c-1.8,0-3.3-0.7-4.4-2.2S960.6,417.2,960.7,414.6L960.7,414.6L960.7,414.6z M962.5,414.9
		c0,2,0.4,3.6,1.2,4.8s2,1.8,3.4,1.8c2.2,0,3.7-1,4.6-2.9v-7.4c-0.9-2.1-2.4-3.1-4.6-3.1c-1.5,0-2.6,0.6-3.4,1.7
		S962.5,412.7,962.5,414.9z"/>
	<path class="st1" d="M983.4,423c-1.3,0-2.6-0.3-3.7-1s-1.9-1.6-2.5-2.8s-0.9-2.5-0.9-4v-0.6c0-1.5,0.3-2.9,0.9-4.1
		c0.6-1.2,1.4-2.2,2.5-2.9s2.2-1,3.4-1c1.9,0,3.5,0.7,4.6,2s1.7,3.1,1.7,5.4v1h-11.3v0.3c0,1.8,0.5,3.3,1.5,4.5s2.3,1.8,3.9,1.8
		c0.9,0,1.8-0.2,2.5-0.5s1.4-0.9,2-1.6l1.1,0.8C987.8,422.1,985.9,423,983.4,423z M983.1,408.1c-1.3,0-2.4,0.5-3.3,1.5
		s-1.5,2.3-1.6,3.9h9.5v-0.2c0-1.5-0.5-2.8-1.3-3.7S984.4,408.1,983.1,408.1z"/>
	<path class="st1" d="M993.7,406.9l0.1,2.7c0.6-1,1.3-1.7,2.2-2.2s1.9-0.8,2.9-0.8c1.7,0,3,0.5,3.8,1.4s1.2,2.4,1.3,4.3v10.4h-1.7
		v-10.4c0-1.4-0.3-2.5-0.9-3.2s-1.5-1-2.8-1c-1.1,0-2,0.3-2.9,1c-0.8,0.7-1.5,1.6-1.9,2.7v10.9h-1.7v-15.8H993.7z"/>
	<path class="st1" d="M1010.5,402.8v4.1h3.3v1.4h-3.3v10.6c0,0.9,0.2,1.5,0.5,2c0.3,0.4,0.8,0.6,1.6,0.6c0.3,0,0.8,0,1.4-0.1
		l0.1,1.4c-0.5,0.2-1.1,0.2-1.9,0.2c-1.2,0-2.1-0.3-2.6-1s-0.8-1.7-0.8-3.1v-10.6h-2.9v-1.4h2.9v-4.1H1010.5z"/>
	<path class="st1" d="M1026.2,418.7c0-0.9-0.3-1.6-1-2.1s-1.8-0.9-3.2-1.2s-2.5-0.6-3.3-1s-1.4-0.9-1.7-1.4s-0.6-1.2-0.6-2
		c0-1.2,0.5-2.3,1.6-3.1s2.4-1.2,4-1.2c1.8,0,3.2,0.4,4.3,1.3s1.6,2,1.6,3.4h-1.8c0-0.9-0.4-1.7-1.2-2.3c-0.8-0.6-1.8-0.9-2.9-0.9
		c-1.2,0-2.1,0.3-2.8,0.8s-1,1.2-1,2s0.3,1.4,0.9,1.8c0.6,0.4,1.6,0.8,3.2,1.2c1.5,0.4,2.7,0.7,3.5,1.2s1.3,0.9,1.7,1.5
		s0.6,1.3,0.6,2.1c0,1.3-0.5,2.4-1.6,3.2s-2.5,1.2-4.2,1.2c-1.8,0-3.3-0.4-4.5-1.3c-1.1-0.9-1.7-2-1.7-3.4h1.8
		c0.1,1,0.5,1.8,1.3,2.4s1.8,0.9,3.2,0.9c1.2,0,2.2-0.3,3-0.8S1026.2,419.5,1026.2,418.7z"/>
	<path class="st1" d="M201,455.1l0.3,1.4l0.4-1.4l3.8-12.1h1.5l3.8,12l0.4,1.7l0.3-1.5l3.3-12.2h1.8l-4.6,15.8h-1.5l-4.1-12.6
		l-0.2-0.9l-0.2,0.9l-4,12.6h-1.5l-4.6-15.8h1.8L201,455.1z"/>
	<path class="st1" d="M218.9,438.3c0-0.3,0.1-0.6,0.3-0.8s0.5-0.3,0.9-0.3s0.7,0.1,0.9,0.3s0.3,0.5,0.3,0.8s-0.1,0.6-0.3,0.8
		s-0.5,0.3-0.9,0.3s-0.7-0.1-0.9-0.3S218.9,438.6,218.9,438.3z M221,458.7h-1.8v-15.8h1.8V458.7z"/>
	<path class="st1" d="M227.7,438.8v4.1h3.3v1.4h-3.3v10.6c0,0.9,0.2,1.5,0.5,2c0.3,0.4,0.8,0.6,1.6,0.6c0.3,0,0.8,0,1.4-0.1l0.1,1.4
		c-0.5,0.2-1.1,0.2-1.9,0.2c-1.2,0-2.1-0.3-2.6-1s-0.8-1.7-0.8-3.1v-10.6h-2.9v-1.4h2.9v-4.1L227.7,438.8L227.7,438.8z"/>
	<path class="st1" d="M235.7,445.5c0.6-0.9,1.3-1.7,2.2-2.2s1.9-0.8,2.9-0.8c1.7,0,3,0.5,3.8,1.4s1.2,2.4,1.3,4.3v10.4h-1.7v-10.4
		c0-1.4-0.3-2.5-0.9-3.2s-1.5-1-2.8-1c-1.1,0-2,0.3-2.9,1s-1.5,1.6-1.9,2.7v10.9H234v-22.5h1.7V445.5L235.7,445.5z"/>
	<path class="st1" d="M258.1,458.7h-1.8v-22.5h1.8V458.7z"/>
	<path class="st1" d="M261.2,450.5c0-1.5,0.3-2.9,0.9-4.1c0.6-1.2,1.4-2.2,2.5-2.8s2.3-1,3.7-1c2.1,0,3.8,0.7,5.1,2.2s2,3.4,2,5.9
		v0.4c0,1.5-0.3,2.9-0.9,4.1s-1.4,2.2-2.5,2.8s-2.3,1-3.7,1c-2.1,0-3.8-0.7-5.1-2.2s-2-3.4-2-5.9V450.5z M262.9,451
		c0,1.9,0.5,3.4,1.5,4.7s2.3,1.8,3.9,1.8s2.9-0.6,3.8-1.8s1.5-2.8,1.5-4.8v-0.3c0-1.2-0.2-2.3-0.7-3.3s-1.1-1.8-1.9-2.3
		s-1.7-0.8-2.8-0.8c-1.6,0-2.8,0.6-3.8,1.8s-1.5,2.8-1.5,4.8V451z"/>
	<path class="st1" d="M277.5,450.6c0-2.5,0.5-4.4,1.6-5.9s2.6-2.2,4.5-2.2c2.2,0,3.8,0.9,4.9,2.6l0.1-2.3h1.6v15.5
		c0,2-0.6,3.7-1.7,4.8s-2.7,1.8-4.6,1.8c-1.1,0-2.2-0.2-3.2-0.7s-1.8-1.1-2.4-2l1-1.1c1.2,1.5,2.7,2.3,4.4,2.3
		c1.5,0,2.6-0.4,3.4-1.3s1.2-2.1,1.3-3.6v-2c-1.1,1.6-2.8,2.3-4.9,2.3c-1.8,0-3.3-0.7-4.4-2.2s-1.7-3.4-1.7-5.9v-0.1L277.5,450.6
		L277.5,450.6z M279.3,450.9c0,2,0.4,3.6,1.2,4.8c0.8,1.2,2,1.8,3.4,1.8c2.2,0,3.7-1,4.6-2.9v-7.4c-0.4-1-1-1.8-1.8-2.3
		s-1.7-0.8-2.8-0.8c-1.5,0-2.6,0.6-3.4,1.7C279.7,446.9,279.3,448.7,279.3,450.9z"/>
	<path class="st1" d="M294,438.3c0-0.3,0.1-0.6,0.3-0.8c0.2-0.2,0.5-0.3,0.9-0.3s0.7,0.1,0.9,0.3c0.2,0.2,0.3,0.5,0.3,0.8
		s-0.1,0.6-0.3,0.8c-0.2,0.2-0.5,0.3-0.9,0.3s-0.7-0.1-0.9-0.3S294,438.6,294,438.3z M296.1,458.7h-1.8v-15.8h1.8V458.7z"/>
	<path class="st1" d="M305.9,457.5c1.2,0,2.2-0.3,3.1-1s1.3-1.6,1.3-2.7h1.7c0,1-0.4,1.8-0.9,2.6s-1.3,1.4-2.2,1.9s-1.9,0.7-3,0.7
		c-2.1,0-3.7-0.7-4.9-2.2s-1.8-3.4-1.8-5.8v-0.5c0-1.6,0.3-2.9,0.8-4.1c0.5-1.2,1.3-2.1,2.4-2.8s2.2-1,3.6-1c1.7,0,3.2,0.5,4.3,1.6
		s1.7,2.4,1.8,4.1h-1.7c-0.1-1.2-0.5-2.2-1.3-3s-1.8-1.1-3.1-1.1c-1.6,0-2.8,0.6-3.7,1.7c-0.9,1.1-1.3,2.7-1.3,4.8v0.5
		c0,2,0.4,3.6,1.3,4.7S304.3,457.5,305.9,457.5z"/>
	<path class="st1" d="M324.8,458.7c-0.2-0.5-0.3-1.2-0.3-2.2c-0.6,0.8-1.4,1.4-2.4,1.9s-2,0.7-3,0.7c-1.5,0-2.8-0.4-3.7-1.3
		c-0.9-0.9-1.4-1.9-1.4-3.2c0-1.5,0.6-2.8,1.9-3.7s3.1-1.3,5.4-1.3h3.2v-1.8c0-1.1-0.3-2-1-2.7s-1.7-1-3.1-1c-1.2,0-2.2,0.3-3,0.9
		c-0.8,0.6-1.2,1.4-1.2,2.3h-1.8c0-1.3,0.6-2.4,1.8-3.3c1.2-0.9,2.6-1.4,4.3-1.4c1.8,0,3.2,0.4,4.2,1.3s1.5,2.1,1.6,3.7v7.5
		c0,1.5,0.2,2.7,0.5,3.4v0.2L324.8,458.7L324.8,458.7z M319.3,457.4c1.2,0,2.2-0.3,3.1-0.8s1.6-1.3,2-2.3v-3.5h-3.1
		c-1.7,0-3.1,0.3-4.1,1s-1.5,1.5-1.5,2.6c0,0.9,0.3,1.6,1,2.2S318.2,457.4,319.3,457.4z"/>
	<path class="st1" d="M332,458.7h-1.8v-22.5h1.8V458.7z"/>
	<path class="st1" d="M355.1,453.5c0-1.2-0.4-2.1-1.2-2.8s-2.3-1.3-4.6-2s-3.8-1.3-4.8-2c-1.4-1-2.2-2.4-2.2-4.1c0-1.6,0.7-3,2-4
		s3.1-1.5,5.1-1.5c1.4,0,2.7,0.3,3.8,0.8s2,1.3,2.6,2.3s0.9,2.1,0.9,3.3H355c0-1.5-0.5-2.6-1.5-3.5s-2.3-1.3-4-1.3
		c-1.6,0-2.9,0.4-3.9,1.1s-1.5,1.7-1.5,2.9c0,1.1,0.4,2,1.3,2.7s2.3,1.3,4.2,1.8c1.9,0.5,3.4,1.1,4.4,1.6s1.7,1.2,2.2,2
		s0.7,1.7,0.7,2.8c0,1.7-0.7,3-2,4s-3.1,1.5-5.3,1.5c-1.5,0-2.9-0.3-4.1-0.8s-2.2-1.3-2.9-2.3s-1-2.1-1-3.3h1.8
		c0,1.5,0.6,2.7,1.7,3.6c1.1,0.9,2.6,1.3,4.5,1.3c1.7,0,3-0.4,4-1.1S355.1,454.7,355.1,453.5z"/>
	<path class="st1" d="M374.5,438.9h-7.3v19.8h-1.8v-19.8h-7.3v-1.5h16.4L374.5,438.9L374.5,438.9z"/>
	<path class="st1" d="M389,448.5h-10v8.7h11.5v1.5h-13.3v-21.3h13.2v1.5H379v8.1h10V448.5z"/>
	<path class="st1" d="M395.9,437.4l7.9,18.8l7.9-18.8h2.4v21.3h-1.8v-9.3l0.1-9.5l-7.9,18.8h-1.4l-7.9-18.7l0.1,9.4v9.3h-1.8v-21.3
		H395.9L395.9,437.4z"/>
	<path class="st1" d="M434.3,454.7c0-0.9-0.3-1.6-1-2.1s-1.8-0.9-3.2-1.2c-1.4-0.3-2.5-0.6-3.3-1s-1.4-0.9-1.7-1.4s-0.6-1.2-0.6-2
		c0-1.2,0.5-2.3,1.6-3.1s2.4-1.2,4-1.2c1.8,0,3.2,0.4,4.3,1.3c1.1,0.9,1.6,2,1.6,3.4h-1.8c0-0.9-0.4-1.7-1.2-2.3s-1.8-0.9-2.9-0.9
		c-1.2,0-2.1,0.3-2.8,0.8s-1,1.2-1,2s0.3,1.4,0.9,1.8s1.6,0.8,3.2,1.2s2.7,0.7,3.5,1.2s1.3,0.9,1.7,1.5c0.4,0.6,0.6,1.3,0.6,2.1
		c0,1.3-0.5,2.4-1.6,3.2s-2.5,1.2-4.2,1.2c-1.8,0-3.3-0.4-4.5-1.3s-1.7-2-1.7-3.4h1.8c0.1,1,0.5,1.8,1.3,2.4s1.8,0.9,3.2,0.9
		c1.2,0,2.2-0.3,3-0.8S434.3,455.5,434.3,454.7z"/>
	<path class="st1" d="M445.4,459c-1.3,0-2.6-0.3-3.7-1s-1.9-1.6-2.5-2.8s-0.9-2.5-0.9-4v-0.6c0-1.5,0.3-2.9,0.9-4.1
		c0.6-1.2,1.4-2.2,2.5-2.9s2.2-1,3.4-1c1.9,0,3.4,0.7,4.6,2s1.7,3.1,1.7,5.4v1h-11.3v0.3c0,1.8,0.5,3.3,1.5,4.5s2.3,1.8,3.9,1.8
		c0.9,0,1.8-0.2,2.5-0.5s1.4-0.9,2-1.6l1.1,0.8C449.8,458.1,447.9,459,445.4,459z M445.1,444.1c-1.3,0-2.4,0.5-3.3,1.5
		s-1.5,2.3-1.6,3.9h9.5v-0.2c0-1.5-0.5-2.8-1.3-3.7S446.4,444.1,445.1,444.1z"/>
	<path class="st1" d="M453.3,450.6c0-2.5,0.5-4.4,1.6-5.9s2.6-2.2,4.5-2.2c2.1,0,3.8,0.8,4.9,2.4l0.1-2.2h1.6v21.9h-1.8v-8.1
		c-1.2,1.5-2.8,2.3-4.9,2.3c-1.9,0-3.3-0.7-4.5-2.2s-1.7-3.4-1.7-5.9v-0.1H453.3L453.3,450.6z M455.1,450.9c0,2.1,0.4,3.7,1.2,4.8
		s2,1.8,3.4,1.8c2.1,0,3.6-0.9,4.6-2.7V447c-0.4-0.9-1-1.7-1.8-2.2s-1.7-0.8-2.7-0.8c-1.5,0-2.6,0.6-3.5,1.8
		S455.1,448.7,455.1,450.9z"/>
	<path class="st1" d="M480.2,456.7c-1.1,1.5-2.7,2.3-5.1,2.3c-1.7,0-3-0.5-3.9-1.5s-1.3-2.4-1.3-4.4v-10.3h1.7v10.1
		c0,3,1.2,4.5,3.7,4.5s4.1-1,4.8-3.1v-11.5h1.8v15.8h-1.7V456.7z"/>
	<path class="st1" d="M491.9,459c-1.3,0-2.6-0.3-3.7-1s-1.9-1.6-2.5-2.8s-0.9-2.5-0.9-4v-0.6c0-1.5,0.3-2.9,0.9-4.1
		c0.6-1.2,1.4-2.2,2.5-2.9s2.2-1,3.4-1c1.9,0,3.4,0.7,4.6,2s1.7,3.1,1.7,5.4v1h-11.3v0.3c0,1.8,0.5,3.3,1.5,4.5s2.3,1.8,3.9,1.8
		c0.9,0,1.8-0.2,2.5-0.5s1.4-0.9,2-1.6l1.1,0.8C496.2,458.1,494.3,459,491.9,459z M491.6,444.1c-1.3,0-2.4,0.5-3.3,1.5
		s-1.5,2.3-1.6,3.9h9.5v-0.2c0-1.5-0.5-2.8-1.3-3.7S492.9,444.1,491.6,444.1z"/>
	<path class="st1" d="M502.2,442.9l0.1,2.7c0.6-1,1.3-1.7,2.2-2.2s1.9-0.8,2.9-0.8c1.7,0,3,0.5,3.8,1.4s1.2,2.4,1.3,4.3v10.4h-1.7
		v-10.4c0-1.4-0.3-2.5-0.9-3.2s-1.5-1-2.8-1c-1.1,0-2,0.3-2.9,1s-1.5,1.6-1.9,2.7v10.9h-1.7v-15.8L502.2,442.9L502.2,442.9z"/>
	<path class="st1" d="M522.1,457.5c1.2,0,2.2-0.3,3.1-1s1.3-1.6,1.3-2.7h1.7c0,1-0.4,1.8-0.9,2.6s-1.3,1.4-2.2,1.9s-1.9,0.7-3,0.7
		c-2.1,0-3.7-0.7-4.9-2.2s-1.8-3.4-1.8-5.8v-0.5c0-1.6,0.3-2.9,0.8-4.1c0.5-1.2,1.3-2.1,2.4-2.8c1.1-0.7,2.2-1,3.6-1
		c1.7,0,3.2,0.5,4.3,1.6s1.7,2.4,1.8,4.1h-1.7c-0.1-1.2-0.5-2.2-1.3-3s-1.8-1.1-3.1-1.1c-1.6,0-2.8,0.6-3.7,1.7
		c-0.9,1.1-1.3,2.7-1.3,4.8v0.5c0,2,0.4,3.6,1.3,4.7S520.5,457.5,522.1,457.5z"/>
	<path class="st1" d="M537.1,459c-1.3,0-2.6-0.3-3.7-1s-1.9-1.6-2.5-2.8s-0.9-2.5-0.9-4v-0.6c0-1.5,0.3-2.9,0.9-4.1
		c0.6-1.2,1.4-2.2,2.5-2.9s2.2-1,3.4-1c1.9,0,3.4,0.7,4.6,2s1.7,3.1,1.7,5.4v1h-11.3v0.3c0,1.8,0.5,3.3,1.5,4.5s2.3,1.8,3.9,1.8
		c0.9,0,1.8-0.2,2.5-0.5s1.4-0.9,2-1.6l1.1,0.8C541.4,458.1,539.5,459,537.1,459z M536.7,444.1c-1.3,0-2.4,0.5-3.3,1.5
		s-1.5,2.3-1.6,3.9h9.5v-0.2c0-1.5-0.5-2.8-1.3-3.7S538.1,444.1,536.7,444.1z"/>
	<path class="st1" d="M555.2,454.7c0-0.9-0.3-1.6-1-2.1s-1.8-0.9-3.2-1.2s-2.5-0.6-3.3-1s-1.4-0.9-1.7-1.4s-0.6-1.2-0.6-2
		c0-1.2,0.5-2.3,1.6-3.1s2.4-1.2,4-1.2c1.8,0,3.2,0.4,4.3,1.3c1.1,0.9,1.6,2,1.6,3.4h-1.8c0-0.9-0.4-1.7-1.2-2.3s-1.8-0.9-2.9-0.9
		c-1.2,0-2.1,0.3-2.8,0.8s-1,1.2-1,2s0.3,1.4,0.9,1.8c0.6,0.4,1.6,0.8,3.2,1.2s2.7,0.7,3.5,1.2s1.3,0.9,1.7,1.5s0.6,1.3,0.6,2.1
		c0,1.3-0.5,2.4-1.6,3.2s-2.5,1.2-4.2,1.2c-1.8,0-3.3-0.4-4.5-1.3s-1.7-2-1.7-3.4h1.8c0.1,1,0.5,1.8,1.3,2.4s1.8,0.9,3.2,0.9
		c1.2,0,2.2-0.3,3-0.8S555.2,455.5,555.2,454.7z"/>
	<path class="st1" d="M569.4,438.8v4.1h3.3v1.4h-3.3v10.6c0,0.9,0.2,1.5,0.5,2c0.3,0.4,0.8,0.6,1.6,0.6c0.3,0,0.8,0,1.4-0.1l0.1,1.4
		c-0.5,0.2-1.1,0.2-1.9,0.2c-1.2,0-2.1-0.3-2.6-1s-0.8-1.7-0.8-3.1v-10.6h-2.9v-1.4h2.9v-4.1L569.4,438.8L569.4,438.8z"/>
	<path class="st1" d="M577.3,445.5c0.6-0.9,1.3-1.7,2.2-2.2s1.9-0.8,2.9-0.8c1.7,0,3,0.5,3.8,1.4s1.2,2.4,1.3,4.3v10.4h-1.7v-10.4
		c0-1.4-0.3-2.5-0.9-3.2s-1.5-1-2.8-1c-1.1,0-2,0.3-2.9,1s-1.5,1.6-1.9,2.7v10.9h-1.7v-22.5h1.7L577.3,445.5L577.3,445.5z"/>
	<path class="st1" d="M601.3,458.7c-0.2-0.5-0.3-1.2-0.3-2.2c-0.6,0.8-1.4,1.4-2.4,1.9s-2,0.7-3,0.7c-1.5,0-2.8-0.4-3.7-1.3
		c-0.9-0.9-1.4-1.9-1.4-3.2c0-1.5,0.6-2.8,1.9-3.7s3.1-1.3,5.4-1.3h3.2v-1.8c0-1.1-0.3-2-1-2.7s-1.7-1-3.1-1c-1.2,0-2.2,0.3-3,0.9
		c-0.8,0.6-1.2,1.4-1.2,2.3h-1.8c0-1.3,0.6-2.4,1.8-3.3c1.2-0.9,2.6-1.4,4.3-1.4c1.8,0,3.2,0.4,4.2,1.3s1.5,2.1,1.6,3.7v7.5
		c0,1.5,0.2,2.7,0.5,3.4v0.2L601.3,458.7L601.3,458.7z M595.8,457.4c1.2,0,2.2-0.3,3.1-0.8s1.6-1.3,2-2.3v-3.5h-3.1
		c-1.7,0-3.1,0.3-4.1,1s-1.5,1.5-1.5,2.6c0,0.9,0.3,1.6,1,2.2S594.7,457.4,595.8,457.4z"/>
	<path class="st1" d="M609.3,438.8v4.1h3.3v1.4h-3.3v10.6c0,0.9,0.2,1.5,0.5,2c0.3,0.4,0.8,0.6,1.6,0.6c0.3,0,0.8,0,1.4-0.1l0.1,1.4
		c-0.5,0.2-1.1,0.2-1.9,0.2c-1.2,0-2.1-0.3-2.6-1s-0.8-1.7-0.8-3.1v-10.6h-2.9v-1.4h2.9v-4.1L609.3,438.8L609.3,438.8z"/>
	<path class="st1" d="M628.2,459c-1.3,0-2.6-0.3-3.7-1s-1.9-1.6-2.5-2.8s-0.9-2.5-0.9-4v-0.6c0-1.5,0.3-2.9,0.9-4.1
		c0.6-1.2,1.4-2.2,2.5-2.9s2.2-1,3.4-1c1.9,0,3.4,0.7,4.6,2s1.7,3.1,1.7,5.4v1h-11.3v0.3c0,1.8,0.5,3.3,1.5,4.5s2.3,1.8,3.9,1.8
		c0.9,0,1.8-0.2,2.5-0.5s1.4-0.9,2-1.6l1.1,0.8C632.5,458.1,630.6,459,628.2,459z M627.8,444.1c-1.3,0-2.4,0.5-3.3,1.5
		s-1.5,2.3-1.6,3.9h9.5v-0.2c0-1.5-0.5-2.8-1.3-3.7S629.2,444.1,627.8,444.1z"/>
	<path class="st1" d="M638,458.7v-14.4h-2.6v-1.4h2.6V441c0-1.6,0.4-2.9,1.2-3.7s2-1.3,3.4-1.3c0.7,0,1.3,0.1,1.9,0.2l-0.1,1.5
		c-0.5-0.1-1-0.2-1.6-0.2c-1,0-1.7,0.3-2.3,0.9c-0.5,0.6-0.8,1.5-0.8,2.6v2h3.8v1.4h-3.8v14.4L638,458.7L638,458.7z"/>
	<path class="st1" d="M647.2,458.7v-14.4h-2.6v-1.4h2.6V441c0-1.6,0.4-2.9,1.2-3.7s2-1.3,3.4-1.3c0.7,0,1.3,0.1,1.9,0.2l-0.1,1.5
		c-0.5-0.1-1-0.2-1.6-0.2c-1,0-1.7,0.3-2.3,0.9c-0.5,0.6-0.8,1.5-0.8,2.6v2h3.8v1.4H649v14.4L647.2,458.7L647.2,458.7z"/>
	<path class="st1" d="M660.9,459c-1.3,0-2.6-0.3-3.7-1s-1.9-1.6-2.5-2.8s-0.9-2.5-0.9-4v-0.6c0-1.5,0.3-2.9,0.9-4.1
		c0.6-1.2,1.4-2.2,2.5-2.9s2.2-1,3.4-1c1.9,0,3.4,0.7,4.6,2s1.7,3.1,1.7,5.4v1h-11.3v0.3c0,1.8,0.5,3.3,1.5,4.5s2.3,1.8,3.9,1.8
		c0.9,0,1.8-0.2,2.5-0.5s1.4-0.9,2-1.6l1.1,0.8C665.2,458.1,663.4,459,660.9,459z M660.6,444.1c-1.3,0-2.4,0.5-3.3,1.5
		s-1.5,2.3-1.6,3.9h9.5v-0.2c0-1.5-0.5-2.8-1.3-3.7S661.9,444.1,660.6,444.1z"/>
	<path class="st1" d="M675.4,457.5c1.2,0,2.2-0.3,3.1-1s1.3-1.6,1.3-2.7h1.7c0,1-0.4,1.8-0.9,2.6s-1.3,1.4-2.2,1.9s-1.9,0.7-3,0.7
		c-2.1,0-3.7-0.7-4.9-2.2s-1.8-3.4-1.8-5.8v-0.5c0-1.6,0.3-2.9,0.8-4.1c0.5-1.2,1.3-2.1,2.4-2.8c1.1-0.7,2.2-1,3.6-1
		c1.7,0,3.2,0.5,4.3,1.6s1.7,2.4,1.8,4.1h-1.7c-0.1-1.2-0.5-2.2-1.3-3s-1.8-1.1-3.1-1.1c-1.6,0-2.8,0.6-3.7,1.7
		c-0.9,1.1-1.3,2.7-1.3,4.8v0.5c0,2,0.4,3.6,1.3,4.7S673.8,457.5,675.4,457.5z"/>
	<path class="st1" d="M687,438.8v4.1h3.3v1.4H687v10.6c0,0.9,0.2,1.5,0.5,2c0.3,0.4,0.8,0.6,1.6,0.6c0.3,0,0.8,0,1.4-0.1l0.1,1.4
		c-0.5,0.2-1.1,0.2-1.9,0.2c-1.2,0-2.1-0.3-2.6-1s-0.8-1.7-0.8-3.1v-10.6h-2.9v-1.4h2.9v-4.1L687,438.8L687,438.8z"/>
	<path class="st1" d="M693,438.3c0-0.3,0.1-0.6,0.3-0.8s0.5-0.3,0.9-0.3s0.7,0.1,0.9,0.3s0.3,0.5,0.3,0.8s-0.1,0.6-0.3,0.8
		s-0.5,0.3-0.9,0.3s-0.7-0.1-0.9-0.3S693,438.6,693,438.3z M695.1,458.7h-1.8v-15.8h1.8V458.7z"/>
	<path class="st1" d="M704,456.3l4.8-13.4h1.8l-5.9,15.8h-1.4l-5.9-15.8h1.8L704,456.3z"/>
	<path class="st1" d="M718.7,459c-1.3,0-2.6-0.3-3.7-1s-1.9-1.6-2.5-2.8s-0.9-2.5-0.9-4v-0.6c0-1.5,0.3-2.9,0.9-4.1
		c0.6-1.2,1.4-2.2,2.5-2.9s2.2-1,3.4-1c1.9,0,3.4,0.7,4.6,2s1.7,3.1,1.7,5.4v1h-11.3v0.3c0,1.8,0.5,3.3,1.5,4.5s2.3,1.8,3.9,1.8
		c0.9,0,1.8-0.2,2.5-0.5s1.4-0.9,2-1.6l1.1,0.8C723,458.1,721.2,459,718.7,459z M718.4,444.1c-1.3,0-2.4,0.5-3.3,1.5
		s-1.5,2.3-1.6,3.9h9.5v-0.2c0-1.5-0.5-2.8-1.3-3.7S719.7,444.1,718.4,444.1z"/>
	<path class="st1" d="M729.3,458.7h-1.8v-22.5h1.8V458.7z"/>
	<path class="st1" d="M738.3,456.2l4.6-13.3h1.9l-6.8,18.5l-0.4,0.8c-0.9,1.9-2.2,2.9-4,2.9c-0.4,0-0.9-0.1-1.3-0.2v-1.5l0.9,0.1
		c0.9,0,1.6-0.2,2.1-0.6c0.5-0.4,1-1.2,1.4-2.2l0.8-2.1l-6-15.7h1.9L738.3,456.2z"/>
	<path class="st1" d="M762.8,454.7c0-0.9-0.3-1.6-1-2.1s-1.8-0.9-3.2-1.2s-2.5-0.6-3.3-1s-1.4-0.9-1.7-1.4s-0.6-1.2-0.6-2
		c0-1.2,0.5-2.3,1.6-3.1s2.4-1.2,4-1.2c1.8,0,3.2,0.4,4.3,1.3c1.1,0.9,1.6,2,1.6,3.4h-1.8c0-0.9-0.4-1.7-1.2-2.3s-1.8-0.9-2.9-0.9
		c-1.2,0-2.1,0.3-2.8,0.8s-1,1.2-1,2s0.3,1.4,0.9,1.8c0.6,0.4,1.6,0.8,3.2,1.2s2.7,0.7,3.5,1.2s1.3,0.9,1.7,1.5s0.6,1.3,0.6,2.1
		c0,1.3-0.5,2.4-1.6,3.2s-2.5,1.2-4.2,1.2c-1.8,0-3.3-0.4-4.5-1.3s-1.7-2-1.7-3.4h1.8c0.1,1,0.5,1.8,1.3,2.4s1.8,0.9,3.2,0.9
		c1.2,0,2.2-0.3,3-0.8S762.8,455.5,762.8,454.7z"/>
	<path class="st1" d="M773.7,457.5c1.2,0,2.2-0.3,3.1-1s1.3-1.6,1.3-2.7h1.7c0,1-0.4,1.8-0.9,2.6s-1.3,1.4-2.2,1.9s-1.9,0.7-3,0.7
		c-2.1,0-3.7-0.7-4.9-2.2s-1.8-3.4-1.8-5.8v-0.5c0-1.6,0.3-2.9,0.8-4.1c0.5-1.2,1.3-2.1,2.4-2.8c1.1-0.7,2.2-1,3.6-1
		c1.7,0,3.2,0.5,4.3,1.6s1.7,2.4,1.8,4.1h-1.7c-0.1-1.2-0.5-2.2-1.3-3s-1.8-1.1-3.1-1.1c-1.6,0-2.8,0.6-3.7,1.7
		c-0.9,1.1-1.3,2.7-1.3,4.8v0.5c0,2,0.4,3.6,1.3,4.7S772.1,457.5,773.7,457.5z"/>
	<path class="st1" d="M792.5,458.7c-0.2-0.5-0.3-1.2-0.3-2.2c-0.6,0.8-1.4,1.4-2.4,1.9s-2,0.7-3,0.7c-1.5,0-2.8-0.4-3.7-1.3
		c-0.9-0.9-1.4-1.9-1.4-3.2c0-1.5,0.6-2.8,1.9-3.7s3.1-1.3,5.4-1.3h3.2v-1.8c0-1.1-0.3-2-1-2.7s-1.7-1-3.1-1c-1.2,0-2.2,0.3-3,0.9
		c-0.8,0.6-1.2,1.4-1.2,2.3h-1.8c0-1.3,0.6-2.4,1.8-3.3c1.2-0.9,2.6-1.4,4.3-1.4c1.8,0,3.2,0.4,4.2,1.3s1.5,2.1,1.6,3.7v7.5
		c0,1.5,0.2,2.7,0.5,3.4v0.2L792.5,458.7L792.5,458.7z M787,457.4c1.2,0,2.2-0.3,3.1-0.8s1.6-1.3,2-2.3v-3.5H789
		c-1.7,0-3.1,0.3-4.1,1s-1.5,1.5-1.5,2.6c0,0.9,0.3,1.6,1,2.2S785.9,457.4,787,457.4z"/>
	<path class="st1" d="M799.1,458.7v-14.4h-2.6v-1.4h2.6V441c0-1.6,0.4-2.9,1.2-3.7c0.8-0.9,2-1.3,3.5-1.3c0.7,0,1.3,0.1,1.9,0.2
		l-0.1,1.5c-0.5-0.1-1-0.2-1.6-0.2c-1,0-1.7,0.3-2.3,0.9c-0.5,0.6-0.8,1.5-0.8,2.6v2h3.8v1.4h-3.8v14.4L799.1,458.7L799.1,458.7
		L799.1,458.7z"/>
	<path class="st1" d="M808.3,458.7v-14.4h-2.6v-1.4h2.6V441c0-1.6,0.4-2.9,1.2-3.7s2-1.3,3.4-1.3c0.7,0,1.3,0.1,1.9,0.2l-0.1,1.5
		c-0.5-0.1-1-0.2-1.6-0.2c-1,0-1.7,0.3-2.3,0.9c-0.5,0.6-0.8,1.5-0.8,2.6v2h3.8v1.4H810v14.4L808.3,458.7L808.3,458.7z"/>
	<path class="st1" d="M815.2,450.5c0-1.5,0.3-2.9,0.9-4.1c0.6-1.2,1.4-2.2,2.5-2.8s2.3-1,3.7-1c2.1,0,3.8,0.7,5.1,2.2s2,3.4,2,5.9
		v0.4c0,1.5-0.3,2.9-0.9,4.1s-1.4,2.2-2.5,2.8s-2.3,1-3.7,1c-2.1,0-3.8-0.7-5.1-2.2s-2-3.4-2-5.9V450.5z M817,451
		c0,1.9,0.5,3.4,1.5,4.7s2.3,1.8,3.9,1.8c1.6,0,2.9-0.6,3.8-1.8s1.5-2.8,1.5-4.8v-0.3c0-1.2-0.2-2.3-0.7-3.3s-1.1-1.8-1.9-2.3
		s-1.7-0.8-2.8-0.8c-1.6,0-2.8,0.6-3.8,1.8s-1.5,2.8-1.5,4.8V451z"/>
	<path class="st1" d="M834.2,458.7h-1.8v-22.5h1.8V458.7z"/>
	<path class="st1" d="M837.5,450.6c0-2.5,0.5-4.4,1.6-5.9s2.6-2.2,4.5-2.2c2.1,0,3.8,0.8,4.9,2.5v-8.9h1.7v22.5h-1.6l-0.1-2.1
		c-1.1,1.6-2.8,2.4-5,2.4c-1.8,0-3.3-0.7-4.4-2.2S837.4,453.2,837.5,450.6L837.5,450.6L837.5,450.6z M839.3,450.9
		c0,2,0.4,3.6,1.2,4.8s2,1.8,3.4,1.8c2.2,0,3.7-1,4.6-2.9v-7.4c-0.9-2.1-2.4-3.1-4.6-3.1c-1.5,0-2.6,0.6-3.4,1.7
		S839.3,448.7,839.3,450.9z"/>
	<path class="st1" d="M862.6,458.7h-1.8v-22.5h1.8V458.7z"/>
	<path class="st1" d="M872.8,459c-1.3,0-2.6-0.3-3.7-1s-1.9-1.6-2.5-2.8s-0.9-2.5-0.9-4v-0.6c0-1.5,0.3-2.9,0.9-4.1
		c0.6-1.2,1.4-2.2,2.5-2.9s2.2-1,3.4-1c1.9,0,3.5,0.7,4.6,2s1.7,3.1,1.7,5.4v1h-11.3v0.3c0,1.8,0.5,3.3,1.5,4.5s2.3,1.8,3.9,1.8
		c0.9,0,1.8-0.2,2.5-0.5s1.4-0.9,2-1.6l1.1,0.8C877.1,458.1,875.2,459,872.8,459z M872.5,444.1c-1.3,0-2.4,0.5-3.3,1.5
		s-1.5,2.3-1.6,3.9h9.5v-0.2c0-1.5-0.5-2.8-1.3-3.7S873.8,444.1,872.5,444.1z"/>
	<path class="st1" d="M891.4,458.7c-0.2-0.5-0.3-1.2-0.3-2.2c-0.6,0.8-1.4,1.4-2.4,1.9c-1,0.4-2,0.7-3,0.7c-1.5,0-2.8-0.4-3.7-1.3
		c-0.9-0.8-1.4-1.9-1.4-3.2c0-1.5,0.6-2.8,1.9-3.7s3.1-1.3,5.4-1.3h3.2v-1.8c0-1.1-0.3-2-1-2.7s-1.7-1-3.1-1c-1.2,0-2.2,0.3-3,0.9
		c-0.8,0.6-1.2,1.4-1.2,2.3H881c0-1.3,0.6-2.4,1.8-3.3c1.2-0.9,2.6-1.4,4.3-1.4c1.8,0,3.2,0.4,4.2,1.3s1.5,2.1,1.6,3.7v7.5
		c0,1.5,0.2,2.7,0.5,3.4v0.2L891.4,458.7L891.4,458.7z M885.9,457.4c1.2,0,2.2-0.3,3.1-0.8c0.9-0.6,1.6-1.3,2-2.3v-3.5h-3.1
		c-1.7,0-3.1,0.3-4.1,1s-1.5,1.5-1.5,2.6c0,0.9,0.3,1.6,1,2.2C884,457.2,884.8,457.4,885.9,457.4z"/>
	<path class="st1" d="M904,444.4c-0.4-0.1-0.8-0.1-1.2-0.1c-1.1,0-2,0.3-2.8,0.9s-1.3,1.5-1.6,2.7v10.9h-1.7V443h1.7v2.5
		c0.9-1.9,2.4-2.8,4.5-2.8c0.5,0,0.9,0.1,1.2,0.2L904,444.4z"/>
	<path class="st1" d="M907.7,442.9l0.1,2.7c0.6-1,1.3-1.7,2.2-2.2s1.9-0.8,2.9-0.8c1.7,0,3,0.5,3.8,1.4s1.2,2.4,1.3,4.3v10.4h-1.7
		v-10.4c0-1.4-0.3-2.5-0.9-3.2s-1.5-1-2.8-1c-1.1,0-2,0.3-2.9,1c-0.8,0.7-1.5,1.6-1.9,2.7v10.9h-1.7v-15.8L907.7,442.9L907.7,442.9z
		"/>
	<path class="st1" d="M921.7,438.3c0-0.3,0.1-0.6,0.3-0.8s0.5-0.3,0.9-0.3s0.7,0.1,0.9,0.3s0.3,0.5,0.3,0.8s-0.1,0.6-0.3,0.8
		s-0.5,0.3-0.9,0.3s-0.7-0.1-0.9-0.3S921.7,438.6,921.7,438.3z M923.7,458.7H922v-15.8h1.8L923.7,458.7L923.7,458.7z"/>
	<path class="st1" d="M929.4,442.9l0.1,2.7c0.6-1,1.3-1.7,2.2-2.2s1.9-0.8,2.9-0.8c1.7,0,3,0.5,3.8,1.4s1.2,2.4,1.3,4.3v10.4H938
		v-10.4c0-1.4-0.3-2.5-0.9-3.2s-1.5-1-2.8-1c-1.1,0-2,0.3-2.9,1c-0.8,0.7-1.5,1.6-1.9,2.7v10.9h-1.7v-15.8L929.4,442.9L929.4,442.9z
		"/>
	<path class="st1" d="M942.8,450.6c0-2.5,0.5-4.4,1.6-5.9s2.6-2.2,4.5-2.2c2.2,0,3.8,0.9,4.9,2.6l0.1-2.3h1.6v15.5
		c0,2-0.6,3.7-1.7,4.8s-2.7,1.8-4.6,1.8c-1.1,0-2.2-0.2-3.2-0.7s-1.8-1.1-2.4-2l1-1.1c1.2,1.5,2.7,2.3,4.4,2.3
		c1.5,0,2.6-0.4,3.4-1.3s1.2-2.1,1.3-3.6v-2c-1.1,1.6-2.8,2.3-4.9,2.3c-1.8,0-3.3-0.7-4.4-2.2s-1.7-3.4-1.7-5.9v-0.1L942.8,450.6
		L942.8,450.6z M944.6,450.9c0,2,0.4,3.6,1.2,4.8s2,1.8,3.4,1.8c2.2,0,3.7-1,4.6-2.9v-7.4c-0.4-1-1-1.8-1.8-2.3s-1.7-0.8-2.8-0.8
		c-1.5,0-2.6,0.6-3.4,1.7C945,446.9,944.6,448.7,944.6,450.9z"/>
	<path class="st1" d="M959.2,457.7c0-0.3,0.1-0.6,0.3-0.9c0.2-0.2,0.5-0.4,0.9-0.4s0.7,0.1,0.9,0.4c0.2,0.3,0.3,0.5,0.3,0.9
		s-0.1,0.6-0.3,0.8s-0.5,0.3-0.9,0.3s-0.7-0.1-0.9-0.3S959.2,458,959.2,457.7z"/>
</g>
</svg>
