<?xml version="1.0" encoding="utf-8"?>
<!-- Generator: Adobe Illustrator 22.1.0, SVG Export Plug-In . SVG Version: 6.00 Build 0)  -->
<svg version="1.1" id="Layer_1" xmlns="http://www.w3.org/2000/svg" xmlns:xlink="http://www.w3.org/1999/xlink" x="0px" y="0px"
	 viewBox="0 0 36 36" style="enable-background:new 0 0 36 36;" xml:space="preserve">
<g>
	<path d="M79.497,30.288h-0.028l-0.037-0.891h-0.715c0.028,0.418,0.037,0.873,0.037,1.402v3.091h0.817v-2.395
		c0-0.13,0.009-0.269,0.028-0.381c0.111-0.613,0.52-1.04,1.095-1.04c0.111,0,0.195,0,0.278,0.019v-0.771
		c-0.074-0.009-0.139-0.019-0.223-0.019C80.203,29.304,79.701,29.685,79.497,30.288z"/>
	<path d="M75.858,29.304c-0.293,0-0.581,0.077-0.835,0.223c-0.251,0.139-0.455,0.353-0.585,0.585h-0.018v-2.813h-0.817v6.591h0.817
		v-2.711c0-0.149,0.009-0.269,0.056-0.39c0.158-0.436,0.566-0.808,1.095-0.808c0.771,0,1.04,0.603,1.04,1.328v2.581h0.817v-2.674
		C77.427,29.675,76.461,29.304,75.858,29.304z"/>
	<path d="M71.532,29.954c0.446,0,0.752,0.111,0.947,0.214l0.186-0.622c-0.223-0.121-0.65-0.241-1.133-0.241
		c-1.467,0-2.413,1.012-2.413,2.395c0,1.374,0.882,2.293,2.237,2.293c0.603,0,1.077-0.158,1.29-0.26l-0.139-0.613
		c-0.232,0.102-0.538,0.214-1.003,0.214c-0.891,0-1.56-0.64-1.56-1.68C69.944,30.724,70.501,29.954,71.532,29.954z"/>
	<path d="M83.601,29.304c-1.235,0-2.228,0.882-2.228,2.376c0,1.42,0.947,2.312,2.154,2.312c1.077,0,2.237-0.724,2.237-2.386
		C85.763,30.242,84.891,29.304,83.601,29.304z M83.563,33.379c-0.798,0-1.355-0.743-1.355-1.727c0-0.845,0.418-1.736,1.374-1.736
		c0.965,0,1.346,0.956,1.346,1.718C84.928,32.646,84.343,33.379,83.563,33.379z"/>
	<path d="M91.733,29.304c-0.427,0-0.715,0.111-0.984,0.316c-0.186,0.139-0.371,0.325-0.511,0.585H90.22
		c-0.195-0.529-0.659-0.901-1.262-0.901c-0.752,0-1.17,0.399-1.42,0.826h-0.028l-0.037-0.733h-0.715
		c0.018,0.371,0.037,0.743,0.037,1.216v3.277h0.798v-2.701c0-0.139,0.019-0.288,0.065-0.399c0.13-0.408,0.511-0.817,1.012-0.817
		c0.622,0,0.938,0.511,0.938,1.225v2.692h0.798v-2.776c0-0.149,0.028-0.288,0.065-0.408c0.148-0.39,0.501-0.733,0.975-0.733
		c0.65,0,0.975,0.511,0.975,1.383v2.534h0.799v-2.636C93.218,29.694,92.336,29.304,91.733,29.304z"/>
	<path d="M98.176,31.411c0-0.826-0.381-2.107-1.857-2.107c-1.309,0-2.107,1.058-2.107,2.414c0,1.355,0.826,2.274,2.209,2.274
		c0.715,0,1.216-0.158,1.504-0.288l-0.149-0.585c-0.297,0.13-0.659,0.232-1.244,0.232c-0.826,0-1.522-0.455-1.541-1.559l3.156,0
		C98.166,31.699,98.176,31.579,98.176,31.411z M95.001,31.207c0.065-0.566,0.418-1.318,1.253-1.318c0.919,0,1.142,0.808,1.132,1.318
		H95.001z"/>
	<path d="M81.545,23.614l1.796-4.983c-0.155,0.017-0.312,0.026-0.471,0.026c-0.138,0-0.275-0.007-0.41-0.019
		c-0.067-0.006-0.133-0.014-0.199-0.024c-1.852-0.263-3.324-1.707-3.629-3.545L75.12,9.135c-1.008,1.492-1.596,3.29-1.596,5.226
		C73.524,19.073,77.011,22.971,81.545,23.614z"/>
	<path d="M86.732,12.475c0.034,0.069,0.066,0.138,0.096,0.209c0.219,0.515,0.34,1.082,0.34,1.677c0,1.51-0.779,2.838-1.957,3.604
		l-3.23,5.7c0.293,0.028,0.591,0.042,0.891,0.042c5.162,0,9.346-4.185,9.346-9.346c0-1.294-0.263-2.528-0.739-3.649l-5.154,1.092
		C86.479,12.014,86.616,12.238,86.732,12.475z"/>
	<path d="M79.308,11.959c0.043-0.064,0.088-0.127,0.135-0.189c0.784-1.036,2.028-1.706,3.428-1.706c0.444,0,0.872,0.068,1.275,0.193
		h7.124c-1.52-3.105-4.71-5.243-8.4-5.243c-3.045,0-5.75,1.456-7.457,3.71l3.49,3.984C79.014,12.444,79.149,12.193,79.308,11.959z"
		/>
	<path d="M85.907,13.074c-0.023-0.054-0.048-0.108-0.073-0.161c-0.536-1.095-1.662-1.85-2.964-1.85
		c-1.075,0-2.029,0.514-2.631,1.309c-0.036,0.047-0.07,0.096-0.104,0.145c-0.355,0.526-0.563,1.161-0.563,1.844
		c0,1.663,1.23,3.038,2.83,3.265c0.051,0.007,0.102,0.013,0.153,0.018c0.104,0.01,0.208,0.015,0.315,0.015
		c1.821,0,3.298-1.476,3.298-3.298C86.168,13.904,86.075,13.469,85.907,13.074z"/>
</g>
<g>
	<path d="M16.83,14.831c1.479-0.009,2.958-0.008,4.438-0.01c1.479-0.002,2.958-0.007,4.438-0.002
		c0.177,0.001,0.215-0.048,0.214-0.218c-0.009-2.566-0.011-5.131-0.015-7.697c0-0.033-0.003-0.066,0-0.098
		c0.009-0.099-0.034-0.12-0.129-0.107c-1.138,0.159-2.278,0.313-3.416,0.473c-1.843,0.258-3.686,0.522-5.531,0.773
		c-0.176,0.024-0.225,0.074-0.224,0.249c0.009,2.14,0.012,4.28,0.009,6.421C16.613,14.787,16.656,14.832,16.83,14.831z"/>
	<path d="M25.721,15.674c-1.485,0.007-2.971,0.007-4.456,0.009c-1.485,0.002-2.971,0.005-4.456,0.005
		c-0.117,0-0.193,0.001-0.192,0.16c0.008,2.153,0.01,4.306,0.01,6.458c0,0.114,0.036,0.165,0.151,0.179
		c0.402,0.049,0.803,0.104,1.204,0.158c1.197,0.16,2.395,0.318,3.592,0.481c1.391,0.189,2.782,0.379,4.172,0.576
		c0.147,0.021,0.187-0.003,0.186-0.159c-0.009-2.558-0.012-5.117-0.01-7.675C25.921,15.704,25.868,15.674,25.721,15.674z"/>
	<path d="M9.063,14.842c1.099-0.008,2.199-0.007,3.298-0.008c1.106-0.002,2.212-0.005,3.317-0.002c0.129,0,0.182-0.024,0.182-0.17
		c-0.007-2.14-0.01-4.279-0.01-6.419c0-0.119-0.021-0.155-0.152-0.137c-0.821,0.117-1.643,0.222-2.465,0.336
		c-1.397,0.193-2.793,0.392-4.191,0.582C8.904,9.043,8.859,9.085,8.86,9.229c0.008,1.806,0.01,3.612,0.007,5.418
		C8.867,14.802,8.909,14.843,9.063,14.842z"/>
	<path d="M15.664,15.688c-1.106,0.008-2.211,0.006-3.317,0.008c-1.086,0.001-2.172,0.006-3.258,0.001
		c-0.164-0.001-0.222,0.029-0.221,0.211c0.01,1.767,0.012,3.533,0.008,5.3c0,0.16,0.051,0.215,0.203,0.23
		c0.344,0.035,0.688,0.08,1.03,0.127c1.85,0.254,3.7,0.508,5.55,0.766c0.161,0.022,0.213-0.013,0.212-0.186
		c-0.009-2.087-0.011-4.174-0.009-6.262C15.863,15.725,15.816,15.687,15.664,15.688z"/>
	<path d="M11.686,29.814c-0.184,0.005-0.369,0.004-0.553,0.001c-0.051-0.001-0.07,0.015-0.082,0.066
		c-0.077,0.329-0.158,0.657-0.237,0.985c-0.164,0.681-0.327,1.362-0.49,2.043c-0.019,0.08-0.033,0.16-0.05,0.241
		c-0.036-0.146-0.069-0.286-0.105-0.426c-0.244-0.938-0.487-1.877-0.727-2.816c-0.019-0.075-0.049-0.093-0.122-0.091
		c-0.168,0.006-0.336,0.009-0.504,0c-0.088-0.005-0.116,0.03-0.137,0.108c-0.115,0.427-0.235,0.853-0.353,1.279
		c-0.165,0.596-0.33,1.191-0.493,1.787c-0.02,0.073-0.031,0.148-0.046,0.222c-0.016-0.111-0.03-0.22-0.056-0.326
		c-0.247-1-0.496-1.999-0.744-2.999c-0.011-0.046-0.029-0.068-0.082-0.067c-0.204,0.004-0.407,0.004-0.611,0.001
		C6.229,29.821,6.225,29.845,6.24,29.9c0.374,1.324,0.747,2.649,1.118,3.974c0.014,0.051,0.036,0.064,0.085,0.064
		c0.217-0.002,0.435-0.004,0.652,0c0.059,0.001,0.079-0.021,0.093-0.074c0.143-0.533,0.291-1.065,0.431-1.599
		c0.137-0.522,0.305-1.035,0.405-1.581c0.016,0.101,0.022,0.194,0.046,0.282c0.262,0.97,0.527,1.94,0.79,2.91
		c0.013,0.046,0.035,0.058,0.08,0.058c0.215-0.003,0.429-0.003,0.644-0.001c0.05,0,0.071-0.015,0.084-0.065
		c0.053-0.207,0.112-0.413,0.169-0.62c0.304-1.116,0.608-2.231,0.914-3.347C11.772,29.83,11.761,29.812,11.686,29.814z"/>
	<path d="M26.81,30.968c-0.058-0.002-0.081,0.017-0.094,0.073c-0.125,0.518-0.253,1.035-0.377,1.553
		c-0.06,0.247-0.129,0.493-0.177,0.744c-0.015-0.054-0.019-0.109-0.032-0.162c-0.177-0.717-0.356-1.434-0.532-2.152
		c-0.011-0.046-0.033-0.054-0.074-0.054c-0.162,0.002-0.325,0.004-0.487,0c-0.059-0.001-0.086,0.015-0.102,0.075
		c-0.114,0.419-0.234,0.836-0.348,1.255c-0.093,0.344-0.21,0.682-0.274,1.045c-0.033-0.065-0.018-0.125-0.032-0.181
		c-0.181-0.714-0.36-1.427-0.539-2.141c-0.01-0.042-0.032-0.05-0.07-0.05c-0.187,0.002-0.374,0.003-0.562,0
		c-0.06-0.001-0.069,0.016-0.052,0.072c0.278,0.935,0.554,1.87,0.829,2.805c0.014,0.049,0.034,0.065,0.085,0.064
		c0.176-0.003,0.352-0.005,0.528,0c0.069,0.002,0.1-0.018,0.119-0.088c0.1-0.363,0.21-0.723,0.31-1.085
		c0.098-0.354,0.216-0.702,0.295-1.066c0.011,0.062,0.017,0.122,0.033,0.18c0.178,0.669,0.358,1.337,0.536,2.006
		c0.013,0.048,0.04,0.05,0.079,0.05c0.187-0.001,0.374-0.003,0.561,0c0.059,0.001,0.081-0.019,0.096-0.073
		c0.076-0.267,0.156-0.533,0.233-0.799c0.195-0.664,0.388-1.329,0.585-1.993c0.019-0.064,0.008-0.081-0.059-0.079
		C27.129,30.971,26.969,30.972,26.81,30.968z"/>
	<path d="M19.383,29.652c0-0.065-0.018-0.084-0.083-0.083c-0.162,0.005-0.325,0.005-0.487,0.001
		c-0.073-0.002-0.098,0.015-0.097,0.094c0.005,0.545,0.003,1.09,0.004,1.635c0,0.026,0,0.052,0,0.081
		c-0.034-0.008-0.037-0.033-0.048-0.05c-0.1-0.15-0.228-0.269-0.398-0.335c-0.486-0.188-1.2-0.083-1.548,0.599
		c-0.228,0.448-0.247,0.924-0.152,1.408c0.105,0.529,0.497,1.052,1.274,0.985c0.328-0.028,0.592-0.173,0.785-0.443
		c0.026-0.037,0.051-0.074,0.09-0.13c0,0.158,0.004,0.292-0.001,0.425c-0.002,0.063,0.013,0.086,0.081,0.084
		c0.165-0.005,0.33-0.006,0.495,0c0.074,0.003,0.091-0.019,0.091-0.091c-0.004-0.837-0.004-1.674-0.005-2.51
		C19.383,30.764,19.381,30.208,19.383,29.652z M18.69,32.887c-0.126,0.456-0.577,0.694-1.006,0.524
		c-0.215-0.085-0.343-0.255-0.41-0.468c-0.108-0.344-0.099-0.691,0.036-1.026c0.199-0.494,0.71-0.56,1.032-0.391
		c0.237,0.124,0.363,0.33,0.383,0.597c0.007,0.093,0.001,0.187,0.001,0.281C18.725,32.565,18.734,32.727,18.69,32.887z"/>
	<path d="M21.898,30.959c-0.333-0.079-0.666-0.071-0.994,0.026c-0.475,0.141-0.792,0.452-0.935,0.927
		c-0.103,0.343-0.106,0.694-0.02,1.042c0.066,0.268,0.204,0.497,0.412,0.681c0.291,0.257,0.639,0.353,1.02,0.35
		c0.102-0.001,0.203-0.004,0.304-0.019c0.458-0.07,0.819-0.292,1.036-0.704c0.261-0.495,0.26-1.017,0.068-1.533
		C22.636,31.316,22.326,31.061,21.898,30.959z M22.103,33.071c-0.119,0.227-0.31,0.352-0.562,0.38
		c-0.513,0.057-0.895-0.254-0.954-0.767c-0.028-0.247-0.019-0.489,0.069-0.722c0.202-0.535,0.756-0.619,1.145-0.435
		c0.201,0.095,0.309,0.274,0.372,0.481c0.044,0.146,0.059,0.296,0.055,0.432C22.231,32.67,22.204,32.878,22.103,33.071z"/>
	<path d="M16.045,31.756c-0.043-0.238-0.126-0.457-0.313-0.621c-0.325-0.284-0.916-0.292-1.276-0.022
		c-0.127,0.095-0.225,0.215-0.328,0.341c0-0.134-0.002-0.269,0.001-0.403c0.001-0.052-0.017-0.066-0.066-0.065
		c-0.182,0.003-0.363,0.003-0.545,0.001c-0.053-0.001-0.064,0.019-0.064,0.067c0.003,0.936,0.004,1.872,0.004,2.808
		c0,0.057,0.021,0.068,0.072,0.067c0.168-0.003,0.336-0.006,0.504,0c0.078,0.003,0.101-0.017,0.101-0.098
		c-0.004-0.545-0.005-1.09-0.002-1.635c0.001-0.227,0.086-0.424,0.254-0.581c0.351-0.327,0.873-0.173,0.986,0.289
		c0.032,0.132,0.037,0.267,0.037,0.401c0.001,0.509,0.003,1.018,0,1.528c0,0.079,0.024,0.096,0.097,0.094
		c0.165-0.005,0.33-0.005,0.495-0.001c0.066,0.002,0.082-0.019,0.082-0.083c-0.003-0.542-0.004-1.084-0.003-1.627
		C16.079,32.062,16.073,31.908,16.045,31.756z"/>
	<path d="M29.263,32.454c-0.203-0.145-0.434-0.236-0.669-0.316c-0.107-0.036-0.213-0.075-0.303-0.147
		c-0.175-0.14-0.16-0.38,0.03-0.499c0.106-0.066,0.223-0.092,0.345-0.097c0.25-0.01,0.487,0.039,0.703,0.17
		c0.063,0.038,0.07,0.017,0.069-0.043c-0.003-0.143-0.005-0.286,0-0.429c0.002-0.06-0.023-0.08-0.074-0.097
		c-0.258-0.083-0.522-0.112-0.79-0.092c-0.258,0.019-0.502,0.087-0.722,0.233c-0.487,0.322-0.442,1.017-0.007,1.289
		c0.16,0.1,0.329,0.176,0.505,0.241c0.134,0.05,0.273,0.089,0.394,0.167c0.097,0.063,0.179,0.139,0.185,0.266
		c0.01,0.182-0.089,0.306-0.301,0.351c-0.258,0.054-0.514,0.041-0.763-0.052c-0.124-0.046-0.236-0.112-0.358-0.195
		c0,0.184,0.005,0.354-0.001,0.523c-0.003,0.075,0.027,0.105,0.091,0.129c0.317,0.117,0.645,0.137,0.976,0.109
		c0.221-0.019,0.431-0.08,0.624-0.194C29.701,33.476,29.737,32.792,29.263,32.454z"/>
	<path d="M12.762,31.063c0-0.055-0.012-0.077-0.072-0.076c-0.173,0.004-0.347,0.004-0.52,0.001
		c-0.057-0.001-0.074,0.015-0.074,0.073c0.003,0.933,0.004,1.865,0.004,2.798c0,0.061,0.021,0.072,0.076,0.071
		c0.168-0.003,0.336-0.005,0.503,0c0.068,0.002,0.088-0.016,0.087-0.086c-0.004-0.459-0.003-0.919-0.004-1.378
		C12.762,31.999,12.76,31.531,12.762,31.063z"/>
	<path d="M12.43,29.617c-0.225,0-0.4,0.169-0.398,0.384c0.002,0.211,0.177,0.374,0.4,0.374c0.222,0,0.406-0.174,0.404-0.382
		C12.835,29.78,12.658,29.617,12.43,29.617z"/>
</g>
<g>
	<path d="M51.541,31.05c-0.216-0.21-0.512-0.336-0.875-0.336c-0.888,0-1.563,0.732-1.563,1.636c0,0.907,0.675,1.639,1.563,1.639
		c0.364,0,0.659-0.122,0.875-0.333v0.27h0.775v-4.082h-0.775V31.05z M51.541,32.746c0,0.016-0.009,0.047-0.016,0.057
		c-0.148,0.27-0.449,0.443-0.775,0.443c-0.477,0-0.863-0.399-0.863-0.895c0-0.487,0.386-0.892,0.863-0.892
		c0.317,0,0.618,0.157,0.769,0.418c0.009,0.019,0.022,0.044,0.022,0.076V32.746z"/>
	<path d="M44.638,31.05c-0.216-0.21-0.511-0.327-0.875-0.327c-0.888,0-1.563,0.722-1.563,1.627c0,0.907,0.675,1.639,1.563,1.639
		c0.364,0,0.659-0.122,0.875-0.333v0.27h0.775v-3.14h-0.775V31.05z M44.638,32.742c-0.001,0.021-0.007,0.041-0.016,0.06
		c-0.148,0.27-0.449,0.443-0.775,0.443c-0.477,0-0.863-0.399-0.863-0.895c0-0.487,0.386-0.892,0.863-0.892
		c0.317,0,0.634,0.148,0.769,0.418c0.009,0.019,0.022,0.044,0.022,0.076V32.742z"/>
	<path d="M61.51,29.844v1.206c-0.217-0.21-0.511-0.327-0.875-0.327c-0.888,0-1.563,0.722-1.563,1.627
		c0,0.907,0.675,1.642,1.563,1.642c0.364,0,0.659-0.126,0.875-0.336v0.27h0.775v-4.082H61.51z M61.51,32.749
		c0,0.016-0.009,0.044-0.016,0.053c-0.147,0.27-0.449,0.443-0.775,0.443c-0.477,0-0.863-0.399-0.863-0.895
		c0-0.487,0.386-0.892,0.863-0.892c0.317,0,0.618,0.157,0.769,0.418c0.009,0.019,0.022,0.044,0.022,0.076V32.749z"/>
	<path d="M47.302,30.724c-0.832,0-1.478,0.669-1.478,1.504v1.699h0.775v-1.699c0-0.411,0.289-0.725,0.703-0.725
		c0.411,0,0.703,0.314,0.703,0.725v1.699h0.775v-1.699C48.78,31.392,48.13,30.724,47.302,30.724z"/>
	<path d="M58.336,29.643c-0.001,0-0.001,0-0.002,0c-0.248,0-0.449,0.202-0.449,0.45c0,0.001,0,0.001,0,0.002
		c0,0.248,0.201,0.452,0.449,0.452c0.248,0,0.449-0.204,0.449-0.452C58.785,29.847,58.585,29.645,58.336,29.643z"/>
	<rect x="57.946" y="30.786" width="0.775" height="3.14"/>
	<path d="M52.727,32.25v1.677h0.775V32.25c0-0.496,0.26-0.76,0.756-0.76v-0.766C53.261,30.724,52.727,31.254,52.727,32.25z"/>
	<path d="M55.953,30.724c-0.904,0-1.638,0.722-1.638,1.627c0,0.907,0.734,1.639,1.638,1.639h0c0.907,0,1.641-0.732,1.641-1.639
		C57.594,31.446,56.86,30.724,55.953,30.724z M56.81,32.35c0,0.474-0.38,0.857-0.857,0.857c-0.471,0-0.853-0.383-0.853-0.857
		c0-0.471,0.383-0.854,0.853-0.854c0.471-0.002,0.855,0.379,0.857,0.85C56.81,32.348,56.81,32.349,56.81,32.35z"/>
	<path d="M43.787,18.87c0.798,0,1.444-0.645,1.443-1.444l0-6.046c0-0.796-0.647-1.443-1.445-1.443c-0.797,0-1.443,0.647-1.444,1.444
		l0.001,6.046C42.344,18.225,42.99,18.87,43.787,18.87z"/>
	<path d="M55.428,4.508l1.008-1.84c0.054-0.096,0.018-0.219-0.079-0.273c-0.098-0.052-0.22-0.017-0.272,0.08l-1.018,1.859
		c-0.857-0.381-1.815-0.595-2.829-0.594c-1.011-0.001-1.969,0.212-2.822,0.591l-1.019-1.854c-0.053-0.098-0.175-0.133-0.271-0.08
		c-0.098,0.053-0.134,0.175-0.08,0.271l1.008,1.839c-1.981,1.022-3.319,2.967-3.318,5.2l13.004-0.001
		C58.742,7.473,57.406,5.532,55.428,4.508z M49.281,7.351c-0.299-0.001-0.543-0.244-0.543-0.545c0-0.3,0.244-0.546,0.544-0.546
		c0.301,0,0.545,0.246,0.546,0.546C49.827,7.107,49.583,7.351,49.281,7.351z M55.202,7.35c-0.301,0-0.545-0.243-0.545-0.545
		c0.001-0.299,0.244-0.545,0.546-0.546c0.299,0.001,0.544,0.247,0.544,0.547C55.747,7.106,55.503,7.35,55.202,7.35z"/>
	<path d="M60.699,18.868c0.797,0,1.443-0.645,1.443-1.444l-0.001-6.046c0-0.797-0.646-1.444-1.444-1.443
		c-0.797-0.001-1.443,0.647-1.443,1.444l0.001,6.046C59.255,18.223,59.901,18.868,60.699,18.868z"/>
	<path d="M51.27,24.317l-0.001-3.198l1.949,0l0.001,3.199c0,0.796,0.648,1.444,1.443,1.443c0.798,0,1.444-0.648,1.444-1.444
		l-0.001-3.198l1.052-0.001c0.85,0,1.541-0.689,1.541-1.541l-0.002-9.369L45.79,10.209l0.002,9.369
		c-0.001,0.852,0.689,1.54,1.54,1.54l1.049,0l0.001,3.199c0,0.796,0.647,1.444,1.443,1.444
		C50.623,25.762,51.269,25.114,51.27,24.317z"/>
</g>
<g>
	<path d="M119.839,27.455c0.89,0.002,1.26-0.371,1.261-1.247c0.001-4.184,0.001-8.368,0.001-12.551c0-4.226,0.001-5.257-0.001-9.482
		c0-0.775-0.376-1.193-1.125-1.191c-5.292,0.017-10.584,0.046-15.876,0.067c-0.533,0.002-0.823,0.274-0.877,0.778
		c-0.049,0.456-0.064,0.918-0.064,1.377c-0.004,7.74-0.003,12.285-0.002,20.025c0,0.376-0.006,0.754,0.017,1.129
		c0.047,0.761,0.346,1.043,1.103,1.046C109.464,27.425,114.651,27.442,119.839,27.455z M112.155,26.841
		c-0.533,0.024-1.038-0.484-1.035-1.04c0.002-0.543,0.459-0.992,1.004-0.988c0.556,0.004,0.998,0.441,1.002,0.989
		C113.129,26.343,112.685,26.818,112.155,26.841z M104.728,6.606c4.958,0,9.85,0,14.789,0c0,6.824,0,10.433,0,17.268
		c-4.941,0-9.846,0-14.789,0C104.728,17.046,104.728,13.453,104.728,6.606z"/>
	<path d="M115.674,28.207c0.007-0.068-0.021-0.095-0.091-0.092c-0.116,0.004-0.232,0.008-0.347-0.001
		c-0.104-0.008-0.139,0.022-0.138,0.133c0.006,0.544,0.003,1.088,0.003,1.631c0,0.041,0,0.082,0,0.126c-0.035,0-0.056,0.003-0.076,0
		c-0.252-0.045-0.504-0.068-0.762-0.04c-0.721,0.078-1.244,0.44-1.571,1.082c-0.218,0.429-0.266,0.89-0.198,1.361
		c0.072,0.499,0.288,0.921,0.708,1.219c0.311,0.22,0.662,0.325,1.041,0.354c0.451,0.034,0.885-0.028,1.305-0.198
		c0.095-0.038,0.129-0.091,0.128-0.196c-0.004-1.775-0.003-3.551-0.003-5.326C115.673,28.242,115.672,28.224,115.674,28.207z
		 M115.102,33.318c0,0.065-0.015,0.106-0.083,0.123c-0.521,0.129-1.017,0.094-1.461-0.234c-0.306-0.226-0.439-0.556-0.493-0.92
		c-0.054-0.365-0.019-0.724,0.155-1.053c0.273-0.517,0.705-0.786,1.294-0.778c0.166,0.002,0.332,0.04,0.497,0.063
		c0.072,0.01,0.092,0.053,0.092,0.126c-0.003,0.446-0.002,0.891-0.002,1.337S115.1,32.872,115.102,33.318z"/>
	<path d="M104.971,31.735c-0.095-0.114-0.098-0.115,0.01-0.215c0.457-0.425,0.916-0.849,1.373-1.274
		c0.063-0.058,0.124-0.117,0.206-0.195c-0.229,0-0.428,0.003-0.627-0.002c-0.077-0.002-0.131,0.022-0.185,0.075
		c-0.42,0.408-0.843,0.813-1.266,1.219c-0.027,0.026-0.062,0.046-0.114,0.084c0-0.071,0-0.113,0-0.154c0-0.403,0-0.807,0-1.21
		c0-0.614-0.001-1.228,0.002-1.841c0-0.083-0.024-0.113-0.108-0.108c-0.108,0.006-0.217,0.001-0.326,0.002
		c-0.14,0-0.14,0-0.14,0.136c0,1.842,0,3.683,0,5.524c0,0.018,0.001,0.035,0,0.053c-0.005,0.059,0.022,0.082,0.081,0.081
		c0.119-0.002,0.239-0.007,0.358,0.001c0.105,0.008,0.138-0.024,0.137-0.133c-0.006-0.582-0.003-1.164-0.003-1.747
		c0-0.041,0-0.082,0-0.122c0.011-0.004,0.022-0.008,0.034-0.013c0.032,0.035,0.066,0.068,0.096,0.104
		c0.433,0.524,0.866,1.049,1.299,1.574c0.091,0.111,0.166,0.26,0.285,0.316c0.118,0.056,0.282,0.017,0.425,0.019
		c0.088,0.001,0.176,0,0.282,0c-0.023-0.033-0.03-0.045-0.038-0.055C106.157,33.147,105.564,32.441,104.971,31.735z"/>
	<path d="M118.897,32.061c0.733,0,1.467,0,2.2,0c0.063,0,0.116,0.003,0.117-0.089c0.003-0.346-0.034-0.685-0.15-1.012
		c-0.234-0.656-0.735-1.025-1.405-1.009c-0.581,0.014-1.008,0.303-1.273,0.811c-0.346,0.664-0.352,1.359-0.114,2.057
		c0.149,0.438,0.422,0.782,0.845,0.99c0.346,0.171,0.715,0.219,1.094,0.158c0.296-0.047,0.576-0.146,0.836-0.299
		c0.039-0.023,0.083-0.041,0.053-0.103c-0.051-0.107-0.098-0.216-0.154-0.339c-0.253,0.142-0.507,0.237-0.783,0.266
		c-0.453,0.047-0.84-0.079-1.13-0.442c-0.185-0.231-0.263-0.505-0.301-0.795C118.71,32.077,118.717,32.061,118.897,32.061z
		 M119.104,30.651c0.357-0.323,0.983-0.315,1.292,0.187c0.116,0.189,0.179,0.395,0.197,0.614c0.011,0.133,0.004,0.137-0.127,0.137
		c-0.27,0-0.54,0-0.81,0c-0.27,0-0.54-0.002-0.81,0.001c-0.087,0.001-0.114-0.024-0.107-0.116
		C118.764,31.155,118.861,30.87,119.104,30.651z"/>
	<path d="M111.756,30.946c-0.099-0.712-0.675-1.11-1.379-0.968c-0.356,0.072-0.663,0.238-0.952,0.448
		c-0.039,0.028-0.079,0.055-0.135,0.094c-0.016-0.066-0.026-0.109-0.036-0.153c-0.022-0.101-0.012-0.242-0.075-0.294
		c-0.064-0.053-0.2-0.02-0.305-0.021c-0.135-0.002-0.135,0-0.135,0.14c0,0.779,0,1.557,0,2.336c0,0.424,0.002,0.849-0.001,1.273
		c-0.001,0.081,0.021,0.116,0.107,0.109c0.08-0.007,0.161,0,0.242-0.002c0.233-0.003,0.215,0.038,0.215-0.211
		c0-0.824-0.001-1.648,0.002-2.473c0-0.059,0.01-0.139,0.047-0.172c0.284-0.248,0.587-0.473,0.969-0.543
		c0.443-0.081,0.765,0.059,0.859,0.577c0.03,0.164,0.038,0.334,0.041,0.501c0.006,0.407,0.002,0.814,0.002,1.221
		c0,0.33,0.003,0.659-0.002,0.989c-0.001,0.088,0.028,0.118,0.115,0.113c0.105-0.006,0.211-0.009,0.315,0
		c0.11,0.01,0.135-0.033,0.135-0.137c-0.004-0.807-0.001-1.613-0.003-2.42C111.782,31.218,111.775,31.081,111.756,30.946z"/>
	<path d="M117.709,33.581c-0.008-0.093-0.039-0.122-0.147-0.109c-0.254,0.031-0.386-0.052-0.395-0.317
		c-0.005-0.133-0.014-0.266-0.014-0.399c-0.001-1.487-0.001-2.974-0.001-4.461c0-0.032-0.002-0.063,0-0.095
		c0.004-0.063-0.025-0.087-0.088-0.086c-0.112,0.003-0.224,0.001-0.337,0.001c-0.136,0-0.136,0-0.136,0.141c0,0.852,0,1.705,0,2.557
		c0,0.224,0,0.449,0,0.673c0.001,0.631-0.001,1.263,0.003,1.894c0.002,0.297,0.182,0.519,0.452,0.586
		c0.175,0.043,0.348,0.03,0.518-0.022c0.196-0.06,0.195-0.063,0.157-0.269C117.715,33.644,117.711,33.613,117.709,33.581z"/>
	<path d="M107.819,30.144c0.001-0.067-0.021-0.095-0.09-0.093c-0.123,0.004-0.246,0.007-0.368-0.001
		c-0.096-0.006-0.117,0.032-0.116,0.121c0.003,0.603,0.002,1.207,0.002,1.81c0,0.607,0.001,1.214-0.002,1.821
		c0,0.081,0.021,0.114,0.107,0.109c0.115-0.007,0.232-0.008,0.347,0c0.102,0.008,0.122-0.033,0.122-0.126
		c-0.003-0.996-0.002-1.992-0.002-2.989C107.818,30.579,107.817,30.361,107.819,30.144z"/>
	<path d="M107.535,28.403c-0.228-0.004-0.414,0.174-0.415,0.397c-0.001,0.217,0.18,0.398,0.401,0.4
		c0.227,0.002,0.402-0.167,0.404-0.392C107.927,28.579,107.761,28.407,107.535,28.403z"/>
</g>
<g>
	<path d="M151.383,23.812c0.502-0.395,0.9-0.887,1.283-1.393c0.579-0.764,1.094-1.568,1.491-2.441
		c0.216-0.475,0.392-0.968,0.587-1.453c0.006-0.016,0.017-0.031,0.026-0.046c0-0.015,0-0.03,0-0.045
		c-0.465-0.181-0.872-0.459-1.254-0.774c-0.54-0.446-0.977-0.978-1.29-1.603c-0.284-0.568-0.437-1.174-0.484-1.809
		c-0.053-0.705-0.004-1.399,0.211-2.075c0.248-0.781,0.689-1.439,1.297-1.982c0.285-0.254,0.597-0.478,0.91-0.726
		c-0.064-0.089-0.136-0.196-0.216-0.296c-0.45-0.561-0.995-1.008-1.636-1.335c-0.511-0.261-1.054-0.427-1.618-0.517
		c-0.274-0.044-0.552-0.076-0.829-0.091c-0.652-0.035-1.281,0.102-1.894,0.304c-0.612,0.201-1.219,0.419-1.824,0.641
		c-0.333,0.122-0.659,0.13-0.992,0.01c-0.48-0.174-0.962-0.344-1.443-0.516c-0.467-0.167-0.942-0.305-1.436-0.363
		c-0.425-0.05-0.847-0.008-1.265,0.066c-0.864,0.152-1.632,0.521-2.324,1.05c-0.593,0.453-1.064,1.014-1.445,1.654
		c-0.278,0.466-0.493,0.959-0.647,1.477c-0.18,0.605-0.303,1.222-0.331,1.855c-0.002,0.051-0.013,0.102-0.02,0.154
		c0,0.343,0,0.686,0,1.03c0.014,0.148,0.023,0.296,0.043,0.443c0.058,0.418,0.114,0.837,0.182,1.253
		c0.132,0.812,0.366,1.598,0.652,2.367c0.384,1.033,0.863,2.021,1.494,2.928c0.401,0.577,0.803,1.154,1.288,1.666
		c0.303,0.321,0.625,0.62,1.002,0.852c0.421,0.258,0.874,0.417,1.379,0.383c0.387-0.027,0.757-0.13,1.121-0.26
		c0.426-0.153,0.847-0.322,1.279-0.456c0.484-0.15,0.983-0.238,1.493-0.2c0.445,0.034,0.88,0.133,1.3,0.283
		c0.356,0.127,0.705,0.276,1.064,0.395c0.359,0.119,0.726,0.21,1.108,0.215C150.303,24.462,150.872,24.214,151.383,23.812z"/>
	<path d="M147.151,6.715c0.595-0.26,1.094-0.651,1.526-1.129c0.363-0.402,0.664-0.848,0.899-1.335
		c0.219-0.455,0.365-0.932,0.427-1.435c0.044-0.36,0.055-0.718,0.02-1.078c-0.052,0-0.104,0-0.157,0
		c-0.061,0.011-0.122,0.025-0.184,0.033c-0.49,0.071-0.94,0.259-1.383,0.467c-1.005,0.473-1.743,1.23-2.285,2.186
		c-0.284,0.501-0.458,1.041-0.526,1.612c-0.037,0.309-0.05,0.621,0,0.941C146.068,7.023,146.622,6.946,147.151,6.715z"/>
	<path d="M155.385,26.369c-0.726-0.606-1.584-0.826-2.512-0.852c-0.276,0.03-0.556,0.044-0.829,0.093
		c-1.166,0.21-2.058,0.82-2.569,1.898c-0.63,1.329-0.648,2.709-0.181,4.09c0.335,0.989,0.994,1.703,1.971,2.097
		c0.739,0.298,1.509,0.36,2.294,0.243c1.303-0.194,2.257-0.871,2.788-2.086c0.474-1.083,0.508-2.214,0.268-3.356
		C156.439,27.655,156.053,26.926,155.385,26.369z M154.969,31.324c-0.388,0.912-1.145,1.419-2.105,1.412
		c-0.97-0.007-1.731-0.51-2.09-1.431c-0.4-1.025-0.4-2.069,0.003-3.092c0.323-0.818,0.934-1.314,1.824-1.413
		c1.117-0.124,2.022,0.452,2.419,1.521c0.173,0.465,0.242,0.948,0.234,1.407C155.258,30.302,155.181,30.825,154.969,31.324z"/>
	<path d="M135.831,28.25c-0.446-0.431-0.996-0.564-1.592-0.511c-0.739,0.065-1.301,0.416-1.633,1.097
		c-0.015,0.031-0.034,0.06-0.063,0.11c-0.272-0.82-0.836-1.207-1.666-1.213c-0.825-0.006-1.402,0.384-1.764,1.124
		c0-0.333,0-0.666,0-1.002c-0.457,0-0.902,0-1.348,0c0,2.001,0,3.992,0,5.99c0.468,0,0.928,0,1.407,0c0-0.066,0-0.117,0-0.169
		c0-1.171-0.001-2.342,0.001-3.514c0-0.326,0.088-0.627,0.312-0.872c0.313-0.344,0.711-0.431,1.15-0.332
		c0.373,0.084,0.614,0.322,0.708,0.693c0.033,0.131,0.042,0.27,0.043,0.406c0.003,1.204,0.002,2.408,0.002,3.613
		c0,0.055,0,0.111,0,0.173c0.466,0,0.916,0,1.381,0c0-0.063,0-0.119,0-0.174c0.001-1.2-0.003-2.399,0.003-3.598
		c0.003-0.614,0.383-1.057,0.986-1.137c0.504-0.066,1.044,0.112,1.187,0.785c0.028,0.133,0.037,0.272,0.037,0.408
		c0.003,1.185,0.002,2.371,0.002,3.556c0,0.054,0,0.109,0,0.16c0.483,0,0.943,0,1.404,0c0.005-0.022,0.01-0.036,0.01-0.049
		c0-1.403,0.009-2.805-0.006-4.208C136.386,29.075,136.207,28.614,135.831,28.25z"/>
	<path d="M163.652,30.75c-0.182-0.642-0.671-1.004-1.255-1.259c-0.592-0.258-1.227-0.362-1.849-0.511
		c-0.381-0.091-0.762-0.183-1.097-0.398c-0.407-0.262-0.53-0.695-0.329-1.136c0.118-0.258,0.318-0.434,0.574-0.54
		c0.595-0.247,1.197-0.245,1.787,0.01c0.361,0.156,0.598,0.436,0.698,0.823c0.018,0.068,0.028,0.138,0.042,0.209
		c0.462,0,0.918,0,1.39,0c-0.008-0.106-0.008-0.205-0.023-0.301c-0.138-0.873-0.644-1.461-1.437-1.809
		c-0.739-0.325-1.515-0.368-2.303-0.24c-0.648,0.105-1.231,0.354-1.697,0.832c-0.741,0.76-0.826,2.036-0.188,2.829
		c0.29,0.36,0.673,0.6,1.105,0.734c0.566,0.175,1.144,0.31,1.719,0.457c0.371,0.095,0.742,0.187,1.064,0.405
		c0.344,0.233,0.481,0.558,0.397,0.968c-0.08,0.393-0.344,0.637-0.695,0.781c-0.69,0.282-1.382,0.263-2.055-0.061
		c-0.321-0.155-0.557-0.403-0.678-0.745c-0.087-0.246-0.084-0.247-0.345-0.247c-0.372,0-0.744,0-1.127,0
		c-0.002,0.043-0.004,0.061-0.004,0.08c0,0.024,0.001,0.047,0.004,0.071c0.097,0.859,0.535,1.485,1.299,1.884
		c0.49,0.255,1.018,0.366,1.564,0.395c0.803,0.042,1.584-0.049,2.305-0.437C163.639,32.939,163.944,31.776,163.652,30.75z"/>
	<path d="M141.078,27.931c-0.619-0.243-1.26-0.267-1.907-0.154c-0.522,0.091-0.993,0.296-1.365,0.689
		c-0.309,0.327-0.471,0.719-0.497,1.168c0.025,0.008,0.038,0.016,0.051,0.016c0.392,0.001,0.784,0.004,1.176-0.002
		c0.036-0.001,0.09-0.056,0.103-0.096c0.099-0.31,0.302-0.516,0.603-0.631c0.267-0.102,0.546-0.116,0.823-0.074
		c0.474,0.073,0.76,0.321,0.831,0.728c0.034,0.193,0.024,0.395,0.021,0.593c0,0.029-0.07,0.079-0.11,0.082
		c-0.386,0.026-0.773,0.043-1.159,0.064c-0.495,0.027-0.985,0.076-1.457,0.25c-1.488,0.546-1.37,2.247-0.529,2.92
		c0.379,0.304,0.814,0.45,1.295,0.459c0.823,0.016,1.488-0.285,1.945-0.991c0.01-0.016,0.029-0.026,0.063-0.056
		c0,0.332,0,0.637,0,0.948c0.456,0,0.902,0,1.358,0c0-0.055,0-0.102,0-0.148c0-1.313,0.001-2.625,0-3.938
		C142.322,28.892,141.884,28.247,141.078,27.931z M139.684,32.862c-0.25,0.034-0.5,0.017-0.736-0.086
		c-0.294-0.128-0.467-0.347-0.478-0.673c-0.011-0.328,0.143-0.571,0.44-0.693c0.201-0.083,0.422-0.137,0.639-0.158
		c0.445-0.044,0.894-0.057,1.352-0.083C141.053,32.114,140.584,32.742,139.684,32.862z"/>
	<path d="M147.335,31.732c-0.107-0.002-0.154,0.024-0.183,0.135c-0.134,0.512-0.456,0.844-0.985,0.933
		c-0.577,0.097-1.067-0.06-1.407-0.565c-0.474-0.704-0.471-2.081,0.003-2.783c0.435-0.645,1.356-0.788,1.955-0.303
		c0.237,0.192,0.366,0.449,0.445,0.738c0.011,0.039,0.055,0.099,0.084,0.1c0.414,0.007,0.829,0.004,1.243,0.004
		c0.012-0.027,0.015-0.031,0.015-0.035c0.001-0.019,0.002-0.038,0-0.056c-0.099-0.85-0.524-1.483-1.284-1.877
		c-0.525-0.272-1.092-0.344-1.677-0.291c-1.006,0.091-1.788,0.548-2.221,1.474c-0.499,1.068-0.489,2.169-0.023,3.248
		c0.294,0.68,0.823,1.132,1.529,1.359c0.654,0.21,1.318,0.214,1.979,0.025c0.488-0.14,0.904-0.399,1.221-0.803
		c0.296-0.377,0.451-0.807,0.491-1.301c-0.06,0-0.106,0-0.152,0C148.024,31.734,147.679,31.739,147.335,31.732z"/>
</g>
<g>
	<path d="M183.554,17.346c-0.525-0.433-0.95-0.95-1.254-1.558c-0.276-0.552-0.425-1.142-0.471-1.758
		c-0.051-0.685-0.004-1.36,0.205-2.018c0.241-0.759,0.67-1.399,1.261-1.927c0.277-0.247,0.58-0.465,0.885-0.706
		c-0.063-0.086-0.132-0.19-0.21-0.287c-0.438-0.546-0.967-0.98-1.591-1.298c-0.496-0.253-1.024-0.415-1.573-0.503
		C180.54,7.248,180.27,7.216,180,7.202c-0.634-0.034-1.245,0.099-1.841,0.295c-0.595,0.196-1.185,0.408-1.773,0.623
		c-0.324,0.119-0.641,0.127-0.965,0.01c-0.467-0.169-0.935-0.335-1.403-0.502c-0.454-0.162-0.916-0.297-1.396-0.353
		c-0.413-0.049-0.823-0.008-1.23,0.064c-0.84,0.147-1.586,0.507-2.259,1.021c-0.576,0.44-1.034,0.986-1.405,1.608
		c-0.27,0.453-0.479,0.932-0.629,1.436c-0.175,0.588-0.295,1.188-0.321,1.803c-0.002,0.05-0.013,0.1-0.02,0.149
		c0,0.334,0,0.667,0,1.001c0.014,0.144,0.022,0.288,0.042,0.43c0.056,0.406,0.111,0.813,0.177,1.218
		c0.128,0.79,0.355,1.553,0.633,2.301c0.373,1.004,0.838,1.964,1.452,2.846c0.39,0.561,0.781,1.121,1.252,1.62
		c0.295,0.312,0.608,0.603,0.974,0.828c0.41,0.251,0.85,0.406,1.341,0.372c0.377-0.026,0.736-0.126,1.089-0.253
		c0.414-0.149,0.824-0.313,1.244-0.443c0.47-0.146,0.956-0.232,1.451-0.194c0.433,0.033,0.855,0.129,1.264,0.275
		c0.346,0.123,0.686,0.268,1.034,0.384c0.349,0.116,0.706,0.205,1.077,0.209c0.644,0.009,1.196-0.233,1.693-0.623
		c0.488-0.384,0.875-0.862,1.247-1.354c0.562-0.743,1.063-1.524,1.449-2.373c0.21-0.462,0.381-0.941,0.57-1.413
		c0.006-0.016,0.016-0.03,0.025-0.045c0-0.015,0-0.029,0-0.043C184.32,17.923,183.925,17.653,183.554,17.346z"/>
	<path d="M177.368,6.706c0.578-0.252,1.064-0.632,1.483-1.098c0.352-0.391,0.645-0.824,0.874-1.298
		c0.213-0.442,0.354-0.906,0.415-1.395c0.043-0.35,0.053-0.698,0.02-1.048c-0.051,0-0.102,0-0.152,0
		c-0.059,0.011-0.119,0.024-0.178,0.033c-0.476,0.069-0.914,0.251-1.344,0.454c-0.977,0.46-1.694,1.195-2.221,2.125
		c-0.276,0.487-0.446,1.012-0.511,1.567c-0.036,0.301-0.049,0.604,0,0.915C176.315,7.006,176.853,6.931,177.368,6.706z"/>
	<path d="M177.464,28.085c-0.223-0.511-0.544-0.95-0.985-1.293c-0.59-0.459-1.272-0.668-2.01-0.707
		c-0.191-0.01-0.383-0.001-0.575,0.007c-0.304,0.012-0.601,0.066-0.893,0.154c-0.862,0.259-1.505,0.788-1.931,1.579
		c-0.293,0.545-0.434,1.133-0.482,1.747c-0.026,0.335-0.023,0.669,0.007,1.004c0.031,0.337,0.091,0.668,0.191,0.992
		c0.158,0.51,0.404,0.97,0.767,1.363c0.41,0.444,0.912,0.741,1.491,0.908c0.401,0.116,0.812,0.159,1.229,0.153
		c0.283-0.003,0.562-0.032,0.839-0.091c0.442-0.093,0.852-0.263,1.222-0.52c0.531-0.369,0.908-0.863,1.156-1.457
		c0.224-0.535,0.322-1.097,0.341-1.673c0.011-0.317-0.002-0.633-0.042-0.949C177.737,28.881,177.633,28.474,177.464,28.085z
		 M176.402,30.65c-0.063,0.462-0.199,0.9-0.468,1.287c-0.332,0.478-0.783,0.773-1.362,0.86c-0.361,0.054-0.719,0.035-1.068-0.078
		c-0.356-0.116-0.653-0.321-0.893-0.607c-0.258-0.307-0.421-0.662-0.52-1.047c-0.062-0.24-0.099-0.484-0.109-0.732
		c-0.004-0.099-0.001-0.199-0.001-0.299c-0.01-0.382,0.03-0.759,0.137-1.126c0.124-0.425,0.325-0.807,0.65-1.115
		c0.288-0.274,0.629-0.448,1.022-0.513c0.356-0.059,0.709-0.046,1.057,0.053c0.267,0.076,0.503,0.207,0.713,0.387
		c0.391,0.335,0.618,0.768,0.751,1.257c0.069,0.252,0.104,0.51,0.119,0.771C176.45,30.049,176.443,30.351,176.402,30.65z"/>
	<path d="M184.516,30.834c-0.141-0.359-0.392-0.625-0.712-0.83c-0.28-0.179-0.583-0.311-0.903-0.395
		c-0.436-0.115-0.877-0.214-1.316-0.319c-0.292-0.07-0.58-0.149-0.848-0.289c-0.158-0.083-0.305-0.184-0.394-0.343
		c-0.173-0.308-0.147-0.616,0.037-0.907c0.164-0.259,0.419-0.398,0.705-0.481c0.276-0.08,0.558-0.091,0.843-0.064
		c0.265,0.025,0.515,0.094,0.742,0.236c0.315,0.196,0.498,0.479,0.543,0.848c0.005,0.039,0.015,0.049,0.054,0.049
		c0.403-0.001,0.806-0.001,1.209-0.001c0.015,0,0.029,0,0.046,0c0-0.159-0.018-0.311-0.054-0.461
		c-0.15-0.631-0.524-1.092-1.084-1.406c-0.409-0.229-0.855-0.339-1.319-0.378c-0.341-0.028-0.681-0.019-1.02,0.034
		c-0.423,0.066-0.821,0.199-1.186,0.427c-0.284,0.177-0.524,0.401-0.704,0.686c-0.296,0.469-0.371,0.98-0.278,1.52
		c0.083,0.483,0.334,0.863,0.731,1.147c0.285,0.204,0.6,0.35,0.936,0.44c0.428,0.116,0.861,0.215,1.293,0.319
		c0.318,0.076,0.634,0.16,0.923,0.318c0.309,0.169,0.506,0.413,0.512,0.782c0.004,0.273-0.098,0.499-0.293,0.685
		c-0.209,0.199-0.464,0.311-0.742,0.371c-0.299,0.065-0.601,0.07-0.904,0.029c-0.326-0.045-0.625-0.155-0.887-0.355
		c-0.203-0.155-0.352-0.35-0.425-0.598c-0.018-0.061-0.029-0.125-0.043-0.186c-0.441,0-0.88,0-1.324,0
		c0.008,0.076,0.014,0.148,0.022,0.219c0.033,0.277,0.113,0.539,0.25,0.782c0.274,0.486,0.69,0.806,1.199,1.013
		c0.36,0.147,0.737,0.22,1.124,0.249c0.451,0.033,0.898,0.016,1.342-0.074c0.5-0.102,0.958-0.295,1.346-0.633
		c0.28-0.244,0.482-0.541,0.6-0.894c0.103-0.309,0.13-0.628,0.107-0.951C184.631,31.221,184.591,31.024,184.516,30.834z"/>
	<path d="M168.226,33.862c0.441,0,0.878,0,1.315,0c0-1.875,0-3.748,0-5.622c-0.44,0-0.876,0-1.315,0
		C168.226,30.117,168.226,31.99,168.226,33.862z"/>
	<path d="M168.896,26.064c-0.405-0.008-0.734,0.301-0.747,0.691c-0.014,0.416,0.328,0.747,0.726,0.743
		c0.402,0.007,0.734-0.304,0.742-0.695C169.626,26.394,169.312,26.073,168.896,26.064z"/>
</g>
</svg>
